# Blender v2.90.1 OBJ File: 'door.blend'
# www.blender.org
mtllib door_hinge3.mtl
o door_hinge3
v 0.618826 1.072724 -0.723304
v 0.622256 1.072724 -0.726182
v 0.623034 1.072724 -0.724835
v 0.623304 1.072724 -0.723304
v 0.619604 1.072724 -0.727714
v 0.621065 1.072724 -0.727182
v 0.616587 1.072724 -0.727182
v 0.618048 1.072724 -0.727714
v 0.614618 1.072724 -0.724835
v 0.615396 1.072724 -0.726182
v 0.614618 1.072724 -0.721772
v 0.614348 1.072724 -0.723304
v 0.616587 1.072724 -0.719426
v 0.615396 1.072724 -0.720425
v 0.619604 1.072724 -0.718894
v 0.618048 1.072724 -0.718894
v 0.622256 1.072724 -0.720425
v 0.621065 1.072724 -0.719426
v 0.623034 1.072724 -0.721772
v 0.623034 1.088652 -0.724835
v 0.623304 1.088652 -0.723304
v 0.622256 1.088652 -0.726182
v 0.621065 1.088652 -0.727182
v 0.619604 1.088652 -0.727714
v 0.618048 1.088652 -0.727714
v 0.616587 1.088652 -0.727182
v 0.615396 1.088652 -0.726182
v 0.614618 1.088652 -0.724835
v 0.614348 1.088652 -0.723304
v 0.614618 1.088652 -0.721772
v 0.615396 1.088652 -0.720425
v 0.616587 1.088652 -0.719426
v 0.618048 1.088652 -0.718894
v 0.619604 1.088652 -0.718894
v 0.621065 1.088652 -0.719426
v 0.622256 1.088652 -0.720425
v 0.623034 1.088652 -0.721772
v 0.623034 1.104581 -0.724835
v 0.623304 1.104581 -0.723304
v 0.622256 1.104581 -0.726182
v 0.621065 1.104581 -0.727182
v 0.619604 1.104581 -0.727714
v 0.618048 1.104581 -0.727714
v 0.616587 1.104581 -0.727182
v 0.615396 1.104581 -0.726182
v 0.614618 1.104581 -0.724835
v 0.614348 1.104581 -0.723304
v 0.614618 1.104581 -0.721772
v 0.615396 1.104581 -0.720425
v 0.616587 1.104581 -0.719426
v 0.618048 1.104581 -0.718894
v 0.619604 1.104581 -0.718894
v 0.621065 1.104581 -0.719426
v 0.622256 1.104581 -0.720425
v 0.623034 1.104581 -0.721772
v 0.623034 1.120509 -0.724835
v 0.623304 1.120509 -0.723304
v 0.622256 1.120509 -0.726182
v 0.621065 1.120509 -0.727182
v 0.619604 1.120509 -0.727714
v 0.618048 1.120509 -0.727714
v 0.616587 1.120509 -0.727182
v 0.615396 1.120509 -0.726182
v 0.614618 1.120509 -0.724835
v 0.614348 1.120509 -0.723304
v 0.614618 1.120509 -0.721772
v 0.615396 1.120509 -0.720425
v 0.616587 1.120509 -0.719426
v 0.618048 1.120509 -0.718894
v 0.619604 1.120509 -0.718894
v 0.621065 1.120509 -0.719426
v 0.622256 1.120509 -0.720425
v 0.623034 1.120509 -0.721772
v 0.623034 1.136437 -0.724835
v 0.623304 1.136437 -0.723304
v 0.622256 1.136437 -0.726182
v 0.621065 1.136437 -0.727182
v 0.619604 1.136437 -0.727714
v 0.618048 1.136437 -0.727714
v 0.616587 1.136437 -0.727182
v 0.615396 1.136437 -0.726182
v 0.614618 1.136437 -0.724835
v 0.614348 1.136437 -0.723304
v 0.614618 1.136437 -0.721772
v 0.615396 1.136437 -0.720425
v 0.616587 1.136437 -0.719426
v 0.618048 1.136437 -0.718894
v 0.619604 1.136437 -0.718894
v 0.621065 1.136437 -0.719426
v 0.622256 1.136437 -0.720425
v 0.623034 1.136437 -0.721772
v 0.623034 1.152365 -0.724835
v 0.623304 1.152365 -0.723304
v 0.622256 1.152365 -0.726182
v 0.621065 1.152365 -0.727182
v 0.619604 1.152365 -0.727714
v 0.618048 1.152365 -0.727714
v 0.616587 1.152365 -0.727182
v 0.615396 1.152365 -0.726182
v 0.614618 1.152365 -0.724835
v 0.614348 1.152365 -0.723304
v 0.614618 1.152365 -0.721772
v 0.615396 1.152365 -0.720425
v 0.616587 1.152365 -0.719426
v 0.618048 1.152365 -0.718894
v 0.619604 1.152365 -0.718894
v 0.621065 1.152365 -0.719426
v 0.622256 1.152365 -0.720425
v 0.623034 1.152365 -0.721772
v 0.618826 1.152365 -0.723304
vt 0.500000 0.000000
vt 0.861100 0.000000
vt 0.805600 0.000000
vt 0.750000 0.000000
vt 0.972200 0.000000
vt 0.916700 0.000000
vt 0.083300 0.000000
vt 0.027800 0.000000
vt -0.027800 0.000000
vt 0.194400 0.000000
vt 0.138900 0.000000
vt 0.305600 0.000000
vt 0.250000 0.000000
vt 0.416700 0.000000
vt 0.361100 0.000000
vt 0.527800 0.000000
vt 0.472200 0.000000
vt 0.638900 0.000000
vt 0.583300 0.000000
vt 0.694400 0.000000
vt 0.805600 0.200000
vt 0.750000 0.200000
vt 0.861100 0.200000
vt 0.916700 0.200000
vt 0.972200 0.200000
vt 0.027800 0.200000
vt -0.027800 0.200000
vt 0.083300 0.200000
vt 0.138900 0.200000
vt 0.194400 0.200000
vt 0.250000 0.200000
vt 0.305600 0.200000
vt 0.361100 0.200000
vt 0.416700 0.200000
vt 0.472200 0.200000
vt 0.527800 0.200000
vt 0.583300 0.200000
vt 0.638900 0.200000
vt 0.694400 0.200000
vt 0.805600 0.400000
vt 0.750000 0.400000
vt 0.861100 0.400000
vt 0.916700 0.400000
vt 0.972200 0.400000
vt 0.027800 0.400000
vt -0.027800 0.400000
vt 0.083300 0.400000
vt 0.138900 0.400000
vt 0.194400 0.400000
vt 0.250000 0.400000
vt 0.305600 0.400000
vt 0.361100 0.400000
vt 0.416700 0.400000
vt 0.472200 0.400000
vt 0.527800 0.400000
vt 0.583300 0.400000
vt 0.638900 0.400000
vt 0.694400 0.400000
vt 0.805600 0.600000
vt 0.750000 0.600000
vt 0.861100 0.600000
vt 0.916700 0.600000
vt 0.972200 0.600000
vt 0.027800 0.600000
vt -0.027800 0.600000
vt 0.083300 0.600000
vt 0.138900 0.600000
vt 0.194400 0.600000
vt 0.250000 0.600000
vt 0.305600 0.600000
vt 0.361100 0.600000
vt 0.416700 0.600000
vt 0.472200 0.600000
vt 0.527800 0.600000
vt 0.583300 0.600000
vt 0.638900 0.600000
vt 0.694400 0.600000
vt 0.805600 0.800000
vt 0.750000 0.800000
vt 0.861100 0.800000
vt 0.916700 0.800000
vt 0.972200 0.800000
vt 0.027800 0.800000
vt -0.027800 0.800000
vt 0.083300 0.800000
vt 0.138900 0.800000
vt 0.194400 0.800000
vt 0.250000 0.800000
vt 0.305600 0.800000
vt 0.361100 0.800000
vt 0.416700 0.800000
vt 0.472200 0.800000
vt 0.527800 0.800000
vt 0.583300 0.800000
vt 0.638900 0.800000
vt 0.694400 0.800000
vt 0.805600 1.000000
vt 0.750000 1.000000
vt 0.861100 1.000000
vt 0.916700 1.000000
vt 0.972200 1.000000
vt 0.027800 1.000000
vt -0.027800 1.000000
vt 0.083300 1.000000
vt 0.138900 1.000000
vt 0.194400 1.000000
vt 0.250000 1.000000
vt 0.305600 1.000000
vt 0.361100 1.000000
vt 0.416700 1.000000
vt 0.472200 1.000000
vt 0.527800 1.000000
vt 0.583300 1.000000
vt 0.638900 1.000000
vt 0.694400 1.000000
vt 0.500000 1.000000
vt 0.970800 1.000000
vn 0.0000 -1.0000 -0.0000
vn 1.0000 0.0000 -0.0001
vn 0.9397 0.0000 -0.3421
vn 0.7661 0.0000 -0.6427
vn 0.4998 0.0000 -0.8661
vn 0.4999 -0.0000 -0.8661
vn 0.1737 0.0000 -0.9848
vn -0.1737 0.0000 -0.9848
vn -0.4998 0.0000 -0.8661
vn -0.5002 0.0000 -0.8659
vn -0.7661 0.0000 -0.6427
vn -0.9397 0.0000 -0.3421
vn -1.0000 0.0000 -0.0001
vn -0.9397 0.0000 0.3421
vn -0.7659 0.0000 0.6429
vn -0.5000 0.0000 0.8660
vn -0.1737 0.0000 0.9848
vn 0.1737 0.0000 0.9848
vn 0.5000 0.0000 0.8660
vn 0.7659 0.0000 0.6429
vn 0.9397 0.0000 0.3421
vn 0.5002 0.0000 -0.8659
vn -0.4997 0.0000 -0.8662
vn 0.0000 1.0000 -0.0000
usemtl Default_OBJ.006
s 1
f 1/1/1 2/2/1 3/3/1 4/4/1
f 1/1/1 5/5/1 6/6/1 2/2/1
f 1/1/1 7/7/1 8/8/1 5/9/1
f 1/1/1 9/10/1 10/11/1 7/7/1
f 1/1/1 11/12/1 12/13/1 9/10/1
f 1/1/1 13/14/1 14/15/1 11/12/1
f 1/1/1 15/16/1 16/17/1 13/14/1
f 1/1/1 17/18/1 18/19/1 15/16/1
f 1/1/1 4/4/1 19/20/1 17/18/1
f 4/4/2 3/3/3 20/21/3 21/22/2
f 3/3/3 2/2/4 22/23/4 20/21/3
f 2/2/4 6/6/5 23/24/6 22/23/4
f 6/6/5 5/5/7 24/25/7 23/24/6
f 5/9/7 8/8/8 25/26/8 24/27/7
f 8/8/8 7/7/9 26/28/10 25/26/8
f 7/7/9 10/11/11 27/29/11 26/28/10
f 10/11/11 9/10/12 28/30/12 27/29/11
f 9/10/12 12/13/13 29/31/13 28/30/12
f 12/13/13 11/12/14 30/32/14 29/31/13
f 11/12/14 14/15/15 31/33/15 30/32/14
f 14/15/15 13/14/16 32/34/16 31/33/15
f 13/14/16 16/17/17 33/35/17 32/34/16
f 16/17/17 15/16/18 34/36/18 33/35/17
f 15/16/18 18/19/19 35/37/19 34/36/18
f 18/19/19 17/18/20 36/38/20 35/37/19
f 17/18/20 19/20/21 37/39/21 36/38/20
f 19/20/21 4/4/2 21/22/2 37/39/21
f 21/22/2 20/21/3 38/40/3 39/41/2
f 20/21/3 22/23/4 40/42/4 38/40/3
f 22/23/4 23/24/6 41/43/6 40/42/4
f 23/24/6 24/25/7 42/44/7 41/43/6
f 24/27/7 25/26/8 43/45/8 42/46/7
f 25/26/8 26/28/10 44/47/10 43/45/8
f 26/28/10 27/29/11 45/48/11 44/47/10
f 27/29/11 28/30/12 46/49/12 45/48/11
f 28/30/12 29/31/13 47/50/13 46/49/12
f 29/31/13 30/32/14 48/51/14 47/50/13
f 30/32/14 31/33/15 49/52/15 48/51/14
f 31/33/15 32/34/16 50/53/16 49/52/15
f 32/34/16 33/35/17 51/54/17 50/53/16
f 33/35/17 34/36/18 52/55/18 51/54/17
f 34/36/18 35/37/19 53/56/19 52/55/18
f 35/37/19 36/38/20 54/57/20 53/56/19
f 36/38/20 37/39/21 55/58/21 54/57/20
f 37/39/21 21/22/2 39/41/2 55/58/21
f 39/41/2 38/40/3 56/59/3 57/60/2
f 38/40/3 40/42/4 58/61/4 56/59/3
f 40/42/4 41/43/6 59/62/22 58/61/4
f 41/43/6 42/44/7 60/63/7 59/62/22
f 42/46/7 43/45/8 61/64/8 60/65/7
f 43/45/8 44/47/10 62/66/10 61/64/8
f 44/47/10 45/48/11 63/67/11 62/66/10
f 45/48/11 46/49/12 64/68/12 63/67/11
f 46/49/12 47/50/13 65/69/13 64/68/12
f 47/50/13 48/51/14 66/70/14 65/69/13
f 48/51/14 49/52/15 67/71/15 66/70/14
f 49/52/15 50/53/16 68/72/16 67/71/15
f 50/53/16 51/54/17 69/73/17 68/72/16
f 51/54/17 52/55/18 70/74/18 69/73/17
f 52/55/18 53/56/19 71/75/19 70/74/18
f 53/56/19 54/57/20 72/76/20 71/75/19
f 54/57/20 55/58/21 73/77/21 72/76/20
f 55/58/21 39/41/2 57/60/2 73/77/21
f 57/60/2 56/59/3 74/78/3 75/79/2
f 56/59/3 58/61/4 76/80/4 74/78/3
f 58/61/4 59/62/22 77/81/22 76/80/4
f 59/62/22 60/63/7 78/82/7 77/81/22
f 60/65/7 61/64/8 79/83/8 78/84/7
f 61/64/8 62/66/10 80/85/23 79/83/8
f 62/66/10 63/67/11 81/86/11 80/85/23
f 63/67/11 64/68/12 82/87/12 81/86/11
f 64/68/12 65/69/13 83/88/13 82/87/12
f 65/69/13 66/70/14 84/89/14 83/88/13
f 66/70/14 67/71/15 85/90/15 84/89/14
f 67/71/15 68/72/16 86/91/16 85/90/15
f 68/72/16 69/73/17 87/92/17 86/91/16
f 69/73/17 70/74/18 88/93/18 87/92/17
f 70/74/18 71/75/19 89/94/19 88/93/18
f 71/75/19 72/76/20 90/95/20 89/94/19
f 72/76/20 73/77/21 91/96/21 90/95/20
f 73/77/21 57/60/2 75/79/2 91/96/21
f 75/79/2 74/78/3 92/97/3 93/98/2
f 74/78/3 76/80/4 94/99/4 92/97/3
f 76/80/4 77/81/22 95/100/5 94/99/4
f 77/81/22 78/82/7 96/101/7 95/100/5
f 78/84/7 79/83/8 97/102/8 96/103/7
f 79/83/8 80/85/23 98/104/9 97/102/8
f 80/85/23 81/86/11 99/105/11 98/104/9
f 81/86/11 82/87/12 100/106/12 99/105/11
f 82/87/12 83/88/13 101/107/13 100/106/12
f 83/88/13 84/89/14 102/108/14 101/107/13
f 84/89/14 85/90/15 103/109/15 102/108/14
f 85/90/15 86/91/16 104/110/16 103/109/15
f 86/91/16 87/92/17 105/111/17 104/110/16
f 87/92/17 88/93/18 106/112/18 105/111/17
f 88/93/18 89/94/19 107/113/19 106/112/18
f 89/94/19 90/95/20 108/114/20 107/113/19
f 90/95/20 91/96/21 109/115/21 108/114/20
f 91/96/21 75/79/2 93/98/2 109/115/21
f 110/116/24 109/115/24 93/98/24 92/97/24
f 110/116/24 92/97/24 94/99/24 95/100/24
f 110/116/24 95/100/24 96/101/24 97/117/24
f 110/116/24 97/102/24 98/104/24 99/105/24
f 110/116/24 99/105/24 100/106/24 101/107/24
f 110/116/24 101/107/24 102/108/24 103/109/24
f 110/116/24 103/109/24 104/110/24 105/111/24
f 110/116/24 105/111/24 106/112/24 107/113/24
f 110/116/24 107/113/24 108/114/24 109/115/24
