# Blender v2.90.1 OBJ File: ''
# www.blender.org
mtllib door_refine.mtl
o door.002
v 0.588775 -0.006943 -0.742195
v 0.606547 -0.006943 -0.754042
v 0.937773 -0.006943 -0.257133
v 0.920000 -0.006943 -0.245287
v 0.588775 1.203056 -0.742195
v 0.920000 1.203056 -0.245287
v 0.937773 1.203056 -0.257133
v 0.606547 1.203056 -0.754042
vt 1.000000 0.000000
vt 1.000000 1.000000
vt 0.000000 1.000000
vt 0.000000 0.000000
vt 0.000000 0.000000
vt 1.000000 0.000000
vt 1.000000 1.000000
vt 0.000000 1.000000
vt 0.000000 0.000000
vt 1.000000 0.000000
vt 1.000000 1.000000
vt 0.000000 1.000000
vt 1.000000 0.000000
vt 0.000000 1.000000
vt 0.000000 0.000000
vt 1.000000 0.000000
vt 1.000000 1.000000
vt 0.000000 1.000000
vt 0.000000 0.000000
vt 1.000000 1.000000
vn 0.0000 -1.0000 -0.0000
vn -0.0000 1.0000 0.0000
vn -0.8321 -0.0000 0.5546
vn 0.5546 -0.0000 0.8321
vn 0.8321 0.0000 -0.5546
vn -0.5547 0.0000 -0.8321
usemtl Default_OBJ.002
s 1
f 1/1/1 2/2/1 3/3/1 4/4/1
f 5/5/2 6/6/2 7/7/2 8/8/2
f 1/9/3 4/10/3 6/11/3 5/12/3
f 4/4/4 3/13/4 7/7/4 6/14/4
f 3/15/5 2/16/5 8/17/5 7/18/5
f 2/19/6 1/1/6 5/20/6 8/8/6
