# Blender v2.90.1 OBJ File: 'door.blend'
# www.blender.org
mtllib walls.mtl
o walls
v 1.761961 1.449999 -0.730100
v 1.761961 1.449998 2.302781
v -2.028594 1.449998 2.302781
v 1.219445 1.449999 -0.730100
v 0.587110 1.449999 -0.730100
v -2.028594 1.449999 -0.730100
v -2.028594 1.233377 -0.730100
v -2.028594 1.233377 2.302782
v -2.028594 -0.000000 2.302781
v -2.028594 0.000000 -0.730100
v 1.761961 1.233377 2.302781
v 1.761961 -0.000000 2.302781
v 1.761961 1.233377 -0.730100
v 1.761961 0.000000 -0.730100
v 0.587110 1.233377 -0.730100
v 1.219445 1.233377 -0.730100
v 1.219445 0.000000 -0.730100
v 0.587110 0.000000 -0.730100
v 1.219445 0.000000 -0.746628
v 0.587110 0.000000 -0.746628
v 1.219445 1.233377 -0.746628
v 0.587110 1.233377 -0.746628
v -2.023776 1.449999 -0.770546
v -2.023777 1.449999 -3.951209
v 1.766778 1.449999 -3.951209
v 0.587110 1.449999 -0.770546
v 1.219445 1.449999 -0.770546
v 1.766779 1.449999 -0.770547
v 1.766779 1.233377 -0.770547
v 1.766778 1.233377 -3.951209
v 1.766778 0.000000 -3.951209
v 1.766779 0.000000 -0.770547
v -2.023777 1.233377 -3.951209
v -2.023777 0.000000 -3.951209
v -2.023776 1.233377 -0.770546
v -2.023776 0.000000 -0.770546
v 1.219445 1.233377 -0.770546
v 0.587110 1.233377 -0.770546
v 0.587110 0.000000 -0.770546
v 1.219445 0.000000 -0.770546
vt 0.000000 1.000000
vt 0.000000 0.000000
vt 0.000000 0.000000
vt 0.000000 1.000000
vt 1.000000 0.000000
vt 1.000000 0.000000
vt 1.000000 1.000000
vt 1.000000 1.000000
vt 0.333300 1.000000
vt 0.333300 1.000000
vt 0.666700 1.000000
vt 0.666700 1.000000
vt 0.000000 1.000000
vt 0.666700 1.000000
vt 0.000000 0.000000
vt 1.000000 0.000000
vt 1.000000 1.000000
vt 0.333300 1.000000
vt 0.666700 1.000000
vt 0.333300 1.000000
vt 0.666700 1.000000
vt 0.333300 1.000000
vt 0.000000 1.000000
vt 0.000000 0.000000
vt 0.000000 0.000000
vt 0.000000 1.000000
vt 1.000000 0.000000
vt 1.000000 0.000000
vt 1.000000 1.000000
vt 1.000000 1.000000
vt 0.333300 1.000000
vt 0.333300 1.000000
vt 0.666700 1.000000
vt 0.666700 1.000000
vt 0.000000 1.000000
vt 0.666700 1.000000
vt 0.000000 0.000000
vt 1.000000 0.000000
vt 1.000000 1.000000
vt 0.333300 1.000000
vt 0.666700 1.000000
vt 0.333300 1.000000
vt 0.666700 1.000000
vt 0.333300 1.000000
vn 1.0000 0.0000 0.0000
vn -0.0000 0.0000 -1.0000
vn -1.0000 -0.0000 0.0000
vn 0.0000 -0.0000 1.0000
vn 0.0000 1.0000 0.0000
vn 0.0000 -1.0000 0.0000
usemtl Default_OBJ.021
s off
f 7/1/1 8/2/1 9/3/1 10/4/1
f 8/2/2 11/5/2 12/6/2 9/3/2
f 11/5/3 13/7/3 14/8/3 12/6/3
f 5/9/4 15/10/4 16/11/4 4/12/4
f 6/13/4 7/1/4 15/10/4 5/9/4
f 14/8/4 13/7/4 16/11/4 17/14/4
f 6/13/1 3/15/1 8/2/1 7/1/1
f 3/15/2 2/16/2 11/5/2 8/2/2
f 2/16/3 1/17/3 13/7/3 11/5/3
f 10/4/4 18/18/4 15/10/4 7/1/4
f 1/17/4 4/12/4 16/11/4 13/7/4
f 18/18/5 17/14/5 19/19/5 20/20/5
f 17/14/3 16/11/3 21/21/3 19/19/3
f 16/11/6 15/10/6 22/22/6 21/21/6
f 15/10/1 18/18/1 20/20/1 22/22/1
f 29/23/3 30/24/3 31/25/3 32/26/3
f 30/24/4 33/27/4 34/28/4 31/25/4
f 33/27/1 35/29/1 36/30/1 34/28/1
f 27/31/2 37/32/2 38/33/2 26/34/2
f 28/35/2 29/23/2 37/32/2 27/31/2
f 36/30/2 35/29/2 38/33/2 39/36/2
f 28/35/3 25/37/3 30/24/3 29/23/3
f 25/37/4 24/38/4 33/27/4 30/24/4
f 24/38/1 23/39/1 35/29/1 33/27/1
f 32/26/2 40/40/2 37/32/2 29/23/2
f 23/39/2 26/34/2 38/33/2 35/29/2
f 40/40/5 39/36/5 20/41/5 19/42/5
f 39/36/1 38/33/1 22/43/1 20/41/1
f 38/33/6 37/32/6 21/44/6 22/43/6
f 37/32/3 40/40/3 19/42/3 21/44/3
s 1
f 1/17/6 2/16/6 3/15/6 4/12/6
f 5/9/6 4/12/6 3/15/6 6/13/6
f 23/39/6 24/38/6 25/37/6 26/34/6
f 27/31/6 26/34/6 25/37/6 28/35/6
