# Blender v2.90.1 OBJ File: 'hallwayStash.blend'
# www.blender.org
mtllib lightOcclusion_back.mtl
o Plane.006
v 1.592080 1.716843 -3.366180
v 2.192080 1.716843 -3.966179
v 1.592080 1.716843 -3.966180
v 2.192080 1.716843 -3.366179
v 1.592080 1.707133 -3.366180
v 2.192080 1.707133 -3.966179
v 1.592080 1.707133 -3.966180
v 2.192080 1.707133 -3.366179
vt 0.000000 0.000000
vt 0.000000 0.000000
vt 0.000000 0.000000
vt 0.000000 0.000000
vt 0.000000 0.000000
vt 0.000000 0.000000
vt 0.000000 0.000000
vt 0.000000 0.000000
vn 0.0000 1.0000 0.0000
vn -0.0000 0.0000 1.0000
vn -1.0000 0.0000 0.0000
vn 1.0000 0.0000 0.0000
vn 0.0000 0.0000 -1.0000
usemtl None.001
s off
f 4/1/1 2/2/1 3/3/1 1/4/1
f 8/5/1 6/6/1 7/7/1 5/8/1
f 1/4/2 5/8/2 8/5/2 4/1/2
f 3/3/3 7/7/3 5/8/3 1/4/3
f 4/1/4 8/5/4 6/6/4 2/2/4
f 2/2/5 6/6/5 7/7/5 3/3/5
