# Blender v2.80 (sub 75) OBJ File: ''
# www.blender.org
mtllib mesh_00108.mtl
o mesh_00108
v 0.639041 2.790363 0.480284
v 0.646515 2.790363 0.480284
v 0.646515 2.738335 0.480284
v 0.639041 2.738335 0.480284
v 0.646515 2.790363 0.509575
v 0.639041 2.790363 0.509575
v 0.639041 2.738335 0.509575
v 0.646515 2.738335 0.509575
v 0.646515 2.790363 0.490048
v 0.646515 2.790363 0.480284
v 0.639041 2.790363 0.480284
v 0.639041 2.790363 0.490048
v 0.639041 2.790363 0.499812
v 0.646515 2.790363 0.499812
v 0.639041 2.790363 0.509575
v 0.646515 2.790363 0.509575
v 0.639041 2.790363 0.509575
v 0.639041 2.790363 0.499812
v 0.639041 2.731864 0.499812
v 0.639041 2.738335 0.509575
v 0.639041 2.790363 0.490048
v 0.639041 2.731864 0.490048
v 0.639041 2.790363 0.480284
v 0.639041 2.738335 0.480284
v 0.646515 2.790363 0.480284
v 0.646515 2.790363 0.490048
v 0.646515 2.731864 0.490048
v 0.646515 2.738335 0.480284
v 0.646515 2.790363 0.499812
v 0.646515 2.731864 0.499812
v 0.646515 2.790363 0.509575
v 0.646515 2.738335 0.509575
v 0.639041 2.738335 0.509575
v 0.639041 2.731864 0.499812
v 0.646515 2.731864 0.499812
v 0.646515 2.738335 0.509575
v 0.639041 2.731864 0.499812
v 0.639041 2.731864 0.490048
v 0.646515 2.731864 0.490048
v 0.646515 2.731864 0.499812
v 0.639041 2.731864 0.490048
v 0.639041 2.738335 0.480284
v 0.646515 2.738335 0.480284
v 0.646515 2.731864 0.490048
v -0.209273 2.790363 0.480284
v -0.209273 2.738335 0.480284
v -0.216746 2.738335 0.480284
v -0.216746 2.790363 0.480284
v -0.216746 2.790363 0.509575
v -0.216746 2.738335 0.509575
v -0.209273 2.738335 0.509575
v -0.209273 2.790363 0.509575
v -0.216746 2.790363 0.490048
v -0.209273 2.790363 0.490048
v -0.209273 2.790363 0.480284
v -0.216746 2.790363 0.480284
v -0.216746 2.790363 0.499812
v -0.209273 2.790363 0.499812
v -0.216746 2.790363 0.509575
v -0.209273 2.790363 0.509575
v -0.209273 2.790363 0.509575
v -0.209273 2.738335 0.509575
v -0.209273 2.731864 0.499812
v -0.209273 2.790363 0.499812
v -0.209273 2.731864 0.490048
v -0.209273 2.790363 0.490048
v -0.209273 2.738335 0.480284
v -0.209273 2.790363 0.480284
v -0.216746 2.790363 0.480284
v -0.216746 2.738335 0.480284
v -0.216746 2.731864 0.490048
v -0.216746 2.790363 0.490048
v -0.216746 2.731864 0.499812
v -0.216746 2.790363 0.499812
v -0.216746 2.738335 0.509575
v -0.216746 2.790363 0.509575
v -0.209273 2.738335 0.509575
v -0.216746 2.738335 0.509575
v -0.216746 2.731864 0.499812
v -0.209273 2.731864 0.499812
v -0.209273 2.731864 0.499812
v -0.216746 2.731864 0.499812
v -0.216746 2.731864 0.490048
v -0.209273 2.731864 0.490048
v -0.209273 2.731864 0.490048
v -0.216746 2.731864 0.490048
v -0.216746 2.738335 0.480284
v -0.209273 2.738335 0.480284
vn 0.0000 0.0000 -1.0000
vn 0.0000 0.0000 1.0000
vn 0.0000 1.0000 0.0000
vn -1.0000 0.0000 0.0000
vn 1.0000 0.0000 0.0000
vn 0.0000 -0.8335 0.5524
vn 0.0000 -0.8335 0.5525
vn 0.0000 -1.0000 0.0000
vn 0.0000 -0.8336 -0.5524
vn 0.0000 -0.8336 0.5524
usemtl None
s off
f 1//1 2//1 3//1
f 1//1 3//1 4//1
f 5//2 6//2 7//2
f 5//2 7//2 8//2
f 9//3 10//3 11//3
f 9//3 11//3 12//3
f 12//3 13//3 14//3
f 12//3 14//3 9//3
f 13//3 15//3 16//3
f 13//3 16//3 14//3
f 17//4 18//4 19//4
f 17//4 19//4 20//4
f 18//4 21//4 22//4
f 18//4 22//4 19//4
f 21//4 23//4 24//4
f 21//4 24//4 22//4
f 25//5 26//5 27//5
f 25//5 27//5 28//5
f 26//5 29//5 30//5
f 26//5 30//5 27//5
f 29//5 31//5 32//5
f 29//5 32//5 30//5
f 33//6 34//6 35//6
f 33//7 35//7 36//7
f 37//8 38//8 39//8
f 37//8 39//8 40//8
f 41//9 42//9 43//9
f 41//9 43//9 44//9
f 45//1 46//1 47//1
f 45//1 47//1 48//1
f 49//2 50//2 51//2
f 49//2 51//2 52//2
f 53//3 54//3 55//3
f 53//3 55//3 56//3
f 54//3 53//3 57//3
f 54//3 57//3 58//3
f 58//3 57//3 59//3
f 58//3 59//3 60//3
f 61//5 62//5 63//5
f 61//5 63//5 64//5
f 64//5 63//5 65//5
f 64//5 65//5 66//5
f 66//5 65//5 67//5
f 66//5 67//5 68//5
f 69//4 70//4 71//4
f 69//4 71//4 72//4
f 72//4 71//4 73//4
f 72//4 73//4 74//4
f 74//4 73//4 75//4
f 74//4 75//4 76//4
f 77//7 78//7 79//7
f 77//10 79//10 80//10
f 81//8 82//8 83//8
f 81//8 83//8 84//8
f 85//9 86//9 87//9
f 85//9 87//9 88//9
