# Blender v2.80 (sub 75) OBJ File: ''
# www.blender.org
mtllib mesh_00049.mtl
o mesh_00049
v -2.350034 0.936623 4.090922
v -2.177773 0.936623 4.090922
v -2.177773 1.150131 4.117955
v -2.350034 1.150131 4.117955
v -2.177773 0.933485 4.115705
v -2.350034 0.933485 4.115705
v -2.350034 1.146993 4.142738
v -2.177773 1.146993 4.142738
v -2.176946 0.936464 4.092178
v -2.177773 0.936623 4.090922
v -2.350034 0.936623 4.090922
v -2.350034 0.936464 4.092178
v -2.350034 0.933644 4.114450
v -2.176946 0.933644 4.114450
v -2.350034 0.933485 4.115705
v -2.177773 0.933485 4.115705
v -2.350034 0.933485 4.115705
v -2.350034 0.933644 4.114450
v -2.350034 1.147152 4.141482
v -2.350034 1.146993 4.142738
v -2.350034 0.936464 4.092178
v -2.350034 1.149972 4.119211
v -2.350034 0.936623 4.090922
v -2.350034 1.150131 4.117955
v -2.177773 0.936623 4.090922
v -2.176946 0.936464 4.092178
v -2.176946 1.149972 4.119211
v -2.177773 1.150131 4.117955
v -2.176946 0.936464 4.092178
v -2.176946 0.933644 4.114450
v -2.176946 1.147152 4.141482
v -2.176946 1.149972 4.119211
v -2.176946 0.933644 4.114450
v -2.177773 0.933485 4.115705
v -2.177773 1.146993 4.142738
v -2.176946 1.147152 4.141482
v -2.350034 1.146993 4.142738
v -2.350034 1.147152 4.141482
v -2.176946 1.147152 4.141482
v -2.177773 1.146993 4.142738
v -2.350034 1.149972 4.119211
v -2.176946 1.149972 4.119211
v -2.350034 1.150131 4.117955
v -2.177773 1.150131 4.117955
vn 0.0000 -0.1256 0.9921
vn 0.0000 0.1256 -0.9921
vn 0.0000 0.9921 0.1256
vn 0.0000 0.9921 0.1255
vn 0.0000 0.9921 0.1257
vn 0.0000 0.9921 0.1258
vn 1.0000 -0.0001 0.0000
vn 1.0000 0.0000 0.0000
vn 1.0000 0.0001 0.0000
vn -0.8373 -0.0687 0.5424
vn -0.8371 -0.0687 0.5428
vn -1.0000 -0.0000 0.0000
vn -0.8370 0.0687 -0.5429
vn -0.8371 0.0687 -0.5427
vn 0.0000 -0.9921 -0.1254
vn 0.0000 -0.9921 -0.1256
usemtl None
s off
f 1//1 2//1 3//1
f 1//1 3//1 4//1
f 5//2 6//2 7//2
f 5//2 7//2 8//2
f 9//3 10//3 11//3
f 9//4 11//4 12//4
f 12//3 13//3 14//3
f 12//3 14//3 9//3
f 13//5 15//5 16//5
f 13//6 16//6 14//6
f 17//7 18//7 19//7
f 17//8 19//8 20//8
f 18//8 21//8 22//8
f 18//8 22//8 19//8
f 21//9 23//9 24//9
f 21//8 24//8 22//8
f 25//10 26//10 27//10
f 25//11 27//11 28//11
f 29//12 30//12 31//12
f 29//12 31//12 32//12
f 33//13 34//13 35//13
f 33//14 35//14 36//14
f 37//15 38//15 39//15
f 37//16 39//16 40//16
f 38//16 41//16 42//16
f 38//16 42//16 39//16
f 41//16 43//16 44//16
f 41//16 44//16 42//16
