# Blender v2.80 (sub 75) OBJ File: ''
# www.blender.org
mtllib mesh_00050.mtl
o mesh_00050
v -2.284241 0.931875 3.812215
v -2.179618 0.931875 3.812215
v -2.179618 1.100276 3.812215
v -2.284241 1.100276 3.812215
v -2.179618 0.931875 3.848407
v -2.284241 0.931875 3.848407
v -2.284241 1.100276 3.848407
v -2.179618 1.100276 3.848407
v -2.178792 0.931875 3.813481
v -2.179618 0.931875 3.812215
v -2.284241 0.931875 3.812215
v -2.284241 0.931875 3.813481
v -2.284241 0.931875 3.847141
v -2.178792 0.931875 3.847141
v -2.284241 0.931875 3.848407
v -2.179618 0.931875 3.848407
v -2.284241 0.931875 3.848407
v -2.284241 0.931875 3.847141
v -2.284241 1.100276 3.847141
v -2.284241 1.100276 3.848407
v -2.284241 0.931875 3.813481
v -2.284241 1.100276 3.813481
v -2.284241 0.931875 3.812215
v -2.284241 1.100276 3.812215
v -2.179618 0.931875 3.812215
v -2.178792 0.931875 3.813481
v -2.178792 1.100276 3.813481
v -2.179618 1.100276 3.812215
v -2.178792 0.931875 3.813481
v -2.178792 0.931875 3.847141
v -2.178792 1.100276 3.847141
v -2.178792 1.100276 3.813481
v -2.178792 0.931875 3.847141
v -2.179618 0.931875 3.848407
v -2.179618 1.100276 3.848407
v -2.178792 1.100276 3.847141
v -2.284241 1.100276 3.848407
v -2.284241 1.100276 3.847141
v -2.178792 1.100276 3.847141
v -2.179618 1.100276 3.848407
v -2.284241 1.100276 3.813481
v -2.178792 1.100276 3.813481
v -2.284241 1.100276 3.812215
v -2.179618 1.100276 3.812215
vn 0.0000 0.0000 1.0000
vn 0.0000 0.0000 -1.0000
vn 0.0000 1.0000 -0.0001
vn 0.0000 1.0000 0.0000
vn 0.0000 1.0000 0.0001
vn 1.0000 0.0000 0.0000
vn -0.8375 0.0000 0.5465
vn -0.8376 0.0000 0.5462
vn -1.0000 0.0000 0.0000
vn -0.8375 0.0000 -0.5465
vn 0.0000 -1.0000 0.0000
usemtl None
s off
f 1//1 2//1 3//1
f 1//1 3//1 4//1
f 5//2 6//2 7//2
f 5//2 7//2 8//2
f 9//3 10//3 11//3
f 9//4 11//4 12//4
f 12//4 13//4 14//4
f 12//4 14//4 9//4
f 13//4 15//4 16//4
f 13//5 16//5 14//5
f 17//6 18//6 19//6
f 17//6 19//6 20//6
f 18//6 21//6 22//6
f 18//6 22//6 19//6
f 21//6 23//6 24//6
f 21//6 24//6 22//6
f 25//7 26//7 27//7
f 25//8 27//8 28//8
f 29//9 30//9 31//9
f 29//9 31//9 32//9
f 33//10 34//10 35//10
f 33//10 35//10 36//10
f 37//11 38//11 39//11
f 37//11 39//11 40//11
f 38//11 41//11 42//11
f 38//11 42//11 39//11
f 41//11 43//11 44//11
f 41//11 44//11 42//11
