# Blender v2.80 (sub 75) OBJ File: ''
# www.blender.org
mtllib mesh_00084.mtl
o mesh_00084
v 0.613468 2.754371 0.423489
v -0.184631 2.754371 0.423489
v -0.184631 1.982476 0.423489
v 0.613468 1.982476 0.423489
v -0.184631 1.982476 0.423489
v -0.184631 2.754371 0.423489
v -0.184631 2.754371 0.425950
v -0.184631 1.982476 0.425949
v 0.613468 2.754371 0.423489
v 0.613468 1.982476 0.423489
v 0.613468 1.982476 0.425950
v 0.613468 2.754371 0.425950
v 0.613468 1.982476 0.423489
v -0.184631 1.982476 0.423489
v -0.184631 1.982476 0.425949
v 0.613468 1.982476 0.425950
v -0.184631 2.754371 0.423489
v 0.613468 2.754371 0.423489
v 0.613468 2.754371 0.425950
v -0.184631 2.754371 0.425950
v -0.184631 1.982476 0.425949
v -0.184631 2.754371 0.425950
v 0.613468 2.754371 0.425950
v 0.613468 1.982476 0.425950
v -0.184631 1.162517 0.488937
v -0.184631 1.934412 0.488937
v 0.613468 1.934412 0.488937
v 0.613468 1.162517 0.488937
v -0.184631 1.934412 0.486476
v 0.613468 1.934412 0.486476
v 0.613468 1.934412 0.488937
v -0.184631 1.934412 0.488937
v 0.613468 1.162517 0.486476
v -0.184631 1.162517 0.486476
v -0.184631 1.162517 0.488937
v 0.613468 1.162517 0.488937
v 0.613468 1.934412 0.486476
v 0.613468 1.162517 0.486476
v 0.613468 1.162517 0.488937
v 0.613468 1.934412 0.488937
v -0.184631 1.162517 0.486476
v -0.184631 1.934412 0.486476
v -0.184631 1.934412 0.488937
v -0.184631 1.162517 0.488937
v 0.613468 1.934412 0.486476
v -0.184631 1.934412 0.486476
v -0.184631 1.162517 0.486476
v 0.613468 1.162517 0.486476
vn 0.0000 0.0000 1.0000
vn 1.0000 0.0000 0.0000
vn -1.0000 0.0000 0.0000
vn 0.0000 1.0000 0.0000
vn 0.0000 -1.0000 0.0000
vn 0.0000 0.0000 -1.0000
usemtl None
s off
f 1//1 2//1 3//1
f 1//1 3//1 4//1
f 5//2 6//2 7//2
f 5//2 7//2 8//2
f 9//3 10//3 11//3
f 9//3 11//3 12//3
f 13//4 14//4 15//4
f 13//4 15//4 16//4
f 17//5 18//5 19//5
f 17//5 19//5 20//5
f 21//6 22//6 23//6
f 21//6 23//6 24//6
f 25//6 26//6 27//6
f 25//6 27//6 28//6
f 29//5 30//5 31//5
f 29//5 31//5 32//5
f 33//4 34//4 35//4
f 33//4 35//4 36//4
f 37//3 38//3 39//3
f 37//3 39//3 40//3
f 41//2 42//2 43//2
f 41//2 43//2 44//2
f 45//1 46//1 47//1
f 45//1 47//1 48//1
