# Blender v2.80 (sub 75) OBJ File: ''
# www.blender.org
mtllib mesh_00123.mtl
o mesh_00123
v -1.494313 0.038503 2.878445
v -1.494313 0.038503 2.356013
v -1.911372 0.038503 2.356013
v -1.911372 0.038503 2.878445
v -1.494313 0.028538 2.878445
v -1.494313 0.028538 2.356013
v -1.911372 0.028538 2.356013
v -1.911372 0.028538 2.878445
v -1.911372 0.038503 3.400877
v -1.494313 0.038503 3.400877
v -1.494313 0.028538 3.400877
v -1.911372 0.028538 3.400877
vn 0.0000 1.0000 0.0000
vn 1.0000 0.0000 0.0000
vn -1.0000 0.0000 0.0000
vn 0.0000 0.0000 -1.0000
vn 0.0000 -1.0000 0.0000
vn 0.0000 0.0000 1.0000
usemtl None
s off
f 1//1 2//1 3//1
f 1//1 3//1 4//1
f 2//2 1//2 5//2
f 2//2 5//2 6//2
f 7//3 8//3 4//3
f 7//3 4//3 3//3
f 6//4 7//4 3//4
f 6//4 3//4 2//4
f 7//5 6//5 5//5
f 7//5 5//5 8//5
f 1//1 4//1 9//1
f 1//1 9//1 10//1
f 10//2 11//2 5//2
f 10//2 5//2 1//2
f 12//3 9//3 4//3
f 12//3 4//3 8//3
f 11//6 10//6 9//6
f 11//6 9//6 12//6
f 12//5 8//5 5//5
f 12//5 5//5 11//5
