# Blender v2.80 (sub 75) OBJ File: ''
# www.blender.org
mtllib mesh_00017.mtl
o mesh_00017
v -2.216043 0.820126 4.094161
v -2.216043 0.820126 4.034645
v -2.229277 0.820126 4.034645
v -2.229277 0.820126 4.094161
v -2.229638 0.723138 4.094161
v -2.229638 0.819765 4.094161
v -2.229638 0.819765 4.034645
v -2.229638 0.723138 4.034645
v -2.216043 0.722778 4.034645
v -2.216043 0.722778 4.094161
v -2.229277 0.722778 4.094161
v -2.229277 0.722778 4.034645
v -2.215683 0.819765 4.034645
v -2.215683 0.819765 4.094161
v -2.215683 0.723138 4.094161
v -2.215683 0.723138 4.034645
v -2.216043 0.723138 4.094522
v -2.216043 0.819765 4.094522
v -2.229277 0.819765 4.094522
v -2.229277 0.723138 4.094522
v -2.216043 0.819765 4.034284
v -2.216043 0.820126 4.034645
v -2.215683 0.819765 4.034645
v -2.216043 0.722778 4.034645
v -2.216043 0.723138 4.034284
v -2.215683 0.723138 4.034645
v -2.216043 0.722778 4.094161
v -2.215683 0.723138 4.094161
v -2.216043 0.723138 4.094522
v -2.216043 0.820126 4.094161
v -2.216043 0.819765 4.094522
v -2.215683 0.819765 4.094161
v -2.229277 0.820126 4.094161
v -2.229638 0.819765 4.094161
v -2.229277 0.819765 4.094522
v -2.229638 0.723138 4.094161
v -2.229277 0.722778 4.094161
v -2.229277 0.723138 4.094522
v -2.229277 0.722778 4.034645
v -2.229638 0.723138 4.034645
v -2.229277 0.723138 4.034284
v -2.229277 0.819765 4.034284
v -2.229638 0.819765 4.034645
v -2.229277 0.820126 4.034645
v -2.215683 0.723138 4.034645
v -2.215683 0.723138 4.094161
v -2.216043 0.722778 4.094161
v -2.216043 0.722778 4.034645
v -2.215683 0.819765 4.034645
v -2.215683 0.723138 4.034645
v -2.216043 0.723138 4.034284
v -2.216043 0.819765 4.034284
v -2.216043 0.820126 4.034645
v -2.216043 0.820126 4.094161
v -2.215683 0.819765 4.094161
v -2.215683 0.819765 4.034645
v -2.215683 0.723138 4.094161
v -2.215683 0.819765 4.094161
v -2.216043 0.819765 4.094522
v -2.216043 0.723138 4.094522
v -2.229277 0.819765 4.094522
v -2.216043 0.819765 4.094522
v -2.216043 0.820126 4.094161
v -2.229277 0.820126 4.094161
v -2.229638 0.819765 4.094161
v -2.229638 0.723138 4.094161
v -2.229277 0.723138 4.094522
v -2.229277 0.819765 4.094522
v -2.229277 0.722778 4.094161
v -2.216043 0.722778 4.094161
v -2.216043 0.723138 4.094522
v -2.229277 0.723138 4.094522
v -2.229277 0.820126 4.034645
v -2.216043 0.820126 4.034645
v -2.216043 0.819765 4.034284
v -2.229277 0.819765 4.034284
v -2.229277 0.820126 4.094161
v -2.229277 0.820126 4.034645
v -2.229638 0.819765 4.034645
v -2.229638 0.819765 4.094161
v -2.229277 0.723138 4.034284
v -2.216043 0.723138 4.034284
v -2.216043 0.722778 4.034645
v -2.229277 0.722778 4.034645
v -2.229638 0.723138 4.034645
v -2.229638 0.819765 4.034645
v -2.229277 0.819765 4.034284
v -2.229277 0.723138 4.034284
v -2.229638 0.723138 4.094161
v -2.229638 0.723138 4.034645
v -2.229277 0.722778 4.034645
v -2.229277 0.722778 4.094161
v -2.216043 0.819765 4.034284
v -2.216043 0.723138 4.034284
v -2.229277 0.723138 4.034284
v -2.229277 0.819765 4.034284
vn 0.0000 1.0000 0.0000
vn -1.0000 0.0000 0.0000
vn 0.0000 -1.0000 0.0000
vn 1.0000 0.0000 0.0000
vn 0.0000 0.0000 1.0000
vn 0.5780 0.5769 -0.5772
vn 0.5771 -0.5781 -0.5768
vn 0.5771 -0.5781 0.5768
vn 0.5780 0.5769 0.5772
vn -0.5768 0.5774 0.5779
vn -0.5760 -0.5786 0.5775
vn -0.5760 -0.5786 -0.5775
vn -0.5768 0.5774 -0.5779
vn 0.7070 -0.7072 0.0000
vn 0.7073 0.0000 -0.7069
vn 0.7085 0.0000 -0.7057
vn 0.7081 0.7061 0.0000
vn 0.7073 0.0000 0.7069
vn 0.7085 0.0000 0.7057
vn 0.0000 0.7072 0.7070
vn 0.0000 0.7069 0.7073
vn -0.7062 0.0000 0.7080
vn -0.7074 0.0000 0.7068
vn 0.0000 -0.7082 0.7060
vn 0.0000 -0.7080 0.7062
vn 0.0000 0.7069 -0.7073
vn 0.0000 0.7072 -0.7070
vn -0.7071 0.7071 0.0000
vn -0.7066 0.7076 0.0000
vn 0.0000 -0.7080 -0.7062
vn 0.0000 -0.7082 -0.7061
vn -0.7062 0.0000 -0.7080
vn -0.7074 0.0000 -0.7068
vn -0.7056 -0.7087 0.0000
vn -0.7060 -0.7082 0.0000
vn 0.0000 0.0000 -1.0000
usemtl None
s off
f 1//1 2//1 3//1
f 1//1 3//1 4//1
f 5//2 6//2 7//2
f 5//2 7//2 8//2
f 9//3 10//3 11//3
f 9//3 11//3 12//3
f 13//4 14//4 15//4
f 13//4 15//4 16//4
f 17//5 18//5 19//5
f 17//5 19//5 20//5
f 21//6 22//6 23//6
f 24//7 25//7 26//7
f 27//8 28//8 29//8
f 30//9 31//9 32//9
f 33//10 34//10 35//10
f 36//11 37//11 38//11
f 39//12 40//12 41//12
f 42//13 43//13 44//13
f 45//14 46//14 47//14
f 45//14 47//14 48//14
f 49//15 50//15 51//15
f 49//16 51//16 52//16
f 53//17 54//17 55//17
f 53//17 55//17 56//17
f 57//18 58//18 59//18
f 57//19 59//19 60//19
f 61//20 62//20 63//20
f 61//21 63//21 64//21
f 65//22 66//22 67//22
f 65//23 67//23 68//23
f 69//24 70//24 71//24
f 69//25 71//25 72//25
f 73//26 74//26 75//26
f 73//27 75//27 76//27
f 77//28 78//28 79//28
f 77//29 79//29 80//29
f 81//30 82//30 83//30
f 81//31 83//31 84//31
f 85//32 86//32 87//32
f 85//33 87//33 88//33
f 89//34 90//34 91//34
f 89//35 91//35 92//35
f 93//36 94//36 95//36
f 93//36 95//36 96//36
