# Blender v2.80 (sub 75) OBJ File: ''
# www.blender.org
mtllib mesh_00012.mtl
o mesh_00012
v -2.225470 0.672476 4.008511
v -2.227622 0.672476 4.003316
v -2.227622 0.738434 4.003316
v -2.225470 0.738434 4.008511
v -2.220275 0.672476 4.010663
v -2.220275 0.738434 4.010663
v -2.215080 0.672476 4.008511
v -2.215080 0.738434 4.008511
v -2.212928 0.672476 4.003316
v -2.212928 0.738434 4.003316
v -2.215080 0.672476 3.998121
v -2.215080 0.738434 3.998121
v -2.220275 0.672476 3.995969
v -2.220275 0.738434 3.995969
v -2.225470 0.672476 3.998121
v -2.225470 0.738434 3.998121
vn 0.9239 0.0000 -0.3827
vn -0.3826 0.0000 0.9239
vn 0.3827 0.0000 0.9239
vn 0.9239 0.0000 0.3827
vn 0.3827 0.0000 -0.9239
vn -0.3826 0.0000 -0.9239
vn -0.9239 0.0000 -0.3827
usemtl None
s off
f 1//1 2//1 3//1
f 1//1 3//1 4//1
f 1//2 5//2 6//2
f 1//2 6//2 4//2
f 5//3 7//3 8//3
f 5//3 8//3 6//3
f 7//4 9//4 10//4
f 7//4 10//4 8//4
f 9//1 11//1 12//1
f 9//1 12//1 10//1
f 11//5 13//5 14//5
f 11//5 14//5 12//5
f 13//6 15//6 16//6
f 13//6 16//6 14//6
f 15//7 2//7 3//7
f 15//7 3//7 16//7
