# Blender v2.80 (sub 75) OBJ File: ''
# www.blender.org
mtllib mesh_00064.mtl
o mesh_00064
v -1.881303 1.499191 3.430796
v -1.881302 2.193980 3.430796
v -1.881518 2.196238 3.432846
v -1.881518 1.496932 3.432847
v -1.881302 2.193980 3.430796
v -1.881302 2.193980 2.325585
v -1.881518 2.196238 2.323535
v -1.881518 2.196238 3.432846
v -1.881302 2.193980 2.325585
v -1.881303 1.499191 2.325585
v -1.881518 1.496932 2.323535
v -1.881518 2.196238 2.323535
v -1.881303 1.499191 2.325585
v -1.881303 1.499191 3.430796
v -1.881518 1.496932 3.432847
v -1.881518 1.496932 2.323535
v -1.881518 1.496932 2.323535
v -1.881518 1.496932 3.432847
v -1.881518 1.470182 3.438177
v -1.881518 1.470182 2.318205
v -1.881518 2.196238 2.323535
v -1.881518 2.201122 2.318205
v -1.881518 2.196238 3.432846
v -1.881518 2.201122 3.438176
v -1.881518 1.470182 3.438177
v -1.881518 2.201122 3.438176
v -1.881263 2.202417 3.439393
v -1.881263 1.468888 3.439393
v -1.881518 2.201122 3.438176
v -1.881518 2.201122 2.318205
v -1.881263 2.202417 2.316988
v -1.881263 2.202417 3.439393
v -1.881518 2.201122 2.318205
v -1.881518 1.470182 2.318205
v -1.881263 1.468888 2.316988
v -1.881263 2.202417 2.316988
v -1.881518 1.470182 2.318205
v -1.881518 1.470182 3.438177
v -1.881263 1.468888 3.439393
v -1.881263 1.468888 2.316988
v -1.881263 1.468888 2.316988
v -1.881263 1.468888 3.439393
v -1.896741 1.468888 3.439393
v -1.896741 1.468888 2.316988
v -1.881263 2.202417 2.316988
v -1.881263 1.468888 2.316988
v -1.896741 1.468888 2.316988
v -1.896740 2.202417 2.316988
v -1.881263 2.202417 3.439393
v -1.881263 2.202417 2.316988
v -1.896740 2.202417 2.316988
v -1.896740 2.202417 3.439393
v -1.881263 1.468888 3.439393
v -1.881263 2.202417 3.439393
v -1.896740 2.202417 3.439393
v -1.896741 1.468888 3.439393
v -1.896741 1.468888 3.439393
v -1.896740 2.202417 3.439393
v -1.896740 2.200382 3.437488
v -1.896741 1.470922 3.437488
v -1.896740 2.202417 3.439393
v -1.896740 2.202417 2.316988
v -1.896740 2.200382 2.318894
v -1.896740 2.200382 3.437488
v -1.896740 2.202417 2.316988
v -1.896741 1.468888 2.316988
v -1.896741 1.470922 2.318894
v -1.896740 2.200382 2.318894
v -1.896741 1.468888 2.316988
v -1.896741 1.468888 3.439393
v -1.896741 1.470922 3.437488
v -1.896741 1.470922 2.318894
v -1.881302 2.193980 2.325585
v -1.881302 2.193980 3.430796
v -1.881303 1.499191 3.430796
v -1.881303 1.499191 2.325585
vn 0.9945 -0.0000 0.1048
vn 0.9945 0.0000 0.1043
vn 0.9955 0.0952 0.0000
vn 0.9955 0.0951 0.0000
vn 0.9945 -0.0000 -0.1043
vn 0.9945 0.0000 -0.1048
vn 0.9955 -0.0947 0.0000
vn 0.9955 -0.0949 0.0000
vn 1.0000 0.0000 0.0000
vn 1.0000 0.0001 0.0000
vn 0.9788 0.0000 -0.2050
vn 0.9787 0.0000 -0.2052
vn 0.9812 -0.1931 0.0000
vn 0.9812 -0.1932 0.0000
vn 0.9788 0.0000 0.2050
vn 0.9787 0.0000 0.2051
vn 0.9812 0.1931 0.0000
vn 0.9811 0.1933 0.0000
vn 0.0000 -1.0000 0.0000
vn 0.0000 0.0000 -1.0000
vn 0.0000 1.0000 0.0000
vn 0.0000 0.0000 1.0000
vn -1.0000 0.0000 -0.0000
vn -1.0000 -0.0001 0.0000
usemtl None
s off
f 1//1 2//1 3//1
f 1//2 3//2 4//2
f 5//3 6//3 7//3
f 5//4 7//4 8//4
f 9//5 10//5 11//5
f 9//6 11//6 12//6
f 13//7 14//7 15//7
f 13//8 15//8 16//8
f 17//9 18//9 19//9
f 17//9 19//9 20//9
f 21//9 17//9 20//9
f 21//9 20//9 22//9
f 23//10 21//10 22//10
f 23//9 22//9 24//9
f 18//9 23//9 24//9
f 18//9 24//9 19//9
f 25//11 26//11 27//11
f 25//12 27//12 28//12
f 29//13 30//13 31//13
f 29//14 31//14 32//14
f 33//15 34//15 35//15
f 33//16 35//16 36//16
f 37//17 38//17 39//17
f 37//18 39//18 40//18
f 41//19 42//19 43//19
f 41//19 43//19 44//19
f 45//20 46//20 47//20
f 45//20 47//20 48//20
f 49//21 50//21 51//21
f 49//21 51//21 52//21
f 53//22 54//22 55//22
f 53//22 55//22 56//22
f 57//23 58//23 59//23
f 57//23 59//23 60//23
f 61//24 62//24 63//24
f 61//23 63//23 64//23
f 65//23 66//23 67//23
f 65//23 67//23 68//23
f 69//23 70//23 71//23
f 69//23 71//23 72//23
f 60//23 59//23 68//23
f 60//23 68//23 67//23
f 73//9 74//9 75//9
f 73//9 75//9 76//9
