# Blender v2.80 (sub 75) OBJ File: ''
# www.blender.org
mtllib mesh_00101.mtl
o mesh_00101
v -0.713097 2.790362 0.611809
v -0.706530 2.790362 0.608241
v -0.706530 2.738335 0.608241
v -0.713097 2.738335 0.611809
v -0.692547 2.790362 0.633979
v -0.699114 2.790362 0.637547
v -0.699114 2.738335 0.637547
v -0.692547 2.738335 0.633979
v -0.701869 2.790362 0.616820
v -0.706530 2.790362 0.608241
v -0.713097 2.790362 0.611809
v -0.708436 2.790362 0.620388
v -0.703775 2.790362 0.628967
v -0.697208 2.790362 0.625400
v -0.699114 2.790362 0.637547
v -0.692547 2.790362 0.633979
v -0.699114 2.790362 0.637547
v -0.703775 2.790362 0.628967
v -0.703775 2.731864 0.628967
v -0.699114 2.738335 0.637547
v -0.708436 2.790362 0.620388
v -0.708436 2.731864 0.620388
v -0.713097 2.790362 0.611809
v -0.713097 2.738335 0.611809
v -0.706530 2.790362 0.608241
v -0.701869 2.790362 0.616820
v -0.701869 2.731864 0.616820
v -0.706530 2.738335 0.608241
v -0.697208 2.790362 0.625400
v -0.697208 2.731864 0.625400
v -0.692547 2.790362 0.633979
v -0.692547 2.738335 0.633979
v -0.699114 2.738335 0.637547
v -0.703775 2.731864 0.628967
v -0.697208 2.731864 0.625400
v -0.692547 2.738335 0.633979
v -0.703775 2.731864 0.628967
v -0.708436 2.731864 0.620388
v -0.701869 2.731864 0.616820
v -0.697208 2.731864 0.625400
v -0.708436 2.731864 0.620388
v -0.713097 2.738335 0.611809
v -0.706530 2.738335 0.608241
v -0.701869 2.731864 0.616820
v -1.243067 2.790362 0.899744
v -1.243067 2.738335 0.899744
v -1.249634 2.738335 0.903311
v -1.249634 2.790362 0.903311
v -1.235650 2.790362 0.929049
v -1.235650 2.738335 0.929049
v -1.229083 2.738335 0.925481
v -1.229083 2.790362 0.925481
v -1.244972 2.790362 0.911891
v -1.238405 2.790362 0.908323
v -1.243067 2.790362 0.899744
v -1.249634 2.790362 0.903311
v -1.240311 2.790362 0.920470
v -1.233744 2.790362 0.916902
v -1.235650 2.790362 0.929049
v -1.229083 2.790362 0.925481
v -1.229083 2.790362 0.925481
v -1.229083 2.738335 0.925481
v -1.233744 2.731864 0.916902
v -1.233744 2.790362 0.916902
v -1.238405 2.731864 0.908323
v -1.238405 2.790362 0.908323
v -1.243067 2.738335 0.899744
v -1.243067 2.790362 0.899744
v -1.249634 2.790362 0.903311
v -1.249634 2.738335 0.903311
v -1.244972 2.731864 0.911891
v -1.244972 2.790362 0.911891
v -1.240311 2.731864 0.920470
v -1.240311 2.790362 0.920470
v -1.235650 2.738335 0.929049
v -1.235650 2.790362 0.929049
v -1.229083 2.738335 0.925481
v -1.235650 2.738335 0.929049
v -1.240311 2.731864 0.920470
v -1.233744 2.731864 0.916902
v -1.233744 2.731864 0.916902
v -1.240311 2.731864 0.920470
v -1.244972 2.731864 0.911891
v -1.238405 2.731864 0.908323
v -1.238405 2.731864 0.908323
v -1.244972 2.731864 0.911891
v -1.249634 2.738335 0.903311
v -1.243067 2.738335 0.899744
vn -0.4774 0.0000 -0.8787
vn 0.4774 0.0000 0.8787
vn 0.0000 1.0000 0.0000
vn 0.0000 1.0000 0.0001
vn -0.8787 0.0000 0.4773
vn -0.8787 0.0000 0.4774
vn 0.8787 0.0000 -0.4774
vn 0.2637 -0.8336 0.4854
vn 0.2638 -0.8335 0.4854
vn 0.0000 -1.0000 0.0000
vn -0.2637 -0.8335 -0.4854
vn -0.2638 -0.8336 -0.4854
vn -0.4773 0.0000 -0.8787
vn 0.8786 0.0000 -0.4775
vn 0.2637 -0.8335 0.4855
vn 0.2637 -0.8335 0.4854
vn 0.0000 -1.0000 0.0001
vn -0.2637 -0.8336 -0.4854
usemtl None
s off
f 1//1 2//1 3//1
f 1//1 3//1 4//1
f 5//2 6//2 7//2
f 5//2 7//2 8//2
f 9//3 10//3 11//3
f 9//3 11//3 12//3
f 12//4 13//4 14//4
f 12//3 14//3 9//3
f 13//3 15//3 16//3
f 13//3 16//3 14//3
f 17//5 18//5 19//5
f 17//6 19//6 20//6
f 18//6 21//6 22//6
f 18//6 22//6 19//6
f 21//6 23//6 24//6
f 21//6 24//6 22//6
f 25//7 26//7 27//7
f 25//7 27//7 28//7
f 26//7 29//7 30//7
f 26//7 30//7 27//7
f 29//7 31//7 32//7
f 29//7 32//7 30//7
f 33//8 34//8 35//8
f 33//9 35//9 36//9
f 37//10 38//10 39//10
f 37//10 39//10 40//10
f 41//11 42//11 43//11
f 41//12 43//12 44//12
f 45//13 46//13 47//13
f 45//13 47//13 48//13
f 49//2 50//2 51//2
f 49//2 51//2 52//2
f 53//3 54//3 55//3
f 53//3 55//3 56//3
f 54//3 53//3 57//3
f 54//3 57//3 58//3
f 58//3 57//3 59//3
f 58//3 59//3 60//3
f 61//7 62//7 63//7
f 61//7 63//7 64//7
f 64//7 63//7 65//7
f 64//7 65//7 66//7
f 66//14 65//14 67//14
f 66//14 67//14 68//14
f 69//6 70//6 71//6
f 69//6 71//6 72//6
f 72//6 71//6 73//6
f 72//6 73//6 74//6
f 74//6 73//6 75//6
f 74//6 75//6 76//6
f 77//15 78//15 79//15
f 77//16 79//16 80//16
f 81//10 82//10 83//10
f 81//17 83//17 84//17
f 85//18 86//18 87//18
f 85//18 87//18 88//18
