# Blender v2.80 (sub 75) OBJ File: ''
# www.blender.org
mtllib mesh_00030.mtl
o mesh_00030
v -2.432091 1.983709 4.159163
v -2.436541 1.720489 4.159163
v -2.440202 1.720551 4.159163
v -2.435752 1.983771 4.159163
v -2.436541 1.720489 3.972760
v -2.432091 1.983709 3.972760
v -2.435752 1.983771 3.972760
v -2.440202 1.720551 3.972760
v -2.432083 1.984209 3.973260
v -2.432083 1.984209 4.158663
v -2.435744 1.984271 4.158663
v -2.435744 1.984271 3.973260
v -2.436549 1.719989 4.158663
v -2.436549 1.719989 3.973260
v -2.440210 1.720051 3.973260
v -2.440210 1.720051 4.158663
v -2.432492 1.969555 3.986149
v -2.436463 1.734649 3.986149
v -2.439801 1.734705 3.986149
v -2.435830 1.969611 3.986149
v -2.440313 1.734413 3.985649
v -2.440683 1.721316 3.973260
v -2.436259 1.983023 3.973260
v -2.436331 1.969921 3.985649
v -2.436463 1.734649 4.145774
v -2.432492 1.969555 4.145774
v -2.435831 1.969612 4.145774
v -2.439801 1.734705 4.145774
v -2.436471 1.734149 3.986649
v -2.436471 1.734149 4.145274
v -2.439810 1.734205 4.145274
v -2.439810 1.734205 3.986649
v -2.432483 1.970055 4.145274
v -2.432483 1.970055 3.986649
v -2.435822 1.970111 3.986649
v -2.435822 1.970111 4.145274
v -2.431597 1.983701 4.158002
v -2.431597 1.983701 3.973921
v -2.431969 1.970546 3.986364
v -2.431969 1.970546 4.145559
v -2.436047 1.720481 3.973921
v -2.436047 1.720481 4.158002
v -2.435974 1.733641 4.145559
v -2.435974 1.733641 3.986364
v -2.436034 1.721237 4.158663
v -2.431610 1.982945 4.158663
v -2.431981 1.969847 4.146274
v -2.435962 1.734339 4.146274
v -2.440324 1.733714 4.145559
v -2.440696 1.720560 4.158002
v -2.440696 1.720559 3.973921
v -2.440324 1.733714 3.986364
v -2.436319 1.970620 3.986364
v -2.436246 1.983779 3.973921
v -2.436246 1.983780 4.158002
v -2.436319 1.970620 4.145559
v -2.436331 1.969921 4.146274
v -2.436259 1.983023 4.158663
v -2.440683 1.721316 4.158663
v -2.440313 1.734413 4.146274
v -2.432091 1.983709 3.972760
v -2.431610 1.982944 3.973260
v -2.431597 1.983701 3.973921
v -2.432083 1.984209 3.973260
v -2.436549 1.719989 3.973260
v -2.436047 1.720481 3.973921
v -2.436034 1.721237 3.973260
v -2.436541 1.720489 3.972760
v -2.436549 1.719989 4.158663
v -2.436541 1.720489 4.159163
v -2.436034 1.721237 4.158663
v -2.436047 1.720481 4.158002
v -2.432083 1.984209 4.158663
v -2.431597 1.983701 4.158002
v -2.431610 1.982945 4.158663
v -2.432091 1.983709 4.159163
v -2.431969 1.970546 4.145559
v -2.432483 1.970055 4.145274
v -2.432492 1.969555 4.145774
v -2.431981 1.969847 4.146274
v -2.436463 1.734649 4.145774
v -2.436471 1.734149 4.145274
v -2.435974 1.733641 4.145559
v -2.435962 1.734339 4.146274
v -2.435974 1.733641 3.986364
v -2.436471 1.734149 3.986649
v -2.436463 1.734649 3.986149
v -2.435962 1.734339 3.985649
v -2.431981 1.969847 3.985649
v -2.432492 1.969555 3.986149
v -2.432483 1.970055 3.986649
v -2.431969 1.970546 3.986364
v -2.436331 1.969921 3.985649
v -2.436319 1.970620 3.986364
v -2.435822 1.970111 3.986649
v -2.435830 1.969611 3.986149
v -2.440324 1.733714 3.986364
v -2.440313 1.734413 3.985649
v -2.439801 1.734705 3.986149
v -2.439810 1.734205 3.986649
v -2.439801 1.734705 4.145774
v -2.440313 1.734413 4.146274
v -2.440324 1.733714 4.145559
v -2.439810 1.734205 4.145274
v -2.436319 1.970620 4.145559
v -2.436331 1.969921 4.146274
v -2.435831 1.969612 4.145774
v -2.435822 1.970111 4.145274
v -2.436259 1.983023 4.158663
v -2.436246 1.983780 4.158002
v -2.435744 1.984271 4.158663
v -2.435752 1.983771 4.159163
v -2.440210 1.720051 4.158663
v -2.440696 1.720560 4.158002
v -2.440683 1.721316 4.158663
v -2.440202 1.720551 4.159163
v -2.440683 1.721316 3.973260
v -2.440696 1.720559 3.973921
v -2.440210 1.720051 3.973260
v -2.440202 1.720551 3.972760
v -2.436246 1.983779 3.973921
v -2.436259 1.983023 3.973260
v -2.435752 1.983771 3.972760
v -2.435744 1.984271 3.973260
v -2.436549 1.719989 3.973260
v -2.436549 1.719989 4.158663
v -2.436047 1.720481 4.158002
v -2.436047 1.720481 3.973921
v -2.432091 1.983709 3.972760
v -2.436541 1.720489 3.972760
v -2.436034 1.721237 3.973260
v -2.431610 1.982944 3.973260
v -2.431597 1.983701 3.973921
v -2.431597 1.983701 4.158002
v -2.432083 1.984209 4.158663
v -2.432083 1.984209 3.973260
v -2.436541 1.720489 4.159163
v -2.432091 1.983709 4.159163
v -2.431610 1.982945 4.158663
v -2.436034 1.721237 4.158663
v -2.431597 1.983701 4.158002
v -2.431969 1.970546 4.145559
v -2.431981 1.969847 4.146274
v -2.431610 1.982945 4.158663
v -2.432492 1.969555 4.145774
v -2.436463 1.734649 4.145774
v -2.435962 1.734339 4.146274
v -2.431981 1.969847 4.146274
v -2.436034 1.721237 4.158663
v -2.435962 1.734339 4.146274
v -2.435974 1.733641 4.145559
v -2.436047 1.720481 4.158002
v -2.431610 1.982944 3.973260
v -2.431981 1.969847 3.985649
v -2.431969 1.970546 3.986364
v -2.431597 1.983701 3.973921
v -2.431969 1.970546 4.145559
v -2.431969 1.970546 3.986364
v -2.432483 1.970055 3.986649
v -2.432483 1.970055 4.145274
v -2.436047 1.720481 3.973921
v -2.435974 1.733641 3.986364
v -2.435962 1.734339 3.985649
v -2.436034 1.721237 3.973260
v -2.436463 1.734649 3.986149
v -2.432492 1.969555 3.986149
v -2.431981 1.969847 3.985649
v -2.435962 1.734339 3.985649
v -2.436471 1.734149 4.145274
v -2.436471 1.734149 3.986649
v -2.435974 1.733641 3.986364
v -2.435974 1.733641 4.145559
v -2.436463 1.734649 4.145774
v -2.439801 1.734705 4.145774
v -2.439810 1.734205 4.145274
v -2.436471 1.734149 4.145274
v -2.439810 1.734205 3.986649
v -2.439810 1.734205 4.145274
v -2.440324 1.733714 4.145559
v -2.440324 1.733714 3.986364
v -2.436471 1.734149 3.986649
v -2.439810 1.734205 3.986649
v -2.439801 1.734705 3.986149
v -2.436463 1.734649 3.986149
v -2.435830 1.969611 3.986149
v -2.439801 1.734705 3.986149
v -2.440313 1.734413 3.985649
v -2.436331 1.969921 3.985649
v -2.432492 1.969555 3.986149
v -2.435830 1.969611 3.986149
v -2.435822 1.970111 3.986649
v -2.432483 1.970055 3.986649
v -2.436319 1.970620 3.986364
v -2.436319 1.970620 4.145559
v -2.435822 1.970111 4.145274
v -2.435822 1.970111 3.986649
v -2.432483 1.970055 4.145274
v -2.435822 1.970111 4.145274
v -2.435831 1.969612 4.145774
v -2.432492 1.969555 4.145774
v -2.439801 1.734705 4.145774
v -2.435831 1.969612 4.145774
v -2.436331 1.969921 4.146274
v -2.440313 1.734413 4.146274
v -2.436549 1.719989 4.158663
v -2.440210 1.720051 4.158663
v -2.440202 1.720551 4.159163
v -2.436541 1.720489 4.159163
v -2.435752 1.983771 4.159163
v -2.440202 1.720551 4.159163
v -2.440683 1.721316 4.158663
v -2.436259 1.983023 4.158663
v -2.432091 1.983709 4.159163
v -2.435752 1.983771 4.159163
v -2.435744 1.984271 4.158663
v -2.432083 1.984209 4.158663
v -2.436246 1.983780 4.158002
v -2.436246 1.983779 3.973921
v -2.435744 1.984271 3.973260
v -2.435744 1.984271 4.158663
v -2.432083 1.984209 3.973260
v -2.435744 1.984271 3.973260
v -2.435752 1.983771 3.972760
v -2.432091 1.983709 3.972760
v -2.440202 1.720551 3.972760
v -2.435752 1.983771 3.972760
v -2.436259 1.983023 3.973260
v -2.440683 1.721316 3.973260
v -2.436541 1.720489 3.972760
v -2.440202 1.720551 3.972760
v -2.440210 1.720051 3.973260
v -2.436549 1.719989 3.973260
v -2.440210 1.720051 4.158663
v -2.440210 1.720051 3.973260
v -2.440696 1.720559 3.973921
v -2.440696 1.720560 4.158002
v -2.436319 1.970620 4.145559
v -2.436246 1.983780 4.158002
v -2.436259 1.983023 4.158663
v -2.436331 1.969921 4.146274
v -2.440313 1.734413 4.146274
v -2.440683 1.721316 4.158663
v -2.440696 1.720560 4.158002
v -2.440324 1.733714 4.145559
v -2.436331 1.969921 3.985649
v -2.436259 1.983023 3.973260
v -2.436246 1.983779 3.973921
v -2.436319 1.970620 3.986364
v -2.440324 1.733714 3.986364
v -2.440696 1.720559 3.973921
v -2.440683 1.721316 3.973260
v -2.440313 1.734413 3.985649
v -2.431610 1.982944 3.973260
v -2.436034 1.721237 3.973260
v -2.435962 1.734339 3.985649
v -2.431981 1.969847 3.985649
vn 0.0001 0.0000 -1.0000
vn 0.0000 0.0000 -1.0000
vn -0.0002 0.0000 1.0000
vn 0.0002 0.0000 1.0000
vn -0.0170 -0.9999 0.0000
vn 0.0170 0.9999 0.0000
vn 0.9998 -0.0169 -0.0120
vn 0.9998 -0.0169 -0.0121
vn -0.0001 0.0000 1.0000
vn 0.0000 0.0000 1.0000
vn -0.0168 -0.9999 0.0000
vn 0.0168 0.9999 0.0000
vn -0.9996 0.0283 0.0000
vn -1.0000 0.0056 0.0000
vn -1.0000 0.0055 0.0000
vn -0.9998 0.0169 0.0121
vn 0.9996 -0.0282 0.0000
vn 0.9996 -0.0283 0.0000
vn 1.0000 -0.0056 0.0000
vn 1.0000 -0.0055 0.0000
vn 0.9998 -0.0169 0.0121
vn 0.9998 -0.0169 0.0120
vn -0.8759 -0.3087 0.3708
vn -0.8626 -0.3509 0.3645
vn -0.8528 0.3520 0.3857
vn -0.8677 0.3583 0.3446
vn -0.8678 0.3581 -0.3444
vn -0.8527 0.3522 -0.3859
vn -0.8636 -0.3234 -0.3868
vn -0.8795 -0.3296 -0.3433
vn -0.7308 0.4892 0.4761
vn -0.7367 0.4900 0.4661
vn -0.7463 -0.4648 0.4764
vn -0.7534 -0.4641 0.4658
vn -0.7470 -0.4643 -0.4758
vn -0.7530 -0.4644 -0.4661
vn -0.7375 0.4849 -0.4702
vn -0.7320 0.4931 -0.4701
vn 0.7489 0.4674 -0.4698
vn 0.7541 0.4584 -0.4704
vn 0.7359 -0.4898 -0.4675
vn 0.7312 -0.4888 -0.4758
vn 0.7363 -0.4896 0.4671
vn 0.7306 -0.4889 0.4766
vn 0.7533 0.4641 0.4659
vn 0.7472 0.4636 0.4763
vn 0.8527 -0.3519 -0.3861
vn 0.8678 -0.3581 -0.3445
vn 0.8638 0.3229 -0.3867
vn 0.8798 0.3291 -0.3430
vn 0.8636 0.3231 0.3871
vn 0.8799 0.3288 0.3431
vn 0.8647 -0.3393 0.3703
vn 0.8510 -0.3777 0.3649
vn -0.7000 0.7142 0.0000
vn -0.7003 0.7138 0.0000
vn -0.7108 0.0120 0.7033
vn -0.7115 0.0120 0.7025
vn -0.7226 -0.6912 0.0000
vn -0.7225 -0.6914 0.0000
vn -0.7124 0.0120 -0.7017
vn -0.7104 0.0120 -0.7037
vn -0.9997 0.0229 0.0055
vn -0.9997 0.0227 0.0060
vn -0.7023 0.0119 0.7117
vn -0.7036 0.0119 0.7105
vn -0.9999 0.0108 0.0059
vn -0.9999 0.0117 0.0065
vn -0.9997 0.0231 -0.0055
vn -0.9997 0.0226 -0.0060
vn -0.6908 0.7230 0.0000
vn -0.6907 0.7231 0.0000
vn -0.9999 0.0107 -0.0058
vn -0.9999 0.0120 -0.0065
vn -0.7031 0.0119 -0.7110
vn -0.7026 0.0119 -0.7115
vn -0.7147 -0.6994 0.0000
vn -0.7146 -0.6995 0.0000
vn -0.0118 -0.7069 0.7072
vn -0.0119 -0.7066 0.7075
vn 0.6906 -0.7232 0.0000
vn 0.6910 -0.7229 0.0000
vn -0.0118 -0.7068 -0.7073
vn -0.0118 -0.7071 -0.7071
vn 0.7022 -0.0119 -0.7118
vn 0.7028 -0.0119 -0.7113
vn 0.0118 0.7070 -0.7071
vn 0.0119 0.7072 -0.7070
vn 0.7152 0.6989 0.0000
vn 0.7157 0.6984 0.0000
vn 0.0118 0.7075 0.7066
vn 0.0121 0.7070 0.7072
vn 0.7033 -0.0119 0.7108
vn 0.7028 -0.0119 0.7113
vn 0.0119 0.7073 -0.7068
vn 0.0120 0.7071 -0.7070
vn 0.7122 -0.0120 -0.7018
vn 0.7104 -0.0120 -0.7037
vn -0.0120 -0.7073 -0.7068
vn -0.0119 -0.7069 -0.7072
vn 0.7003 -0.7138 0.0000
vn 0.6991 -0.7150 0.0000
vn -0.0119 -0.7068 0.7073
vn -0.0120 -0.7071 0.7070
vn 0.7107 -0.0120 0.7033
vn 0.7115 -0.0120 0.7025
vn 0.0121 0.7071 0.7070
vn 0.0120 0.7070 0.7071
vn 0.7227 0.6912 0.0000
vn 0.7234 0.6904 -0.0000
vn 0.9999 -0.0112 0.0065
vn 0.9999 -0.0114 0.0059
vn 0.9997 -0.0229 0.0060
vn 0.9997 -0.0222 0.0064
vn 0.9999 -0.0117 -0.0065
vn 0.9999 -0.0107 -0.0058
vn 0.9997 -0.0226 -0.0060
vn 0.9997 -0.0223 -0.0064
vn -0.9998 0.0169 -0.0121
usemtl None
s off
f 1//1 2//1 3//1
f 1//2 3//2 4//2
f 5//3 6//3 7//3
f 5//4 7//4 8//4
f 9//5 10//5 11//5
f 9//5 11//5 12//5
f 13//6 14//6 15//6
f 13//6 15//6 16//6
f 17//2 18//2 19//2
f 17//2 19//2 20//2
f 21//7 22//7 23//7
f 21//8 23//8 24//8
f 25//9 26//9 27//9
f 25//10 27//10 28//10
f 29//11 30//11 31//11
f 29//11 31//11 32//11
f 33//12 34//12 35//12
f 33//12 35//12 36//12
f 37//13 38//13 39//13
f 37//13 39//13 40//13
f 41//14 42//14 43//14
f 41//15 43//15 44//15
f 45//16 46//16 47//16
f 45//16 47//16 48//16
f 49//17 50//17 51//17
f 49//18 51//18 52//18
f 53//19 54//19 55//19
f 53//20 55//20 56//20
f 57//21 58//21 59//21
f 57//22 59//22 60//22
f 61//23 62//23 63//23
f 61//24 63//24 64//24
f 65//25 66//25 67//25
f 65//26 67//26 68//26
f 69//27 70//27 71//27
f 69//28 71//28 72//28
f 73//29 74//29 75//29
f 73//30 75//30 76//30
f 77//31 78//31 79//31
f 77//32 79//32 80//32
f 81//33 82//33 83//33
f 81//34 83//34 84//34
f 85//35 86//35 87//35
f 85//36 87//36 88//36
f 89//37 90//37 91//37
f 89//38 91//38 92//38
f 93//39 94//39 95//39
f 93//40 95//40 96//40
f 97//41 98//41 99//41
f 97//42 99//42 100//42
f 101//43 102//43 103//43
f 101//44 103//44 104//44
f 105//45 106//45 107//45
f 105//46 107//46 108//46
f 109//47 110//47 111//47
f 109//48 111//48 112//48
f 113//49 114//49 115//49
f 113//50 115//50 116//50
f 117//51 118//51 119//51
f 117//52 119//52 120//52
f 121//53 122//53 123//53
f 121//54 123//54 124//54
f 125//55 126//55 127//55
f 125//56 127//56 128//56
f 129//57 130//57 131//57
f 129//58 131//58 132//58
f 133//59 134//59 135//59
f 133//60 135//60 136//60
f 137//61 138//61 139//61
f 137//62 139//62 140//62
f 141//63 142//63 143//63
f 141//64 143//64 144//64
f 145//65 146//65 147//65
f 145//66 147//66 148//66
f 149//67 150//67 151//67
f 149//68 151//68 152//68
f 153//69 154//69 155//69
f 153//70 155//70 156//70
f 157//71 158//71 159//71
f 157//72 159//72 160//72
f 161//73 162//73 163//73
f 161//74 163//74 164//74
f 165//75 166//75 167//75
f 165//76 167//76 168//76
f 169//77 170//77 171//77
f 169//78 171//78 172//78
f 173//79 174//79 175//79
f 173//80 175//80 176//80
f 177//81 178//81 179//81
f 177//82 179//82 180//82
f 181//83 182//83 183//83
f 181//84 183//84 184//84
f 185//85 186//85 187//85
f 185//86 187//86 188//86
f 189//87 190//87 191//87
f 189//88 191//88 192//88
f 193//89 194//89 195//89
f 193//90 195//90 196//90
f 197//91 198//91 199//91
f 197//92 199//92 200//92
f 201//93 202//93 203//93
f 201//94 203//94 204//94
f 205//95 206//95 207//95
f 205//96 207//96 208//96
f 209//97 210//97 211//97
f 209//98 211//98 212//98
f 213//99 214//99 215//99
f 213//100 215//100 216//100
f 217//101 218//101 219//101
f 217//102 219//102 220//102
f 221//103 222//103 223//103
f 221//104 223//104 224//104
f 225//105 226//105 227//105
f 225//106 227//106 228//106
f 229//107 230//107 231//107
f 229//108 231//108 232//108
f 233//109 234//109 235//109
f 233//110 235//110 236//110
f 237//111 238//111 239//111
f 237//112 239//112 240//112
f 241//113 242//113 243//113
f 241//114 243//114 244//114
f 245//115 246//115 247//115
f 245//116 247//116 248//116
f 249//117 250//117 251//117
f 249//118 251//118 252//118
f 253//119 254//119 255//119
f 253//119 255//119 256//119
