# Blender v2.80 (sub 75) OBJ File: ''
# www.blender.org
mtllib mesh_00091.mtl
o mesh_00091
v 1.394273 2.422768 0.733352
v 1.426353 2.422768 0.750871
v 1.426742 2.422768 0.750159
v 1.394662 2.422768 0.732639
v 1.426447 2.399934 0.750699
v 1.394367 2.399934 0.733180
v 1.394662 2.399543 0.732639
v 1.426742 2.399543 0.750159
v 1.426353 2.400951 0.750871
v 1.426353 2.422768 0.750871
v 1.394273 2.422768 0.733352
v 1.394273 2.400951 0.733352
v 1.394273 2.400951 0.733352
v 1.394367 2.399934 0.733180
v 1.426447 2.399934 0.750699
v 1.426353 2.400951 0.750871
v 1.394367 2.399934 0.733180
v 1.394273 2.400951 0.733352
v 1.394662 2.400951 0.732639
v 1.394662 2.399543 0.732639
v 1.394273 2.422768 0.733352
v 1.394662 2.422768 0.732639
v 1.426353 2.422768 0.750871
v 1.426353 2.400951 0.750871
v 1.426742 2.400951 0.750159
v 1.426742 2.422768 0.750159
v 1.426447 2.399934 0.750699
v 1.426742 2.399543 0.750159
v 1.394662 2.400951 0.732639
v 1.394662 2.422768 0.732639
v 1.426742 2.422768 0.750159
v 1.426742 2.400951 0.750159
v 1.394662 2.400951 0.732639
v 1.426742 2.400951 0.750159
v 1.428493 2.400951 0.746953
v 1.396413 2.400951 0.729434
v 1.426742 2.400951 0.750159
v 1.426742 2.399543 0.750159
v 1.428493 2.399543 0.746953
v 1.428493 2.400951 0.746953
v 1.396413 2.400951 0.729434
v 1.396413 2.399543 0.729434
v 1.426742 2.399543 0.750159
v 1.394662 2.399543 0.732639
v 1.396413 2.399543 0.729434
v 1.428493 2.399543 0.746953
v 1.396413 2.399543 0.729434
v 1.396413 2.400951 0.729434
v 1.428493 2.400951 0.746953
v 1.428493 2.399543 0.746953
vn 0.0000 1.0000 0.0001
vn 0.0000 1.0000 0.0000
vn -0.2568 -0.8442 0.4705
vn -0.2571 -0.8442 0.4704
vn -0.4793 0.0000 0.8777
vn -0.4707 -0.1893 0.8618
vn -0.4706 -0.1894 0.8618
vn -0.8779 0.0000 -0.4789
vn -0.8779 0.0000 -0.4788
vn 0.8776 0.0000 0.4794
vn 0.8775 0.0000 0.4795
vn 0.4793 0.0000 -0.8776
vn 0.8776 0.0000 0.4795
vn 0.8777 0.0000 0.4792
vn -0.8776 0.0000 -0.4795
vn -0.8776 0.0000 -0.4794
vn 0.0000 -1.0000 0.0000
vn 0.4794 0.0000 -0.8776
vn 0.4792 0.0000 -0.8777
usemtl None
s off
f 1//1 2//1 3//1
f 1//2 3//2 4//2
f 5//3 6//3 7//3
f 5//4 7//4 8//4
f 9//5 10//5 11//5
f 9//5 11//5 12//5
f 13//6 14//6 15//6
f 13//7 15//7 16//7
f 17//8 18//8 19//8
f 17//9 19//9 20//9
f 18//8 21//8 22//8
f 18//8 22//8 19//8
f 23//10 24//10 25//10
f 23//11 25//11 26//11
f 24//10 27//10 28//10
f 24//10 28//10 25//10
f 29//12 30//12 31//12
f 29//12 31//12 32//12
f 33//2 34//2 35//2
f 33//2 35//2 36//2
f 37//13 38//13 39//13
f 37//14 39//14 40//14
f 20//15 19//15 41//15
f 20//16 41//16 42//16
f 43//17 44//17 45//17
f 43//17 45//17 46//17
f 47//18 48//18 49//18
f 47//19 49//19 50//19
