# Blender v2.80 (sub 75) OBJ File: ''
# www.blender.org
mtllib mesh_00016.mtl
o mesh_00016
v -2.213290 0.811356 4.039897
v -2.213290 0.811356 3.996277
v -2.229149 0.811356 3.996277
v -2.229149 0.811356 4.039897
v -2.229509 0.738486 4.039897
v -2.229509 0.810995 4.039897
v -2.229509 0.810995 3.996277
v -2.229509 0.738486 3.996277
v -2.213290 0.738125 3.996277
v -2.213290 0.738125 4.039897
v -2.229149 0.738125 4.039897
v -2.229149 0.738125 3.996277
v -2.212929 0.810995 3.996277
v -2.212929 0.810995 4.039897
v -2.212929 0.738486 4.039897
v -2.212929 0.738486 3.996277
v -2.213290 0.738486 4.040258
v -2.213290 0.810995 4.040258
v -2.229149 0.810995 4.040258
v -2.229149 0.738486 4.040258
v -2.213290 0.810995 3.995916
v -2.213290 0.811356 3.996277
v -2.212929 0.810995 3.996277
v -2.213290 0.738125 3.996277
v -2.213290 0.738486 3.995916
v -2.212929 0.738486 3.996277
v -2.213290 0.738125 4.039897
v -2.212929 0.738486 4.039897
v -2.213290 0.738486 4.040258
v -2.213290 0.811356 4.039897
v -2.213290 0.810995 4.040258
v -2.212929 0.810995 4.039897
v -2.229149 0.811356 4.039897
v -2.229509 0.810995 4.039897
v -2.229149 0.810995 4.040258
v -2.229509 0.738486 4.039897
v -2.229149 0.738125 4.039897
v -2.229149 0.738486 4.040258
v -2.229149 0.738125 3.996277
v -2.229509 0.738486 3.996277
v -2.229149 0.738486 3.995916
v -2.229149 0.810995 3.995916
v -2.229509 0.810995 3.996277
v -2.229149 0.811356 3.996277
v -2.212929 0.738486 3.996277
v -2.212929 0.738486 4.039897
v -2.213290 0.738125 4.039897
v -2.213290 0.738125 3.996277
v -2.212929 0.810995 3.996277
v -2.212929 0.738486 3.996277
v -2.213290 0.738486 3.995916
v -2.213290 0.810995 3.995916
v -2.213290 0.811356 3.996277
v -2.213290 0.811356 4.039897
v -2.212929 0.810995 4.039897
v -2.212929 0.810995 3.996277
v -2.212929 0.738486 4.039897
v -2.212929 0.810995 4.039897
v -2.213290 0.810995 4.040258
v -2.213290 0.738486 4.040258
v -2.213290 0.811356 4.039897
v -2.229149 0.811356 4.039897
v -2.229149 0.810995 4.040258
v -2.213290 0.810995 4.040258
v -2.229509 0.810995 4.039897
v -2.229509 0.738486 4.039897
v -2.229149 0.738486 4.040258
v -2.229149 0.810995 4.040258
v -2.213290 0.738486 4.040258
v -2.229149 0.738486 4.040258
v -2.229149 0.738125 4.039897
v -2.213290 0.738125 4.039897
v -2.213290 0.810995 3.995916
v -2.229149 0.810995 3.995916
v -2.229149 0.811356 3.996277
v -2.213290 0.811356 3.996277
v -2.229149 0.811356 4.039897
v -2.229149 0.811356 3.996277
v -2.229509 0.810995 3.996277
v -2.229509 0.810995 4.039897
v -2.213290 0.738125 3.996277
v -2.229149 0.738125 3.996277
v -2.229149 0.738486 3.995916
v -2.213290 0.738486 3.995916
v -2.229509 0.738486 3.996277
v -2.229509 0.810995 3.996277
v -2.229149 0.810995 3.995916
v -2.229149 0.738486 3.995916
v -2.229509 0.738486 4.039897
v -2.229509 0.738486 3.996277
v -2.229149 0.738125 3.996277
v -2.229149 0.738125 4.039897
v -2.213290 0.810995 3.995916
v -2.213290 0.738486 3.995916
v -2.229149 0.738486 3.995916
v -2.229149 0.810995 3.995916
vn 0.0000 1.0000 0.0000
vn -1.0000 0.0000 0.0000
vn 0.0000 -1.0000 0.0000
vn 1.0000 0.0000 0.0000
vn 0.0000 0.0000 1.0000
vn 0.5775 0.5775 -0.5770
vn 0.5768 -0.5779 -0.5774
vn 0.5768 -0.5779 0.5774
vn 0.5768 0.5779 0.5774
vn -0.5778 0.5773 0.5770
vn -0.5778 -0.5773 0.5770
vn -0.5778 -0.5773 -0.5770
vn -0.5785 0.5769 -0.5767
vn 0.7073 -0.7069 0.0000
vn 0.7070 -0.7072 0.0000
vn 0.7070 0.0000 -0.7072
vn 0.7078 0.0000 -0.7064
vn 0.7070 0.7072 0.0000
vn 0.7074 0.7068 0.0000
vn 0.7070 0.0000 0.7072
vn 0.0000 0.7070 0.7072
vn 0.0000 0.7071 0.7071
vn -0.7080 0.0000 0.7063
vn -0.7079 0.0000 0.7063
vn 0.0000 -0.7071 0.7071
vn 0.0000 0.7074 -0.7068
vn 0.0000 0.7073 -0.7069
vn -0.7080 0.7062 0.0000
vn -0.7081 0.7062 0.0000
vn 0.0000 -0.7074 -0.7068
vn -0.7079 0.0000 -0.7063
vn -0.7088 0.0000 -0.7055
vn -0.7080 -0.7062 0.0000
vn 0.0000 0.0000 -1.0000
usemtl None
s off
f 1//1 2//1 3//1
f 1//1 3//1 4//1
f 5//2 6//2 7//2
f 5//2 7//2 8//2
f 9//3 10//3 11//3
f 9//3 11//3 12//3
f 13//4 14//4 15//4
f 13//4 15//4 16//4
f 17//5 18//5 19//5
f 17//5 19//5 20//5
f 21//6 22//6 23//6
f 24//7 25//7 26//7
f 27//8 28//8 29//8
f 30//9 31//9 32//9
f 33//10 34//10 35//10
f 36//11 37//11 38//11
f 39//12 40//12 41//12
f 42//13 43//13 44//13
f 45//14 46//14 47//14
f 45//15 47//15 48//15
f 49//16 50//16 51//16
f 49//17 51//17 52//17
f 53//18 54//18 55//18
f 53//19 55//19 56//19
f 57//20 58//20 59//20
f 57//20 59//20 60//20
f 61//21 62//21 63//21
f 61//22 63//22 64//22
f 65//23 66//23 67//23
f 65//24 67//24 68//24
f 69//25 70//25 71//25
f 69//25 71//25 72//25
f 73//26 74//26 75//26
f 73//27 75//27 76//27
f 77//28 78//28 79//28
f 77//29 79//29 80//29
f 81//30 82//30 83//30
f 81//30 83//30 84//30
f 85//31 86//31 87//31
f 85//32 87//32 88//32
f 89//33 90//33 91//33
f 89//33 91//33 92//33
f 93//34 94//34 95//34
f 93//34 95//34 96//34
