# Blender v3.4.1 OBJ File: 'livingroom.blend'
# www.blender.org
mtllib BlackRaughtIron_0003.mtl
o BlackRaughtIron_0003
v -1.891614 0.305209 3.054747
v -1.894269 0.305070 3.057912
v -1.891237 0.304962 3.059058
v -1.888450 0.305070 3.057402
v -1.887304 0.304962 3.054370
v -1.888959 0.305070 3.051583
v -1.891992 0.304962 3.050437
v -1.894779 0.305070 3.052092
v -1.895925 0.304962 3.055125
v -1.891614 0.191499 3.054747
v -1.894269 0.191637 3.057912
v -1.895925 0.191745 3.055125
v -1.894779 0.191637 3.052092
v -1.891992 0.191745 3.050437
v -1.888959 0.191637 3.051583
v -1.887304 0.191745 3.054370
v -1.888450 0.191637 3.057402
v -1.891237 0.191745 3.059058
v -1.888075 0.304655 3.050528
v -1.885795 0.304655 3.054238
v -1.885795 0.290304 3.054238
v -1.888075 0.290304 3.050528
v -1.892124 0.290304 3.048928
v -1.892124 0.304655 3.048928
v -1.888075 0.248354 3.050528
v -1.885795 0.248354 3.054238
v -1.885795 0.206403 3.054238
v -1.888075 0.206403 3.050528
v -1.892124 0.206403 3.048928
v -1.892124 0.248354 3.048928
v -1.888075 0.192051 3.050528
v -1.885795 0.192051 3.054238
v -1.892124 0.192051 3.048928
v -1.895154 0.304655 3.058966
v -1.897434 0.304655 3.055257
v -1.897434 0.290304 3.055257
v -1.895154 0.290304 3.058966
v -1.891105 0.290304 3.060566
v -1.891105 0.304655 3.060566
v -1.895154 0.248354 3.058966
v -1.897434 0.248354 3.055257
v -1.897434 0.206403 3.055257
v -1.895154 0.206403 3.058966
v -1.891105 0.206403 3.060566
v -1.891105 0.248354 3.060566
v -1.895154 0.192051 3.058966
v -1.897434 0.192051 3.055257
v -1.891105 0.192051 3.060566
v -1.895833 0.304655 3.051208
v -1.895833 0.290304 3.051208
v -1.895833 0.248354 3.051208
v -1.895833 0.206403 3.051208
v -1.895833 0.192051 3.051208
v -1.887395 0.304655 3.058287
v -1.887395 0.290304 3.058287
v -1.887395 0.248354 3.058287
v -1.887395 0.206403 3.058287
v -1.887395 0.192051 3.058287
v -1.891614 0.305209 2.702143
v -1.888450 0.305070 2.699488
v -1.891237 0.304963 2.697832
v -1.894269 0.305070 2.698978
v -1.895925 0.304963 2.701765
v -1.894779 0.305070 2.704798
v -1.891992 0.304963 2.706453
v -1.888959 0.305070 2.705307
v -1.887304 0.304963 2.702520
v -1.891614 0.191499 2.702143
v -1.894779 0.191637 2.704798
v -1.895925 0.191745 2.701765
v -1.894269 0.191637 2.698978
v -1.891237 0.191745 2.697832
v -1.888450 0.191637 2.699488
v -1.887304 0.191745 2.702520
v -1.888959 0.191637 2.705307
v -1.891992 0.191745 2.706453
v -1.888075 0.304656 2.706362
v -1.885795 0.304656 2.702652
v -1.892124 0.304656 2.707962
v -1.892124 0.290305 2.707962
v -1.888075 0.290305 2.706362
v -1.885795 0.290305 2.702652
v -1.888075 0.248354 2.706362
v -1.885795 0.248354 2.702652
v -1.892124 0.248354 2.707962
v -1.892124 0.206403 2.707962
v -1.888075 0.206403 2.706362
v -1.885795 0.206403 2.702652
v -1.888075 0.192051 2.706362
v -1.885795 0.192051 2.702652
v -1.892124 0.192051 2.707962
v -1.895154 0.304656 2.697923
v -1.897434 0.304656 2.701633
v -1.891105 0.304656 2.696323
v -1.891105 0.290305 2.696323
v -1.895154 0.290305 2.697923
v -1.897434 0.290305 2.701633
v -1.895154 0.248354 2.697923
v -1.897434 0.248354 2.701633
v -1.891105 0.248354 2.696323
v -1.891105 0.206403 2.696323
v -1.895154 0.206403 2.697923
v -1.897434 0.206403 2.701633
v -1.895154 0.192051 2.697923
v -1.897434 0.192051 2.701633
v -1.891105 0.192051 2.696323
v -1.895833 0.304656 2.705682
v -1.895833 0.290305 2.705682
v -1.895833 0.248354 2.705682
v -1.895833 0.206403 2.705682
v -1.895833 0.192051 2.705682
v -1.887395 0.304656 2.698603
v -1.887395 0.290305 2.698603
v -1.887395 0.248354 2.698603
v -1.887395 0.206403 2.698603
v -1.887395 0.192051 2.698603
vt 0.000000 0.000000
vt 0.000000 0.000000
vt 0.000000 0.000000
vt 0.000000 0.000000
vt 0.000000 0.000000
vt 0.000000 0.000000
vt 0.000000 0.000000
vt 0.000000 0.000000
vt 0.000000 0.000000
vt 0.000000 0.000000
vt 0.000000 0.000000
vt 0.000000 0.000000
vt 0.000000 0.000000
vt 0.000000 0.000000
vt 0.000000 0.000000
vt 0.000000 0.000000
vt 0.000000 0.000000
vt 0.000000 0.000000
vt 0.000000 0.000000
vt 0.000000 0.000000
vt 0.000000 0.000000
vt 0.000000 0.000000
vt 0.000000 0.000000
vt 0.000000 0.000000
vt 0.000000 0.000000
vt 0.000000 0.000000
vt 0.000000 0.000000
vt 0.000000 0.000000
vt 0.000000 0.000000
vt 0.000000 0.000000
vt 0.000000 0.000000
vt 0.000000 0.000000
vt 0.000000 0.000000
vt 0.000000 0.000000
vt 0.000000 0.000000
vt 0.000000 0.000000
vt 0.000000 0.000000
vt 0.000000 0.000000
vt 0.000000 0.000000
vt 0.000000 0.000000
vt 0.000000 0.000000
vt 0.000000 0.000000
vt 0.000000 0.000000
vt 0.000000 0.000000
vt 0.000000 0.000000
vt 0.000000 0.000000
vt 0.000000 0.000000
vt 0.000000 0.000000
vt 0.000000 0.000000
vt 0.000000 0.000000
vt 0.000000 0.000000
vt 0.000000 0.000000
vt 0.000000 0.000000
vt 0.000000 0.000000
vt 0.000000 0.000000
vt 0.000000 0.000000
vt 0.000000 0.000000
vt 0.000000 0.000000
vt 0.000000 0.000000
vt 0.000000 0.000000
vt 0.000000 0.000000
vt 0.000000 0.000000
vt 0.000000 0.000000
vt 0.000000 0.000000
vt 0.000000 0.000000
vt 0.000000 0.000000
vt 0.000000 0.000000
vt 0.000000 0.000000
vt 0.000000 0.000000
vt 0.000000 0.000000
vt 0.000000 0.000000
vt 0.000000 0.000000
vt 0.000000 0.000000
vt 0.000000 0.000000
vt 0.000000 0.000000
vt 0.000000 0.000000
vt 0.000000 0.000000
vt 0.000000 0.000000
vt 0.000000 0.000000
vt 0.000000 0.000000
vt 0.000000 0.000000
vt 0.000000 0.000000
vt 0.000000 0.000000
vt 0.000000 0.000000
vt 0.000000 0.000000
vt 0.000000 0.000000
vt 0.000000 0.000000
vt 0.000000 0.000000
vt 0.000000 0.000000
vt 0.000000 0.000000
vt 0.000000 0.000000
vt 0.000000 0.000000
vt 0.000000 0.000000
vt 0.000000 0.000000
vt 0.000000 0.000000
vt 0.000000 0.000000
vt 0.000000 0.000000
vt 0.000000 0.000000
vt 0.000000 0.000000
vt 0.000000 0.000000
vt 0.000000 0.000000
vt 0.000000 0.000000
vt 0.000000 0.000000
vt 0.000000 0.000000
vt 0.000000 0.000000
vt 0.000000 0.000000
vt 0.000000 0.000000
vt 0.000000 0.000000
vt 0.000000 0.000000
vt 0.000000 0.000000
vt 0.000000 0.000000
vt 0.000000 0.000000
vt 0.000000 0.000000
vt 0.000000 0.000000
vt 0.000000 0.000000
vt 0.000000 0.000000
vn 0.0000 1.0000 -0.0000
vn -0.1049 0.9866 0.1251
vn 0.0153 0.9845 0.1748
vn 0.1251 0.9866 0.1049
vn 0.1748 0.9845 -0.0153
vn 0.1050 0.9866 -0.1250
vn -0.0153 0.9845 -0.1748
vn -0.1251 0.9866 -0.1050
vn -0.1748 0.9845 0.0153
vn 0.0000 -1.0000 -0.0000
vn -0.1049 -0.9866 0.1251
vn -0.1748 -0.9845 0.0153
vn -0.1250 -0.9866 -0.1049
vn -0.0153 -0.9845 -0.1748
vn 0.1050 -0.9866 -0.1250
vn 0.1748 -0.9845 -0.0153
vn 0.1251 -0.9866 0.1049
vn 0.0153 -0.9845 0.1748
vn 0.5317 0.5618 -0.6338
vn 0.8372 0.5419 -0.0733
vn 0.9962 0.0000 -0.0873
vn 0.6427 0.0000 -0.7661
vn -0.0873 0.0000 -0.9962
vn -0.0733 0.5419 -0.8372
vn 0.9962 0.0000 -0.0872
vn 0.5317 -0.5618 -0.6338
vn 0.8372 -0.5419 -0.0733
vn -0.0733 -0.5420 -0.8372
vn -0.5317 0.5618 0.6338
vn -0.8372 0.5419 0.0733
vn -0.9962 0.0000 0.0872
vn -0.6426 0.0000 0.7662
vn 0.0872 0.0000 0.9962
vn 0.0733 0.5419 0.8372
vn -0.6427 0.0000 0.7662
vn -0.5317 -0.5618 0.6337
vn -0.8372 -0.5419 0.0733
vn 0.0733 -0.5419 0.8372
vn -0.6338 0.5618 -0.5317
vn -0.7661 0.0000 -0.6427
vn -0.7661 0.0000 -0.6428
vn -0.6337 -0.5618 -0.5317
vn 0.6338 0.5618 0.5317
vn 0.7660 0.0000 0.6428
vn 0.6337 -0.5618 0.5317
vn 0.1251 0.9866 -0.1049
vn 0.0153 0.9845 -0.1748
vn -0.1049 0.9866 -0.1251
vn -0.1748 0.9845 -0.0153
vn -0.1251 0.9866 0.1050
vn -0.0153 0.9845 0.1748
vn 0.1050 0.9866 0.1250
vn 0.1748 0.9845 0.0153
vn -0.1250 -0.9866 0.1049
vn -0.1748 -0.9845 -0.0153
vn -0.1049 -0.9866 -0.1251
vn 0.0153 -0.9845 -0.1748
vn 0.1251 -0.9866 -0.1049
vn 0.1748 -0.9845 0.0153
vn 0.1050 -0.9866 0.1251
vn -0.0153 -0.9845 0.1748
vn 0.5317 0.5618 0.6338
vn 0.8372 0.5419 0.0733
vn -0.0733 0.5419 0.8372
vn -0.0873 0.0000 0.9962
vn 0.6427 0.0000 0.7661
vn 0.9962 0.0000 0.0872
vn 0.9962 0.0000 0.0873
vn 0.5317 -0.5618 0.6338
vn 0.8372 -0.5419 0.0734
vn -0.0733 -0.5419 0.8372
vn -0.5317 0.5618 -0.6337
vn -0.8372 0.5419 -0.0733
vn 0.0733 0.5419 -0.8372
vn 0.0872 0.0000 -0.9962
vn -0.6427 0.0000 -0.7661
vn -0.9962 0.0000 -0.0871
vn -0.9962 0.0000 -0.0872
vn 0.0873 0.0000 -0.9962
vn -0.5317 -0.5618 -0.6337
vn -0.8372 -0.5419 -0.0733
vn 0.0733 -0.5419 -0.8372
vn -0.6337 0.5618 0.5317
vn -0.7661 0.0000 0.6428
vn -0.7661 0.0000 0.6427
vn -0.6337 -0.5618 0.5317
vn 0.6338 0.5618 -0.5317
vn 0.7661 0.0000 -0.6427
vn 0.7661 0.0000 -0.6428
vn 0.6338 -0.5618 -0.5317
usemtl BlackRaughtIronBSDF
s 1
f 1/1/1 2/2/2 3/3/3
f 1/1/1 3/3/3 4/4/4
f 1/1/1 4/4/4 5/5/5
f 1/1/1 5/5/5 6/6/6
f 1/1/1 6/6/6 7/7/7
f 1/1/1 7/7/7 8/8/8
f 1/1/1 8/8/8 9/9/9
f 1/1/1 9/9/9 2/2/2
f 10/10/10 11/11/11 12/12/12
f 10/10/10 12/12/12 13/13/13
f 10/10/10 13/13/13 14/14/14
f 10/10/10 14/14/14 15/15/15
f 10/10/10 15/15/15 16/16/16
f 10/10/10 16/16/16 17/17/17
f 10/10/10 17/17/17 18/18/18
f 10/10/10 18/18/18 11/11/11
f 19/19/19 6/6/6 5/5/5
f 19/19/19 5/5/5 20/20/20
f 19/19/19 20/20/20 21/21/21
f 19/19/19 21/21/21 22/22/22
f 19/19/19 22/22/22 23/23/23
f 19/19/19 23/23/23 24/24/24
f 19/19/19 24/24/24 7/7/7
f 19/19/19 7/7/7 6/6/6
f 25/25/22 22/22/22 21/21/21
f 25/25/22 21/21/21 26/26/25
f 25/25/22 26/26/25 27/27/25
f 25/25/22 27/27/25 28/28/22
f 25/25/22 28/28/22 29/29/23
f 25/25/22 29/29/23 30/30/23
f 25/25/22 30/30/23 23/23/23
f 25/25/22 23/23/23 22/22/22
f 31/31/26 28/28/22 27/27/25
f 31/31/26 27/27/25 32/32/27
f 31/31/26 32/32/27 16/16/16
f 31/31/26 16/16/16 15/15/15
f 31/31/26 15/15/15 14/14/14
f 31/31/26 14/14/14 33/33/28
f 31/31/26 33/33/28 29/29/23
f 31/31/26 29/29/23 28/28/22
f 34/34/29 2/2/2 9/9/9
f 34/34/29 9/9/9 35/35/30
f 34/34/29 35/35/30 36/36/31
f 34/34/29 36/36/31 37/37/32
f 34/34/29 37/37/32 38/38/33
f 34/34/29 38/38/33 39/39/34
f 34/34/29 39/39/34 3/3/3
f 34/34/29 3/3/3 2/2/2
f 40/40/35 37/37/32 36/36/31
f 40/40/35 36/36/31 41/41/31
f 40/40/35 41/41/31 42/42/31
f 40/40/35 42/42/31 43/43/35
f 40/40/35 43/43/35 44/44/33
f 40/40/35 44/44/33 45/45/33
f 40/40/35 45/45/33 38/38/33
f 40/40/35 38/38/33 37/37/32
f 46/46/36 43/43/35 42/42/31
f 46/46/36 42/42/31 47/47/37
f 46/46/36 47/47/37 12/12/12
f 46/46/36 12/12/12 11/11/11
f 46/46/36 11/11/11 18/18/18
f 46/46/36 18/18/18 48/48/38
f 46/46/36 48/48/38 44/44/33
f 46/46/36 44/44/33 43/43/35
f 49/49/39 8/8/8 7/7/7
f 49/49/39 7/7/7 24/24/24
f 49/49/39 24/24/24 23/23/23
f 49/49/39 23/23/23 50/50/40
f 49/49/39 50/50/40 36/36/31
f 49/49/39 36/36/31 35/35/30
f 49/49/39 35/35/30 9/9/9
f 49/49/39 9/9/9 8/8/8
f 51/51/41 50/50/40 23/23/23
f 51/51/41 23/23/23 30/30/23
f 51/51/41 30/30/23 29/29/23
f 51/51/41 29/29/23 52/52/40
f 51/51/41 52/52/40 42/42/31
f 51/51/41 42/42/31 41/41/31
f 51/51/41 41/41/31 36/36/31
f 51/51/41 36/36/31 50/50/40
f 53/53/42 52/52/40 29/29/23
f 53/53/42 29/29/23 33/33/28
f 53/53/42 33/33/28 14/14/14
f 53/53/42 14/14/14 13/13/13
f 53/53/42 13/13/13 12/12/12
f 53/53/42 12/12/12 47/47/37
f 53/53/42 47/47/37 42/42/31
f 53/53/42 42/42/31 52/52/40
f 54/54/43 55/55/44 21/21/21
f 54/54/43 21/21/21 20/20/20
f 54/54/43 20/20/20 5/5/5
f 54/54/43 5/5/5 4/4/4
f 54/54/43 4/4/4 3/3/3
f 54/54/43 3/3/3 39/39/34
f 54/54/43 39/39/34 38/38/33
f 54/54/43 38/38/33 55/55/44
f 56/56/44 55/55/44 38/38/33
f 56/56/44 38/38/33 45/45/33
f 56/56/44 45/45/33 44/44/33
f 56/56/44 44/44/33 57/57/44
f 56/56/44 57/57/44 27/27/25
f 56/56/44 27/27/25 26/26/25
f 56/56/44 26/26/25 21/21/21
f 56/56/44 21/21/21 55/55/44
f 58/58/45 57/57/44 44/44/33
f 58/58/45 44/44/33 48/48/38
f 58/58/45 48/48/38 18/18/18
f 58/58/45 18/18/18 17/17/17
f 58/58/45 17/17/17 16/16/16
f 58/58/45 16/16/16 32/32/27
f 58/58/45 32/32/27 27/27/25
f 58/58/45 27/27/25 57/57/44
f 59/59/1 60/60/46 61/61/47
f 59/59/1 61/61/47 62/62/48
f 59/59/1 62/62/48 63/63/49
f 59/59/1 63/63/49 64/64/50
f 59/59/1 64/64/50 65/65/51
f 59/59/1 65/65/51 66/66/52
f 59/59/1 66/66/52 67/67/53
f 59/59/1 67/67/53 60/60/46
f 68/68/10 69/69/54 70/70/55
f 68/68/10 70/70/55 71/71/56
f 68/68/10 71/71/56 72/72/57
f 68/68/10 72/72/57 73/73/58
f 68/68/10 73/73/58 74/74/59
f 68/68/10 74/74/59 75/75/60
f 68/68/10 75/75/60 76/76/61
f 68/68/10 76/76/61 69/69/54
f 77/77/62 78/78/63 67/67/53
f 77/77/62 67/67/53 66/66/52
f 77/77/62 66/66/52 65/65/51
f 77/77/62 65/65/51 79/79/64
f 77/77/62 79/79/64 80/80/65
f 77/77/62 80/80/65 81/81/66
f 77/77/62 81/81/66 82/82/67
f 77/77/62 82/82/67 78/78/63
f 83/83/66 84/84/68 82/82/67
f 83/83/66 82/82/67 81/81/66
f 83/83/66 81/81/66 80/80/65
f 83/83/66 80/80/65 85/85/65
f 83/83/66 85/85/65 86/86/65
f 83/83/66 86/86/65 87/87/66
f 83/83/66 87/87/66 88/88/67
f 83/83/66 88/88/67 84/84/68
f 89/89/69 90/90/70 88/88/67
f 89/89/69 88/88/67 87/87/66
f 89/89/69 87/87/66 86/86/65
f 89/89/69 86/86/65 91/91/71
f 89/89/69 91/91/71 76/76/61
f 89/89/69 76/76/61 75/75/60
f 89/89/69 75/75/60 74/74/59
f 89/89/69 74/74/59 90/90/70
f 92/92/72 93/93/73 63/63/49
f 92/92/72 63/63/49 62/62/48
f 92/92/72 62/62/48 61/61/47
f 92/92/72 61/61/47 94/94/74
f 92/92/72 94/94/74 95/95/75
f 92/92/72 95/95/75 96/96/76
f 92/92/72 96/96/76 97/97/77
f 92/92/72 97/97/77 93/93/73
f 98/98/76 99/99/78 97/97/77
f 98/98/76 97/97/77 96/96/76
f 98/98/76 96/96/76 95/95/75
f 98/98/76 95/95/75 100/100/79
f 98/98/76 100/100/79 101/101/75
f 98/98/76 101/101/75 102/102/76
f 98/98/76 102/102/76 103/103/77
f 98/98/76 103/103/77 99/99/78
f 104/104/80 105/105/81 103/103/77
f 104/104/80 103/103/77 102/102/76
f 104/104/80 102/102/76 101/101/75
f 104/104/80 101/101/75 106/106/82
f 104/104/80 106/106/82 72/72/57
f 104/104/80 72/72/57 71/71/56
f 104/104/80 71/71/56 70/70/55
f 104/104/80 70/70/55 105/105/81
f 107/107/83 79/79/64 65/65/51
f 107/107/83 65/65/51 64/64/50
f 107/107/83 64/64/50 63/63/49
f 107/107/83 63/63/49 93/93/73
f 107/107/83 93/93/73 97/97/77
f 107/107/83 97/97/77 108/108/84
f 107/107/83 108/108/84 80/80/65
f 107/107/83 80/80/65 79/79/64
f 109/109/85 85/85/65 80/80/65
f 109/109/85 80/80/65 108/108/84
f 109/109/85 108/108/84 97/97/77
f 109/109/85 97/97/77 99/99/78
f 109/109/85 99/99/78 103/103/77
f 109/109/85 103/103/77 110/110/84
f 109/109/85 110/110/84 86/86/65
f 109/109/85 86/86/65 85/85/65
f 111/111/86 91/91/71 86/86/65
f 111/111/86 86/86/65 110/110/84
f 111/111/86 110/110/84 103/103/77
f 111/111/86 103/103/77 105/105/81
f 111/111/86 105/105/81 70/70/55
f 111/111/86 70/70/55 69/69/54
f 111/111/86 69/69/54 76/76/61
f 111/111/86 76/76/61 91/91/71
f 112/112/87 78/78/63 82/82/67
f 112/112/87 82/82/67 113/113/88
f 112/112/87 113/113/88 95/95/75
f 112/112/87 95/95/75 94/94/74
f 112/112/87 94/94/74 61/61/47
f 112/112/87 61/61/47 60/60/46
f 112/112/87 60/60/46 67/67/53
f 112/112/87 67/67/53 78/78/63
f 114/114/88 100/100/79 95/95/75
f 114/114/88 95/95/75 113/113/88
f 114/114/88 113/113/88 82/82/67
f 114/114/88 82/82/67 84/84/68
f 114/114/88 84/84/68 88/88/67
f 114/114/88 88/88/67 115/115/89
f 114/114/88 115/115/89 101/101/75
f 114/114/88 101/101/75 100/100/79
f 116/116/90 106/106/82 101/101/75
f 116/116/90 101/101/75 115/115/89
f 116/116/90 115/115/89 88/88/67
f 116/116/90 88/88/67 90/90/70
f 116/116/90 90/90/70 74/74/59
f 116/116/90 74/74/59 73/73/58
f 116/116/90 73/73/58 72/72/57
f 116/116/90 72/72/57 106/106/82
