# Blender v3.4.1 OBJ File: 'livingroom.blend'
# www.blender.org
mtllib BlindEnds_0006.mtl
o BlindEnds_0006
v -0.997804 2.401414 0.756477
v -0.965686 2.401414 0.739027
v -0.966074 2.401414 0.738314
v -0.998192 2.401414 0.755764
v -0.965780 2.378580 0.738855
v -0.997898 2.378580 0.756305
v -0.998192 2.378189 0.755764
v -0.966074 2.378189 0.738314
v -0.965686 2.379598 0.739027
v -0.965686 2.401414 0.739027
v -0.997804 2.401414 0.756477
v -0.997804 2.379598 0.756477
v -0.997804 2.379598 0.756477
v -0.997898 2.378580 0.756305
v -0.965780 2.378580 0.738855
v -0.965686 2.379598 0.739027
v -0.997898 2.378580 0.756305
v -0.997804 2.379598 0.756477
v -0.998192 2.379598 0.755764
v -0.998192 2.378189 0.755764
v -0.997804 2.379598 0.756477
v -0.997804 2.401414 0.756477
v -0.998192 2.401414 0.755764
v -0.998192 2.379598 0.755764
v -0.965686 2.401414 0.739027
v -0.965686 2.379598 0.739027
v -0.966074 2.379598 0.738314
v -0.966074 2.401414 0.738314
v -0.965686 2.379598 0.739027
v -0.965780 2.378580 0.738855
v -0.966074 2.378189 0.738314
v -0.966074 2.379598 0.738314
v -0.998192 2.379598 0.755764
v -0.998192 2.401414 0.755764
v -0.966074 2.401414 0.738314
v -0.966074 2.379598 0.738314
v -0.998192 2.379598 0.755764
v -0.966074 2.379598 0.738314
v -0.967817 2.379598 0.735104
v -0.999935 2.379598 0.752554
v -0.966074 2.378189 0.738314
v -0.967817 2.378189 0.735104
v -0.967817 2.379598 0.735104
v -0.998192 2.378189 0.755764
v -0.998192 2.379598 0.755764
v -0.999935 2.379598 0.752554
v -0.999935 2.378189 0.752554
v -0.966074 2.378189 0.738314
v -0.998192 2.378189 0.755764
v -0.999935 2.378189 0.752554
v -0.967817 2.378189 0.735104
v -0.999935 2.378189 0.752554
v -0.999935 2.379598 0.752554
v -0.967817 2.379598 0.735104
v -0.967817 2.378189 0.735104
vt 0.000000 0.000000
vt 0.000000 0.000000
vt 0.000000 0.000000
vt 0.000000 0.000000
vt 0.000000 0.000000
vt 0.000000 0.000000
vt 0.000000 0.000000
vt 0.000000 0.000000
vt 0.000000 0.000000
vt 0.000000 0.000000
vt 0.000000 0.000000
vt 0.000000 0.000000
vt 0.000000 0.000000
vt 0.000000 0.000000
vt 0.000000 0.000000
vt 0.000000 0.000000
vt 0.000000 0.000000
vt 0.000000 0.000000
vt 0.000000 0.000000
vt 0.000000 0.000000
vt 0.000000 0.000000
vt 0.000000 0.000000
vt 0.000000 0.000000
vt 0.000000 0.000000
vt 0.000000 0.000000
vt 0.000000 0.000000
vt 0.000000 0.000000
vt 0.000000 0.000000
vt 0.000000 0.000000
vt 0.000000 0.000000
vt 0.000000 0.000000
vt 0.000000 0.000000
vt 0.000000 0.000000
vt 0.000000 0.000000
vt 0.000000 0.000000
vt 0.000000 0.000000
vt 0.000000 0.000000
vt 0.000000 0.000000
vt 0.000000 0.000000
vt 0.000000 0.000000
vt 0.000000 0.000000
vt 0.000000 0.000000
vt 0.000000 0.000000
vt 0.000000 0.000000
vt 0.000000 0.000000
vt 0.000000 0.000000
vt 0.000000 0.000000
vt 0.000000 0.000000
vt 0.000000 0.000000
vt 0.000000 0.000000
vt 0.000000 0.000000
vt 0.000000 0.000000
vt 0.000000 0.000000
vt 0.000000 0.000000
vt 0.000000 0.000000
vn -0.0004 1.0000 0.0007
vn 0.0000 1.0000 0.0002
vn 0.0000 1.0000 0.0001
vn 0.0000 1.0000 -0.0005
vn 0.0000 1.0000 -0.0002
vn 0.2562 -0.8440 0.4713
vn 0.2559 -0.8442 0.4710
vn 0.2560 -0.8441 0.4711
vn 0.2560 -0.8444 0.4707
vn 0.2560 -0.8442 0.4710
vn 0.4774 0.0000 0.8787
vn 0.4686 -0.1891 0.8629
vn 0.4688 -0.1892 0.8628
vn -0.8786 0.0007 0.4776
vn -0.8788 -0.0001 0.4771
vn -0.8787 -0.0003 0.4774
vn -0.8788 -0.0002 0.4773
vn -0.8789 -0.0001 0.4770
vn -0.8785 0.0000 0.4777
vn -0.8783 0.0009 0.4780
vn -0.8787 0.0000 0.4775
vn -0.8787 -0.0000 0.4773
vn -0.8788 -0.0000 0.4772
vn -0.8787 0.0004 0.4773
vn -0.8787 0.0000 0.4774
vn 0.8787 0.0004 -0.4774
vn 0.8787 0.0000 -0.4774
vn 0.8786 -0.0000 -0.4776
vn 0.8788 -0.0000 -0.4772
vn 0.8784 0.0005 -0.4779
vn 0.8787 0.0000 -0.4773
vn 0.8789 -0.0002 -0.4769
vn 0.8786 -0.0002 -0.4775
vn 0.8787 -0.0004 -0.4773
vn 0.8787 -0.0001 -0.4774
vn 0.8785 0.0000 -0.4778
vn 0.8788 -0.0001 -0.4771
vn -0.4774 0.0000 -0.8787
vn 0.0000 1.0000 -0.0000
vn 0.8785 -0.0002 -0.4777
vn 0.8785 0.0000 -0.4777
vn 0.8786 0.0003 -0.4775
vn 0.8785 -0.0001 -0.4777
vn -0.8789 0.0000 0.4771
vn -0.8786 -0.0000 0.4775
vn 0.0000 -1.0000 0.0000
vn 0.0000 -1.0000 0.0001
vn -0.4775 0.0000 -0.8786
vn -0.4772 0.0000 -0.8788
usemtl BlindEndsBSDF
s off
f 1/1/1 2/2/2 3/3/2
f 1/1/3 3/3/4 4/4/5
f 5/5/6 6/6/7 7/7/7
f 5/5/8 7/7/9 8/8/10
f 9/9/11 10/10/11 11/11/11
f 9/9/11 11/11/11 12/12/11
f 13/13/12 14/14/12 15/15/12
f 13/13/13 15/15/13 16/16/13
f 17/17/14 18/18/15 19/19/16
f 17/17/17 19/19/18 20/20/19
f 21/21/20 22/22/21 23/23/22
f 21/21/23 23/23/24 24/24/25
f 25/25/26 26/26/27 27/27/28
f 25/25/29 27/27/30 28/28/31
f 29/29/32 30/30/33 31/31/34
f 29/29/35 31/31/36 32/32/37
f 33/33/38 34/34/38 35/35/38
f 33/33/38 35/35/38 36/36/38
f 37/37/39 38/38/39 39/39/39
f 37/37/39 39/39/39 40/40/39
f 27/27/40 41/41/41 42/42/42
f 27/27/41 42/42/43 43/43/41
f 44/44/44 45/45/45 46/46/44
f 44/44/23 46/46/23 47/47/19
f 48/48/46 49/49/46 50/50/46
f 48/48/47 50/50/47 51/51/47
f 52/52/48 53/53/48 54/54/48
f 52/52/49 54/54/49 55/55/49
