# Blender v3.4.1 OBJ File: 'livingroom.blend'
# www.blender.org
mtllib Gem.mtl
o Gem
v 0.906922 2.111611 3.524924
v 0.906922 3.261611 3.524924
v 0.906922 2.511611 2.983727
v 1.289605 2.911611 2.601044
v 0.906922 3.086611 2.659010
v 1.136532 3.261611 2.970596
v 1.289605 2.511611 3.142240
v 1.830801 2.911611 3.142240
v 1.519215 3.086611 2.912630
v 1.461250 3.261611 3.295314
v 1.448118 2.511611 3.524924
v 1.830801 2.911611 3.907607
v 1.772836 3.086611 3.524924
v 1.461250 3.261611 3.754534
v 1.289605 2.511611 3.907607
v 1.289605 2.911611 4.448803
v 1.519215 3.086611 4.137217
v 1.136532 3.261611 4.079251
v 0.906922 2.511611 4.066120
v 0.524239 2.911611 4.448803
v 0.906922 3.086611 4.390837
v 0.677312 3.261611 4.079251
v 0.524239 2.511611 3.907607
v -0.016958 2.911611 3.907607
v 0.294629 3.086611 4.137217
v 0.352594 3.261611 3.754534
v 0.365726 2.511611 3.524924
v -0.016958 2.911611 3.142240
v 0.041008 3.086611 3.524924
v 0.352594 3.261611 3.295314
v 0.524239 2.511611 3.142240
v 0.524239 2.911611 2.601044
v 0.294629 3.086611 2.912630
v 0.677312 3.261611 2.970596
vn 0.2391 -0.7809 -0.5771
vn 0.5109 -0.6913 -0.5109
vn 0.6712 0.3144 -0.6712
vn 0.2520 0.7526 -0.6084
vn 0.3463 0.8719 -0.3463
vn 0.5771 -0.7809 -0.2391
vn 0.7226 -0.6913 0.0000
vn 0.9493 0.3144 0.0000
vn 0.6084 0.7526 -0.2520
vn 0.4897 0.8719 0.0000
vn 0.5771 -0.7809 0.2391
vn 0.5109 -0.6913 0.5109
vn 0.6712 0.3144 0.6712
vn 0.6084 0.7526 0.2520
vn 0.3463 0.8719 0.3463
vn 0.2391 -0.7809 0.5771
vn 0.0000 -0.6913 0.7226
vn 0.0000 0.3144 0.9493
vn 0.2520 0.7526 0.6084
vn 0.0000 0.8719 0.4897
vn -0.2391 -0.7809 0.5771
vn -0.5109 -0.6913 0.5109
vn -0.6712 0.3144 0.6712
vn -0.2520 0.7526 0.6084
vn -0.3463 0.8719 0.3463
vn -0.5771 -0.7809 0.2391
vn -0.7226 -0.6913 0.0000
vn -0.9493 0.3144 0.0000
vn -0.6084 0.7526 0.2520
vn -0.4897 0.8719 0.0000
vn -0.5771 -0.7809 -0.2391
vn -0.5109 -0.6913 -0.5109
vn -0.6712 0.3144 -0.6712
vn -0.6084 0.7526 -0.2520
vn -0.3463 0.8719 -0.3463
vn -0.2391 -0.7809 -0.5771
vn 0.0000 -0.6913 -0.7226
vn 0.0000 0.3144 -0.9493
vn -0.2520 0.7526 -0.6084
vn 0.0000 0.8719 -0.4897
vn 0.0000 1.0000 0.0000
usemtl trans
s off
f 7//1 1//1 3//1 4//1
f 7//2 4//2 8//2
f 8//3 4//3 9//3
f 9//4 4//4 5//4 6//4
f 9//5 6//5 10//5
f 11//6 1//6 7//6 8//6
f 11//7 8//7 12//7
f 12//8 8//8 13//8
f 13//9 8//9 9//9 10//9
f 13//10 10//10 14//10
f 15//11 1//11 11//11 12//11
f 15//12 12//12 16//12
f 16//13 12//13 17//13
f 17//14 12//14 13//14 14//14
f 17//15 14//15 18//15
f 19//16 1//16 15//16 16//16
f 19//17 16//17 20//17
f 20//18 16//18 21//18
f 21//19 16//19 17//19 18//19
f 21//20 18//20 22//20
f 23//21 1//21 19//21 20//21
f 23//22 20//22 24//22
f 24//23 20//23 25//23
f 25//24 20//24 21//24 22//24
f 25//25 22//25 26//25
f 27//26 1//26 23//26 24//26
f 27//27 24//27 28//27
f 28//28 24//28 29//28
f 29//29 24//29 25//29 26//29
f 29//30 26//30 30//30
f 31//31 1//31 27//31 28//31
f 31//32 28//32 32//32
f 32//33 28//33 33//33
f 33//34 28//34 29//34 30//34
f 33//35 30//35 34//35
f 3//36 1//36 31//36 32//36
f 3//37 32//37 4//37
f 4//38 32//38 5//38
f 5//39 32//39 33//39 34//39
f 5//40 34//40 6//40
f 2//41 6//41 34//41
f 6//41 2//41 10//41
f 10//41 2//41 14//41
f 14//41 2//41 18//41
f 18//41 2//41 22//41
f 22//41 2//41 26//41
f 26//41 2//41 30//41
f 30//41 2//41 34//41
