# Blender v3.4.1 OBJ File: 'livingroom.blend'
# www.blender.org
mtllib LoveLettersBack_0001.mtl
o LoveLettersBack_0001
v -2.225470 0.672475 4.008511
v -2.227622 0.672475 4.003316
v -2.227622 0.738433 4.003316
v -2.225470 0.738433 4.008511
v -2.225470 0.672475 4.008511
v -2.220275 0.672475 4.010663
v -2.220275 0.738433 4.010663
v -2.225470 0.738433 4.008511
v -2.215080 0.672475 4.008511
v -2.215080 0.738433 4.008511
v -2.212928 0.672475 4.003316
v -2.212928 0.738433 4.003316
v -2.215080 0.672475 3.998121
v -2.215080 0.738433 3.998121
v -2.220275 0.672475 3.995969
v -2.220275 0.738433 3.995969
v -2.225470 0.672475 3.998121
v -2.225470 0.738433 3.998121
v -2.227622 0.672475 4.003316
v -2.227622 0.738433 4.003316
vt 0.000000 0.000000
vt 0.000000 0.000000
vt 0.000000 0.000000
vt 0.000000 0.000000
vt 0.000000 0.000000
vt 0.000000 0.000000
vt 0.000000 0.000000
vt 0.000000 0.000000
vt 0.000000 0.000000
vt 0.000000 0.000000
vt 0.000000 0.000000
vt 0.000000 0.000000
vt 0.000000 0.000000
vt 0.000000 0.000000
vt 0.000000 0.000000
vt 0.000000 0.000000
vt 0.000000 0.000000
vt 0.000000 0.000000
vt 0.000000 0.000000
vt 0.000000 0.000000
vn 0.9239 0.0000 -0.3827
vn -0.3826 0.0000 0.9239
vn 0.0000 0.0000 1.0000
vn 0.7071 0.0000 0.7071
vn 1.0000 0.0000 -0.0000
vn 0.7071 0.0000 -0.7071
vn -0.0001 0.0000 -1.0000
vn 0.0001 0.0000 -1.0000
vn -0.7071 0.0000 -0.7071
vn -0.9239 0.0000 -0.3827
usemtl LoveLettersBackBSDF
s 1
f 1/1/1 2/2/1 3/3/1
f 1/1/1 3/3/1 4/4/1
f 5/5/2 6/6/3 7/7/3
f 5/5/2 7/7/3 8/8/2
f 6/6/3 9/9/4 10/10/4
f 6/6/3 10/10/4 7/7/3
f 9/9/4 11/11/5 12/12/5
f 9/9/4 12/12/5 10/10/4
f 11/11/5 13/13/6 14/14/6
f 11/11/5 14/14/6 12/12/5
f 13/13/6 15/15/7 16/16/8
f 13/13/6 16/16/8 14/14/6
f 15/15/7 17/17/9 18/18/9
f 15/15/7 18/18/9 16/16/8
f 17/17/9 19/19/10 20/20/10
f 17/17/9 20/20/10 18/18/9
