# Blender v3.4.1 OBJ File: 'livingroom.blend'
# www.blender.org
mtllib RadioDialRed.mtl
o RadioDialRed
v -2.200645 1.333660 1.494245
v -2.201154 1.346011 1.495430
v -2.203351 1.345530 1.497818
v -2.202026 1.333358 1.495746
v -2.200317 1.317765 1.493104
v -2.199981 1.317838 1.492739
v -2.199642 1.317863 1.492369
v -2.199251 1.333761 1.492728
v -2.198936 1.346173 1.493018
v -2.203380 1.332856 1.497219
v -2.205504 1.344733 1.500161
v -2.207595 1.343628 1.502434
v -2.204695 1.332162 1.498648
v -2.200967 1.317474 1.493811
v -2.200647 1.317643 1.493463
v -2.205957 1.331280 1.500021
v -2.209602 1.342225 1.504617
v -2.211507 1.340539 1.506688
v -2.207154 1.330220 1.501323
v -2.201566 1.317001 1.494462
v -2.201274 1.317259 1.494145
v -2.208275 1.328991 1.502542
v -2.213290 1.338585 1.508627
v -2.214935 1.336382 1.510417
v -2.209310 1.327606 1.503667
v -2.202091 1.316364 1.495033
v -2.201839 1.316702 1.494759
v -2.210247 1.326078 1.504686
v -2.216426 1.333951 1.512038
v -2.217749 1.331317 1.513476
v -2.211079 1.324422 1.505591
v -2.202522 1.315589 1.495501
v -2.202319 1.315992 1.495281
v -2.211796 1.322652 1.506371
v -2.218890 1.328503 1.514718
v -2.219840 1.325538 1.515750
v -2.212393 1.320788 1.507020
v -2.202842 1.314704 1.495849
v -2.202696 1.315158 1.495691
v -2.212863 1.318846 1.507532
v -2.220588 1.322449 1.516563
v -2.221128 1.319267 1.517150
v -2.213203 1.316846 1.507901
v -2.203039 1.313744 1.496064
v -2.202956 1.314231 1.495974
v -2.213408 1.314806 1.508123
v -2.221453 1.316022 1.517504
v -2.221562 1.312746 1.517623
v -2.213476 1.312746 1.508198
v -2.203105 1.312746 1.496136
v -2.203089 1.313247 1.496118
v -2.213408 1.310686 1.508123
v -2.221453 1.309470 1.517504
v -2.221128 1.306225 1.517150
v -2.213203 1.308646 1.507901
v -2.203039 1.311748 1.496064
v -2.203089 1.312244 1.496118
v -2.212863 1.306646 1.507532
v -2.220588 1.303043 1.516563
v -2.219840 1.299954 1.515750
v -2.212393 1.304704 1.507020
v -2.202842 1.310788 1.495849
v -2.202956 1.311261 1.495974
v -2.211796 1.302839 1.506371
v -2.218890 1.296989 1.514717
v -2.217749 1.294175 1.513476
v -2.211079 1.301070 1.505591
v -2.202522 1.309903 1.495501
v -2.202696 1.310334 1.495691
v -2.210247 1.299414 1.504686
v -2.216426 1.291541 1.512038
v -2.214935 1.289110 1.510416
v -2.209310 1.297886 1.503667
v -2.202091 1.309128 1.495033
v -2.202319 1.309500 1.495281
v -2.208275 1.296501 1.502542
v -2.213290 1.286907 1.508627
v -2.211506 1.284953 1.506688
v -2.207154 1.295272 1.501323
v -2.201566 1.308491 1.494462
v -2.201839 1.308790 1.494759
v -2.205956 1.294212 1.500021
v -2.209602 1.283267 1.504617
v -2.207595 1.281864 1.502434
v -2.204695 1.293330 1.498648
v -2.200967 1.308018 1.493811
v -2.201274 1.308233 1.494145
v -2.203380 1.292636 1.497219
v -2.205504 1.280759 1.500160
v -2.203350 1.279962 1.497818
v -2.202026 1.292134 1.495746
v -2.200317 1.307727 1.493104
v -2.200647 1.307849 1.493463
v -2.200645 1.291832 1.494245
v -2.201154 1.279481 1.495430
v -2.198936 1.279319 1.493018
v -2.199251 1.291731 1.492728
v -2.199642 1.307629 1.492369
v -2.199981 1.307654 1.492739
v -2.197857 1.291832 1.491212
v -2.196718 1.279481 1.490606
v -2.194522 1.279962 1.488218
v -2.196476 1.292134 1.489711
v -2.198966 1.307727 1.491634
v -2.199302 1.307654 1.492000
v -2.195122 1.292636 1.488238
v -2.192368 1.280759 1.485876
v -2.190278 1.281864 1.483602
v -2.193807 1.293330 1.486809
v -2.198316 1.308018 1.490928
v -2.198636 1.307849 1.491276
v -2.192545 1.294212 1.485436
v -2.188271 1.283267 1.481419
v -2.186366 1.284953 1.479348
v -2.191348 1.295272 1.484134
v -2.197717 1.308491 1.490277
v -2.198009 1.308233 1.490594
v -2.190227 1.296501 1.482915
v -2.184582 1.286907 1.477409
v -2.182937 1.289110 1.475620
v -2.189192 1.297886 1.481790
v -2.197192 1.309128 1.489706
v -2.197444 1.308790 1.489980
v -2.188255 1.299414 1.480771
v -2.181446 1.291541 1.473998
v -2.180123 1.294175 1.472560
v -2.187423 1.301070 1.479866
v -2.196762 1.309903 1.489238
v -2.196964 1.309500 1.489458
v -2.186706 1.302839 1.479086
v -2.178982 1.296989 1.471319
v -2.178032 1.299954 1.470286
v -2.186109 1.304704 1.478437
v -2.196442 1.310788 1.488889
v -2.196587 1.310334 1.489048
v -2.185639 1.306646 1.477926
v -2.177285 1.303043 1.469473
v -2.176745 1.306225 1.468886
v -2.185299 1.308646 1.477556
v -2.196244 1.311748 1.488675
v -2.196327 1.311261 1.488765
v -2.185095 1.310686 1.477334
v -2.176419 1.309470 1.468532
v -2.176310 1.312746 1.468413
v -2.185026 1.312746 1.477259
v -2.196178 1.312746 1.488603
v -2.196195 1.312244 1.488621
v -2.185095 1.314806 1.477334
v -2.176419 1.316022 1.468532
v -2.176745 1.319267 1.468886
v -2.185299 1.316846 1.477556
v -2.196244 1.313744 1.488675
v -2.196195 1.313248 1.488621
v -2.185639 1.318846 1.477926
v -2.177285 1.322449 1.469473
v -2.178032 1.325538 1.470286
v -2.186109 1.320788 1.478437
v -2.196442 1.314704 1.488889
v -2.196327 1.314231 1.488765
v -2.186706 1.322652 1.479086
v -2.178982 1.328503 1.471318
v -2.180123 1.331317 1.472560
v -2.187423 1.324422 1.479866
v -2.196762 1.315589 1.489237
v -2.196587 1.315158 1.489048
v -2.188255 1.326078 1.480771
v -2.181446 1.333951 1.473998
v -2.182937 1.336382 1.475620
v -2.189192 1.327606 1.481790
v -2.197192 1.316364 1.489706
v -2.196964 1.315992 1.489458
v -2.190227 1.328991 1.482915
v -2.184582 1.338585 1.477409
v -2.186366 1.340539 1.479348
v -2.191348 1.330220 1.484134
v -2.197717 1.317001 1.490277
v -2.197444 1.316702 1.489980
v -2.192545 1.331280 1.485436
v -2.188270 1.342225 1.481419
v -2.190278 1.343628 1.483602
v -2.193807 1.332162 1.486809
v -2.198316 1.317474 1.490928
v -2.198009 1.317259 1.490594
v -2.195122 1.332856 1.488238
v -2.192368 1.344733 1.485876
v -2.194522 1.345530 1.488218
v -2.196476 1.333358 1.489711
v -2.198966 1.317765 1.491634
v -2.198636 1.317643 1.491276
v -2.197857 1.333660 1.491212
v -2.196718 1.346011 1.490606
v -2.199302 1.317838 1.492000
vt 0.554907 0.733066
vt 0.588361 0.881697
vt 0.550059 0.887561
vt 0.531221 0.736370
vt 0.506203 0.537799
vt 0.510666 0.537851
vt 0.515215 0.537518
vt 0.578210 0.727554
vt 0.625915 0.872234
vt 0.507594 0.737567
vt 0.511572 0.889736
vt 0.472935 0.888135
vt 0.483965 0.736529
vt 0.498143 0.537456
vt 0.502076 0.537726
vt 0.460271 0.733132
vt 0.434178 0.882672
vt 0.395852 0.873436
vt 0.436853 0.727434
vt 0.490472 0.535808
vt 0.494263 0.536814
vt 0.414049 0.719495
vt 0.358505 0.860520
vt 0.322552 0.844046
vt 0.392111 0.709391
vt 0.483302 0.532737
vt 0.486807 0.534444
vt 0.371293 0.697199
vt 0.288411 0.824137
vt 0.256362 0.800962
vt 0.351761 0.683021
vt 0.476898 0.528354
vt 0.479988 0.530700
vt 0.333682 0.666961
vt 0.226686 0.774687
vt 0.199708 0.745609
vt 0.317255 0.649201
vt 0.471503 0.522834
vt 0.474061 0.525723
vt 0.302676 0.629920
vt 0.175756 0.714025
vt 0.155068 0.680266
vt 0.290090 0.609322
vt 0.467323 0.516391
vt 0.469251 0.519712
vt 0.279638 0.587609
vt 0.137882 0.644665
vt 0.124356 0.607603
vt 0.271415 0.565010
vt 0.464506 0.509282
vt 0.465737 0.512903
vt 0.265517 0.541755
vt 0.114648 0.569459
vt 0.108828 0.530637
vt 0.261984 0.518089
vt 0.463151 0.501783
vt 0.463642 0.505563
vt 0.260858 0.494255
vt 0.106966 0.491541
vt 0.109039 0.452578
vt 0.262127 0.470499
vt 0.463292 0.494176
vt 0.463035 0.497975
vt 0.265777 0.447064
vt 0.115028 0.414154
vt 0.124825 0.376653
vt 0.271745 0.424184
vt 0.464909 0.486737
vt 0.463919 0.490418
vt 0.279969 0.402092
vt 0.138323 0.340461
vt 0.155343 0.305920
vt 0.290342 0.380996
vt 0.467941 0.479734
vt 0.466254 0.483166
vt 0.302756 0.361101
vt 0.175704 0.273373
vt 0.199168 0.243103
vt 0.317073 0.342583
vt 0.472283 0.473406
vt 0.469956 0.476471
vt 0.333154 0.325614
vt 0.225502 0.215393
vt 0.254431 0.190447
vt 0.350839 0.310320
vt 0.477812 0.467977
vt 0.474908 0.470566
vt 0.369968 0.296827
vt 0.285686 0.168467
vt 0.318864 0.149525
vt 0.390283 0.285161
vt 0.484335 0.463596
vt 0.480974 0.465666
vt 0.411525 0.275347
vt 0.353566 0.133695
vt 0.389485 0.121191
vt 0.433531 0.267554
vt 0.491501 0.460173
vt 0.487832 0.461733
vt 0.456139 0.261952
vt 0.426317 0.112226
vt 0.463790 0.106823
vt 0.479186 0.258573
vt 0.499419 0.458307
vt 0.495374 0.459013
vt 0.502508 0.257448
vt 0.501634 0.105000
vt 0.539297 0.106772
vt 0.525727 0.258633
vt 0.507818 0.458531
vt 0.503604 0.458109
vt 0.548466 0.262179
vt 0.576226 0.112151
vt 0.612521 0.121190
vt 0.570758 0.267939
vt 0.515892 0.461128
vt 0.511953 0.459685
vt 0.592638 0.275765
vt 0.648278 0.133944
vt 0.682928 0.150178
vt 0.613796 0.285616
vt 0.522910 0.463800
vt 0.519517 0.462418
vt 0.633927 0.297450
vt 0.715901 0.169657
vt 0.746955 0.192259
vt 0.652889 0.311195
vt 0.529220 0.467571
vt 0.526151 0.465522
vt 0.670540 0.326780
vt 0.775847 0.217859
vt 0.802252 0.246178
vt 0.686681 0.344033
vt 0.534740 0.472586
vt 0.532095 0.469933
vt 0.701108 0.362783
vt 0.825846 0.276938
vt 0.846392 0.309843
vt 0.713679 0.382851
vt 0.539211 0.478676
vt 0.537120 0.475510
vt 0.724249 0.404060
vt 0.863653 0.344599
vt 0.877461 0.380864
vt 0.732716 0.426201
vt 0.542440 0.485620
vt 0.540991 0.482057
vt 0.738979 0.449066
vt 0.887651 0.418294
vt 0.894136 0.456516
vt 0.742983 0.472431
vt 0.544287 0.493166
vt 0.543542 0.489334
vt 0.744676 0.496069
vt 0.896829 0.495159
vt 0.895727 0.533842
vt 0.744053 0.519748
vt 0.544665 0.501043
vt 0.544663 0.497080
vt 0.741108 0.543239
vt 0.890827 0.572181
vt 0.882205 0.609806
vt 0.735888 0.566312
vt 0.543527 0.508968
vt 0.544286 0.505017
vt 0.728437 0.588742
vt 0.869942 0.646343
vt 0.854192 0.681441
vt 0.718845 0.610314
vt 0.540876 0.516656
vt 0.542389 0.512860
vt 0.707205 0.630812
vt 0.835112 0.714751
vt 0.812966 0.745963
vt 0.693675 0.650046
vt 0.536742 0.523816
vt 0.538992 0.520321
vt 0.678417 0.667826
vt 0.788019 0.774769
vt 0.760266 0.800742
vt 0.661382 0.683851
vt 0.531115 0.530080
vt 0.534135 0.527105
vt 0.642519 0.697820
vt 0.729703 0.823452
vt 0.696832 0.842944
vt 0.622173 0.709769
vt 0.523759 0.534754
vt 0.527627 0.532633
vt 0.600684 0.719734
vt 0.662154 0.859260
vt 0.519601 0.536434
vn 0.7380 -0.0338 0.6740
vn 0.7381 -0.0375 0.6737
vn 0.7405 -0.0370 0.6710
vn 0.7401 -0.0333 0.6717
vn 0.7401 -0.0327 0.6717
vn 0.7379 -0.0332 0.6741
vn 0.7356 -0.0334 0.6766
vn 0.7358 -0.0339 0.6763
vn 0.7356 -0.0377 0.6764
vn 0.7423 -0.0324 0.6693
vn 0.7430 -0.0361 0.6683
vn 0.7453 -0.0348 0.6658
vn 0.7444 -0.0313 0.6670
vn 0.7444 -0.0307 0.6670
vn 0.7422 -0.0320 0.6694
vn 0.7466 -0.0298 0.6647
vn 0.7476 -0.0332 0.6633
vn 0.7497 -0.0313 0.6610
vn 0.7484 -0.0281 0.6626
vn 0.7480 -0.0280 0.6631
vn 0.7464 -0.0294 0.6649
vn 0.7502 -0.0262 0.6607
vn 0.7517 -0.0291 0.6589
vn 0.7536 -0.0266 0.6568
vn 0.7519 -0.0241 0.6589
vn 0.7517 -0.0235 0.6591
vn 0.7496 -0.0258 0.6613
vn 0.7534 -0.0215 0.6572
vn 0.7553 -0.0239 0.6549
vn 0.7568 -0.0210 0.6533
vn 0.7548 -0.0188 0.6557
vn 0.7546 -0.0185 0.6559
vn 0.7530 -0.0212 0.6576
vn 0.7559 -0.0160 0.6545
vn 0.7581 -0.0178 0.6519
vn 0.7591 -0.0144 0.6508
vn 0.7569 -0.0129 0.6534
vn 0.7566 -0.0130 0.6537
vn 0.7556 -0.0157 0.6548
vn 0.7577 -0.0098 0.6526
vn 0.7600 -0.0109 0.6498
vn 0.7606 -0.0073 0.6492
vn 0.7582 -0.0064 0.6520
vn 0.7579 -0.0066 0.6524
vn 0.7572 -0.0098 0.6531
vn 0.7585 -0.0033 0.6517
vn 0.7609 -0.0037 0.6488
vn 0.7611 0.0000 0.6486
vn 0.7586 0.0000 0.6515
vn 0.7583 -0.0000 0.6519
vn 0.7581 -0.0033 0.6521
vn 0.7585 0.0033 0.6517
vn 0.7609 0.0037 0.6488
vn 0.7606 0.0073 0.6492
vn 0.7582 0.0064 0.6520
vn 0.7579 0.0067 0.6523
vn 0.7582 0.0033 0.6520
vn 0.7576 0.0098 0.6526
vn 0.7600 0.0110 0.6498
vn 0.7591 0.0144 0.6508
vn 0.7569 0.0129 0.6534
vn 0.7566 0.0130 0.6537
vn 0.7575 0.0095 0.6528
vn 0.7559 0.0160 0.6545
vn 0.7581 0.0177 0.6519
vn 0.7568 0.0209 0.6533
vn 0.7548 0.0188 0.6557
vn 0.7544 0.0186 0.6562
vn 0.7556 0.0157 0.6549
vn 0.7534 0.0215 0.6572
vn 0.7553 0.0239 0.6549
vn 0.7536 0.0266 0.6568
vn 0.7518 0.0241 0.6589
vn 0.7517 0.0235 0.6591
vn 0.7531 0.0211 0.6575
vn 0.7502 0.0262 0.6607
vn 0.7517 0.0291 0.6588
vn 0.7497 0.0313 0.6611
vn 0.7484 0.0283 0.6627
vn 0.7480 0.0280 0.6631
vn 0.7501 0.0258 0.6609
vn 0.7466 0.0299 0.6646
vn 0.7476 0.0332 0.6633
vn 0.7453 0.0349 0.6658
vn 0.7445 0.0313 0.6669
vn 0.7444 0.0307 0.6670
vn 0.7465 0.0294 0.6647
vn 0.7423 0.0325 0.6693
vn 0.7430 0.0360 0.6683
vn 0.7405 0.0370 0.6710
vn 0.7401 0.0333 0.6717
vn 0.7398 0.0326 0.6720
vn 0.7422 0.0320 0.6695
vn 0.7380 0.0338 0.6740
vn 0.7381 0.0375 0.6737
vn 0.7356 0.0377 0.6764
vn 0.7358 0.0339 0.6763
vn 0.7356 0.0334 0.6765
vn 0.7379 0.0332 0.6741
vn 0.7333 0.0338 0.6791
vn 0.7331 0.0375 0.6791
vn 0.7306 0.0370 0.6818
vn 0.7312 0.0333 0.6814
vn 0.7310 0.0326 0.6815
vn 0.7335 0.0332 0.6789
vn 0.7290 0.0324 0.6838
vn 0.7282 0.0361 0.6844
vn 0.7258 0.0348 0.6870
vn 0.7268 0.0313 0.6861
vn 0.7271 0.0308 0.6858
vn 0.7291 0.0319 0.6837
vn 0.7249 0.0300 0.6882
vn 0.7235 0.0333 0.6895
vn 0.7214 0.0313 0.6918
vn 0.7229 0.0282 0.6903
vn 0.7229 0.0275 0.6905
vn 0.7250 0.0295 0.6881
vn 0.7210 0.0262 0.6924
vn 0.7194 0.0290 0.6939
vn 0.7175 0.0267 0.6960
vn 0.7194 0.0240 0.6942
vn 0.7199 0.0235 0.6937
vn 0.7215 0.0261 0.6920
vn 0.7179 0.0215 0.6958
vn 0.7159 0.0239 0.6978
vn 0.7143 0.0209 0.6995
vn 0.7166 0.0189 0.6972
vn 0.7170 0.0186 0.6968
vn 0.7183 0.0213 0.6954
vn 0.7154 0.0160 0.6985
vn 0.7130 0.0178 0.7009
vn 0.7120 0.0144 0.7020
vn 0.7144 0.0129 0.6996
vn 0.7149 0.0128 0.6991
vn 0.7158 0.0156 0.6981
vn 0.7137 0.0099 0.7004
vn 0.7111 0.0109 0.7030
vn 0.7106 0.0073 0.7036
vn 0.7131 0.0068 0.7010
vn 0.7136 0.0066 0.7005
vn 0.7141 0.0097 0.7000
vn 0.7128 0.0032 0.7013
vn 0.7101 0.0037 0.7041
vn 0.7100 0.0000 0.7042
vn 0.7127 -0.0000 0.7014
vn 0.7130 0.0000 0.7011
vn 0.7132 0.0037 0.7009
vn 0.7128 -0.0032 0.7013
vn 0.7101 -0.0037 0.7041
vn 0.7105 -0.0073 0.7036
vn 0.7132 -0.0068 0.7009
vn 0.7137 -0.0064 0.7005
vn 0.7132 -0.0032 0.7009
vn 0.7137 -0.0099 0.7004
vn 0.7111 -0.0109 0.7030
vn 0.7120 -0.0144 0.7020
vn 0.7144 -0.0129 0.6996
vn 0.7149 -0.0128 0.6991
vn 0.7141 -0.0097 0.7000
vn 0.7154 -0.0160 0.6985
vn 0.7130 -0.0178 0.7009
vn 0.7143 -0.0210 0.6995
vn 0.7167 -0.0185 0.6972
vn 0.7171 -0.0184 0.6968
vn 0.7157 -0.0157 0.6982
vn 0.7179 -0.0215 0.6958
vn 0.7158 -0.0239 0.6979
vn 0.7176 -0.0267 0.6960
vn 0.7194 -0.0240 0.6942
vn 0.7199 -0.0235 0.6937
vn 0.7183 -0.0213 0.6954
vn 0.7210 -0.0262 0.6924
vn 0.7194 -0.0291 0.6940
vn 0.7214 -0.0313 0.6918
vn 0.7229 -0.0282 0.6904
vn 0.7229 -0.0275 0.6904
vn 0.7213 -0.0259 0.6921
vn 0.7246 -0.0298 0.6885
vn 0.7235 -0.0332 0.6895
vn 0.7258 -0.0348 0.6870
vn 0.7268 -0.0313 0.6861
vn 0.7273 -0.0308 0.6857
vn 0.7249 -0.0292 0.6883
vn 0.7290 -0.0324 0.6838
vn 0.7282 -0.0361 0.6845
vn 0.7306 -0.0370 0.6818
vn 0.7312 -0.0333 0.6814
vn 0.7311 -0.0326 0.6815
vn 0.7291 -0.0319 0.6837
vn 0.7333 -0.0338 0.6790
vn 0.7331 -0.0375 0.6791
vn 0.7335 -0.0332 0.6789
usemtl RadioDialRedBSDF
s 1
f 1/1/1 2/2/2 3/3/3
f 1/1/1 3/3/3 4/4/4
f 1/1/1 4/4/4 5/5/5
f 1/1/1 5/5/5 6/6/6
f 1/1/1 6/6/6 7/7/7
f 1/1/1 7/7/7 8/8/8
f 1/1/1 8/8/8 9/9/9
f 1/1/1 9/9/9 2/2/2
f 10/10/10 11/11/11 12/12/12
f 10/10/10 12/12/12 13/13/13
f 10/10/10 13/13/13 14/14/14
f 10/10/10 14/14/14 15/15/15
f 10/10/10 15/15/15 5/5/5
f 10/10/10 5/5/5 4/4/4
f 10/10/10 4/4/4 3/3/3
f 10/10/10 3/3/3 11/11/11
f 16/16/16 17/17/17 18/18/18
f 16/16/16 18/18/18 19/19/19
f 16/16/16 19/19/19 20/20/20
f 16/16/16 20/20/20 21/21/21
f 16/16/16 21/21/21 14/14/14
f 16/16/16 14/14/14 13/13/13
f 16/16/16 13/13/13 12/12/12
f 16/16/16 12/12/12 17/17/17
f 22/22/22 23/23/23 24/24/24
f 22/22/22 24/24/24 25/25/25
f 22/22/22 25/25/25 26/26/26
f 22/22/22 26/26/26 27/27/27
f 22/22/22 27/27/27 20/20/20
f 22/22/22 20/20/20 19/19/19
f 22/22/22 19/19/19 18/18/18
f 22/22/22 18/18/18 23/23/23
f 28/28/28 29/29/29 30/30/30
f 28/28/28 30/30/30 31/31/31
f 28/28/28 31/31/31 32/32/32
f 28/28/28 32/32/32 33/33/33
f 28/28/28 33/33/33 26/26/26
f 28/28/28 26/26/26 25/25/25
f 28/28/28 25/25/25 24/24/24
f 28/28/28 24/24/24 29/29/29
f 34/34/34 35/35/35 36/36/36
f 34/34/34 36/36/36 37/37/37
f 34/34/34 37/37/37 38/38/38
f 34/34/34 38/38/38 39/39/39
f 34/34/34 39/39/39 32/32/32
f 34/34/34 32/32/32 31/31/31
f 34/34/34 31/31/31 30/30/30
f 34/34/34 30/30/30 35/35/35
f 40/40/40 41/41/41 42/42/42
f 40/40/40 42/42/42 43/43/43
f 40/40/40 43/43/43 44/44/44
f 40/40/40 44/44/44 45/45/45
f 40/40/40 45/45/45 38/38/38
f 40/40/40 38/38/38 37/37/37
f 40/40/40 37/37/37 36/36/36
f 40/40/40 36/36/36 41/41/41
f 46/46/46 47/47/47 48/48/48
f 46/46/46 48/48/48 49/49/49
f 46/46/46 49/49/49 50/50/50
f 46/46/46 50/50/50 51/51/51
f 46/46/46 51/51/51 44/44/44
f 46/46/46 44/44/44 43/43/43
f 46/46/46 43/43/43 42/42/42
f 46/46/46 42/42/42 47/47/47
f 52/52/52 53/53/53 54/54/54
f 52/52/52 54/54/54 55/55/55
f 52/52/52 55/55/55 56/56/56
f 52/52/52 56/56/56 57/57/57
f 52/52/52 57/57/57 50/50/50
f 52/52/52 50/50/50 49/49/49
f 52/52/52 49/49/49 48/48/48
f 52/52/52 48/48/48 53/53/53
f 58/58/58 59/59/59 60/60/60
f 58/58/58 60/60/60 61/61/61
f 58/58/58 61/61/61 62/62/62
f 58/58/58 62/62/62 63/63/63
f 58/58/58 63/63/63 56/56/56
f 58/58/58 56/56/56 55/55/55
f 58/58/58 55/55/55 54/54/54
f 58/58/58 54/54/54 59/59/59
f 64/64/64 65/65/65 66/66/66
f 64/64/64 66/66/66 67/67/67
f 64/64/64 67/67/67 68/68/68
f 64/64/64 68/68/68 69/69/69
f 64/64/64 69/69/69 62/62/62
f 64/64/64 62/62/62 61/61/61
f 64/64/64 61/61/61 60/60/60
f 64/64/64 60/60/60 65/65/65
f 70/70/70 71/71/71 72/72/72
f 70/70/70 72/72/72 73/73/73
f 70/70/70 73/73/73 74/74/74
f 70/70/70 74/74/74 75/75/75
f 70/70/70 75/75/75 68/68/68
f 70/70/70 68/68/68 67/67/67
f 70/70/70 67/67/67 66/66/66
f 70/70/70 66/66/66 71/71/71
f 76/76/76 77/77/77 78/78/78
f 76/76/76 78/78/78 79/79/79
f 76/76/76 79/79/79 80/80/80
f 76/76/76 80/80/80 81/81/81
f 76/76/76 81/81/81 74/74/74
f 76/76/76 74/74/74 73/73/73
f 76/76/76 73/73/73 72/72/72
f 76/76/76 72/72/72 77/77/77
f 82/82/82 83/83/83 84/84/84
f 82/82/82 84/84/84 85/85/85
f 82/82/82 85/85/85 86/86/86
f 82/82/82 86/86/86 87/87/87
f 82/82/82 87/87/87 80/80/80
f 82/82/82 80/80/80 79/79/79
f 82/82/82 79/79/79 78/78/78
f 82/82/82 78/78/78 83/83/83
f 88/88/88 89/89/89 90/90/90
f 88/88/88 90/90/90 91/91/91
f 88/88/88 91/91/91 92/92/92
f 88/88/88 92/92/92 93/93/93
f 88/88/88 93/93/93 86/86/86
f 88/88/88 86/86/86 85/85/85
f 88/88/88 85/85/85 84/84/84
f 88/88/88 84/84/84 89/89/89
f 94/94/94 95/95/95 96/96/96
f 94/94/94 96/96/96 97/97/97
f 94/94/94 97/97/97 98/98/98
f 94/94/94 98/98/98 99/99/99
f 94/94/94 99/99/99 92/92/92
f 94/94/94 92/92/92 91/91/91
f 94/94/94 91/91/91 90/90/90
f 94/94/94 90/90/90 95/95/95
f 100/100/100 101/101/101 102/102/102
f 100/100/100 102/102/102 103/103/103
f 100/100/100 103/103/103 104/104/104
f 100/100/100 104/104/104 105/105/105
f 100/100/100 105/105/105 98/98/98
f 100/100/100 98/98/98 97/97/97
f 100/100/100 97/97/97 96/96/96
f 100/100/100 96/96/96 101/101/101
f 106/106/106 107/107/107 108/108/108
f 106/106/106 108/108/108 109/109/109
f 106/106/106 109/109/109 110/110/110
f 106/106/106 110/110/110 111/111/111
f 106/106/106 111/111/111 104/104/104
f 106/106/106 104/104/104 103/103/103
f 106/106/106 103/103/103 102/102/102
f 106/106/106 102/102/102 107/107/107
f 112/112/112 113/113/113 114/114/114
f 112/112/112 114/114/114 115/115/115
f 112/112/112 115/115/115 116/116/116
f 112/112/112 116/116/116 117/117/117
f 112/112/112 117/117/117 110/110/110
f 112/112/112 110/110/110 109/109/109
f 112/112/112 109/109/109 108/108/108
f 112/112/112 108/108/108 113/113/113
f 118/118/118 119/119/119 120/120/120
f 118/118/118 120/120/120 121/121/121
f 118/118/118 121/121/121 122/122/122
f 118/118/118 122/122/122 123/123/123
f 118/118/118 123/123/123 116/116/116
f 118/118/118 116/116/116 115/115/115
f 118/118/118 115/115/115 114/114/114
f 118/118/118 114/114/114 119/119/119
f 124/124/124 125/125/125 126/126/126
f 124/124/124 126/126/126 127/127/127
f 124/124/124 127/127/127 128/128/128
f 124/124/124 128/128/128 129/129/129
f 124/124/124 129/129/129 122/122/122
f 124/124/124 122/122/122 121/121/121
f 124/124/124 121/121/121 120/120/120
f 124/124/124 120/120/120 125/125/125
f 130/130/130 131/131/131 132/132/132
f 130/130/130 132/132/132 133/133/133
f 130/130/130 133/133/133 134/134/134
f 130/130/130 134/134/134 135/135/135
f 130/130/130 135/135/135 128/128/128
f 130/130/130 128/128/128 127/127/127
f 130/130/130 127/127/127 126/126/126
f 130/130/130 126/126/126 131/131/131
f 136/136/136 137/137/137 138/138/138
f 136/136/136 138/138/138 139/139/139
f 136/136/136 139/139/139 140/140/140
f 136/136/136 140/140/140 141/141/141
f 136/136/136 141/141/141 134/134/134
f 136/136/136 134/134/134 133/133/133
f 136/136/136 133/133/133 132/132/132
f 136/136/136 132/132/132 137/137/137
f 142/142/142 143/143/143 144/144/144
f 142/142/142 144/144/144 145/145/145
f 142/142/142 145/145/145 146/146/146
f 142/142/142 146/146/146 147/147/147
f 142/142/142 147/147/147 140/140/140
f 142/142/142 140/140/140 139/139/139
f 142/142/142 139/139/139 138/138/138
f 142/142/142 138/138/138 143/143/143
f 148/148/148 149/149/149 150/150/150
f 148/148/148 150/150/150 151/151/151
f 148/148/148 151/151/151 152/152/152
f 148/148/148 152/152/152 153/153/153
f 148/148/148 153/153/153 146/146/146
f 148/148/148 146/146/146 145/145/145
f 148/148/148 145/145/145 144/144/144
f 148/148/148 144/144/144 149/149/149
f 154/154/154 155/155/155 156/156/156
f 154/154/154 156/156/156 157/157/157
f 154/154/154 157/157/157 158/158/158
f 154/154/154 158/158/158 159/159/159
f 154/154/154 159/159/159 152/152/152
f 154/154/154 152/152/152 151/151/151
f 154/154/154 151/151/151 150/150/150
f 154/154/154 150/150/150 155/155/155
f 160/160/160 161/161/161 162/162/162
f 160/160/160 162/162/162 163/163/163
f 160/160/160 163/163/163 164/164/164
f 160/160/160 164/164/164 165/165/165
f 160/160/160 165/165/165 158/158/158
f 160/160/160 158/158/158 157/157/157
f 160/160/160 157/157/157 156/156/156
f 160/160/160 156/156/156 161/161/161
f 166/166/166 167/167/167 168/168/168
f 166/166/166 168/168/168 169/169/169
f 166/166/166 169/169/169 170/170/170
f 166/166/166 170/170/170 171/171/171
f 166/166/166 171/171/171 164/164/164
f 166/166/166 164/164/164 163/163/163
f 166/166/166 163/163/163 162/162/162
f 166/166/166 162/162/162 167/167/167
f 172/172/172 173/173/173 174/174/174
f 172/172/172 174/174/174 175/175/175
f 172/172/172 175/175/175 176/176/176
f 172/172/172 176/176/176 177/177/177
f 172/172/172 177/177/177 170/170/170
f 172/172/172 170/170/170 169/169/169
f 172/172/172 169/169/169 168/168/168
f 172/172/172 168/168/168 173/173/173
f 178/178/178 179/179/179 180/180/180
f 178/178/178 180/180/180 181/181/181
f 178/178/178 181/181/181 182/182/182
f 178/178/178 182/182/182 183/183/183
f 178/178/178 183/183/183 176/176/176
f 178/178/178 176/176/176 175/175/175
f 178/178/178 175/175/175 174/174/174
f 178/178/178 174/174/174 179/179/179
f 184/184/184 185/185/185 186/186/186
f 184/184/184 186/186/186 187/187/187
f 184/184/184 187/187/187 188/188/188
f 184/184/184 188/188/188 189/189/189
f 184/184/184 189/189/189 182/182/182
f 184/184/184 182/182/182 181/181/181
f 184/184/184 181/181/181 180/180/180
f 184/184/184 180/180/180 185/185/185
f 190/190/190 191/191/191 9/9/9
f 190/190/190 9/9/9 8/8/8
f 190/190/190 8/8/8 7/7/7
f 190/190/190 7/7/7 192/192/192
f 190/190/190 192/192/192 188/188/188
f 190/190/190 188/188/188 187/187/187
f 190/190/190 187/187/187 186/186/186
f 190/190/190 186/186/186 191/191/191
