# Blender v3.4.1 OBJ File: 'livingroom.blend'
# www.blender.org
mtllib SmallPictureFrame_0003.mtl
o SmallPictureFrame_0003
v -2.432091 1.983708 4.159163
v -2.436541 1.720488 4.159163
v -2.440202 1.720550 4.159163
v -2.435752 1.983770 4.159163
v -2.436541 1.720488 3.972760
v -2.432091 1.983708 3.972760
v -2.435752 1.983770 3.972760
v -2.440202 1.720550 3.972760
v -2.432083 1.984208 3.973260
v -2.432083 1.984208 4.158663
v -2.435744 1.984270 4.158663
v -2.435744 1.984270 3.973260
v -2.436549 1.719988 4.158663
v -2.436549 1.719988 3.973260
v -2.440210 1.720050 3.973260
v -2.440210 1.720050 4.158663
v -2.432492 1.969554 3.986149
v -2.436463 1.734648 3.986149
v -2.439801 1.734704 3.986149
v -2.435830 1.969610 3.986149
v -2.440313 1.734412 3.985649
v -2.440683 1.721315 3.973260
v -2.436259 1.983022 3.973260
v -2.436331 1.969920 3.985649
v -2.436463 1.734648 4.145774
v -2.432492 1.969554 4.145774
v -2.435831 1.969611 4.145774
v -2.439801 1.734704 4.145774
v -2.436471 1.734148 3.986649
v -2.436471 1.734148 4.145275
v -2.439810 1.734204 4.145275
v -2.439810 1.734204 3.986649
v -2.432483 1.970054 4.145275
v -2.432483 1.970054 3.986649
v -2.435822 1.970110 3.986649
v -2.435822 1.970110 4.145275
v -2.431597 1.983700 4.158002
v -2.431597 1.983700 3.973921
v -2.431969 1.970545 3.986364
v -2.431969 1.970545 4.145559
v -2.436047 1.720480 3.973921
v -2.436047 1.720480 4.158002
v -2.435974 1.733640 4.145559
v -2.435974 1.733640 3.986364
v -2.436034 1.721236 4.158663
v -2.431610 1.982944 4.158663
v -2.431981 1.969846 4.146275
v -2.435962 1.734338 4.146275
v -2.440324 1.733713 4.145559
v -2.440696 1.720559 4.158002
v -2.440696 1.720558 3.973921
v -2.440324 1.733713 3.986364
v -2.436319 1.970619 3.986364
v -2.436246 1.983778 3.973921
v -2.436246 1.983779 4.158002
v -2.436319 1.970619 4.145559
v -2.436331 1.969920 4.146275
v -2.436259 1.983022 4.158663
v -2.440683 1.721315 4.158663
v -2.440313 1.734412 4.146275
v -2.432083 1.984208 3.973260
v -2.432091 1.983708 3.972760
v -2.431610 1.982943 3.973260
v -2.431597 1.983700 3.973921
v -2.436541 1.720488 3.972760
v -2.436549 1.719988 3.973260
v -2.436047 1.720480 3.973921
v -2.436034 1.721236 3.973260
v -2.436047 1.720480 4.158002
v -2.436549 1.719988 4.158663
v -2.436541 1.720488 4.159163
v -2.436034 1.721236 4.158663
v -2.432091 1.983708 4.159163
v -2.432083 1.984208 4.158663
v -2.431597 1.983700 4.158002
v -2.431610 1.982944 4.158663
v -2.431981 1.969846 4.146275
v -2.431969 1.970545 4.145559
v -2.432483 1.970054 4.145275
v -2.432492 1.969554 4.145774
v -2.435962 1.734338 4.146275
v -2.436463 1.734648 4.145774
v -2.436471 1.734148 4.145275
v -2.435974 1.733640 4.145559
v -2.435962 1.734338 3.985649
v -2.435974 1.733640 3.986364
v -2.436471 1.734148 3.986649
v -2.436463 1.734648 3.986149
v -2.431969 1.970545 3.986364
v -2.431981 1.969846 3.985649
v -2.432492 1.969554 3.986149
v -2.432483 1.970054 3.986649
v -2.435830 1.969610 3.986149
v -2.436331 1.969920 3.985649
v -2.436319 1.970619 3.986364
v -2.435822 1.970110 3.986649
v -2.439810 1.734204 3.986649
v -2.440324 1.733713 3.986364
v -2.440313 1.734412 3.985649
v -2.439801 1.734704 3.986149
v -2.439810 1.734204 4.145275
v -2.439801 1.734704 4.145774
v -2.440313 1.734412 4.146275
v -2.440324 1.733713 4.145559
v -2.435822 1.970110 4.145275
v -2.436319 1.970619 4.145559
v -2.436331 1.969920 4.146275
v -2.435831 1.969611 4.145774
v -2.435752 1.983770 4.159163
v -2.436259 1.983022 4.158663
v -2.436246 1.983779 4.158002
v -2.435744 1.984270 4.158663
v -2.440202 1.720550 4.159163
v -2.440210 1.720050 4.158663
v -2.440696 1.720559 4.158002
v -2.440683 1.721315 4.158663
v -2.440202 1.720550 3.972760
v -2.440683 1.721315 3.973260
v -2.440696 1.720558 3.973921
v -2.440210 1.720050 3.973260
v -2.435744 1.984270 3.973260
v -2.436246 1.983778 3.973921
v -2.436259 1.983022 3.973260
v -2.435752 1.983770 3.972760
v -2.436549 1.719988 3.973260
v -2.436549 1.719988 4.158663
v -2.436047 1.720480 4.158002
v -2.436047 1.720480 3.973921
v -2.432091 1.983708 3.972760
v -2.436541 1.720488 3.972760
v -2.436034 1.721236 3.973260
v -2.431610 1.982943 3.973260
v -2.431597 1.983700 3.973921
v -2.431597 1.983700 4.158002
v -2.432083 1.984208 4.158663
v -2.432083 1.984208 3.973260
v -2.436541 1.720488 4.159163
v -2.432091 1.983708 4.159163
v -2.431610 1.982944 4.158663
v -2.436034 1.721236 4.158663
v -2.431597 1.983700 4.158002
v -2.431969 1.970545 4.145559
v -2.431981 1.969846 4.146275
v -2.431610 1.982944 4.158663
v -2.432492 1.969554 4.145774
v -2.436463 1.734648 4.145774
v -2.435962 1.734338 4.146275
v -2.431981 1.969846 4.146275
v -2.436034 1.721236 4.158663
v -2.435962 1.734338 4.146275
v -2.435974 1.733640 4.145559
v -2.436047 1.720480 4.158002
v -2.431610 1.982943 3.973260
v -2.431981 1.969846 3.985649
v -2.431969 1.970545 3.986364
v -2.431597 1.983700 3.973921
v -2.431969 1.970545 4.145559
v -2.431969 1.970545 3.986364
v -2.432483 1.970054 3.986649
v -2.432483 1.970054 4.145275
v -2.436047 1.720480 3.973921
v -2.435974 1.733640 3.986364
v -2.435962 1.734338 3.985649
v -2.436034 1.721236 3.973260
v -2.436463 1.734648 3.986149
v -2.432492 1.969554 3.986149
v -2.431981 1.969846 3.985649
v -2.435962 1.734338 3.985649
v -2.436471 1.734148 4.145275
v -2.436471 1.734148 3.986649
v -2.435974 1.733640 3.986364
v -2.435974 1.733640 4.145559
v -2.436463 1.734648 4.145774
v -2.439801 1.734704 4.145774
v -2.439810 1.734204 4.145275
v -2.436471 1.734148 4.145275
v -2.439810 1.734204 3.986649
v -2.439810 1.734204 4.145275
v -2.440324 1.733713 4.145559
v -2.440324 1.733713 3.986364
v -2.436471 1.734148 3.986649
v -2.439810 1.734204 3.986649
v -2.439801 1.734704 3.986149
v -2.436463 1.734648 3.986149
v -2.435830 1.969610 3.986149
v -2.439801 1.734704 3.986149
v -2.440313 1.734412 3.985649
v -2.436331 1.969920 3.985649
v -2.432492 1.969554 3.986149
v -2.435830 1.969610 3.986149
v -2.435822 1.970110 3.986649
v -2.432483 1.970054 3.986649
v -2.436319 1.970619 3.986364
v -2.436319 1.970619 4.145559
v -2.435822 1.970110 4.145275
v -2.435822 1.970110 3.986649
v -2.432483 1.970054 4.145275
v -2.435822 1.970110 4.145275
v -2.435831 1.969611 4.145774
v -2.432492 1.969554 4.145774
v -2.439801 1.734704 4.145774
v -2.435831 1.969611 4.145774
v -2.436331 1.969920 4.146275
v -2.440313 1.734412 4.146275
v -2.436549 1.719988 4.158663
v -2.440210 1.720050 4.158663
v -2.440202 1.720550 4.159163
v -2.436541 1.720488 4.159163
v -2.435752 1.983770 4.159163
v -2.440202 1.720550 4.159163
v -2.440683 1.721315 4.158663
v -2.436259 1.983022 4.158663
v -2.432091 1.983708 4.159163
v -2.435752 1.983770 4.159163
v -2.435744 1.984270 4.158663
v -2.432083 1.984208 4.158663
v -2.436246 1.983779 4.158002
v -2.436246 1.983778 3.973921
v -2.435744 1.984270 3.973260
v -2.435744 1.984270 4.158663
v -2.432083 1.984208 3.973260
v -2.435744 1.984270 3.973260
v -2.435752 1.983770 3.972760
v -2.432091 1.983708 3.972760
v -2.440202 1.720550 3.972760
v -2.435752 1.983770 3.972760
v -2.436259 1.983022 3.973260
v -2.440683 1.721315 3.973260
v -2.436541 1.720488 3.972760
v -2.440202 1.720550 3.972760
v -2.440210 1.720050 3.973260
v -2.436549 1.719988 3.973260
v -2.440210 1.720050 4.158663
v -2.440210 1.720050 3.973260
v -2.440696 1.720558 3.973921
v -2.440696 1.720559 4.158002
v -2.436319 1.970619 4.145559
v -2.436246 1.983779 4.158002
v -2.436259 1.983022 4.158663
v -2.436331 1.969920 4.146275
v -2.440313 1.734412 4.146275
v -2.440683 1.721315 4.158663
v -2.440696 1.720559 4.158002
v -2.440324 1.733713 4.145559
v -2.436331 1.969920 3.985649
v -2.436259 1.983022 3.973260
v -2.436246 1.983778 3.973921
v -2.436319 1.970619 3.986364
v -2.440324 1.733713 3.986364
v -2.440696 1.720558 3.973921
v -2.440683 1.721315 3.973260
v -2.440313 1.734412 3.985649
v -2.431610 1.982943 3.973260
v -2.436034 1.721236 3.973260
v -2.435962 1.734338 3.985649
v -2.431981 1.969846 3.985649
vt 0.000000 0.000000
vt 0.000000 0.000000
vt 0.000000 0.000000
vt 0.000000 0.000000
vt 0.000000 0.000000
vt 0.000000 0.000000
vt 0.000000 0.000000
vt 0.000000 0.000000
vt 0.000000 0.000000
vt 0.000000 0.000000
vt 0.000000 0.000000
vt 0.000000 0.000000
vt 0.000000 0.000000
vt 0.000000 0.000000
vt 0.000000 0.000000
vt 0.000000 0.000000
vt 0.000000 0.000000
vt 0.000000 0.000000
vt 0.000000 0.000000
vt 0.000000 0.000000
vt 0.000000 0.000000
vt 0.000000 0.000000
vt 0.000000 0.000000
vt 0.000000 0.000000
vt 0.000000 0.000000
vt 0.000000 0.000000
vt 0.000000 0.000000
vt 0.000000 0.000000
vt 0.000000 0.000000
vt 0.000000 0.000000
vt 0.000000 0.000000
vt 0.000000 0.000000
vt 0.000000 0.000000
vt 0.000000 0.000000
vt 0.000000 0.000000
vt 0.000000 0.000000
vt 0.000000 0.000000
vt 0.000000 0.000000
vt 0.000000 0.000000
vt 0.000000 0.000000
vt 0.000000 0.000000
vt 0.000000 0.000000
vt 0.000000 0.000000
vt 0.000000 0.000000
vt 0.000000 0.000000
vt 0.000000 0.000000
vt 0.000000 0.000000
vt 0.000000 0.000000
vt 0.000000 0.000000
vt 0.000000 0.000000
vt 0.000000 0.000000
vt 0.000000 0.000000
vt 0.000000 0.000000
vt 0.000000 0.000000
vt 0.000000 0.000000
vt 0.000000 0.000000
vt 0.000000 0.000000
vt 0.000000 0.000000
vt 0.000000 0.000000
vt 0.000000 0.000000
vt 0.000000 0.000000
vt 0.000000 0.000000
vt 0.000000 0.000000
vt 0.000000 0.000000
vt 0.000000 0.000000
vt 0.000000 0.000000
vt 0.000000 0.000000
vt 0.000000 0.000000
vt 0.000000 0.000000
vt 0.000000 0.000000
vt 0.000000 0.000000
vt 0.000000 0.000000
vt 0.000000 0.000000
vt 0.000000 0.000000
vt 0.000000 0.000000
vt 0.000000 0.000000
vt 0.000000 0.000000
vt 0.000000 0.000000
vt 0.000000 0.000000
vt 0.000000 0.000000
vt 0.000000 0.000000
vt 0.000000 0.000000
vt 0.000000 0.000000
vt 0.000000 0.000000
vt 0.000000 0.000000
vt 0.000000 0.000000
vt 0.000000 0.000000
vt 0.000000 0.000000
vt 0.000000 0.000000
vt 0.000000 0.000000
vt 0.000000 0.000000
vt 0.000000 0.000000
vt 0.000000 0.000000
vt 0.000000 0.000000
vt 0.000000 0.000000
vt 0.000000 0.000000
vt 0.000000 0.000000
vt 0.000000 0.000000
vt 0.000000 0.000000
vt 0.000000 0.000000
vt 0.000000 0.000000
vt 0.000000 0.000000
vt 0.000000 0.000000
vt 0.000000 0.000000
vt 0.000000 0.000000
vt 0.000000 0.000000
vt 0.000000 0.000000
vt 0.000000 0.000000
vt 0.000000 0.000000
vt 0.000000 0.000000
vt 0.000000 0.000000
vt 0.000000 0.000000
vt 0.000000 0.000000
vt 0.000000 0.000000
vt 0.000000 0.000000
vt 0.000000 0.000000
vt 0.000000 0.000000
vt 0.000000 0.000000
vt 0.000000 0.000000
vt 0.000000 0.000000
vt 0.000000 0.000000
vt 0.000000 0.000000
vt 0.000000 0.000000
vt 0.000000 0.000000
vt 0.000000 0.000000
vt 0.000000 0.000000
vt 0.000000 0.000000
vt 0.000000 0.000000
vt 0.000000 0.000000
vt 0.000000 0.000000
vt 0.000000 0.000000
vt 0.000000 0.000000
vt 0.000000 0.000000
vt 0.000000 0.000000
vt 0.000000 0.000000
vt 0.000000 0.000000
vt 0.000000 0.000000
vt 0.000000 0.000000
vt 0.000000 0.000000
vt 0.000000 0.000000
vt 0.000000 0.000000
vt 0.000000 0.000000
vt 0.000000 0.000000
vt 0.000000 0.000000
vt 0.000000 0.000000
vt 0.000000 0.000000
vt 0.000000 0.000000
vt 0.000000 0.000000
vt 0.000000 0.000000
vt 0.000000 0.000000
vt 0.000000 0.000000
vt 0.000000 0.000000
vt 0.000000 0.000000
vt 0.000000 0.000000
vt 0.000000 0.000000
vt 0.000000 0.000000
vt 0.000000 0.000000
vt 0.000000 0.000000
vt 0.000000 0.000000
vt 0.000000 0.000000
vt 0.000000 0.000000
vt 0.000000 0.000000
vt 0.000000 0.000000
vt 0.000000 0.000000
vt 0.000000 0.000000
vt 0.000000 0.000000
vt 0.000000 0.000000
vt 0.000000 0.000000
vt 0.000000 0.000000
vt 0.000000 0.000000
vt 0.000000 0.000000
vt 0.000000 0.000000
vt 0.000000 0.000000
vt 0.000000 0.000000
vt 0.000000 0.000000
vt 0.000000 0.000000
vt 0.000000 0.000000
vt 0.000000 0.000000
vt 0.000000 0.000000
vt 0.000000 0.000000
vt 0.000000 0.000000
vt 0.000000 0.000000
vt 0.000000 0.000000
vt 0.000000 0.000000
vt 0.000000 0.000000
vt 0.000000 0.000000
vt 0.000000 0.000000
vt 0.000000 0.000000
vt 0.000000 0.000000
vt 0.000000 0.000000
vt 0.000000 0.000000
vt 0.000000 0.000000
vt 0.000000 0.000000
vt 0.000000 0.000000
vt 0.000000 0.000000
vt 0.000000 0.000000
vt 0.000000 0.000000
vt 0.000000 0.000000
vt 0.000000 0.000000
vt 0.000000 0.000000
vt 0.000000 0.000000
vt 0.000000 0.000000
vt 0.000000 0.000000
vt 0.000000 0.000000
vt 0.000000 0.000000
vt 0.000000 0.000000
vt 0.000000 0.000000
vt 0.000000 0.000000
vt 0.000000 0.000000
vt 0.000000 0.000000
vt 0.000000 0.000000
vt 0.000000 0.000000
vt 0.000000 0.000000
vt 0.000000 0.000000
vt 0.000000 0.000000
vt 0.000000 0.000000
vt 0.000000 0.000000
vt 0.000000 0.000000
vt 0.000000 0.000000
vt 0.000000 0.000000
vt 0.000000 0.000000
vt 0.000000 0.000000
vt 0.000000 0.000000
vt 0.000000 0.000000
vt 0.000000 0.000000
vt 0.000000 0.000000
vt 0.000000 0.000000
vt 0.000000 0.000000
vt 0.000000 0.000000
vt 0.000000 0.000000
vt 0.000000 0.000000
vt 0.000000 0.000000
vt 0.000000 0.000000
vt 0.000000 0.000000
vt 0.000000 0.000000
vt 0.000000 0.000000
vt 0.000000 0.000000
vt 0.000000 0.000000
vt 0.000000 0.000000
vt 0.000000 0.000000
vt 0.000000 0.000000
vt 0.000000 0.000000
vt 0.000000 0.000000
vt 0.000000 0.000000
vt 0.000000 0.000000
vt 0.000000 0.000000
vt 0.000000 0.000000
vt 0.000000 0.000000
vt 0.000000 0.000000
vt 0.000000 0.000000
vt 0.000000 0.000000
vt 0.000000 0.000000
vt 0.000000 0.000000
vt 0.000000 0.000000
vt 0.000000 0.000000
vt 0.000000 0.000000
vn 0.0001 0.0000 -1.0000
vn 0.0000 0.0000 -1.0000
vn 0.0000 0.0005 1.0000
vn 0.0005 0.0000 1.0000
vn 0.0000 0.0000 1.0000
vn -0.0005 -0.0000 1.0000
vn -0.0170 -0.9999 0.0000
vn 0.0170 0.9999 0.0000
vn 0.9998 -0.0169 -0.0120
vn 0.9998 -0.0169 -0.0121
vn -0.0001 0.0000 1.0000
vn -0.0168 -0.9999 0.0003
vn -0.0168 -0.9999 -0.0000
vn -0.0171 -0.9999 -0.0000
vn -0.0171 -0.9999 0.0002
vn 0.0171 0.9999 0.0002
vn 0.0171 0.9999 0.0000
vn 0.0173 0.9999 0.0000
vn 0.0168 0.9999 0.0005
vn 0.0168 0.9999 0.0000
vn -0.9996 0.0283 0.0000
vn -1.0000 0.0056 0.0000
vn -1.0000 0.0055 0.0000
vn -0.9998 0.0169 0.0121
vn 0.9996 -0.0283 0.0000
vn 0.9996 -0.0282 0.0000
vn 1.0000 -0.0056 0.0000
vn 0.9998 -0.0169 0.0121
vn 0.9998 -0.0169 0.0120
vn -0.8781 -0.3308 0.3457
vn -0.8709 -0.3256 0.3681
vn -0.8801 -0.3292 0.3421
vn -0.8629 -0.3216 0.3898
vn -0.8645 -0.3223 0.3858
vn -0.8711 -0.3252 0.3681
vn -0.8524 0.3743 0.3652
vn -0.8593 0.3547 0.3684
vn -0.8509 0.3783 0.3646
vn -0.8646 0.3366 0.3730
vn -0.8646 0.3395 0.3704
vn -0.8594 0.3548 0.3683
vn -0.8512 0.3778 -0.3643
vn -0.8595 0.3545 -0.3681
vn -0.8526 0.3742 -0.3646
vn -0.8649 0.3388 -0.3703
vn -0.8647 0.3362 -0.3732
vn -0.8595 0.3544 -0.3682
vn -0.8643 -0.3463 -0.3646
vn -0.8709 -0.3251 -0.3685
vn -0.8627 -0.3510 -0.3642
vn -0.8755 -0.3057 -0.3743
vn -0.8759 -0.3089 -0.3706
vn -0.8710 -0.3250 -0.3684
vn -0.7314 0.4933 0.4709
vn -0.7336 0.4896 0.4712
vn -0.7314 0.4933 0.4708
vn -0.7371 0.4849 0.4707
vn -0.7376 0.4841 0.4708
vn -0.7346 0.4889 0.4705
vn -0.7535 -0.4591 0.4706
vn -0.7508 -0.4640 0.4701
vn -0.7480 -0.4686 0.4701
vn -0.7499 -0.4647 0.4708
vn -0.7478 -0.4684 -0.4705
vn -0.7504 -0.4643 -0.4705
vn -0.7480 -0.4681 -0.4705
vn -0.7527 -0.4603 -0.4708
vn -0.7529 -0.4594 -0.4712
vn -0.7497 -0.4649 -0.4710
vn -0.7359 0.4904 -0.4668
vn -0.7339 0.4897 -0.4707
vn -0.7317 0.4885 -0.4754
vn -0.7346 0.4890 -0.4704
vn 0.7523 0.4645 -0.4672
vn 0.7498 0.4644 -0.4712
vn 0.7525 0.4644 -0.4669
vn 0.7475 0.4638 -0.4756
vn 0.7477 0.4635 -0.4755
vn 0.7507 0.4638 -0.4705
vn 0.7325 -0.4924 -0.4702
vn 0.7345 -0.4892 -0.4703
vn 0.7320 -0.4932 -0.4701
vn 0.7372 -0.4849 -0.4705
vn 0.7372 -0.4847 -0.4707
vn 0.7345 -0.4894 -0.4701
vn 0.7370 -0.4843 0.4714
vn 0.7346 -0.4889 0.4705
vn 0.7370 -0.4844 0.4713
vn 0.7318 -0.4929 0.4707
vn 0.7316 -0.4934 0.4705
vn 0.7336 -0.4897 0.4712
vn 0.7482 0.4679 0.4703
vn 0.7500 0.4641 0.4712
vn 0.7539 0.4582 0.4708
vn 0.7513 0.4632 0.4701
vn 0.8649 -0.3357 -0.3731
vn 0.8596 -0.3544 -0.3681
vn 0.8649 -0.3388 -0.3705
vn 0.8527 -0.3740 -0.3647
vn 0.8510 -0.3777 -0.3650
vn 0.8597 -0.3543 -0.3681
vn 0.8645 0.3461 -0.3646
vn 0.8709 0.3254 -0.3683
vn 0.8630 0.3502 -0.3641
vn 0.8757 0.3062 -0.3734
vn 0.8759 0.3090 -0.3705
vn 0.8710 0.3254 -0.3682
vn 0.8758 0.3058 0.3736
vn 0.8710 0.3251 0.3684
vn 0.8760 0.3087 0.3705
vn 0.8645 0.3461 0.3645
vn 0.8630 0.3501 0.3643
vn 0.8711 0.3252 0.3680
vn 0.8516 -0.3512 0.3892
vn 0.8592 -0.3549 0.3687
vn 0.8530 -0.3520 0.3852
vn 0.8661 -0.3599 0.3469
vn 0.8680 -0.3582 0.3438
vn 0.8595 -0.3545 0.3681
vn -0.7000 0.7142 0.0017
vn -0.6992 0.7150 0.0000
vn -0.6991 0.7151 -0.0000
vn -0.6991 0.7150 -0.0000
vn -0.7003 0.7138 -0.0013
vn -0.7108 0.0120 0.7033
vn -0.7114 0.0120 0.7027
vn -0.7115 0.0120 0.7025
vn -0.7110 0.0116 0.7031
vn -0.7226 -0.6912 -0.0000
vn -0.7227 -0.6912 -0.0000
vn -0.7111 0.0132 -0.7030
vn -0.7101 0.0120 -0.7040
vn -0.7126 0.0120 -0.7015
vn -0.7117 0.0105 -0.7024
vn -0.9997 0.0226 0.0052
vn -0.9997 0.0227 0.0058
vn -0.9997 0.0226 0.0060
vn -0.9997 0.0223 0.0060
vn -0.9997 0.0222 0.0063
vn -0.9997 0.0227 0.0060
vn -0.7036 0.0115 0.7105
vn -0.7038 0.0119 0.7103
vn -0.7019 0.0119 0.7121
vn -0.7025 0.0130 0.7115
vn -0.7019 0.0119 0.7122
vn -0.9999 0.0112 0.0054
vn -0.9999 0.0108 0.0059
vn -0.9999 0.0113 0.0061
vn -0.9999 0.0117 0.0065
vn -0.9997 0.0231 -0.0055
vn -0.9997 0.0226 -0.0060
vn -0.9997 0.0227 -0.0059
vn -0.9997 0.0230 -0.0065
vn -0.6906 0.7233 0.0000
vn -0.6907 0.7231 0.0000
vn -0.9999 0.0102 -0.0058
vn -0.9999 0.0112 -0.0061
vn -0.9999 0.0110 -0.0060
vn -0.9999 0.0116 -0.0062
vn -0.9999 0.0123 -0.0064
vn -0.9999 0.0113 -0.0061
vn -0.7024 0.0119 -0.7117
vn -0.7030 0.0119 -0.7111
vn -0.7033 0.0119 -0.7108
vn -0.7150 -0.6991 -0.0005
vn -0.7150 -0.6991 0.0000
vn -0.7147 -0.6994 -0.0000
vn -0.7144 -0.6998 0.0000
vn -0.0118 -0.7068 0.7074
vn -0.0119 -0.7068 0.7073
vn -0.0119 -0.7070 0.7071
vn 0.6909 -0.7230 -0.0000
vn 0.6914 -0.7225 -0.0000
vn 0.6913 -0.7226 -0.0000
vn 0.6907 -0.7231 -0.0000
vn 0.6907 -0.7231 -0.0006
vn -0.0118 -0.7070 -0.7071
vn -0.0120 -0.7073 -0.7068
vn -0.0118 -0.7069 -0.7073
vn -0.0114 -0.7071 -0.7071
vn 0.7015 -0.0119 -0.7126
vn 0.7021 -0.0119 -0.7120
vn 0.7022 -0.0119 -0.7119
vn 0.7032 -0.0119 -0.7109
vn 0.7032 -0.0109 -0.7109
vn 0.0120 0.7066 -0.7075
vn 0.0118 0.7068 -0.7073
vn 0.0119 0.7069 -0.7072
vn 0.0119 0.7072 -0.7070
vn 0.0119 0.7068 -0.7073
vn 0.7152 0.6989 0.0009
vn 0.7152 0.6989 0.0000
vn 0.7148 0.6993 0.0000
vn 0.7154 0.6987 0.0000
vn 0.0114 0.7074 0.7067
vn 0.0119 0.7068 0.7073
vn 0.0120 0.7070 0.7071
vn 0.0119 0.7067 0.7075
vn 0.0118 0.7065 0.7076
vn 0.0121 0.7070 0.7072
vn 0.7040 -0.0114 0.7101
vn 0.7035 -0.0119 0.7105
vn 0.7037 -0.0119 0.7104
vn 0.7020 -0.0119 0.7120
vn 0.7017 -0.0124 0.7124
vn 0.7021 -0.0119 0.7120
vn 0.0119 0.7073 -0.7068
vn 0.0120 0.7070 -0.7071
vn 0.7116 -0.0132 -0.7025
vn 0.7107 -0.0120 -0.7034
vn 0.7119 -0.0120 -0.7022
vn 0.7111 -0.0107 -0.7030
vn -0.0120 -0.7071 -0.7070
vn -0.0120 -0.7068 -0.7073
vn -0.0120 -0.7069 -0.7072
vn -0.0119 -0.7071 -0.7070
vn 0.7003 -0.7138 0.0000
vn 0.6992 -0.7150 -0.0000
vn 0.6991 -0.7150 -0.0000
vn 0.6991 -0.7150 0.0016
vn -0.0120 -0.7070 0.7071
vn -0.0120 -0.7071 0.7070
vn 0.7108 -0.0120 0.7033
vn 0.7112 -0.0120 0.7029
vn 0.7113 -0.0120 0.7028
vn 0.7115 -0.0120 0.7025
vn 0.7111 -0.0117 0.7030
vn 0.0120 0.7068 0.7073
vn 0.7225 0.6914 -0.0005
vn 0.7225 0.6914 0.0000
vn 0.7231 0.6908 0.0000
vn 0.7234 0.6904 -0.0000
vn 0.7230 0.6908 0.0000
vn 0.9999 -0.0112 0.0065
vn 0.9999 -0.0114 0.0059
vn 0.9997 -0.0233 0.0063
vn 0.9997 -0.0226 0.0060
vn 0.9997 -0.0229 0.0060
vn 0.9997 -0.0226 0.0061
vn 0.9997 -0.0222 0.0064
vn 0.9997 -0.0227 0.0060
vn 0.9999 -0.0122 -0.0063
vn 0.9999 -0.0114 -0.0061
vn 0.9999 -0.0117 -0.0065
vn 0.9999 -0.0112 -0.0060
vn 0.9999 -0.0107 -0.0058
vn 0.9999 -0.0113 -0.0060
vn 0.9997 -0.0227 -0.0060
vn 0.9997 -0.0223 -0.0064
vn -0.9998 0.0169 -0.0121
usemtl SmallPictureFrameBSDF
s off
f 1/1/1 2/2/1 3/3/1
f 1/1/2 3/3/2 4/4/2
f 5/5/3 6/6/4 7/7/5
f 5/5/6 7/7/5 8/8/5
f 9/9/7 10/10/7 11/11/7
f 9/9/7 11/11/7 12/12/7
f 13/13/8 14/14/8 15/15/8
f 13/13/8 15/15/8 16/16/8
f 17/17/2 18/18/2 19/19/2
f 17/17/2 19/19/2 20/20/2
f 21/21/9 22/22/9 23/23/9
f 21/21/10 23/23/10 24/24/10
f 25/25/11 26/26/11 27/27/11
f 25/25/5 27/27/5 28/28/5
f 29/29/12 30/30/13 31/31/14
f 29/29/14 31/31/15 32/32/13
f 33/33/16 34/34/17 35/35/18
f 33/33/17 35/35/19 36/36/20
f 37/37/21 38/38/21 39/39/21
f 37/37/21 39/39/21 40/40/21
f 41/41/22 42/42/22 43/43/22
f 41/41/23 43/43/23 44/44/23
f 45/45/24 46/46/24 47/47/24
f 45/45/24 47/47/24 48/48/24
f 49/49/25 50/50/25 51/51/25
f 49/49/26 51/51/26 52/52/26
f 53/53/27 54/54/27 55/55/27
f 53/53/27 55/55/27 56/56/27
f 57/57/28 58/58/28 59/59/28
f 57/57/29 59/59/29 60/60/29
f 61/61/30 62/62/31 63/63/32
f 61/61/33 63/63/34 64/64/35
f 65/65/36 66/66/37 67/67/38
f 65/65/39 67/67/40 68/68/41
f 69/69/42 70/70/43 71/71/44
f 69/69/45 71/71/46 72/72/47
f 73/73/48 74/74/49 75/75/50
f 73/73/51 75/75/52 76/76/53
f 77/77/54 78/78/55 79/79/56
f 77/77/57 79/79/58 80/80/59
f 81/81/60 82/82/61 83/83/60
f 81/81/62 83/83/62 84/84/63
f 85/85/64 86/86/65 87/87/66
f 85/85/67 87/87/68 88/88/69
f 89/89/70 90/90/71 91/91/70
f 89/89/72 91/91/72 92/92/73
f 93/93/74 94/94/75 95/95/76
f 93/93/77 95/95/78 96/96/79
f 97/97/80 98/98/81 99/99/82
f 97/97/83 99/99/84 100/100/85
f 101/101/86 102/102/87 103/103/88
f 101/101/89 103/103/90 104/104/91
f 105/105/92 106/106/93 107/107/92
f 105/105/94 107/107/94 108/108/95
f 109/109/96 110/110/97 111/111/98
f 109/109/99 111/111/100 112/112/101
f 113/113/102 114/114/103 115/115/104
f 113/113/105 115/115/106 116/116/107
f 117/117/108 118/118/109 119/119/110
f 117/117/111 119/119/112 120/120/113
f 121/121/114 122/122/115 123/123/116
f 121/121/117 123/123/118 124/124/119
f 125/125/120 126/126/121 127/127/122
f 125/125/123 127/127/124 128/128/123
f 129/129/125 130/130/126 131/131/126
f 129/129/127 131/131/128 132/132/127
f 133/133/129 134/134/129 135/135/129
f 133/133/130 135/135/130 136/136/130
f 137/137/131 138/138/132 139/139/132
f 137/137/133 139/139/134 140/140/133
f 141/141/135 142/142/136 143/143/137
f 141/141/138 143/143/139 144/144/140
f 145/145/141 146/146/142 147/147/142
f 145/145/143 147/147/144 148/148/145
f 149/149/146 150/150/147 151/151/147
f 149/149/148 151/151/149 152/152/148
f 153/153/150 154/154/151 155/155/152
f 153/153/151 155/155/153 156/156/151
f 157/157/154 158/158/154 159/159/154
f 157/157/155 159/159/155 160/160/155
f 161/161/156 162/162/157 163/163/158
f 161/161/159 163/163/160 164/164/161
f 165/165/162 166/166/162 167/167/162
f 165/165/163 167/167/163 168/168/164
f 169/169/165 170/170/166 171/171/166
f 169/169/167 171/171/168 172/172/167
f 173/173/169 174/174/169 175/175/169
f 173/173/170 175/175/170 176/176/171
f 177/177/172 178/178/173 179/179/174
f 177/177/175 179/179/176 180/180/175
f 181/181/177 182/182/178 183/183/178
f 181/181/179 183/183/180 184/184/179
f 185/185/181 186/186/182 187/187/183
f 185/185/184 187/187/185 188/188/184
f 189/189/186 190/190/187 191/191/187
f 189/189/188 191/191/189 192/192/190
f 193/193/191 194/194/192 195/195/192
f 193/193/193 195/195/194 196/196/193
f 197/197/195 198/198/196 199/199/197
f 197/197/198 199/199/199 200/200/200
f 201/201/201 202/202/202 203/203/203
f 201/201/204 203/203/205 204/204/206
f 205/205/207 206/206/207 207/207/207
f 205/205/208 207/207/208 208/208/208
f 209/209/209 210/210/210 211/211/210
f 209/209/211 211/211/212 212/212/211
f 213/213/213 214/214/214 215/215/215
f 213/213/216 215/215/215 216/216/216
f 217/217/217 218/218/218 219/219/218
f 217/217/219 219/219/220 220/220/219
f 221/221/221 222/222/221 223/223/221
f 221/221/222 223/223/222 224/224/222
f 225/225/223 226/226/224 227/227/225
f 225/225/226 227/227/227 228/228/226
f 229/229/197 230/230/197 231/231/197
f 229/229/228 231/231/228 232/232/228
f 233/233/229 234/234/230 235/235/230
f 233/233/231 235/235/232 236/236/233
f 237/237/234 238/238/234 239/239/234
f 237/237/235 239/239/235 240/240/235
f 241/241/236 242/242/237 243/243/238
f 241/241/239 243/243/240 244/244/241
f 245/245/242 246/246/243 247/247/244
f 245/245/245 247/247/246 248/248/247
f 249/249/248 250/250/248 251/251/248
f 249/249/249 251/251/249 252/252/249
f 253/253/250 254/254/250 255/255/250
f 253/253/250 255/255/250 256/256/250
