# Blender v3.4.1 OBJ File: 'bathroom.blend'
# www.blender.org
mtllib Trims.mtl
o Trims
v 16.899389 0.922324 -21.321463
v 16.817009 0.924956 -21.321463
v 16.817011 0.924949 22.485916
v 16.899391 0.924949 22.485916
v 16.817011 0.109875 22.485916
v 16.817011 0.924949 22.485916
v 16.817009 0.924956 -21.321463
v 16.817009 0.109882 -21.321463
v 13.936014 0.922324 -19.939289
v 13.936014 0.109882 -19.939289
v 13.936014 0.109882 -20.031124
v 13.936014 0.922324 -20.031124
vt 0.000000 0.000000
vt 0.000000 0.000000
vt 0.000000 0.000000
vt 0.000000 0.000000
vt 0.000000 0.000000
vt 0.000000 0.000000
vt 0.000000 0.000000
vt 0.000000 0.000000
vt 0.000000 0.000000
vt 0.000000 0.000000
vt 0.000000 0.000000
vt 0.000000 0.000000
vn 0.0160 0.9999 0.0000
vn 0.0320 0.9994 -0.0160
vn -0.0000 0.9999 0.0159
vn 0.0160 0.9999 -0.0001
vn -1.0000 0.0000 0.0000
vn 1.0000 0.0000 0.0000
usemtl TrimsBSDF
s off
f 1/1/1 2/2/1 3/3/2
f 1/1/3 3/3/4 4/4/1
f 5/5/5 6/6/5 7/7/5
f 5/5/5 7/7/5 8/8/5
f 9/9/6 10/10/6 11/11/6
f 9/9/6 11/11/6 12/12/6
