# Blender v3.4.1 OBJ File: 'bathroom.blend'
# www.blender.org
mtllib Wall_0003.mtl
o Wall_0003
v -7.228304 25.357103 -22.808571
v -7.228304 26.299629 -22.808571
v -7.199807 26.299629 -22.805763
v -7.199807 25.357103 -22.805763
v -7.172405 26.299629 -22.797451
v -7.172405 25.357103 -22.797451
v -7.147151 26.299629 -22.783953
v -7.147151 25.357103 -22.783953
v -7.125016 26.299629 -22.765787
v -7.125016 25.357103 -22.765787
v -7.106850 26.299629 -22.743652
v -7.106850 25.357103 -22.743652
v -7.093352 26.299629 -22.718397
v -7.093352 25.357103 -22.718397
v -7.085040 26.299629 -22.690996
v -7.085040 25.357103 -22.690996
v -7.082233 26.299629 -22.662498
v -7.082233 25.357103 -22.662498
v -7.085040 26.299629 -22.634001
v -7.085040 25.357103 -22.634001
v -7.093352 26.299629 -22.606600
v -7.093352 25.357103 -22.606600
v -7.106850 26.299629 -22.581345
v -7.106850 25.357103 -22.581345
v -7.125016 26.299629 -22.559210
v -7.125016 25.357103 -22.559210
v -7.147151 26.299629 -22.541044
v -7.147151 25.357103 -22.541044
v -7.172405 26.299629 -22.527546
v -7.172405 25.357103 -22.527546
v -7.199807 26.299629 -22.519234
v -7.199807 25.357103 -22.519234
v -7.228304 26.299629 -22.516426
v -7.228304 25.357103 -22.516426
v -7.256802 26.299629 -22.519234
v -7.256802 25.357103 -22.519234
v -7.284204 26.299629 -22.527546
v -7.284204 25.357103 -22.527546
v -7.309457 26.299629 -22.541044
v -7.309457 25.357103 -22.541044
v -7.331593 26.299629 -22.559210
v -7.331593 25.357103 -22.559210
v -7.349759 26.299629 -22.581345
v -7.349759 25.357103 -22.581345
v -7.363257 26.299629 -22.606600
v -7.363257 25.357103 -22.606600
v -7.371569 26.299629 -22.634001
v -7.371569 25.357103 -22.634001
v -7.374376 26.299629 -22.662498
v -7.374376 25.357103 -22.662498
v -7.371569 26.299629 -22.690996
v -7.371569 25.357103 -22.690996
v -7.363257 26.299629 -22.718397
v -7.363257 25.357103 -22.718397
v -7.349759 26.299629 -22.743652
v -7.349759 25.357103 -22.743652
v -7.331593 26.299629 -22.765787
v -7.331593 25.357103 -22.765787
v -7.309457 26.299629 -22.783953
v -7.309457 25.357103 -22.783953
v -7.284204 26.299629 -22.797451
v -7.284204 25.357103 -22.797451
v -7.199807 26.299629 -22.805763
v -7.228304 26.299629 -22.808571
v -7.256801 26.299629 -22.805763
v -7.284204 26.299629 -22.797451
v -7.309457 26.299629 -22.783953
v -7.331593 26.299629 -22.765787
v -7.349759 26.299629 -22.743652
v -7.363257 26.299629 -22.718397
v -7.371569 26.299629 -22.690996
v -7.374376 26.299629 -22.662498
v -7.371569 26.299629 -22.634001
v -7.363257 26.299629 -22.606600
v -7.349759 26.299629 -22.581345
v -7.331593 26.299629 -22.559210
v -7.309457 26.299629 -22.541044
v -7.284204 26.299629 -22.527546
v -7.256802 26.299629 -22.519234
v -7.228304 26.299629 -22.516426
v -7.199807 26.299629 -22.519234
v -7.172405 26.299629 -22.527546
v -7.147151 26.299629 -22.541044
v -7.125016 26.299629 -22.559210
v -7.106850 26.299629 -22.581345
v -7.093352 26.299629 -22.606600
v -7.085040 26.299629 -22.634001
v -7.082233 26.299629 -22.662498
v -7.085040 26.299629 -22.690996
v -7.093352 26.299629 -22.718397
v -7.106850 26.299629 -22.743652
v -7.125016 26.299629 -22.765787
v -7.147151 26.299629 -22.783953
v -7.172405 26.299629 -22.797451
v -7.256801 25.357103 -22.805763
v -7.256801 26.299629 -22.805763
v -7.228304 25.357103 -22.808571
v -7.199807 25.357103 -22.805763
v -7.172405 25.357103 -22.797451
v -7.147151 25.357103 -22.783953
v -7.125016 25.357103 -22.765787
v -7.106850 25.357103 -22.743652
v -7.093352 25.357103 -22.718397
v -7.085040 25.357103 -22.690996
v -7.082233 25.357103 -22.662498
v -7.085040 25.357103 -22.634001
v -7.093352 25.357103 -22.606600
v -7.106850 25.357103 -22.581345
v -7.125016 25.357103 -22.559210
v -7.147151 25.357103 -22.541044
v -7.172405 25.357103 -22.527546
v -7.199807 25.357103 -22.519234
v -7.228304 25.357103 -22.516426
v -7.256802 25.357103 -22.519234
v -7.284204 25.357103 -22.527546
v -7.309457 25.357103 -22.541044
v -7.331593 25.357103 -22.559210
v -7.349759 25.357103 -22.581345
v -7.363257 25.357103 -22.606600
v -7.371569 25.357103 -22.634001
v -7.374376 25.357103 -22.662498
v -7.371569 25.357103 -22.690996
v -7.363257 25.357103 -22.718397
v -7.349759 25.357103 -22.743652
v -7.331593 25.357103 -22.765787
v -7.309457 25.357103 -22.783953
v -7.284204 25.357103 -22.797451
v -7.256801 25.357103 -22.805763
vt 0.000000 0.000000
vt 0.000000 0.000000
vt 0.000000 0.000000
vt 0.000000 0.000000
vt 0.000000 0.000000
vt 0.000000 0.000000
vt 0.000000 0.000000
vt 0.000000 0.000000
vt 0.000000 0.000000
vt 0.000000 0.000000
vt 0.000000 0.000000
vt 0.000000 0.000000
vt 0.000000 0.000000
vt 0.000000 0.000000
vt 0.000000 0.000000
vt 0.000000 0.000000
vt 0.000000 0.000000
vt 0.000000 0.000000
vt 0.000000 0.000000
vt 0.000000 0.000000
vt 0.000000 0.000000
vt 0.000000 0.000000
vt 0.000000 0.000000
vt 0.000000 0.000000
vt 0.000000 0.000000
vt 0.000000 0.000000
vt 0.000000 0.000000
vt 0.000000 0.000000
vt 0.000000 0.000000
vt 0.000000 0.000000
vt 0.000000 0.000000
vt 0.000000 0.000000
vt 0.000000 0.000000
vt 0.000000 0.000000
vt 0.000000 0.000000
vt 0.000000 0.000000
vt 0.000000 0.000000
vt 0.000000 0.000000
vt 0.000000 0.000000
vt 0.000000 0.000000
vt 0.000000 0.000000
vt 0.000000 0.000000
vt 0.000000 0.000000
vt 0.000000 0.000000
vt 0.000000 0.000000
vt 0.000000 0.000000
vt 0.000000 0.000000
vt 0.000000 0.000000
vt 0.000000 0.000000
vt 0.000000 0.000000
vt 0.000000 0.000000
vt 0.000000 0.000000
vt 0.000000 0.000000
vt 0.000000 0.000000
vt 0.000000 0.000000
vt 0.000000 0.000000
vt 0.000000 0.000000
vt 0.000000 0.000000
vt 0.000000 0.000000
vt 0.000000 0.000000
vt 0.000000 0.000000
vt 0.000000 0.000000
vt 0.000000 0.000000
vt 0.000000 0.000000
vt 0.000000 0.000000
vt 0.000000 0.000000
vt 0.000000 0.000000
vt 0.000000 0.000000
vt 0.000000 0.000000
vt 0.000000 0.000000
vt 0.000000 0.000000
vt 0.000000 0.000000
vt 0.000000 0.000000
vt 0.000000 0.000000
vt 0.000000 0.000000
vt 0.000000 0.000000
vt 0.000000 0.000000
vt 0.000000 0.000000
vt 0.000000 0.000000
vt 0.000000 0.000000
vt 0.000000 0.000000
vt 0.000000 0.000000
vt 0.000000 0.000000
vt 0.000000 0.000000
vt 0.000000 0.000000
vt 0.000000 0.000000
vt 0.000000 0.000000
vt 0.000000 0.000000
vt 0.000000 0.000000
vt 0.000000 0.000000
vt 0.000000 0.000000
vt 0.000000 0.000000
vt 0.000000 0.000000
vt 0.000000 0.000000
vt 0.000000 0.000000
vt 0.000000 0.000000
vt 0.000000 0.000000
vt 0.000000 0.000000
vt 0.000000 0.000000
vt 0.000000 0.000000
vt 0.000000 0.000000
vt 0.000000 0.000000
vt 0.000000 0.000000
vt 0.000000 0.000000
vt 0.000000 0.000000
vt 0.000000 0.000000
vt 0.000000 0.000000
vt 0.000000 0.000000
vt 0.000000 0.000000
vt 0.000000 0.000000
vt 0.000000 0.000000
vt 0.000000 0.000000
vt 0.000000 0.000000
vt 0.000000 0.000000
vt 0.000000 0.000000
vt 0.000000 0.000000
vt 0.000000 0.000000
vt 0.000000 0.000000
vt 0.000000 0.000000
vt 0.000000 0.000000
vt 0.000000 0.000000
vt 0.000000 0.000000
vt 0.000000 0.000000
vt 0.000000 0.000000
vt 0.000000 0.000000
vt 0.000000 0.000000
vt 0.000000 0.000000
vt 0.000000 0.000000
vn 0.0001 0.0000 -1.0000
vn -0.0001 0.0000 -1.0000
vn 0.1951 0.0000 -0.9808
vn 0.3826 0.0000 -0.9239
vn 0.3827 0.0000 -0.9239
vn 0.5555 0.0000 -0.8315
vn 0.5556 0.0000 -0.8314
vn 0.7071 0.0000 -0.7071
vn 0.7071 0.0000 -0.7072
vn 0.8315 0.0000 -0.5555
vn 0.8314 0.0000 -0.5556
vn 0.9239 0.0000 -0.3827
vn 0.9808 0.0000 -0.1951
vn 1.0000 0.0000 0.0000
vn 0.9808 0.0000 0.1951
vn 0.9239 0.0000 0.3827
vn 0.8314 0.0000 0.5556
vn 0.8315 0.0000 0.5555
vn 0.7071 0.0000 0.7072
vn 0.7071 0.0000 0.7071
vn 0.5556 0.0000 0.8314
vn 0.5556 0.0000 0.8315
vn 0.3827 0.0000 0.9239
vn 0.1951 0.0000 0.9808
vn 0.0001 0.0000 1.0000
vn -0.0001 0.0000 1.0000
vn -0.1951 0.0000 0.9808
vn -0.3827 0.0000 0.9239
vn -0.5555 0.0000 0.8315
vn -0.5556 0.0000 0.8315
vn -0.7071 0.0000 0.7071
vn -0.7070 0.0000 0.7072
vn -0.8315 0.0000 0.5555
vn -0.8315 0.0000 0.5556
vn -0.9239 0.0000 0.3827
vn -0.9808 0.0000 0.1951
vn -1.0000 0.0000 -0.0000
vn -0.9808 0.0000 -0.1951
vn -0.9239 0.0000 -0.3827
vn -0.8315 0.0000 -0.5556
vn -0.8315 0.0000 -0.5555
vn -0.7070 0.0000 -0.7072
vn -0.7071 0.0000 -0.7071
vn -0.5556 0.0000 -0.8315
vn -0.5555 0.0000 -0.8315
vn -0.3827 0.0000 -0.9239
vn -0.3826 0.0000 -0.9239
vn 0.0000 1.0000 -0.0000
vn -0.0000 1.0000 -0.0006
vn 0.0000 1.0000 0.0001
vn 0.0000 1.0000 -0.0001
vn 0.0000 1.0000 0.0002
vn 0.0000 1.0000 -0.0015
vn -0.1951 0.0000 -0.9808
vn 0.0000 -1.0000 -0.0000
vn 0.0000 -1.0000 -0.0007
vn 0.0000 -1.0000 -0.0002
vn 0.0000 -1.0000 -0.0001
vn 0.0000 -1.0000 0.0001
vn 0.0000 -1.0000 0.0002
vn -0.0000 -1.0000 -0.0003
vn -0.0000 -1.0000 -0.0015
usemtl WallBSDF
s 1
f 1/1/1 2/2/2 3/3/3
f 1/1/1 3/3/3 4/4/3
f 4/4/3 3/3/3 5/5/4
f 4/4/3 5/5/4 6/6/5
f 6/6/5 5/5/4 7/7/6
f 6/6/5 7/7/6 8/8/7
f 8/8/7 7/7/6 9/9/8
f 8/8/7 9/9/8 10/10/9
f 10/10/9 9/9/8 11/11/10
f 10/10/9 11/11/10 12/12/11
f 12/12/11 11/11/10 13/13/12
f 12/12/11 13/13/12 14/14/12
f 14/14/12 13/13/12 15/15/13
f 14/14/12 15/15/13 16/16/13
f 16/16/13 15/15/13 17/17/14
f 16/16/13 17/17/14 18/18/14
f 18/18/14 17/17/14 19/19/15
f 18/18/14 19/19/15 20/20/15
f 20/20/15 19/19/15 21/21/16
f 20/20/15 21/21/16 22/22/16
f 22/22/16 21/21/16 23/23/17
f 22/22/16 23/23/17 24/24/18
f 24/24/18 23/23/17 25/25/19
f 24/24/18 25/25/19 26/26/20
f 26/26/20 25/25/19 27/27/21
f 26/26/20 27/27/21 28/28/22
f 28/28/22 27/27/21 29/29/23
f 28/28/22 29/29/23 30/30/23
f 30/30/23 29/29/23 31/31/24
f 30/30/23 31/31/24 32/32/24
f 32/32/24 31/31/24 33/33/25
f 32/32/24 33/33/25 34/34/26
f 34/34/26 33/33/25 35/35/27
f 34/34/26 35/35/27 36/36/27
f 36/36/27 35/35/27 37/37/28
f 36/36/27 37/37/28 38/38/28
f 38/38/28 37/37/28 39/39/29
f 38/38/28 39/39/29 40/40/30
f 40/40/30 39/39/29 41/41/31
f 40/40/30 41/41/31 42/42/32
f 42/42/32 41/41/31 43/43/33
f 42/42/32 43/43/33 44/44/34
f 44/44/34 43/43/33 45/45/35
f 44/44/34 45/45/35 46/46/35
f 46/46/35 45/45/35 47/47/36
f 46/46/35 47/47/36 48/48/36
f 48/48/36 47/47/36 49/49/37
f 48/48/36 49/49/37 50/50/37
f 50/50/37 49/49/37 51/51/38
f 50/50/37 51/51/38 52/52/38
f 52/52/38 51/51/38 53/53/39
f 52/52/38 53/53/39 54/54/39
f 54/54/39 53/53/39 55/55/40
f 54/54/39 55/55/40 56/56/41
f 56/56/41 55/55/40 57/57/42
f 56/56/41 57/57/42 58/58/43
f 58/58/43 57/57/42 59/59/44
f 58/58/43 59/59/44 60/60/45
f 60/60/45 59/59/44 61/61/46
f 60/60/45 61/61/46 62/62/47
f 63/63/48 64/64/48 65/65/49
f 63/63/48 65/65/49 66/66/50
f 63/63/48 66/66/50 67/67/50
f 63/63/48 67/67/50 68/68/48
f 63/63/48 68/68/48 69/69/51
f 63/63/48 69/69/51 70/70/48
f 63/63/48 70/70/48 71/71/50
f 63/63/48 71/71/50 72/72/48
f 63/63/48 72/72/48 73/73/48
f 63/63/48 73/73/48 74/74/48
f 63/63/48 74/74/48 75/75/48
f 63/63/48 75/75/48 76/76/48
f 63/63/48 76/76/48 77/77/48
f 63/63/48 77/77/48 78/78/48
f 63/63/48 78/78/48 79/79/48
f 63/63/48 79/79/48 80/80/48
f 63/63/48 80/80/48 81/81/48
f 63/63/48 81/81/48 82/82/48
f 63/63/48 82/82/48 83/83/48
f 63/63/48 83/83/48 84/84/48
f 63/63/48 84/84/48 85/85/48
f 63/63/48 85/85/48 86/86/48
f 63/63/48 86/86/48 87/87/48
f 63/63/48 87/87/48 88/88/48
f 63/63/48 88/88/48 89/89/48
f 63/63/48 89/89/48 90/90/51
f 63/63/48 90/90/51 91/91/48
f 63/63/48 91/91/48 92/92/52
f 63/63/48 92/92/52 93/93/48
f 63/63/48 93/93/48 94/94/53
f 95/95/54 96/96/54 2/2/2
f 95/95/54 2/2/2 1/1/1
f 62/62/47 61/61/46 96/96/54
f 62/62/47 96/96/54 95/95/54
f 97/97/55 98/98/56 99/99/55
f 97/97/55 99/99/55 100/100/57
f 97/97/55 100/100/57 101/101/58
f 97/97/55 101/101/58 102/102/55
f 97/97/55 102/102/55 103/103/59
f 97/97/55 103/103/59 104/104/55
f 97/97/55 104/104/55 105/105/55
f 97/97/55 105/105/55 106/106/55
f 97/97/55 106/106/55 107/107/55
f 97/97/55 107/107/55 108/108/55
f 97/97/55 108/108/55 109/109/55
f 97/97/55 109/109/55 110/110/55
f 97/97/55 110/110/55 111/111/55
f 97/97/55 111/111/55 112/112/55
f 97/97/55 112/112/55 113/113/55
f 97/97/55 113/113/55 114/114/55
f 97/97/55 114/114/55 115/115/55
f 97/97/55 115/115/55 116/116/55
f 97/97/55 116/116/55 117/117/55
f 97/97/55 117/117/55 118/118/55
f 97/97/55 118/118/55 119/119/55
f 97/97/55 119/119/55 120/120/55
f 97/97/55 120/120/55 121/121/55
f 97/97/55 121/121/55 122/122/55
f 97/97/55 122/122/55 123/123/55
f 97/97/55 123/123/55 124/124/55
f 97/97/55 124/124/55 125/125/60
f 97/97/55 125/125/60 126/126/59
f 97/97/55 126/126/59 127/127/61
f 97/97/55 127/127/61 128/128/62
