# Blender v3.4.1 OBJ File: 'bathroom.blend'
# www.blender.org
mtllib Wall_0005.mtl
o Wall_0005
v -7.228304 14.733130 -22.808573
v -7.228304 14.835770 -22.808573
v -7.199807 14.835770 -22.805765
v -7.199807 14.733130 -22.805765
v -7.172405 14.835770 -22.797453
v -7.172405 14.733130 -22.797453
v -7.147151 14.835770 -22.783955
v -7.147151 14.733130 -22.783955
v -7.125016 14.835770 -22.765789
v -7.125016 14.733130 -22.765789
v -7.106850 14.835770 -22.743654
v -7.106850 14.733130 -22.743654
v -7.093352 14.835770 -22.718399
v -7.093352 14.733130 -22.718399
v -7.085040 14.835770 -22.690998
v -7.085040 14.733130 -22.690998
v -7.082233 14.835770 -22.662500
v -7.082233 14.733130 -22.662500
v -7.085040 14.835770 -22.634003
v -7.085040 14.733130 -22.634003
v -7.093352 14.835770 -22.606602
v -7.093352 14.733130 -22.606602
v -7.106850 14.835770 -22.581347
v -7.106850 14.733130 -22.581347
v -7.125016 14.835770 -22.559212
v -7.125016 14.733130 -22.559212
v -7.147151 14.835770 -22.541046
v -7.147151 14.733130 -22.541046
v -7.172405 14.835770 -22.527548
v -7.172405 14.733130 -22.527548
v -7.199807 14.835770 -22.519236
v -7.199807 14.733130 -22.519236
v -7.228304 14.835770 -22.516428
v -7.228304 14.733130 -22.516428
v -7.256802 14.835770 -22.519236
v -7.256802 14.733130 -22.519236
v -7.284204 14.835770 -22.527548
v -7.284204 14.733130 -22.527548
v -7.309457 14.835770 -22.541046
v -7.309457 14.733130 -22.541046
v -7.331593 14.835770 -22.559212
v -7.331593 14.733130 -22.559212
v -7.349759 14.835770 -22.581347
v -7.349759 14.733130 -22.581347
v -7.363257 14.835770 -22.606602
v -7.363257 14.733130 -22.606602
v -7.371569 14.835770 -22.634003
v -7.371569 14.733130 -22.634003
v -7.374376 14.835770 -22.662500
v -7.374376 14.733130 -22.662500
v -7.371569 14.835770 -22.690998
v -7.371569 14.733130 -22.690998
v -7.363257 14.835770 -22.718399
v -7.363257 14.733130 -22.718399
v -7.349759 14.835770 -22.743654
v -7.349759 14.733130 -22.743654
v -7.331593 14.835770 -22.765789
v -7.331593 14.733130 -22.765789
v -7.309457 14.835770 -22.783955
v -7.309457 14.733130 -22.783955
v -7.284204 14.835770 -22.797453
v -7.284204 14.733130 -22.797453
v -7.199807 14.835770 -22.805765
v -7.228304 14.835770 -22.808573
v -7.256801 14.835770 -22.805765
v -7.284204 14.835770 -22.797453
v -7.309457 14.835770 -22.783955
v -7.331593 14.835770 -22.765789
v -7.349759 14.835770 -22.743654
v -7.363257 14.835770 -22.718399
v -7.371569 14.835770 -22.690998
v -7.374376 14.835770 -22.662500
v -7.371569 14.835770 -22.634003
v -7.363257 14.835770 -22.606602
v -7.349759 14.835770 -22.581347
v -7.331593 14.835770 -22.559212
v -7.309457 14.835770 -22.541046
v -7.284204 14.835770 -22.527548
v -7.256802 14.835770 -22.519236
v -7.228304 14.835770 -22.516428
v -7.199807 14.835770 -22.519236
v -7.172405 14.835770 -22.527548
v -7.147151 14.835770 -22.541046
v -7.125016 14.835770 -22.559212
v -7.106850 14.835770 -22.581347
v -7.093352 14.835770 -22.606602
v -7.085040 14.835770 -22.634003
v -7.082233 14.835770 -22.662500
v -7.085040 14.835770 -22.690998
v -7.093352 14.835770 -22.718399
v -7.106850 14.835770 -22.743654
v -7.125016 14.835770 -22.765789
v -7.147151 14.835770 -22.783955
v -7.172405 14.835770 -22.797453
v -7.256801 14.733130 -22.805765
v -7.256801 14.835770 -22.805765
v -7.228304 14.733130 -22.808573
v -7.199807 14.733130 -22.805765
v -7.172405 14.733130 -22.797453
v -7.147151 14.733130 -22.783955
v -7.125016 14.733130 -22.765789
v -7.106850 14.733130 -22.743654
v -7.093352 14.733130 -22.718399
v -7.085040 14.733130 -22.690998
v -7.082233 14.733130 -22.662500
v -7.085040 14.733130 -22.634003
v -7.093352 14.733130 -22.606602
v -7.106850 14.733130 -22.581347
v -7.125016 14.733130 -22.559212
v -7.147151 14.733130 -22.541046
v -7.172405 14.733130 -22.527548
v -7.199807 14.733130 -22.519236
v -7.228304 14.733130 -22.516428
v -7.256802 14.733130 -22.519236
v -7.284204 14.733130 -22.527548
v -7.309457 14.733130 -22.541046
v -7.331593 14.733130 -22.559212
v -7.349759 14.733130 -22.581347
v -7.363257 14.733130 -22.606602
v -7.371569 14.733130 -22.634003
v -7.374376 14.733130 -22.662500
v -7.371569 14.733130 -22.690998
v -7.363257 14.733130 -22.718399
v -7.349759 14.733130 -22.743654
v -7.331593 14.733130 -22.765789
v -7.309457 14.733130 -22.783955
v -7.284204 14.733130 -22.797453
v -7.256801 14.733130 -22.805765
vt 0.000000 0.000000
vt 0.000000 0.000000
vt 0.000000 0.000000
vt 0.000000 0.000000
vt 0.000000 0.000000
vt 0.000000 0.000000
vt 0.000000 0.000000
vt 0.000000 0.000000
vt 0.000000 0.000000
vt 0.000000 0.000000
vt 0.000000 0.000000
vt 0.000000 0.000000
vt 0.000000 0.000000
vt 0.000000 0.000000
vt 0.000000 0.000000
vt 0.000000 0.000000
vt 0.000000 0.000000
vt 0.000000 0.000000
vt 0.000000 0.000000
vt 0.000000 0.000000
vt 0.000000 0.000000
vt 0.000000 0.000000
vt 0.000000 0.000000
vt 0.000000 0.000000
vt 0.000000 0.000000
vt 0.000000 0.000000
vt 0.000000 0.000000
vt 0.000000 0.000000
vt 0.000000 0.000000
vt 0.000000 0.000000
vt 0.000000 0.000000
vt 0.000000 0.000000
vt 0.000000 0.000000
vt 0.000000 0.000000
vt 0.000000 0.000000
vt 0.000000 0.000000
vt 0.000000 0.000000
vt 0.000000 0.000000
vt 0.000000 0.000000
vt 0.000000 0.000000
vt 0.000000 0.000000
vt 0.000000 0.000000
vt 0.000000 0.000000
vt 0.000000 0.000000
vt 0.000000 0.000000
vt 0.000000 0.000000
vt 0.000000 0.000000
vt 0.000000 0.000000
vt 0.000000 0.000000
vt 0.000000 0.000000
vt 0.000000 0.000000
vt 0.000000 0.000000
vt 0.000000 0.000000
vt 0.000000 0.000000
vt 0.000000 0.000000
vt 0.000000 0.000000
vt 0.000000 0.000000
vt 0.000000 0.000000
vt 0.000000 0.000000
vt 0.000000 0.000000
vt 0.000000 0.000000
vt 0.000000 0.000000
vt 0.000000 0.000000
vt 0.000000 0.000000
vt 0.000000 0.000000
vt 0.000000 0.000000
vt 0.000000 0.000000
vt 0.000000 0.000000
vt 0.000000 0.000000
vt 0.000000 0.000000
vt 0.000000 0.000000
vt 0.000000 0.000000
vt 0.000000 0.000000
vt 0.000000 0.000000
vt 0.000000 0.000000
vt 0.000000 0.000000
vt 0.000000 0.000000
vt 0.000000 0.000000
vt 0.000000 0.000000
vt 0.000000 0.000000
vt 0.000000 0.000000
vt 0.000000 0.000000
vt 0.000000 0.000000
vt 0.000000 0.000000
vt 0.000000 0.000000
vt 0.000000 0.000000
vt 0.000000 0.000000
vt 0.000000 0.000000
vt 0.000000 0.000000
vt 0.000000 0.000000
vt 0.000000 0.000000
vt 0.000000 0.000000
vt 0.000000 0.000000
vt 0.000000 0.000000
vt 0.000000 0.000000
vt 0.000000 0.000000
vt 0.000000 0.000000
vt 0.000000 0.000000
vt 0.000000 0.000000
vt 0.000000 0.000000
vt 0.000000 0.000000
vt 0.000000 0.000000
vt 0.000000 0.000000
vt 0.000000 0.000000
vt 0.000000 0.000000
vt 0.000000 0.000000
vt 0.000000 0.000000
vt 0.000000 0.000000
vt 0.000000 0.000000
vt 0.000000 0.000000
vt 0.000000 0.000000
vt 0.000000 0.000000
vt 0.000000 0.000000
vt 0.000000 0.000000
vt 0.000000 0.000000
vt 0.000000 0.000000
vt 0.000000 0.000000
vt 0.000000 0.000000
vt 0.000000 0.000000
vt 0.000000 0.000000
vt 0.000000 0.000000
vt 0.000000 0.000000
vt 0.000000 0.000000
vt 0.000000 0.000000
vt 0.000000 0.000000
vt 0.000000 0.000000
vt 0.000000 0.000000
vt 0.000000 0.000000
vn -0.0001 0.0000 -1.0000
vn 0.0001 0.0000 -1.0000
vn 0.1951 0.0000 -0.9808
vn 0.3827 0.0000 -0.9239
vn 0.3826 0.0000 -0.9239
vn 0.5556 0.0000 -0.8314
vn 0.5555 0.0000 -0.8315
vn 0.7071 0.0000 -0.7071
vn 0.8315 0.0000 -0.5556
vn 0.9239 0.0000 -0.3827
vn 0.9808 0.0000 -0.1951
vn 1.0000 0.0000 -0.0000
vn 0.9808 0.0000 0.1951
vn 0.9239 0.0000 0.3827
vn 0.9239 0.0000 0.3826
vn 0.8315 0.0000 0.5556
vn 0.7071 0.0000 0.7071
vn 0.5556 0.0000 0.8315
vn 0.3827 0.0000 0.9239
vn 0.1951 0.0000 0.9808
vn -0.0001 0.0000 1.0000
vn 0.0001 0.0000 1.0000
vn -0.1951 0.0000 0.9808
vn -0.3827 0.0000 0.9239
vn -0.5556 0.0000 0.8315
vn -0.7071 0.0000 0.7071
vn -0.8315 0.0000 0.5555
vn -0.8315 0.0000 0.5556
vn -0.9239 0.0000 0.3826
vn -0.9239 0.0000 0.3827
vn -0.9808 0.0000 0.1951
vn -1.0000 0.0000 0.0000
vn -0.9808 0.0000 -0.1951
vn -0.9239 0.0000 -0.3827
vn -0.8315 0.0000 -0.5556
vn -0.8315 0.0000 -0.5555
vn -0.7071 0.0000 -0.7071
vn -0.5555 0.0000 -0.8315
vn -0.5556 0.0000 -0.8314
vn -0.3826 0.0000 -0.9239
vn -0.3827 0.0000 -0.9239
vn 0.0000 1.0000 -0.0000
vn -0.0000 1.0000 -0.0005
vn 0.0000 1.0000 -0.0002
vn 0.0000 1.0000 0.0001
vn 0.0000 1.0000 -0.0001
vn -0.0000 1.0000 0.0005
vn -0.1951 0.0000 -0.9808
vn 0.0000 -1.0000 -0.0000
vn 0.0000 -1.0000 -0.0004
vn 0.0000 -1.0000 0.0001
vn 0.0000 -1.0000 -0.0001
vn -0.0000 -1.0000 0.0005
vn -0.0000 -1.0000 -0.0005
usemtl WallBSDF
s 1
f 1/1/1 2/2/2 3/3/3
f 1/1/1 3/3/3 4/4/3
f 4/4/3 3/3/3 5/5/4
f 4/4/3 5/5/4 6/6/5
f 6/6/5 5/5/4 7/7/6
f 6/6/5 7/7/6 8/8/7
f 8/8/7 7/7/6 9/9/8
f 8/8/7 9/9/8 10/10/8
f 10/10/8 9/9/8 11/11/9
f 10/10/8 11/11/9 12/12/9
f 12/12/9 11/11/9 13/13/10
f 12/12/9 13/13/10 14/14/10
f 14/14/10 13/13/10 15/15/11
f 14/14/10 15/15/11 16/16/11
f 16/16/11 15/15/11 17/17/12
f 16/16/11 17/17/12 18/18/12
f 18/18/12 17/17/12 19/19/13
f 18/18/12 19/19/13 20/20/13
f 20/20/13 19/19/13 21/21/14
f 20/20/13 21/21/14 22/22/15
f 22/22/15 21/21/14 23/23/16
f 22/22/15 23/23/16 24/24/16
f 24/24/16 23/23/16 25/25/17
f 24/24/16 25/25/17 26/26/17
f 26/26/17 25/25/17 27/27/18
f 26/26/17 27/27/18 28/28/18
f 28/28/18 27/27/18 29/29/19
f 28/28/18 29/29/19 30/30/19
f 30/30/19 29/29/19 31/31/20
f 30/30/19 31/31/20 32/32/20
f 32/32/20 31/31/20 33/33/21
f 32/32/20 33/33/21 34/34/22
f 34/34/22 33/33/21 35/35/23
f 34/34/22 35/35/23 36/36/23
f 36/36/23 35/35/23 37/37/24
f 36/36/23 37/37/24 38/38/24
f 38/38/24 37/37/24 39/39/25
f 38/38/24 39/39/25 40/40/25
f 40/40/25 39/39/25 41/41/26
f 40/40/25 41/41/26 42/42/26
f 42/42/26 41/41/26 43/43/27
f 42/42/26 43/43/27 44/44/28
f 44/44/28 43/43/27 45/45/29
f 44/44/28 45/45/29 46/46/30
f 46/46/30 45/45/29 47/47/31
f 46/46/30 47/47/31 48/48/31
f 48/48/31 47/47/31 49/49/32
f 48/48/31 49/49/32 50/50/32
f 50/50/32 49/49/32 51/51/33
f 50/50/32 51/51/33 52/52/33
f 52/52/33 51/51/33 53/53/34
f 52/52/33 53/53/34 54/54/34
f 54/54/34 53/53/34 55/55/35
f 54/54/34 55/55/35 56/56/36
f 56/56/36 55/55/35 57/57/37
f 56/56/36 57/57/37 58/58/37
f 58/58/37 57/57/37 59/59/38
f 58/58/37 59/59/38 60/60/39
f 60/60/39 59/59/38 61/61/40
f 60/60/39 61/61/40 62/62/41
f 63/63/42 64/64/43 65/65/44
f 63/63/42 65/65/44 66/66/42
f 63/63/42 66/66/42 67/67/45
f 63/63/42 67/67/45 68/68/42
f 63/63/42 68/68/42 69/69/46
f 63/63/42 69/69/46 70/70/42
f 63/63/42 70/70/42 71/71/42
f 63/63/42 71/71/42 72/72/42
f 63/63/42 72/72/42 73/73/42
f 63/63/42 73/73/42 74/74/42
f 63/63/42 74/74/42 75/75/42
f 63/63/42 75/75/42 76/76/42
f 63/63/42 76/76/42 77/77/42
f 63/63/42 77/77/42 78/78/42
f 63/63/42 78/78/42 79/79/42
f 63/63/42 79/79/42 80/80/42
f 63/63/42 80/80/42 81/81/42
f 63/63/42 81/81/42 82/82/42
f 63/63/42 82/82/42 83/83/42
f 63/63/42 83/83/42 84/84/42
f 63/63/42 84/84/42 85/85/42
f 63/63/42 85/85/42 86/86/42
f 63/63/42 86/86/42 87/87/42
f 63/63/42 87/87/42 88/88/42
f 63/63/42 88/88/42 89/89/42
f 63/63/42 89/89/42 90/90/46
f 63/63/42 90/90/46 91/91/42
f 63/63/42 91/91/42 92/92/45
f 63/63/42 92/92/45 93/93/45
f 63/63/42 93/93/45 94/94/47
f 95/95/48 96/96/48 2/2/2
f 95/95/48 2/2/2 1/1/1
f 62/62/41 61/61/40 96/96/48
f 62/62/41 96/96/48 95/95/48
f 97/97/49 98/98/50 99/99/49
f 97/97/49 99/99/49 100/100/51
f 97/97/49 100/100/51 101/101/49
f 97/97/49 101/101/49 102/102/49
f 97/97/49 102/102/49 103/103/49
f 97/97/49 103/103/49 104/104/49
f 97/97/49 104/104/49 105/105/49
f 97/97/49 105/105/49 106/106/49
f 97/97/49 106/106/49 107/107/49
f 97/97/49 107/107/49 108/108/49
f 97/97/49 108/108/49 109/109/49
f 97/97/49 109/109/49 110/110/49
f 97/97/49 110/110/49 111/111/49
f 97/97/49 111/111/49 112/112/49
f 97/97/49 112/112/49 113/113/49
f 97/97/49 113/113/49 114/114/49
f 97/97/49 114/114/49 115/115/49
f 97/97/49 115/115/49 116/116/49
f 97/97/49 116/116/49 117/117/49
f 97/97/49 117/117/49 118/118/49
f 97/97/49 118/118/49 119/119/49
f 97/97/49 119/119/49 120/120/49
f 97/97/49 120/120/49 121/121/49
f 97/97/49 121/121/49 122/122/49
f 97/97/49 122/122/49 123/123/49
f 97/97/49 123/123/49 124/124/52
f 97/97/49 124/124/52 125/125/49
f 97/97/49 125/125/49 126/126/53
f 97/97/49 126/126/53 127/127/54
f 97/97/49 127/127/54 128/128/53
