# Blender v3.4.1 OBJ File: 'bathroom.blend'
# www.blender.org
mtllib Wall_0006.mtl
o Wall_0006
v -7.228304 14.864788 -22.808573
v -7.228304 15.807315 -22.808573
v -7.199807 15.807315 -22.805765
v -7.199807 14.864788 -22.805765
v -7.172405 15.807315 -22.797453
v -7.172405 14.864788 -22.797453
v -7.147151 15.807315 -22.783955
v -7.147151 14.864788 -22.783955
v -7.125016 15.807315 -22.765789
v -7.125016 14.864788 -22.765789
v -7.106850 15.807315 -22.743654
v -7.106850 14.864788 -22.743654
v -7.093352 15.807315 -22.718399
v -7.093352 14.864788 -22.718399
v -7.085040 15.807315 -22.690998
v -7.085040 14.864788 -22.690998
v -7.082233 15.807315 -22.662500
v -7.082233 14.864788 -22.662500
v -7.085040 15.807315 -22.634003
v -7.085040 14.864788 -22.634003
v -7.093352 15.807315 -22.606602
v -7.093352 14.864788 -22.606602
v -7.106850 15.807315 -22.581347
v -7.106850 14.864788 -22.581347
v -7.125016 15.807315 -22.559212
v -7.125016 14.864788 -22.559212
v -7.147151 15.807315 -22.541046
v -7.147151 14.864788 -22.541046
v -7.172405 15.807315 -22.527548
v -7.172405 14.864788 -22.527548
v -7.199807 15.807315 -22.519236
v -7.199807 14.864788 -22.519236
v -7.228304 15.807315 -22.516428
v -7.228304 14.864788 -22.516428
v -7.256802 15.807315 -22.519236
v -7.256802 14.864788 -22.519236
v -7.284204 15.807315 -22.527548
v -7.284204 14.864788 -22.527548
v -7.309457 15.807315 -22.541046
v -7.309457 14.864788 -22.541046
v -7.331593 15.807315 -22.559212
v -7.331593 14.864788 -22.559212
v -7.349759 15.807315 -22.581347
v -7.349759 14.864788 -22.581347
v -7.363257 15.807315 -22.606602
v -7.363257 14.864788 -22.606602
v -7.371569 15.807315 -22.634003
v -7.371569 14.864788 -22.634003
v -7.374376 15.807315 -22.662500
v -7.374376 14.864788 -22.662500
v -7.371569 15.807315 -22.690998
v -7.371569 14.864788 -22.690998
v -7.363257 15.807315 -22.718399
v -7.363257 14.864788 -22.718399
v -7.349759 15.807315 -22.743654
v -7.349759 14.864788 -22.743654
v -7.331593 15.807315 -22.765789
v -7.331593 14.864788 -22.765789
v -7.309457 15.807315 -22.783955
v -7.309457 14.864788 -22.783955
v -7.284204 15.807315 -22.797453
v -7.284204 14.864788 -22.797453
v -7.199807 15.807315 -22.805765
v -7.228304 15.807315 -22.808573
v -7.256801 15.807315 -22.805765
v -7.284204 15.807315 -22.797453
v -7.309457 15.807315 -22.783955
v -7.331593 15.807315 -22.765789
v -7.349759 15.807315 -22.743654
v -7.363257 15.807315 -22.718399
v -7.371569 15.807315 -22.690998
v -7.374376 15.807315 -22.662500
v -7.371569 15.807315 -22.634003
v -7.363257 15.807315 -22.606602
v -7.349759 15.807315 -22.581347
v -7.331593 15.807315 -22.559212
v -7.309457 15.807315 -22.541046
v -7.284204 15.807315 -22.527548
v -7.256802 15.807315 -22.519236
v -7.228304 15.807315 -22.516428
v -7.199807 15.807315 -22.519236
v -7.172405 15.807315 -22.527548
v -7.147151 15.807315 -22.541046
v -7.125016 15.807315 -22.559212
v -7.106850 15.807315 -22.581347
v -7.093352 15.807315 -22.606602
v -7.085040 15.807315 -22.634003
v -7.082233 15.807315 -22.662500
v -7.085040 15.807315 -22.690998
v -7.093352 15.807315 -22.718399
v -7.106850 15.807315 -22.743654
v -7.125016 15.807315 -22.765789
v -7.147151 15.807315 -22.783955
v -7.172405 15.807315 -22.797453
v -7.256801 14.864788 -22.805765
v -7.256801 15.807315 -22.805765
v -7.228304 14.864788 -22.808573
v -7.199807 14.864788 -22.805765
v -7.172405 14.864788 -22.797453
v -7.147151 14.864788 -22.783955
v -7.125016 14.864788 -22.765789
v -7.106850 14.864788 -22.743654
v -7.093352 14.864788 -22.718399
v -7.085040 14.864788 -22.690998
v -7.082233 14.864788 -22.662500
v -7.085040 14.864788 -22.634003
v -7.093352 14.864788 -22.606602
v -7.106850 14.864788 -22.581347
v -7.125016 14.864788 -22.559212
v -7.147151 14.864788 -22.541046
v -7.172405 14.864788 -22.527548
v -7.199807 14.864788 -22.519236
v -7.228304 14.864788 -22.516428
v -7.256802 14.864788 -22.519236
v -7.284204 14.864788 -22.527548
v -7.309457 14.864788 -22.541046
v -7.331593 14.864788 -22.559212
v -7.349759 14.864788 -22.581347
v -7.363257 14.864788 -22.606602
v -7.371569 14.864788 -22.634003
v -7.374376 14.864788 -22.662500
v -7.371569 14.864788 -22.690998
v -7.363257 14.864788 -22.718399
v -7.349759 14.864788 -22.743654
v -7.331593 14.864788 -22.765789
v -7.309457 14.864788 -22.783955
v -7.284204 14.864788 -22.797453
v -7.256801 14.864788 -22.805765
vt 0.000000 0.000000
vt 0.000000 0.000000
vt 0.000000 0.000000
vt 0.000000 0.000000
vt 0.000000 0.000000
vt 0.000000 0.000000
vt 0.000000 0.000000
vt 0.000000 0.000000
vt 0.000000 0.000000
vt 0.000000 0.000000
vt 0.000000 0.000000
vt 0.000000 0.000000
vt 0.000000 0.000000
vt 0.000000 0.000000
vt 0.000000 0.000000
vt 0.000000 0.000000
vt 0.000000 0.000000
vt 0.000000 0.000000
vt 0.000000 0.000000
vt 0.000000 0.000000
vt 0.000000 0.000000
vt 0.000000 0.000000
vt 0.000000 0.000000
vt 0.000000 0.000000
vt 0.000000 0.000000
vt 0.000000 0.000000
vt 0.000000 0.000000
vt 0.000000 0.000000
vt 0.000000 0.000000
vt 0.000000 0.000000
vt 0.000000 0.000000
vt 0.000000 0.000000
vt 0.000000 0.000000
vt 0.000000 0.000000
vt 0.000000 0.000000
vt 0.000000 0.000000
vt 0.000000 0.000000
vt 0.000000 0.000000
vt 0.000000 0.000000
vt 0.000000 0.000000
vt 0.000000 0.000000
vt 0.000000 0.000000
vt 0.000000 0.000000
vt 0.000000 0.000000
vt 0.000000 0.000000
vt 0.000000 0.000000
vt 0.000000 0.000000
vt 0.000000 0.000000
vt 0.000000 0.000000
vt 0.000000 0.000000
vt 0.000000 0.000000
vt 0.000000 0.000000
vt 0.000000 0.000000
vt 0.000000 0.000000
vt 0.000000 0.000000
vt 0.000000 0.000000
vt 0.000000 0.000000
vt 0.000000 0.000000
vt 0.000000 0.000000
vt 0.000000 0.000000
vt 0.000000 0.000000
vt 0.000000 0.000000
vt 0.000000 0.000000
vt 0.000000 0.000000
vt 0.000000 0.000000
vt 0.000000 0.000000
vt 0.000000 0.000000
vt 0.000000 0.000000
vt 0.000000 0.000000
vt 0.000000 0.000000
vt 0.000000 0.000000
vt 0.000000 0.000000
vt 0.000000 0.000000
vt 0.000000 0.000000
vt 0.000000 0.000000
vt 0.000000 0.000000
vt 0.000000 0.000000
vt 0.000000 0.000000
vt 0.000000 0.000000
vt 0.000000 0.000000
vt 0.000000 0.000000
vt 0.000000 0.000000
vt 0.000000 0.000000
vt 0.000000 0.000000
vt 0.000000 0.000000
vt 0.000000 0.000000
vt 0.000000 0.000000
vt 0.000000 0.000000
vt 0.000000 0.000000
vt 0.000000 0.000000
vt 0.000000 0.000000
vt 0.000000 0.000000
vt 0.000000 0.000000
vt 0.000000 0.000000
vt 0.000000 0.000000
vt 0.000000 0.000000
vt 0.000000 0.000000
vt 0.000000 0.000000
vt 0.000000 0.000000
vt 0.000000 0.000000
vt 0.000000 0.000000
vt 0.000000 0.000000
vt 0.000000 0.000000
vt 0.000000 0.000000
vt 0.000000 0.000000
vt 0.000000 0.000000
vt 0.000000 0.000000
vt 0.000000 0.000000
vt 0.000000 0.000000
vt 0.000000 0.000000
vt 0.000000 0.000000
vt 0.000000 0.000000
vt 0.000000 0.000000
vt 0.000000 0.000000
vt 0.000000 0.000000
vt 0.000000 0.000000
vt 0.000000 0.000000
vt 0.000000 0.000000
vt 0.000000 0.000000
vt 0.000000 0.000000
vt 0.000000 0.000000
vt 0.000000 0.000000
vt 0.000000 0.000000
vt 0.000000 0.000000
vt 0.000000 0.000000
vt 0.000000 0.000000
vt 0.000000 0.000000
vt 0.000000 0.000000
vn 0.0000 0.0000 -1.0000
vn 0.1951 0.0000 -0.9808
vn 0.3827 0.0000 -0.9239
vn 0.5556 0.0000 -0.8315
vn 0.5555 0.0000 -0.8315
vn 0.7071 0.0000 -0.7071
vn 0.8315 0.0000 -0.5555
vn 0.8315 0.0000 -0.5556
vn 0.9239 0.0000 -0.3826
vn 0.9239 0.0000 -0.3827
vn 0.9808 0.0000 -0.1951
vn 1.0000 0.0000 0.0000
vn 0.9808 0.0000 0.1951
vn 0.9239 0.0000 0.3827
vn 0.8315 0.0000 0.5555
vn 0.8314 0.0000 0.5556
vn 0.7072 0.0000 0.7071
vn 0.7071 0.0000 0.7072
vn 0.5556 0.0000 0.8315
vn 0.5555 0.0000 0.8315
vn 0.3827 0.0000 0.9239
vn 0.1951 0.0000 0.9808
vn 0.0001 0.0000 1.0000
vn -0.0001 0.0000 1.0000
vn -0.1951 0.0000 0.9808
vn -0.3827 0.0000 0.9239
vn -0.5555 0.0000 0.8315
vn -0.5556 0.0000 0.8315
vn -0.7070 0.0000 0.7072
vn -0.7071 0.0000 0.7071
vn -0.8315 0.0000 0.5556
vn -0.8315 0.0000 0.5555
vn -0.9239 0.0000 0.3827
vn -0.9808 0.0000 0.1951
vn -1.0000 0.0000 0.0000
vn -0.9808 0.0000 -0.1951
vn -0.9239 0.0000 -0.3827
vn -0.9239 0.0000 -0.3826
vn -0.8315 0.0000 -0.5556
vn -0.8315 0.0000 -0.5555
vn -0.7071 0.0000 -0.7071
vn -0.5555 0.0000 -0.8315
vn -0.5556 0.0000 -0.8315
vn -0.3827 0.0000 -0.9239
vn 0.0000 1.0000 0.0000
vn 0.0000 1.0000 0.0009
vn 0.0000 1.0000 -0.0002
vn 0.0000 1.0000 0.0001
vn 0.0000 1.0000 -0.0001
vn -0.0000 1.0000 -0.0005
vn -0.1951 0.0000 -0.9808
vn 0.0000 -1.0000 0.0000
vn -0.0000 -1.0000 0.0009
vn 0.0000 -1.0000 -0.0006
vn 0.0000 -1.0000 0.0001
vn 0.0000 -1.0000 -0.0001
vn -0.0000 -1.0000 0.0003
vn -0.0000 -1.0000 -0.0004
usemtl WallBSDF
s 1
f 1/1/1 2/2/1 3/3/2
f 1/1/1 3/3/2 4/4/2
f 4/4/2 3/3/2 5/5/3
f 4/4/2 5/5/3 6/6/3
f 6/6/3 5/5/3 7/7/4
f 6/6/3 7/7/4 8/8/5
f 8/8/5 7/7/4 9/9/6
f 8/8/5 9/9/6 10/10/6
f 10/10/6 9/9/6 11/11/7
f 10/10/6 11/11/7 12/12/8
f 12/12/8 11/11/7 13/13/9
f 12/12/8 13/13/9 14/14/10
f 14/14/10 13/13/9 15/15/11
f 14/14/10 15/15/11 16/16/11
f 16/16/11 15/15/11 17/17/12
f 16/16/11 17/17/12 18/18/12
f 18/18/12 17/17/12 19/19/13
f 18/18/12 19/19/13 20/20/13
f 20/20/13 19/19/13 21/21/14
f 20/20/13 21/21/14 22/22/14
f 22/22/14 21/21/14 23/23/15
f 22/22/14 23/23/15 24/24/16
f 24/24/16 23/23/15 25/25/17
f 24/24/16 25/25/17 26/26/18
f 26/26/18 25/25/17 27/27/19
f 26/26/18 27/27/19 28/28/20
f 28/28/20 27/27/19 29/29/21
f 28/28/20 29/29/21 30/30/21
f 30/30/21 29/29/21 31/31/22
f 30/30/21 31/31/22 32/32/22
f 32/32/22 31/31/22 33/33/23
f 32/32/22 33/33/23 34/34/24
f 34/34/24 33/33/23 35/35/25
f 34/34/24 35/35/25 36/36/25
f 36/36/25 35/35/25 37/37/26
f 36/36/25 37/37/26 38/38/26
f 38/38/26 37/37/26 39/39/27
f 38/38/26 39/39/27 40/40/28
f 40/40/28 39/39/27 41/41/29
f 40/40/28 41/41/29 42/42/30
f 42/42/30 41/41/29 43/43/31
f 42/42/30 43/43/31 44/44/32
f 44/44/32 43/43/31 45/45/33
f 44/44/32 45/45/33 46/46/33
f 46/46/33 45/45/33 47/47/34
f 46/46/33 47/47/34 48/48/34
f 48/48/34 47/47/34 49/49/35
f 48/48/34 49/49/35 50/50/35
f 50/50/35 49/49/35 51/51/36
f 50/50/35 51/51/36 52/52/36
f 52/52/36 51/51/36 53/53/37
f 52/52/36 53/53/37 54/54/38
f 54/54/38 53/53/37 55/55/39
f 54/54/38 55/55/39 56/56/40
f 56/56/40 55/55/39 57/57/41
f 56/56/40 57/57/41 58/58/41
f 58/58/41 57/57/41 59/59/42
f 58/58/41 59/59/42 60/60/43
f 60/60/43 59/59/42 61/61/44
f 60/60/43 61/61/44 62/62/44
f 63/63/45 64/64/46 65/65/45
f 63/63/45 65/65/45 66/66/47
f 63/63/45 66/66/47 67/67/48
f 63/63/45 67/67/48 68/68/49
f 63/63/45 68/68/49 69/69/45
f 63/63/45 69/69/45 70/70/45
f 63/63/45 70/70/45 71/71/45
f 63/63/45 71/71/45 72/72/45
f 63/63/45 72/72/45 73/73/45
f 63/63/45 73/73/45 74/74/45
f 63/63/45 74/74/45 75/75/45
f 63/63/45 75/75/45 76/76/45
f 63/63/45 76/76/45 77/77/45
f 63/63/45 77/77/45 78/78/45
f 63/63/45 78/78/45 79/79/45
f 63/63/45 79/79/45 80/80/45
f 63/63/45 80/80/45 81/81/45
f 63/63/45 81/81/45 82/82/45
f 63/63/45 82/82/45 83/83/45
f 63/63/45 83/83/45 84/84/45
f 63/63/45 84/84/45 85/85/45
f 63/63/45 85/85/45 86/86/45
f 63/63/45 86/86/45 87/87/45
f 63/63/45 87/87/45 88/88/45
f 63/63/45 88/88/45 89/89/45
f 63/63/45 89/89/45 90/90/45
f 63/63/45 90/90/45 91/91/45
f 63/63/45 91/91/45 92/92/45
f 63/63/45 92/92/45 93/93/50
f 63/63/45 93/93/50 94/94/45
f 95/95/51 96/96/51 2/2/1
f 95/95/51 2/2/1 1/1/1
f 62/62/44 61/61/44 96/96/51
f 62/62/44 96/96/51 95/95/51
f 97/97/52 98/98/53 99/99/54
f 97/97/52 99/99/54 100/100/55
f 97/97/52 100/100/55 101/101/52
f 97/97/52 101/101/52 102/102/52
f 97/97/52 102/102/52 103/103/52
f 97/97/52 103/103/52 104/104/52
f 97/97/52 104/104/52 105/105/52
f 97/97/52 105/105/52 106/106/52
f 97/97/52 106/106/52 107/107/52
f 97/97/52 107/107/52 108/108/52
f 97/97/52 108/108/52 109/109/52
f 97/97/52 109/109/52 110/110/52
f 97/97/52 110/110/52 111/111/52
f 97/97/52 111/111/52 112/112/52
f 97/97/52 112/112/52 113/113/52
f 97/97/52 113/113/52 114/114/52
f 97/97/52 114/114/52 115/115/52
f 97/97/52 115/115/52 116/116/52
f 97/97/52 116/116/52 117/117/52
f 97/97/52 117/117/52 118/118/52
f 97/97/52 118/118/52 119/119/52
f 97/97/52 119/119/52 120/120/52
f 97/97/52 120/120/52 121/121/52
f 97/97/52 121/121/52 122/122/55
f 97/97/52 122/122/55 123/123/52
f 97/97/52 123/123/52 124/124/56
f 97/97/52 124/124/56 125/125/55
f 97/97/52 125/125/55 126/126/57
f 97/97/52 126/126/57 127/127/58
f 97/97/52 127/127/58 128/128/53
