# Blender v3.4.1 OBJ File: 'bathroom.blend'
# www.blender.org
mtllib Wood_0001.mtl
o Wood_0001
v 10.647523 4.944642 21.395748
v 10.647523 4.944644 4.583193
v 10.647523 0.084827 4.583192
v 10.647523 0.084825 21.395748
v 10.647523 4.944644 4.583193
v 16.236765 4.944644 4.583193
v 16.236765 0.084827 4.583192
v 10.647523 0.084827 4.583192
v 16.236765 4.944644 4.583193
v 16.236765 4.944642 21.395748
v 16.236765 0.084825 21.395748
v 16.236765 0.084827 4.583192
v 16.236765 4.944642 21.395748
v 10.647523 4.944642 21.395748
v 10.647523 0.084825 21.395748
v 16.236765 0.084825 21.395748
v 10.647523 0.084825 21.395748
v 10.647523 0.084827 4.583192
v 16.236765 0.084827 4.583192
v 16.236765 0.084825 21.395748
v 16.236765 4.988704 21.395748
v 10.647523 4.988704 21.395748
v 10.647523 4.988706 4.583193
v 16.236765 4.988706 4.583193
v 16.236765 5.258842 21.398233
v 16.236765 5.257392 4.580706
v 10.647523 5.257392 4.580706
v 10.647523 5.258842 21.398233
v 10.647523 5.258842 21.398233
v 10.647523 5.257392 4.580706
v 10.647523 4.988706 4.583193
v 10.647523 4.988704 21.395748
v 10.647523 5.257392 4.580706
v 16.236765 5.257392 4.580706
v 16.236765 4.988706 4.583193
v 10.647523 4.988706 4.583193
v 16.236765 5.257392 4.580706
v 16.236765 5.258842 21.398233
v 16.236765 4.988704 21.395748
v 16.236765 4.988706 4.583193
v 16.236765 5.258842 21.398233
v 10.647523 5.258842 21.398233
v 10.647523 4.988704 21.395748
v 16.236765 4.988704 21.395748
vt 0.004500 0.051700
vt 0.993000 0.051700
vt 0.993000 0.270600
vt 0.004500 0.270600
vt 0.508600 0.387900
vt 0.747700 0.387900
vt 0.747700 0.627000
vt 0.508600 0.627000
vt 0.747700 0.387900
vt 0.986900 0.387900
vt 0.986900 0.627000
vt 0.747700 0.627000
vt 0.030300 0.387900
vt 0.269400 0.387900
vt 0.269400 0.627000
vt 0.030300 0.627000
vt 0.269400 0.627000
vt 0.508600 0.627000
vt 0.508600 0.866200
vt 0.269400 0.866200
vt 0.181500 0.866800
vt 0.501300 0.866500
vt 0.501000 0.135500
vt 0.181200 0.135800
vt 0.626200 0.471100
vt 0.905200 0.471100
vt 0.905200 0.991700
vt 0.626200 0.991700
vt 0.000000 0.339600
vt 1.000000 0.339800
vt 0.999900 0.383100
vt 0.000200 0.383100
vt 0.501000 0.135500
vt 0.181200 0.135800
vt 0.181200 0.135800
vt 0.501000 0.135500
vt 0.181200 0.135800
vt 0.181500 0.866800
vt 0.181500 0.866800
vt 0.181200 0.135800
vt 0.181500 0.866800
vt 0.501300 0.866500
vt 0.501300 0.866500
vt 0.181500 0.866800
vn -1.0000 -0.0000 0.0000
vn 0.0000 0.0000 -1.0000
vn 1.0000 0.0000 0.0000
vn 0.0000 0.0000 1.0000
vn 0.0000 -1.0000 -0.0000
vn 0.0000 1.0000 -0.0001
vn 0.0000 -0.0093 -1.0000
vn 0.0000 -0.0092 1.0000
usemtl WoodBSDF
s off
f 1/1/1 2/2/1 3/3/1
f 1/1/1 3/3/1 4/4/1
f 5/5/2 6/6/2 7/7/2
f 5/5/2 7/7/2 8/8/2
f 9/9/3 10/10/3 11/11/3
f 9/9/3 11/11/3 12/12/3
f 13/13/4 14/14/4 15/15/4
f 13/13/4 15/15/4 16/16/4
f 17/17/5 18/18/5 19/19/5
f 17/17/5 19/19/5 20/20/5
f 21/21/5 22/22/5 23/23/5
f 21/21/5 23/23/5 24/24/5
f 25/25/6 26/26/6 27/27/6
f 25/25/6 27/27/6 28/28/6
f 29/29/1 30/30/1 31/31/1
f 29/29/1 31/31/1 32/32/1
f 33/33/7 34/34/7 35/35/7
f 33/33/7 35/35/7 36/36/7
f 37/37/3 38/38/3 39/39/3
f 37/37/3 39/39/3 40/40/3
f 41/41/8 42/42/8 43/43/8
f 41/41/8 43/43/8 44/44/8
