# Blender v3.4.1 OBJ File: 'bathroom.blend'
# www.blender.org
mtllib Wood_0003.mtl
o Wood_0003
v -16.909822 8.028893 22.279160
v -16.909822 8.028897 -3.277856
v -16.909822 7.527610 -3.277856
v -16.909822 7.527606 22.279160
v -16.701269 8.028897 -3.277856
v -5.814640 8.028897 -3.277856
v -5.814640 7.527610 -3.277856
v -16.701269 7.527610 -3.277856
v -5.814640 8.028897 -3.277856
v -5.814640 8.028893 22.279160
v -5.814640 7.527606 22.279160
v -5.814640 7.527610 -3.277856
v -16.701269 8.028893 22.279160
v -16.909822 8.028893 22.279160
v -16.909822 7.527606 22.279160
v -16.701269 7.527606 22.279160
v -16.701269 7.527606 22.279160
v -16.701269 7.527610 -3.277856
v -5.814640 7.527610 -3.277856
v -5.814640 7.527606 22.279160
v -16.701269 8.670930 22.279160
v -16.909822 8.670930 22.279160
v -16.909822 8.028897 -3.277856
v -16.701269 7.527610 -3.277856
v -16.909822 7.527610 -3.277856
v -5.814640 8.028893 22.279160
v -16.701269 8.028893 22.279160
v -16.701269 7.527606 22.279160
v -5.814640 7.527606 22.279160
v -16.909822 7.527606 22.279160
v -16.909822 7.527610 -3.277856
v -5.814640 8.028893 22.279160
v -5.814640 8.028897 -3.277856
v -16.701269 8.028897 -3.277856
v -16.701269 8.028893 22.279160
v -16.701269 8.670930 22.279160
v -16.701269 8.670935 -3.277856
v -16.909822 8.670935 -3.277856
v -16.909822 8.670930 22.279160
v -16.909822 8.670930 22.279160
v -16.909822 8.670935 -3.277856
v -16.701269 8.670935 -3.277856
v -16.701269 8.670930 22.279160
v -16.701269 8.028893 22.279160
v -16.701269 8.028897 -3.277856
v -16.909822 8.670935 -3.277856
v -16.701269 8.670935 -3.277856
vt 0.984500 0.496500
vt 0.738300 0.496500
vt 0.738300 0.250200
vt 0.984500 0.250200
vt 0.492100 0.496500
vt 0.492100 0.250200
vt 0.738300 0.250200
vt 0.738300 0.496500
vt 0.920500 0.550500
vt 0.485800 0.550500
vt 0.485800 0.115800
vt 0.920500 0.115800
vt 0.245800 0.496500
vt -0.000400 0.496500
vt -0.000400 0.250200
vt 0.245800 0.250200
vt 0.984500 0.496500
vt 0.738300 0.496500
vt 0.738300 0.250200
vt 0.984500 0.250200
vt 0.245800 0.742700
vt -0.000400 0.742700
vt 0.738300 0.496500
vt 0.492100 0.250200
vt 0.738300 0.250200
vt 0.485800 0.550500
vt 0.051200 0.550500
vt 0.051200 0.115800
vt 0.485800 0.115800
vt 0.984500 0.742700
vt 0.738300 0.742700
vt 1.000000 0.000000
vt 1.000000 0.994700
vt 0.000000 0.994700
vt 0.000000 0.000000
vt 0.245800 0.742700
vt 0.492100 0.742700
vt 0.492100 0.988900
vt 0.245800 0.988900
vt 0.984500 0.742700
vt 0.738300 0.742700
vt 1.000000 0.057700
vt 0.000000 0.057700
vt 0.000000 0.000000
vt 1.000000 0.000000
vt 0.738300 0.742700
vt 0.492100 0.742700
vn -1.0000 0.0000 0.0000
vn 0.0000 0.0000 -1.0000
vn 1.0000 0.0000 0.0000
vn 0.0000 0.0000 1.0000
vn 0.0000 -1.0000 -0.0000
vn 0.0000 1.0000 0.0000
usemtl WoodBSDF
s off
f 1/1/1 2/2/1 3/3/1
f 1/1/1 3/3/1 4/4/1
f 5/5/2 6/6/2 7/7/2
f 5/5/2 7/7/2 8/8/2
f 9/9/3 10/10/3 11/11/3
f 9/9/3 11/11/3 12/12/3
f 13/13/4 14/14/4 15/15/4
f 13/13/4 15/15/4 16/16/4
f 17/17/5 18/18/5 19/19/5
f 17/17/5 19/19/5 20/20/5
f 21/21/4 22/22/4 14/14/4
f 21/21/4 14/14/4 13/13/4
f 23/23/2 5/5/2 24/24/2
f 23/23/2 24/24/2 25/25/2
f 26/26/4 27/27/4 28/28/4
f 26/26/4 28/28/4 29/29/4
f 30/30/5 31/31/5 18/18/5
f 30/30/5 18/18/5 17/17/5
f 32/32/6 33/33/6 34/34/6
f 32/32/6 34/34/6 35/35/6
f 36/36/6 37/37/6 38/38/6
f 36/36/6 38/38/6 39/39/6
f 40/40/1 41/41/1 2/2/1
f 40/40/1 2/2/1 1/1/1
f 42/42/3 43/43/3 44/44/3
f 42/42/3 44/44/3 45/45/3
f 5/5/2 23/23/2 46/46/2
f 5/5/2 46/46/2 47/47/2
