# Blender v2.90.1 OBJ File: ''
# www.blender.org
mtllib box_lamp_top.mtl
o top_cbox_largebox.009
v 4.229996 3.299995 2.469998
v 2.649997 3.299995 2.959998
v 3.139997 3.299995 4.559997
v 4.719995 3.299995 4.059998
v 4.229996 3.299995 2.469998
v 4.719995 3.299995 4.059998
v 4.719995 3.299995 4.059998
v 3.139997 3.299995 4.559997
v 3.139997 3.299995 4.559997
v 2.649997 3.299995 2.959998
v 2.649997 3.299995 2.959998
v 4.229996 3.299995 2.469998
v 4.229996 3.289995 2.469998
v 2.649997 3.289995 2.959998
v 3.139997 3.289995 4.559997
v 4.719995 3.289995 4.059998
v 4.222835 3.294408 2.465816
v 4.713297 3.295312 4.054236
v 4.713297 3.295312 4.054236
v 3.135125 3.294875 4.552922
v 3.135125 3.294875 4.552922
v 2.644866 3.293606 2.954267
v 2.644866 3.293606 2.954267
v 4.222835 3.294408 2.465816
vn 0.0000 1.0000 0.0000
vn -0.0000 -1.0000 -0.0000
vn -0.8840 0.0000 -0.4675
vn 0.4667 0.0000 -0.8844
vn -0.4649 0.0000 0.8853
vn 0.8858 0.0000 0.4642
usemtl Default_OBJ.003
s 1
f 1//1 2//1 3//1
f 1//1 3//1 4//1
f 13//2 15//2 14//2
f 13//2 16//2 15//2
f 2//3 1//4 13//4 14//3
f 3//5 2//3 14//3 15//5
f 1//4 4//6 16//6 13//4
f 4//6 3//5 15//5 16//6
l 5 6
l 7 8
l 9 10
l 11 12
l 17 18
l 19 20
l 21 22
l 23 24
