# Blender v2.90.1 OBJ File: ''
# www.blender.org
mtllib cbox_smallbox_moveUp.mtl
o cbox_smallbox
v 1.299999 1.868522 0.650000
v 0.819999 1.868521 2.249998
v 2.399998 1.868521 2.719998
v 2.899997 1.868521 1.139999
v 2.899997 0.218524 1.139999
v 2.899997 1.868521 1.139999
v 2.399998 1.868521 2.719998
v 2.399998 0.218523 2.719997
v 1.299999 0.218524 0.649999
v 1.299999 1.868522 0.650000
v 2.899997 1.868521 1.139999
v 2.899997 0.218524 1.139999
v 0.819999 0.218523 2.249998
v 0.819999 1.868521 2.249998
v 1.299999 1.868522 0.650000
v 1.299999 0.218524 0.649999
v 2.399998 0.218523 2.719997
v 2.399998 1.868521 2.719998
v 0.819999 1.868521 2.249998
v 0.819999 0.218523 2.249998
v 2.899997 0.218524 1.139999
v 2.399998 0.218523 2.719997
v 0.819999 0.218523 2.249998
v 1.299999 0.218524 0.649999
vn 0.0000 1.0000 0.0000
vn 0.9534 -0.0000 0.3017
vn 0.2928 0.0000 -0.9562
vn -0.9578 0.0000 -0.2873
vn -0.2851 -0.0000 0.9585
vn 0.0000 -1.0000 -0.0000
usemtl Default_OBJ.006
s 1
f 1//1 2//1 3//1
f 1//1 3//1 4//1
f 5//2 6//2 7//2
f 5//2 7//2 8//2
f 9//3 10//3 11//3
f 9//3 11//3 12//3
f 13//4 14//4 15//4
f 13//4 15//4 16//4
f 17//5 18//5 19//5
f 17//5 19//5 20//5
f 21//6 22//6 23//6
f 21//6 23//6 24//6
