# Blender v2.80 (sub 75) OBJ File: ''
# www.blender.org
mtllib complex_II.mtl
o cbox_back
v 1.099382 -0.000000 0.551048
v 0.000000 -0.000000 0.551048
v 0.000000 1.097782 0.551048
v 1.112185 1.097782 0.551048
v 1.105783 0.548891 0.551048
v 0.549691 -0.000000 0.551048
v 0.000000 0.548891 0.551048
v 0.556093 1.097782 0.551048
v 0.552892 0.548891 0.551048
vn 0.0000 0.0000 -1.0000
usemtl Default_OBJ.004
s off
f 9//1 7//1 3//1 8//1
f 5//1 9//1 8//1 4//1
f 1//1 6//1 9//1 5//1
f 6//1 2//1 7//1 9//1
o cbox_ceiling
v 0.655770 0.540799 -0.194392
v 0.762186 0.543904 0.726520
v -0.248620 0.649589 1.014614
v 0.000000 0.540799 -0.028195
v 0.295147 0.540799 0.223691
v 0.295147 0.540799 0.327160
v 0.475284 0.540799 0.327160
v 0.475284 0.540799 0.223691
v 0.327885 0.540799 -0.111293
v 0.708978 0.542351 0.266064
v 0.256783 0.596746 0.870567
v -0.124310 0.595194 0.493210
v 0.385216 0.540799 0.223691
v 0.295147 0.540799 0.275426
v 0.385216 0.540799 0.327160
v 0.475284 0.540799 0.275426
v 0.385216 0.540799 0.275426
v 0.292334 0.568773 0.379637
vn -0.0658 -0.9953 0.0706
vn 0.0000 1.0000 0.0000
vn -0.0146 -0.9968 0.0788
vn -0.0271 -0.9991 0.0315
vn -0.0766 -0.9965 0.0323
usemtl Default_OBJ.005
s off
f 27//2 20//2 12//2 21//2
f 26//3 24//3 16//3 25//3
f 22//3 26//3 25//3 17//3
f 14//3 23//3 26//3 22//3
f 23//3 15//3 24//3 26//3
f 18//4 27//4 21//4 13//4
f 10//5 19//5 27//5 18//5
f 19//6 11//6 20//6 27//6
o cbox_floor.003
v 0.544741 0.000000 0.000000
v 0.000000 0.000000 0.000000
v 0.000000 -0.000000 0.551048
v 0.541588 -0.000000 0.551048
v 0.543164 -0.000000 0.275524
v 0.272370 0.000000 0.000000
v 0.000000 -0.000000 0.275524
v 0.270794 -0.000000 0.551048
v 0.271582 -0.000000 0.275524
vn 0.0000 1.0000 0.0000
usemtl Default_OBJ.006
s off
f 36//7 34//7 30//7 35//7
f 32//7 36//7 35//7 31//7
f 28//7 33//7 36//7 32//7
f 33//7 29//7 34//7 36//7
o cbox_greenwall
v 0.000000 -0.000000 0.551048
v 0.000000 0.000000 0.000000
v 0.000000 0.540799 0.000000
v 0.000000 0.540799 0.551048
v 0.000000 0.270399 0.551048
v 0.000000 -0.000000 0.275524
v 0.000000 0.270400 0.000000
v 0.000000 0.540799 0.275524
v 0.000000 0.270399 0.275524
vn 1.0000 0.0000 0.0000
usemtl Default_OBJ.007
s off
f 45//8 43//8 39//8 44//8
f 41//8 45//8 44//8 40//8
f 37//8 42//8 45//8 41//8
f 42//8 38//8 43//8 45//8
o cbox_largebox
v 0.416833 0.325189 0.243399
v 0.261137 0.325189 0.291685
v 0.309422 0.325189 0.449352
v 0.465119 0.325189 0.400081
v 0.416833 -0.000000 0.243399
v 0.416833 0.325189 0.243399
v 0.465119 0.325189 0.400081
v 0.465119 -0.000000 0.400081
v 0.465119 -0.000000 0.400081
v 0.465119 0.325189 0.400081
v 0.309422 0.325189 0.449352
v 0.309422 -0.000000 0.449352
v 0.309422 -0.000000 0.449352
v 0.309422 0.325189 0.449352
v 0.261137 0.325189 0.291685
v 0.261137 -0.000000 0.291685
v 0.261137 -0.000000 0.291685
v 0.261137 0.325189 0.291685
v 0.416833 0.325189 0.243399
v 0.416833 -0.000000 0.243399
v 0.465119 -0.000000 0.400081
v 0.309422 -0.000000 0.449352
v 0.261137 -0.000000 0.291685
v 0.416833 -0.000000 0.243399
v 0.363127 0.325189 0.346376
v 0.338985 0.325189 0.267542
v 0.285280 0.325189 0.370519
v 0.440976 0.325189 0.321740
v 0.387271 0.325189 0.424717
v 0.440976 0.162594 0.321740
v 0.416833 0.162594 0.243399
v 0.440976 0.325189 0.321740
v 0.440976 -0.000000 0.321740
v 0.465119 0.162594 0.400081
v 0.387271 0.162594 0.424717
v 0.465119 0.162594 0.400081
v 0.387271 0.325189 0.424717
v 0.387271 -0.000000 0.424717
v 0.309422 0.162594 0.449352
v 0.285280 0.162594 0.370519
v 0.309422 0.162594 0.449352
v 0.285280 0.325189 0.370519
v 0.285280 -0.000000 0.370519
v 0.261137 0.162594 0.291685
v 0.338985 0.162594 0.267542
v 0.261137 0.162594 0.291685
v 0.338985 0.325189 0.267542
v 0.338985 -0.000000 0.267542
v 0.416833 0.162594 0.243399
v 0.363128 -0.000000 0.345883
v 0.387271 -0.000000 0.424717
v 0.285280 -0.000000 0.370519
v 0.440976 -0.000000 0.321740
v 0.338985 -0.000000 0.267542
vn 0.0000 1.0000 0.0000
vn 0.9556 0.0000 -0.2945
vn 0.3017 -0.0000 0.9534
vn -0.9562 -0.0000 0.2928
vn -0.2962 0.0000 -0.9551
vn 0.0000 -1.0000 -0.0000
usemtl Default_OBJ.009
s 1
f 46//9 71//9 70//9
f 46//9 70//9 73//9
f 50//10 76//10 75//10
f 50//10 75//10 78//10
f 54//11 81//11 80//11
f 54//11 80//11 83//11
f 58//12 86//12 85//12
f 58//12 85//12 88//12
f 62//13 91//13 90//13
f 62//13 90//13 93//13
f 66//14 96//14 95//14
f 66//14 95//14 98//14
f 98//14 99//14 69//14
f 98//14 95//14 99//14
f 95//14 68//14 99//14
f 95//14 97//14 68//14
f 95//14 96//14 97//14
f 96//14 67//14 97//14
f 93//13 94//13 65//13
f 93//13 90//13 94//13
f 90//13 64//13 94//13
f 90//13 92//13 64//13
f 90//13 91//13 92//13
f 91//13 63//13 92//13
f 88//12 89//12 61//12
f 88//12 85//12 89//12
f 85//12 60//12 89//12
f 85//12 87//12 60//12
f 85//12 86//12 87//12
f 86//12 59//12 87//12
f 83//11 84//11 57//11
f 83//11 80//11 84//11
f 80//11 56//11 84//11
f 80//11 82//11 56//11
f 80//11 81//11 82//11
f 81//11 55//11 82//11
f 78//10 79//10 53//10
f 78//10 75//10 79//10
f 75//10 52//10 79//10
f 75//10 77//10 52//10
f 75//10 76//10 77//10
f 76//10 51//10 77//10
f 73//9 74//9 49//9
f 73//9 70//9 74//9
f 70//9 48//9 74//9
f 70//9 72//9 48//9
f 70//9 71//9 72//9
f 71//9 47//9 72//9
o cbox_redwall
v 0.544741 0.000000 0.000000
v 0.541588 -0.000000 0.551048
v 0.547894 0.363486 0.551048
v 0.547894 0.363486 0.000000
v 0.546317 0.181743 0.000000
v 0.543164 -0.000000 0.275524
v 0.544741 0.181743 0.551048
v 0.547894 0.363486 0.275524
v 0.545529 0.181743 0.275524
vn -0.9999 0.0152 -0.0014
vn -0.9999 0.0108 -0.0014
vn -0.9999 0.0108 -0.0043
vn -0.9999 0.0152 -0.0043
usemtl Default_OBJ.008
s off
f 108//15 106//15 102//15 107//15
f 104//16 108//16 107//16 103//16
f 100//17 105//17 108//17 104//17
f 105//18 101//18 106//18 108//18
o cbox_smallbox
v 0.128105 0.162595 0.064052
v 0.080805 0.162595 0.221720
v 0.236501 0.162594 0.268035
v 0.285772 0.162595 0.112338
v 0.285772 -0.000000 0.112338
v 0.285772 0.162595 0.112338
v 0.236501 0.162594 0.268035
v 0.236501 -0.000000 0.268035
v 0.128105 -0.000000 0.064052
v 0.128105 0.162595 0.064052
v 0.285772 0.162595 0.112338
v 0.285772 -0.000000 0.112338
v 0.080805 -0.000000 0.221720
v 0.080805 0.162595 0.221720
v 0.128105 0.162595 0.064052
v 0.128105 -0.000000 0.064052
v 0.236501 -0.000000 0.268035
v 0.236501 0.162594 0.268035
v 0.080805 0.162595 0.221720
v 0.080805 -0.000000 0.221720
v 0.285772 -0.000000 0.112338
v 0.236501 -0.000000 0.268035
v 0.080805 -0.000000 0.221720
v 0.128105 -0.000000 0.064052
v 0.182303 0.162594 0.166044
v 0.104455 0.162595 0.142886
v 0.158653 0.162594 0.244878
v 0.206939 0.162595 0.088195
v 0.261137 0.162594 0.190187
v 0.261137 0.081297 0.190187
v 0.285772 0.081297 0.112338
v 0.261137 0.162594 0.190187
v 0.261137 -0.000000 0.190187
v 0.236501 0.081297 0.268035
v 0.206939 0.081297 0.088195
v 0.128105 0.081297 0.064052
v 0.206939 0.162595 0.088195
v 0.206939 -0.000000 0.088195
v 0.285772 0.081297 0.112338
v 0.104455 0.081297 0.142886
v 0.080805 0.081297 0.221720
v 0.104455 0.162595 0.142886
v 0.104455 -0.000000 0.142886
v 0.128105 0.081297 0.064052
v 0.158653 0.081297 0.244878
v 0.236501 0.081297 0.268035
v 0.158653 0.162594 0.244878
v 0.158653 -0.000000 0.244877
v 0.080805 0.081297 0.221720
v 0.183288 -0.000000 0.167029
v 0.261137 -0.000000 0.190187
v 0.158653 -0.000000 0.244877
v 0.206939 -0.000000 0.088195
v 0.104455 -0.000000 0.142886
vn 0.0000 1.0000 0.0000
vn 0.9534 0.0000 0.3017
vn 0.2928 0.0000 -0.9562
vn -0.9578 0.0000 -0.2873
vn -0.2851 -0.0000 0.9585
vn -0.0000 -1.0000 -0.0000
usemtl Default_OBJ.010
s 1
f 109//19 134//19 133//19
f 109//19 133//19 136//19
f 113//20 139//20 138//20
f 113//20 138//20 141//20
f 117//21 144//21 143//21
f 117//21 143//21 146//21
f 121//22 149//22 148//22
f 121//22 148//22 151//22
f 125//23 154//23 153//23
f 125//23 153//23 156//23
f 129//24 159//24 158//24
f 129//24 158//24 161//24
f 161//24 162//24 132//24
f 161//24 158//24 162//24
f 158//24 131//24 162//24
f 158//24 160//24 131//24
f 158//24 159//24 160//24
f 159//24 130//24 160//24
f 156//23 157//23 128//23
f 156//23 153//23 157//23
f 153//23 127//23 157//23
f 153//23 155//23 127//23
f 153//23 154//23 155//23
f 154//23 126//23 155//23
f 151//22 152//22 124//22
f 151//22 148//22 152//22
f 148//22 123//22 152//22
f 148//22 150//22 123//22
f 148//22 149//22 150//22
f 149//22 122//22 150//22
f 146//21 147//21 120//21
f 146//21 143//21 147//21
f 143//21 119//21 147//21
f 143//21 145//21 119//21
f 143//21 144//21 145//21
f 144//21 118//21 145//21
f 141//20 142//20 116//20
f 141//20 138//20 142//20
f 138//20 115//20 142//20
f 138//20 140//20 115//20
f 138//20 139//20 140//20
f 139//20 114//20 140//20
f 136//19 137//19 112//19
f 136//19 133//19 137//19
f 133//19 111//19 137//19
f 133//19 135//19 111//19
f 133//19 134//19 135//19
f 134//19 110//19 135//19
o cbox_floor.000_cbox_floor.004
v 1.086555 0.000000 0.000000
v 0.541814 0.000000 0.000000
v 0.541814 -0.000000 0.551048
v 1.083401 -0.000000 0.551048
v 1.084978 -0.000000 0.275524
v 0.814185 0.000000 0.000000
v 0.541814 -0.000000 0.275524
v 0.812608 -0.000000 0.551048
v 0.813396 -0.000000 0.275524
vn 0.0000 1.0000 0.0000
usemtl Default_OBJ.014
s off
f 171//25 169//25 165//25 170//25
f 167//25 171//25 170//25 166//25
f 163//25 168//25 171//25 167//25
f 168//25 164//25 169//25 171//25
o cbox_largebox.001
v 0.958647 0.325189 0.243399
v 0.802951 0.325189 0.291685
v 0.851236 0.325189 0.449352
v 1.006933 0.325189 0.400081
v 0.958647 -0.000000 0.243399
v 0.958647 0.325189 0.243399
v 1.006933 0.325189 0.400081
v 1.006933 -0.000000 0.400081
v 1.006933 -0.000000 0.400081
v 1.006933 0.325189 0.400081
v 0.851236 0.325189 0.449352
v 0.851236 -0.000000 0.449352
v 0.851236 -0.000000 0.449352
v 0.851236 0.325189 0.449352
v 0.802951 0.325189 0.291685
v 0.802951 -0.000000 0.291685
v 0.802951 -0.000000 0.291685
v 0.802951 0.325189 0.291685
v 0.958647 0.325189 0.243399
v 0.958647 -0.000000 0.243399
v 1.006933 -0.000000 0.400081
v 0.851236 -0.000000 0.449352
v 0.802951 -0.000000 0.291685
v 0.958647 -0.000000 0.243399
v 0.904941 0.325189 0.346376
v 0.880799 0.325189 0.267542
v 0.827093 0.325189 0.370519
v 0.982790 0.325189 0.321740
v 0.929084 0.325189 0.424717
v 0.982790 0.162594 0.321740
v 0.958647 0.162594 0.243399
v 0.982790 0.325189 0.321740
v 0.982790 -0.000000 0.321740
v 1.006933 0.162594 0.400081
v 0.929084 0.162594 0.424717
v 1.006933 0.162594 0.400081
v 0.929084 0.325189 0.424717
v 0.929084 -0.000000 0.424717
v 0.851236 0.162594 0.449352
v 0.827093 0.162594 0.370519
v 0.851236 0.162594 0.449352
v 0.827093 0.325189 0.370519
v 0.827093 -0.000000 0.370519
v 0.802951 0.162594 0.291685
v 0.880799 0.162594 0.267542
v 0.802951 0.162594 0.291685
v 0.880799 0.325189 0.267542
v 0.880799 -0.000000 0.267542
v 0.958647 0.162594 0.243399
v 0.904942 -0.000000 0.345883
v 0.929084 -0.000000 0.424717
v 0.827093 -0.000000 0.370519
v 0.982790 -0.000000 0.321740
v 0.880799 -0.000000 0.267542
vn 0.0000 1.0000 0.0000
vn 0.9556 -0.0000 -0.2945
vn 0.3017 -0.0000 0.9534
vn -0.9562 -0.0000 0.2928
vn -0.2962 0.0000 -0.9551
vn 0.0000 -1.0000 -0.0000
usemtl Default_OBJ.013
s 1
f 172//26 197//26 196//26
f 172//26 196//26 199//26
f 176//27 202//27 201//27
f 176//27 201//27 204//27
f 180//28 207//28 206//28
f 180//28 206//28 209//28
f 184//29 212//29 211//29
f 184//29 211//29 214//29
f 188//30 217//30 216//30
f 188//30 216//30 219//30
f 192//31 222//31 221//31
f 192//31 221//31 224//31
f 224//31 225//31 195//31
f 224//31 221//31 225//31
f 221//31 194//31 225//31
f 221//31 223//31 194//31
f 221//31 222//31 223//31
f 222//31 193//31 223//31
f 219//30 220//30 191//30
f 219//30 216//30 220//30
f 216//30 190//30 220//30
f 216//30 218//30 190//30
f 216//30 217//30 218//30
f 217//30 189//30 218//30
f 214//29 215//29 187//29
f 214//29 211//29 215//29
f 211//29 186//29 215//29
f 211//29 213//29 186//29
f 211//29 212//29 213//29
f 212//29 185//29 213//29
f 209//28 210//28 183//28
f 209//28 206//28 210//28
f 206//28 182//28 210//28
f 206//28 208//28 182//28
f 206//28 207//28 208//28
f 207//28 181//28 208//28
f 204//27 205//27 179//27
f 204//27 201//27 205//27
f 201//27 178//27 205//27
f 201//27 203//27 178//27
f 201//27 202//27 203//27
f 202//27 177//27 203//27
f 199//26 200//26 175//26
f 199//26 196//26 200//26
f 196//26 174//26 200//26
f 196//26 198//26 174//26
f 196//26 197//26 198//26
f 197//26 173//26 198//26
o cbox_redwall.001
v 1.086555 0.000000 0.000000
v 1.083401 -0.000000 0.551048
v 1.089708 1.206340 0.551048
v 1.089708 1.206340 0.000000
v 1.088131 0.603170 0.000000
v 1.084978 -0.000000 0.275524
v 1.086555 0.603170 0.551048
v 1.089708 1.206340 0.275524
v 1.087343 0.603170 0.275524
vn -1.0000 0.0046 -0.0014
vn -1.0000 0.0033 -0.0014
vn -1.0000 0.0033 -0.0043
vn -1.0000 0.0046 -0.0043
usemtl Default_OBJ.012
s off
f 234//32 232//32 228//32 233//32
f 230//33 234//33 233//33 229//33
f 226//34 231//34 234//34 230//34
f 231//35 227//35 232//35 234//35
o cbox_smallbox.001
v 0.669919 0.162595 0.064052
v 0.622618 0.162595 0.221720
v 0.778315 0.162594 0.268035
v 0.827586 0.162595 0.112338
v 0.827586 -0.000000 0.112338
v 0.827586 0.162595 0.112338
v 0.778315 0.162594 0.268035
v 0.778315 -0.000000 0.268035
v 0.669919 -0.000000 0.064052
v 0.669919 0.162595 0.064052
v 0.827586 0.162595 0.112338
v 0.827586 -0.000000 0.112338
v 0.622618 -0.000000 0.221720
v 0.622618 0.162595 0.221720
v 0.669919 0.162595 0.064052
v 0.669919 -0.000000 0.064052
v 0.778315 -0.000000 0.268035
v 0.778315 0.162594 0.268035
v 0.622618 0.162595 0.221720
v 0.622618 -0.000000 0.221720
v 0.827586 -0.000000 0.112338
v 0.778315 -0.000000 0.268035
v 0.622618 -0.000000 0.221720
v 0.669919 -0.000000 0.064052
v 0.724117 0.162594 0.166044
v 0.646268 0.162595 0.142886
v 0.700467 0.162594 0.244878
v 0.748752 0.162595 0.088195
v 0.802951 0.162594 0.190187
v 0.802951 0.081297 0.190187
v 0.827586 0.081297 0.112338
v 0.802951 0.162594 0.190187
v 0.802951 -0.000000 0.190187
v 0.778315 0.081297 0.268035
v 0.748752 0.081297 0.088195
v 0.669919 0.081297 0.064052
v 0.748752 0.162595 0.088195
v 0.748752 -0.000000 0.088195
v 0.827586 0.081297 0.112338
v 0.646268 0.081297 0.142886
v 0.622618 0.081297 0.221720
v 0.646268 0.162595 0.142886
v 0.646268 -0.000000 0.142886
v 0.669919 0.081297 0.064052
v 0.700467 0.081297 0.244878
v 0.778315 0.081297 0.268035
v 0.700467 0.162594 0.244878
v 0.700467 -0.000000 0.244877
v 0.622618 0.081297 0.221720
v 0.725102 -0.000000 0.167029
v 0.802951 -0.000000 0.190187
v 0.700467 -0.000000 0.244877
v 0.748752 -0.000000 0.088195
v 0.646268 -0.000000 0.142886
vn 0.0000 1.0000 0.0000
vn 0.9534 -0.0000 0.3017
vn 0.2928 0.0000 -0.9562
vn -0.9578 0.0000 -0.2874
vn -0.2851 -0.0000 0.9585
vn -0.0000 -1.0000 -0.0000
usemtl Default_OBJ.011
s 1
f 235//36 260//36 259//36
f 235//36 259//36 262//36
f 239//37 265//37 264//37
f 239//37 264//37 267//37
f 243//38 270//38 269//38
f 243//38 269//38 272//38
f 247//39 275//39 274//39
f 247//39 274//39 277//39
f 251//40 280//40 279//40
f 251//40 279//40 282//40
f 255//41 285//41 284//41
f 255//41 284//41 287//41
f 287//41 288//41 258//41
f 287//41 284//41 288//41
f 284//41 257//41 288//41
f 284//41 286//41 257//41
f 284//41 285//41 286//41
f 285//41 256//41 286//41
f 282//40 283//40 254//40
f 282//40 279//40 283//40
f 279//40 253//40 283//40
f 279//40 281//40 253//40
f 279//40 280//40 281//40
f 280//40 252//40 281//40
f 277//39 278//39 250//39
f 277//39 274//39 278//39
f 274//39 249//39 278//39
f 274//39 276//39 249//39
f 274//39 275//39 276//39
f 275//39 248//39 276//39
f 272//38 273//38 246//38
f 272//38 269//38 273//38
f 269//38 245//38 273//38
f 269//38 271//38 245//38
f 269//38 270//38 271//38
f 270//38 244//38 271//38
f 267//37 268//37 242//37
f 267//37 264//37 268//37
f 264//37 241//37 268//37
f 264//37 266//37 241//37
f 264//37 265//37 266//37
f 265//37 240//37 266//37
f 262//36 263//36 238//36
f 262//36 259//36 263//36
f 259//36 237//36 263//36
f 259//36 261//36 237//36
f 259//36 260//36 261//36
f 260//36 236//36 261//36
o cbox_ceiling.001
v 1.098182 1.100648 0.000000
v 1.098182 1.100647 0.551048
v 0.000000 1.100647 0.551048
v 0.000000 1.100648 0.000000
v 0.420706 1.100648 0.223691
v 0.420706 1.100648 0.327160
v 0.677476 1.100648 0.327160
v 0.677476 1.100648 0.223691
v 0.549091 1.100648 0.000000
v 1.098182 1.100647 0.275524
v 0.549091 1.100647 0.551048
v 0.000000 1.100647 0.275524
v 0.549091 1.100648 0.223691
v 0.420706 1.100648 0.275426
v 0.549091 1.100648 0.327160
v 0.677476 1.100648 0.275426
v 0.549091 1.100648 0.275426
v 0.549091 1.100647 0.275524
vn 0.0000 -1.0000 -0.0000
vn 0.0000 1.0000 0.0000
usemtl Default_OBJ.015
s off
f 306//42 299//42 291//42 300//42
f 305//43 303//43 295//43 304//43
f 301//43 305//43 304//43 296//43
f 293//43 302//43 305//43 301//43
f 302//43 294//43 303//43 305//43
f 297//42 306//42 300//42 292//42
f 289//42 298//42 306//42 297//42
f 298//42 290//42 299//42 306//42
o cbox_greenwall.001
v 0.000000 0.538922 0.587026
v 0.000000 0.538922 0.000000
v 0.000000 1.115030 0.000000
v 0.000000 1.115030 0.587026
v 0.000000 0.826976 0.587026
v 0.000000 0.538922 0.293513
v 0.000000 0.826976 0.000000
v 0.000000 1.115030 0.293513
v 0.000000 0.826976 0.293513
vn 1.0000 0.0000 0.0000
usemtl Default_OBJ.016
s off
f 315//44 313//44 309//44 314//44
f 311//44 315//44 314//44 310//44
f 307//44 312//44 315//44 311//44
f 312//44 308//44 313//44 315//44
o cbox_largebox.002
v 0.709863 0.913101 0.391805
v 0.718779 0.751115 0.407748
v 0.756583 0.768314 0.567327
v 0.747436 0.930488 0.550445
v 1.025906 0.923021 0.315865
v 0.709863 0.913101 0.391805
v 0.747436 0.930488 0.550445
v 1.063478 0.940409 0.474505
v 1.063478 0.940409 0.474505
v 0.747436 0.930488 0.550445
v 0.756583 0.768314 0.567327
v 1.072626 0.778235 0.491387
v 1.072626 0.778235 0.491387
v 0.756583 0.768314 0.567327
v 0.718779 0.751115 0.407748
v 1.034821 0.761036 0.331808
v 1.034821 0.761036 0.331808
v 0.718779 0.751115 0.407748
v 0.709863 0.913101 0.391805
v 1.025906 0.923021 0.315865
v 1.063478 0.940409 0.474505
v 1.072626 0.778235 0.491387
v 1.034821 0.761036 0.331808
v 1.025906 0.923021 0.315865
v 0.733223 0.840707 0.479566
v 0.714321 0.832108 0.399777
v 0.737681 0.759714 0.487538
v 0.728649 0.921794 0.471125
v 0.752010 0.849401 0.558886
v 0.886671 0.926754 0.433155
v 0.867885 0.918061 0.353835
v 0.728649 0.921794 0.471125
v 1.044692 0.931715 0.395185
v 0.905457 0.935448 0.512475
v 0.910030 0.854361 0.520916
v 0.905457 0.935448 0.512475
v 0.752010 0.849401 0.558886
v 1.068052 0.859322 0.482946
v 0.914604 0.773274 0.529357
v 0.895702 0.764675 0.449568
v 0.914604 0.773274 0.529357
v 0.737681 0.759714 0.487538
v 1.053724 0.769635 0.411598
v 0.876800 0.756075 0.369778
v 0.872342 0.837068 0.361807
v 0.876800 0.756075 0.369778
v 0.714321 0.832108 0.399777
v 1.030364 0.842028 0.323837
v 0.867885 0.918061 0.353835
v 1.049150 0.850722 0.403157
v 1.068052 0.859322 0.482946
v 1.053724 0.769635 0.411598
v 1.044692 0.931715 0.395185
v 1.030364 0.842028 0.323837
vn -0.9719 -0.0305 0.2335
vn -0.0543 0.9939 -0.0961
vn 0.2288 0.1135 0.9668
vn 0.0539 -0.9941 0.0944
vn -0.2291 -0.1078 -0.9674
vn 0.9719 0.0305 -0.2335
usemtl Default_OBJ.017
s 1
f 316//45 341//45 340//45
f 316//45 340//45 343//45
f 320//46 346//46 345//46
f 320//46 345//46 348//46
f 324//47 351//47 350//47
f 324//47 350//47 353//47
f 328//48 356//48 355//48
f 328//48 355//48 358//48
f 332//49 361//49 360//49
f 332//49 360//49 363//49
f 336//50 366//50 365//50
f 336//50 365//50 368//50
f 368//50 369//50 339//50
f 368//50 365//50 369//50
f 365//50 338//50 369//50
f 365//50 367//50 338//50
f 365//50 366//50 367//50
f 366//50 337//50 367//50
f 363//49 364//49 335//49
f 363//49 360//49 364//49
f 360//49 334//49 364//49
f 360//49 362//49 334//49
f 360//49 361//49 362//49
f 361//49 333//49 362//49
f 358//48 359//48 331//48
f 358//48 355//48 359//48
f 355//48 330//48 359//48
f 355//48 357//48 330//48
f 355//48 356//48 357//48
f 356//48 329//48 357//48
f 353//47 354//47 327//47
f 353//47 350//47 354//47
f 350//47 326//47 354//47
f 350//47 352//47 326//47
f 350//47 351//47 352//47
f 351//47 325//47 352//47
f 348//46 349//46 323//46
f 348//46 345//46 349//46
f 345//46 322//46 349//46
f 345//46 347//46 322//46
f 345//46 346//46 347//46
f 346//46 321//46 347//46
f 343//45 344//45 319//45
f 343//45 340//45 344//45
f 340//45 318//45 344//45
f 340//45 342//45 318//45
f 340//45 341//45 342//45
f 341//45 317//45 342//45
