# Blender v2.80 (sub 75) OBJ File: ''
# www.blender.org
mtllib complex_I.mtl
o cbox_back
v 1.099382 -0.000000 0.551048
v 0.000000 -0.000000 0.551048
v 0.000000 1.097782 0.551048
v 1.112185 1.097782 0.551048
vn 0.0000 0.0000 -1.0000
usemtl Default_OBJ.004
s off
f 1//1 2//1 3//1 4//1
o cbox_ceiling
v 0.655770 0.540799 -0.194392
v 0.762186 0.543904 0.726520
v -0.248620 0.649589 1.014614
v 0.000000 0.540799 -0.028195
v 0.295147 0.540799 0.223691
v 0.295147 0.540799 0.327160
v 0.475284 0.540799 0.327160
v 0.475284 0.540799 0.223691
vn -0.0487 -0.9974 0.0533
vn 0.0000 1.0000 0.0000
usemtl Default_OBJ.005
s off
f 5//2 6//2 7//2 8//2
f 9//3 10//3 11//3 12//3
o cbox_floor.003
v 0.544741 0.000000 0.000000
v 0.000000 0.000000 0.000000
v 0.000000 -0.000000 0.551048
v 0.541588 -0.000000 0.551048
vn 0.0000 1.0000 0.0000
usemtl Default_OBJ.006
s off
f 13//4 14//4 15//4 16//4
o cbox_greenwall
v 0.000000 -0.000000 0.551048
v 0.000000 0.000000 0.000000
v 0.000000 0.540799 0.000000
v 0.000000 0.540799 0.551048
vn 1.0000 0.0000 0.0000
usemtl Default_OBJ.007
s off
f 17//5 18//5 19//5 20//5
o cbox_largebox
v 0.416833 0.325189 0.243399
v 0.261137 0.325189 0.291685
v 0.309422 0.325189 0.449352
v 0.465119 0.325189 0.400081
v 0.416833 -0.000000 0.243399
v 0.416833 0.325189 0.243399
v 0.465119 0.325189 0.400081
v 0.465119 -0.000000 0.400081
v 0.465119 -0.000000 0.400081
v 0.465119 0.325189 0.400081
v 0.309422 0.325189 0.449352
v 0.309422 -0.000000 0.449352
v 0.309422 -0.000000 0.449352
v 0.309422 0.325189 0.449352
v 0.261137 0.325189 0.291685
v 0.261137 -0.000000 0.291685
v 0.261137 -0.000000 0.291685
v 0.261137 0.325189 0.291685
v 0.416833 0.325189 0.243399
v 0.416833 -0.000000 0.243399
v 0.465119 -0.000000 0.400081
v 0.309422 -0.000000 0.449352
v 0.261137 -0.000000 0.291685
v 0.416833 -0.000000 0.243399
vn -0.0000 1.0000 0.0000
vn 0.9556 -0.0000 -0.2945
vn 0.3017 -0.0000 0.9534
vn -0.9562 -0.0000 0.2928
vn -0.2962 0.0000 -0.9551
vn -0.0000 -1.0000 -0.0000
usemtl Default_OBJ.009
s 1
f 21//6 22//6 23//6
f 21//6 23//6 24//6
f 25//7 26//7 27//7
f 25//7 27//7 28//7
f 29//8 30//8 31//8
f 29//8 31//8 32//8
f 33//9 34//9 35//9
f 33//9 35//9 36//9
f 37//10 38//10 39//10
f 37//10 39//10 40//10
f 41//11 42//11 43//11
f 41//11 43//11 44//11
o cbox_redwall
v 0.544741 0.000000 0.000000
v 0.541588 -0.000000 0.551048
v 0.547894 0.363486 0.551048
v 0.547894 0.363486 0.000000
vn -0.9999 0.0130 -0.0029
usemtl Default_OBJ.008
s off
f 45//12 46//12 47//12 48//12
o cbox_smallbox
v 0.128105 0.162595 0.064052
v 0.080805 0.162595 0.221720
v 0.236501 0.162594 0.268035
v 0.285772 0.162595 0.112338
v 0.285772 -0.000000 0.112338
v 0.285772 0.162595 0.112338
v 0.236501 0.162594 0.268035
v 0.236501 -0.000000 0.268035
v 0.128105 -0.000000 0.064052
v 0.128105 0.162595 0.064052
v 0.285772 0.162595 0.112338
v 0.285772 -0.000000 0.112338
v 0.080805 -0.000000 0.221720
v 0.080805 0.162595 0.221720
v 0.128105 0.162595 0.064052
v 0.128105 -0.000000 0.064052
v 0.236501 -0.000000 0.268035
v 0.236501 0.162594 0.268035
v 0.080805 0.162595 0.221720
v 0.080805 -0.000000 0.221720
v 0.285772 -0.000000 0.112338
v 0.236501 -0.000000 0.268035
v 0.080805 -0.000000 0.221720
v 0.128105 -0.000000 0.064052
vn 0.0000 1.0000 0.0000
vn 0.9534 -0.0000 0.3017
vn 0.2928 0.0000 -0.9562
vn -0.9578 0.0000 -0.2873
vn -0.2851 -0.0000 0.9585
vn -0.0000 -1.0000 -0.0000
usemtl Default_OBJ.010
s 1
f 49//13 50//13 51//13
f 49//13 51//13 52//13
f 53//14 54//14 55//14
f 53//14 55//14 56//14
f 57//15 58//15 59//15
f 57//15 59//15 60//15
f 61//16 62//16 63//16
f 61//16 63//16 64//16
f 65//17 66//17 67//17
f 65//17 67//17 68//17
f 69//18 70//18 71//18
f 69//18 71//18 72//18
o cbox_floor.000_cbox_floor.004
v 1.086555 0.000000 0.000000
v 0.541814 0.000000 0.000000
v 0.541814 -0.000000 0.551048
v 1.083401 -0.000000 0.551048
vn 0.0000 1.0000 0.0000
usemtl Default_OBJ.014
s off
f 73//19 74//19 75//19 76//19
o cbox_largebox.001
v 0.958647 0.325189 0.243399
v 0.802951 0.325189 0.291685
v 0.851236 0.325189 0.449352
v 1.006933 0.325189 0.400081
v 0.958647 -0.000000 0.243399
v 0.958647 0.325189 0.243399
v 1.006933 0.325189 0.400081
v 1.006933 -0.000000 0.400081
v 1.006933 -0.000000 0.400081
v 1.006933 0.325189 0.400081
v 0.851236 0.325189 0.449352
v 0.851236 -0.000000 0.449352
v 0.851236 -0.000000 0.449352
v 0.851236 0.325189 0.449352
v 0.802951 0.325189 0.291685
v 0.802951 -0.000000 0.291685
v 0.802951 -0.000000 0.291685
v 0.802951 0.325189 0.291685
v 0.958647 0.325189 0.243399
v 0.958647 -0.000000 0.243399
v 1.006933 -0.000000 0.400081
v 0.851236 -0.000000 0.449352
v 0.802951 -0.000000 0.291685
v 0.958647 -0.000000 0.243399
vn -0.0000 1.0000 0.0000
vn 0.9556 0.0000 -0.2945
vn 0.3017 -0.0000 0.9534
vn -0.9562 -0.0000 0.2928
vn -0.2962 0.0000 -0.9551
vn -0.0000 -1.0000 -0.0000
usemtl Default_OBJ.013
s 1
f 77//20 78//20 79//20
f 77//20 79//20 80//20
f 81//21 82//21 83//21
f 81//21 83//21 84//21
f 85//22 86//22 87//22
f 85//22 87//22 88//22
f 89//23 90//23 91//23
f 89//23 91//23 92//23
f 93//24 94//24 95//24
f 93//24 95//24 96//24
f 97//25 98//25 99//25
f 97//25 99//25 100//25
o cbox_redwall.001
v 1.086555 0.000000 0.000000
v 1.083401 -0.000000 0.551048
v 1.089708 1.206340 0.551048
v 1.089708 1.206340 0.000000
vn -1.0000 0.0039 -0.0029
usemtl Default_OBJ.012
s off
f 101//26 102//26 103//26 104//26
o cbox_smallbox.001
v 0.669919 0.162595 0.064052
v 0.622618 0.162595 0.221720
v 0.778315 0.162594 0.268035
v 0.827586 0.162595 0.112338
v 0.827586 -0.000000 0.112338
v 0.827586 0.162595 0.112338
v 0.778315 0.162594 0.268035
v 0.778315 -0.000000 0.268035
v 0.669919 -0.000000 0.064052
v 0.669919 0.162595 0.064052
v 0.827586 0.162595 0.112338
v 0.827586 -0.000000 0.112338
v 0.622618 -0.000000 0.221720
v 0.622618 0.162595 0.221720
v 0.669919 0.162595 0.064052
v 0.669919 -0.000000 0.064052
v 0.778315 -0.000000 0.268035
v 0.778315 0.162594 0.268035
v 0.622618 0.162595 0.221720
v 0.622618 -0.000000 0.221720
v 0.827586 -0.000000 0.112338
v 0.778315 -0.000000 0.268035
v 0.622618 -0.000000 0.221720
v 0.669919 -0.000000 0.064052
vn 0.0000 1.0000 0.0000
vn 0.9534 0.0000 0.3017
vn 0.2928 0.0000 -0.9562
vn -0.9578 -0.0000 -0.2873
vn -0.2851 -0.0000 0.9585
vn -0.0000 -1.0000 -0.0000
usemtl Default_OBJ.011
s 1
f 105//27 106//27 107//27
f 105//27 107//27 108//27
f 109//28 110//28 111//28
f 109//28 111//28 112//28
f 113//29 114//29 115//29
f 113//29 115//29 116//29
f 117//30 118//30 119//30
f 117//30 119//30 120//30
f 121//31 122//31 123//31
f 121//31 123//31 124//31
f 125//32 126//32 127//32
f 125//32 127//32 128//32
o cbox_ceiling.001
v 1.098182 1.100648 0.000000
v 1.098182 1.100647 0.551048
v 0.000000 1.100647 0.551048
v 0.000000 1.100648 0.000000
v 0.420706 1.100648 0.223691
v 0.420706 1.100648 0.327160
v 0.677476 1.100648 0.327160
v 0.677476 1.100648 0.223691
vn 0.0000 -1.0000 -0.0000
vn 0.0000 1.0000 0.0000
usemtl Default_OBJ.015
s off
f 129//33 130//33 131//33 132//33
f 133//34 134//34 135//34 136//34
o cbox_greenwall.001
v 0.000000 0.538922 0.587026
v 0.000000 0.538922 0.000000
v 0.000000 1.115030 0.000000
v 0.000000 1.115030 0.587026
vn 1.0000 0.0000 0.0000
usemtl Default_OBJ.016
s off
f 137//35 138//35 139//35 140//35
o cbox_largebox.002
v 0.709863 0.913101 0.391805
v 0.718779 0.751115 0.407748
v 0.756583 0.768314 0.567327
v 0.747436 0.930488 0.550445
v 1.025906 0.923021 0.315865
v 0.709863 0.913101 0.391805
v 0.747436 0.930488 0.550445
v 1.063478 0.940409 0.474505
v 1.063478 0.940409 0.474505
v 0.747436 0.930488 0.550445
v 0.756583 0.768314 0.567327
v 1.072626 0.778235 0.491387
v 1.072626 0.778235 0.491387
v 0.756583 0.768314 0.567327
v 0.718779 0.751115 0.407748
v 1.034821 0.761036 0.331808
v 1.034821 0.761036 0.331808
v 0.718779 0.751115 0.407748
v 0.709863 0.913101 0.391805
v 1.025906 0.923021 0.315865
v 1.063478 0.940409 0.474505
v 1.072626 0.778235 0.491387
v 1.034821 0.761036 0.331808
v 1.025906 0.923021 0.315865
vn -0.9719 -0.0305 0.2335
vn -0.0543 0.9939 -0.0961
vn 0.2288 0.1135 0.9668
vn 0.0539 -0.9941 0.0944
vn -0.2291 -0.1078 -0.9674
vn 0.9719 0.0305 -0.2335
usemtl Default_OBJ.017
s 1
f 141//36 142//36 143//36
f 141//36 143//36 144//36
f 145//37 146//37 147//37
f 145//37 147//37 148//37
f 149//38 150//38 151//38
f 149//38 151//38 152//38
f 153//39 154//39 155//39
f 153//39 155//39 156//39
f 157//40 158//40 159//40
f 157//40 159//40 160//40
f 161//41 162//41 163//41
f 161//41 163//41 164//41
