ply
format ascii 1.0
comment Created by Blender 2.80 (sub 75) - www.blender.org, source file: 'breafast_room.blend'
element vertex 48
property float x
property float y
property float z
property float nx
property float ny
property float nz
property float s
property float t
element face 44
property list uchar uint vertex_indices
end_header
-3.587819 0.622151 0.783907 -0.341563 -0.341563 -0.875576 0.222021 0.498184
-3.587819 3.207952 0.783908 -0.341594 0.341533 -0.875576 0.002365 0.498184
2.253364 3.207952 0.783908 0.341594 0.341533 -0.875576 0.002365 0.001992
2.253364 0.622151 0.783907 0.341563 -0.341563 -0.875576 0.222021 0.001992
2.259861 3.207952 0.903787 0.875576 0.341533 0.341563 0.651006 0.502369
2.259861 0.622151 0.903786 0.875576 -0.341563 0.341563 0.651006 0.722025
2.259861 0.622151 0.790404 0.875576 -0.341563 -0.341563 0.641375 0.722025
2.259861 3.207952 0.790405 0.875576 0.341533 -0.341563 0.641375 0.502369
2.253364 0.622151 0.910283 0.341563 -0.341563 0.875576 0.229593 0.001992
2.253364 3.207952 0.910284 0.341594 0.341533 0.875576 0.449249 0.001992
-3.587819 3.207952 0.910284 -0.341594 0.341533 0.875576 0.449249 0.498184
-3.587819 0.622151 0.910283 -0.341563 -0.341563 0.875576 0.229593 0.498184
-3.587819 3.214450 0.903787 -0.341594 0.875546 0.341594 0.456091 0.498184
2.253364 3.214450 0.903787 0.341594 0.875546 0.341594 0.456091 0.001992
2.253364 3.214450 0.790405 0.341594 0.875546 -0.341594 0.465723 0.001992
-3.587819 3.214450 0.790405 -0.341594 0.875546 -0.341594 0.465723 0.498184
2.253364 0.615654 0.903786 0.341563 -0.875576 0.341563 0.481687 0.001992
-3.587819 0.615654 0.903786 -0.341594 -0.875546 0.341563 0.481687 0.498184
-3.587819 0.615654 0.790404 -0.341594 -0.875546 -0.341563 0.472056 0.498184
2.253364 0.615654 0.790404 0.341563 -0.875576 -0.341563 0.472056 0.001992
-3.587819 0.622151 0.783907 -0.341563 -0.341563 -0.875576 0.624503 0.502368
-3.587819 0.615654 0.790404 -0.341594 -0.875546 -0.341563 0.625055 0.501816
-3.594316 0.622151 0.790404 -0.875576 -0.341563 -0.341563 0.625055 0.502368
-3.594316 3.207952 0.790405 -0.875576 0.341533 -0.341563 0.625055 0.722025
-3.587819 3.214450 0.790405 -0.341594 0.875546 -0.341594 0.625055 0.722577
-3.587819 3.207952 0.783908 -0.341594 0.341533 -0.875576 0.624503 0.722025
2.253364 3.214450 0.790405 0.341594 0.875546 -0.341594 0.641375 0.501816
2.253364 3.207952 0.783908 0.341594 0.341533 -0.875576 0.640823 0.502369
2.253364 0.615654 0.790404 0.341563 -0.875576 -0.341563 0.641375 0.722577
2.253364 0.622151 0.783907 0.341563 -0.341563 -0.875576 0.640823 0.722025
-3.594316 0.622151 0.903786 -0.875576 -0.341563 0.341563 0.634687 0.502368
-3.587819 0.615654 0.903786 -0.341594 -0.875546 0.341563 0.634687 0.501816
-3.587819 0.622151 0.910283 -0.341563 -0.341563 0.875576 0.635239 0.502368
-3.594316 3.207952 0.903787 -0.875576 0.341533 0.341563 0.634687 0.722025
-3.587819 3.207952 0.910284 -0.341594 0.341533 0.875576 0.635239 0.722025
-3.587819 3.214450 0.903787 -0.341594 0.875546 0.341594 0.634687 0.722577
2.253364 3.214450 0.903787 0.341594 0.875546 0.341594 0.651006 0.501816
2.253364 3.207952 0.910284 0.341594 0.341533 0.875576 0.651558 0.502369
2.253364 0.622151 0.910283 0.341563 -0.341563 0.875576 0.651558 0.722025
2.253364 0.615654 0.903786 0.341563 -0.875576 0.341563 0.651006 0.722577
2.253364 3.214450 0.903787 0.341594 0.875546 0.341594 0.449801 0.001992
-3.587819 3.214450 0.903787 -0.341594 0.875546 0.341594 0.449801 0.498184
-3.587819 3.214450 0.790405 -0.341594 0.875546 -0.341594 0.001813 0.498184
2.253364 3.214450 0.790405 0.341594 0.875546 -0.341594 0.001813 0.001992
-3.587819 0.615654 0.903786 -0.341594 -0.875546 0.341563 0.229041 0.498184
2.253364 0.615654 0.903786 0.341563 -0.875576 0.341563 0.229041 0.001992
2.253364 0.615654 0.790404 0.341563 -0.875576 -0.341563 0.222573 0.001992
-3.587819 0.615654 0.790404 -0.341594 -0.875546 -0.341563 0.222573 0.498184
3 0 1 2
3 0 2 3
3 4 5 6
3 4 6 7
3 8 9 10
3 8 10 11
3 12 13 14
3 12 14 15
3 16 17 18
3 16 18 19
3 20 21 22
3 23 24 25
3 26 7 27
3 6 28 29
3 30 31 32
3 33 34 35
3 36 37 4
3 5 38 39
3 21 31 30
3 21 30 22
3 32 34 33
3 32 33 30
3 35 24 23
3 35 23 33
3 25 20 22
3 25 22 23
3 10 9 40
3 10 40 41
3 4 7 26
3 4 26 36
3 2 1 42
3 2 42 43
3 37 38 5
3 37 5 4
3 39 28 6
3 39 6 5
3 29 27 7
3 29 7 6
3 8 11 44
3 8 44 45
3 0 3 46
3 0 46 47
3 30 33 23
3 30 23 22
