ply
format ascii 1.0
comment Created by Blender 2.80 (sub 75) - www.blender.org, source file: 'breafast_room.blend'
element vertex 148
property float x
property float y
property float z
property float nx
property float ny
property float nz
property float s
property float t
element face 170
property list uchar uint vertex_indices
end_header
-1.698083 4.325232 2.513987 -0.990112 -0.097781 -0.100345 0.059794 0.005367
-1.698083 4.325230 5.532188 -0.990112 -0.097751 0.100345 0.059794 0.972821
-1.697623 4.505556 5.532189 -0.995178 0.002533 0.098025 0.001992 0.972821
-1.697622 4.505558 2.513987 -0.995178 0.002533 -0.097873 0.001992 0.005367
-1.686568 4.313659 2.513987 -0.102817 -0.989593 -0.100375 0.139578 0.003400
0.443298 4.308240 2.513987 0.097964 -0.990081 -0.100436 0.822285 0.003400
0.443298 4.308240 5.532188 0.097934 -0.990081 0.100436 0.822285 0.970854
-1.686569 4.313657 5.532188 -0.102847 -0.989593 0.100406 0.139578 0.970854
-1.686540 4.325201 5.543733 -0.100711 -0.100162 0.989837 0.837349 0.687080
0.443326 4.319784 5.543733 0.100162 -0.100681 0.989837 0.835613 0.004373
0.443787 4.500110 5.543733 0.098056 -0.000244 0.995178 0.893414 0.004226
-1.686082 4.505526 5.543733 -0.098117 0.000244 0.995148 0.895150 0.686933
0.454871 4.319755 5.532188 0.989593 -0.102847 0.100314 0.073576 0.972821
0.454871 4.319756 2.513987 0.989593 -0.102908 -0.100375 0.073576 0.005367
0.455330 4.500082 2.513987 0.995148 -0.002503 -0.098025 0.131378 0.005367
0.455330 4.500080 5.532189 0.995178 -0.002503 0.097995 0.131377 0.972821
-1.686540 4.325202 2.502443 -0.100681 -0.100192 -0.989837 0.960024 0.687080
-1.686550 4.320786 2.503322 -0.099063 -0.379040 -0.920042 0.961440 0.687083
-1.691079 4.320684 2.504383 -0.368267 -0.366527 -0.854396 0.961472 0.688535
-1.690958 4.325212 2.503322 -0.379620 -0.097201 -0.920011 0.960020 0.688496
-1.686559 4.317039 2.505825 -0.093631 -0.703848 -0.704123 0.962640 0.687086
-1.690856 4.317636 2.506412 -0.336314 -0.665487 -0.666280 0.962449 0.688464
-1.690958 4.325212 2.503322 -0.379620 -0.097201 -0.920011 0.059800 0.001949
-1.691079 4.320684 2.504383 -0.368267 -0.366527 -0.854396 0.061251 0.002289
-1.694126 4.320922 2.506412 -0.667165 -0.333048 -0.666280 0.061175 0.002939
-1.694701 4.325222 2.505825 -0.704337 -0.090121 -0.704093 0.059797 0.002751
-1.693220 4.318554 2.507322 -0.578722 -0.575915 -0.577349 0.962155 0.689222
-1.694126 4.320922 2.506412 -0.667165 -0.333048 -0.666280 0.961395 0.689512
-1.690984 4.314548 2.513987 -0.381451 -0.919156 -0.098148 0.138162 0.003400
-1.691091 4.315609 2.509459 -0.369427 -0.853511 -0.367412 0.138128 0.001949
-1.686566 4.314537 2.509570 -0.100406 -0.919828 -0.379223 0.139578 0.001984
-1.690984 4.314548 2.513987 -0.381451 -0.919156 -0.098148 0.063218 0.005367
-1.694723 4.317060 2.513987 -0.705832 -0.702353 -0.092013 0.062413 0.005367
-1.694134 4.317646 2.509689 -0.667928 -0.664632 -0.334819 0.062225 0.003989
-1.691091 4.315609 2.509459 -0.369427 -0.853511 -0.367412 0.062878 0.003916
-1.686566 4.314537 2.509570 -0.100406 -0.919828 -0.379223 0.963443 0.687089
-1.691091 4.315609 2.509459 -0.369427 -0.853511 -0.367412 0.963099 0.688539
-1.691091 4.315609 2.509459 -0.369427 -0.853511 -0.367412 0.973220 0.002024
-1.694134 4.317646 2.509689 -0.667928 -0.664632 -0.334819 0.973294 0.002999
-1.693220 4.318554 2.507322 -0.578722 -0.575915 -0.577349 0.972535 0.002706
-1.690856 4.317636 2.506412 -0.336314 -0.665487 -0.666280 0.972243 0.001949
-1.697205 4.325228 2.509570 -0.920316 -0.095767 -0.379254 0.059795 0.003951
-1.696155 4.320697 2.509459 -0.855312 -0.365215 -0.367473 0.061247 0.003916
-1.697217 4.320812 2.513987 -0.921049 -0.376812 -0.098209 0.061210 0.005367
-1.693220 4.318554 2.507322 -0.578722 -0.575915 -0.577349 0.061934 0.003231
-1.697216 4.320810 5.532188 -0.921079 -0.376782 0.098056 0.061211 0.972821
-1.696157 4.320697 5.536716 -0.855373 -0.365093 0.367412 0.061247 0.974272
-1.697205 4.325228 5.536605 -0.920316 -0.095676 0.379192 0.059795 0.974237
-1.694723 4.317058 5.532188 -0.705802 -0.702414 0.091891 0.062413 0.972821
-1.694136 4.317645 5.536488 -0.667898 -0.664632 0.334849 0.062225 0.974199
-1.694126 4.320921 5.539763 -0.667074 -0.333018 0.666402 0.061175 0.975249
-1.694702 4.325221 5.540350 -0.704337 -0.090091 0.704093 0.059797 0.975437
-1.693220 4.318553 5.538854 -0.578539 -0.575976 0.577502 0.061934 0.974957
-1.686566 4.314536 5.536605 -0.100467 -0.919828 0.379192 0.139578 0.972270
-1.691091 4.315608 5.536716 -0.369366 -0.853572 0.367351 0.138128 0.972305
-1.690984 4.314547 5.532188 -0.381420 -0.919156 0.098148 0.138162 0.970854
-1.686566 4.314536 5.536605 -0.100467 -0.919828 0.379192 0.833930 0.687089
-1.686560 4.317038 5.540350 -0.093692 -0.703940 0.704031 0.834732 0.687087
-1.690856 4.317636 5.539763 -0.336314 -0.665548 0.666250 0.834924 0.688464
-1.691091 4.315608 5.536716 -0.369366 -0.853572 0.367351 0.834274 0.688539
-1.690984 4.314547 5.532188 -0.381420 -0.919156 0.098148 0.063218 0.972821
-1.691091 4.315608 5.536716 -0.369366 -0.853572 0.367351 0.062878 0.974272
-1.691091 4.315608 5.536716 -0.369366 -0.853572 0.367351 0.980555 0.002024
-1.690856 4.317636 5.539763 -0.336314 -0.665548 0.666250 0.981531 0.001949
-1.693220 4.318553 5.538854 -0.578539 -0.575976 0.577502 0.981239 0.002707
-1.694136 4.317645 5.536488 -0.667898 -0.664632 0.334849 0.980481 0.003000
-1.690957 4.325211 5.542853 -0.379528 -0.097201 0.920042 0.837352 0.688496
-1.691079 4.320683 5.541792 -0.368267 -0.366497 0.854396 0.835901 0.688535
-1.686551 4.320783 5.542853 -0.099094 -0.379040 0.920042 0.835932 0.687084
-1.690957 4.325211 5.542853 -0.379528 -0.097201 0.920042 0.059800 0.976239
-1.691079 4.320683 5.541792 -0.368267 -0.366497 0.854396 0.061251 0.975900
-1.694126 4.320921 5.539763 -0.667074 -0.333018 0.666402 0.835977 0.689512
-1.693220 4.318553 5.538854 -0.578539 -0.575976 0.577502 0.835218 0.689222
0.443316 4.315366 5.542853 0.097201 -0.379589 0.920011 0.834196 0.004376
0.447843 4.315244 5.541792 0.366375 -0.368328 0.854427 0.834157 0.002926
0.447745 4.319773 5.542853 0.379009 -0.099155 0.920042 0.835609 0.002957
0.443306 4.311622 5.540350 0.090121 -0.704367 0.704062 0.832996 0.004380
0.447605 4.312198 5.539763 0.332896 -0.667196 0.666311 0.833181 0.003002
0.447745 4.319773 5.542853 0.379009 -0.099155 0.920042 0.073581 0.976239
0.447843 4.315244 5.541792 0.366375 -0.368328 0.854427 0.072130 0.975900
0.450891 4.315466 5.539763 0.665304 -0.336436 0.666433 0.072201 0.975249
0.451490 4.319764 5.540350 0.703818 -0.093692 0.704154 0.073578 0.975437
0.449975 4.313102 5.538854 0.575640 -0.578875 0.577471 0.833471 0.002242
0.450891 4.315466 5.539763 0.665304 -0.336436 0.666433 0.834228 0.001949
0.447717 4.309108 5.532188 0.376934 -0.920988 0.098178 0.823701 0.970854
0.447830 4.310168 5.536716 0.365123 -0.855373 0.367382 0.823737 0.972305
0.443299 4.309119 5.536605 0.095798 -0.920286 0.379284 0.822285 0.972270
0.447717 4.309108 5.532188 0.376934 -0.920988 0.098178 0.070163 0.972821
0.451469 4.311601 5.532188 0.702231 -0.705954 0.091861 0.070962 0.972821
0.450883 4.312190 5.536488 0.664418 -0.668142 0.334788 0.071151 0.974199
0.447830 4.310168 5.536716 0.365123 -0.855373 0.367382 0.070503 0.974272
0.443299 4.309119 5.536605 0.095798 -0.920286 0.379284 0.832194 0.004382
0.447830 4.310168 5.536716 0.365123 -0.855373 0.367382 0.832530 0.002930
0.447830 4.310168 5.536716 0.365123 -0.855373 0.367382 0.988793 0.002927
0.450883 4.312190 5.536488 0.664418 -0.668142 0.334788 0.988719 0.001949
0.449975 4.313102 5.538854 0.575640 -0.578875 0.577471 0.989478 0.002240
0.447605 4.312198 5.539763 0.332896 -0.667196 0.666311 0.989769 0.002999
0.453993 4.319757 5.536605 0.919828 -0.100436 0.379223 0.073576 0.974237
0.452922 4.315231 5.536716 0.853450 -0.369579 0.367382 0.072126 0.974272
0.453981 4.315339 5.532188 0.919095 -0.381603 0.098056 0.072160 0.972821
0.449975 4.313102 5.538854 0.575640 -0.578875 0.577471 0.071443 0.974957
0.443327 4.319785 2.502443 0.100162 -0.100711 -0.989837 0.961760 0.004373
0.447746 4.319774 2.503322 0.379070 -0.099185 -0.920011 0.961764 0.002957
0.447842 4.315246 2.504383 0.366314 -0.368358 -0.854457 0.963215 0.002926
0.443316 4.315368 2.503322 0.097232 -0.379559 -0.920011 0.963176 0.004377
0.447746 4.319774 2.503322 0.379070 -0.099185 -0.920011 0.073581 0.001949
0.451490 4.319765 2.505825 0.703879 -0.093783 -0.704062 0.073579 0.002751
0.450891 4.315466 2.506412 0.665334 -0.336467 -0.666402 0.072201 0.002939
0.447842 4.315246 2.504383 0.366314 -0.368358 -0.854457 0.072130 0.002289
0.447605 4.312200 2.506412 0.332865 -0.667165 -0.666372 0.964192 0.003002
0.443306 4.311623 2.505825 0.090213 -0.704337 -0.704093 0.964377 0.004380
0.450891 4.315466 2.506412 0.665334 -0.336467 -0.666402 0.963144 0.001949
0.449976 4.313103 2.507322 0.575671 -0.578875 -0.577471 0.963902 0.002242
0.453981 4.315341 2.513987 0.919095 -0.381573 -0.098117 0.072160 0.005367
0.452920 4.315231 2.509459 0.853511 -0.369518 -0.367321 0.072126 0.003916
0.453993 4.319757 2.509570 0.919797 -0.100528 -0.379254 0.073576 0.003951
0.451469 4.311602 2.513987 0.702261 -0.705924 -0.091952 0.070962 0.005367
0.450884 4.312191 2.509689 0.664541 -0.668050 -0.334727 0.071151 0.003989
0.449976 4.313103 2.507322 0.575671 -0.578875 -0.577471 0.071443 0.003231
0.443299 4.309120 2.509570 0.095859 -0.920286 -0.379284 0.822285 0.001984
0.447830 4.310170 2.509459 0.365093 -0.855373 -0.367412 0.823737 0.001949
0.447718 4.309109 2.513987 0.376934 -0.920988 -0.098178 0.823701 0.003400
0.443299 4.309120 2.509570 0.095859 -0.920286 -0.379284 0.965179 0.004382
0.447830 4.310170 2.509459 0.365093 -0.855373 -0.367412 0.964842 0.002930
0.447718 4.309109 2.513987 0.376934 -0.920988 -0.098178 0.070163 0.005367
0.447830 4.310170 2.509459 0.365093 -0.855373 -0.367412 0.070503 0.003916
0.447830 4.310170 2.509459 0.365093 -0.855373 -0.367412 0.997934 0.002927
0.447605 4.312200 2.506412 0.332865 -0.667165 -0.666372 0.996957 0.003000
0.449976 4.313103 2.507322 0.575671 -0.578875 -0.577471 0.997249 0.002240
0.450884 4.312191 2.509689 0.664541 -0.668050 -0.334727 0.998008 0.001949
0.443786 4.500112 2.502443 0.098025 -0.000244 -0.995178 0.903958 0.004226
0.448203 4.500101 2.503322 0.382763 -0.000946 -0.923826 0.903962 0.002810
0.448203 4.500101 2.503322 0.382763 -0.000946 -0.923826 0.131384 0.001949
0.451949 4.500091 2.505825 0.707144 -0.001770 -0.707022 0.131380 0.002751
0.454450 4.500083 2.509570 0.923856 -0.002319 -0.382702 0.131378 0.003951
0.448203 4.500099 5.542854 0.382702 -0.000946 0.923856 0.893411 0.002810
0.448203 4.500099 5.542854 0.382702 -0.000946 0.923856 0.131383 0.976239
0.451948 4.500089 5.540351 0.707053 -0.001770 0.707144 0.131380 0.975437
0.454451 4.500083 5.536606 0.923856 -0.002319 0.382702 0.131378 0.974237
-1.696745 4.505556 2.509570 -0.923887 0.002350 -0.382641 0.001993 0.003951
-1.694242 4.505548 2.505825 -0.707114 0.001801 -0.707053 0.001995 0.002751
-1.690497 4.505538 2.503322 -0.382824 0.000977 -0.923795 0.001998 0.001949
-1.690497 4.505538 2.503322 -0.382824 0.000977 -0.923795 0.902219 0.688349
-1.686081 4.505527 2.502443 -0.098025 0.000244 -0.995178 0.902222 0.686933
-1.690499 4.505537 5.542854 -0.382824 0.000946 0.923795 0.895154 0.688349
-1.690499 4.505537 5.542854 -0.382824 0.000946 0.923795 0.001998 0.976239
-1.694243 4.505547 5.540351 -0.707175 0.001801 0.707022 0.001995 0.975437
-1.696743 4.505553 5.536606 -0.923856 0.002350 0.382641 0.001993 0.974237
3 0 1 2
3 0 2 3
3 4 5 6
3 4 6 7
3 8 9 10
3 8 10 11
3 12 13 14
3 12 14 15
3 16 17 18
3 16 18 19
3 17 20 21
3 17 21 18
3 22 23 24
3 22 24 25
3 18 21 26
3 18 26 27
3 4 28 29
3 4 29 30
3 31 32 33
3 31 33 34
3 35 36 21
3 35 21 20
3 37 38 39
3 37 39 40
3 0 41 42
3 0 42 43
3 41 25 24
3 41 24 42
3 43 42 33
3 43 33 32
3 42 24 44
3 42 44 33
3 1 45 46
3 1 46 47
3 45 48 49
3 45 49 46
3 47 46 50
3 47 50 51
3 46 49 52
3 46 52 50
3 7 53 54
3 7 54 55
3 56 57 58
3 56 58 59
3 60 61 49
3 60 49 48
3 62 63 64
3 62 64 65
3 8 66 67
3 8 67 68
3 69 51 50
3 69 50 70
3 68 67 58
3 68 58 57
3 67 71 72
3 67 72 58
3 9 73 74
3 9 74 75
3 73 76 77
3 73 77 74
3 78 79 80
3 78 80 81
3 74 77 82
3 74 82 83
3 6 84 85
3 6 85 86
3 87 88 89
3 87 89 90
3 91 92 77
3 91 77 76
3 93 94 95
3 93 95 96
3 12 97 98
3 12 98 99
3 97 81 80
3 97 80 98
3 99 98 89
3 99 89 88
3 98 80 100
3 98 100 89
3 101 102 103
3 101 103 104
3 105 106 107
3 105 107 108
3 104 103 109
3 104 109 110
3 103 111 112
3 103 112 109
3 13 113 114
3 13 114 115
3 113 116 117
3 113 117 114
3 115 114 107
3 115 107 106
3 114 117 118
3 114 118 107
3 5 119 120
3 5 120 121
3 122 110 109
3 122 109 123
3 124 125 117
3 124 117 116
3 126 127 128
3 126 128 129
3 16 101 104
3 16 104 17
3 17 104 110
3 17 110 20
3 20 110 122
3 20 122 35
3 30 119 5
3 30 5 4
3 4 7 55
3 4 55 28
3 31 60 48
3 31 48 32
3 32 48 45
3 32 45 43
3 43 45 1
3 43 1 0
3 7 6 86
3 7 86 53
3 56 91 76
3 56 76 57
3 68 73 9
3 68 9 8
3 6 5 121
3 6 121 84
3 87 124 116
3 87 116 88
3 88 116 113
3 88 113 99
3 99 113 13
3 99 13 12
3 101 130 131
3 101 131 102
3 105 132 133
3 105 133 106
3 106 133 134
3 106 134 115
3 115 134 14
3 115 14 13
3 10 9 75
3 10 75 135
3 136 78 81
3 136 81 137
3 137 81 97
3 137 97 138
3 138 97 12
3 138 12 15
3 0 3 139
3 0 139 41
3 41 139 140
3 41 140 25
3 25 140 141
3 25 141 22
3 19 142 143
3 19 143 16
3 8 11 144
3 8 144 66
3 69 145 146
3 69 146 51
3 51 146 147
3 51 147 47
3 47 147 2
3 47 2 1
3 101 16 143
3 101 143 130
3 57 76 73
3 57 73 68
