# Blender v2.80 (sub 75) OBJ File: ''
# www.blender.org
mtllib breakfast_room.mtl
o breakfast_room_breakfast_room.032
v -6.353170 4.500465 -1.418361
v 5.263340 4.500440 -1.418361
v 5.263340 4.500440 -1.202137
v -6.353170 4.500465 -1.202137
v -6.353185 4.532269 -1.418361
v 5.263323 4.532245 -1.418361
v -6.353170 4.532269 -1.141165
v 5.263340 4.532245 -1.141165
v -6.353170 4.519215 -1.141257
v 5.263340 4.519190 -1.141257
v -6.353170 4.510457 -1.146919
v 5.263340 4.510431 -1.146919
v -6.353170 4.503486 -1.156916
v 5.263340 4.503461 -1.156916
v -6.353170 4.500468 -1.169972
v 5.263340 4.500443 -1.169972
v -6.353170 4.502804 -1.182905
v 5.263340 4.502779 -1.182905
v -6.353170 4.509495 -1.191635
v 5.263340 4.509470 -1.191635
v -6.353170 4.510237 -1.197056
v 5.263340 4.510212 -1.197056
vt 0.518337 0.887978
vt 0.518337 0.887978
vt 0.518337 0.887978
vt 0.518337 0.887978
vt 0.518337 0.887978
vt 0.518337 0.887978
vt 0.518337 0.887978
vt 0.518337 0.887978
vt 0.518337 0.887978
vt 0.518337 0.887978
vt 0.518337 0.887978
vt 0.518337 0.887978
vt 0.518337 0.887978
vt 0.518337 0.887978
vt 0.518337 0.887978
vt 0.518337 0.887978
vt 0.518337 0.887978
vt 0.518337 0.887978
vt 0.518337 0.887978
vt 0.518337 0.887978
vt 0.518337 0.887978
vt 0.518337 0.887978
vn -0.0000 -1.0000 0.0000
vn 0.0000 0.0000 -1.0000
vn 0.0000 1.0000 0.0000
vn -0.0000 -0.0070 1.0000
vn -0.0000 -0.0071 1.0000
vn -0.0000 -0.5428 0.8398
vn -0.0000 -0.5429 0.8398
vn -0.0000 -0.8203 0.5719
vn -0.0000 -0.9743 0.2253
vn -0.0000 -0.9743 0.2252
vn -0.0000 -0.9841 -0.1778
vn -0.0000 -0.9841 -0.1777
vn -0.0000 -0.7937 -0.6083
vn -0.0000 -0.9908 -0.1355
vn -0.0000 -0.9908 -0.1356
vn -0.0000 -0.4613 0.8873
vn -0.0000 -0.4614 0.8872
usemtl None
s off
f 1/1/1 2/2/1 3/3/1
f 1/1/1 3/3/1 4/4/1
f 5/5/2 6/6/2 2/2/2
f 2/2/2 1/1/2 5/5/2
f 7/7/3 8/8/3 6/6/3
f 7/7/3 6/6/3 5/5/3
f 9/9/4 10/10/4 8/8/4
f 9/9/5 8/8/5 7/7/5
f 11/11/6 12/12/6 10/10/6
f 11/11/7 10/10/7 9/9/7
f 13/13/8 14/14/8 12/12/8
f 13/13/8 12/12/8 11/11/8
f 15/15/9 16/16/9 14/14/9
f 15/15/10 14/14/10 13/13/10
f 17/17/11 18/18/11 16/16/11
f 17/17/12 16/16/12 15/15/12
f 19/19/13 20/20/13 18/18/13
f 19/19/13 18/18/13 17/17/13
f 21/21/14 22/22/14 20/20/14
f 21/21/15 20/20/15 19/19/15
f 4/4/16 3/3/16 22/22/16
f 4/4/17 22/22/17 21/21/17
