ply
format ascii 1.0
comment Created by Blender 2.80 (sub 75) - www.blender.org, source file: 'breafast_room.blend'
element vertex 93
property float x
property float y
property float z
property float nx
property float ny
property float nz
property float s
property float t
element face 71
property list uchar uint vertex_indices
end_header
-6.305749 4.055528 -1.419957 0.894406 0.000000 0.447188 0.518337 0.887978
5.133022 4.055528 -1.419957 -0.894406 0.000000 0.447188 0.518337 0.887978
5.133022 4.542055 -1.419957 -0.577349 -0.577349 0.577349 0.518337 0.887978
-6.305749 4.542055 -1.419957 0.577349 -0.577349 0.577349 0.518337 0.887978
-6.305749 4.542054 6.862089 0.707083 -0.707083 0.000000 0.518337 0.887978
5.133022 4.542054 6.862089 -0.707083 -0.707083 0.000000 0.518337 0.887978
5.133022 4.542054 7.903085 -0.577349 -0.577349 -0.577349 0.518337 0.887978
-6.305749 4.542054 7.903085 0.577349 -0.577349 -0.577349 0.518337 0.887978
5.133022 -2.823203 1.872104 -1.000000 0.000000 0.000000 0.518337 0.887978
5.133022 -2.823203 -1.419958 -1.000000 0.000000 0.000000 0.518337 0.887978
5.133022 -9.888323 -1.419960 -0.707083 0.707083 0.000000 0.518337 0.887978
5.133022 -9.888323 1.872102 -0.999969 0.000000 0.000000 0.518337 0.887978
5.133022 4.542055 1.872105 -0.707083 -0.707083 0.000000 0.518337 0.887978
5.133022 4.055528 1.872105 -1.000000 0.000000 0.000000 0.518337 0.887978
-6.305749 4.542055 1.872105 0.707083 -0.707083 0.000000 0.518337 0.887978
5.133022 4.055527 6.862089 -1.000000 0.000000 0.000000 0.518337 0.887978
5.133022 4.055527 7.903084 -1.000000 0.000000 0.000000 0.518337 0.887978
-6.305749 -9.888323 -1.419960 0.707083 0.707083 0.000000 0.518337 0.887978
-6.305749 -9.888324 7.903082 0.577349 0.577349 -0.577349 0.518337 0.887978
5.133022 -9.888324 7.903082 -0.577349 0.577349 -0.577349 0.518337 0.887978
-6.305749 -2.823204 7.903083 0.707083 0.000000 -0.707083 0.518337 0.887978
5.133022 -2.823204 7.903083 -0.707083 0.000000 -0.707083 0.518337 0.887978
5.030633 -2.913640 1.960029 0.000000 0.000000 -1.000000 0.518337 0.887978
5.030633 4.140110 1.960031 0.000000 0.000000 -1.000000 0.518337 0.887978
5.263287 4.140110 1.960031 0.000000 0.000000 -1.000000 0.518337 0.887978
5.263287 -2.913640 1.960029 0.000000 0.000000 -1.000000 0.518337 0.887978
5.030633 -2.913640 2.260030 0.000000 0.000000 -1.000000 0.518337 0.887978
5.030633 4.140110 2.260031 0.000000 0.000000 -1.000000 0.518337 0.887978
5.263287 4.140110 2.260031 0.000000 0.000000 -1.000000 0.518337 0.887978
5.263287 -2.913640 2.260030 0.000000 0.000000 -1.000000 0.518337 0.887978
5.030633 -2.913640 2.560030 0.000000 0.000000 -1.000000 0.518337 0.887978
5.030633 4.140110 2.560031 0.000000 0.000000 -1.000000 0.518337 0.887978
5.263287 4.140110 2.560031 0.000000 0.000000 -1.000000 0.518337 0.887978
5.263287 -2.913640 2.560030 0.000000 0.000000 -1.000000 0.518337 0.887978
5.030633 -2.913640 2.860029 0.000000 0.000000 -1.000000 0.518337 0.887978
5.030633 4.140110 2.860031 0.000000 0.000000 -1.000000 0.518337 0.887978
5.263287 4.140110 2.860031 0.000000 0.000000 -1.000000 0.518337 0.887978
5.263287 -2.913640 2.860029 0.000000 0.000000 -1.000000 0.518337 0.887978
5.030633 -2.913640 3.160029 0.000000 0.000000 -1.000000 0.518337 0.887978
5.030633 4.140110 3.160031 0.000000 0.000000 -1.000000 0.518337 0.887978
5.263287 4.140110 3.160031 0.000000 0.000000 -1.000000 0.518337 0.887978
5.263287 -2.913640 3.160029 0.000000 0.000000 -1.000000 0.518337 0.887978
5.030633 -2.913640 3.460030 0.000000 0.000000 -1.000000 0.518337 0.887978
5.030633 4.140110 3.460031 0.000000 0.000000 -1.000000 0.518337 0.887978
5.263287 4.140110 3.460031 0.000000 0.000000 -1.000000 0.518337 0.887978
5.263287 -2.913640 3.460030 0.000000 0.000000 -1.000000 0.518337 0.887978
5.030633 -2.913641 3.760030 0.000000 0.000000 -1.000000 0.518337 0.887978
5.030633 4.140110 3.760031 0.000000 0.000000 -1.000000 0.518337 0.887978
5.263287 4.140110 3.760031 0.000000 0.000000 -1.000000 0.518337 0.887978
5.263287 -2.913641 3.760030 0.000000 0.000000 -1.000000 0.518337 0.887978
5.030633 -2.913641 4.060030 0.000000 0.000000 -1.000000 0.518337 0.887978
5.030633 4.140110 4.060030 0.000000 0.000000 -1.000000 0.518337 0.887978
5.263287 4.140110 4.060030 0.000000 0.000000 -1.000000 0.518337 0.887978
5.263287 -2.913641 4.060030 0.000000 0.000000 -1.000000 0.518337 0.887978
5.030633 -2.913641 4.360030 0.000000 0.000000 -1.000000 0.518337 0.887978
5.030633 4.140110 4.360031 0.000000 0.000000 -1.000000 0.518337 0.887978
5.263287 4.140110 4.360031 0.000000 0.000000 -1.000000 0.518337 0.887978
5.263287 -2.913641 4.360030 0.000000 0.000000 -1.000000 0.518337 0.887978
5.030633 -2.913641 4.660029 0.000000 0.000000 -1.000000 0.518337 0.887978
5.030633 4.140109 4.660030 0.000000 0.000000 -1.000000 0.518337 0.887978
5.263287 4.140109 4.660030 0.000000 0.000000 -1.000000 0.518337 0.887978
5.263287 -2.913641 4.660029 0.000000 0.000000 -1.000000 0.518337 0.887978
5.030633 -2.913641 4.960030 0.000000 0.000000 -1.000000 0.518337 0.887978
5.030633 4.140109 4.960031 0.000000 0.000000 -1.000000 0.518337 0.887978
5.263287 4.140109 4.960031 0.000000 0.000000 -1.000000 0.518337 0.887978
5.263287 -2.913641 4.960030 0.000000 0.000000 -1.000000 0.518337 0.887978
5.030633 -2.913641 5.260029 0.000000 0.000000 -1.000000 0.518337 0.887978
5.030633 4.140109 5.260030 0.000000 0.000000 -1.000000 0.518337 0.887978
5.263287 4.140109 5.260030 0.000000 0.000000 -1.000000 0.518337 0.887978
5.263287 -2.913641 5.260029 0.000000 0.000000 -1.000000 0.518337 0.887978
5.030633 -2.913641 5.560030 0.000000 0.000000 -1.000000 0.518337 0.887978
5.030633 4.140109 5.560030 0.000000 0.000000 -1.000000 0.518337 0.887978
5.263287 4.140109 5.560030 0.000000 0.000000 -1.000000 0.518337 0.887978
5.263287 -2.913641 5.560030 0.000000 0.000000 -1.000000 0.518337 0.887978
5.030633 -2.913641 5.860030 0.000000 0.000000 -1.000000 0.518337 0.887978
5.030633 4.140109 5.860031 0.000000 0.000000 -1.000000 0.518337 0.887978
5.263287 4.140109 5.860031 0.000000 0.000000 -1.000000 0.518337 0.887978
5.263287 -2.913641 5.860030 0.000000 0.000000 -1.000000 0.518337 0.887978
5.030633 -2.913641 6.160029 0.000000 0.000000 -1.000000 0.518337 0.887978
5.030633 4.140109 6.160030 0.000000 0.000000 -1.000000 0.518337 0.887978
5.263287 4.140109 6.160030 0.000000 0.000000 -1.000000 0.518337 0.887978
5.263287 -2.913641 6.160029 0.000000 0.000000 -1.000000 0.518337 0.887978
5.030633 -2.913641 6.460030 0.000000 0.000000 -1.000000 0.518337 0.887978
5.030633 4.140109 6.460031 0.000000 0.000000 -1.000000 0.518337 0.887978
5.263287 4.140109 6.460031 0.000000 0.000000 -1.000000 0.518337 0.887978
5.263287 -2.913641 6.460030 0.000000 0.000000 -1.000000 0.518337 0.887978
5.030633 -2.913641 6.760029 0.000000 0.000000 -1.000000 0.518337 0.887978
5.030633 4.140109 6.760030 0.000000 0.000000 -1.000000 0.518337 0.887978
5.263287 4.140109 6.760030 0.000000 0.000000 -1.000000 0.518337 0.887978
5.263287 -2.913641 6.760029 0.000000 0.000000 -1.000000 0.518337 0.887978
-6.305749 -2.823203 -1.419958 1.000000 0.000000 0.000000 0.518337 0.887978
5.133022 -2.823204 6.862088 -1.000000 0.000000 0.000000 0.518337 0.887978
5.133022 -9.888324 6.862087 -1.000000 0.000000 0.000000 0.518337 0.887978
3 0 1 2
3 0 2 3
3 4 5 6
3 4 6 7
3 8 9 10
3 8 10 11
3 12 2 1
3 12 1 13
3 13 1 9
3 13 9 8
3 3 2 12
3 3 12 14
3 14 12 5
3 14 5 4
3 6 5 15
3 6 15 16
3 5 12 13
3 5 13 15
3 17 18 19
3 17 19 10
3 20 21 19
3 20 19 18
3 7 6 21
3 7 21 20
3 22 23 24
3 22 24 25
3 26 27 28
3 26 28 29
3 30 31 32
3 30 32 33
3 34 35 36
3 34 36 37
3 38 39 40
3 38 40 41
3 42 43 44
3 42 44 45
3 46 47 48
3 46 48 49
3 50 51 52
3 50 52 53
3 54 55 56
3 54 56 57
3 58 59 60
3 58 60 61
3 62 63 64
3 62 64 65
3 66 67 68
3 66 68 69
3 70 71 72
3 70 72 73
3 74 75 76
3 74 76 77
3 78 79 80
3 78 80 81
3 82 83 84
3 82 84 85
3 86 87 88
3 86 88 89
3 18 17 90
3 0 3 14
3 18 90 0
3 4 7 20
3 20 18 0
3 0 14 4
3 0 4 20
3 21 91 92
3 21 92 19
3 91 8 11
3 91 11 92
3 16 15 91
3 16 91 21
