# Blender v2.80 (sub 75) OBJ File: ''
# www.blender.org
mtllib breakfast_room.014.mtl
o breakfast_room.014_breakfast_room.030
v -1.698083 4.325232 2.513987
v -1.698083 4.325230 5.532188
v -1.697623 4.505556 5.532189
v -1.697622 4.505558 2.513987
v -1.686568 4.313659 2.513987
v 0.443298 4.308240 2.513987
v 0.443298 4.308240 5.532188
v -1.686569 4.313657 5.532188
v -1.686540 4.325201 5.543733
v 0.443326 4.319784 5.543733
v 0.443787 4.500110 5.543733
v -1.686082 4.505526 5.543733
v 0.454871 4.319755 5.532188
v 0.454871 4.319756 2.513987
v 0.455330 4.500082 2.513987
v 0.455330 4.500080 5.532189
v -1.686540 4.325202 2.502443
v -1.686550 4.320786 2.503322
v -1.691079 4.320684 2.504383
v -1.690958 4.325212 2.503322
v -1.686559 4.317039 2.505825
v -1.690856 4.317636 2.506412
v -1.690958 4.325212 2.503322
v -1.691079 4.320684 2.504383
v -1.694126 4.320922 2.506412
v -1.694701 4.325222 2.505825
v -1.693220 4.318554 2.507322
v -1.694126 4.320922 2.506412
v -1.690984 4.314548 2.513987
v -1.691091 4.315609 2.509459
v -1.686566 4.314537 2.509570
v -1.690984 4.314548 2.513987
v -1.694723 4.317060 2.513987
v -1.694134 4.317646 2.509689
v -1.691091 4.315609 2.509459
v -1.686566 4.314537 2.509570
v -1.691091 4.315609 2.509459
v -1.691091 4.315609 2.509459
v -1.694134 4.317646 2.509689
v -1.693220 4.318554 2.507322
v -1.690856 4.317636 2.506412
v -1.697205 4.325228 2.509570
v -1.696155 4.320697 2.509459
v -1.697217 4.320812 2.513987
v -1.693220 4.318554 2.507322
v -1.697216 4.320810 5.532188
v -1.696157 4.320697 5.536716
v -1.697205 4.325228 5.536605
v -1.694723 4.317058 5.532188
v -1.694136 4.317645 5.536488
v -1.694126 4.320921 5.539763
v -1.694702 4.325221 5.540350
v -1.693220 4.318553 5.538854
v -1.686566 4.314536 5.536605
v -1.691091 4.315608 5.536716
v -1.690984 4.314547 5.532188
v -1.686566 4.314536 5.536605
v -1.686560 4.317038 5.540350
v -1.690856 4.317636 5.539763
v -1.691091 4.315608 5.536716
v -1.690984 4.314547 5.532188
v -1.691091 4.315608 5.536716
v -1.691091 4.315608 5.536716
v -1.690856 4.317636 5.539763
v -1.693220 4.318553 5.538854
v -1.694136 4.317645 5.536488
v -1.690957 4.325211 5.542853
v -1.691079 4.320683 5.541792
v -1.686551 4.320783 5.542853
v -1.690957 4.325211 5.542853
v -1.691079 4.320683 5.541792
v -1.694126 4.320921 5.539763
v -1.693220 4.318553 5.538854
v 0.443316 4.315366 5.542853
v 0.447843 4.315244 5.541792
v 0.447745 4.319773 5.542853
v 0.443306 4.311622 5.540350
v 0.447605 4.312198 5.539763
v 0.447745 4.319773 5.542853
v 0.447843 4.315244 5.541792
v 0.450891 4.315466 5.539763
v 0.451490 4.319764 5.540350
v 0.449975 4.313102 5.538854
v 0.450891 4.315466 5.539763
v 0.447717 4.309108 5.532188
v 0.447830 4.310168 5.536716
v 0.443299 4.309119 5.536605
v 0.447717 4.309108 5.532188
v 0.451469 4.311601 5.532188
v 0.450883 4.312190 5.536488
v 0.447830 4.310168 5.536716
v 0.443299 4.309119 5.536605
v 0.447830 4.310168 5.536716
v 0.447830 4.310168 5.536716
v 0.450883 4.312190 5.536488
v 0.449975 4.313102 5.538854
v 0.447605 4.312198 5.539763
v 0.453993 4.319757 5.536605
v 0.452922 4.315231 5.536716
v 0.453981 4.315339 5.532188
v 0.449975 4.313102 5.538854
v 0.443327 4.319785 2.502443
v 0.447746 4.319774 2.503322
v 0.447842 4.315246 2.504383
v 0.443316 4.315368 2.503322
v 0.447746 4.319774 2.503322
v 0.451490 4.319765 2.505825
v 0.450891 4.315466 2.506412
v 0.447842 4.315246 2.504383
v 0.447605 4.312200 2.506412
v 0.443306 4.311623 2.505825
v 0.450891 4.315466 2.506412
v 0.449976 4.313103 2.507322
v 0.453981 4.315341 2.513987
v 0.452920 4.315231 2.509459
v 0.453993 4.319757 2.509570
v 0.451469 4.311602 2.513987
v 0.450884 4.312191 2.509689
v 0.449976 4.313103 2.507322
v 0.443299 4.309120 2.509570
v 0.447830 4.310170 2.509459
v 0.447718 4.309109 2.513987
v 0.443299 4.309120 2.509570
v 0.447830 4.310170 2.509459
v 0.447718 4.309109 2.513987
v 0.447830 4.310170 2.509459
v 0.447830 4.310170 2.509459
v 0.447605 4.312200 2.506412
v 0.449976 4.313103 2.507322
v 0.450884 4.312191 2.509689
v 0.443786 4.500112 2.502443
v 0.448203 4.500101 2.503322
v 0.448203 4.500101 2.503322
v 0.451949 4.500091 2.505825
v 0.454450 4.500083 2.509570
v 0.448203 4.500099 5.542854
v 0.448203 4.500099 5.542854
v 0.451948 4.500089 5.540351
v 0.454451 4.500083 5.536606
v -1.696745 4.505556 2.509570
v -1.694242 4.505548 2.505825
v -1.690497 4.505538 2.503322
v -1.690497 4.505538 2.503322
v -1.686081 4.505527 2.502443
v -1.690499 4.505537 5.542854
v -1.690499 4.505537 5.542854
v -1.694243 4.505547 5.540351
v -1.696743 4.505553 5.536606
vt 0.059794 0.005367
vt 0.059794 0.972821
vt 0.001992 0.972821
vt 0.001992 0.005367
vt 0.139578 0.003400
vt 0.822285 0.003400
vt 0.822285 0.970854
vt 0.139578 0.970854
vt 0.837349 0.687080
vt 0.835613 0.004373
vt 0.893414 0.004226
vt 0.895150 0.686933
vt 0.073576 0.972821
vt 0.073576 0.005367
vt 0.131378 0.005367
vt 0.131377 0.972821
vt 0.960024 0.687080
vt 0.961440 0.687083
vt 0.961472 0.688535
vt 0.960020 0.688496
vt 0.962640 0.687086
vt 0.962449 0.688464
vt 0.059800 0.001949
vt 0.061251 0.002289
vt 0.061175 0.002939
vt 0.059797 0.002751
vt 0.962155 0.689222
vt 0.961395 0.689512
vt 0.138162 0.003400
vt 0.138128 0.001949
vt 0.139578 0.001984
vt 0.063218 0.005367
vt 0.062413 0.005367
vt 0.062225 0.003989
vt 0.062878 0.003916
vt 0.963443 0.687089
vt 0.963099 0.688539
vt 0.973220 0.002024
vt 0.973294 0.002999
vt 0.972535 0.002706
vt 0.972243 0.001949
vt 0.059795 0.003951
vt 0.061247 0.003916
vt 0.061210 0.005367
vt 0.061934 0.003231
vt 0.061211 0.972821
vt 0.061247 0.974272
vt 0.059795 0.974237
vt 0.062413 0.972821
vt 0.062225 0.974199
vt 0.061175 0.975249
vt 0.059797 0.975437
vt 0.061934 0.974957
vt 0.139578 0.972270
vt 0.138128 0.972305
vt 0.138162 0.970854
vt 0.833930 0.687089
vt 0.834732 0.687087
vt 0.834924 0.688464
vt 0.834274 0.688539
vt 0.063218 0.972821
vt 0.062878 0.974272
vt 0.980555 0.002024
vt 0.981531 0.001949
vt 0.981239 0.002707
vt 0.980481 0.003000
vt 0.837352 0.688496
vt 0.835901 0.688535
vt 0.835932 0.687084
vt 0.059800 0.976239
vt 0.061251 0.975900
vt 0.835977 0.689512
vt 0.835218 0.689222
vt 0.834196 0.004376
vt 0.834157 0.002926
vt 0.835609 0.002957
vt 0.832996 0.004380
vt 0.833181 0.003002
vt 0.073581 0.976239
vt 0.072130 0.975900
vt 0.072201 0.975249
vt 0.073578 0.975437
vt 0.833471 0.002242
vt 0.834228 0.001949
vt 0.823701 0.970854
vt 0.823737 0.972305
vt 0.822285 0.972270
vt 0.070163 0.972821
vt 0.070962 0.972821
vt 0.071151 0.974199
vt 0.070503 0.974272
vt 0.832194 0.004382
vt 0.832530 0.002930
vt 0.988793 0.002927
vt 0.988719 0.001949
vt 0.989478 0.002240
vt 0.989769 0.002999
vt 0.073576 0.974237
vt 0.072126 0.974272
vt 0.072160 0.972821
vt 0.071443 0.974957
vt 0.961760 0.004373
vt 0.961764 0.002957
vt 0.963215 0.002926
vt 0.963176 0.004377
vt 0.073581 0.001949
vt 0.073579 0.002751
vt 0.072201 0.002939
vt 0.072130 0.002289
vt 0.964192 0.003002
vt 0.964377 0.004380
vt 0.963144 0.001949
vt 0.963902 0.002242
vt 0.072160 0.005367
vt 0.072126 0.003916
vt 0.073576 0.003951
vt 0.070962 0.005367
vt 0.071151 0.003989
vt 0.071443 0.003231
vt 0.822285 0.001984
vt 0.823737 0.001949
vt 0.823701 0.003400
vt 0.965179 0.004382
vt 0.964842 0.002930
vt 0.070163 0.005367
vt 0.070503 0.003916
vt 0.997934 0.002927
vt 0.996957 0.003000
vt 0.997249 0.002240
vt 0.998008 0.001949
vt 0.903958 0.004226
vt 0.903962 0.002810
vt 0.131384 0.001949
vt 0.131380 0.002751
vt 0.131378 0.003951
vt 0.893411 0.002810
vt 0.131383 0.976239
vt 0.131380 0.975437
vt 0.131378 0.974237
vt 0.001993 0.003951
vt 0.001995 0.002751
vt 0.001998 0.001949
vt 0.902219 0.688349
vt 0.902222 0.686933
vt 0.895154 0.688349
vt 0.001998 0.976239
vt 0.001995 0.975437
vt 0.001993 0.974237
vn -1.0000 0.0026 0.0000
vn -0.0025 -1.0000 0.0000
vn -0.0000 0.0000 1.0000
vn 1.0000 -0.0025 0.0000
vn -0.2199 -0.1899 -0.9569
vn -0.1908 -0.2192 -0.9569
vn -0.1875 -0.5454 -0.8169
vn -0.1779 -0.5543 -0.8131
vn -0.5552 -0.1757 -0.8130
vn -0.5466 -0.1846 -0.8168
vn -0.4745 -0.5116 -0.7164
vn -0.5139 -0.4720 -0.7163
vn -0.1925 -0.9564 -0.2197
vn -0.2219 -0.9564 -0.1900
vn -0.5479 -0.8155 -0.1865
vn -0.5567 -0.8117 -0.1769
vn -0.1790 -0.8127 -0.5545
vn -0.1879 -0.8165 -0.5459
vn -0.5145 -0.7152 -0.4731
vn -0.4749 -0.7153 -0.5126
vn -0.9574 -0.2172 -0.1901
vn -0.9573 -0.1876 -0.2199
vn -0.8173 -0.1838 -0.5461
vn -0.8134 -0.1749 -0.5547
vn -0.8143 -0.5528 -0.1769
vn -0.8183 -0.5438 -0.1862
vn -0.7177 -0.4715 -0.5125
vn -0.7175 -0.5111 -0.4732
vn -0.9574 -0.1877 0.2193
vn -0.9575 -0.2168 0.1903
vn -0.8184 -0.5438 0.1859
vn -0.8145 -0.5526 0.1768
vn -0.8134 -0.1744 0.5549
vn -0.8173 -0.1840 0.5461
vn -0.7175 -0.5107 0.4738
vn -0.7176 -0.4713 0.5127
vn -0.2219 -0.9563 0.1904
vn -0.1928 -0.9564 0.2194
vn -0.1882 -0.8165 0.5458
vn -0.1789 -0.8126 0.5546
vn -0.5564 -0.8119 0.1769
vn -0.5477 -0.8156 0.1863
vn -0.4748 -0.7154 0.5126
vn -0.5139 -0.7153 0.4735
vn -0.1914 -0.2190 0.9568
vn -0.2200 -0.1901 0.9568
vn -0.5465 -0.1847 0.8168
vn -0.5549 -0.1755 0.8132
vn -0.1784 -0.5544 0.8129
vn -0.1874 -0.5455 0.8169
vn -0.5139 -0.4718 0.7165
vn -0.4737 -0.5117 0.7168
vn 0.2189 -0.1911 0.9568
vn 0.1902 -0.2200 0.9568
vn 0.1846 -0.5467 0.8167
vn 0.1757 -0.5551 0.8130
vn 0.5543 -0.1785 0.8130
vn 0.5455 -0.1875 0.8169
vn 0.4708 -0.5143 0.7168
vn 0.5114 -0.4737 0.7170
vn 0.1880 -0.9573 0.2195
vn 0.2169 -0.9574 0.1905
vn 0.5438 -0.8183 0.1862
vn 0.5526 -0.8144 0.1770
vn 0.1746 -0.8135 0.5548
vn 0.1840 -0.8173 0.5460
vn 0.5110 -0.7179 0.4727
vn 0.4705 -0.7180 0.5129
vn 0.9564 -0.2216 0.1902
vn 0.9565 -0.1928 0.2192
vn 0.8163 -0.1884 0.5460
vn 0.8124 -0.1785 0.5552
vn 0.8113 -0.5574 0.1764
vn 0.8155 -0.5480 0.1863
vn 0.7151 -0.4744 0.5134
vn 0.7152 -0.5149 0.4726
vn 0.1896 -0.2202 -0.9568
vn 0.2192 -0.1909 -0.9568
vn 0.5455 -0.1876 -0.8169
vn 0.5540 -0.1788 -0.8131
vn 0.1757 -0.5552 -0.8130
vn 0.1849 -0.5465 -0.8168
vn 0.5110 -0.4740 -0.7170
vn 0.4710 -0.5142 -0.7168
vn 0.9564 -0.1928 -0.2194
vn 0.9563 -0.2220 -0.1901
vn 0.8156 -0.5479 -0.1861
vn 0.8115 -0.5569 -0.1767
vn 0.8125 -0.1790 -0.5549
vn 0.8164 -0.1883 -0.5460
vn 0.7152 -0.5148 -0.4728
vn 0.7154 -0.4746 -0.5129
vn 0.2172 -0.9573 -0.1907
vn 0.1883 -0.9573 -0.2195
vn 0.1842 -0.8174 -0.5459
vn 0.1749 -0.8133 -0.5549
vn 0.5523 -0.8146 -0.1772
vn 0.5438 -0.8183 -0.1860
vn 0.4704 -0.7180 -0.5131
vn 0.5108 -0.7181 -0.4727
vn -0.0005 -0.1951 -0.9808
vn -0.0005 -0.1952 -0.9808
vn -0.0014 -0.5557 -0.8314
vn -0.0014 -0.5554 -0.8316
vn -0.0021 -0.8315 -0.5555
vn -0.0021 -0.8314 -0.5557
vn -0.0025 -0.9807 -0.1956
vn -0.0025 -0.9808 -0.1949
vn -0.1977 -0.9803 -0.0000
vn -0.1973 -0.9803 -0.0000
vn -0.5575 -0.8302 -0.0000
vn -0.5576 -0.8301 -0.0000
vn -0.8329 -0.5534 -0.0000
vn -0.8328 -0.5535 -0.0000
vn -0.9813 -0.1924 0.0000
vn -0.0025 -0.9808 0.1952
vn -0.0025 -0.9808 0.1951
vn -0.0021 -0.8315 0.5556
vn -0.0021 -0.8314 0.5557
vn -0.0005 -0.1953 0.9807
vn -0.0005 -0.1954 0.9807
vn 0.1930 -0.9812 0.0000
vn 0.1927 -0.9813 -0.0000
vn 0.5535 -0.8328 0.0000
vn 0.5535 -0.8329 -0.0000
vn 0.8301 -0.5577 -0.0000
vn 0.8300 -0.5578 -0.0000
vn 0.9803 -0.1976 -0.0000
vn 0.1952 -0.0005 -0.9808
vn 0.1951 -0.0005 -0.9808
vn 0.5556 -0.0014 -0.8315
vn 0.5559 -0.0014 -0.8313
vn 0.8316 -0.0021 -0.5554
vn 0.8314 -0.0021 -0.5557
vn 0.9807 -0.0025 -0.1954
vn 0.9808 -0.0025 -0.1949
vn 0.1954 -0.0005 0.9807
vn 0.1953 -0.0005 0.9807
vn 0.5556 -0.0014 0.8315
vn 0.5557 -0.0014 0.8313
vn 0.8314 -0.0021 0.5557
vn 0.9808 -0.0025 0.1950
vn 0.9808 -0.0025 0.1952
vn -0.9809 0.0025 -0.1947
vn -0.9808 0.0025 -0.1950
vn -0.8314 0.0021 -0.5557
vn -0.8313 0.0021 -0.5558
vn -0.5557 0.0014 -0.8314
vn -0.5559 0.0014 -0.8312
vn -0.1952 0.0005 -0.9808
vn -0.1951 0.0005 -0.9808
vn -0.1952 0.0005 0.9808
vn -0.1955 0.0005 0.9807
vn -0.5556 0.0014 0.8314
vn -0.5557 0.0014 0.8314
vn -0.8317 0.0021 0.5552
vn -0.8314 0.0021 0.5557
vn -0.9807 0.0025 0.1954
vn -0.9808 0.0025 0.1950
vn 0.0000 0.0000 -1.0000
vn -0.0014 -0.5558 0.8313
vn -0.0014 -0.5557 0.8314
usemtl None
s off
f 1/1/1 2/2/1 3/3/1
f 1/1/1 3/3/1 4/4/1
f 5/5/2 6/6/2 7/7/2
f 5/5/2 7/7/2 8/8/2
f 9/9/3 10/10/3 11/11/3
f 9/9/3 11/11/3 12/12/3
f 13/13/4 14/14/4 15/15/4
f 13/13/4 15/15/4 16/16/4
f 17/17/5 18/18/5 19/19/5
f 17/17/6 19/19/6 20/20/6
f 18/18/7 21/21/7 22/22/7
f 18/18/8 22/22/8 19/19/8
f 23/23/9 24/24/9 25/25/9
f 23/23/10 25/25/10 26/26/10
f 19/19/11 22/22/11 27/27/11
f 19/19/12 27/27/12 28/28/12
f 5/5/13 29/29/13 30/30/13
f 5/5/14 30/30/14 31/31/14
f 32/32/15 33/33/15 34/34/15
f 32/32/16 34/34/16 35/35/16
f 36/36/17 37/37/17 22/22/17
f 36/36/18 22/22/18 21/21/18
f 38/38/19 39/39/19 40/40/19
f 38/38/20 40/40/20 41/41/20
f 1/1/21 42/42/21 43/43/21
f 1/1/22 43/43/22 44/44/22
f 42/42/23 26/26/23 25/25/23
f 42/42/24 25/25/24 43/43/24
f 44/44/25 43/43/25 34/34/25
f 44/44/26 34/34/26 33/33/26
f 43/43/27 25/25/27 45/45/27
f 43/43/28 45/45/28 34/34/28
f 2/2/29 46/46/29 47/47/29
f 2/2/30 47/47/30 48/48/30
f 46/46/31 49/49/31 50/50/31
f 46/46/32 50/50/32 47/47/32
f 48/48/33 47/47/33 51/51/33
f 48/48/34 51/51/34 52/52/34
f 47/47/35 50/50/35 53/53/35
f 47/47/36 53/53/36 51/51/36
f 8/8/37 54/54/37 55/55/37
f 8/8/38 55/55/38 56/56/38
f 57/57/39 58/58/39 59/59/39
f 57/57/40 59/59/40 60/60/40
f 61/61/41 62/62/41 50/50/41
f 61/61/42 50/50/42 49/49/42
f 63/63/43 64/64/43 65/65/43
f 63/63/44 65/65/44 66/66/44
f 9/9/45 67/67/45 68/68/45
f 9/9/46 68/68/46 69/69/46
f 70/70/47 52/52/47 51/51/47
f 70/70/48 51/51/48 71/71/48
f 69/69/49 68/68/49 59/59/49
f 69/69/50 59/59/50 58/58/50
f 68/68/51 72/72/51 73/73/51
f 68/68/52 73/73/52 59/59/52
f 10/10/53 74/74/53 75/75/53
f 10/10/54 75/75/54 76/76/54
f 74/74/55 77/77/55 78/78/55
f 74/74/56 78/78/56 75/75/56
f 79/79/57 80/80/57 81/81/57
f 79/79/58 81/81/58 82/82/58
f 75/75/59 78/78/59 83/83/59
f 75/75/60 83/83/60 84/84/60
f 7/7/61 85/85/61 86/86/61
f 7/7/62 86/86/62 87/87/62
f 88/88/63 89/89/63 90/90/63
f 88/88/64 90/90/64 91/91/64
f 92/92/65 93/93/65 78/78/65
f 92/92/66 78/78/66 77/77/66
f 94/94/67 95/95/67 96/96/67
f 94/94/68 96/96/68 97/97/68
f 13/13/69 98/98/69 99/99/69
f 13/13/70 99/99/70 100/100/70
f 98/98/71 82/82/71 81/81/71
f 98/98/72 81/81/72 99/99/72
f 100/100/73 99/99/73 90/90/73
f 100/100/74 90/90/74 89/89/74
f 99/99/75 81/81/75 101/101/75
f 99/99/76 101/101/76 90/90/76
f 102/102/77 103/103/77 104/104/77
f 102/102/78 104/104/78 105/105/78
f 106/106/79 107/107/79 108/108/79
f 106/106/80 108/108/80 109/109/80
f 105/105/81 104/104/81 110/110/81
f 105/105/82 110/110/82 111/111/82
f 104/104/83 112/112/83 113/113/83
f 104/104/84 113/113/84 110/110/84
f 14/14/85 114/114/85 115/115/85
f 14/14/86 115/115/86 116/116/86
f 114/114/87 117/117/87 118/118/87
f 114/114/88 118/118/88 115/115/88
f 116/116/89 115/115/89 108/108/89
f 116/116/90 108/108/90 107/107/90
f 115/115/91 118/118/91 119/119/91
f 115/115/92 119/119/92 108/108/92
f 6/6/93 120/120/93 121/121/93
f 6/6/94 121/121/94 122/122/94
f 123/123/95 111/111/95 110/110/95
f 123/123/96 110/110/96 124/124/96
f 125/125/97 126/126/97 118/118/97
f 125/125/98 118/118/98 117/117/98
f 127/127/99 128/128/99 129/129/99
f 127/127/100 129/129/100 130/130/100
f 17/17/101 102/102/101 105/105/101
f 17/17/102 105/105/102 18/18/102
f 18/18/103 105/105/103 111/111/103
f 18/18/104 111/111/104 21/21/104
f 21/21/105 111/111/105 123/123/105
f 21/21/106 123/123/106 36/36/106
f 31/31/107 120/120/107 6/6/107
f 31/31/108 6/6/108 5/5/108
f 5/5/109 8/8/109 56/56/109
f 5/5/110 56/56/110 29/29/110
f 32/32/111 61/61/111 49/49/111
f 32/32/112 49/49/112 33/33/112
f 33/33/113 49/49/113 46/46/113
f 33/33/114 46/46/114 44/44/114
f 44/44/115 46/46/115 2/2/115
f 2/2/115 1/1/115 44/44/115
f 8/8/116 7/7/116 87/87/116
f 8/8/117 87/87/117 54/54/117
f 57/57/118 92/92/118 77/77/118
f 57/57/119 77/77/119 58/58/119
f 69/69/120 74/74/120 10/10/120
f 69/69/121 10/10/121 9/9/121
f 7/7/122 6/6/122 122/122/122
f 7/7/123 122/122/123 85/85/123
f 88/88/124 125/125/124 117/117/124
f 88/88/125 117/117/125 89/89/125
f 89/89/126 117/117/126 114/114/126
f 89/89/127 114/114/127 100/100/127
f 100/100/128 114/114/128 14/14/128
f 100/100/128 14/14/128 13/13/128
f 102/102/129 131/131/129 132/132/129
f 102/102/130 132/132/130 103/103/130
f 106/106/131 133/133/131 134/134/131
f 106/106/132 134/134/132 107/107/132
f 107/107/133 134/134/133 135/135/133
f 107/107/134 135/135/134 116/116/134
f 116/116/135 135/135/135 15/15/135
f 116/116/136 15/15/136 14/14/136
f 11/11/137 10/10/137 76/76/137
f 11/11/138 76/76/138 136/136/138
f 137/137/139 79/79/139 82/82/139
f 137/137/140 82/82/140 138/138/140
f 138/138/141 82/82/141 98/98/141
f 138/138/141 98/98/141 139/139/141
f 139/139/142 98/98/142 13/13/142
f 139/139/143 13/13/143 16/16/143
f 1/1/144 4/4/144 140/140/144
f 1/1/145 140/140/145 42/42/145
f 42/42/146 140/140/146 141/141/146
f 42/42/147 141/141/147 26/26/147
f 26/26/148 141/141/148 142/142/148
f 26/26/149 142/142/149 23/23/149
f 20/20/150 143/143/150 144/144/150
f 20/20/151 144/144/151 17/17/151
f 9/9/152 12/12/152 145/145/152
f 9/9/153 145/145/153 67/67/153
f 70/70/154 146/146/154 147/147/154
f 70/70/155 147/147/155 52/52/155
f 52/52/156 147/147/156 148/148/156
f 52/52/157 148/148/157 48/48/157
f 48/48/158 148/148/158 3/3/158
f 48/48/159 3/3/159 2/2/159
f 102/102/160 17/17/160 144/144/160
f 102/102/160 144/144/160 131/131/160
f 58/58/161 77/77/161 74/74/161
f 58/58/162 74/74/162 69/69/162
