ply
format ascii 1.0
comment Created by Blender 2.80 (sub 75) - www.blender.org, source file: 'breafast_room.blend'
element vertex 360
property float x
property float y
property float z
property float nx
property float ny
property float nz
property float s
property float t
element face 480
property list uchar uint vertex_indices
end_header
-3.147315 2.094106 0.941554 0.214789 -0.172246 0.961333 0.518337 0.887978
-3.154147 2.083627 0.941554 0.246834 -0.133641 0.959777 0.518337 0.887978
-3.134794 2.067069 0.934277 0.195166 -0.102176 0.975402 0.518337 0.887978
-3.127472 2.078193 0.934277 0.167943 -0.134678 0.976531 0.518337 0.887978
-3.158803 2.072017 0.941554 0.275979 -0.100131 0.955901 0.518337 0.887978
-3.139910 2.054777 0.934277 0.216865 -0.075442 0.973266 0.518337 0.887978
-3.200563 1.928541 0.941554 0.286630 -0.063601 0.955901 0.518337 0.887978
-3.175369 1.932950 0.934277 0.223487 -0.052705 0.973266 0.518337 0.887978
-3.202864 1.916246 0.941554 0.280007 -0.019684 0.959777 0.518337 0.887978
-3.177648 1.919832 0.934277 0.219520 -0.018494 0.975402 0.518337 0.887978
-3.202723 1.903738 0.941554 0.273690 0.030061 0.961333 0.518337 0.887978
-3.177440 1.906517 0.934277 0.213996 0.023499 0.976531 0.518337 0.887978
-3.086645 2.025872 0.924892 0.132969 -0.070070 0.988617 0.518337 0.887978
-3.078105 2.038602 0.924892 0.114536 -0.091861 0.989135 0.518337 0.887978
-3.092906 2.011884 0.924892 0.150029 -0.051332 0.987335 0.518337 0.887978
-3.112688 1.943918 0.924892 0.154149 -0.037202 0.987335 0.518337 0.887978
-3.114912 1.928755 0.924892 0.149815 -0.012207 0.988617 0.518337 0.887978
-3.114537 1.913430 0.924892 0.145940 0.016022 0.989135 0.518337 0.887978
-2.916924 1.674540 0.941554 -0.030061 0.273690 0.961333 0.518337 0.887978
-2.904684 1.677119 0.941554 -0.080050 0.269051 0.959777 0.518337 0.887978
-2.906660 1.702512 0.934277 -0.065737 0.210242 0.975402 0.518337 0.887978
-2.919703 1.699823 0.934277 -0.023499 0.213996 0.976531 0.518337 0.887978
-2.893182 1.682036 0.941554 -0.124332 0.265969 0.955901 0.518337 0.887978
-2.894351 1.707586 0.934277 -0.099979 0.206702 0.973266 0.518337 0.887978
-2.762200 1.753960 0.941554 -0.157689 0.247658 0.955901 0.518337 0.887978
-2.783132 1.768658 0.934277 -0.120762 0.195288 0.973266 0.518337 0.887978
-2.751879 1.761027 0.941554 -0.184057 0.211921 0.959777 0.518337 0.887978
-2.772245 1.776321 0.934277 -0.142125 0.168310 0.975402 0.518337 0.887978
-2.743134 1.769971 0.941554 -0.214789 0.172246 0.961333 0.518337 0.887978
-2.762977 1.785884 0.934277 -0.167943 0.134678 0.976531 0.518337 0.887978
-2.911575 1.765689 0.924892 -0.044465 0.143590 0.988617 0.518337 0.887978
-2.926616 1.762726 0.924892 -0.016022 0.145940 0.989135 0.518337 0.887978
-2.897258 1.771153 0.924892 -0.069796 0.142399 0.987335 0.518337 0.887978
-2.835210 1.805224 0.924892 -0.082675 0.135319 0.987335 0.518337 0.887978
-2.822916 1.814373 0.924892 -0.097293 0.114566 0.988617 0.518337 0.887978
-2.812344 1.825475 0.924892 -0.114536 0.091861 0.989135 0.518337 0.887978
-2.736302 1.780450 0.941554 -0.246834 0.133641 0.959777 0.518337 0.887978
-2.755655 1.797008 0.934277 -0.195166 0.102176 0.975402 0.518337 0.887978
-2.731646 1.792060 0.941554 -0.276009 0.100131 0.955901 0.518337 0.887978
-2.750539 1.809300 0.934277 -0.216865 0.075442 0.973266 0.518337 0.887978
-2.689887 1.935536 0.941554 -0.286630 0.063601 0.955901 0.518337 0.887978
-2.715080 1.931128 0.934277 -0.223487 0.052705 0.973266 0.518337 0.887978
-2.687585 1.947831 0.941554 -0.280007 0.019684 0.959777 0.518337 0.887978
-2.712801 1.944245 0.934277 -0.219520 0.018494 0.975402 0.518337 0.887978
-2.687726 1.960339 0.941554 -0.273690 -0.030061 0.961333 0.518337 0.887978
-2.713009 1.957561 0.934277 -0.213996 -0.023499 0.976531 0.518337 0.887978
-2.803804 1.838205 0.924892 -0.132969 0.070070 0.988617 0.518337 0.887978
-2.797543 1.852193 0.924892 -0.150029 0.051332 0.987335 0.518337 0.887978
-2.777761 1.920160 0.924892 -0.154149 0.037202 0.987335 0.518337 0.887978
-2.775537 1.935322 0.924892 -0.149815 0.012207 0.988617 0.518337 0.887978
-2.775912 1.950647 0.924892 -0.145940 -0.016022 0.989135 0.518337 0.887978
-3.107292 1.729948 0.941554 0.172246 0.214789 0.961333 0.518337 0.887978
-3.096813 1.723117 0.941554 0.133641 0.246834 0.959777 0.518337 0.887978
-3.080255 1.742469 0.934277 0.102176 0.195166 0.975402 0.518337 0.887978
-3.091379 1.749791 0.934277 0.134678 0.167943 0.976531 0.518337 0.887978
-3.085204 1.718460 0.941554 0.100131 0.275979 0.955901 0.518337 0.887978
-3.067963 1.737353 0.934277 0.075442 0.216865 0.973266 0.518337 0.887978
-2.941727 1.676701 0.941554 0.063601 0.286630 0.955901 0.518337 0.887978
-2.946136 1.701895 0.934277 0.052705 0.223487 0.973266 0.518337 0.887978
-2.929432 1.674399 0.941554 0.019684 0.280007 0.959777 0.518337 0.887978
-2.933018 1.699615 0.934277 0.018494 0.219520 0.975402 0.518337 0.887978
-3.039058 1.790618 0.924892 0.070070 0.132969 0.988617 0.518337 0.887978
-3.051788 1.799158 0.924892 0.091861 0.114536 0.989135 0.518337 0.887978
-3.025070 1.784357 0.924892 0.051332 0.150029 0.987335 0.518337 0.887978
-2.957104 1.764575 0.924892 0.037202 0.154149 0.987335 0.518337 0.887978
-2.941941 1.762352 0.924892 0.012207 0.149815 0.988617 0.518337 0.887978
-3.200144 1.891498 0.941554 0.269051 0.080020 0.959777 0.518337 0.887978
-3.174751 1.893474 0.934277 0.210242 0.065737 0.975402 0.518337 0.887978
-3.195227 1.879996 0.941554 0.265969 0.124332 0.955901 0.518337 0.887978
-3.169677 1.881165 0.934277 0.206702 0.099979 0.973266 0.518337 0.887978
-3.123303 1.749014 0.941554 0.247658 0.157689 0.955901 0.518337 0.887978
-3.108605 1.769946 0.934277 0.195288 0.120762 0.973266 0.518337 0.887978
-3.116236 1.738693 0.941554 0.211921 0.184057 0.959777 0.518337 0.887978
-3.100942 1.759059 0.934277 0.168310 0.142125 0.975402 0.518337 0.887978
-3.111574 1.898389 0.924892 0.143590 0.044465 0.988617 0.518337 0.887978
-3.106111 1.884072 0.924892 0.142399 0.069796 0.987335 0.518337 0.887978
-3.072039 1.822024 0.924892 0.135319 0.082675 0.987335 0.518337 0.887978
-3.062890 1.809730 0.924892 0.114566 0.097293 0.988617 0.518337 0.887978
-2.973525 2.189537 0.941554 0.030061 -0.273690 0.961333 0.518337 0.887978
-2.985765 2.186958 0.941554 0.080020 -0.269051 0.959777 0.518337 0.887978
-2.983790 2.161565 0.934277 0.065737 -0.210242 0.975402 0.518337 0.887978
-2.970747 2.164254 0.934277 0.023499 -0.213996 0.976531 0.518337 0.887978
-2.997267 2.182041 0.941554 0.124332 -0.265969 0.955901 0.518337 0.887978
-2.996099 2.156491 0.934277 0.099979 -0.206702 0.973266 0.518337 0.887978
-3.128249 2.110117 0.941554 0.157689 -0.247658 0.955901 0.518337 0.887978
-3.107317 2.095419 0.934277 0.120762 -0.195288 0.973266 0.518337 0.887978
-3.138571 2.103050 0.941554 0.184057 -0.211921 0.959777 0.518337 0.887978
-3.118204 2.087756 0.934277 0.142125 -0.168310 0.975402 0.518337 0.887978
-2.978874 2.098388 0.924892 0.044465 -0.143590 0.988617 0.518337 0.887978
-2.963833 2.101351 0.924892 0.016022 -0.145940 0.989135 0.518337 0.887978
-2.993191 2.092925 0.924892 0.069796 -0.142399 0.987335 0.518337 0.887978
-3.055239 2.058853 0.924892 0.082675 -0.135319 0.987335 0.518337 0.887978
-3.067533 2.049704 0.924892 0.097293 -0.114566 0.988617 0.518337 0.887978
-2.783157 2.134129 0.941554 -0.172246 -0.214789 0.961333 0.518337 0.887978
-2.793636 2.140961 0.941554 -0.133641 -0.246834 0.959777 0.518337 0.887978
-2.810194 2.121608 0.934277 -0.102176 -0.195166 0.975402 0.518337 0.887978
-2.799070 2.114286 0.934277 -0.134678 -0.167943 0.976531 0.518337 0.887978
-2.805246 2.145617 0.941554 -0.100131 -0.275979 0.955901 0.518337 0.887978
-2.822486 2.126724 0.934277 -0.075442 -0.216865 0.973266 0.518337 0.887978
-2.948722 2.187377 0.941554 -0.063601 -0.286630 0.955901 0.518337 0.887978
-2.944314 2.162183 0.934277 -0.052705 -0.223487 0.973266 0.518337 0.887978
-2.961017 2.189678 0.941554 -0.019684 -0.280007 0.959777 0.518337 0.887978
-2.957431 2.164462 0.934277 -0.018494 -0.219520 0.975402 0.518337 0.887978
-2.851391 2.073459 0.924892 -0.070070 -0.132969 0.988617 0.518337 0.887978
-2.838661 2.064919 0.924892 -0.091861 -0.114536 0.989135 0.518337 0.887978
-2.865379 2.079720 0.924892 -0.051332 -0.150029 0.987335 0.518337 0.887978
-2.933346 2.099502 0.924892 -0.037202 -0.154149 0.987335 0.518337 0.887978
-2.948508 2.101726 0.924892 -0.012207 -0.149815 0.988617 0.518337 0.887978
-2.690305 1.972579 0.941554 -0.269051 -0.080020 0.959777 0.518337 0.887978
-2.715698 1.970604 0.934277 -0.210242 -0.065737 0.975402 0.518337 0.887978
-2.695222 1.984081 0.941554 -0.265969 -0.124332 0.955901 0.518337 0.887978
-2.720772 1.982913 0.934277 -0.206702 -0.099979 0.973266 0.518337 0.887978
-2.767146 2.115063 0.941554 -0.247658 -0.157689 0.955901 0.518337 0.887978
-2.781844 2.094131 0.934277 -0.195288 -0.120762 0.973266 0.518337 0.887978
-2.774213 2.125385 0.941554 -0.211921 -0.184057 0.959777 0.518337 0.887978
-2.789507 2.105018 0.934277 -0.168310 -0.142125 0.975402 0.518337 0.887978
-2.778875 1.965688 0.924892 -0.143590 -0.044435 0.988617 0.518337 0.887978
-2.784338 1.980006 0.924892 -0.142399 -0.069796 0.987335 0.518337 0.887978
-2.818410 2.042053 0.924892 -0.135319 -0.082675 0.987335 0.518337 0.887978
-2.827559 2.054347 0.924892 -0.114566 -0.097293 0.988617 0.518337 0.887978
-1.243167 1.286036 0.942048 0.214789 -0.172246 0.961333 0.518337 0.887978
-1.249999 1.275557 0.942048 0.246834 -0.133641 0.959777 0.518337 0.887978
-1.230646 1.258999 0.934771 0.195166 -0.102176 0.975402 0.518337 0.887978
-1.223324 1.270123 0.934771 0.167943 -0.134678 0.976531 0.518337 0.887978
-1.254655 1.263947 0.942048 0.276009 -0.100131 0.955901 0.518337 0.887978
-1.235762 1.246707 0.934771 0.216865 -0.075442 0.973266 0.518337 0.887978
-1.296414 1.120471 0.942048 0.286630 -0.063601 0.955901 0.518337 0.887978
-1.271221 1.124879 0.934771 0.223487 -0.052705 0.973266 0.518337 0.887978
-1.298716 1.108176 0.942048 0.280007 -0.019684 0.959777 0.518337 0.887978
-1.273500 1.111762 0.934771 0.219520 -0.018494 0.975402 0.518337 0.887978
-1.298575 1.095668 0.942048 0.273690 0.030061 0.961333 0.518337 0.887978
-1.273292 1.098447 0.934771 0.213996 0.023499 0.976531 0.518337 0.887978
-1.182497 1.217802 0.925386 0.132969 -0.070070 0.988617 0.518337 0.887978
-1.173957 1.230532 0.925386 0.114536 -0.091861 0.989135 0.518337 0.887978
-1.188758 1.203814 0.925386 0.150029 -0.051332 0.987335 0.518337 0.887978
-1.208540 1.135847 0.925386 0.154149 -0.037202 0.987335 0.518337 0.887978
-1.210763 1.120685 0.925386 0.149815 -0.012207 0.988617 0.518337 0.887978
-1.210389 1.105360 0.925386 0.145940 0.016022 0.989135 0.518337 0.887978
-1.012776 0.866470 0.942048 -0.030061 0.273690 0.961333 0.518337 0.887978
-1.000536 0.869049 0.942048 -0.080020 0.269051 0.959777 0.518337 0.887978
-1.002511 0.894442 0.934771 -0.065737 0.210242 0.975402 0.518337 0.887978
-1.015554 0.891753 0.934771 -0.023499 0.213996 0.976531 0.518337 0.887978
-0.989034 0.873966 0.942048 -0.124332 0.265969 0.955901 0.518337 0.887978
-0.990202 0.899516 0.934771 -0.099979 0.206702 0.973266 0.518337 0.887978
-0.858052 0.945890 0.942048 -0.157689 0.247658 0.955901 0.518337 0.887978
-0.878984 0.960588 0.934771 -0.120762 0.195288 0.973266 0.518337 0.887978
-0.847730 0.952957 0.942048 -0.184057 0.211921 0.959777 0.518337 0.887978
-0.868097 0.968251 0.934771 -0.142125 0.168310 0.975402 0.518337 0.887978
-0.838986 0.961901 0.942048 -0.214789 0.172246 0.961333 0.518337 0.887978
-0.858829 0.977814 0.934771 -0.167943 0.134678 0.976531 0.518337 0.887978
-1.007427 0.957619 0.925386 -0.044465 0.143590 0.988617 0.518337 0.887978
-1.022468 0.954656 0.925386 -0.016022 0.145940 0.989135 0.518337 0.887978
-0.993110 0.963083 0.925386 -0.069796 0.142399 0.987335 0.518337 0.887978
-0.931062 0.997154 0.925386 -0.082675 0.135319 0.987335 0.518337 0.887978
-0.918768 1.006303 0.925386 -0.097293 0.114566 0.988617 0.518337 0.887978
-0.908196 1.017405 0.925386 -0.114536 0.091861 0.989135 0.518337 0.887978
-0.832154 0.972380 0.942048 -0.246834 0.133641 0.959777 0.518337 0.887978
-0.851507 0.988938 0.934771 -0.195166 0.102176 0.975402 0.518337 0.887978
-0.827498 0.983989 0.942048 -0.275979 0.100131 0.955901 0.518337 0.887978
-0.846391 1.001230 0.934771 -0.216865 0.075442 0.973266 0.518337 0.887978
-0.785738 1.127466 0.942048 -0.286630 0.063601 0.955901 0.518337 0.887978
-0.810932 1.123057 0.934771 -0.223487 0.052675 0.973266 0.518337 0.887978
-0.783437 1.139761 0.942048 -0.280007 0.019684 0.959777 0.518337 0.887978
-0.808653 1.136175 0.934771 -0.219520 0.018494 0.975402 0.518337 0.887978
-0.783578 1.152269 0.942048 -0.273690 -0.030061 0.961333 0.518337 0.887978
-0.808861 1.149490 0.934771 -0.213996 -0.023499 0.976531 0.518337 0.887978
-0.899656 1.030135 0.925386 -0.132969 0.070070 0.988617 0.518337 0.887978
-0.893395 1.044123 0.925386 -0.150029 0.051332 0.987335 0.518337 0.887978
-0.873613 1.112089 0.925386 -0.154149 0.037202 0.987335 0.518337 0.887978
-0.871389 1.127252 0.925386 -0.149815 0.012207 0.988617 0.518337 0.887978
-0.871764 1.142577 0.925386 -0.145940 -0.016022 0.989135 0.518337 0.887978
-1.203144 0.921878 0.942048 0.172246 0.214789 0.961333 0.518337 0.887978
-1.192665 0.915046 0.942048 0.133641 0.246834 0.959777 0.518337 0.887978
-1.176107 0.934399 0.934771 0.102176 0.195166 0.975402 0.518337 0.887978
-1.187231 0.941721 0.934771 0.134678 0.167943 0.976531 0.518337 0.887978
-1.181055 0.910390 0.942048 0.100131 0.275979 0.955901 0.518337 0.887978
-1.163815 0.929283 0.934771 0.075442 0.216865 0.973266 0.518337 0.887978
-1.037579 0.868630 0.942048 0.063601 0.286630 0.955901 0.518337 0.887978
-1.041987 0.893824 0.934771 0.052675 0.223487 0.973266 0.518337 0.887978
-1.025284 0.866329 0.942048 0.019684 0.280007 0.959777 0.518337 0.887978
-1.028870 0.891545 0.934771 0.018494 0.219520 0.975402 0.518337 0.887978
-1.134910 0.982548 0.925386 0.070070 0.132969 0.988617 0.518337 0.887978
-1.147640 0.991088 0.925386 0.091861 0.114536 0.989135 0.518337 0.887978
-1.120922 0.976287 0.925386 0.051332 0.150029 0.987335 0.518337 0.887978
-1.052955 0.956505 0.925386 0.037202 0.154149 0.987335 0.518337 0.887978
-1.037793 0.954281 0.925386 0.012207 0.149815 0.988617 0.518337 0.887978
-1.295996 1.083428 0.942048 0.269051 0.080020 0.959777 0.518337 0.887978
-1.270603 1.085404 0.934771 0.210242 0.065737 0.975402 0.518337 0.887978
-1.291079 1.071926 0.942048 0.265969 0.124332 0.955901 0.518337 0.887978
-1.265529 1.073095 0.934771 0.206702 0.099979 0.973266 0.518337 0.887978
-1.219155 0.940944 0.942048 0.247658 0.157689 0.955901 0.518337 0.887978
-1.204457 0.961876 0.934771 0.195288 0.120762 0.973266 0.518337 0.887978
-1.212088 0.930623 0.942048 0.211921 0.184057 0.959777 0.518337 0.887978
-1.196794 0.950989 0.934771 0.168310 0.142125 0.975402 0.518337 0.887978
-1.207426 1.090319 0.925386 0.143590 0.044465 0.988617 0.518337 0.887978
-1.201962 1.076002 0.925386 0.142399 0.069796 0.987335 0.518337 0.887978
-1.167891 1.013954 0.925386 0.135319 0.082675 0.987335 0.518337 0.887978
-1.158742 1.001660 0.925386 0.114566 0.097293 0.988617 0.518337 0.887978
-1.069377 1.381467 0.942048 0.030061 -0.273690 0.961333 0.518337 0.887978
-1.081617 1.378888 0.942048 0.080020 -0.269051 0.959777 0.518337 0.887978
-1.079641 1.353495 0.934771 0.065737 -0.210242 0.975402 0.518337 0.887978
-1.066598 1.356184 0.934771 0.023499 -0.213996 0.976531 0.518337 0.887978
-1.093119 1.373971 0.942048 0.124332 -0.265969 0.955901 0.518337 0.887978
-1.091951 1.348421 0.934771 0.099979 -0.206702 0.973266 0.518337 0.887978
-1.224101 1.302047 0.942048 0.157689 -0.247658 0.955901 0.518337 0.887978
-1.203169 1.287349 0.934771 0.120762 -0.195288 0.973266 0.518337 0.887978
-1.234422 1.294980 0.942048 0.184057 -0.211921 0.959777 0.518337 0.887978
-1.214056 1.279686 0.934771 0.142125 -0.168310 0.975402 0.518337 0.887978
-1.074726 1.290318 0.925386 0.044465 -0.143590 0.988617 0.518337 0.887978
-1.059685 1.293281 0.925386 0.016022 -0.145940 0.989135 0.518337 0.887978
-1.089043 1.284854 0.925386 0.069796 -0.142399 0.987335 0.518337 0.887978
-1.151091 1.250783 0.925386 0.082675 -0.135319 0.987335 0.518337 0.887978
-1.163385 1.241634 0.925386 0.097293 -0.114566 0.988617 0.518337 0.887978
-0.879009 1.326059 0.942048 -0.172246 -0.214789 0.961333 0.518337 0.887978
-0.889488 1.332891 0.942048 -0.133641 -0.246834 0.959777 0.518337 0.887978
-0.906046 1.313538 0.934771 -0.102176 -0.195166 0.975402 0.518337 0.887978
-0.894922 1.306216 0.934771 -0.134678 -0.167943 0.976531 0.518337 0.887978
-0.901097 1.337547 0.942048 -0.100131 -0.275979 0.955901 0.518337 0.887978
-0.918338 1.318654 0.934771 -0.075442 -0.216865 0.973266 0.518337 0.887978
-1.044574 1.379307 0.942048 -0.063601 -0.286630 0.955901 0.518337 0.887978
-1.040165 1.354113 0.934771 -0.052705 -0.223487 0.973266 0.518337 0.887978
-1.056869 1.381608 0.942048 -0.019684 -0.280007 0.959777 0.518337 0.887978
-1.053283 1.356392 0.934771 -0.018494 -0.219520 0.975402 0.518337 0.887978
-0.947243 1.265389 0.925386 -0.070070 -0.132969 0.988617 0.518337 0.887978
-0.934513 1.256849 0.925386 -0.091861 -0.114536 0.989135 0.518337 0.887978
-0.961230 1.271650 0.925386 -0.051332 -0.150029 0.987335 0.518337 0.887978
-1.029197 1.291432 0.925386 -0.037202 -0.154149 0.987335 0.518337 0.887978
-1.044360 1.293656 0.925386 -0.012207 -0.149815 0.988617 0.518337 0.887978
-0.786156 1.164509 0.942048 -0.269051 -0.080020 0.959777 0.518337 0.887978
-0.811550 1.162533 0.934771 -0.210242 -0.065737 0.975402 0.518337 0.887978
-0.791074 1.176011 0.942048 -0.265969 -0.124332 0.955901 0.518337 0.887978
-0.816624 1.174843 0.934771 -0.206702 -0.099979 0.973266 0.518337 0.887978
-0.862998 1.306993 0.942048 -0.247658 -0.157689 0.955901 0.518337 0.887978
-0.877696 1.286061 0.934771 -0.195288 -0.120762 0.973266 0.518337 0.887978
-0.870065 1.317314 0.942048 -0.211921 -0.184057 0.959777 0.518337 0.887978
-0.885359 1.296948 0.934771 -0.168310 -0.142125 0.975402 0.518337 0.887978
-0.874727 1.157618 0.925386 -0.143590 -0.044465 0.988617 0.518337 0.887978
-0.880190 1.171935 0.925386 -0.142399 -0.069796 0.987335 0.518337 0.887978
-0.914262 1.233983 0.925386 -0.135319 -0.082675 0.987335 0.518337 0.887978
-0.923411 1.246277 0.925386 -0.114566 -0.097293 0.988617 0.518337 0.887978
1.628095 0.733983 0.942048 -0.014069 0.274972 0.961333 0.518337 0.887978
1.640465 0.735843 0.942048 -0.064211 0.273232 0.959777 0.518337 0.887978
1.639973 0.761309 0.934771 -0.053377 0.213721 0.975402 0.518337 0.887978
1.626796 0.759385 0.934771 -0.010987 0.215003 0.976531 0.518337 0.887978
1.652234 0.740081 0.942048 -0.108615 0.272744 0.955901 0.518337 0.887978
1.652557 0.765656 0.934771 -0.087741 0.212195 0.973266 0.518337 0.887978
1.787187 0.804247 0.942048 -0.142979 0.256417 0.955901 0.518337 0.887978
1.767147 0.820140 0.934771 -0.109165 0.202002 0.973266 0.518337 0.887978
1.797902 0.810699 0.942048 -0.171392 0.222297 0.959777 0.518337 0.887978
1.778462 0.827155 0.934771 -0.132054 0.176305 0.975402 0.518337 0.887978
1.807154 0.819118 0.942048 -0.204382 0.184484 0.961333 0.518337 0.887978
1.788272 0.836161 0.934771 -0.159795 0.144230 0.976531 0.518337 0.887978
1.638749 0.824664 0.925386 -0.036012 0.145940 0.988617 0.518337 0.887978
1.623562 0.822584 0.925386 -0.007508 0.146641 0.989135 0.518337 0.887978
1.653361 0.829284 0.925386 -0.061373 0.146214 0.987335 0.518337 0.887978
1.717290 0.859680 0.925386 -0.074648 0.139897 0.987335 0.518337 0.887978
1.730096 0.868097 0.925386 -0.090426 0.120060 0.988617 0.518337 0.887978
1.741297 0.878563 0.925386 -0.108982 0.098361 0.989135 0.518337 0.887978
1.788431 1.184990 0.942048 -0.184484 -0.204382 0.961333 0.518337 0.887978
1.778369 1.192421 0.942048 -0.147801 -0.238624 0.959777 0.518337 0.887978
1.760710 1.174067 0.934771 -0.113376 -0.188879 0.975402 0.518337 0.887978
1.771388 1.166109 0.934771 -0.144230 -0.159795 0.976531 0.518337 0.887978
1.767050 1.197746 0.942048 -0.116062 -0.269692 0.955901 0.518337 0.887978
1.748737 1.179891 0.934771 -0.087985 -0.212104 0.973266 0.518337 0.887978
1.626253 1.247801 0.942048 -0.080203 -0.282418 0.955901 0.518337 0.887978
1.629185 1.222393 0.934771 -0.065645 -0.220038 0.973266 0.518337 0.887978
1.614112 1.250815 0.942048 -0.035981 -0.278390 0.959777 0.518337 0.887978
1.616223 1.225433 0.934771 -0.031281 -0.218055 0.975402 0.518337 0.887978
1.601618 1.251404 0.942048 0.014069 -0.274972 0.961333 0.518337 0.887978
1.602917 1.226002 0.934771 0.010987 -0.215003 0.976531 0.518337 0.887978
1.716776 1.128402 0.925386 -0.077700 -0.128666 0.988617 0.518337 0.887978
1.728987 1.119134 0.925386 -0.098392 -0.108982 0.989135 0.518337 0.887978
1.703177 1.135468 0.925386 -0.059969 -0.146794 0.987335 0.518337 0.887978
1.636479 1.159179 0.925386 -0.046113 -0.151708 0.987335 0.518337 0.887978
1.621472 1.162283 0.925386 -0.020905 -0.148839 0.988617 0.518337 0.887978
1.606151 1.162802 0.925386 0.007477 -0.146641 0.989135 0.518337 0.887978
1.589248 1.249543 0.942048 0.064211 -0.273263 0.959777 0.518337 0.887978
1.589740 1.224078 0.934771 0.053377 -0.213721 0.975402 0.518337 0.887978
1.577479 1.245305 0.942048 0.108615 -0.272774 0.955901 0.518337 0.887978
1.577156 1.219730 0.934771 0.087741 -0.212195 0.973266 0.518337 0.887978
1.442526 1.181140 0.942048 0.142979 -0.256417 0.955901 0.518337 0.887978
1.462566 1.165247 0.934771 0.109165 -0.202002 0.973266 0.518337 0.887978
1.431810 1.174687 0.942048 0.171392 -0.222297 0.959777 0.518337 0.887978
1.451251 1.158231 0.934771 0.132054 -0.176305 0.975402 0.518337 0.887978
1.422559 1.166268 0.942048 0.204382 -0.184484 0.961333 0.518337 0.887978
1.441440 1.149225 0.934771 0.159795 -0.144230 0.976531 0.518337 0.887978
1.590963 1.160722 0.925386 0.036012 -0.145940 0.988617 0.518337 0.887978
1.576352 1.156102 0.925386 0.061373 -0.146214 0.987335 0.518337 0.887978
1.512423 1.125706 0.925386 0.074648 -0.139897 0.987335 0.518337 0.887978
1.499616 1.117289 0.925386 0.090426 -0.120060 0.988617 0.518337 0.887978
1.488415 1.106823 0.925386 0.108982 -0.098361 0.989135 0.518337 0.887978
1.873567 1.005932 0.942048 -0.274972 -0.014069 0.961333 0.518337 0.887978
1.871706 1.018301 0.942048 -0.273263 -0.064211 0.959777 0.518337 0.887978
1.846241 1.017810 0.934771 -0.213721 -0.053377 0.975402 0.518337 0.887978
1.848165 1.004632 0.934771 -0.215003 -0.010987 0.976531 0.518337 0.887978
1.867468 1.030071 0.942048 -0.272774 -0.108615 0.955901 0.518337 0.887978
1.841893 1.030394 0.934771 -0.212195 -0.087741 0.973266 0.518337 0.887978
1.803303 1.165023 0.942048 -0.256417 -0.142979 0.955901 0.518337 0.887978
1.787410 1.144984 0.934771 -0.202002 -0.109165 0.973266 0.518337 0.887978
1.796850 1.175739 0.942048 -0.222297 -0.171392 0.959777 0.518337 0.887978
1.780394 1.156299 0.934771 -0.176305 -0.132054 0.975402 0.518337 0.887978
1.782885 1.016586 0.925386 -0.145940 -0.036012 0.988617 0.518337 0.887978
1.784966 1.001398 0.925386 -0.146641 -0.007477 0.989135 0.518337 0.887978
1.778265 1.031198 0.925386 -0.146214 -0.061373 0.987335 0.518337 0.887978
1.747869 1.095127 0.925386 -0.139897 -0.074648 0.987335 0.518337 0.887978
1.739453 1.107933 0.925386 -0.120060 -0.090426 0.988617 0.518337 0.887978
1.814584 0.829181 0.942048 -0.238624 0.147801 0.959777 0.518337 0.887978
1.796230 0.846840 0.934771 -0.188879 0.113376 0.975402 0.518337 0.887978
1.819910 0.840499 0.942048 -0.269662 0.116062 0.955901 0.518337 0.887978
1.802054 0.858812 0.934771 -0.212073 0.087985 0.973266 0.518337 0.887978
1.869964 0.981297 0.942048 -0.282418 0.080203 0.955901 0.518337 0.887978
1.844556 0.978365 0.934771 -0.220038 0.065645 0.973266 0.518337 0.887978
1.872979 0.993437 0.942048 -0.278359 0.035981 0.959777 0.518337 0.887978
1.847596 0.991327 0.934771 -0.218055 0.031281 0.975402 0.518337 0.887978
1.750565 0.890774 0.925386 -0.128636 0.077700 0.988617 0.518337 0.887978
1.757631 0.904372 0.925386 -0.146794 0.059969 0.987335 0.518337 0.887978
1.781342 0.971070 0.925386 -0.151708 0.046113 0.987335 0.518337 0.887978
1.784446 0.986077 0.925386 -0.148839 0.020905 0.988617 0.518337 0.887978
1.441282 0.800396 0.942048 0.184484 0.204382 0.961333 0.518337 0.887978
1.451344 0.792965 0.942048 0.147801 0.238624 0.959777 0.518337 0.887978
1.469003 0.811319 0.934771 0.113376 0.188879 0.975402 0.518337 0.887978
1.458325 0.819277 0.934771 0.144230 0.159795 0.976531 0.518337 0.887978
1.462663 0.787640 0.942048 0.116062 0.269692 0.955901 0.518337 0.887978
1.480975 0.805495 0.934771 0.087985 0.212104 0.973266 0.518337 0.887978
1.603460 0.737585 0.942048 0.080203 0.282418 0.955901 0.518337 0.887978
1.600528 0.762994 0.934771 0.065645 0.220038 0.973266 0.518337 0.887978
1.615600 0.734571 0.942048 0.035981 0.278390 0.959777 0.518337 0.887978
1.613490 0.759953 0.934771 0.031281 0.218055 0.975402 0.518337 0.887978
1.512937 0.856984 0.925386 0.077731 0.128666 0.988617 0.518337 0.887978
1.500726 0.866252 0.925386 0.098392 0.108982 0.989135 0.518337 0.887978
1.526536 0.849918 0.925386 0.059969 0.146794 0.987335 0.518337 0.887978
1.593234 0.826207 0.925386 0.046113 0.151708 0.987335 0.518337 0.887978
1.608240 0.823103 0.925386 0.020905 0.148839 0.988617 0.518337 0.887978
1.356146 0.979454 0.942048 0.274972 0.014039 0.961333 0.518337 0.887978
1.358006 0.967084 0.942048 0.273232 0.064211 0.959777 0.518337 0.887978
1.383472 0.967576 0.934771 0.213721 0.053377 0.975402 0.518337 0.887978
1.381548 0.980754 0.934771 0.215003 0.010987 0.976531 0.518337 0.887978
1.362245 0.955315 0.942048 0.272774 0.108615 0.955901 0.518337 0.887978
1.387819 0.954992 0.934771 0.212195 0.087741 0.973266 0.518337 0.887978
1.426410 0.820363 0.942048 0.256417 0.142979 0.955901 0.518337 0.887978
1.442303 0.840402 0.934771 0.202002 0.109165 0.973266 0.518337 0.887978
1.432863 0.809647 0.942048 0.222266 0.171392 0.959777 0.518337 0.887978
1.449319 0.829087 0.934771 0.176305 0.132054 0.975402 0.518337 0.887978
1.446828 0.968800 0.925386 0.145940 0.036012 0.988617 0.518337 0.887978
1.444747 0.983988 0.925386 0.146641 0.007477 0.989135 0.518337 0.887978
1.451447 0.954188 0.925386 0.146214 0.061373 0.987335 0.518337 0.887978
1.481843 0.890259 0.925386 0.139897 0.074648 0.987335 0.518337 0.887978
1.490260 0.877453 0.925386 0.120060 0.090457 0.988617 0.518337 0.887978
1.415128 1.156205 0.942048 0.238624 -0.147801 0.959777 0.518337 0.887978
1.433483 1.138546 0.934771 0.188879 -0.113376 0.975402 0.518337 0.887978
1.409803 1.144887 0.942048 0.269692 -0.116062 0.955901 0.518337 0.887978
1.427658 1.126574 0.934771 0.212104 -0.087985 0.973266 0.518337 0.887978
1.359749 1.004089 0.942048 0.282418 -0.080203 0.955901 0.518337 0.887978
1.385157 1.007021 0.934771 0.220038 -0.065645 0.973266 0.518337 0.887978
1.356734 0.991949 0.942048 0.278359 -0.035981 0.959777 0.518337 0.887978
1.382117 0.994059 0.934771 0.218055 -0.031281 0.975402 0.518337 0.887978
1.479147 1.094612 0.925386 0.128666 -0.077700 0.988617 0.518337 0.887978
1.472082 1.081014 0.925386 0.146794 -0.059969 0.987335 0.518337 0.887978
1.448370 1.014316 0.925386 0.151708 -0.046113 0.987335 0.518337 0.887978
1.445266 0.999309 0.925386 0.148839 -0.020905 0.988617 0.518337 0.887978
3 0 1 2
3 0 2 3
3 1 4 5
3 1 5 2
3 4 6 7
3 4 7 5
3 6 8 9
3 6 9 7
3 8 10 11
3 8 11 9
3 3 2 12
3 3 12 13
3 2 5 14
3 2 14 12
3 5 7 15
3 5 15 14
3 7 9 16
3 7 16 15
3 9 11 17
3 9 17 16
3 18 19 20
3 18 20 21
3 19 22 23
3 19 23 20
3 22 24 25
3 22 25 23
3 24 26 27
3 24 27 25
3 26 28 29
3 26 29 27
3 21 20 30
3 21 30 31
3 20 23 32
3 20 32 30
3 23 25 33
3 23 33 32
3 25 27 34
3 25 34 33
3 27 29 35
3 27 35 34
3 28 36 37
3 28 37 29
3 36 38 39
3 36 39 37
3 38 40 41
3 38 41 39
3 40 42 43
3 40 43 41
3 42 44 45
3 42 45 43
3 29 37 46
3 29 46 35
3 37 39 47
3 37 47 46
3 39 41 48
3 39 48 47
3 41 43 49
3 41 49 48
3 43 45 50
3 43 50 49
3 51 52 53
3 51 53 54
3 52 55 56
3 52 56 53
3 55 57 58
3 55 58 56
3 57 59 60
3 57 60 58
3 59 18 21
3 59 21 60
3 54 53 61
3 54 61 62
3 53 56 63
3 53 63 61
3 56 58 64
3 56 64 63
3 58 60 65
3 58 65 64
3 60 21 31
3 60 31 65
3 10 66 67
3 10 67 11
3 66 68 69
3 66 69 67
3 68 70 71
3 68 71 69
3 70 72 73
3 70 73 71
3 72 51 54
3 72 54 73
3 11 67 74
3 11 74 17
3 67 69 75
3 67 75 74
3 69 71 76
3 69 76 75
3 71 73 77
3 71 77 76
3 73 54 62
3 73 62 77
3 78 79 80
3 78 80 81
3 79 82 83
3 79 83 80
3 82 84 85
3 82 85 83
3 84 86 87
3 84 87 85
3 86 0 3
3 86 3 87
3 81 80 88
3 81 88 89
3 80 83 90
3 80 90 88
3 83 85 91
3 83 91 90
3 85 87 92
3 85 92 91
3 87 3 13
3 87 13 92
3 93 94 95
3 93 95 96
3 94 97 98
3 94 98 95
3 97 99 100
3 97 100 98
3 99 101 102
3 99 102 100
3 101 78 81
3 101 81 102
3 96 95 103
3 96 103 104
3 95 98 105
3 95 105 103
3 98 100 106
3 98 106 105
3 100 102 107
3 100 107 106
3 102 81 89
3 102 89 107
3 44 108 109
3 44 109 45
3 108 110 111
3 108 111 109
3 110 112 113
3 110 113 111
3 112 114 115
3 112 115 113
3 114 93 96
3 114 96 115
3 45 109 116
3 45 116 50
3 109 111 117
3 109 117 116
3 111 113 118
3 111 118 117
3 113 115 119
3 113 119 118
3 115 96 104
3 115 104 119
3 120 121 122
3 120 122 123
3 121 124 125
3 121 125 122
3 124 126 127
3 124 127 125
3 126 128 129
3 126 129 127
3 128 130 131
3 128 131 129
3 123 122 132
3 123 132 133
3 122 125 134
3 122 134 132
3 125 127 135
3 125 135 134
3 127 129 136
3 127 136 135
3 129 131 137
3 129 137 136
3 138 139 140
3 138 140 141
3 139 142 143
3 139 143 140
3 142 144 145
3 142 145 143
3 144 146 147
3 144 147 145
3 146 148 149
3 146 149 147
3 141 140 150
3 141 150 151
3 140 143 152
3 140 152 150
3 143 145 153
3 143 153 152
3 145 147 154
3 145 154 153
3 147 149 155
3 147 155 154
3 148 156 157
3 148 157 149
3 156 158 159
3 156 159 157
3 158 160 161
3 158 161 159
3 160 162 163
3 160 163 161
3 162 164 165
3 162 165 163
3 149 157 166
3 149 166 155
3 157 159 167
3 157 167 166
3 159 161 168
3 159 168 167
3 161 163 169
3 161 169 168
3 163 165 170
3 163 170 169
3 171 172 173
3 171 173 174
3 172 175 176
3 172 176 173
3 175 177 178
3 175 178 176
3 177 179 180
3 177 180 178
3 179 138 141
3 179 141 180
3 174 173 181
3 174 181 182
3 173 176 183
3 173 183 181
3 176 178 184
3 176 184 183
3 178 180 185
3 178 185 184
3 180 141 151
3 180 151 185
3 130 186 187
3 130 187 131
3 186 188 189
3 186 189 187
3 188 190 191
3 188 191 189
3 190 192 193
3 190 193 191
3 192 171 174
3 192 174 193
3 131 187 194
3 131 194 137
3 187 189 195
3 187 195 194
3 189 191 196
3 189 196 195
3 191 193 197
3 191 197 196
3 193 174 182
3 193 182 197
3 198 199 200
3 198 200 201
3 199 202 203
3 199 203 200
3 202 204 205
3 202 205 203
3 204 206 207
3 204 207 205
3 206 120 123
3 206 123 207
3 201 200 208
3 201 208 209
3 200 203 210
3 200 210 208
3 203 205 211
3 203 211 210
3 205 207 212
3 205 212 211
3 207 123 133
3 207 133 212
3 213 214 215
3 213 215 216
3 214 217 218
3 214 218 215
3 217 219 220
3 217 220 218
3 219 221 222
3 219 222 220
3 221 198 201
3 221 201 222
3 216 215 223
3 216 223 224
3 215 218 225
3 215 225 223
3 218 220 226
3 218 226 225
3 220 222 227
3 220 227 226
3 222 201 209
3 222 209 227
3 164 228 229
3 164 229 165
3 228 230 231
3 228 231 229
3 230 232 233
3 230 233 231
3 232 234 235
3 232 235 233
3 234 213 216
3 234 216 235
3 165 229 236
3 165 236 170
3 229 231 237
3 229 237 236
3 231 233 238
3 231 238 237
3 233 235 239
3 233 239 238
3 235 216 224
3 235 224 239
3 240 241 242
3 240 242 243
3 241 244 245
3 241 245 242
3 244 246 247
3 244 247 245
3 246 248 249
3 246 249 247
3 248 250 251
3 248 251 249
3 243 242 252
3 243 252 253
3 242 245 254
3 242 254 252
3 245 247 255
3 245 255 254
3 247 249 256
3 247 256 255
3 249 251 257
3 249 257 256
3 258 259 260
3 258 260 261
3 259 262 263
3 259 263 260
3 262 264 265
3 262 265 263
3 264 266 267
3 264 267 265
3 266 268 269
3 266 269 267
3 261 260 270
3 261 270 271
3 260 263 272
3 260 272 270
3 263 265 273
3 263 273 272
3 265 267 274
3 265 274 273
3 267 269 275
3 267 275 274
3 268 276 277
3 268 277 269
3 276 278 279
3 276 279 277
3 278 280 281
3 278 281 279
3 280 282 283
3 280 283 281
3 282 284 285
3 282 285 283
3 269 277 286
3 269 286 275
3 277 279 287
3 277 287 286
3 279 281 288
3 279 288 287
3 281 283 289
3 281 289 288
3 283 285 290
3 283 290 289
3 291 292 293
3 291 293 294
3 292 295 296
3 292 296 293
3 295 297 298
3 295 298 296
3 297 299 300
3 297 300 298
3 299 258 261
3 299 261 300
3 294 293 301
3 294 301 302
3 293 296 303
3 293 303 301
3 296 298 304
3 296 304 303
3 298 300 305
3 298 305 304
3 300 261 271
3 300 271 305
3 250 306 307
3 250 307 251
3 306 308 309
3 306 309 307
3 308 310 311
3 308 311 309
3 310 312 313
3 310 313 311
3 312 291 294
3 312 294 313
3 251 307 314
3 251 314 257
3 307 309 315
3 307 315 314
3 309 311 316
3 309 316 315
3 311 313 317
3 311 317 316
3 313 294 302
3 313 302 317
3 318 319 320
3 318 320 321
3 319 322 323
3 319 323 320
3 322 324 325
3 322 325 323
3 324 326 327
3 324 327 325
3 326 240 243
3 326 243 327
3 321 320 328
3 321 328 329
3 320 323 330
3 320 330 328
3 323 325 331
3 323 331 330
3 325 327 332
3 325 332 331
3 327 243 253
3 327 253 332
3 333 334 335
3 333 335 336
3 334 337 338
3 334 338 335
3 337 339 340
3 337 340 338
3 339 341 342
3 339 342 340
3 341 318 321
3 341 321 342
3 336 335 343
3 336 343 344
3 335 338 345
3 335 345 343
3 338 340 346
3 338 346 345
3 340 342 347
3 340 347 346
3 342 321 329
3 342 329 347
3 284 348 349
3 284 349 285
3 348 350 351
3 348 351 349
3 350 352 353
3 350 353 351
3 352 354 355
3 352 355 353
3 354 333 336
3 354 336 355
3 285 349 356
3 285 356 290
3 349 351 357
3 349 357 356
3 351 353 358
3 351 358 357
3 353 355 359
3 353 359 358
3 355 336 344
3 355 344 359
