ply
format ascii 1.0
comment Created by Blender 2.80 (sub 75) - www.blender.org, source file: 'breafast_room.blend'
element vertex 22
property float x
property float y
property float z
property float nx
property float ny
property float nz
property float s
property float t
element face 22
property list uchar uint vertex_indices
end_header
-6.353170 4.500465 -1.418361 0.000000 -0.706992 -0.707205 0.518337 0.887978
5.263340 4.500440 -1.418361 0.000000 -0.707205 -0.706961 0.518337 0.887978
5.263340 4.500440 -1.202137 0.000000 -0.854762 0.518967 0.518337 0.887978
-6.353170 4.500465 -1.202137 0.000000 -0.854762 0.518967 0.518337 0.887978
-6.353185 4.532269 -1.418361 0.000000 0.707175 -0.706992 0.518337 0.887978
5.263323 4.532245 -1.418361 0.000000 0.706992 -0.707205 0.518337 0.887978
-6.353170 4.532269 -1.141165 0.000000 0.704611 0.709555 0.518337 0.887978
5.263340 4.532245 -1.141165 0.000000 0.704581 0.709586 0.518337 0.887978
-6.353170 4.519215 -1.141257 0.000000 -0.286386 0.958098 0.518337 0.887978
5.263340 4.519190 -1.141257 0.000000 -0.286386 0.958098 0.518337 0.887978
-6.353170 4.510457 -1.146919 0.000000 -0.694601 0.719352 0.518337 0.887978
5.263340 4.510431 -1.146919 0.000000 -0.694601 0.719352 0.518337 0.887978
-6.353170 4.503486 -1.156916 0.000000 -0.913877 0.405927 0.518337 0.887978
5.263340 4.503461 -1.156916 0.000000 -0.913877 0.405927 0.518337 0.887978
-6.353170 4.500468 -1.169972 0.000000 -0.999695 0.024201 0.518337 0.887978
5.263340 4.500443 -1.169972 0.000000 -0.999695 0.024201 0.518337 0.887978
-6.353170 4.502804 -1.182905 0.000000 -0.914579 -0.404370 0.518337 0.887978
5.263340 4.502779 -1.182905 0.000000 -0.914579 -0.404370 0.518337 0.887978
-6.353170 4.509495 -1.191635 0.000000 -0.923002 -0.384747 0.518337 0.887978
5.263340 4.509470 -1.191635 0.000000 -0.923002 -0.384747 0.518337 0.887978
-6.353170 4.510237 -1.197056 0.000000 -0.888058 0.459670 0.518337 0.887978
5.263340 4.510212 -1.197056 0.000000 -0.888058 0.459670 0.518337 0.887978
3 0 1 2
3 0 2 3
3 4 5 1
3 4 1 0
3 6 7 5
3 6 5 4
3 8 9 7
3 8 7 6
3 10 11 9
3 10 9 8
3 12 13 11
3 12 11 10
3 14 15 13
3 14 13 12
3 16 17 15
3 16 15 14
3 18 19 17
3 18 17 16
3 20 21 19
3 20 19 18
3 3 2 21
3 3 21 20
