# Blender v2.90.1 OBJ File: 'breafast_test.blend'
# www.blender.org
mtllib lightsourrnd_i.mtl
o light_sourrnd_inside_Cylinder.003
v -2.244372 2.246566 0.586415
v -2.244372 2.246566 1.813134
v -2.196608 2.241861 0.586415
v -2.196608 2.241861 1.813134
v -2.150680 2.227929 0.586415
v -2.150680 2.227929 1.813134
v -2.108352 2.205305 0.586415
v -2.108352 2.205305 1.813134
v -2.071252 2.174857 0.586415
v -2.071252 2.174857 1.813134
v -2.040805 2.137757 0.586415
v -2.040805 2.137757 1.813134
v -2.018180 2.095429 0.586415
v -2.018180 2.095429 1.813134
v -2.004248 2.049501 0.586415
v -2.004248 2.049501 1.813134
v -1.999544 2.001738 0.586415
v -1.999544 2.001738 1.813134
v -2.004248 1.953974 0.586415
v -2.004248 1.953974 1.813134
v -2.018180 1.908046 0.586415
v -2.018180 1.908046 1.813134
v -2.040805 1.865718 0.586415
v -2.040805 1.865718 1.813134
v -2.071252 1.828618 0.586415
v -2.071252 1.828618 1.813134
v -2.108352 1.798171 0.586415
v -2.108352 1.798170 1.813134
v -2.150680 1.775546 0.586415
v -2.150680 1.775546 1.813134
v -2.196608 1.761614 0.586415
v -2.196608 1.761614 1.813134
v -2.244372 1.756910 0.586415
v -2.244372 1.756909 1.813134
v -2.292135 1.761614 0.586415
v -2.292135 1.761614 1.813134
v -2.338063 1.775546 0.586415
v -2.338063 1.775546 1.813134
v -2.380391 1.798171 0.586415
v -2.380391 1.798171 1.813134
v -2.417491 1.828618 0.586415
v -2.417491 1.828618 1.813134
v -2.447939 1.865719 0.586415
v -2.447939 1.865719 1.813134
v -2.470563 1.908046 0.586415
v -2.470563 1.908046 1.813134
v -2.484495 1.953974 0.586415
v -2.484495 1.953974 1.813134
v -2.489200 2.001738 0.586415
v -2.489200 2.001738 1.813134
v -2.484495 2.049501 0.586415
v -2.484495 2.049501 1.813134
v -2.470563 2.095429 0.586415
v -2.470563 2.095429 1.813134
v -2.447938 2.137757 0.586415
v -2.447938 2.137757 1.813134
v -2.417491 2.174857 0.586415
v -2.417491 2.174857 1.813134
v -2.380391 2.205305 0.586415
v -2.380391 2.205305 1.813134
v -2.338063 2.227929 0.586415
v -2.338063 2.227929 1.813134
v -2.292135 2.241861 0.586415
v -2.292135 2.241861 1.813134
vt 1.000000 0.500000
vt 0.968750 0.500000
vt 0.968750 1.000000
vt 1.000000 1.000000
vt 0.937500 0.500000
vt 0.937500 1.000000
vt 0.906250 0.500000
vt 0.906250 1.000000
vt 0.875000 0.500000
vt 0.875000 1.000000
vt 0.843750 0.500000
vt 0.843750 1.000000
vt 0.812500 0.500000
vt 0.812500 1.000000
vt 0.781250 0.500000
vt 0.781250 1.000000
vt 0.750000 0.500000
vt 0.750000 1.000000
vt 0.718750 0.500000
vt 0.718750 1.000000
vt 0.687500 0.500000
vt 0.687500 1.000000
vt 0.656250 0.500000
vt 0.656250 1.000000
vt 0.625000 0.500000
vt 0.625000 1.000000
vt 0.593750 0.500000
vt 0.593750 1.000000
vt 0.562500 0.500000
vt 0.562500 1.000000
vt 0.531250 0.500000
vt 0.531250 1.000000
vt 0.500000 0.500000
vt 0.500000 1.000000
vt 0.468750 0.500000
vt 0.468750 1.000000
vt 0.437500 0.500000
vt 0.437500 1.000000
vt 0.406250 0.500000
vt 0.406250 1.000000
vt 0.375000 0.500000
vt 0.375000 1.000000
vt 0.343750 0.500000
vt 0.343750 1.000000
vt 0.312500 0.500000
vt 0.312500 1.000000
vt 0.281250 0.500000
vt 0.281250 1.000000
vt 0.250000 0.500000
vt 0.250000 1.000000
vt 0.218750 0.500000
vt 0.218750 1.000000
vt 0.187500 0.500000
vt 0.187500 1.000000
vt 0.156250 0.500000
vt 0.156250 1.000000
vt 0.125000 0.500000
vt 0.125000 1.000000
vt 0.093750 0.500000
vt 0.093750 1.000000
vt 0.062500 0.500000
vt 0.062500 1.000000
vt 0.031250 0.500000
vt 0.031250 1.000000
vt 0.000000 0.500000
vt 0.000000 1.000000
vt 0.750000 0.490000
vt 0.703179 0.485389
vt 0.658156 0.471731
vt 0.616663 0.449553
vt 0.580295 0.419706
vt 0.550447 0.383337
vt 0.528269 0.341844
vt 0.514612 0.296822
vt 0.510000 0.250000
vt 0.514611 0.203179
vt 0.528269 0.158156
vt 0.550447 0.116663
vt 0.580294 0.080294
vt 0.616663 0.050447
vt 0.658156 0.028269
vt 0.703178 0.014612
vt 0.750000 0.010000
vt 0.796822 0.014612
vt 0.841844 0.028269
vt 0.883337 0.050447
vt 0.919706 0.080294
vt 0.949553 0.116663
vt 0.971731 0.158156
vt 0.985388 0.203178
vt 0.990000 0.250000
vt 0.985388 0.296822
vt 0.971731 0.341844
vt 0.949553 0.383337
vt 0.919706 0.419706
vt 0.883337 0.449553
vt 0.841844 0.471731
vt 0.796822 0.485388
vn -0.0980 -0.9952 0.0000
vn -0.2903 -0.9569 0.0000
vn -0.4714 -0.8819 0.0000
vn -0.6344 -0.7730 0.0000
vn -0.7730 -0.6344 0.0000
vn -0.8819 -0.4714 0.0000
vn -0.9569 -0.2903 0.0000
vn -0.9952 -0.0980 0.0000
vn -0.9952 0.0980 0.0000
vn -0.9569 0.2903 0.0000
vn -0.8819 0.4714 0.0000
vn -0.7730 0.6344 0.0000
vn -0.6344 0.7730 0.0000
vn -0.4714 0.8819 0.0000
vn -0.2903 0.9569 0.0000
vn -0.0980 0.9952 0.0000
vn 0.0980 0.9952 0.0000
vn 0.2903 0.9569 0.0000
vn 0.4714 0.8819 0.0000
vn 0.6344 0.7730 0.0000
vn 0.7730 0.6344 0.0000
vn 0.8819 0.4714 0.0000
vn 0.9569 0.2903 0.0000
vn 0.9952 0.0980 0.0000
vn 0.9952 -0.0980 0.0000
vn 0.9569 -0.2903 0.0000
vn 0.8819 -0.4714 0.0000
vn 0.7730 -0.6344 0.0000
vn 0.6344 -0.7730 0.0000
vn 0.4714 -0.8819 0.0000
vn 0.2903 -0.9569 0.0000
vn 0.0980 -0.9952 0.0000
vn 0.0000 0.0000 1.0000
usemtl None
s off
f 1/1/1 3/2/1 4/3/1 2/4/1
f 3/2/2 5/5/2 6/6/2 4/3/2
f 5/5/3 7/7/3 8/8/3 6/6/3
f 7/7/4 9/9/4 10/10/4 8/8/4
f 9/9/5 11/11/5 12/12/5 10/10/5
f 11/11/6 13/13/6 14/14/6 12/12/6
f 13/13/7 15/15/7 16/16/7 14/14/7
f 15/15/8 17/17/8 18/18/8 16/16/8
f 17/17/9 19/19/9 20/20/9 18/18/9
f 19/19/10 21/21/10 22/22/10 20/20/10
f 21/21/11 23/23/11 24/24/11 22/22/11
f 23/23/12 25/25/12 26/26/12 24/24/12
f 25/25/13 27/27/13 28/28/13 26/26/13
f 27/27/14 29/29/14 30/30/14 28/28/14
f 29/29/15 31/31/15 32/32/15 30/30/15
f 31/31/16 33/33/16 34/34/16 32/32/16
f 33/33/17 35/35/17 36/36/17 34/34/17
f 35/35/18 37/37/18 38/38/18 36/36/18
f 37/37/19 39/39/19 40/40/19 38/38/19
f 39/39/20 41/41/20 42/42/20 40/40/20
f 41/41/21 43/43/21 44/44/21 42/42/21
f 43/43/22 45/45/22 46/46/22 44/44/22
f 45/45/23 47/47/23 48/48/23 46/46/23
f 47/47/24 49/49/24 50/50/24 48/48/24
f 49/49/25 51/51/25 52/52/25 50/50/25
f 51/51/26 53/53/26 54/54/26 52/52/26
f 53/53/27 55/55/27 56/56/27 54/54/27
f 55/55/28 57/57/28 58/58/28 56/56/28
f 57/57/29 59/59/29 60/60/29 58/58/29
f 59/59/30 61/61/30 62/62/30 60/60/30
f 61/61/31 63/63/31 64/64/31 62/62/31
f 63/63/32 1/65/32 2/66/32 64/64/32
f 1/67/33 63/68/33 61/69/33 59/70/33 57/71/33 55/72/33 53/73/33 51/74/33 49/75/33 47/76/33 45/77/33 43/78/33 41/79/33 39/80/33 37/81/33 35/82/33 33/83/33 31/84/33 29/85/33 27/86/33 25/87/33 23/88/33 21/89/33 19/90/33 17/91/33 15/92/33 13/93/33 11/94/33 9/95/33 7/96/33 5/97/33 3/98/33
o light_sourrnd_inside.001_Cylinder.005
v 1.000679 2.246566 0.586415
v 1.000679 2.246566 1.813134
v 1.048442 2.241861 0.586415
v 1.048442 2.241861 1.813134
v 1.094370 2.227929 0.586415
v 1.094370 2.227929 1.813134
v 1.136698 2.205305 0.586415
v 1.136698 2.205305 1.813134
v 1.173798 2.174857 0.586415
v 1.173798 2.174857 1.813134
v 1.204246 2.137757 0.586415
v 1.204246 2.137757 1.813134
v 1.226870 2.095429 0.586415
v 1.226870 2.095429 1.813134
v 1.240802 2.049501 0.586415
v 1.240802 2.049501 1.813134
v 1.245507 2.001738 0.586415
v 1.245507 2.001738 1.813134
v 1.240802 1.953974 0.586415
v 1.240802 1.953974 1.813134
v 1.226870 1.908046 0.586415
v 1.226870 1.908046 1.813134
v 1.204246 1.865718 0.586415
v 1.204246 1.865718 1.813134
v 1.173798 1.828618 0.586415
v 1.173798 1.828618 1.813134
v 1.136698 1.798171 0.586415
v 1.136698 1.798170 1.813134
v 1.094370 1.775546 0.586415
v 1.094370 1.775546 1.813134
v 1.048442 1.761614 0.586415
v 1.048442 1.761614 1.813134
v 1.000678 1.756910 0.586415
v 1.000678 1.756909 1.813134
v 0.952915 1.761614 0.586415
v 0.952915 1.761614 1.813134
v 0.906987 1.775546 0.586415
v 0.906987 1.775546 1.813134
v 0.864659 1.798171 0.586415
v 0.864659 1.798171 1.813134
v 0.827559 1.828618 0.586415
v 0.827559 1.828618 1.813134
v 0.797111 1.865719 0.586415
v 0.797111 1.865719 1.813134
v 0.774487 1.908046 0.586415
v 0.774487 1.908046 1.813134
v 0.760555 1.953974 0.586415
v 0.760555 1.953974 1.813134
v 0.755850 2.001738 0.586415
v 0.755850 2.001738 1.813134
v 0.760555 2.049501 0.586415
v 0.760555 2.049501 1.813134
v 0.774487 2.095429 0.586415
v 0.774487 2.095429 1.813134
v 0.797112 2.137757 0.586415
v 0.797112 2.137757 1.813134
v 0.827559 2.174857 0.586415
v 0.827559 2.174857 1.813134
v 0.864660 2.205305 0.586415
v 0.864660 2.205305 1.813134
v 0.906987 2.227929 0.586415
v 0.906987 2.227929 1.813134
v 0.952915 2.241861 0.586415
v 0.952915 2.241861 1.813134
vt 1.000000 0.500000
vt 0.968750 0.500000
vt 0.968750 1.000000
vt 1.000000 1.000000
vt 0.937500 0.500000
vt 0.937500 1.000000
vt 0.906250 0.500000
vt 0.906250 1.000000
vt 0.875000 0.500000
vt 0.875000 1.000000
vt 0.843750 0.500000
vt 0.843750 1.000000
vt 0.812500 0.500000
vt 0.812500 1.000000
vt 0.781250 0.500000
vt 0.781250 1.000000
vt 0.750000 0.500000
vt 0.750000 1.000000
vt 0.718750 0.500000
vt 0.718750 1.000000
vt 0.687500 0.500000
vt 0.687500 1.000000
vt 0.656250 0.500000
vt 0.656250 1.000000
vt 0.625000 0.500000
vt 0.625000 1.000000
vt 0.593750 0.500000
vt 0.593750 1.000000
vt 0.562500 0.500000
vt 0.562500 1.000000
vt 0.531250 0.500000
vt 0.531250 1.000000
vt 0.500000 0.500000
vt 0.500000 1.000000
vt 0.468750 0.500000
vt 0.468750 1.000000
vt 0.437500 0.500000
vt 0.437500 1.000000
vt 0.406250 0.500000
vt 0.406250 1.000000
vt 0.375000 0.500000
vt 0.375000 1.000000
vt 0.343750 0.500000
vt 0.343750 1.000000
vt 0.312500 0.500000
vt 0.312500 1.000000
vt 0.281250 0.500000
vt 0.281250 1.000000
vt 0.250000 0.500000
vt 0.250000 1.000000
vt 0.218750 0.500000
vt 0.218750 1.000000
vt 0.187500 0.500000
vt 0.187500 1.000000
vt 0.156250 0.500000
vt 0.156250 1.000000
vt 0.125000 0.500000
vt 0.125000 1.000000
vt 0.093750 0.500000
vt 0.093750 1.000000
vt 0.062500 0.500000
vt 0.062500 1.000000
vt 0.031250 0.500000
vt 0.031250 1.000000
vt 0.000000 0.500000
vt 0.000000 1.000000
vt 0.750000 0.490000
vt 0.703179 0.485389
vt 0.658156 0.471731
vt 0.616663 0.449553
vt 0.580295 0.419706
vt 0.550447 0.383337
vt 0.528269 0.341844
vt 0.514612 0.296822
vt 0.510000 0.250000
vt 0.514611 0.203179
vt 0.528269 0.158156
vt 0.550447 0.116663
vt 0.580294 0.080294
vt 0.616663 0.050447
vt 0.658156 0.028269
vt 0.703178 0.014612
vt 0.750000 0.010000
vt 0.796822 0.014612
vt 0.841844 0.028269
vt 0.883337 0.050447
vt 0.919706 0.080294
vt 0.949553 0.116663
vt 0.971731 0.158156
vt 0.985388 0.203178
vt 0.990000 0.250000
vt 0.985388 0.296822
vt 0.971731 0.341844
vt 0.949553 0.383337
vt 0.919706 0.419706
vt 0.883337 0.449553
vt 0.841844 0.471731
vt 0.796822 0.485388
vn -0.0980 -0.9952 0.0000
vn -0.2903 -0.9569 0.0000
vn -0.4714 -0.8819 0.0000
vn -0.6344 -0.7730 0.0000
vn -0.7730 -0.6344 0.0000
vn -0.8819 -0.4714 0.0000
vn -0.9569 -0.2903 0.0000
vn -0.9952 -0.0980 0.0000
vn -0.9952 0.0980 0.0000
vn -0.9569 0.2903 0.0000
vn -0.8819 0.4714 0.0000
vn -0.7730 0.6344 0.0000
vn -0.6344 0.7730 0.0000
vn -0.4714 0.8819 0.0000
vn -0.2903 0.9569 0.0000
vn -0.0980 0.9952 0.0000
vn 0.0980 0.9952 0.0000
vn 0.2903 0.9569 0.0000
vn 0.4714 0.8819 0.0000
vn 0.6344 0.7730 0.0000
vn 0.7730 0.6344 0.0000
vn 0.8819 0.4714 0.0000
vn 0.9569 0.2903 0.0000
vn 0.9952 0.0980 0.0000
vn 0.9952 -0.0980 0.0000
vn 0.9569 -0.2903 0.0000
vn 0.8819 -0.4714 0.0000
vn 0.7730 -0.6344 0.0000
vn 0.6344 -0.7730 0.0000
vn 0.4714 -0.8819 0.0000
vn 0.2903 -0.9569 0.0000
vn 0.0980 -0.9952 0.0000
vn 0.0000 0.0000 1.0000
usemtl None
s off
f 65/99/34 67/100/34 68/101/34 66/102/34
f 67/100/35 69/103/35 70/104/35 68/101/35
f 69/103/36 71/105/36 72/106/36 70/104/36
f 71/105/37 73/107/37 74/108/37 72/106/37
f 73/107/38 75/109/38 76/110/38 74/108/38
f 75/109/39 77/111/39 78/112/39 76/110/39
f 77/111/40 79/113/40 80/114/40 78/112/40
f 79/113/41 81/115/41 82/116/41 80/114/41
f 81/115/42 83/117/42 84/118/42 82/116/42
f 83/117/43 85/119/43 86/120/43 84/118/43
f 85/119/44 87/121/44 88/122/44 86/120/44
f 87/121/45 89/123/45 90/124/45 88/122/45
f 89/123/46 91/125/46 92/126/46 90/124/46
f 91/125/47 93/127/47 94/128/47 92/126/47
f 93/127/48 95/129/48 96/130/48 94/128/48
f 95/129/49 97/131/49 98/132/49 96/130/49
f 97/131/50 99/133/50 100/134/50 98/132/50
f 99/133/51 101/135/51 102/136/51 100/134/51
f 101/135/52 103/137/52 104/138/52 102/136/52
f 103/137/53 105/139/53 106/140/53 104/138/53
f 105/139/54 107/141/54 108/142/54 106/140/54
f 107/141/55 109/143/55 110/144/55 108/142/55
f 109/143/56 111/145/56 112/146/56 110/144/56
f 111/145/57 113/147/57 114/148/57 112/146/57
f 113/147/58 115/149/58 116/150/58 114/148/58
f 115/149/59 117/151/59 118/152/59 116/150/59
f 117/151/60 119/153/60 120/154/60 118/152/60
f 119/153/61 121/155/61 122/156/61 120/154/61
f 121/155/62 123/157/62 124/158/62 122/156/62
f 123/157/63 125/159/63 126/160/63 124/158/63
f 125/159/64 127/161/64 128/162/64 126/160/64
f 127/161/65 65/163/65 66/164/65 128/162/65
f 65/165/66 127/166/66 125/167/66 123/168/66 121/169/66 119/170/66 117/171/66 115/172/66 113/173/66 111/174/66 109/175/66 107/176/66 105/177/66 103/178/66 101/179/66 99/180/66 97/181/66 95/182/66 93/183/66 91/184/66 89/185/66 87/186/66 85/187/66 83/188/66 81/189/66 79/190/66 77/191/66 75/192/66 73/193/66 71/194/66 69/195/66 67/196/66
