# Blender v3.4.1 OBJ File: 'livingroom.blend'
# www.blender.org
mtllib BlackMarble.mtl
o BlackMarble
v -1.469798 0.041565 2.329729
v -2.204534 0.041565 2.329729
v -2.204534 0.090152 2.329729
v -1.469798 0.090152 2.329729
v -2.204534 0.038565 2.332729
v -1.469798 0.038565 2.332729
v -1.469798 0.038565 2.875445
v -2.204534 0.038565 2.875445
v -1.466798 0.090152 2.332729
v -1.466798 0.090152 2.875445
v -1.466798 0.041565 2.875445
v -1.466798 0.041565 2.332729
v -2.207534 0.041565 2.332729
v -2.207534 0.041565 2.875445
v -2.207534 0.090152 2.875445
v -2.207534 0.090152 2.332729
v -1.469798 0.093152 2.881445
v -2.204534 0.093152 2.881445
v -2.204534 0.093151 3.424161
v -1.469798 0.093151 3.424161
v -1.466798 0.090151 3.424161
v -1.466798 0.041564 3.424161
v -1.466798 0.041565 2.881445
v -1.466798 0.090152 2.881445
v -2.207534 0.041564 3.424161
v -2.207534 0.090151 3.424161
v -2.207534 0.090152 2.881445
v -2.207534 0.041565 2.881445
v -1.469798 0.041564 3.427161
v -1.469798 0.090151 3.427161
v -2.204534 0.090151 3.427161
v -2.204534 0.041564 3.427161
v -2.204534 0.038564 3.424161
v -2.204534 0.038565 2.881445
v -1.469798 0.038565 2.881445
v -1.469798 0.038564 3.424161
v -2.204534 0.090152 2.329729
v -2.207534 0.090152 2.332729
v -2.204534 0.093152 2.332729
v -1.469798 0.090152 2.329729
v -1.469798 0.093152 2.332729
v -1.466798 0.090152 2.332729
v -1.469798 0.041565 2.329729
v -1.466798 0.041565 2.332729
v -1.469798 0.038565 2.332729
v -2.204534 0.038565 2.332729
v -2.207534 0.041565 2.332729
v -2.204534 0.041565 2.329729
v -1.469798 0.093152 2.875445
v -1.469798 0.093152 2.881445
v -1.466798 0.090152 2.881445
v -1.466798 0.090152 2.875445
v -2.207534 0.090152 2.881445
v -2.204534 0.093152 2.881445
v -2.204534 0.093152 2.875445
v -2.207534 0.090152 2.875445
v -2.204534 0.093151 3.424161
v -2.207534 0.090151 3.424161
v -2.204534 0.090151 3.427161
v -1.466798 0.090151 3.424161
v -1.469798 0.093151 3.424161
v -1.469798 0.090151 3.427161
v -1.469798 0.038564 3.424161
v -1.466798 0.041564 3.424161
v -1.469798 0.041564 3.427161
v -2.204534 0.041564 3.427161
v -2.207534 0.041564 3.424161
v -2.204534 0.038564 3.424161
v -2.204534 0.038565 2.881445
v -2.207534 0.041565 2.881445
v -2.207534 0.041565 2.875445
v -2.204534 0.038565 2.875445
v -1.466798 0.041565 2.875445
v -1.466798 0.041565 2.881445
v -1.469798 0.038565 2.881445
v -1.469798 0.038565 2.875445
v -1.469798 0.093152 2.875445
v -2.204534 0.093152 2.875445
v -1.466798 0.090152 2.332729
v -1.469798 0.093152 2.332729
v -2.204534 0.093152 2.332729
v -2.207534 0.090152 2.332729
v -1.466798 0.090152 2.332729
v -1.466798 0.041565 2.332729
v -1.469798 0.041565 2.329729
v -1.469798 0.090152 2.329729
v -2.204534 0.093152 2.332729
v -1.469798 0.093152 2.332729
v -1.469798 0.090152 2.329729
v -2.204534 0.090152 2.329729
v -2.204534 0.090152 2.329729
v -2.204534 0.041565 2.329729
v -2.207534 0.041565 2.332729
v -2.207534 0.090152 2.332729
v -1.469798 0.038565 2.332729
v -2.204534 0.038565 2.332729
v -2.204534 0.041565 2.329729
v -1.469798 0.041565 2.329729
v -2.204534 0.038565 2.332729
v -2.207534 0.041565 2.332729
v -1.466798 0.041565 2.332729
v -1.469798 0.038565 2.332729
v -1.469798 0.093151 3.424161
v -1.466798 0.090151 3.424161
v -2.207534 0.090151 3.424161
v -2.204534 0.093151 3.424161
v -1.469798 0.090151 3.427161
v -1.469798 0.041564 3.427161
v -1.466798 0.041564 3.424161
v -1.466798 0.090151 3.424161
v -2.204534 0.090151 3.427161
v -1.469798 0.090151 3.427161
v -1.469798 0.093151 3.424161
v -2.204534 0.093151 3.424161
v -2.207534 0.090151 3.424161
v -2.207534 0.041564 3.424161
v -2.204534 0.041564 3.427161
v -2.204534 0.090151 3.427161
v -1.469798 0.041564 3.427161
v -2.204534 0.041564 3.427161
v -2.204534 0.038564 3.424161
v -1.469798 0.038564 3.424161
v -2.207534 0.041564 3.424161
v -2.204534 0.038564 3.424161
v -1.469798 0.038564 3.424161
v -1.466798 0.041564 3.424161
v -1.469798 0.093152 2.332729
v -2.204534 0.093152 2.332729
vt 0.000000 0.000000
vt 0.000000 0.000000
vt 0.000000 0.000000
vt 0.000000 0.000000
vt 0.000000 0.000000
vt 0.000000 0.000000
vt 0.000000 0.000000
vt 0.000000 0.000000
vt 0.000000 0.000000
vt 0.000000 0.000000
vt 0.000000 0.000000
vt 0.000000 0.000000
vt 0.000000 0.000000
vt 0.000000 0.000000
vt 0.000000 0.000000
vt 0.000000 0.000000
vt 0.000000 0.000000
vt 0.000000 0.000000
vt 0.000000 0.000000
vt 0.000000 0.000000
vt 0.000000 0.000000
vt 0.000000 0.000000
vt 0.000000 0.000000
vt 0.000000 0.000000
vt 0.000000 0.000000
vt 0.000000 0.000000
vt 0.000000 0.000000
vt 0.000000 0.000000
vt 0.000000 0.000000
vt 0.000000 0.000000
vt 0.000000 0.000000
vt 0.000000 0.000000
vt 0.000000 0.000000
vt 0.000000 0.000000
vt 0.000000 0.000000
vt 0.000000 0.000000
vt 0.000000 0.000000
vt 0.000000 0.000000
vt 0.000000 0.000000
vt 0.000000 0.000000
vt 0.000000 0.000000
vt 0.000000 0.000000
vt 0.000000 0.000000
vt 0.000000 0.000000
vt 0.000000 0.000000
vt 0.000000 0.000000
vt 0.000000 0.000000
vt 0.000000 0.000000
vt 0.000000 0.000000
vt 0.000000 0.000000
vt 0.000000 0.000000
vt 0.000000 0.000000
vt 0.000000 0.000000
vt 0.000000 0.000000
vt 0.000000 0.000000
vt 0.000000 0.000000
vt 0.000000 0.000000
vt 0.000000 0.000000
vt 0.000000 0.000000
vt 0.000000 0.000000
vt 0.000000 0.000000
vt 0.000000 0.000000
vt 0.000000 0.000000
vt 0.000000 0.000000
vt 0.000000 0.000000
vt 0.000000 0.000000
vt 0.000000 0.000000
vt 0.000000 0.000000
vt 0.000000 0.000000
vt 0.000000 0.000000
vt 0.000000 0.000000
vt 0.000000 0.000000
vt 0.000000 0.000000
vt 0.000000 0.000000
vt 0.000000 0.000000
vt 0.000000 0.000000
vt 0.000000 0.000000
vt 0.000000 0.000000
vt 0.000000 0.000000
vt 0.000000 0.000000
vt 0.000000 0.000000
vt 0.000000 0.000000
vt 0.000000 0.000000
vt 0.000000 0.000000
vt 0.000000 0.000000
vt 0.000000 0.000000
vt 0.000000 0.000000
vt 0.000000 0.000000
vt 0.000000 0.000000
vt 0.000000 0.000000
vt 0.000000 0.000000
vt 0.000000 0.000000
vt 0.000000 0.000000
vt 0.000000 0.000000
vt 0.000000 0.000000
vt 0.000000 0.000000
vt 0.000000 0.000000
vt 0.000000 0.000000
vt 0.000000 0.000000
vt 0.000000 0.000000
vt 0.000000 0.000000
vt 0.000000 0.000000
vt 0.000000 0.000000
vt 0.000000 0.000000
vt 0.000000 0.000000
vt 0.000000 0.000000
vt 0.000000 0.000000
vt 0.000000 0.000000
vt 0.000000 0.000000
vt 0.000000 0.000000
vt 0.000000 0.000000
vt 0.000000 0.000000
vt 0.000000 0.000000
vt 0.000000 0.000000
vt 0.000000 0.000000
vt 0.000000 0.000000
vt 0.000000 0.000000
vt 0.000000 0.000000
vt 0.000000 0.000000
vt 0.000000 0.000000
vt 0.000000 0.000000
vt 0.000000 0.000000
vt 0.000000 0.000000
vt 0.000000 0.000000
vt 0.000000 0.000000
vt 0.000000 0.000000
vt 0.000000 0.000000
vt 0.000000 0.000000
vn 0.0000 0.0000 -1.0000
vn 0.0000 -1.0000 -0.0000
vn 1.0000 0.0000 0.0000
vn -1.0000 0.0000 0.0000
vn 0.0000 1.0000 0.0000
vn 0.0000 0.0000 1.0000
vn -0.5773 0.5774 -0.5774
vn 0.5773 0.5774 -0.5774
vn 0.5773 -0.5774 -0.5774
vn -0.5773 -0.5774 -0.5774
vn 0.7071 0.7071 0.0000
vn -0.7071 0.7071 0.0000
vn -0.5774 0.5773 0.5773
vn 0.5774 0.5773 0.5773
vn 0.5774 -0.5774 0.5773
vn -0.5774 -0.5774 0.5773
vn -0.7071 -0.7071 0.0000
vn 0.7071 -0.7071 0.0000
vn 0.7071 0.0000 -0.7071
vn 0.0000 0.7071 -0.7071
vn -0.7071 0.0000 -0.7071
vn 0.0000 -0.7071 -0.7071
vn -0.7072 0.7071 0.0000
vn -0.7071 0.7072 0.0000
vn 0.7070 0.0000 0.7072
vn 0.7071 0.0000 0.7071
vn 0.0000 0.7071 0.7071
vn -0.7071 0.0000 0.7071
vn -0.7070 0.0000 0.7072
vn 0.0000 -0.7071 0.7071
vn -0.7072 -0.7071 -0.0000
vn -0.7071 -0.7072 -0.0000
usemtl BlackMarbleBSDF
s off
f 1/1/1 2/2/1 3/3/1
f 1/1/1 3/3/1 4/4/1
f 5/5/2 6/6/2 7/7/2
f 5/5/2 7/7/2 8/8/2
f 9/9/3 10/10/3 11/11/3
f 9/9/3 11/11/3 12/12/3
f 13/13/4 14/14/4 15/15/4
f 13/13/4 15/15/4 16/16/4
f 17/17/5 18/18/5 19/19/5
f 17/17/5 19/19/5 20/20/5
f 21/21/3 22/22/3 23/23/3
f 21/21/3 23/23/3 24/24/3
f 25/25/4 26/26/4 27/27/4
f 25/25/4 27/27/4 28/28/4
f 29/29/6 30/30/6 31/31/6
f 29/29/6 31/31/6 32/32/6
f 33/33/2 34/34/2 35/35/2
f 33/33/2 35/35/2 36/36/2
f 37/37/7 38/38/7 39/39/7
f 40/40/8 41/41/8 42/42/8
f 43/43/9 44/44/9 45/45/9
f 46/46/10 47/47/10 48/48/10
f 49/49/11 50/50/11 51/51/11
f 49/49/11 51/51/11 52/52/11
f 53/53/12 54/54/12 55/55/12
f 53/53/12 55/55/12 56/56/12
f 57/57/13 58/58/13 59/59/13
f 60/60/14 61/61/14 62/62/14
f 63/63/15 64/64/15 65/65/15
f 66/66/16 67/67/16 68/68/16
f 69/69/17 70/70/17 71/71/17
f 69/69/17 71/71/17 72/72/17
f 73/73/18 74/74/18 75/75/18
f 73/73/18 75/75/18 76/76/18
f 77/77/5 78/78/5 18/18/5
f 77/77/5 18/18/5 17/17/5
f 24/24/3 23/23/3 11/11/3
f 24/24/3 11/11/3 10/10/3
f 52/52/11 79/79/11 80/80/11
f 52/52/11 80/80/11 49/49/11
f 55/55/12 81/81/12 82/82/12
f 55/55/12 82/82/12 56/56/12
f 15/15/4 14/14/4 28/28/4
f 15/15/4 28/28/4 27/27/4
f 83/83/19 84/84/19 85/85/19
f 83/83/19 85/85/19 86/86/19
f 87/87/20 88/88/20 89/89/20
f 87/87/20 89/89/20 90/90/20
f 91/91/21 92/92/21 93/93/21
f 91/91/21 93/93/21 94/94/21
f 95/95/22 96/96/22 97/97/22
f 95/95/22 97/97/22 98/98/22
f 99/99/17 72/72/17 71/71/17
f 99/99/17 71/71/17 100/100/17
f 101/101/18 73/73/18 76/76/18
f 101/101/18 76/76/18 102/102/18
f 8/8/2 7/7/2 35/35/2
f 8/8/2 35/35/2 34/34/2
f 50/50/11 103/103/11 104/104/11
f 50/50/11 104/104/11 51/51/11
f 53/53/23 105/105/23 106/106/23
f 53/53/24 106/106/24 54/54/24
f 107/107/25 108/108/25 109/109/25
f 107/107/26 109/109/26 110/110/26
f 111/111/27 112/112/27 113/113/27
f 111/111/27 113/113/27 114/114/27
f 115/115/28 116/116/28 117/117/28
f 115/115/29 117/117/29 118/118/29
f 119/119/30 120/120/30 121/121/30
f 119/119/30 121/121/30 122/122/30
f 123/123/31 70/70/31 69/69/31
f 123/123/32 69/69/32 124/124/32
f 125/125/18 75/75/18 74/74/18
f 125/125/18 74/74/18 126/126/18
f 77/77/5 127/127/5 128/128/5
f 77/77/5 128/128/5 78/78/5
