# Blender v3.4.1 OBJ File: 'livingroom.blend'
# www.blender.org
mtllib BlindEnds_0008.mtl
o BlindEnds_0008
v 0.639041 2.790363 0.480284
v 0.646515 2.790363 0.480284
v 0.646515 2.738335 0.480284
v 0.639041 2.738335 0.480284
v 0.646515 2.790363 0.509575
v 0.639041 2.790363 0.509575
v 0.639041 2.738335 0.509575
v 0.646515 2.738335 0.509575
v 0.646515 2.790363 0.490048
v 0.646515 2.790363 0.480284
v 0.639041 2.790363 0.480284
v 0.639041 2.790363 0.490048
v 0.639041 2.790363 0.499812
v 0.646515 2.790363 0.499812
v 0.639041 2.790363 0.509575
v 0.646515 2.790363 0.509575
v 0.639041 2.790363 0.509575
v 0.639041 2.790363 0.499812
v 0.639041 2.731864 0.499812
v 0.639041 2.738335 0.509575
v 0.639041 2.790363 0.490048
v 0.639041 2.731864 0.490048
v 0.639041 2.790363 0.480284
v 0.639041 2.738335 0.480284
v 0.646515 2.790363 0.480284
v 0.646515 2.790363 0.490048
v 0.646515 2.731864 0.490048
v 0.646515 2.738335 0.480284
v 0.646515 2.790363 0.499812
v 0.646515 2.731864 0.499812
v 0.646515 2.790363 0.509575
v 0.646515 2.738335 0.509575
v 0.639041 2.738335 0.509575
v 0.639041 2.731864 0.499812
v 0.646515 2.731864 0.499812
v 0.646515 2.738335 0.509575
v 0.639041 2.731864 0.499812
v 0.639041 2.731864 0.490048
v 0.646515 2.731864 0.490048
v 0.646515 2.731864 0.499812
v 0.639041 2.731864 0.490048
v 0.639041 2.738335 0.480284
v 0.646515 2.738335 0.480284
v 0.646515 2.731864 0.490048
v -0.209273 2.790363 0.480284
v -0.209273 2.738335 0.480284
v -0.216746 2.738335 0.480284
v -0.216746 2.790363 0.480284
v -0.216746 2.790363 0.509575
v -0.216746 2.738335 0.509575
v -0.209273 2.738335 0.509575
v -0.209273 2.790363 0.509575
v -0.216746 2.790363 0.490048
v -0.209273 2.790363 0.490048
v -0.209273 2.790363 0.480284
v -0.216746 2.790363 0.480284
v -0.216746 2.790363 0.499812
v -0.209273 2.790363 0.499812
v -0.216746 2.790363 0.509575
v -0.209273 2.790363 0.509575
v -0.209273 2.790363 0.509575
v -0.209273 2.738335 0.509575
v -0.209273 2.731864 0.499812
v -0.209273 2.790363 0.499812
v -0.209273 2.731864 0.490048
v -0.209273 2.790363 0.490048
v -0.209273 2.738335 0.480284
v -0.209273 2.790363 0.480284
v -0.216746 2.790363 0.480284
v -0.216746 2.738335 0.480284
v -0.216746 2.731864 0.490048
v -0.216746 2.790363 0.490048
v -0.216746 2.731864 0.499812
v -0.216746 2.790363 0.499812
v -0.216746 2.738335 0.509575
v -0.216746 2.790363 0.509575
v -0.209273 2.738335 0.509575
v -0.216746 2.738335 0.509575
v -0.216746 2.731864 0.499812
v -0.209273 2.731864 0.499812
v -0.209273 2.731864 0.499812
v -0.216746 2.731864 0.499812
v -0.216746 2.731864 0.490048
v -0.209273 2.731864 0.490048
v -0.209273 2.731864 0.490048
v -0.216746 2.731864 0.490048
v -0.216746 2.738335 0.480284
v -0.209273 2.738335 0.480284
vt 0.000000 0.000000
vt 0.000000 0.000000
vt 0.000000 0.000000
vt 0.000000 0.000000
vt 0.000000 0.000000
vt 0.000000 0.000000
vt 0.000000 0.000000
vt 0.000000 0.000000
vt 0.000000 0.000000
vt 0.000000 0.000000
vt 0.000000 0.000000
vt 0.000000 0.000000
vt 0.000000 0.000000
vt 0.000000 0.000000
vt 0.000000 0.000000
vt 0.000000 0.000000
vt 0.000000 0.000000
vt 0.000000 0.000000
vt 0.000000 0.000000
vt 0.000000 0.000000
vt 0.000000 0.000000
vt 0.000000 0.000000
vt 0.000000 0.000000
vt 0.000000 0.000000
vt 0.000000 0.000000
vt 0.000000 0.000000
vt 0.000000 0.000000
vt 0.000000 0.000000
vt 0.000000 0.000000
vt 0.000000 0.000000
vt 0.000000 0.000000
vt 0.000000 0.000000
vt 0.000000 0.000000
vt 0.000000 0.000000
vt 0.000000 0.000000
vt 0.000000 0.000000
vt 0.000000 0.000000
vt 0.000000 0.000000
vt 0.000000 0.000000
vt 0.000000 0.000000
vt 0.000000 0.000000
vt 0.000000 0.000000
vt 0.000000 0.000000
vt 0.000000 0.000000
vt 0.000000 0.000000
vt 0.000000 0.000000
vt 0.000000 0.000000
vt 0.000000 0.000000
vt 0.000000 0.000000
vt 0.000000 0.000000
vt 0.000000 0.000000
vt 0.000000 0.000000
vt 0.000000 0.000000
vt 0.000000 0.000000
vt 0.000000 0.000000
vt 0.000000 0.000000
vt 0.000000 0.000000
vt 0.000000 0.000000
vt 0.000000 0.000000
vt 0.000000 0.000000
vt 0.000000 0.000000
vt 0.000000 0.000000
vt 0.000000 0.000000
vt 0.000000 0.000000
vt 0.000000 0.000000
vt 0.000000 0.000000
vt 0.000000 0.000000
vt 0.000000 0.000000
vt 0.000000 0.000000
vt 0.000000 0.000000
vt 0.000000 0.000000
vt 0.000000 0.000000
vt 0.000000 0.000000
vt 0.000000 0.000000
vt 0.000000 0.000000
vt 0.000000 0.000000
vt 0.000000 0.000000
vt 0.000000 0.000000
vt 0.000000 0.000000
vt 0.000000 0.000000
vt 0.000000 0.000000
vt 0.000000 0.000000
vt 0.000000 0.000000
vt 0.000000 0.000000
vt 0.000000 0.000000
vt 0.000000 0.000000
vt 0.000000 0.000000
vt 0.000000 0.000000
vn 0.0000 0.0000 -1.0000
vn 0.0000 -0.0000 1.0000
vn 0.0000 1.0000 0.0000
vn -1.0000 0.0000 0.0000
vn 1.0000 0.0000 0.0000
vn 0.0000 -0.8335 0.5524
vn 0.0000 -0.8335 0.5525
vn 0.0000 -1.0000 0.0000
vn 0.0000 -0.8336 -0.5524
usemtl BlindEndsBSDF
s off
f 1/1/1 2/2/1 3/3/1
f 1/1/1 3/3/1 4/4/1
f 5/5/2 6/6/2 7/7/2
f 5/5/2 7/7/2 8/8/2
f 9/9/3 10/10/3 11/11/3
f 9/9/3 11/11/3 12/12/3
f 12/12/3 13/13/3 14/14/3
f 12/12/3 14/14/3 9/9/3
f 13/13/3 15/15/3 16/16/3
f 13/13/3 16/16/3 14/14/3
f 17/17/4 18/18/4 19/19/4
f 17/17/4 19/19/4 20/20/4
f 18/18/4 21/21/4 22/22/4
f 18/18/4 22/22/4 19/19/4
f 21/21/4 23/23/4 24/24/4
f 21/21/4 24/24/4 22/22/4
f 25/25/5 26/26/5 27/27/5
f 25/25/5 27/27/5 28/28/5
f 26/26/5 29/29/5 30/30/5
f 26/26/5 30/30/5 27/27/5
f 29/29/5 31/31/5 32/32/5
f 29/29/5 32/32/5 30/30/5
f 33/33/6 34/34/6 35/35/6
f 33/33/7 35/35/7 36/36/7
f 37/37/8 38/38/8 39/39/8
f 37/37/8 39/39/8 40/40/8
f 41/41/9 42/42/9 43/43/9
f 41/41/9 43/43/9 44/44/9
f 45/45/1 46/46/1 47/47/1
f 45/45/1 47/47/1 48/48/1
f 49/49/2 50/50/2 51/51/2
f 49/49/2 51/51/2 52/52/2
f 53/53/3 54/54/3 55/55/3
f 53/53/3 55/55/3 56/56/3
f 54/54/3 53/53/3 57/57/3
f 54/54/3 57/57/3 58/58/3
f 58/58/3 57/57/3 59/59/3
f 58/58/3 59/59/3 60/60/3
f 61/61/5 62/62/5 63/63/5
f 61/61/5 63/63/5 64/64/5
f 64/64/5 63/63/5 65/65/5
f 64/64/5 65/65/5 66/66/5
f 66/66/5 65/65/5 67/67/5
f 66/66/5 67/67/5 68/68/5
f 69/69/4 70/70/4 71/71/4
f 69/69/4 71/71/4 72/72/4
f 72/72/4 71/71/4 73/73/4
f 72/72/4 73/73/4 74/74/4
f 74/74/4 73/73/4 75/75/4
f 74/74/4 75/75/4 76/76/4
f 77/77/7 78/78/7 79/79/7
f 77/77/6 79/79/6 80/80/6
f 81/81/8 82/82/8 83/83/8
f 81/81/8 83/83/8 84/84/8
f 85/85/9 86/86/9 87/87/9
f 85/85/9 87/87/9 88/88/9
