# Blender v3.4.1 OBJ File: 'livingroom.blend'
# www.blender.org
mtllib Books_0005.mtl
o Books_0005
v -2.289570 0.936512 4.043633
v -2.217741 0.936512 4.043633
v -2.217741 1.039896 4.065958
v -2.289570 1.039896 4.065958
v -2.217741 0.932609 4.061705
v -2.289570 0.932609 4.061705
v -2.289570 1.035993 4.084031
v -2.217741 1.035993 4.084031
v -2.216914 0.936245 4.044870
v -2.217741 0.936512 4.043633
v -2.289570 0.936512 4.043633
v -2.289570 0.936245 4.044870
v -2.289570 0.936245 4.044870
v -2.289570 0.932876 4.060467
v -2.216914 0.932876 4.060467
v -2.216914 0.936245 4.044870
v -2.289570 0.932876 4.060467
v -2.289570 0.932609 4.061705
v -2.217741 0.932609 4.061705
v -2.216914 0.932876 4.060467
v -2.289570 0.932609 4.061705
v -2.289570 0.932876 4.060467
v -2.289570 1.036260 4.082793
v -2.289570 1.035993 4.084031
v -2.289570 0.936245 4.044870
v -2.289570 1.039629 4.067196
v -2.289570 0.936512 4.043633
v -2.289570 1.039896 4.065958
v -2.217741 0.936512 4.043633
v -2.216914 0.936245 4.044870
v -2.216914 1.039629 4.067196
v -2.217741 1.039896 4.065958
v -2.216914 0.936245 4.044870
v -2.216914 0.932876 4.060467
v -2.216914 1.036260 4.082793
v -2.216914 1.039629 4.067196
v -2.216914 0.932876 4.060467
v -2.217741 0.932609 4.061705
v -2.217741 1.035993 4.084031
v -2.216914 1.036260 4.082793
v -2.289570 1.035993 4.084031
v -2.289570 1.036260 4.082793
v -2.216914 1.036260 4.082793
v -2.217741 1.035993 4.084031
v -2.289570 1.039629 4.067196
v -2.216914 1.039629 4.067196
v -2.289570 1.039896 4.065958
v -2.217741 1.039896 4.065958
vt 0.216352 0.002481
vt 0.214554 0.002481
vt 0.214554 0.564714
vt 0.216352 0.564714
vt 0.182862 0.002481
vt 0.181439 0.002481
vt 0.179582 0.564714
vt 0.181006 0.564714
vt 0.987148 0.008603
vt 0.989829 0.008603
vt 0.989829 0.127444
vt 0.987148 0.127444
vt 0.987148 0.127444
vt 0.946689 0.127444
vt 0.946689 0.008603
vt 0.987148 0.008603
vt 0.946689 0.127444
vt 0.943949 0.127444
vt 0.943949 0.008603
vt 0.946689 0.008603
vt 0.943949 0.127444
vt 0.946689 0.127444
vt 0.946689 0.256778
vt 0.943949 0.256778
vt 0.987148 0.127444
vt 0.987148 0.256778
vt 0.989829 0.127444
vt 0.989829 0.256778
vt 0.214554 0.002481
vt 0.211814 0.002481
vt 0.211814 0.564714
vt 0.214554 0.564714
vt 0.211814 0.002481
vt 0.185543 0.002481
vt 0.183687 0.564714
vt 0.211814 0.564714
vt 0.185543 0.002481
vt 0.182862 0.002481
vt 0.181006 0.564714
vt 0.183687 0.564714
vt 0.943949 0.256778
vt 0.946689 0.256778
vt 0.946689 0.375415
vt 0.943949 0.375415
vt 0.987148 0.256778
vt 0.987148 0.375415
vt 0.989829 0.256778
vt 0.989829 0.375415
vn 0.0000 -0.2111 0.9775
vn 0.0000 0.2111 -0.9775
vn 0.0000 0.9775 0.2110
vn 0.0000 0.9775 0.2111
vn 0.0000 0.9775 0.2108
vn 1.0000 0.0000 0.0000
vn -0.8372 -0.1155 0.5345
vn -0.8375 -0.1154 0.5341
vn -0.8372 -0.1159 0.5344
vn -0.8373 -0.1154 0.5345
vn -1.0000 0.0000 0.0000
vn -0.8375 0.1153 -0.5342
vn -0.8376 0.1153 -0.5339
vn -0.8372 0.1155 -0.5345
vn -0.8374 0.1153 -0.5343
vn 0.0000 -0.9775 -0.2110
vn 0.0000 -0.9775 -0.2107
vn 0.0003 -0.9775 -0.2109
vn 0.0000 -0.9775 -0.2109
vn 0.0000 -0.9775 -0.2111
vn 0.0000 -0.9775 -0.2108
vn 0.0002 -0.9775 -0.2111
usemtl BooksBSDF
s off
f 1/1/1 2/2/1 3/3/1
f 1/1/1 3/3/1 4/4/1
f 5/5/2 6/6/2 7/7/2
f 5/5/2 7/7/2 8/8/2
f 9/9/3 10/10/3 11/11/3
f 9/9/3 11/11/3 12/12/3
f 13/13/4 14/14/4 15/15/4
f 13/13/4 15/15/4 16/16/4
f 17/17/5 18/18/5 19/19/5
f 17/17/5 19/19/5 20/20/5
f 21/21/6 22/22/6 23/23/6
f 21/21/6 23/23/6 24/24/6
f 22/22/6 25/25/6 26/26/6
f 22/22/6 26/26/6 23/23/6
f 25/25/6 27/27/6 28/28/6
f 25/25/6 28/28/6 26/26/6
f 29/29/7 30/30/8 31/31/9
f 29/29/10 31/31/8 32/32/10
f 33/33/11 34/34/11 35/35/11
f 33/33/11 35/35/11 36/36/11
f 37/37/12 38/38/12 39/39/13
f 37/37/14 39/39/15 40/40/12
f 41/41/16 42/42/17 43/43/17
f 41/41/18 43/43/19 44/44/19
f 42/42/20 45/45/20 46/46/20
f 42/42/20 46/46/20 43/43/20
f 45/45/21 47/47/21 48/48/22
f 45/45/17 48/48/16 46/46/17
