# Blender v3.4.1 OBJ File: 'livingroom.blend'
# www.blender.org
mtllib Books_0013.mtl
o Books_0013
v -2.371554 0.931486 3.771324
v -2.199293 0.931486 3.771324
v -2.199293 1.166197 3.744566
v -2.371554 1.166197 3.744566
v -2.199293 0.933045 3.785006
v -2.371554 0.933045 3.785006
v -2.371554 1.167757 3.758248
v -2.199293 1.167757 3.758248
v -2.198467 0.931629 3.772582
v -2.199293 0.931486 3.771324
v -2.371554 0.931486 3.771324
v -2.371554 0.931629 3.772582
v -2.371554 0.932902 3.783748
v -2.198467 0.932902 3.783748
v -2.371554 0.933045 3.785006
v -2.199293 0.933045 3.785006
v -2.371554 0.933045 3.785006
v -2.371554 0.932902 3.783748
v -2.371554 1.167614 3.756990
v -2.371554 1.167757 3.758248
v -2.371554 0.931629 3.772582
v -2.371554 1.166341 3.745824
v -2.371554 0.931486 3.771324
v -2.371554 1.166197 3.744566
v -2.199293 0.931486 3.771324
v -2.198467 0.931629 3.772582
v -2.198467 1.166341 3.745824
v -2.199293 1.166197 3.744566
v -2.198467 0.931629 3.772582
v -2.198467 0.932902 3.783748
v -2.198467 1.167614 3.756990
v -2.198467 1.166341 3.745824
v -2.198467 0.932902 3.783748
v -2.199293 0.933045 3.785006
v -2.199293 1.167757 3.758248
v -2.198467 1.167614 3.756990
v -2.371554 1.167757 3.758248
v -2.371554 1.167614 3.756990
v -2.198467 1.167614 3.756990
v -2.199293 1.167757 3.758248
v -2.371554 1.166341 3.745824
v -2.198467 1.166341 3.745824
v -2.371554 1.166197 3.744566
v -2.199293 1.166197 3.744566
vt 0.702245 0.002481
vt 0.701977 0.002481
vt 0.701977 0.937010
vt 0.702245 0.937010
vt 0.668597 0.002481
vt 0.667691 0.002481
vt 0.667691 0.937010
vt 0.668597 0.937010
vt 0.987148 0.008603
vt 0.989829 0.008603
vt 0.989829 0.127444
vt 0.987148 0.127444
vt 0.946689 0.127444
vt 0.946689 0.008603
vt 0.943949 0.127444
vt 0.943949 0.008603
vt 0.943949 0.127444
vt 0.946689 0.127444
vt 0.946689 0.256778
vt 0.943949 0.256778
vt 0.987148 0.127444
vt 0.987148 0.256778
vt 0.989829 0.127444
vt 0.989829 0.256778
vt 0.701977 0.002481
vt 0.700982 0.002481
vt 0.700982 0.937010
vt 0.701977 0.937010
vt 0.700982 0.002481
vt 0.669055 0.002481
vt 0.669055 0.937010
vt 0.700982 0.937010
vt 0.669055 0.002481
vt 0.668597 0.002481
vt 0.668597 0.937010
vt 0.669055 0.937010
vt 0.943949 0.256778
vt 0.946689 0.256778
vt 0.946689 0.375415
vt 0.943949 0.375415
vt 0.987148 0.256778
vt 0.987148 0.375415
vt 0.989829 0.256778
vt 0.989829 0.375415
vn 0.0000 0.1133 0.9936
vn 0.0000 -0.1133 -0.9936
vn 0.0000 0.9936 -0.1127
vn -0.0000 0.9936 -0.1132
vn 0.0000 0.9936 -0.1130
vn 0.0000 0.9936 -0.1133
vn 0.0000 0.9936 -0.1129
vn 1.0000 0.0000 0.0000
vn -0.8377 0.0618 0.5427
vn -0.8376 0.0619 0.5427
vn -1.0000 0.0000 0.0000
vn -0.8377 -0.0619 -0.5427
vn -0.8376 -0.0619 -0.5428
vn 0.0000 -0.9936 0.1130
vn 0.0000 -0.9936 0.1128
vn 0.0000 -0.9936 0.1133
vn 0.0000 -0.9935 0.1137
vn -0.0003 -0.9935 0.1137
vn 0.0000 -0.9935 0.1138
vn -0.0000 -0.9935 0.1134
usemtl BooksBSDF
s off
f 1/1/1 2/2/1 3/3/1
f 1/1/1 3/3/1 4/4/1
f 5/5/2 6/6/2 7/7/2
f 5/5/2 7/7/2 8/8/2
f 9/9/3 10/10/4 11/11/3
f 9/9/5 11/11/5 12/12/5
f 12/12/6 13/13/6 14/14/6
f 12/12/6 14/14/6 9/9/6
f 13/13/5 15/15/6 16/16/5
f 13/13/7 16/16/7 14/14/7
f 17/17/8 18/18/8 19/19/8
f 17/17/8 19/19/8 20/20/8
f 18/18/8 21/21/8 22/22/8
f 18/18/8 22/22/8 19/19/8
f 21/21/8 23/23/8 24/24/8
f 21/21/8 24/24/8 22/22/8
f 25/25/9 26/26/9 27/27/9
f 25/25/10 27/27/10 28/28/10
f 29/29/11 30/30/11 31/31/11
f 29/29/11 31/31/11 32/32/11
f 33/33/12 34/34/12 35/35/12
f 33/33/13 35/35/13 36/36/13
f 37/37/14 38/38/14 39/39/14
f 37/37/15 39/39/15 40/40/15
f 38/38/16 41/41/16 42/42/16
f 38/38/16 42/42/16 39/39/16
f 41/41/17 43/43/16 44/44/18
f 41/41/19 44/44/20 42/42/19
