# Blender v3.4.1 OBJ File: 'livingroom.blend'
# www.blender.org
mtllib DrawerHandles_0003.mtl
o DrawerHandles_0003
v 0.495743 0.372752 3.218820
v 0.495743 0.372752 3.216434
v 0.570545 0.372752 3.216434
v 0.570545 0.372752 3.218820
v 0.495743 0.372752 3.208416
v 0.495743 0.372752 3.205976
v 0.570545 0.372752 3.205976
v 0.570545 0.372752 3.208416
v 0.570545 0.369021 3.216689
v 0.495743 0.369021 3.216689
v 0.495743 0.360791 3.218138
v 0.570545 0.360791 3.218138
v 0.570961 0.369015 3.219491
v 0.570961 0.369015 3.217113
v 0.570961 0.360865 3.218547
v 0.570961 0.361301 3.220942
v 0.495743 0.369015 3.208832
v 0.570545 0.369015 3.208832
v 0.570545 0.360976 3.208832
v 0.495743 0.360976 3.208832
v 0.570545 0.369847 3.205560
v 0.570545 0.372336 3.205560
v 0.495743 0.372336 3.205560
v 0.495743 0.369847 3.205560
v 0.570961 0.372336 3.218889
v 0.570961 0.372336 3.216516
v 0.570961 0.369847 3.216965
v 0.570961 0.369847 3.219338
v 0.570545 0.360560 3.208416
v 0.570545 0.360560 3.205976
v 0.495743 0.360560 3.205976
v 0.495743 0.360560 3.208416
v 0.495327 0.369847 3.208416
v 0.495327 0.369847 3.205976
v 0.495327 0.372336 3.205976
v 0.495327 0.372336 3.208416
v 0.495743 0.372342 3.219310
v 0.570545 0.372342 3.219310
v 0.570545 0.369841 3.219762
v 0.495743 0.369841 3.219762
v 0.495743 0.372752 3.215601
v 0.495743 0.372752 3.209248
v 0.570545 0.372752 3.209248
v 0.570545 0.372752 3.215601
v 0.495327 0.369015 3.205976
v 0.495327 0.369015 3.208416
v 0.495327 0.360976 3.208416
v 0.495327 0.360976 3.205976
v 0.495327 0.369847 3.216120
v 0.495327 0.369847 3.209248
v 0.495327 0.372336 3.209248
v 0.495327 0.372336 3.215670
v 0.570961 0.372336 3.215670
v 0.570961 0.372336 3.209248
v 0.570961 0.369847 3.209248
v 0.570961 0.369847 3.216120
v 0.570545 0.369015 3.205560
v 0.495743 0.369015 3.205560
v 0.495743 0.360976 3.205560
v 0.570545 0.360976 3.205560
v 0.570961 0.372336 3.208416
v 0.570961 0.372336 3.205976
v 0.570961 0.369847 3.205976
v 0.570961 0.369847 3.208416
v 0.570545 0.369431 3.216201
v 0.570545 0.369431 3.209248
v 0.495743 0.369431 3.209248
v 0.495743 0.369431 3.216201
v 0.495743 0.369022 3.219913
v 0.570545 0.369022 3.219913
v 0.570545 0.361376 3.221351
v 0.495743 0.361376 3.221351
v 0.570961 0.369015 3.208416
v 0.570961 0.369015 3.205976
v 0.570961 0.360976 3.205976
v 0.570961 0.360976 3.208416
v 0.495327 0.369015 3.217113
v 0.495327 0.369015 3.219491
v 0.495327 0.361301 3.220942
v 0.495327 0.360865 3.218547
v 0.570545 0.360892 3.221019
v 0.570545 0.360455 3.218619
v 0.495743 0.360455 3.218619
v 0.495743 0.360892 3.221019
v 0.495743 0.372342 3.219310
v 0.495327 0.372336 3.218889
v 0.495743 0.372752 3.218820
v 0.570545 0.369841 3.219762
v 0.570961 0.369847 3.219338
v 0.570961 0.369015 3.219491
v 0.570545 0.369022 3.219913
v 0.495327 0.369015 3.219491
v 0.495327 0.369847 3.219338
v 0.495743 0.369841 3.219762
v 0.495743 0.369022 3.219913
v 0.570545 0.372342 3.219310
v 0.570545 0.372752 3.218820
v 0.570961 0.372336 3.218889
v 0.570545 0.372336 3.205560
v 0.570961 0.372336 3.205976
v 0.570545 0.372752 3.205976
v 0.495327 0.369015 3.205976
v 0.495743 0.369015 3.205560
v 0.495743 0.369847 3.205560
v 0.495327 0.369847 3.205976
v 0.570545 0.369847 3.205560
v 0.570545 0.369015 3.205560
v 0.570961 0.369015 3.205976
v 0.570961 0.369847 3.205976
v 0.495743 0.372336 3.205560
v 0.495743 0.372752 3.205976
v 0.495327 0.372336 3.205976
v 0.570545 0.369021 3.216689
v 0.570961 0.369015 3.217113
v 0.570961 0.369847 3.216965
v 0.570961 0.369847 3.216120
v 0.570545 0.369431 3.216201
v 0.570545 0.369431 3.209248
v 0.570961 0.369847 3.209248
v 0.570961 0.369847 3.208416
v 0.570961 0.369015 3.208416
v 0.570545 0.369015 3.208832
v 0.495327 0.369847 3.216965
v 0.495327 0.369015 3.217113
v 0.495743 0.369021 3.216689
v 0.495743 0.369431 3.216201
v 0.495327 0.369847 3.216120
v 0.495327 0.369847 3.208416
v 0.495327 0.369847 3.209248
v 0.495743 0.369431 3.209248
v 0.495743 0.369015 3.208832
v 0.495327 0.369015 3.208416
v 0.570961 0.372336 3.216516
v 0.570545 0.372752 3.216434
v 0.570545 0.372752 3.215601
v 0.570961 0.372336 3.215670
v 0.570961 0.372336 3.209248
v 0.570545 0.372752 3.209248
v 0.570545 0.372752 3.208416
v 0.570961 0.372336 3.208416
v 0.495743 0.372752 3.216434
v 0.495327 0.372336 3.216516
v 0.495327 0.372336 3.215670
v 0.495743 0.372752 3.215601
v 0.495743 0.372752 3.209248
v 0.495327 0.372336 3.209248
v 0.495327 0.372336 3.208416
v 0.495743 0.372752 3.208416
v 0.495743 0.360976 3.208832
v 0.495743 0.360560 3.208416
v 0.495327 0.360976 3.208416
v 0.570545 0.360976 3.208832
v 0.570961 0.360976 3.208416
v 0.570545 0.360560 3.208416
v 0.570545 0.360791 3.218138
v 0.570545 0.360455 3.218619
v 0.570961 0.360865 3.218547
v 0.495743 0.360791 3.218138
v 0.495327 0.360865 3.218547
v 0.495743 0.360455 3.218619
v 0.495327 0.360976 3.205976
v 0.495743 0.360560 3.205976
v 0.495743 0.360976 3.205560
v 0.495327 0.361301 3.220942
v 0.495743 0.361376 3.221351
v 0.495743 0.360892 3.221019
v 0.570961 0.360976 3.205976
v 0.570545 0.360976 3.205560
v 0.570545 0.360560 3.205976
v 0.570961 0.361301 3.220942
v 0.570545 0.360892 3.221019
v 0.570545 0.361376 3.221351
v 0.495743 0.372342 3.219310
v 0.495743 0.369841 3.219762
v 0.495327 0.369847 3.219338
v 0.495327 0.372336 3.218889
v 0.495743 0.372752 3.218820
v 0.570545 0.372752 3.218820
v 0.570545 0.372342 3.219310
v 0.495743 0.372342 3.219310
v 0.570545 0.369841 3.219762
v 0.570545 0.372342 3.219310
v 0.570961 0.372336 3.218889
v 0.570961 0.369847 3.219338
v 0.570545 0.369022 3.219913
v 0.495743 0.369022 3.219913
v 0.495743 0.369841 3.219762
v 0.570545 0.369841 3.219762
v 0.570545 0.372336 3.205560
v 0.570961 0.372336 3.205976
v 0.570545 0.372752 3.205976
v 0.495743 0.372752 3.205976
v 0.495743 0.372336 3.205560
v 0.570545 0.372336 3.205560
v 0.495743 0.369847 3.205560
v 0.495743 0.372336 3.205560
v 0.495327 0.372336 3.205976
v 0.495327 0.369847 3.205976
v 0.570961 0.369847 3.216120
v 0.570961 0.369847 3.209248
v 0.570545 0.369431 3.209248
v 0.570545 0.369431 3.216201
v 0.495327 0.369847 3.216965
v 0.495327 0.369847 3.219338
v 0.495743 0.369431 3.216201
v 0.495743 0.369431 3.209248
v 0.495327 0.369847 3.209248
v 0.495327 0.369847 3.216120
v 0.570545 0.372752 3.218820
v 0.570545 0.372752 3.216434
v 0.570961 0.372336 3.216516
v 0.570961 0.372336 3.218889
v 0.570545 0.372752 3.215601
v 0.570545 0.372752 3.209248
v 0.570961 0.372336 3.209248
v 0.570961 0.372336 3.215670
v 0.570961 0.372336 3.205976
v 0.570961 0.372336 3.208416
v 0.570545 0.372752 3.208416
v 0.570545 0.372752 3.205976
v 0.495327 0.372336 3.218889
v 0.495327 0.372336 3.216516
v 0.495743 0.372752 3.216434
v 0.495743 0.372752 3.218820
v 0.495327 0.372336 3.215670
v 0.495327 0.372336 3.209248
v 0.495743 0.372752 3.209248
v 0.495743 0.372752 3.215601
v 0.495743 0.372752 3.205976
v 0.495743 0.372752 3.208416
v 0.495327 0.372336 3.208416
v 0.495327 0.372336 3.205976
v 0.570545 0.369431 3.216201
v 0.495743 0.369431 3.216201
v 0.495743 0.369021 3.216689
v 0.570545 0.369021 3.216689
v 0.570545 0.369015 3.208832
v 0.495743 0.369015 3.208832
v 0.495743 0.369431 3.209248
v 0.570545 0.369431 3.209248
v 0.495327 0.372336 3.216516
v 0.570961 0.369015 3.208416
v 0.570961 0.360976 3.208416
v 0.570545 0.360976 3.208832
v 0.570545 0.369015 3.208832
v 0.495743 0.360976 3.208832
v 0.570545 0.360976 3.208832
v 0.570545 0.360560 3.208416
v 0.495743 0.360560 3.208416
v 0.495743 0.369015 3.208832
v 0.495743 0.360976 3.208832
v 0.495327 0.360976 3.208416
v 0.495327 0.369015 3.208416
v 0.495327 0.369015 3.217113
v 0.495327 0.360865 3.218547
v 0.495743 0.360791 3.218138
v 0.495743 0.369021 3.216689
v 0.570545 0.360791 3.218138
v 0.495743 0.360791 3.218138
v 0.495743 0.360455 3.218619
v 0.570545 0.360455 3.218619
v 0.570545 0.369021 3.216689
v 0.570545 0.360791 3.218138
v 0.570961 0.360865 3.218547
v 0.570961 0.369015 3.217113
v 0.495743 0.360560 3.208416
v 0.495743 0.360560 3.205976
v 0.495327 0.360976 3.205976
v 0.495327 0.360976 3.208416
v 0.495327 0.369015 3.205976
v 0.495327 0.360976 3.205976
v 0.495743 0.360976 3.205560
v 0.495743 0.369015 3.205560
v 0.495743 0.369022 3.219913
v 0.495743 0.361376 3.221351
v 0.495327 0.361301 3.220942
v 0.495327 0.369015 3.219491
v 0.495327 0.360865 3.218547
v 0.495327 0.361301 3.220942
v 0.495743 0.360892 3.221019
v 0.495743 0.360455 3.218619
v 0.570545 0.369015 3.205560
v 0.570545 0.360976 3.205560
v 0.570961 0.360976 3.205976
v 0.570961 0.369015 3.205976
v 0.570961 0.360976 3.208416
v 0.570961 0.360976 3.205976
v 0.570545 0.360560 3.205976
v 0.570545 0.360560 3.208416
v 0.570545 0.360455 3.218619
v 0.570545 0.360892 3.221019
v 0.570961 0.361301 3.220942
v 0.570961 0.360865 3.218547
v 0.570961 0.369015 3.219491
v 0.570961 0.361301 3.220942
v 0.570545 0.361376 3.221351
v 0.570545 0.369022 3.219913
v 0.495743 0.360560 3.205976
v 0.570545 0.360560 3.205976
v 0.570545 0.360976 3.205560
v 0.495743 0.360976 3.205560
v 0.495743 0.361376 3.221351
v 0.570545 0.361376 3.221351
v 0.570545 0.360892 3.221019
v 0.495743 0.360892 3.221019
v 0.495327 0.372336 3.218889
vt 0.000000 0.000000
vt 0.000000 0.000000
vt 0.000000 0.000000
vt 0.000000 0.000000
vt 0.000000 0.000000
vt 0.000000 0.000000
vt 0.000000 0.000000
vt 0.000000 0.000000
vt 0.000000 0.000000
vt 0.000000 0.000000
vt 0.000000 0.000000
vt 0.000000 0.000000
vt 0.000000 0.000000
vt 0.000000 0.000000
vt 0.000000 0.000000
vt 0.000000 0.000000
vt 0.000000 0.000000
vt 0.000000 0.000000
vt 0.000000 0.000000
vt 0.000000 0.000000
vt 0.000000 0.000000
vt 0.000000 0.000000
vt 0.000000 0.000000
vt 0.000000 0.000000
vt 0.000000 0.000000
vt 0.000000 0.000000
vt 0.000000 0.000000
vt 0.000000 0.000000
vt 0.000000 0.000000
vt 0.000000 0.000000
vt 0.000000 0.000000
vt 0.000000 0.000000
vt 0.000000 0.000000
vt 0.000000 0.000000
vt 0.000000 0.000000
vt 0.000000 0.000000
vt 0.000000 0.000000
vt 0.000000 0.000000
vt 0.000000 0.000000
vt 0.000000 0.000000
vt 0.000000 0.000000
vt 0.000000 0.000000
vt 0.000000 0.000000
vt 0.000000 0.000000
vt 0.000000 0.000000
vt 0.000000 0.000000
vt 0.000000 0.000000
vt 0.000000 0.000000
vt 0.000000 0.000000
vt 0.000000 0.000000
vt 0.000000 0.000000
vt 0.000000 0.000000
vt 0.000000 0.000000
vt 0.000000 0.000000
vt 0.000000 0.000000
vt 0.000000 0.000000
vt 0.000000 0.000000
vt 0.000000 0.000000
vt 0.000000 0.000000
vt 0.000000 0.000000
vt 0.000000 0.000000
vt 0.000000 0.000000
vt 0.000000 0.000000
vt 0.000000 0.000000
vt 0.000000 0.000000
vt 0.000000 0.000000
vt 0.000000 0.000000
vt 0.000000 0.000000
vt 0.000000 0.000000
vt 0.000000 0.000000
vt 0.000000 0.000000
vt 0.000000 0.000000
vt 0.000000 0.000000
vt 0.000000 0.000000
vt 0.000000 0.000000
vt 0.000000 0.000000
vt 0.000000 0.000000
vt 0.000000 0.000000
vt 0.000000 0.000000
vt 0.000000 0.000000
vt 0.000000 0.000000
vt 0.000000 0.000000
vt 0.000000 0.000000
vt 0.000000 0.000000
vt 0.000000 0.000000
vt 0.000000 0.000000
vt 0.000000 0.000000
vt 0.000000 0.000000
vt 0.000000 0.000000
vt 0.000000 0.000000
vt 0.000000 0.000000
vt 0.000000 0.000000
vt 0.000000 0.000000
vt 0.000000 0.000000
vt 0.000000 0.000000
vt 0.000000 0.000000
vt 0.000000 0.000000
vt 0.000000 0.000000
vt 0.000000 0.000000
vt 0.000000 0.000000
vt 0.000000 0.000000
vt 0.000000 0.000000
vt 0.000000 0.000000
vt 0.000000 0.000000
vt 0.000000 0.000000
vt 0.000000 0.000000
vt 0.000000 0.000000
vt 0.000000 0.000000
vt 0.000000 0.000000
vt 0.000000 0.000000
vt 0.000000 0.000000
vt 0.000000 0.000000
vt 0.000000 0.000000
vt 0.000000 0.000000
vt 0.000000 0.000000
vt 0.000000 0.000000
vt 0.000000 0.000000
vt 0.000000 0.000000
vt 0.000000 0.000000
vt 0.000000 0.000000
vt 0.000000 0.000000
vt 0.000000 0.000000
vt 0.000000 0.000000
vt 0.000000 0.000000
vt 0.000000 0.000000
vt 0.000000 0.000000
vt 0.000000 0.000000
vt 0.000000 0.000000
vt 0.000000 0.000000
vt 0.000000 0.000000
vt 0.000000 0.000000
vt 0.000000 0.000000
vt 0.000000 0.000000
vt 0.000000 0.000000
vt 0.000000 0.000000
vt 0.000000 0.000000
vt 0.000000 0.000000
vt 0.000000 0.000000
vt 0.000000 0.000000
vt 0.000000 0.000000
vt 0.000000 0.000000
vt 0.000000 0.000000
vt 0.000000 0.000000
vt 0.000000 0.000000
vt 0.000000 0.000000
vt 0.000000 0.000000
vt 0.000000 0.000000
vt 0.000000 0.000000
vt 0.000000 0.000000
vt 0.000000 0.000000
vt 0.000000 0.000000
vt 0.000000 0.000000
vt 0.000000 0.000000
vt 0.000000 0.000000
vt 0.000000 0.000000
vt 0.000000 0.000000
vt 0.000000 0.000000
vt 0.000000 0.000000
vt 0.000000 0.000000
vt 0.000000 0.000000
vt 0.000000 0.000000
vt 0.000000 0.000000
vt 0.000000 0.000000
vt 0.000000 0.000000
vt 0.000000 0.000000
vt 0.000000 0.000000
vt 0.000000 0.000000
vt 0.000000 0.000000
vt 0.000000 0.000000
vt 0.000000 0.000000
vt 0.000000 0.000000
vt 0.000000 0.000000
vt 0.000000 0.000000
vt 0.000000 0.000000
vt 0.000000 0.000000
vt 0.000000 0.000000
vt 0.000000 0.000000
vt 0.000000 0.000000
vt 0.000000 0.000000
vt 0.000000 0.000000
vt 0.000000 0.000000
vt 0.000000 0.000000
vt 0.000000 0.000000
vt 0.000000 0.000000
vt 0.000000 0.000000
vt 0.000000 0.000000
vt 0.000000 0.000000
vt 0.000000 0.000000
vt 0.000000 0.000000
vt 0.000000 0.000000
vt 0.000000 0.000000
vt 0.000000 0.000000
vt 0.000000 0.000000
vt 0.000000 0.000000
vt 0.000000 0.000000
vt 0.000000 0.000000
vt 0.000000 0.000000
vt 0.000000 0.000000
vt 0.000000 0.000000
vt 0.000000 0.000000
vt 0.000000 0.000000
vt 0.000000 0.000000
vt 0.000000 0.000000
vt 0.000000 0.000000
vt 0.000000 0.000000
vt 0.000000 0.000000
vt 0.000000 0.000000
vt 0.000000 0.000000
vt 0.000000 0.000000
vt 0.000000 0.000000
vt 0.000000 0.000000
vt 0.000000 0.000000
vt 0.000000 0.000000
vt 0.000000 0.000000
vt 0.000000 0.000000
vt 0.000000 0.000000
vt 0.000000 0.000000
vt 0.000000 0.000000
vt 0.000000 0.000000
vt 0.000000 0.000000
vt 0.000000 0.000000
vt 0.000000 0.000000
vt 0.000000 0.000000
vt 0.000000 0.000000
vt 0.000000 0.000000
vt 0.000000 0.000000
vt 0.000000 0.000000
vt 0.000000 0.000000
vt 0.000000 0.000000
vt 0.000000 0.000000
vt 0.000000 0.000000
vt 0.000000 0.000000
vt 0.000000 0.000000
vt 0.000000 0.000000
vt 0.000000 0.000000
vt 0.000000 0.000000
vt 0.000000 0.000000
vt 0.000000 0.000000
vt 0.000000 0.000000
vt 0.000000 0.000000
vt 0.000000 0.000000
vt 0.000000 0.000000
vt 0.000000 0.000000
vt 0.000000 0.000000
vt 0.000000 0.000000
vt 0.000000 0.000000
vt 0.000000 0.000000
vt 0.000000 0.000000
vt 0.000000 0.000000
vt 0.000000 0.000000
vt 0.000000 0.000000
vt 0.000000 0.000000
vt 0.000000 0.000000
vt 0.000000 0.000000
vt 0.000000 0.000000
vt 0.000000 0.000000
vt 0.000000 0.000000
vt 0.000000 0.000000
vt 0.000000 0.000000
vt 0.000000 0.000000
vt 0.000000 0.000000
vt 0.000000 0.000000
vt 0.000000 0.000000
vt 0.000000 0.000000
vt 0.000000 0.000000
vt 0.000000 0.000000
vt 0.000000 0.000000
vt 0.000000 0.000000
vt 0.000000 0.000000
vt 0.000000 0.000000
vt 0.000000 0.000000
vt 0.000000 0.000000
vt 0.000000 0.000000
vt 0.000000 0.000000
vt 0.000000 0.000000
vt 0.000000 0.000000
vt 0.000000 0.000000
vt 0.000000 0.000000
vt 0.000000 0.000000
vt 0.000000 0.000000
vt 0.000000 0.000000
vt 0.000000 0.000000
vt 0.000000 0.000000
vt 0.000000 0.000000
vt 0.000000 0.000000
vt 0.000000 0.000000
vt 0.000000 0.000000
vt 0.000000 0.000000
vt 0.000000 0.000000
vt 0.000000 0.000000
vt 0.000000 0.000000
vt 0.000000 0.000000
vt 0.000000 0.000000
vt 0.000000 0.000000
vt 0.000000 0.000000
vt 0.000000 0.000000
vt 0.000000 0.000000
vt 0.000000 0.000000
vt 0.000000 0.000000
vt 0.000000 0.000000
vt 0.000000 0.000000
vt 0.000000 0.000000
vt 0.000000 0.000000
vt 0.000000 0.000000
vt 0.000000 0.000000
vt 0.000000 0.000000
vn 0.0000 -1.0000 0.0000
vn 0.0000 0.1734 0.9849
vn -1.0000 0.0000 0.0000
vn 0.0000 0.0000 -1.0000
vn 0.0000 0.0000 1.0000
vn 0.0000 1.0000 0.0000
vn 1.0000 0.0000 0.0000
vn 0.0000 -0.1779 -0.9841
vn 0.0000 -0.1848 -0.9828
vn 0.0000 0.9838 -0.1791
vn 0.0000 0.9838 -0.1792
vn 0.5517 -0.6396 -0.5353
vn -0.7072 -0.1279 -0.6953
vn -0.7069 -0.1280 -0.6956
vn -0.7079 -0.1281 -0.6946
vn -0.7076 -0.1279 -0.6949
vn -0.7073 -0.1280 -0.6952
vn 0.7069 -0.1281 -0.6957
vn 0.7071 -0.1280 -0.6955
vn 0.7078 -0.1279 -0.6947
vn 0.7081 -0.1280 -0.6945
vn 0.7074 -0.1280 -0.6951
vn -0.5517 -0.6397 -0.5352
vn -0.5773 -0.5774 0.5774
vn 0.7074 0.0000 0.7068
vn 0.7070 0.0000 0.7072
vn -0.7075 0.0000 0.7068
vn -0.7070 0.0000 0.7072
vn 0.5772 -0.5774 0.5774
vn -0.6888 0.2283 0.6881
vn -0.8348 0.4220 0.3537
vn -0.6493 0.2175 0.7288
vn -0.8633 0.4964 -0.0909
vn -0.8723 0.4763 0.1102
vn -0.9096 0.3617 0.2045
vn -0.5797 0.6795 0.4497
vn -0.6421 0.4600 0.6134
vn -0.7017 0.7048 -0.1041
vn -0.8552 0.3665 -0.3665
vn -0.6572 0.7490 -0.0842
vn -0.8655 -0.0891 -0.4928
vn -0.8773 0.1028 -0.4689
vn -0.9144 0.2261 -0.3357
vn -0.6255 0.4895 -0.6075
vn -0.6954 0.6230 -0.3582
vn -0.8552 0.3665 -0.3664
vn 0.7085 0.1194 0.6955
vn 0.8348 0.4220 0.3536
vn 0.6002 0.2848 0.7474
vn 0.8917 0.3465 0.2912
vn 0.8647 0.4810 0.1448
vn 0.8647 0.2261 0.4485
vn 0.7079 0.7063 -0.0043
vn 0.5998 0.7862 0.1488
vn 0.7087 0.7055 0.0070
vn 0.8552 0.3665 -0.3665
vn 0.6008 0.7836 -0.1582
vn 0.9078 0.2965 -0.2965
vn 0.8775 0.1632 -0.4509
vn 0.8775 0.4509 -0.1632
vn 0.7085 -0.0070 -0.7056
vn 0.6007 0.1582 -0.7837
vn -0.7070 -0.7072 0.0000
vn -0.7073 -0.7070 0.0000
vn -0.7071 -0.7071 0.0000
vn 0.7070 -0.7072 0.0000
vn 0.7073 -0.7070 0.0000
vn 0.7069 -0.7073 0.0000
vn 0.7072 -0.7070 0.0000
vn 0.5772 0.5774 -0.5775
vn -0.5773 0.5774 -0.5774
vn -0.5789 0.6692 0.4659
vn 0.5788 0.6692 0.4660
vn 0.5772 0.5774 0.5775
vn 0.5792 0.4620 -0.6717
vn -0.5773 0.5774 0.5774
vn -0.5792 0.4621 -0.6716
vn 0.7072 -0.1262 -0.6957
vn 0.7068 -0.1258 -0.6961
vn 0.7069 -0.1258 -0.6961
vn 0.7069 -0.1259 -0.6960
vn 0.7069 -0.1258 -0.6960
vn 0.0007 -0.7669 -0.6418
vn 0.0000 -0.7674 -0.6412
vn -0.0008 -0.7669 -0.6417
vn -0.7061 -0.1251 -0.6970
vn -0.7069 -0.1258 -0.6960
vn -0.7066 -0.1259 -0.6964
vn -0.7071 -0.1258 -0.6959
vn -0.7078 -0.1254 -0.6952
vn 0.0000 -0.1812 -0.9834
vn -0.7072 0.0000 0.7070
vn 0.0000 -0.7071 0.7071
vn 0.0000 -0.7072 0.7070
vn 0.7072 0.0000 0.7070
vn -0.7071 0.7071 0.0000
vn -0.7072 0.7070 0.0000
vn 0.7072 0.7070 0.0000
vn 0.7070 0.7072 0.0000
vn -0.7072 -0.7070 0.0000
vn 0.7071 -0.7072 0.0000
vn 0.7071 -0.7071 0.0000
vn 0.0000 0.7657 0.6433
vn 0.0000 0.7657 0.6432
vn 0.0000 0.7071 -0.7071
vn -0.7072 0.0000 -0.7070
vn 0.0000 0.7072 -0.7070
vn 0.7072 0.0000 -0.7070
vn 0.7065 0.1228 0.6970
vn 0.7071 0.1225 0.6964
vn 0.7070 0.1226 0.6965
vn 0.7075 0.1225 0.6961
vn 0.7080 0.1223 0.6956
vn 0.7072 0.1225 0.6963
vn -0.0014 0.8199 0.5725
vn 0.0000 0.8207 0.5714
vn -0.0000 0.8206 0.5715
vn 0.0013 0.8198 0.5726
vn -0.7067 0.1221 0.6969
vn -0.7068 0.1226 0.6967
vn -0.7074 0.1225 0.6961
vn -0.7079 0.1224 0.6957
vn 0.7071 0.7071 0.0000
vn 0.7068 -0.1312 -0.6952
vn 0.7068 -0.1307 -0.6952
vn 0.7069 -0.1308 -0.6951
vn 0.7073 -0.1307 -0.6947
vn 0.7068 -0.1308 -0.6952
vn 0.7072 0.6956 -0.1266
vn 0.7070 0.6958 -0.1267
vn 0.7074 0.6954 -0.1267
vn 0.7073 0.6954 -0.1270
vn -0.7074 0.6954 -0.1266
vn -0.7071 0.6956 -0.1267
vn -0.7072 0.6956 -0.1266
vn -0.7069 0.6959 -0.1265
vn -0.7059 -0.1307 -0.6962
vn -0.7065 -0.1309 -0.6955
vn -0.7069 -0.1308 -0.6952
vn -0.7070 -0.1308 -0.6951
vn -0.7079 -0.1307 -0.6941
vn -0.7069 -0.1308 -0.6951
vn 0.0000 0.7071 0.7071
vn 0.0000 0.7072 0.7070
vn 0.0015 0.5655 -0.8247
vn -0.0000 0.5669 -0.8238
vn 0.0000 0.5668 -0.8239
vn -0.0015 0.5655 -0.8247
usemtl DrawerHandlesBSDF
s off
f 1/1/1 2/2/1 3/3/1
f 1/1/1 3/3/1 4/4/1
f 5/5/1 6/6/1 7/7/1
f 5/5/1 7/7/1 8/8/1
f 9/9/2 10/10/2 11/11/2
f 9/9/2 11/11/2 12/12/2
f 13/13/3 14/14/3 15/15/3
f 13/13/3 15/15/3 16/16/3
f 17/17/4 18/18/4 19/19/4
f 17/17/4 19/19/4 20/20/4
f 21/21/5 22/22/5 23/23/5
f 21/21/5 23/23/5 24/24/5
f 25/25/3 26/26/3 27/27/3
f 25/25/3 27/27/3 28/28/3
f 29/29/6 30/30/6 31/31/6
f 29/29/6 31/31/6 32/32/6
f 33/33/7 34/34/7 35/35/7
f 33/33/7 35/35/7 36/36/7
f 37/37/8 38/38/8 39/39/8
f 37/37/8 39/39/8 40/40/8
f 41/41/1 42/42/1 43/43/1
f 41/41/1 43/43/1 44/44/1
f 45/45/7 46/46/7 47/47/7
f 45/45/7 47/47/7 48/48/7
f 49/49/7 50/50/7 51/51/7
f 49/49/7 51/51/7 52/52/7
f 53/53/3 54/54/3 55/55/3
f 53/53/3 55/55/3 56/56/3
f 57/57/5 58/58/5 59/59/5
f 57/57/5 59/59/5 60/60/5
f 61/61/3 62/62/3 63/63/3
f 61/61/3 63/63/3 64/64/3
f 65/65/6 66/66/6 67/67/6
f 65/65/6 67/67/6 68/68/6
f 69/69/9 70/70/9 71/71/9
f 69/69/9 71/71/9 72/72/9
f 73/73/3 74/74/3 75/75/3
f 73/73/3 75/75/3 76/76/3
f 77/77/7 78/78/7 79/79/7
f 77/77/7 79/79/7 80/80/7
f 81/81/10 82/82/10 83/83/10
f 81/81/11 83/83/11 84/84/11
f 85/85/12 86/86/12 87/87/12
f 88/88/13 89/89/13 90/90/14
f 88/88/15 90/90/16 91/91/17
f 92/92/18 93/93/19 94/94/19
f 92/92/20 94/94/21 95/95/22
f 96/96/23 97/97/23 98/98/23
f 99/99/24 100/100/24 101/101/24
f 102/102/25 103/103/25 104/104/25
f 102/102/26 104/104/26 105/105/26
f 106/106/27 107/107/27 108/108/27
f 106/106/28 108/108/28 109/109/28
f 110/110/29 111/111/29 112/112/29
f 113/113/30 114/114/31 115/115/32
f 113/113/33 115/115/34 116/116/35
f 113/113/36 116/116/37 117/117/31
f 118/118/38 119/119/39 120/120/40
f 118/118/41 120/120/42 121/121/43
f 118/118/44 121/121/45 122/122/46
f 123/123/47 124/124/48 125/125/49
f 123/123/50 125/125/51 126/126/52
f 123/123/53 126/126/54 127/127/48
f 128/128/55 129/129/56 130/130/57
f 128/128/58 130/130/59 131/131/60
f 128/128/61 131/131/62 132/132/56
f 133/133/63 134/134/63 135/135/63
f 133/133/64 135/135/64 136/136/64
f 137/137/63 138/138/63 139/139/63
f 137/137/65 139/139/65 140/140/65
f 141/141/66 142/142/66 143/143/66
f 141/141/67 143/143/67 144/144/67
f 145/145/68 146/146/68 147/147/68
f 145/145/69 147/147/69 148/148/69
f 149/149/70 150/150/70 151/151/70
f 152/152/71 153/153/71 154/154/71
f 155/155/72 156/156/72 157/157/72
f 158/158/73 159/159/73 160/160/73
f 161/161/74 162/162/74 163/163/74
f 164/164/75 165/165/75 166/166/75
f 167/167/76 168/168/76 169/169/76
f 170/170/77 171/171/77 172/172/77
f 173/173/78 174/174/79 175/175/80
f 173/173/80 175/175/81 176/176/82
f 177/177/83 178/178/84 179/179/84
f 177/177/84 179/179/85 180/180/84
f 181/181/86 182/182/87 183/183/88
f 181/181/89 183/183/90 184/184/87
f 185/185/91 186/186/91 187/187/91
f 185/185/91 187/187/91 188/188/91
f 58/58/5 57/57/5 21/21/5
f 58/58/5 21/21/5 24/24/5
f 189/189/92 106/106/92 109/109/92
f 189/189/92 109/109/92 190/190/92
f 191/191/93 192/192/93 193/193/93
f 191/191/94 193/193/94 194/194/94
f 195/195/95 196/196/95 197/197/95
f 195/195/95 197/197/95 198/198/95
f 28/28/3 27/27/3 14/14/3
f 28/28/3 14/14/3 13/13/3
f 199/199/96 200/200/96 201/201/96
f 199/199/97 201/201/97 202/202/97
f 74/74/3 73/73/3 64/64/3
f 74/74/3 64/64/3 63/63/3
f 78/78/7 77/77/7 203/203/7
f 78/78/7 203/203/7 204/204/7
f 205/205/98 206/206/98 207/207/98
f 205/205/99 207/207/99 208/208/99
f 34/34/7 33/33/7 46/46/7
f 34/34/7 46/46/7 45/45/7
f 209/209/100 210/210/100 211/211/100
f 209/209/63 211/211/63 212/212/63
f 213/213/65 214/214/65 215/215/65
f 213/213/65 215/215/65 216/216/65
f 217/217/63 218/218/63 219/219/63
f 217/217/100 219/219/100 220/220/100
f 221/221/101 222/222/101 223/223/101
f 221/221/102 223/223/102 224/224/102
f 225/225/66 226/226/66 227/227/66
f 225/225/102 227/227/102 228/228/102
f 229/229/66 230/230/66 231/231/66
f 229/229/102 231/231/102 232/232/102
f 233/233/103 234/234/103 235/235/103
f 233/233/104 235/235/104 236/236/104
f 237/237/105 238/238/105 239/239/105
f 237/237/105 239/239/105 240/240/105
f 27/27/3 26/26/3 53/53/3
f 27/27/3 53/53/3 56/56/3
f 55/55/3 54/54/3 61/61/3
f 55/55/3 61/61/3 64/64/3
f 3/3/1 2/2/1 41/41/1
f 3/3/1 41/41/1 44/44/1
f 43/43/1 42/42/1 5/5/1
f 43/43/1 5/5/1 8/8/1
f 49/49/7 52/52/7 241/241/7
f 49/49/7 241/241/7 203/203/7
f 33/33/7 36/36/7 51/51/7
f 33/33/7 51/51/7 50/50/7
f 242/242/106 243/243/106 244/244/106
f 242/242/106 244/244/106 245/245/106
f 246/246/107 247/247/107 248/248/107
f 246/246/105 248/248/105 249/249/105
f 250/250/108 251/251/108 252/252/108
f 250/250/108 252/252/108 253/253/108
f 254/254/109 255/255/110 256/256/111
f 254/254/112 256/256/113 257/257/114
f 258/258/115 259/259/116 260/260/117
f 258/258/117 260/260/118 261/261/117
f 262/262/119 263/263/120 264/264/120
f 262/262/121 264/264/122 265/265/121
f 266/266/123 267/267/123 268/268/123
f 266/266/99 268/268/99 269/269/99
f 270/270/95 271/271/95 272/272/95
f 270/270/95 272/272/95 273/273/95
f 274/274/124 275/275/125 276/276/125
f 274/274/126 276/276/127 277/277/128
f 278/278/129 279/279/129 280/280/130
f 278/278/131 280/280/132 281/281/131
f 282/282/92 283/283/92 284/284/92
f 282/282/92 284/284/92 285/285/92
f 286/286/96 287/287/96 288/288/96
f 286/286/96 288/288/96 289/289/96
f 290/290/133 291/291/133 292/292/134
f 290/290/135 292/292/136 293/293/135
f 294/294/137 295/295/138 296/296/139
f 294/294/140 296/296/141 297/297/142
f 298/298/143 299/299/143 300/300/143
f 298/298/144 300/300/144 301/301/144
f 302/302/145 303/303/146 304/304/147
f 302/302/147 304/304/148 305/305/147
f 241/241/7 306/306/7 204/204/7
f 241/241/7 204/204/7 203/203/7
