# Blender v3.4.1 OBJ File: 'livingroom.blend'
# www.blender.org
mtllib LoveLettersBack_0005.mtl
o LoveLettersBack_0005
v -2.213290 0.811355 4.039897
v -2.213290 0.811355 3.996277
v -2.229149 0.811355 3.996277
v -2.229149 0.811355 4.039897
v -2.229509 0.738485 4.039897
v -2.229509 0.810994 4.039897
v -2.229509 0.810994 3.996277
v -2.229509 0.738485 3.996277
v -2.213290 0.738124 3.996277
v -2.213290 0.738124 4.039897
v -2.229149 0.738124 4.039897
v -2.229149 0.738124 3.996277
v -2.212929 0.810994 3.996277
v -2.212929 0.810994 4.039897
v -2.212929 0.738485 4.039897
v -2.212929 0.738485 3.996277
v -2.213290 0.738485 4.040258
v -2.213290 0.810994 4.040258
v -2.229149 0.810994 4.040258
v -2.229149 0.738485 4.040258
v -2.212929 0.810994 3.996277
v -2.213290 0.810994 3.995916
v -2.213290 0.811355 3.996277
v -2.212929 0.738485 3.996277
v -2.213290 0.738124 3.996277
v -2.213290 0.738485 3.995916
v -2.213290 0.738485 4.040258
v -2.213290 0.738124 4.039897
v -2.212929 0.738485 4.039897
v -2.212929 0.810994 4.039897
v -2.213290 0.811355 4.039897
v -2.213290 0.810994 4.040258
v -2.229149 0.810994 4.040258
v -2.229149 0.811355 4.039897
v -2.229509 0.810994 4.039897
v -2.229149 0.738485 4.040258
v -2.229509 0.738485 4.039897
v -2.229149 0.738124 4.039897
v -2.229149 0.738485 3.995916
v -2.229149 0.738124 3.996277
v -2.229509 0.738485 3.996277
v -2.229149 0.811355 3.996277
v -2.229149 0.810994 3.995916
v -2.229509 0.810994 3.996277
v -2.212929 0.738485 3.996277
v -2.212929 0.738485 4.039897
v -2.213290 0.738124 4.039897
v -2.213290 0.738124 3.996277
v -2.212929 0.810994 3.996277
v -2.212929 0.738485 3.996277
v -2.213290 0.738485 3.995916
v -2.213290 0.810994 3.995916
v -2.213290 0.811355 3.996277
v -2.213290 0.811355 4.039897
v -2.212929 0.810994 4.039897
v -2.212929 0.810994 3.996277
v -2.212929 0.738485 4.039897
v -2.212929 0.810994 4.039897
v -2.213290 0.810994 4.040258
v -2.213290 0.738485 4.040258
v -2.213290 0.811355 4.039897
v -2.229149 0.811355 4.039897
v -2.229149 0.810994 4.040258
v -2.213290 0.810994 4.040258
v -2.229509 0.810994 4.039897
v -2.229509 0.738485 4.039897
v -2.229149 0.738485 4.040258
v -2.229149 0.810994 4.040258
v -2.213290 0.738485 4.040258
v -2.229149 0.738485 4.040258
v -2.229149 0.738124 4.039897
v -2.213290 0.738124 4.039897
v -2.213290 0.810994 3.995916
v -2.229149 0.810994 3.995916
v -2.229149 0.811355 3.996277
v -2.213290 0.811355 3.996277
v -2.229149 0.811355 4.039897
v -2.229149 0.811355 3.996277
v -2.229509 0.810994 3.996277
v -2.229509 0.810994 4.039897
v -2.213290 0.738124 3.996277
v -2.229149 0.738124 3.996277
v -2.229149 0.738485 3.995916
v -2.213290 0.738485 3.995916
v -2.229509 0.738485 3.996277
v -2.229509 0.810994 3.996277
v -2.229149 0.810994 3.995916
v -2.229149 0.738485 3.995916
v -2.229509 0.738485 4.039897
v -2.229509 0.738485 3.996277
v -2.229149 0.738124 3.996277
v -2.229149 0.738124 4.039897
v -2.213290 0.810994 3.995916
v -2.213290 0.738485 3.995916
v -2.229149 0.738485 3.995916
v -2.229149 0.810994 3.995916
vt 0.000000 0.000000
vt 0.000000 0.000000
vt 0.000000 0.000000
vt 0.000000 0.000000
vt 0.000000 0.000000
vt 0.000000 0.000000
vt 0.000000 0.000000
vt 0.000000 0.000000
vt 0.000000 0.000000
vt 0.000000 0.000000
vt 0.000000 0.000000
vt 0.000000 0.000000
vt 0.000000 0.000000
vt 0.000000 0.000000
vt 0.000000 0.000000
vt 0.000000 0.000000
vt 0.000000 0.000000
vt 0.000000 0.000000
vt 0.000000 0.000000
vt 0.000000 0.000000
vt 0.000000 0.000000
vt 0.000000 0.000000
vt 0.000000 0.000000
vt 0.000000 0.000000
vt 0.000000 0.000000
vt 0.000000 0.000000
vt 0.000000 0.000000
vt 0.000000 0.000000
vt 0.000000 0.000000
vt 0.000000 0.000000
vt 0.000000 0.000000
vt 0.000000 0.000000
vt 0.000000 0.000000
vt 0.000000 0.000000
vt 0.000000 0.000000
vt 0.000000 0.000000
vt 0.000000 0.000000
vt 0.000000 0.000000
vt 0.000000 0.000000
vt 0.000000 0.000000
vt 0.000000 0.000000
vt 0.000000 0.000000
vt 0.000000 0.000000
vt 0.000000 0.000000
vt 0.000000 0.000000
vt 0.000000 0.000000
vt 0.000000 0.000000
vt 0.000000 0.000000
vt 0.000000 0.000000
vt 0.000000 0.000000
vt 0.000000 0.000000
vt 0.000000 0.000000
vt 0.000000 0.000000
vt 0.000000 0.000000
vt 0.000000 0.000000
vt 0.000000 0.000000
vt 0.000000 0.000000
vt 0.000000 0.000000
vt 0.000000 0.000000
vt 0.000000 0.000000
vt 0.000000 0.000000
vt 0.000000 0.000000
vt 0.000000 0.000000
vt 0.000000 0.000000
vt 0.000000 0.000000
vt 0.000000 0.000000
vt 0.000000 0.000000
vt 0.000000 0.000000
vt 0.000000 0.000000
vt 0.000000 0.000000
vt 0.000000 0.000000
vt 0.000000 0.000000
vt 0.000000 0.000000
vt 0.000000 0.000000
vt 0.000000 0.000000
vt 0.000000 0.000000
vt 0.000000 0.000000
vt 0.000000 0.000000
vt 0.000000 0.000000
vt 0.000000 0.000000
vt 0.000000 0.000000
vt 0.000000 0.000000
vt 0.000000 0.000000
vt 0.000000 0.000000
vt 0.000000 0.000000
vt 0.000000 0.000000
vt 0.000000 0.000000
vt 0.000000 0.000000
vt 0.000000 0.000000
vt 0.000000 0.000000
vt 0.000000 0.000000
vt 0.000000 0.000000
vt 0.000000 0.000000
vt 0.000000 0.000000
vt 0.000000 0.000000
vt 0.000000 0.000000
vn 0.0000 1.0000 0.0000
vn -1.0000 0.0000 0.0000
vn 0.0000 -1.0000 0.0000
vn 1.0000 0.0000 0.0000
vn 0.0000 0.0000 1.0000
vn 0.5767 0.5778 -0.5776
vn 0.5775 -0.5775 -0.5770
vn 0.5778 -0.5778 0.5765
vn 0.5778 0.5778 0.5765
vn -0.5783 0.5773 0.5765
vn -0.5783 -0.5772 0.5766
vn -0.5778 -0.5768 -0.5774
vn -0.5773 0.5773 -0.5775
vn 0.7073 -0.7069 0.0000
vn 0.7070 -0.7072 0.0000
vn 0.7078 -0.0014 -0.7064
vn 0.7078 0.0000 -0.7064
vn 0.7076 0.0000 -0.7066
vn 0.7060 -0.0000 -0.7082
vn 0.7070 0.0003 -0.7072
vn 0.7070 0.7072 0.0003
vn 0.7070 0.7072 0.0000
vn 0.7071 0.7071 0.0000
vn 0.7074 0.7068 0.0000
vn 0.7070 0.0007 0.7072
vn 0.7075 -0.0000 0.7067
vn 0.7076 0.0000 0.7066
vn 0.7070 -0.0009 0.7072
vn 0.0002 0.7074 0.7069
vn 0.0000 0.7075 0.7067
vn 0.0000 0.7074 0.7068
vn -0.0000 0.7071 0.7071
vn 0.0003 0.7069 0.7073
vn 0.0000 0.7073 0.7069
vn -0.7079 0.0000 0.7063
vn -0.0005 -0.7072 0.7071
vn 0.0000 -0.7076 0.7067
vn 0.0000 -0.7074 0.7068
vn 0.0000 -0.7075 0.7067
vn -0.0002 -0.7073 0.7069
vn 0.0000 0.7071 -0.7071
vn 0.0000 0.7069 -0.7073
vn 0.0000 0.7074 -0.7068
vn -0.7081 0.7062 -0.0013
vn -0.7072 0.7070 0.0000
vn -0.7071 0.7071 -0.0000
vn -0.7080 0.7062 0.0012
vn 0.0000 -0.7074 -0.7068
vn 0.0000 -0.7071 -0.7071
vn -0.7088 0.0023 -0.7055
vn -0.7079 0.0000 -0.7063
vn -0.7080 -0.0000 -0.7062
vn -0.7064 0.0000 -0.7079
vn -0.7079 -0.0011 -0.7063
vn -0.7063 0.0000 -0.7079
vn -0.7080 -0.7062 -0.0012
vn -0.7071 -0.7071 0.0000
vn -0.7080 -0.7062 0.0012
vn 0.0000 0.0000 -1.0000
usemtl LoveLettersBackBSDF
s off
f 1/1/1 2/2/1 3/3/1
f 1/1/1 3/3/1 4/4/1
f 5/5/2 6/6/2 7/7/2
f 5/5/2 7/7/2 8/8/2
f 9/9/3 10/10/3 11/11/3
f 9/9/3 11/11/3 12/12/3
f 13/13/4 14/14/4 15/15/4
f 13/13/4 15/15/4 16/16/4
f 17/17/5 18/18/5 19/19/5
f 17/17/5 19/19/5 20/20/5
f 21/21/6 22/22/6 23/23/6
f 24/24/7 25/25/7 26/26/7
f 27/27/8 28/28/8 29/29/8
f 30/30/9 31/31/9 32/32/9
f 33/33/10 34/34/10 35/35/10
f 36/36/11 37/37/11 38/38/11
f 39/39/12 40/40/12 41/41/12
f 42/42/13 43/43/13 44/44/13
f 45/45/14 46/46/15 47/47/14
f 45/45/15 47/47/15 48/48/15
f 49/49/16 50/50/17 51/51/18
f 49/49/19 51/51/20 52/52/19
f 53/53/21 54/54/22 55/55/22
f 53/53/23 55/55/24 56/56/23
f 57/57/25 58/58/26 59/59/27
f 57/57/26 59/59/28 60/60/26
f 61/61/29 62/62/30 63/63/31
f 61/61/32 63/63/33 64/64/34
f 65/65/35 66/66/35 67/67/35
f 65/65/35 67/67/35 68/68/35
f 69/69/36 70/70/37 71/71/38
f 69/69/39 71/71/40 72/72/39
f 73/73/41 74/74/42 75/75/41
f 73/73/43 75/75/43 76/76/43
f 77/77/44 78/78/45 79/79/45
f 77/77/46 79/79/47 80/80/45
f 81/81/48 82/82/49 83/83/48
f 81/81/48 83/83/48 84/84/48
f 85/85/50 86/86/51 87/87/52
f 85/85/53 87/87/54 88/88/55
f 89/89/56 90/90/57 91/91/57
f 89/89/57 91/91/58 92/92/57
f 93/93/59 94/94/59 95/95/59
f 93/93/59 95/95/59 96/96/59
