# Blender v3.4.1 OBJ File: 'livingroom.blend'
# www.blender.org
mtllib Table_0004.mtl
o Table_0004
v 0.772672 0.450365 2.707645
v 0.755869 0.450365 2.707645
v 0.755869 0.450364 3.205229
v 0.772672 0.450364 3.205229
v 0.755869 0.450364 3.205229
v 0.755869 0.450365 2.707645
v 0.755869 0.268823 2.707645
v 0.755869 0.268822 3.205229
v 0.755869 0.450365 2.707645
v 0.772672 0.450365 2.707645
v 0.772672 0.268823 2.707645
v 0.755869 0.268823 2.707645
v 0.772672 0.450365 2.707645
v 0.772672 0.450364 3.205229
v 0.772672 0.268822 3.205229
v 0.772672 0.268823 2.707645
v 0.772672 0.450364 3.205229
v 0.755869 0.450364 3.205229
v 0.755869 0.268822 3.205229
v 0.772672 0.268822 3.205229
v 0.755869 0.268822 3.205229
v 0.755869 0.268823 2.707645
v 0.772672 0.268823 2.707645
v 0.772672 0.268822 3.205229
v 0.293617 0.450365 2.707645
v 0.293617 0.450364 3.205229
v 0.310420 0.450364 3.205229
v 0.310420 0.450365 2.707645
v 0.310420 0.450364 3.205229
v 0.310420 0.268822 3.205229
v 0.310420 0.268823 2.707645
v 0.310420 0.450365 2.707645
v 0.310420 0.450365 2.707645
v 0.310420 0.268823 2.707645
v 0.293617 0.268823 2.707645
v 0.293617 0.450365 2.707645
v 0.293617 0.450365 2.707645
v 0.293617 0.268823 2.707645
v 0.293617 0.268822 3.205229
v 0.293617 0.450364 3.205229
v 0.293617 0.450364 3.205229
v 0.293617 0.268822 3.205229
v 0.310420 0.268822 3.205229
v 0.310420 0.450364 3.205229
v 0.310420 0.268822 3.205229
v 0.293617 0.268822 3.205229
v 0.293617 0.268823 2.707645
v 0.310420 0.268823 2.707645
vt 0.913090 0.038669
vt 0.913090 0.156662
vt 0.009628 0.156662
vt 0.009628 0.038669
vt 0.009628 0.156662
vt 0.913090 0.156662
vt 0.913090 0.467615
vt 0.009628 0.467615
vt 0.991833 0.672599
vt 0.949186 0.672599
vt 0.949186 0.348046
vt 0.991833 0.346812
vt 0.913090 0.895465
vt 0.009628 0.895465
vt 0.009628 0.584511
vt 0.913090 0.584512
vt 0.991833 0.345578
vt 0.949186 0.346812
vt 0.949186 0.021024
vt 0.991833 0.021024
vt 0.009628 0.467615
vt 0.913090 0.467615
vt 0.913090 0.584512
vt 0.009628 0.584511
vt 0.913090 0.038669
vt 0.009628 0.038669
vt 0.009628 0.156662
vt 0.913090 0.156662
vt 0.009628 0.156662
vt 0.009628 0.467615
vt 0.913090 0.467615
vt 0.913090 0.156662
vt 0.991833 0.672599
vt 0.991833 0.346812
vt 0.949186 0.348046
vt 0.949186 0.672599
vt 0.913090 0.895465
vt 0.913090 0.584512
vt 0.009628 0.584511
vt 0.009628 0.895465
vt 0.991833 0.345578
vt 0.991833 0.021024
vt 0.949186 0.021024
vt 0.949186 0.346812
vt 0.009628 0.467615
vt 0.009628 0.584511
vt 0.913090 0.584512
vt 0.913090 0.467615
vn 0.0000 1.0000 0.0000
vn -1.0000 0.0000 0.0000
vn 0.0000 0.0000 -1.0000
vn 1.0000 0.0000 0.0000
vn 0.0000 0.0000 1.0000
vn 0.0000 -1.0000 -0.0000
usemtl TableBSDF
s off
f 1/1/1 2/2/1 3/3/1
f 1/1/1 3/3/1 4/4/1
f 5/5/2 6/6/2 7/7/2
f 5/5/2 7/7/2 8/8/2
f 9/9/3 10/10/3 11/11/3
f 9/9/3 11/11/3 12/12/3
f 13/13/4 14/14/4 15/15/4
f 13/13/4 15/15/4 16/16/4
f 17/17/5 18/18/5 19/19/5
f 17/17/5 19/19/5 20/20/5
f 21/21/6 22/22/6 23/23/6
f 21/21/6 23/23/6 24/24/6
f 25/25/1 26/26/1 27/27/1
f 25/25/1 27/27/1 28/28/1
f 29/29/4 30/30/4 31/31/4
f 29/29/4 31/31/4 32/32/4
f 33/33/3 34/34/3 35/35/3
f 33/33/3 35/35/3 36/36/3
f 37/37/2 38/38/2 39/39/2
f 37/37/2 39/39/2 40/40/2
f 41/41/5 42/42/5 43/43/5
f 41/41/5 43/43/5 44/44/5
f 45/45/6 46/46/6 47/47/6
f 45/45/6 47/47/6 48/48/6
