# Blender v3.4.1 OBJ File: 'water_pool.blend'
# www.blender.org
mtllib Cube.050.mtl
o Cube.050
v -24.812140 1.496426 -8.540509
v -24.812140 1.496426 -9.540509
v -23.812140 1.496426 -9.540509
v -23.812140 1.496426 -8.540509
v -24.812140 1.506426 -8.540509
v -24.812140 1.506426 -9.540509
v -23.812140 1.506426 -9.540509
v -23.812140 1.506426 -8.540509
v -24.812140 1.496426 -9.555510
v -24.812140 1.496426 -10.555510
v -23.812140 1.496426 -10.555510
v -23.812140 1.496426 -9.555510
v -24.812140 1.506426 -9.555510
v -24.812140 1.506426 -10.555510
v -23.812140 1.506426 -10.555510
v -23.812140 1.506426 -9.555510
v -24.812140 1.496426 -10.570509
v -24.812140 1.496426 -10.970112
v -23.812140 1.496426 -10.970112
v -23.812140 1.496426 -10.570509
v -24.812140 1.506426 -10.570509
v -24.812140 1.506426 -10.970112
v -23.812140 1.506426 -10.970112
v -23.812140 1.506426 -10.570509
v -23.797140 1.496426 -8.540509
v -23.797140 1.496426 -9.540509
v -22.797140 1.496426 -9.540509
v -22.797140 1.496426 -8.540509
v -23.797140 1.506426 -8.540509
v -23.797140 1.506426 -9.540509
v -22.797140 1.506426 -9.540509
v -22.797140 1.506426 -8.540509
v -23.797140 1.496426 -9.555510
v -23.797140 1.496426 -10.555510
v -22.797140 1.496426 -10.555510
v -22.797140 1.496426 -9.555510
v -23.797140 1.506426 -9.555510
v -23.797140 1.506426 -10.555510
v -22.797140 1.506426 -10.555510
v -22.797140 1.506426 -9.555510
v -23.797140 1.496426 -10.570509
v -23.797140 1.496426 -10.970112
v -22.797140 1.496426 -10.970112
v -22.797140 1.496426 -10.570509
v -23.797140 1.506426 -10.570509
v -23.797140 1.506426 -10.970112
v -22.797140 1.506426 -10.970112
v -22.797140 1.506426 -10.570509
v -22.782139 1.496426 -8.540509
v -22.782139 1.496426 -9.540509
v -21.782139 1.496426 -9.540509
v -21.782139 1.496426 -8.540509
v -22.782139 1.506426 -8.540509
v -22.782139 1.506426 -9.540509
v -21.782139 1.506426 -9.540509
v -21.782139 1.506426 -8.540509
v -22.782139 1.496426 -9.555510
v -22.782139 1.496426 -10.555510
v -21.782139 1.496426 -10.555510
v -21.782139 1.496426 -9.555510
v -22.782139 1.506426 -9.555510
v -22.782139 1.506426 -10.555510
v -21.782139 1.506426 -10.555510
v -21.782139 1.506426 -9.555510
v -22.782139 1.496426 -10.570509
v -22.782139 1.496426 -10.970112
v -21.782139 1.496426 -10.970112
v -21.782139 1.496426 -10.570509
v -22.782139 1.506426 -10.570509
v -22.782139 1.506426 -10.970112
v -21.782139 1.506426 -10.970112
v -21.782139 1.506426 -10.570509
v -21.767139 1.496426 -8.540509
v -21.767139 1.496426 -9.540509
v -20.767139 1.496426 -9.540509
v -20.767139 1.496426 -8.540509
v -21.767139 1.506426 -8.540509
v -21.767139 1.506426 -9.540509
v -20.767139 1.506426 -9.540509
v -20.767139 1.506426 -8.540509
v -21.767139 1.496426 -9.555510
v -21.767139 1.496426 -10.555510
v -20.767139 1.496426 -10.555510
v -20.767139 1.496426 -9.555510
v -21.767139 1.506426 -9.555510
v -21.767139 1.506426 -10.555510
v -20.767139 1.506426 -10.555510
v -20.767139 1.506426 -9.555510
v -21.767139 1.496426 -10.570509
v -21.767139 1.496426 -10.970112
v -20.767139 1.496426 -10.970112
v -20.767139 1.496426 -10.570509
v -21.767139 1.506426 -10.570509
v -21.767139 1.506426 -10.970112
v -20.767139 1.506426 -10.970112
v -20.767139 1.506426 -10.570509
v -20.750959 1.496426 -8.540509
v -20.750959 1.496426 -9.540509
v -19.750959 1.496426 -9.540509
v -19.750959 1.496426 -8.540509
v -20.750959 1.506426 -8.540509
v -20.750959 1.506426 -9.540509
v -19.750959 1.506426 -9.540509
v -19.750959 1.506426 -8.540509
v -20.750959 1.496426 -9.555510
v -20.750959 1.496426 -10.555510
v -19.750959 1.496426 -10.555510
v -19.750959 1.496426 -9.555510
v -20.750959 1.506426 -9.555510
v -20.750959 1.506426 -10.555510
v -19.750959 1.506426 -10.555510
v -19.750959 1.506426 -9.555510
v -20.750959 1.496426 -10.570509
v -20.750959 1.496426 -10.970112
v -19.750959 1.496426 -10.970112
v -19.750959 1.496426 -10.570509
v -20.750959 1.506426 -10.570509
v -20.750959 1.506426 -10.970112
v -19.750959 1.506426 -10.970112
v -19.750959 1.506426 -10.570509
v -19.735960 1.496426 -8.540509
v -19.735960 1.496426 -9.540509
v -18.735960 1.496426 -9.540509
v -18.735960 1.496426 -8.540509
v -19.735960 1.506426 -8.540509
v -19.735960 1.506426 -9.540509
v -18.735960 1.506426 -9.540509
v -18.735960 1.506426 -8.540509
v -19.735960 1.496426 -9.555510
v -19.735960 1.496426 -10.555510
v -18.735960 1.496426 -10.555510
v -18.735960 1.496426 -9.555510
v -19.735960 1.506426 -9.555510
v -19.735960 1.506426 -10.555510
v -18.735960 1.506426 -10.555510
v -18.735960 1.506426 -9.555510
v -19.735960 1.496426 -10.570509
v -19.735960 1.496426 -10.970112
v -18.735960 1.496426 -10.970112
v -18.735960 1.496426 -10.570509
v -19.735960 1.506426 -10.570509
v -19.735960 1.506426 -10.970112
v -18.735960 1.506426 -10.970112
v -18.735960 1.506426 -10.570509
v -18.720959 1.496426 -8.540509
v -18.720959 1.496426 -9.540509
v -17.720959 1.496426 -9.540509
v -17.720959 1.496426 -8.540509
v -18.720959 1.506426 -8.540509
v -18.720959 1.506426 -9.540509
v -17.720959 1.506426 -9.540509
v -17.720959 1.506426 -8.540509
v -18.720959 1.496426 -9.555510
v -18.720959 1.496426 -10.555510
v -17.720959 1.496426 -10.555510
v -17.720959 1.496426 -9.555510
v -18.720959 1.506426 -9.555510
v -18.720959 1.506426 -10.555510
v -17.720959 1.506426 -10.555510
v -17.720959 1.506426 -9.555510
v -18.720959 1.496426 -10.570509
v -18.720959 1.496426 -10.970112
v -17.720959 1.496426 -10.970112
v -17.720959 1.496426 -10.570509
v -18.720959 1.506426 -10.570509
v -18.720959 1.506426 -10.970112
v -17.720959 1.506426 -10.970112
v -17.720959 1.506426 -10.570509
v -17.705959 1.496426 -8.540509
v -17.705959 1.496426 -9.540509
v -16.839605 1.496426 -9.540509
v -16.839605 1.496426 -8.540509
v -17.705959 1.506426 -8.540509
v -17.705959 1.506426 -9.540509
v -16.839605 1.506426 -9.540509
v -16.839605 1.506426 -8.540509
v -17.705959 1.496426 -9.555510
v -17.705959 1.496426 -10.555510
v -16.839605 1.496426 -10.555510
v -16.839605 1.496426 -9.555510
v -17.705959 1.506426 -9.555510
v -17.705959 1.506426 -10.555510
v -16.839605 1.506426 -10.555510
v -16.839605 1.506426 -9.555510
v -17.705959 1.496426 -10.570509
v -17.705959 1.496426 -10.970112
v -16.839605 1.496426 -10.970112
v -16.839605 1.496426 -10.570509
v -17.705959 1.506426 -10.570509
v -17.705959 1.506426 -10.970112
v -16.839605 1.506426 -10.970112
v -16.839605 1.506426 -10.570509
vt 0.011027 0.014977
vt 0.011027 0.256800
vt 0.011027 0.256800
vt 0.011027 0.014977
vt 0.252850 0.256800
vt 0.252850 0.256800
vt 0.252850 0.014977
vt 0.252850 0.014977
vt 0.250996 0.006643
vt 0.250996 0.200551
vt 0.007359 0.200551
vt 0.007359 0.006643
vt 0.011027 0.260428
vt 0.011027 0.502252
vt 0.011027 0.502252
vt 0.011027 0.260428
vt 0.252850 0.502252
vt 0.252850 0.502252
vt 0.252850 0.260428
vt 0.252850 0.260428
vt 0.248823 0.399386
vt 0.248823 0.601210
vt 0.003060 0.601210
vt 0.003060 0.399386
vt 0.011027 0.505879
vt 0.011027 0.747703
vt 0.011027 0.747703
vt 0.011027 0.505879
vt 0.252850 0.747703
vt 0.252850 0.747703
vt 0.252850 0.505879
vt 0.252850 0.505879
vt 0.245639 0.601745
vt 0.245639 0.797703
vt -0.000572 0.797703
vt -0.000572 0.601745
vt 0.256478 0.014977
vt 0.256478 0.256800
vt 0.256478 0.256800
vt 0.256478 0.014977
vt 0.498301 0.256800
vt 0.498301 0.256800
vt 0.498301 0.014977
vt 0.498301 0.014977
vt 0.498288 0.006643
vt 0.498288 0.200551
vt 0.254651 0.200551
vt 0.254651 0.006643
vt 0.256478 0.260428
vt 0.256478 0.502252
vt 0.256478 0.502252
vt 0.256478 0.260428
vt 0.498301 0.502252
vt 0.498301 0.502252
vt 0.498301 0.260428
vt 0.498301 0.260428
vt 0.498272 0.399386
vt 0.498272 0.601210
vt 0.252509 0.601210
vt 0.252509 0.399386
vt 0.256478 0.505879
vt 0.256478 0.747703
vt 0.256478 0.747703
vt 0.256478 0.505879
vt 0.498301 0.747703
vt 0.498301 0.747703
vt 0.498301 0.505879
vt 0.498301 0.505879
vt 0.498249 0.601745
vt 0.498249 0.797703
vt 0.249372 0.797703
vt 0.249372 0.601745
vt 0.501929 0.014977
vt 0.501929 0.256800
vt 0.501929 0.256800
vt 0.501929 0.014977
vt 0.743753 0.256800
vt 0.743753 0.256800
vt 0.743753 0.014977
vt 0.743753 0.014977
vt 0.745579 0.006643
vt 0.745579 0.200551
vt 0.501943 0.200551
vt 0.501943 0.006643
vt 0.501929 0.260428
vt 0.501929 0.502252
vt 0.501929 0.502252
vt 0.501929 0.260428
vt 0.743753 0.502252
vt 0.743753 0.502252
vt 0.743753 0.260428
vt 0.743753 0.260428
vt 0.747721 0.399386
vt 0.747721 0.601210
vt 0.501959 0.601210
vt 0.501959 0.399386
vt 0.501929 0.505879
vt 0.501929 0.747703
vt 0.501929 0.747703
vt 0.501929 0.505879
vt 0.743753 0.747703
vt 0.743753 0.747703
vt 0.743753 0.505879
vt 0.743753 0.505879
vt 0.748192 0.601745
vt 0.748192 0.797703
vt 0.501982 0.797703
vt 0.501982 0.601745
vt 0.747380 0.014977
vt 0.747380 0.256800
vt 0.747380 0.256800
vt 0.747380 0.014977
vt 0.989204 0.256800
vt 0.989204 0.256800
vt 0.989204 0.014977
vt 0.989204 0.014977
vt 0.992871 0.006643
vt 0.992871 0.200551
vt 0.749234 0.200551
vt 0.749234 0.006643
vt 0.747380 0.260428
vt 0.747380 0.502252
vt 0.747380 0.502252
vt 0.747380 0.260428
vt 0.989204 0.502252
vt 0.989204 0.502252
vt 0.989204 0.260428
vt 0.989204 0.260428
vt 0.997170 0.399386
vt 0.997170 0.601210
vt 0.751408 0.601210
vt 0.751408 0.399386
vt 0.747380 0.505879
vt 0.747380 0.747703
vt 0.747380 0.747703
vt 0.747380 0.505879
vt 0.989204 0.747703
vt 0.989204 0.747703
vt 0.989204 0.505879
vt 0.989204 0.505879
vt 0.995136 0.601745
vt 0.995136 0.797703
vt 0.751925 0.797703
vt 0.751925 0.601745
vt 0.011027 0.014977
vt 0.011027 0.256800
vt 0.011027 0.256800
vt 0.011027 0.014977
vt 0.252850 0.256800
vt 0.252850 0.256800
vt 0.252850 0.014977
vt 0.252850 0.014977
vt 0.250996 0.006643
vt 0.250996 0.200551
vt 0.007359 0.200551
vt 0.007359 0.006643
vt 0.011027 0.260428
vt 0.011027 0.502252
vt 0.011027 0.502252
vt 0.011027 0.260428
vt 0.252850 0.502252
vt 0.252850 0.502252
vt 0.252850 0.260428
vt 0.252850 0.260428
vt 0.248823 0.399386
vt 0.248823 0.601210
vt 0.003060 0.601210
vt 0.003060 0.399386
vt 0.011027 0.505879
vt 0.011027 0.747703
vt 0.011027 0.747703
vt 0.011027 0.505879
vt 0.252850 0.747703
vt 0.252850 0.747703
vt 0.252850 0.505879
vt 0.252850 0.505879
vt 0.245639 0.601745
vt 0.245639 0.797703
vt -0.000572 0.797703
vt -0.000572 0.601745
vt 0.256478 0.014977
vt 0.256478 0.256800
vt 0.256478 0.256800
vt 0.256478 0.014977
vt 0.498301 0.256800
vt 0.498301 0.256800
vt 0.498301 0.014977
vt 0.498301 0.014977
vt 0.498288 0.006643
vt 0.498288 0.200551
vt 0.254651 0.200551
vt 0.254651 0.006643
vt 0.256478 0.260428
vt 0.256478 0.502252
vt 0.256478 0.502252
vt 0.256478 0.260428
vt 0.498301 0.502252
vt 0.498301 0.502252
vt 0.498301 0.260428
vt 0.498301 0.260428
vt 0.498272 0.399386
vt 0.498272 0.601210
vt 0.252509 0.601210
vt 0.252509 0.399386
vt 0.256478 0.505879
vt 0.256478 0.747703
vt 0.256478 0.747703
vt 0.256478 0.505879
vt 0.498301 0.747703
vt 0.498301 0.747703
vt 0.498301 0.505879
vt 0.498301 0.505879
vt 0.498249 0.601745
vt 0.498249 0.797703
vt 0.249372 0.797703
vt 0.249372 0.601745
vt 0.501929 0.014977
vt 0.501929 0.256800
vt 0.501929 0.256800
vt 0.501929 0.014977
vt 0.743753 0.256800
vt 0.743753 0.256800
vt 0.743753 0.014977
vt 0.743753 0.014977
vt 0.745579 0.006643
vt 0.745579 0.200551
vt 0.501943 0.200551
vt 0.501943 0.006643
vt 0.501929 0.260428
vt 0.501929 0.502252
vt 0.501929 0.502252
vt 0.501929 0.260428
vt 0.743753 0.502252
vt 0.743753 0.502252
vt 0.743753 0.260428
vt 0.743753 0.260428
vt 0.747721 0.399386
vt 0.747721 0.601210
vt 0.501959 0.601210
vt 0.501959 0.399386
vt 0.501929 0.505879
vt 0.501929 0.747703
vt 0.501929 0.747703
vt 0.501929 0.505879
vt 0.743753 0.747703
vt 0.743753 0.747703
vt 0.743753 0.505879
vt 0.743753 0.505879
vt 0.748192 0.601745
vt 0.748192 0.797703
vt 0.501982 0.797703
vt 0.501982 0.601745
vt 0.747380 0.014977
vt 0.747380 0.256800
vt 0.747380 0.256800
vt 0.747380 0.014977
vt 0.989204 0.256800
vt 0.989204 0.256800
vt 0.989204 0.014977
vt 0.989204 0.014977
vt 0.992871 0.006643
vt 0.992871 0.200551
vt 0.749234 0.200551
vt 0.749234 0.006643
vt 0.747380 0.260428
vt 0.747380 0.502252
vt 0.747380 0.502252
vt 0.747380 0.260428
vt 0.989204 0.502252
vt 0.989204 0.502252
vt 0.989204 0.260428
vt 0.989204 0.260428
vt 0.997170 0.399386
vt 0.997170 0.601210
vt 0.751408 0.601210
vt 0.751408 0.399386
vt 0.747380 0.505879
vt 0.747380 0.747703
vt 0.747380 0.747703
vt 0.747380 0.505879
vt 0.989204 0.747703
vt 0.989204 0.747703
vt 0.989204 0.505879
vt 0.989204 0.505879
vt 0.995136 0.601745
vt 0.995136 0.797703
vt 0.751925 0.797703
vt 0.751925 0.601745
vn -1.0000 0.0000 0.0000
vn 0.0000 0.0000 -1.0000
vn 1.0000 0.0000 0.0000
vn 0.0000 0.0000 1.0000
vn 0.0000 -1.0000 0.0000
vn 0.0000 1.0000 0.0000
usemtl pavet
s off
f 5/1/1 6/2/1 2/3/1 1/4/1
f 6/2/2 7/5/2 3/6/2 2/3/2
f 7/5/3 8/7/3 4/8/3 3/6/3
f 8/7/4 5/1/4 1/4/4 4/8/4
f 1/4/5 2/3/5 3/6/5 4/8/5
f 8/9/6 7/10/6 6/11/6 5/12/6
f 13/13/1 14/14/1 10/15/1 9/16/1
f 14/14/2 15/17/2 11/18/2 10/15/2
f 15/17/3 16/19/3 12/20/3 11/18/3
f 16/19/4 13/13/4 9/16/4 12/20/4
f 9/16/5 10/15/5 11/18/5 12/20/5
f 16/21/6 15/22/6 14/23/6 13/24/6
f 21/25/1 22/26/1 18/27/1 17/28/1
f 22/26/2 23/29/2 19/30/2 18/27/2
f 23/29/3 24/31/3 20/32/3 19/30/3
f 24/31/4 21/25/4 17/28/4 20/32/4
f 17/28/5 18/27/5 19/30/5 20/32/5
f 24/33/6 23/34/6 22/35/6 21/36/6
f 29/37/1 30/38/1 26/39/1 25/40/1
f 30/38/2 31/41/2 27/42/2 26/39/2
f 31/41/3 32/43/3 28/44/3 27/42/3
f 32/43/4 29/37/4 25/40/4 28/44/4
f 25/40/5 26/39/5 27/42/5 28/44/5
f 32/45/6 31/46/6 30/47/6 29/48/6
f 37/49/1 38/50/1 34/51/1 33/52/1
f 38/50/2 39/53/2 35/54/2 34/51/2
f 39/53/3 40/55/3 36/56/3 35/54/3
f 40/55/4 37/49/4 33/52/4 36/56/4
f 33/52/5 34/51/5 35/54/5 36/56/5
f 40/57/6 39/58/6 38/59/6 37/60/6
f 45/61/1 46/62/1 42/63/1 41/64/1
f 46/62/2 47/65/2 43/66/2 42/63/2
f 47/65/3 48/67/3 44/68/3 43/66/3
f 48/67/4 45/61/4 41/64/4 44/68/4
f 41/64/5 42/63/5 43/66/5 44/68/5
f 48/69/6 47/70/6 46/71/6 45/72/6
f 53/73/1 54/74/1 50/75/1 49/76/1
f 54/74/2 55/77/2 51/78/2 50/75/2
f 55/77/3 56/79/3 52/80/3 51/78/3
f 56/79/4 53/73/4 49/76/4 52/80/4
f 49/76/5 50/75/5 51/78/5 52/80/5
f 56/81/6 55/82/6 54/83/6 53/84/6
f 61/85/1 62/86/1 58/87/1 57/88/1
f 62/86/2 63/89/2 59/90/2 58/87/2
f 63/89/3 64/91/3 60/92/3 59/90/3
f 64/91/4 61/85/4 57/88/4 60/92/4
f 57/88/5 58/87/5 59/90/5 60/92/5
f 64/93/6 63/94/6 62/95/6 61/96/6
f 69/97/1 70/98/1 66/99/1 65/100/1
f 70/98/2 71/101/2 67/102/2 66/99/2
f 71/101/3 72/103/3 68/104/3 67/102/3
f 72/103/4 69/97/4 65/100/4 68/104/4
f 65/100/5 66/99/5 67/102/5 68/104/5
f 72/105/6 71/106/6 70/107/6 69/108/6
f 77/109/1 78/110/1 74/111/1 73/112/1
f 78/110/2 79/113/2 75/114/2 74/111/2
f 79/113/3 80/115/3 76/116/3 75/114/3
f 80/115/4 77/109/4 73/112/4 76/116/4
f 73/112/5 74/111/5 75/114/5 76/116/5
f 80/117/6 79/118/6 78/119/6 77/120/6
f 85/121/1 86/122/1 82/123/1 81/124/1
f 86/122/2 87/125/2 83/126/2 82/123/2
f 87/125/3 88/127/3 84/128/3 83/126/3
f 88/127/4 85/121/4 81/124/4 84/128/4
f 81/124/5 82/123/5 83/126/5 84/128/5
f 88/129/6 87/130/6 86/131/6 85/132/6
f 93/133/1 94/134/1 90/135/1 89/136/1
f 94/134/2 95/137/2 91/138/2 90/135/2
f 95/137/3 96/139/3 92/140/3 91/138/3
f 96/139/4 93/133/4 89/136/4 92/140/4
f 89/136/5 90/135/5 91/138/5 92/140/5
f 96/141/6 95/142/6 94/143/6 93/144/6
f 101/145/1 102/146/1 98/147/1 97/148/1
f 102/146/2 103/149/2 99/150/2 98/147/2
f 103/149/3 104/151/3 100/152/3 99/150/3
f 104/151/4 101/145/4 97/148/4 100/152/4
f 97/148/5 98/147/5 99/150/5 100/152/5
f 104/153/6 103/154/6 102/155/6 101/156/6
f 109/157/1 110/158/1 106/159/1 105/160/1
f 110/158/2 111/161/2 107/162/2 106/159/2
f 111/161/3 112/163/3 108/164/3 107/162/3
f 112/163/4 109/157/4 105/160/4 108/164/4
f 105/160/5 106/159/5 107/162/5 108/164/5
f 112/165/6 111/166/6 110/167/6 109/168/6
f 117/169/1 118/170/1 114/171/1 113/172/1
f 118/170/2 119/173/2 115/174/2 114/171/2
f 119/173/3 120/175/3 116/176/3 115/174/3
f 120/175/4 117/169/4 113/172/4 116/176/4
f 113/172/5 114/171/5 115/174/5 116/176/5
f 120/177/6 119/178/6 118/179/6 117/180/6
f 125/181/1 126/182/1 122/183/1 121/184/1
f 126/182/2 127/185/2 123/186/2 122/183/2
f 127/185/3 128/187/3 124/188/3 123/186/3
f 128/187/4 125/181/4 121/184/4 124/188/4
f 121/184/5 122/183/5 123/186/5 124/188/5
f 128/189/6 127/190/6 126/191/6 125/192/6
f 133/193/1 134/194/1 130/195/1 129/196/1
f 134/194/2 135/197/2 131/198/2 130/195/2
f 135/197/3 136/199/3 132/200/3 131/198/3
f 136/199/4 133/193/4 129/196/4 132/200/4
f 129/196/5 130/195/5 131/198/5 132/200/5
f 136/201/6 135/202/6 134/203/6 133/204/6
f 141/205/1 142/206/1 138/207/1 137/208/1
f 142/206/2 143/209/2 139/210/2 138/207/2
f 143/209/3 144/211/3 140/212/3 139/210/3
f 144/211/4 141/205/4 137/208/4 140/212/4
f 137/208/5 138/207/5 139/210/5 140/212/5
f 144/213/6 143/214/6 142/215/6 141/216/6
f 149/217/1 150/218/1 146/219/1 145/220/1
f 150/218/2 151/221/2 147/222/2 146/219/2
f 151/221/3 152/223/3 148/224/3 147/222/3
f 152/223/4 149/217/4 145/220/4 148/224/4
f 145/220/5 146/219/5 147/222/5 148/224/5
f 152/225/6 151/226/6 150/227/6 149/228/6
f 157/229/1 158/230/1 154/231/1 153/232/1
f 158/230/2 159/233/2 155/234/2 154/231/2
f 159/233/3 160/235/3 156/236/3 155/234/3
f 160/235/4 157/229/4 153/232/4 156/236/4
f 153/232/5 154/231/5 155/234/5 156/236/5
f 160/237/6 159/238/6 158/239/6 157/240/6
f 165/241/1 166/242/1 162/243/1 161/244/1
f 166/242/2 167/245/2 163/246/2 162/243/2
f 167/245/3 168/247/3 164/248/3 163/246/3
f 168/247/4 165/241/4 161/244/4 164/248/4
f 161/244/5 162/243/5 163/246/5 164/248/5
f 168/249/6 167/250/6 166/251/6 165/252/6
f 173/253/1 174/254/1 170/255/1 169/256/1
f 174/254/2 175/257/2 171/258/2 170/255/2
f 175/257/3 176/259/3 172/260/3 171/258/3
f 176/259/4 173/253/4 169/256/4 172/260/4
f 169/256/5 170/255/5 171/258/5 172/260/5
f 176/261/6 175/262/6 174/263/6 173/264/6
f 181/265/1 182/266/1 178/267/1 177/268/1
f 182/266/2 183/269/2 179/270/2 178/267/2
f 183/269/3 184/271/3 180/272/3 179/270/3
f 184/271/4 181/265/4 177/268/4 180/272/4
f 177/268/5 178/267/5 179/270/5 180/272/5
f 184/273/6 183/274/6 182/275/6 181/276/6
f 189/277/1 190/278/1 186/279/1 185/280/1
f 190/278/2 191/281/2 187/282/2 186/279/2
f 191/281/3 192/283/3 188/284/3 187/282/3
f 192/283/4 189/277/4 185/280/4 188/284/4
f 185/280/5 186/279/5 187/282/5 188/284/5
f 192/285/6 191/286/6 190/287/6 189/288/6
