# Blender v3.4.1 OBJ File: 'water_pool.blend'
# www.blender.org
mtllib Cube.055.mtl
o Cube.055_Cube.056
v 5.514569 1.500168 5.720108
v 4.878823 4.500168 6.564602
v 5.465312 1.580436 5.785538
v 4.878823 1.500168 6.564602
v 4.862699 4.451181 6.489976
v 5.438394 4.451181 5.725250
v 4.862699 1.549155 6.489976
v 5.438394 1.549155 5.725250
v 5.468419 4.500168 5.685366
v 4.881930 4.419900 6.464430
v 5.419163 4.419900 5.750796
v 4.881930 1.580436 6.464430
v 4.832673 1.500168 6.529860
v 4.928079 1.580436 6.499172
v 5.465312 4.419900 5.785538
v 4.928079 4.419900 6.499172
v 5.419163 1.580436 5.750796
v 4.832673 4.500168 6.529860
v 5.514569 4.500168 5.720108
v 5.468419 1.500168 5.685366
v 5.484543 1.549155 5.759992
v 4.908848 1.549155 6.524718
v 5.484543 4.451181 5.759992
v 4.908848 4.451181 6.524718
v 4.839623 4.451181 6.472605
v 5.415319 4.451181 5.707879
v 4.839623 1.549155 6.472605
v 5.415319 1.549155 5.707879
v 4.858855 4.419900 6.447059
v 5.396088 4.419900 5.733425
v 4.858855 1.580436 6.447059
v 5.396088 1.580436 5.733425
v 5.488387 1.580436 5.802909
v 4.951154 1.580436 6.516543
v 5.488387 4.419900 5.802909
v 4.951154 4.419900 6.516543
v 5.507618 1.549155 5.777363
v 4.931922 1.549155 6.542089
v 5.507618 4.451181 5.777363
v 4.931922 4.451181 6.542089
vn 0.0000 1.0000 0.0000
vn 0.0000 -1.0000 0.0000
vn 0.6014 0.0000 -0.7989
vn -0.6014 0.0000 0.7989
vn -0.7989 0.0000 -0.6014
vn 0.7989 0.0000 0.6014
vn 0.7989 0.0000 0.6015
usemtl metal
s off
f 23//1 24//1 40//1 39//1
f 16//2 15//2 35//2 36//2
f 19//3 1//3 20//3 9//3
f 14//1 3//1 17//1 12//1
f 1//2 4//2 13//2 20//2
f 4//4 2//4 18//4 13//4
f 16//3 14//3 12//3 10//3
f 3//4 15//4 11//4 17//4
f 2//1 19//1 9//1 18//1
f 15//2 16//2 10//2 11//2
f 13//5 18//5 5//5 7//5
f 9//5 20//5 8//5 6//5
f 18//5 9//5 6//5 5//5
f 20//5 13//5 7//5 8//5
f 5//1 6//1 26//1 25//1
f 17//4 11//4 30//4 32//4
f 8//2 7//2 27//2 28//2
f 11//2 10//2 29//2 30//2
f 21//3 23//3 39//3 37//3
f 3//1 14//1 34//1 33//1
f 1//6 21//6 22//6 4//6
f 2//6 24//6 23//6 19//6
f 19//6 23//6 21//6 1//6
f 4//6 22//6 24//6 2//6
f 25//5 26//5 30//5 29//5
f 27//5 25//5 29//5 31//5
f 26//5 28//5 32//5 30//5
f 28//5 27//5 31//5 32//5
f 6//3 8//3 28//3 26//3
f 10//3 12//3 31//3 29//3
f 12//1 17//1 32//1 31//1
f 7//4 5//4 25//4 27//4
f 37//6 33//6 34//6 38//6
f 39//6 35//6 33//6 37//6
f 38//7 34//7 36//7 40//7
f 40//6 36//6 35//6 39//6
f 15//4 3//4 33//4 35//4
f 14//3 16//3 36//3 34//3
f 24//4 22//4 38//4 40//4
f 22//2 21//2 37//2 38//2
