# Blender v3.4.1 OBJ File: 'water_pool.blend'
# www.blender.org
mtllib Cube.038.mtl
o Cube.038
v 0.305112 3.507683 -3.599873
v 0.305112 3.507683 -3.609873
v 1.124185 3.507683 -3.609873
v 1.124185 3.507683 -3.599873
v 0.305112 4.484547 -3.599873
v 0.305112 4.484547 -3.609873
v 1.124185 4.484547 -3.609873
v 1.124185 4.484547 -3.599873
v 0.305112 2.523003 -3.599873
v 0.305112 2.523003 -3.609873
v 1.124185 2.523003 -3.609873
v 1.124185 2.523003 -3.599873
v 0.305112 3.499868 -3.599873
v 0.305112 3.499868 -3.609873
v 1.124185 3.499868 -3.609873
v 1.124185 3.499868 -3.599873
v 0.305112 1.538324 -3.599873
v 0.305112 1.538324 -3.609873
v 1.124185 1.538324 -3.609873
v 1.124185 1.538324 -3.599873
v 0.305112 2.515188 -3.599873
v 0.305112 2.515188 -3.609873
v 1.124185 2.515188 -3.609873
v 1.124185 2.515188 -3.599873
vt 0.496438 0.967557
vt 0.496438 0.967557
vt 0.496438 0.645774
vt 0.496438 0.645774
vt 0.983005 0.967557
vt 0.983005 0.645774
vt 0.983005 0.967557
vt 0.983005 0.645774
vt 0.983005 0.993557
vt 0.496438 0.993557
vt 0.496438 0.671774
vt 0.983005 0.671774
vt 0.496438 0.643200
vt 0.496438 0.643200
vt 0.496438 0.321416
vt 0.496438 0.321416
vt 0.983005 0.643200
vt 0.983005 0.321416
vt 0.983005 0.643200
vt 0.983005 0.321416
vt 0.983005 0.677200
vt 0.496438 0.677200
vt 0.496438 0.355416
vt 0.983005 0.355416
vt 0.496438 0.318842
vt 0.496438 0.318842
vt 0.496438 -0.002941
vt 0.496438 -0.002941
vt 0.983005 0.318842
vt 0.983005 -0.002941
vt 0.983005 0.318842
vt 0.983005 -0.002941
vt 0.983005 0.340842
vt 0.496438 0.340842
vt 0.496438 0.019059
vt 0.983005 0.019059
vn -1.0000 0.0000 0.0000
vn 0.0000 0.0000 -1.0000
vn 1.0000 0.0000 0.0000
vn 0.0000 0.0000 1.0000
vn 0.0000 -1.0000 0.0000
vn 0.0000 1.0000 0.0000
usemtl concrete
s off
f 5/1/1 6/2/1 2/3/1 1/4/1
f 6/2/2 7/5/2 3/6/2 2/3/2
f 7/5/3 8/7/3 4/8/3 3/6/3
f 8/9/4 5/10/4 1/11/4 4/12/4
f 1/4/5 2/3/5 3/6/5 4/8/5
f 8/7/6 7/5/6 6/2/6 5/1/6
f 13/13/1 14/14/1 10/15/1 9/16/1
f 14/14/2 15/17/2 11/18/2 10/15/2
f 15/17/3 16/19/3 12/20/3 11/18/3
f 16/21/4 13/22/4 9/23/4 12/24/4
f 9/16/5 10/15/5 11/18/5 12/20/5
f 16/19/6 15/17/6 14/14/6 13/13/6
f 21/25/1 22/26/1 18/27/1 17/28/1
f 22/26/2 23/29/2 19/30/2 18/27/2
f 23/29/3 24/31/3 20/32/3 19/30/3
f 24/33/4 21/34/4 17/35/4 20/36/4
f 17/28/5 18/27/5 19/30/5 20/32/5
f 24/31/6 23/29/6 22/26/6 21/25/6
