# Blender v3.4.1 OBJ File: 'water_pool.blend'
# www.blender.org
mtllib Cube.022.mtl
o Cube.022_Cube.026
v 19.981514 1.486240 -2.854935
v 20.011513 1.486240 -2.854935
v 20.011513 1.486240 4.747646
v 19.981514 1.486240 4.747646
v 19.981514 4.486240 -2.854935
v 20.011513 4.486240 -2.854935
v 20.011513 4.486240 4.747646
v 19.981514 4.486240 4.747646
vn 0.0000 0.0000 -1.0000
vn 1.0000 0.0000 0.0000
vn 0.0000 0.0000 1.0000
vn -1.0000 0.0000 0.0000
vn 0.0000 -1.0000 0.0000
vn 0.0000 1.0000 0.0000
usemtl glass_architectural
s off
f 5//1 6//1 2//1 1//1
f 6//2 7//2 3//2 2//2
f 7//3 8//3 4//3 3//3
f 8//4 5//4 1//4 4//4
f 1//5 2//5 3//5 4//5
f 8//6 7//6 6//6 5//6
