# Blender v3.4.1 OBJ File: 'water_pool.blend'
# www.blender.org
mtllib Cube.002.mtl
o Cube.002_Cube.006
v -0.186381 1.486240 4.313660
v -0.186381 1.486240 4.113660
v 8.758411 1.486240 4.113660
v 8.758411 1.486240 4.313660
v -0.186381 4.486240 4.313660
v -0.186381 4.486240 4.113660
v 8.758411 4.486240 4.113660
v 8.758411 4.486240 4.313660
vt 0.492095 0.000000
vt 0.530793 0.000000
vt 0.530793 1.000000
vt 0.492095 1.000000
vt 0.000000 0.000000
vt 1.000000 0.000000
vt 1.000000 1.000000
vt 0.000000 1.000000
vt 0.523534 0.000000
vt 0.560389 0.000000
vt 0.560389 1.000000
vt 0.523534 1.000000
vt 0.000000 0.000000
vt 1.000000 0.000000
vt 1.000000 1.000000
vt 0.000000 1.000000
vt 0.000000 0.000000
vt 1.000000 0.000000
vt 1.000000 1.000000
vt 0.000000 1.000000
vn -1.0000 0.0000 0.0000
vn 0.0000 0.0000 -1.0000
vn 1.0000 0.0000 0.0000
vn 0.0000 0.0000 1.0000
vn 0.0000 -1.0000 0.0000
vn 0.0000 1.0000 0.0000
usemtl marble
s off
f 5/1/1 6/2/1 2/3/1 1/4/1
f 6/5/2 7/6/2 3/7/2 2/8/2
f 7/9/3 8/10/3 4/11/3 3/12/3
f 8/13/4 5/14/4 1/15/4 4/16/4
f 1/17/5 2/18/5 3/7/5 4/16/5
f 8/13/6 7/6/6 6/19/6 5/20/6
