# Blender v3.4.1 OBJ File: 'water_pool.blend'
# www.blender.org
mtllib Cube.045.mtl
o Cube.045
v 13.766479 1.496426 -4.478773
v 13.766479 1.496426 -4.860376
v 14.766479 1.496426 -4.860376
v 14.766479 1.496426 -4.478773
v 13.766479 1.506426 -4.478773
v 13.766479 1.506426 -4.860376
v 14.766479 1.506426 -4.860376
v 14.766479 1.506426 -4.478773
v 14.781479 1.496426 -4.478773
v 14.781479 1.496426 -4.860376
v 15.781479 1.496426 -4.860376
v 15.781479 1.496426 -4.478773
v 14.781479 1.506426 -4.478773
v 14.781479 1.506426 -4.860376
v 15.781479 1.506426 -4.860376
v 15.781479 1.506426 -4.478773
v 15.797598 1.496426 -4.478773
v 15.797598 1.496426 -4.860376
v 16.797598 1.496426 -4.860376
v 16.797598 1.496426 -4.478773
v 15.797598 1.506426 -4.478773
v 15.797598 1.506426 -4.860376
v 16.797598 1.506426 -4.860376
v 16.797598 1.506426 -4.478773
v 16.812599 1.496426 -4.478773
v 16.812599 1.496426 -4.860376
v 17.812599 1.496426 -4.860376
v 17.812599 1.496426 -4.478773
v 16.812599 1.506426 -4.478773
v 16.812599 1.506426 -4.860376
v 17.812599 1.506426 -4.860376
v 17.812599 1.506426 -4.478773
v 17.828718 1.496426 -4.478773
v 17.828718 1.496426 -4.860376
v 18.828718 1.496426 -4.860376
v 18.828718 1.496426 -4.478773
v 17.828718 1.506426 -4.478773
v 17.828718 1.506426 -4.860376
v 18.828718 1.506426 -4.860376
v 18.828718 1.506426 -4.478773
v 18.843718 1.496426 -4.478773
v 18.843718 1.496426 -4.860376
v 19.843718 1.496426 -4.860376
v 19.843718 1.496426 -4.478773
v 18.843718 1.506426 -4.478773
v 18.843718 1.506426 -4.860376
v 19.843718 1.506426 -4.860376
v 19.843718 1.506426 -4.478773
v 19.859838 1.496426 -4.478773
v 19.859838 1.496426 -4.860376
v 20.859838 1.496426 -4.860376
v 20.859838 1.496426 -4.478773
v 19.859838 1.506426 -4.478773
v 19.859838 1.506426 -4.860376
v 20.859838 1.506426 -4.860376
v 20.859838 1.506426 -4.478773
v 20.874838 1.496426 -4.478773
v 20.874838 1.496426 -4.860376
v 21.874838 1.496426 -4.860376
v 21.874838 1.496426 -4.478773
v 20.874838 1.506426 -4.478773
v 20.874838 1.506426 -4.860376
v 21.874838 1.506426 -4.860376
v 21.874838 1.506426 -4.478773
vt 0.011027 0.014977
vt 0.011027 0.256800
vt 0.011027 0.256800
vt 0.011027 0.014977
vt 0.252850 0.256800
vt 0.252850 0.256800
vt 0.252850 0.014977
vt 0.252850 0.014977
vt 0.250996 0.006643
vt 0.250996 0.200551
vt 0.007359 0.200551
vt 0.007359 0.006643
vt 0.256478 0.014977
vt 0.256478 0.256800
vt 0.256478 0.256800
vt 0.256478 0.014977
vt 0.498301 0.256800
vt 0.498301 0.256800
vt 0.498301 0.014977
vt 0.498301 0.014977
vt 0.498288 0.006643
vt 0.498288 0.200551
vt 0.254651 0.200551
vt 0.254651 0.006643
vt 0.011027 0.014977
vt 0.011027 0.256800
vt 0.011027 0.256800
vt 0.011027 0.014977
vt 0.252850 0.256800
vt 0.252850 0.256800
vt 0.252850 0.014977
vt 0.252850 0.014977
vt 0.250996 0.006643
vt 0.250996 0.200551
vt 0.007359 0.200551
vt 0.007359 0.006643
vt 0.256478 0.014977
vt 0.256478 0.256800
vt 0.256478 0.256800
vt 0.256478 0.014977
vt 0.498301 0.256800
vt 0.498301 0.256800
vt 0.498301 0.014977
vt 0.498301 0.014977
vt 0.498288 0.006643
vt 0.498288 0.200551
vt 0.254651 0.200551
vt 0.254651 0.006643
vt 0.011027 0.014977
vt 0.011027 0.256800
vt 0.011027 0.256800
vt 0.011027 0.014977
vt 0.252850 0.256800
vt 0.252850 0.256800
vt 0.252850 0.014977
vt 0.252850 0.014977
vt 0.250996 0.006643
vt 0.250996 0.200551
vt 0.007359 0.200551
vt 0.007359 0.006643
vt 0.256478 0.014977
vt 0.256478 0.256800
vt 0.256478 0.256800
vt 0.256478 0.014977
vt 0.498301 0.256800
vt 0.498301 0.256800
vt 0.498301 0.014977
vt 0.498301 0.014977
vt 0.498288 0.006643
vt 0.498288 0.200551
vt 0.254651 0.200551
vt 0.254651 0.006643
vt 0.011027 0.014977
vt 0.011027 0.256800
vt 0.011027 0.256800
vt 0.011027 0.014977
vt 0.252850 0.256800
vt 0.252850 0.256800
vt 0.252850 0.014977
vt 0.252850 0.014977
vt 0.250996 0.006643
vt 0.250996 0.200551
vt 0.007359 0.200551
vt 0.007359 0.006643
vt 0.256478 0.014977
vt 0.256478 0.256800
vt 0.256478 0.256800
vt 0.256478 0.014977
vt 0.498301 0.256800
vt 0.498301 0.256800
vt 0.498301 0.014977
vt 0.498301 0.014977
vt 0.498288 0.006643
vt 0.498288 0.200551
vt 0.254651 0.200551
vt 0.254651 0.006643
vn -1.0000 0.0000 0.0000
vn 0.0000 0.0000 -1.0000
vn 1.0000 0.0000 0.0000
vn 0.0000 0.0000 1.0000
vn 0.0000 -1.0000 0.0000
vn 0.0000 1.0000 0.0000
usemtl pavet
s off
f 5/1/1 6/2/1 2/3/1 1/4/1
f 6/2/2 7/5/2 3/6/2 2/3/2
f 7/5/3 8/7/3 4/8/3 3/6/3
f 8/7/4 5/1/4 1/4/4 4/8/4
f 1/4/5 2/3/5 3/6/5 4/8/5
f 8/9/6 7/10/6 6/11/6 5/12/6
f 13/13/1 14/14/1 10/15/1 9/16/1
f 14/14/2 15/17/2 11/18/2 10/15/2
f 15/17/3 16/19/3 12/20/3 11/18/3
f 16/19/4 13/13/4 9/16/4 12/20/4
f 9/16/5 10/15/5 11/18/5 12/20/5
f 16/21/6 15/22/6 14/23/6 13/24/6
f 21/25/1 22/26/1 18/27/1 17/28/1
f 22/26/2 23/29/2 19/30/2 18/27/2
f 23/29/3 24/31/3 20/32/3 19/30/3
f 24/31/4 21/25/4 17/28/4 20/32/4
f 17/28/5 18/27/5 19/30/5 20/32/5
f 24/33/6 23/34/6 22/35/6 21/36/6
f 29/37/1 30/38/1 26/39/1 25/40/1
f 30/38/2 31/41/2 27/42/2 26/39/2
f 31/41/3 32/43/3 28/44/3 27/42/3
f 32/43/4 29/37/4 25/40/4 28/44/4
f 25/40/5 26/39/5 27/42/5 28/44/5
f 32/45/6 31/46/6 30/47/6 29/48/6
f 37/49/1 38/50/1 34/51/1 33/52/1
f 38/50/2 39/53/2 35/54/2 34/51/2
f 39/53/3 40/55/3 36/56/3 35/54/3
f 40/55/4 37/49/4 33/52/4 36/56/4
f 33/52/5 34/51/5 35/54/5 36/56/5
f 40/57/6 39/58/6 38/59/6 37/60/6
f 45/61/1 46/62/1 42/63/1 41/64/1
f 46/62/2 47/65/2 43/66/2 42/63/2
f 47/65/3 48/67/3 44/68/3 43/66/3
f 48/67/4 45/61/4 41/64/4 44/68/4
f 41/64/5 42/63/5 43/66/5 44/68/5
f 48/69/6 47/70/6 46/71/6 45/72/6
f 53/73/1 54/74/1 50/75/1 49/76/1
f 54/74/2 55/77/2 51/78/2 50/75/2
f 55/77/3 56/79/3 52/80/3 51/78/3
f 56/79/4 53/73/4 49/76/4 52/80/4
f 49/76/5 50/75/5 51/78/5 52/80/5
f 56/81/6 55/82/6 54/83/6 53/84/6
f 61/85/1 62/86/1 58/87/1 57/88/1
f 62/86/2 63/89/2 59/90/2 58/87/2
f 63/89/3 64/91/3 60/92/3 59/90/3
f 64/91/4 61/85/4 57/88/4 60/92/4
f 57/88/5 58/87/5 59/90/5 60/92/5
f 64/93/6 63/94/6 62/95/6 61/96/6
