# Blender v3.4.1 OBJ File: 'water_pool.blend'
# www.blender.org
mtllib Cube.044.mtl
o Cube.044_Cube.003
v 11.736215 1.496426 -4.478773
v 11.736215 1.496426 -5.478773
v 12.736215 1.496426 -5.478773
v 12.736215 1.496426 -4.478773
v 11.736215 1.506426 -4.478773
v 11.736215 1.506426 -5.478773
v 12.736215 1.506426 -5.478773
v 12.736215 1.506426 -4.478773
v 12.751215 1.496426 -4.478773
v 12.751215 1.496426 -5.478773
v 13.751215 1.496426 -5.478773
v 13.751215 1.496426 -4.478773
v 12.751215 1.506426 -4.478773
v 12.751215 1.506426 -5.478773
v 13.751215 1.506426 -5.478773
v 13.751215 1.506426 -4.478773
v 13.766214 1.496426 -4.943428
v 13.766214 1.496426 -5.478773
v 14.042471 1.496426 -5.478773
v 14.042471 1.496426 -4.943428
v 13.766214 1.506426 -4.943428
v 13.766214 1.506426 -5.478773
v 14.042471 1.506426 -5.478773
v 14.042471 1.506426 -4.943428
vt 0.011027 0.014977
vt 0.011027 0.256800
vt 0.011027 0.256800
vt 0.011027 0.014977
vt 0.252850 0.256800
vt 0.252850 0.256800
vt 0.252850 0.014977
vt 0.252850 0.014977
vt 0.250996 0.006643
vt 0.250996 0.200551
vt 0.007359 0.200551
vt 0.007359 0.006643
vt 0.256478 0.014977
vt 0.256478 0.256800
vt 0.256478 0.256800
vt 0.256478 0.014977
vt 0.498301 0.256800
vt 0.498301 0.256800
vt 0.498301 0.014977
vt 0.498301 0.014977
vt 0.498288 0.006643
vt 0.498288 0.200551
vt 0.254651 0.200551
vt 0.254651 0.006643
vt 0.501929 0.014977
vt 0.501929 0.256800
vt 0.501929 0.256800
vt 0.501929 0.014977
vt 0.743753 0.256800
vt 0.743753 0.256800
vt 0.743753 0.014977
vt 0.743753 0.014977
vt 0.745579 0.006643
vt 0.745579 0.200551
vt 0.501943 0.200551
vt 0.501943 0.006643
vn -1.0000 0.0000 0.0000
vn 0.0000 0.0000 -1.0000
vn 1.0000 0.0000 0.0000
vn 0.0000 0.0000 1.0000
vn 0.0000 -1.0000 0.0000
vn 0.0000 1.0000 0.0000
usemtl pavet
s off
f 5/1/1 6/2/1 2/3/1 1/4/1
f 6/2/2 7/5/2 3/6/2 2/3/2
f 7/5/3 8/7/3 4/8/3 3/6/3
f 8/7/4 5/1/4 1/4/4 4/8/4
f 1/4/5 2/3/5 3/6/5 4/8/5
f 8/9/6 7/10/6 6/11/6 5/12/6
f 13/13/1 14/14/1 10/15/1 9/16/1
f 14/14/2 15/17/2 11/18/2 10/15/2
f 15/17/3 16/19/3 12/20/3 11/18/3
f 16/19/4 13/13/4 9/16/4 12/20/4
f 9/16/5 10/15/5 11/18/5 12/20/5
f 16/21/6 15/22/6 14/23/6 13/24/6
f 21/25/1 22/26/1 18/27/1 17/28/1
f 22/26/2 23/29/2 19/30/2 18/27/2
f 23/29/3 24/31/3 20/32/3 19/30/3
f 24/31/4 21/25/4 17/28/4 20/32/4
f 17/28/5 18/27/5 19/30/5 20/32/5
f 24/33/6 23/34/6 22/35/6 21/36/6
