# Blender v3.4.1 OBJ File: 'water_pool.blend'
# www.blender.org
mtllib Cube.021.mtl
o Cube.021_Cube.025
v 4.870739 1.557642 -2.242129
v 4.870739 1.557642 -2.272129
v 15.094488 1.557642 -2.272129
v 15.094488 1.557642 -2.242129
v 4.870739 4.410680 -2.242129
v 4.870739 4.410680 -2.272129
v 15.094488 4.410680 -2.272129
v 15.094488 4.410680 -2.242129
v 8.257231 4.410680 -2.272129
v 11.718425 4.410680 -2.272129
v 11.718426 1.557642 -2.272129
v 8.257231 1.557642 -2.272129
v 11.718426 4.410680 -2.242129
v 8.257231 4.410680 -2.242129
v 8.257231 1.557642 -2.242129
v 11.718425 1.557642 -2.242129
vn -1.0000 0.0000 0.0000
vn 0.0000 0.0000 -1.0000
vn 1.0000 0.0000 0.0000
vn 0.0000 0.0000 1.0000
vn 0.0000 -1.0000 0.0000
vn 0.0000 1.0000 0.0000
usemtl glass_architectural
s off
f 5//1 6//1 2//1 1//1
f 10//2 7//2 3//2 11//2
f 7//3 8//3 4//3 3//3
f 14//4 5//4 1//4 15//4
f 16//5 11//5 3//5 4//5
f 14//6 9//6 6//6 5//6
f 6//2 9//2 12//2 2//2
f 9//2 10//2 11//2 12//2
f 8//4 13//4 16//4 4//4
f 13//4 14//4 15//4 16//4
f 1//5 2//5 12//5 15//5
f 15//5 12//5 11//5 16//5
f 8//6 7//6 10//6 13//6
f 13//6 10//6 9//6 14//6
