# Blender v3.4.1 OBJ File: 'water_pool.blend'
# www.blender.org
mtllib Plane.001.mtl
o Plane.001
v 22.494083 4.486341 7.619245
v -1.291417 4.486341 7.619245
v 22.494083 4.486341 -5.895977
v -1.291417 4.486341 -5.895977
v 22.494083 4.986341 7.619245
v -1.291417 4.986341 7.619245
v 22.494083 4.986341 -5.895977
v -1.291417 4.986341 -5.895977
v 22.698433 4.986341 7.842835
v -1.497990 4.986341 7.842835
v 22.698433 4.986341 -6.087733
v -1.497990 4.986341 -6.087733
v 22.698433 5.186340 7.842835
v -1.497990 5.186340 7.842835
v 22.698433 5.186340 -6.087733
v -1.497990 5.186340 -6.087733
vn 0.0000 -1.0000 0.0000
vn -1.0000 0.0000 0.0000
vn 0.0000 0.0000 1.0000
vn 0.0000 0.0000 -1.0000
vn 1.0000 0.0000 0.0000
vn 0.0000 1.0000 0.0000
usemtl white_mat
s off
f 2//1 4//1 3//1 1//1
f 4//2 2//2 6//2 8//2
f 2//3 1//3 5//3 6//3
f 3//4 4//4 8//4 7//4
f 1//5 3//5 7//5 5//5
usemtl black_glossy
f 8//1 6//1 10//1 12//1
f 12//2 10//2 14//2 16//2
f 6//1 5//1 9//1 10//1
f 7//1 8//1 12//1 11//1
f 5//1 7//1 11//1 9//1
f 14//6 13//6 15//6 16//6
f 11//4 12//4 16//4 15//4
f 9//5 11//5 15//5 13//5
f 10//3 9//3 13//3 14//3
