# Blender v2.90.1 OBJ File: ''
# www.blender.org
o livingroom_wall_left.001
v -38.579967 0.599996 25.994970
v -38.579967 6.437936 25.994972
v -46.174919 6.437936 25.994972
v -46.174919 0.599996 25.994970
v -36.179970 0.599996 25.994970
v -36.179970 6.437936 25.994972
v -37.979969 6.437936 25.994972
v -37.979969 0.599996 25.994970
v -48.574921 6.437936 25.994972
v -48.574921 0.599996 25.994970
v -46.774921 0.599996 25.994970
v -46.774921 6.437936 25.994972
v -46.474922 -0.000004 25.949970
v -38.279968 -0.000004 25.949970
v -38.579967 0.599996 25.949970
v -46.174919 0.599996 25.949970
v -38.279968 6.737936 25.949972
v -38.579967 6.437936 25.949972
v -46.474922 6.737936 25.949972
v -46.174919 6.437936 25.949972
v -35.879971 -0.000004 25.949970
v -36.179970 0.599996 25.949970
v -37.979969 0.599996 25.949970
v -35.879971 6.737936 25.949972
v -36.179970 6.437936 25.949972
v -37.979969 6.437936 25.949972
v -48.874920 6.737936 25.949972
v -48.574921 6.437936 25.949972
v -46.774921 6.437936 25.949972
v -48.874920 -0.000004 25.949970
v -48.574921 0.599996 25.949970
v -46.774921 0.599996 25.949970
vt 0.999500 0.000500
vt 0.000500 0.000500
vt 0.000500 0.999500
vt 0.999500 0.999500
vt 1.315200 0.000500
vt 1.078400 0.000500
vt 1.078400 0.999500
vt 1.315200 0.999500
vt -0.315200 0.999500
vt -0.078400 0.999500
vt -0.078400 0.000500
vt -0.315200 0.000500
vt -0.039000 -0.102200
vt 0.000500 0.000500
vt 0.999500 0.000500
vt 1.039000 -0.102200
vt 0.999500 0.999500
vt 1.039000 1.050800
vt 0.000500 0.999500
vt -0.039000 1.050800
vt 1.078400 0.000500
vt 1.315200 0.000500
vt 1.354600 -0.102200
vt 1.315200 0.999500
vt 1.354600 1.050800
vt 1.078400 0.999500
vt -0.078400 0.999500
vt -0.315200 0.999500
vt -0.354600 1.050800
vt -0.315200 0.000500
vt -0.354600 -0.102200
vt -0.078400 0.000500
vt 0.999500 1428447.750000
vt 0.999500 0.000000
vt 0.000500 0.000000
vt 0.000500 1428447.750000
vt 0.999500 1428447.750000
vt 0.999500 0.000000
vt 0.000500 1.000000
vt 0.000500 1428448.875000
vt 0.999500 1428448.875000
vt 0.999500 1.000000
vt 0.000500 1.000000
vt 0.000500 1428448.875000
vt 0.999500 1428448.875000
vt 0.999500 1.000000
vt 0.000500 0.000000
vt 0.000500 1428447.750000
vt -0.078400 1428447.750000
vt -0.078400 0.000000
vt -0.315200 0.000000
vt -0.315200 1428447.750000
vt 0.999500 1428447.750000
vt 0.999500 0.000000
vt 0.000500 1.000000
vt 0.000500 1428448.875000
vt 1.315200 1428448.875000
vt 1.315200 1.000000
vt 1.078400 1.000000
vt 1.078400 1428448.875000
vt 0.999500 1428448.875000
vt 0.999500 1.000000
vt 0.000500 0.000000
vt 0.000500 1428447.750000
vt -0.078400 1428448.875000
vt -0.078400 1.000000
vt -0.315200 1.000000
vt -0.315200 1428448.875000
vt 0.999500 1428448.875000
vt 0.999500 1.000000
vt 0.000500 0.000000
vt 0.000500 1428447.750000
vt 1.315200 1428447.750000
vt 1.315200 0.000000
vt 1.078400 0.000000
vt 1.078400 1428447.750000
vt 0.999500 1428447.750000
vt 0.999500 0.000000
vt 0.000500 1.000000
vt 0.000500 1428448.875000
vn 0.0000 0.0000 -1.0000
vn 0.0000 1.0000 0.0000
vn -1.0000 0.0000 0.0000
vn 0.0000 -1.0000 0.0000
vn 1.0000 0.0000 0.0000
s 1
f 1/1/1 4/2/1 3/3/1 2/4/1
f 5/5/1 8/6/1 7/7/1 6/8/1
f 9/9/1 12/10/1 11/11/1 10/12/1
f 13/13/1 16/14/1 15/15/1 14/16/1
f 14/16/1 15/15/1 18/17/1 17/18/1
f 17/18/1 18/17/1 20/19/1 19/20/1
f 19/20/1 20/19/1 16/14/1 13/13/1
f 14/16/1 23/21/1 22/22/1 21/23/1
f 21/23/1 22/22/1 25/24/1 24/25/1
f 24/25/1 25/24/1 26/26/1 17/18/1
f 17/18/1 26/26/1 23/21/1 14/16/1
f 19/20/1 29/27/1 28/28/1 27/29/1
f 27/29/1 28/28/1 31/30/1 30/31/1
f 30/31/1 31/30/1 32/32/1 13/13/1
f 13/13/1 32/32/1 29/27/1 19/20/1
f 16/33/2 4/34/2 1/35/2 15/36/2
f 15/37/3 1/38/3 2/39/3 18/40/3
f 18/41/4 2/42/4 3/43/4 20/44/4
f 20/45/5 3/46/5 4/47/5 16/48/5
f 23/49/2 8/50/2 5/51/2 22/52/2
f 22/53/3 5/54/3 6/55/3 25/56/3
f 25/57/4 6/58/4 7/59/4 26/60/4
f 26/61/5 7/62/5 8/63/5 23/64/5
f 29/65/4 12/66/4 9/67/4 28/68/4
f 28/69/5 9/70/5 10/71/5 31/72/5
f 31/73/2 10/74/2 11/75/2 32/76/2
f 32/77/3 11/78/3 12/79/3 29/80/3
