# Blender v2.90.1 OBJ File: ''
# www.blender.org
o tv_light.001
v -40.325188 3.242276 25.758120
v -40.326000 3.245306 25.758120
v -40.326000 3.245306 25.752420
v -40.325188 3.242276 25.752420
v -40.328373 3.247946 25.758120
v -40.328373 3.247946 25.752420
v -40.331970 3.249926 25.758120
v -40.331970 3.249926 25.752420
v -40.336441 3.250976 25.758120
v -40.336441 3.250976 25.752420
v -40.341148 3.250976 25.758120
v -40.341148 3.250976 25.752420
v -40.345592 3.249926 25.758120
v -40.345592 3.249926 25.752420
v -40.349220 3.247946 25.758120
v -40.349220 3.247946 25.752420
v -40.351589 3.245306 25.758120
v -40.351589 3.245306 25.752420
v -40.352402 3.242276 25.758120
v -40.352402 3.242276 25.752420
v -40.351589 3.239246 25.758120
v -40.351589 3.239246 25.752420
v -40.349220 3.236606 25.758120
v -40.349220 3.236606 25.752420
v -40.345592 3.234626 25.758120
v -40.345592 3.234626 25.752420
v -40.341148 3.233576 25.758120
v -40.341148 3.233576 25.752420
v -40.336441 3.233576 25.758120
v -40.336441 3.233576 25.752420
v -40.331970 3.234626 25.758120
v -40.331970 3.234626 25.752420
v -40.328373 3.236606 25.758120
v -40.328373 3.236606 25.752420
v -40.326000 3.239246 25.758120
v -40.326000 3.239246 25.752420
vt 0.515700 0.459700
vt 0.516700 0.459700
vt 0.516700 0.460200
vt 0.515700 0.460200
vt 0.516700 0.460700
vt 0.515700 0.460700
vt 0.516700 0.461100
vt 0.515700 0.461100
vt 0.484300 0.863200
vt 0.483300 0.863200
vt 0.483300 0.862400
vt 0.484300 0.862400
vt 0.483300 0.861500
vt 0.484300 0.861500
vt 0.483300 0.860700
vt 0.484300 0.860700
vt 0.484300 0.461100
vt 0.483300 0.461100
vt 0.483300 0.460700
vt 0.484300 0.460700
vt 0.483300 0.460200
vt 0.484300 0.460200
vt 0.483300 0.459700
vt 0.484300 0.459700
vt 0.483300 0.459100
vt 0.484300 0.459100
vt 0.483300 0.458600
vt 0.484300 0.458600
vt 0.483300 0.458300
vt 0.484300 0.458300
vt 0.515700 0.860700
vt 0.516700 0.860700
vt 0.516700 0.861500
vt 0.515700 0.861500
vt 0.516700 0.862400
vt 0.515700 0.862400
vt 0.516700 0.863200
vt 0.515700 0.863200
vt 0.515700 0.458300
vt 0.516700 0.458300
vt 0.516700 0.458600
vt 0.515700 0.458600
vt 0.516700 0.459100
vt 0.515700 0.459100
vt 0.136800 0.458300
vt 0.137600 0.458100
vt 0.138500 0.458100
vt 0.139300 0.458300
vt 0.140000 0.458600
vt 0.140400 0.459100
vt 0.140600 0.459700
vt 0.140400 0.460200
vt 0.140000 0.460700
vt 0.139300 0.461100
vt 0.138500 0.461200
vt 0.137600 0.461200
vt 0.136800 0.461100
vt 0.136200 0.460700
vt 0.135700 0.460200
vt 0.135600 0.459700
vt 0.135700 0.459100
vt 0.136200 0.458600
vn 0.9660 0.2584 -0.0016
vn 0.9660 0.2584 0.0016
vn 0.7435 0.6687 0.0035
vn 0.7435 0.6687 -0.0035
vn 0.4821 0.8761 -0.0050
vn 0.4821 0.8761 0.0050
vn 0.2286 0.9735 0.0013
vn 0.2286 0.9735 -0.0013
vn 0.0000 1.0000 0.0000
vn -0.2299 0.9732 0.0000
vn -0.4792 0.8777 0.0021
vn -0.4792 0.8777 -0.0021
vn -0.7442 0.6679 -0.0040
vn -0.7442 0.6679 0.0040
vn -0.9658 0.2592 0.0038
vn -0.9658 0.2592 -0.0038
vn -0.9658 -0.2592 -0.0039
vn -0.9658 -0.2592 0.0039
vn -0.7442 -0.6679 0.0037
vn -0.7442 -0.6679 -0.0037
vn -0.4792 -0.8777 -0.0020
vn -0.4792 -0.8777 0.0020
vn -0.2299 -0.9732 -0.0003
vn -0.2299 -0.9732 0.0003
vn 0.0000 -1.0000 0.0000
vn 0.2286 -0.9735 -0.0010
vn 0.2286 -0.9735 0.0010
vn 0.4821 -0.8761 0.0049
vn 0.4821 -0.8761 -0.0049
vn 0.7435 -0.6687 -0.0031
vn 0.7435 -0.6687 0.0031
vn 0.9660 -0.2584 0.0016
vn 0.9660 -0.2584 -0.0016
vn 0.0000 0.0000 -1.0000
s 1
f 1/1/1 4/2/2 3/3/1 2/4/2
f 2/4/3 3/3/4 6/5/3 5/6/4
f 5/6/5 6/5/6 8/7/5 7/8/6
f 7/9/7 8/10/8 10/11/7 9/12/8
f 9/12/9 10/11/9 12/13/9 11/14/9
f 11/14/10 12/13/10 14/15/10 13/16/10
f 13/17/11 14/18/12 16/19/11 15/20/12
f 15/20/13 16/19/14 18/21/13 17/22/14
f 17/22/15 18/21/16 20/23/15 19/24/16
f 19/24/17 20/23/18 22/25/17 21/26/18
f 21/26/19 22/25/20 24/27/19 23/28/20
f 23/28/21 24/27/22 26/29/21 25/30/22
f 25/31/23 26/32/24 28/33/23 27/34/24
f 27/34/25 28/33/25 30/35/25 29/36/25
f 29/36/26 30/35/27 32/37/26 31/38/27
f 31/39/28 32/40/29 34/41/28 33/42/29
f 33/42/30 34/41/31 36/43/30 35/44/31
f 35/44/32 36/43/33 4/2/32 1/1/33
f 32/45/34 30/46/34 28/47/34 26/48/34 24/49/34 22/50/34 20/51/34 18/52/34 16/53/34 14/54/34 12/55/34 10/56/34 8/57/34 6/58/34 3/59/34 4/60/34 36/61/34 34/62/34
