# Blender v2.90.1 OBJ File: ''
# www.blender.org
mtllib Mesh038.mtl
o Mesh038
v -2.120266 1.768701 -0.240573
v -2.120266 1.768701 0.214743
v -2.120266 0.138438 0.214743
v -2.120266 0.138438 -0.240573
v -2.123904 0.136456 0.214743
v -2.123904 0.136456 -0.240573
v -2.122249 0.136456 -0.240573
v -2.122249 0.136456 0.214743
v -2.125888 0.138438 0.214743
v -2.125888 1.768701 0.214743
v -2.125888 1.768701 -0.240573
v -2.125888 0.138438 -0.240573
v -2.123904 1.768701 -0.242469
v -2.122249 1.768701 -0.242469
v -2.122249 0.138438 -0.242469
v -2.123904 0.138438 -0.242469
v -2.122249 0.138438 0.216639
v -2.122249 1.768701 0.216639
v -2.123904 1.768701 0.216639
v -2.123904 0.138438 0.216639
v -2.123904 1.770683 0.214743
v -2.122249 1.770683 0.214743
v -2.122249 1.770683 -0.240573
v -2.123904 1.770683 -0.240573
v -2.123904 1.770683 0.214743
v -2.125888 1.768701 0.214743
v -2.123904 1.768701 0.216639
v -2.123904 1.770683 -0.240573
v -2.123904 1.768701 -0.242469
v -2.125888 1.768701 -0.240573
v -2.123904 0.136456 0.214743
v -2.123904 0.138438 0.216639
v -2.125888 0.138438 0.214743
v -2.123904 0.136456 -0.240573
v -2.125888 0.138438 -0.240573
v -2.123904 0.138438 -0.242469
v -2.122249 0.136456 -0.240573
v -2.122249 0.138438 -0.242469
v -2.120266 0.138438 -0.240573
v -2.122249 0.136456 0.214743
v -2.120266 0.138438 0.214743
v -2.122249 0.138438 0.216639
v -2.122249 1.770683 -0.240573
v -2.120266 1.768701 -0.240573
v -2.122249 1.768701 -0.242469
v -2.122249 1.770683 0.214743
v -2.122249 1.768701 0.216639
v -2.120266 1.768701 0.214743
v -2.123904 1.770683 0.214743
v -2.123904 1.770683 -0.240573
v -2.125888 1.768701 -0.240573
v -2.125888 1.768701 0.214743
v -2.125888 0.138438 0.214743
v -2.125888 0.138438 -0.240573
v -2.123904 0.136456 -0.240573
v -2.123904 0.136456 0.214743
v -2.120266 0.138438 -0.240573
v -2.120266 0.138438 0.214743
v -2.122249 0.136456 0.214743
v -2.122249 0.136456 -0.240573
v -2.120266 1.768701 0.214743
v -2.120266 1.768701 -0.240573
v -2.122249 1.770683 -0.240573
v -2.122249 1.770683 0.214743
v -2.125888 1.768701 0.214743
v -2.125888 0.138438 0.214743
v -2.123904 0.138438 0.216639
v -2.123904 1.768701 0.216639
v -2.125888 0.138438 -0.240573
v -2.125888 1.768701 -0.240573
v -2.123904 1.768701 -0.242469
v -2.123904 0.138438 -0.242469
v -2.120266 1.768701 -0.240573
v -2.120266 0.138438 -0.240573
v -2.122249 0.138438 -0.242469
v -2.122249 1.768701 -0.242469
v -2.122249 1.768701 0.216639
v -2.122249 0.138438 0.216639
v -2.120266 0.138438 0.214743
v -2.120266 1.768701 0.214743
v -2.123904 0.138438 -0.242469
v -2.122249 0.138438 -0.242469
v -2.122249 0.136456 -0.240573
v -2.123904 0.136456 -0.240573
v -2.122249 0.138438 0.216639
v -2.123904 0.138438 0.216639
v -2.123904 0.136456 0.214743
v -2.122249 0.136456 0.214743
v -2.122249 1.770683 0.214743
v -2.123904 1.770683 0.214743
v -2.123904 1.768701 0.216639
v -2.122249 1.768701 0.216639
v -2.122249 1.768701 -0.242469
v -2.123904 1.768701 -0.242469
v -2.123904 1.770683 -0.240573
v -2.122249 1.770683 -0.240573
vt -0.077900 -0.389800
vt 0.427400 -0.389800
vt 0.427400 0.139100
vt -0.077900 0.139100
vt 4.006100 0.621600
vt 4.006100 0.473900
vt 4.004300 0.473900
vt 4.004300 0.621600
vt -3.604500 0.148300
vt -3.604500 -0.380600
vt -4.109700 -0.380600
vt -4.109700 0.148300
vt 1.832900 -0.250500
vt 1.831100 -0.250500
vt 1.831100 0.266600
vt 1.832900 0.266600
vt 1.974400 0.266600
vt 1.974400 -0.250500
vt 1.976200 -0.250500
vt 1.976200 0.266600
vt 3.985800 0.621600
vt 3.984000 0.621600
vt 3.984000 0.473900
vt 3.985800 0.473900
vt 3.985800 0.621600
vt 3.988000 0.621600
vt 3.985800 0.622200
vt 3.985800 0.473900
vt 3.985800 0.473300
vt 3.988000 0.473900
vt 4.006100 0.621600
vt 4.006100 0.622200
vt 4.008300 0.621600
vt 4.006100 0.473900
vt 4.008300 0.473900
vt 4.006100 0.473300
vt 4.004300 0.473900
vt 4.004300 0.473300
vt 4.002100 0.473900
vt 4.004300 0.621600
vt 4.002100 0.621600
vt 4.004300 0.622200
vt 3.984000 0.473900
vt 3.981800 0.473900
vt 3.984000 0.473300
vt 3.984000 0.621600
vt 3.984000 0.622200
vt 3.981800 0.621600
vt 3.985800 0.621600
vt 3.985800 0.473900
vt 3.988000 0.473900
vt 3.988000 0.621600
vt -3.604500 0.148300
vt -4.109700 0.148300
vt -4.109700 0.149000
vt -3.604500 0.149000
vt -0.077900 0.139100
vt 0.427400 0.139100
vt 0.427400 0.139700
vt -0.077900 0.139700
vt 0.427400 -0.389800
vt -0.077900 -0.389800
vt -0.077900 -0.390400
vt 0.427400 -0.390400
vt -3.604500 -0.380600
vt -3.604500 0.148300
vt -3.602400 0.148300
vt -3.602400 -0.380600
vt -4.109700 0.148300
vt -4.109700 -0.380600
vt -4.111800 -0.380600
vt -4.111800 0.148300
vt -0.077900 -0.389800
vt -0.077900 0.139100
vt -0.080000 0.139100
vt -0.080000 -0.389800
vt 1.974400 -0.250500
vt 1.974400 0.266600
vt 1.972200 0.266600
vt 1.972200 -0.250500
vt 1.832900 0.266600
vt 1.831100 0.266600
vt 1.831100 0.267200
vt 1.832900 0.267200
vt 1.974400 0.266600
vt 1.976200 0.266600
vt 1.976200 0.267200
vt 1.974400 0.267200
vt 3.984000 0.621600
vt 3.985800 0.621600
vt 3.985800 0.622200
vt 3.984000 0.622200
vt 1.831100 -0.250500
vt 1.832900 -0.250500
vt 1.832900 -0.251100
vt 1.831100 -0.251100
vn 1.0000 -0.0000 0.0000
vn 0.0000 -1.0000 -0.0000
vn -1.0000 -0.0000 0.0000
vn 0.0000 0.0000 -1.0000
vn 0.0000 -0.0000 1.0000
vn 0.0000 1.0000 0.0000
vn -0.5682 0.5689 0.5946
vn -0.5682 0.5689 -0.5946
vn -0.5682 -0.5689 0.5946
vn -0.5682 -0.5688 -0.5946
vn 0.5684 -0.5688 -0.5945
vn 0.5684 -0.5687 0.5945
vn 0.5684 0.5688 -0.5944
vn 0.5684 0.5686 0.5947
vn -0.7068 0.7075 0.0000
vn -0.7068 -0.7074 -0.0000
vn -0.7067 -0.7075 -0.0000
vn 0.7070 -0.7072 -0.0000
vn 0.7070 -0.7073 -0.0000
vn 0.7069 0.7073 0.0000
vn 0.7070 0.7072 0.0000
vn -0.6911 -0.0000 0.7227
vn -0.6909 0.0000 0.7230
vn -0.6911 -0.0000 0.7228
vn -0.6911 0.0000 -0.7228
vn -0.6909 0.0000 -0.7230
vn -0.6911 0.0000 -0.7227
vn 0.6911 0.0000 -0.7228
vn 0.6911 -0.0000 0.7228
vn 0.0000 -0.6912 -0.7226
vn 0.0000 -0.6912 -0.7227
vn 0.0000 -0.6913 -0.7226
vn 0.0000 -0.6912 0.7226
vn 0.0000 -0.6912 0.7227
vn 0.0000 -0.6913 0.7226
vn 0.0000 0.6912 0.7227
vn 0.0000 0.6911 0.7227
vn 0.0000 0.6912 0.7226
vn 0.0000 0.6912 -0.7227
vn 0.0000 0.6912 -0.7226
vn 0.0000 0.6911 -0.7227
usemtl Default_OBJ.039
s 1
f 1/1/1 2/2/1 3/3/1
f 1/1/1 3/3/1 4/4/1
f 5/5/2 6/6/2 7/7/2
f 5/5/2 7/7/2 8/8/2
f 9/9/3 10/10/3 11/11/3
f 9/9/3 11/11/3 12/12/3
f 13/13/4 14/14/4 15/15/4
f 13/13/4 15/15/4 16/16/4
f 17/17/5 18/18/5 19/19/5
f 17/17/5 19/19/5 20/20/5
f 21/21/6 22/22/6 23/23/6
f 21/21/6 23/23/6 24/24/6
f 25/25/7 26/26/7 27/27/7
f 28/28/8 29/29/8 30/30/8
f 31/31/9 32/32/9 33/33/9
f 34/34/10 35/35/10 36/36/10
f 37/37/11 38/38/11 39/39/11
f 40/40/12 41/41/12 42/42/12
f 43/43/13 44/44/13 45/45/13
f 46/46/14 47/47/14 48/48/14
f 49/49/15 50/50/15 51/51/15
f 49/49/15 51/51/15 52/52/15
f 53/53/16 54/54/17 55/55/17
f 53/53/16 55/55/17 56/56/16
f 57/57/18 58/58/19 59/59/19
f 57/57/18 59/59/19 60/60/18
f 61/61/20 62/62/21 63/63/21
f 61/61/20 63/63/21 64/64/20
f 65/65/22 66/66/23 67/67/24
f 65/65/22 67/67/24 68/68/23
f 69/69/25 70/70/26 71/71/27
f 69/69/25 71/71/27 72/72/26
f 73/73/28 74/74/28 75/75/28
f 73/73/28 75/75/28 76/76/28
f 77/77/29 78/78/29 79/79/29
f 77/77/29 79/79/29 80/80/29
f 81/81/30 82/82/31 83/83/32
f 81/81/30 83/83/32 84/84/32
f 85/85/33 86/86/34 87/87/35
f 85/85/33 87/87/35 88/88/35
f 89/89/36 90/90/37 91/91/36
f 89/89/36 91/91/36 92/92/38
f 93/93/39 94/94/40 95/95/39
f 93/93/39 95/95/39 96/96/41
