# Blender v2.90.1 OBJ File: ''
# www.blender.org
mtllib Subsurfed_Porch.018.mtl
o Subsurfed_Porch.018_Cube.001
v -6.649037 0.839237 -4.666826
v -6.642243 0.839237 -4.669641
v -6.645337 0.839237 -4.672735
v -6.649037 0.839237 -4.671201
v -6.655832 0.839237 -4.683229
v -6.658647 0.839237 -4.676435
v -6.654272 0.839237 -4.676435
v -6.652739 0.839237 -4.680137
v -6.655832 0.839237 -4.669641
v -6.652739 0.839237 -4.672735
v -6.639429 0.839237 -4.676435
v -6.643804 0.839237 -4.676435
v -6.642243 0.839237 -4.683229
v -6.649037 0.839237 -4.686045
v -6.649037 0.839237 -4.681668
v -6.645337 0.839237 -4.680137
v -6.649037 0.839237 -4.676435
v 1.729291 4.075181 -5.284420
v 1.726476 4.068386 -5.284420
v 1.723382 4.071480 -5.284420
v 1.724916 4.075181 -5.284420
v 1.712887 4.081975 -5.284420
v 1.719682 4.084789 -5.284420
v 1.719682 4.080415 -5.284420
v 1.715980 4.078881 -5.284420
v 1.726476 4.081975 -5.284420
v 1.723382 4.078881 -5.284420
v 1.719682 4.065572 -5.284420
v 1.719682 4.069947 -5.284420
v 1.712887 4.068386 -5.284420
v 1.710073 4.075181 -5.284420
v 1.714448 4.075181 -5.284420
v 1.715980 4.071480 -5.284420
v 1.719682 4.075181 -5.284420
v 2.050579 4.031497 -2.864283
v 2.047765 4.031497 -2.871078
v 2.044670 4.031497 -2.867984
v 2.046204 4.031497 -2.864283
v 2.034175 4.031497 -2.857489
v 2.040970 4.031497 -2.854675
v 2.040970 4.031497 -2.859050
v 2.037269 4.031497 -2.860583
v 2.047765 4.031497 -2.857489
v 2.044670 4.031497 -2.860583
v 2.040970 4.031497 -2.873892
v 2.040970 4.031497 -2.869518
v 2.034175 4.031497 -2.871078
v 2.031361 4.031497 -2.864283
v 2.035737 4.031497 -2.864283
v 2.037269 4.031497 -2.867984
v 2.040970 4.031497 -2.864283
v 3.603629 4.081553 -2.900885
v 3.600814 4.074758 -2.900885
v 3.597720 4.077851 -2.900885
v 3.599253 4.081553 -2.900885
v 3.587224 4.088346 -2.900885
v 3.594019 4.091160 -2.900885
v 3.594019 4.086785 -2.900885
v 3.590318 4.085253 -2.900885
v 3.600814 4.088346 -2.900885
v 3.597720 4.085253 -2.900885
v 3.594019 4.071943 -2.900885
v 3.594019 4.076318 -2.900885
v 3.587224 4.074758 -2.900885
v 3.584410 4.081553 -2.900885
v 3.588786 4.081553 -2.900885
v 3.590318 4.077851 -2.900885
v 3.594019 4.081553 -2.900885
v -11.308447 4.081553 -8.292381
v -11.311262 4.074759 -8.292381
v -11.314355 4.077852 -8.292381
v -11.312820 4.081553 -8.292381
v -11.324850 4.088347 -8.292381
v -11.318055 4.091161 -8.292381
v -11.318055 4.086787 -8.292381
v -11.321756 4.085254 -8.292381
v -11.311262 4.088347 -8.292381
v -11.314355 4.085254 -8.292381
v -11.318055 4.071944 -8.292381
v -11.318055 4.076319 -8.292381
v -11.324850 4.074759 -8.292381
v -11.327664 4.081553 -8.292381
v -11.323290 4.081553 -8.292381
v -11.321756 4.077852 -8.292381
v -11.318055 4.081553 -8.292381
v 3.781848 3.650918 -4.493802
v 3.781848 3.644124 -4.490987
v 3.781848 3.647217 -4.487893
v 3.781848 3.650918 -4.489427
v 3.781848 3.657713 -4.477398
v 3.781848 3.660527 -4.484192
v 3.781848 3.656152 -4.484192
v 3.781848 3.654619 -4.480492
v 3.781848 3.657713 -4.490987
v 3.781848 3.654619 -4.487893
v 3.781848 3.641310 -4.484192
v 3.781848 3.645684 -4.484192
v 3.781848 3.644124 -4.477398
v 3.781848 3.650918 -4.474584
v 3.781848 3.650918 -4.478959
v 3.781848 3.647217 -4.480492
v 3.781848 3.650918 -4.484192
vt 0.726917 0.392937
vt 0.727308 0.392375
vt 0.727434 0.392728
vt 0.727221 0.393034
vt 0.727861 0.393926
vt 0.727308 0.394034
vt 0.727434 0.393632
vt 0.727735 0.393573
vt 0.726917 0.393624
vt 0.727221 0.393409
vt 0.727861 0.392268
vt 0.727735 0.392670
vt 0.728251 0.392678
vt 0.728251 0.393365
vt 0.727948 0.393267
vt 0.727948 0.392893
vt 0.727584 0.393151
vt 0.727861 0.390502
vt 0.728251 0.390912
vt 0.727948 0.391128
vt 0.727735 0.390904
vt 0.726917 0.391858
vt 0.726917 0.391171
vt 0.727221 0.391269
vt 0.727221 0.391643
vt 0.727308 0.390610
vt 0.727434 0.390963
vt 0.728251 0.391599
vt 0.727948 0.391502
vt 0.727861 0.392161
vt 0.727308 0.392268
vt 0.727434 0.391866
vt 0.727735 0.391808
vt 0.727584 0.391385
vt 0.727861 0.388737
vt 0.728251 0.389146
vt 0.727948 0.389362
vt 0.727735 0.389139
vt 0.726917 0.390092
vt 0.726917 0.389406
vt 0.727221 0.389503
vt 0.727221 0.389877
vt 0.727308 0.388844
vt 0.727434 0.389197
vt 0.728251 0.389833
vt 0.727948 0.389736
vt 0.727861 0.390395
vt 0.727308 0.390502
vt 0.727434 0.390100
vt 0.727735 0.390042
vt 0.727584 0.389619
vt 0.727861 0.386971
vt 0.728251 0.387381
vt 0.727948 0.387596
vt 0.727735 0.387373
vt 0.726917 0.388327
vt 0.726917 0.387640
vt 0.727221 0.387737
vt 0.727221 0.388111
vt 0.727308 0.387078
vt 0.727434 0.387431
vt 0.728251 0.388068
vt 0.727948 0.387970
vt 0.727861 0.388629
vt 0.727308 0.388737
vt 0.727434 0.388335
vt 0.727735 0.388276
vt 0.727584 0.387854
vt 0.727308 0.395799
vt 0.726917 0.395389
vt 0.727221 0.395174
vt 0.727434 0.395397
vt 0.728251 0.394444
vt 0.728251 0.395130
vt 0.727948 0.395033
vt 0.727948 0.394659
vt 0.727860 0.395692
vt 0.727735 0.395339
vt 0.726917 0.394703
vt 0.727221 0.394800
vt 0.727308 0.394141
vt 0.727861 0.394034
vt 0.727735 0.394436
vt 0.727434 0.394494
vt 0.727584 0.394917
vt 0.727831 0.395799
vt 0.728210 0.396183
vt 0.727916 0.396306
vt 0.727709 0.396097
vt 0.726917 0.396725
vt 0.726917 0.396183
vt 0.727212 0.396306
vt 0.727212 0.396601
vt 0.727296 0.395799
vt 0.727418 0.396097
vt 0.728210 0.396725
vt 0.727916 0.396601
vt 0.727831 0.397108
vt 0.727296 0.397108
vt 0.727418 0.396810
vt 0.727710 0.396810
vt 0.727564 0.396454
vn 0.0000 1.0000 -0.0000
vn 0.0000 0.0000 -1.0000
vn -1.0000 -0.0000 0.0000
usemtl Blue.001
s 1
f 1/1/1 2/2/1 3/3/1 4/4/1
f 5/5/1 6/6/1 7/7/1 8/8/1
f 9/9/1 1/1/1 4/4/1 10/10/1
f 2/2/1 11/11/1 12/12/1 3/3/1
f 13/13/1 14/14/1 15/15/1 16/16/1
f 14/14/1 5/5/1 8/8/1 15/15/1
f 6/6/1 9/9/1 10/10/1 7/7/1
f 11/11/1 13/13/1 16/16/1 12/12/1
f 4/4/1 3/3/1 17/17/1
f 8/8/1 7/7/1 17/17/1
f 10/10/1 4/4/1 17/17/1
f 3/3/1 12/12/1 17/17/1
f 16/16/1 15/15/1 17/17/1
f 15/15/1 8/8/1 17/17/1
f 7/7/1 10/10/1 17/17/1
f 12/12/1 16/16/1 17/17/1
f 18/18/2 19/19/2 20/20/2 21/21/2
f 22/22/2 23/23/2 24/24/2 25/25/2
f 26/26/2 18/18/2 21/21/2 27/27/2
f 19/19/2 28/28/2 29/29/2 20/20/2
f 30/30/2 31/31/2 32/32/2 33/33/2
f 31/31/2 22/22/2 25/25/2 32/32/2
f 23/23/2 26/26/2 27/27/2 24/24/2
f 28/28/2 30/30/2 33/33/2 29/29/2
f 21/21/2 20/20/2 34/34/2
f 25/25/2 24/24/2 34/34/2
f 27/27/2 21/21/2 34/34/2
f 20/20/2 29/29/2 34/34/2
f 33/33/2 32/32/2 34/34/2
f 32/32/2 25/25/2 34/34/2
f 24/24/2 27/27/2 34/34/2
f 29/29/2 33/33/2 34/34/2
f 35/35/1 36/36/1 37/37/1 38/38/1
f 39/39/1 40/40/1 41/41/1 42/42/1
f 43/43/1 35/35/1 38/38/1 44/44/1
f 36/36/1 45/45/1 46/46/1 37/37/1
f 47/47/1 48/48/1 49/49/1 50/50/1
f 48/48/1 39/39/1 42/42/1 49/49/1
f 40/40/1 43/43/1 44/44/1 41/41/1
f 45/45/1 47/47/1 50/50/1 46/46/1
f 38/38/1 37/37/1 51/51/1
f 42/42/1 41/41/1 51/51/1
f 44/44/1 38/38/1 51/51/1
f 37/37/1 46/46/1 51/51/1
f 50/50/1 49/49/1 51/51/1
f 49/49/1 42/42/1 51/51/1
f 41/41/1 44/44/1 51/51/1
f 46/46/1 50/50/1 51/51/1
f 52/52/2 53/53/2 54/54/2 55/55/2
f 56/56/2 57/57/2 58/58/2 59/59/2
f 60/60/2 52/52/2 55/55/2 61/61/2
f 53/53/2 62/62/2 63/63/2 54/54/2
f 64/64/2 65/65/2 66/66/2 67/67/2
f 65/65/2 56/56/2 59/59/2 66/66/2
f 57/57/2 60/60/2 61/61/2 58/58/2
f 62/62/2 64/64/2 67/67/2 63/63/2
f 55/55/2 54/54/2 68/68/2
f 59/59/2 58/58/2 68/68/2
f 61/61/2 55/55/2 68/68/2
f 54/54/2 63/63/2 68/68/2
f 67/67/2 66/66/2 68/68/2
f 66/66/2 59/59/2 68/68/2
f 58/58/2 61/61/2 68/68/2
f 63/63/2 67/67/2 68/68/2
f 69/69/2 70/70/2 71/71/2 72/72/2
f 73/73/2 74/74/2 75/75/2 76/76/2
f 77/77/2 69/69/2 72/72/2 78/78/2
f 70/70/2 79/79/2 80/80/2 71/71/2
f 81/81/2 82/82/2 83/83/2 84/84/2
f 82/82/2 73/73/2 76/76/2 83/83/2
f 74/74/2 77/77/2 78/78/2 75/75/2
f 79/79/2 81/81/2 84/84/2 80/80/2
f 72/72/2 71/71/2 85/85/2
f 76/76/2 75/75/2 85/85/2
f 78/78/2 72/72/2 85/85/2
f 71/71/2 80/80/2 85/85/2
f 84/84/2 83/83/2 85/85/2
f 83/83/2 76/76/2 85/85/2
f 75/75/2 78/78/2 85/85/2
f 80/80/2 84/84/2 85/85/2
f 86/86/3 87/87/3 88/88/3 89/89/3
f 90/90/3 91/91/3 92/92/3 93/93/3
f 94/94/3 86/86/3 89/89/3 95/95/3
f 87/87/3 96/96/3 97/97/3 88/88/3
f 98/98/3 99/99/3 100/100/3 101/101/3
f 99/99/3 90/90/3 93/93/3 100/100/3
f 91/91/3 94/94/3 95/95/3 92/92/3
f 96/96/3 98/98/3 101/101/3 97/97/3
f 89/89/3 88/88/3 102/102/3
f 93/93/3 92/92/3 102/102/3
f 95/95/3 89/89/3 102/102/3
f 88/88/3 97/97/3 102/102/3
f 101/101/3 100/100/3 102/102/3
f 100/100/3 93/93/3 102/102/3
f 92/92/3 95/95/3 102/102/3
f 97/97/3 101/101/3 102/102/3
