# Blender v2.90.1 OBJ File: ''
# www.blender.org
mtllib conference.026.mtl
o conference.026
v 9.327626 1.692602 -0.186505
v 9.271018 1.692602 -0.045992
v 9.208138 1.692602 0.091831
v 9.377848 1.692602 -0.329428
v 9.421581 1.692602 -0.474468
v 9.458738 1.692602 -0.621328
v 9.489242 1.692602 -0.769715
v 9.513032 1.692602 -0.919323
v 9.530061 1.692602 -1.069853
v 9.540291 1.692602 -1.220997
v 9.543702 1.692602 -1.372446
v 9.540291 1.692602 -1.523897
v 9.530061 1.692602 -1.675040
v 9.513032 1.692602 -1.825569
v 9.489242 1.692602 -1.975178
v 9.458738 1.692602 -2.123564
v 9.421581 1.692602 -2.270426
v 9.377848 1.692602 -2.415466
v 9.327626 1.692602 -2.558387
v 9.271018 1.692602 -2.698900
v 9.208138 1.692602 -2.836723
v 5.150872 1.692602 -2.836723
v 5.150872 1.692602 0.091831
v 9.208138 1.791746 -2.836723
v 5.150872 1.791746 -2.836723
v 5.150872 1.791745 0.091831
v 9.271018 1.791746 -2.698900
v 9.327626 1.791745 -2.558387
v 9.377848 1.791745 -2.415466
v 9.421581 1.791745 -2.270426
v 9.458738 1.791745 -2.123564
v 9.489242 1.791745 -1.975178
v 9.513032 1.791745 -1.825569
v 9.530061 1.791745 -1.675040
v 9.540291 1.791745 -1.523897
v 9.543702 1.791745 -1.372446
v 9.540291 1.791745 -1.220997
v 9.530061 1.791745 -1.069853
v 9.513032 1.791745 -0.919323
v 9.489242 1.791745 -0.769715
v 9.458738 1.791745 -0.621328
v 9.421581 1.791745 -0.474468
v 9.377848 1.791745 -0.329428
v 9.327626 1.791745 -0.186505
v 9.271018 1.791745 -0.045991
v 9.208138 1.791745 0.091831
v 1.087500 1.680400 -2.855027
v 5.144770 1.680400 -2.855027
v 5.144770 1.680400 0.073527
v 1.024622 1.680400 -2.717204
v 0.968016 1.680400 -2.576689
v 0.917791 1.680400 -2.433768
v 0.874059 1.680400 -2.288729
v 0.836902 1.680400 -2.141867
v 0.806399 1.680400 -1.993481
v 0.782609 1.680400 -1.843872
v 0.765582 1.680400 -1.693343
v 0.755350 1.680400 -1.542200
v 0.751938 1.680400 -1.390750
v 0.755350 1.680400 -1.239299
v 0.765582 1.680400 -1.088156
v 0.782609 1.680400 -0.937627
v 0.806399 1.680400 -0.788018
v 0.836902 1.680400 -0.639632
v 0.874059 1.680400 -0.492771
v 0.917791 1.680400 -0.347731
v 0.968016 1.680400 -0.204810
v 1.024622 1.680400 -0.064296
v 1.087500 1.680400 0.073527
v 0.968016 1.779543 -0.204810
v 1.024622 1.779543 -0.064296
v 1.087500 1.779543 0.073527
v 0.917791 1.779543 -0.347731
v 0.874059 1.779543 -0.492771
v 0.836902 1.779543 -0.639632
v 0.806399 1.779543 -0.788018
v 0.782609 1.779543 -0.937627
v 0.765582 1.779543 -1.088156
v 0.755350 1.779543 -1.239299
v 0.751938 1.779543 -1.390750
v 0.755350 1.779543 -1.542200
v 0.765582 1.779543 -1.693343
v 0.782609 1.779543 -1.843872
v 0.806399 1.779543 -1.993481
v 0.836902 1.779543 -2.141867
v 0.874059 1.779543 -2.288729
v 0.917791 1.779543 -2.433768
v 0.968016 1.779543 -2.576689
v 1.024622 1.779543 -2.717204
v 1.087500 1.779543 -2.855027
v 5.144770 1.779543 -2.855027
v 5.144770 1.779543 0.073527
vt 0.000000 1.000000
vt 0.000000 1.000000
vt 0.000000 1.000000
vt 0.000000 1.000000
vt 0.000000 1.000000
vt 0.000000 1.000000
vt 0.000000 1.000000
vt 0.000000 1.000000
vt 0.000000 1.000000
vt 0.000000 1.000000
vt 0.000000 1.000000
vt 0.000000 1.000000
vt 0.000000 1.000000
vt 0.000000 1.000000
vt 0.000000 1.000000
vt 0.000000 1.000000
vt 0.000000 1.000000
vt 0.000000 1.000000
vt 0.000000 1.000000
vt 0.000000 1.000000
vt 0.000000 1.000000
vt 0.000000 1.000000
vt 0.000000 1.000000
vt 0.000000 1.000000
vt 0.000000 1.000000
vt 0.000000 1.000000
vt 0.000000 1.000000
vt 0.000000 1.000000
vt 0.000000 1.000000
vt 0.000000 1.000000
vt 0.000000 1.000000
vt 0.000000 1.000000
vt 0.000000 1.000000
vt 0.000000 1.000000
vt 0.000000 1.000000
vt 0.000000 1.000000
vt 0.000000 1.000000
vt 0.000000 1.000000
vt 0.000000 1.000000
vt 0.000000 1.000000
vt 0.000000 1.000000
vt 0.000000 1.000000
vt 0.000000 1.000000
vt 0.000000 1.000000
vt 0.000000 1.000000
vt 0.000000 1.000000
vt 0.000000 1.000000
vt 0.000000 1.000000
vt 0.000000 1.000000
vt 0.000000 1.000000
vt 0.000000 1.000000
vt 0.000000 1.000000
vt 0.000000 1.000000
vt 0.000000 1.000000
vt 0.000000 1.000000
vt 0.000000 1.000000
vt 0.000000 1.000000
vt 0.000000 1.000000
vt 0.000000 1.000000
vt 0.000000 1.000000
vt 0.000000 1.000000
vt 0.000000 1.000000
vt 0.000000 1.000000
vt 0.000000 1.000000
vt 0.000000 1.000000
vt 0.000000 1.000000
vt 0.000000 1.000000
vt 0.000000 1.000000
vt 0.000000 1.000000
vt 0.000000 1.000000
vt 0.000000 1.000000
vt 0.000000 1.000000
vt 0.000000 1.000000
vt 0.000000 1.000000
vt 0.000000 1.000000
vt 0.000000 1.000000
vt 0.000000 1.000000
vt 0.000000 1.000000
vt 0.000000 1.000000
vt 0.000000 1.000000
vt 0.000000 1.000000
vt 0.000000 1.000000
vt 0.000000 1.000000
vt 0.000000 1.000000
vt 0.000000 1.000000
vt 0.000000 1.000000
vt 0.000000 1.000000
vt 0.000000 1.000000
vt 0.000000 1.000000
vt 0.000000 1.000000
vt 0.000000 1.000000
vt 0.000000 1.000000
vn 0.0000 -1.0000 0.0000
vn 0.0000 1.0000 0.0000
vn 0.9098 0.0000 0.4151
vn 0.9276 0.0000 0.3737
vn 0.9434 0.0000 0.3315
vn 0.9574 0.0000 0.2887
vn 0.9695 0.0000 0.2453
vn 0.9795 0.0000 0.2014
vn 0.9876 0.0000 0.1570
vn 0.9937 0.0000 0.1124
vn 0.9977 0.0000 0.0675
vn 0.9997 0.0000 0.0225
vn 0.9997 0.0000 -0.0225
vn 0.9977 0.0000 -0.0675
vn 0.9937 0.0000 -0.1124
vn 0.9876 0.0000 -0.1570
vn 0.9795 0.0000 -0.2014
vn 0.9695 0.0000 -0.2453
vn 0.9574 0.0000 -0.2887
vn 0.9434 0.0000 -0.3315
vn 0.9276 0.0000 -0.3737
vn 0.9098 0.0000 -0.4151
vn 0.0000 0.0000 -1.0000
vn -1.0000 0.0000 0.0000
vn 0.0000 -0.0000 1.0000
vn -0.9098 0.0000 0.4151
vn -0.9276 -0.0000 0.3737
vn -0.9434 -0.0000 0.3315
vn -0.9574 0.0000 0.2887
vn -0.9695 0.0000 0.2453
vn -0.9795 0.0000 0.2014
vn -0.9876 0.0000 0.1570
vn -0.9937 0.0000 0.1124
vn -0.9977 0.0000 0.0675
vn -0.9997 0.0000 0.0225
vn -0.9997 0.0000 -0.0225
vn -0.9977 0.0000 -0.0675
vn -0.9937 0.0000 -0.1124
vn -0.9876 0.0000 -0.1570
vn -0.9795 0.0000 -0.2014
vn -0.9695 0.0000 -0.2453
vn -0.9574 0.0000 -0.2887
vn -0.9434 0.0000 -0.3315
vn -0.9276 0.0000 -0.3737
vn -0.9098 0.0000 -0.4151
vn 1.0000 0.0000 0.0000
usemtl mesh29_SG
s off
f 1/1/1 2/2/1 3/3/1
f 4/4/1 1/1/1 3/3/1
f 5/5/1 4/4/1 3/3/1
f 6/6/1 5/5/1 3/3/1
f 7/7/1 6/6/1 3/3/1
f 8/8/1 7/7/1 3/3/1
f 9/9/1 8/8/1 3/3/1
f 10/10/1 9/9/1 3/3/1
f 11/11/1 10/10/1 3/3/1
f 12/12/1 11/11/1 3/3/1
f 13/13/1 12/12/1 3/3/1
f 14/14/1 13/13/1 3/3/1
f 15/15/1 14/14/1 3/3/1
f 16/16/1 15/15/1 3/3/1
f 17/17/1 16/16/1 3/3/1
f 18/18/1 17/17/1 3/3/1
f 19/19/1 18/18/1 3/3/1
f 20/20/1 19/19/1 3/3/1
f 21/21/1 20/20/1 3/3/1
f 22/22/1 21/21/1 3/3/1
f 23/23/1 22/22/1 3/3/1
f 24/24/2 25/25/2 26/26/2
f 27/27/2 24/24/2 26/26/2
f 28/28/2 27/27/2 26/26/2
f 29/29/2 28/28/2 26/26/2
f 30/30/2 29/29/2 26/26/2
f 31/31/2 30/30/2 26/26/2
f 32/32/2 31/31/2 26/26/2
f 33/33/2 32/32/2 26/26/2
f 34/34/2 33/33/2 26/26/2
f 35/35/2 34/34/2 26/26/2
f 36/36/2 35/35/2 26/26/2
f 37/37/2 36/36/2 26/26/2
f 38/38/2 37/37/2 26/26/2
f 39/39/2 38/38/2 26/26/2
f 40/40/2 39/39/2 26/26/2
f 41/41/2 40/40/2 26/26/2
f 42/42/2 41/41/2 26/26/2
f 43/43/2 42/42/2 26/26/2
f 44/44/2 43/43/2 26/26/2
f 45/45/2 44/44/2 26/26/2
f 46/46/2 45/45/2 26/26/2
f 45/45/3 46/46/3 3/3/3
f 2/2/3 45/45/3 3/3/3
f 44/44/4 45/45/4 2/2/4
f 1/1/4 44/44/4 2/2/4
f 43/43/5 44/44/5 1/1/5
f 4/4/5 43/43/5 1/1/5
f 42/42/6 43/43/6 4/4/6
f 5/5/6 42/42/6 4/4/6
f 41/41/7 42/42/7 5/5/7
f 6/6/7 41/41/7 5/5/7
f 40/40/8 41/41/8 6/6/8
f 7/7/8 40/40/8 6/6/8
f 39/39/9 40/40/9 7/7/9
f 8/8/9 39/39/9 7/7/9
f 38/38/10 39/39/10 8/8/10
f 9/9/10 38/38/10 8/8/10
f 37/37/11 38/38/11 9/9/11
f 10/10/11 37/37/11 9/9/11
f 36/36/12 37/37/12 10/10/12
f 11/11/12 36/36/12 10/10/12
f 35/35/13 36/36/13 11/11/13
f 12/12/13 35/35/13 11/11/13
f 34/34/14 35/35/14 12/12/14
f 13/13/14 34/34/14 12/12/14
f 33/33/15 34/34/15 13/13/15
f 14/14/15 33/33/15 13/13/15
f 32/32/16 33/33/16 14/14/16
f 15/15/16 32/32/16 14/14/16
f 31/31/17 32/32/17 15/15/17
f 16/16/17 31/31/17 15/15/17
f 30/30/18 31/31/18 16/16/18
f 17/17/18 30/30/18 16/16/18
f 29/29/19 30/30/19 17/17/19
f 18/18/19 29/29/19 17/17/19
f 28/28/20 29/29/20 18/18/20
f 19/19/20 28/28/20 18/18/20
f 27/27/21 28/28/21 19/19/21
f 20/20/21 27/27/21 19/19/21
f 24/24/22 27/27/22 20/20/22
f 21/21/22 24/24/22 20/20/22
f 25/25/23 24/24/23 21/21/23
f 22/22/23 25/25/23 21/21/23
f 26/26/24 25/25/24 22/22/24
f 23/23/24 26/26/24 22/22/24
f 46/46/25 26/26/25 23/23/25
f 3/3/25 46/46/25 23/23/25
f 47/47/1 48/48/1 49/49/1
f 50/50/1 47/47/1 49/49/1
f 51/51/1 50/50/1 49/49/1
f 52/52/1 51/51/1 49/49/1
f 53/53/1 52/52/1 49/49/1
f 54/54/1 53/53/1 49/49/1
f 55/55/1 54/54/1 49/49/1
f 56/56/1 55/55/1 49/49/1
f 57/57/1 56/56/1 49/49/1
f 58/58/1 57/57/1 49/49/1
f 59/59/1 58/58/1 49/49/1
f 60/60/1 59/59/1 49/49/1
f 61/61/1 60/60/1 49/49/1
f 62/62/1 61/61/1 49/49/1
f 63/63/1 62/62/1 49/49/1
f 64/64/1 63/63/1 49/49/1
f 65/65/1 64/64/1 49/49/1
f 66/66/1 65/65/1 49/49/1
f 67/67/1 66/66/1 49/49/1
f 68/68/1 67/67/1 49/49/1
f 69/69/1 68/68/1 49/49/1
f 70/70/2 71/71/2 72/72/2
f 73/73/2 70/70/2 72/72/2
f 74/74/2 73/73/2 72/72/2
f 75/75/2 74/74/2 72/72/2
f 76/76/2 75/75/2 72/72/2
f 77/77/2 76/76/2 72/72/2
f 78/78/2 77/77/2 72/72/2
f 79/79/2 78/78/2 72/72/2
f 80/80/2 79/79/2 72/72/2
f 81/81/2 80/80/2 72/72/2
f 82/82/2 81/81/2 72/72/2
f 83/83/2 82/82/2 72/72/2
f 84/84/2 83/83/2 72/72/2
f 85/85/2 84/84/2 72/72/2
f 86/86/2 85/85/2 72/72/2
f 87/87/2 86/86/2 72/72/2
f 88/88/2 87/87/2 72/72/2
f 89/89/2 88/88/2 72/72/2
f 90/90/2 89/89/2 72/72/2
f 91/91/2 90/90/2 72/72/2
f 92/92/2 91/91/2 72/72/2
f 72/72/26 71/71/26 68/68/26
f 69/69/26 72/72/26 68/68/26
f 71/71/27 70/70/27 67/67/27
f 68/68/27 71/71/27 67/67/27
f 70/70/28 73/73/28 66/66/28
f 67/67/28 70/70/28 66/66/28
f 73/73/29 74/74/29 65/65/29
f 66/66/29 73/73/29 65/65/29
f 74/74/30 75/75/30 64/64/30
f 65/65/30 74/74/30 64/64/30
f 75/75/31 76/76/31 63/63/31
f 64/64/31 75/75/31 63/63/31
f 76/76/32 77/77/32 62/62/32
f 63/63/32 76/76/32 62/62/32
f 77/77/33 78/78/33 61/61/33
f 62/62/33 77/77/33 61/61/33
f 78/78/34 79/79/34 60/60/34
f 61/61/34 78/78/34 60/60/34
f 79/79/35 80/80/35 59/59/35
f 60/60/35 79/79/35 59/59/35
f 80/80/36 81/81/36 58/58/36
f 59/59/36 80/80/36 58/58/36
f 81/81/37 82/82/37 57/57/37
f 58/58/37 81/81/37 57/57/37
f 82/82/38 83/83/38 56/56/38
f 57/57/38 82/82/38 56/56/38
f 83/83/39 84/84/39 55/55/39
f 56/56/39 83/83/39 55/55/39
f 84/84/40 85/85/40 54/54/40
f 55/55/40 84/84/40 54/54/40
f 85/85/41 86/86/41 53/53/41
f 54/54/41 85/85/41 53/53/41
f 86/86/42 87/87/42 52/52/42
f 53/53/42 86/86/42 52/52/42
f 87/87/43 88/88/43 51/51/43
f 52/52/43 87/87/43 51/51/43
f 88/88/44 89/89/44 50/50/44
f 51/51/44 88/88/44 50/50/44
f 89/89/45 90/90/45 47/47/45
f 50/50/45 89/89/45 47/47/45
f 90/90/23 91/91/23 48/48/23
f 47/47/23 90/90/23 48/48/23
f 91/91/46 92/92/46 49/49/46
f 48/48/46 91/91/46 49/49/46
f 92/92/25 72/72/25 69/69/25
f 49/49/25 92/92/25 69/69/25
