# Blender v2.90.1 OBJ File: ''
# www.blender.org
mtllib conference.012.mtl
o conference.012
v 16.493637 5.827617 5.157036
v 16.531723 5.827617 5.157036
v 16.493637 2.883242 5.157035
v 16.531723 2.883242 5.157035
v 16.531723 5.827617 5.202446
v 16.531723 2.883242 5.202446
v 16.493637 2.883242 5.202446
v 16.493637 5.827617 5.202446
v 16.493637 5.827619 -9.490130
v 16.531723 5.827619 -9.490130
v 16.493637 2.883244 -9.490131
v 16.531723 2.883244 -9.490131
v 16.531723 5.827619 -9.444719
v 16.531723 2.883244 -9.444720
v 16.493637 2.883244 -9.444720
v 16.493637 5.827619 -9.444719
v 16.493637 5.827619 -9.490130
v 16.531723 5.827619 -9.490130
v 16.493637 5.782208 -9.490130
v 16.531723 5.782208 -9.490130
v 16.531723 5.782206 5.202446
v 16.493637 5.782206 5.202446
v 16.531723 5.827617 5.202446
v 16.493637 5.827617 5.202446
v 16.531723 5.827619 -9.490130
v 16.493637 5.827619 -9.490130
v 16.493637 5.827617 5.202446
v 16.531723 5.827617 5.202446
v 16.493637 2.928655 -9.490130
v 16.531723 2.928655 -9.490130
v 16.531723 2.883244 -9.490131
v 16.493637 2.883244 -9.490131
v 16.531723 2.928652 5.202446
v 16.493637 2.883242 5.202446
v 16.531723 2.883242 5.202446
v 16.493637 2.883244 -9.490131
v 16.531723 2.883244 -9.490131
v 16.531723 2.883242 5.202446
v 16.493637 2.883242 5.202446
v 16.493637 2.928652 5.202446
v 16.493637 2.974285 -9.490130
v 16.531723 2.974285 -9.490130
v 16.493637 2.928874 -9.490130
v 16.531723 2.928874 -9.490130
v 16.531723 2.974283 5.202446
v 16.531723 2.928872 5.202446
v 16.493637 2.928872 5.202446
v 16.493637 2.974283 5.202446
v 16.531723 2.928872 5.111623
v 16.341291 2.928872 5.111623
v 16.531723 2.928874 -9.444719
v 16.341291 2.928874 -9.444719
v 16.341291 2.928872 5.129201
v 16.341291 2.958902 5.143852
v 16.341291 2.958904 -9.444719
v 7.303816 5.232150 5.952456
v 7.258406 5.232150 5.952456
v 7.303816 2.273126 5.952456
v 7.258406 2.273126 5.952456
v 7.258406 5.232150 5.914371
v 7.258406 2.273126 5.914370
v 7.303816 2.273126 5.914370
v 7.303816 5.232150 5.914371
v 2.932665 5.232150 5.952456
v 2.887254 5.232150 5.952456
v 2.932665 2.273126 5.952456
v 2.887254 2.273126 5.952456
v 2.887254 5.232150 5.914371
v 2.887254 2.273126 5.914370
v 2.932665 2.273126 5.914370
v 2.932665 5.232150 5.914371
v 7.303816 5.186739 5.952456
v 2.887254 5.186739 5.952456
v 2.887254 5.232150 5.914371
v 2.887254 5.186739 5.914371
v 2.887254 5.232150 5.952456
v 7.303816 5.186739 5.914371
v 7.303816 5.232150 5.914371
v 7.303816 5.232150 5.952456
v 2.887254 5.232150 5.952456
v 2.887254 5.232150 5.914371
v 7.303816 5.232150 5.952456
v 7.303816 5.232150 5.914371
v 7.303816 2.318537 5.952456
v 2.887254 2.318537 5.952456
v 2.887254 2.318537 5.914370
v 2.887254 2.273126 5.914370
v 2.887254 2.273126 5.952456
v 7.303816 2.273126 5.914370
v 7.303816 2.273126 5.952456
v 2.887254 2.273126 5.952456
v 2.887254 2.273126 5.914370
v 7.303816 2.318537 5.914370
v 7.303816 2.273126 5.952456
v 7.303816 2.273126 5.914370
v 7.303816 2.364314 5.952456
v 2.887254 2.364314 5.952456
v 7.303816 2.318903 5.952456
v 2.887254 2.318903 5.952456
v 2.887254 2.364314 5.914370
v 2.887254 2.318903 5.914370
v 7.303816 2.318903 5.914370
v 7.303816 2.364314 5.914370
v 2.888720 2.318757 5.762025
v 7.302351 2.318757 5.762025
v 2.888720 2.318757 5.952456
v 7.302351 2.318757 5.952456
v 7.243757 2.318757 5.762025
v 7.258406 2.348786 5.762025
v 2.932665 2.318757 5.762025
v 2.932665 2.348786 5.762025
v 2.864550 5.232150 5.952456
v 2.819137 5.232150 5.952456
v 2.864550 2.273126 5.952456
v 2.819137 2.273126 5.952456
v 2.819137 5.232150 5.914371
v 2.819137 2.273126 5.914370
v 2.864550 2.273126 5.914370
v 2.864550 5.232150 5.914371
v -1.484632 5.232150 5.952456
v -1.530039 5.232150 5.952456
v -1.484632 2.273126 5.952456
v -1.530039 2.273126 5.952456
v -1.530039 5.232150 5.914371
v -1.530039 2.273126 5.914370
v -1.484632 2.273126 5.914370
v -1.484632 5.232150 5.914371
v 2.864550 5.186739 5.952456
v -1.530039 5.186739 5.952456
v -1.530039 5.232150 5.914371
v -1.530039 5.186739 5.914371
v -1.530039 5.232150 5.952456
v 2.864550 5.186739 5.914371
v 2.864550 5.232150 5.914371
v 2.864550 5.232150 5.952456
v -1.530039 5.232150 5.952456
v -1.530039 5.232150 5.914371
v 2.864550 5.232150 5.952456
v 2.864550 5.232150 5.914371
v 2.864550 2.318537 5.952456
v -1.530039 2.318537 5.952456
v -1.530039 2.318537 5.914370
v -1.530039 2.273126 5.914370
v -1.530039 2.273126 5.952456
v 2.864550 2.273126 5.914370
v 2.864550 2.273126 5.952456
v -1.530039 2.273126 5.952456
v -1.530039 2.273126 5.914370
v 2.864550 2.318537 5.914370
v 2.864550 2.273126 5.952456
v 2.864550 2.273126 5.914370
vt 0.000000 1.000000
vt 0.000000 1.000000
vt 0.000000 1.000000
vt 0.000000 1.000000
vt 0.000000 1.000000
vt 0.000000 1.000000
vt 0.000000 1.000000
vt 0.000000 1.000000
vt 0.000000 1.000000
vt 0.000000 1.000000
vt 0.000000 1.000000
vt 0.000000 1.000000
vt 0.000000 1.000000
vt 0.000000 1.000000
vt 0.000000 1.000000
vt 0.000000 1.000000
vt 0.000000 1.000000
vt 0.000000 1.000000
vt 0.000000 1.000000
vt 0.000000 1.000000
vt 0.000000 1.000000
vt 0.000000 1.000000
vt 0.000000 1.000000
vt 0.000000 1.000000
vt 0.000000 1.000000
vt 0.000000 1.000000
vt 0.000000 1.000000
vt 0.000000 1.000000
vt 0.000000 1.000000
vt 0.000000 1.000000
vt 0.000000 1.000000
vt 0.000000 1.000000
vt 0.000000 1.000000
vt 0.000000 1.000000
vt 0.000000 1.000000
vt 0.000000 1.000000
vt 0.000000 1.000000
vt 0.000000 1.000000
vt 0.000000 1.000000
vt 0.000000 1.000000
vt 0.000000 1.000000
vt 0.000000 1.000000
vt 0.000000 1.000000
vt 0.000000 1.000000
vt 0.000000 1.000000
vt 0.000000 1.000000
vt 0.000000 1.000000
vt 0.000000 1.000000
vt 0.000000 1.000000
vt 0.000000 1.000000
vt 0.000000 1.000000
vt 0.000000 1.000000
vt 0.000000 1.000000
vt 0.000000 1.000000
vt 0.000000 1.000000
vt 0.000000 1.000000
vt 0.000000 1.000000
vt 0.000000 1.000000
vt 0.000000 1.000000
vt 0.000000 1.000000
vt 0.000000 1.000000
vt 0.000000 1.000000
vt 0.000000 1.000000
vt 0.000000 1.000000
vt 0.000000 1.000000
vt 0.000000 1.000000
vt 0.000000 1.000000
vt 0.000000 1.000000
vt 0.000000 1.000000
vt 0.000000 1.000000
vt 0.000000 1.000000
vt 0.000000 1.000000
vt 0.000000 1.000000
vt 0.000000 1.000000
vt 0.000000 1.000000
vt 0.000000 1.000000
vt 0.000000 1.000000
vt 0.000000 1.000000
vt 0.000000 1.000000
vt 0.000000 1.000000
vt 0.000000 1.000000
vt 0.000000 1.000000
vt 0.000000 1.000000
vt 0.000000 1.000000
vt 0.000000 1.000000
vt 0.000000 1.000000
vt 0.000000 1.000000
vt 0.000000 1.000000
vt 0.000000 1.000000
vt 0.000000 1.000000
vt 0.000000 1.000000
vt 0.000000 1.000000
vt 0.000000 1.000000
vt 0.000000 1.000000
vt 0.000000 1.000000
vt 0.000000 1.000000
vt 0.000000 1.000000
vt 0.000000 1.000000
vt 0.000000 1.000000
vt 0.000000 1.000000
vt 0.000000 1.000000
vt 0.000000 1.000000
vt 0.000000 1.000000
vt 0.000000 1.000000
vt 0.000000 1.000000
vt 0.000000 1.000000
vt 0.000000 1.000000
vt 0.000000 1.000000
vt 0.000000 1.000000
vt 0.000000 1.000000
vt 0.000000 1.000000
vt 0.000000 1.000000
vt 0.000000 1.000000
vt 0.000000 1.000000
vt 0.000000 1.000000
vt 0.000000 1.000000
vt 0.000000 1.000000
vt 0.000000 1.000000
vt 0.000000 1.000000
vt 0.000000 1.000000
vt 0.000000 1.000000
vt 0.000000 1.000000
vt 0.000000 1.000000
vt 0.000000 1.000000
vt 0.000000 1.000000
vt 0.000000 1.000000
vt 0.000000 1.000000
vt 0.000000 1.000000
vt 0.000000 1.000000
vt 0.000000 1.000000
vt 0.000000 1.000000
vt 0.000000 1.000000
vt 0.000000 1.000000
vt 0.000000 1.000000
vt 0.000000 1.000000
vt 0.000000 1.000000
vt 0.000000 1.000000
vt 0.000000 1.000000
vt 0.000000 1.000000
vt 0.000000 1.000000
vt 0.000000 1.000000
vt 0.000000 1.000000
vt 0.000000 1.000000
vt 0.000000 1.000000
vt 0.000000 1.000000
vt 0.000000 1.000000
vt 0.000000 1.000000
vt 0.000000 1.000000
vt 0.000000 1.000000
vt 0.000000 1.000000
vt 0.000000 1.000000
vn 0.0000 0.0000 -1.0000
vn 1.0000 0.0000 0.0000
vn 0.0000 -1.0000 0.0000
vn 0.0000 -0.0000 1.0000
vn -1.0000 0.0000 0.0000
vn 0.0000 1.0000 0.0000
vn -1.0000 0.0001 0.0000
usemtl mesh12_SG
s off
f 1/1/1 2/2/1 3/3/1
f 2/2/1 4/4/1 3/3/1
f 5/5/2 6/6/2 2/2/2
f 6/6/2 4/4/2 2/2/2
f 7/7/3 3/3/3 6/6/3
f 3/3/3 4/4/3 6/6/3
f 6/6/4 5/5/4 7/7/4
f 5/5/4 8/8/4 7/7/4
f 3/3/5 7/7/5 1/1/5
f 7/7/5 8/8/5 1/1/5
f 2/2/6 1/1/6 5/5/6
f 1/1/6 8/8/6 5/5/6
f 9/9/1 10/10/1 11/11/1
f 10/10/1 12/12/1 11/11/1
f 13/13/2 14/14/2 10/10/2
f 14/14/2 12/12/2 10/10/2
f 15/15/3 11/11/3 14/14/3
f 11/11/3 12/12/3 14/14/3
f 14/14/4 13/13/4 15/15/4
f 13/13/4 16/16/4 15/15/4
f 11/11/5 15/15/5 9/9/5
f 15/15/5 16/16/5 9/9/5
f 10/10/6 9/9/6 13/13/6
f 9/9/6 16/16/6 13/13/6
f 17/17/1 18/18/1 19/19/1
f 10/10/1 20/20/1 19/19/1
f 5/5/2 21/21/2 10/10/2
f 21/21/2 20/20/2 10/10/2
f 22/22/3 19/19/3 21/21/3
f 19/19/3 20/20/3 21/21/3
f 21/21/4 5/5/4 22/22/4
f 23/23/4 24/24/4 22/22/4
f 19/19/5 22/22/5 9/9/5
f 22/22/5 8/8/5 9/9/5
f 25/25/6 26/26/6 5/5/6
f 9/9/6 27/27/6 28/28/6
f 29/29/1 30/30/1 11/11/1
f 30/30/1 31/31/1 32/32/1
f 33/33/2 6/6/2 30/30/2
f 6/6/2 12/12/2 30/30/2
f 34/34/3 11/11/3 35/35/3
f 36/36/3 37/37/3 6/6/3
f 38/38/4 33/33/4 39/39/4
f 33/33/4 40/40/4 7/7/4
f 11/11/5 7/7/5 29/29/5
f 7/7/5 40/40/5 29/29/5
f 30/30/6 29/29/6 33/33/6
f 29/29/6 40/40/6 33/33/6
f 41/41/1 42/42/1 43/43/1
f 42/42/1 44/44/1 43/43/1
f 45/45/2 46/46/2 42/42/2
f 46/46/2 44/44/2 42/42/2
f 47/47/3 43/43/3 46/46/3
f 43/43/3 44/44/3 46/46/3
f 46/46/4 45/45/4 47/47/4
f 45/45/4 48/48/4 47/47/4
f 43/43/5 47/47/5 41/41/5
f 47/47/5 48/48/5 41/41/5
f 42/42/6 41/41/6 45/45/6
f 41/41/6 48/48/6 45/45/6
f 49/49/3 50/50/3 51/51/3
f 50/50/3 52/52/3 51/51/3
f 53/53/7 54/54/7 52/52/7
f 54/54/5 55/55/5 52/52/5
f 56/56/4 57/57/4 58/58/4
f 57/57/4 59/59/4 58/58/4
f 60/60/5 61/61/5 57/57/5
f 61/61/5 59/59/5 57/57/5
f 62/62/3 58/58/3 61/61/3
f 58/58/3 59/59/3 61/61/3
f 61/61/1 60/60/1 62/62/1
f 60/60/1 63/63/1 62/62/1
f 58/58/2 62/62/2 56/56/2
f 62/62/2 63/63/2 56/56/2
f 57/57/6 56/56/6 60/60/6
f 56/56/6 63/63/6 60/60/6
f 64/64/4 65/65/4 66/66/4
f 65/65/4 67/67/4 66/66/4
f 68/68/5 69/69/5 65/65/5
f 69/69/5 67/67/5 65/65/5
f 70/70/3 66/66/3 69/69/3
f 66/66/3 67/67/3 69/69/3
f 69/69/1 68/68/1 70/70/1
f 68/68/1 71/71/1 70/70/1
f 66/66/2 70/70/2 64/64/2
f 70/70/2 71/71/2 64/64/2
f 65/65/6 64/64/6 68/68/6
f 64/64/6 71/71/6 68/68/6
f 56/56/4 65/65/4 72/72/4
f 65/65/4 73/73/4 72/72/4
f 74/74/5 75/75/5 76/76/5
f 75/75/5 73/73/5 65/65/5
f 77/77/3 72/72/3 75/75/3
f 72/72/3 73/73/3 75/75/3
f 75/75/1 68/68/1 77/77/1
f 68/68/1 63/63/1 77/77/1
f 72/72/2 77/77/2 56/56/2
f 77/77/2 78/78/2 79/79/2
f 80/80/6 56/56/6 81/81/6
f 82/82/6 83/83/6 68/68/6
f 84/84/4 85/85/4 58/58/4
f 85/85/4 67/67/4 58/58/4
f 86/86/5 69/69/5 85/85/5
f 87/87/5 88/88/5 85/85/5
f 89/89/3 90/90/3 69/69/3
f 58/58/3 91/91/3 92/92/3
f 69/69/1 86/86/1 62/62/1
f 86/86/1 93/93/1 62/62/1
f 94/94/2 95/95/2 84/84/2
f 62/62/2 93/93/2 84/84/2
f 85/85/6 84/84/6 86/86/6
f 84/84/6 93/93/6 86/86/6
f 96/96/4 97/97/4 98/98/4
f 97/97/4 99/99/4 98/98/4
f 100/100/5 101/101/5 97/97/5
f 101/101/5 99/99/5 97/97/5
f 102/102/3 98/98/3 101/101/3
f 98/98/3 99/99/3 101/101/3
f 101/101/1 100/100/1 102/102/1
f 100/100/1 103/103/1 102/102/1
f 98/98/2 102/102/2 96/96/2
f 102/102/2 103/103/2 96/96/2
f 97/97/6 96/96/6 100/100/6
f 96/96/6 103/103/6 100/100/6
f 104/104/3 105/105/3 106/106/3
f 105/105/3 107/107/3 106/106/3
f 108/108/4 109/109/4 110/110/4
f 109/109/4 111/111/4 110/110/4
f 112/112/4 113/113/4 114/114/4
f 113/113/4 115/115/4 114/114/4
f 116/116/5 117/117/5 113/113/5
f 117/117/5 115/115/5 113/113/5
f 118/118/3 114/114/3 117/117/3
f 114/114/3 115/115/3 117/117/3
f 117/117/1 116/116/1 118/118/1
f 116/116/1 119/119/1 118/118/1
f 114/114/2 118/118/2 112/112/2
f 118/118/2 119/119/2 112/112/2
f 113/113/6 112/112/6 116/116/6
f 112/112/6 119/119/6 116/116/6
f 120/120/4 121/121/4 122/122/4
f 121/121/4 123/123/4 122/122/4
f 124/124/5 125/125/5 121/121/5
f 125/125/5 123/123/5 121/121/5
f 126/126/3 122/122/3 125/125/3
f 122/122/3 123/123/3 125/125/3
f 125/125/1 124/124/1 126/126/1
f 124/124/1 127/127/1 126/126/1
f 122/122/2 126/126/2 120/120/2
f 126/126/2 127/127/2 120/120/2
f 121/121/6 120/120/6 124/124/6
f 120/120/6 127/127/6 124/124/6
f 112/112/4 121/121/4 128/128/4
f 121/121/4 129/129/4 128/128/4
f 130/130/5 131/131/5 132/132/5
f 131/131/5 129/129/5 121/121/5
f 133/133/3 128/128/3 131/131/3
f 128/128/3 129/129/3 131/131/3
f 131/131/1 124/124/1 133/133/1
f 124/124/1 119/119/1 133/133/1
f 128/128/2 133/133/2 112/112/2
f 133/133/2 134/134/2 135/135/2
f 136/136/6 112/112/6 137/137/6
f 138/138/6 139/139/6 124/124/6
f 140/140/4 141/141/4 114/114/4
f 141/141/4 123/123/4 114/114/4
f 142/142/5 125/125/5 141/141/5
f 143/143/5 144/144/5 141/141/5
f 145/145/3 146/146/3 125/125/3
f 114/114/3 147/147/3 148/148/3
f 125/125/1 142/142/1 118/118/1
f 142/142/1 149/149/1 118/118/1
f 150/150/2 151/151/2 140/140/2
f 118/118/2 149/149/2 140/140/2
f 141/141/6 140/140/6 142/142/6
f 140/140/6 149/149/6 142/142/6
