# Blender v2.90.1 OBJ File: 'Country-Kitchen.blend'
# www.blender.org
mtllib Base-unit-Box-Left.mtl
o Base-unit-Box-Left_Cube.001
v -1.750740 -0.020608 0.535458
v -1.750740 -0.020608 2.279291
v -2.491374 -0.020608 2.279291
v -2.491373 -0.020608 0.535457
v -1.750739 0.940568 0.535458
v -1.750741 0.940568 2.279292
v -2.491374 0.940568 2.279291
v -2.491373 0.940568 0.535458
v -1.750740 0.081895 2.279291
v -1.750740 0.081895 0.535458
v -2.491374 0.081895 2.279291
v -2.491373 0.081895 0.535457
v -1.686726 0.081895 0.535458
v -1.686726 0.081895 2.279291
v -1.686727 0.940568 2.279292
v -1.686726 0.940568 0.535458
vn 0.0000 -1.0000 -0.0000
vn 0.0000 1.0000 0.0000
vn -0.0000 -0.0000 1.0000
vn -1.0000 0.0000 -0.0000
vn 0.0000 0.0000 -1.0000
vn 1.0000 0.0000 0.0000
usemtl Cupboard-units
s off
f 1//1 2//1 3//1 4//1
f 5//2 8//2 7//2 6//2
f 2//3 9//3 11//3 3//3
f 9//3 6//3 7//3 11//3
f 3//4 11//4 12//4 4//4
f 11//4 7//4 8//4 12//4
f 5//5 10//5 12//5 8//5
f 10//5 1//5 4//5 12//5
f 10//5 5//5 16//5 13//5
f 6//3 9//3 14//3 15//3
f 5//2 6//2 15//2 16//2
f 13//6 16//6 15//6 14//6
f 1//6 10//6 9//6 2//6
f 13//1 14//1 9//1 10//1
