# Blender v2.90.1 OBJ File: 'Country-Kitchen.blend'
# www.blender.org
mtllib Book-Pages-Top-Left.mtl
o Book-Pages-Top-Left_Cube.086
v -0.441747 1.019842 0.632679
v -0.287568 1.019842 0.886216
v -0.458372 1.028022 0.642789
v -0.304193 1.028022 0.896326
v -0.473715 1.026301 0.652119
v -0.319536 1.026301 0.905656
v -0.512563 1.018530 0.675743
v -0.358384 1.018530 0.929280
v -0.445443 1.026037 0.634927
v -0.291264 1.026037 0.888464
v -0.443112 1.023778 0.633509
v -0.288933 1.023778 0.887046
v -0.449632 1.027590 0.637474
v -0.295453 1.027590 0.891011
v -0.619924 0.994164 0.741031
v -0.465746 0.994164 0.994568
v -0.287644 1.013162 0.886263
v -0.441823 1.013162 0.632725
v -0.403202 1.019842 0.696064
v -0.364658 1.019842 0.759448
v -0.326113 1.019842 0.822832
v -0.441955 1.021089 0.632806
v -0.442267 1.022136 0.632995
v -0.442660 1.023021 0.633234
v -0.441656 1.018377 0.632624
v -0.441659 1.016737 0.632626
v -0.441725 1.014979 0.632666
v -0.287776 1.021089 0.886343
v -0.288088 1.022136 0.886532
v -0.288481 1.023021 0.886771
v -0.287477 1.018377 0.886161
v -0.287480 1.016737 0.886163
v -0.287546 1.014979 0.886203
v -0.419828 1.028022 0.706174
v -0.381283 1.028022 0.769558
v -0.342738 1.028022 0.832942
v -0.461518 1.027816 0.644702
v -0.465104 1.027460 0.646883
v -0.469160 1.026956 0.649349
v -0.455639 1.028082 0.641127
v -0.453289 1.028016 0.639698
v -0.451296 1.027845 0.638486
v -0.307339 1.027816 0.898239
v -0.310925 1.027460 0.900420
v -0.314981 1.026956 0.902887
v -0.301460 1.028082 0.894664
v -0.299110 1.028016 0.893235
v -0.297117 1.027845 0.892023
v -0.435170 1.026301 0.715504
v -0.396625 1.026301 0.778888
v -0.358081 1.026301 0.842272
v -0.479033 1.025439 0.655353
v -0.486320 1.024084 0.659784
v -0.497016 1.021895 0.666289
v -0.324854 1.025439 0.908890
v -0.332141 1.024084 0.913321
v -0.342837 1.021895 0.919826
v -0.474018 1.018530 0.739127
v -0.435473 1.018530 0.802512
v -0.396928 1.018530 0.865896
v -0.533898 1.013767 0.688717
v -0.559952 1.007865 0.704561
v -0.589152 1.001204 0.722318
v -0.379719 1.013767 0.942255
v -0.405773 1.007865 0.958098
v -0.434973 1.001204 0.975855
v -0.406898 1.026037 0.698311
v -0.368354 1.026037 0.761696
v -0.329809 1.026037 0.825080
v -0.446224 1.026488 0.635402
v -0.447147 1.026902 0.635963
v -0.448265 1.027273 0.636643
v -0.444759 1.025554 0.634511
v -0.444151 1.025027 0.634141
v -0.443606 1.024440 0.633810
v -0.292045 1.026488 0.888939
v -0.292968 1.026902 0.889500
v -0.294086 1.027273 0.890180
v -0.290580 1.025554 0.888048
v -0.289972 1.025027 0.887678
v -0.289428 1.024440 0.887347
v -0.404567 1.023778 0.696893
v -0.366022 1.023778 0.760278
v -0.327478 1.023778 0.823662
v -0.411088 1.027590 0.700859
v -0.372543 1.027590 0.764243
v -0.333998 1.027590 0.827627
v -0.581380 0.994164 0.804415
v -0.542835 0.994164 0.867800
v -0.504290 0.994164 0.931184
v -0.326189 1.013162 0.822878
v -0.364734 1.013162 0.759494
v -0.403278 1.013162 0.696110
v -0.403410 1.021089 0.696190
v -0.403722 1.022136 0.696380
v -0.404115 1.023021 0.696619
v -0.364866 1.021089 0.759574
v -0.365177 1.022136 0.759764
v -0.365570 1.023021 0.760003
v -0.326321 1.021089 0.822959
v -0.326633 1.022136 0.823148
v -0.327026 1.023021 0.823387
v -0.403181 1.014979 0.696050
v -0.403114 1.016737 0.696010
v -0.403111 1.018377 0.696008
v -0.364636 1.014979 0.759435
v -0.364570 1.016737 0.759394
v -0.364567 1.018377 0.759392
v -0.326091 1.014979 0.822819
v -0.326025 1.016737 0.822779
v -0.326022 1.018377 0.822777
v -0.422973 1.027816 0.708086
v -0.426559 1.027460 0.710267
v -0.430615 1.026956 0.712734
v -0.384428 1.027816 0.771471
v -0.388015 1.027460 0.773651
v -0.392071 1.026956 0.776118
v -0.345884 1.027816 0.834855
v -0.349470 1.027460 0.837036
v -0.353526 1.026956 0.839502
v -0.412752 1.027845 0.701871
v -0.414745 1.028016 0.703082
v -0.417094 1.028082 0.704511
v -0.374207 1.027845 0.765255
v -0.376200 1.028016 0.766467
v -0.378549 1.028082 0.767896
v -0.335662 1.027845 0.828639
v -0.337655 1.028016 0.829851
v -0.340005 1.028082 0.831280
v -0.440488 1.025439 0.718737
v -0.447775 1.024084 0.723169
v -0.458471 1.021895 0.729673
v -0.401943 1.025439 0.782122
v -0.409230 1.024084 0.786553
v -0.419926 1.021895 0.793057
v -0.363399 1.025439 0.845506
v -0.370685 1.024084 0.849937
v -0.381382 1.021895 0.856442
v -0.495353 1.013767 0.752102
v -0.521407 1.007865 0.767945
v -0.550607 1.001204 0.785702
v -0.456809 1.013767 0.815486
v -0.482863 1.007865 0.831330
v -0.512062 1.001204 0.849086
v -0.418264 1.013767 0.878870
v -0.444318 1.007865 0.894714
v -0.473518 1.001204 0.912471
v -0.407679 1.026488 0.698786
v -0.408602 1.026902 0.699347
v -0.409721 1.027273 0.700027
v -0.369134 1.026488 0.762170
v -0.370057 1.026902 0.762731
v -0.371176 1.027273 0.763412
v -0.330590 1.026488 0.825554
v -0.331513 1.026902 0.826116
v -0.332631 1.027273 0.826796
v -0.405062 1.024440 0.697194
v -0.405606 1.025027 0.697526
v -0.406214 1.025554 0.697895
v -0.366517 1.024440 0.760579
v -0.367062 1.025027 0.760910
v -0.367670 1.025554 0.761279
v -0.327972 1.024440 0.823963
v -0.328517 1.025027 0.824294
v -0.329125 1.025554 0.824664
vt 0.937645 0.687091
vt 0.926657 0.687091
vt 0.926657 0.488671
vt 0.937645 0.488671
vt 0.915772 0.687091
vt 0.915772 0.488671
vt 0.926657 0.290252
vt 0.937645 0.290252
vt 0.915772 0.290252
vt 0.948734 0.885510
vt 0.937645 0.885510
vt 0.948734 0.687091
vt 0.926657 0.885510
vt 0.915772 0.885510
vt 0.904991 0.885510
vt 0.904991 0.687091
vt 0.904991 0.488671
vt 0.904990 0.290252
vt 0.904991 0.091832
vt 0.915772 0.091832
vt 0.926657 0.091832
vt 0.937645 0.091832
vt 0.948734 0.290252
vt 0.948734 0.091832
vt 0.948734 0.488671
vt 0.982492 0.687091
vt 0.971181 0.687091
vt 0.971181 0.488671
vt 0.982492 0.488671
vt 0.959920 0.687091
vt 0.959920 0.488671
vt 0.971181 0.290252
vt 0.982492 0.290252
vt 0.959920 0.290252
vt 0.993828 0.885510
vt 0.982492 0.885510
vt 0.993828 0.687091
vt 0.971181 0.885510
vt 0.959920 0.885510
vt 0.959920 0.091832
vt 0.971181 0.091832
vt 0.982492 0.091832
vt 0.993828 0.290252
vt 0.993828 0.091832
vt 0.993828 0.488671
vt 0.760862 0.687091
vt 0.744541 0.687091
vt 0.744542 0.488671
vt 0.760862 0.488671
vt 0.725986 0.687091
vt 0.725986 0.488671
vt 0.744542 0.290252
vt 0.760862 0.290252
vt 0.725986 0.290252
vt 0.775185 0.885510
vt 0.760862 0.885510
vt 0.775185 0.687091
vt 0.744542 0.885510
vt 0.725986 0.885510
vt 0.704958 0.885510
vt 0.704958 0.687091
vt 0.704958 0.488671
vt 0.704958 0.290252
vt 0.704958 0.091832
vt 0.725986 0.091832
vt 0.744542 0.091832
vt 0.760862 0.091832
vt 0.775185 0.290252
vt 0.775185 0.091832
vt 0.775185 0.488671
vt 0.809720 0.687091
vt 0.799139 0.687091
vt 0.799139 0.488671
vt 0.809720 0.488671
vt 0.787793 0.687091
vt 0.787793 0.488671
vt 0.799139 0.290252
vt 0.809720 0.290252
vt 0.787793 0.290252
vt 0.820033 0.885510
vt 0.809720 0.885510
vt 0.820033 0.687091
vt 0.799139 0.885510
vt 0.787793 0.885510
vt 0.787793 0.091832
vt 0.799139 0.091832
vt 0.809720 0.091832
vt 0.820033 0.290252
vt 0.820033 0.091832
vt 0.820033 0.488671
vt 0.680174 0.687091
vt 0.646171 0.687091
vt 0.646171 0.488671
vt 0.680174 0.488671
vt 0.596443 0.687091
vt 0.596443 0.488671
vt 0.646171 0.290252
vt 0.680174 0.290252
vt 0.596443 0.290252
vt 0.680174 0.885510
vt 0.646171 0.885510
vt 0.596443 0.885510
vt 0.524481 0.885510
vt 0.524481 0.687091
vt 0.524481 0.488671
vt 0.524481 0.290252
vt 0.524481 0.091832
vt 0.596443 0.091832
vt 0.646171 0.091832
vt 0.680174 0.091832
vt 0.426061 0.687091
vt 0.306086 0.687091
vt 0.306086 0.488671
vt 0.426061 0.488671
vt 0.171740 0.687091
vt 0.171740 0.488671
vt 0.306086 0.290252
vt 0.426061 0.290252
vt 0.171740 0.290252
vt 0.426061 0.885510
vt 0.306086 0.885510
vt 0.171740 0.885510
vt 0.030209 0.885510
vt 0.030209 0.687091
vt 0.030209 0.488671
vt 0.030209 0.290252
vt 0.030209 0.091832
vt 0.171740 0.091832
vt 0.306086 0.091832
vt 0.426061 0.091832
vt 0.851760 0.687091
vt 0.841081 0.687091
vt 0.841081 0.488671
vt 0.851760 0.488671
vt 0.830480 0.687091
vt 0.830480 0.488671
vt 0.841081 0.290252
vt 0.851760 0.290252
vt 0.830480 0.290252
vt 0.862444 0.885510
vt 0.851760 0.885510
vt 0.862445 0.687091
vt 0.841081 0.885510
vt 0.830480 0.885510
vt 0.830480 0.091832
vt 0.841081 0.091832
vt 0.851760 0.091832
vt 0.862444 0.290252
vt 0.862444 0.091832
vt 0.862444 0.488671
vt 0.894306 0.687091
vt 0.883683 0.687091
vt 0.883683 0.488671
vt 0.894307 0.488671
vt 0.873077 0.687091
vt 0.873077 0.488671
vt 0.883684 0.290252
vt 0.894306 0.290252
vt 0.873077 0.290252
vt 0.894306 0.885510
vt 0.883684 0.885510
vt 0.873077 0.885510
vt 0.873077 0.091832
vt 0.883684 0.091832
vt 0.894306 0.091832
vn 0.8248 0.2609 -0.5016
vn 0.7845 0.3961 -0.4771
vn 0.7308 0.5181 -0.4444
vn 0.7845 0.3960 -0.4771
vn 0.8469 0.1325 -0.5150
vn 0.8469 0.1324 -0.5150
vn 0.6728 0.6163 -0.4092
vn 0.6728 0.6163 -0.4091
vn 0.8532 -0.0534 -0.5188
vn 0.8542 -0.0231 -0.5194
vn 0.8539 0.0352 -0.5192
vn 0.8527 -0.0627 -0.5185
vn -0.0599 0.9975 0.0364
vn -0.0812 0.9955 0.0494
vn -0.0973 0.9935 0.0591
vn -0.0320 0.9993 0.0194
vn -0.1107 0.9915 0.0673
vn 0.0866 0.9948 -0.0527
vn 0.0416 0.9988 -0.0253
vn 0.0022 1.0000 -0.0013
vn 0.1386 0.9868 -0.0843
vn -0.1256 0.9891 0.0764
vn -0.1406 0.9864 0.0855
vn -0.1512 0.9842 0.0920
vn -0.1577 0.9828 0.0959
vn -0.1612 0.9820 0.0980
vn -0.1629 0.9816 0.0991
vn -0.1637 0.9815 0.0995
vn -0.1639 0.9814 0.0997
vn 0.3426 0.9161 -0.2083
vn 0.2697 0.9489 -0.1640
vn 0.1996 0.9723 -0.1214
vn 0.4101 0.8773 -0.2494
vn 0.6118 0.6980 -0.3721
vn 0.5442 0.7708 -0.3310
vn 0.5442 0.7709 -0.3310
vn 0.4753 0.8309 -0.2891
vn 0.4753 0.8310 -0.2890
vn 0.5442 0.7709 -0.3309
usemtl Left-page
s 1
f 94/1/1 95/2/2 98/3/2 97/4/1
f 95/2/2 96/5/3 99/6/3 98/3/2
f 97/4/1 98/3/2 101/7/4 100/8/1
f 98/3/2 99/6/3 102/9/3 101/7/4
f 1/10/5 22/11/1 94/1/1 19/12/6
f 22/11/1 23/13/2 95/2/2 94/1/1
f 23/13/2 24/14/3 96/5/3 95/2/2
f 24/14/3 11/15/7 82/16/7 96/5/3
f 96/5/3 82/16/7 83/17/7 99/6/3
f 99/6/3 83/17/7 84/18/8 102/9/3
f 102/9/3 84/18/8 12/19/8 30/20/3
f 101/7/4 102/9/3 30/20/3 29/21/4
f 100/8/1 101/7/4 29/21/4 28/22/1
f 21/23/6 100/8/1 28/22/1 2/24/6
f 20/25/6 97/4/1 100/8/1 21/23/6
f 19/12/6 94/1/1 97/4/1 20/25/6
f 103/26/9 104/27/10 107/28/10 106/29/9
f 104/27/10 105/30/11 108/31/11 107/28/10
f 106/29/9 107/28/10 110/32/10 109/33/9
f 107/28/10 108/31/11 111/34/11 110/32/10
f 18/35/12 27/36/9 103/26/9 93/37/12
f 27/36/9 26/38/10 104/27/10 103/26/9
f 26/38/10 25/39/11 105/30/11 104/27/10
f 25/39/11 1/10/5 19/12/6 105/30/11
f 105/30/11 19/12/6 20/25/6 108/31/11
f 108/31/11 20/25/6 21/23/6 111/34/11
f 111/34/11 21/23/6 2/24/6 31/40/11
f 110/32/10 111/34/11 31/40/11 32/41/10
f 109/33/9 110/32/10 32/41/10 33/42/9
f 91/43/12 109/33/9 33/42/9 17/44/12
f 92/45/12 106/29/9 109/33/9 91/43/12
f 93/37/12 103/26/9 106/29/9 92/45/12
f 112/46/13 113/47/14 116/48/14 115/49/13
f 113/47/14 114/50/15 117/51/15 116/48/14
f 115/49/13 116/48/14 119/52/14 118/53/13
f 116/48/14 117/51/15 120/54/15 119/52/14
f 3/55/16 37/56/13 112/46/13 34/57/16
f 37/56/13 38/58/14 113/47/14 112/46/13
f 38/58/14 39/59/15 114/50/15 113/47/14
f 39/59/15 5/60/17 49/61/17 114/50/15
f 114/50/15 49/61/17 50/62/17 117/51/15
f 117/51/15 50/62/17 51/63/17 120/54/15
f 120/54/15 51/63/17 6/64/17 45/65/15
f 119/52/14 120/54/15 45/65/15 44/66/14
f 118/53/13 119/52/14 44/66/14 43/67/13
f 36/68/16 118/53/13 43/67/13 4/69/16
f 35/70/16 115/49/13 118/53/13 36/68/16
f 34/57/16 112/46/13 115/49/13 35/70/16
f 121/71/18 122/72/19 125/73/19 124/74/18
f 122/72/19 123/75/20 126/76/20 125/73/19
f 124/74/18 125/73/19 128/77/19 127/78/18
f 125/73/19 126/76/20 129/79/20 128/77/19
f 13/80/21 42/81/18 121/71/18 85/82/21
f 42/81/18 41/83/19 122/72/19 121/71/18
f 41/83/19 40/84/20 123/75/20 122/72/19
f 40/84/20 3/55/16 34/57/16 123/75/20
f 123/75/20 34/57/16 35/70/16 126/76/20
f 126/76/20 35/70/16 36/68/16 129/79/20
f 129/79/20 36/68/16 4/69/16 46/85/20
f 128/77/19 129/79/20 46/85/20 47/86/19
f 127/78/18 128/77/19 47/86/19 48/87/18
f 87/88/21 127/78/18 48/87/18 14/89/21
f 86/90/21 124/74/18 127/78/18 87/88/21
f 85/82/21 121/71/18 124/74/18 86/90/21
f 130/91/22 131/92/23 134/93/23 133/94/22
f 131/92/23 132/95/24 135/96/24 134/93/23
f 133/94/22 134/93/23 137/97/23 136/98/22
f 134/93/23 135/96/24 138/99/24 137/97/23
f 5/60/17 52/100/22 130/91/22 49/61/17
f 52/100/22 53/101/23 131/92/23 130/91/22
f 53/101/23 54/102/24 132/95/24 131/92/23
f 54/102/24 7/103/25 58/104/25 132/95/24
f 132/95/24 58/104/25 59/105/25 135/96/24
f 135/96/24 59/105/25 60/106/25 138/99/24
f 138/99/24 60/106/25 8/107/25 57/108/24
f 137/97/23 138/99/24 57/108/24 56/109/23
f 136/98/22 137/97/23 56/109/23 55/110/22
f 51/63/17 136/98/22 55/110/22 6/64/17
f 50/62/17 133/94/22 136/98/22 51/63/17
f 49/61/17 130/91/22 133/94/22 50/62/17
f 139/111/26 140/112/27 143/113/27 142/114/26
f 140/112/27 141/115/28 144/116/28 143/113/27
f 142/114/26 143/113/27 146/117/27 145/118/26
f 143/113/27 144/116/28 147/119/28 146/117/27
f 7/103/25 61/120/26 139/111/26 58/104/25
f 61/120/26 62/121/27 140/112/27 139/111/26
f 62/121/27 63/122/28 141/115/28 140/112/27
f 63/122/28 15/123/29 88/124/29 141/115/28
f 141/115/28 88/124/29 89/125/29 144/116/28
f 144/116/28 89/125/29 90/126/29 147/119/28
f 147/119/28 90/126/29 16/127/29 66/128/28
f 146/117/27 147/119/28 66/128/28 65/129/27
f 145/118/26 146/117/27 65/129/27 64/130/26
f 60/106/25 145/118/26 64/130/26 8/107/25
f 59/105/25 142/114/26 145/118/26 60/106/25
f 58/104/25 139/111/26 142/114/26 59/105/25
f 148/131/30 149/132/31 152/133/31 151/134/30
f 149/132/31 150/135/32 153/136/32 152/133/31
f 151/134/30 152/133/31 155/137/31 154/138/30
f 152/133/31 153/136/32 156/139/32 155/137/31
f 9/140/33 70/141/30 148/131/30 67/142/33
f 70/141/30 71/143/31 149/132/31 148/131/30
f 71/143/31 72/144/32 150/135/32 149/132/31
f 72/144/32 13/80/21 85/82/21 150/135/32
f 150/135/32 85/82/21 86/90/21 153/136/32
f 153/136/32 86/90/21 87/88/21 156/139/32
f 156/139/32 87/88/21 14/89/21 78/145/32
f 155/137/31 156/139/32 78/145/32 77/146/31
f 154/138/30 155/137/31 77/146/31 76/147/30
f 69/148/33 154/138/30 76/147/30 10/149/33
f 68/150/33 151/134/30 154/138/30 69/148/33
f 67/142/33 148/131/30 151/134/30 68/150/33
f 157/151/34 158/152/35 161/153/36 160/154/34
f 158/152/35 159/155/37 162/156/38 161/153/36
f 160/154/34 161/153/36 164/157/39 163/158/34
f 161/153/36 162/156/38 165/159/38 164/157/39
f 11/15/7 75/160/34 157/151/34 82/16/7
f 75/160/34 74/161/36 158/152/35 157/151/34
f 74/161/36 73/162/38 159/155/37 158/152/35
f 73/162/38 9/140/33 67/142/33 159/155/37
f 159/155/37 67/142/33 68/150/33 162/156/38
f 162/156/38 68/150/33 69/148/33 165/159/38
f 165/159/38 69/148/33 10/149/33 79/163/38
f 164/157/39 165/159/38 79/163/38 80/164/39
f 163/158/34 164/157/39 80/164/39 81/165/34
f 84/18/8 163/158/34 81/165/34 12/19/8
f 83/17/7 160/154/34 163/158/34 84/18/8
f 82/16/7 157/151/34 160/154/34 83/17/7
