# Blender v2.90.1 OBJ File: 'Country-Kitchen.blend'
# www.blender.org
mtllib Cube.101.mtl
o Cube.101_Cube.025
v 0.416962 0.270271 -1.764520
v 0.416962 0.304302 -1.764520
v 0.416962 0.304302 -2.155517
v 0.416962 0.270271 -2.155517
v 0.379115 0.304302 -1.764520
v 0.379115 0.270271 -1.764520
v 0.379115 0.270271 -2.155517
v 0.379115 0.304302 -2.155517
v 0.416016 0.269325 -2.155517
v 0.380061 0.269325 -2.155517
v 0.380061 0.269325 -1.764520
v 0.416016 0.269325 -1.764520
v 0.416016 0.305247 -1.764520
v 0.380061 0.305247 -1.764520
v 0.380061 0.305247 -2.155517
v 0.416016 0.305247 -2.155517
vt 0.008175 0.898809
vt 0.008175 0.892701
vt 0.990136 0.892701
vt 0.990136 0.898809
vt 0.990136 0.786922
vt 0.990136 0.796119
vt 0.008175 0.796118
vt 0.008175 0.786922
vt 0.990136 0.573549
vt 0.990136 0.581318
vt 0.008175 0.581317
vt 0.008175 0.573549
vt 0.008175 0.690544
vt 0.008175 0.679654
vt 0.990136 0.679654
vt 0.990136 0.690544
vt 0.008175 0.986634
vt 0.008175 0.909376
vt 0.990136 0.909380
vt 0.990136 0.986638
vt 0.008175 0.773288
vt 0.008175 0.701079
vt 0.990136 0.701081
vt 0.990136 0.773291
vt 0.990136 0.808502
vt 0.990136 0.880775
vt 0.008175 0.880773
vt 0.008175 0.808500
vt 0.990136 0.594450
vt 0.990136 0.666619
vt 0.008175 0.666617
vt 0.008175 0.594447
vt 0.036787 0.462430
vt 0.036787 0.545901
vt 0.025409 0.534830
vt 0.025409 0.473414
vt 0.109576 0.462430
vt 0.109576 0.545901
vt 0.120954 0.474025
vt 0.120954 0.534392
vt 0.214719 0.462430
vt 0.224903 0.472442
vt 0.224903 0.535651
vt 0.214719 0.545901
vt 0.141930 0.462430
vt 0.141930 0.545901
vt 0.130551 0.534306
vt 0.130551 0.471841
vn 0.7071 -0.7071 0.0000
vn -0.7071 -0.7071 -0.0000
vn 0.7071 0.7071 -0.0000
vn -0.7071 0.7071 -0.0000
vn 1.0000 0.0000 0.0000
vn -1.0000 0.0000 -0.0000
vn 0.0000 -1.0000 0.0000
vn 0.0000 1.0000 -0.0000
vn 0.0000 0.0000 -1.0000
vn 0.0000 0.0000 1.0000
usemtl Table-Cross
s off
f 1/1/1 12/2/1 9/3/1 4/4/1
f 7/5/2 10/6/2 11/7/2 6/8/2
f 3/9/3 16/10/3 13/11/3 2/12/3
f 5/13/4 14/14/4 15/15/4 8/16/4
f 2/17/5 1/18/5 4/19/5 3/20/5
f 6/21/6 5/22/6 8/23/6 7/24/6
f 10/25/7 9/26/7 12/27/7 11/28/7
f 16/29/8 15/30/8 14/31/8 13/32/8
f 3/33/9 8/34/9 15/35/9 16/36/9
f 3/33/9 4/37/9 7/38/9 8/34/9
f 7/38/9 4/37/9 9/39/9 10/40/9
f 2/41/10 13/42/10 14/43/10 5/44/10
f 1/45/10 6/46/10 11/47/10 12/48/10
f 1/45/10 2/41/10 5/44/10 6/46/10
