# Blender v2.90.1 OBJ File: 'Country-Kitchen.blend'
# www.blender.org
mtllib Cupboard-Lights.mtl
o Cupboard-Lights_Plane.050
v -2.397874 1.608132 -2.380700
v -2.397874 1.608132 -1.911729
v -2.355220 1.608132 -1.911729
v -2.355220 1.608132 -2.380700
v -2.397874 1.608132 -1.834117
v -2.397874 1.608132 -1.365147
v -2.355220 1.608132 -1.365147
v -2.355220 1.608132 -1.834117
v -2.397874 1.608132 -1.282228
v -2.397874 1.608132 -0.813258
v -2.355221 1.608132 -0.813258
v -2.355220 1.608132 -1.282228
v -2.397874 1.608132 0.659997
v -2.397874 1.608132 1.128967
v -2.355220 1.608132 1.128967
v -2.355220 1.608132 0.659997
v -2.397874 1.608132 1.286178
v -2.397870 1.608132 1.755148
v -2.355221 1.608130 1.755151
v -2.355220 1.608132 1.286178
vn 0.0000 -1.0000 0.0000
usemtl Unit_stip_lights
s off
f 1//1 4//1 3//1 2//1
f 5//1 8//1 7//1 6//1
f 9//1 12//1 11//1 10//1
f 13//1 16//1 15//1 14//1
f 17//1 20//1 19//1 18//1
