# Blender v2.90.1 OBJ File: 'Country-Kitchen.blend'
# www.blender.org
mtllib Island-Panel1.mtl
o Island-Panel1_Cube.053
v 0.432910 -0.020481 1.172377
v 0.432910 -0.020481 1.297817
v 0.421867 -0.020481 1.297817
v 0.421867 -0.020481 1.172377
v 0.432910 0.940557 1.172377
v 0.421867 0.940557 1.172377
v 0.421867 0.940557 1.297817
v 0.432910 0.940557 1.297817
v 0.436312 -0.017080 1.172377
v 0.436312 0.937155 1.172378
v 0.436312 0.937155 1.297817
v 0.436312 -0.017080 1.297817
v 0.432910 -0.017080 1.301219
v 0.432910 0.937155 1.301219
v 0.421867 0.937155 1.301219
v 0.421867 -0.017080 1.301219
v 0.418465 -0.017080 1.297817
v 0.418465 0.937155 1.297817
v 0.418465 0.937155 1.172377
v 0.418466 -0.017080 1.172377
v 0.432910 0.937155 1.168976
v 0.432910 -0.017080 1.168975
v 0.421867 -0.017080 1.168975
v 0.421867 0.937155 1.168976
v 0.432910 -0.020481 1.040134
v 0.432910 -0.020481 1.165573
v 0.421867 -0.020481 1.165573
v 0.421867 -0.020481 1.040134
v 0.432910 0.940557 1.040134
v 0.421867 0.940557 1.040134
v 0.421867 0.940557 1.165573
v 0.432910 0.940557 1.165574
v 0.436312 -0.017080 1.040134
v 0.436312 0.937155 1.040134
v 0.436312 0.937155 1.165574
v 0.436312 -0.017080 1.165573
v 0.432910 -0.017080 1.168975
v 0.432910 0.937155 1.168975
v 0.421867 0.937155 1.168975
v 0.421867 -0.017080 1.168975
v 0.418465 -0.017080 1.165573
v 0.418465 0.937155 1.165573
v 0.418465 0.937155 1.040134
v 0.418466 -0.017080 1.040134
v 0.432910 0.937155 1.036732
v 0.432910 -0.017080 1.036732
v 0.421867 -0.017080 1.036732
v 0.421867 0.937155 1.036732
v 0.432910 -0.020481 0.907890
v 0.432910 -0.020481 1.033330
v 0.421867 -0.020481 1.033330
v 0.421867 -0.020481 0.907890
v 0.432910 0.940557 0.907891
v 0.421867 0.940557 0.907891
v 0.421867 0.940557 1.033330
v 0.432910 0.940557 1.033330
v 0.436312 -0.017080 0.907891
v 0.436312 0.937155 0.907891
v 0.436312 0.937155 1.033330
v 0.436312 -0.017080 1.033330
v 0.432910 -0.017080 1.036732
v 0.432910 0.937155 1.036732
v 0.421867 0.937155 1.036732
v 0.421867 -0.017080 1.036732
v 0.418465 -0.017080 1.033330
v 0.418465 0.937155 1.033330
v 0.418465 0.937155 0.907891
v 0.418466 -0.017080 0.907890
v 0.432910 0.937155 0.904489
v 0.432910 -0.017080 0.904489
v 0.421867 -0.017080 0.904489
v 0.421867 0.937155 0.904489
v 0.432910 -0.020481 0.775647
v 0.432910 -0.020481 0.901087
v 0.421867 -0.020481 0.901087
v 0.421867 -0.020481 0.775647
v 0.432910 0.940557 0.775647
v 0.421867 0.940557 0.775647
v 0.421867 0.940557 0.901087
v 0.432910 0.940557 0.901087
v 0.436312 -0.017080 0.775647
v 0.436312 0.937155 0.775647
v 0.436312 0.937155 0.901087
v 0.436312 -0.017080 0.901087
v 0.432910 -0.017080 0.904488
v 0.432910 0.937155 0.904489
v 0.421867 0.937155 0.904488
v 0.421867 -0.017080 0.904488
v 0.418465 -0.017080 0.901087
v 0.418465 0.937155 0.901086
v 0.418465 0.937155 0.775647
v 0.418466 -0.017080 0.775647
v 0.432910 0.937155 0.772246
v 0.432910 -0.017080 0.772245
v 0.421867 -0.017080 0.772245
v 0.421867 0.937155 0.772245
v 0.432910 -0.020481 0.643404
v 0.432910 -0.020481 0.768843
v 0.421867 -0.020481 0.768843
v 0.421867 -0.020481 0.643404
v 0.432910 0.940557 0.643404
v 0.421867 0.940557 0.643404
v 0.421867 0.940557 0.768843
v 0.432910 0.940557 0.768843
v 0.436312 -0.017080 0.643404
v 0.436312 0.937155 0.643404
v 0.436312 0.937155 0.768844
v 0.436312 -0.017080 0.768843
v 0.432910 -0.017080 0.772245
v 0.432910 0.937155 0.772245
v 0.421867 0.937155 0.772245
v 0.421867 -0.017080 0.772245
v 0.418465 -0.017080 0.768843
v 0.418465 0.937155 0.768843
v 0.418465 0.937155 0.643404
v 0.418466 -0.017080 0.643404
v 0.432910 0.937155 0.640002
v 0.432910 -0.017080 0.640002
v 0.421867 -0.017080 0.640002
v 0.421867 0.937155 0.640002
v 0.432910 -0.020481 0.511160
v 0.432910 -0.020481 0.636600
v 0.421867 -0.020481 0.636600
v 0.421867 -0.020481 0.511160
v 0.432910 0.940557 0.511160
v 0.421867 0.940557 0.511160
v 0.421867 0.940557 0.636600
v 0.432910 0.940557 0.636600
v 0.436312 -0.017080 0.511160
v 0.436312 0.937155 0.511161
v 0.436312 0.937155 0.636600
v 0.436312 -0.017080 0.636600
v 0.432910 -0.017080 0.640002
v 0.432910 0.937155 0.640002
v 0.421867 0.937155 0.640002
v 0.421867 -0.017080 0.640002
v 0.418465 -0.017080 0.636600
v 0.418465 0.937155 0.636600
v 0.418465 0.937155 0.511160
v 0.418466 -0.017080 0.511160
v 0.432910 0.937155 0.507759
v 0.432910 -0.017080 0.507758
v 0.421867 -0.017080 0.507758
v 0.421867 0.937155 0.507759
vn 0.0000 -1.0000 -0.0000
vn 0.0000 1.0000 0.0000
vn 1.0000 0.0000 0.0000
vn -0.0000 -0.0000 1.0000
vn -1.0000 -0.0000 -0.0000
vn 0.0000 0.0000 -1.0000
vn 0.7071 -0.7071 0.0000
vn 0.0000 -0.7071 0.7071
vn 0.0000 -0.7071 -0.7071
vn -0.7071 -0.7071 -0.0000
vn 0.0000 0.7071 -0.7071
vn -0.7071 0.7071 -0.0000
vn 0.7071 0.7071 0.0000
vn -0.0000 0.7071 0.7071
vn 0.7071 0.0000 -0.7071
vn 0.7071 0.0000 0.7071
vn -0.7071 -0.0000 0.7071
vn -0.7071 0.0000 -0.7071
vn 0.5774 -0.5773 -0.5773
vn 0.5773 -0.5774 0.5774
vn -0.5773 -0.5774 0.5774
vn -0.5773 -0.5774 -0.5774
vn 0.5774 0.5773 -0.5773
vn 0.5773 0.5774 0.5774
vn -0.5774 0.5773 0.5774
vn -0.5774 0.5773 -0.5774
vn 0.5773 -0.5774 -0.5774
vn 0.5774 -0.5773 0.5773
vn -0.5774 -0.5773 0.5773
vn -0.5773 -0.5774 -0.5773
vn 0.5774 0.5773 -0.5774
vn 0.5774 0.5773 0.5774
vn -0.5773 0.5773 0.5774
vn -0.5773 0.5773 -0.5774
vn -0.5773 -0.5773 0.5774
vn -0.5774 -0.5774 -0.5773
vn 0.5773 0.5773 0.5774
usemtl Cupboard-units
s off
f 1//1 2//1 3//1 4//1
f 7//2 8//2 5//2 6//2
f 11//3 12//3 9//3 10//3
f 15//4 16//4 13//4 14//4
f 19//5 20//5 17//5 18//5
f 23//6 24//6 21//6 22//6
f 1//7 9//7 12//7 2//7
f 16//8 3//8 2//8 13//8
f 22//9 1//9 4//9 23//9
f 20//10 4//10 3//10 17//10
f 24//11 6//11 5//11 21//11
f 6//12 19//12 18//12 7//12
f 8//13 11//13 10//13 5//13
f 7//14 15//14 14//14 8//14
f 21//15 10//15 9//15 22//15
f 11//16 14//16 13//16 12//16
f 15//17 18//17 17//17 16//17
f 19//18 24//18 23//18 20//18
f 1//19 22//19 9//19
f 2//20 12//20 13//20
f 3//21 16//21 17//21
f 4//22 20//22 23//22
f 5//23 10//23 21//23
f 8//24 14//24 11//24
f 7//25 18//25 15//25
f 6//26 24//26 19//26
f 25//1 26//1 27//1 28//1
f 31//2 32//2 29//2 30//2
f 35//3 36//3 33//3 34//3
f 39//4 40//4 37//4 38//4
f 43//5 44//5 41//5 42//5
f 47//6 48//6 45//6 46//6
f 25//7 33//7 36//7 26//7
f 40//8 27//8 26//8 37//8
f 46//9 25//9 28//9 47//9
f 44//10 28//10 27//10 41//10
f 48//11 30//11 29//11 45//11
f 30//12 43//12 42//12 31//12
f 32//13 35//13 34//13 29//13
f 31//14 39//14 38//14 32//14
f 45//15 34//15 33//15 46//15
f 35//16 38//16 37//16 36//16
f 39//17 42//17 41//17 40//17
f 43//18 48//18 47//18 44//18
f 25//27 46//27 33//27
f 26//28 36//28 37//28
f 27//29 40//29 41//29
f 28//30 44//30 47//30
f 29//31 34//31 45//31
f 32//32 38//32 35//32
f 31//33 42//33 39//33
f 30//34 48//34 43//34
f 49//1 50//1 51//1 52//1
f 55//2 56//2 53//2 54//2
f 59//3 60//3 57//3 58//3
f 63//4 64//4 61//4 62//4
f 67//5 68//5 65//5 66//5
f 71//6 72//6 69//6 70//6
f 49//7 57//7 60//7 50//7
f 64//8 51//8 50//8 61//8
f 70//9 49//9 52//9 71//9
f 68//10 52//10 51//10 65//10
f 72//11 54//11 53//11 69//11
f 54//12 67//12 66//12 55//12
f 56//13 59//13 58//13 53//13
f 55//14 63//14 62//14 56//14
f 69//15 58//15 57//15 70//15
f 59//16 62//16 61//16 60//16
f 63//17 66//17 65//17 64//17
f 67//18 72//18 71//18 68//18
f 49//19 70//19 57//19
f 50//20 60//20 61//20
f 51//35 64//35 65//35
f 52//36 68//36 71//36
f 53//31 58//31 69//31
f 56//37 62//37 59//37
f 55//25 66//25 63//25
f 54//34 72//34 67//34
f 73//1 74//1 75//1 76//1
f 79//2 80//2 77//2 78//2
f 83//3 84//3 81//3 82//3
f 87//4 88//4 85//4 86//4
f 91//5 92//5 89//5 90//5
f 95//6 96//6 93//6 94//6
f 73//7 81//7 84//7 74//7
f 88//8 75//8 74//8 85//8
f 94//9 73//9 76//9 95//9
f 92//10 76//10 75//10 89//10
f 96//11 78//11 77//11 93//11
f 78//12 91//12 90//12 79//12
f 80//13 83//13 82//13 77//13
f 79//14 87//14 86//14 80//14
f 93//15 82//15 81//15 94//15
f 83//16 86//16 85//16 84//16
f 87//17 90//17 89//17 88//17
f 91//18 96//18 95//18 92//18
f 73//19 94//19 81//19
f 74//28 84//28 85//28
f 75//35 88//35 89//35
f 76//36 92//36 95//36
f 77//31 82//31 93//31
f 80//24 86//24 83//24
f 79//25 90//25 87//25
f 78//34 96//34 91//34
f 97//1 98//1 99//1 100//1
f 103//2 104//2 101//2 102//2
f 107//3 108//3 105//3 106//3
f 111//4 112//4 109//4 110//4
f 115//5 116//5 113//5 114//5
f 119//6 120//6 117//6 118//6
f 97//7 105//7 108//7 98//7
f 112//8 99//8 98//8 109//8
f 118//9 97//9 100//9 119//9
f 116//10 100//10 99//10 113//10
f 120//11 102//11 101//11 117//11
f 102//12 115//12 114//12 103//12
f 104//13 107//13 106//13 101//13
f 103//14 111//14 110//14 104//14
f 117//15 106//15 105//15 118//15
f 107//16 110//16 109//16 108//16
f 111//17 114//17 113//17 112//17
f 115//18 120//18 119//18 116//18
f 97//19 118//19 105//19
f 98//28 108//28 109//28
f 99//35 112//35 113//35
f 100//36 116//36 119//36
f 101//31 106//31 117//31
f 104//24 110//24 107//24
f 103//25 114//25 111//25
f 102//34 120//34 115//34
f 121//1 122//1 123//1 124//1
f 127//2 128//2 125//2 126//2
f 131//3 132//3 129//3 130//3
f 135//4 136//4 133//4 134//4
f 139//5 140//5 137//5 138//5
f 143//6 144//6 141//6 142//6
f 121//7 129//7 132//7 122//7
f 136//8 123//8 122//8 133//8
f 142//9 121//9 124//9 143//9
f 140//10 124//10 123//10 137//10
f 144//11 126//11 125//11 141//11
f 126//12 139//12 138//12 127//12
f 128//13 131//13 130//13 125//13
f 127//14 135//14 134//14 128//14
f 141//15 130//15 129//15 142//15
f 131//16 134//16 133//16 132//16
f 135//17 138//17 137//17 136//17
f 139//18 144//18 143//18 140//18
f 121//19 142//19 129//19
f 122//28 132//28 133//28
f 123//35 136//35 137//35
f 124//36 140//36 143//36
f 125//31 130//31 141//31
f 128//37 134//37 131//37
f 127//25 138//25 135//25
f 126//26 144//26 139//26
