# Blender v2.90.1 OBJ File: 'Country-Kitchen.blend'
# www.blender.org
mtllib Island-Panel2.mtl
o Island-Panel2_Cube.055
v -0.526256 -0.020537 0.522233
v -0.653919 -0.020537 0.522233
v -0.653919 -0.020537 0.511190
v -0.526256 -0.020537 0.511190
v -0.526257 0.940557 0.522233
v -0.526256 0.940557 0.511190
v -0.653919 0.940557 0.511189
v -0.653919 0.940557 0.522232
v -0.526256 -0.017135 0.525634
v -0.526257 0.937155 0.525635
v -0.653919 0.937155 0.525634
v -0.653919 -0.017135 0.525634
v -0.657320 -0.017135 0.522233
v -0.657321 0.937155 0.522232
v -0.657320 0.937155 0.511189
v -0.657320 -0.017135 0.511190
v -0.653919 -0.017135 0.507788
v -0.653918 0.937155 0.507788
v -0.526256 0.937155 0.507788
v -0.526256 -0.017135 0.507788
v -0.522855 0.937155 0.522233
v -0.522855 -0.017135 0.522233
v -0.522854 -0.017135 0.511190
v -0.522855 0.937155 0.511190
v -0.391790 -0.020537 0.522233
v -0.519452 -0.020537 0.522233
v -0.519452 -0.020537 0.511190
v -0.391790 -0.020537 0.511190
v -0.391790 0.940557 0.522233
v -0.391790 0.940557 0.511190
v -0.519452 0.940557 0.511189
v -0.519453 0.940557 0.522232
v -0.391790 -0.017135 0.525634
v -0.391790 0.937155 0.525635
v -0.519453 0.937155 0.525634
v -0.519452 -0.017135 0.525634
v -0.522854 -0.017135 0.522233
v -0.522854 0.937155 0.522232
v -0.522854 0.937155 0.511189
v -0.522854 -0.017135 0.511190
v -0.519452 -0.017135 0.507788
v -0.519452 0.937155 0.507788
v -0.391790 0.937155 0.507788
v -0.391790 -0.017135 0.507788
v -0.388389 0.937155 0.522233
v -0.388388 -0.017135 0.522233
v -0.388388 -0.017135 0.511190
v -0.388388 0.937155 0.511190
v -0.257324 -0.020537 0.522233
v -0.384986 -0.020537 0.522233
v -0.384986 -0.020537 0.511190
v -0.257324 -0.020537 0.511190
v -0.257324 0.940557 0.522233
v -0.257324 0.940557 0.511190
v -0.384986 0.940557 0.511189
v -0.384986 0.940557 0.522232
v -0.257324 -0.017135 0.525634
v -0.257324 0.937155 0.525635
v -0.384987 0.937155 0.525634
v -0.384986 -0.017135 0.525634
v -0.388388 -0.017135 0.522233
v -0.388388 0.937155 0.522232
v -0.388388 0.937155 0.511189
v -0.388388 -0.017135 0.511190
v -0.384986 -0.017135 0.507788
v -0.384986 0.937155 0.507788
v -0.257324 0.937155 0.507788
v -0.257324 -0.017135 0.507788
v -0.253922 0.937155 0.522233
v -0.253922 -0.017135 0.522233
v -0.253922 -0.017135 0.511190
v -0.253922 0.937155 0.511190
v -0.122858 -0.020537 0.522233
v -0.250520 -0.020537 0.522233
v -0.250520 -0.020537 0.511190
v -0.122858 -0.020537 0.511190
v -0.122858 0.940557 0.522233
v -0.122858 0.940557 0.511190
v -0.250520 0.940557 0.511189
v -0.250520 0.940557 0.522232
v -0.122858 -0.017135 0.525634
v -0.122858 0.937155 0.525635
v -0.250520 0.937155 0.525634
v -0.250520 -0.017135 0.525634
v -0.253922 -0.017135 0.522233
v -0.253922 0.937155 0.522232
v -0.253922 0.937155 0.511189
v -0.253922 -0.017135 0.511190
v -0.250520 -0.017135 0.507788
v -0.250520 0.937155 0.507788
v -0.122858 0.937155 0.507788
v -0.122858 -0.017135 0.507788
v -0.119456 0.937155 0.522233
v -0.119456 -0.017135 0.522233
v -0.119456 -0.017135 0.511190
v -0.119456 0.937155 0.511190
v 0.011608 -0.020537 0.522232
v -0.116054 -0.020537 0.522233
v -0.116054 -0.020537 0.511190
v 0.011608 -0.020537 0.511190
v 0.011608 0.940557 0.522233
v 0.011608 0.940557 0.511190
v -0.116054 0.940557 0.511189
v -0.116054 0.940557 0.522232
v 0.011608 -0.017135 0.525634
v 0.011608 0.937155 0.525635
v -0.116054 0.937155 0.525634
v -0.116054 -0.017135 0.525634
v -0.119456 -0.017135 0.522233
v -0.119456 0.937155 0.522232
v -0.119456 0.937155 0.511189
v -0.119456 -0.017135 0.511190
v -0.116054 -0.017135 0.507788
v -0.116054 0.937155 0.507788
v 0.011608 0.937155 0.507788
v 0.011608 -0.017135 0.507788
v 0.015010 0.937155 0.522233
v 0.015010 -0.017135 0.522232
v 0.015010 -0.017135 0.511190
v 0.015010 0.937155 0.511190
v 0.146074 -0.020537 0.522232
v 0.018412 -0.020537 0.522232
v 0.018412 -0.020537 0.511190
v 0.146075 -0.020537 0.511190
v 0.146074 0.940557 0.522233
v 0.146074 0.940557 0.511190
v 0.018412 0.940557 0.511189
v 0.018412 0.940557 0.522232
v 0.146074 -0.017135 0.525634
v 0.146074 0.937155 0.525635
v 0.018412 0.937155 0.525634
v 0.018412 -0.017135 0.525634
v 0.015010 -0.017135 0.522232
v 0.015010 0.937155 0.522232
v 0.015010 0.937155 0.511189
v 0.015010 -0.017135 0.511190
v 0.018412 -0.017135 0.507788
v 0.018412 0.937155 0.507788
v 0.146074 0.937155 0.507788
v 0.146075 -0.017135 0.507788
v 0.149476 0.937155 0.522233
v 0.149476 -0.017135 0.522232
v 0.149476 -0.017135 0.511190
v 0.149476 0.937155 0.511190
v 0.280541 -0.020537 0.522232
v 0.152878 -0.020537 0.522232
v 0.152878 -0.020537 0.511190
v 0.280541 -0.020537 0.511190
v 0.280540 0.940557 0.522233
v 0.280541 0.940557 0.511190
v 0.152878 0.940557 0.511189
v 0.152878 0.940557 0.522232
v 0.280541 -0.017135 0.525634
v 0.280540 0.937155 0.525635
v 0.152878 0.937155 0.525634
v 0.152878 -0.017135 0.525634
v 0.149477 -0.017135 0.522232
v 0.149476 0.937155 0.522232
v 0.149477 0.937155 0.511189
v 0.149477 -0.017135 0.511190
v 0.152878 -0.017135 0.507788
v 0.152878 0.937155 0.507788
v 0.280541 0.937155 0.507788
v 0.280541 -0.017135 0.507788
v 0.283942 0.937155 0.522233
v 0.283942 -0.017135 0.522232
v 0.283943 -0.017135 0.511190
v 0.283942 0.937155 0.511190
v 0.415007 -0.020537 0.522232
v 0.287345 -0.020537 0.522232
v 0.287345 -0.020537 0.511190
v 0.415007 -0.020537 0.511190
v 0.415007 0.940557 0.522233
v 0.415007 0.940557 0.511190
v 0.287345 0.940557 0.511189
v 0.287344 0.940557 0.522232
v 0.415007 -0.017135 0.525634
v 0.415007 0.937155 0.525635
v 0.287344 0.937155 0.525634
v 0.287345 -0.017135 0.525634
v 0.283943 -0.017135 0.522232
v 0.283943 0.937155 0.522232
v 0.283943 0.937155 0.511189
v 0.283943 -0.017135 0.511190
v 0.287345 -0.017135 0.507788
v 0.287345 0.937155 0.507788
v 0.415007 0.937155 0.507788
v 0.415007 -0.017135 0.507788
v 0.418408 0.937155 0.522233
v 0.418409 -0.017135 0.522232
v 0.418409 -0.017135 0.511190
v 0.418409 0.937155 0.511190
vn 0.0000 -1.0000 -0.0000
vn 0.0000 1.0000 -0.0000
vn -0.0000 -0.0000 1.0000
vn -1.0000 -0.0000 -0.0000
vn 0.0000 -0.0000 -1.0000
vn 1.0000 0.0000 0.0000
vn 0.0000 -0.7071 0.7071
vn -0.7071 -0.7071 -0.0000
vn 0.7071 -0.7071 0.0000
vn 0.0000 -0.7071 -0.7071
vn 0.7071 0.7071 0.0000
vn 0.0000 0.7071 -0.7071
vn -0.0000 0.7071 0.7071
vn -0.7071 0.7071 -0.0000
vn 0.7071 0.0000 0.7071
vn -0.7071 0.0000 0.7071
vn -0.7071 -0.0000 -0.7071
vn 0.7071 -0.0000 -0.7071
vn 0.5773 -0.5773 0.5774
vn -0.5773 -0.5774 0.5773
vn -0.5774 -0.5773 -0.5774
vn 0.5774 -0.5774 -0.5773
vn 0.5774 0.5774 0.5774
vn -0.5774 0.5774 0.5774
vn -0.5774 0.5773 -0.5774
vn 0.5774 0.5774 -0.5773
vn -0.5773 -0.5773 0.5774
vn -0.5773 -0.5774 -0.5774
vn 0.5774 -0.5773 -0.5773
vn 0.5773 0.5773 0.5774
vn -0.5773 0.5773 0.5774
vn -0.5773 0.5773 -0.5774
vn 0.5774 0.5773 -0.5773
vn -0.5774 0.5773 0.5774
vn -0.5773 -0.5774 -0.5773
vn -0.5774 0.5774 0.5773
vn 0.5774 -0.5773 0.5773
vn 0.5774 -0.5773 -0.5774
vn 0.5774 0.5773 0.5773
vn 0.5774 -0.5773 0.5774
vn -0.5774 -0.5773 0.5773
vn -0.5774 -0.5773 -0.5773
vn 0.5774 0.5773 0.5774
vn -0.5774 0.5773 0.5773
vn 0.5773 -0.5773 -0.5774
vn -0.5774 0.5774 -0.5774
vn 0.5774 0.5773 -0.5774
vn 0.5774 -0.5774 0.5773
vn -0.5774 -0.5774 0.5773
vn 0.5773 -0.5774 -0.5774
vn 0.5773 0.5773 -0.5774
usemtl Cupboard-units
s off
f 1//1 2//1 3//1 4//1
f 7//2 8//2 5//2 6//2
f 11//3 12//3 9//3 10//3
f 15//4 16//4 13//4 14//4
f 19//5 20//5 17//5 18//5
f 23//6 24//6 21//6 22//6
f 1//7 9//7 12//7 2//7
f 16//8 3//8 2//8 13//8
f 22//9 1//9 4//9 23//9
f 20//10 4//10 3//10 17//10
f 24//11 6//11 5//11 21//11
f 6//12 19//12 18//12 7//12
f 8//13 11//13 10//13 5//13
f 7//14 15//14 14//14 8//14
f 21//15 10//15 9//15 22//15
f 11//16 14//16 13//16 12//16
f 15//17 18//17 17//17 16//17
f 19//18 24//18 23//18 20//18
f 1//19 22//19 9//19
f 2//20 12//20 13//20
f 3//21 16//21 17//21
f 4//22 20//22 23//22
f 5//23 10//23 21//23
f 8//24 14//24 11//24
f 7//25 18//25 15//25
f 6//26 24//26 19//26
f 25//1 26//1 27//1 28//1
f 31//2 32//2 29//2 30//2
f 35//3 36//3 33//3 34//3
f 39//4 40//4 37//4 38//4
f 43//5 44//5 41//5 42//5
f 47//6 48//6 45//6 46//6
f 25//7 33//7 36//7 26//7
f 40//8 27//8 26//8 37//8
f 46//9 25//9 28//9 47//9
f 44//10 28//10 27//10 41//10
f 48//11 30//11 29//11 45//11
f 30//12 43//12 42//12 31//12
f 32//13 35//13 34//13 29//13
f 31//14 39//14 38//14 32//14
f 45//15 34//15 33//15 46//15
f 35//16 38//16 37//16 36//16
f 39//17 42//17 41//17 40//17
f 43//18 48//18 47//18 44//18
f 25//19 46//19 33//19
f 26//27 36//27 37//27
f 27//28 40//28 41//28
f 28//29 44//29 47//29
f 29//30 34//30 45//30
f 32//31 38//31 35//31
f 31//32 42//32 39//32
f 30//33 48//33 43//33
f 49//1 50//1 51//1 52//1
f 55//2 56//2 53//2 54//2
f 59//3 60//3 57//3 58//3
f 63//4 64//4 61//4 62//4
f 67//5 68//5 65//5 66//5
f 71//6 72//6 69//6 70//6
f 49//7 57//7 60//7 50//7
f 64//8 51//8 50//8 61//8
f 70//9 49//9 52//9 71//9
f 68//10 52//10 51//10 65//10
f 72//11 54//11 53//11 69//11
f 54//12 67//12 66//12 55//12
f 56//13 59//13 58//13 53//13
f 55//14 63//14 62//14 56//14
f 69//15 58//15 57//15 70//15
f 59//16 62//16 61//16 60//16
f 63//17 66//17 65//17 64//17
f 67//18 72//18 71//18 68//18
f 49//19 70//19 57//19
f 50//27 60//27 61//27
f 51//28 64//28 65//28
f 52//22 68//22 71//22
f 53//30 58//30 69//30
f 56//34 62//34 59//34
f 55//32 66//32 63//32
f 54//33 72//33 67//33
f 73//1 74//1 75//1 76//1
f 79//2 80//2 77//2 78//2
f 83//3 84//3 81//3 82//3
f 87//4 88//4 85//4 86//4
f 91//5 92//5 89//5 90//5
f 95//6 96//6 93//6 94//6
f 73//7 81//7 84//7 74//7
f 88//8 75//8 74//8 85//8
f 94//9 73//9 76//9 95//9
f 92//10 76//10 75//10 89//10
f 96//11 78//11 77//11 93//11
f 78//12 91//12 90//12 79//12
f 80//13 83//13 82//13 77//13
f 79//14 87//14 86//14 80//14
f 93//15 82//15 81//15 94//15
f 83//16 86//16 85//16 84//16
f 87//17 90//17 89//17 88//17
f 91//18 96//18 95//18 92//18
f 73//19 94//19 81//19
f 74//27 84//27 85//27
f 75//35 88//35 89//35
f 76//29 92//29 95//29
f 77//30 82//30 93//30
f 80//36 86//36 83//36
f 79//25 90//25 87//25
f 78//33 96//33 91//33
f 97//1 98//1 99//1 100//1
f 103//2 104//2 101//2 102//2
f 107//3 108//3 105//3 106//3
f 111//4 112//4 109//4 110//4
f 115//5 116//5 113//5 114//5
f 119//6 120//6 117//6 118//6
f 97//7 105//7 108//7 98//7
f 112//8 99//8 98//8 109//8
f 118//9 97//9 100//9 119//9
f 116//10 100//10 99//10 113//10
f 120//11 102//11 101//11 117//11
f 102//12 115//12 114//12 103//12
f 104//13 107//13 106//13 101//13
f 103//14 111//14 110//14 104//14
f 117//15 106//15 105//15 118//15
f 107//16 110//16 109//16 108//16
f 111//17 114//17 113//17 112//17
f 115//18 120//18 119//18 116//18
f 97//37 118//37 105//37
f 98//27 108//27 109//27
f 99//28 112//28 113//28
f 100//38 116//38 119//38
f 101//39 106//39 117//39
f 104//34 110//34 107//34
f 103//32 114//32 111//32
f 102//33 120//33 115//33
f 121//1 122//1 123//1 124//1
f 127//2 128//2 125//2 126//2
f 131//3 132//3 129//3 130//3
f 135//4 136//4 133//4 134//4
f 139//5 140//5 137//5 138//5
f 143//6 144//6 141//6 142//6
f 121//7 129//7 132//7 122//7
f 136//8 123//8 122//8 133//8
f 142//9 121//9 124//9 143//9
f 140//10 124//10 123//10 137//10
f 144//11 126//11 125//11 141//11
f 126//12 139//12 138//12 127//12
f 128//13 131//13 130//13 125//13
f 127//14 135//14 134//14 128//14
f 141//15 130//15 129//15 142//15
f 131//16 134//16 133//16 132//16
f 135//17 138//17 137//17 136//17
f 139//18 144//18 143//18 140//18
f 121//40 142//40 129//40
f 122//41 132//41 133//41
f 123//42 136//42 137//42
f 124//38 140//38 143//38
f 125//43 130//43 141//43
f 128//44 134//44 131//44
f 127//25 138//25 135//25
f 126//33 144//33 139//33
f 145//1 146//1 147//1 148//1
f 151//2 152//2 149//2 150//2
f 155//3 156//3 153//3 154//3
f 159//4 160//4 157//4 158//4
f 163//5 164//5 161//5 162//5
f 167//6 168//6 165//6 166//6
f 145//7 153//7 156//7 146//7
f 160//8 147//8 146//8 157//8
f 166//9 145//9 148//9 167//9
f 164//10 148//10 147//10 161//10
f 168//11 150//11 149//11 165//11
f 150//12 163//12 162//12 151//12
f 152//13 155//13 154//13 149//13
f 151//14 159//14 158//14 152//14
f 165//15 154//15 153//15 166//15
f 155//16 158//16 157//16 156//16
f 159//17 162//17 161//17 160//17
f 163//18 168//18 167//18 164//18
f 145//37 166//37 153//37
f 146//41 156//41 157//41
f 147//42 160//42 161//42
f 148//45 164//45 167//45
f 149//43 154//43 165//43
f 152//44 158//44 155//44
f 151//46 162//46 159//46
f 150//47 168//47 163//47
f 169//1 170//1 171//1 172//1
f 175//2 176//2 173//2 174//2
f 179//3 180//3 177//3 178//3
f 183//4 184//4 181//4 182//4
f 187//5 188//5 185//5 186//5
f 191//6 192//6 189//6 190//6
f 169//7 177//7 180//7 170//7
f 184//8 171//8 170//8 181//8
f 190//9 169//9 172//9 191//9
f 188//10 172//10 171//10 185//10
f 192//11 174//11 173//11 189//11
f 174//12 187//12 186//12 175//12
f 176//13 179//13 178//13 173//13
f 175//14 183//14 182//14 176//14
f 189//15 178//15 177//15 190//15
f 179//16 182//16 181//16 180//16
f 183//17 186//17 185//17 184//17
f 187//18 192//18 191//18 188//18
f 169//48 190//48 177//48
f 170//49 180//49 181//49
f 171//42 184//42 185//42
f 172//50 188//50 191//50
f 173//43 178//43 189//43
f 176//44 182//44 179//44
f 175//25 186//25 183//25
f 174//51 192//51 187//51
