# Blender v2.90.1 OBJ File: 'Country-Kitchen.blend'
# www.blender.org
mtllib Lampshade-cable.mtl
o Lampshade-cable_Cylinder.015
v 0.185660 2.581784 -1.629580
v 0.188366 2.581784 -1.628459
v 0.189487 2.581784 -1.625753
v 0.188366 2.581784 -1.623047
v 0.185660 2.581784 -1.621927
v 0.182954 2.581784 -1.623047
v 0.181833 2.581784 -1.625753
v 0.182954 2.581784 -1.628459
v 0.185660 3.195911 -1.629580
v 0.188366 3.195911 -1.628459
v 0.189487 3.195911 -1.625753
v 0.188366 3.195911 -1.623047
v 0.185660 3.195911 -1.621927
v 0.182954 3.195911 -1.623047
v 0.181833 3.195911 -1.625753
v 0.182954 3.195911 -1.628459
vn 0.0000 0.0000 -1.0000
vn 0.7071 0.0000 -0.7071
vn 1.0000 0.0000 0.0000
vn 0.7071 0.0000 0.7071
vn 0.0000 0.0000 1.0000
vn -0.7071 0.0000 0.7071
vn -1.0000 0.0000 0.0000
vn -0.7071 0.0000 -0.7071
usemtl Lamp-cable
s 1
f 1//1 9//1 10//2 2//2
f 2//2 10//2 11//3 3//3
f 3//3 11//3 12//4 4//4
f 4//4 12//4 13//5 5//5
f 5//5 13//5 14//6 6//6
f 6//6 14//6 15//7 7//7
f 7//7 15//7 16//8 8//8
f 9//1 1//1 8//8 16//8
