# Blender v2.90.1 OBJ File: 'Country-Kitchen.blend'
# www.blender.org
mtllib Microwave-Handle-Joint-top.mtl
o Microwave-Handle-Joint-top_Cylinder.020
v -1.879062 1.321551 -2.205869
v -1.879062 1.320813 -2.208624
v -1.879062 1.318797 -2.210640
v -1.879062 1.316043 -2.211378
v -1.879062 1.313288 -2.210640
v -1.879062 1.311272 -2.208624
v -1.879062 1.310534 -2.205869
v -1.879062 1.311272 -2.203115
v -1.879062 1.313288 -2.201099
v -1.879062 1.316043 -2.200361
v -1.879062 1.318797 -2.201099
v -1.879062 1.320813 -2.203115
v -1.842905 1.321551 -2.205869
v -1.842905 1.320813 -2.208624
v -1.842905 1.318797 -2.210640
v -1.842905 1.316043 -2.211378
v -1.842905 1.313288 -2.210640
v -1.842905 1.311272 -2.208624
v -1.842905 1.310534 -2.205869
v -1.842905 1.311272 -2.203115
v -1.842905 1.313288 -2.201099
v -1.842905 1.316043 -2.200361
v -1.842905 1.318797 -2.201099
v -1.842905 1.320813 -2.203115
v -1.877775 1.320813 -2.208624
v -1.844192 1.320813 -2.208624
v -1.877775 1.321551 -2.205869
v -1.844192 1.321551 -2.205869
v -1.877775 1.318797 -2.210640
v -1.844192 1.318797 -2.210640
v -1.877775 1.316043 -2.211378
v -1.844192 1.316043 -2.211378
v -1.877775 1.313288 -2.210640
v -1.844192 1.313288 -2.210640
v -1.877775 1.311272 -2.208624
v -1.844192 1.311272 -2.208624
v -1.877775 1.310534 -2.205869
v -1.844192 1.310534 -2.205869
v -1.877775 1.311272 -2.203115
v -1.844192 1.311272 -2.203115
v -1.877775 1.313288 -2.201099
v -1.844192 1.313288 -2.201099
v -1.877775 1.316043 -2.200361
v -1.844192 1.316043 -2.200361
v -1.877775 1.318797 -2.201099
v -1.844192 1.318797 -2.201099
v -1.877775 1.320813 -2.203115
v -1.844192 1.320813 -2.203115
vn 0.0000 1.0000 0.0000
vn 0.0000 0.8660 -0.5000
vn 0.0000 0.5000 -0.8660
vn 0.0000 0.0000 -1.0000
vn 0.0000 -0.5000 -0.8660
vn 0.0000 -0.8660 -0.5000
vn 0.0000 -1.0000 0.0000
vn 0.0000 -0.8660 0.5000
vn 0.0000 -0.5000 0.8660
vn 0.0000 0.0000 1.0000
vn 0.0000 0.5000 0.8660
vn 0.0000 0.8660 0.5000
usemtl Microwave-front-steel
s 1
f 1//1 27//1 25//2 2//2
f 27//1 28//1 26//2 25//2
f 28//1 13//1 14//2 26//2
f 2//2 25//2 29//3 3//3
f 25//2 26//2 30//3 29//3
f 26//2 14//2 15//3 30//3
f 3//3 29//3 31//4 4//4
f 29//3 30//3 32//4 31//4
f 30//3 15//3 16//4 32//4
f 4//4 31//4 33//5 5//5
f 31//4 32//4 34//5 33//5
f 32//4 16//4 17//5 34//5
f 5//5 33//5 35//6 6//6
f 33//5 34//5 36//6 35//6
f 34//5 17//5 18//6 36//6
f 6//6 35//6 37//7 7//7
f 35//6 36//6 38//7 37//7
f 36//6 18//6 19//7 38//7
f 7//7 37//7 39//8 8//8
f 37//7 38//7 40//8 39//8
f 38//7 19//7 20//8 40//8
f 8//8 39//8 41//9 9//9
f 39//8 40//8 42//9 41//9
f 40//8 20//8 21//9 42//9
f 9//9 41//9 43//10 10//10
f 41//9 42//9 44//10 43//10
f 42//9 21//9 22//10 44//10
f 10//10 43//10 45//11 11//11
f 43//10 44//10 46//11 45//11
f 44//10 22//10 23//11 46//11
f 11//11 45//11 47//12 12//12
f 45//11 46//11 48//12 47//12
f 46//11 23//11 24//12 48//12
f 13//1 28//1 48//12 24//12
f 28//1 27//1 47//12 48//12
f 27//1 1//1 12//12 47//12
