# Blender v2.90.1 OBJ File: 'Country-Kitchen.blend'
# www.blender.org
mtllib Plane.024.mtl
o Plane.024_Plane.039
v -1.891478 1.337378 -2.162205
v -1.891478 1.069692 -2.162205
v -1.891478 1.069692 -1.774683
v -1.891478 1.337379 -1.774683
v -1.892472 1.337379 -1.774683
v -1.892472 1.069692 -1.774683
v -1.892472 1.069692 -2.162205
v -1.892472 1.337378 -2.162205
vn 1.0000 0.0000 0.0000
vn 0.0000 0.0000 1.0000
vn 0.0000 1.0000 -0.0000
vn 0.0000 0.0000 -1.0000
vn 0.0000 -1.0000 0.0000
vn -1.0000 0.0000 0.0000
usemtl Microwave-Glass
s off
f 1//1 4//1 3//1 2//1
f 3//2 4//2 5//2 6//2
f 4//3 1//3 8//3 5//3
f 1//4 2//4 7//4 8//4
f 2//5 3//5 6//5 7//5
f 6//6 5//6 8//6 7//6
