# Blender v2.90.1 OBJ File: 'Country-Kitchen.blend'
# www.blender.org
mtllib Plane.014.mtl
o Plane.014_Plane.005
v -2.466102 1.042904 -0.729152
v -2.465957 1.042541 -0.728789
v -2.465569 1.042584 -0.729152
v -2.456781 0.984636 -0.729152
v -2.456419 0.984998 -0.729152
v -2.456781 0.984998 -0.728789
v -2.491293 0.984636 -0.729152
v -2.491293 0.984998 -0.728789
v -2.491656 0.984998 -0.729152
v -2.491293 1.042904 -0.729152
v -2.491656 1.042541 -0.729152
v -2.491293 1.042541 -0.728789
v -2.456589 1.025716 -0.729152
v -2.457023 1.025759 -0.728789
v -2.456781 1.025034 -0.728789
v -2.456419 1.025034 -0.729152
v -2.491656 1.025034 -0.729152
v -2.491293 1.025034 -0.728789
v -2.491293 1.025759 -0.728789
v -2.491656 1.025759 -0.729152
v -2.491293 1.025758 -2.466602
v -2.491293 1.025033 -2.466602
v -2.491656 1.025033 -2.466239
v -2.491656 1.025758 -2.466239
v -2.456781 1.025033 -2.466602
v -2.457023 1.025758 -2.466602
v -2.456589 1.025716 -2.466239
v -2.456419 1.025033 -2.466239
v -2.491293 1.042903 -2.466239
v -2.491293 1.042541 -2.466602
v -2.491656 1.042541 -2.466239
v -2.491293 0.984998 -2.466602
v -2.491293 0.984635 -2.466239
v -2.491656 0.984998 -2.466239
v -2.456781 0.984635 -2.466239
v -2.456781 0.984998 -2.466602
v -2.456419 0.984998 -2.466239
v -2.465957 1.042541 -2.466602
v -2.466102 1.042903 -2.466239
v -2.465569 1.042583 -2.466239
vt 0.992718 0.190744
vt 0.992718 0.308605
vt 0.008734 0.308605
vt 0.008734 0.190743
vt 0.992718 0.311930
vt 0.992718 0.432114
vt 0.008734 0.432114
vt 0.008734 0.311930
vt 0.173823 0.867561
vt 0.163872 0.867561
vt 0.157322 0.849092
vt 0.173805 0.849092
vt 0.992718 0.680449
vt 0.992718 0.797714
vt 0.008734 0.797714
vt 0.008734 0.680448
vt 0.992718 0.556643
vt 0.992718 0.676826
vt 0.008734 0.676826
vt 0.008734 0.556643
vt 0.992718 0.434462
vt 0.992718 0.554295
vt 0.008734 0.554295
vt 0.008734 0.434461
vt 0.192675 0.848951
vt 0.185896 0.867460
vt 0.176769 0.867460
vt 0.176790 0.848951
vt 0.176798 0.848151
vt 0.176798 0.803997
vt 0.192840 0.803997
vt 0.192840 0.848151
vt 0.157160 0.803952
vt 0.173798 0.803952
vt 0.173798 0.848291
vt 0.157160 0.848291
vt 0.185784 0.867860
vt 0.185992 0.867648
vt 0.186044 0.867507
vt 0.992718 0.433203
vt 0.992924 0.434462
vt 0.176798 0.803597
vt 0.176798 0.803597
vt 0.176630 0.803997
vt 0.992718 0.800248
vt 0.992718 0.800248
vt 0.992924 0.797714
vt 0.192879 0.848904
vt 0.192793 0.849139
vt 0.192840 0.848551
vt 0.193009 0.848551
vt 0.176630 0.848151
vt 0.176630 0.848151
vt 0.176798 0.848551
vt 0.176630 0.848551
vt 0.173972 0.848291
vt 0.173972 0.848291
vt 0.173972 0.848693
vt 0.157276 0.848693
vt 0.157067 0.848693
vt 0.156985 0.848291
vt 0.008734 0.067878
vt 0.008529 0.067878
vt 0.008734 0.066166
vt 0.008529 0.554295
vt 0.008529 0.554295
vt 0.008734 0.555554
vt 0.008529 0.434461
vt 0.008734 0.433202
vt 0.008529 0.187479
vt 0.008529 0.186795
vt 0.008734 0.188507
vt 0.192840 0.803597
vt 0.176760 0.867860
vt 0.193009 0.803997
vt 0.193009 0.848151
vt 0.176630 0.867460
vt 0.176630 0.848951
vt 0.008734 0.800248
vt 0.008529 0.797714
vt 0.008529 0.680448
vt 0.008529 0.676826
vt 0.008529 0.556643
vt 0.008529 0.432114
vt 0.008529 0.311930
vt 0.008529 0.307117
vt 0.008529 0.189850
vt 0.008734 0.186795
vt 0.992718 0.186795
vt 0.992718 0.067878
vn 0.8827 0.4699 -0.0000
vn 1.0000 0.0000 0.0000
vn 0.0000 0.0000 -1.0000
vn -1.0000 0.0000 0.0000
vn 0.0000 -1.0000 0.0000
vn -0.0000 0.0000 1.0000
vn 0.4311 0.7183 0.5462
vn 0.5774 -0.5772 0.5774
vn -0.5774 -0.5772 0.5774
vn -0.5773 0.5773 0.5775
vn 0.6664 0.1948 0.7197
vn -0.7071 0.0000 0.7071
vn -0.7071 0.0000 -0.7071
vn 0.6663 0.1948 -0.7198
vn -0.5774 0.5774 -0.5772
vn -0.5774 -0.5774 -0.5774
vn 0.5774 -0.5774 -0.5774
vn 0.4310 0.7187 -0.5456
vn 0.0000 -0.7071 0.7071
vn 0.0000 0.7071 0.7071
vn 0.6242 0.3323 0.7071
vn 0.7070 0.0000 0.7072
vn -0.7070 0.0000 0.7072
vn -0.7070 0.7072 -0.0000
vn -0.7072 0.0000 -0.7070
vn -0.7071 -0.7072 0.0000
vn 0.7071 -0.7072 0.0000
vn 0.7072 0.0000 -0.7070
vn 0.9702 0.2423 -0.0000
vn 0.6240 0.3324 -0.7072
vn 0.5148 0.8573 -0.0000
vn 0.0000 0.7072 -0.7070
vn 0.0000 -0.7072 -0.7071
vn 0.0000 1.0000 -0.0000
usemtl Wood-top-suround
s off
f 3/1/1 13/2/1 27/3/1 40/4/1
f 16/5/2 5/6/2 37/7/2 28/8/2
f 30/9/3 38/10/3 26/11/3 21/12/3
f 20/13/4 11/14/4 31/15/4 24/16/4
f 9/17/4 17/18/4 23/19/4 34/20/4
f 4/21/5 7/22/5 33/23/5 35/24/5
f 14/25/6 2/26/6 12/27/6 19/28/6
f 18/29/6 8/30/6 6/31/6 15/32/6
f 36/33/3 32/34/3 22/35/3 25/36/3
f 1/37/7 2/38/7 3/39/7
f 4/21/8 5/40/8 6/41/8
f 7/42/9 8/43/9 9/44/9
f 10/45/10 11/46/10 12/47/10
f 13/48/11 14/49/11 15/50/11 16/51/11
f 17/52/12 18/53/12 19/54/12 20/55/12
f 21/12/13 22/56/13 23/57/13 24/58/13
f 25/36/14 26/59/14 27/60/14 28/61/14
f 29/62/15 30/63/15 31/64/15
f 32/65/16 33/66/16 34/67/16
f 35/24/17 36/68/17 37/69/17
f 38/70/18 39/71/18 40/72/18
f 6/31/19 8/30/19 7/42/19 4/73/19
f 1/37/20 10/74/20 12/27/20 2/26/20
f 2/26/21 14/25/21 13/48/21 3/39/21
f 5/75/22 16/76/22 15/32/22 6/31/22
f 8/30/23 18/29/23 17/52/23 9/44/23
f 11/77/12 20/78/12 19/28/12 12/27/12
f 14/25/6 19/28/6 18/29/6 15/32/6
f 10/45/24 29/79/24 31/15/24 11/14/24
f 24/16/25 31/15/25 30/80/25 21/81/25
f 20/13/4 24/16/4 23/19/4 17/18/4
f 22/82/25 32/83/25 34/20/25 23/19/25
f 9/17/26 34/20/26 33/23/26 7/22/26
f 4/21/27 35/24/27 37/7/27 5/6/27
f 28/8/28 37/7/28 36/84/28 25/85/28
f 16/5/29 28/8/29 27/3/29 13/2/29
f 26/86/30 38/87/30 40/4/30 27/3/30
f 3/1/31 40/4/31 39/88/31 1/89/31
f 29/62/32 39/88/32 38/70/32 30/63/32
f 32/65/33 36/68/33 35/24/33 33/23/33
f 21/12/3 26/11/3 25/36/3 22/35/3
f 10/90/34 1/89/34 39/88/34 29/62/34
