# Blender v2.90.1 OBJ File: 'Country-Kitchen.blend'
# www.blender.org
mtllib Skirting-Board.mtl
o Skirting-Board_Plane.002
v 3.429754 0.207049 -2.469231
v 3.429754 -0.015065 -2.468798
v 3.429754 -0.015065 -2.458020
v 3.429754 0.207049 -2.461122
v 3.429754 0.196303 -2.469231
v 3.429754 0.196303 -2.457587
v 3.429754 0.192626 -2.469231
v 3.429754 0.192626 -2.457587
v 3.429754 0.186488 -2.469231
v 3.429754 0.186488 -2.457587
v 3.429754 0.188534 -2.469231
v 3.429754 0.190580 -2.469231
v 3.429754 0.188534 -2.459076
v 3.429754 0.190580 -2.459076
v 3.429754 0.173361 -2.469231
v 3.429754 0.183088 -2.469231
v 3.429754 0.173361 -2.457587
v 3.429754 0.183088 -2.457587
v 3.429754 0.178224 -2.469231
v 3.429754 0.178224 -2.459076
v 3.429754 0.208351 -2.468673
v 3.429754 0.208351 -2.462611
v 3.429754 -0.014290 -2.469231
v 3.429754 -0.014290 -2.457587
v -1.786394 -0.014290 -2.457587
v -1.786394 -0.014290 -2.469231
v -1.786394 0.208351 -2.462611
v -1.786394 0.208351 -2.468673
v -1.786394 0.178225 -2.459076
v -1.694827 0.178225 -2.469231
v -1.786394 0.183088 -2.457587
v -1.786394 0.173362 -2.457587
v -1.694827 0.183088 -2.469231
v -1.786394 0.173362 -2.469231
v -1.786394 0.190581 -2.459076
v -1.694827 0.188535 -2.459076
v -1.694827 0.190581 -2.469231
v -1.694827 0.188535 -2.469231
v -1.786394 0.186489 -2.457587
v -1.694827 0.186489 -2.469231
v -1.786394 0.192627 -2.457587
v -1.786394 0.192627 -2.469231
v -1.786394 0.196303 -2.457587
v -1.786394 0.196303 -2.469231
v -1.786394 0.207049 -2.461122
v -1.694827 -0.015065 -2.458020
v -1.786394 -0.015065 -2.468798
v -1.694827 0.207049 -2.469231
v -0.768227 0.173362 -2.457587
v -0.768227 -0.014290 -2.457587
v -0.768227 -0.015065 -2.458020
v -0.768227 -0.014290 -2.469231
v -0.768227 0.173362 -2.469231
v -0.768227 -0.015065 -2.468798
v -0.768227 0.208351 -2.462611
v -0.768227 0.207049 -2.461122
v -0.768227 0.208351 -2.468673
v -0.768227 0.207049 -2.469231
v -0.768227 0.183088 -2.457587
v -0.768227 0.178225 -2.459076
v -0.768227 0.178225 -2.469231
v -0.768227 0.183088 -2.469231
v -0.768227 0.186489 -2.457587
v -0.768227 0.186489 -2.469231
v -0.768227 0.192627 -2.457587
v -0.768227 0.190581 -2.459076
v -0.768227 0.188535 -2.459076
v -0.768227 0.190581 -2.469231
v -0.768227 0.192627 -2.469231
v -0.768227 0.188535 -2.469231
v -0.768227 0.196303 -2.457587
v -0.768227 0.196303 -2.469231
v 0.884238 0.173361 -2.457587
v 0.884238 -0.014290 -2.457587
v 0.884238 -0.015065 -2.458020
v 0.884238 -0.014290 -2.469231
v 0.884238 0.173361 -2.469231
v 0.884238 -0.015065 -2.468798
v 0.884238 0.208351 -2.462611
v 0.884238 0.207049 -2.461122
v 0.884238 0.208351 -2.468673
v 0.884238 0.207049 -2.469231
v 0.884238 0.183088 -2.457587
v 0.884238 0.178225 -2.459076
v 0.884238 0.178225 -2.469231
v 0.884238 0.183088 -2.469231
v 0.884238 0.186489 -2.457587
v 0.884238 0.186489 -2.469231
v 0.884238 0.192627 -2.457587
v 0.884238 0.190581 -2.459076
v 0.884238 0.188535 -2.459076
v 0.884238 0.190581 -2.469231
v 0.884238 0.192627 -2.469231
v 0.884238 0.188535 -2.469231
v 0.884238 0.196303 -2.457587
v 0.884238 0.196303 -2.469231
vn 1.0000 -0.0000 0.0000
vn 1.0000 0.0002 0.0000
vn 1.0000 0.0003 0.0000
vn -0.1697 0.5936 -0.7867
vn -1.0000 0.0000 0.0000
vn -0.0470 -0.9792 -0.1973
vn -0.0438 -0.9794 -0.1973
vn -0.0470 0.9792 -0.1973
vn -0.1261 0.0000 -0.9920
vn -0.1169 0.1502 -0.9817
vn -0.1023 0.8972 -0.4296
vn -0.0263 -0.9851 -0.1699
vn -0.0169 -0.9975 0.0690
vn 0.0000 0.0000 1.0000
vn -0.0000 -0.4877 0.8730
vn 0.0000 0.0000 -1.0000
vn -0.0000 -0.4877 -0.8730
vn -0.0000 0.7526 0.6585
vn 0.0000 1.0000 -0.0000
vn 0.0000 0.3939 -0.9191
vn -0.0000 -0.2927 0.9562
vn 0.0000 0.2927 0.9562
vn 0.0000 -0.5883 0.8087
vn 0.0000 0.5883 0.8087
vn 0.0000 0.3125 0.9499
vn -0.0000 -1.0000 0.0000
usemtl Skirting-Board
s off
f 5//1 1//1 4//1 6//1
f 6//1 8//1 7//1 5//1
f 8//1 14//1 12//1 7//1
f 14//1 13//1 11//1 12//1
f 13//1 10//1 9//1 11//1
f 10//1 18//1 16//1 9//1
f 18//1 20//1 19//1 16//1
f 20//1 17//1 15//1 19//1
f 4//2 1//2 21//2 22//2
f 17//1 24//1 23//1 15//1
f 24//3 3//3 2//3 23//3
f 45//4 48//4 44//4 43//4
f 42//5 41//5 43//5 44//5
f 37//6 35//6 41//6 42//6
f 38//7 36//7 35//7 37//7
f 40//8 39//8 36//8 38//8
f 33//9 31//9 39//9 40//9
f 30//10 29//10 31//10 33//10
f 34//11 32//11 29//11 30//11
f 28//12 48//12 45//12 27//12
f 26//5 25//5 32//5 34//5
f 47//13 46//13 25//13 26//13
f 49//14 32//14 25//14 50//14
f 50//15 25//15 46//15 51//15
f 52//16 26//16 34//16 53//16
f 54//17 47//17 26//17 52//17
f 55//18 27//18 45//18 56//18
f 57//19 28//19 27//19 55//19
f 58//20 48//20 28//20 57//20
f 59//21 31//21 29//21 60//21
f 60//22 29//22 32//22 49//22
f 61//16 30//16 33//16 62//16
f 53//16 34//16 30//16 61//16
f 63//14 39//14 31//14 59//14
f 62//16 33//16 40//16 64//16
f 65//23 41//23 35//23 66//23
f 66//14 35//14 36//14 67//14
f 67//24 36//24 39//24 63//24
f 68//16 37//16 42//16 69//16
f 70//16 38//16 37//16 68//16
f 64//16 40//16 38//16 70//16
f 71//14 43//14 41//14 65//14
f 69//16 42//16 44//16 72//16
f 56//25 45//25 43//25 71//25
f 72//16 44//16 48//16 58//16
f 51//26 46//26 47//26 54//26
f 17//14 73//14 74//14 24//14
f 24//15 74//15 75//15 3//15
f 23//16 76//16 77//16 15//16
f 2//17 78//17 76//17 23//17
f 22//18 79//18 80//18 4//18
f 21//19 81//19 79//19 22//19
f 1//20 82//20 81//20 21//20
f 18//21 83//21 84//21 20//21
f 20//22 84//22 73//22 17//22
f 19//16 85//16 86//16 16//16
f 15//16 77//16 85//16 19//16
f 10//14 87//14 83//14 18//14
f 16//16 86//16 88//16 9//16
f 8//23 89//23 90//23 14//23
f 14//14 90//14 91//14 13//14
f 13//24 91//24 87//24 10//24
f 12//16 92//16 93//16 7//16
f 11//16 94//16 92//16 12//16
f 9//16 88//16 94//16 11//16
f 6//14 95//14 89//14 8//14
f 7//16 93//16 96//16 5//16
f 4//25 80//25 95//25 6//25
f 82//16 1//16 5//16 96//16
f 3//26 75//26 78//26 2//26
