# Blender v2.90.1 OBJ File: 'Country-Kitchen.blend'
# www.blender.org
mtllib Window-Glass-Bottom.mtl
o Window-Glass-Bottom_Plane.043
v 0.719826 1.737989 -2.803781
v 0.719826 0.918199 -2.803781
v -0.606247 0.918199 -2.803781
v -0.606247 1.737989 -2.803781
v -0.606247 1.737989 -2.804577
v -0.606247 0.918199 -2.804577
v 0.719826 0.918199 -2.804577
v 0.719826 1.737989 -2.804577
vn 0.0000 0.0000 1.0000
vn -1.0000 0.0000 0.0000
vn 0.0000 1.0000 0.0000
vn 1.0000 0.0000 0.0000
vn -0.0000 -1.0000 0.0000
vn 0.0000 0.0000 -1.0000
usemtl Window-Fake-Glass
s off
f 1//1 4//1 3//1 2//1
f 3//2 4//2 5//2 6//2
f 4//3 1//3 8//3 5//3
f 1//4 2//4 7//4 8//4
f 2//5 3//5 6//5 7//5
f 6//6 5//6 8//6 7//6
