# Blender v2.90.1 OBJ File: 'Country-Kitchen.blend'
# www.blender.org
mtllib Window-door-Left-panel.mtl
o Window-door-Left-panel_Plane.006
v -0.642154 0.914612 -2.751647
v -0.625798 0.914612 -2.542151
v -0.639975 0.914612 -2.541045
v -0.656331 0.914612 -2.750540
v -0.638908 0.914612 -2.710069
v -0.629044 0.914612 -2.583730
v -0.643221 0.914612 -2.582623
v -0.653085 0.914612 -2.708962
v -0.642154 0.962526 -2.751647
v -0.625798 0.962526 -2.542151
v -0.639975 0.962526 -2.541045
v -0.656331 0.962526 -2.750540
v -0.638908 0.962526 -2.710069
v -0.629044 0.962526 -2.583730
v -0.640923 1.222801 -2.709912
v -0.631060 1.222800 -2.583572
v -0.640923 0.962526 -2.709912
v -0.631060 0.962526 -2.583572
v -0.640573 0.966780 -2.705430
v -0.640573 1.218546 -2.705430
v -0.631410 0.966780 -2.588054
v -0.631410 1.218546 -2.588054
v -0.632581 1.218546 -2.587963
v -0.641745 1.218546 -2.705338
v -0.641745 0.966780 -2.705338
v -0.632581 0.966780 -2.587963
v -0.641545 0.969670 -2.702777
v -0.641545 1.215657 -2.702777
v -0.632781 1.215657 -2.590524
v -0.632781 0.969670 -2.590524
v -0.636820 1.207315 -2.591908
v -0.645320 1.207315 -2.700783
v -0.645320 0.978011 -2.700783
v -0.636820 0.978011 -2.591908
v -0.636820 1.286206 -2.591908
v -0.645320 1.286206 -2.700783
v -0.645320 1.519180 -2.700783
v -0.636820 1.519180 -2.591908
v -0.632781 1.277864 -2.590524
v -0.632781 1.527521 -2.590524
v -0.641545 1.527522 -2.702777
v -0.641545 1.277864 -2.702777
v -0.632581 1.274975 -2.587963
v -0.641745 1.274975 -2.705338
v -0.641745 1.530411 -2.705338
v -0.632581 1.530411 -2.587963
v -0.631410 1.530411 -2.588054
v -0.631410 1.274975 -2.588054
v -0.640573 1.530411 -2.705430
v -0.640573 1.274975 -2.705430
v -0.631060 1.270721 -2.583572
v -0.640923 1.270721 -2.709912
v -0.631060 1.534665 -2.583572
v -0.640923 1.534665 -2.709912
v -0.629044 1.270721 -2.583730
v -0.629044 1.534665 -2.583730
v -0.638908 1.534665 -2.710069
v -0.638908 1.270721 -2.710069
v -0.656331 1.534665 -2.750540
v -0.656331 1.270721 -2.750540
v -0.639975 1.534665 -2.541045
v -0.639975 1.270721 -2.541045
v -0.625798 1.534665 -2.542151
v -0.625798 1.270721 -2.542151
v -0.642154 1.534665 -2.751647
v -0.642154 1.270721 -2.751647
v -0.653085 1.582580 -2.708962
v -0.643221 1.582580 -2.582623
v -0.629044 1.582580 -2.583730
v -0.638908 1.582580 -2.710069
v -0.629044 1.222804 -2.583730
v -0.638908 1.222804 -2.710069
v -0.656331 1.222804 -2.750540
v -0.656331 1.582580 -2.750540
v -0.639975 1.582580 -2.541045
v -0.639975 1.222804 -2.541045
v -0.625798 1.582580 -2.542151
v -0.625798 1.222804 -2.542151
v -0.642154 1.582580 -2.751647
v -0.642154 1.222804 -2.751647
vn 0.0000 1.0000 0.0000
vn -0.0778 0.0000 -0.9970
vn 0.0778 0.0000 0.9970
vn -0.9970 0.0000 0.0778
vn -0.0015 1.0000 0.0001
vn -0.0000 -1.0000 -0.0000
vn -0.0779 0.0000 -0.9970
vn 0.0779 0.0000 0.9970
vn -0.9024 0.4252 0.0705
vn -0.9024 -0.4252 0.0704
vn -0.3243 0.0000 0.9459
vn -0.4673 0.0000 -0.8841
vn -0.3243 0.0000 0.9460
vn -0.9024 -0.4252 0.0705
usemtl Window-frame-etc
s off
f 2//1 6//1 7//1 3//1
f 6//1 5//1 8//1 7//1
f 5//1 1//1 4//1 8//1
f 78//2 10//2 11//2 76//2
f 10//2 2//2 3//2 11//2
f 1//3 9//3 12//3 4//3
f 9//3 80//3 73//3 12//3
f 9//4 1//4 5//4 13//4
f 13//4 72//4 80//4 9//4
f 6//4 14//4 13//4 5//4
f 2//4 10//4 14//4 6//4
f 10//4 78//4 71//4 14//4
f 71//5 72//5 15//5 16//5
f 13//6 14//6 18//6 17//6
f 14//3 71//3 16//3 18//3
f 72//7 13//7 17//7 15//7
f 15//4 17//4 19//4 20//4
f 18//4 16//4 22//4 21//4
f 17//4 18//4 21//4 19//4
f 16//4 15//4 20//4 22//4
f 22//1 20//1 24//1 23//1
f 19//6 21//6 26//6 25//6
f 21//8 22//8 23//8 26//8
f 20//7 19//7 25//7 24//7
f 24//4 25//4 27//4 28//4
f 26//4 23//4 29//4 30//4
f 25//4 26//4 30//4 27//4
f 23//4 24//4 28//4 29//4
f 29//9 28//9 32//9 31//9
f 27//10 30//10 34//10 33//10
f 30//11 29//11 31//11 34//11
f 28//12 27//12 33//12 32//12
f 34//4 31//4 32//4 33//4
f 35//4 38//4 37//4 36//4
f 41//12 42//12 36//12 37//12
f 39//13 40//13 38//13 35//13
f 42//14 39//14 35//14 36//14
f 40//9 41//9 37//9 38//9
f 46//4 45//4 41//4 40//4
f 44//4 43//4 39//4 42//4
f 43//4 46//4 40//4 39//4
f 45//4 44//4 42//4 41//4
f 49//2 50//2 44//2 45//2
f 48//3 47//3 46//3 43//3
f 50//6 48//6 43//6 44//6
f 47//1 49//1 45//1 46//1
f 53//4 54//4 49//4 47//4
f 52//4 51//4 48//4 50//4
f 51//4 53//4 47//4 48//4
f 54//4 52//4 50//4 49//4
f 57//7 58//7 52//7 54//7
f 55//8 56//8 53//8 51//8
f 58//6 55//6 51//6 52//6
f 56//1 57//1 54//1 53//1
f 63//4 77//4 69//4 56//4
f 64//4 63//4 56//4 55//4
f 78//4 64//4 55//4 71//4
f 56//4 69//4 70//4 57//4
f 71//4 55//4 58//4 72//4
f 57//4 70//4 79//4 65//4
f 58//4 57//4 65//4 66//4
f 66//4 80//4 72//4 58//4
f 65//3 79//3 74//3 59//3
f 66//3 65//3 59//3 60//3
f 80//8 66//8 60//8 73//8
f 64//2 78//2 76//2 62//2
f 63//2 64//2 62//2 61//2
f 77//2 63//2 61//2 75//2
f 69//6 77//6 75//6 68//6
f 70//6 69//6 68//6 67//6
f 79//6 70//6 67//6 74//6
