# Blender v2.90.1 OBJ File: 'Country-Kitchen.blend'
# www.blender.org
mtllib Window-door-Right-panel.mtl
o Window-door-Right-panel_Plane.012
v 0.754009 0.914612 -2.542961
v 0.755950 0.914612 -2.753085
v 0.770169 0.914612 -2.752954
v 0.768229 0.914612 -2.542829
v 0.754394 0.914612 -2.584663
v 0.755564 0.914612 -2.711382
v 0.769784 0.914612 -2.711251
v 0.768614 0.914612 -2.584532
v 0.754009 0.962526 -2.542961
v 0.755950 0.962526 -2.753085
v 0.770169 0.962526 -2.752954
v 0.768229 0.962526 -2.542829
v 0.754394 0.962526 -2.584663
v 0.755564 0.962526 -2.711382
v 0.756416 1.222801 -2.584645
v 0.757586 1.222800 -2.711363
v 0.756416 0.962526 -2.584645
v 0.757586 0.962526 -2.711363
v 0.756457 0.966780 -2.589140
v 0.756457 1.218547 -2.589140
v 0.757545 0.966780 -2.706868
v 0.757545 1.218546 -2.706868
v 0.758720 1.218546 -2.706857
v 0.757633 1.218547 -2.589129
v 0.757633 0.966780 -2.589129
v 0.758720 0.966780 -2.706857
v 0.757657 0.969670 -2.591698
v 0.757657 1.215657 -2.591698
v 0.758696 1.215657 -2.704288
v 0.758696 0.969670 -2.704288
v 0.762599 1.207315 -2.702557
v 0.761590 1.207315 -2.593357
v 0.761590 0.978011 -2.593357
v 0.762599 0.978011 -2.702557
v 0.762599 1.286206 -2.702557
v 0.761590 1.286206 -2.593357
v 0.761590 1.519180 -2.593357
v 0.762599 1.519180 -2.702557
v 0.758696 1.277864 -2.704288
v 0.758696 1.527521 -2.704288
v 0.757657 1.527522 -2.591698
v 0.757657 1.277864 -2.591698
v 0.758720 1.274975 -2.706857
v 0.757633 1.274975 -2.589129
v 0.757633 1.530411 -2.589129
v 0.758720 1.530411 -2.706857
v 0.757545 1.530411 -2.706868
v 0.757545 1.274975 -2.706868
v 0.756457 1.530411 -2.589140
v 0.756457 1.274975 -2.589140
v 0.757586 1.270721 -2.711363
v 0.756416 1.270721 -2.584645
v 0.757586 1.534665 -2.711363
v 0.756416 1.534665 -2.584645
v 0.755564 1.270721 -2.711382
v 0.755564 1.534665 -2.711382
v 0.754394 1.534665 -2.584663
v 0.754394 1.270721 -2.584663
v 0.768229 1.534665 -2.542829
v 0.768229 1.270721 -2.542829
v 0.770169 1.534665 -2.752954
v 0.770169 1.270721 -2.752954
v 0.755950 1.534665 -2.753085
v 0.755950 1.270721 -2.753085
v 0.754009 1.534665 -2.542961
v 0.754009 1.270721 -2.542961
v 0.768614 1.582580 -2.584532
v 0.769784 1.582580 -2.711251
v 0.755564 1.582580 -2.711382
v 0.754394 1.582580 -2.584663
v 0.755564 1.222804 -2.711382
v 0.754394 1.222804 -2.584663
v 0.768229 1.222804 -2.542829
v 0.768229 1.582580 -2.542829
v 0.770169 1.582580 -2.752954
v 0.770169 1.222804 -2.752954
v 0.755950 1.582580 -2.753085
v 0.755950 1.222804 -2.753085
v 0.754009 1.582580 -2.542961
v 0.754009 1.222804 -2.542961
vn 0.0000 1.0000 0.0000
vn -0.0092 0.0000 1.0000
vn 0.0092 0.0000 -1.0000
vn 1.0000 0.0000 0.0092
vn 0.0015 1.0000 0.0000
vn -0.0000 -1.0000 0.0000
vn -0.0093 0.0000 1.0000
vn 0.0093 0.0000 -1.0000
vn 0.9051 0.4252 0.0084
vn 0.9051 -0.4252 0.0084
vn 0.4055 0.0000 -0.9141
vn 0.3885 0.0000 0.9214
vn 0.3885 0.0000 0.9215
vn 0.4054 0.0000 -0.9141
usemtl Window-frame-etc
s off
f 2//1 6//1 7//1 3//1
f 6//1 5//1 8//1 7//1
f 5//1 1//1 4//1 8//1
f 78//2 10//2 11//2 76//2
f 10//2 2//2 3//2 11//2
f 1//3 9//3 12//3 4//3
f 9//3 80//3 73//3 12//3
f 9//4 1//4 5//4 13//4
f 13//4 72//4 80//4 9//4
f 6//4 14//4 13//4 5//4
f 2//4 10//4 14//4 6//4
f 10//4 78//4 71//4 14//4
f 71//5 72//5 15//5 16//5
f 13//6 14//6 18//6 17//6
f 14//3 71//3 16//3 18//3
f 72//7 13//7 17//7 15//7
f 15//4 17//4 19//4 20//4
f 18//4 16//4 22//4 21//4
f 17//4 18//4 21//4 19//4
f 16//4 15//4 20//4 22//4
f 22//1 20//1 24//1 23//1
f 19//6 21//6 26//6 25//6
f 21//8 22//8 23//8 26//8
f 20//7 19//7 25//7 24//7
f 24//4 25//4 27//4 28//4
f 26//4 23//4 29//4 30//4
f 25//4 26//4 30//4 27//4
f 23//4 24//4 28//4 29//4
f 29//9 28//9 32//9 31//9
f 27//10 30//10 34//10 33//10
f 30//11 29//11 31//11 34//11
f 28//12 27//12 33//12 32//12
f 34//4 31//4 32//4 33//4
f 35//4 38//4 37//4 36//4
f 41//13 42//13 36//13 37//13
f 39//14 40//14 38//14 35//14
f 42//10 39//10 35//10 36//10
f 40//9 41//9 37//9 38//9
f 46//4 45//4 41//4 40//4
f 44//4 43//4 39//4 42//4
f 43//4 46//4 40//4 39//4
f 45//4 44//4 42//4 41//4
f 49//7 50//7 44//7 45//7
f 48//8 47//8 46//8 43//8
f 50//6 48//6 43//6 44//6
f 47//1 49//1 45//1 46//1
f 53//4 54//4 49//4 47//4
f 52//4 51//4 48//4 50//4
f 51//4 53//4 47//4 48//4
f 54//4 52//4 50//4 49//4
f 57//2 58//2 52//2 54//2
f 55//8 56//8 53//8 51//8
f 58//6 55//6 51//6 52//6
f 56//1 57//1 54//1 53//1
f 63//4 77//4 69//4 56//4
f 64//4 63//4 56//4 55//4
f 78//4 64//4 55//4 71//4
f 56//4 69//4 70//4 57//4
f 71//4 55//4 58//4 72//4
f 57//4 70//4 79//4 65//4
f 58//4 57//4 65//4 66//4
f 66//4 80//4 72//4 58//4
f 65//3 79//3 74//3 59//3
f 66//3 65//3 59//3 60//3
f 80//3 66//3 60//3 73//3
f 64//2 78//2 76//2 62//2
f 63//2 64//2 62//2 61//2
f 77//2 63//2 61//2 75//2
f 69//6 77//6 75//6 68//6
f 70//6 69//6 68//6 67//6
f 79//6 70//6 67//6 74//6
