# Blender v2.90.1 OBJ File: 'Country-Kitchen.blend'
# www.blender.org
mtllib window-trim-Left.mtl
o window-trim-Left_Plane.016
v 0.757757 0.850695 -2.784113
v 0.745073 0.850695 -2.791705
v 0.753865 0.850695 -2.784113
v 0.745073 0.850695 -2.793719
v 0.745968 0.850695 -2.789771
v 0.749860 0.850695 -2.788062
v 0.753865 0.850695 -2.788062
v 0.747698 0.850695 -2.788367
v 0.749897 0.850695 -2.789771
v 0.749897 0.850695 -2.793719
v 0.749897 0.850695 -2.791705
v 0.753851 0.850695 -2.791705
v 0.753851 0.850695 -2.793719
v 0.753851 0.850695 -2.789771
v 0.757772 0.850695 -2.788060
v 0.757772 0.850695 -2.789771
v 0.757772 0.850695 -2.793719
v 0.757772 0.850695 -2.791705
v 0.757772 3.079309 -2.791705
v 0.757772 3.079309 -2.793719
v 0.757772 3.079309 -2.789771
v 0.757772 3.079309 -2.788060
v 0.753851 3.079309 -2.789771
v 0.753851 3.079309 -2.793719
v 0.753851 3.079309 -2.791705
v 0.749897 3.079309 -2.791705
v 0.749897 3.079309 -2.793719
v 0.749897 3.079309 -2.789771
v 0.747698 3.079309 -2.788367
v 0.753865 3.079309 -2.788062
v 0.749860 3.079309 -2.788062
v 0.745968 3.079309 -2.789771
v 0.745073 3.079309 -2.793719
v 0.753865 3.079309 -2.784113
v 0.745073 3.079309 -2.791705
v 0.757757 3.079309 -2.784113
v 0.757757 0.850695 -2.784113
v 0.757757 0.850695 -2.784113
v 0.753865 0.850695 -2.784113
v 0.753865 0.850695 -2.784113
v 0.745073 0.850695 -2.791705
v 0.745073 0.850695 -2.791705
v 0.745073 0.850695 -2.791705
v 0.745073 0.850695 -2.793719
v 0.745073 0.850695 -2.793719
v 0.745968 0.850695 -2.789771
v 0.749860 0.850695 -2.788062
v 0.753865 0.850695 -2.788062
v 0.753865 0.850695 -2.788062
v 0.747698 0.850695 -2.788367
v 0.747698 0.850695 -2.788367
v 0.749897 0.850695 -2.791705
v 0.749897 0.850695 -2.793719
v 0.753851 0.850695 -2.793719
v 0.753851 0.850695 -2.791705
v 0.757772 0.850695 -2.788060
v 0.757772 0.850695 -2.789771
v 0.757772 0.850695 -2.791705
v 0.757772 0.850695 -2.791705
v 0.757772 0.850695 -2.791705
v 0.757772 0.850695 -2.793719
v 0.757772 0.850695 -2.793719
v 0.757757 3.079309 -2.784113
v 0.757757 3.079309 -2.784113
v 0.757772 3.079309 -2.788060
v 0.757772 3.079309 -2.793719
v 0.757772 3.079309 -2.793719
v 0.757772 3.079309 -2.791705
v 0.757772 3.079309 -2.791705
v 0.757772 3.079309 -2.791705
v 0.753851 3.079309 -2.793719
v 0.757772 3.079309 -2.789771
v 0.749897 3.079309 -2.793719
v 0.745073 3.079309 -2.793719
v 0.745073 3.079309 -2.793719
v 0.747698 3.079309 -2.788367
v 0.747698 3.079309 -2.788367
v 0.745968 3.079309 -2.789771
v 0.749860 3.079309 -2.788062
v 0.753865 3.079309 -2.788062
v 0.753865 3.079309 -2.788062
v 0.753865 3.079309 -2.784113
v 0.753865 3.079309 -2.784113
v 0.745073 3.079309 -2.791705
v 0.745073 3.079309 -2.791705
v 0.745073 3.079309 -2.791705
v 0.749897 3.079309 -2.791705
v 0.753851 3.079309 -2.791705
vn 0.0000 -1.0000 0.0000
vn 0.0000 1.0000 0.0000
vn 1.0000 0.0000 0.0019
vn 1.0000 0.0000 0.0038
vn -1.0000 0.0000 0.0000
vn 0.0000 0.0000 1.0000
vn 1.0000 0.0000 0.0000
vn -0.6299 0.0000 0.7767
vn -0.7892 0.0000 0.6142
vn -0.0701 0.0000 0.9975
vn -0.1398 0.0000 0.9901
vn -0.9076 0.0000 0.4198
usemtl Clay-Shader-white
s 1
f 42//1 52//1 9//1 46//1
f 41//2 11//2 53//2 44//2
f 11//2 55//2 54//2 53//2
f 52//1 12//1 14//1 9//1
f 12//1 58//1 57//1 14//1
f 55//2 59//2 61//2 54//2
f 47//1 9//1 14//1 48//1
f 47//1 50//1 46//1 9//1
f 48//1 14//1 57//1 56//1
f 37//1 39//1 48//1 56//1
f 15//3 65//3 63//4 38//4
f 60//5 68//5 66//5 62//5
f 17//6 67//6 71//6 13//6
f 18//7 69//7 72//7 16//7
f 16//7 72//7 65//3 15//3
f 13//6 71//6 73//6 10//6
f 10//6 73//6 74//6 45//6
f 51//8 76//8 78//9 5//9
f 6//10 79//10 77//11 8//11
f 40//5 82//5 80//5 49//5
f 7//6 81//6 79//10 6//10
f 5//9 78//9 84//12 43//12
f 4//7 75//7 85//7 2//7
f 1//6 64//6 83//6 3//6
f 28//2 87//2 86//2 32//2
f 27//1 26//1 35//1 33//1
f 24//1 88//1 26//1 27//1
f 23//2 25//2 87//2 28//2
f 21//2 70//2 25//2 23//2
f 20//1 19//1 88//1 24//1
f 23//2 28//2 31//2 30//2
f 32//2 29//2 31//2 28//2
f 21//2 23//2 30//2 22//2
f 30//2 34//2 36//2 22//2
