# Blender v2.90.1 OBJ File: 'Country-Kitchen.blend'
# www.blender.org
mtllib Window-wood-trim.mtl
o Window-wood-trim_Plane.003
v -0.769023 0.847254 -2.447575
v 0.883442 0.847254 -2.447575
v -0.769023 0.847254 -2.452359
v 0.883442 0.847254 -2.452359
v -0.769023 0.847254 -2.457602
v 0.883442 0.847254 -2.457602
v -0.769023 0.847254 -2.475674
v 0.883442 0.847254 -2.475674
v -0.769023 0.847254 -2.493746
v 0.883442 0.847254 -2.493746
v -0.769023 0.847254 -2.509527
v 0.883442 0.847254 -2.509527
v -0.769023 0.847254 -2.516602
v 0.883442 0.847254 -2.516602
v -0.769023 0.847254 -2.784114
v 0.883442 0.847254 -2.784114
v -0.750951 0.847254 -2.447575
v 0.865370 0.847254 -2.447575
v -0.643435 0.847254 -2.784114
v 0.757855 0.847254 -2.784114
v -0.650052 0.847254 -2.784114
v 0.764471 0.847254 -2.784114
v -0.681870 0.847254 -2.784114
v 0.796290 0.847254 -2.784114
v -0.705899 0.847254 -2.784114
v 0.820318 0.847254 -2.784114
v -0.719847 0.847254 -2.784114
v 0.834266 0.847254 -2.784114
v -0.732421 0.847254 -2.784114
v 0.846840 0.847254 -2.784114
v -0.750951 0.847254 -2.784114
v 0.865370 0.847254 -2.784114
v -0.750951 0.847254 -2.516602
v 0.865370 0.847254 -2.516602
v -0.732421 0.847254 -2.516602
v 0.846840 0.847254 -2.516602
v -0.719847 0.847254 -2.516602
v 0.834266 0.847254 -2.516602
v -0.705899 0.847254 -2.516602
v 0.820318 0.847254 -2.516602
v -0.681870 0.847254 -2.516602
v 0.796290 0.847254 -2.516602
v -0.650052 0.847254 -2.516602
v 0.764471 0.847254 -2.516602
v -0.643435 0.847254 -2.516602
v 0.757855 0.847254 -2.516602
v -0.650052 0.847254 -2.509527
v 0.764471 0.847254 -2.509527
v -0.681870 0.847254 -2.509527
v 0.796290 0.847254 -2.509527
v -0.705899 0.847254 -2.509527
v 0.820318 0.847254 -2.509527
v -0.719847 0.847254 -2.509527
v 0.834266 0.847254 -2.509527
v -0.732421 0.847254 -2.509527
v 0.846840 0.847254 -2.509527
v -0.750951 0.847254 -2.509527
v 0.865370 0.847254 -2.509527
v -0.750951 0.847254 -2.493746
v 0.865370 0.847254 -2.493746
v -0.732421 0.847254 -2.493746
v 0.846840 0.847254 -2.493746
v -0.719847 0.847254 -2.493746
v 0.834266 0.847254 -2.493746
v -0.705899 0.847254 -2.493746
v 0.820318 0.847254 -2.493746
v -0.681870 0.847254 -2.501535
v 0.796290 0.847254 -2.501535
v -0.705899 0.847254 -2.475674
v 0.820318 0.847254 -2.475674
v -0.719847 0.847254 -2.475674
v 0.834266 0.847254 -2.475674
v -0.732421 0.847254 -2.475674
v 0.846840 0.847254 -2.475674
v -0.750951 0.847254 -2.475674
v 0.865370 0.847254 -2.475674
v -0.721222 0.847254 -2.457602
v 0.835641 0.847254 -2.457602
v -0.732421 0.847254 -2.457602
v 0.846840 0.847254 -2.457602
v -0.750951 0.847254 -2.457602
v 0.865370 0.847254 -2.457602
v -0.750951 0.847254 -2.452359
v 0.865370 0.847254 -2.452359
v -0.732879 0.847254 -2.452359
v 0.847298 0.847254 -2.452359
v -0.732879 3.092896 -2.452359
v 0.847298 3.092896 -2.452359
v 0.865370 3.110826 -2.452359
v -0.732421 3.092441 -2.457602
v 0.846840 3.092441 -2.457602
v 0.835641 3.081330 -2.457602
v -0.719847 3.079966 -2.475674
v -0.705899 3.066128 -2.475674
v 0.820318 3.066128 -2.475674
v -0.681870 3.042287 -2.501535
v 0.796290 3.042287 -2.501535
v 0.820318 3.066128 -2.493746
v 0.796290 3.042287 -2.509527
v 0.757854 3.004154 -2.516602
v 0.764471 3.010719 -2.516602
v -0.750951 3.110826 -2.784114
v 0.846840 3.092441 -2.784114
v -0.719847 3.079966 -2.784114
v -0.705899 3.066128 -2.784114
v -0.681870 3.042287 -2.784114
v 0.796290 3.042287 -2.784114
v -0.643435 3.004154 -2.784114
v -0.750951 3.110826 -2.447575
v 0.883442 3.128756 -2.784114
v -0.769023 3.128756 -2.509527
v 0.883442 3.128756 -2.493746
v -0.769023 3.128756 -2.475674
v 0.883442 3.128756 -2.475674
v -0.769023 3.128756 -2.457602
v -0.769023 3.128756 -2.452359
v -0.769023 3.128756 -2.447575
v -0.750951 1.584978 -2.447575
v 0.865370 1.584978 -2.447575
v -0.750951 1.584978 -2.452359
v 0.865370 1.584978 -2.452359
v -0.732879 1.584978 -2.452359
v 0.847298 1.584978 -2.452359
v -0.732421 1.584978 -2.457602
v 0.846840 1.584978 -2.457602
v -0.721222 1.584978 -2.457602
v 0.835641 1.584978 -2.457602
v -0.719847 1.584978 -2.475674
v 0.834266 1.584978 -2.475674
v -0.705899 1.584978 -2.475674
v 0.820318 1.584978 -2.475674
v -0.705899 1.584978 -2.493746
v 0.820318 1.584978 -2.493746
v -0.681870 1.584978 -2.501535
v 0.796290 1.584978 -2.501535
v -0.681870 1.584978 -2.509527
v 0.796290 1.584978 -2.509527
v -0.650052 1.584978 -2.509527
v 0.764471 1.584978 -2.509527
v -0.650052 1.584978 -2.516602
v 0.764471 1.584978 -2.516602
v -0.643435 1.584978 -2.516602
v 0.757855 1.584978 -2.516602
v -0.643435 1.584978 -2.784114
v 0.757855 1.584978 -2.784114
v -0.750951 1.584978 -2.784114
v 0.865370 1.584978 -2.784114
v -0.769023 1.584978 -2.784114
v 0.883442 1.584978 -2.784114
v -0.732421 1.584978 -2.784114
v 0.846840 1.584978 -2.784114
v -0.719847 1.584978 -2.784114
v 0.834266 1.584978 -2.784114
v -0.705899 1.584978 -2.784114
v 0.820318 1.584978 -2.784114
v -0.681870 1.584978 -2.784114
v 0.796290 1.584978 -2.784114
v -0.650052 1.584978 -2.784114
v 0.764471 1.584978 -2.784114
v -0.769023 1.584978 -2.447575
v 0.883442 1.584978 -2.447575
v -0.769023 1.584978 -2.516602
v 0.883442 1.584978 -2.516602
v -0.769023 1.584978 -2.509527
v 0.883442 1.584978 -2.509527
v -0.769023 1.584978 -2.493746
v 0.883442 1.584978 -2.493746
v -0.769023 1.584978 -2.475674
v 0.883442 1.584978 -2.475674
v -0.769023 1.584978 -2.457602
v 0.883442 1.584978 -2.457602
v -0.769023 1.584978 -2.452359
v 0.883442 1.584978 -2.452359
v -0.750951 0.911170 -2.447575
v 0.865370 0.911170 -2.447575
v -0.750951 0.911170 -2.452359
v 0.865370 0.911170 -2.452359
v -0.732879 0.911170 -2.452359
v 0.847298 0.911170 -2.452359
v -0.732421 0.911170 -2.457602
v 0.846840 0.911170 -2.457602
v -0.721222 0.911170 -2.457602
v 0.835641 0.911170 -2.457602
v -0.719847 0.911170 -2.475674
v 0.834266 0.911170 -2.475674
v -0.705899 0.911170 -2.475674
v 0.820318 0.911170 -2.475674
v -0.705899 0.911170 -2.493746
v 0.820318 0.911170 -2.493746
v -0.681870 0.911170 -2.501535
v 0.796290 0.911170 -2.501535
v -0.681870 0.911170 -2.509527
v 0.796290 0.911170 -2.509527
v -0.650052 0.911170 -2.509527
v 0.764471 0.911170 -2.509527
v -0.650052 0.911170 -2.516602
v 0.764471 0.911170 -2.516602
v -0.643435 0.911170 -2.516602
v 0.757855 0.911170 -2.516602
v -0.643435 0.911170 -2.784114
v 0.757855 0.911170 -2.784114
v -0.750951 0.911170 -2.784114
v 0.865370 0.911170 -2.784114
v -0.769023 0.911170 -2.784114
v 0.883442 0.911170 -2.784114
v -0.732421 0.911170 -2.784114
v 0.846840 0.911170 -2.784114
v -0.719847 0.911170 -2.784114
v 0.834266 0.911170 -2.784114
v -0.705899 0.911170 -2.784114
v 0.820318 0.911170 -2.784114
v -0.681870 0.911170 -2.784114
v 0.796290 0.911170 -2.784114
v -0.650052 0.911170 -2.784114
v 0.764471 0.911170 -2.784114
v -0.769023 0.911170 -2.447575
v 0.883442 0.911170 -2.447575
v -0.769023 0.911170 -2.516602
v 0.883442 0.911170 -2.516602
v -0.769023 0.911170 -2.509527
v 0.883442 0.911170 -2.509527
v -0.769023 0.911170 -2.493746
v 0.883442 0.911170 -2.493746
v -0.769023 0.911170 -2.475674
v 0.883442 0.911170 -2.475674
v -0.769023 0.911170 -2.457602
v 0.883442 0.911170 -2.457602
v -0.769023 0.911170 -2.452359
v 0.883442 0.911170 -2.452359
v -0.769023 0.847254 -2.539369
v 0.883442 0.847254 -2.539369
v -0.750951 0.847254 -2.539369
v 0.865370 0.847254 -2.539369
v -0.732421 0.847254 -2.539369
v 0.846840 0.847254 -2.539369
v -0.719847 0.847254 -2.539369
v 0.834266 0.847254 -2.539369
v -0.705899 0.847254 -2.539369
v 0.820318 0.847254 -2.539369
v -0.681870 0.847254 -2.539369
v 0.796290 0.847254 -2.539369
v -0.650052 0.847254 -2.539369
v 0.764471 0.847254 -2.539369
v -0.643435 0.847254 -2.539369
v 0.757855 0.847254 -2.539369
v 0.757854 3.004154 -2.539369
v -0.769023 3.128756 -2.539369
v -0.643435 1.584978 -2.539369
v 0.757855 1.584978 -2.539369
v -0.769023 1.584978 -2.539369
v 0.883442 1.584978 -2.539369
v -0.643435 0.911170 -2.539369
v 0.757855 0.911170 -2.539369
v -0.769023 0.911170 -2.539369
v 0.883442 0.911170 -2.539369
v -0.769023 0.847254 -2.753940
v 0.883442 0.847254 -2.753940
v -0.750951 0.847254 -2.753940
v 0.865370 0.847254 -2.753940
v -0.732421 0.847254 -2.753940
v 0.846840 0.847254 -2.753940
v -0.719847 0.847254 -2.753940
v 0.834266 0.847254 -2.753940
v -0.705899 0.847254 -2.753940
v 0.820318 0.847254 -2.753940
v -0.681870 0.847254 -2.753940
v 0.796290 0.847254 -2.753940
v -0.650052 0.847254 -2.753940
v 0.764471 0.847254 -2.753940
v -0.643435 0.847254 -2.753940
v 0.757855 0.847254 -2.753940
v -0.643435 3.004154 -2.753940
v 0.757854 3.004154 -2.753940
v -0.769023 3.128756 -2.753940
v -0.643435 1.584978 -2.753940
v 0.757855 1.584978 -2.753940
v -0.769023 1.584978 -2.753940
v 0.883442 1.584978 -2.753940
v -0.643435 0.911170 -2.753940
v 0.757855 0.911170 -2.753940
v -0.769023 0.911170 -2.753940
v 0.883442 0.911170 -2.753940
v -0.666661 1.584978 -2.753940
v 0.781080 1.584978 -2.753940
v -0.666661 0.911170 -2.753940
v 0.781080 0.911170 -2.753940
v -0.666661 0.911170 -2.539369
v 0.781080 0.911170 -2.539369
v -0.666661 1.584978 -2.539369
v 0.781080 1.584978 -2.539369
v -0.666661 3.027194 -2.539369
v 0.781080 3.027194 -2.539369
v -0.666661 3.027194 -2.753940
v 0.781080 3.027194 -2.753940
v 0.883442 3.128756 -2.753940
v 0.883442 3.128756 -2.539369
v -0.643435 3.004154 -2.539369
v 0.883442 3.128756 -2.447575
v 0.883442 3.128756 -2.452359
v 0.883442 3.128756 -2.457602
v -0.769023 3.128756 -2.493746
v 0.883442 3.128756 -2.509527
v -0.769023 3.128756 -2.516602
v 0.883442 3.128756 -2.516602
v -0.769023 3.128756 -2.784114
v 0.865370 3.110826 -2.447575
v 0.757854 3.004154 -2.784114
v -0.650052 3.010719 -2.784114
v 0.764471 3.010719 -2.784114
v 0.820318 3.066128 -2.784114
v 0.834266 3.079966 -2.784114
v -0.732421 3.092441 -2.784114
v 0.865370 3.110826 -2.784114
v -0.650052 3.010719 -2.516602
v -0.643435 3.004154 -2.516602
v -0.650052 3.010719 -2.509527
v 0.764471 3.010719 -2.509527
v -0.681870 3.042287 -2.509527
v -0.705899 3.066128 -2.493746
v 0.834266 3.079966 -2.475674
v -0.721222 3.081330 -2.457602
v -0.750951 3.110826 -2.452359
vn 0.0000 1.0000 0.0000
vn -1.0000 -0.0000 0.0000
vn 1.0000 -0.0000 0.0000
vn -0.9962 0.0000 -0.0871
vn 0.9962 0.0000 -0.0871
vn -0.9971 0.0000 -0.0758
vn 0.9971 0.0000 -0.0758
vn 0.0000 0.0000 -1.0000
vn -0.3084 0.0000 -0.9513
vn 0.3084 0.0000 -0.9513
vn -0.0000 0.0000 1.0000
vn 0.0000 -1.0000 0.0000
vn 0.0000 0.9962 -0.0865
vn 0.0000 0.9972 -0.0753
vn 0.0000 0.3106 -0.9505
usemtl Window-frame-etc
s off
f 11//1 57//1 33//1 13//1
f 34//1 58//1 12//1 14//1
f 57//1 55//1 35//1 33//1
f 36//1 56//1 58//1 34//1
f 55//1 53//1 37//1 35//1
f 38//1 54//1 56//1 36//1
f 53//1 51//1 39//1 37//1
f 40//1 52//1 54//1 38//1
f 51//1 49//1 41//1 39//1
f 42//1 50//1 52//1 40//1
f 49//1 47//1 43//1 41//1
f 44//1 48//1 50//1 42//1
f 9//1 59//1 57//1 11//1
f 58//1 60//1 10//1 12//1
f 59//1 61//1 55//1 57//1
f 56//1 62//1 60//1 58//1
f 61//1 63//1 53//1 55//1
f 54//1 64//1 62//1 56//1
f 63//1 65//1 51//1 53//1
f 52//1 66//1 64//1 54//1
f 65//1 67//1 49//1 51//1
f 50//1 68//1 66//1 52//1
f 7//1 75//1 59//1 9//1
f 60//1 76//1 8//1 10//1
f 75//1 73//1 61//1 59//1
f 62//1 74//1 76//1 60//1
f 73//1 71//1 63//1 61//1
f 64//1 72//1 74//1 62//1
f 71//1 69//1 65//1 63//1
f 66//1 70//1 72//1 64//1
f 5//1 81//1 75//1 7//1
f 76//1 82//1 6//1 8//1
f 81//1 79//1 73//1 75//1
f 74//1 80//1 82//1 76//1
f 79//1 77//1 71//1 73//1
f 72//1 78//1 80//1 74//1
f 3//1 83//1 81//1 5//1
f 82//1 84//1 4//1 6//1
f 83//1 85//1 79//1 81//1
f 80//1 86//1 84//1 82//1
f 1//1 17//1 83//1 3//1
f 84//1 18//1 2//1 4//1
f 118//2 109//2 322//2 120//2
f 89//3 306//3 119//3 121//3
f 122//4 87//4 90//4 124//4
f 91//5 88//5 123//5 125//5
f 126//6 321//6 93//6 128//6
f 320//7 92//7 127//7 129//7
f 130//2 94//2 319//2 132//2
f 98//3 95//3 131//3 133//3
f 134//2 96//2 318//2 136//2
f 99//3 97//3 135//3 137//3
f 138//2 316//2 314//2 140//2
f 101//3 317//3 139//3 141//3
f 120//8 322//8 87//8 122//8
f 88//8 89//8 121//8 123//8
f 124//8 90//8 321//8 126//8
f 92//8 91//8 125//8 127//8
f 128//8 93//8 94//8 130//8
f 95//8 320//8 129//8 131//8
f 132//9 319//9 96//9 134//9
f 97//10 98//10 133//10 135//10
f 136//8 318//8 316//8 138//8
f 317//8 99//8 137//8 139//8
f 140//8 314//8 315//8 142//8
f 100//8 101//8 141//8 143//8
f 146//11 102//11 305//11 148//11
f 110//11 313//11 147//11 149//11
f 150//11 312//11 102//11 146//11
f 313//11 103//11 151//11 147//11
f 152//11 104//11 312//11 150//11
f 103//11 311//11 153//11 151//11
f 154//11 105//11 104//11 152//11
f 311//11 310//11 155//11 153//11
f 156//11 106//11 105//11 154//11
f 310//11 107//11 157//11 155//11
f 158//11 308//11 106//11 156//11
f 107//11 309//11 159//11 157//11
f 144//11 108//11 308//11 158//11
f 309//11 307//11 145//11 159//11
f 160//8 117//8 109//8 118//8
f 306//8 298//8 161//8 119//8
f 162//3 303//3 111//3 164//3
f 302//2 304//2 163//2 165//2
f 164//3 111//3 301//3 166//3
f 112//2 302//2 165//2 167//2
f 166//3 301//3 113//3 168//3
f 114//2 112//2 167//2 169//2
f 168//3 113//3 115//3 170//3
f 300//2 114//2 169//2 171//2
f 170//3 115//3 116//3 172//3
f 299//2 300//2 171//2 173//2
f 172//3 116//3 117//3 160//3
f 298//2 299//2 173//2 161//2
f 17//2 174//2 176//2 83//2
f 177//3 175//3 18//3 84//3
f 174//2 118//2 120//2 176//2
f 121//3 119//3 175//3 177//3
f 85//4 178//4 180//4 79//4
f 181//5 179//5 86//5 80//5
f 178//4 122//4 124//4 180//4
f 125//5 123//5 179//5 181//5
f 77//6 182//6 184//6 71//6
f 185//7 183//7 78//7 72//7
f 182//6 126//6 128//6 184//6
f 129//7 127//7 183//7 185//7
f 69//2 186//2 188//2 65//2
f 189//3 187//3 70//3 66//3
f 186//2 130//2 132//2 188//2
f 133//3 131//3 187//3 189//3
f 67//2 190//2 192//2 49//2
f 193//3 191//3 68//3 50//3
f 190//2 134//2 136//2 192//2
f 137//3 135//3 191//3 193//3
f 47//2 194//2 196//2 43//2
f 197//3 195//3 48//3 44//3
f 194//2 138//2 140//2 196//2
f 141//3 139//3 195//3 197//3
f 83//8 176//8 178//8 85//8
f 179//8 177//8 84//8 86//8
f 176//8 120//8 122//8 178//8
f 123//8 121//8 177//8 179//8
f 79//8 180//8 182//8 77//8
f 183//8 181//8 80//8 78//8
f 180//8 124//8 126//8 182//8
f 127//8 125//8 181//8 183//8
f 71//8 184//8 186//8 69//8
f 187//8 185//8 72//8 70//8
f 184//8 128//8 130//8 186//8
f 131//8 129//8 185//8 187//8
f 65//9 188//9 190//9 67//9
f 191//10 189//10 66//10 68//10
f 188//9 132//9 134//9 190//9
f 135//10 133//10 189//10 191//10
f 49//8 192//8 194//8 47//8
f 195//8 193//8 50//8 48//8
f 192//8 136//8 138//8 194//8
f 139//8 137//8 193//8 195//8
f 43//8 196//8 198//8 45//8
f 199//8 197//8 44//8 46//8
f 196//8 140//8 142//8 198//8
f 143//8 141//8 197//8 199//8
f 31//11 202//11 204//11 15//11
f 205//11 203//11 32//11 16//11
f 202//11 146//11 148//11 204//11
f 149//11 147//11 203//11 205//11
f 29//11 206//11 202//11 31//11
f 203//11 207//11 30//11 32//11
f 206//11 150//11 146//11 202//11
f 147//11 151//11 207//11 203//11
f 27//11 208//11 206//11 29//11
f 207//11 209//11 28//11 30//11
f 208//11 152//11 150//11 206//11
f 151//11 153//11 209//11 207//11
f 25//11 210//11 208//11 27//11
f 209//11 211//11 26//11 28//11
f 210//11 154//11 152//11 208//11
f 153//11 155//11 211//11 209//11
f 23//11 212//11 210//11 25//11
f 211//11 213//11 24//11 26//11
f 212//11 156//11 154//11 210//11
f 155//11 157//11 213//11 211//11
f 21//11 214//11 212//11 23//11
f 213//11 215//11 22//11 24//11
f 214//11 158//11 156//11 212//11
f 157//11 159//11 215//11 213//11
f 19//11 200//11 214//11 21//11
f 215//11 201//11 20//11 22//11
f 200//11 144//11 158//11 214//11
f 159//11 145//11 201//11 215//11
f 1//8 216//8 174//8 17//8
f 175//8 217//8 2//8 18//8
f 216//8 160//8 118//8 174//8
f 119//8 161//8 217//8 175//8
f 13//3 218//3 220//3 11//3
f 221//2 219//2 14//2 12//2
f 218//3 162//3 164//3 220//3
f 165//2 163//2 219//2 221//2
f 11//3 220//3 222//3 9//3
f 223//2 221//2 12//2 10//2
f 220//3 164//3 166//3 222//3
f 167//2 165//2 221//2 223//2
f 9//3 222//3 224//3 7//3
f 225//2 223//2 10//2 8//2
f 222//3 166//3 168//3 224//3
f 169//2 167//2 223//2 225//2
f 7//3 224//3 226//3 5//3
f 227//2 225//2 8//2 6//2
f 224//3 168//3 170//3 226//3
f 171//2 169//2 225//2 227//2
f 5//3 226//3 228//3 3//3
f 229//2 227//2 6//2 4//2
f 226//3 170//3 172//3 228//3
f 173//2 171//2 227//2 229//2
f 216//3 1//3 3//3 228//3
f 4//2 2//2 217//2 229//2
f 228//3 172//3 160//3 216//3
f 161//2 173//2 229//2 217//2
f 33//1 232//1 230//1 13//1
f 231//1 233//1 34//1 14//1
f 35//1 234//1 232//1 33//1
f 233//1 235//1 36//1 34//1
f 37//1 236//1 234//1 35//1
f 235//1 237//1 38//1 36//1
f 39//1 238//1 236//1 37//1
f 237//1 239//1 40//1 38//1
f 41//1 240//1 238//1 39//1
f 239//1 241//1 42//1 40//1
f 43//1 242//1 240//1 41//1
f 241//1 243//1 44//1 42//1
f 45//1 244//1 242//1 43//1
f 243//1 245//1 46//1 44//1
f 315//2 297//2 248//2 142//2
f 249//3 246//3 100//3 143//3
f 247//3 303//3 162//3 250//3
f 163//2 304//2 296//2 251//2
f 198//2 252//2 244//2 45//2
f 245//3 253//3 199//3 46//3
f 142//2 248//2 252//2 198//2
f 253//3 249//3 143//3 199//3
f 254//3 218//3 13//3 230//3
f 14//2 219//2 255//2 231//2
f 250//3 162//3 218//3 254//3
f 219//2 163//2 251//2 255//2
f 232//1 258//1 256//1 230//1
f 257//1 259//1 233//1 231//1
f 258//1 31//1 15//1 256//1
f 16//1 32//1 259//1 257//1
f 234//1 260//1 258//1 232//1
f 259//1 261//1 235//1 233//1
f 260//1 29//1 31//1 258//1
f 32//1 30//1 261//1 259//1
f 236//1 262//1 260//1 234//1
f 261//1 263//1 237//1 235//1
f 262//1 27//1 29//1 260//1
f 30//1 28//1 263//1 261//1
f 238//1 264//1 262//1 236//1
f 263//1 265//1 239//1 237//1
f 264//1 25//1 27//1 262//1
f 28//1 26//1 265//1 263//1
f 240//1 266//1 264//1 238//1
f 265//1 267//1 241//1 239//1
f 266//1 23//1 25//1 264//1
f 26//1 24//1 267//1 265//1
f 242//1 268//1 266//1 240//1
f 267//1 269//1 243//1 241//1
f 268//1 21//1 23//1 266//1
f 24//1 22//1 269//1 267//1
f 244//1 270//1 268//1 242//1
f 269//1 271//1 245//1 243//1
f 270//1 19//1 21//1 268//1
f 22//1 20//1 271//1 269//1
f 272//2 108//2 144//2 275//2
f 145//3 307//3 273//3 276//3
f 305//3 274//3 277//3 148//3
f 278//2 295//2 110//2 149//2
f 274//3 247//3 250//3 277//3
f 251//2 296//2 295//2 278//2
f 252//2 279//2 270//2 244//2
f 271//3 280//3 253//3 245//3
f 279//2 200//2 19//2 270//2
f 20//3 201//3 280//3 271//3
f 275//2 144//2 200//2 279//2
f 201//3 145//3 276//3 280//3
f 204//3 281//3 256//3 15//3
f 257//2 282//2 205//2 16//2
f 281//3 254//3 230//3 256//3
f 231//2 255//2 282//2 257//2
f 148//3 277//3 281//3 204//3
f 282//2 278//2 149//2 205//2
f 277//3 250//3 254//3 281//3
f 255//2 251//2 278//2 282//2
f 275//8 279//8 285//8 283//8
f 286//8 280//8 276//8 284//8
f 279//12 252//12 287//12 285//12
f 288//12 253//12 280//12 286//12
f 252//11 248//11 289//11 287//11
f 290//11 249//11 253//11 288//11
f 297//11 291//11 289//11 248//11
f 290//11 292//11 246//11 249//11
f 272//8 275//8 283//8 293//8
f 284//8 276//8 273//8 294//8
f 283//2 289//2 291//2 293//2
f 292//3 290//3 284//3 294//3
f 283//2 285//2 287//2 289//2
f 288//3 286//3 284//3 290//3
f 274//12 295//12 296//12 247//12
f 274//12 305//12 110//12 295//12
f 247//12 296//12 304//12 303//12
f 111//12 303//12 304//12 302//12
f 301//12 111//12 302//12 112//12
f 113//12 301//12 112//12 114//12
f 115//12 113//12 114//12 300//12
f 116//12 115//12 300//12 299//12
f 117//12 116//12 299//12 298//12
f 117//8 298//8 306//8 109//8
f 109//1 306//1 89//1 322//1
f 322//8 89//8 88//8 87//8
f 90//13 87//13 88//13 91//13
f 321//8 90//8 91//8 92//8
f 93//14 321//14 92//14 320//14
f 94//8 93//8 320//8 95//8
f 319//1 94//1 95//1 98//1
f 319//15 98//15 97//15 96//15
f 318//1 96//1 97//1 99//1
f 316//8 318//8 99//8 317//8
f 314//1 316//1 317//1 101//1
f 314//8 101//8 100//8 315//8
f 297//1 315//1 100//1 246//1
f 291//11 297//11 246//11 292//11
f 293//1 291//1 292//1 294//1
f 293//8 294//8 273//8 272//8
f 272//1 273//1 307//1 108//1
f 108//11 307//11 309//11 308//11
f 308//11 309//11 107//11 106//11
f 106//11 107//11 310//11 105//11
f 105//11 310//11 311//11 104//11
f 104//11 311//11 103//11 312//11
f 312//11 103//11 313//11 102//11
f 305//11 102//11 313//11 110//11
