# Blender 4.0.1
# www.blender.org
o lightBody
v -38.250744 8.104400 -0.002812
v -38.433826 7.884228 -0.066808
v -38.262638 8.114289 -0.001288
v -38.455090 7.901910 -0.064055
v -38.274078 8.123799 0.003224
v -38.475540 7.918913 -0.055901
v -38.284618 8.132565 0.010551
v -38.494385 7.934584 -0.042660
v -38.293854 8.140246 0.020412
v -38.510902 7.948318 -0.024841
v -38.301437 8.146551 0.032427
v -38.524456 7.959590 -0.003127
v -38.307072 8.151236 0.046135
v -38.534531 7.967967 0.021645
v -38.310539 8.154120 0.061010
v -38.540733 7.973124 0.048524
v -38.311710 8.155095 0.076478
v -38.542828 7.974866 0.076478
v -38.310539 8.154120 0.091947
v -38.540733 7.973124 0.104432
v -38.307072 8.151236 0.106821
v -38.534531 7.967967 0.131312
v -38.301437 8.146551 0.120529
v -38.524456 7.959590 0.156084
v -38.293854 8.140246 0.132545
v -38.510902 7.948318 0.177797
v -38.284618 8.132565 0.142406
v -38.494385 7.934584 0.195617
v -38.274078 8.123799 0.149733
v -38.475540 7.918913 0.208858
v -38.262638 8.114289 0.154245
v -38.455090 7.901910 0.217012
v -38.250744 8.104400 0.155768
v -38.433826 7.884228 0.219765
v -38.238853 8.094509 0.154245
v -38.412560 7.866545 0.217012
v -38.227413 8.084999 0.149733
v -38.392113 7.849542 0.208858
v -38.216873 8.076235 0.142406
v -38.373268 7.833872 0.195617
v -38.207638 8.068552 0.132545
v -38.356750 7.820137 0.177797
v -38.200054 8.062247 0.120529
v -38.343193 7.808865 0.156084
v -38.194420 8.057563 0.106821
v -38.333122 7.800489 0.131312
v -38.190952 8.054678 0.091947
v -38.326920 7.795331 0.104432
v -38.189781 8.053704 0.076478
v -38.324825 7.793590 0.076478
v -38.190952 8.054678 0.061010
v -38.326920 7.795331 0.048524
v -38.194420 8.057563 0.046135
v -38.333122 7.800489 0.021645
v -38.200054 8.062247 0.032427
v -38.343193 7.808865 -0.003127
v -38.207638 8.068552 0.020412
v -38.356750 7.820137 -0.024841
v -38.216873 8.076235 0.010551
v -38.373268 7.833872 -0.042660
v -38.227413 8.084999 0.003224
v -38.392113 7.849542 -0.055901
v -38.238853 8.094509 -0.001288
v -38.412560 7.866545 -0.064055
vn 0.0647 0.2285 -0.9714
vn -0.0807 0.3489 -0.9337
vn -0.2177 0.4619 -0.8598
vn -0.3408 0.5631 -0.7528
vn -0.4453 0.6488 -0.6171
vn -0.5272 0.7157 -0.4581
vn -0.5835 0.7617 -0.2819
vn -0.6121 0.7850 -0.0951
vn -0.6121 0.7850 0.0951
vn -0.5835 0.7617 0.2819
vn -0.5272 0.7157 0.4581
vn -0.4453 0.6488 0.6171
vn -0.3408 0.5631 0.7528
vn -0.2177 0.4619 0.8598
vn -0.0807 0.3489 0.9337
vn 0.0647 0.2285 0.9714
vn 0.2129 0.1053 0.9714
vn 0.3578 -0.0157 0.9337
vn 0.4939 -0.1298 0.8598
vn 0.6159 -0.2323 0.7528
vn 0.7191 -0.3194 0.6171
vn 0.7999 -0.3878 0.4581
vn 0.8553 -0.4347 0.2819
vn 0.8835 -0.4587 0.0951
vn 0.8835 -0.4587 -0.0951
vn 0.8553 -0.4347 -0.2819
vn 0.7999 -0.3878 -0.4581
vn 0.7191 -0.3194 -0.6171
vn 0.6159 -0.2323 -0.7528
vn 0.4939 -0.1298 -0.8598
vn 0.3578 -0.0157 -0.9337
vn 0.2129 0.1053 -0.9714
vt 1.000000 0.500000
vt 1.000000 1.000000
vt 0.968750 1.000000
vt 0.968750 0.500000
vt 0.937500 1.000000
vt 0.937500 0.500000
vt 0.906250 1.000000
vt 0.906250 0.500000
vt 0.875000 1.000000
vt 0.875000 0.500000
vt 0.843750 1.000000
vt 0.843750 0.500000
vt 0.812500 1.000000
vt 0.812500 0.500000
vt 0.781250 1.000000
vt 0.781250 0.500000
vt 0.750000 1.000000
vt 0.750000 0.500000
vt 0.718750 1.000000
vt 0.718750 0.500000
vt 0.687500 1.000000
vt 0.687500 0.500000
vt 0.656250 1.000000
vt 0.656250 0.500000
vt 0.625000 1.000000
vt 0.625000 0.500000
vt 0.593750 1.000000
vt 0.593750 0.500000
vt 0.562500 1.000000
vt 0.562500 0.500000
vt 0.531250 1.000000
vt 0.531250 0.500000
vt 0.500000 1.000000
vt 0.500000 0.500000
vt 0.468750 1.000000
vt 0.468750 0.500000
vt 0.437500 1.000000
vt 0.437500 0.500000
vt 0.406250 1.000000
vt 0.406250 0.500000
vt 0.375000 1.000000
vt 0.375000 0.500000
vt 0.343750 1.000000
vt 0.343750 0.500000
vt 0.312500 1.000000
vt 0.312500 0.500000
vt 0.281250 1.000000
vt 0.281250 0.500000
vt 0.250000 1.000000
vt 0.250000 0.500000
vt 0.218750 1.000000
vt 0.218750 0.500000
vt 0.187500 1.000000
vt 0.187500 0.500000
vt 0.156250 1.000000
vt 0.156250 0.500000
vt 0.125000 1.000000
vt 0.125000 0.500000
vt 0.093750 1.000000
vt 0.093750 0.500000
vt 0.062500 1.000000
vt 0.062500 0.500000
vt 0.031250 1.000000
vt 0.031250 0.500000
vt 0.000000 1.000000
vt 0.000000 0.500000
s 0
f 1/1/1 2/2/1 4/3/1 3/4/1
f 3/4/2 4/3/2 6/5/2 5/6/2
f 5/6/3 6/5/3 8/7/3 7/8/3
f 7/8/4 8/7/4 10/9/4 9/10/4
f 9/10/5 10/9/5 12/11/5 11/12/5
f 11/12/6 12/11/6 14/13/6 13/14/6
f 13/14/7 14/13/7 16/15/7 15/16/7
f 15/16/8 16/15/8 18/17/8 17/18/8
f 17/18/9 18/17/9 20/19/9 19/20/9
f 19/20/10 20/19/10 22/21/10 21/22/10
f 21/22/11 22/21/11 24/23/11 23/24/11
f 23/24/12 24/23/12 26/25/12 25/26/12
f 25/26/13 26/25/13 28/27/13 27/28/13
f 27/28/14 28/27/14 30/29/14 29/30/14
f 29/30/15 30/29/15 32/31/15 31/32/15
f 31/32/16 32/31/16 34/33/16 33/34/16
f 33/34/17 34/33/17 36/35/17 35/36/17
f 35/36/18 36/35/18 38/37/18 37/38/18
f 37/38/19 38/37/19 40/39/19 39/40/19
f 39/40/20 40/39/20 42/41/20 41/42/20
f 41/42/21 42/41/21 44/43/21 43/44/21
f 43/44/22 44/43/22 46/45/22 45/46/22
f 45/46/23 46/45/23 48/47/23 47/48/23
f 47/48/24 48/47/24 50/49/24 49/50/24
f 49/50/25 50/49/25 52/51/25 51/52/25
f 51/52/26 52/51/26 54/53/26 53/54/26
f 53/54/27 54/53/27 56/55/27 55/56/27
f 55/56/28 56/55/28 58/57/28 57/58/28
f 57/58/29 58/57/29 60/59/29 59/60/29
f 59/60/30 60/59/30 62/61/30 61/62/30
f 61/62/31 62/61/31 64/63/31 63/64/31
f 63/64/32 64/63/32 2/65/32 1/66/32
