v -2.431207 0.747347 -1.103278
v -2.433733 0.746964 -1.103536
v -2.433007 0.745012 -1.100824
v -2.430214 0.745605 -1.100872
v -2.428084 0.746158 -1.100637
v -2.429227 0.747622 -1.102621
v -2.430381 0.748247 -1.103954
v -2.431998 0.748457 -1.105047
v -2.434262 0.748298 -1.105593
v -2.43606 0.746615 -1.102506
v -2.437738 0.746338 -1.101267
v -2.437752 0.744699 -1.099099
v -2.43573 0.744773 -1.099994
v -2.436198 0.747823 -1.104379
v -2.437274 0.747208 -1.102857
v -2.433384 0.737249 -1.092747
v -2.435403 0.737096 -1.092193
v -2.434092 0.73424 -1.090265
v -2.432307 0.734369 -1.09077
v -2.429927 0.734621 -1.091313
v -2.430691 0.737541 -1.093348
v -2.431461 0.740295 -1.095575
v -2.434277 0.740008 -1.094929
v -2.436388 0.739873 -1.094319
v -2.427979 0.738065 -1.093607
v -2.427528 0.73509 -1.09153
v -2.425716 0.735503 -1.091597
v -2.425933 0.738524 -1.0937
v -2.426482 0.741367 -1.095895
v -2.428624 0.740861 -1.095828
v -2.429361 0.743408 -1.098319
v -2.432241 0.742788 -1.098119
v -2.427184 0.743992 -1.098301
v -2.435097 0.742543 -1.097406
v -2.437237 0.742476 -1.096702
v -2.430937 0.731468 -1.088902
v -2.432267 0.731404 -1.088474
v -2.43092 0.729807 -1.087631
v -2.429804 0.729265 -1.087568
v -2.428592 0.729344 -1.087923
v -2.429163 0.731632 -1.089346
v -2.42737 0.732006 -1.089469
v -2.42736 0.729634 -1.087957
v -2.426522 0.730471 -1.088331
v -2.426013 0.732347 -1.089469
v -2.431165 0.747143 -1.103448
v -2.433728 0.746753 -1.103702
v -2.434257 0.748138 -1.105714
v -2.431963 0.748303 -1.105172
v -2.430349 0.748136 -1.104048
v -2.429178 0.747475 -1.102751
v -2.428041 0.746014 -1.100772
v -2.430178 0.745407 -1.10105
v -2.433004 0.744808 -1.100998
v -2.436091 0.7464 -1.102664
v -2.43778 0.746177 -1.101382
v -2.4373 0.747088 -1.102942
v -2.436223 0.74766 -1.104494
v -2.435759 0.744565 -1.100162
v -2.437791 0.744543 -1.099221
v -2.433415 0.737077 -1.092953
v -2.435437 0.736965 -1.092345
v -2.436423 0.739734 -1.094462
v -2.434306 0.739824 -1.095123
v -2.431465 0.740115 -1.095775
v -2.430699 0.737372 -1.093558
v -2.429937 0.73446 -1.09153
v -2.43234 0.734205 -1.090981
v -2.434129 0.734116 -1.090421
v -2.427964 0.737899 -1.09382
v -2.428604 0.740684 -1.096031
v -2.426455 0.741238 -1.096048
v -2.42591 0.738402 -1.09386
v -2.425694 0.735388 -1.091763
v -2.427514 0.734933 -1.091749
v -2.429333 0.743221 -1.098509
v -2.432242 0.742594 -1.098305
v -2.42715 0.743855 -1.098445
v -2.435126 0.742347 -1.097588
v -2.437273 0.742328 -1.096835
v -2.430973 0.731307 -1.089115
v -2.432307 0.731282 -1.088631
v -2.429174 0.731474 -1.089565
v -2.4286 0.729226 -1.088087
v -2.429832 0.729144 -1.087729
v -2.430946 0.729718 -1.087749
v -2.427356 0.731853 -1.089691
v -2.42599 0.732235 -1.089636
v -2.426508 0.730387 -1.088455
v -2.427348 0.729519 -1.088124
v -2.432731 0.731328 -1.0884
v -2.430775 0.729216 -1.087253
v -2.434706 0.734142 -1.090165
v -2.430946 0.729718 -1.087749
v -2.427351 0.728792 -1.087527
v -2.426369 0.729881 -1.087954
v -2.428405 0.72853 -1.087522
v -2.426508 0.730387 -1.088455
v -2.428541 0.74765 -1.102461
v -2.430132 0.748416 -1.104085
v -2.427351 0.746279 -1.100619
v -2.430349 0.748136 -1.104048
v -2.436255 0.748153 -1.105054
v -2.437589 0.747292 -1.102898
v -2.434435 0.748671 -1.106332
v -2.4373 0.747088 -1.102942
v -2.43832 0.746175 -1.100905
v -2.438447 0.744606 -1.098854
v -2.429439 0.728477 -1.087195
v -2.425548 0.732412 -1.089543
v -2.4251 0.735591 -1.091693
v -2.432245 0.748758 -1.105692
v -2.42644 0.744127 -1.098359
v -2.425754 0.741479 -1.095986
v -2.437969 0.742388 -1.096525
v -2.43711 0.739766 -1.094179
v -2.436094 0.736986 -1.092075
v -2.425238 0.738624 -1.093802
vn -0.2383 0.755 0.6109
vn -0.032 0.8181 0.5742
vn -0.0193 0.7833 0.6213
vn -0.2033 0.7263 0.6565
vn -0.1888 0.7133 0.6749
vn -0.2307 0.7573 0.611
vn -0.2583 0.7853 0.5627
vn -0.2193 0.8169 0.5334
vn -0.0517 0.8664 0.4967
vn 0.1846 0.8188 0.5436
vn 0.177 0.8187 0.5462
vn 0.1711 0.7676 0.6177
vn 0.1749 0.7834 0.5964
vn 0.1261 0.869 0.4785
vn 0.1795 0.8512 0.4931
vn 0.1408 0.6189 0.7728
vn 0.1066 0.6088 0.7861
vn 0.1105 0.5829 0.805
vn 0.1556 0.5932 0.7899
vn 0.044 0.5719 0.8191
vn 0.0351 0.6057 0.7949
vn 0.0168 0.6704 0.7418
vn 0.1375 0.6776 0.7224
vn 0.1148 0.6627 0.74
vn -0.0715 0.5868 0.8065
vn -0.0722 0.5588 0.8261
vn -0.0237 0.5626 0.8264
vn -0.0335 0.5877 0.8083
vn -0.0704 0.6348 0.7694
vn -0.1007 0.6417 0.7603
vn -0.1501 0.6941 0.7041
vn -0.0033 0.736 0.6769
vn -0.1282 0.6803 0.7216
vn 0.1502 0.7394 0.6563
vn 0.1397 0.7206 0.6791
vn 0.1833 0.5836 0.7911
vn 0.1364 0.5696 0.8105
vn 0.1708 0.5585 0.8117
vn 0.2161 0.538 0.8147
vn 0.0599 0.5083 0.859
vn 0.0482 0.5556 0.83
vn -0.0943 0.5417 0.8353
vn -0.1039 0.4897 0.8656
vn -0.0695 0.5221 0.85
vn -0.0417 0.5426 0.8389
vn 0.2597 -0.732 -0.6297
vn 0.0286 -0.8088 -0.5874
vn 0.0149 -0.7708 -0.6369
vn 0.3233 -0.6592 -0.6788
vn 0.4228 -0.5894 -0.6883
vn 0.4036 -0.6075 -0.6841
vn 0.3399 -0.6375 -0.6914
vn 0.2175 -0.7208 -0.6582
vn 0.0193 -0.7834 -0.6212
vn -0.2164 -0.8038 -0.554
vn -0.3993 -0.7287 -0.5564
vn -0.4233 -0.7171 -0.5537
vn -0.31 -0.7548 -0.5781
vn -0.1899 -0.7822 -0.5933
vn -0.335 -0.7393 -0.5841
vn -0.1563 -0.6211 -0.768
vn -0.2617 -0.6327 -0.7288
vn -0.2613 -0.6728 -0.6921
vn -0.152 -0.6788 -0.7184
vn -0.0169 -0.6703 -0.7418
vn -0.0351 -0.6056 -0.795
vn -0.0441 -0.5718 -0.8192
vn -0.173 -0.5973 -0.7831
vn -0.2856 -0.6308 -0.7215
vn 0.0876 -0.5843 -0.8068
vn 0.1154 -0.6385 -0.7609
vn 0.2209 -0.6001 -0.7688
vn 0.1985 -0.5633 -0.802
vn 0.2219 -0.5543 -0.8021
vn 0.0913 -0.5575 -0.8252
vn 0.1641 -0.6901 -0.7048
vn 0.0033 -0.736 -0.6769
vn 0.2738 -0.633 -0.7241
vn -0.1644 -0.7397 -0.6525
vn -0.2862 -0.7175 -0.635
vn -0.2037 -0.6011 -0.7728
vn -0.3286 -0.6561 -0.6794
vn -0.0457 -0.5655 -0.8235
vn -0.0344 -0.6081 -0.7931
vn -0.2578 -0.6583 -0.7073
vn -0.3521 -0.6743 -0.6491
vn 0.1234 -0.5517 -0.8248
vn 0.2812 -0.564 -0.7764
vn 0.317 -0.5732 -0.7555
vn 0.209 -0.5879 -0.7815
vn -0.7993 -0.3153 0.5116
vn -0.4957 -0.5383 0.6815
vn -0.8824 -0.2304 0.4101
vn -0.3521 -0.6743 -0.6491
vn 0.436 -0.7295 0.5271
vn 0.8121 -0.3409 0.4736
vn 0.2025 -0.8719 0.4458
vn 0.317 -0.5732 -0.7555
vn 0.7942 0.5778 -0.1878
vn 0.5898 0.6973 -0.4072
vn 0.8959 0.4394 -0.0654
vn 0.4228 -0.5894 -0.6883
vn -0.6664 0.4798 -0.5706
vn -0.8602 0.4784 -0.1763
vn -0.2091 0.4982 -0.8415
vn -0.4233 -0.7171 -0.5537
vn -0.9449 0.315 0.0893
vn -0.96 0.1587 0.2306
vn -0.0261 -0.7992 0.6005
vn 0.972 -0.0486 0.23
vn 0.9923 0.0518 0.1123
vn 0.2943 0.6247 -0.7232
vn 0.9485 0.3168 -0.0015
vn 0.9715 0.2358 0.0219
vn -0.9531 0.0296 0.3012
vn -0.9438 -0.0528 0.3263
vn -0.9275 -0.1349 0.3487
vn 0.9871 0.1537 0.0443
vt 0.839504 0.118056
vt 0.856743 0.205307
vt 0.741230 0.205307
vt 0.734555 0.106726
vt 0.724541 0.032791
vt 0.813647 0.052618
vt 0.868992 0.081539
vt 0.913398 0.129584
vt 0.940923 0.205307
vt 0.839504 0.292557
vt 0.813647 0.357995
vt 0.724541 0.377822
vt 0.734555 0.303887
vt 0.913398 0.281029
vt 0.868992 0.329074
vt 0.369475 0.299954
vt 0.368286 0.370940
vt 0.245840 0.351447
vt 0.246397 0.288815
vt 0.246768 0.205307
vt 0.370268 0.205307
vt 0.494283 0.205307
vt 0.492822 0.304944
vt 0.490632 0.379672
vt 0.369475 0.110659
vt 0.246397 0.121798
vt 0.245841 0.059166
vt 0.368286 0.039673
vt 0.490632 0.030941
vt 0.492822 0.105669
vt 0.616755 0.103478
vt 0.619174 0.205307
vt 0.613127 0.027106
vt 0.616755 0.307135
vt 0.613126 0.383507
vt 0.123273 0.268175
vt 0.123047 0.315326
vt 0.054743 0.283353
vt 0.030912 0.249131
vt 0.030973 0.205306
vt 0.123423 0.205306
vt 0.123273 0.142438
vt 0.030912 0.161481
vt 0.054744 0.127260
vt 0.123047 0.095287
vt 0.839504 0.118056
vt 0.856743 0.205307
vt 0.968983 0.205307
vt 0.938030 0.133427
vt 0.876123 0.061548
vt 0.805028 0.030806
vt 0.721203 0.008146
vt 0.734555 0.106726
vt 0.741230 0.205307
vt 0.839504 0.292557
vt 0.805028 0.379807
vt 0.876123 0.349065
vt 0.938030 0.277186
vt 0.734555 0.303887
vt 0.721203 0.402467
vt 0.369475 0.299954
vt 0.367890 0.394602
vt 0.489902 0.404581
vt 0.492822 0.304944
vt 0.494283 0.205307
vt 0.370268 0.205307
vt 0.246768 0.205307
vt 0.246397 0.288815
vt 0.245655 0.372324
vt 0.369475 0.110659
vt 0.492822 0.105669
vt 0.489902 0.006032
vt 0.367890 0.016011
vt 0.245655 0.038289
vt 0.246397 0.121798
vt 0.616755 0.103478
vt 0.619174 0.205307
vt 0.611917 0.001649
vt 0.616755 0.307135
vt 0.611917 0.408964
vt 0.123273 0.268175
vt 0.122972 0.331043
vt 0.123423 0.205306
vt 0.000156 0.205306
vt 0.000125 0.242784
vt 0.000064 0.280261
vt 0.123273 0.142438
vt 0.122972 0.079570
vt 0.000064 0.130352
vt 0.000125 0.167829
vt 0.122972 0.331043
vt 0.030806 0.283587
vt 0.245655 0.372324
vt 0.030806 0.283587
vt 0.000125 0.167829
vt 0.030806 0.127026
vt 0.000156 0.205306
vt 0.030806 0.127026
vt 0.805028 0.030806
vt 0.873826 0.071832
vt 0.721203 0.008146
vt 0.873826 0.071832
vt 0.938030 0.277186
vt 0.873826 0.338781
vt 0.968983 0.205307
vt 0.873826 0.338781
vt 0.805028 0.379807
vt 0.721203 0.402467
vt 0.000125 0.242784
vt 0.122972 0.079570
vt 0.245655 0.038289
vt 0.938030 0.133427
vt 0.611917 0.001649
vt 0.489902 0.006032
vt 0.611917 0.408964
vt 0.489902 0.404581
vt 0.367890 0.394602
vt 0.367890 0.016011
f 1/1/1 2/2/2 3/3/3
f 1/1/1 3/3/3 4/4/4
f 1/1/1 4/4/4 5/5/5
f 1/1/1 5/5/5 6/6/6
f 1/1/1 6/6/6 7/7/7
f 1/1/1 7/7/7 8/8/8
f 1/1/1 8/8/8 9/9/9
f 1/1/1 9/9/9 2/2/2
f 10/10/10 11/11/11 12/12/12
f 10/10/10 12/12/12 13/13/13
f 10/10/10 13/13/13 3/3/3
f 10/10/10 3/3/3 2/2/2
f 10/10/10 2/2/2 9/9/9
f 10/10/10 9/9/9 14/14/14
f 10/10/10 14/14/14 15/15/15
f 10/10/10 15/15/15 11/11/11
f 16/16/16 17/17/17 18/18/18
f 16/16/16 18/18/18 19/19/19
f 16/16/16 19/19/19 20/20/20
f 16/16/16 20/20/20 21/21/21
f 16/16/16 21/21/21 22/22/22
f 16/16/16 22/22/22 23/23/23
f 16/16/16 23/23/23 24/24/24
f 16/16/16 24/24/24 17/17/17
f 25/25/25 21/21/21 20/20/20
f 25/25/25 20/20/20 26/26/26
f 25/25/25 26/26/26 27/27/27
f 25/25/25 27/27/27 28/28/28
f 25/25/25 28/28/28 29/29/29
f 25/25/25 29/29/29 30/30/30
f 25/25/25 30/30/30 22/22/22
f 25/25/25 22/22/22 21/21/21
f 31/31/31 32/32/32 22/22/22
f 31/31/31 22/22/22 30/30/30
f 31/31/31 30/30/30 29/29/29
f 31/31/31 29/29/29 33/33/33
f 31/31/31 33/33/33 5/5/5
f 31/31/31 5/5/5 4/4/4
f 31/31/31 4/4/4 3/3/3
f 31/31/31 3/3/3 32/32/32
f 34/34/34 35/35/35 24/24/24
f 34/34/34 24/24/24 23/23/23
f 34/34/34 23/23/23 22/22/22
f 34/34/34 22/22/22 32/32/32
f 34/34/34 32/32/32 3/3/3
f 34/34/34 3/3/3 13/13/13
f 34/34/34 13/13/13 12/12/12
f 34/34/34 12/12/12 35/35/35
f 36/36/36 37/37/37 38/38/38
f 36/36/36 38/38/38 39/39/39
f 36/36/36 39/39/39 40/40/40
f 36/36/36 40/40/40 41/41/41
f 36/36/36 41/41/41 20/20/20
f 36/36/36 20/20/20 19/19/19
f 36/36/36 19/19/19 18/18/18
f 36/36/36 18/18/18 37/37/37
f 42/42/42 41/41/41 40/40/40
f 42/42/42 40/40/40 43/43/43
f 42/42/42 43/43/43 44/44/44
f 42/42/42 44/44/44 45/45/45
f 42/42/42 45/45/45 27/27/27
f 42/42/42 27/27/27 26/26/26
f 42/42/42 26/26/26 20/20/20
f 42/42/42 20/20/20 41/41/41
f 46/46/46 47/47/47 48/48/48
f 46/46/46 48/48/48 49/49/49
f 46/46/46 49/49/49 50/50/50
f 46/46/46 50/50/50 51/51/51
f 46/46/46 51/51/51 52/52/52
f 46/46/46 52/52/52 53/53/53
f 46/46/46 53/53/53 54/54/54
f 46/46/46 54/54/54 47/47/47
f 55/55/55 56/56/56 57/57/57
f 55/55/55 57/57/57 58/58/58
f 55/55/55 58/58/58 48/48/48
f 55/55/55 48/48/48 47/47/47
f 55/55/55 47/47/47 54/54/54
f 55/55/55 54/54/54 59/59/59
f 55/55/55 59/59/59 60/60/60
f 55/55/55 60/60/60 56/56/56
f 61/61/61 62/62/62 63/63/63
f 61/61/61 63/63/63 64/64/64
f 61/61/61 64/64/64 65/65/65
f 61/61/61 65/65/65 66/66/66
f 61/61/61 66/66/66 67/67/67
f 61/61/61 67/67/67 68/68/68
f 61/61/61 68/68/68 69/69/69
f 61/61/61 69/69/69 62/62/62
f 70/70/70 66/66/66 65/65/65
f 70/70/70 65/65/65 71/71/71
f 70/70/70 71/71/71 72/72/72
f 70/70/70 72/72/72 73/73/73
f 70/70/70 73/73/73 74/74/74
f 70/70/70 74/74/74 75/75/75
f 70/70/70 75/75/75 67/67/67
f 70/70/70 67/67/67 66/66/66
f 76/76/76 77/77/77 54/54/54
f 76/76/76 54/54/54 53/53/53
f 76/76/76 53/53/53 52/52/52
f 76/76/76 52/52/52 78/78/78
f 76/76/76 78/78/78 72/72/72
f 76/76/76 72/72/72 71/71/71
f 76/76/76 71/71/71 65/65/65
f 76/76/76 65/65/65 77/77/77
f 79/79/79 80/80/80 60/60/60
f 79/79/79 60/60/60 59/59/59
f 79/79/79 59/59/59 54/54/54
f 79/79/79 54/54/54 77/77/77
f 79/79/79 77/77/77 65/65/65
f 79/79/79 65/65/65 64/64/64
f 79/79/79 64/64/64 63/63/63
f 79/79/79 63/63/63 80/80/80
f 81/81/81 82/82/82 69/69/69
f 81/81/81 69/69/69 68/68/68
f 81/81/81 68/68/68 67/67/67
f 81/81/81 67/67/67 83/83/83
f 81/81/81 83/83/83 84/84/84
f 81/81/81 84/84/84 85/85/85
f 81/81/81 85/85/85 86/86/86
f 81/81/81 86/86/86 82/82/82
f 87/87/87 83/83/83 67/67/67
f 87/87/87 67/67/67 75/75/75
f 87/87/87 75/75/75 74/74/74
f 87/87/87 74/74/74 88/88/88
f 87/87/87 88/88/88 89/89/89
f 87/87/87 89/89/89 90/90/90
f 87/87/87 90/90/90 84/84/84
f 87/87/87 84/84/84 83/83/83
f 91/91/91 92/92/92 38/38/38
f 91/91/91 38/38/38 37/37/37
f 91/91/91 37/37/37 18/18/18
f 91/91/91 18/18/18 93/93/93
f 91/91/91 93/93/93 69/69/69
f 91/91/91 69/69/69 82/82/82
f 91/91/91 82/82/82 94/94/94
f 91/91/91 94/94/94 92/92/92
f 95/95/95 96/96/96 44/44/44
f 95/95/95 44/44/44 43/43/43
f 95/95/95 43/43/43 40/40/40
f 95/95/95 40/40/40 97/97/97
f 95/95/95 97/97/97 84/84/84
f 95/95/95 84/84/84 90/90/90
f 95/95/95 90/90/90 98/98/98
f 95/95/95 98/98/98 96/96/96
f 99/99/99 100/100/100 7/7/7
f 99/99/99 7/7/7 6/6/6
f 99/99/99 6/6/6 5/5/5
f 99/99/99 5/5/5 101/101/101
f 99/99/99 101/101/101 52/52/52
f 99/99/99 52/52/52 51/51/51
f 99/99/99 51/51/51 102/102/102
f 99/99/99 102/102/102 100/100/100
f 103/103/103 104/104/104 15/15/15
f 103/103/103 15/15/15 14/14/14
f 103/103/103 14/14/14 9/9/9
f 103/103/103 9/9/9 105/105/105
f 103/103/103 105/105/105 48/48/48
f 103/103/103 48/48/48 58/58/58
f 103/103/103 58/58/58 106/106/106
f 103/103/103 106/106/106 104/104/104
f 107/107/107 108/108/108 12/12/12
f 107/107/107 12/12/12 11/11/11
f 107/107/107 11/11/11 15/15/15
f 107/107/107 15/15/15 104/104/104
f 107/107/107 104/104/104 106/106/106
f 107/107/107 106/106/106 56/56/56
f 107/107/107 56/56/56 60/60/60
f 107/107/107 60/60/60 108/108/108
f 109/109/109 97/97/97 40/40/40
f 109/109/109 40/40/40 39/39/39
f 109/109/109 39/39/39 38/38/38
f 109/109/109 38/38/38 92/92/92
f 109/109/109 92/92/92 94/94/94
f 109/109/109 94/94/94 85/85/85
f 109/109/109 85/85/85 84/84/84
f 109/109/109 84/84/84 97/97/97
f 110/110/110 111/111/111 27/27/27
f 110/110/110 27/27/27 45/45/45
f 110/110/110 45/45/45 44/44/44
f 110/110/110 44/44/44 96/96/96
f 110/110/110 96/96/96 98/98/98
f 110/110/110 98/98/98 88/88/88
f 110/110/110 88/88/88 74/74/74
f 110/110/110 74/74/74 111/111/111
f 112/112/112 105/105/105 9/9/9
f 112/112/112 9/9/9 8/8/8
f 112/112/112 8/8/8 7/7/7
f 112/112/112 7/7/7 100/100/100
f 112/112/112 100/100/100 102/102/102
f 112/112/112 102/102/102 49/49/49
f 112/112/112 49/49/49 48/48/48
f 112/112/112 48/48/48 105/105/105
f 113/113/113 101/101/101 5/5/5
f 113/113/113 5/5/5 33/33/33
f 113/113/113 33/33/33 29/29/29
f 113/113/113 29/29/29 114/114/114
f 113/113/113 114/114/114 72/72/72
f 113/113/113 72/72/72 78/78/78
f 113/113/113 78/78/78 52/52/52
f 113/113/113 52/52/52 101/101/101
f 115/115/115 116/116/116 24/24/24
f 115/115/115 24/24/24 35/35/35
f 115/115/115 35/35/35 12/12/12
f 115/115/115 12/12/12 108/108/108
f 115/115/115 108/108/108 60/60/60
f 115/115/115 60/60/60 80/80/80
f 115/115/115 80/80/80 63/63/63
f 115/115/115 63/63/63 116/116/116
f 117/117/117 93/93/93 18/18/18
f 117/117/117 18/18/18 17/17/17
f 117/117/117 17/17/17 24/24/24
f 117/117/117 24/24/24 116/116/116
f 117/117/117 116/116/116 63/63/63
f 117/117/117 63/63/63 62/62/62
f 117/117/117 62/62/62 69/69/69
f 117/117/117 69/69/69 93/93/93
f 118/118/118 114/114/114 29/29/29
f 118/118/118 29/29/29 28/28/28
f 118/118/118 28/28/28 27/27/27
f 118/118/118 27/27/27 111/111/111
f 118/118/118 111/111/111 74/74/74
f 118/118/118 74/74/74 73/73/73
f 118/118/118 73/73/73 72/72/72
f 118/118/118 72/72/72 114/114/114
