v -2.443775 0.741063 -1.069652
v -2.442406 0.741319 -1.06816
v -2.440807 0.740816 -1.070298
v -2.442534 0.740526 -1.071741
v -2.443777 0.74047 -1.072984
v -2.444643 0.741009 -1.07108
v -2.444873 0.741225 -1.069627
v -2.444585 0.741358 -1.0681
v -2.443569 0.741598 -1.066566
v -2.440602 0.742012 -1.067502
v -2.439079 0.742673 -1.06731
v -2.437456 0.74236 -1.068702
v -2.438928 0.741604 -1.069298
v -2.441839 0.74218 -1.066239
v -2.440367 0.742572 -1.066574
v -2.433903 0.73862 -1.075481
v -2.432546 0.739199 -1.074702
v -2.431211 0.737671 -1.076815
v -2.432414 0.737149 -1.077496
v -2.433996 0.736554 -1.078469
v -2.435689 0.737956 -1.076588
v -2.437393 0.73918 -1.074614
v -2.435524 0.739893 -1.073465
v -2.434103 0.740527 -1.072664
v -2.437436 0.737564 -1.077875
v -2.435538 0.736215 -1.079613
v -2.436687 0.736034 -1.080526
v -2.438737 0.737348 -1.078897
v -2.440579 0.73859 -1.077052
v -2.43922 0.738788 -1.075969
v -2.440967 0.739771 -1.073886
v -2.439117 0.740118 -1.072484
v -2.442341 0.739647 -1.075028
v -2.437217 0.740893 -1.071345
v -2.435769 0.741613 -1.070575
v -2.431117 0.735556 -1.079613
v -2.430211 0.735984 -1.079131
v -2.429887 0.734898 -1.080517
v -2.430217 0.734292 -1.081222
v -2.431036 0.733928 -1.081679
v -2.432303 0.735081 -1.080318
v -2.433449 0.734858 -1.081193
v -2.431814 0.733814 -1.082305
v -2.432762 0.734039 -1.082465
v -2.4343 0.734762 -1.081901
v -2.443785 0.740856 -1.069601
v -2.442392 0.741117 -1.068092
v -2.443557 0.741446 -1.066518
v -2.444591 0.741203 -1.068065
v -2.444883 0.741109 -1.069604
v -2.444663 0.740852 -1.07105
v -2.443798 0.740315 -1.072947
v -2.442546 0.740321 -1.071681
v -2.440797 0.740616 -1.070224
v -2.440565 0.741819 -1.067419
v -2.439039 0.742534 -1.067239
v -2.440339 0.742468 -1.066525
v -2.441807 0.742035 -1.066178
v -2.438898 0.741412 -1.069209
v -2.437424 0.742221 -1.068628
v -2.433903 0.738439 -1.075366
v -2.432538 0.739066 -1.074611
v -2.434088 0.740391 -1.072579
v -2.435515 0.739708 -1.073358
v -2.437401 0.738988 -1.074518
v -2.435704 0.737769 -1.076484
v -2.434016 0.736371 -1.078358
v -2.432419 0.736972 -1.077376
v -2.431207 0.737541 -1.07672
v -2.437466 0.737373 -1.077781
v -2.439244 0.738593 -1.075884
v -2.440605 0.738442 -1.076995
v -2.438767 0.737204 -1.078832
v -2.436721 0.735892 -1.080456
v -2.435574 0.736028 -1.079514
v -2.440985 0.739571 -1.073813
v -2.439116 0.739922 -1.072399
v -2.442364 0.739496 -1.074981
v -2.437198 0.740704 -1.071247
v -2.435745 0.741475 -1.070496
v -2.431122 0.73538 -1.079489
v -2.430207 0.735856 -1.079033
v -2.432325 0.7349 -1.080205
v -2.431052 0.733792 -1.081594
v -2.43022 0.734161 -1.081129
v -2.429886 0.734803 -1.080446
v -2.433487 0.734673 -1.081092
v -2.434337 0.734621 -1.081832
v -2.432788 0.733935 -1.082412
v -2.431844 0.733675 -1.08223
v -2.429905 0.736071 -1.078926
v -2.429554 0.734605 -1.080873
v -2.430806 0.737788 -1.076545
v -2.429886 0.734803 -1.080446
v -2.431283 0.733405 -1.082642
v -2.432434 0.733743 -1.082825
v -2.43062 0.733483 -1.082095
v -2.432788 0.733935 -1.082412
v -2.444944 0.740921 -1.071544
v -2.44513 0.741231 -1.069672
v -2.444203 0.740382 -1.073384
v -2.444883 0.741109 -1.069604
v -2.442236 0.742171 -1.065792
v -2.440254 0.742689 -1.066369
v -2.443951 0.741624 -1.066014
v -2.440339 0.742468 -1.066525
v -2.438551 0.742833 -1.067212
v -2.436949 0.742552 -1.068468
v -2.429918 0.733813 -1.081717
v -2.434602 0.734667 -1.082108
v -2.437086 0.73591 -1.0808
v -2.444857 0.741388 -1.067568
v -2.442811 0.739538 -1.075389
v -2.441045 0.738458 -1.077389
v -2.435274 0.741792 -1.070282
v -2.433621 0.740678 -1.072358
v -2.432088 0.739334 -1.074401
v -2.439185 0.737212 -1.07921
vn 0.0897 0.9817 -0.1679
vn -0.0989 0.9561 -0.2759
vn -0.0636 0.9443 -0.3228
vn 0.1063 0.9677 -0.2285
vn 0.1135 0.9607 -0.2533
vn 0.0834 0.9814 -0.173
vn 0.0609 0.9914 -0.1158
vn 0.0029 0.993 -0.1177
vn -0.1533 0.9676 -0.2008
vn -0.2583 0.8777 -0.4037
vn -0.2519 0.8811 -0.4002
vn -0.1824 0.8722 -0.4539
vn -0.2048 0.8747 -0.4393
vn -0.2813 0.908 -0.3103
vn -0.2993 0.8837 -0.3599
vn -0.0007 0.8263 -0.5632
vn 0.0342 0.8342 -0.5503
vn 0.0556 0.8197 -0.5701
vn 0.0123 0.808 -0.589
vn 0.1126 0.8369 -0.5356
vn 0.0876 0.8571 -0.5076
vn 0.0369 0.8929 -0.4486
vn -0.0566 0.8539 -0.5172
vn -0.0244 0.8562 -0.516
vn 0.1739 0.8785 -0.4448
vn 0.1997 0.8641 -0.462
vn 0.166 0.8527 -0.4952
vn 0.1495 0.8687 -0.4722
vn 0.128 0.9018 -0.4128
vn 0.1393 0.9125 -0.3844
vn 0.1139 0.946 -0.3033
vn -0.0193 0.9249 -0.3797
vn 0.1162 0.9358 -0.3329
vn -0.1332 0.8721 -0.4707
vn -0.1039 0.8699 -0.4821
vn -0.0002 0.7922 -0.6102
vn 0.0485 0.8032 -0.5936
vn 0.0323 0.7841 -0.6197
vn 0.0149 0.7547 -0.6559
vn 0.1571 0.7968 -0.5834
vn 0.1244 0.8269 -0.5484
vn 0.2282 0.8605 -0.4555
vn 0.2781 0.8334 -0.4775
vn 0.23 0.8431 -0.486
vn 0.1951 0.847 -0.4945
vn -0.126 -0.9774 0.1697
vn 0.0892 -0.9532 0.2889
vn 0.0515 -0.9395 0.3385
vn -0.2324 -0.9575 0.1704
vn -0.3396 -0.9332 0.1178
vn -0.3151 -0.9407 0.1257
vn -0.2616 -0.9499 0.1709
vn -0.1195 -0.968 0.2206
vn 0.0637 -0.9443 0.3227
vn 0.2657 -0.8603 0.4351
vn 0.3451 -0.7432 0.5731
vn 0.3563 -0.725 0.5894
vn 0.2885 -0.8017 0.5235
vn 0.2157 -0.8678 0.4476
vn 0.2936 -0.7839 0.5471
vn 0.0146 -0.8214 0.5701
vn 0.1112 -0.7818 0.6135
vn 0.1518 -0.7991 0.5817
vn 0.0689 -0.8488 0.5242
vn -0.037 -0.8929 0.4487
vn -0.0877 -0.857 0.5077
vn -0.1127 -0.8368 0.5357
vn 0.005 -0.8032 0.5957
vn 0.1299 -0.7696 0.6251
vn -0.186 -0.8814 0.4342
vn -0.151 -0.9145 0.3751
vn -0.2448 -0.9176 0.313
vn -0.2675 -0.895 0.357
vn -0.2876 -0.8945 0.3422
vn -0.2125 -0.8683 0.4483
vn -0.1256 -0.9473 0.2947
vn 0.0193 -0.9249 0.3797
vn -0.2381 -0.941 0.2404
vn 0.1446 -0.8665 0.4778
vn 0.2225 -0.8032 0.5525
vn 0.0328 -0.7924 0.6091
vn 0.1941 -0.7588 0.6216
vn -0.1172 -0.833 0.5407
vn -0.0858 -0.8585 0.5055
vn 0.1336 -0.7947 0.5921
vn 0.2354 -0.7534 0.6139
vn -0.2365 -0.873 0.4266
vn -0.3074 -0.9089 0.2817
vn -0.3148 -0.918 0.241
vn -0.2502 -0.9095 0.332
vn 0.9676 0.2062 0.1459
vn 0.9767 0.0041 -0.2145
vn 0.9229 0.2569 0.2867
vn 0.2354 -0.7534 0.6139
vn 0.3818 -0.5061 -0.7733
vn -0.0988 -0.3173 -0.9431
vn 0.5657 -0.5923 -0.5737
vn -0.3148 -0.918 0.241
vn -0.9273 0.1614 -0.3376
vn -0.9742 0.2242 -0.0245
vn -0.8553 0.0699 -0.5135
vn -0.3396 -0.9332 0.1178
vn -0.122 0.3461 0.9302
vn 0.2187 0.5811 0.7839
vn -0.5786 0.1014 0.8092
vn 0.3563 -0.725 0.5894
vn 0.5037 0.5892 0.6318
vn 0.6717 0.5264 0.5212
vn 0.7606 -0.393 -0.5167
vn -0.4895 -0.2296 -0.8412
vn -0.6195 -0.2042 -0.7579
vn -0.9122 0.1097 0.3947
vn -0.7907 -0.0202 -0.6118
vn -0.7509 -0.0844 -0.6549
vn 0.7737 0.4476 0.4483
vn 0.825 0.3864 0.4123
vn 0.8691 0.3232 0.3745
vn -0.7064 -0.1476 -0.6923
vt 0.839504 0.118056
vt 0.856743 0.205307
vt 0.741230 0.205307
vt 0.734555 0.106726
vt 0.724541 0.032791
vt 0.813647 0.052618
vt 0.868992 0.081539
vt 0.913398 0.129584
vt 0.940923 0.205307
vt 0.839504 0.292557
vt 0.813647 0.357995
vt 0.724541 0.377822
vt 0.734555 0.303887
vt 0.913398 0.281029
vt 0.868992 0.329074
vt 0.369475 0.299954
vt 0.368286 0.370940
vt 0.245840 0.351447
vt 0.246397 0.288815
vt 0.246768 0.205307
vt 0.370268 0.205307
vt 0.494283 0.205307
vt 0.492822 0.304944
vt 0.490632 0.379672
vt 0.369475 0.110659
vt 0.246397 0.121798
vt 0.245841 0.059166
vt 0.368286 0.039673
vt 0.490632 0.030941
vt 0.492822 0.105669
vt 0.616755 0.103478
vt 0.619174 0.205307
vt 0.613127 0.027106
vt 0.616755 0.307135
vt 0.613126 0.383507
vt 0.123273 0.268175
vt 0.123047 0.315326
vt 0.054743 0.283353
vt 0.030912 0.249131
vt 0.030973 0.205306
vt 0.123423 0.205306
vt 0.123273 0.142438
vt 0.030912 0.161481
vt 0.054744 0.127260
vt 0.123047 0.095287
vt 0.839504 0.118056
vt 0.856743 0.205307
vt 0.968983 0.205307
vt 0.938030 0.133427
vt 0.876123 0.061548
vt 0.805028 0.030806
vt 0.721203 0.008146
vt 0.734555 0.106726
vt 0.741230 0.205307
vt 0.839504 0.292557
vt 0.805028 0.379807
vt 0.876123 0.349065
vt 0.938030 0.277186
vt 0.734555 0.303887
vt 0.721203 0.402467
vt 0.369475 0.299954
vt 0.367890 0.394602
vt 0.489902 0.404581
vt 0.492822 0.304944
vt 0.494283 0.205307
vt 0.370268 0.205307
vt 0.246768 0.205307
vt 0.246397 0.288815
vt 0.245655 0.372324
vt 0.369475 0.110659
vt 0.492822 0.105669
vt 0.489902 0.006032
vt 0.367890 0.016011
vt 0.245655 0.038289
vt 0.246397 0.121798
vt 0.616755 0.103478
vt 0.619174 0.205307
vt 0.611917 0.001649
vt 0.616755 0.307135
vt 0.611917 0.408964
vt 0.123273 0.268175
vt 0.122972 0.331043
vt 0.123423 0.205306
vt 0.000156 0.205306
vt 0.000125 0.242784
vt 0.000064 0.280261
vt 0.123273 0.142438
vt 0.122972 0.079570
vt 0.000064 0.130352
vt 0.000125 0.167829
vt 0.122972 0.331043
vt 0.030806 0.283587
vt 0.245655 0.372324
vt 0.030806 0.283587
vt 0.000125 0.167829
vt 0.030806 0.127026
vt 0.000156 0.205306
vt 0.030806 0.127026
vt 0.805028 0.030806
vt 0.873826 0.071832
vt 0.721203 0.008146
vt 0.873826 0.071832
vt 0.938030 0.277186
vt 0.873826 0.338781
vt 0.968983 0.205307
vt 0.873826 0.338781
vt 0.805028 0.379807
vt 0.721203 0.402467
vt 0.000125 0.242784
vt 0.122972 0.079570
vt 0.245655 0.038289
vt 0.938030 0.133427
vt 0.611917 0.001649
vt 0.489902 0.006032
vt 0.611917 0.408964
vt 0.489902 0.404581
vt 0.367890 0.394602
vt 0.367890 0.016011
f 1/1/1 2/2/2 3/3/3
f 1/1/1 3/3/3 4/4/4
f 1/1/1 4/4/4 5/5/5
f 1/1/1 5/5/5 6/6/6
f 1/1/1 6/6/6 7/7/7
f 1/1/1 7/7/7 8/8/8
f 1/1/1 8/8/8 9/9/9
f 1/1/1 9/9/9 2/2/2
f 10/10/10 11/11/11 12/12/12
f 10/10/10 12/12/12 13/13/13
f 10/10/10 13/13/13 3/3/3
f 10/10/10 3/3/3 2/2/2
f 10/10/10 2/2/2 9/9/9
f 10/10/10 9/9/9 14/14/14
f 10/10/10 14/14/14 15/15/15
f 10/10/10 15/15/15 11/11/11
f 16/16/16 17/17/17 18/18/18
f 16/16/16 18/18/18 19/19/19
f 16/16/16 19/19/19 20/20/20
f 16/16/16 20/20/20 21/21/21
f 16/16/16 21/21/21 22/22/22
f 16/16/16 22/22/22 23/23/23
f 16/16/16 23/23/23 24/24/24
f 16/16/16 24/24/24 17/17/17
f 25/25/25 21/21/21 20/20/20
f 25/25/25 20/20/20 26/26/26
f 25/25/25 26/26/26 27/27/27
f 25/25/25 27/27/27 28/28/28
f 25/25/25 28/28/28 29/29/29
f 25/25/25 29/29/29 30/30/30
f 25/25/25 30/30/30 22/22/22
f 25/25/25 22/22/22 21/21/21
f 31/31/31 32/32/32 22/22/22
f 31/31/31 22/22/22 30/30/30
f 31/31/31 30/30/30 29/29/29
f 31/31/31 29/29/29 33/33/33
f 31/31/31 33/33/33 5/5/5
f 31/31/31 5/5/5 4/4/4
f 31/31/31 4/4/4 3/3/3
f 31/31/31 3/3/3 32/32/32
f 34/34/34 35/35/35 24/24/24
f 34/34/34 24/24/24 23/23/23
f 34/34/34 23/23/23 22/22/22
f 34/34/34 22/22/22 32/32/32
f 34/34/34 32/32/32 3/3/3
f 34/34/34 3/3/3 13/13/13
f 34/34/34 13/13/13 12/12/12
f 34/34/34 12/12/12 35/35/35
f 36/36/36 37/37/37 38/38/38
f 36/36/36 38/38/38 39/39/39
f 36/36/36 39/39/39 40/40/40
f 36/36/36 40/40/40 41/41/41
f 36/36/36 41/41/41 20/20/20
f 36/36/36 20/20/20 19/19/19
f 36/36/36 19/19/19 18/18/18
f 36/36/36 18/18/18 37/37/37
f 42/42/42 41/41/41 40/40/40
f 42/42/42 40/40/40 43/43/43
f 42/42/42 43/43/43 44/44/44
f 42/42/42 44/44/44 45/45/45
f 42/42/42 45/45/45 27/27/27
f 42/42/42 27/27/27 26/26/26
f 42/42/42 26/26/26 20/20/20
f 42/42/42 20/20/20 41/41/41
f 46/46/46 47/47/47 48/48/48
f 46/46/46 48/48/48 49/49/49
f 46/46/46 49/49/49 50/50/50
f 46/46/46 50/50/50 51/51/51
f 46/46/46 51/51/51 52/52/52
f 46/46/46 52/52/52 53/53/53
f 46/46/46 53/53/53 54/54/54
f 46/46/46 54/54/54 47/47/47
f 55/55/55 56/56/56 57/57/57
f 55/55/55 57/57/57 58/58/58
f 55/55/55 58/58/58 48/48/48
f 55/55/55 48/48/48 47/47/47
f 55/55/55 47/47/47 54/54/54
f 55/55/55 54/54/54 59/59/59
f 55/55/55 59/59/59 60/60/60
f 55/55/55 60/60/60 56/56/56
f 61/61/61 62/62/62 63/63/63
f 61/61/61 63/63/63 64/64/64
f 61/61/61 64/64/64 65/65/65
f 61/61/61 65/65/65 66/66/66
f 61/61/61 66/66/66 67/67/67
f 61/61/61 67/67/67 68/68/68
f 61/61/61 68/68/68 69/69/69
f 61/61/61 69/69/69 62/62/62
f 70/70/70 66/66/66 65/65/65
f 70/70/70 65/65/65 71/71/71
f 70/70/70 71/71/71 72/72/72
f 70/70/70 72/72/72 73/73/73
f 70/70/70 73/73/73 74/74/74
f 70/70/70 74/74/74 75/75/75
f 70/70/70 75/75/75 67/67/67
f 70/70/70 67/67/67 66/66/66
f 76/76/76 77/77/77 54/54/54
f 76/76/76 54/54/54 53/53/53
f 76/76/76 53/53/53 52/52/52
f 76/76/76 52/52/52 78/78/78
f 76/76/76 78/78/78 72/72/72
f 76/76/76 72/72/72 71/71/71
f 76/76/76 71/71/71 65/65/65
f 76/76/76 65/65/65 77/77/77
f 79/79/79 80/80/80 60/60/60
f 79/79/79 60/60/60 59/59/59
f 79/79/79 59/59/59 54/54/54
f 79/79/79 54/54/54 77/77/77
f 79/79/79 77/77/77 65/65/65
f 79/79/79 65/65/65 64/64/64
f 79/79/79 64/64/64 63/63/63
f 79/79/79 63/63/63 80/80/80
f 81/81/81 82/82/82 69/69/69
f 81/81/81 69/69/69 68/68/68
f 81/81/81 68/68/68 67/67/67
f 81/81/81 67/67/67 83/83/83
f 81/81/81 83/83/83 84/84/84
f 81/81/81 84/84/84 85/85/85
f 81/81/81 85/85/85 86/86/86
f 81/81/81 86/86/86 82/82/82
f 87/87/87 83/83/83 67/67/67
f 87/87/87 67/67/67 75/75/75
f 87/87/87 75/75/75 74/74/74
f 87/87/87 74/74/74 88/88/88
f 87/87/87 88/88/88 89/89/89
f 87/87/87 89/89/89 90/90/90
f 87/87/87 90/90/90 84/84/84
f 87/87/87 84/84/84 83/83/83
f 91/91/91 92/92/92 38/38/38
f 91/91/91 38/38/38 37/37/37
f 91/91/91 37/37/37 18/18/18
f 91/91/91 18/18/18 93/93/93
f 91/91/91 93/93/93 69/69/69
f 91/91/91 69/69/69 82/82/82
f 91/91/91 82/82/82 94/94/94
f 91/91/91 94/94/94 92/92/92
f 95/95/95 96/96/96 44/44/44
f 95/95/95 44/44/44 43/43/43
f 95/95/95 43/43/43 40/40/40
f 95/95/95 40/40/40 97/97/97
f 95/95/95 97/97/97 84/84/84
f 95/95/95 84/84/84 90/90/90
f 95/95/95 90/90/90 98/98/98
f 95/95/95 98/98/98 96/96/96
f 99/99/99 100/100/100 7/7/7
f 99/99/99 7/7/7 6/6/6
f 99/99/99 6/6/6 5/5/5
f 99/99/99 5/5/5 101/101/101
f 99/99/99 101/101/101 52/52/52
f 99/99/99 52/52/52 51/51/51
f 99/99/99 51/51/51 102/102/102
f 99/99/99 102/102/102 100/100/100
f 103/103/103 104/104/104 15/15/15
f 103/103/103 15/15/15 14/14/14
f 103/103/103 14/14/14 9/9/9
f 103/103/103 9/9/9 105/105/105
f 103/103/103 105/105/105 48/48/48
f 103/103/103 48/48/48 58/58/58
f 103/103/103 58/58/58 106/106/106
f 103/103/103 106/106/106 104/104/104
f 107/107/107 108/108/108 12/12/12
f 107/107/107 12/12/12 11/11/11
f 107/107/107 11/11/11 15/15/15
f 107/107/107 15/15/15 104/104/104
f 107/107/107 104/104/104 106/106/106
f 107/107/107 106/106/106 56/56/56
f 107/107/107 56/56/56 60/60/60
f 107/107/107 60/60/60 108/108/108
f 109/109/109 97/97/97 40/40/40
f 109/109/109 40/40/40 39/39/39
f 109/109/109 39/39/39 38/38/38
f 109/109/109 38/38/38 92/92/92
f 109/109/109 92/92/92 94/94/94
f 109/109/109 94/94/94 85/85/85
f 109/109/109 85/85/85 84/84/84
f 109/109/109 84/84/84 97/97/97
f 110/110/110 111/111/111 27/27/27
f 110/110/110 27/27/27 45/45/45
f 110/110/110 45/45/45 44/44/44
f 110/110/110 44/44/44 96/96/96
f 110/110/110 96/96/96 98/98/98
f 110/110/110 98/98/98 88/88/88
f 110/110/110 88/88/88 74/74/74
f 110/110/110 74/74/74 111/111/111
f 112/112/112 105/105/105 9/9/9
f 112/112/112 9/9/9 8/8/8
f 112/112/112 8/8/8 7/7/7
f 112/112/112 7/7/7 100/100/100
f 112/112/112 100/100/100 102/102/102
f 112/112/112 102/102/102 49/49/49
f 112/112/112 49/49/49 48/48/48
f 112/112/112 48/48/48 105/105/105
f 113/113/113 101/101/101 5/5/5
f 113/113/113 5/5/5 33/33/33
f 113/113/113 33/33/33 29/29/29
f 113/113/113 29/29/29 114/114/114
f 113/113/113 114/114/114 72/72/72
f 113/113/113 72/72/72 78/78/78
f 113/113/113 78/78/78 52/52/52
f 113/113/113 52/52/52 101/101/101
f 115/115/115 116/116/116 24/24/24
f 115/115/115 24/24/24 35/35/35
f 115/115/115 35/35/35 12/12/12
f 115/115/115 12/12/12 108/108/108
f 115/115/115 108/108/108 60/60/60
f 115/115/115 60/60/60 80/80/80
f 115/115/115 80/80/80 63/63/63
f 115/115/115 63/63/63 116/116/116
f 117/117/117 93/93/93 18/18/18
f 117/117/117 18/18/18 17/17/17
f 117/117/117 17/17/17 24/24/24
f 117/117/117 24/24/24 116/116/116
f 117/117/117 116/116/116 63/63/63
f 117/117/117 63/63/63 62/62/62
f 117/117/117 62/62/62 69/69/69
f 117/117/117 69/69/69 93/93/93
f 118/118/118 114/114/114 29/29/29
f 118/118/118 29/29/29 28/28/28
f 118/118/118 28/28/28 27/27/27
f 118/118/118 27/27/27 111/111/111
f 118/118/118 111/111/111 74/74/74
f 118/118/118 74/74/74 73/73/73
f 118/118/118 73/73/73 72/72/72
f 118/118/118 72/72/72 114/114/114
