v -2.309407 0.778794 -1.233134
v -2.307722 0.778616 -1.233449
v -2.308525 0.776545 -1.234021
v -2.310337 0.776958 -1.233557
v -2.311786 0.777231 -1.233381
v -2.310817 0.778754 -1.233116
v -2.309885 0.779566 -1.232903
v -2.308665 0.780046 -1.232777
v -2.307111 0.780105 -1.232959
v -2.306432 0.777992 -1.234405
v -2.3056 0.777347 -1.235346
v -2.305859 0.775633 -1.235914
v -2.306956 0.776046 -1.235002
v -2.30609 0.779352 -1.233877
v -2.305659 0.778426 -1.234709
v -2.309108 0.769222 -1.235631
v -2.307934 0.768888 -1.236335
v -2.308846 0.766607 -1.236046
v -2.30988 0.766904 -1.235413
v -2.311293 0.767298 -1.234666
v -2.31071 0.769666 -1.234796
v -2.310066 0.772011 -1.234768
v -2.308396 0.77155 -1.235658
v -2.307178 0.771204 -1.236418
v -2.312421 0.770115 -1.234216
v -2.31281 0.767694 -1.234161
v -2.313981 0.767992 -1.233852
v -2.31374 0.770453 -1.233854
v -2.31325 0.772842 -1.233824
v -2.311861 0.772484 -1.234177
v -2.311161 0.77481 -1.233931
v -2.309322 0.774323 -1.234485
v -2.312598 0.775181 -1.233641
v -2.307645 0.773862 -1.235434
v -2.306435 0.773519 -1.236275
v -2.310812 0.764621 -1.235063
v -2.310056 0.764399 -1.235573
v -2.310904 0.763224 -1.235145
v -2.311561 0.762921 -1.23473
v -2.312259 0.763122 -1.234292
v -2.311855 0.764915 -1.234477
v -2.312999 0.765211 -1.234129
v -2.313059 0.763324 -1.23409
v -2.3136 0.763951 -1.233993
v -2.31389 0.765433 -1.233934
v -2.309376 0.778742 -1.232964
v -2.307668 0.778558 -1.233287
v -2.307071 0.78006 -1.232838
v -2.308644 0.780006 -1.23265
v -2.309874 0.779538 -1.232807
v -2.310806 0.778719 -1.232985
v -2.31177 0.777201 -1.23325
v -2.310302 0.776913 -1.233386
v -2.308469 0.776493 -1.233858
v -2.306356 0.777928 -1.234254
v -2.305532 0.777297 -1.235239
v -2.305612 0.778389 -1.234628
v -2.306033 0.779302 -1.233765
v -2.30688 0.77599 -1.234848
v -2.305793 0.775589 -1.235804
v -2.309027 0.769199 -1.235471
v -2.307867 0.768869 -1.236218
v -2.307111 0.771178 -1.236303
v -2.308317 0.771517 -1.235498
v -2.310003 0.771982 -1.234601
v -2.310644 0.769647 -1.234628
v -2.311225 0.767286 -1.234499
v -2.309798 0.766888 -1.235253
v -2.308778 0.766594 -1.235929
v -2.312369 0.7701 -1.234043
v -2.311813 0.77246 -1.234004
v -2.313222 0.772825 -1.233692
v -2.313708 0.770444 -1.233722
v -2.313948 0.767988 -1.23372
v -2.312756 0.767686 -1.233989
v -2.311119 0.774774 -1.233759
v -2.309263 0.774283 -1.23432
v -2.312576 0.775157 -1.23351
v -2.307568 0.773817 -1.235277
v -2.30637 0.773484 -1.236162
v -2.310728 0.764608 -1.234903
v -2.309985 0.764387 -1.235457
v -2.311786 0.764906 -1.23431
v -2.312208 0.763115 -1.234167
v -2.311497 0.762911 -1.234611
v -2.310854 0.763215 -1.235058
v -2.312946 0.765206 -1.233956
v -2.313858 0.765431 -1.233802
v -2.313575 0.763949 -1.233896
v -2.31302 0.763321 -1.23396
v -2.309771 0.764319 -1.235692
v -2.311009 0.762756 -1.235103
v -2.30847 0.766502 -1.236206
v -2.310854 0.763215 -1.235058
v -2.313062 0.762694 -1.23402
v -2.31371 0.763484 -1.233949
v -2.312371 0.762521 -1.234174
v -2.313575 0.763949 -1.233896
v -2.311285 0.778726 -1.233051
v -2.310033 0.779714 -1.232836
v -2.312264 0.777309 -1.233263
v -2.309874 0.779538 -1.232807
v -2.305951 0.779783 -1.233652
v -2.305461 0.778482 -1.234789
v -2.30689 0.780581 -1.232742
v -2.305612 0.778389 -1.234628
v -2.30529 0.777109 -1.235613
v -2.305462 0.775475 -1.23617
v -2.311782 0.762349 -1.234567
v -2.314175 0.765507 -1.23381
v -2.314358 0.76809 -1.233689
v -2.308409 0.780445 -1.232601
v -2.313069 0.775294 -1.233485
v -2.313702 0.772954 -1.233647
v -2.306001 0.773389 -1.236506
v -2.306741 0.771077 -1.236621
v -2.307512 0.768768 -1.236519
v -2.314167 0.770562 -1.233675
vn -0.0854 0.2929 -0.9523
vn -0.2778 0.3726 -0.8854
vn -0.2986 0.3183 -0.8997
vn -0.1277 0.2452 -0.961
vn -0.1447 0.2248 -0.9636
vn -0.0932 0.2951 -0.9509
vn -0.0568 0.3438 -0.9373
vn -0.0894 0.3875 -0.9175
vn -0.2434 0.4548 -0.8567
vn -0.4718 0.3972 -0.7872
vn -0.4653 0.3955 -0.7918
vn -0.4736 0.3134 -0.8231
vn -0.4732 0.3384 -0.8133
vn -0.4051 0.4725 -0.7827
vn -0.4566 0.4516 -0.7665
vn -0.4688 0.1034 -0.8772
vn -0.4391 0.0866 -0.8943
vn -0.4443 0.0545 -0.8942
vn -0.4837 0.073 -0.8722
vn -0.3846 0.0355 -0.9224
vn -0.3742 0.0768 -0.9242
vn -0.3513 0.1593 -0.9226
vn -0.4597 0.1799 -0.8696
vn -0.4414 0.1571 -0.8834
vn -0.2747 0.0511 -0.9601
vn -0.2755 0.0169 -0.9611
vn -0.3217 0.0215 -0.9466
vn -0.3111 0.0521 -0.9489
vn -0.2721 0.1115 -0.9557
vn -0.242 0.1213 -0.9626
vn -0.1869 0.1941 -0.963
vn -0.323 0.2489 -0.913
vn -0.2107 0.1737 -0.962
vn -0.4613 0.2681 -0.8457
vn -0.4554 0.2397 -0.8574
vn -0.5085 0.0653 -0.8585
vn -0.4681 0.0411 -0.8827
vn -0.4989 0.0324 -0.866
vn -0.5392 0.0154 -0.842
vn -0.4015 -0.0389 -0.915
vn -0.3892 0.0161 -0.921
vn -0.2548 -0.0031 -0.967
vn -0.2468 -0.0635 -0.9669
vn -0.2796 -0.0268 -0.9597
vn -0.3054 -0.0027 -0.9522
vn 0.0674 -0.2627 0.9625
vn 0.2837 -0.3578 0.8896
vn 0.3055 -0.2996 0.9038
vn 0.011 -0.1729 0.9849
vn -0.0907 -0.1058 0.9902
vn -0.0709 -0.1239 0.9897
vn -0.004 -0.1472 0.9891
vn 0.1139 -0.2392 0.9643
vn 0.2986 -0.3184 0.8997
vn 0.5025 -0.3799 0.7766
vn 0.6626 -0.3218 0.6763
vn 0.6825 -0.3142 0.6599
vn 0.5897 -0.3289 0.7376
vn 0.4862 -0.3395 0.8052
vn 0.6127 -0.3134 0.7255
vn 0.4821 -0.1083 0.8694
vn 0.5709 -0.1429 0.8085
vn 0.5658 -0.1966 0.8008
vn 0.4723 -0.1836 0.8621
vn 0.3513 -0.1592 0.9226
vn 0.3742 -0.0767 0.9241
vn 0.3846 -0.0354 0.9224
vn 0.4986 -0.0808 0.863
vn 0.5907 -0.1461 0.7935
vn 0.2593 -0.0482 0.9646
vn 0.2279 -0.1177 0.9665
vn 0.1251 -0.0778 0.9891
vn 0.1504 -0.0295 0.9882
vn 0.1269 -0.0211 0.9917
vn 0.2571 -0.0157 0.9662
vn 0.1733 -0.1899 0.9664
vn 0.323 -0.249 0.9131
vn 0.0672 -0.1279 0.9895
vn 0.4735 -0.2708 0.8381
vn 0.5789 -0.2658 0.7708
vn 0.5249 -0.0905 0.8463
vn 0.6223 -0.1916 0.7589
vn 0.3864 -0.0279 0.9219
vn 0.3734 -0.0798 0.9242
vn 0.5647 -0.1762 0.8062
vn 0.638 -0.2242 0.7367
vn 0.2259 -0.0099 0.9741
vn 0.065 -0.0414 0.997
vn 0.0266 -0.0593 0.9979
vn 0.1383 -0.061 0.9885
vn 0.644 -0.5696 -0.5107
vn 0.3423 -0.839 -0.4229
vn 0.7393 -0.4459 -0.5045
vn 0.638 -0.2242 0.7367
vn -0.4528 -0.8838 0.118
vn -0.8518 -0.5165 0.0874
vn -0.1858 -0.9668 0.1752
vn 0.0266 -0.0593 0.9979
vn -0.7809 0.613 0.12
vn -0.5415 0.8256 0.1586
vn -0.8915 0.4335 0.1312
vn -0.0907 -0.1058 0.9902
vn 0.7229 0.6901 -0.0338
vn 0.7839 0.4682 -0.4077
vn 0.3735 0.8683 0.3264
vn 0.6825 -0.3142 0.6599
vn 0.8081 0.1842 -0.5594
vn 0.8043 -0.0238 -0.5937
vn -0.0309 -0.9976 -0.0623
vn -0.9745 -0.1332 0.1805
vn -0.9737 0.0159 0.2272
vn -0.155 0.927 0.3413
vn -0.9406 0.2975 0.1632
vn -0.9563 0.2178 0.1951
vn 0.797 -0.1705 -0.5793
vn 0.7938 -0.2537 -0.5527
vn 0.7849 -0.3339 -0.5219
vn -0.9644 0.1379 0.2256
vt 0.839504 0.118056
vt 0.856743 0.205307
vt 0.741230 0.205307
vt 0.734555 0.106726
vt 0.724541 0.032791
vt 0.813647 0.052618
vt 0.868992 0.081539
vt 0.913398 0.129584
vt 0.940923 0.205307
vt 0.839504 0.292557
vt 0.813647 0.357995
vt 0.724541 0.377822
vt 0.734555 0.303887
vt 0.913398 0.281029
vt 0.868992 0.329074
vt 0.369475 0.299954
vt 0.368286 0.370940
vt 0.245840 0.351447
vt 0.246397 0.288815
vt 0.246768 0.205307
vt 0.370268 0.205307
vt 0.494283 0.205307
vt 0.492822 0.304944
vt 0.490632 0.379672
vt 0.369475 0.110659
vt 0.246397 0.121798
vt 0.245841 0.059166
vt 0.368286 0.039673
vt 0.490632 0.030941
vt 0.492822 0.105669
vt 0.616755 0.103478
vt 0.619174 0.205307
vt 0.613127 0.027106
vt 0.616755 0.307135
vt 0.613126 0.383507
vt 0.123273 0.268175
vt 0.123047 0.315326
vt 0.054743 0.283353
vt 0.030912 0.249131
vt 0.030973 0.205306
vt 0.123423 0.205306
vt 0.123273 0.142438
vt 0.030912 0.161481
vt 0.054744 0.127260
vt 0.123047 0.095287
vt 0.839504 0.118056
vt 0.856743 0.205307
vt 0.968983 0.205307
vt 0.938030 0.133427
vt 0.876123 0.061548
vt 0.805028 0.030806
vt 0.721203 0.008146
vt 0.734555 0.106726
vt 0.741230 0.205307
vt 0.839504 0.292557
vt 0.805028 0.379807
vt 0.876123 0.349065
vt 0.938030 0.277186
vt 0.734555 0.303887
vt 0.721203 0.402467
vt 0.369475 0.299954
vt 0.367890 0.394602
vt 0.489902 0.404581
vt 0.492822 0.304944
vt 0.494283 0.205307
vt 0.370268 0.205307
vt 0.246768 0.205307
vt 0.246397 0.288815
vt 0.245655 0.372324
vt 0.369475 0.110659
vt 0.492822 0.105669
vt 0.489902 0.006032
vt 0.367890 0.016011
vt 0.245655 0.038289
vt 0.246397 0.121798
vt 0.616755 0.103478
vt 0.619174 0.205307
vt 0.611917 0.001649
vt 0.616755 0.307135
vt 0.611917 0.408964
vt 0.123273 0.268175
vt 0.122972 0.331043
vt 0.123423 0.205306
vt 0.000156 0.205306
vt 0.000125 0.242784
vt 0.000064 0.280261
vt 0.123273 0.142438
vt 0.122972 0.079570
vt 0.000064 0.130352
vt 0.000125 0.167829
vt 0.122972 0.331043
vt 0.030806 0.283587
vt 0.245655 0.372324
vt 0.030806 0.283587
vt 0.000125 0.167829
vt 0.030806 0.127026
vt 0.000156 0.205306
vt 0.030806 0.127026
vt 0.805028 0.030806
vt 0.873826 0.071832
vt 0.721203 0.008146
vt 0.873826 0.071832
vt 0.938030 0.277186
vt 0.873826 0.338781
vt 0.968983 0.205307
vt 0.873826 0.338781
vt 0.805028 0.379807
vt 0.721203 0.402467
vt 0.000125 0.242784
vt 0.122972 0.079570
vt 0.245655 0.038289
vt 0.938030 0.133427
vt 0.611917 0.001649
vt 0.489902 0.006032
vt 0.611917 0.408964
vt 0.489902 0.404581
vt 0.367890 0.394602
vt 0.367890 0.016011
f 1/1/1 2/2/2 3/3/3
f 1/1/1 3/3/3 4/4/4
f 1/1/1 4/4/4 5/5/5
f 1/1/1 5/5/5 6/6/6
f 1/1/1 6/6/6 7/7/7
f 1/1/1 7/7/7 8/8/8
f 1/1/1 8/8/8 9/9/9
f 1/1/1 9/9/9 2/2/2
f 10/10/10 11/11/11 12/12/12
f 10/10/10 12/12/12 13/13/13
f 10/10/10 13/13/13 3/3/3
f 10/10/10 3/3/3 2/2/2
f 10/10/10 2/2/2 9/9/9
f 10/10/10 9/9/9 14/14/14
f 10/10/10 14/14/14 15/15/15
f 10/10/10 15/15/15 11/11/11
f 16/16/16 17/17/17 18/18/18
f 16/16/16 18/18/18 19/19/19
f 16/16/16 19/19/19 20/20/20
f 16/16/16 20/20/20 21/21/21
f 16/16/16 21/21/21 22/22/22
f 16/16/16 22/22/22 23/23/23
f 16/16/16 23/23/23 24/24/24
f 16/16/16 24/24/24 17/17/17
f 25/25/25 21/21/21 20/20/20
f 25/25/25 20/20/20 26/26/26
f 25/25/25 26/26/26 27/27/27
f 25/25/25 27/27/27 28/28/28
f 25/25/25 28/28/28 29/29/29
f 25/25/25 29/29/29 30/30/30
f 25/25/25 30/30/30 22/22/22
f 25/25/25 22/22/22 21/21/21
f 31/31/31 32/32/32 22/22/22
f 31/31/31 22/22/22 30/30/30
f 31/31/31 30/30/30 29/29/29
f 31/31/31 29/29/29 33/33/33
f 31/31/31 33/33/33 5/5/5
f 31/31/31 5/5/5 4/4/4
f 31/31/31 4/4/4 3/3/3
f 31/31/31 3/3/3 32/32/32
f 34/34/34 35/35/35 24/24/24
f 34/34/34 24/24/24 23/23/23
f 34/34/34 23/23/23 22/22/22
f 34/34/34 22/22/22 32/32/32
f 34/34/34 32/32/32 3/3/3
f 34/34/34 3/3/3 13/13/13
f 34/34/34 13/13/13 12/12/12
f 34/34/34 12/12/12 35/35/35
f 36/36/36 37/37/37 38/38/38
f 36/36/36 38/38/38 39/39/39
f 36/36/36 39/39/39 40/40/40
f 36/36/36 40/40/40 41/41/41
f 36/36/36 41/41/41 20/20/20
f 36/36/36 20/20/20 19/19/19
f 36/36/36 19/19/19 18/18/18
f 36/36/36 18/18/18 37/37/37
f 42/42/42 41/41/41 40/40/40
f 42/42/42 40/40/40 43/43/43
f 42/42/42 43/43/43 44/44/44
f 42/42/42 44/44/44 45/45/45
f 42/42/42 45/45/45 27/27/27
f 42/42/42 27/27/27 26/26/26
f 42/42/42 26/26/26 20/20/20
f 42/42/42 20/20/20 41/41/41
f 46/46/46 47/47/47 48/48/48
f 46/46/46 48/48/48 49/49/49
f 46/46/46 49/49/49 50/50/50
f 46/46/46 50/50/50 51/51/51
f 46/46/46 51/51/51 52/52/52
f 46/46/46 52/52/52 53/53/53
f 46/46/46 53/53/53 54/54/54
f 46/46/46 54/54/54 47/47/47
f 55/55/55 56/56/56 57/57/57
f 55/55/55 57/57/57 58/58/58
f 55/55/55 58/58/58 48/48/48
f 55/55/55 48/48/48 47/47/47
f 55/55/55 47/47/47 54/54/54
f 55/55/55 54/54/54 59/59/59
f 55/55/55 59/59/59 60/60/60
f 55/55/55 60/60/60 56/56/56
f 61/61/61 62/62/62 63/63/63
f 61/61/61 63/63/63 64/64/64
f 61/61/61 64/64/64 65/65/65
f 61/61/61 65/65/65 66/66/66
f 61/61/61 66/66/66 67/67/67
f 61/61/61 67/67/67 68/68/68
f 61/61/61 68/68/68 69/69/69
f 61/61/61 69/69/69 62/62/62
f 70/70/70 66/66/66 65/65/65
f 70/70/70 65/65/65 71/71/71
f 70/70/70 71/71/71 72/72/72
f 70/70/70 72/72/72 73/73/73
f 70/70/70 73/73/73 74/74/74
f 70/70/70 74/74/74 75/75/75
f 70/70/70 75/75/75 67/67/67
f 70/70/70 67/67/67 66/66/66
f 76/76/76 77/77/77 54/54/54
f 76/76/76 54/54/54 53/53/53
f 76/76/76 53/53/53 52/52/52
f 76/76/76 52/52/52 78/78/78
f 76/76/76 78/78/78 72/72/72
f 76/76/76 72/72/72 71/71/71
f 76/76/76 71/71/71 65/65/65
f 76/76/76 65/65/65 77/77/77
f 79/79/79 80/80/80 60/60/60
f 79/79/79 60/60/60 59/59/59
f 79/79/79 59/59/59 54/54/54
f 79/79/79 54/54/54 77/77/77
f 79/79/79 77/77/77 65/65/65
f 79/79/79 65/65/65 64/64/64
f 79/79/79 64/64/64 63/63/63
f 79/79/79 63/63/63 80/80/80
f 81/81/81 82/82/82 69/69/69
f 81/81/81 69/69/69 68/68/68
f 81/81/81 68/68/68 67/67/67
f 81/81/81 67/67/67 83/83/83
f 81/81/81 83/83/83 84/84/84
f 81/81/81 84/84/84 85/85/85
f 81/81/81 85/85/85 86/86/86
f 81/81/81 86/86/86 82/82/82
f 87/87/87 83/83/83 67/67/67
f 87/87/87 67/67/67 75/75/75
f 87/87/87 75/75/75 74/74/74
f 87/87/87 74/74/74 88/88/88
f 87/87/87 88/88/88 89/89/89
f 87/87/87 89/89/89 90/90/90
f 87/87/87 90/90/90 84/84/84
f 87/87/87 84/84/84 83/83/83
f 91/91/91 92/92/92 38/38/38
f 91/91/91 38/38/38 37/37/37
f 91/91/91 37/37/37 18/18/18
f 91/91/91 18/18/18 93/93/93
f 91/91/91 93/93/93 69/69/69
f 91/91/91 69/69/69 82/82/82
f 91/91/91 82/82/82 94/94/94
f 91/91/91 94/94/94 92/92/92
f 95/95/95 96/96/96 44/44/44
f 95/95/95 44/44/44 43/43/43
f 95/95/95 43/43/43 40/40/40
f 95/95/95 40/40/40 97/97/97
f 95/95/95 97/97/97 84/84/84
f 95/95/95 84/84/84 90/90/90
f 95/95/95 90/90/90 98/98/98
f 95/95/95 98/98/98 96/96/96
f 99/99/99 100/100/100 7/7/7
f 99/99/99 7/7/7 6/6/6
f 99/99/99 6/6/6 5/5/5
f 99/99/99 5/5/5 101/101/101
f 99/99/99 101/101/101 52/52/52
f 99/99/99 52/52/52 51/51/51
f 99/99/99 51/51/51 102/102/102
f 99/99/99 102/102/102 100/100/100
f 103/103/103 104/104/104 15/15/15
f 103/103/103 15/15/15 14/14/14
f 103/103/103 14/14/14 9/9/9
f 103/103/103 9/9/9 105/105/105
f 103/103/103 105/105/105 48/48/48
f 103/103/103 48/48/48 58/58/58
f 103/103/103 58/58/58 106/106/106
f 103/103/103 106/106/106 104/104/104
f 107/107/107 108/108/108 12/12/12
f 107/107/107 12/12/12 11/11/11
f 107/107/107 11/11/11 15/15/15
f 107/107/107 15/15/15 104/104/104
f 107/107/107 104/104/104 106/106/106
f 107/107/107 106/106/106 56/56/56
f 107/107/107 56/56/56 60/60/60
f 107/107/107 60/60/60 108/108/108
f 109/109/109 97/97/97 40/40/40
f 109/109/109 40/40/40 39/39/39
f 109/109/109 39/39/39 38/38/38
f 109/109/109 38/38/38 92/92/92
f 109/109/109 92/92/92 94/94/94
f 109/109/109 94/94/94 85/85/85
f 109/109/109 85/85/85 84/84/84
f 109/109/109 84/84/84 97/97/97
f 110/110/110 111/111/111 27/27/27
f 110/110/110 27/27/27 45/45/45
f 110/110/110 45/45/45 44/44/44
f 110/110/110 44/44/44 96/96/96
f 110/110/110 96/96/96 98/98/98
f 110/110/110 98/98/98 88/88/88
f 110/110/110 88/88/88 74/74/74
f 110/110/110 74/74/74 111/111/111
f 112/112/112 105/105/105 9/9/9
f 112/112/112 9/9/9 8/8/8
f 112/112/112 8/8/8 7/7/7
f 112/112/112 7/7/7 100/100/100
f 112/112/112 100/100/100 102/102/102
f 112/112/112 102/102/102 49/49/49
f 112/112/112 49/49/49 48/48/48
f 112/112/112 48/48/48 105/105/105
f 113/113/113 101/101/101 5/5/5
f 113/113/113 5/5/5 33/33/33
f 113/113/113 33/33/33 29/29/29
f 113/113/113 29/29/29 114/114/114
f 113/113/113 114/114/114 72/72/72
f 113/113/113 72/72/72 78/78/78
f 113/113/113 78/78/78 52/52/52
f 113/113/113 52/52/52 101/101/101
f 115/115/115 116/116/116 24/24/24
f 115/115/115 24/24/24 35/35/35
f 115/115/115 35/35/35 12/12/12
f 115/115/115 12/12/12 108/108/108
f 115/115/115 108/108/108 60/60/60
f 115/115/115 60/60/60 80/80/80
f 115/115/115 80/80/80 63/63/63
f 115/115/115 63/63/63 116/116/116
f 117/117/117 93/93/93 18/18/18
f 117/117/117 18/18/18 17/17/17
f 117/117/117 17/17/17 24/24/24
f 117/117/117 24/24/24 116/116/116
f 117/117/117 116/116/116 63/63/63
f 117/117/117 63/63/63 62/62/62
f 117/117/117 62/62/62 69/69/69
f 117/117/117 69/69/69 93/93/93
f 118/118/118 114/114/114 29/29/29
f 118/118/118 29/29/29 28/28/28
f 118/118/118 28/28/28 27/27/27
f 118/118/118 27/27/27 111/111/111
f 118/118/118 111/111/111 74/74/74
f 118/118/118 74/74/74 73/73/73
f 118/118/118 73/73/73 72/72/72
f 118/118/118 72/72/72 114/114/114
