v -2.409523 0.78744 -1.228334
v -2.409332 0.788058 -1.22748
v -2.408154 0.787254 -1.227528
v -2.408513 0.786623 -1.228472
v -2.408689 0.786172 -1.229258
v -2.409492 0.786948 -1.22906
v -2.409958 0.787473 -1.22872
v -2.410244 0.788007 -1.228169
v -2.410213 0.788617 -1.227411
v -2.408657 0.788624 -1.226871
v -2.407973 0.789024 -1.226493
v -2.406963 0.78853 -1.226342
v -2.407528 0.787968 -1.226809
v -2.409494 0.789032 -1.226902
v -2.408727 0.789154 -1.226641
v -2.404205 0.785011 -1.226418
v -2.403767 0.785548 -1.225883
v -2.402872 0.784306 -1.225739
v -2.403264 0.783829 -1.226208
v -2.403744 0.783217 -1.226874
v -2.404743 0.784321 -1.227175
v -2.405801 0.785376 -1.227402
v -2.405233 0.786104 -1.226618
v -2.404766 0.786673 -1.226069
v -2.40517 0.783693 -1.228048
v -2.404118 0.782664 -1.227649
v -2.404367 0.782263 -1.228265
v -2.405458 0.783238 -1.228739
v -2.406534 0.784257 -1.229057
v -2.406242 0.784725 -1.228323
v -2.407388 0.78571 -1.228466
v -2.406958 0.786357 -1.227511
v -2.407658 0.785255 -1.229243
v -2.406364 0.787109 -1.226736
v -2.405863 0.787707 -1.226211
v -2.402394 0.782557 -1.22606
v -2.402085 0.782922 -1.225726
v -2.401739 0.78205 -1.225787
v -2.401777 0.781564 -1.225962
v -2.402047 0.781237 -1.226277
v -2.402765 0.782093 -1.226544
v -2.403031 0.781687 -1.227136
v -2.402213 0.780968 -1.226699
v -2.402525 0.780977 -1.227113
v -2.403201 0.781396 -1.227613
v -2.409575 0.787367 -1.228267
v -2.409377 0.787993 -1.227401
v -2.410246 0.788567 -1.227351
v -2.410282 0.787951 -1.228119
v -2.409988 0.787431 -1.228686
v -2.409534 0.786889 -1.229016
v -2.408734 0.786116 -1.229212
v -2.408568 0.786554 -1.228403
v -2.408204 0.787192 -1.227448
v -2.408695 0.788569 -1.226781
v -2.407998 0.788988 -1.226421
v -2.408747 0.789126 -1.226589
v -2.409521 0.78899 -1.226835
v -2.407572 0.787915 -1.22672
v -2.406993 0.788494 -1.226271
v -2.404266 0.784969 -1.226333
v -2.403811 0.78552 -1.225816
v -2.404805 0.786642 -1.226002
v -2.405289 0.786058 -1.226532
v -2.405862 0.785324 -1.227323
v -2.404809 0.784272 -1.227097
v -2.403813 0.783172 -1.226797
v -2.403328 0.78379 -1.226124
v -2.402918 0.78428 -1.225673
v -2.40524 0.783639 -1.227977
v -2.406307 0.784667 -1.228252
v -2.406585 0.784211 -1.229008
v -2.405512 0.783196 -1.22869
v -2.404424 0.782223 -1.228217
v -2.40419 0.782613 -1.22758
v -2.407448 0.785646 -1.228396
v -2.407013 0.7863 -1.227432
v -2.407705 0.785204 -1.229195
v -2.406414 0.787059 -1.226649
v -2.405897 0.787673 -1.226142
v -2.40246 0.782519 -1.225976
v -2.402131 0.782897 -1.22566
v -2.402835 0.78205 -1.226467
v -2.4021 0.781205 -1.226219
v -2.401826 0.781536 -1.225899
v -2.401774 0.782031 -1.225739
v -2.403105 0.781637 -1.227067
v -2.403259 0.781356 -1.227565
v -2.402567 0.780948 -1.227077
v -2.402269 0.78093 -1.226648
v -2.402001 0.783033 -1.225585
v -2.401549 0.781829 -1.225718
v -2.402761 0.784454 -1.225552
v -2.401774 0.782031 -1.225739
v -2.401965 0.780711 -1.226531
v -2.402336 0.780755 -1.227047
v -2.401831 0.780938 -1.226162
v -2.402567 0.780948 -1.227077
v -2.409502 0.786757 -1.229284
v -2.410051 0.787452 -1.228819
v -2.408769 0.785996 -1.2295
v -2.409988 0.787431 -1.228686
v -2.409785 0.789149 -1.226883
v -2.40872 0.789271 -1.22657
v -2.410521 0.788781 -1.227361
v -2.408747 0.789126 -1.226589
v -2.407755 0.789142 -1.226334
v -2.406787 0.788702 -1.226154
v -2.401593 0.781221 -1.225901
v -2.403284 0.781281 -1.227751
v -2.404476 0.782111 -1.228449
v -2.410501 0.788171 -1.228092
v -2.407769 0.78508 -1.229482
v -2.406655 0.78408 -1.229281
v -2.40571 0.787892 -1.226005
v -2.404627 0.78685 -1.225856
v -2.40364 0.785715 -1.225674
v -2.405578 0.783067 -1.228948
vn 0.4629 0.7047 -0.5376
vn 0.3638 0.6072 -0.7064
vn 0.4129 0.573 -0.7079
vn 0.5039 0.6596 -0.5576
vn 0.5207 0.64 -0.565
vn 0.4607 0.701 -0.5443
vn 0.4156 0.7407 -0.5278
vn 0.3712 0.7368 -0.5651
vn 0.2843 0.6562 -0.699
vn 0.2819 0.4574 -0.8434
vn 0.2861 0.4628 -0.839
vn 0.3666 0.4296 -0.8253
vn 0.3421 0.4384 -0.8311
vn 0.2234 0.5347 -0.815
vn 0.2282 0.4848 -0.8443
vn 0.554 0.3425 -0.7588
vn 0.5772 0.359 -0.7335
vn 0.6 0.3374 -0.7253
vn 0.5724 0.3137 -0.7576
vn 0.6319 0.3756 -0.6779
vn 0.6036 0.4064 -0.6859
vn 0.5433 0.4658 -0.6984
vn 0.4939 0.3874 -0.7784
vn 0.5194 0.3923 -0.7591
vn 0.6448 0.4667 -0.6053
vn 0.6699 0.447 -0.5929
vn 0.6574 0.4158 -0.6283
vn 0.637 0.4409 -0.6322
vn 0.5987 0.5007 -0.6251
vn 0.5959 0.5266 -0.6062
vn 0.543 0.5991 -0.5884
vn 0.4722 0.5276 -0.7062
vn 0.5575 0.5737 -0.5999
vn 0.4145 0.4235 -0.8055
vn 0.4428 0.4172 -0.7936
vn 0.5689 0.2875 -0.7705
vn 0.602 0.3098 -0.7359
vn 0.5974 0.2778 -0.7523
vn 0.5938 0.2317 -0.7705
vn 0.6801 0.3185 -0.6602
vn 0.6449 0.3608 -0.6737
vn 0.6877 0.4499 -0.5697
vn 0.7304 0.419 -0.5394
vn 0.7001 0.4181 -0.5788
vn 0.6782 0.4137 -0.6073
vn -0.4912 -0.7031 0.5142
vn -0.3774 -0.598 0.7071
vn -0.4293 -0.561 0.7078
vn -0.5694 -0.6944 0.4398
vn -0.6186 -0.7132 0.3297
vn -0.6058 -0.7128 0.3533
vn -0.5903 -0.6902 0.4185
vn -0.5102 -0.6654 0.5449
vn -0.4128 -0.5731 0.7079
vn -0.2874 -0.4245 0.8586
vn -0.262 -0.2435 0.9338
vn -0.2562 -0.2184 0.9416
vn -0.2982 -0.3242 0.8977
vn -0.3358 -0.4271 0.8395
vn -0.3014 -0.2957 0.9065
vn -0.5452 -0.3334 0.7692
vn -0.4798 -0.2689 0.8351
vn -0.4363 -0.2982 0.8489
vn -0.4863 -0.3782 0.7876
vn -0.5434 -0.4658 0.6984
vn -0.6037 -0.4061 0.686
vn -0.6321 -0.3754 0.6779
vn -0.5607 -0.3045 0.77
vn -0.4675 -0.2509 0.8476
vn -0.6496 -0.476 0.5928
vn -0.6008 -0.5346 0.5943
vn -0.6427 -0.5802 0.5003
vn -0.6769 -0.538 0.5023
vn -0.6848 -0.5478 0.4805
vn -0.6739 -0.4592 0.5788
vn -0.5481 -0.6059 0.5765
vn -0.4721 -0.5276 0.7062
vn -0.606 -0.6408 0.4713
vn -0.4075 -0.4138 0.8141
vn -0.3664 -0.3134 0.8761
vn -0.5427 -0.286 0.7897
vn -0.4118 -0.2394 0.8793
vn -0.6371 -0.3699 0.6762
vn -0.6015 -0.4086 0.6864
vn -0.4548 -0.2902 0.842
vn -0.3735 -0.2364 0.897
vn -0.6828 -0.4773 0.5531
vn -0.6727 -0.5959 0.4386
vn -0.6597 -0.6275 0.4136
vn -0.6544 -0.5632 0.5045
vn 0.7488 0.3244 0.578
vn 0.8855 -0.0486 0.4621
vn 0.6543 0.444 0.6122
vn -0.3735 -0.2364 0.897
vn 0.5559 -0.8312 0.0075
vn 0.3262 -0.8123 -0.4834
vn 0.5684 -0.7712 0.2865
vn -0.6597 -0.6275 0.4136
vn -0.5018 -0.1344 -0.8544
vn -0.6862 0.0954 -0.7211
vn -0.3795 -0.3056 -0.8732
vn -0.6186 -0.7132 0.3297
vn -0.4846 0.8116 0.3262
vn -0.0649 0.9427 0.3272
vn -0.8557 0.5086 0.0949
vn -0.2562 -0.2184 0.9416
vn 0.2423 0.8824 0.4032
vn 0.4146 0.7798 0.4689
vn 0.7537 -0.5611 0.3422
vn -0.0093 -0.7117 -0.7024
vn -0.1478 -0.6525 -0.7432
vn -0.8957 0.2508 -0.3672
vn -0.3041 -0.431 -0.8496
vn -0.2698 -0.505 -0.8198
vn 0.5092 0.6816 0.5254
vn 0.5499 0.6149 0.5651
vn 0.586 0.5443 0.6003
vn -0.234 -0.5749 -0.784
vt 0.839504 0.118056
vt 0.856743 0.205307
vt 0.741230 0.205307
vt 0.734555 0.106726
vt 0.724541 0.032791
vt 0.813647 0.052618
vt 0.868992 0.081539
vt 0.913398 0.129584
vt 0.940923 0.205307
vt 0.839504 0.292557
vt 0.813647 0.357995
vt 0.724541 0.377822
vt 0.734555 0.303887
vt 0.913398 0.281029
vt 0.868992 0.329074
vt 0.369475 0.299954
vt 0.368286 0.370940
vt 0.245840 0.351447
vt 0.246397 0.288815
vt 0.246768 0.205307
vt 0.370268 0.205307
vt 0.494283 0.205307
vt 0.492822 0.304944
vt 0.490632 0.379672
vt 0.369475 0.110659
vt 0.246397 0.121798
vt 0.245841 0.059166
vt 0.368286 0.039673
vt 0.490632 0.030941
vt 0.492822 0.105669
vt 0.616755 0.103478
vt 0.619174 0.205307
vt 0.613127 0.027106
vt 0.616755 0.307135
vt 0.613126 0.383507
vt 0.123273 0.268175
vt 0.123047 0.315326
vt 0.054743 0.283353
vt 0.030912 0.249131
vt 0.030973 0.205306
vt 0.123423 0.205306
vt 0.123273 0.142438
vt 0.030912 0.161481
vt 0.054744 0.127260
vt 0.123047 0.095287
vt 0.839504 0.118056
vt 0.856743 0.205307
vt 0.968983 0.205307
vt 0.938030 0.133427
vt 0.876123 0.061548
vt 0.805028 0.030806
vt 0.721203 0.008146
vt 0.734555 0.106726
vt 0.741230 0.205307
vt 0.839504 0.292557
vt 0.805028 0.379807
vt 0.876123 0.349065
vt 0.938030 0.277186
vt 0.734555 0.303887
vt 0.721203 0.402467
vt 0.369475 0.299954
vt 0.367890 0.394602
vt 0.489902 0.404581
vt 0.492822 0.304944
vt 0.494283 0.205307
vt 0.370268 0.205307
vt 0.246768 0.205307
vt 0.246397 0.288815
vt 0.245655 0.372324
vt 0.369475 0.110659
vt 0.492822 0.105669
vt 0.489902 0.006032
vt 0.367890 0.016011
vt 0.245655 0.038289
vt 0.246397 0.121798
vt 0.616755 0.103478
vt 0.619174 0.205307
vt 0.611917 0.001649
vt 0.616755 0.307135
vt 0.611917 0.408964
vt 0.123273 0.268175
vt 0.122972 0.331043
vt 0.123423 0.205306
vt 0.000156 0.205306
vt 0.000125 0.242784
vt 0.000064 0.280261
vt 0.123273 0.142438
vt 0.122972 0.079570
vt 0.000064 0.130352
vt 0.000125 0.167829
vt 0.122972 0.331043
vt 0.030806 0.283587
vt 0.245655 0.372324
vt 0.030806 0.283587
vt 0.000125 0.167829
vt 0.030806 0.127026
vt 0.000156 0.205306
vt 0.030806 0.127026
vt 0.805028 0.030806
vt 0.873826 0.071832
vt 0.721203 0.008146
vt 0.873826 0.071832
vt 0.938030 0.277186
vt 0.873826 0.338781
vt 0.968983 0.205307
vt 0.873826 0.338781
vt 0.805028 0.379807
vt 0.721203 0.402467
vt 0.000125 0.242784
vt 0.122972 0.079570
vt 0.245655 0.038289
vt 0.938030 0.133427
vt 0.611917 0.001649
vt 0.489902 0.006032
vt 0.611917 0.408964
vt 0.489902 0.404581
vt 0.367890 0.394602
vt 0.367890 0.016011
f 1/1/1 2/2/2 3/3/3
f 1/1/1 3/3/3 4/4/4
f 1/1/1 4/4/4 5/5/5
f 1/1/1 5/5/5 6/6/6
f 1/1/1 6/6/6 7/7/7
f 1/1/1 7/7/7 8/8/8
f 1/1/1 8/8/8 9/9/9
f 1/1/1 9/9/9 2/2/2
f 10/10/10 11/11/11 12/12/12
f 10/10/10 12/12/12 13/13/13
f 10/10/10 13/13/13 3/3/3
f 10/10/10 3/3/3 2/2/2
f 10/10/10 2/2/2 9/9/9
f 10/10/10 9/9/9 14/14/14
f 10/10/10 14/14/14 15/15/15
f 10/10/10 15/15/15 11/11/11
f 16/16/16 17/17/17 18/18/18
f 16/16/16 18/18/18 19/19/19
f 16/16/16 19/19/19 20/20/20
f 16/16/16 20/20/20 21/21/21
f 16/16/16 21/21/21 22/22/22
f 16/16/16 22/22/22 23/23/23
f 16/16/16 23/23/23 24/24/24
f 16/16/16 24/24/24 17/17/17
f 25/25/25 21/21/21 20/20/20
f 25/25/25 20/20/20 26/26/26
f 25/25/25 26/26/26 27/27/27
f 25/25/25 27/27/27 28/28/28
f 25/25/25 28/28/28 29/29/29
f 25/25/25 29/29/29 30/30/30
f 25/25/25 30/30/30 22/22/22
f 25/25/25 22/22/22 21/21/21
f 31/31/31 32/32/32 22/22/22
f 31/31/31 22/22/22 30/30/30
f 31/31/31 30/30/30 29/29/29
f 31/31/31 29/29/29 33/33/33
f 31/31/31 33/33/33 5/5/5
f 31/31/31 5/5/5 4/4/4
f 31/31/31 4/4/4 3/3/3
f 31/31/31 3/3/3 32/32/32
f 34/34/34 35/35/35 24/24/24
f 34/34/34 24/24/24 23/23/23
f 34/34/34 23/23/23 22/22/22
f 34/34/34 22/22/22 32/32/32
f 34/34/34 32/32/32 3/3/3
f 34/34/34 3/3/3 13/13/13
f 34/34/34 13/13/13 12/12/12
f 34/34/34 12/12/12 35/35/35
f 36/36/36 37/37/37 38/38/38
f 36/36/36 38/38/38 39/39/39
f 36/36/36 39/39/39 40/40/40
f 36/36/36 40/40/40 41/41/41
f 36/36/36 41/41/41 20/20/20
f 36/36/36 20/20/20 19/19/19
f 36/36/36 19/19/19 18/18/18
f 36/36/36 18/18/18 37/37/37
f 42/42/42 41/41/41 40/40/40
f 42/42/42 40/40/40 43/43/43
f 42/42/42 43/43/43 44/44/44
f 42/42/42 44/44/44 45/45/45
f 42/42/42 45/45/45 27/27/27
f 42/42/42 27/27/27 26/26/26
f 42/42/42 26/26/26 20/20/20
f 42/42/42 20/20/20 41/41/41
f 46/46/46 47/47/47 48/48/48
f 46/46/46 48/48/48 49/49/49
f 46/46/46 49/49/49 50/50/50
f 46/46/46 50/50/50 51/51/51
f 46/46/46 51/51/51 52/52/52
f 46/46/46 52/52/52 53/53/53
f 46/46/46 53/53/53 54/54/54
f 46/46/46 54/54/54 47/47/47
f 55/55/55 56/56/56 57/57/57
f 55/55/55 57/57/57 58/58/58
f 55/55/55 58/58/58 48/48/48
f 55/55/55 48/48/48 47/47/47
f 55/55/55 47/47/47 54/54/54
f 55/55/55 54/54/54 59/59/59
f 55/55/55 59/59/59 60/60/60
f 55/55/55 60/60/60 56/56/56
f 61/61/61 62/62/62 63/63/63
f 61/61/61 63/63/63 64/64/64
f 61/61/61 64/64/64 65/65/65
f 61/61/61 65/65/65 66/66/66
f 61/61/61 66/66/66 67/67/67
f 61/61/61 67/67/67 68/68/68
f 61/61/61 68/68/68 69/69/69
f 61/61/61 69/69/69 62/62/62
f 70/70/70 66/66/66 65/65/65
f 70/70/70 65/65/65 71/71/71
f 70/70/70 71/71/71 72/72/72
f 70/70/70 72/72/72 73/73/73
f 70/70/70 73/73/73 74/74/74
f 70/70/70 74/74/74 75/75/75
f 70/70/70 75/75/75 67/67/67
f 70/70/70 67/67/67 66/66/66
f 76/76/76 77/77/77 54/54/54
f 76/76/76 54/54/54 53/53/53
f 76/76/76 53/53/53 52/52/52
f 76/76/76 52/52/52 78/78/78
f 76/76/76 78/78/78 72/72/72
f 76/76/76 72/72/72 71/71/71
f 76/76/76 71/71/71 65/65/65
f 76/76/76 65/65/65 77/77/77
f 79/79/79 80/80/80 60/60/60
f 79/79/79 60/60/60 59/59/59
f 79/79/79 59/59/59 54/54/54
f 79/79/79 54/54/54 77/77/77
f 79/79/79 77/77/77 65/65/65
f 79/79/79 65/65/65 64/64/64
f 79/79/79 64/64/64 63/63/63
f 79/79/79 63/63/63 80/80/80
f 81/81/81 82/82/82 69/69/69
f 81/81/81 69/69/69 68/68/68
f 81/81/81 68/68/68 67/67/67
f 81/81/81 67/67/67 83/83/83
f 81/81/81 83/83/83 84/84/84
f 81/81/81 84/84/84 85/85/85
f 81/81/81 85/85/85 86/86/86
f 81/81/81 86/86/86 82/82/82
f 87/87/87 83/83/83 67/67/67
f 87/87/87 67/67/67 75/75/75
f 87/87/87 75/75/75 74/74/74
f 87/87/87 74/74/74 88/88/88
f 87/87/87 88/88/88 89/89/89
f 87/87/87 89/89/89 90/90/90
f 87/87/87 90/90/90 84/84/84
f 87/87/87 84/84/84 83/83/83
f 91/91/91 92/92/92 38/38/38
f 91/91/91 38/38/38 37/37/37
f 91/91/91 37/37/37 18/18/18
f 91/91/91 18/18/18 93/93/93
f 91/91/91 93/93/93 69/69/69
f 91/91/91 69/69/69 82/82/82
f 91/91/91 82/82/82 94/94/94
f 91/91/91 94/94/94 92/92/92
f 95/95/95 96/96/96 44/44/44
f 95/95/95 44/44/44 43/43/43
f 95/95/95 43/43/43 40/40/40
f 95/95/95 40/40/40 97/97/97
f 95/95/95 97/97/97 84/84/84
f 95/95/95 84/84/84 90/90/90
f 95/95/95 90/90/90 98/98/98
f 95/95/95 98/98/98 96/96/96
f 99/99/99 100/100/100 7/7/7
f 99/99/99 7/7/7 6/6/6
f 99/99/99 6/6/6 5/5/5
f 99/99/99 5/5/5 101/101/101
f 99/99/99 101/101/101 52/52/52
f 99/99/99 52/52/52 51/51/51
f 99/99/99 51/51/51 102/102/102
f 99/99/99 102/102/102 100/100/100
f 103/103/103 104/104/104 15/15/15
f 103/103/103 15/15/15 14/14/14
f 103/103/103 14/14/14 9/9/9
f 103/103/103 9/9/9 105/105/105
f 103/103/103 105/105/105 48/48/48
f 103/103/103 48/48/48 58/58/58
f 103/103/103 58/58/58 106/106/106
f 103/103/103 106/106/106 104/104/104
f 107/107/107 108/108/108 12/12/12
f 107/107/107 12/12/12 11/11/11
f 107/107/107 11/11/11 15/15/15
f 107/107/107 15/15/15 104/104/104
f 107/107/107 104/104/104 106/106/106
f 107/107/107 106/106/106 56/56/56
f 107/107/107 56/56/56 60/60/60
f 107/107/107 60/60/60 108/108/108
f 109/109/109 97/97/97 40/40/40
f 109/109/109 40/40/40 39/39/39
f 109/109/109 39/39/39 38/38/38
f 109/109/109 38/38/38 92/92/92
f 109/109/109 92/92/92 94/94/94
f 109/109/109 94/94/94 85/85/85
f 109/109/109 85/85/85 84/84/84
f 109/109/109 84/84/84 97/97/97
f 110/110/110 111/111/111 27/27/27
f 110/110/110 27/27/27 45/45/45
f 110/110/110 45/45/45 44/44/44
f 110/110/110 44/44/44 96/96/96
f 110/110/110 96/96/96 98/98/98
f 110/110/110 98/98/98 88/88/88
f 110/110/110 88/88/88 74/74/74
f 110/110/110 74/74/74 111/111/111
f 112/112/112 105/105/105 9/9/9
f 112/112/112 9/9/9 8/8/8
f 112/112/112 8/8/8 7/7/7
f 112/112/112 7/7/7 100/100/100
f 112/112/112 100/100/100 102/102/102
f 112/112/112 102/102/102 49/49/49
f 112/112/112 49/49/49 48/48/48
f 112/112/112 48/48/48 105/105/105
f 113/113/113 101/101/101 5/5/5
f 113/113/113 5/5/5 33/33/33
f 113/113/113 33/33/33 29/29/29
f 113/113/113 29/29/29 114/114/114
f 113/113/113 114/114/114 72/72/72
f 113/113/113 72/72/72 78/78/78
f 113/113/113 78/78/78 52/52/52
f 113/113/113 52/52/52 101/101/101
f 115/115/115 116/116/116 24/24/24
f 115/115/115 24/24/24 35/35/35
f 115/115/115 35/35/35 12/12/12
f 115/115/115 12/12/12 108/108/108
f 115/115/115 108/108/108 60/60/60
f 115/115/115 60/60/60 80/80/80
f 115/115/115 80/80/80 63/63/63
f 115/115/115 63/63/63 116/116/116
f 117/117/117 93/93/93 18/18/18
f 117/117/117 18/18/18 17/17/17
f 117/117/117 17/17/17 24/24/24
f 117/117/117 24/24/24 116/116/116
f 117/117/117 116/116/116 63/63/63
f 117/117/117 63/63/63 62/62/62
f 117/117/117 62/62/62 69/69/69
f 117/117/117 69/69/69 93/93/93
f 118/118/118 114/114/114 29/29/29
f 118/118/118 29/29/29 28/28/28
f 118/118/118 28/28/28 27/27/27
f 118/118/118 27/27/27 111/111/111
f 118/118/118 111/111/111 74/74/74
f 118/118/118 74/74/74 73/73/73
f 118/118/118 73/73/73 72/72/72
f 118/118/118 72/72/72 114/114/114
