v -2.390367 0.679373 -1.089796
v -2.391705 0.680619 -1.091649
v -2.393858 0.678025 -1.090848
v -2.392077 0.676857 -1.088888
v -2.390917 0.675985 -1.087178
v -2.389689 0.678273 -1.0881
v -2.389162 0.679754 -1.089159
v -2.389179 0.681123 -1.090602
v -2.390088 0.682458 -1.092331
v -2.393958 0.681479 -1.092629
v -2.395987 0.681966 -1.093068
v -2.39807 0.680181 -1.092822
v -2.396158 0.679251 -1.092108
v -2.392287 0.682946 -1.093054
v -2.394262 0.682745 -1.093183
v -2.402138 0.670251 -1.091117
v -2.40379 0.671193 -1.092072
v -2.405153 0.667717 -1.091919
v -2.403682 0.666882 -1.091088
v -2.401809 0.665802 -1.089857
v -2.40003 0.669031 -1.089712
v -2.398132 0.672176 -1.08978
v -2.400348 0.673461 -1.091228
v -2.402094 0.67446 -1.092194
v -2.398139 0.667905 -1.087961
v -2.400146 0.664808 -1.088297
v -2.398955 0.664082 -1.087029
v -2.396783 0.667083 -1.086543
v -2.394764 0.670161 -1.086411
v -2.396165 0.671008 -1.087927
v -2.394077 0.67403 -1.088251
v -2.396038 0.675192 -1.090192
v -2.392709 0.673205 -1.086619
v -2.398321 0.67652 -1.0916
v -2.400147 0.677567 -1.092487
v -2.404971 0.663349 -1.090962
v -2.406103 0.663985 -1.091533
v -2.406317 0.661733 -1.091224
v -2.405828 0.660631 -1.090862
v -2.404821 0.660061 -1.090308
v -2.403549 0.662535 -1.090081
v -2.402332 0.661801 -1.08888
v -2.404019 0.659571 -1.089435
v -2.403063 0.659825 -1.088656
v -2.401475 0.661271 -1.087882
v -2.390246 0.679226 -1.089991
v -2.39161 0.680487 -1.091867
v -2.390019 0.682356 -1.092494
v -2.38909 0.68101 -1.090746
v -2.38909 0.679668 -1.089261
v -2.389586 0.678157 -1.088233
v -2.390811 0.675877 -1.087317
v -2.391952 0.67672 -1.089088
v -2.393757 0.677901 -1.091069
v -2.393891 0.681364 -1.092867
v -2.395951 0.68189 -1.093255
v -2.394233 0.682685 -1.093319
v -2.392241 0.682858 -1.093232
v -2.396081 0.679142 -1.092346
v -2.398025 0.680108 -1.093009
v -2.402025 0.67018 -1.091355
v -2.403714 0.671145 -1.092257
v -2.402026 0.674404 -1.092379
v -2.400245 0.673378 -1.091467
v -2.39801 0.672081 -1.090005
v -2.399899 0.66895 -1.089938
v -2.401673 0.66573 -1.090083
v -2.403564 0.66682 -1.091327
v -2.405073 0.667676 -1.092104
v -2.397992 0.667814 -1.088173
v -2.396025 0.670903 -1.088137
v -2.394651 0.670078 -1.08656
v -2.396664 0.66701 -1.086694
v -2.398833 0.664016 -1.08718
v -2.399993 0.664726 -1.088509
v -2.393945 0.673909 -1.088456
v -2.395926 0.675082 -1.090415
v -2.3926 0.673108 -1.086763
v -2.398231 0.676423 -1.091838
v -2.40009 0.677502 -1.092673
v -2.404852 0.663292 -1.091202
v -2.406023 0.663948 -1.091719
v -2.403411 0.662466 -1.090307
v -2.404717 0.66001 -1.090478
v -2.405739 0.660589 -1.091042
v -2.406256 0.661704 -1.09136
v -2.402176 0.661722 -1.08909
v -2.401349 0.661206 -1.088031
v -2.402972 0.659779 -1.088769
v -2.403901 0.659511 -1.089592
v -2.406447 0.664182 -1.091808
v -2.406656 0.661093 -1.091278
v -2.40561 0.667979 -1.09228
v -2.406256 0.661704 -1.09136
v -2.404529 0.658801 -1.089689
v -2.403396 0.659181 -1.088705
v -2.405199 0.659213 -1.090459
v -2.402972 0.659779 -1.088769
v -2.389414 0.677853 -1.087591
v -2.388877 0.67977 -1.088987
v -2.390481 0.675645 -1.086667
v -2.38909 0.679668 -1.089261
v -2.39171 0.683396 -1.093275
v -2.394395 0.683007 -1.09334
v -2.389519 0.683025 -1.092631
v -2.394233 0.682685 -1.093319
v -2.39665 0.682097 -1.0933
v -2.39869 0.68046 -1.093145
v -2.406074 0.659707 -1.090908
v -2.401131 0.661064 -1.087614
v -2.398502 0.66381 -1.086672
v -2.388743 0.681656 -1.090934
v -2.392202 0.672886 -1.086137
v -2.394245 0.669841 -1.08597
v -2.400733 0.677889 -1.092867
v -2.402648 0.674769 -1.0926
v -2.404308 0.671487 -1.092474
v -2.396276 0.666776 -1.086136
vn -0.4731 0.5905 0.6538
vn -0.3131 0.528 0.7894
vn -0.3501 0.4828 0.8027
vn -0.4949 0.5374 0.6828
vn -0.5038 0.5146 0.6937
vn -0.4684 0.5877 0.6597
vn -0.4404 0.6366 0.633
vn -0.3885 0.6453 0.6577
vn -0.2532 0.5947 0.763
vn -0.1643 0.4094 0.8974
vn -0.1708 0.4133 0.8944
vn -0.2412 0.3605 0.901
vn -0.2189 0.3755 0.9006
vn -0.1363 0.4974 0.8567
vn -0.1207 0.4492 0.8852
vn -0.4111 0.2269 0.8829
vn -0.4433 0.236 0.8647
vn -0.4613 0.2091 0.8622
vn -0.4213 0.1944 0.8858
vn -0.5128 0.2361 0.8254
vn -0.4919 0.2732 0.8266
vn -0.4474 0.3464 0.8245
vn -0.3614 0.2861 0.8874
vn -0.3913 0.2838 0.8754
vn -0.5661 0.3178 0.7606
vn -0.5876 0.292 0.7546
vn -0.5593 0.2666 0.7849
vn -0.5456 0.296 0.784
vn -0.5266 0.363 0.7687
vn -0.5353 0.3881 0.7502
vn -0.5085 0.4705 0.7211
vn -0.3945 0.424 0.8152
vn -0.5126 0.443 0.7355
vn -0.2893 0.3419 0.8941
vn -0.3172 0.3283 0.8897
vn -0.4082 0.1705 0.8968
vn -0.4534 0.1823 0.8724
vn -0.4369 0.1533 0.8863
vn -0.4172 0.1105 0.902
vn -0.5479 0.1682 0.8195
vn -0.5223 0.2184 0.8243
vn -0.611 0.2893 0.7369
vn -0.6508 0.2476 0.7177
vn -0.6123 0.2561 0.7479
vn -0.5835 0.2586 0.7698
vn 0.505 -0.5808 -0.6385
vn 0.3234 -0.5158 -0.7933
vn 0.3624 -0.4671 -0.8065
vn 0.5948 -0.5499 -0.5864
vn 0.6732 -0.551 -0.493
vn 0.6553 -0.5549 -0.5125
vn 0.6186 -0.5395 -0.5711
vn 0.5055 -0.5409 -0.6722
vn 0.35 -0.4829 -0.8026
vn 0.1574 -0.3769 -0.9128
vn 0.0691 -0.2112 -0.975
vn 0.0555 -0.1887 -0.9804
vn 0.1324 -0.2786 -0.9512
vn 0.2081 -0.3665 -0.9068
vn 0.1259 -0.2506 -0.9598
vn 0.398 -0.2207 -0.8904
vn 0.3041 -0.1774 -0.936
vn 0.2672 -0.2173 -0.9388
vn 0.3496 -0.2795 -0.8942
vn 0.4475 -0.3462 -0.8245
vn 0.492 -0.273 -0.8266
vn 0.5128 -0.2359 -0.8254
vn 0.4051 -0.1891 -0.8945
vn 0.2849 -0.1636 -0.9445
vn 0.576 -0.3251 -0.75
vn 0.5448 -0.394 -0.7402
vn 0.6192 -0.4237 -0.6611
vn 0.6401 -0.3744 -0.6709
vn 0.6554 -0.3809 -0.6522
vn 0.5981 -0.3022 -0.7422
vn 0.518 -0.4754 -0.7111
vn 0.3945 -0.424 -0.8152
vn 0.6075 -0.4902 -0.625
vn 0.2781 -0.3348 -0.9003
vn 0.1987 -0.2505 -0.9475
vn 0.3786 -0.1764 -0.9086
vn 0.2217 -0.1677 -0.9606
vn 0.5166 -0.2291 -0.825
vn 0.4904 -0.2758 -0.8267
vn 0.2842 -0.2044 -0.9367
vn 0.1806 -0.1751 -0.9678
vn 0.6174 -0.3165 -0.7201
vn 0.6669 -0.4288 -0.6094
vn 0.6691 -0.4616 -0.5825
vn 0.6248 -0.4042 -0.6679
vn -0.9276 0.1027 -0.3591
vn -0.9325 -0.2861 -0.2206
vn -0.878 0.2405 -0.4139
vn 0.1806 -0.1751 -0.9678
vn -0.313 -0.9426 0.1159
vn 0.022 -0.8461 0.5326
vn -0.4103 -0.8997 -0.1487
vn 0.6691 -0.4616 -0.5825
vn 0.719 0.0312 0.6943
vn 0.7998 0.2935 0.5236
vn 0.6526 -0.1637 0.7398
vn 0.6732 -0.551 -0.493
vn 0.1656 0.8916 -0.4214
vn -0.2588 0.9142 -0.3117
vn 0.6474 0.7008 -0.2994
vn 0.0555 -0.1887 -0.9804
vn -0.5507 0.7759 -0.3077
vn -0.7022 0.6312 -0.3294
vn -0.6502 -0.7448 -0.1499
vn 0.3655 -0.6554 0.6609
vn 0.4905 -0.5621 0.6659
vn 0.8672 0.4801 0.1321
vn 0.6079 -0.3044 0.7333
vn 0.5866 -0.3863 0.7118
vn -0.7804 0.5098 -0.362
vn -0.8116 0.4336 -0.3914
vn -0.8361 0.3554 -0.4179
vn 0.5614 -0.4644 0.685
vt 0.839504 0.118056
vt 0.856743 0.205307
vt 0.741230 0.205307
vt 0.734555 0.106726
vt 0.724541 0.032791
vt 0.813647 0.052618
vt 0.868992 0.081539
vt 0.913398 0.129584
vt 0.940923 0.205307
vt 0.839504 0.292557
vt 0.813647 0.357995
vt 0.724541 0.377822
vt 0.734555 0.303887
vt 0.913398 0.281029
vt 0.868992 0.329074
vt 0.369475 0.299954
vt 0.368286 0.370940
vt 0.245840 0.351447
vt 0.246397 0.288815
vt 0.246768 0.205307
vt 0.370268 0.205307
vt 0.494283 0.205307
vt 0.492822 0.304944
vt 0.490632 0.379672
vt 0.369475 0.110659
vt 0.246397 0.121798
vt 0.245841 0.059166
vt 0.368286 0.039673
vt 0.490632 0.030941
vt 0.492822 0.105669
vt 0.616755 0.103478
vt 0.619174 0.205307
vt 0.613127 0.027106
vt 0.616755 0.307135
vt 0.613126 0.383507
vt 0.123273 0.268175
vt 0.123047 0.315326
vt 0.054743 0.283353
vt 0.030912 0.249131
vt 0.030973 0.205306
vt 0.123423 0.205306
vt 0.123273 0.142438
vt 0.030912 0.161481
vt 0.054744 0.127260
vt 0.123047 0.095287
vt 0.839504 0.118056
vt 0.856743 0.205307
vt 0.968983 0.205307
vt 0.938030 0.133427
vt 0.876123 0.061548
vt 0.805028 0.030806
vt 0.721203 0.008146
vt 0.734555 0.106726
vt 0.741230 0.205307
vt 0.839504 0.292557
vt 0.805028 0.379807
vt 0.876123 0.349065
vt 0.938030 0.277186
vt 0.734555 0.303887
vt 0.721203 0.402467
vt 0.369475 0.299954
vt 0.367890 0.394602
vt 0.489902 0.404581
vt 0.492822 0.304944
vt 0.494283 0.205307
vt 0.370268 0.205307
vt 0.246768 0.205307
vt 0.246397 0.288815
vt 0.245655 0.372324
vt 0.369475 0.110659
vt 0.492822 0.105669
vt 0.489902 0.006032
vt 0.367890 0.016011
vt 0.245655 0.038289
vt 0.246397 0.121798
vt 0.616755 0.103478
vt 0.619174 0.205307
vt 0.611917 0.001649
vt 0.616755 0.307135
vt 0.611917 0.408964
vt 0.123273 0.268175
vt 0.122972 0.331043
vt 0.123423 0.205306
vt 0.000156 0.205306
vt 0.000125 0.242784
vt 0.000064 0.280261
vt 0.123273 0.142438
vt 0.122972 0.079570
vt 0.000064 0.130352
vt 0.000125 0.167829
vt 0.122972 0.331043
vt 0.030806 0.283587
vt 0.245655 0.372324
vt 0.030806 0.283587
vt 0.000125 0.167829
vt 0.030806 0.127026
vt 0.000156 0.205306
vt 0.030806 0.127026
vt 0.805028 0.030806
vt 0.873826 0.071832
vt 0.721203 0.008146
vt 0.873826 0.071832
vt 0.938030 0.277186
vt 0.873826 0.338781
vt 0.968983 0.205307
vt 0.873826 0.338781
vt 0.805028 0.379807
vt 0.721203 0.402467
vt 0.000125 0.242784
vt 0.122972 0.079570
vt 0.245655 0.038289
vt 0.938030 0.133427
vt 0.611917 0.001649
vt 0.489902 0.006032
vt 0.611917 0.408964
vt 0.489902 0.404581
vt 0.367890 0.394602
vt 0.367890 0.016011
f 1/1/1 2/2/2 3/3/3
f 1/1/1 3/3/3 4/4/4
f 1/1/1 4/4/4 5/5/5
f 1/1/1 5/5/5 6/6/6
f 1/1/1 6/6/6 7/7/7
f 1/1/1 7/7/7 8/8/8
f 1/1/1 8/8/8 9/9/9
f 1/1/1 9/9/9 2/2/2
f 10/10/10 11/11/11 12/12/12
f 10/10/10 12/12/12 13/13/13
f 10/10/10 13/13/13 3/3/3
f 10/10/10 3/3/3 2/2/2
f 10/10/10 2/2/2 9/9/9
f 10/10/10 9/9/9 14/14/14
f 10/10/10 14/14/14 15/15/15
f 10/10/10 15/15/15 11/11/11
f 16/16/16 17/17/17 18/18/18
f 16/16/16 18/18/18 19/19/19
f 16/16/16 19/19/19 20/20/20
f 16/16/16 20/20/20 21/21/21
f 16/16/16 21/21/21 22/22/22
f 16/16/16 22/22/22 23/23/23
f 16/16/16 23/23/23 24/24/24
f 16/16/16 24/24/24 17/17/17
f 25/25/25 21/21/21 20/20/20
f 25/25/25 20/20/20 26/26/26
f 25/25/25 26/26/26 27/27/27
f 25/25/25 27/27/27 28/28/28
f 25/25/25 28/28/28 29/29/29
f 25/25/25 29/29/29 30/30/30
f 25/25/25 30/30/30 22/22/22
f 25/25/25 22/22/22 21/21/21
f 31/31/31 32/32/32 22/22/22
f 31/31/31 22/22/22 30/30/30
f 31/31/31 30/30/30 29/29/29
f 31/31/31 29/29/29 33/33/33
f 31/31/31 33/33/33 5/5/5
f 31/31/31 5/5/5 4/4/4
f 31/31/31 4/4/4 3/3/3
f 31/31/31 3/3/3 32/32/32
f 34/34/34 35/35/35 24/24/24
f 34/34/34 24/24/24 23/23/23
f 34/34/34 23/23/23 22/22/22
f 34/34/34 22/22/22 32/32/32
f 34/34/34 32/32/32 3/3/3
f 34/34/34 3/3/3 13/13/13
f 34/34/34 13/13/13 12/12/12
f 34/34/34 12/12/12 35/35/35
f 36/36/36 37/37/37 38/38/38
f 36/36/36 38/38/38 39/39/39
f 36/36/36 39/39/39 40/40/40
f 36/36/36 40/40/40 41/41/41
f 36/36/36 41/41/41 20/20/20
f 36/36/36 20/20/20 19/19/19
f 36/36/36 19/19/19 18/18/18
f 36/36/36 18/18/18 37/37/37
f 42/42/42 41/41/41 40/40/40
f 42/42/42 40/40/40 43/43/43
f 42/42/42 43/43/43 44/44/44
f 42/42/42 44/44/44 45/45/45
f 42/42/42 45/45/45 27/27/27
f 42/42/42 27/27/27 26/26/26
f 42/42/42 26/26/26 20/20/20
f 42/42/42 20/20/20 41/41/41
f 46/46/46 47/47/47 48/48/48
f 46/46/46 48/48/48 49/49/49
f 46/46/46 49/49/49 50/50/50
f 46/46/46 50/50/50 51/51/51
f 46/46/46 51/51/51 52/52/52
f 46/46/46 52/52/52 53/53/53
f 46/46/46 53/53/53 54/54/54
f 46/46/46 54/54/54 47/47/47
f 55/55/55 56/56/56 57/57/57
f 55/55/55 57/57/57 58/58/58
f 55/55/55 58/58/58 48/48/48
f 55/55/55 48/48/48 47/47/47
f 55/55/55 47/47/47 54/54/54
f 55/55/55 54/54/54 59/59/59
f 55/55/55 59/59/59 60/60/60
f 55/55/55 60/60/60 56/56/56
f 61/61/61 62/62/62 63/63/63
f 61/61/61 63/63/63 64/64/64
f 61/61/61 64/64/64 65/65/65
f 61/61/61 65/65/65 66/66/66
f 61/61/61 66/66/66 67/67/67
f 61/61/61 67/67/67 68/68/68
f 61/61/61 68/68/68 69/69/69
f 61/61/61 69/69/69 62/62/62
f 70/70/70 66/66/66 65/65/65
f 70/70/70 65/65/65 71/71/71
f 70/70/70 71/71/71 72/72/72
f 70/70/70 72/72/72 73/73/73
f 70/70/70 73/73/73 74/74/74
f 70/70/70 74/74/74 75/75/75
f 70/70/70 75/75/75 67/67/67
f 70/70/70 67/67/67 66/66/66
f 76/76/76 77/77/77 54/54/54
f 76/76/76 54/54/54 53/53/53
f 76/76/76 53/53/53 52/52/52
f 76/76/76 52/52/52 78/78/78
f 76/76/76 78/78/78 72/72/72
f 76/76/76 72/72/72 71/71/71
f 76/76/76 71/71/71 65/65/65
f 76/76/76 65/65/65 77/77/77
f 79/79/79 80/80/80 60/60/60
f 79/79/79 60/60/60 59/59/59
f 79/79/79 59/59/59 54/54/54
f 79/79/79 54/54/54 77/77/77
f 79/79/79 77/77/77 65/65/65
f 79/79/79 65/65/65 64/64/64
f 79/79/79 64/64/64 63/63/63
f 79/79/79 63/63/63 80/80/80
f 81/81/81 82/82/82 69/69/69
f 81/81/81 69/69/69 68/68/68
f 81/81/81 68/68/68 67/67/67
f 81/81/81 67/67/67 83/83/83
f 81/81/81 83/83/83 84/84/84
f 81/81/81 84/84/84 85/85/85
f 81/81/81 85/85/85 86/86/86
f 81/81/81 86/86/86 82/82/82
f 87/87/87 83/83/83 67/67/67
f 87/87/87 67/67/67 75/75/75
f 87/87/87 75/75/75 74/74/74
f 87/87/87 74/74/74 88/88/88
f 87/87/87 88/88/88 89/89/89
f 87/87/87 89/89/89 90/90/90
f 87/87/87 90/90/90 84/84/84
f 87/87/87 84/84/84 83/83/83
f 91/91/91 92/92/92 38/38/38
f 91/91/91 38/38/38 37/37/37
f 91/91/91 37/37/37 18/18/18
f 91/91/91 18/18/18 93/93/93
f 91/91/91 93/93/93 69/69/69
f 91/91/91 69/69/69 82/82/82
f 91/91/91 82/82/82 94/94/94
f 91/91/91 94/94/94 92/92/92
f 95/95/95 96/96/96 44/44/44
f 95/95/95 44/44/44 43/43/43
f 95/95/95 43/43/43 40/40/40
f 95/95/95 40/40/40 97/97/97
f 95/95/95 97/97/97 84/84/84
f 95/95/95 84/84/84 90/90/90
f 95/95/95 90/90/90 98/98/98
f 95/95/95 98/98/98 96/96/96
f 99/99/99 100/100/100 7/7/7
f 99/99/99 7/7/7 6/6/6
f 99/99/99 6/6/6 5/5/5
f 99/99/99 5/5/5 101/101/101
f 99/99/99 101/101/101 52/52/52
f 99/99/99 52/52/52 51/51/51
f 99/99/99 51/51/51 102/102/102
f 99/99/99 102/102/102 100/100/100
f 103/103/103 104/104/104 15/15/15
f 103/103/103 15/15/15 14/14/14
f 103/103/103 14/14/14 9/9/9
f 103/103/103 9/9/9 105/105/105
f 103/103/103 105/105/105 48/48/48
f 103/103/103 48/48/48 58/58/58
f 103/103/103 58/58/58 106/106/106
f 103/103/103 106/106/106 104/104/104
f 107/107/107 108/108/108 12/12/12
f 107/107/107 12/12/12 11/11/11
f 107/107/107 11/11/11 15/15/15
f 107/107/107 15/15/15 104/104/104
f 107/107/107 104/104/104 106/106/106
f 107/107/107 106/106/106 56/56/56
f 107/107/107 56/56/56 60/60/60
f 107/107/107 60/60/60 108/108/108
f 109/109/109 97/97/97 40/40/40
f 109/109/109 40/40/40 39/39/39
f 109/109/109 39/39/39 38/38/38
f 109/109/109 38/38/38 92/92/92
f 109/109/109 92/92/92 94/94/94
f 109/109/109 94/94/94 85/85/85
f 109/109/109 85/85/85 84/84/84
f 109/109/109 84/84/84 97/97/97
f 110/110/110 111/111/111 27/27/27
f 110/110/110 27/27/27 45/45/45
f 110/110/110 45/45/45 44/44/44
f 110/110/110 44/44/44 96/96/96
f 110/110/110 96/96/96 98/98/98
f 110/110/110 98/98/98 88/88/88
f 110/110/110 88/88/88 74/74/74
f 110/110/110 74/74/74 111/111/111
f 112/112/112 105/105/105 9/9/9
f 112/112/112 9/9/9 8/8/8
f 112/112/112 8/8/8 7/7/7
f 112/112/112 7/7/7 100/100/100
f 112/112/112 100/100/100 102/102/102
f 112/112/112 102/102/102 49/49/49
f 112/112/112 49/49/49 48/48/48
f 112/112/112 48/48/48 105/105/105
f 113/113/113 101/101/101 5/5/5
f 113/113/113 5/5/5 33/33/33
f 113/113/113 33/33/33 29/29/29
f 113/113/113 29/29/29 114/114/114
f 113/113/113 114/114/114 72/72/72
f 113/113/113 72/72/72 78/78/78
f 113/113/113 78/78/78 52/52/52
f 113/113/113 52/52/52 101/101/101
f 115/115/115 116/116/116 24/24/24
f 115/115/115 24/24/24 35/35/35
f 115/115/115 35/35/35 12/12/12
f 115/115/115 12/12/12 108/108/108
f 115/115/115 108/108/108 60/60/60
f 115/115/115 60/60/60 80/80/80
f 115/115/115 80/80/80 63/63/63
f 115/115/115 63/63/63 116/116/116
f 117/117/117 93/93/93 18/18/18
f 117/117/117 18/18/18 17/17/17
f 117/117/117 17/17/17 24/24/24
f 117/117/117 24/24/24 116/116/116
f 117/117/117 116/116/116 63/63/63
f 117/117/117 63/63/63 62/62/62
f 117/117/117 62/62/62 69/69/69
f 117/117/117 69/69/69 93/93/93
f 118/118/118 114/114/114 29/29/29
f 118/118/118 29/29/29 28/28/28
f 118/118/118 28/28/28 27/27/27
f 118/118/118 27/27/27 111/111/111
f 118/118/118 111/111/111 74/74/74
f 118/118/118 74/74/74 73/73/73
f 118/118/118 73/73/73 72/72/72
f 118/118/118 72/72/72 114/114/114
