v -2.409975 0.812465 -1.155739
v -2.408407 0.812747 -1.155699
v -2.408504 0.811022 -1.15693
v -2.410265 0.810866 -1.156805
v -2.411632 0.810756 -1.156888
v -2.411206 0.812148 -1.156036
v -2.410624 0.81295 -1.155431
v -2.409693 0.813555 -1.154931
v -2.408318 0.813969 -1.154739
v -2.406983 0.812779 -1.156415
v -2.40596 0.812699 -1.157221
v -2.405672 0.811381 -1.158235
v -2.406865 0.811223 -1.157574
v -2.407104 0.813827 -1.155516
v -2.406375 0.813396 -1.156391
v -2.406923 0.805233 -1.160448
v -2.40571 0.805407 -1.160893
v -2.405968 0.803208 -1.161467
v -2.407037 0.803053 -1.161064
v -2.408482 0.802868 -1.160616
v -2.408558 0.805026 -1.159952
v -2.408596 0.807126 -1.159146
v -2.406889 0.807349 -1.159679
v -2.405627 0.80754 -1.160166
v -2.410254 0.804884 -1.159695
v -2.409984 0.802744 -1.160398
v -2.411131 0.802666 -1.1603
v -2.411548 0.804795 -1.159574
v -2.411734 0.8069 -1.158786
v -2.410374 0.806984 -1.158892
v -2.410388 0.809008 -1.157892
v -2.408573 0.809136 -1.158109
v -2.411784 0.808947 -1.157848
v -2.406852 0.809379 -1.158691
v -2.405588 0.809597 -1.159248
v -2.40732 0.800828 -1.16159
v -2.406529 0.800952 -1.161926
v -2.407032 0.799655 -1.162064
v -2.407588 0.799137 -1.161932
v -2.408313 0.799029 -1.16165
v -2.408391 0.800684 -1.161229
v -2.409519 0.800597 -1.161093
v -2.409094 0.798979 -1.161592
v -2.409743 0.79937 -1.161451
v -2.410385 0.800547 -1.161055
v -2.409958 0.812373 -1.155601
v -2.408367 0.812657 -1.155565
v -2.408288 0.813899 -1.15464
v -2.409682 0.813484 -1.154829
v -2.41062 0.812898 -1.155354
v -2.411205 0.812079 -1.155931
v -2.411627 0.810691 -1.15678
v -2.410245 0.81078 -1.156664
v -2.408464 0.810937 -1.156793
v -2.406921 0.812692 -1.156287
v -2.405902 0.812636 -1.157129
v -2.406335 0.813347 -1.156323
v -2.407056 0.81376 -1.155422
v -2.406805 0.811141 -1.157441
v -2.405617 0.811322 -1.158139
v -2.406868 0.805179 -1.1603
v -2.405663 0.805367 -1.160784
v -2.405578 0.807494 -1.16006
v -2.406834 0.807286 -1.159535
v -2.408556 0.80706 -1.158997
v -2.408517 0.804969 -1.159799
v -2.408441 0.802818 -1.160461
v -2.406983 0.803004 -1.160913
v -2.40592 0.803172 -1.161356
v -2.410228 0.804826 -1.15954
v -2.410349 0.806917 -1.15874
v -2.411723 0.806849 -1.158672
v -2.411536 0.804751 -1.159457
v -2.411119 0.802627 -1.160181
v -2.409958 0.802692 -1.16024
v -2.410365 0.808932 -1.157746
v -2.408532 0.80906 -1.157966
v -2.411777 0.808889 -1.157737
v -2.406794 0.809306 -1.158553
v -2.405536 0.809543 -1.159147
v -2.407264 0.800782 -1.161438
v -2.40648 0.800918 -1.161815
v -2.408351 0.800636 -1.161073
v -2.408282 0.798994 -1.161533
v -2.407545 0.799103 -1.161819
v -2.406998 0.79963 -1.161981
v -2.409494 0.800548 -1.160935
v -2.410374 0.80051 -1.160935
v -2.409733 0.799343 -1.161363
v -2.409076 0.798942 -1.161473
v -2.406242 0.800979 -1.16199
v -2.40701 0.799226 -1.162179
v -2.405588 0.803244 -1.161552
v -2.406998 0.79963 -1.161981
v -2.408945 0.798423 -1.161705
v -2.409727 0.798941 -1.161566
v -2.408273 0.798462 -1.161738
v -2.409733 0.799343 -1.161363
v -2.411619 0.812012 -1.156088
v -2.410801 0.813025 -1.155364
v -2.412087 0.81069 -1.156867
v -2.41062 0.812898 -1.155354
v -2.407122 0.814146 -1.155175
v -2.406204 0.813507 -1.156403
v -2.408275 0.814345 -1.154375
v -2.406335 0.813347 -1.156323
v -2.405591 0.812644 -1.15745
v -2.405247 0.811408 -1.158413
v -2.407658 0.798558 -1.161996
v -2.410671 0.800514 -1.160989
v -2.41151 0.802622 -1.160214
v -2.409594 0.813887 -1.154616
v -2.412248 0.8089 -1.157784
v -2.412184 0.806849 -1.1587
v -2.405141 0.809646 -1.15939
v -2.405183 0.807584 -1.160282
v -2.405284 0.805447 -1.160993
v -2.411976 0.804745 -1.159481
vn -0.0217 0.5791 -0.8149
vn -0.2365 0.5879 -0.7736
vn -0.239 0.5388 -0.8078
vn -0.0475 0.5296 -0.8469
vn -0.0576 0.5082 -0.8593
vn -0.0299 0.5789 -0.8148
vn -0.0109 0.6265 -0.7794
vn -0.057 0.6526 -0.7555
vn -0.2308 0.6602 -0.7147
vn -0.4419 0.5351 -0.72
vn -0.4347 0.5365 -0.7233
vn -0.4151 0.4705 -0.7786
vn -0.423 0.4902 -0.762
vn -0.4001 0.6166 -0.678
vn -0.4458 0.5809 -0.681
vn -0.3444 0.2985 -0.8901
vn -0.3091 0.2953 -0.904
vn -0.3052 0.2649 -0.9147
vn -0.3509 0.2658 -0.8979
vn -0.2391 0.27 -0.9327
vn -0.2404 0.3105 -0.9196
vn -0.2417 0.3903 -0.8884
vn -0.3582 0.3677 -0.8581
vn -0.3323 0.3556 -0.8735
vn -0.1335 0.3206 -0.9377
vn -0.1246 0.2896 -0.949
vn -0.1719 0.2788 -0.9448
vn -0.1699 0.3099 -0.9354
vn -0.1484 0.3749 -0.9151
vn -0.1215 0.3925 -0.9116
vn -0.0893 0.4709 -0.8776
vn -0.241 0.4749 -0.8464
vn -0.1063 0.4469 -0.8882
vn -0.3876 0.4396 -0.8102
vn -0.3723 0.419 -0.8281
vn -0.3744 0.2486 -0.8933
vn -0.3257 0.2436 -0.9135
vn -0.355 0.2232 -0.9078
vn -0.3922 0.1909 -0.8998
vn -0.2356 0.1959 -0.9519
vn -0.2383 0.2507 -0.9383
vn -0.0985 0.2776 -0.9556
vn -0.0743 0.2241 -0.9717
vn -0.1165 0.2482 -0.9617
vn -0.1489 0.2621 -0.9535
vn -0.0052 -0.5588 0.8292
vn 0.2373 -0.5746 0.7833
vn 0.2397 -0.5217 0.8188
vn -0.0869 -0.4965 0.8636
vn -0.2027 -0.4588 0.8651
vn -0.1787 -0.471 0.8638
vn -0.1088 -0.4777 0.8717
vn 0.0322 -0.5281 0.8486
vn 0.239 -0.5389 0.8077
vn 0.4678 -0.5092 0.7224
vn 0.6187 -0.3871 0.6836
vn 0.6379 -0.3704 0.6752
vn 0.5423 -0.4305 0.7215
vn 0.4369 -0.4856 0.7571
vn 0.5614 -0.4075 0.7202
vn 0.3597 -0.2974 0.8844
vn 0.4624 -0.2891 0.8382
vn 0.4736 -0.3365 0.8139
vn 0.3722 -0.3658 0.853
vn 0.2416 -0.3901 0.8885
vn 0.2404 -0.3104 0.9197
vn 0.2391 -0.2699 0.9327
vn 0.3686 -0.2665 0.8905
vn 0.4845 -0.2825 0.8279
vn 0.1174 -0.3229 0.9391
vn 0.1065 -0.3937 0.9131
vn -0.0054 -0.3868 0.9221
vn 0.0053 -0.3371 0.9414
vn -0.0196 -0.3355 0.9418
vn 0.106 -0.2941 0.9499
vn 0.0747 -0.4711 0.8789
vn 0.241 -0.4749 0.8464
vn -0.0466 -0.4451 0.8943
vn 0.4011 -0.4369 0.8051
vn 0.5096 -0.3866 0.7686
vn 0.3988 -0.2642 0.8782
vn 0.5321 -0.3054 0.7897
vn 0.2388 -0.2625 0.9349
vn 0.2405 -0.3135 0.9186
vn 0.4661 -0.3198 0.8249
vn 0.5593 -0.324 0.763
vn 0.0737 -0.2982 0.9516
vn -0.0736 -0.3691 0.9265
vn -0.1053 -0.3939 0.9131
vn 0.0026 -0.3684 0.9297
vn 0.8446 -0.2062 -0.494
vn 0.6204 -0.5467 -0.5623
vn 0.8997 -0.0758 -0.4297
vn 0.5593 -0.324 0.763
vn -0.2022 -0.9448 -0.2577
vn -0.6787 -0.6834 -0.2687
vn 0.0653 -0.9836 -0.1679
vn -0.1053 -0.3939 0.9131
vn -0.9289 0.3526 0.1135
vn -0.7661 0.5842 0.2676
vn -0.9859 0.1613 0.0451
vn -0.2027 -0.4588 0.8651
vn 0.5004 0.796 0.3404
vn 0.6745 0.736 -0.0576
vn 0.0664 0.7599 0.6465
vn 0.6379 -0.3704 0.6752
vn 0.7991 0.5332 -0.2777
vn 0.8581 0.3538 -0.3722
vn 0.256 -0.8965 -0.3615
vn -0.9148 -0.3921 -0.097
vn -0.9623 -0.2717 -0.0092
vn -0.4543 0.6959 0.5561
vn -0.9996 0.0156 0.0229
vn -0.9971 -0.0711 0.0253
vn 0.8895 0.2142 -0.4036
vn 0.9055 0.1286 -0.4043
vn 0.9147 0.0421 -0.4019
vn -0.9872 -0.157 0.0277
vt 0.839504 0.118056
vt 0.856743 0.205307
vt 0.741230 0.205307
vt 0.734555 0.106726
vt 0.724541 0.032791
vt 0.813647 0.052618
vt 0.868992 0.081539
vt 0.913398 0.129584
vt 0.940923 0.205307
vt 0.839504 0.292557
vt 0.813647 0.357995
vt 0.724541 0.377822
vt 0.734555 0.303887
vt 0.913398 0.281029
vt 0.868992 0.329074
vt 0.369475 0.299954
vt 0.368286 0.370940
vt 0.245840 0.351447
vt 0.246397 0.288815
vt 0.246768 0.205307
vt 0.370268 0.205307
vt 0.494283 0.205307
vt 0.492822 0.304944
vt 0.490632 0.379672
vt 0.369475 0.110659
vt 0.246397 0.121798
vt 0.245841 0.059166
vt 0.368286 0.039673
vt 0.490632 0.030941
vt 0.492822 0.105669
vt 0.616755 0.103478
vt 0.619174 0.205307
vt 0.613127 0.027106
vt 0.616755 0.307135
vt 0.613126 0.383507
vt 0.123273 0.268175
vt 0.123047 0.315326
vt 0.054743 0.283353
vt 0.030912 0.249131
vt 0.030973 0.205306
vt 0.123423 0.205306
vt 0.123273 0.142438
vt 0.030912 0.161481
vt 0.054744 0.127260
vt 0.123047 0.095287
vt 0.839504 0.118056
vt 0.856743 0.205307
vt 0.968983 0.205307
vt 0.938030 0.133427
vt 0.876123 0.061548
vt 0.805028 0.030806
vt 0.721203 0.008146
vt 0.734555 0.106726
vt 0.741230 0.205307
vt 0.839504 0.292557
vt 0.805028 0.379807
vt 0.876123 0.349065
vt 0.938030 0.277186
vt 0.734555 0.303887
vt 0.721203 0.402467
vt 0.369475 0.299954
vt 0.367890 0.394602
vt 0.489902 0.404581
vt 0.492822 0.304944
vt 0.494283 0.205307
vt 0.370268 0.205307
vt 0.246768 0.205307
vt 0.246397 0.288815
vt 0.245655 0.372324
vt 0.369475 0.110659
vt 0.492822 0.105669
vt 0.489902 0.006032
vt 0.367890 0.016011
vt 0.245655 0.038289
vt 0.246397 0.121798
vt 0.616755 0.103478
vt 0.619174 0.205307
vt 0.611917 0.001649
vt 0.616755 0.307135
vt 0.611917 0.408964
vt 0.123273 0.268175
vt 0.122972 0.331043
vt 0.123423 0.205306
vt 0.000156 0.205306
vt 0.000125 0.242784
vt 0.000064 0.280261
vt 0.123273 0.142438
vt 0.122972 0.079570
vt 0.000064 0.130352
vt 0.000125 0.167829
vt 0.122972 0.331043
vt 0.030806 0.283587
vt 0.245655 0.372324
vt 0.030806 0.283587
vt 0.000125 0.167829
vt 0.030806 0.127026
vt 0.000156 0.205306
vt 0.030806 0.127026
vt 0.805028 0.030806
vt 0.873826 0.071832
vt 0.721203 0.008146
vt 0.873826 0.071832
vt 0.938030 0.277186
vt 0.873826 0.338781
vt 0.968983 0.205307
vt 0.873826 0.338781
vt 0.805028 0.379807
vt 0.721203 0.402467
vt 0.000125 0.242784
vt 0.122972 0.079570
vt 0.245655 0.038289
vt 0.938030 0.133427
vt 0.611917 0.001649
vt 0.489902 0.006032
vt 0.611917 0.408964
vt 0.489902 0.404581
vt 0.367890 0.394602
vt 0.367890 0.016011
f 1/1/1 2/2/2 3/3/3
f 1/1/1 3/3/3 4/4/4
f 1/1/1 4/4/4 5/5/5
f 1/1/1 5/5/5 6/6/6
f 1/1/1 6/6/6 7/7/7
f 1/1/1 7/7/7 8/8/8
f 1/1/1 8/8/8 9/9/9
f 1/1/1 9/9/9 2/2/2
f 10/10/10 11/11/11 12/12/12
f 10/10/10 12/12/12 13/13/13
f 10/10/10 13/13/13 3/3/3
f 10/10/10 3/3/3 2/2/2
f 10/10/10 2/2/2 9/9/9
f 10/10/10 9/9/9 14/14/14
f 10/10/10 14/14/14 15/15/15
f 10/10/10 15/15/15 11/11/11
f 16/16/16 17/17/17 18/18/18
f 16/16/16 18/18/18 19/19/19
f 16/16/16 19/19/19 20/20/20
f 16/16/16 20/20/20 21/21/21
f 16/16/16 21/21/21 22/22/22
f 16/16/16 22/22/22 23/23/23
f 16/16/16 23/23/23 24/24/24
f 16/16/16 24/24/24 17/17/17
f 25/25/25 21/21/21 20/20/20
f 25/25/25 20/20/20 26/26/26
f 25/25/25 26/26/26 27/27/27
f 25/25/25 27/27/27 28/28/28
f 25/25/25 28/28/28 29/29/29
f 25/25/25 29/29/29 30/30/30
f 25/25/25 30/30/30 22/22/22
f 25/25/25 22/22/22 21/21/21
f 31/31/31 32/32/32 22/22/22
f 31/31/31 22/22/22 30/30/30
f 31/31/31 30/30/30 29/29/29
f 31/31/31 29/29/29 33/33/33
f 31/31/31 33/33/33 5/5/5
f 31/31/31 5/5/5 4/4/4
f 31/31/31 4/4/4 3/3/3
f 31/31/31 3/3/3 32/32/32
f 34/34/34 35/35/35 24/24/24
f 34/34/34 24/24/24 23/23/23
f 34/34/34 23/23/23 22/22/22
f 34/34/34 22/22/22 32/32/32
f 34/34/34 32/32/32 3/3/3
f 34/34/34 3/3/3 13/13/13
f 34/34/34 13/13/13 12/12/12
f 34/34/34 12/12/12 35/35/35
f 36/36/36 37/37/37 38/38/38
f 36/36/36 38/38/38 39/39/39
f 36/36/36 39/39/39 40/40/40
f 36/36/36 40/40/40 41/41/41
f 36/36/36 41/41/41 20/20/20
f 36/36/36 20/20/20 19/19/19
f 36/36/36 19/19/19 18/18/18
f 36/36/36 18/18/18 37/37/37
f 42/42/42 41/41/41 40/40/40
f 42/42/42 40/40/40 43/43/43
f 42/42/42 43/43/43 44/44/44
f 42/42/42 44/44/44 45/45/45
f 42/42/42 45/45/45 27/27/27
f 42/42/42 27/27/27 26/26/26
f 42/42/42 26/26/26 20/20/20
f 42/42/42 20/20/20 41/41/41
f 46/46/46 47/47/47 48/48/48
f 46/46/46 48/48/48 49/49/49
f 46/46/46 49/49/49 50/50/50
f 46/46/46 50/50/50 51/51/51
f 46/46/46 51/51/51 52/52/52
f 46/46/46 52/52/52 53/53/53
f 46/46/46 53/53/53 54/54/54
f 46/46/46 54/54/54 47/47/47
f 55/55/55 56/56/56 57/57/57
f 55/55/55 57/57/57 58/58/58
f 55/55/55 58/58/58 48/48/48
f 55/55/55 48/48/48 47/47/47
f 55/55/55 47/47/47 54/54/54
f 55/55/55 54/54/54 59/59/59
f 55/55/55 59/59/59 60/60/60
f 55/55/55 60/60/60 56/56/56
f 61/61/61 62/62/62 63/63/63
f 61/61/61 63/63/63 64/64/64
f 61/61/61 64/64/64 65/65/65
f 61/61/61 65/65/65 66/66/66
f 61/61/61 66/66/66 67/67/67
f 61/61/61 67/67/67 68/68/68
f 61/61/61 68/68/68 69/69/69
f 61/61/61 69/69/69 62/62/62
f 70/70/70 66/66/66 65/65/65
f 70/70/70 65/65/65 71/71/71
f 70/70/70 71/71/71 72/72/72
f 70/70/70 72/72/72 73/73/73
f 70/70/70 73/73/73 74/74/74
f 70/70/70 74/74/74 75/75/75
f 70/70/70 75/75/75 67/67/67
f 70/70/70 67/67/67 66/66/66
f 76/76/76 77/77/77 54/54/54
f 76/76/76 54/54/54 53/53/53
f 76/76/76 53/53/53 52/52/52
f 76/76/76 52/52/52 78/78/78
f 76/76/76 78/78/78 72/72/72
f 76/76/76 72/72/72 71/71/71
f 76/76/76 71/71/71 65/65/65
f 76/76/76 65/65/65 77/77/77
f 79/79/79 80/80/80 60/60/60
f 79/79/79 60/60/60 59/59/59
f 79/79/79 59/59/59 54/54/54
f 79/79/79 54/54/54 77/77/77
f 79/79/79 77/77/77 65/65/65
f 79/79/79 65/65/65 64/64/64
f 79/79/79 64/64/64 63/63/63
f 79/79/79 63/63/63 80/80/80
f 81/81/81 82/82/82 69/69/69
f 81/81/81 69/69/69 68/68/68
f 81/81/81 68/68/68 67/67/67
f 81/81/81 67/67/67 83/83/83
f 81/81/81 83/83/83 84/84/84
f 81/81/81 84/84/84 85/85/85
f 81/81/81 85/85/85 86/86/86
f 81/81/81 86/86/86 82/82/82
f 87/87/87 83/83/83 67/67/67
f 87/87/87 67/67/67 75/75/75
f 87/87/87 75/75/75 74/74/74
f 87/87/87 74/74/74 88/88/88
f 87/87/87 88/88/88 89/89/89
f 87/87/87 89/89/89 90/90/90
f 87/87/87 90/90/90 84/84/84
f 87/87/87 84/84/84 83/83/83
f 91/91/91 92/92/92 38/38/38
f 91/91/91 38/38/38 37/37/37
f 91/91/91 37/37/37 18/18/18
f 91/91/91 18/18/18 93/93/93
f 91/91/91 93/93/93 69/69/69
f 91/91/91 69/69/69 82/82/82
f 91/91/91 82/82/82 94/94/94
f 91/91/91 94/94/94 92/92/92
f 95/95/95 96/96/96 44/44/44
f 95/95/95 44/44/44 43/43/43
f 95/95/95 43/43/43 40/40/40
f 95/95/95 40/40/40 97/97/97
f 95/95/95 97/97/97 84/84/84
f 95/95/95 84/84/84 90/90/90
f 95/95/95 90/90/90 98/98/98
f 95/95/95 98/98/98 96/96/96
f 99/99/99 100/100/100 7/7/7
f 99/99/99 7/7/7 6/6/6
f 99/99/99 6/6/6 5/5/5
f 99/99/99 5/5/5 101/101/101
f 99/99/99 101/101/101 52/52/52
f 99/99/99 52/52/52 51/51/51
f 99/99/99 51/51/51 102/102/102
f 99/99/99 102/102/102 100/100/100
f 103/103/103 104/104/104 15/15/15
f 103/103/103 15/15/15 14/14/14
f 103/103/103 14/14/14 9/9/9
f 103/103/103 9/9/9 105/105/105
f 103/103/103 105/105/105 48/48/48
f 103/103/103 48/48/48 58/58/58
f 103/103/103 58/58/58 106/106/106
f 103/103/103 106/106/106 104/104/104
f 107/107/107 108/108/108 12/12/12
f 107/107/107 12/12/12 11/11/11
f 107/107/107 11/11/11 15/15/15
f 107/107/107 15/15/15 104/104/104
f 107/107/107 104/104/104 106/106/106
f 107/107/107 106/106/106 56/56/56
f 107/107/107 56/56/56 60/60/60
f 107/107/107 60/60/60 108/108/108
f 109/109/109 97/97/97 40/40/40
f 109/109/109 40/40/40 39/39/39
f 109/109/109 39/39/39 38/38/38
f 109/109/109 38/38/38 92/92/92
f 109/109/109 92/92/92 94/94/94
f 109/109/109 94/94/94 85/85/85
f 109/109/109 85/85/85 84/84/84
f 109/109/109 84/84/84 97/97/97
f 110/110/110 111/111/111 27/27/27
f 110/110/110 27/27/27 45/45/45
f 110/110/110 45/45/45 44/44/44
f 110/110/110 44/44/44 96/96/96
f 110/110/110 96/96/96 98/98/98
f 110/110/110 98/98/98 88/88/88
f 110/110/110 88/88/88 74/74/74
f 110/110/110 74/74/74 111/111/111
f 112/112/112 105/105/105 9/9/9
f 112/112/112 9/9/9 8/8/8
f 112/112/112 8/8/8 7/7/7
f 112/112/112 7/7/7 100/100/100
f 112/112/112 100/100/100 102/102/102
f 112/112/112 102/102/102 49/49/49
f 112/112/112 49/49/49 48/48/48
f 112/112/112 48/48/48 105/105/105
f 113/113/113 101/101/101 5/5/5
f 113/113/113 5/5/5 33/33/33
f 113/113/113 33/33/33 29/29/29
f 113/113/113 29/29/29 114/114/114
f 113/113/113 114/114/114 72/72/72
f 113/113/113 72/72/72 78/78/78
f 113/113/113 78/78/78 52/52/52
f 113/113/113 52/52/52 101/101/101
f 115/115/115 116/116/116 24/24/24
f 115/115/115 24/24/24 35/35/35
f 115/115/115 35/35/35 12/12/12
f 115/115/115 12/12/12 108/108/108
f 115/115/115 108/108/108 60/60/60
f 115/115/115 60/60/60 80/80/80
f 115/115/115 80/80/80 63/63/63
f 115/115/115 63/63/63 116/116/116
f 117/117/117 93/93/93 18/18/18
f 117/117/117 18/18/18 17/17/17
f 117/117/117 17/17/17 24/24/24
f 117/117/117 24/24/24 116/116/116
f 117/117/117 116/116/116 63/63/63
f 117/117/117 63/63/63 62/62/62
f 117/117/117 62/62/62 69/69/69
f 117/117/117 69/69/69 93/93/93
f 118/118/118 114/114/114 29/29/29
f 118/118/118 29/29/29 28/28/28
f 118/118/118 28/28/28 27/27/27
f 118/118/118 27/27/27 111/111/111
f 118/118/118 111/111/111 74/74/74
f 118/118/118 74/74/74 73/73/73
f 118/118/118 73/73/73 72/72/72
f 118/118/118 72/72/72 114/114/114
