v -2.37276 0.731593 -1.046493
v -2.371368 0.732044 -1.046935
v -2.371989 0.730973 -1.04855
v -2.37348 0.730544 -1.047856
v -2.374708 0.730286 -1.047455
v -2.373961 0.731252 -1.046393
v -2.373191 0.731813 -1.045816
v -2.372164 0.732289 -1.04553
v -2.370876 0.732774 -1.045728
v -2.37041 0.732535 -1.04802
v -2.369839 0.732904 -1.049072
v -2.370026 0.732163 -1.050499
v -2.370809 0.731614 -1.049592
v -2.370129 0.733105 -1.046852
v -2.369853 0.733151 -1.047987
v -2.372163 0.72742 -1.054196
v -2.371277 0.727905 -1.054932
v -2.371789 0.726154 -1.056152
v -2.372566 0.725721 -1.055495
v -2.373654 0.725193 -1.054674
v -2.373398 0.726827 -1.053274
v -2.373054 0.728363 -1.051798
v -2.371771 0.728994 -1.052769
v -2.370858 0.729517 -1.053551
v -2.37478 0.726371 -1.052494
v -2.374881 0.724793 -1.05399
v -2.375845 0.724529 -1.053515
v -2.375864 0.726067 -1.05195
v -2.375656 0.727594 -1.050432
v -2.374509 0.727897 -1.050989
v -2.374069 0.7293 -1.049399
v -2.372568 0.729745 -1.050197
v -2.375272 0.729034 -1.048867
v -2.371291 0.730413 -1.051205
v -2.370403 0.730985 -1.052033
v -2.373082 0.723927 -1.056678
v -2.372522 0.72427 -1.057191
v -2.37305 0.723115 -1.057621
v -2.373497 0.722536 -1.057513
v -2.37402 0.722236 -1.057061
v -2.373877 0.723519 -1.05605
v -2.374809 0.723235 -1.055555
v -2.374681 0.722061 -1.056743
v -2.37518 0.722261 -1.056236
v -2.375551 0.723056 -1.055222
v -2.372693 0.731464 -1.046425
v -2.371283 0.731921 -1.046879
v -2.370813 0.732681 -1.045688
v -2.372115 0.732191 -1.045481
v -2.373159 0.73174 -1.045777
v -2.37392 0.731153 -1.046337
v -2.374664 0.730191 -1.047397
v -2.373409 0.73042 -1.047785
v -2.371901 0.730853 -1.048489
v -2.370307 0.73242 -1.047976
v -2.369754 0.732823 -1.049045
v -2.369792 0.733089 -1.047966
v -2.370052 0.733018 -1.046822
v -2.370706 0.731503 -1.049542
v -2.369941 0.732083 -1.050466
v -2.372057 0.727325 -1.05412
v -2.371193 0.727836 -1.054879
v -2.370775 0.729444 -1.053503
v -2.371667 0.728893 -1.0527
v -2.372962 0.728257 -1.051721
v -2.373304 0.726727 -1.05319
v -2.373558 0.725098 -1.054586
v -2.37246 0.725631 -1.055415
v -2.371704 0.726089 -1.056096
v -2.374698 0.726267 -1.052403
v -2.374429 0.727786 -1.050905
v -2.375602 0.727509 -1.050365
v -2.375808 0.725987 -1.051879
v -2.375789 0.724452 -1.053441
v -2.374798 0.724694 -1.053895
v -2.373993 0.729182 -1.049321
v -2.372478 0.729632 -1.050129
v -2.375223 0.728943 -1.048805
v -2.371188 0.730306 -1.051145
v -2.370319 0.730908 -1.051993
v -2.372974 0.723839 -1.056597
v -2.372436 0.724207 -1.057135
v -2.373781 0.723425 -1.05596
v -2.373948 0.722166 -1.056993
v -2.373416 0.72247 -1.057452
v -2.372988 0.723068 -1.057578
v -2.374726 0.723137 -1.055458
v -2.375496 0.722981 -1.055146
v -2.375138 0.722206 -1.056181
v -2.374619 0.721988 -1.05667
v -2.372296 0.724357 -1.057338
v -2.373089 0.722785 -1.057889
v -2.37149 0.72627 -1.056348
v -2.372988 0.723068 -1.057578
v -2.37461 0.721637 -1.057106
v -2.375223 0.72193 -1.056502
v -2.374036 0.721778 -1.057368
v -2.375138 0.722206 -1.056181
v -2.374346 0.731094 -1.046333
v -2.373317 0.731829 -1.045668
v -2.3751 0.730157 -1.047294
v -2.373159 0.73174 -1.045777
v -2.370001 0.733256 -1.04645
v -2.369705 0.733276 -1.048016
v -2.370684 0.732975 -1.045309
v -2.369792 0.733089 -1.047966
v -2.369609 0.732992 -1.049412
v -2.369725 0.732311 -1.050788
v -2.373599 0.722043 -1.057764
v -2.375775 0.722963 -1.055076
v -2.376143 0.724406 -1.053323
v -2.371943 0.732478 -1.045187
v -2.375653 0.728904 -1.048662
v -2.376016 0.727455 -1.050216
v -2.370069 0.731142 -1.052292
v -2.370515 0.729659 -1.053791
v -2.370943 0.728037 -1.055154
v -2.376201 0.72593 -1.051736
vn -0.3411 0.8369 -0.4279
vn -0.5191 0.7978 -0.3067
vn -0.537 0.7656 -0.354
vn -0.3791 0.8002 -0.4646
vn -0.3942 0.7839 -0.4797
vn -0.3483 0.8356 -0.4248
vn -0.3151 0.8682 -0.3833
vn -0.3464 0.8762 -0.3351
vn -0.4874 0.8421 -0.2308
vn -0.6853 0.699 -0.2042
vn -0.6801 0.7026 -0.2091
vn -0.687 0.6666 -0.2893
vn -0.6868 0.6769 -0.2646
vn -0.6276 0.7635 -0.1524
vn -0.6715 0.7253 -0.1518
vn -0.6737 0.5625 -0.4792
vn -0.6475 0.5701 -0.5057
vn -0.6492 0.547 -0.5284
vn -0.6837 0.5347 -0.4965
vn -0.5963 0.5682 -0.567
vn -0.5909 0.6001 -0.5391
vn -0.5769 0.6606 -0.4803
vn -0.671 0.6115 -0.4193
vn -0.6543 0.61 -0.4469
vn -0.5009 0.6317 -0.5915
vn -0.4984 0.6091 -0.6169
vn -0.5401 0.5907 -0.5994
vn -0.5334 0.6159 -0.5798
vn -0.5035 0.6706 -0.5448
vn -0.4772 0.6891 -0.5453
vn -0.4316 0.7524 -0.4976
vn -0.5566 0.7218 -0.4113
vn -0.4521 0.732 -0.5096
vn -0.6759 0.6544 -0.3388
vn -0.6699 0.6448 -0.368
vn -0.7037 0.5139 -0.4906
vn -0.668 0.5242 -0.5282
vn -0.6928 0.4991 -0.5204
vn -0.7241 0.4612 -0.5127
vn -0.6032 0.5085 -0.6145
vn -0.5984 0.5529 -0.5798
vn -0.4778 0.6045 -0.6374
vn -0.4638 0.5656 -0.6819
vn -0.4976 0.5773 -0.6474
vn -0.5233 0.5821 -0.6223
vn 0.3232 -0.8278 0.4585
vn 0.5242 -0.7892 0.3199
vn 0.5427 -0.7541 0.3699
vn 0.2647 -0.7961 0.5442
vn 0.161 -0.779 0.6059
vn 0.1818 -0.7862 0.5906
vn 0.2486 -0.7852 0.567
vn 0.366 -0.8017 0.4725
vn 0.5369 -0.7657 0.354
vn 0.7106 -0.6725 0.2067
vn 0.8353 -0.5242 0.1658
vn 0.8497 -0.5029 0.1584
vn 0.7801 -0.5896 0.2092
vn 0.6975 -0.6689 0.257
vn 0.7976 -0.5654 0.2101
vn 0.6852 -0.5572 0.469
vn 0.7599 -0.5168 0.3943
vn 0.7585 -0.5492 0.3506
vn 0.6817 -0.6057 0.4103
vn 0.577 -0.6605 0.4804
vn 0.5909 -0.5999 0.5393
vn 0.5963 -0.5682 0.5671
vn 0.6968 -0.53 0.4832
vn 0.7757 -0.5038 0.3799
vn 0.4868 -0.6366 0.598
vn 0.4641 -0.6929 0.5518
vn 0.3662 -0.7065 0.6055
vn 0.3854 -0.6669 0.6377
vn 0.3629 -0.6692 0.6484
vn 0.4817 -0.6162 0.623
vn 0.4188 -0.7552 0.5043
vn 0.5566 -0.7218 0.4113
vn 0.3155 -0.755 0.5748
vn 0.6861 -0.648 0.3305
vn 0.7711 -0.5725 0.2787
vn 0.7191 -0.5187 0.4624
vn 0.8026 -0.5031 0.3205
vn 0.5972 -0.5622 0.5721
vn 0.5905 -0.6023 0.5371
vn 0.7569 -0.5392 0.3693
vn 0.8157 -0.506 0.2803
vn 0.4529 -0.6254 0.6354
vn 0.3066 -0.7018 0.643
vn 0.2715 -0.724 0.6341
vn 0.377 -0.6915 0.6161
vn 0.5576 0.1236 -0.8209
vn 0.3163 -0.1923 -0.929
vn 0.6382 0.2269 -0.7356
vn 0.8157 -0.506 0.2803
vn -0.3178 -0.7928 -0.5201
vn -0.7486 -0.6193 -0.2367
vn -0.0379 -0.8236 -0.5658
vn 0.2715 -0.724 0.6341
vn -0.7884 0.1425 0.5983
vn -0.5691 0.3193 0.7577
vn -0.8739 -0.0145 0.4859
vn 0.161 -0.779 0.6059
vn 0.6185 0.6691 0.412
vn 0.6102 0.7921 -0.009
vn 0.3501 0.456 0.8182
vn 0.8497 -0.5029 0.1584
vn 0.6267 0.7095 -0.3221
vn 0.6365 0.5904 -0.4962
vn 0.0584 -0.6419 -0.7645
vn -0.8834 -0.454 0.116
vn -0.8868 -0.3846 0.256
vn -0.163 0.356 0.9201
vn -0.8993 -0.1403 0.414
vn -0.8986 -0.2201 0.3794
vn 0.6481 0.4793 -0.5918
vn 0.6597 0.4038 -0.6338
vn 0.6666 0.3261 -0.6702
vn -0.891 -0.298 0.3426
vt 0.839504 0.118056
vt 0.856743 0.205307
vt 0.741230 0.205307
vt 0.734555 0.106726
vt 0.724541 0.032791
vt 0.813647 0.052618
vt 0.868992 0.081539
vt 0.913398 0.129584
vt 0.940923 0.205307
vt 0.839504 0.292557
vt 0.813647 0.357995
vt 0.724541 0.377822
vt 0.734555 0.303887
vt 0.913398 0.281029
vt 0.868992 0.329074
vt 0.369475 0.299954
vt 0.368286 0.370940
vt 0.245840 0.351447
vt 0.246397 0.288815
vt 0.246768 0.205307
vt 0.370268 0.205307
vt 0.494283 0.205307
vt 0.492822 0.304944
vt 0.490632 0.379672
vt 0.369475 0.110659
vt 0.246397 0.121798
vt 0.245841 0.059166
vt 0.368286 0.039673
vt 0.490632 0.030941
vt 0.492822 0.105669
vt 0.616755 0.103478
vt 0.619174 0.205307
vt 0.613127 0.027106
vt 0.616755 0.307135
vt 0.613126 0.383507
vt 0.123273 0.268175
vt 0.123047 0.315326
vt 0.054743 0.283353
vt 0.030912 0.249131
vt 0.030973 0.205306
vt 0.123423 0.205306
vt 0.123273 0.142438
vt 0.030912 0.161481
vt 0.054744 0.127260
vt 0.123047 0.095287
vt 0.839504 0.118056
vt 0.856743 0.205307
vt 0.968983 0.205307
vt 0.938030 0.133427
vt 0.876123 0.061548
vt 0.805028 0.030806
vt 0.721203 0.008146
vt 0.734555 0.106726
vt 0.741230 0.205307
vt 0.839504 0.292557
vt 0.805028 0.379807
vt 0.876123 0.349065
vt 0.938030 0.277186
vt 0.734555 0.303887
vt 0.721203 0.402467
vt 0.369475 0.299954
vt 0.367890 0.394602
vt 0.489902 0.404581
vt 0.492822 0.304944
vt 0.494283 0.205307
vt 0.370268 0.205307
vt 0.246768 0.205307
vt 0.246397 0.288815
vt 0.245655 0.372324
vt 0.369475 0.110659
vt 0.492822 0.105669
vt 0.489902 0.006032
vt 0.367890 0.016011
vt 0.245655 0.038289
vt 0.246397 0.121798
vt 0.616755 0.103478
vt 0.619174 0.205307
vt 0.611917 0.001649
vt 0.616755 0.307135
vt 0.611917 0.408964
vt 0.123273 0.268175
vt 0.122972 0.331043
vt 0.123423 0.205306
vt 0.000156 0.205306
vt 0.000125 0.242784
vt 0.000064 0.280261
vt 0.123273 0.142438
vt 0.122972 0.079570
vt 0.000064 0.130352
vt 0.000125 0.167829
vt 0.122972 0.331043
vt 0.030806 0.283587
vt 0.245655 0.372324
vt 0.030806 0.283587
vt 0.000125 0.167829
vt 0.030806 0.127026
vt 0.000156 0.205306
vt 0.030806 0.127026
vt 0.805028 0.030806
vt 0.873826 0.071832
vt 0.721203 0.008146
vt 0.873826 0.071832
vt 0.938030 0.277186
vt 0.873826 0.338781
vt 0.968983 0.205307
vt 0.873826 0.338781
vt 0.805028 0.379807
vt 0.721203 0.402467
vt 0.000125 0.242784
vt 0.122972 0.079570
vt 0.245655 0.038289
vt 0.938030 0.133427
vt 0.611917 0.001649
vt 0.489902 0.006032
vt 0.611917 0.408964
vt 0.489902 0.404581
vt 0.367890 0.394602
vt 0.367890 0.016011
f 1/1/1 2/2/2 3/3/3
f 1/1/1 3/3/3 4/4/4
f 1/1/1 4/4/4 5/5/5
f 1/1/1 5/5/5 6/6/6
f 1/1/1 6/6/6 7/7/7
f 1/1/1 7/7/7 8/8/8
f 1/1/1 8/8/8 9/9/9
f 1/1/1 9/9/9 2/2/2
f 10/10/10 11/11/11 12/12/12
f 10/10/10 12/12/12 13/13/13
f 10/10/10 13/13/13 3/3/3
f 10/10/10 3/3/3 2/2/2
f 10/10/10 2/2/2 9/9/9
f 10/10/10 9/9/9 14/14/14
f 10/10/10 14/14/14 15/15/15
f 10/10/10 15/15/15 11/11/11
f 16/16/16 17/17/17 18/18/18
f 16/16/16 18/18/18 19/19/19
f 16/16/16 19/19/19 20/20/20
f 16/16/16 20/20/20 21/21/21
f 16/16/16 21/21/21 22/22/22
f 16/16/16 22/22/22 23/23/23
f 16/16/16 23/23/23 24/24/24
f 16/16/16 24/24/24 17/17/17
f 25/25/25 21/21/21 20/20/20
f 25/25/25 20/20/20 26/26/26
f 25/25/25 26/26/26 27/27/27
f 25/25/25 27/27/27 28/28/28
f 25/25/25 28/28/28 29/29/29
f 25/25/25 29/29/29 30/30/30
f 25/25/25 30/30/30 22/22/22
f 25/25/25 22/22/22 21/21/21
f 31/31/31 32/32/32 22/22/22
f 31/31/31 22/22/22 30/30/30
f 31/31/31 30/30/30 29/29/29
f 31/31/31 29/29/29 33/33/33
f 31/31/31 33/33/33 5/5/5
f 31/31/31 5/5/5 4/4/4
f 31/31/31 4/4/4 3/3/3
f 31/31/31 3/3/3 32/32/32
f 34/34/34 35/35/35 24/24/24
f 34/34/34 24/24/24 23/23/23
f 34/34/34 23/23/23 22/22/22
f 34/34/34 22/22/22 32/32/32
f 34/34/34 32/32/32 3/3/3
f 34/34/34 3/3/3 13/13/13
f 34/34/34 13/13/13 12/12/12
f 34/34/34 12/12/12 35/35/35
f 36/36/36 37/37/37 38/38/38
f 36/36/36 38/38/38 39/39/39
f 36/36/36 39/39/39 40/40/40
f 36/36/36 40/40/40 41/41/41
f 36/36/36 41/41/41 20/20/20
f 36/36/36 20/20/20 19/19/19
f 36/36/36 19/19/19 18/18/18
f 36/36/36 18/18/18 37/37/37
f 42/42/42 41/41/41 40/40/40
f 42/42/42 40/40/40 43/43/43
f 42/42/42 43/43/43 44/44/44
f 42/42/42 44/44/44 45/45/45
f 42/42/42 45/45/45 27/27/27
f 42/42/42 27/27/27 26/26/26
f 42/42/42 26/26/26 20/20/20
f 42/42/42 20/20/20 41/41/41
f 46/46/46 47/47/47 48/48/48
f 46/46/46 48/48/48 49/49/49
f 46/46/46 49/49/49 50/50/50
f 46/46/46 50/50/50 51/51/51
f 46/46/46 51/51/51 52/52/52
f 46/46/46 52/52/52 53/53/53
f 46/46/46 53/53/53 54/54/54
f 46/46/46 54/54/54 47/47/47
f 55/55/55 56/56/56 57/57/57
f 55/55/55 57/57/57 58/58/58
f 55/55/55 58/58/58 48/48/48
f 55/55/55 48/48/48 47/47/47
f 55/55/55 47/47/47 54/54/54
f 55/55/55 54/54/54 59/59/59
f 55/55/55 59/59/59 60/60/60
f 55/55/55 60/60/60 56/56/56
f 61/61/61 62/62/62 63/63/63
f 61/61/61 63/63/63 64/64/64
f 61/61/61 64/64/64 65/65/65
f 61/61/61 65/65/65 66/66/66
f 61/61/61 66/66/66 67/67/67
f 61/61/61 67/67/67 68/68/68
f 61/61/61 68/68/68 69/69/69
f 61/61/61 69/69/69 62/62/62
f 70/70/70 66/66/66 65/65/65
f 70/70/70 65/65/65 71/71/71
f 70/70/70 71/71/71 72/72/72
f 70/70/70 72/72/72 73/73/73
f 70/70/70 73/73/73 74/74/74
f 70/70/70 74/74/74 75/75/75
f 70/70/70 75/75/75 67/67/67
f 70/70/70 67/67/67 66/66/66
f 76/76/76 77/77/77 54/54/54
f 76/76/76 54/54/54 53/53/53
f 76/76/76 53/53/53 52/52/52
f 76/76/76 52/52/52 78/78/78
f 76/76/76 78/78/78 72/72/72
f 76/76/76 72/72/72 71/71/71
f 76/76/76 71/71/71 65/65/65
f 76/76/76 65/65/65 77/77/77
f 79/79/79 80/80/80 60/60/60
f 79/79/79 60/60/60 59/59/59
f 79/79/79 59/59/59 54/54/54
f 79/79/79 54/54/54 77/77/77
f 79/79/79 77/77/77 65/65/65
f 79/79/79 65/65/65 64/64/64
f 79/79/79 64/64/64 63/63/63
f 79/79/79 63/63/63 80/80/80
f 81/81/81 82/82/82 69/69/69
f 81/81/81 69/69/69 68/68/68
f 81/81/81 68/68/68 67/67/67
f 81/81/81 67/67/67 83/83/83
f 81/81/81 83/83/83 84/84/84
f 81/81/81 84/84/84 85/85/85
f 81/81/81 85/85/85 86/86/86
f 81/81/81 86/86/86 82/82/82
f 87/87/87 83/83/83 67/67/67
f 87/87/87 67/67/67 75/75/75
f 87/87/87 75/75/75 74/74/74
f 87/87/87 74/74/74 88/88/88
f 87/87/87 88/88/88 89/89/89
f 87/87/87 89/89/89 90/90/90
f 87/87/87 90/90/90 84/84/84
f 87/87/87 84/84/84 83/83/83
f 91/91/91 92/92/92 38/38/38
f 91/91/91 38/38/38 37/37/37
f 91/91/91 37/37/37 18/18/18
f 91/91/91 18/18/18 93/93/93
f 91/91/91 93/93/93 69/69/69
f 91/91/91 69/69/69 82/82/82
f 91/91/91 82/82/82 94/94/94
f 91/91/91 94/94/94 92/92/92
f 95/95/95 96/96/96 44/44/44
f 95/95/95 44/44/44 43/43/43
f 95/95/95 43/43/43 40/40/40
f 95/95/95 40/40/40 97/97/97
f 95/95/95 97/97/97 84/84/84
f 95/95/95 84/84/84 90/90/90
f 95/95/95 90/90/90 98/98/98
f 95/95/95 98/98/98 96/96/96
f 99/99/99 100/100/100 7/7/7
f 99/99/99 7/7/7 6/6/6
f 99/99/99 6/6/6 5/5/5
f 99/99/99 5/5/5 101/101/101
f 99/99/99 101/101/101 52/52/52
f 99/99/99 52/52/52 51/51/51
f 99/99/99 51/51/51 102/102/102
f 99/99/99 102/102/102 100/100/100
f 103/103/103 104/104/104 15/15/15
f 103/103/103 15/15/15 14/14/14
f 103/103/103 14/14/14 9/9/9
f 103/103/103 9/9/9 105/105/105
f 103/103/103 105/105/105 48/48/48
f 103/103/103 48/48/48 58/58/58
f 103/103/103 58/58/58 106/106/106
f 103/103/103 106/106/106 104/104/104
f 107/107/107 108/108/108 12/12/12
f 107/107/107 12/12/12 11/11/11
f 107/107/107 11/11/11 15/15/15
f 107/107/107 15/15/15 104/104/104
f 107/107/107 104/104/104 106/106/106
f 107/107/107 106/106/106 56/56/56
f 107/107/107 56/56/56 60/60/60
f 107/107/107 60/60/60 108/108/108
f 109/109/109 97/97/97 40/40/40
f 109/109/109 40/40/40 39/39/39
f 109/109/109 39/39/39 38/38/38
f 109/109/109 38/38/38 92/92/92
f 109/109/109 92/92/92 94/94/94
f 109/109/109 94/94/94 85/85/85
f 109/109/109 85/85/85 84/84/84
f 109/109/109 84/84/84 97/97/97
f 110/110/110 111/111/111 27/27/27
f 110/110/110 27/27/27 45/45/45
f 110/110/110 45/45/45 44/44/44
f 110/110/110 44/44/44 96/96/96
f 110/110/110 96/96/96 98/98/98
f 110/110/110 98/98/98 88/88/88
f 110/110/110 88/88/88 74/74/74
f 110/110/110 74/74/74 111/111/111
f 112/112/112 105/105/105 9/9/9
f 112/112/112 9/9/9 8/8/8
f 112/112/112 8/8/8 7/7/7
f 112/112/112 7/7/7 100/100/100
f 112/112/112 100/100/100 102/102/102
f 112/112/112 102/102/102 49/49/49
f 112/112/112 49/49/49 48/48/48
f 112/112/112 48/48/48 105/105/105
f 113/113/113 101/101/101 5/5/5
f 113/113/113 5/5/5 33/33/33
f 113/113/113 33/33/33 29/29/29
f 113/113/113 29/29/29 114/114/114
f 113/113/113 114/114/114 72/72/72
f 113/113/113 72/72/72 78/78/78
f 113/113/113 78/78/78 52/52/52
f 113/113/113 52/52/52 101/101/101
f 115/115/115 116/116/116 24/24/24
f 115/115/115 24/24/24 35/35/35
f 115/115/115 35/35/35 12/12/12
f 115/115/115 12/12/12 108/108/108
f 115/115/115 108/108/108 60/60/60
f 115/115/115 60/60/60 80/80/80
f 115/115/115 80/80/80 63/63/63
f 115/115/115 63/63/63 116/116/116
f 117/117/117 93/93/93 18/18/18
f 117/117/117 18/18/18 17/17/17
f 117/117/117 17/17/17 24/24/24
f 117/117/117 24/24/24 116/116/116
f 117/117/117 116/116/116 63/63/63
f 117/117/117 63/63/63 62/62/62
f 117/117/117 62/62/62 69/69/69
f 117/117/117 69/69/69 93/93/93
f 118/118/118 114/114/114 29/29/29
f 118/118/118 29/29/29 28/28/28
f 118/118/118 28/28/28 27/27/27
f 118/118/118 27/27/27 111/111/111
f 118/118/118 111/111/111 74/74/74
f 118/118/118 74/74/74 73/73/73
f 118/118/118 73/73/73 72/72/72
f 118/118/118 72/72/72 114/114/114
