v -2.419508 0.734915 -1.082995
v -2.417773 0.734887 -1.080944
v -2.415642 0.734121 -1.083712
v -2.417853 0.734165 -1.085719
v -2.419405 0.734411 -1.087419
v -2.420559 0.735112 -1.084917
v -2.420912 0.735316 -1.083004
v -2.420609 0.735317 -1.080974
v -2.419341 0.735327 -1.078888
v -2.415344 0.735418 -1.079928
v -2.413257 0.735995 -1.079539
v -2.41111 0.735414 -1.08131
v -2.413121 0.734737 -1.082234
v -2.417005 0.735753 -1.07832
v -2.414999 0.736031 -1.078649
v -2.406701 0.730464 -1.090351
v -2.404881 0.730916 -1.089208
v -2.403273 0.728862 -1.092047
v -2.404888 0.728449 -1.093047
v -2.406992 0.72803 -1.094457
v -2.409074 0.730002 -1.091954
v -2.411206 0.731737 -1.089343
v -2.408719 0.732244 -1.087676
v -2.406809 0.732755 -1.086498
v -2.411338 0.729903 -1.093766
v -2.408989 0.727953 -1.096068
v -2.410459 0.727993 -1.097339
v -2.413006 0.729933 -1.095192
v -2.415308 0.731727 -1.092757
v -2.41357 0.731658 -1.091249
v -2.415807 0.733079 -1.088519
v -2.413424 0.733091 -1.086554
v -2.417547 0.733251 -1.090099
v -2.410886 0.733674 -1.084894
v -2.408923 0.734294 -1.083747
v -2.403341 0.726315 -1.095898
v -2.402117 0.726675 -1.095181
v -2.401795 0.725316 -1.097079
v -2.402285 0.724641 -1.098075
v -2.403386 0.724348 -1.098748
v -2.404924 0.725963 -1.096925
v -2.406401 0.725945 -1.098152
v -2.404382 0.724388 -1.099619
v -2.405568 0.72486 -1.099857
v -2.407483 0.726026 -1.099134
v -2.41956 0.734643 -1.082946
v -2.417794 0.734616 -1.080872
v -2.419354 0.735124 -1.078837
v -2.420647 0.735113 -1.080942
v -2.420947 0.735165 -1.082984
v -2.420614 0.734909 -1.084892
v -2.419461 0.73421 -1.087384
v -2.417908 0.733896 -1.085659
v -2.415669 0.733854 -1.083631
v -2.415334 0.735154 -1.079833
v -2.413234 0.735802 -1.079457
v -2.414984 0.735887 -1.078592
v -2.416993 0.735555 -1.078251
v -2.413121 0.734475 -1.082133
v -2.411096 0.735221 -1.081223
v -2.406739 0.730219 -1.090216
v -2.4049 0.730734 -1.0891
v -2.406819 0.732568 -1.086397
v -2.408747 0.731993 -1.087552
v -2.411255 0.731482 -1.089235
v -2.409133 0.729754 -1.091833
v -2.407057 0.727787 -1.094329
v -2.404932 0.728209 -1.092905
v -2.403296 0.728684 -1.091933
v -2.411416 0.729653 -1.093661
v -2.41364 0.731401 -1.091156
v -2.41537 0.731534 -1.092696
v -2.413074 0.729746 -1.095121
v -2.410532 0.727809 -1.097263
v -2.409073 0.727708 -1.095955
v -2.415869 0.732815 -1.088442
v -2.413462 0.732829 -1.08646
v -2.417606 0.733053 -1.090051
v -2.4109 0.733416 -1.084782
v -2.408921 0.734104 -1.083654
v -2.403386 0.726078 -1.095752
v -2.40214 0.7265 -1.095065
v -2.404991 0.725722 -1.096795
v -2.403437 0.724168 -1.09865
v -2.402318 0.724464 -1.097964
v -2.401815 0.725185 -1.096994
v -2.406489 0.725703 -1.098037
v -2.407559 0.725844 -1.099057
v -2.405623 0.724725 -1.099798
v -2.404449 0.724206 -1.099534
v -2.401716 0.726718 -1.094889
v -2.401389 0.724904 -1.097555
v -2.402743 0.728921 -1.091661
v -2.401815 0.725185 -1.096994
v -2.403739 0.723788 -1.10007
v -2.405169 0.724447 -1.100339
v -2.402896 0.72373 -1.099311
v -2.405623 0.724725 -1.099798
v -2.420938 0.735088 -1.08555
v -2.421243 0.735373 -1.083076
v -2.41995 0.734403 -1.087972
v -2.420947 0.735165 -1.082984
v -2.417552 0.735776 -1.077753
v -2.414845 0.736147 -1.078364
v -2.419868 0.735383 -1.078181
v -2.414984 0.735887 -1.078592
v -2.412548 0.736102 -1.07937
v -2.41043 0.735555 -1.080961
v -2.401948 0.724005 -1.098751
v -2.40788 0.725972 -1.099429
v -2.410984 0.727924 -1.097731
v -2.420993 0.73536 -1.080287
v -2.418156 0.73322 -1.090607
v -2.415917 0.731664 -1.093235
v -2.408265 0.734417 -1.083321
v -2.406174 0.732842 -1.086059
v -2.404281 0.730986 -1.088778
v -2.413595 0.72986 -1.095638
vn 0.2254 0.9693 -0.0984
vn 0.0404 0.9757 -0.2151
vn 0.0761 0.9622 -0.2613
vn 0.243 0.9569 -0.1591
vn 0.2504 0.9505 -0.184
vn 0.2195 0.9701 -0.1038
vn 0.1958 0.9795 -0.0469
vn 0.1386 0.989 -0.051
vn -0.0154 0.9898 -0.1415
vn -0.1216 0.9273 -0.354
vn -0.1149 0.9297 -0.35
vn -0.0448 0.9148 -0.4014
vn -0.0673 0.9194 -0.3876
vn -0.1448 0.9547 -0.2597
vn -0.1634 0.9361 -0.3114
vn 0.1343 0.8518 -0.5064
vn 0.1694 0.8541 -0.4917
vn 0.1896 0.8382 -0.5114
vn 0.1461 0.8335 -0.5328
vn 0.2467 0.8454 -0.4737
vn 0.2232 0.867 -0.4454
vn 0.1749 0.9056 -0.3862
vn 0.0804 0.8838 -0.4609
vn 0.1126 0.8816 -0.4583
vn 0.3085 0.8728 -0.3781
vn 0.333 0.8561 -0.3951
vn 0.2996 0.8515 -0.4303
vn 0.2843 0.868 -0.4071
vn 0.2646 0.9 -0.3464
vn 0.2759 0.9074 -0.3169
vn 0.2512 0.939 -0.2348
vn 0.1202 0.9405 -0.3176
vn 0.2536 0.9303 -0.2649
vn 0.0048 0.9092 -0.4163
vn 0.0339 0.9037 -0.4267
vn 0.1326 0.8208 -0.5556
vn 0.1816 0.8242 -0.5363
vn 0.1643 0.809 -0.5643
vn 0.1448 0.7845 -0.6029
vn 0.2877 0.8027 -0.5224
vn 0.2575 0.8347 -0.4867
vn 0.3604 0.8483 -0.3878
vn 0.4074 0.8162 -0.4096
vn 0.3614 0.8328 -0.4192
vn 0.3277 0.8419 -0.4288
vn -0.2609 -0.9603 0.099
vn -0.0503 -0.9724 0.2279
vn -0.0881 -0.9568 0.2768
vn -0.364 -0.9263 0.0969
vn -0.4644 -0.8846 0.0419
vn -0.4414 -0.8959 0.0503
vn -0.3916 -0.915 0.0968
vn -0.2557 -0.9549 0.1506
vn -0.076 -0.9622 0.2612
vn 0.1297 -0.913 0.3867
vn 0.2172 -0.8162 0.5354
vn 0.2298 -0.8007 0.5532
vn 0.1557 -0.8635 0.4796
vn 0.0786 -0.9145 0.3968
vn 0.162 -0.848 0.5046
vn -0.1202 -0.8492 0.5142
vn -0.0215 -0.8256 0.5639
vn 0.018 -0.8461 0.5326
vn -0.0679 -0.8807 0.4687
vn -0.175 -0.9056 0.3863
vn -0.2233 -0.8669 0.4455
vn -0.2467 -0.8453 0.4738
vn -0.1286 -0.8315 0.5404
vn -0.002 -0.8168 0.5769
vn -0.3203 -0.8734 0.3668
vn -0.2873 -0.9073 0.3071
vn -0.3775 -0.894 0.2413
vn -0.3991 -0.8712 0.2858
vn -0.4183 -0.8671 0.2703
vn -0.3455 -0.8577 0.3807
vn -0.2626 -0.9381 0.2257
vn -0.1202 -0.9405 0.3176
vn -0.3706 -0.9135 0.1676
vn 0.0069 -0.9055 0.4242
vn 0.0888 -0.858 0.5059
vn -0.1004 -0.8254 0.5556
vn 0.0632 -0.8145 0.5766
vn -0.251 -0.8412 0.4789
vn -0.2216 -0.8685 0.4434
vn 0.0001 -0.8401 0.5424
vn 0.1053 -0.8142 0.5709
vn -0.3688 -0.8578 0.3579
vn -0.437 -0.875 0.2083
vn -0.4436 -0.8806 0.1668
vn -0.3828 -0.8863 0.2606
vn 0.9781 0.0656 0.1972
vn 0.9779 -0.1133 -0.1754
vn 0.9338 0.1132 0.3392
vn 0.1053 -0.8142 0.5709
vn 0.3481 -0.5045 -0.7901
vn -0.0948 -0.2431 -0.9653
vn 0.5098 -0.6266 -0.5894
vn -0.4436 -0.8806 0.1668
vn -0.881 0.3043 -0.3621
vn -0.934 0.354 -0.0472
vn -0.8131 0.2148 -0.541
vn -0.4644 -0.8846 0.0419
vn -0.1194 0.3019 0.9458
vn 0.2555 0.4977 0.8289
vn -0.5981 0.1284 0.7911
vn 0.2298 -0.8007 0.5532
vn 0.5459 0.477 0.6888
vn 0.7094 0.3992 0.5808
vn 0.7268 -0.4585 -0.5113
vn -0.4751 -0.1102 -0.873
vn -0.6044 -0.0727 -0.7933
vn -0.9077 0.2067 0.3652
vn -0.7565 0.1231 -0.6423
vn -0.7233 0.0566 -0.6882
vn 0.8036 0.3118 0.5069
vn 0.8479 0.2467 0.4691
vn 0.8851 0.1804 0.4289
vn -0.6855 -0.0095 -0.7279
vt 0.839504 0.118056
vt 0.856743 0.205307
vt 0.741230 0.205307
vt 0.734555 0.106726
vt 0.724541 0.032791
vt 0.813647 0.052618
vt 0.868992 0.081539
vt 0.913398 0.129584
vt 0.940923 0.205307
vt 0.839504 0.292557
vt 0.813647 0.357995
vt 0.724541 0.377822
vt 0.734555 0.303887
vt 0.913398 0.281029
vt 0.868992 0.329074
vt 0.369475 0.299954
vt 0.368286 0.370940
vt 0.245840 0.351447
vt 0.246397 0.288815
vt 0.246768 0.205307
vt 0.370268 0.205307
vt 0.494283 0.205307
vt 0.492822 0.304944
vt 0.490632 0.379672
vt 0.369475 0.110659
vt 0.246397 0.121798
vt 0.245841 0.059166
vt 0.368286 0.039673
vt 0.490632 0.030941
vt 0.492822 0.105669
vt 0.616755 0.103478
vt 0.619174 0.205307
vt 0.613127 0.027106
vt 0.616755 0.307135
vt 0.613126 0.383507
vt 0.123273 0.268175
vt 0.123047 0.315326
vt 0.054743 0.283353
vt 0.030912 0.249131
vt 0.030973 0.205306
vt 0.123423 0.205306
vt 0.123273 0.142438
vt 0.030912 0.161481
vt 0.054744 0.127260
vt 0.123047 0.095287
vt 0.839504 0.118056
vt 0.856743 0.205307
vt 0.968983 0.205307
vt 0.938030 0.133427
vt 0.876123 0.061548
vt 0.805028 0.030806
vt 0.721203 0.008146
vt 0.734555 0.106726
vt 0.741230 0.205307
vt 0.839504 0.292557
vt 0.805028 0.379807
vt 0.876123 0.349065
vt 0.938030 0.277186
vt 0.734555 0.303887
vt 0.721203 0.402467
vt 0.369475 0.299954
vt 0.367890 0.394602
vt 0.489902 0.404581
vt 0.492822 0.304944
vt 0.494283 0.205307
vt 0.370268 0.205307
vt 0.246768 0.205307
vt 0.246397 0.288815
vt 0.245655 0.372324
vt 0.369475 0.110659
vt 0.492822 0.105669
vt 0.489902 0.006032
vt 0.367890 0.016011
vt 0.245655 0.038289
vt 0.246397 0.121798
vt 0.616755 0.103478
vt 0.619174 0.205307
vt 0.611917 0.001649
vt 0.616755 0.307135
vt 0.611917 0.408964
vt 0.123273 0.268175
vt 0.122972 0.331043
vt 0.123423 0.205306
vt 0.000156 0.205306
vt 0.000125 0.242784
vt 0.000064 0.280261
vt 0.123273 0.142438
vt 0.122972 0.079570
vt 0.000064 0.130352
vt 0.000125 0.167829
vt 0.122972 0.331043
vt 0.030806 0.283587
vt 0.245655 0.372324
vt 0.030806 0.283587
vt 0.000125 0.167829
vt 0.030806 0.127026
vt 0.000156 0.205306
vt 0.030806 0.127026
vt 0.805028 0.030806
vt 0.873826 0.071832
vt 0.721203 0.008146
vt 0.873826 0.071832
vt 0.938030 0.277186
vt 0.873826 0.338781
vt 0.968983 0.205307
vt 0.873826 0.338781
vt 0.805028 0.379807
vt 0.721203 0.402467
vt 0.000125 0.242784
vt 0.122972 0.079570
vt 0.245655 0.038289
vt 0.938030 0.133427
vt 0.611917 0.001649
vt 0.489902 0.006032
vt 0.611917 0.408964
vt 0.489902 0.404581
vt 0.367890 0.394602
vt 0.367890 0.016011
f 1/1/1 2/2/2 3/3/3
f 1/1/1 3/3/3 4/4/4
f 1/1/1 4/4/4 5/5/5
f 1/1/1 5/5/5 6/6/6
f 1/1/1 6/6/6 7/7/7
f 1/1/1 7/7/7 8/8/8
f 1/1/1 8/8/8 9/9/9
f 1/1/1 9/9/9 2/2/2
f 10/10/10 11/11/11 12/12/12
f 10/10/10 12/12/12 13/13/13
f 10/10/10 13/13/13 3/3/3
f 10/10/10 3/3/3 2/2/2
f 10/10/10 2/2/2 9/9/9
f 10/10/10 9/9/9 14/14/14
f 10/10/10 14/14/14 15/15/15
f 10/10/10 15/15/15 11/11/11
f 16/16/16 17/17/17 18/18/18
f 16/16/16 18/18/18 19/19/19
f 16/16/16 19/19/19 20/20/20
f 16/16/16 20/20/20 21/21/21
f 16/16/16 21/21/21 22/22/22
f 16/16/16 22/22/22 23/23/23
f 16/16/16 23/23/23 24/24/24
f 16/16/16 24/24/24 17/17/17
f 25/25/25 21/21/21 20/20/20
f 25/25/25 20/20/20 26/26/26
f 25/25/25 26/26/26 27/27/27
f 25/25/25 27/27/27 28/28/28
f 25/25/25 28/28/28 29/29/29
f 25/25/25 29/29/29 30/30/30
f 25/25/25 30/30/30 22/22/22
f 25/25/25 22/22/22 21/21/21
f 31/31/31 32/32/32 22/22/22
f 31/31/31 22/22/22 30/30/30
f 31/31/31 30/30/30 29/29/29
f 31/31/31 29/29/29 33/33/33
f 31/31/31 33/33/33 5/5/5
f 31/31/31 5/5/5 4/4/4
f 31/31/31 4/4/4 3/3/3
f 31/31/31 3/3/3 32/32/32
f 34/34/34 35/35/35 24/24/24
f 34/34/34 24/24/24 23/23/23
f 34/34/34 23/23/23 22/22/22
f 34/34/34 22/22/22 32/32/32
f 34/34/34 32/32/32 3/3/3
f 34/34/34 3/3/3 13/13/13
f 34/34/34 13/13/13 12/12/12
f 34/34/34 12/12/12 35/35/35
f 36/36/36 37/37/37 38/38/38
f 36/36/36 38/38/38 39/39/39
f 36/36/36 39/39/39 40/40/40
f 36/36/36 40/40/40 41/41/41
f 36/36/36 41/41/41 20/20/20
f 36/36/36 20/20/20 19/19/19
f 36/36/36 19/19/19 18/18/18
f 36/36/36 18/18/18 37/37/37
f 42/42/42 41/41/41 40/40/40
f 42/42/42 40/40/40 43/43/43
f 42/42/42 43/43/43 44/44/44
f 42/42/42 44/44/44 45/45/45
f 42/42/42 45/45/45 27/27/27
f 42/42/42 27/27/27 26/26/26
f 42/42/42 26/26/26 20/20/20
f 42/42/42 20/20/20 41/41/41
f 46/46/46 47/47/47 48/48/48
f 46/46/46 48/48/48 49/49/49
f 46/46/46 49/49/49 50/50/50
f 46/46/46 50/50/50 51/51/51
f 46/46/46 51/51/51 52/52/52
f 46/46/46 52/52/52 53/53/53
f 46/46/46 53/53/53 54/54/54
f 46/46/46 54/54/54 47/47/47
f 55/55/55 56/56/56 57/57/57
f 55/55/55 57/57/57 58/58/58
f 55/55/55 58/58/58 48/48/48
f 55/55/55 48/48/48 47/47/47
f 55/55/55 47/47/47 54/54/54
f 55/55/55 54/54/54 59/59/59
f 55/55/55 59/59/59 60/60/60
f 55/55/55 60/60/60 56/56/56
f 61/61/61 62/62/62 63/63/63
f 61/61/61 63/63/63 64/64/64
f 61/61/61 64/64/64 65/65/65
f 61/61/61 65/65/65 66/66/66
f 61/61/61 66/66/66 67/67/67
f 61/61/61 67/67/67 68/68/68
f 61/61/61 68/68/68 69/69/69
f 61/61/61 69/69/69 62/62/62
f 70/70/70 66/66/66 65/65/65
f 70/70/70 65/65/65 71/71/71
f 70/70/70 71/71/71 72/72/72
f 70/70/70 72/72/72 73/73/73
f 70/70/70 73/73/73 74/74/74
f 70/70/70 74/74/74 75/75/75
f 70/70/70 75/75/75 67/67/67
f 70/70/70 67/67/67 66/66/66
f 76/76/76 77/77/77 54/54/54
f 76/76/76 54/54/54 53/53/53
f 76/76/76 53/53/53 52/52/52
f 76/76/76 52/52/52 78/78/78
f 76/76/76 78/78/78 72/72/72
f 76/76/76 72/72/72 71/71/71
f 76/76/76 71/71/71 65/65/65
f 76/76/76 65/65/65 77/77/77
f 79/79/79 80/80/80 60/60/60
f 79/79/79 60/60/60 59/59/59
f 79/79/79 59/59/59 54/54/54
f 79/79/79 54/54/54 77/77/77
f 79/79/79 77/77/77 65/65/65
f 79/79/79 65/65/65 64/64/64
f 79/79/79 64/64/64 63/63/63
f 79/79/79 63/63/63 80/80/80
f 81/81/81 82/82/82 69/69/69
f 81/81/81 69/69/69 68/68/68
f 81/81/81 68/68/68 67/67/67
f 81/81/81 67/67/67 83/83/83
f 81/81/81 83/83/83 84/84/84
f 81/81/81 84/84/84 85/85/85
f 81/81/81 85/85/85 86/86/86
f 81/81/81 86/86/86 82/82/82
f 87/87/87 83/83/83 67/67/67
f 87/87/87 67/67/67 75/75/75
f 87/87/87 75/75/75 74/74/74
f 87/87/87 74/74/74 88/88/88
f 87/87/87 88/88/88 89/89/89
f 87/87/87 89/89/89 90/90/90
f 87/87/87 90/90/90 84/84/84
f 87/87/87 84/84/84 83/83/83
f 91/91/91 92/92/92 38/38/38
f 91/91/91 38/38/38 37/37/37
f 91/91/91 37/37/37 18/18/18
f 91/91/91 18/18/18 93/93/93
f 91/91/91 93/93/93 69/69/69
f 91/91/91 69/69/69 82/82/82
f 91/91/91 82/82/82 94/94/94
f 91/91/91 94/94/94 92/92/92
f 95/95/95 96/96/96 44/44/44
f 95/95/95 44/44/44 43/43/43
f 95/95/95 43/43/43 40/40/40
f 95/95/95 40/40/40 97/97/97
f 95/95/95 97/97/97 84/84/84
f 95/95/95 84/84/84 90/90/90
f 95/95/95 90/90/90 98/98/98
f 95/95/95 98/98/98 96/96/96
f 99/99/99 100/100/100 7/7/7
f 99/99/99 7/7/7 6/6/6
f 99/99/99 6/6/6 5/5/5
f 99/99/99 5/5/5 101/101/101
f 99/99/99 101/101/101 52/52/52
f 99/99/99 52/52/52 51/51/51
f 99/99/99 51/51/51 102/102/102
f 99/99/99 102/102/102 100/100/100
f 103/103/103 104/104/104 15/15/15
f 103/103/103 15/15/15 14/14/14
f 103/103/103 14/14/14 9/9/9
f 103/103/103 9/9/9 105/105/105
f 103/103/103 105/105/105 48/48/48
f 103/103/103 48/48/48 58/58/58
f 103/103/103 58/58/58 106/106/106
f 103/103/103 106/106/106 104/104/104
f 107/107/107 108/108/108 12/12/12
f 107/107/107 12/12/12 11/11/11
f 107/107/107 11/11/11 15/15/15
f 107/107/107 15/15/15 104/104/104
f 107/107/107 104/104/104 106/106/106
f 107/107/107 106/106/106 56/56/56
f 107/107/107 56/56/56 60/60/60
f 107/107/107 60/60/60 108/108/108
f 109/109/109 97/97/97 40/40/40
f 109/109/109 40/40/40 39/39/39
f 109/109/109 39/39/39 38/38/38
f 109/109/109 38/38/38 92/92/92
f 109/109/109 92/92/92 94/94/94
f 109/109/109 94/94/94 85/85/85
f 109/109/109 85/85/85 84/84/84
f 109/109/109 84/84/84 97/97/97
f 110/110/110 111/111/111 27/27/27
f 110/110/110 27/27/27 45/45/45
f 110/110/110 45/45/45 44/44/44
f 110/110/110 44/44/44 96/96/96
f 110/110/110 96/96/96 98/98/98
f 110/110/110 98/98/98 88/88/88
f 110/110/110 88/88/88 74/74/74
f 110/110/110 74/74/74 111/111/111
f 112/112/112 105/105/105 9/9/9
f 112/112/112 9/9/9 8/8/8
f 112/112/112 8/8/8 7/7/7
f 112/112/112 7/7/7 100/100/100
f 112/112/112 100/100/100 102/102/102
f 112/112/112 102/102/102 49/49/49
f 112/112/112 49/49/49 48/48/48
f 112/112/112 48/48/48 105/105/105
f 113/113/113 101/101/101 5/5/5
f 113/113/113 5/5/5 33/33/33
f 113/113/113 33/33/33 29/29/29
f 113/113/113 29/29/29 114/114/114
f 113/113/113 114/114/114 72/72/72
f 113/113/113 72/72/72 78/78/78
f 113/113/113 78/78/78 52/52/52
f 113/113/113 52/52/52 101/101/101
f 115/115/115 116/116/116 24/24/24
f 115/115/115 24/24/24 35/35/35
f 115/115/115 35/35/35 12/12/12
f 115/115/115 12/12/12 108/108/108
f 115/115/115 108/108/108 60/60/60
f 115/115/115 60/60/60 80/80/80
f 115/115/115 80/80/80 63/63/63
f 115/115/115 63/63/63 116/116/116
f 117/117/117 93/93/93 18/18/18
f 117/117/117 18/18/18 17/17/17
f 117/117/117 17/17/17 24/24/24
f 117/117/117 24/24/24 116/116/116
f 117/117/117 116/116/116 63/63/63
f 117/117/117 63/63/63 62/62/62
f 117/117/117 62/62/62 69/69/69
f 117/117/117 69/69/69 93/93/93
f 118/118/118 114/114/114 29/29/29
f 118/118/118 29/29/29 28/28/28
f 118/118/118 28/28/28 27/27/27
f 118/118/118 27/27/27 111/111/111
f 118/118/118 111/111/111 74/74/74
f 118/118/118 74/74/74 73/73/73
f 118/118/118 73/73/73 72/72/72
f 118/118/118 72/72/72 114/114/114
