v -2.414376 0.736322 -1.111111
v -2.415709 0.736303 -1.10973
v -2.413744 0.735152 -1.108572
v -2.412468 0.735253 -1.11028
v -2.411341 0.735439 -1.111476
v -2.413069 0.736379 -1.111982
v -2.414403 0.736794 -1.112041
v -2.415805 0.736992 -1.111658
v -2.417186 0.737068 -1.110595
v -2.416203 0.736452 -1.107881
v -2.416272 0.736606 -1.106318
v -2.414979 0.735697 -1.105042
v -2.414543 0.7354 -1.106609
v -2.417385 0.737104 -1.108862
v -2.416996 0.736978 -1.107454
v -2.409035 0.730599 -1.103351
v -2.409664 0.730793 -1.101928
v -2.40785 0.728815 -1.101304
v -2.407302 0.728637 -1.102568
v -2.4065 0.728474 -1.104209
v -2.408118 0.730422 -1.105202
v -2.409847 0.732224 -1.106252
v -2.410795 0.732425 -1.10431
v -2.411436 0.73265 -1.102812
v -2.407001 0.730455 -1.106948
v -2.405504 0.728509 -1.105749
v -2.404699 0.728592 -1.106878
v -2.406101 0.73054 -1.10823
v -2.407709 0.732386 -1.109405
v -2.408668 0.732274 -1.108073
v -2.410527 0.733889 -1.109226
v -2.411756 0.733797 -1.107394
v -2.409505 0.734064 -1.110552
v -2.412686 0.734042 -1.105408
v -2.413287 0.734332 -1.103862
v -2.405494 0.726612 -1.101998
v -2.405874 0.726775 -1.101037
v -2.404705 0.725567 -1.101145
v -2.404127 0.725052 -1.101656
v -2.403761 0.724924 -1.102519
v -2.404918 0.726468 -1.103234
v -2.404152 0.726517 -1.104372
v -2.403207 0.724987 -1.103282
v -2.403051 0.72545 -1.104071
v -2.40352 0.726608 -1.1052
v -2.41445 0.736148 -1.111177
v -2.415797 0.736127 -1.109772
v -2.417249 0.736935 -1.110626
v -2.415856 0.73686 -1.111708
v -2.414439 0.736697 -1.112083
v -2.413117 0.736249 -1.112044
v -2.411395 0.735312 -1.111538
v -2.412549 0.735082 -1.110348
v -2.413837 0.73498 -1.108618
v -2.416303 0.736279 -1.107899
v -2.416354 0.736479 -1.106319
v -2.417054 0.736883 -1.107457
v -2.417459 0.736973 -1.108873
v -2.414649 0.735231 -1.106634
v -2.415064 0.735572 -1.105049
v -2.409164 0.730451 -1.103398
v -2.409765 0.730682 -1.101954
v -2.411532 0.732535 -1.102834
v -2.410917 0.73227 -1.104351
v -2.409959 0.732067 -1.106309
v -2.408239 0.730272 -1.105264
v -2.406625 0.72833 -1.104274
v -2.407436 0.728494 -1.102617
v -2.407954 0.728709 -1.101333
v -2.407112 0.730305 -1.107026
v -2.408771 0.732117 -1.108147
v -2.407781 0.732269 -1.109468
v -2.406179 0.730428 -1.108296
v -2.404781 0.728484 -1.106946
v -2.40562 0.728365 -1.105829
v -2.410619 0.733724 -1.109296
v -2.411858 0.733632 -1.107445
v -2.409568 0.733941 -1.110614
v -2.412799 0.733879 -1.10544
v -2.413377 0.734211 -1.103876
v -2.40563 0.726471 -1.102047
v -2.40598 0.72667 -1.101065
v -2.405045 0.726326 -1.103301
v -2.403857 0.724818 -1.102569
v -2.404229 0.724947 -1.101692
v -2.404783 0.72549 -1.101168
v -2.404269 0.726375 -1.104454
v -2.403603 0.726502 -1.10527
v -2.403113 0.725371 -1.104121
v -2.403295 0.724881 -1.103345
v -2.406048 0.726783 -1.100728
v -2.404401 0.72517 -1.100953
v -2.40808 0.728828 -1.100893
v -2.404783 0.72549 -1.101168
v -2.402931 0.72443 -1.102947
v -2.402744 0.725052 -1.103886
v -2.403419 0.724362 -1.102302
v -2.403113 0.725371 -1.104121
v -2.412653 0.73634 -1.112303
v -2.414365 0.736871 -1.112271
v -2.410988 0.735445 -1.111905
v -2.414439 0.736697 -1.112083
v -2.417812 0.737263 -1.109194
v -2.417171 0.73707 -1.107308
v -2.417705 0.737263 -1.110897
v -2.417054 0.736883 -1.107457
v -2.416333 0.736601 -1.105795
v -2.415163 0.735741 -1.10452
v -2.403717 0.724486 -1.101558
v -2.403345 0.726591 -1.105509
v -2.404465 0.728571 -1.107286
v -2.416303 0.737156 -1.111863
v -2.409191 0.734068 -1.111024
v -2.40742 0.732371 -1.109879
v -2.413529 0.734375 -1.103351
v -2.411693 0.732674 -1.102321
v -2.409919 0.730808 -1.101463
v -2.405834 0.730519 -1.108688
vn 0.2939 0.877 0.3799
vn 0.3937 0.9001 0.1865
vn 0.4394 0.8725 0.2134
vn 0.3525 0.8517 0.3876
vn 0.3764 0.8399 0.3909
vn 0.2988 0.8782 0.3735
vn 0.2428 0.9012 0.3588
vn 0.2437 0.9209 0.3041
vn 0.3194 0.9367 0.143
vn 0.507 0.8619 0.0031
vn 0.504 0.8636 0.0106
vn 0.5576 0.8271 0.0703
vn 0.5429 0.8382 0.0509
vn 0.4177 0.9085 -0.0035
vn 0.4634 0.8856 -0.0311
vn 0.664 0.714 0.2219
vn 0.6531 0.7118 0.2582
vn 0.6712 0.6892 0.2728
vn 0.6875 0.6897 0.227
vn 0.6405 0.6914 0.3344
vn 0.6147 0.7215 0.3186
vn 0.5598 0.7779 0.2853
vn 0.6208 0.763 0.1802
vn 0.6206 0.755 0.2116
vn 0.5571 0.7216 0.411
vn 0.5728 0.6978 0.4299
vn 0.6035 0.694 0.3925
vn 0.5824 0.7169 0.3831
vn 0.5273 0.7617 0.3766
vn 0.5008 0.7714 0.3924
vn 0.4241 0.8203 0.3836
vn 0.4943 0.8337 0.246
vn 0.4522 0.8065 0.3809
vn 0.5753 0.8096 0.1161
vn 0.587 0.797 0.1423
vn 0.7064 0.6763 0.2089
vn 0.6924 0.6732 0.2597
vn 0.7154 0.6573 0.2368
vn 0.7471 0.631 0.2088
vn 0.6838 0.6339 0.3612
vn 0.6522 0.6767 0.3416
vn 0.5666 0.6861 0.4562
vn 0.5859 0.6426 0.4938
vn 0.5943 0.6661 0.4506
vn 0.6026 0.6797 0.4182
vn -0.2959 -0.8613 -0.4129
vn -0.4064 -0.8928 -0.194
vn -0.4546 -0.8624 -0.2225
vn -0.2963 -0.8089 -0.5077
vn -0.2434 -0.758 -0.6051
vn -0.2516 -0.7719 -0.5837
vn -0.2965 -0.7925 -0.5329
vn -0.345 -0.8488 -0.4007
vn -0.4393 -0.8726 -0.2134
vn -0.5357 -0.8443 0.0111
vn -0.656 -0.7432 0.1314
vn -0.6696 -0.7277 0.1485
vn -0.6154 -0.7862 0.0563
vn -0.5501 -0.8342 -0.0379
vn -0.6363 -0.7684 0.0681
vn -0.67 -0.7129 -0.2068
vn -0.706 -0.7011 -0.1001
vn -0.6758 -0.7338 -0.0688
vn -0.6268 -0.7611 -0.1665
vn -0.5599 -0.7779 -0.2853
vn -0.6149 -0.7213 -0.3187
vn -0.6406 -0.6912 -0.3345
vn -0.6931 -0.6899 -0.2087
vn -0.7154 -0.6943 -0.0779
vn -0.5472 -0.7217 -0.4239
vn -0.4921 -0.7707 -0.4047
vn -0.4329 -0.7511 -0.4984
vn -0.4741 -0.7176 -0.5101
vn -0.4599 -0.7123 -0.5301
vn -0.56 -0.6993 -0.4441
vn -0.4159 -0.8188 -0.3957
vn -0.4943 -0.8337 -0.246
vn -0.3638 -0.7835 -0.5037
vn -0.5814 -0.807 -0.103
vn -0.6457 -0.7635 -0.0049
vn -0.7044 -0.687 -0.1782
vn -0.7092 -0.7048 -0.0139
vn -0.6451 -0.6857 -0.3372
vn -0.6129 -0.7236 -0.3175
vn -0.6858 -0.7229 -0.0842
vn -0.7 -0.7136 0.0265
vn -0.5397 -0.6986 -0.4696
vn -0.4022 -0.7266 -0.557
vn -0.3631 -0.7376 -0.5692
vn -0.4508 -0.7396 -0.4998
vn -0.0976 -0.0945 0.9907
vn 0.2337 -0.3282 0.9152
vn -0.2313 -0.0168 0.9727
vn -0.7 -0.7136 0.0265
vn 0.7107 -0.6856 0.1574
vn 0.8926 -0.375 -0.25
vn 0.5053 -0.8023 0.3177
vn -0.3631 -0.7376 -0.5692
vn 0.3355 0.4063 -0.8499
vn 0.0316 0.5163 -0.8558
vn 0.5001 0.2769 -0.8205
vn -0.2434 -0.758 -0.6051
vn -0.8807 0.4711 0.0485
vn -0.6983 0.5682 0.4354
vn -0.8017 0.3709 -0.4686
vn -0.6696 -0.7277 0.1485
vn -0.5404 0.4685 0.6989
vn -0.4348 0.3434 0.8325
vn 0.478 -0.6695 0.5686
vn 0.7939 -0.1571 -0.5874
vn 0.7119 -0.0829 -0.6973
vn -0.3968 0.4366 -0.8074
vn 0.5871 0.1607 -0.7934
vn 0.6225 0.0826 -0.7782
vn -0.3705 0.2287 0.9002
vn -0.342 0.1512 0.9275
vn -0.3111 0.0728 0.9475
vn 0.6526 0.0048 -0.7577
vt 0.839504 0.118056
vt 0.856743 0.205307
vt 0.741230 0.205307
vt 0.734555 0.106726
vt 0.724541 0.032791
vt 0.813647 0.052618
vt 0.868992 0.081539
vt 0.913398 0.129584
vt 0.940923 0.205307
vt 0.839504 0.292557
vt 0.813647 0.357995
vt 0.724541 0.377822
vt 0.734555 0.303887
vt 0.913398 0.281029
vt 0.868992 0.329074
vt 0.369475 0.299954
vt 0.368286 0.370940
vt 0.245840 0.351447
vt 0.246397 0.288815
vt 0.246768 0.205307
vt 0.370268 0.205307
vt 0.494283 0.205307
vt 0.492822 0.304944
vt 0.490632 0.379672
vt 0.369475 0.110659
vt 0.246397 0.121798
vt 0.245841 0.059166
vt 0.368286 0.039673
vt 0.490632 0.030941
vt 0.492822 0.105669
vt 0.616755 0.103478
vt 0.619174 0.205307
vt 0.613127 0.027106
vt 0.616755 0.307135
vt 0.613126 0.383507
vt 0.123273 0.268175
vt 0.123047 0.315326
vt 0.054743 0.283353
vt 0.030912 0.249131
vt 0.030973 0.205306
vt 0.123423 0.205306
vt 0.123273 0.142438
vt 0.030912 0.161481
vt 0.054744 0.127260
vt 0.123047 0.095287
vt 0.839504 0.118056
vt 0.856743 0.205307
vt 0.968983 0.205307
vt 0.938030 0.133427
vt 0.876123 0.061548
vt 0.805028 0.030806
vt 0.721203 0.008146
vt 0.734555 0.106726
vt 0.741230 0.205307
vt 0.839504 0.292557
vt 0.805028 0.379807
vt 0.876123 0.349065
vt 0.938030 0.277186
vt 0.734555 0.303887
vt 0.721203 0.402467
vt 0.369475 0.299954
vt 0.367890 0.394602
vt 0.489902 0.404581
vt 0.492822 0.304944
vt 0.494283 0.205307
vt 0.370268 0.205307
vt 0.246768 0.205307
vt 0.246397 0.288815
vt 0.245655 0.372324
vt 0.369475 0.110659
vt 0.492822 0.105669
vt 0.489902 0.006032
vt 0.367890 0.016011
vt 0.245655 0.038289
vt 0.246397 0.121798
vt 0.616755 0.103478
vt 0.619174 0.205307
vt 0.611917 0.001649
vt 0.616755 0.307135
vt 0.611917 0.408964
vt 0.123273 0.268175
vt 0.122972 0.331043
vt 0.123423 0.205306
vt 0.000156 0.205306
vt 0.000125 0.242784
vt 0.000064 0.280261
vt 0.123273 0.142438
vt 0.122972 0.079570
vt 0.000064 0.130352
vt 0.000125 0.167829
vt 0.122972 0.331043
vt 0.030806 0.283587
vt 0.245655 0.372324
vt 0.030806 0.283587
vt 0.000125 0.167829
vt 0.030806 0.127026
vt 0.000156 0.205306
vt 0.030806 0.127026
vt 0.805028 0.030806
vt 0.873826 0.071832
vt 0.721203 0.008146
vt 0.873826 0.071832
vt 0.938030 0.277186
vt 0.873826 0.338781
vt 0.968983 0.205307
vt 0.873826 0.338781
vt 0.805028 0.379807
vt 0.721203 0.402467
vt 0.000125 0.242784
vt 0.122972 0.079570
vt 0.245655 0.038289
vt 0.938030 0.133427
vt 0.611917 0.001649
vt 0.489902 0.006032
vt 0.611917 0.408964
vt 0.489902 0.404581
vt 0.367890 0.394602
vt 0.367890 0.016011
f 1/1/1 2/2/2 3/3/3
f 1/1/1 3/3/3 4/4/4
f 1/1/1 4/4/4 5/5/5
f 1/1/1 5/5/5 6/6/6
f 1/1/1 6/6/6 7/7/7
f 1/1/1 7/7/7 8/8/8
f 1/1/1 8/8/8 9/9/9
f 1/1/1 9/9/9 2/2/2
f 10/10/10 11/11/11 12/12/12
f 10/10/10 12/12/12 13/13/13
f 10/10/10 13/13/13 3/3/3
f 10/10/10 3/3/3 2/2/2
f 10/10/10 2/2/2 9/9/9
f 10/10/10 9/9/9 14/14/14
f 10/10/10 14/14/14 15/15/15
f 10/10/10 15/15/15 11/11/11
f 16/16/16 17/17/17 18/18/18
f 16/16/16 18/18/18 19/19/19
f 16/16/16 19/19/19 20/20/20
f 16/16/16 20/20/20 21/21/21
f 16/16/16 21/21/21 22/22/22
f 16/16/16 22/22/22 23/23/23
f 16/16/16 23/23/23 24/24/24
f 16/16/16 24/24/24 17/17/17
f 25/25/25 21/21/21 20/20/20
f 25/25/25 20/20/20 26/26/26
f 25/25/25 26/26/26 27/27/27
f 25/25/25 27/27/27 28/28/28
f 25/25/25 28/28/28 29/29/29
f 25/25/25 29/29/29 30/30/30
f 25/25/25 30/30/30 22/22/22
f 25/25/25 22/22/22 21/21/21
f 31/31/31 32/32/32 22/22/22
f 31/31/31 22/22/22 30/30/30
f 31/31/31 30/30/30 29/29/29
f 31/31/31 29/29/29 33/33/33
f 31/31/31 33/33/33 5/5/5
f 31/31/31 5/5/5 4/4/4
f 31/31/31 4/4/4 3/3/3
f 31/31/31 3/3/3 32/32/32
f 34/34/34 35/35/35 24/24/24
f 34/34/34 24/24/24 23/23/23
f 34/34/34 23/23/23 22/22/22
f 34/34/34 22/22/22 32/32/32
f 34/34/34 32/32/32 3/3/3
f 34/34/34 3/3/3 13/13/13
f 34/34/34 13/13/13 12/12/12
f 34/34/34 12/12/12 35/35/35
f 36/36/36 37/37/37 38/38/38
f 36/36/36 38/38/38 39/39/39
f 36/36/36 39/39/39 40/40/40
f 36/36/36 40/40/40 41/41/41
f 36/36/36 41/41/41 20/20/20
f 36/36/36 20/20/20 19/19/19
f 36/36/36 19/19/19 18/18/18
f 36/36/36 18/18/18 37/37/37
f 42/42/42 41/41/41 40/40/40
f 42/42/42 40/40/40 43/43/43
f 42/42/42 43/43/43 44/44/44
f 42/42/42 44/44/44 45/45/45
f 42/42/42 45/45/45 27/27/27
f 42/42/42 27/27/27 26/26/26
f 42/42/42 26/26/26 20/20/20
f 42/42/42 20/20/20 41/41/41
f 46/46/46 47/47/47 48/48/48
f 46/46/46 48/48/48 49/49/49
f 46/46/46 49/49/49 50/50/50
f 46/46/46 50/50/50 51/51/51
f 46/46/46 51/51/51 52/52/52
f 46/46/46 52/52/52 53/53/53
f 46/46/46 53/53/53 54/54/54
f 46/46/46 54/54/54 47/47/47
f 55/55/55 56/56/56 57/57/57
f 55/55/55 57/57/57 58/58/58
f 55/55/55 58/58/58 48/48/48
f 55/55/55 48/48/48 47/47/47
f 55/55/55 47/47/47 54/54/54
f 55/55/55 54/54/54 59/59/59
f 55/55/55 59/59/59 60/60/60
f 55/55/55 60/60/60 56/56/56
f 61/61/61 62/62/62 63/63/63
f 61/61/61 63/63/63 64/64/64
f 61/61/61 64/64/64 65/65/65
f 61/61/61 65/65/65 66/66/66
f 61/61/61 66/66/66 67/67/67
f 61/61/61 67/67/67 68/68/68
f 61/61/61 68/68/68 69/69/69
f 61/61/61 69/69/69 62/62/62
f 70/70/70 66/66/66 65/65/65
f 70/70/70 65/65/65 71/71/71
f 70/70/70 71/71/71 72/72/72
f 70/70/70 72/72/72 73/73/73
f 70/70/70 73/73/73 74/74/74
f 70/70/70 74/74/74 75/75/75
f 70/70/70 75/75/75 67/67/67
f 70/70/70 67/67/67 66/66/66
f 76/76/76 77/77/77 54/54/54
f 76/76/76 54/54/54 53/53/53
f 76/76/76 53/53/53 52/52/52
f 76/76/76 52/52/52 78/78/78
f 76/76/76 78/78/78 72/72/72
f 76/76/76 72/72/72 71/71/71
f 76/76/76 71/71/71 65/65/65
f 76/76/76 65/65/65 77/77/77
f 79/79/79 80/80/80 60/60/60
f 79/79/79 60/60/60 59/59/59
f 79/79/79 59/59/59 54/54/54
f 79/79/79 54/54/54 77/77/77
f 79/79/79 77/77/77 65/65/65
f 79/79/79 65/65/65 64/64/64
f 79/79/79 64/64/64 63/63/63
f 79/79/79 63/63/63 80/80/80
f 81/81/81 82/82/82 69/69/69
f 81/81/81 69/69/69 68/68/68
f 81/81/81 68/68/68 67/67/67
f 81/81/81 67/67/67 83/83/83
f 81/81/81 83/83/83 84/84/84
f 81/81/81 84/84/84 85/85/85
f 81/81/81 85/85/85 86/86/86
f 81/81/81 86/86/86 82/82/82
f 87/87/87 83/83/83 67/67/67
f 87/87/87 67/67/67 75/75/75
f 87/87/87 75/75/75 74/74/74
f 87/87/87 74/74/74 88/88/88
f 87/87/87 88/88/88 89/89/89
f 87/87/87 89/89/89 90/90/90
f 87/87/87 90/90/90 84/84/84
f 87/87/87 84/84/84 83/83/83
f 91/91/91 92/92/92 38/38/38
f 91/91/91 38/38/38 37/37/37
f 91/91/91 37/37/37 18/18/18
f 91/91/91 18/18/18 93/93/93
f 91/91/91 93/93/93 69/69/69
f 91/91/91 69/69/69 82/82/82
f 91/91/91 82/82/82 94/94/94
f 91/91/91 94/94/94 92/92/92
f 95/95/95 96/96/96 44/44/44
f 95/95/95 44/44/44 43/43/43
f 95/95/95 43/43/43 40/40/40
f 95/95/95 40/40/40 97/97/97
f 95/95/95 97/97/97 84/84/84
f 95/95/95 84/84/84 90/90/90
f 95/95/95 90/90/90 98/98/98
f 95/95/95 98/98/98 96/96/96
f 99/99/99 100/100/100 7/7/7
f 99/99/99 7/7/7 6/6/6
f 99/99/99 6/6/6 5/5/5
f 99/99/99 5/5/5 101/101/101
f 99/99/99 101/101/101 52/52/52
f 99/99/99 52/52/52 51/51/51
f 99/99/99 51/51/51 102/102/102
f 99/99/99 102/102/102 100/100/100
f 103/103/103 104/104/104 15/15/15
f 103/103/103 15/15/15 14/14/14
f 103/103/103 14/14/14 9/9/9
f 103/103/103 9/9/9 105/105/105
f 103/103/103 105/105/105 48/48/48
f 103/103/103 48/48/48 58/58/58
f 103/103/103 58/58/58 106/106/106
f 103/103/103 106/106/106 104/104/104
f 107/107/107 108/108/108 12/12/12
f 107/107/107 12/12/12 11/11/11
f 107/107/107 11/11/11 15/15/15
f 107/107/107 15/15/15 104/104/104
f 107/107/107 104/104/104 106/106/106
f 107/107/107 106/106/106 56/56/56
f 107/107/107 56/56/56 60/60/60
f 107/107/107 60/60/60 108/108/108
f 109/109/109 97/97/97 40/40/40
f 109/109/109 40/40/40 39/39/39
f 109/109/109 39/39/39 38/38/38
f 109/109/109 38/38/38 92/92/92
f 109/109/109 92/92/92 94/94/94
f 109/109/109 94/94/94 85/85/85
f 109/109/109 85/85/85 84/84/84
f 109/109/109 84/84/84 97/97/97
f 110/110/110 111/111/111 27/27/27
f 110/110/110 27/27/27 45/45/45
f 110/110/110 45/45/45 44/44/44
f 110/110/110 44/44/44 96/96/96
f 110/110/110 96/96/96 98/98/98
f 110/110/110 98/98/98 88/88/88
f 110/110/110 88/88/88 74/74/74
f 110/110/110 74/74/74 111/111/111
f 112/112/112 105/105/105 9/9/9
f 112/112/112 9/9/9 8/8/8
f 112/112/112 8/8/8 7/7/7
f 112/112/112 7/7/7 100/100/100
f 112/112/112 100/100/100 102/102/102
f 112/112/112 102/102/102 49/49/49
f 112/112/112 49/49/49 48/48/48
f 112/112/112 48/48/48 105/105/105
f 113/113/113 101/101/101 5/5/5
f 113/113/113 5/5/5 33/33/33
f 113/113/113 33/33/33 29/29/29
f 113/113/113 29/29/29 114/114/114
f 113/113/113 114/114/114 72/72/72
f 113/113/113 72/72/72 78/78/78
f 113/113/113 78/78/78 52/52/52
f 113/113/113 52/52/52 101/101/101
f 115/115/115 116/116/116 24/24/24
f 115/115/115 24/24/24 35/35/35
f 115/115/115 35/35/35 12/12/12
f 115/115/115 12/12/12 108/108/108
f 115/115/115 108/108/108 60/60/60
f 115/115/115 60/60/60 80/80/80
f 115/115/115 80/80/80 63/63/63
f 115/115/115 63/63/63 116/116/116
f 117/117/117 93/93/93 18/18/18
f 117/117/117 18/18/18 17/17/17
f 117/117/117 17/17/17 24/24/24
f 117/117/117 24/24/24 116/116/116
f 117/117/117 116/116/116 63/63/63
f 117/117/117 63/63/63 62/62/62
f 117/117/117 62/62/62 69/69/69
f 117/117/117 69/69/69 93/93/93
f 118/118/118 114/114/114 29/29/29
f 118/118/118 29/29/29 28/28/28
f 118/118/118 28/28/28 27/27/27
f 118/118/118 27/27/27 111/111/111
f 118/118/118 111/111/111 74/74/74
f 118/118/118 74/74/74 73/73/73
f 118/118/118 73/73/73 72/72/72
f 118/118/118 72/72/72 114/114/114
