v -2.365469 0.727298 -1.0491
v -2.364668 0.727939 -1.05013
v -2.366143 0.727232 -1.051161
v -2.366868 0.72655 -1.049889
v -2.36756 0.726112 -1.048942
v -2.366322 0.726849 -1.048403
v -2.365378 0.727318 -1.048316
v -2.364417 0.727794 -1.048605
v -2.363549 0.728404 -1.049392
v -2.364567 0.728709 -1.051357
v -2.36474 0.729325 -1.052361
v -2.365763 0.728924 -1.053437
v -2.365843 0.728154 -1.052453
v -2.363636 0.729016 -1.050558
v -2.364097 0.729323 -1.051521
v -2.369806 0.725128 -1.05589
v -2.369553 0.725813 -1.056826
v -2.370754 0.724408 -1.057791
v -2.37097 0.723797 -1.056963
v -2.371326 0.723035 -1.055858
v -2.370215 0.724271 -1.054641
v -2.369001 0.725409 -1.053444
v -2.368582 0.726316 -1.054748
v -2.368334 0.727048 -1.055724
v -2.37081 0.723556 -1.053377
v -2.371858 0.722407 -1.054741
v -2.372311 0.721972 -1.053897
v -2.371313 0.723059 -1.052423
v -2.370175 0.724167 -1.051118
v -2.369633 0.724671 -1.052119
v -2.368288 0.725672 -1.050926
v -2.367616 0.726393 -1.052275
v -2.368884 0.725201 -1.049902
v -2.367221 0.727341 -1.053593
v -2.367016 0.728125 -1.054576
v -2.372155 0.722344 -1.057908
v -2.372021 0.722821 -1.058526
v -2.372735 0.721796 -1.058782
v -2.373036 0.721197 -1.058573
v -2.373177 0.720777 -1.058011
v -2.3724 0.72176 -1.057085
v -2.372818 0.721306 -1.05625
v -2.373491 0.720486 -1.057436
v -2.373552 0.720517 -1.056737
v -2.373184 0.721001 -1.055617
v -2.365387 0.727172 -1.04912
v -2.364578 0.727822 -1.050167
v -2.363484 0.728315 -1.049421
v -2.364358 0.727698 -1.04862
v -2.365335 0.727245 -1.048323
v -2.366265 0.72675 -1.048409
v -2.367498 0.726016 -1.048947
v -2.366781 0.726427 -1.049907
v -2.36605 0.727118 -1.051196
v -2.364471 0.728604 -1.051411
v -2.364666 0.729252 -1.052409
v -2.364043 0.729267 -1.051555
v -2.363566 0.728937 -1.050601
v -2.365743 0.72805 -1.052502
v -2.365686 0.728852 -1.053481
v -2.369688 0.725034 -1.055919
v -2.369463 0.725747 -1.056853
v -2.368248 0.726979 -1.055755
v -2.36847 0.726218 -1.054782
v -2.368893 0.725304 -1.053467
v -2.370102 0.72417 -1.054659
v -2.371209 0.722938 -1.055872
v -2.370849 0.723707 -1.056988
v -2.370662 0.724345 -1.057815
v -2.370702 0.723449 -1.053384
v -2.36953 0.72456 -1.05213
v -2.370101 0.72408 -1.05112
v -2.371234 0.722976 -1.052423
v -2.37223 0.721891 -1.053893
v -2.371746 0.722303 -1.054744
v -2.368192 0.725554 -1.050941
v -2.367515 0.726282 -1.052304
v -2.368816 0.72511 -1.049906
v -2.367116 0.727239 -1.053635
v -2.366934 0.728054 -1.054614
v -2.372033 0.722256 -1.057933
v -2.371928 0.722759 -1.05855
v -2.372281 0.721664 -1.057098
v -2.373088 0.720705 -1.05802
v -2.372944 0.721132 -1.058591
v -2.372666 0.72175 -1.058798
v -2.372705 0.721204 -1.056251
v -2.373102 0.720921 -1.055612
v -2.373491 0.720459 -1.056735
v -2.373406 0.720409 -1.057436
v -2.371935 0.722953 -1.058743
v -2.37294 0.721545 -1.059025
v -2.370641 0.724585 -1.058079
v -2.372666 0.72175 -1.058798
v -2.373677 0.720179 -1.057832
v -2.373759 0.720263 -1.056976
v -2.373396 0.720417 -1.058323
v -2.373491 0.720459 -1.056735
v -2.366582 0.726655 -1.048171
v -2.365383 0.727289 -1.048132
v -2.367764 0.725923 -1.048627
v -2.365335 0.727245 -1.048323
v -2.363296 0.729083 -1.050311
v -2.363997 0.729459 -1.0516
v -2.363148 0.728519 -1.049159
v -2.364043 0.729267 -1.051555
v -2.364765 0.729499 -1.052719
v -2.365701 0.72915 -1.053786
v -2.373289 0.720786 -1.058803
v -2.37327 0.720863 -1.055403
v -2.372426 0.721791 -1.053612
v -2.364041 0.727916 -1.048447
v -2.369053 0.725003 -1.049561
v -2.370323 0.72396 -1.050784
v -2.36691 0.728356 -1.054922
v -2.368212 0.727263 -1.056064
v -2.369428 0.726013 -1.057151
v -2.371446 0.722856 -1.052104
vn -0.4807 0.8728 0.0841
vn -0.5473 0.7902 0.2756
vn -0.5925 0.7678 0.2435
vn -0.5354 0.8415 0.0713
vn -0.5576 0.8275 0.0654
vn -0.4845 0.8701 0.0908
vn -0.4309 0.8958 0.109
vn -0.4251 0.8897 0.1664
vn -0.4727 0.8196 0.3237
vn -0.6198 0.6552 0.4319
vn -0.6183 0.6607 0.4256
vn -0.6758 0.6426 0.3611
vn -0.6597 0.6471 0.3821
vn -0.5384 0.7122 0.4504
vn -0.5747 0.6708 0.4688
vn -0.7895 0.5849 0.1856
vn -0.785 0.6007 0.1514
vn -0.8018 0.5832 0.13
vn -0.8098 0.5608 0.1723
vn -0.7831 0.6176 0.0733
vn -0.7597 0.6428 0.0984
vn -0.7085 0.6899 0.1484
vn -0.7473 0.6194 0.2406
vn -0.7514 0.6258 0.2091
vn -0.7198 0.6941 0.0111
vn -0.7349 0.6779 -0.0149
vn -0.7577 0.6523 0.0195
vn -0.7389 0.6728 0.0361
vn -0.6905 0.721 0.0568
vn -0.669 0.7419 0.0448
vn -0.5999 0.7972 0.0674
vn -0.646 0.736 0.2022
vn -0.6247 0.778 0.0662
vn -0.6986 0.6428 0.3143
vn -0.7126 0.6404 0.2863
vn -0.823 0.5373 0.1841
vn -0.8179 0.559 0.1362
vn -0.8341 0.5304 0.1513
vn -0.8561 0.4888 0.1675
vn -0.8216 0.5693 0.0278
vn -0.7936 0.6052 0.0614
vn -0.7319 0.68 -0.044
vn -0.751 0.6533 -0.0954
vn -0.7548 0.6543 -0.0458
vn -0.7591 0.6509 -0.01
vn 0.4862 -0.8725 -0.048
vn 0.5599 -0.7844 -0.2669
vn 0.6075 -0.7596 -0.2322
vn 0.4958 -0.8663 0.0599
vn 0.4539 -0.8739 0.1741
vn 0.4601 -0.8754 0.148
vn 0.4979 -0.8626 0.0896
vn 0.53 -0.846 -0.0576
vn 0.5925 -0.7679 -0.2435
vn 0.6426 -0.6277 -0.4393
vn 0.7238 -0.4628 -0.5117
vn 0.7318 -0.4389 -0.5213
vn 0.7038 -0.5407 -0.4607
vn 0.6639 -0.6365 -0.3925
vn 0.7195 -0.5156 -0.4651
vn 0.7925 -0.5763 -0.1991
vn 0.8071 -0.5132 -0.2919
vn 0.7769 -0.5352 -0.3315
vn 0.7505 -0.6107 -0.2525
vn 0.7086 -0.6898 -0.1482
vn 0.7598 -0.6427 -0.0983
vn 0.7832 -0.6175 -0.0732
vn 0.8121 -0.552 -0.1892
vn 0.8114 -0.4958 -0.3094
vn 0.7125 -0.7017 0.0013
vn 0.6626 -0.7483 -0.0327
vn 0.6185 -0.783 0.0648
vn 0.6559 -0.7498 0.0865
vn 0.6448 -0.7567 0.1079
vn 0.7253 -0.6879 0.0281
vn 0.5938 -0.8027 -0.0552
vn 0.646 -0.736 -0.2022
vn 0.5568 -0.8283 0.0614
vn 0.7018 -0.6337 -0.3254
vn 0.7408 -0.5405 -0.3988
vn 0.8173 -0.5341 -0.216
vn 0.7957 -0.4793 -0.3703
vn 0.7873 -0.6127 -0.0686
vn 0.758 -0.6445 -0.1003
vn 0.7879 -0.5298 -0.3138
vn 0.7809 -0.4719 -0.4092
vn 0.7098 -0.7024 0.0529
vn 0.5952 -0.7928 0.1307
vn 0.5608 -0.816 0.1403
vn 0.6345 -0.7697 0.0695
vn -0.0653 0.3568 -0.9319
vn -0.3406 0.0487 -0.9389
vn 0.0572 0.4465 -0.8929
vn 0.7809 -0.4719 -0.4092
vn -0.6193 -0.6856 -0.3825
vn -0.7705 -0.6229 0.1354
vn -0.4309 -0.6775 -0.5961
vn 0.5608 -0.816 0.1403
vn -0.2359 -0.0721 0.9691
vn 0.0445 0.0857 0.9953
vn -0.3826 -0.208 0.9002
vn 0.4539 -0.8739 0.1741
vn 0.7802 0.6194 0.0865
vn 0.5208 0.8307 -0.1965
vn 0.8087 0.2956 0.5084
vn 0.7318 -0.4389 -0.5213
vn 0.335 0.8217 -0.461
vn 0.2269 0.7461 -0.626
vn -0.4678 -0.4485 -0.7616
vn -0.6471 -0.5531 0.5247
vn -0.5585 -0.5175 0.6482
vn 0.4642 0.1252 0.8768
vn -0.4557 -0.3174 0.8316
vn -0.4815 -0.3871 0.7863
vn 0.1693 0.6602 -0.7318
vn 0.1476 0.5972 -0.7883
vn 0.1258 0.5309 -0.838
vn -0.5029 -0.4534 0.7359
vt 0.839504 0.118056
vt 0.856743 0.205307
vt 0.741230 0.205307
vt 0.734555 0.106726
vt 0.724541 0.032791
vt 0.813647 0.052618
vt 0.868992 0.081539
vt 0.913398 0.129584
vt 0.940923 0.205307
vt 0.839504 0.292557
vt 0.813647 0.357995
vt 0.724541 0.377822
vt 0.734555 0.303887
vt 0.913398 0.281029
vt 0.868992 0.329074
vt 0.369475 0.299954
vt 0.368286 0.370940
vt 0.245840 0.351447
vt 0.246397 0.288815
vt 0.246768 0.205307
vt 0.370268 0.205307
vt 0.494283 0.205307
vt 0.492822 0.304944
vt 0.490632 0.379672
vt 0.369475 0.110659
vt 0.246397 0.121798
vt 0.245841 0.059166
vt 0.368286 0.039673
vt 0.490632 0.030941
vt 0.492822 0.105669
vt 0.616755 0.103478
vt 0.619174 0.205307
vt 0.613127 0.027106
vt 0.616755 0.307135
vt 0.613126 0.383507
vt 0.123273 0.268175
vt 0.123047 0.315326
vt 0.054743 0.283353
vt 0.030912 0.249131
vt 0.030973 0.205306
vt 0.123423 0.205306
vt 0.123273 0.142438
vt 0.030912 0.161481
vt 0.054744 0.127260
vt 0.123047 0.095287
vt 0.839504 0.118056
vt 0.856743 0.205307
vt 0.968983 0.205307
vt 0.938030 0.133427
vt 0.876123 0.061548
vt 0.805028 0.030806
vt 0.721203 0.008146
vt 0.734555 0.106726
vt 0.741230 0.205307
vt 0.839504 0.292557
vt 0.805028 0.379807
vt 0.876123 0.349065
vt 0.938030 0.277186
vt 0.734555 0.303887
vt 0.721203 0.402467
vt 0.369475 0.299954
vt 0.367890 0.394602
vt 0.489902 0.404581
vt 0.492822 0.304944
vt 0.494283 0.205307
vt 0.370268 0.205307
vt 0.246768 0.205307
vt 0.246397 0.288815
vt 0.245655 0.372324
vt 0.369475 0.110659
vt 0.492822 0.105669
vt 0.489902 0.006032
vt 0.367890 0.016011
vt 0.245655 0.038289
vt 0.246397 0.121798
vt 0.616755 0.103478
vt 0.619174 0.205307
vt 0.611917 0.001649
vt 0.616755 0.307135
vt 0.611917 0.408964
vt 0.123273 0.268175
vt 0.122972 0.331043
vt 0.123423 0.205306
vt 0.000156 0.205306
vt 0.000125 0.242784
vt 0.000064 0.280261
vt 0.123273 0.142438
vt 0.122972 0.079570
vt 0.000064 0.130352
vt 0.000125 0.167829
vt 0.122972 0.331043
vt 0.030806 0.283587
vt 0.245655 0.372324
vt 0.030806 0.283587
vt 0.000125 0.167829
vt 0.030806 0.127026
vt 0.000156 0.205306
vt 0.030806 0.127026
vt 0.805028 0.030806
vt 0.873826 0.071832
vt 0.721203 0.008146
vt 0.873826 0.071832
vt 0.938030 0.277186
vt 0.873826 0.338781
vt 0.968983 0.205307
vt 0.873826 0.338781
vt 0.805028 0.379807
vt 0.721203 0.402467
vt 0.000125 0.242784
vt 0.122972 0.079570
vt 0.245655 0.038289
vt 0.938030 0.133427
vt 0.611917 0.001649
vt 0.489902 0.006032
vt 0.611917 0.408964
vt 0.489902 0.404581
vt 0.367890 0.394602
vt 0.367890 0.016011
f 1/1/1 2/2/2 3/3/3
f 1/1/1 3/3/3 4/4/4
f 1/1/1 4/4/4 5/5/5
f 1/1/1 5/5/5 6/6/6
f 1/1/1 6/6/6 7/7/7
f 1/1/1 7/7/7 8/8/8
f 1/1/1 8/8/8 9/9/9
f 1/1/1 9/9/9 2/2/2
f 10/10/10 11/11/11 12/12/12
f 10/10/10 12/12/12 13/13/13
f 10/10/10 13/13/13 3/3/3
f 10/10/10 3/3/3 2/2/2
f 10/10/10 2/2/2 9/9/9
f 10/10/10 9/9/9 14/14/14
f 10/10/10 14/14/14 15/15/15
f 10/10/10 15/15/15 11/11/11
f 16/16/16 17/17/17 18/18/18
f 16/16/16 18/18/18 19/19/19
f 16/16/16 19/19/19 20/20/20
f 16/16/16 20/20/20 21/21/21
f 16/16/16 21/21/21 22/22/22
f 16/16/16 22/22/22 23/23/23
f 16/16/16 23/23/23 24/24/24
f 16/16/16 24/24/24 17/17/17
f 25/25/25 21/21/21 20/20/20
f 25/25/25 20/20/20 26/26/26
f 25/25/25 26/26/26 27/27/27
f 25/25/25 27/27/27 28/28/28
f 25/25/25 28/28/28 29/29/29
f 25/25/25 29/29/29 30/30/30
f 25/25/25 30/30/30 22/22/22
f 25/25/25 22/22/22 21/21/21
f 31/31/31 32/32/32 22/22/22
f 31/31/31 22/22/22 30/30/30
f 31/31/31 30/30/30 29/29/29
f 31/31/31 29/29/29 33/33/33
f 31/31/31 33/33/33 5/5/5
f 31/31/31 5/5/5 4/4/4
f 31/31/31 4/4/4 3/3/3
f 31/31/31 3/3/3 32/32/32
f 34/34/34 35/35/35 24/24/24
f 34/34/34 24/24/24 23/23/23
f 34/34/34 23/23/23 22/22/22
f 34/34/34 22/22/22 32/32/32
f 34/34/34 32/32/32 3/3/3
f 34/34/34 3/3/3 13/13/13
f 34/34/34 13/13/13 12/12/12
f 34/34/34 12/12/12 35/35/35
f 36/36/36 37/37/37 38/38/38
f 36/36/36 38/38/38 39/39/39
f 36/36/36 39/39/39 40/40/40
f 36/36/36 40/40/40 41/41/41
f 36/36/36 41/41/41 20/20/20
f 36/36/36 20/20/20 19/19/19
f 36/36/36 19/19/19 18/18/18
f 36/36/36 18/18/18 37/37/37
f 42/42/42 41/41/41 40/40/40
f 42/42/42 40/40/40 43/43/43
f 42/42/42 43/43/43 44/44/44
f 42/42/42 44/44/44 45/45/45
f 42/42/42 45/45/45 27/27/27
f 42/42/42 27/27/27 26/26/26
f 42/42/42 26/26/26 20/20/20
f 42/42/42 20/20/20 41/41/41
f 46/46/46 47/47/47 48/48/48
f 46/46/46 48/48/48 49/49/49
f 46/46/46 49/49/49 50/50/50
f 46/46/46 50/50/50 51/51/51
f 46/46/46 51/51/51 52/52/52
f 46/46/46 52/52/52 53/53/53
f 46/46/46 53/53/53 54/54/54
f 46/46/46 54/54/54 47/47/47
f 55/55/55 56/56/56 57/57/57
f 55/55/55 57/57/57 58/58/58
f 55/55/55 58/58/58 48/48/48
f 55/55/55 48/48/48 47/47/47
f 55/55/55 47/47/47 54/54/54
f 55/55/55 54/54/54 59/59/59
f 55/55/55 59/59/59 60/60/60
f 55/55/55 60/60/60 56/56/56
f 61/61/61 62/62/62 63/63/63
f 61/61/61 63/63/63 64/64/64
f 61/61/61 64/64/64 65/65/65
f 61/61/61 65/65/65 66/66/66
f 61/61/61 66/66/66 67/67/67
f 61/61/61 67/67/67 68/68/68
f 61/61/61 68/68/68 69/69/69
f 61/61/61 69/69/69 62/62/62
f 70/70/70 66/66/66 65/65/65
f 70/70/70 65/65/65 71/71/71
f 70/70/70 71/71/71 72/72/72
f 70/70/70 72/72/72 73/73/73
f 70/70/70 73/73/73 74/74/74
f 70/70/70 74/74/74 75/75/75
f 70/70/70 75/75/75 67/67/67
f 70/70/70 67/67/67 66/66/66
f 76/76/76 77/77/77 54/54/54
f 76/76/76 54/54/54 53/53/53
f 76/76/76 53/53/53 52/52/52
f 76/76/76 52/52/52 78/78/78
f 76/76/76 78/78/78 72/72/72
f 76/76/76 72/72/72 71/71/71
f 76/76/76 71/71/71 65/65/65
f 76/76/76 65/65/65 77/77/77
f 79/79/79 80/80/80 60/60/60
f 79/79/79 60/60/60 59/59/59
f 79/79/79 59/59/59 54/54/54
f 79/79/79 54/54/54 77/77/77
f 79/79/79 77/77/77 65/65/65
f 79/79/79 65/65/65 64/64/64
f 79/79/79 64/64/64 63/63/63
f 79/79/79 63/63/63 80/80/80
f 81/81/81 82/82/82 69/69/69
f 81/81/81 69/69/69 68/68/68
f 81/81/81 68/68/68 67/67/67
f 81/81/81 67/67/67 83/83/83
f 81/81/81 83/83/83 84/84/84
f 81/81/81 84/84/84 85/85/85
f 81/81/81 85/85/85 86/86/86
f 81/81/81 86/86/86 82/82/82
f 87/87/87 83/83/83 67/67/67
f 87/87/87 67/67/67 75/75/75
f 87/87/87 75/75/75 74/74/74
f 87/87/87 74/74/74 88/88/88
f 87/87/87 88/88/88 89/89/89
f 87/87/87 89/89/89 90/90/90
f 87/87/87 90/90/90 84/84/84
f 87/87/87 84/84/84 83/83/83
f 91/91/91 92/92/92 38/38/38
f 91/91/91 38/38/38 37/37/37
f 91/91/91 37/37/37 18/18/18
f 91/91/91 18/18/18 93/93/93
f 91/91/91 93/93/93 69/69/69
f 91/91/91 69/69/69 82/82/82
f 91/91/91 82/82/82 94/94/94
f 91/91/91 94/94/94 92/92/92
f 95/95/95 96/96/96 44/44/44
f 95/95/95 44/44/44 43/43/43
f 95/95/95 43/43/43 40/40/40
f 95/95/95 40/40/40 97/97/97
f 95/95/95 97/97/97 84/84/84
f 95/95/95 84/84/84 90/90/90
f 95/95/95 90/90/90 98/98/98
f 95/95/95 98/98/98 96/96/96
f 99/99/99 100/100/100 7/7/7
f 99/99/99 7/7/7 6/6/6
f 99/99/99 6/6/6 5/5/5
f 99/99/99 5/5/5 101/101/101
f 99/99/99 101/101/101 52/52/52
f 99/99/99 52/52/52 51/51/51
f 99/99/99 51/51/51 102/102/102
f 99/99/99 102/102/102 100/100/100
f 103/103/103 104/104/104 15/15/15
f 103/103/103 15/15/15 14/14/14
f 103/103/103 14/14/14 9/9/9
f 103/103/103 9/9/9 105/105/105
f 103/103/103 105/105/105 48/48/48
f 103/103/103 48/48/48 58/58/58
f 103/103/103 58/58/58 106/106/106
f 103/103/103 106/106/106 104/104/104
f 107/107/107 108/108/108 12/12/12
f 107/107/107 12/12/12 11/11/11
f 107/107/107 11/11/11 15/15/15
f 107/107/107 15/15/15 104/104/104
f 107/107/107 104/104/104 106/106/106
f 107/107/107 106/106/106 56/56/56
f 107/107/107 56/56/56 60/60/60
f 107/107/107 60/60/60 108/108/108
f 109/109/109 97/97/97 40/40/40
f 109/109/109 40/40/40 39/39/39
f 109/109/109 39/39/39 38/38/38
f 109/109/109 38/38/38 92/92/92
f 109/109/109 92/92/92 94/94/94
f 109/109/109 94/94/94 85/85/85
f 109/109/109 85/85/85 84/84/84
f 109/109/109 84/84/84 97/97/97
f 110/110/110 111/111/111 27/27/27
f 110/110/110 27/27/27 45/45/45
f 110/110/110 45/45/45 44/44/44
f 110/110/110 44/44/44 96/96/96
f 110/110/110 96/96/96 98/98/98
f 110/110/110 98/98/98 88/88/88
f 110/110/110 88/88/88 74/74/74
f 110/110/110 74/74/74 111/111/111
f 112/112/112 105/105/105 9/9/9
f 112/112/112 9/9/9 8/8/8
f 112/112/112 8/8/8 7/7/7
f 112/112/112 7/7/7 100/100/100
f 112/112/112 100/100/100 102/102/102
f 112/112/112 102/102/102 49/49/49
f 112/112/112 49/49/49 48/48/48
f 112/112/112 48/48/48 105/105/105
f 113/113/113 101/101/101 5/5/5
f 113/113/113 5/5/5 33/33/33
f 113/113/113 33/33/33 29/29/29
f 113/113/113 29/29/29 114/114/114
f 113/113/113 114/114/114 72/72/72
f 113/113/113 72/72/72 78/78/78
f 113/113/113 78/78/78 52/52/52
f 113/113/113 52/52/52 101/101/101
f 115/115/115 116/116/116 24/24/24
f 115/115/115 24/24/24 35/35/35
f 115/115/115 35/35/35 12/12/12
f 115/115/115 12/12/12 108/108/108
f 115/115/115 108/108/108 60/60/60
f 115/115/115 60/60/60 80/80/80
f 115/115/115 80/80/80 63/63/63
f 115/115/115 63/63/63 116/116/116
f 117/117/117 93/93/93 18/18/18
f 117/117/117 18/18/18 17/17/17
f 117/117/117 17/17/17 24/24/24
f 117/117/117 24/24/24 116/116/116
f 117/117/117 116/116/116 63/63/63
f 117/117/117 63/63/63 62/62/62
f 117/117/117 62/62/62 69/69/69
f 117/117/117 69/69/69 93/93/93
f 118/118/118 114/114/114 29/29/29
f 118/118/118 29/29/29 28/28/28
f 118/118/118 28/28/28 27/27/27
f 118/118/118 27/27/27 111/111/111
f 118/118/118 111/111/111 74/74/74
f 118/118/118 74/74/74 73/73/73
f 118/118/118 73/73/73 72/72/72
f 118/118/118 72/72/72 114/114/114
