v -2.349079 0.718578 -1.097236
v -2.348477 0.719174 -1.099217
v -2.350853 0.717664 -1.099759
v -2.351242 0.717104 -1.097463
v -2.35176 0.716776 -1.09571
v -2.349925 0.718129 -1.095754
v -2.348638 0.718906 -1.096202
v -2.347481 0.719554 -1.097178
v -2.34668 0.720202 -1.098843
v -2.348968 0.719829 -1.10121
v -2.34973 0.720324 -1.102722
v -2.351539 0.71927 -1.103626
v -2.351116 0.718527 -1.101978
v -2.347385 0.720638 -1.100617
v -2.34848 0.720683 -1.101845
v -2.357563 0.712603 -1.103974
v -2.357707 0.713257 -1.105603
v -2.359542 0.710791 -1.105939
v -2.359403 0.710207 -1.104499
v -2.359323 0.709499 -1.102568
v -2.357484 0.711809 -1.101789
v -2.355489 0.71398 -1.101049
v -2.355586 0.714826 -1.103331
v -2.355761 0.715531 -1.105029
v -2.357687 0.71121 -1.09955
v -2.359513 0.708974 -1.100586
v -2.359734 0.708631 -1.099081
v -2.357924 0.710815 -1.09785
v -2.355988 0.712977 -1.096918
v -2.355716 0.713368 -1.098702
v -2.353511 0.71535 -1.097979
v -2.353235 0.715932 -1.100371
v -2.353857 0.715012 -1.096152
v -2.353379 0.71683 -1.102676
v -2.353627 0.717604 -1.104382
v -2.361199 0.707681 -1.104799
v -2.361345 0.708144 -1.105868
v -2.362272 0.706526 -1.105567
v -2.362506 0.705722 -1.104947
v -2.362402 0.705318 -1.103971
v -2.361107 0.707132 -1.103363
v -2.36128 0.706761 -1.101879
v -2.362562 0.705091 -1.102946
v -2.362373 0.705392 -1.101967
v -2.361488 0.706531 -1.100747
v -2.348948 0.718396 -1.097257
v -2.348344 0.719 -1.099268
v -2.346583 0.72007 -1.098882
v -2.347386 0.719416 -1.097192
v -2.348567 0.718803 -1.096206
v -2.349828 0.71799 -1.095754
v -2.351657 0.716642 -1.095713
v -2.351104 0.716928 -1.097485
v -2.350713 0.717494 -1.099809
v -2.348835 0.719666 -1.10129
v -2.349631 0.720208 -1.102797
v -2.348408 0.720595 -1.101897
v -2.347288 0.720514 -1.100679
v -2.350976 0.718367 -1.102054
v -2.351434 0.719156 -1.103696
v -2.357392 0.712468 -1.104033
v -2.357579 0.713158 -1.105657
v -2.355639 0.715427 -1.105086
v -2.355424 0.714682 -1.103394
v -2.355326 0.713829 -1.101092
v -2.357313 0.711667 -1.101829
v -2.359146 0.709363 -1.102605
v -2.359226 0.710078 -1.104556
v -2.35941 0.710698 -1.105991
v -2.357517 0.711062 -1.09957
v -2.355554 0.713211 -1.098725
v -2.355867 0.712857 -1.096925
v -2.357797 0.710701 -1.097856
v -2.359603 0.708523 -1.099085
v -2.359336 0.708833 -1.100605
v -2.353361 0.715183 -1.098002
v -2.353084 0.715771 -1.100418
v -2.353746 0.714884 -1.096157
v -2.353228 0.716677 -1.102745
v -2.353514 0.717494 -1.104445
v -2.361019 0.707555 -1.104856
v -2.361211 0.708053 -1.105921
v -2.360928 0.706999 -1.1034
v -2.362267 0.705219 -1.103998
v -2.362372 0.705628 -1.104991
v -2.362173 0.706458 -1.105604
v -2.361102 0.706622 -1.101895
v -2.361355 0.706424 -1.100748
v -2.362275 0.705313 -1.10197
v -2.362429 0.704987 -1.102957
v -2.361334 0.708259 -1.106249
v -2.362616 0.706059 -1.105728
v -2.35953 0.710945 -1.106444
v -2.362173 0.706458 -1.105604
v -2.36293 0.704489 -1.103307
v -2.362717 0.704922 -1.10212
v -2.362774 0.704669 -1.104186
v -2.362275 0.705313 -1.10197
v -2.350164 0.717917 -1.095257
v -2.348566 0.718933 -1.095937
v -2.351887 0.716607 -1.095124
v -2.348567 0.718803 -1.096206
v -2.346815 0.720852 -1.100448
v -2.348395 0.720856 -1.102043
v -2.346039 0.720486 -1.098736
v -2.348408 0.720595 -1.101897
v -2.34994 0.720438 -1.103263
v -2.351633 0.719468 -1.104209
v -2.362882 0.705027 -1.105016
v -2.361498 0.706407 -1.100368
v -2.35975 0.708468 -1.098579
v -2.346907 0.719818 -1.097165
v -2.353923 0.714841 -1.095542
v -2.356025 0.712792 -1.096324
v -2.353659 0.717814 -1.104982
v -2.355765 0.715721 -1.105622
v -2.357697 0.713432 -1.106172
v -2.357946 0.710632 -1.097284
vn -0.5425 0.8397 0.0222
vn -0.5439 0.8046 0.2382
vn -0.593 0.7725 0.2267
vn -0.5944 0.8034 0.0334
vn -0.6155 0.7872 0.0376
vn -0.544 0.8385 0.0302
vn -0.491 0.8708 0.0255
vn -0.469 0.8797 0.0785
vn -0.4631 0.849 0.2544
vn -0.5542 0.7096 0.4351
vn -0.5552 0.7131 0.428
vn -0.6253 0.6766 0.3889
vn -0.6048 0.6872 0.4025
vn -0.4783 0.7735 0.4157
vn -0.503 0.7361 0.4529
vn -0.7745 0.571 0.2721
vn -0.7815 0.5778 0.2353
vn -0.8013 0.5546 0.2243
vn -0.7946 0.5432 0.2711
vn -0.8029 0.5746 0.1585
vn -0.7768 0.6065 0.1693
vn -0.7201 0.6673 0.19
vn -0.7234 0.6203 0.303
vn -0.7368 0.6183 0.2736
vn -0.7688 0.6362 0.0649
vn -0.7883 0.6133 0.0488
vn -0.7976 0.5959 0.0933
vn -0.7776 0.6209 0.0985
vn -0.7317 0.6753 0.0927
vn -0.717 0.6935 0.0705
vn -0.6516 0.7563 0.0587
vn -0.6515 0.7286 0.2112
vn -0.6732 0.7362 0.0692
vn -0.6598 0.6639 0.3519
vn -0.6805 0.6538 0.3307
vn -0.8011 0.5228 0.2913
vn -0.8118 0.5322 0.2404
vn -0.8196 0.5076 0.2657
vn -0.8313 0.4701 0.2965
vn -0.8462 0.5146 0.1384
vn -0.8147 0.5592 0.1533
vn -0.7935 0.6082 0.0203
vn -0.8224 0.5686 -0.0157
vn -0.8129 0.5815 0.0313
vn -0.8068 0.5869 0.0666
vn 0.5575 -0.8301 0.0097
vn 0.5576 -0.7961 -0.2351
vn 0.6094 -0.761 -0.2226
vn 0.5952 -0.7966 0.1058
vn 0.5872 -0.7773 0.2258
vn 0.5864 -0.7849 0.2002
vn 0.6049 -0.7853 0.1318
vn 0.5935 -0.8046 -0.0181
vn 0.593 -0.7726 -0.2268
vn 0.5705 -0.6837 -0.4549
vn 0.6083 -0.538 -0.5835
vn 0.6103 -0.5171 -0.6001
vn 0.6124 -0.6019 -0.5125
vn 0.6046 -0.6794 -0.4158
vn 0.6233 -0.5778 -0.5269
vn 0.7727 -0.5659 -0.2875
vn 0.7537 -0.5275 -0.3921
vn 0.7168 -0.5601 -0.4152
vn 0.7222 -0.6147 -0.317
vn 0.7202 -0.6672 -0.19
vn 0.7769 -0.6064 -0.1692
vn 0.803 -0.5745 -0.1585
vn 0.7911 -0.5388 -0.2895
vn 0.7509 -0.5148 -0.4135
vn 0.766 -0.6408 -0.0495
vn 0.7149 -0.697 -0.0559
vn 0.7036 -0.7084 0.0555
vn 0.7411 -0.669 0.0572
vn 0.737 -0.6709 0.0818
vn 0.7838 -0.6201 -0.0315
vn 0.6498 -0.7588 -0.0444
vn 0.6515 -0.7286 -0.2112
vn 0.6493 -0.7562 0.0806
vn 0.6587 -0.6578 -0.3651
vn 0.6646 -0.584 -0.466
vn 0.7866 -0.528 -0.32
vn 0.7172 -0.515 -0.4693
vn 0.8076 -0.5686 -0.1564
vn 0.7748 -0.6088 -0.17
vn 0.7313 -0.5501 -0.4032
vn 0.6915 -0.5185 -0.5029
vn 0.7777 -0.6287 -0.0005
vn 0.7005 -0.7024 0.1257
vn 0.6732 -0.7241 0.15
vn 0.7185 -0.6935 0.0522
vn -0.3591 0.1075 -0.9271
vn -0.5866 -0.2061 -0.7832
vn -0.2427 0.2096 -0.9472
vn 0.6915 -0.5185 -0.5029
vn -0.6117 -0.7908 -0.0182
vn -0.6223 -0.6077 0.4932
vn -0.4907 -0.8272 -0.2738
vn 0.6732 -0.7241 0.15
vn 0.0466 0.1612 0.9858
vn 0.3024 0.335 0.8923
vn -0.0954 0.0051 0.9954
vn 0.5872 -0.7773 0.2258
vn 0.6929 0.6609 -0.2883
vn 0.342 0.7809 -0.5227
vn 0.8743 0.4553 0.1679
vn 0.6103 -0.5171 -0.6001
vn 0.0936 0.6959 -0.7119
vn -0.0448 0.5758 -0.8164
vn -0.599 -0.6494 -0.4683
vn -0.4078 -0.4369 0.8018
vn -0.294 -0.3666 0.8827
vn 0.6667 0.3658 0.6493
vn -0.1699 -0.1212 0.978
vn -0.1985 -0.2015 0.9591
vn -0.1178 0.4636 -0.8782
vn -0.146 0.3873 -0.9103
vn -0.1725 0.3088 -0.9353
vn -0.2248 -0.2795 0.9334
vt 0.839504 0.118056
vt 0.856743 0.205307
vt 0.741230 0.205307
vt 0.734555 0.106726
vt 0.724541 0.032791
vt 0.813647 0.052618
vt 0.868992 0.081539
vt 0.913398 0.129584
vt 0.940923 0.205307
vt 0.839504 0.292557
vt 0.813647 0.357995
vt 0.724541 0.377822
vt 0.734555 0.303887
vt 0.913398 0.281029
vt 0.868992 0.329074
vt 0.369475 0.299954
vt 0.368286 0.370940
vt 0.245840 0.351447
vt 0.246397 0.288815
vt 0.246768 0.205307
vt 0.370268 0.205307
vt 0.494283 0.205307
vt 0.492822 0.304944
vt 0.490632 0.379672
vt 0.369475 0.110659
vt 0.246397 0.121798
vt 0.245841 0.059166
vt 0.368286 0.039673
vt 0.490632 0.030941
vt 0.492822 0.105669
vt 0.616755 0.103478
vt 0.619174 0.205307
vt 0.613127 0.027106
vt 0.616755 0.307135
vt 0.613126 0.383507
vt 0.123273 0.268175
vt 0.123047 0.315326
vt 0.054743 0.283353
vt 0.030912 0.249131
vt 0.030973 0.205306
vt 0.123423 0.205306
vt 0.123273 0.142438
vt 0.030912 0.161481
vt 0.054744 0.127260
vt 0.123047 0.095287
vt 0.839504 0.118056
vt 0.856743 0.205307
vt 0.968983 0.205307
vt 0.938030 0.133427
vt 0.876123 0.061548
vt 0.805028 0.030806
vt 0.721203 0.008146
vt 0.734555 0.106726
vt 0.741230 0.205307
vt 0.839504 0.292557
vt 0.805028 0.379807
vt 0.876123 0.349065
vt 0.938030 0.277186
vt 0.734555 0.303887
vt 0.721203 0.402467
vt 0.369475 0.299954
vt 0.367890 0.394602
vt 0.489902 0.404581
vt 0.492822 0.304944
vt 0.494283 0.205307
vt 0.370268 0.205307
vt 0.246768 0.205307
vt 0.246397 0.288815
vt 0.245655 0.372324
vt 0.369475 0.110659
vt 0.492822 0.105669
vt 0.489902 0.006032
vt 0.367890 0.016011
vt 0.245655 0.038289
vt 0.246397 0.121798
vt 0.616755 0.103478
vt 0.619174 0.205307
vt 0.611917 0.001649
vt 0.616755 0.307135
vt 0.611917 0.408964
vt 0.123273 0.268175
vt 0.122972 0.331043
vt 0.123423 0.205306
vt 0.000156 0.205306
vt 0.000125 0.242784
vt 0.000064 0.280261
vt 0.123273 0.142438
vt 0.122972 0.079570
vt 0.000064 0.130352
vt 0.000125 0.167829
vt 0.122972 0.331043
vt 0.030806 0.283587
vt 0.245655 0.372324
vt 0.030806 0.283587
vt 0.000125 0.167829
vt 0.030806 0.127026
vt 0.000156 0.205306
vt 0.030806 0.127026
vt 0.805028 0.030806
vt 0.873826 0.071832
vt 0.721203 0.008146
vt 0.873826 0.071832
vt 0.938030 0.277186
vt 0.873826 0.338781
vt 0.968983 0.205307
vt 0.873826 0.338781
vt 0.805028 0.379807
vt 0.721203 0.402467
vt 0.000125 0.242784
vt 0.122972 0.079570
vt 0.245655 0.038289
vt 0.938030 0.133427
vt 0.611917 0.001649
vt 0.489902 0.006032
vt 0.611917 0.408964
vt 0.489902 0.404581
vt 0.367890 0.394602
vt 0.367890 0.016011
f 1/1/1 2/2/2 3/3/3
f 1/1/1 3/3/3 4/4/4
f 1/1/1 4/4/4 5/5/5
f 1/1/1 5/5/5 6/6/6
f 1/1/1 6/6/6 7/7/7
f 1/1/1 7/7/7 8/8/8
f 1/1/1 8/8/8 9/9/9
f 1/1/1 9/9/9 2/2/2
f 10/10/10 11/11/11 12/12/12
f 10/10/10 12/12/12 13/13/13
f 10/10/10 13/13/13 3/3/3
f 10/10/10 3/3/3 2/2/2
f 10/10/10 2/2/2 9/9/9
f 10/10/10 9/9/9 14/14/14
f 10/10/10 14/14/14 15/15/15
f 10/10/10 15/15/15 11/11/11
f 16/16/16 17/17/17 18/18/18
f 16/16/16 18/18/18 19/19/19
f 16/16/16 19/19/19 20/20/20
f 16/16/16 20/20/20 21/21/21
f 16/16/16 21/21/21 22/22/22
f 16/16/16 22/22/22 23/23/23
f 16/16/16 23/23/23 24/24/24
f 16/16/16 24/24/24 17/17/17
f 25/25/25 21/21/21 20/20/20
f 25/25/25 20/20/20 26/26/26
f 25/25/25 26/26/26 27/27/27
f 25/25/25 27/27/27 28/28/28
f 25/25/25 28/28/28 29/29/29
f 25/25/25 29/29/29 30/30/30
f 25/25/25 30/30/30 22/22/22
f 25/25/25 22/22/22 21/21/21
f 31/31/31 32/32/32 22/22/22
f 31/31/31 22/22/22 30/30/30
f 31/31/31 30/30/30 29/29/29
f 31/31/31 29/29/29 33/33/33
f 31/31/31 33/33/33 5/5/5
f 31/31/31 5/5/5 4/4/4
f 31/31/31 4/4/4 3/3/3
f 31/31/31 3/3/3 32/32/32
f 34/34/34 35/35/35 24/24/24
f 34/34/34 24/24/24 23/23/23
f 34/34/34 23/23/23 22/22/22
f 34/34/34 22/22/22 32/32/32
f 34/34/34 32/32/32 3/3/3
f 34/34/34 3/3/3 13/13/13
f 34/34/34 13/13/13 12/12/12
f 34/34/34 12/12/12 35/35/35
f 36/36/36 37/37/37 38/38/38
f 36/36/36 38/38/38 39/39/39
f 36/36/36 39/39/39 40/40/40
f 36/36/36 40/40/40 41/41/41
f 36/36/36 41/41/41 20/20/20
f 36/36/36 20/20/20 19/19/19
f 36/36/36 19/19/19 18/18/18
f 36/36/36 18/18/18 37/37/37
f 42/42/42 41/41/41 40/40/40
f 42/42/42 40/40/40 43/43/43
f 42/42/42 43/43/43 44/44/44
f 42/42/42 44/44/44 45/45/45
f 42/42/42 45/45/45 27/27/27
f 42/42/42 27/27/27 26/26/26
f 42/42/42 26/26/26 20/20/20
f 42/42/42 20/20/20 41/41/41
f 46/46/46 47/47/47 48/48/48
f 46/46/46 48/48/48 49/49/49
f 46/46/46 49/49/49 50/50/50
f 46/46/46 50/50/50 51/51/51
f 46/46/46 51/51/51 52/52/52
f 46/46/46 52/52/52 53/53/53
f 46/46/46 53/53/53 54/54/54
f 46/46/46 54/54/54 47/47/47
f 55/55/55 56/56/56 57/57/57
f 55/55/55 57/57/57 58/58/58
f 55/55/55 58/58/58 48/48/48
f 55/55/55 48/48/48 47/47/47
f 55/55/55 47/47/47 54/54/54
f 55/55/55 54/54/54 59/59/59
f 55/55/55 59/59/59 60/60/60
f 55/55/55 60/60/60 56/56/56
f 61/61/61 62/62/62 63/63/63
f 61/61/61 63/63/63 64/64/64
f 61/61/61 64/64/64 65/65/65
f 61/61/61 65/65/65 66/66/66
f 61/61/61 66/66/66 67/67/67
f 61/61/61 67/67/67 68/68/68
f 61/61/61 68/68/68 69/69/69
f 61/61/61 69/69/69 62/62/62
f 70/70/70 66/66/66 65/65/65
f 70/70/70 65/65/65 71/71/71
f 70/70/70 71/71/71 72/72/72
f 70/70/70 72/72/72 73/73/73
f 70/70/70 73/73/73 74/74/74
f 70/70/70 74/74/74 75/75/75
f 70/70/70 75/75/75 67/67/67
f 70/70/70 67/67/67 66/66/66
f 76/76/76 77/77/77 54/54/54
f 76/76/76 54/54/54 53/53/53
f 76/76/76 53/53/53 52/52/52
f 76/76/76 52/52/52 78/78/78
f 76/76/76 78/78/78 72/72/72
f 76/76/76 72/72/72 71/71/71
f 76/76/76 71/71/71 65/65/65
f 76/76/76 65/65/65 77/77/77
f 79/79/79 80/80/80 60/60/60
f 79/79/79 60/60/60 59/59/59
f 79/79/79 59/59/59 54/54/54
f 79/79/79 54/54/54 77/77/77
f 79/79/79 77/77/77 65/65/65
f 79/79/79 65/65/65 64/64/64
f 79/79/79 64/64/64 63/63/63
f 79/79/79 63/63/63 80/80/80
f 81/81/81 82/82/82 69/69/69
f 81/81/81 69/69/69 68/68/68
f 81/81/81 68/68/68 67/67/67
f 81/81/81 67/67/67 83/83/83
f 81/81/81 83/83/83 84/84/84
f 81/81/81 84/84/84 85/85/85
f 81/81/81 85/85/85 86/86/86
f 81/81/81 86/86/86 82/82/82
f 87/87/87 83/83/83 67/67/67
f 87/87/87 67/67/67 75/75/75
f 87/87/87 75/75/75 74/74/74
f 87/87/87 74/74/74 88/88/88
f 87/87/87 88/88/88 89/89/89
f 87/87/87 89/89/89 90/90/90
f 87/87/87 90/90/90 84/84/84
f 87/87/87 84/84/84 83/83/83
f 91/91/91 92/92/92 38/38/38
f 91/91/91 38/38/38 37/37/37
f 91/91/91 37/37/37 18/18/18
f 91/91/91 18/18/18 93/93/93
f 91/91/91 93/93/93 69/69/69
f 91/91/91 69/69/69 82/82/82
f 91/91/91 82/82/82 94/94/94
f 91/91/91 94/94/94 92/92/92
f 95/95/95 96/96/96 44/44/44
f 95/95/95 44/44/44 43/43/43
f 95/95/95 43/43/43 40/40/40
f 95/95/95 40/40/40 97/97/97
f 95/95/95 97/97/97 84/84/84
f 95/95/95 84/84/84 90/90/90
f 95/95/95 90/90/90 98/98/98
f 95/95/95 98/98/98 96/96/96
f 99/99/99 100/100/100 7/7/7
f 99/99/99 7/7/7 6/6/6
f 99/99/99 6/6/6 5/5/5
f 99/99/99 5/5/5 101/101/101
f 99/99/99 101/101/101 52/52/52
f 99/99/99 52/52/52 51/51/51
f 99/99/99 51/51/51 102/102/102
f 99/99/99 102/102/102 100/100/100
f 103/103/103 104/104/104 15/15/15
f 103/103/103 15/15/15 14/14/14
f 103/103/103 14/14/14 9/9/9
f 103/103/103 9/9/9 105/105/105
f 103/103/103 105/105/105 48/48/48
f 103/103/103 48/48/48 58/58/58
f 103/103/103 58/58/58 106/106/106
f 103/103/103 106/106/106 104/104/104
f 107/107/107 108/108/108 12/12/12
f 107/107/107 12/12/12 11/11/11
f 107/107/107 11/11/11 15/15/15
f 107/107/107 15/15/15 104/104/104
f 107/107/107 104/104/104 106/106/106
f 107/107/107 106/106/106 56/56/56
f 107/107/107 56/56/56 60/60/60
f 107/107/107 60/60/60 108/108/108
f 109/109/109 97/97/97 40/40/40
f 109/109/109 40/40/40 39/39/39
f 109/109/109 39/39/39 38/38/38
f 109/109/109 38/38/38 92/92/92
f 109/109/109 92/92/92 94/94/94
f 109/109/109 94/94/94 85/85/85
f 109/109/109 85/85/85 84/84/84
f 109/109/109 84/84/84 97/97/97
f 110/110/110 111/111/111 27/27/27
f 110/110/110 27/27/27 45/45/45
f 110/110/110 45/45/45 44/44/44
f 110/110/110 44/44/44 96/96/96
f 110/110/110 96/96/96 98/98/98
f 110/110/110 98/98/98 88/88/88
f 110/110/110 88/88/88 74/74/74
f 110/110/110 74/74/74 111/111/111
f 112/112/112 105/105/105 9/9/9
f 112/112/112 9/9/9 8/8/8
f 112/112/112 8/8/8 7/7/7
f 112/112/112 7/7/7 100/100/100
f 112/112/112 100/100/100 102/102/102
f 112/112/112 102/102/102 49/49/49
f 112/112/112 49/49/49 48/48/48
f 112/112/112 48/48/48 105/105/105
f 113/113/113 101/101/101 5/5/5
f 113/113/113 5/5/5 33/33/33
f 113/113/113 33/33/33 29/29/29
f 113/113/113 29/29/29 114/114/114
f 113/113/113 114/114/114 72/72/72
f 113/113/113 72/72/72 78/78/78
f 113/113/113 78/78/78 52/52/52
f 113/113/113 52/52/52 101/101/101
f 115/115/115 116/116/116 24/24/24
f 115/115/115 24/24/24 35/35/35
f 115/115/115 35/35/35 12/12/12
f 115/115/115 12/12/12 108/108/108
f 115/115/115 108/108/108 60/60/60
f 115/115/115 60/60/60 80/80/80
f 115/115/115 80/80/80 63/63/63
f 115/115/115 63/63/63 116/116/116
f 117/117/117 93/93/93 18/18/18
f 117/117/117 18/18/18 17/17/17
f 117/117/117 17/17/17 24/24/24
f 117/117/117 24/24/24 116/116/116
f 117/117/117 116/116/116 63/63/63
f 117/117/117 63/63/63 62/62/62
f 117/117/117 62/62/62 69/69/69
f 117/117/117 69/69/69 93/93/93
f 118/118/118 114/114/114 29/29/29
f 118/118/118 29/29/29 28/28/28
f 118/118/118 28/28/28 27/27/27
f 118/118/118 27/27/27 111/111/111
f 118/118/118 111/111/111 74/74/74
f 118/118/118 74/74/74 73/73/73
f 118/118/118 73/73/73 72/72/72
f 118/118/118 72/72/72 114/114/114
