v -2.387192 0.791151 -1.232819
v -2.387693 0.790788 -1.234818
v -2.389622 0.789299 -1.23347
v -2.388808 0.789827 -1.231356
v -2.388393 0.790321 -1.229673
v -2.387148 0.79143 -1.231129
v -2.386426 0.791876 -1.232395
v -2.386024 0.791984 -1.233938
v -2.386227 0.791799 -1.235819
v -2.389128 0.790496 -1.236313
v -2.390542 0.790282 -1.237255
v -2.39225 0.789018 -1.236632
v -2.391008 0.789084 -1.235326
v -2.387699 0.791418 -1.236962
v -2.389175 0.790947 -1.237356
v -2.396109 0.783233 -1.231351
v -2.397089 0.783091 -1.232744
v -2.398279 0.780851 -1.231137
v -2.397401 0.780971 -1.229908
v -2.396328 0.781199 -1.228238
v -2.394905 0.783497 -1.229456
v -2.39334 0.785654 -1.230727
v -2.394613 0.785393 -1.232704
v -2.39566 0.785266 -1.234154
v -2.393953 0.783961 -1.22746
v -2.395495 0.781615 -1.226468
v -2.394939 0.78198 -1.225108
v -2.393312 0.784367 -1.225928
v -2.391709 0.786602 -1.227024
v -2.392358 0.786155 -1.228635
v -2.390587 0.788136 -1.229947
v -2.391542 0.787588 -1.232086
v -2.389992 0.788649 -1.228288
v -2.392875 0.787363 -1.234076
v -2.394001 0.787294 -1.235524
v -2.39853 0.778693 -1.228271
v -2.399224 0.778632 -1.229173
v -2.39954 0.777383 -1.227867
v -2.399297 0.776962 -1.226979
v -2.398692 0.777036 -1.226148
v -2.397701 0.778843 -1.227036
v -2.397108 0.779174 -1.225703
v -2.398322 0.777292 -1.22522
v -2.397786 0.777975 -1.224702
v -2.396729 0.779475 -1.224671
v -2.387055 0.790981 -1.232828
v -2.387569 0.790611 -1.234853
v -2.386137 0.791664 -1.235844
v -2.385923 0.791855 -1.233942
v -2.386348 0.791783 -1.232392
v -2.387039 0.791307 -1.231123
v -2.388281 0.7902 -1.229673
v -2.388667 0.789661 -1.231372
v -2.389493 0.789127 -1.23351
v -2.38902 0.790316 -1.236374
v -2.39047 0.790147 -1.237314
v -2.38912 0.790846 -1.237396
v -2.387621 0.791281 -1.237007
v -2.390893 0.788909 -1.235389
v -2.39217 0.788886 -1.23669
v -2.395964 0.783086 -1.231426
v -2.396985 0.782979 -1.232809
v -2.395563 0.785148 -1.234216
v -2.394476 0.785236 -1.232775
v -2.393193 0.785501 -1.23078
v -2.39475 0.783352 -1.229515
v -2.396169 0.781061 -1.2283
v -2.397252 0.78083 -1.229988
v -2.398173 0.780744 -1.231204
v -2.39379 0.78382 -1.227502
v -2.392201 0.786005 -1.22867
v -2.391587 0.786492 -1.227041
v -2.393185 0.784264 -1.225951
v -2.394809 0.781882 -1.225133
v -2.395327 0.78148 -1.226514
v -2.390438 0.787977 -1.229973
v -2.391404 0.787424 -1.232132
v -2.389875 0.788533 -1.228297
v -2.392748 0.787196 -1.234142
v -2.393913 0.787169 -1.235584
v -2.39838 0.778555 -1.228352
v -2.399117 0.778527 -1.229243
v -2.39754 0.778707 -1.227099
v -2.398571 0.776935 -1.226196
v -2.399185 0.776859 -1.227041
v -2.39946 0.777305 -1.227917
v -2.396938 0.779042 -1.225749
v -2.396597 0.779378 -1.224696
v -2.39769 0.777904 -1.224722
v -2.398194 0.777194 -1.225254
v -2.399409 0.778564 -1.229507
v -2.399805 0.776916 -1.227637
v -2.398526 0.780764 -1.231578
v -2.39946 0.777305 -1.227917
v -2.39867 0.776621 -1.225074
v -2.398048 0.77751 -1.224465
v -2.398968 0.776389 -1.225874
v -2.39769 0.777904 -1.224722
v -2.387083 0.791469 -1.23056
v -2.386253 0.792014 -1.232243
v -2.388204 0.790433 -1.229109
v -2.386348 0.791783 -1.232392
v -2.387189 0.791664 -1.237198
v -2.389227 0.791009 -1.237611
v -2.385699 0.792076 -1.236164
v -2.38912 0.790846 -1.237396
v -2.390983 0.790151 -1.237599
v -2.392629 0.788937 -1.237096
v -2.399503 0.776339 -1.226577
v -2.396543 0.779533 -1.224336
v -2.394695 0.782059 -1.224664
v -2.38559 0.792204 -1.234312
v -2.389741 0.788769 -1.227737
v -2.391438 0.786702 -1.226493
v -2.394339 0.787215 -1.236035
v -2.395967 0.785172 -1.234667
v -2.397371 0.782994 -1.233239
v -2.393041 0.784457 -1.225425
vn -0.6326 0.7732 -0.0451
vn -0.527 0.8391 0.1349
vn -0.5681 0.8065 0.1638
vn -0.6647 0.7471 0.0042
vn -0.6776 0.735 0.0243
vn -0.63 0.7757 -0.0379
vn -0.5929 0.8011 -0.0811
vn -0.5514 0.8324 -0.0551
vn -0.4591 0.8839 0.0888
vn -0.4255 0.8431 0.3287
vn -0.4305 0.8431 0.3222
vn -0.5014 0.7946 0.3423
vn -0.4795 0.8097 0.3383
vn -0.3824 0.8895 0.2502
vn -0.3787 0.8735 0.3059
vn -0.6619 0.6515 0.3706
vn -0.6863 0.6413 0.3432
vn -0.7035 0.6161 0.3541
vn -0.6739 0.6268 0.3911
vn -0.7395 0.6043 0.2965
vn -0.7186 0.637 0.2789
vn -0.6728 0.6991 0.2419
vn -0.6139 0.7082 0.3488
vn -0.6385 0.6935 0.3337
vn -0.7659 0.6164 0.1831
vn -0.7855 0.5891 0.1898
vn -0.7693 0.5939 0.2354
vn -0.7549 0.6181 0.2194
vn -0.7292 0.6628 0.17
vn -0.7305 0.6687 0.1382
vn -0.6926 0.7178 0.0712
vn -0.6165 0.7617 0.199
vn -0.7022 0.7052 0.0982
vn -0.5455 0.7675 0.3366
vn -0.5711 0.7495 0.3348
vn -0.666 0.6178 0.418
vn -0.7005 0.6035 0.3808
vn -0.6905 0.5931 0.414
vn -0.6787 0.5739 0.4582
vn -0.7736 0.5428 0.327
vn -0.7488 0.5885 0.3047
vn -0.8019 0.5719 0.1726
vn -0.8353 0.521 0.1755
vn -0.8081 0.5535 0.2016
vn -0.7877 0.5741 0.2233
vn 0.6582 -0.7505 0.0581
vn 0.5385 -0.8304 -0.1429
vn 0.5817 -0.7947 -0.1735
vn 0.728 -0.6784 0.0992
vn 0.7722 -0.607 0.1875
vn 0.7613 -0.6252 0.1714
vn 0.7461 -0.6567 0.1099
vn 0.6712 -0.7412 0.0085
vn 0.568 -0.8065 -0.1637
vn 0.4251 -0.8293 -0.3625
vn 0.3683 -0.7581 -0.5381
vn 0.358 -0.7469 -0.5603
vn 0.4178 -0.7831 -0.4605
vn 0.4717 -0.8086 -0.3515
vn 0.4156 -0.7685 -0.4864
vn 0.6522 -0.6538 -0.3835
vn 0.5796 -0.6662 -0.4693
vn 0.544 -0.7048 -0.4553
vn 0.6052 -0.7095 -0.3611
vn 0.6729 -0.699 -0.2419
vn 0.7187 -0.6369 -0.279
vn 0.7395 -0.6042 -0.2966
vn 0.6615 -0.6311 -0.4051
vn 0.5646 -0.6645 -0.4894
vn 0.7716 -0.6135 -0.168
vn 0.7362 -0.6652 -0.1247
vn 0.78 -0.625 -0.0292
vn 0.805 -0.59 -0.0626
vn 0.8133 -0.5804 -0.041
vn 0.7909 -0.5873 -0.1715
vn 0.6981 -0.7136 -0.0583
vn 0.6165 -0.7617 -0.199
vn 0.7547 -0.655 0.0365
vn 0.5372 -0.768 -0.3487
vn 0.4806 -0.7476 -0.4583
vn 0.6414 -0.635 -0.4305
vn 0.51 -0.6889 -0.5151
vn 0.7432 -0.5982 -0.2998
vn 0.7171 -0.6393 -0.2776
vn 0.56 -0.6906 -0.4576
vn 0.4732 -0.7063 -0.5266
vn 0.8016 -0.5809 -0.1414
vn 0.8085 -0.5879 0.0237
vn 0.8006 -0.5957 0.0646
vn 0.7883 -0.6136 -0.0452
vn -0.7592 -0.3119 -0.5712
vn -0.8238 -0.5217 -0.2215
vn -0.6893 -0.233 -0.686
vn 0.4732 -0.7063 -0.5266
vn -0.3719 -0.6991 0.6107
vn -0.1839 -0.3053 0.9343
vn -0.3776 -0.8494 0.3687
vn 0.8006 -0.5957 0.0646
vn 0.4603 0.5866 0.6663
vn 0.6022 0.693 0.3963
vn 0.3747 0.4549 0.8078
vn 0.7722 -0.607 0.1875
vn 0.3282 0.4431 -0.8342
vn -0.1079 0.4532 -0.8848
vn 0.7371 0.4602 -0.4948
vn 0.358 -0.7469 -0.5603
vn -0.3914 0.2983 -0.8705
vn -0.5338 0.1477 -0.8325
vn -0.5981 -0.7754 0.2026
vn 0.1082 -0.0188 0.9939
vn 0.2289 0.0774 0.9704
vn 0.7984 0.602 0.0146
vn 0.3285 0.3358 0.8828
vn 0.3121 0.2565 0.9147
vn -0.6023 0.0215 -0.798
vn -0.6254 -0.0601 -0.7779
vn -0.6435 -0.1408 -0.7523
vn 0.2938 0.1762 0.9395
vt 0.839504 0.118056
vt 0.856743 0.205307
vt 0.741230 0.205307
vt 0.734555 0.106726
vt 0.724541 0.032791
vt 0.813647 0.052618
vt 0.868992 0.081539
vt 0.913398 0.129584
vt 0.940923 0.205307
vt 0.839504 0.292557
vt 0.813647 0.357995
vt 0.724541 0.377822
vt 0.734555 0.303887
vt 0.913398 0.281029
vt 0.868992 0.329074
vt 0.369475 0.299954
vt 0.368286 0.370940
vt 0.245840 0.351447
vt 0.246397 0.288815
vt 0.246768 0.205307
vt 0.370268 0.205307
vt 0.494283 0.205307
vt 0.492822 0.304944
vt 0.490632 0.379672
vt 0.369475 0.110659
vt 0.246397 0.121798
vt 0.245841 0.059166
vt 0.368286 0.039673
vt 0.490632 0.030941
vt 0.492822 0.105669
vt 0.616755 0.103478
vt 0.619174 0.205307
vt 0.613127 0.027106
vt 0.616755 0.307135
vt 0.613126 0.383507
vt 0.123273 0.268175
vt 0.123047 0.315326
vt 0.054743 0.283353
vt 0.030912 0.249131
vt 0.030973 0.205306
vt 0.123423 0.205306
vt 0.123273 0.142438
vt 0.030912 0.161481
vt 0.054744 0.127260
vt 0.123047 0.095287
vt 0.839504 0.118056
vt 0.856743 0.205307
vt 0.968983 0.205307
vt 0.938030 0.133427
vt 0.876123 0.061548
vt 0.805028 0.030806
vt 0.721203 0.008146
vt 0.734555 0.106726
vt 0.741230 0.205307
vt 0.839504 0.292557
vt 0.805028 0.379807
vt 0.876123 0.349065
vt 0.938030 0.277186
vt 0.734555 0.303887
vt 0.721203 0.402467
vt 0.369475 0.299954
vt 0.367890 0.394602
vt 0.489902 0.404581
vt 0.492822 0.304944
vt 0.494283 0.205307
vt 0.370268 0.205307
vt 0.246768 0.205307
vt 0.246397 0.288815
vt 0.245655 0.372324
vt 0.369475 0.110659
vt 0.492822 0.105669
vt 0.489902 0.006032
vt 0.367890 0.016011
vt 0.245655 0.038289
vt 0.246397 0.121798
vt 0.616755 0.103478
vt 0.619174 0.205307
vt 0.611917 0.001649
vt 0.616755 0.307135
vt 0.611917 0.408964
vt 0.123273 0.268175
vt 0.122972 0.331043
vt 0.123423 0.205306
vt 0.000156 0.205306
vt 0.000125 0.242784
vt 0.000064 0.280261
vt 0.123273 0.142438
vt 0.122972 0.079570
vt 0.000064 0.130352
vt 0.000125 0.167829
vt 0.122972 0.331043
vt 0.030806 0.283587
vt 0.245655 0.372324
vt 0.030806 0.283587
vt 0.000125 0.167829
vt 0.030806 0.127026
vt 0.000156 0.205306
vt 0.030806 0.127026
vt 0.805028 0.030806
vt 0.873826 0.071832
vt 0.721203 0.008146
vt 0.873826 0.071832
vt 0.938030 0.277186
vt 0.873826 0.338781
vt 0.968983 0.205307
vt 0.873826 0.338781
vt 0.805028 0.379807
vt 0.721203 0.402467
vt 0.000125 0.242784
vt 0.122972 0.079570
vt 0.245655 0.038289
vt 0.938030 0.133427
vt 0.611917 0.001649
vt 0.489902 0.006032
vt 0.611917 0.408964
vt 0.489902 0.404581
vt 0.367890 0.394602
vt 0.367890 0.016011
f 1/1/1 2/2/2 3/3/3
f 1/1/1 3/3/3 4/4/4
f 1/1/1 4/4/4 5/5/5
f 1/1/1 5/5/5 6/6/6
f 1/1/1 6/6/6 7/7/7
f 1/1/1 7/7/7 8/8/8
f 1/1/1 8/8/8 9/9/9
f 1/1/1 9/9/9 2/2/2
f 10/10/10 11/11/11 12/12/12
f 10/10/10 12/12/12 13/13/13
f 10/10/10 13/13/13 3/3/3
f 10/10/10 3/3/3 2/2/2
f 10/10/10 2/2/2 9/9/9
f 10/10/10 9/9/9 14/14/14
f 10/10/10 14/14/14 15/15/15
f 10/10/10 15/15/15 11/11/11
f 16/16/16 17/17/17 18/18/18
f 16/16/16 18/18/18 19/19/19
f 16/16/16 19/19/19 20/20/20
f 16/16/16 20/20/20 21/21/21
f 16/16/16 21/21/21 22/22/22
f 16/16/16 22/22/22 23/23/23
f 16/16/16 23/23/23 24/24/24
f 16/16/16 24/24/24 17/17/17
f 25/25/25 21/21/21 20/20/20
f 25/25/25 20/20/20 26/26/26
f 25/25/25 26/26/26 27/27/27
f 25/25/25 27/27/27 28/28/28
f 25/25/25 28/28/28 29/29/29
f 25/25/25 29/29/29 30/30/30
f 25/25/25 30/30/30 22/22/22
f 25/25/25 22/22/22 21/21/21
f 31/31/31 32/32/32 22/22/22
f 31/31/31 22/22/22 30/30/30
f 31/31/31 30/30/30 29/29/29
f 31/31/31 29/29/29 33/33/33
f 31/31/31 33/33/33 5/5/5
f 31/31/31 5/5/5 4/4/4
f 31/31/31 4/4/4 3/3/3
f 31/31/31 3/3/3 32/32/32
f 34/34/34 35/35/35 24/24/24
f 34/34/34 24/24/24 23/23/23
f 34/34/34 23/23/23 22/22/22
f 34/34/34 22/22/22 32/32/32
f 34/34/34 32/32/32 3/3/3
f 34/34/34 3/3/3 13/13/13
f 34/34/34 13/13/13 12/12/12
f 34/34/34 12/12/12 35/35/35
f 36/36/36 37/37/37 38/38/38
f 36/36/36 38/38/38 39/39/39
f 36/36/36 39/39/39 40/40/40
f 36/36/36 40/40/40 41/41/41
f 36/36/36 41/41/41 20/20/20
f 36/36/36 20/20/20 19/19/19
f 36/36/36 19/19/19 18/18/18
f 36/36/36 18/18/18 37/37/37
f 42/42/42 41/41/41 40/40/40
f 42/42/42 40/40/40 43/43/43
f 42/42/42 43/43/43 44/44/44
f 42/42/42 44/44/44 45/45/45
f 42/42/42 45/45/45 27/27/27
f 42/42/42 27/27/27 26/26/26
f 42/42/42 26/26/26 20/20/20
f 42/42/42 20/20/20 41/41/41
f 46/46/46 47/47/47 48/48/48
f 46/46/46 48/48/48 49/49/49
f 46/46/46 49/49/49 50/50/50
f 46/46/46 50/50/50 51/51/51
f 46/46/46 51/51/51 52/52/52
f 46/46/46 52/52/52 53/53/53
f 46/46/46 53/53/53 54/54/54
f 46/46/46 54/54/54 47/47/47
f 55/55/55 56/56/56 57/57/57
f 55/55/55 57/57/57 58/58/58
f 55/55/55 58/58/58 48/48/48
f 55/55/55 48/48/48 47/47/47
f 55/55/55 47/47/47 54/54/54
f 55/55/55 54/54/54 59/59/59
f 55/55/55 59/59/59 60/60/60
f 55/55/55 60/60/60 56/56/56
f 61/61/61 62/62/62 63/63/63
f 61/61/61 63/63/63 64/64/64
f 61/61/61 64/64/64 65/65/65
f 61/61/61 65/65/65 66/66/66
f 61/61/61 66/66/66 67/67/67
f 61/61/61 67/67/67 68/68/68
f 61/61/61 68/68/68 69/69/69
f 61/61/61 69/69/69 62/62/62
f 70/70/70 66/66/66 65/65/65
f 70/70/70 65/65/65 71/71/71
f 70/70/70 71/71/71 72/72/72
f 70/70/70 72/72/72 73/73/73
f 70/70/70 73/73/73 74/74/74
f 70/70/70 74/74/74 75/75/75
f 70/70/70 75/75/75 67/67/67
f 70/70/70 67/67/67 66/66/66
f 76/76/76 77/77/77 54/54/54
f 76/76/76 54/54/54 53/53/53
f 76/76/76 53/53/53 52/52/52
f 76/76/76 52/52/52 78/78/78
f 76/76/76 78/78/78 72/72/72
f 76/76/76 72/72/72 71/71/71
f 76/76/76 71/71/71 65/65/65
f 76/76/76 65/65/65 77/77/77
f 79/79/79 80/80/80 60/60/60
f 79/79/79 60/60/60 59/59/59
f 79/79/79 59/59/59 54/54/54
f 79/79/79 54/54/54 77/77/77
f 79/79/79 77/77/77 65/65/65
f 79/79/79 65/65/65 64/64/64
f 79/79/79 64/64/64 63/63/63
f 79/79/79 63/63/63 80/80/80
f 81/81/81 82/82/82 69/69/69
f 81/81/81 69/69/69 68/68/68
f 81/81/81 68/68/68 67/67/67
f 81/81/81 67/67/67 83/83/83
f 81/81/81 83/83/83 84/84/84
f 81/81/81 84/84/84 85/85/85
f 81/81/81 85/85/85 86/86/86
f 81/81/81 86/86/86 82/82/82
f 87/87/87 83/83/83 67/67/67
f 87/87/87 67/67/67 75/75/75
f 87/87/87 75/75/75 74/74/74
f 87/87/87 74/74/74 88/88/88
f 87/87/87 88/88/88 89/89/89
f 87/87/87 89/89/89 90/90/90
f 87/87/87 90/90/90 84/84/84
f 87/87/87 84/84/84 83/83/83
f 91/91/91 92/92/92 38/38/38
f 91/91/91 38/38/38 37/37/37
f 91/91/91 37/37/37 18/18/18
f 91/91/91 18/18/18 93/93/93
f 91/91/91 93/93/93 69/69/69
f 91/91/91 69/69/69 82/82/82
f 91/91/91 82/82/82 94/94/94
f 91/91/91 94/94/94 92/92/92
f 95/95/95 96/96/96 44/44/44
f 95/95/95 44/44/44 43/43/43
f 95/95/95 43/43/43 40/40/40
f 95/95/95 40/40/40 97/97/97
f 95/95/95 97/97/97 84/84/84
f 95/95/95 84/84/84 90/90/90
f 95/95/95 90/90/90 98/98/98
f 95/95/95 98/98/98 96/96/96
f 99/99/99 100/100/100 7/7/7
f 99/99/99 7/7/7 6/6/6
f 99/99/99 6/6/6 5/5/5
f 99/99/99 5/5/5 101/101/101
f 99/99/99 101/101/101 52/52/52
f 99/99/99 52/52/52 51/51/51
f 99/99/99 51/51/51 102/102/102
f 99/99/99 102/102/102 100/100/100
f 103/103/103 104/104/104 15/15/15
f 103/103/103 15/15/15 14/14/14
f 103/103/103 14/14/14 9/9/9
f 103/103/103 9/9/9 105/105/105
f 103/103/103 105/105/105 48/48/48
f 103/103/103 48/48/48 58/58/58
f 103/103/103 58/58/58 106/106/106
f 103/103/103 106/106/106 104/104/104
f 107/107/107 108/108/108 12/12/12
f 107/107/107 12/12/12 11/11/11
f 107/107/107 11/11/11 15/15/15
f 107/107/107 15/15/15 104/104/104
f 107/107/107 104/104/104 106/106/106
f 107/107/107 106/106/106 56/56/56
f 107/107/107 56/56/56 60/60/60
f 107/107/107 60/60/60 108/108/108
f 109/109/109 97/97/97 40/40/40
f 109/109/109 40/40/40 39/39/39
f 109/109/109 39/39/39 38/38/38
f 109/109/109 38/38/38 92/92/92
f 109/109/109 92/92/92 94/94/94
f 109/109/109 94/94/94 85/85/85
f 109/109/109 85/85/85 84/84/84
f 109/109/109 84/84/84 97/97/97
f 110/110/110 111/111/111 27/27/27
f 110/110/110 27/27/27 45/45/45
f 110/110/110 45/45/45 44/44/44
f 110/110/110 44/44/44 96/96/96
f 110/110/110 96/96/96 98/98/98
f 110/110/110 98/98/98 88/88/88
f 110/110/110 88/88/88 74/74/74
f 110/110/110 74/74/74 111/111/111
f 112/112/112 105/105/105 9/9/9
f 112/112/112 9/9/9 8/8/8
f 112/112/112 8/8/8 7/7/7
f 112/112/112 7/7/7 100/100/100
f 112/112/112 100/100/100 102/102/102
f 112/112/112 102/102/102 49/49/49
f 112/112/112 49/49/49 48/48/48
f 112/112/112 48/48/48 105/105/105
f 113/113/113 101/101/101 5/5/5
f 113/113/113 5/5/5 33/33/33
f 113/113/113 33/33/33 29/29/29
f 113/113/113 29/29/29 114/114/114
f 113/113/113 114/114/114 72/72/72
f 113/113/113 72/72/72 78/78/78
f 113/113/113 78/78/78 52/52/52
f 113/113/113 52/52/52 101/101/101
f 115/115/115 116/116/116 24/24/24
f 115/115/115 24/24/24 35/35/35
f 115/115/115 35/35/35 12/12/12
f 115/115/115 12/12/12 108/108/108
f 115/115/115 108/108/108 60/60/60
f 115/115/115 60/60/60 80/80/80
f 115/115/115 80/80/80 63/63/63
f 115/115/115 63/63/63 116/116/116
f 117/117/117 93/93/93 18/18/18
f 117/117/117 18/18/18 17/17/17
f 117/117/117 17/17/17 24/24/24
f 117/117/117 24/24/24 116/116/116
f 117/117/117 116/116/116 63/63/63
f 117/117/117 63/63/63 62/62/62
f 117/117/117 62/62/62 69/69/69
f 117/117/117 69/69/69 93/93/93
f 118/118/118 114/114/114 29/29/29
f 118/118/118 29/29/29 28/28/28
f 118/118/118 28/28/28 27/27/27
f 118/118/118 27/27/27 111/111/111
f 118/118/118 111/111/111 74/74/74
f 118/118/118 74/74/74 73/73/73
f 118/118/118 73/73/73 72/72/72
f 118/118/118 72/72/72 114/114/114
