v -2.417282 0.743375 -1.153077
v -2.417657 0.743267 -1.155223
v -2.419704 0.741494 -1.154174
v -2.419016 0.741765 -1.151865
v -2.418714 0.742051 -1.150032
v -2.417358 0.743429 -1.151293
v -2.416538 0.744084 -1.152485
v -2.41602 0.74442 -1.154033
v -2.416099 0.744486 -1.156013
v -2.419039 0.74314 -1.156905
v -2.42044 0.743016 -1.158007
v -2.422215 0.741582 -1.157658
v -2.421014 0.741498 -1.156215
v -2.417541 0.744216 -1.157347
v -2.419034 0.743749 -1.157922
v -2.426389 0.734778 -1.153282
v -2.42731 0.734802 -1.154808
v -2.428581 0.732236 -1.153542
v -2.427754 0.732209 -1.152198
v -2.426757 0.732238 -1.150367
v -2.425272 0.734816 -1.151208
v -2.423632 0.737258 -1.152111
v -2.424814 0.737233 -1.154275
v -2.425802 0.73728 -1.155861
v -2.424432 0.73504 -1.149019
v -2.426023 0.732441 -1.148427
v -2.425548 0.732642 -1.146935
v -2.423881 0.735261 -1.147338
v -2.422215 0.73776 -1.148047
v -2.422767 0.737507 -1.149815
v -2.420904 0.739779 -1.15077
v -2.421736 0.739488 -1.153118
v -2.420413 0.740092 -1.148947
v -2.422981 0.739501 -1.155295
v -2.424053 0.739605 -1.156877
v -2.428962 0.729601 -1.150902
v -2.429621 0.729647 -1.15189
v -2.429996 0.728167 -1.150737
v -2.429788 0.727615 -1.149863
v -2.429217 0.72759 -1.148953
v -2.428187 0.729603 -1.149549
v -2.42767 0.729774 -1.148088
v -2.428903 0.727734 -1.147935
v -2.428403 0.72838 -1.147268
v -2.427356 0.72995 -1.146956
v -2.417133 0.743204 -1.1531
v -2.41752 0.743092 -1.155275
v -2.415999 0.744353 -1.156051
v -2.41591 0.74429 -1.154047
v -2.416453 0.743989 -1.15249
v -2.417241 0.743303 -1.151296
v -2.418593 0.741929 -1.150041
v -2.418863 0.741599 -1.151894
v -2.419561 0.741325 -1.15423
v -2.418916 0.742965 -1.156986
v -2.420356 0.742886 -1.158081
v -2.41897 0.743652 -1.157973
v -2.417452 0.744083 -1.157407
v -2.420883 0.741329 -1.156296
v -2.422124 0.741456 -1.157731
v -2.426228 0.734639 -1.153369
v -2.427194 0.734698 -1.154882
v -2.425693 0.737169 -1.155934
v -2.424662 0.737085 -1.154359
v -2.42347 0.737111 -1.152176
v -2.425103 0.734678 -1.151277
v -2.426583 0.732108 -1.15044
v -2.427589 0.732078 -1.152288
v -2.428462 0.732138 -1.153619
v -2.424254 0.734904 -1.149069
v -2.422597 0.737362 -1.149861
v -2.422084 0.737652 -1.148071
v -2.423744 0.73516 -1.147366
v -2.425408 0.732547 -1.146966
v -2.425841 0.732312 -1.148481
v -2.420742 0.739623 -1.150808
v -2.421583 0.739329 -1.153178
v -2.420287 0.739977 -1.148964
v -2.422839 0.739342 -1.155378
v -2.423953 0.739486 -1.15695
v -2.428796 0.729473 -1.150995
v -2.429501 0.729551 -1.151969
v -2.428011 0.729476 -1.149622
v -2.429085 0.727495 -1.149008
v -2.429664 0.727519 -1.149933
v -2.429906 0.728096 -1.150793
v -2.427486 0.729649 -1.148141
v -2.427214 0.729857 -1.146986
v -2.428299 0.728311 -1.147293
v -2.428764 0.72764 -1.147974
v -2.429788 0.729619 -1.152256
v -2.430271 0.727647 -1.150583
v -2.428805 0.732201 -1.154027
v -2.429906 0.728096 -1.150793
v -2.429252 0.727012 -1.147901
v -2.428676 0.72786 -1.147107
v -2.429501 0.726877 -1.148779
v -2.428299 0.728311 -1.147293
v -2.41733 0.743392 -1.150696
v -2.416373 0.744209 -1.152298
v -2.418558 0.742092 -1.149422
v -2.416453 0.743989 -1.15249
v -2.417002 0.744515 -1.157521
v -2.419073 0.743847 -1.158181
v -2.415536 0.744832 -1.156293
v -2.41897 0.743652 -1.157973
v -2.420871 0.742917 -1.15841
v -2.422576 0.741554 -1.158175
v -2.430008 0.72691 -1.149548
v -2.427187 0.729968 -1.14659
v -2.425327 0.732667 -1.146449
v -2.41555 0.74471 -1.154358
v -2.420192 0.740146 -1.148345
v -2.421972 0.737796 -1.147466
v -2.424367 0.739586 -1.157439
v -2.426084 0.737246 -1.156424
v -2.427567 0.734764 -1.155351
v -2.423636 0.73529 -1.146788
vn -0.6527 0.7574 0.0144
vn -0.5611 0.8011 0.2083
vn -0.6028 0.764 0.2298
vn -0.6871 0.7243 0.0576
vn -0.7009 0.7093 0.075
vn -0.6507 0.759 0.0221
vn -0.6119 0.7908 -0.0147
vn -0.5731 0.8192 0.0178
vn -0.4918 0.8533 0.1733
vn -0.4724 0.7815 0.4074
vn -0.4769 0.7823 0.4006
vn -0.5474 0.7299 0.4093
vn -0.5258 0.7459 0.4088
vn -0.4257 0.839 0.3387
vn -0.4252 0.8158 0.3919
vn -0.7048 0.5806 0.4076
vn -0.7269 0.5736 0.3775
vn -0.7441 0.5469 0.3837
vn -0.7172 0.5531 0.4237
vn -0.7758 0.542 0.3228
vn -0.755 0.5773 0.311
vn -0.7089 0.6448 0.2857
vn -0.6572 0.6408 0.3967
vn -0.6804 0.6276 0.3782
vn -0.7953 0.5685 0.2103
vn -0.8144 0.5402 0.2121
vn -0.8014 0.5391 0.2589
vn -0.7867 0.5656 0.2473
vn -0.7594 0.6171 0.2062
vn -0.7588 0.6272 0.1754
vn -0.7182 0.6857 0.1181
vn -0.652 0.7139 0.2554
vn -0.7292 0.6693 0.1425
vn -0.5902 0.7028 0.3971
vn -0.615 0.6846 0.3912
vn -0.7108 0.5408 0.4497
vn -0.7424 0.5309 0.4086
vn -0.7341 0.5164 0.4408
vn -0.7245 0.4917 0.4829
vn -0.8098 0.4762 0.3425
vn -0.7852 0.5251 0.3282
vn -0.8292 0.525 0.1917
vn -0.861 0.4733 0.1857
vn -0.8366 0.5026 0.2176
vn -0.8184 0.5207 0.2431
vn 0.6768 -0.7361 0.0031
vn 0.5728 -0.7912 -0.2143
vn 0.6166 -0.7508 -0.2369
vn 0.7415 -0.6684 0.0581
vn 0.7778 -0.6084 0.1578
vn 0.7684 -0.6248 0.1387
vn 0.758 -0.6482 0.0726
vn 0.6925 -0.7201 -0.0438
vn 0.6028 -0.7641 -0.2297
vn 0.4737 -0.7634 -0.4391
vn 0.426 -0.6707 -0.6072
vn 0.4169 -0.6568 -0.6283
vn 0.4713 -0.7048 -0.5303
vn 0.5188 -0.7433 -0.4223
vn 0.4703 -0.6867 -0.5543
vn 0.696 -0.5814 -0.4213
vn 0.6295 -0.5838 -0.5127
vn 0.5943 -0.6248 -0.5063
vn 0.6494 -0.6407 -0.4096
vn 0.709 -0.6447 -0.2858
vn 0.7551 -0.5771 -0.3111
vn 0.7759 -0.5419 -0.3229
vn 0.7059 -0.5558 -0.439
vn 0.6158 -0.5799 -0.5333
vn 0.8 -0.5675 -0.1948
vn 0.7635 -0.6254 -0.1611
vn 0.7998 -0.5973 -0.0585
vn 0.8257 -0.5576 -0.0851
vn 0.8323 -0.5508 -0.0618
vn 0.8187 -0.5407 -0.1934
vn 0.7228 -0.6831 -0.1045
vn 0.652 -0.7139 -0.2554
vn 0.7713 -0.6364 0.0009
vn 0.5827 -0.7018 -0.4097
vn 0.5326 -0.6684 -0.5192
vn 0.6876 -0.5568 -0.466
vn 0.5636 -0.602 -0.5656
vn 0.7796 -0.5354 -0.3249
vn 0.7534 -0.5797 -0.3103
vn 0.6098 -0.6102 -0.5057
vn 0.528 -0.6187 -0.5817
vn 0.8271 -0.5381 -0.162
vn 0.8237 -0.567 0.0007
vn 0.8134 -0.5803 0.0397
vn 0.8088 -0.5836 -0.0722
vn -0.7107 -0.2507 -0.6572
vn -0.7912 -0.506 -0.3435
vn -0.6358 -0.1546 -0.7562
vn 0.528 -0.6187 -0.5817
vn -0.3877 -0.7828 0.4867
vn -0.2334 -0.4317 0.8713
vn -0.3733 -0.8996 0.2266
vn 0.8134 -0.5803 0.0397
vn 0.3976 0.5025 0.7677
vn 0.5529 0.6477 0.5241
vn 0.3076 0.3515 0.8842
vn 0.7778 -0.6084 0.1578
vn 0.3668 0.5579 -0.7444
vn -0.0651 0.5647 -0.8227
vn 0.7524 0.539 -0.3785
vn 0.4169 -0.6568 -0.6283
vn -0.3439 0.4031 -0.8481
vn -0.4836 0.2456 -0.8401
vn -0.5849 -0.8091 0.0575
vn 0.0445 -0.1492 0.9878
vn 0.1633 -0.0479 0.9854
vn 0.7761 0.613 0.1479
vn 0.2604 0.2223 0.9395
vn 0.2444 0.139 0.9597
vn -0.5503 0.1138 -0.8272
vn -0.5723 0.0295 -0.8195
vn -0.589 -0.0533 -0.8064
vn 0.2273 0.0558 0.9722
vt 0.839504 0.118056
vt 0.856743 0.205307
vt 0.741230 0.205307
vt 0.734555 0.106726
vt 0.724541 0.032791
vt 0.813647 0.052618
vt 0.868992 0.081539
vt 0.913398 0.129584
vt 0.940923 0.205307
vt 0.839504 0.292557
vt 0.813647 0.357995
vt 0.724541 0.377822
vt 0.734555 0.303887
vt 0.913398 0.281029
vt 0.868992 0.329074
vt 0.369475 0.299954
vt 0.368286 0.370940
vt 0.245840 0.351447
vt 0.246397 0.288815
vt 0.246768 0.205307
vt 0.370268 0.205307
vt 0.494283 0.205307
vt 0.492822 0.304944
vt 0.490632 0.379672
vt 0.369475 0.110659
vt 0.246397 0.121798
vt 0.245841 0.059166
vt 0.368286 0.039673
vt 0.490632 0.030941
vt 0.492822 0.105669
vt 0.616755 0.103478
vt 0.619174 0.205307
vt 0.613127 0.027106
vt 0.616755 0.307135
vt 0.613126 0.383507
vt 0.123273 0.268175
vt 0.123047 0.315326
vt 0.054743 0.283353
vt 0.030912 0.249131
vt 0.030973 0.205306
vt 0.123423 0.205306
vt 0.123273 0.142438
vt 0.030912 0.161481
vt 0.054744 0.127260
vt 0.123047 0.095287
vt 0.839504 0.118056
vt 0.856743 0.205307
vt 0.968983 0.205307
vt 0.938030 0.133427
vt 0.876123 0.061548
vt 0.805028 0.030806
vt 0.721203 0.008146
vt 0.734555 0.106726
vt 0.741230 0.205307
vt 0.839504 0.292557
vt 0.805028 0.379807
vt 0.876123 0.349065
vt 0.938030 0.277186
vt 0.734555 0.303887
vt 0.721203 0.402467
vt 0.369475 0.299954
vt 0.367890 0.394602
vt 0.489902 0.404581
vt 0.492822 0.304944
vt 0.494283 0.205307
vt 0.370268 0.205307
vt 0.246768 0.205307
vt 0.246397 0.288815
vt 0.245655 0.372324
vt 0.369475 0.110659
vt 0.492822 0.105669
vt 0.489902 0.006032
vt 0.367890 0.016011
vt 0.245655 0.038289
vt 0.246397 0.121798
vt 0.616755 0.103478
vt 0.619174 0.205307
vt 0.611917 0.001649
vt 0.616755 0.307135
vt 0.611917 0.408964
vt 0.123273 0.268175
vt 0.122972 0.331043
vt 0.123423 0.205306
vt 0.000156 0.205306
vt 0.000125 0.242784
vt 0.000064 0.280261
vt 0.123273 0.142438
vt 0.122972 0.079570
vt 0.000064 0.130352
vt 0.000125 0.167829
vt 0.122972 0.331043
vt 0.030806 0.283587
vt 0.245655 0.372324
vt 0.030806 0.283587
vt 0.000125 0.167829
vt 0.030806 0.127026
vt 0.000156 0.205306
vt 0.030806 0.127026
vt 0.805028 0.030806
vt 0.873826 0.071832
vt 0.721203 0.008146
vt 0.873826 0.071832
vt 0.938030 0.277186
vt 0.873826 0.338781
vt 0.968983 0.205307
vt 0.873826 0.338781
vt 0.805028 0.379807
vt 0.721203 0.402467
vt 0.000125 0.242784
vt 0.122972 0.079570
vt 0.245655 0.038289
vt 0.938030 0.133427
vt 0.611917 0.001649
vt 0.489902 0.006032
vt 0.611917 0.408964
vt 0.489902 0.404581
vt 0.367890 0.394602
vt 0.367890 0.016011
f 1/1/1 2/2/2 3/3/3
f 1/1/1 3/3/3 4/4/4
f 1/1/1 4/4/4 5/5/5
f 1/1/1 5/5/5 6/6/6
f 1/1/1 6/6/6 7/7/7
f 1/1/1 7/7/7 8/8/8
f 1/1/1 8/8/8 9/9/9
f 1/1/1 9/9/9 2/2/2
f 10/10/10 11/11/11 12/12/12
f 10/10/10 12/12/12 13/13/13
f 10/10/10 13/13/13 3/3/3
f 10/10/10 3/3/3 2/2/2
f 10/10/10 2/2/2 9/9/9
f 10/10/10 9/9/9 14/14/14
f 10/10/10 14/14/14 15/15/15
f 10/10/10 15/15/15 11/11/11
f 16/16/16 17/17/17 18/18/18
f 16/16/16 18/18/18 19/19/19
f 16/16/16 19/19/19 20/20/20
f 16/16/16 20/20/20 21/21/21
f 16/16/16 21/21/21 22/22/22
f 16/16/16 22/22/22 23/23/23
f 16/16/16 23/23/23 24/24/24
f 16/16/16 24/24/24 17/17/17
f 25/25/25 21/21/21 20/20/20
f 25/25/25 20/20/20 26/26/26
f 25/25/25 26/26/26 27/27/27
f 25/25/25 27/27/27 28/28/28
f 25/25/25 28/28/28 29/29/29
f 25/25/25 29/29/29 30/30/30
f 25/25/25 30/30/30 22/22/22
f 25/25/25 22/22/22 21/21/21
f 31/31/31 32/32/32 22/22/22
f 31/31/31 22/22/22 30/30/30
f 31/31/31 30/30/30 29/29/29
f 31/31/31 29/29/29 33/33/33
f 31/31/31 33/33/33 5/5/5
f 31/31/31 5/5/5 4/4/4
f 31/31/31 4/4/4 3/3/3
f 31/31/31 3/3/3 32/32/32
f 34/34/34 35/35/35 24/24/24
f 34/34/34 24/24/24 23/23/23
f 34/34/34 23/23/23 22/22/22
f 34/34/34 22/22/22 32/32/32
f 34/34/34 32/32/32 3/3/3
f 34/34/34 3/3/3 13/13/13
f 34/34/34 13/13/13 12/12/12
f 34/34/34 12/12/12 35/35/35
f 36/36/36 37/37/37 38/38/38
f 36/36/36 38/38/38 39/39/39
f 36/36/36 39/39/39 40/40/40
f 36/36/36 40/40/40 41/41/41
f 36/36/36 41/41/41 20/20/20
f 36/36/36 20/20/20 19/19/19
f 36/36/36 19/19/19 18/18/18
f 36/36/36 18/18/18 37/37/37
f 42/42/42 41/41/41 40/40/40
f 42/42/42 40/40/40 43/43/43
f 42/42/42 43/43/43 44/44/44
f 42/42/42 44/44/44 45/45/45
f 42/42/42 45/45/45 27/27/27
f 42/42/42 27/27/27 26/26/26
f 42/42/42 26/26/26 20/20/20
f 42/42/42 20/20/20 41/41/41
f 46/46/46 47/47/47 48/48/48
f 46/46/46 48/48/48 49/49/49
f 46/46/46 49/49/49 50/50/50
f 46/46/46 50/50/50 51/51/51
f 46/46/46 51/51/51 52/52/52
f 46/46/46 52/52/52 53/53/53
f 46/46/46 53/53/53 54/54/54
f 46/46/46 54/54/54 47/47/47
f 55/55/55 56/56/56 57/57/57
f 55/55/55 57/57/57 58/58/58
f 55/55/55 58/58/58 48/48/48
f 55/55/55 48/48/48 47/47/47
f 55/55/55 47/47/47 54/54/54
f 55/55/55 54/54/54 59/59/59
f 55/55/55 59/59/59 60/60/60
f 55/55/55 60/60/60 56/56/56
f 61/61/61 62/62/62 63/63/63
f 61/61/61 63/63/63 64/64/64
f 61/61/61 64/64/64 65/65/65
f 61/61/61 65/65/65 66/66/66
f 61/61/61 66/66/66 67/67/67
f 61/61/61 67/67/67 68/68/68
f 61/61/61 68/68/68 69/69/69
f 61/61/61 69/69/69 62/62/62
f 70/70/70 66/66/66 65/65/65
f 70/70/70 65/65/65 71/71/71
f 70/70/70 71/71/71 72/72/72
f 70/70/70 72/72/72 73/73/73
f 70/70/70 73/73/73 74/74/74
f 70/70/70 74/74/74 75/75/75
f 70/70/70 75/75/75 67/67/67
f 70/70/70 67/67/67 66/66/66
f 76/76/76 77/77/77 54/54/54
f 76/76/76 54/54/54 53/53/53
f 76/76/76 53/53/53 52/52/52
f 76/76/76 52/52/52 78/78/78
f 76/76/76 78/78/78 72/72/72
f 76/76/76 72/72/72 71/71/71
f 76/76/76 71/71/71 65/65/65
f 76/76/76 65/65/65 77/77/77
f 79/79/79 80/80/80 60/60/60
f 79/79/79 60/60/60 59/59/59
f 79/79/79 59/59/59 54/54/54
f 79/79/79 54/54/54 77/77/77
f 79/79/79 77/77/77 65/65/65
f 79/79/79 65/65/65 64/64/64
f 79/79/79 64/64/64 63/63/63
f 79/79/79 63/63/63 80/80/80
f 81/81/81 82/82/82 69/69/69
f 81/81/81 69/69/69 68/68/68
f 81/81/81 68/68/68 67/67/67
f 81/81/81 67/67/67 83/83/83
f 81/81/81 83/83/83 84/84/84
f 81/81/81 84/84/84 85/85/85
f 81/81/81 85/85/85 86/86/86
f 81/81/81 86/86/86 82/82/82
f 87/87/87 83/83/83 67/67/67
f 87/87/87 67/67/67 75/75/75
f 87/87/87 75/75/75 74/74/74
f 87/87/87 74/74/74 88/88/88
f 87/87/87 88/88/88 89/89/89
f 87/87/87 89/89/89 90/90/90
f 87/87/87 90/90/90 84/84/84
f 87/87/87 84/84/84 83/83/83
f 91/91/91 92/92/92 38/38/38
f 91/91/91 38/38/38 37/37/37
f 91/91/91 37/37/37 18/18/18
f 91/91/91 18/18/18 93/93/93
f 91/91/91 93/93/93 69/69/69
f 91/91/91 69/69/69 82/82/82
f 91/91/91 82/82/82 94/94/94
f 91/91/91 94/94/94 92/92/92
f 95/95/95 96/96/96 44/44/44
f 95/95/95 44/44/44 43/43/43
f 95/95/95 43/43/43 40/40/40
f 95/95/95 40/40/40 97/97/97
f 95/95/95 97/97/97 84/84/84
f 95/95/95 84/84/84 90/90/90
f 95/95/95 90/90/90 98/98/98
f 95/95/95 98/98/98 96/96/96
f 99/99/99 100/100/100 7/7/7
f 99/99/99 7/7/7 6/6/6
f 99/99/99 6/6/6 5/5/5
f 99/99/99 5/5/5 101/101/101
f 99/99/99 101/101/101 52/52/52
f 99/99/99 52/52/52 51/51/51
f 99/99/99 51/51/51 102/102/102
f 99/99/99 102/102/102 100/100/100
f 103/103/103 104/104/104 15/15/15
f 103/103/103 15/15/15 14/14/14
f 103/103/103 14/14/14 9/9/9
f 103/103/103 9/9/9 105/105/105
f 103/103/103 105/105/105 48/48/48
f 103/103/103 48/48/48 58/58/58
f 103/103/103 58/58/58 106/106/106
f 103/103/103 106/106/106 104/104/104
f 107/107/107 108/108/108 12/12/12
f 107/107/107 12/12/12 11/11/11
f 107/107/107 11/11/11 15/15/15
f 107/107/107 15/15/15 104/104/104
f 107/107/107 104/104/104 106/106/106
f 107/107/107 106/106/106 56/56/56
f 107/107/107 56/56/56 60/60/60
f 107/107/107 60/60/60 108/108/108
f 109/109/109 97/97/97 40/40/40
f 109/109/109 40/40/40 39/39/39
f 109/109/109 39/39/39 38/38/38
f 109/109/109 38/38/38 92/92/92
f 109/109/109 92/92/92 94/94/94
f 109/109/109 94/94/94 85/85/85
f 109/109/109 85/85/85 84/84/84
f 109/109/109 84/84/84 97/97/97
f 110/110/110 111/111/111 27/27/27
f 110/110/110 27/27/27 45/45/45
f 110/110/110 45/45/45 44/44/44
f 110/110/110 44/44/44 96/96/96
f 110/110/110 96/96/96 98/98/98
f 110/110/110 98/98/98 88/88/88
f 110/110/110 88/88/88 74/74/74
f 110/110/110 74/74/74 111/111/111
f 112/112/112 105/105/105 9/9/9
f 112/112/112 9/9/9 8/8/8
f 112/112/112 8/8/8 7/7/7
f 112/112/112 7/7/7 100/100/100
f 112/112/112 100/100/100 102/102/102
f 112/112/112 102/102/102 49/49/49
f 112/112/112 49/49/49 48/48/48
f 112/112/112 48/48/48 105/105/105
f 113/113/113 101/101/101 5/5/5
f 113/113/113 5/5/5 33/33/33
f 113/113/113 33/33/33 29/29/29
f 113/113/113 29/29/29 114/114/114
f 113/113/113 114/114/114 72/72/72
f 113/113/113 72/72/72 78/78/78
f 113/113/113 78/78/78 52/52/52
f 113/113/113 52/52/52 101/101/101
f 115/115/115 116/116/116 24/24/24
f 115/115/115 24/24/24 35/35/35
f 115/115/115 35/35/35 12/12/12
f 115/115/115 12/12/12 108/108/108
f 115/115/115 108/108/108 60/60/60
f 115/115/115 60/60/60 80/80/80
f 115/115/115 80/80/80 63/63/63
f 115/115/115 63/63/63 116/116/116
f 117/117/117 93/93/93 18/18/18
f 117/117/117 18/18/18 17/17/17
f 117/117/117 17/17/17 24/24/24
f 117/117/117 24/24/24 116/116/116
f 117/117/117 116/116/116 63/63/63
f 117/117/117 63/63/63 62/62/62
f 117/117/117 62/62/62 69/69/69
f 117/117/117 69/69/69 93/93/93
f 118/118/118 114/114/114 29/29/29
f 118/118/118 29/29/29 28/28/28
f 118/118/118 28/28/28 27/27/27
f 118/118/118 27/27/27 111/111/111
f 118/118/118 111/111/111 74/74/74
f 118/118/118 74/74/74 73/73/73
f 118/118/118 73/73/73 72/72/72
f 118/118/118 72/72/72 114/114/114
