v -2.380611 0.711563 -1.039022
v -2.378116 0.711844 -1.038342
v -2.377918 0.711922 -1.041799
v -2.380756 0.711524 -1.042191
v -2.382951 0.711467 -1.042646
v -2.38254 0.711612 -1.039927
v -2.381762 0.711559 -1.0382
v -2.38038 0.711483 -1.036772
v -2.378228 0.711672 -1.03581
v -2.375772 0.712912 -1.038715
v -2.374053 0.713977 -1.039387
v -2.37331 0.714153 -1.042033
v -2.375256 0.713057 -1.041842
v -2.376191 0.712651 -1.036506
v -2.374889 0.713474 -1.037763
v -2.37419 0.71145 -1.052515
v -2.372228 0.71227 -1.052484
v -2.372246 0.711017 -1.056003
v -2.373978 0.710278 -1.056022
v -2.376315 0.709433 -1.056104
v -2.376836 0.710508 -1.052615
v -2.377294 0.711341 -1.049068
v -2.374532 0.712351 -1.048968
v -2.37249 0.713246 -1.048944
v -2.37958 0.709948 -1.052857
v -2.378744 0.70895 -1.056325
v -2.380598 0.70869 -1.056533
v -2.381671 0.709638 -1.053084
v -2.382368 0.710494 -1.049572
v -2.38017 0.71078 -1.049326
v -2.380586 0.711284 -1.045698
v -2.377649 0.711784 -1.045419
v -2.382844 0.711098 -1.045977
v -2.374866 0.712878 -1.045335
v -2.37282 0.713892 -1.04534
v -2.374035 0.708937 -1.059535
v -2.372754 0.709544 -1.059543
v -2.373345 0.708517 -1.061493
v -2.374167 0.707837 -1.062161
v -2.375341 0.707321 -1.062169
v -2.375768 0.708264 -1.059579
v -2.377592 0.707946 -1.059761
v -2.376604 0.707158 -1.062316
v -2.377731 0.707295 -1.061772
v -2.378991 0.707806 -1.059939
v -2.380576 0.711293 -1.039016
v -2.378043 0.711582 -1.038334
v -2.378174 0.711476 -1.035807
v -2.380355 0.711281 -1.036772
v -2.381752 0.711408 -1.038198
v -2.382533 0.711408 -1.039923
v -2.382939 0.711263 -1.042633
v -2.380718 0.711255 -1.042174
v -2.377846 0.711661 -1.04178
v -2.375664 0.712662 -1.038704
v -2.373955 0.713798 -1.039378
v -2.37482 0.713339 -1.037758
v -2.376108 0.712465 -1.036502
v -2.375153 0.712806 -1.04182
v -2.373217 0.713972 -1.042015
v -2.3741 0.711202 -1.052443
v -2.37215 0.712088 -1.05243
v -2.372408 0.713063 -1.048901
v -2.37444 0.712101 -1.048911
v -2.377225 0.711083 -1.049013
v -2.37677 0.710253 -1.052544
v -2.37625 0.70918 -1.056023
v -2.373889 0.710032 -1.05594
v -2.372168 0.710838 -1.055941
v -2.379536 0.709687 -1.052789
v -2.380126 0.710516 -1.049273
v -2.382348 0.710293 -1.049533
v -2.381651 0.70944 -1.053034
v -2.380578 0.708494 -1.056475
v -2.378702 0.708691 -1.056246
v -2.380544 0.711017 -1.045663
v -2.377579 0.711523 -1.045382
v -2.382827 0.710896 -1.045951
v -2.374768 0.712627 -1.045296
v -2.372733 0.713709 -1.04531
v -2.373945 0.708693 -1.059449
v -2.372675 0.709366 -1.059478
v -2.375704 0.708013 -1.059494
v -2.375293 0.707133 -1.062105
v -2.374099 0.707655 -1.062096
v -2.37329 0.708384 -1.061445
v -2.377552 0.707688 -1.059678
v -2.378974 0.70761 -1.059878
v -2.377715 0.707151 -1.061726
v -2.376576 0.706965 -1.062253
v -2.372289 0.709668 -1.059517
v -2.373232 0.708281 -1.062171
v -2.371631 0.711185 -1.055969
v -2.37329 0.708384 -1.061445
v -2.376263 0.70681 -1.06314
v -2.377626 0.707057 -1.06245
v -2.375177 0.706923 -1.063004
v -2.377715 0.707151 -1.061726
v -2.383184 0.711537 -1.040226
v -2.382066 0.711528 -1.038068
v -2.383681 0.711356 -1.042792
v -2.381752 0.711408 -1.038198
v -2.376294 0.712481 -1.035769
v -2.37463 0.7136 -1.037596
v -2.378242 0.711527 -1.034965
v -2.37482 0.713339 -1.037758
v -2.373433 0.714255 -1.039607
v -2.372617 0.71444 -1.042089
v -2.374181 0.70739 -1.063007
v -2.379453 0.707672 -1.059972
v -2.38121 0.708516 -1.056577
v -2.380292 0.711367 -1.036023
v -2.383593 0.710946 -1.046059
v -2.383095 0.710309 -1.049637
v -2.372096 0.71415 -1.045328
v -2.37177 0.713464 -1.048917
v -2.371537 0.712463 -1.05245
v -2.382362 0.709447 -1.053138
vn -0.054 0.9984 0.0163
vn -0.2698 0.9626 0.0245
vn -0.2662 0.9633 -0.0352
vn -0.0735 0.9963 -0.0449
vn -0.081 0.9942 -0.0706
vn -0.0621 0.9979 0.0155
vn -0.0493 0.9958 0.0764
vn -0.0986 0.9894 0.1065
vn -0.2735 0.9546 0.1176
vn -0.4704 0.8824 -0.0101
vn -0.4633 0.8861 -0.01
vn -0.4352 0.8955 -0.0931
vn -0.4457 0.8925 -0.0686
vn -0.4385 0.8947 0.0848
vn -0.4801 0.8758 0.049
vn -0.3435 0.8933 -0.2897
vn -0.3077 0.9041 -0.2965
vn -0.3004 0.896 -0.327
vn -0.3464 0.8812 -0.3215
vn -0.2345 0.9158 -0.3261
vn -0.2404 0.9277 -0.2856
vn -0.2509 0.9465 -0.2027
vn -0.3654 0.9053 -0.2164
vn -0.338 0.912 -0.2323
vn -0.1346 0.9515 -0.2764
vn -0.1222 0.9437 -0.3073
vn -0.1682 0.9328 -0.3186
vn -0.1698 0.9425 -0.2877
vn -0.1556 0.9628 -0.2207
vn -0.1309 0.9707 -0.2015
vn -0.108 0.9875 -0.1146
vn -0.2603 0.9593 -0.1096
vn -0.1221 0.9823 -0.1421
vn -0.4036 0.9051 -0.1334
vn -0.3857 0.9088 -0.1589
vn -0.3681 0.8671 -0.3355
vn -0.3188 0.8824 -0.346
vn -0.346 0.8653 -0.3626
vn -0.3796 0.8396 -0.3886
vn -0.2228 0.8901 -0.3974
vn -0.2316 0.9096 -0.345
vn -0.0948 0.9433 -0.3181
vn -0.0646 0.9273 -0.3686
vn -0.1096 0.9312 -0.3476
vn -0.1434 0.9313 -0.3348
vn 0.0248 -0.9997 0.0055
vn 0.2689 -0.9631 -0.0081
vn 0.2648 -0.9627 0.0555
vn -0.064 -0.9956 0.0677
vn -0.1831 -0.9792 0.0875
vn -0.1581 -0.9842 0.0791
vn -0.088 -0.9924 0.0852
vn 0.0581 -0.9973 0.0455
vn 0.2662 -0.9633 0.0351
vn 0.4934 -0.869 0.0353
vn 0.632 -0.7641 0.1293
vn 0.6496 -0.7472 0.1404
vn 0.5593 -0.822 0.1072
vn 0.4592 -0.8855 0.071
vn 0.5761 -0.8074 0.1274
vn 0.3588 -0.8875 0.2889
vn 0.4617 -0.8415 0.2805
vn 0.4783 -0.8477 0.2291
vn 0.3793 -0.8996 0.2165
vn 0.2509 -0.9465 0.2029
vn 0.2403 -0.9276 0.2858
vn 0.2345 -0.9157 0.3262
vn 0.3643 -0.875 0.3187
vn 0.4832 -0.8287 0.2824
vn 0.1187 -0.9544 0.2737
vn 0.116 -0.9729 0.1998
vn 0.0038 -0.98 0.1989
vn 0.0087 -0.9677 0.2517
vn -0.0164 -0.9679 0.2506
vn 0.1041 -0.9475 0.3021
vn 0.0935 -0.9891 0.1136
vn 0.2604 -0.9593 0.1096
vn -0.0302 -0.9909 0.1312
vn 0.4169 -0.899 0.1342
vn 0.5208 -0.8373 0.1662
vn 0.3945 -0.8625 0.3169
vn 0.5341 -0.8085 0.2471
vn 0.2333 -0.9134 0.3335
vn 0.2408 -0.9285 0.2827
vn 0.4689 -0.8477 0.2482
vn 0.564 -0.796 0.2196
vn 0.0723 -0.9523 0.2964
vn -0.066 -0.9757 0.209
vn -0.0945 -0.9795 0.1778
vn 0.0095 -0.9756 0.219
vn 0.8769 0.3184 -0.3599
vn 0.6913 0.1771 -0.7005
vn 0.9165 0.3403 -0.2102
vn 0.564 -0.796 0.2196
vn -0.0958 -0.323 -0.9415
vn -0.5958 -0.1816 -0.7823
vn 0.1715 -0.411 -0.8953
vn -0.0945 -0.9795 0.1778
vn -0.9634 0.0758 0.2571
vn -0.83 0.0832 0.5515
vn -0.9982 0.0233 0.0556
vn -0.1831 -0.9792 0.0875
vn 0.4044 0.1801 0.8966
vn 0.5971 0.4809 0.642
vn -0.0335 -0.1065 0.9937
vn 0.6496 -0.7472 0.1404
vn 0.7486 0.5529 0.3658
vn 0.8289 0.5324 0.1716
vn 0.3585 -0.1964 -0.9126
vn -0.8663 -0.1674 -0.4706
vn -0.9288 -0.1738 -0.3273
vn -0.5413 -0.0834 0.8367
vn -0.9961 -0.0407 -0.0779
vn -0.9847 -0.0913 -0.1479
vn 0.8757 0.481 0.0412
vn 0.9004 0.4341 -0.028
vn 0.9183 0.384 -0.096
vn -0.9662 -0.141 -0.2156
vt 0.839504 0.118056
vt 0.856743 0.205307
vt 0.741230 0.205307
vt 0.734555 0.106726
vt 0.724541 0.032791
vt 0.813647 0.052618
vt 0.868992 0.081539
vt 0.913398 0.129584
vt 0.940923 0.205307
vt 0.839504 0.292557
vt 0.813647 0.357995
vt 0.724541 0.377822
vt 0.734555 0.303887
vt 0.913398 0.281029
vt 0.868992 0.329074
vt 0.369475 0.299954
vt 0.368286 0.370940
vt 0.245840 0.351447
vt 0.246397 0.288815
vt 0.246768 0.205307
vt 0.370268 0.205307
vt 0.494283 0.205307
vt 0.492822 0.304944
vt 0.490632 0.379672
vt 0.369475 0.110659
vt 0.246397 0.121798
vt 0.245841 0.059166
vt 0.368286 0.039673
vt 0.490632 0.030941
vt 0.492822 0.105669
vt 0.616755 0.103478
vt 0.619174 0.205307
vt 0.613127 0.027106
vt 0.616755 0.307135
vt 0.613126 0.383507
vt 0.123273 0.268175
vt 0.123047 0.315326
vt 0.054743 0.283353
vt 0.030912 0.249131
vt 0.030973 0.205306
vt 0.123423 0.205306
vt 0.123273 0.142438
vt 0.030912 0.161481
vt 0.054744 0.127260
vt 0.123047 0.095287
vt 0.839504 0.118056
vt 0.856743 0.205307
vt 0.968983 0.205307
vt 0.938030 0.133427
vt 0.876123 0.061548
vt 0.805028 0.030806
vt 0.721203 0.008146
vt 0.734555 0.106726
vt 0.741230 0.205307
vt 0.839504 0.292557
vt 0.805028 0.379807
vt 0.876123 0.349065
vt 0.938030 0.277186
vt 0.734555 0.303887
vt 0.721203 0.402467
vt 0.369475 0.299954
vt 0.367890 0.394602
vt 0.489902 0.404581
vt 0.492822 0.304944
vt 0.494283 0.205307
vt 0.370268 0.205307
vt 0.246768 0.205307
vt 0.246397 0.288815
vt 0.245655 0.372324
vt 0.369475 0.110659
vt 0.492822 0.105669
vt 0.489902 0.006032
vt 0.367890 0.016011
vt 0.245655 0.038289
vt 0.246397 0.121798
vt 0.616755 0.103478
vt 0.619174 0.205307
vt 0.611917 0.001649
vt 0.616755 0.307135
vt 0.611917 0.408964
vt 0.123273 0.268175
vt 0.122972 0.331043
vt 0.123423 0.205306
vt 0.000156 0.205306
vt 0.000125 0.242784
vt 0.000064 0.280261
vt 0.123273 0.142438
vt 0.122972 0.079570
vt 0.000064 0.130352
vt 0.000125 0.167829
vt 0.122972 0.331043
vt 0.030806 0.283587
vt 0.245655 0.372324
vt 0.030806 0.283587
vt 0.000125 0.167829
vt 0.030806 0.127026
vt 0.000156 0.205306
vt 0.030806 0.127026
vt 0.805028 0.030806
vt 0.873826 0.071832
vt 0.721203 0.008146
vt 0.873826 0.071832
vt 0.938030 0.277186
vt 0.873826 0.338781
vt 0.968983 0.205307
vt 0.873826 0.338781
vt 0.805028 0.379807
vt 0.721203 0.402467
vt 0.000125 0.242784
vt 0.122972 0.079570
vt 0.245655 0.038289
vt 0.938030 0.133427
vt 0.611917 0.001649
vt 0.489902 0.006032
vt 0.611917 0.408964
vt 0.489902 0.404581
vt 0.367890 0.394602
vt 0.367890 0.016011
f 1/1/1 2/2/2 3/3/3
f 1/1/1 3/3/3 4/4/4
f 1/1/1 4/4/4 5/5/5
f 1/1/1 5/5/5 6/6/6
f 1/1/1 6/6/6 7/7/7
f 1/1/1 7/7/7 8/8/8
f 1/1/1 8/8/8 9/9/9
f 1/1/1 9/9/9 2/2/2
f 10/10/10 11/11/11 12/12/12
f 10/10/10 12/12/12 13/13/13
f 10/10/10 13/13/13 3/3/3
f 10/10/10 3/3/3 2/2/2
f 10/10/10 2/2/2 9/9/9
f 10/10/10 9/9/9 14/14/14
f 10/10/10 14/14/14 15/15/15
f 10/10/10 15/15/15 11/11/11
f 16/16/16 17/17/17 18/18/18
f 16/16/16 18/18/18 19/19/19
f 16/16/16 19/19/19 20/20/20
f 16/16/16 20/20/20 21/21/21
f 16/16/16 21/21/21 22/22/22
f 16/16/16 22/22/22 23/23/23
f 16/16/16 23/23/23 24/24/24
f 16/16/16 24/24/24 17/17/17
f 25/25/25 21/21/21 20/20/20
f 25/25/25 20/20/20 26/26/26
f 25/25/25 26/26/26 27/27/27
f 25/25/25 27/27/27 28/28/28
f 25/25/25 28/28/28 29/29/29
f 25/25/25 29/29/29 30/30/30
f 25/25/25 30/30/30 22/22/22
f 25/25/25 22/22/22 21/21/21
f 31/31/31 32/32/32 22/22/22
f 31/31/31 22/22/22 30/30/30
f 31/31/31 30/30/30 29/29/29
f 31/31/31 29/29/29 33/33/33
f 31/31/31 33/33/33 5/5/5
f 31/31/31 5/5/5 4/4/4
f 31/31/31 4/4/4 3/3/3
f 31/31/31 3/3/3 32/32/32
f 34/34/34 35/35/35 24/24/24
f 34/34/34 24/24/24 23/23/23
f 34/34/34 23/23/23 22/22/22
f 34/34/34 22/22/22 32/32/32
f 34/34/34 32/32/32 3/3/3
f 34/34/34 3/3/3 13/13/13
f 34/34/34 13/13/13 12/12/12
f 34/34/34 12/12/12 35/35/35
f 36/36/36 37/37/37 38/38/38
f 36/36/36 38/38/38 39/39/39
f 36/36/36 39/39/39 40/40/40
f 36/36/36 40/40/40 41/41/41
f 36/36/36 41/41/41 20/20/20
f 36/36/36 20/20/20 19/19/19
f 36/36/36 19/19/19 18/18/18
f 36/36/36 18/18/18 37/37/37
f 42/42/42 41/41/41 40/40/40
f 42/42/42 40/40/40 43/43/43
f 42/42/42 43/43/43 44/44/44
f 42/42/42 44/44/44 45/45/45
f 42/42/42 45/45/45 27/27/27
f 42/42/42 27/27/27 26/26/26
f 42/42/42 26/26/26 20/20/20
f 42/42/42 20/20/20 41/41/41
f 46/46/46 47/47/47 48/48/48
f 46/46/46 48/48/48 49/49/49
f 46/46/46 49/49/49 50/50/50
f 46/46/46 50/50/50 51/51/51
f 46/46/46 51/51/51 52/52/52
f 46/46/46 52/52/52 53/53/53
f 46/46/46 53/53/53 54/54/54
f 46/46/46 54/54/54 47/47/47
f 55/55/55 56/56/56 57/57/57
f 55/55/55 57/57/57 58/58/58
f 55/55/55 58/58/58 48/48/48
f 55/55/55 48/48/48 47/47/47
f 55/55/55 47/47/47 54/54/54
f 55/55/55 54/54/54 59/59/59
f 55/55/55 59/59/59 60/60/60
f 55/55/55 60/60/60 56/56/56
f 61/61/61 62/62/62 63/63/63
f 61/61/61 63/63/63 64/64/64
f 61/61/61 64/64/64 65/65/65
f 61/61/61 65/65/65 66/66/66
f 61/61/61 66/66/66 67/67/67
f 61/61/61 67/67/67 68/68/68
f 61/61/61 68/68/68 69/69/69
f 61/61/61 69/69/69 62/62/62
f 70/70/70 66/66/66 65/65/65
f 70/70/70 65/65/65 71/71/71
f 70/70/70 71/71/71 72/72/72
f 70/70/70 72/72/72 73/73/73
f 70/70/70 73/73/73 74/74/74
f 70/70/70 74/74/74 75/75/75
f 70/70/70 75/75/75 67/67/67
f 70/70/70 67/67/67 66/66/66
f 76/76/76 77/77/77 54/54/54
f 76/76/76 54/54/54 53/53/53
f 76/76/76 53/53/53 52/52/52
f 76/76/76 52/52/52 78/78/78
f 76/76/76 78/78/78 72/72/72
f 76/76/76 72/72/72 71/71/71
f 76/76/76 71/71/71 65/65/65
f 76/76/76 65/65/65 77/77/77
f 79/79/79 80/80/80 60/60/60
f 79/79/79 60/60/60 59/59/59
f 79/79/79 59/59/59 54/54/54
f 79/79/79 54/54/54 77/77/77
f 79/79/79 77/77/77 65/65/65
f 79/79/79 65/65/65 64/64/64
f 79/79/79 64/64/64 63/63/63
f 79/79/79 63/63/63 80/80/80
f 81/81/81 82/82/82 69/69/69
f 81/81/81 69/69/69 68/68/68
f 81/81/81 68/68/68 67/67/67
f 81/81/81 67/67/67 83/83/83
f 81/81/81 83/83/83 84/84/84
f 81/81/81 84/84/84 85/85/85
f 81/81/81 85/85/85 86/86/86
f 81/81/81 86/86/86 82/82/82
f 87/87/87 83/83/83 67/67/67
f 87/87/87 67/67/67 75/75/75
f 87/87/87 75/75/75 74/74/74
f 87/87/87 74/74/74 88/88/88
f 87/87/87 88/88/88 89/89/89
f 87/87/87 89/89/89 90/90/90
f 87/87/87 90/90/90 84/84/84
f 87/87/87 84/84/84 83/83/83
f 91/91/91 92/92/92 38/38/38
f 91/91/91 38/38/38 37/37/37
f 91/91/91 37/37/37 18/18/18
f 91/91/91 18/18/18 93/93/93
f 91/91/91 93/93/93 69/69/69
f 91/91/91 69/69/69 82/82/82
f 91/91/91 82/82/82 94/94/94
f 91/91/91 94/94/94 92/92/92
f 95/95/95 96/96/96 44/44/44
f 95/95/95 44/44/44 43/43/43
f 95/95/95 43/43/43 40/40/40
f 95/95/95 40/40/40 97/97/97
f 95/95/95 97/97/97 84/84/84
f 95/95/95 84/84/84 90/90/90
f 95/95/95 90/90/90 98/98/98
f 95/95/95 98/98/98 96/96/96
f 99/99/99 100/100/100 7/7/7
f 99/99/99 7/7/7 6/6/6
f 99/99/99 6/6/6 5/5/5
f 99/99/99 5/5/5 101/101/101
f 99/99/99 101/101/101 52/52/52
f 99/99/99 52/52/52 51/51/51
f 99/99/99 51/51/51 102/102/102
f 99/99/99 102/102/102 100/100/100
f 103/103/103 104/104/104 15/15/15
f 103/103/103 15/15/15 14/14/14
f 103/103/103 14/14/14 9/9/9
f 103/103/103 9/9/9 105/105/105
f 103/103/103 105/105/105 48/48/48
f 103/103/103 48/48/48 58/58/58
f 103/103/103 58/58/58 106/106/106
f 103/103/103 106/106/106 104/104/104
f 107/107/107 108/108/108 12/12/12
f 107/107/107 12/12/12 11/11/11
f 107/107/107 11/11/11 15/15/15
f 107/107/107 15/15/15 104/104/104
f 107/107/107 104/104/104 106/106/106
f 107/107/107 106/106/106 56/56/56
f 107/107/107 56/56/56 60/60/60
f 107/107/107 60/60/60 108/108/108
f 109/109/109 97/97/97 40/40/40
f 109/109/109 40/40/40 39/39/39
f 109/109/109 39/39/39 38/38/38
f 109/109/109 38/38/38 92/92/92
f 109/109/109 92/92/92 94/94/94
f 109/109/109 94/94/94 85/85/85
f 109/109/109 85/85/85 84/84/84
f 109/109/109 84/84/84 97/97/97
f 110/110/110 111/111/111 27/27/27
f 110/110/110 27/27/27 45/45/45
f 110/110/110 45/45/45 44/44/44
f 110/110/110 44/44/44 96/96/96
f 110/110/110 96/96/96 98/98/98
f 110/110/110 98/98/98 88/88/88
f 110/110/110 88/88/88 74/74/74
f 110/110/110 74/74/74 111/111/111
f 112/112/112 105/105/105 9/9/9
f 112/112/112 9/9/9 8/8/8
f 112/112/112 8/8/8 7/7/7
f 112/112/112 7/7/7 100/100/100
f 112/112/112 100/100/100 102/102/102
f 112/112/112 102/102/102 49/49/49
f 112/112/112 49/49/49 48/48/48
f 112/112/112 48/48/48 105/105/105
f 113/113/113 101/101/101 5/5/5
f 113/113/113 5/5/5 33/33/33
f 113/113/113 33/33/33 29/29/29
f 113/113/113 29/29/29 114/114/114
f 113/113/113 114/114/114 72/72/72
f 113/113/113 72/72/72 78/78/78
f 113/113/113 78/78/78 52/52/52
f 113/113/113 52/52/52 101/101/101
f 115/115/115 116/116/116 24/24/24
f 115/115/115 24/24/24 35/35/35
f 115/115/115 35/35/35 12/12/12
f 115/115/115 12/12/12 108/108/108
f 115/115/115 108/108/108 60/60/60
f 115/115/115 60/60/60 80/80/80
f 115/115/115 80/80/80 63/63/63
f 115/115/115 63/63/63 116/116/116
f 117/117/117 93/93/93 18/18/18
f 117/117/117 18/18/18 17/17/17
f 117/117/117 17/17/17 24/24/24
f 117/117/117 24/24/24 116/116/116
f 117/117/117 116/116/116 63/63/63
f 117/117/117 63/63/63 62/62/62
f 117/117/117 62/62/62 69/69/69
f 117/117/117 69/69/69 93/93/93
f 118/118/118 114/114/114 29/29/29
f 118/118/118 29/29/29 28/28/28
f 118/118/118 28/28/28 27/27/27
f 118/118/118 27/27/27 111/111/111
f 118/118/118 111/111/111 74/74/74
f 118/118/118 74/74/74 73/73/73
f 118/118/118 73/73/73 72/72/72
f 118/118/118 72/72/72 114/114/114
