v -2.392757 0.792608 -1.238881
v -2.394188 0.792496 -1.240107
v -2.395149 0.791341 -1.238091
v -2.393404 0.79155 -1.236942
v -2.392175 0.791813 -1.235909
v -2.391828 0.792731 -1.23765
v -2.39187 0.793118 -1.238969
v -2.392338 0.793268 -1.240325
v -2.393466 0.793264 -1.241619
v -2.396038 0.79254 -1.240483
v -2.397582 0.79261 -1.240461
v -2.398711 0.791676 -1.239102
v -2.397133 0.791472 -1.238763
v -2.395178 0.793208 -1.241712
v -2.39653 0.793021 -1.241245
v -2.399758 0.78669 -1.23309
v -2.401201 0.786797 -1.233626
v -2.401604 0.784855 -1.231779
v -2.400323 0.784754 -1.231314
v -2.398659 0.784691 -1.230621
v -2.39788 0.786625 -1.232298
v -2.397045 0.788418 -1.234084
v -2.399014 0.7885 -1.234902
v -2.400533 0.788634 -1.235446
v -2.396104 0.786766 -1.231306
v -2.397092 0.784821 -1.229736
v -2.395942 0.784974 -1.229013
v -2.394799 0.78693 -1.230499
v -2.393836 0.788774 -1.232175
v -2.395192 0.78858 -1.233036
v -2.394254 0.790191 -1.234954
v -2.396118 0.789986 -1.236049
v -2.392903 0.790448 -1.234031
v -2.398133 0.79011 -1.236848
v -2.399699 0.790306 -1.237351
v -2.400672 0.782768 -1.229475
v -2.401645 0.782873 -1.229792
v -2.401409 0.781713 -1.228634
v -2.400847 0.781243 -1.228089
v -2.399973 0.781167 -1.22778
v -2.399418 0.7827 -1.22898
v -2.398261 0.782818 -1.228297
v -2.399194 0.781278 -1.227282
v -2.398435 0.781775 -1.227182
v -2.397416 0.782961 -1.227727
v -2.392687 0.792439 -1.238954
v -2.394143 0.792324 -1.240193
v -2.393433 0.793134 -1.241681
v -2.392286 0.793139 -1.240377
v -2.391826 0.793024 -1.239005
v -2.391764 0.792606 -1.237698
v -2.392111 0.79169 -1.235964
v -2.393334 0.791384 -1.237023
v -2.3951 0.791173 -1.238183
v -2.396017 0.792369 -1.240581
v -2.39758 0.792484 -1.240539
v -2.396525 0.792926 -1.2413
v -2.395165 0.793079 -1.241783
v -2.397107 0.791305 -1.238865
v -2.398703 0.791553 -1.239184
v -2.399712 0.786544 -1.233217
v -2.401175 0.786688 -1.233725
v -2.400511 0.78852 -1.235539
v -2.398974 0.788347 -1.235022
v -2.396987 0.788265 -1.234195
v -2.397818 0.786479 -1.232418
v -2.398595 0.784551 -1.230746
v -2.400275 0.784613 -1.231446
v -2.401577 0.78475 -1.231881
v -2.396027 0.786621 -1.231417
v -2.395118 0.788428 -1.233139
v -2.393772 0.788661 -1.232248
v -2.394733 0.786822 -1.230578
v -2.395874 0.78487 -1.229096
v -2.397012 0.784682 -1.229852
v -2.394183 0.790031 -1.235046
v -2.396065 0.789825 -1.236151
v -2.392839 0.79033 -1.234095
v -2.398099 0.789949 -1.236959
v -2.399683 0.790187 -1.237438
v -2.400625 0.78263 -1.229609
v -2.401618 0.78277 -1.229897
v -2.399353 0.782561 -1.229107
v -2.399924 0.781064 -1.227875
v -2.400812 0.78114 -1.22819
v -2.401386 0.781637 -1.228711
v -2.398179 0.782681 -1.228415
v -2.397347 0.782859 -1.227811
v -2.398386 0.781699 -1.227245
v -2.399132 0.781175 -1.22737
v -2.401959 0.782862 -1.229946
v -2.401558 0.781318 -1.228318
v -2.402021 0.784843 -1.23198
v -2.401386 0.781637 -1.228711
v -2.399478 0.780719 -1.226982
v -2.398579 0.781381 -1.226863
v -2.400136 0.78061 -1.227422
v -2.398386 0.781699 -1.227245
v -2.391488 0.792716 -1.23726
v -2.391646 0.793206 -1.238947
v -2.391734 0.791847 -1.235588
v -2.391826 0.793024 -1.239005
v -2.394886 0.793374 -1.242153
v -2.396688 0.793101 -1.241409
v -2.39321 0.793462 -1.24215
v -2.396525 0.792926 -1.2413
v -2.398099 0.792578 -1.240489
v -2.399236 0.79169 -1.239252
v -2.40089 0.780689 -1.227672
v -2.397102 0.782963 -1.227573
v -2.395527 0.784978 -1.228808
v -2.392175 0.79343 -1.240829
v -2.392422 0.790481 -1.233751
v -2.393353 0.788789 -1.23192
v -2.400216 0.790319 -1.237558
v -2.401031 0.788629 -1.23567
v -2.401672 0.786784 -1.233849
v -2.394333 0.786937 -1.230265
vn -0.4071 0.8616 0.3032
vn -0.2095 0.8963 0.3907
vn -0.2322 0.8682 0.4384
vn -0.41 0.8369 0.3625
vn -0.4112 0.8255 0.3866
vn -0.4004 0.8632 0.3075
vn -0.3903 0.8859 0.2505
vn -0.3369 0.9083 0.2478
vn -0.1726 0.9338 0.3134
vn -0.018 0.8697 0.4932
vn -0.0256 0.8709 0.4907
vn -0.0801 0.8324 0.5484
vn -0.0622 0.8442 0.5323
vn -0.0191 0.915 0.403
vn 0.0123 0.8943 0.4473
vn -0.2189 0.7136 0.6655
vn -0.2557 0.7094 0.6567
vn -0.268 0.6865 0.6759
vn -0.2214 0.6895 0.6896
vn -0.3313 0.6847 0.6491
vn -0.3187 0.7152 0.622
vn -0.2917 0.7723 0.5642
vn -0.1826 0.7638 0.619
vn -0.2134 0.7543 0.6208
vn -0.4142 0.7096 0.57
vn -0.4309 0.6851 0.5872
vn -0.3915 0.6839 0.6157
vn -0.3847 0.7067 0.5938
vn -0.3839 0.7507 0.5376
vn -0.4017 0.7593 0.512
vn -0.4 0.8071 0.4342
vn -0.2594 0.8288 0.4957
vn -0.3949 0.794 0.4621
vn -0.1238 0.8129 0.5691
vn -0.1486 0.7991 0.5825
vn -0.2015 0.6774 0.7074
vn -0.2528 0.6715 0.6966
vn -0.2279 0.6571 0.7185
vn -0.1966 0.6328 0.7489
vn -0.3524 0.6269 0.6948
vn -0.337 0.67 0.6614
vn -0.4569 0.672 0.5828
vn -0.4909 0.6268 0.6051
vn -0.4487 0.6525 0.6106
vn -0.4165 0.6681 0.6166
vn 0.4391 -0.8442 -0.3074
vn 0.2159 -0.8889 -0.4039
vn 0.2398 -0.858 -0.4542
vn 0.5308 -0.787 -0.3142
vn 0.6281 -0.7305 -0.268
vn 0.607 -0.7457 -0.2748
vn 0.555 -0.7693 -0.3163
vn 0.4234 -0.8331 -0.3558
vn 0.2322 -0.8683 -0.4383
vn 0.0011 -0.8534 -0.5213
vn -0.1311 -0.7608 -0.6355
vn -0.1499 -0.7465 -0.6482
vn -0.0517 -0.7992 -0.5988
vn 0.0486 -0.841 -0.5388
vn -0.0656 -0.7823 -0.6195
vn 0.2035 -0.7134 -0.6705
vn 0.0945 -0.7078 -0.7001
vn 0.0668 -0.7416 -0.6675
vn 0.1684 -0.7629 -0.6242
vn 0.2918 -0.7722 -0.5643
vn 0.3188 -0.715 -0.6221
vn 0.3313 -0.6847 -0.6492
vn 0.2028 -0.6907 -0.6941
vn 0.0715 -0.7024 -0.7082
vn 0.4277 -0.7087 -0.5609
vn 0.4144 -0.7577 -0.5041
vn 0.5103 -0.7323 -0.4509
vn 0.5179 -0.6989 -0.4933
vn 0.5382 -0.6926 -0.4803
vn 0.446 -0.6856 -0.5753
vn 0.4125 -0.8047 -0.4268
vn 0.2594 -0.8288 -0.4957
vn 0.5214 -0.7631 -0.3817
vn 0.1103 -0.8111 -0.5744
vn 0.0064 -0.7739 -0.6333
vn 0.1716 -0.6896 -0.7035
vn 0.0086 -0.716 -0.698
vn 0.3336 -0.679 -0.654
vn 0.3178 -0.7173 -0.62
vn 0.0808 -0.7299 -0.6787
vn -0.0307 -0.7267 -0.6862
vn 0.4726 -0.6833 -0.5565
vn 0.5691 -0.7043 -0.4242
vn 0.5844 -0.7139 -0.3858
vn 0.5101 -0.7209 -0.4691
vn -0.9884 -0.1473 -0.0361
vn -0.8806 -0.3714 0.2941
vn -0.9825 -0.0705 -0.1724
vn -0.0307 -0.7267 -0.6862
vn -0.079 -0.6799 0.729
vn 0.3227 -0.3453 0.8813
vn -0.2449 -0.8083 0.5354
vn 0.5844 -0.7139 -0.3858
vn 0.846 0.4552 0.2774
vn 0.8282 0.5597 -0.0275
vn 0.8333 0.3278 0.4451
vn 0.6281 -0.7305 -0.268
vn -0.1254 0.4518 -0.8833
vn -0.5054 0.5322 -0.6792
vn 0.3996 0.3799 -0.8342
vn -0.1499 -0.7465 -0.6482
vn -0.7533 0.4223 -0.5043
vn -0.8737 0.2923 -0.3888
vn -0.503 -0.6889 0.5218
vn 0.6403 -0.1136 0.7597
vn 0.7415 -0.0349 0.67
vn 0.7583 0.4703 -0.4514
vn 0.8174 0.2115 0.5358
vn 0.8083 0.1332 0.5735
vn -0.9315 0.1752 -0.3187
vn -0.9529 0.0967 -0.2872
vn -0.9669 0.0185 -0.2546
vn 0.7938 0.0551 0.6056
vt 0.839504 0.118056
vt 0.856743 0.205307
vt 0.741230 0.205307
vt 0.734555 0.106726
vt 0.724541 0.032791
vt 0.813647 0.052618
vt 0.868992 0.081539
vt 0.913398 0.129584
vt 0.940923 0.205307
vt 0.839504 0.292557
vt 0.813647 0.357995
vt 0.724541 0.377822
vt 0.734555 0.303887
vt 0.913398 0.281029
vt 0.868992 0.329074
vt 0.369475 0.299954
vt 0.368286 0.370940
vt 0.245840 0.351447
vt 0.246397 0.288815
vt 0.246768 0.205307
vt 0.370268 0.205307
vt 0.494283 0.205307
vt 0.492822 0.304944
vt 0.490632 0.379672
vt 0.369475 0.110659
vt 0.246397 0.121798
vt 0.245841 0.059166
vt 0.368286 0.039673
vt 0.490632 0.030941
vt 0.492822 0.105669
vt 0.616755 0.103478
vt 0.619174 0.205307
vt 0.613127 0.027106
vt 0.616755 0.307135
vt 0.613126 0.383507
vt 0.123273 0.268175
vt 0.123047 0.315326
vt 0.054743 0.283353
vt 0.030912 0.249131
vt 0.030973 0.205306
vt 0.123423 0.205306
vt 0.123273 0.142438
vt 0.030912 0.161481
vt 0.054744 0.127260
vt 0.123047 0.095287
vt 0.839504 0.118056
vt 0.856743 0.205307
vt 0.968983 0.205307
vt 0.938030 0.133427
vt 0.876123 0.061548
vt 0.805028 0.030806
vt 0.721203 0.008146
vt 0.734555 0.106726
vt 0.741230 0.205307
vt 0.839504 0.292557
vt 0.805028 0.379807
vt 0.876123 0.349065
vt 0.938030 0.277186
vt 0.734555 0.303887
vt 0.721203 0.402467
vt 0.369475 0.299954
vt 0.367890 0.394602
vt 0.489902 0.404581
vt 0.492822 0.304944
vt 0.494283 0.205307
vt 0.370268 0.205307
vt 0.246768 0.205307
vt 0.246397 0.288815
vt 0.245655 0.372324
vt 0.369475 0.110659
vt 0.492822 0.105669
vt 0.489902 0.006032
vt 0.367890 0.016011
vt 0.245655 0.038289
vt 0.246397 0.121798
vt 0.616755 0.103478
vt 0.619174 0.205307
vt 0.611917 0.001649
vt 0.616755 0.307135
vt 0.611917 0.408964
vt 0.123273 0.268175
vt 0.122972 0.331043
vt 0.123423 0.205306
vt 0.000156 0.205306
vt 0.000125 0.242784
vt 0.000064 0.280261
vt 0.123273 0.142438
vt 0.122972 0.079570
vt 0.000064 0.130352
vt 0.000125 0.167829
vt 0.122972 0.331043
vt 0.030806 0.283587
vt 0.245655 0.372324
vt 0.030806 0.283587
vt 0.000125 0.167829
vt 0.030806 0.127026
vt 0.000156 0.205306
vt 0.030806 0.127026
vt 0.805028 0.030806
vt 0.873826 0.071832
vt 0.721203 0.008146
vt 0.873826 0.071832
vt 0.938030 0.277186
vt 0.873826 0.338781
vt 0.968983 0.205307
vt 0.873826 0.338781
vt 0.805028 0.379807
vt 0.721203 0.402467
vt 0.000125 0.242784
vt 0.122972 0.079570
vt 0.245655 0.038289
vt 0.938030 0.133427
vt 0.611917 0.001649
vt 0.489902 0.006032
vt 0.611917 0.408964
vt 0.489902 0.404581
vt 0.367890 0.394602
vt 0.367890 0.016011
f 1/1/1 2/2/2 3/3/3
f 1/1/1 3/3/3 4/4/4
f 1/1/1 4/4/4 5/5/5
f 1/1/1 5/5/5 6/6/6
f 1/1/1 6/6/6 7/7/7
f 1/1/1 7/7/7 8/8/8
f 1/1/1 8/8/8 9/9/9
f 1/1/1 9/9/9 2/2/2
f 10/10/10 11/11/11 12/12/12
f 10/10/10 12/12/12 13/13/13
f 10/10/10 13/13/13 3/3/3
f 10/10/10 3/3/3 2/2/2
f 10/10/10 2/2/2 9/9/9
f 10/10/10 9/9/9 14/14/14
f 10/10/10 14/14/14 15/15/15
f 10/10/10 15/15/15 11/11/11
f 16/16/16 17/17/17 18/18/18
f 16/16/16 18/18/18 19/19/19
f 16/16/16 19/19/19 20/20/20
f 16/16/16 20/20/20 21/21/21
f 16/16/16 21/21/21 22/22/22
f 16/16/16 22/22/22 23/23/23
f 16/16/16 23/23/23 24/24/24
f 16/16/16 24/24/24 17/17/17
f 25/25/25 21/21/21 20/20/20
f 25/25/25 20/20/20 26/26/26
f 25/25/25 26/26/26 27/27/27
f 25/25/25 27/27/27 28/28/28
f 25/25/25 28/28/28 29/29/29
f 25/25/25 29/29/29 30/30/30
f 25/25/25 30/30/30 22/22/22
f 25/25/25 22/22/22 21/21/21
f 31/31/31 32/32/32 22/22/22
f 31/31/31 22/22/22 30/30/30
f 31/31/31 30/30/30 29/29/29
f 31/31/31 29/29/29 33/33/33
f 31/31/31 33/33/33 5/5/5
f 31/31/31 5/5/5 4/4/4
f 31/31/31 4/4/4 3/3/3
f 31/31/31 3/3/3 32/32/32
f 34/34/34 35/35/35 24/24/24
f 34/34/34 24/24/24 23/23/23
f 34/34/34 23/23/23 22/22/22
f 34/34/34 22/22/22 32/32/32
f 34/34/34 32/32/32 3/3/3
f 34/34/34 3/3/3 13/13/13
f 34/34/34 13/13/13 12/12/12
f 34/34/34 12/12/12 35/35/35
f 36/36/36 37/37/37 38/38/38
f 36/36/36 38/38/38 39/39/39
f 36/36/36 39/39/39 40/40/40
f 36/36/36 40/40/40 41/41/41
f 36/36/36 41/41/41 20/20/20
f 36/36/36 20/20/20 19/19/19
f 36/36/36 19/19/19 18/18/18
f 36/36/36 18/18/18 37/37/37
f 42/42/42 41/41/41 40/40/40
f 42/42/42 40/40/40 43/43/43
f 42/42/42 43/43/43 44/44/44
f 42/42/42 44/44/44 45/45/45
f 42/42/42 45/45/45 27/27/27
f 42/42/42 27/27/27 26/26/26
f 42/42/42 26/26/26 20/20/20
f 42/42/42 20/20/20 41/41/41
f 46/46/46 47/47/47 48/48/48
f 46/46/46 48/48/48 49/49/49
f 46/46/46 49/49/49 50/50/50
f 46/46/46 50/50/50 51/51/51
f 46/46/46 51/51/51 52/52/52
f 46/46/46 52/52/52 53/53/53
f 46/46/46 53/53/53 54/54/54
f 46/46/46 54/54/54 47/47/47
f 55/55/55 56/56/56 57/57/57
f 55/55/55 57/57/57 58/58/58
f 55/55/55 58/58/58 48/48/48
f 55/55/55 48/48/48 47/47/47
f 55/55/55 47/47/47 54/54/54
f 55/55/55 54/54/54 59/59/59
f 55/55/55 59/59/59 60/60/60
f 55/55/55 60/60/60 56/56/56
f 61/61/61 62/62/62 63/63/63
f 61/61/61 63/63/63 64/64/64
f 61/61/61 64/64/64 65/65/65
f 61/61/61 65/65/65 66/66/66
f 61/61/61 66/66/66 67/67/67
f 61/61/61 67/67/67 68/68/68
f 61/61/61 68/68/68 69/69/69
f 61/61/61 69/69/69 62/62/62
f 70/70/70 66/66/66 65/65/65
f 70/70/70 65/65/65 71/71/71
f 70/70/70 71/71/71 72/72/72
f 70/70/70 72/72/72 73/73/73
f 70/70/70 73/73/73 74/74/74
f 70/70/70 74/74/74 75/75/75
f 70/70/70 75/75/75 67/67/67
f 70/70/70 67/67/67 66/66/66
f 76/76/76 77/77/77 54/54/54
f 76/76/76 54/54/54 53/53/53
f 76/76/76 53/53/53 52/52/52
f 76/76/76 52/52/52 78/78/78
f 76/76/76 78/78/78 72/72/72
f 76/76/76 72/72/72 71/71/71
f 76/76/76 71/71/71 65/65/65
f 76/76/76 65/65/65 77/77/77
f 79/79/79 80/80/80 60/60/60
f 79/79/79 60/60/60 59/59/59
f 79/79/79 59/59/59 54/54/54
f 79/79/79 54/54/54 77/77/77
f 79/79/79 77/77/77 65/65/65
f 79/79/79 65/65/65 64/64/64
f 79/79/79 64/64/64 63/63/63
f 79/79/79 63/63/63 80/80/80
f 81/81/81 82/82/82 69/69/69
f 81/81/81 69/69/69 68/68/68
f 81/81/81 68/68/68 67/67/67
f 81/81/81 67/67/67 83/83/83
f 81/81/81 83/83/83 84/84/84
f 81/81/81 84/84/84 85/85/85
f 81/81/81 85/85/85 86/86/86
f 81/81/81 86/86/86 82/82/82
f 87/87/87 83/83/83 67/67/67
f 87/87/87 67/67/67 75/75/75
f 87/87/87 75/75/75 74/74/74
f 87/87/87 74/74/74 88/88/88
f 87/87/87 88/88/88 89/89/89
f 87/87/87 89/89/89 90/90/90
f 87/87/87 90/90/90 84/84/84
f 87/87/87 84/84/84 83/83/83
f 91/91/91 92/92/92 38/38/38
f 91/91/91 38/38/38 37/37/37
f 91/91/91 37/37/37 18/18/18
f 91/91/91 18/18/18 93/93/93
f 91/91/91 93/93/93 69/69/69
f 91/91/91 69/69/69 82/82/82
f 91/91/91 82/82/82 94/94/94
f 91/91/91 94/94/94 92/92/92
f 95/95/95 96/96/96 44/44/44
f 95/95/95 44/44/44 43/43/43
f 95/95/95 43/43/43 40/40/40
f 95/95/95 40/40/40 97/97/97
f 95/95/95 97/97/97 84/84/84
f 95/95/95 84/84/84 90/90/90
f 95/95/95 90/90/90 98/98/98
f 95/95/95 98/98/98 96/96/96
f 99/99/99 100/100/100 7/7/7
f 99/99/99 7/7/7 6/6/6
f 99/99/99 6/6/6 5/5/5
f 99/99/99 5/5/5 101/101/101
f 99/99/99 101/101/101 52/52/52
f 99/99/99 52/52/52 51/51/51
f 99/99/99 51/51/51 102/102/102
f 99/99/99 102/102/102 100/100/100
f 103/103/103 104/104/104 15/15/15
f 103/103/103 15/15/15 14/14/14
f 103/103/103 14/14/14 9/9/9
f 103/103/103 9/9/9 105/105/105
f 103/103/103 105/105/105 48/48/48
f 103/103/103 48/48/48 58/58/58
f 103/103/103 58/58/58 106/106/106
f 103/103/103 106/106/106 104/104/104
f 107/107/107 108/108/108 12/12/12
f 107/107/107 12/12/12 11/11/11
f 107/107/107 11/11/11 15/15/15
f 107/107/107 15/15/15 104/104/104
f 107/107/107 104/104/104 106/106/106
f 107/107/107 106/106/106 56/56/56
f 107/107/107 56/56/56 60/60/60
f 107/107/107 60/60/60 108/108/108
f 109/109/109 97/97/97 40/40/40
f 109/109/109 40/40/40 39/39/39
f 109/109/109 39/39/39 38/38/38
f 109/109/109 38/38/38 92/92/92
f 109/109/109 92/92/92 94/94/94
f 109/109/109 94/94/94 85/85/85
f 109/109/109 85/85/85 84/84/84
f 109/109/109 84/84/84 97/97/97
f 110/110/110 111/111/111 27/27/27
f 110/110/110 27/27/27 45/45/45
f 110/110/110 45/45/45 44/44/44
f 110/110/110 44/44/44 96/96/96
f 110/110/110 96/96/96 98/98/98
f 110/110/110 98/98/98 88/88/88
f 110/110/110 88/88/88 74/74/74
f 110/110/110 74/74/74 111/111/111
f 112/112/112 105/105/105 9/9/9
f 112/112/112 9/9/9 8/8/8
f 112/112/112 8/8/8 7/7/7
f 112/112/112 7/7/7 100/100/100
f 112/112/112 100/100/100 102/102/102
f 112/112/112 102/102/102 49/49/49
f 112/112/112 49/49/49 48/48/48
f 112/112/112 48/48/48 105/105/105
f 113/113/113 101/101/101 5/5/5
f 113/113/113 5/5/5 33/33/33
f 113/113/113 33/33/33 29/29/29
f 113/113/113 29/29/29 114/114/114
f 113/113/113 114/114/114 72/72/72
f 113/113/113 72/72/72 78/78/78
f 113/113/113 78/78/78 52/52/52
f 113/113/113 52/52/52 101/101/101
f 115/115/115 116/116/116 24/24/24
f 115/115/115 24/24/24 35/35/35
f 115/115/115 35/35/35 12/12/12
f 115/115/115 12/12/12 108/108/108
f 115/115/115 108/108/108 60/60/60
f 115/115/115 60/60/60 80/80/80
f 115/115/115 80/80/80 63/63/63
f 115/115/115 63/63/63 116/116/116
f 117/117/117 93/93/93 18/18/18
f 117/117/117 18/18/18 17/17/17
f 117/117/117 17/17/17 24/24/24
f 117/117/117 24/24/24 116/116/116
f 117/117/117 116/116/116 63/63/63
f 117/117/117 63/63/63 62/62/62
f 117/117/117 62/62/62 69/69/69
f 117/117/117 69/69/69 93/93/93
f 118/118/118 114/114/114 29/29/29
f 118/118/118 29/29/29 28/28/28
f 118/118/118 28/28/28 27/27/27
f 118/118/118 27/27/27 111/111/111
f 118/118/118 111/111/111 74/74/74
f 118/118/118 74/74/74 73/73/73
f 118/118/118 73/73/73 72/72/72
f 118/118/118 72/72/72 114/114/114
