v -2.369291 0.793274 -1.175307
v -2.369899 0.793823 -1.1736
v -2.367979 0.792307 -1.172997
v -2.367534 0.791811 -1.174994
v -2.366993 0.791501 -1.176501
v -2.368491 0.79283 -1.176558
v -2.369583 0.793607 -1.176235
v -2.370605 0.794256 -1.175444
v -2.371362 0.794869 -1.174026
v -2.369549 0.794336 -1.171812
v -2.368944 0.794692 -1.170429
v -2.367507 0.793617 -1.169539
v -2.367827 0.793018 -1.171022
v -2.370829 0.795175 -1.172419
v -2.36995 0.795115 -1.171272
v -2.362795 0.787302 -1.168957
v -2.362725 0.787845 -1.16751
v -2.361338 0.785538 -1.167139
v -2.361412 0.785053 -1.168419
v -2.361411 0.78446 -1.170128
v -2.362784 0.786636 -1.17089
v -2.364306 0.788702 -1.171631
v -2.364304 0.78941 -1.169611
v -2.364208 0.789995 -1.168101
v -2.362507 0.786119 -1.172849
v -2.361157 0.784007 -1.17186
v -2.360893 0.783705 -1.17317
v -2.362221 0.785772 -1.174329
v -2.36368 0.787828 -1.175234
v -2.364003 0.788173 -1.173682
v -2.365725 0.79009 -1.174425
v -2.366076 0.790596 -1.172337
v -2.36533 0.789786 -1.176009
v -2.36603 0.791346 -1.170294
v -2.365865 0.791985 -1.16877
v -2.360062 0.782697 -1.168082
v -2.359968 0.78308 -1.167129
v -2.359266 0.781593 -1.167359
v -2.359084 0.780877 -1.167901
v -2.359143 0.780543 -1.168769
v -2.360091 0.782239 -1.169355
v -2.359872 0.781916 -1.170651
v -2.358954 0.780343 -1.169661
v -2.359032 0.780631 -1.170526
v -2.359635 0.781711 -1.171633
v -2.369421 0.793125 -1.1753
v -2.370032 0.79368 -1.173566
v -2.37146 0.79476 -1.174
v -2.3707 0.794142 -1.17544
v -2.369653 0.793522 -1.176238
v -2.368587 0.792716 -1.176567
v -2.367093 0.791391 -1.176507
v -2.36767 0.791667 -1.174986
v -2.368117 0.792169 -1.172966
v -2.369683 0.794203 -1.171752
v -2.369044 0.794598 -1.170372
v -2.370023 0.795043 -1.171233
v -2.370927 0.795074 -1.172373
v -2.367967 0.792888 -1.170967
v -2.367612 0.793525 -1.169487
v -2.362959 0.787196 -1.168919
v -2.362848 0.787768 -1.167473
v -2.364325 0.789914 -1.16806
v -2.364461 0.789297 -1.169568
v -2.364463 0.788582 -1.171606
v -2.362947 0.786525 -1.170868
v -2.361579 0.784355 -1.170108
v -2.36158 0.784953 -1.168382
v -2.361465 0.785466 -1.167103
v -2.362669 0.786003 -1.172844
v -2.364158 0.788049 -1.173675
v -2.363795 0.787732 -1.175238
v -2.362341 0.785683 -1.174334
v -2.361016 0.78362 -1.173177
v -2.361323 0.783897 -1.171858
v -2.36587 0.789956 -1.174417
v -2.366224 0.790466 -1.172308
v -2.365438 0.789683 -1.176013
v -2.366179 0.791223 -1.170245
v -2.365976 0.791898 -1.168724
v -2.360232 0.7826 -1.168046
v -2.360096 0.78301 -1.167093
v -2.360261 0.782136 -1.169336
v -2.35927 0.780466 -1.168756
v -2.359212 0.780806 -1.167873
v -2.35936 0.781541 -1.167335
v -2.36004 0.781809 -1.17065
v -2.35976 0.781628 -1.171642
v -2.359124 0.78057 -1.17053
v -2.35908 0.780262 -1.169661
v -2.359994 0.783177 -1.166793
v -2.359013 0.781155 -1.167204
v -2.36137 0.785668 -1.166695
v -2.35936 0.781541 -1.167335
v -2.358704 0.779782 -1.169331
v -2.358779 0.780191 -1.170377
v -2.358884 0.779943 -1.168568
v -2.359124 0.78057 -1.17053
v -2.368267 0.79263 -1.176982
v -2.369626 0.793639 -1.176472
v -2.366857 0.791349 -1.177009
v -2.369653 0.793522 -1.176238
v -2.371298 0.79541 -1.172601
v -2.370023 0.795271 -1.171102
v -2.371893 0.795169 -1.174156
v -2.370023 0.795043 -1.171233
v -2.368787 0.79477 -1.16994
v -2.367447 0.793777 -1.169019
v -2.358815 0.780239 -1.167828
v -2.359611 0.781605 -1.171967
v -2.360859 0.783566 -1.173612
v -2.371085 0.794532 -1.175488
v -2.365246 0.789638 -1.176541
v -2.363623 0.78767 -1.175755
v -2.365859 0.792161 -1.168239
v -2.364228 0.790155 -1.167577
v -2.362756 0.787992 -1.167009
v -2.362179 0.785617 -1.174827
vn 0.6155 0.7874 0.0331
vn 0.6297 0.755 -0.1829
vn 0.6749 0.7184 -0.1684
vn 0.6646 0.7468 0.025
vn 0.6843 0.7288 0.0221
vn 0.6174 0.7862 0.0253
vn 0.5672 0.8231 0.0266
vn 0.55 0.8347 -0.0277
vn 0.5547 0.8066 -0.2042
vn 0.646 0.6619 -0.3802
vn 0.6469 0.6652 -0.3729
vn 0.7103 0.622 -0.3295
vn 0.6919 0.6344 -0.3445
vn 0.5752 0.7319 -0.3652
vn 0.599 0.693 -0.4011
vn 0.8405 0.5018 -0.2043
vn 0.8452 0.5076 -0.1669
vn 0.862 0.4826 -0.155
vn 0.8578 0.4724 -0.2024
vn 0.8605 0.5015 -0.0888
vn 0.8383 0.5358 -0.1009
vn 0.7889 0.6017 -0.1245
vn 0.7964 0.5559 -0.2379
vn 0.8073 0.5524 -0.2076
vn 0.8252 0.5648 0.0032
vn 0.8414 0.5401 0.0203
vn 0.8523 0.5225 -0.0237
vn 0.8351 0.5492 -0.03
vn 0.7939 0.6074 -0.0266
vn 0.7793 0.6267 -0.0051
vn 0.719 0.6949 0.003
vn 0.7278 0.6692 -0.1495
vn 0.7395 0.6731 -0.0063
vn 0.7407 0.6058 -0.2904
vn 0.7588 0.5936 -0.2679
vn 0.864 0.4517 -0.2224
vn 0.8717 0.4594 -0.1707
vn 0.8791 0.4345 -0.1958
vn 0.8896 0.3966 -0.2264
vn 0.8967 0.4376 -0.0667
vn 0.8705 0.4851 -0.0831
vn 0.8439 0.5342 0.049
vn 0.8665 0.4916 0.0863
vn 0.8617 0.5059 0.0389
vn 0.8587 0.5124 0.0034
vn -0.6271 -0.7761 -0.0658
vn -0.6423 -0.7452 0.179
vn -0.6897 -0.7054 0.1634
vn -0.6544 -0.7382 -0.1637
vn -0.6357 -0.7183 -0.2826
vn -0.6374 -0.7263 -0.257
vn -0.6611 -0.7258 -0.1902
vn -0.6626 -0.7478 -0.0402
vn -0.6748 -0.7185 0.1685
vn -0.6615 -0.6348 0.3993
vn -0.6955 -0.4879 0.5275
vn -0.6968 -0.4672 0.5442
vn -0.7 -0.5503 0.4551
vn -0.692 -0.6269 0.3579
vn -0.7098 -0.5254 0.4691
vn -0.8394 -0.4971 0.2198
vn -0.8248 -0.4618 0.3263
vn -0.7928 -0.498 0.3513
vn -0.7957 -0.5507 0.252
vn -0.789 -0.6016 0.1245
vn -0.8383 -0.5357 0.1008
vn -0.8606 -0.5014 0.0887
vn -0.8553 -0.4686 0.221
vn -0.8225 -0.4498 0.3481
vn -0.8217 -0.5695 -0.0184
vn -0.7764 -0.6301 -0.0093
vn -0.7579 -0.6412 -0.1197
vn -0.7915 -0.5985 -0.1234
vn -0.7858 -0.6005 -0.1478
vn -0.8363 -0.547 -0.0373
vn -0.7164 -0.6974 -0.0172
vn -0.7278 -0.6692 0.1495
vn -0.7064 -0.6934 -0.1418
vn -0.7401 -0.5999 0.3038
vn -0.7469 -0.5271 0.4053
vn -0.8522 -0.4586 0.2519
vn -0.7933 -0.4536 0.4061
vn -0.8645 -0.4951 0.0865
vn -0.8366 -0.5382 0.1017
vn -0.8054 -0.4864 0.3386
vn -0.7706 -0.4596 0.4414
vn -0.8286 -0.5557 -0.0678
vn -0.749 -0.6348 -0.1896
vn -0.7221 -0.6584 -0.2121
vn -0.7718 -0.6249 -0.1174
vn 0.2974 0.0633 0.9526
vn 0.5059 -0.2674 0.8201
vn 0.1896 0.1754 0.9661
vn -0.7706 -0.4596 0.4414
vn 0.5354 -0.8432 0.0479
vn 0.6004 -0.6558 -0.4575
vn 0.3931 -0.8713 0.2936
vn -0.7221 -0.6584 -0.2121
vn 0.0414 0.1767 -0.9834
vn -0.2043 0.3717 -0.9056
vn 0.1689 0.0086 -0.9856
vn -0.6357 -0.7183 -0.2826
vn -0.6505 0.7174 0.2491
vn -0.3086 0.8021 0.5113
vn -0.8153 0.5346 -0.2224
vn -0.6968 -0.4672 0.5442
vn -0.0842 0.693 0.716
vn 0.0347 0.5598 0.8279
vn 0.5022 -0.7058 0.4996
vn 0.4257 -0.4623 -0.7778
vn 0.3251 -0.3811 -0.8655
vn -0.5817 0.4324 -0.6889
vn 0.2306 -0.1245 -0.9651
vn 0.2506 -0.2076 -0.9456
vn 0.0929 0.4405 0.8929
vn 0.1118 0.3617 0.9256
vn 0.1292 0.281 0.951
vn 0.2677 -0.2876 -0.9196
vt 0.839504 0.118056
vt 0.856743 0.205307
vt 0.741230 0.205307
vt 0.734555 0.106726
vt 0.724541 0.032791
vt 0.813647 0.052618
vt 0.868992 0.081539
vt 0.913398 0.129584
vt 0.940923 0.205307
vt 0.839504 0.292557
vt 0.813647 0.357995
vt 0.724541 0.377822
vt 0.734555 0.303887
vt 0.913398 0.281029
vt 0.868992 0.329074
vt 0.369475 0.299954
vt 0.368286 0.370940
vt 0.245840 0.351447
vt 0.246397 0.288815
vt 0.246768 0.205307
vt 0.370268 0.205307
vt 0.494283 0.205307
vt 0.492822 0.304944
vt 0.490632 0.379672
vt 0.369475 0.110659
vt 0.246397 0.121798
vt 0.245841 0.059166
vt 0.368286 0.039673
vt 0.490632 0.030941
vt 0.492822 0.105669
vt 0.616755 0.103478
vt 0.619174 0.205307
vt 0.613127 0.027106
vt 0.616755 0.307135
vt 0.613126 0.383507
vt 0.123273 0.268175
vt 0.123047 0.315326
vt 0.054743 0.283353
vt 0.030912 0.249131
vt 0.030973 0.205306
vt 0.123423 0.205306
vt 0.123273 0.142438
vt 0.030912 0.161481
vt 0.054744 0.127260
vt 0.123047 0.095287
vt 0.839504 0.118056
vt 0.856743 0.205307
vt 0.968983 0.205307
vt 0.938030 0.133427
vt 0.876123 0.061548
vt 0.805028 0.030806
vt 0.721203 0.008146
vt 0.734555 0.106726
vt 0.741230 0.205307
vt 0.839504 0.292557
vt 0.805028 0.379807
vt 0.876123 0.349065
vt 0.938030 0.277186
vt 0.734555 0.303887
vt 0.721203 0.402467
vt 0.369475 0.299954
vt 0.367890 0.394602
vt 0.489902 0.404581
vt 0.492822 0.304944
vt 0.494283 0.205307
vt 0.370268 0.205307
vt 0.246768 0.205307
vt 0.246397 0.288815
vt 0.245655 0.372324
vt 0.369475 0.110659
vt 0.492822 0.105669
vt 0.489902 0.006032
vt 0.367890 0.016011
vt 0.245655 0.038289
vt 0.246397 0.121798
vt 0.616755 0.103478
vt 0.619174 0.205307
vt 0.611917 0.001649
vt 0.616755 0.307135
vt 0.611917 0.408964
vt 0.123273 0.268175
vt 0.122972 0.331043
vt 0.123423 0.205306
vt 0.000156 0.205306
vt 0.000125 0.242784
vt 0.000064 0.280261
vt 0.123273 0.142438
vt 0.122972 0.079570
vt 0.000064 0.130352
vt 0.000125 0.167829
vt 0.122972 0.331043
vt 0.030806 0.283587
vt 0.245655 0.372324
vt 0.030806 0.283587
vt 0.000125 0.167829
vt 0.030806 0.127026
vt 0.000156 0.205306
vt 0.030806 0.127026
vt 0.805028 0.030806
vt 0.873826 0.071832
vt 0.721203 0.008146
vt 0.873826 0.071832
vt 0.938030 0.277186
vt 0.873826 0.338781
vt 0.968983 0.205307
vt 0.873826 0.338781
vt 0.805028 0.379807
vt 0.721203 0.402467
vt 0.000125 0.242784
vt 0.122972 0.079570
vt 0.245655 0.038289
vt 0.938030 0.133427
vt 0.611917 0.001649
vt 0.489902 0.006032
vt 0.611917 0.408964
vt 0.489902 0.404581
vt 0.367890 0.394602
vt 0.367890 0.016011
f 1/1/1 2/2/2 3/3/3
f 1/1/1 3/3/3 4/4/4
f 1/1/1 4/4/4 5/5/5
f 1/1/1 5/5/5 6/6/6
f 1/1/1 6/6/6 7/7/7
f 1/1/1 7/7/7 8/8/8
f 1/1/1 8/8/8 9/9/9
f 1/1/1 9/9/9 2/2/2
f 10/10/10 11/11/11 12/12/12
f 10/10/10 12/12/12 13/13/13
f 10/10/10 13/13/13 3/3/3
f 10/10/10 3/3/3 2/2/2
f 10/10/10 2/2/2 9/9/9
f 10/10/10 9/9/9 14/14/14
f 10/10/10 14/14/14 15/15/15
f 10/10/10 15/15/15 11/11/11
f 16/16/16 17/17/17 18/18/18
f 16/16/16 18/18/18 19/19/19
f 16/16/16 19/19/19 20/20/20
f 16/16/16 20/20/20 21/21/21
f 16/16/16 21/21/21 22/22/22
f 16/16/16 22/22/22 23/23/23
f 16/16/16 23/23/23 24/24/24
f 16/16/16 24/24/24 17/17/17
f 25/25/25 21/21/21 20/20/20
f 25/25/25 20/20/20 26/26/26
f 25/25/25 26/26/26 27/27/27
f 25/25/25 27/27/27 28/28/28
f 25/25/25 28/28/28 29/29/29
f 25/25/25 29/29/29 30/30/30
f 25/25/25 30/30/30 22/22/22
f 25/25/25 22/22/22 21/21/21
f 31/31/31 32/32/32 22/22/22
f 31/31/31 22/22/22 30/30/30
f 31/31/31 30/30/30 29/29/29
f 31/31/31 29/29/29 33/33/33
f 31/31/31 33/33/33 5/5/5
f 31/31/31 5/5/5 4/4/4
f 31/31/31 4/4/4 3/3/3
f 31/31/31 3/3/3 32/32/32
f 34/34/34 35/35/35 24/24/24
f 34/34/34 24/24/24 23/23/23
f 34/34/34 23/23/23 22/22/22
f 34/34/34 22/22/22 32/32/32
f 34/34/34 32/32/32 3/3/3
f 34/34/34 3/3/3 13/13/13
f 34/34/34 13/13/13 12/12/12
f 34/34/34 12/12/12 35/35/35
f 36/36/36 37/37/37 38/38/38
f 36/36/36 38/38/38 39/39/39
f 36/36/36 39/39/39 40/40/40
f 36/36/36 40/40/40 41/41/41
f 36/36/36 41/41/41 20/20/20
f 36/36/36 20/20/20 19/19/19
f 36/36/36 19/19/19 18/18/18
f 36/36/36 18/18/18 37/37/37
f 42/42/42 41/41/41 40/40/40
f 42/42/42 40/40/40 43/43/43
f 42/42/42 43/43/43 44/44/44
f 42/42/42 44/44/44 45/45/45
f 42/42/42 45/45/45 27/27/27
f 42/42/42 27/27/27 26/26/26
f 42/42/42 26/26/26 20/20/20
f 42/42/42 20/20/20 41/41/41
f 46/46/46 47/47/47 48/48/48
f 46/46/46 48/48/48 49/49/49
f 46/46/46 49/49/49 50/50/50
f 46/46/46 50/50/50 51/51/51
f 46/46/46 51/51/51 52/52/52
f 46/46/46 52/52/52 53/53/53
f 46/46/46 53/53/53 54/54/54
f 46/46/46 54/54/54 47/47/47
f 55/55/55 56/56/56 57/57/57
f 55/55/55 57/57/57 58/58/58
f 55/55/55 58/58/58 48/48/48
f 55/55/55 48/48/48 47/47/47
f 55/55/55 47/47/47 54/54/54
f 55/55/55 54/54/54 59/59/59
f 55/55/55 59/59/59 60/60/60
f 55/55/55 60/60/60 56/56/56
f 61/61/61 62/62/62 63/63/63
f 61/61/61 63/63/63 64/64/64
f 61/61/61 64/64/64 65/65/65
f 61/61/61 65/65/65 66/66/66
f 61/61/61 66/66/66 67/67/67
f 61/61/61 67/67/67 68/68/68
f 61/61/61 68/68/68 69/69/69
f 61/61/61 69/69/69 62/62/62
f 70/70/70 66/66/66 65/65/65
f 70/70/70 65/65/65 71/71/71
f 70/70/70 71/71/71 72/72/72
f 70/70/70 72/72/72 73/73/73
f 70/70/70 73/73/73 74/74/74
f 70/70/70 74/74/74 75/75/75
f 70/70/70 75/75/75 67/67/67
f 70/70/70 67/67/67 66/66/66
f 76/76/76 77/77/77 54/54/54
f 76/76/76 54/54/54 53/53/53
f 76/76/76 53/53/53 52/52/52
f 76/76/76 52/52/52 78/78/78
f 76/76/76 78/78/78 72/72/72
f 76/76/76 72/72/72 71/71/71
f 76/76/76 71/71/71 65/65/65
f 76/76/76 65/65/65 77/77/77
f 79/79/79 80/80/80 60/60/60
f 79/79/79 60/60/60 59/59/59
f 79/79/79 59/59/59 54/54/54
f 79/79/79 54/54/54 77/77/77
f 79/79/79 77/77/77 65/65/65
f 79/79/79 65/65/65 64/64/64
f 79/79/79 64/64/64 63/63/63
f 79/79/79 63/63/63 80/80/80
f 81/81/81 82/82/82 69/69/69
f 81/81/81 69/69/69 68/68/68
f 81/81/81 68/68/68 67/67/67
f 81/81/81 67/67/67 83/83/83
f 81/81/81 83/83/83 84/84/84
f 81/81/81 84/84/84 85/85/85
f 81/81/81 85/85/85 86/86/86
f 81/81/81 86/86/86 82/82/82
f 87/87/87 83/83/83 67/67/67
f 87/87/87 67/67/67 75/75/75
f 87/87/87 75/75/75 74/74/74
f 87/87/87 74/74/74 88/88/88
f 87/87/87 88/88/88 89/89/89
f 87/87/87 89/89/89 90/90/90
f 87/87/87 90/90/90 84/84/84
f 87/87/87 84/84/84 83/83/83
f 91/91/91 92/92/92 38/38/38
f 91/91/91 38/38/38 37/37/37
f 91/91/91 37/37/37 18/18/18
f 91/91/91 18/18/18 93/93/93
f 91/91/91 93/93/93 69/69/69
f 91/91/91 69/69/69 82/82/82
f 91/91/91 82/82/82 94/94/94
f 91/91/91 94/94/94 92/92/92
f 95/95/95 96/96/96 44/44/44
f 95/95/95 44/44/44 43/43/43
f 95/95/95 43/43/43 40/40/40
f 95/95/95 40/40/40 97/97/97
f 95/95/95 97/97/97 84/84/84
f 95/95/95 84/84/84 90/90/90
f 95/95/95 90/90/90 98/98/98
f 95/95/95 98/98/98 96/96/96
f 99/99/99 100/100/100 7/7/7
f 99/99/99 7/7/7 6/6/6
f 99/99/99 6/6/6 5/5/5
f 99/99/99 5/5/5 101/101/101
f 99/99/99 101/101/101 52/52/52
f 99/99/99 52/52/52 51/51/51
f 99/99/99 51/51/51 102/102/102
f 99/99/99 102/102/102 100/100/100
f 103/103/103 104/104/104 15/15/15
f 103/103/103 15/15/15 14/14/14
f 103/103/103 14/14/14 9/9/9
f 103/103/103 9/9/9 105/105/105
f 103/103/103 105/105/105 48/48/48
f 103/103/103 48/48/48 58/58/58
f 103/103/103 58/58/58 106/106/106
f 103/103/103 106/106/106 104/104/104
f 107/107/107 108/108/108 12/12/12
f 107/107/107 12/12/12 11/11/11
f 107/107/107 11/11/11 15/15/15
f 107/107/107 15/15/15 104/104/104
f 107/107/107 104/104/104 106/106/106
f 107/107/107 106/106/106 56/56/56
f 107/107/107 56/56/56 60/60/60
f 107/107/107 60/60/60 108/108/108
f 109/109/109 97/97/97 40/40/40
f 109/109/109 40/40/40 39/39/39
f 109/109/109 39/39/39 38/38/38
f 109/109/109 38/38/38 92/92/92
f 109/109/109 92/92/92 94/94/94
f 109/109/109 94/94/94 85/85/85
f 109/109/109 85/85/85 84/84/84
f 109/109/109 84/84/84 97/97/97
f 110/110/110 111/111/111 27/27/27
f 110/110/110 27/27/27 45/45/45
f 110/110/110 45/45/45 44/44/44
f 110/110/110 44/44/44 96/96/96
f 110/110/110 96/96/96 98/98/98
f 110/110/110 98/98/98 88/88/88
f 110/110/110 88/88/88 74/74/74
f 110/110/110 74/74/74 111/111/111
f 112/112/112 105/105/105 9/9/9
f 112/112/112 9/9/9 8/8/8
f 112/112/112 8/8/8 7/7/7
f 112/112/112 7/7/7 100/100/100
f 112/112/112 100/100/100 102/102/102
f 112/112/112 102/102/102 49/49/49
f 112/112/112 49/49/49 48/48/48
f 112/112/112 48/48/48 105/105/105
f 113/113/113 101/101/101 5/5/5
f 113/113/113 5/5/5 33/33/33
f 113/113/113 33/33/33 29/29/29
f 113/113/113 29/29/29 114/114/114
f 113/113/113 114/114/114 72/72/72
f 113/113/113 72/72/72 78/78/78
f 113/113/113 78/78/78 52/52/52
f 113/113/113 52/52/52 101/101/101
f 115/115/115 116/116/116 24/24/24
f 115/115/115 24/24/24 35/35/35
f 115/115/115 35/35/35 12/12/12
f 115/115/115 12/12/12 108/108/108
f 115/115/115 108/108/108 60/60/60
f 115/115/115 60/60/60 80/80/80
f 115/115/115 80/80/80 63/63/63
f 115/115/115 63/63/63 116/116/116
f 117/117/117 93/93/93 18/18/18
f 117/117/117 18/18/18 17/17/17
f 117/117/117 17/17/17 24/24/24
f 117/117/117 24/24/24 116/116/116
f 117/117/117 116/116/116 63/63/63
f 117/117/117 63/63/63 62/62/62
f 117/117/117 62/62/62 69/69/69
f 117/117/117 69/69/69 93/93/93
f 118/118/118 114/114/114 29/29/29
f 118/118/118 29/29/29 28/28/28
f 118/118/118 28/28/28 27/27/27
f 118/118/118 27/27/27 111/111/111
f 118/118/118 111/111/111 74/74/74
f 118/118/118 74/74/74 73/73/73
f 118/118/118 73/73/73 72/72/72
f 118/118/118 72/72/72 114/114/114
