v -2.304785 0.768545 -1.218842
v -2.302668 0.768034 -1.219754
v -2.30455 0.766128 -1.221399
v -2.306732 0.766869 -1.220141
v -2.308518 0.767509 -1.219407
v -2.306653 0.768894 -1.218485
v -2.305104 0.769469 -1.21801
v -2.303309 0.769616 -1.217898
v -2.301262 0.769347 -1.218483
v -2.301302 0.767486 -1.2216
v -2.300545 0.767038 -1.223323
v -2.301579 0.7654 -1.224902
v -2.302774 0.765666 -1.223276
v -2.300294 0.7687 -1.220286
v -2.300157 0.767966 -1.221928
v -2.308193 0.758491 -1.22728
v -2.306847 0.758174 -1.228626
v -2.30886 0.755533 -1.229301
v -2.310043 0.755808 -1.228099
v -2.311678 0.756239 -1.226606
v -2.310049 0.758985 -1.225602
v -2.308332 0.761591 -1.224434
v -2.306398 0.76109 -1.226205
v -2.305004 0.76078 -1.227638
v -2.312072 0.75967 -1.224208
v -2.313473 0.75685 -1.225382
v -2.314871 0.757359 -1.224541
v -2.313643 0.760239 -1.223243
v -2.312113 0.76294 -1.222008
v -2.310456 0.762322 -1.222991
v -2.308649 0.764758 -1.22158
v -2.306468 0.763976 -1.222996
v -2.310372 0.765444 -1.220655
v -2.304532 0.763507 -1.224841
v -2.303157 0.763252 -1.226369
v -2.312076 0.753133 -1.228696
v -2.311217 0.752953 -1.229636
v -2.312723 0.751535 -1.229546
v -2.313655 0.751113 -1.229039
v -2.314453 0.751293 -1.228212
v -2.313278 0.753435 -1.227549
v -2.314636 0.75391 -1.226668
v -2.315409 0.751646 -1.22765
v -2.315879 0.752494 -1.227046
v -2.315706 0.754317 -1.226081
v -2.304746 0.768372 -1.218669
v -2.302602 0.767852 -1.219601
v -2.301215 0.769209 -1.21837
v -2.303283 0.769486 -1.21777
v -2.30509 0.769375 -1.217911
v -2.306637 0.768771 -1.218346
v -2.308494 0.767389 -1.219267
v -2.306684 0.766702 -1.219966
v -2.304478 0.765952 -1.221241
v -2.30121 0.767298 -1.221469
v -2.300464 0.766895 -1.223236
v -2.300101 0.76786 -1.221862
v -2.300227 0.768557 -1.220191
v -2.302679 0.765485 -1.223138
v -2.301497 0.765263 -1.224808
v -2.308079 0.758345 -1.227116
v -2.306753 0.758062 -1.22851
v -2.304914 0.76066 -1.227528
v -2.306291 0.760932 -1.226047
v -2.308242 0.761438 -1.224261
v -2.309951 0.758843 -1.225424
v -2.311575 0.756105 -1.226424
v -2.309924 0.755668 -1.227932
v -2.308762 0.755426 -1.229183
v -2.311991 0.759533 -1.224017
v -2.310384 0.762176 -1.222805
v -2.312068 0.762833 -1.221862
v -2.313591 0.76014 -1.223094
v -2.314815 0.757266 -1.224389
v -2.313387 0.756721 -1.225188
v -2.308589 0.764601 -1.2214
v -2.306388 0.763811 -1.222831
v -2.310337 0.76533 -1.220513
v -2.304432 0.763337 -1.224692
v -2.303071 0.763122 -1.226267
v -2.311954 0.752996 -1.228528
v -2.311117 0.752849 -1.229518
v -2.313173 0.753303 -1.227367
v -2.314375 0.751195 -1.228075
v -2.313562 0.751011 -1.228914
v -2.312651 0.751458 -1.229457
v -2.31455 0.753785 -1.226472
v -2.315651 0.754227 -1.225927
v -2.315836 0.752426 -1.226935
v -2.315345 0.751552 -1.227502
v -2.310884 0.752847 -1.229899
v -2.31303 0.75098 -1.229727
v -2.30842 0.755393 -1.229651
v -2.312651 0.751458 -1.229457
v -2.315638 0.75085 -1.227911
v -2.316192 0.751941 -1.227223
v -2.31481 0.750535 -1.228372
v -2.315836 0.752426 -1.226935
v -2.307272 0.768957 -1.218302
v -2.305237 0.769649 -1.217808
v -2.309106 0.76767 -1.219098
v -2.30509 0.769375 -1.217911
v -2.299929 0.769041 -1.219806
v -2.299885 0.768023 -1.222046
v -2.300773 0.769723 -1.218009
v -2.300101 0.76786 -1.221862
v -2.300254 0.766824 -1.223861
v -2.301142 0.76525 -1.225405
v -2.31414 0.750394 -1.229098
v -2.31604 0.754414 -1.225815
v -2.315314 0.757488 -1.224191
v -2.302807 0.769915 -1.217527
v -2.310933 0.765623 -1.220282
v -2.312648 0.763099 -1.221614
v -2.302658 0.763108 -1.226835
v -2.304497 0.760623 -1.228069
v -2.306355 0.758018 -1.229024
v -2.314146 0.760386 -1.222854
vn -0.0757 0.6907 -0.7191
vn -0.2339 0.7717 -0.5914
vn -0.2695 0.7349 -0.6223
vn -0.1299 0.6618 -0.7384
vn -0.152 0.6486 -0.7458
vn -0.0824 0.6936 -0.7156
vn -0.0334 0.7226 -0.6905
vn -0.0514 0.759 -0.649
vn -0.1765 0.8236 -0.5389
vn -0.406 0.791 -0.4576
vn -0.4006 0.7904 -0.4634
vn -0.4331 0.7339 -0.5233
vn -0.4251 0.7515 -0.5046
vn -0.3213 0.8409 -0.4355
vn -0.3752 0.8265 -0.4197
vn -0.4892 0.573 -0.6575
vn -0.4666 0.5595 -0.685
vn -0.4802 0.5326 -0.6969
vn -0.5112 0.5474 -0.6625
vn -0.4301 0.5157 -0.7409
vn -0.4091 0.5504 -0.7277
vn -0.3647 0.617 -0.6973
vn -0.4592 0.6347 -0.6214
vn -0.4488 0.617 -0.6464
vn -0.3233 0.5227 -0.7888
vn -0.3334 0.4934 -0.8033
vn -0.3753 0.5009 -0.7799
vn -0.3572 0.5263 -0.7716
vn -0.3042 0.573 -0.761
vn -0.2732 0.5782 -0.7688
vn -0.2007 0.6304 -0.7498
vn -0.3127 0.6852 -0.6578
vn -0.2289 0.6171 -0.7528
vn -0.4351 0.7017 -0.5641
vn -0.438 0.6807 -0.5872
vn -0.5361 0.5399 -0.6488
vn -0.5058 0.521 -0.6876
vn -0.5365 0.5124 -0.6705
vn -0.5778 0.4955 -0.6485
vn -0.4658 0.4511 -0.7612
vn -0.4397 0.4991 -0.7467
vn -0.3194 0.4741 -0.8205
vn -0.3281 0.4196 -0.8463
vn -0.349 0.4554 -0.819
vn -0.3666 0.4787 -0.7977
vn 0.0674 -0.6649 0.7438
vn 0.2438 -0.7618 0.6001
vn 0.2815 -0.7217 0.6323
vn 0.0392 -0.5843 0.8106
vn -0.0399 -0.5065 0.8613
vn -0.0258 -0.5264 0.8498
vn 0.032 -0.5606 0.8275
vn 0.1185 -0.655 0.7463
vn 0.2695 -0.7349 0.6222
vn 0.4391 -0.7779 0.4494
vn 0.6009 -0.717 0.3533
vn 0.6207 -0.7074 0.338
vn 0.5338 -0.7345 0.419
vn 0.4366 -0.7516 0.4944
vn 0.5589 -0.7206 0.4102
vn 0.5 -0.5768 0.646
vn 0.5712 -0.599 0.5611
vn 0.5513 -0.6415 0.5334
vn 0.4697 -0.6373 0.6109
vn 0.3648 -0.6169 0.6973
vn 0.4092 -0.5503 0.7278
vn 0.4302 -0.5156 0.741
vn 0.5228 -0.5534 0.6484
vn 0.5882 -0.5995 0.5427
vn 0.3096 -0.5189 0.7967
vn 0.2609 -0.5738 0.7763
vn 0.1748 -0.5271 0.8316
vn 0.212 -0.4899 0.8456
vn 0.1921 -0.4792 0.8564
vn 0.3164 -0.4906 0.8119
vn 0.189 -0.6254 0.7571
vn 0.3127 -0.6852 0.6577
vn 0.1057 -0.5589 0.8225
vn 0.4455 -0.7033 0.5539
vn 0.5429 -0.6917 0.4762
vn 0.5441 -0.5601 0.6246
vn 0.6037 -0.6307 0.4875
vn 0.4339 -0.5092 0.7432
vn 0.4076 -0.5528 0.7268
vn 0.5562 -0.6257 0.5469
vn 0.6083 -0.6527 0.4515
vn 0.2886 -0.4825 0.8269
vn 0.1278 -0.4861 0.8645
vn 0.0862 -0.494 0.8651
vn 0.192 -0.515 0.8354
vn 0.4252 -0.4102 -0.8068
vn 0.0704 -0.6204 -0.7811
vn 0.5506 -0.325 -0.7689
vn 0.6083 -0.6527 0.4515
vn -0.6639 -0.7288 -0.1673
vn -0.9502 -0.3104 0.0273
vn -0.4258 -0.8827 -0.199
vn 0.0862 -0.494 0.8651
vn -0.5748 0.6482 0.4994
vn -0.2845 0.7666 0.5756
vn -0.7287 0.5096 0.4575
vn -0.0399 -0.5065 0.8613
vn 0.8773 0.466 0.115
vn 0.8476 0.4229 -0.3205
vn 0.6178 0.5375 0.5739
vn 0.6207 -0.7074 0.338
vn 0.7827 0.2355 -0.576
vn 0.72 0.0689 -0.6905
vn -0.3035 -0.8383 -0.453
vn -0.9575 0.0097 0.2882
vn -0.9129 0.1198 0.3902
vn 0.1274 0.6937 0.7089
vn -0.8101 0.3871 0.4404
vn -0.8441 0.3067 0.4397
vn 0.6746 -0.0638 -0.7354
vn 0.6514 -0.1469 -0.7443
vn 0.6235 -0.2289 -0.7476
vn -0.8712 0.225 0.4362
vt 0.839504 0.118056
vt 0.856743 0.205307
vt 0.741230 0.205307
vt 0.734555 0.106726
vt 0.724541 0.032791
vt 0.813647 0.052618
vt 0.868992 0.081539
vt 0.913398 0.129584
vt 0.940923 0.205307
vt 0.839504 0.292557
vt 0.813647 0.357995
vt 0.724541 0.377822
vt 0.734555 0.303887
vt 0.913398 0.281029
vt 0.868992 0.329074
vt 0.369475 0.299954
vt 0.368286 0.370940
vt 0.245840 0.351447
vt 0.246397 0.288815
vt 0.246768 0.205307
vt 0.370268 0.205307
vt 0.494283 0.205307
vt 0.492822 0.304944
vt 0.490632 0.379672
vt 0.369475 0.110659
vt 0.246397 0.121798
vt 0.245841 0.059166
vt 0.368286 0.039673
vt 0.490632 0.030941
vt 0.492822 0.105669
vt 0.616755 0.103478
vt 0.619174 0.205307
vt 0.613127 0.027106
vt 0.616755 0.307135
vt 0.613126 0.383507
vt 0.123273 0.268175
vt 0.123047 0.315326
vt 0.054743 0.283353
vt 0.030912 0.249131
vt 0.030973 0.205306
vt 0.123423 0.205306
vt 0.123273 0.142438
vt 0.030912 0.161481
vt 0.054744 0.127260
vt 0.123047 0.095287
vt 0.839504 0.118056
vt 0.856743 0.205307
vt 0.968983 0.205307
vt 0.938030 0.133427
vt 0.876123 0.061548
vt 0.805028 0.030806
vt 0.721203 0.008146
vt 0.734555 0.106726
vt 0.741230 0.205307
vt 0.839504 0.292557
vt 0.805028 0.379807
vt 0.876123 0.349065
vt 0.938030 0.277186
vt 0.734555 0.303887
vt 0.721203 0.402467
vt 0.369475 0.299954
vt 0.367890 0.394602
vt 0.489902 0.404581
vt 0.492822 0.304944
vt 0.494283 0.205307
vt 0.370268 0.205307
vt 0.246768 0.205307
vt 0.246397 0.288815
vt 0.245655 0.372324
vt 0.369475 0.110659
vt 0.492822 0.105669
vt 0.489902 0.006032
vt 0.367890 0.016011
vt 0.245655 0.038289
vt 0.246397 0.121798
vt 0.616755 0.103478
vt 0.619174 0.205307
vt 0.611917 0.001649
vt 0.616755 0.307135
vt 0.611917 0.408964
vt 0.123273 0.268175
vt 0.122972 0.331043
vt 0.123423 0.205306
vt 0.000156 0.205306
vt 0.000125 0.242784
vt 0.000064 0.280261
vt 0.123273 0.142438
vt 0.122972 0.079570
vt 0.000064 0.130352
vt 0.000125 0.167829
vt 0.122972 0.331043
vt 0.030806 0.283587
vt 0.245655 0.372324
vt 0.030806 0.283587
vt 0.000125 0.167829
vt 0.030806 0.127026
vt 0.000156 0.205306
vt 0.030806 0.127026
vt 0.805028 0.030806
vt 0.873826 0.071832
vt 0.721203 0.008146
vt 0.873826 0.071832
vt 0.938030 0.277186
vt 0.873826 0.338781
vt 0.968983 0.205307
vt 0.873826 0.338781
vt 0.805028 0.379807
vt 0.721203 0.402467
vt 0.000125 0.242784
vt 0.122972 0.079570
vt 0.245655 0.038289
vt 0.938030 0.133427
vt 0.611917 0.001649
vt 0.489902 0.006032
vt 0.611917 0.408964
vt 0.489902 0.404581
vt 0.367890 0.394602
vt 0.367890 0.016011
f 1/1/1 2/2/2 3/3/3
f 1/1/1 3/3/3 4/4/4
f 1/1/1 4/4/4 5/5/5
f 1/1/1 5/5/5 6/6/6
f 1/1/1 6/6/6 7/7/7
f 1/1/1 7/7/7 8/8/8
f 1/1/1 8/8/8 9/9/9
f 1/1/1 9/9/9 2/2/2
f 10/10/10 11/11/11 12/12/12
f 10/10/10 12/12/12 13/13/13
f 10/10/10 13/13/13 3/3/3
f 10/10/10 3/3/3 2/2/2
f 10/10/10 2/2/2 9/9/9
f 10/10/10 9/9/9 14/14/14
f 10/10/10 14/14/14 15/15/15
f 10/10/10 15/15/15 11/11/11
f 16/16/16 17/17/17 18/18/18
f 16/16/16 18/18/18 19/19/19
f 16/16/16 19/19/19 20/20/20
f 16/16/16 20/20/20 21/21/21
f 16/16/16 21/21/21 22/22/22
f 16/16/16 22/22/22 23/23/23
f 16/16/16 23/23/23 24/24/24
f 16/16/16 24/24/24 17/17/17
f 25/25/25 21/21/21 20/20/20
f 25/25/25 20/20/20 26/26/26
f 25/25/25 26/26/26 27/27/27
f 25/25/25 27/27/27 28/28/28
f 25/25/25 28/28/28 29/29/29
f 25/25/25 29/29/29 30/30/30
f 25/25/25 30/30/30 22/22/22
f 25/25/25 22/22/22 21/21/21
f 31/31/31 32/32/32 22/22/22
f 31/31/31 22/22/22 30/30/30
f 31/31/31 30/30/30 29/29/29
f 31/31/31 29/29/29 33/33/33
f 31/31/31 33/33/33 5/5/5
f 31/31/31 5/5/5 4/4/4
f 31/31/31 4/4/4 3/3/3
f 31/31/31 3/3/3 32/32/32
f 34/34/34 35/35/35 24/24/24
f 34/34/34 24/24/24 23/23/23
f 34/34/34 23/23/23 22/22/22
f 34/34/34 22/22/22 32/32/32
f 34/34/34 32/32/32 3/3/3
f 34/34/34 3/3/3 13/13/13
f 34/34/34 13/13/13 12/12/12
f 34/34/34 12/12/12 35/35/35
f 36/36/36 37/37/37 38/38/38
f 36/36/36 38/38/38 39/39/39
f 36/36/36 39/39/39 40/40/40
f 36/36/36 40/40/40 41/41/41
f 36/36/36 41/41/41 20/20/20
f 36/36/36 20/20/20 19/19/19
f 36/36/36 19/19/19 18/18/18
f 36/36/36 18/18/18 37/37/37
f 42/42/42 41/41/41 40/40/40
f 42/42/42 40/40/40 43/43/43
f 42/42/42 43/43/43 44/44/44
f 42/42/42 44/44/44 45/45/45
f 42/42/42 45/45/45 27/27/27
f 42/42/42 27/27/27 26/26/26
f 42/42/42 26/26/26 20/20/20
f 42/42/42 20/20/20 41/41/41
f 46/46/46 47/47/47 48/48/48
f 46/46/46 48/48/48 49/49/49
f 46/46/46 49/49/49 50/50/50
f 46/46/46 50/50/50 51/51/51
f 46/46/46 51/51/51 52/52/52
f 46/46/46 52/52/52 53/53/53
f 46/46/46 53/53/53 54/54/54
f 46/46/46 54/54/54 47/47/47
f 55/55/55 56/56/56 57/57/57
f 55/55/55 57/57/57 58/58/58
f 55/55/55 58/58/58 48/48/48
f 55/55/55 48/48/48 47/47/47
f 55/55/55 47/47/47 54/54/54
f 55/55/55 54/54/54 59/59/59
f 55/55/55 59/59/59 60/60/60
f 55/55/55 60/60/60 56/56/56
f 61/61/61 62/62/62 63/63/63
f 61/61/61 63/63/63 64/64/64
f 61/61/61 64/64/64 65/65/65
f 61/61/61 65/65/65 66/66/66
f 61/61/61 66/66/66 67/67/67
f 61/61/61 67/67/67 68/68/68
f 61/61/61 68/68/68 69/69/69
f 61/61/61 69/69/69 62/62/62
f 70/70/70 66/66/66 65/65/65
f 70/70/70 65/65/65 71/71/71
f 70/70/70 71/71/71 72/72/72
f 70/70/70 72/72/72 73/73/73
f 70/70/70 73/73/73 74/74/74
f 70/70/70 74/74/74 75/75/75
f 70/70/70 75/75/75 67/67/67
f 70/70/70 67/67/67 66/66/66
f 76/76/76 77/77/77 54/54/54
f 76/76/76 54/54/54 53/53/53
f 76/76/76 53/53/53 52/52/52
f 76/76/76 52/52/52 78/78/78
f 76/76/76 78/78/78 72/72/72
f 76/76/76 72/72/72 71/71/71
f 76/76/76 71/71/71 65/65/65
f 76/76/76 65/65/65 77/77/77
f 79/79/79 80/80/80 60/60/60
f 79/79/79 60/60/60 59/59/59
f 79/79/79 59/59/59 54/54/54
f 79/79/79 54/54/54 77/77/77
f 79/79/79 77/77/77 65/65/65
f 79/79/79 65/65/65 64/64/64
f 79/79/79 64/64/64 63/63/63
f 79/79/79 63/63/63 80/80/80
f 81/81/81 82/82/82 69/69/69
f 81/81/81 69/69/69 68/68/68
f 81/81/81 68/68/68 67/67/67
f 81/81/81 67/67/67 83/83/83
f 81/81/81 83/83/83 84/84/84
f 81/81/81 84/84/84 85/85/85
f 81/81/81 85/85/85 86/86/86
f 81/81/81 86/86/86 82/82/82
f 87/87/87 83/83/83 67/67/67
f 87/87/87 67/67/67 75/75/75
f 87/87/87 75/75/75 74/74/74
f 87/87/87 74/74/74 88/88/88
f 87/87/87 88/88/88 89/89/89
f 87/87/87 89/89/89 90/90/90
f 87/87/87 90/90/90 84/84/84
f 87/87/87 84/84/84 83/83/83
f 91/91/91 92/92/92 38/38/38
f 91/91/91 38/38/38 37/37/37
f 91/91/91 37/37/37 18/18/18
f 91/91/91 18/18/18 93/93/93
f 91/91/91 93/93/93 69/69/69
f 91/91/91 69/69/69 82/82/82
f 91/91/91 82/82/82 94/94/94
f 91/91/91 94/94/94 92/92/92
f 95/95/95 96/96/96 44/44/44
f 95/95/95 44/44/44 43/43/43
f 95/95/95 43/43/43 40/40/40
f 95/95/95 40/40/40 97/97/97
f 95/95/95 97/97/97 84/84/84
f 95/95/95 84/84/84 90/90/90
f 95/95/95 90/90/90 98/98/98
f 95/95/95 98/98/98 96/96/96
f 99/99/99 100/100/100 7/7/7
f 99/99/99 7/7/7 6/6/6
f 99/99/99 6/6/6 5/5/5
f 99/99/99 5/5/5 101/101/101
f 99/99/99 101/101/101 52/52/52
f 99/99/99 52/52/52 51/51/51
f 99/99/99 51/51/51 102/102/102
f 99/99/99 102/102/102 100/100/100
f 103/103/103 104/104/104 15/15/15
f 103/103/103 15/15/15 14/14/14
f 103/103/103 14/14/14 9/9/9
f 103/103/103 9/9/9 105/105/105
f 103/103/103 105/105/105 48/48/48
f 103/103/103 48/48/48 58/58/58
f 103/103/103 58/58/58 106/106/106
f 103/103/103 106/106/106 104/104/104
f 107/107/107 108/108/108 12/12/12
f 107/107/107 12/12/12 11/11/11
f 107/107/107 11/11/11 15/15/15
f 107/107/107 15/15/15 104/104/104
f 107/107/107 104/104/104 106/106/106
f 107/107/107 106/106/106 56/56/56
f 107/107/107 56/56/56 60/60/60
f 107/107/107 60/60/60 108/108/108
f 109/109/109 97/97/97 40/40/40
f 109/109/109 40/40/40 39/39/39
f 109/109/109 39/39/39 38/38/38
f 109/109/109 38/38/38 92/92/92
f 109/109/109 92/92/92 94/94/94
f 109/109/109 94/94/94 85/85/85
f 109/109/109 85/85/85 84/84/84
f 109/109/109 84/84/84 97/97/97
f 110/110/110 111/111/111 27/27/27
f 110/110/110 27/27/27 45/45/45
f 110/110/110 45/45/45 44/44/44
f 110/110/110 44/44/44 96/96/96
f 110/110/110 96/96/96 98/98/98
f 110/110/110 98/98/98 88/88/88
f 110/110/110 88/88/88 74/74/74
f 110/110/110 74/74/74 111/111/111
f 112/112/112 105/105/105 9/9/9
f 112/112/112 9/9/9 8/8/8
f 112/112/112 8/8/8 7/7/7
f 112/112/112 7/7/7 100/100/100
f 112/112/112 100/100/100 102/102/102
f 112/112/112 102/102/102 49/49/49
f 112/112/112 49/49/49 48/48/48
f 112/112/112 48/48/48 105/105/105
f 113/113/113 101/101/101 5/5/5
f 113/113/113 5/5/5 33/33/33
f 113/113/113 33/33/33 29/29/29
f 113/113/113 29/29/29 114/114/114
f 113/113/113 114/114/114 72/72/72
f 113/113/113 72/72/72 78/78/78
f 113/113/113 78/78/78 52/52/52
f 113/113/113 52/52/52 101/101/101
f 115/115/115 116/116/116 24/24/24
f 115/115/115 24/24/24 35/35/35
f 115/115/115 35/35/35 12/12/12
f 115/115/115 12/12/12 108/108/108
f 115/115/115 108/108/108 60/60/60
f 115/115/115 60/60/60 80/80/80
f 115/115/115 80/80/80 63/63/63
f 115/115/115 63/63/63 116/116/116
f 117/117/117 93/93/93 18/18/18
f 117/117/117 18/18/18 17/17/17
f 117/117/117 17/17/17 24/24/24
f 117/117/117 24/24/24 116/116/116
f 117/117/117 116/116/116 63/63/63
f 117/117/117 63/63/63 62/62/62
f 117/117/117 62/62/62 69/69/69
f 117/117/117 69/69/69 93/93/93
f 118/118/118 114/114/114 29/29/29
f 118/118/118 29/29/29 28/28/28
f 118/118/118 28/28/28 27/27/27
f 118/118/118 27/27/27 111/111/111
f 118/118/118 111/111/111 74/74/74
f 118/118/118 74/74/74 73/73/73
f 118/118/118 73/73/73 72/72/72
f 118/118/118 72/72/72 114/114/114
