v -2.423075 0.752101 -1.149872
v -2.423308 0.752233 -1.151769
v -2.424901 0.75033 -1.151182
v -2.424424 0.750354 -1.149106
v -2.424265 0.750405 -1.147463
v -2.423214 0.751913 -1.14832
v -2.42254 0.752726 -1.149233
v -2.422076 0.753272 -1.150509
v -2.42208 0.753569 -1.152225
v -2.424431 0.752171 -1.153321
v -2.425591 0.752035 -1.154369
v -2.426965 0.750544 -1.154334
v -2.425964 0.750433 -1.153025
v -2.423249 0.753333 -1.153494
v -2.424465 0.752825 -1.154131
v -2.429893 0.743633 -1.151574
v -2.43064 0.743736 -1.152946
v -2.431466 0.741214 -1.152223
v -2.430794 0.741121 -1.151013
v -2.43 0.741034 -1.149366
v -2.429005 0.743538 -1.149707
v -2.427855 0.745951 -1.15011
v -2.428798 0.746061 -1.152056
v -2.429604 0.746183 -1.153482
v -2.428383 0.743555 -1.147733
v -2.42946 0.741052 -1.147617
v -2.429127 0.741094 -1.146271
v -2.427995 0.7436 -1.146216
v -2.426838 0.74604 -1.146443
v -2.42722 0.74598 -1.148039
v -2.425853 0.74828 -1.148496
v -2.426452 0.748226 -1.150615
v -2.425533 0.748378 -1.146848
v -2.427454 0.748362 -1.152572
v -2.428341 0.748523 -1.153992
v -2.431562 0.738567 -1.150266
v -2.432104 0.738652 -1.151154
v -2.432285 0.737188 -1.150351
v -2.432067 0.736627 -1.149646
v -2.431602 0.736559 -1.148827
v -2.430939 0.738491 -1.149049
v -2.430566 0.738516 -1.147731
v -2.431385 0.736592 -1.147909
v -2.431057 0.737124 -1.147225
v -2.430357 0.738562 -1.14671
v -2.422924 0.751974 -1.149904
v -2.423166 0.752105 -1.151828
v -2.421975 0.753471 -1.152268
v -2.421963 0.753175 -1.150531
v -2.422455 0.752655 -1.149244
v -2.423097 0.751819 -1.148331
v -2.424144 0.750315 -1.147479
v -2.424268 0.750233 -1.149143
v -2.424754 0.750208 -1.151242
v -2.424299 0.752045 -1.153405
v -2.425499 0.751943 -1.154444
v -2.424396 0.752755 -1.154183
v -2.423153 0.753236 -1.153558
v -2.425826 0.750313 -1.153108
v -2.426867 0.750456 -1.154408
v -2.429733 0.743544 -1.151657
v -2.430523 0.74367 -1.153017
v -2.429492 0.746109 -1.153553
v -2.428644 0.745962 -1.152139
v -2.427693 0.745852 -1.150175
v -2.428838 0.743448 -1.149774
v -2.429829 0.740952 -1.149435
v -2.430631 0.741039 -1.151098
v -2.431348 0.741154 -1.152295
v -2.42821 0.743466 -1.147784
v -2.427052 0.74588 -1.148087
v -2.426709 0.745966 -1.14647
v -2.427863 0.743533 -1.146246
v -2.428993 0.741032 -1.146301
v -2.429283 0.74097 -1.147669
v -2.425691 0.748169 -1.148538
v -2.426297 0.748114 -1.150678
v -2.425409 0.748296 -1.14687
v -2.427309 0.748252 -1.152655
v -2.428236 0.748441 -1.154064
v -2.431398 0.738488 -1.150352
v -2.431985 0.738594 -1.151228
v -2.430768 0.738412 -1.149118
v -2.431473 0.7365 -1.148879
v -2.431945 0.736568 -1.149712
v -2.432196 0.737144 -1.150403
v -2.430388 0.738436 -1.147782
v -2.430221 0.738503 -1.146739
v -2.430957 0.73708 -1.147249
v -2.431251 0.736532 -1.147946
v -2.432232 0.738655 -1.151485
v -2.432465 0.736687 -1.150294
v -2.431638 0.741219 -1.15266
v -2.432196 0.737144 -1.150403
v -2.431598 0.735924 -1.147985
v -2.431234 0.736624 -1.147163
v -2.431765 0.735889 -1.148777
v -2.430957 0.73708 -1.147249
v -2.423208 0.751809 -1.147805
v -2.42242 0.75283 -1.149046
v -2.424157 0.750382 -1.14692
v -2.422455 0.752655 -1.149244
v -2.422813 0.753677 -1.15358
v -2.424502 0.752937 -1.154346
v -2.421625 0.75397 -1.152396
v -2.424396 0.752755 -1.154183
v -2.425938 0.75195 -1.154754
v -2.427256 0.750542 -1.154805
v -2.432181 0.735954 -1.149469
v -2.430226 0.738551 -1.14638
v -2.428956 0.741081 -1.145834
v -2.421693 0.753619 -1.15073
v -2.425371 0.748374 -1.146306
v -2.426652 0.746028 -1.145921
v -2.42859 0.74854 -1.154499
v -2.429824 0.746191 -1.153991
v -2.430838 0.743741 -1.153437
v -2.427806 0.743585 -1.145722
vn -0.7548 0.6514 0.0771
vn -0.6786 0.6788 0.2804
vn -0.7155 0.6337 0.294
vn -0.7859 0.608 0.1131
vn -0.798 0.589 0.1275
vn -0.7534 0.652 0.0851
vn -0.7178 0.694 0.0554
vn -0.6849 0.7226 0.0938
vn -0.616 0.7446 0.2571
vn -0.5965 0.6432 0.4801
vn -0.6008 0.6441 0.4734
vn -0.6632 0.582 0.4704
vn -0.6442 0.6007 0.4733
vn -0.5557 0.7157 0.4229
vn -0.5541 0.6853 0.4725
vn -0.7974 0.4145 0.4385
vn -0.817 0.4089 0.4064
vn -0.8305 0.3794 0.4078
vn -0.8065 0.3836 0.45
vn -0.8586 0.3791 0.345
vn -0.8425 0.4183 0.3395
vn -0.8055 0.4944 0.3265
vn -0.7586 0.4815 0.4389
vn -0.7788 0.4682 0.4174
vn -0.8769 0.4186 0.2362
vn -0.8917 0.388 0.2329
vn -0.8807 0.382 0.2799
vn -0.8695 0.4117 0.2729
vn -0.8481 0.4718 0.2409
vn -0.8478 0.4861 0.2119
vn -0.8136 0.5572 0.1658
vn -0.758 0.5742 0.3095
vn -0.8231 0.5361 0.187
vn -0.7012 0.5514 0.4519
vn -0.7229 0.531 0.442
vn -0.7994 0.3687 0.4743
vn -0.8275 0.3604 0.4305
vn -0.8186 0.3428 0.4608
vn -0.8073 0.314 0.4996
vn -0.8836 0.3072 0.3534
vn -0.8656 0.3605 0.3474
vn -0.9033 0.3741 0.2098
vn -0.9272 0.32 0.1948
vn -0.9086 0.3474 0.2318
vn -0.8942 0.3639 0.2607
vn 0.7748 -0.6298 -0.0553
vn 0.689 -0.6667 -0.2842
vn 0.7275 -0.6178 -0.2984
vn 0.8264 -0.5629 0.0121
vn 0.8496 -0.5133 0.1212
vn 0.8436 -0.5277 0.0994
vn 0.8394 -0.5426 0.0302
vn 0.79 -0.6051 -0.0985
vn 0.7154 -0.6338 -0.294
vn 0.5965 -0.6206 -0.5089
vn 0.543 -0.512 -0.6655
vn 0.5329 -0.4968 -0.685
vn 0.5894 -0.5505 -0.5912
vn 0.6375 -0.5972 -0.4867
vn 0.5869 -0.5294 -0.6126
vn 0.7894 -0.4146 -0.4527
vn 0.7278 -0.4129 -0.5475
vn 0.6987 -0.4588 -0.549
vn 0.7514 -0.4806 -0.4521
vn 0.8056 -0.4943 -0.3266
vn 0.8425 -0.4181 -0.3395
vn 0.8586 -0.379 -0.3451
vn 0.7963 -0.3855 -0.4661
vn 0.7147 -0.4078 -0.5682
vn 0.8807 -0.4193 -0.2204
vn 0.8515 -0.4858 -0.1973
vn 0.8791 -0.468 -0.0897
vn 0.9001 -0.4217 -0.1091
vn 0.9046 -0.4176 -0.0847
vn 0.8953 -0.3906 -0.2142
vn 0.8172 -0.556 -0.1516
vn 0.758 -0.5742 -0.3095
vn 0.8541 -0.5188 -0.0381
vn 0.6942 -0.5497 -0.4646
vn 0.6445 -0.508 -0.5715
vn 0.7794 -0.3851 -0.4941
vn 0.6676 -0.4318 -0.6065
vn 0.8614 -0.3718 -0.346
vn 0.8412 -0.421 -0.3392
vn 0.7119 -0.4424 -0.5454
vn 0.6356 -0.4506 -0.6269
vn 0.902 -0.3914 -0.1823
vn 0.8958 -0.4436 -0.0256
vn 0.886 -0.4635 0.0104
vn 0.8866 -0.4514 -0.1008
vn -0.6389 -0.2479 -0.7282
vn -0.6952 -0.5544 -0.4576
vn -0.5747 -0.1301 -0.8079
vn 0.6356 -0.4506 -0.6269
vn -0.2915 -0.8901 0.3503
vn -0.2055 -0.5801 0.7882
vn -0.2496 -0.9651 0.0783
vn 0.886 -0.4635 0.0104
vn 0.2886 0.4361 0.8523
vn 0.4317 0.6345 0.6411
vn 0.2165 0.2592 0.9412
vn 0.8496 -0.5133 0.1212
vn 0.3139 0.7038 -0.6372
vn -0.1115 0.6627 -0.7405
vn 0.6824 0.6853 -0.2542
vn 0.5329 -0.4968 -0.685
vn -0.3622 0.4704 -0.8047
vn -0.4783 0.2953 -0.827
vn -0.4645 -0.881 -0.0897
vn 0.0239 -0.2824 0.959
vn 0.127 -0.1664 0.9778
vn 0.6735 0.6851 0.2773
vn 0.1863 0.1191 0.9752
vn 0.1816 0.0323 0.9828
vn -0.5257 0.1553 -0.8363
vn -0.5356 0.0685 -0.8417
vn -0.5409 -0.0175 -0.8409
vn 0.1759 -0.0539 0.9829
vt 0.839504 0.118056
vt 0.856743 0.205307
vt 0.741230 0.205307
vt 0.734555 0.106726
vt 0.724541 0.032791
vt 0.813647 0.052618
vt 0.868992 0.081539
vt 0.913398 0.129584
vt 0.940923 0.205307
vt 0.839504 0.292557
vt 0.813647 0.357995
vt 0.724541 0.377822
vt 0.734555 0.303887
vt 0.913398 0.281029
vt 0.868992 0.329074
vt 0.369475 0.299954
vt 0.368286 0.370940
vt 0.245840 0.351447
vt 0.246397 0.288815
vt 0.246768 0.205307
vt 0.370268 0.205307
vt 0.494283 0.205307
vt 0.492822 0.304944
vt 0.490632 0.379672
vt 0.369475 0.110659
vt 0.246397 0.121798
vt 0.245841 0.059166
vt 0.368286 0.039673
vt 0.490632 0.030941
vt 0.492822 0.105669
vt 0.616755 0.103478
vt 0.619174 0.205307
vt 0.613127 0.027106
vt 0.616755 0.307135
vt 0.613126 0.383507
vt 0.123273 0.268175
vt 0.123047 0.315326
vt 0.054743 0.283353
vt 0.030912 0.249131
vt 0.030973 0.205306
vt 0.123423 0.205306
vt 0.123273 0.142438
vt 0.030912 0.161481
vt 0.054744 0.127260
vt 0.123047 0.095287
vt 0.839504 0.118056
vt 0.856743 0.205307
vt 0.968983 0.205307
vt 0.938030 0.133427
vt 0.876123 0.061548
vt 0.805028 0.030806
vt 0.721203 0.008146
vt 0.734555 0.106726
vt 0.741230 0.205307
vt 0.839504 0.292557
vt 0.805028 0.379807
vt 0.876123 0.349065
vt 0.938030 0.277186
vt 0.734555 0.303887
vt 0.721203 0.402467
vt 0.369475 0.299954
vt 0.367890 0.394602
vt 0.489902 0.404581
vt 0.492822 0.304944
vt 0.494283 0.205307
vt 0.370268 0.205307
vt 0.246768 0.205307
vt 0.246397 0.288815
vt 0.245655 0.372324
vt 0.369475 0.110659
vt 0.492822 0.105669
vt 0.489902 0.006032
vt 0.367890 0.016011
vt 0.245655 0.038289
vt 0.246397 0.121798
vt 0.616755 0.103478
vt 0.619174 0.205307
vt 0.611917 0.001649
vt 0.616755 0.307135
vt 0.611917 0.408964
vt 0.123273 0.268175
vt 0.122972 0.331043
vt 0.123423 0.205306
vt 0.000156 0.205306
vt 0.000125 0.242784
vt 0.000064 0.280261
vt 0.123273 0.142438
vt 0.122972 0.079570
vt 0.000064 0.130352
vt 0.000125 0.167829
vt 0.122972 0.331043
vt 0.030806 0.283587
vt 0.245655 0.372324
vt 0.030806 0.283587
vt 0.000125 0.167829
vt 0.030806 0.127026
vt 0.000156 0.205306
vt 0.030806 0.127026
vt 0.805028 0.030806
vt 0.873826 0.071832
vt 0.721203 0.008146
vt 0.873826 0.071832
vt 0.938030 0.277186
vt 0.873826 0.338781
vt 0.968983 0.205307
vt 0.873826 0.338781
vt 0.805028 0.379807
vt 0.721203 0.402467
vt 0.000125 0.242784
vt 0.122972 0.079570
vt 0.245655 0.038289
vt 0.938030 0.133427
vt 0.611917 0.001649
vt 0.489902 0.006032
vt 0.611917 0.408964
vt 0.489902 0.404581
vt 0.367890 0.394602
vt 0.367890 0.016011
f 1/1/1 2/2/2 3/3/3
f 1/1/1 3/3/3 4/4/4
f 1/1/1 4/4/4 5/5/5
f 1/1/1 5/5/5 6/6/6
f 1/1/1 6/6/6 7/7/7
f 1/1/1 7/7/7 8/8/8
f 1/1/1 8/8/8 9/9/9
f 1/1/1 9/9/9 2/2/2
f 10/10/10 11/11/11 12/12/12
f 10/10/10 12/12/12 13/13/13
f 10/10/10 13/13/13 3/3/3
f 10/10/10 3/3/3 2/2/2
f 10/10/10 2/2/2 9/9/9
f 10/10/10 9/9/9 14/14/14
f 10/10/10 14/14/14 15/15/15
f 10/10/10 15/15/15 11/11/11
f 16/16/16 17/17/17 18/18/18
f 16/16/16 18/18/18 19/19/19
f 16/16/16 19/19/19 20/20/20
f 16/16/16 20/20/20 21/21/21
f 16/16/16 21/21/21 22/22/22
f 16/16/16 22/22/22 23/23/23
f 16/16/16 23/23/23 24/24/24
f 16/16/16 24/24/24 17/17/17
f 25/25/25 21/21/21 20/20/20
f 25/25/25 20/20/20 26/26/26
f 25/25/25 26/26/26 27/27/27
f 25/25/25 27/27/27 28/28/28
f 25/25/25 28/28/28 29/29/29
f 25/25/25 29/29/29 30/30/30
f 25/25/25 30/30/30 22/22/22
f 25/25/25 22/22/22 21/21/21
f 31/31/31 32/32/32 22/22/22
f 31/31/31 22/22/22 30/30/30
f 31/31/31 30/30/30 29/29/29
f 31/31/31 29/29/29 33/33/33
f 31/31/31 33/33/33 5/5/5
f 31/31/31 5/5/5 4/4/4
f 31/31/31 4/4/4 3/3/3
f 31/31/31 3/3/3 32/32/32
f 34/34/34 35/35/35 24/24/24
f 34/34/34 24/24/24 23/23/23
f 34/34/34 23/23/23 22/22/22
f 34/34/34 22/22/22 32/32/32
f 34/34/34 32/32/32 3/3/3
f 34/34/34 3/3/3 13/13/13
f 34/34/34 13/13/13 12/12/12
f 34/34/34 12/12/12 35/35/35
f 36/36/36 37/37/37 38/38/38
f 36/36/36 38/38/38 39/39/39
f 36/36/36 39/39/39 40/40/40
f 36/36/36 40/40/40 41/41/41
f 36/36/36 41/41/41 20/20/20
f 36/36/36 20/20/20 19/19/19
f 36/36/36 19/19/19 18/18/18
f 36/36/36 18/18/18 37/37/37
f 42/42/42 41/41/41 40/40/40
f 42/42/42 40/40/40 43/43/43
f 42/42/42 43/43/43 44/44/44
f 42/42/42 44/44/44 45/45/45
f 42/42/42 45/45/45 27/27/27
f 42/42/42 27/27/27 26/26/26
f 42/42/42 26/26/26 20/20/20
f 42/42/42 20/20/20 41/41/41
f 46/46/46 47/47/47 48/48/48
f 46/46/46 48/48/48 49/49/49
f 46/46/46 49/49/49 50/50/50
f 46/46/46 50/50/50 51/51/51
f 46/46/46 51/51/51 52/52/52
f 46/46/46 52/52/52 53/53/53
f 46/46/46 53/53/53 54/54/54
f 46/46/46 54/54/54 47/47/47
f 55/55/55 56/56/56 57/57/57
f 55/55/55 57/57/57 58/58/58
f 55/55/55 58/58/58 48/48/48
f 55/55/55 48/48/48 47/47/47
f 55/55/55 47/47/47 54/54/54
f 55/55/55 54/54/54 59/59/59
f 55/55/55 59/59/59 60/60/60
f 55/55/55 60/60/60 56/56/56
f 61/61/61 62/62/62 63/63/63
f 61/61/61 63/63/63 64/64/64
f 61/61/61 64/64/64 65/65/65
f 61/61/61 65/65/65 66/66/66
f 61/61/61 66/66/66 67/67/67
f 61/61/61 67/67/67 68/68/68
f 61/61/61 68/68/68 69/69/69
f 61/61/61 69/69/69 62/62/62
f 70/70/70 66/66/66 65/65/65
f 70/70/70 65/65/65 71/71/71
f 70/70/70 71/71/71 72/72/72
f 70/70/70 72/72/72 73/73/73
f 70/70/70 73/73/73 74/74/74
f 70/70/70 74/74/74 75/75/75
f 70/70/70 75/75/75 67/67/67
f 70/70/70 67/67/67 66/66/66
f 76/76/76 77/77/77 54/54/54
f 76/76/76 54/54/54 53/53/53
f 76/76/76 53/53/53 52/52/52
f 76/76/76 52/52/52 78/78/78
f 76/76/76 78/78/78 72/72/72
f 76/76/76 72/72/72 71/71/71
f 76/76/76 71/71/71 65/65/65
f 76/76/76 65/65/65 77/77/77
f 79/79/79 80/80/80 60/60/60
f 79/79/79 60/60/60 59/59/59
f 79/79/79 59/59/59 54/54/54
f 79/79/79 54/54/54 77/77/77
f 79/79/79 77/77/77 65/65/65
f 79/79/79 65/65/65 64/64/64
f 79/79/79 64/64/64 63/63/63
f 79/79/79 63/63/63 80/80/80
f 81/81/81 82/82/82 69/69/69
f 81/81/81 69/69/69 68/68/68
f 81/81/81 68/68/68 67/67/67
f 81/81/81 67/67/67 83/83/83
f 81/81/81 83/83/83 84/84/84
f 81/81/81 84/84/84 85/85/85
f 81/81/81 85/85/85 86/86/86
f 81/81/81 86/86/86 82/82/82
f 87/87/87 83/83/83 67/67/67
f 87/87/87 67/67/67 75/75/75
f 87/87/87 75/75/75 74/74/74
f 87/87/87 74/74/74 88/88/88
f 87/87/87 88/88/88 89/89/89
f 87/87/87 89/89/89 90/90/90
f 87/87/87 90/90/90 84/84/84
f 87/87/87 84/84/84 83/83/83
f 91/91/91 92/92/92 38/38/38
f 91/91/91 38/38/38 37/37/37
f 91/91/91 37/37/37 18/18/18
f 91/91/91 18/18/18 93/93/93
f 91/91/91 93/93/93 69/69/69
f 91/91/91 69/69/69 82/82/82
f 91/91/91 82/82/82 94/94/94
f 91/91/91 94/94/94 92/92/92
f 95/95/95 96/96/96 44/44/44
f 95/95/95 44/44/44 43/43/43
f 95/95/95 43/43/43 40/40/40
f 95/95/95 40/40/40 97/97/97
f 95/95/95 97/97/97 84/84/84
f 95/95/95 84/84/84 90/90/90
f 95/95/95 90/90/90 98/98/98
f 95/95/95 98/98/98 96/96/96
f 99/99/99 100/100/100 7/7/7
f 99/99/99 7/7/7 6/6/6
f 99/99/99 6/6/6 5/5/5
f 99/99/99 5/5/5 101/101/101
f 99/99/99 101/101/101 52/52/52
f 99/99/99 52/52/52 51/51/51
f 99/99/99 51/51/51 102/102/102
f 99/99/99 102/102/102 100/100/100
f 103/103/103 104/104/104 15/15/15
f 103/103/103 15/15/15 14/14/14
f 103/103/103 14/14/14 9/9/9
f 103/103/103 9/9/9 105/105/105
f 103/103/103 105/105/105 48/48/48
f 103/103/103 48/48/48 58/58/58
f 103/103/103 58/58/58 106/106/106
f 103/103/103 106/106/106 104/104/104
f 107/107/107 108/108/108 12/12/12
f 107/107/107 12/12/12 11/11/11
f 107/107/107 11/11/11 15/15/15
f 107/107/107 15/15/15 104/104/104
f 107/107/107 104/104/104 106/106/106
f 107/107/107 106/106/106 56/56/56
f 107/107/107 56/56/56 60/60/60
f 107/107/107 60/60/60 108/108/108
f 109/109/109 97/97/97 40/40/40
f 109/109/109 40/40/40 39/39/39
f 109/109/109 39/39/39 38/38/38
f 109/109/109 38/38/38 92/92/92
f 109/109/109 92/92/92 94/94/94
f 109/109/109 94/94/94 85/85/85
f 109/109/109 85/85/85 84/84/84
f 109/109/109 84/84/84 97/97/97
f 110/110/110 111/111/111 27/27/27
f 110/110/110 27/27/27 45/45/45
f 110/110/110 45/45/45 44/44/44
f 110/110/110 44/44/44 96/96/96
f 110/110/110 96/96/96 98/98/98
f 110/110/110 98/98/98 88/88/88
f 110/110/110 88/88/88 74/74/74
f 110/110/110 74/74/74 111/111/111
f 112/112/112 105/105/105 9/9/9
f 112/112/112 9/9/9 8/8/8
f 112/112/112 8/8/8 7/7/7
f 112/112/112 7/7/7 100/100/100
f 112/112/112 100/100/100 102/102/102
f 112/112/112 102/102/102 49/49/49
f 112/112/112 49/49/49 48/48/48
f 112/112/112 48/48/48 105/105/105
f 113/113/113 101/101/101 5/5/5
f 113/113/113 5/5/5 33/33/33
f 113/113/113 33/33/33 29/29/29
f 113/113/113 29/29/29 114/114/114
f 113/113/113 114/114/114 72/72/72
f 113/113/113 72/72/72 78/78/78
f 113/113/113 78/78/78 52/52/52
f 113/113/113 52/52/52 101/101/101
f 115/115/115 116/116/116 24/24/24
f 115/115/115 24/24/24 35/35/35
f 115/115/115 35/35/35 12/12/12
f 115/115/115 12/12/12 108/108/108
f 115/115/115 108/108/108 60/60/60
f 115/115/115 60/60/60 80/80/80
f 115/115/115 80/80/80 63/63/63
f 115/115/115 63/63/63 116/116/116
f 117/117/117 93/93/93 18/18/18
f 117/117/117 18/18/18 17/17/17
f 117/117/117 17/17/17 24/24/24
f 117/117/117 24/24/24 116/116/116
f 117/117/117 116/116/116 63/63/63
f 117/117/117 63/63/63 62/62/62
f 117/117/117 62/62/62 69/69/69
f 117/117/117 69/69/69 93/93/93
f 118/118/118 114/114/114 29/29/29
f 118/118/118 29/29/29 28/28/28
f 118/118/118 28/28/28 27/27/27
f 118/118/118 27/27/27 111/111/111
f 118/118/118 111/111/111 74/74/74
f 118/118/118 74/74/74 73/73/73
f 118/118/118 73/73/73 72/72/72
f 118/118/118 72/72/72 114/114/114
