v -2.42247 0.740629 -1.094881
v -2.422384 0.740131 -1.092584
v -2.419592 0.739105 -1.093565
v -2.420022 0.739723 -1.09607
v -2.420136 0.74035 -1.097994
v -2.422134 0.741109 -1.096717
v -2.423354 0.741289 -1.095528
v -2.424224 0.741142 -1.093962
v -2.424467 0.740781 -1.091869
v -2.421189 0.739987 -1.090563
v -2.419886 0.739983 -1.089144
v -2.417583 0.73907 -1.089391
v -2.418566 0.738993 -1.091162
v -2.423115 0.740586 -1.090225
v -2.421535 0.740376 -1.089395
v -2.410587 0.734233 -1.094293
v -2.409885 0.734156 -1.092505
v -2.407616 0.732163 -1.094015
v -2.408248 0.732222 -1.095595
v -2.408996 0.732402 -1.097707
v -2.411422 0.734446 -1.096683
v -2.413976 0.736297 -1.095649
v -2.413091 0.736094 -1.09315
v -2.412337 0.736044 -1.091281
v -2.412014 0.734948 -1.099102
v -2.40951 0.732854 -1.099848
v -2.409828 0.733272 -1.101467
v -2.412385 0.735409 -1.100931
v -2.414953 0.737355 -1.100095
v -2.414584 0.736842 -1.09818
v -2.417323 0.738447 -1.09717
v -2.416745 0.737839 -1.094599
v -2.417639 0.739051 -1.099118
v -2.415809 0.737688 -1.092066
v -2.414985 0.73772 -1.090173
v -2.406026 0.730177 -1.097157
v -2.405518 0.730174 -1.095981
v -2.40451 0.729026 -1.097368
v -2.404423 0.728606 -1.098422
v -2.40486 0.728636 -1.099495
v -2.406612 0.73028 -1.09873
v -2.406968 0.730649 -1.100331
v -2.405068 0.72893 -1.100596
v -2.405672 0.729608 -1.101281
v -2.407169 0.731002 -1.101546
v -2.422574 0.74041 -1.094919
v -2.422479 0.739904 -1.09259
v -2.424535 0.74061 -1.091874
v -2.424299 0.740977 -1.093993
v -2.423413 0.741169 -1.095558
v -2.422216 0.74095 -1.096761
v -2.420224 0.740192 -1.098031
v -2.420134 0.739506 -1.096101
v -2.419696 0.738882 -1.093567
v -2.421274 0.739757 -1.090536
v -2.419945 0.739811 -1.089107
v -2.421578 0.740248 -1.089373
v -2.423175 0.740413 -1.090204
v -2.418661 0.738768 -1.091136
v -2.41765 0.738901 -1.089356
v -2.410723 0.734029 -1.09426
v -2.409984 0.734002 -1.09247
v -2.412427 0.735885 -1.091247
v -2.413215 0.735883 -1.09312
v -2.414108 0.736088 -1.095641
v -2.411565 0.734245 -1.09667
v -2.409146 0.732206 -1.097691
v -2.408391 0.732024 -1.095559
v -2.40772 0.732014 -1.093977
v -2.412162 0.734751 -1.09911
v -2.414721 0.736638 -1.098194
v -2.415059 0.737204 -1.100116
v -2.412499 0.735264 -1.100947
v -2.409947 0.733131 -1.101482
v -2.409666 0.732663 -1.099853
v -2.417448 0.738236 -1.097192
v -2.416862 0.737622 -1.094596
v -2.417736 0.738895 -1.099147
v -2.415918 0.737469 -1.092038
v -2.415063 0.737555 -1.09014
v -2.406172 0.729981 -1.097119
v -2.405623 0.730026 -1.095941
v -2.406765 0.730087 -1.098713
v -2.404975 0.728491 -1.099482
v -2.404532 0.728459 -1.098391
v -2.40459 0.728917 -1.097341
v -2.407127 0.73046 -1.100337
v -2.407291 0.730863 -1.101562
v -2.405761 0.729504 -1.10129
v -2.405188 0.728788 -1.100602
v -2.405394 0.730107 -1.095569
v -2.404048 0.728603 -1.097564
v -2.407451 0.732077 -1.093469
v -2.40459 0.728917 -1.097341
v -2.404488 0.728294 -1.100687
v -2.405211 0.729187 -1.101485
v -2.404327 0.728023 -1.099744
v -2.405761 0.729504 -1.10129
v -2.422059 0.7412 -1.097351
v -2.423532 0.741415 -1.095736
v -2.420214 0.74049 -1.098655
v -2.423413 0.741169 -1.095558
v -2.423783 0.740709 -1.090102
v -2.421563 0.740428 -1.0891
v -2.425191 0.740921 -1.091634
v -2.421578 0.740248 -1.089373
v -2.419477 0.739905 -1.08865
v -2.417284 0.739021 -1.088782
v -2.403936 0.728017 -1.098829
v -2.407291 0.731058 -1.101961
v -2.409987 0.733349 -1.102016
v -2.424842 0.74124 -1.09367
v -2.417789 0.739183 -1.099783
v -2.415123 0.73746 -1.100745
v -2.414744 0.737657 -1.089525
v -2.412125 0.735956 -1.090641
v -2.409694 0.734062 -1.091891
v -2.412561 0.735499 -1.10155
vn 0.4104 0.8805 0.2373
vn 0.3388 0.94 0.0393
vn 0.3919 0.9198 0.0205
vn 0.4584 0.8666 0.1969
vn 0.4781 0.8596 0.1802
vn 0.4092 0.883 0.2299
vn 0.3581 0.8958 0.2632
vn 0.318 0.92 0.2289
vn 0.2535 0.9649 0.0684
vn 0.2884 0.9416 -0.1736
vn 0.2916 0.942 -0.1661
vn 0.3743 0.9116 -0.1695
vn 0.3493 0.9213 -0.1705
vn 0.2183 0.97 -0.1068
vn 0.2319 0.9591 -0.1622
vn 0.5653 0.8088 -0.1619
vn 0.584 0.8013 -0.1296
vn 0.6086 0.7816 -0.1367
vn 0.5871 0.7893 -0.1796
vn 0.6315 0.772 -0.0725
vn 0.6001 0.7977 -0.0594
vn 0.5338 0.8449 -0.0327
vn 0.5018 0.8518 -0.1506
vn 0.5248 0.8412 -0.1304
vn 0.6265 0.7781 0.0444
vn 0.6527 0.7564 0.0417
vn 0.6474 0.7621 -0.0063
vn 0.6243 0.7811 0.0065
vn 0.5781 0.8144 0.0495
vn 0.5705 0.8173 0.0808
vn 0.5074 0.8506 0.138
vn 0.4562 0.8898 -0.003
vn 0.5258 0.8429 0.1138
vn 0.4208 0.894 -0.1538
vn 0.4486 0.8816 -0.1463
vn 0.5881 0.7816 -0.208
vn 0.6149 0.7713 -0.1638
vn 0.6157 0.7624 -0.1989
vn 0.6196 0.7455 -0.2456
vn 0.685 0.7222 -0.0958
vn 0.6458 0.7594 -0.0786
vn 0.6681 0.7414 0.0618
vn 0.7118 0.6993 0.0654
vn 0.6851 0.7276 0.0344
vn 0.6664 0.7455 0.0092
vn -0.4366 -0.8626 -0.2555
vn -0.3535 -0.9348 -0.0342
vn -0.4097 -0.9121 -0.0142
vn -0.509 -0.803 -0.3101
vn -0.546 -0.7341 -0.4036
vn -0.5354 -0.7512 -0.386
vn -0.5283 -0.7848 -0.324
vn -0.4628 -0.8611 -0.2105
vn -0.3918 -0.9198 -0.0206
vn -0.2993 -0.9314 0.207
vn -0.3039 -0.8673 0.3941
vn -0.302 -0.8564 0.4187
vn -0.3264 -0.8945 0.3054
vn -0.3453 -0.92 0.1853
vn -0.3338 -0.8824 0.3317
vn -0.5586 -0.8104 0.1767
vn -0.5079 -0.8155 0.2775
vn -0.4621 -0.8442 0.2715
vn -0.4962 -0.8524 0.1646
vn -0.534 -0.8448 0.0327
vn -0.6002 -0.7976 0.0594
vn -0.6315 -0.7719 0.0725
vn -0.5777 -0.7923 0.1961
vn -0.499 -0.8127 0.3008
vn -0.6289 -0.7751 -0.0602
vn -0.5733 -0.8138 -0.0952
vn -0.601 -0.7746 -0.1969
vn -0.6405 -0.749 -0.1696
vn -0.6453 -0.7393 -0.1922
vn -0.654 -0.7541 -0.0607
vn -0.5105 -0.8464 -0.1516
vn -0.4562 -0.8899 0.003
vn -0.5546 -0.792 -0.2553
vn -0.4158 -0.8939 0.1676
vn -0.3932 -0.8729 0.2887
vn -0.5639 -0.7944 0.2256
vn -0.4478 -0.8275 0.3385
vn -0.6371 -0.7671 0.0749
vn -0.5979 -0.7994 0.0584
vn -0.4809 -0.8341 0.2703
vn -0.4117 -0.8379 0.3583
vn -0.6583 -0.747 -0.0923
vn -0.6237 -0.7393 -0.2537
vn -0.6047 -0.7411 -0.2916
vn -0.6154 -0.7666 -0.1832
vn 0.6509 -0.2001 0.7323
vn 0.8434 -0.3558 0.4025
vn 0.539 -0.1489 0.829
vn -0.4117 -0.8379 0.3583
vn 0.6562 -0.5421 -0.5249
vn 0.4664 -0.167 -0.8686
vn 0.638 -0.7111 -0.2954
vn -0.6047 -0.7411 -0.2916
vn -0.4079 0.539 -0.7369
vn -0.631 0.5868 -0.5074
vn -0.2637 0.4428 -0.857
vn -0.546 -0.7341 -0.4036
vn -0.6102 0.2807 0.7409
vn -0.2129 0.3771 0.9014
vn -0.9191 0.2448 0.3088
vn -0.302 -0.8564 0.4187
vn 0.0932 0.2874 0.9532
vn 0.2712 0.1744 0.9466
vn 0.7892 -0.6093 -0.0762
vn 0.1404 0.0556 -0.9885
vn -0.0015 0.1222 -0.9925
vn -0.887 0.4197 -0.1926
vn -0.1756 0.3442 -0.9223
vn -0.1341 0.2735 -0.9525
vn 0.3726 0.0692 0.9254
vn 0.418 -0.0034 0.9084
vn 0.4592 -0.0754 0.8851
vn -0.0928 0.2016 -0.975
vt 0.839504 0.118056
vt 0.856743 0.205307
vt 0.741230 0.205307
vt 0.734555 0.106726
vt 0.724541 0.032791
vt 0.813647 0.052618
vt 0.868992 0.081539
vt 0.913398 0.129584
vt 0.940923 0.205307
vt 0.839504 0.292557
vt 0.813647 0.357995
vt 0.724541 0.377822
vt 0.734555 0.303887
vt 0.913398 0.281029
vt 0.868992 0.329074
vt 0.369475 0.299954
vt 0.368286 0.370940
vt 0.245840 0.351447
vt 0.246397 0.288815
vt 0.246768 0.205307
vt 0.370268 0.205307
vt 0.494283 0.205307
vt 0.492822 0.304944
vt 0.490632 0.379672
vt 0.369475 0.110659
vt 0.246397 0.121798
vt 0.245841 0.059166
vt 0.368286 0.039673
vt 0.490632 0.030941
vt 0.492822 0.105669
vt 0.616755 0.103478
vt 0.619174 0.205307
vt 0.613127 0.027106
vt 0.616755 0.307135
vt 0.613126 0.383507
vt 0.123273 0.268175
vt 0.123047 0.315326
vt 0.054743 0.283353
vt 0.030912 0.249131
vt 0.030973 0.205306
vt 0.123423 0.205306
vt 0.123273 0.142438
vt 0.030912 0.161481
vt 0.054744 0.127260
vt 0.123047 0.095287
vt 0.839504 0.118056
vt 0.856743 0.205307
vt 0.968983 0.205307
vt 0.938030 0.133427
vt 0.876123 0.061548
vt 0.805028 0.030806
vt 0.721203 0.008146
vt 0.734555 0.106726
vt 0.741230 0.205307
vt 0.839504 0.292557
vt 0.805028 0.379807
vt 0.876123 0.349065
vt 0.938030 0.277186
vt 0.734555 0.303887
vt 0.721203 0.402467
vt 0.369475 0.299954
vt 0.367890 0.394602
vt 0.489902 0.404581
vt 0.492822 0.304944
vt 0.494283 0.205307
vt 0.370268 0.205307
vt 0.246768 0.205307
vt 0.246397 0.288815
vt 0.245655 0.372324
vt 0.369475 0.110659
vt 0.492822 0.105669
vt 0.489902 0.006032
vt 0.367890 0.016011
vt 0.245655 0.038289
vt 0.246397 0.121798
vt 0.616755 0.103478
vt 0.619174 0.205307
vt 0.611917 0.001649
vt 0.616755 0.307135
vt 0.611917 0.408964
vt 0.123273 0.268175
vt 0.122972 0.331043
vt 0.123423 0.205306
vt 0.000156 0.205306
vt 0.000125 0.242784
vt 0.000064 0.280261
vt 0.123273 0.142438
vt 0.122972 0.079570
vt 0.000064 0.130352
vt 0.000125 0.167829
vt 0.122972 0.331043
vt 0.030806 0.283587
vt 0.245655 0.372324
vt 0.030806 0.283587
vt 0.000125 0.167829
vt 0.030806 0.127026
vt 0.000156 0.205306
vt 0.030806 0.127026
vt 0.805028 0.030806
vt 0.873826 0.071832
vt 0.721203 0.008146
vt 0.873826 0.071832
vt 0.938030 0.277186
vt 0.873826 0.338781
vt 0.968983 0.205307
vt 0.873826 0.338781
vt 0.805028 0.379807
vt 0.721203 0.402467
vt 0.000125 0.242784
vt 0.122972 0.079570
vt 0.245655 0.038289
vt 0.938030 0.133427
vt 0.611917 0.001649
vt 0.489902 0.006032
vt 0.611917 0.408964
vt 0.489902 0.404581
vt 0.367890 0.394602
vt 0.367890 0.016011
f 1/1/1 2/2/2 3/3/3
f 1/1/1 3/3/3 4/4/4
f 1/1/1 4/4/4 5/5/5
f 1/1/1 5/5/5 6/6/6
f 1/1/1 6/6/6 7/7/7
f 1/1/1 7/7/7 8/8/8
f 1/1/1 8/8/8 9/9/9
f 1/1/1 9/9/9 2/2/2
f 10/10/10 11/11/11 12/12/12
f 10/10/10 12/12/12 13/13/13
f 10/10/10 13/13/13 3/3/3
f 10/10/10 3/3/3 2/2/2
f 10/10/10 2/2/2 9/9/9
f 10/10/10 9/9/9 14/14/14
f 10/10/10 14/14/14 15/15/15
f 10/10/10 15/15/15 11/11/11
f 16/16/16 17/17/17 18/18/18
f 16/16/16 18/18/18 19/19/19
f 16/16/16 19/19/19 20/20/20
f 16/16/16 20/20/20 21/21/21
f 16/16/16 21/21/21 22/22/22
f 16/16/16 22/22/22 23/23/23
f 16/16/16 23/23/23 24/24/24
f 16/16/16 24/24/24 17/17/17
f 25/25/25 21/21/21 20/20/20
f 25/25/25 20/20/20 26/26/26
f 25/25/25 26/26/26 27/27/27
f 25/25/25 27/27/27 28/28/28
f 25/25/25 28/28/28 29/29/29
f 25/25/25 29/29/29 30/30/30
f 25/25/25 30/30/30 22/22/22
f 25/25/25 22/22/22 21/21/21
f 31/31/31 32/32/32 22/22/22
f 31/31/31 22/22/22 30/30/30
f 31/31/31 30/30/30 29/29/29
f 31/31/31 29/29/29 33/33/33
f 31/31/31 33/33/33 5/5/5
f 31/31/31 5/5/5 4/4/4
f 31/31/31 4/4/4 3/3/3
f 31/31/31 3/3/3 32/32/32
f 34/34/34 35/35/35 24/24/24
f 34/34/34 24/24/24 23/23/23
f 34/34/34 23/23/23 22/22/22
f 34/34/34 22/22/22 32/32/32
f 34/34/34 32/32/32 3/3/3
f 34/34/34 3/3/3 13/13/13
f 34/34/34 13/13/13 12/12/12
f 34/34/34 12/12/12 35/35/35
f 36/36/36 37/37/37 38/38/38
f 36/36/36 38/38/38 39/39/39
f 36/36/36 39/39/39 40/40/40
f 36/36/36 40/40/40 41/41/41
f 36/36/36 41/41/41 20/20/20
f 36/36/36 20/20/20 19/19/19
f 36/36/36 19/19/19 18/18/18
f 36/36/36 18/18/18 37/37/37
f 42/42/42 41/41/41 40/40/40
f 42/42/42 40/40/40 43/43/43
f 42/42/42 43/43/43 44/44/44
f 42/42/42 44/44/44 45/45/45
f 42/42/42 45/45/45 27/27/27
f 42/42/42 27/27/27 26/26/26
f 42/42/42 26/26/26 20/20/20
f 42/42/42 20/20/20 41/41/41
f 46/46/46 47/47/47 48/48/48
f 46/46/46 48/48/48 49/49/49
f 46/46/46 49/49/49 50/50/50
f 46/46/46 50/50/50 51/51/51
f 46/46/46 51/51/51 52/52/52
f 46/46/46 52/52/52 53/53/53
f 46/46/46 53/53/53 54/54/54
f 46/46/46 54/54/54 47/47/47
f 55/55/55 56/56/56 57/57/57
f 55/55/55 57/57/57 58/58/58
f 55/55/55 58/58/58 48/48/48
f 55/55/55 48/48/48 47/47/47
f 55/55/55 47/47/47 54/54/54
f 55/55/55 54/54/54 59/59/59
f 55/55/55 59/59/59 60/60/60
f 55/55/55 60/60/60 56/56/56
f 61/61/61 62/62/62 63/63/63
f 61/61/61 63/63/63 64/64/64
f 61/61/61 64/64/64 65/65/65
f 61/61/61 65/65/65 66/66/66
f 61/61/61 66/66/66 67/67/67
f 61/61/61 67/67/67 68/68/68
f 61/61/61 68/68/68 69/69/69
f 61/61/61 69/69/69 62/62/62
f 70/70/70 66/66/66 65/65/65
f 70/70/70 65/65/65 71/71/71
f 70/70/70 71/71/71 72/72/72
f 70/70/70 72/72/72 73/73/73
f 70/70/70 73/73/73 74/74/74
f 70/70/70 74/74/74 75/75/75
f 70/70/70 75/75/75 67/67/67
f 70/70/70 67/67/67 66/66/66
f 76/76/76 77/77/77 54/54/54
f 76/76/76 54/54/54 53/53/53
f 76/76/76 53/53/53 52/52/52
f 76/76/76 52/52/52 78/78/78
f 76/76/76 78/78/78 72/72/72
f 76/76/76 72/72/72 71/71/71
f 76/76/76 71/71/71 65/65/65
f 76/76/76 65/65/65 77/77/77
f 79/79/79 80/80/80 60/60/60
f 79/79/79 60/60/60 59/59/59
f 79/79/79 59/59/59 54/54/54
f 79/79/79 54/54/54 77/77/77
f 79/79/79 77/77/77 65/65/65
f 79/79/79 65/65/65 64/64/64
f 79/79/79 64/64/64 63/63/63
f 79/79/79 63/63/63 80/80/80
f 81/81/81 82/82/82 69/69/69
f 81/81/81 69/69/69 68/68/68
f 81/81/81 68/68/68 67/67/67
f 81/81/81 67/67/67 83/83/83
f 81/81/81 83/83/83 84/84/84
f 81/81/81 84/84/84 85/85/85
f 81/81/81 85/85/85 86/86/86
f 81/81/81 86/86/86 82/82/82
f 87/87/87 83/83/83 67/67/67
f 87/87/87 67/67/67 75/75/75
f 87/87/87 75/75/75 74/74/74
f 87/87/87 74/74/74 88/88/88
f 87/87/87 88/88/88 89/89/89
f 87/87/87 89/89/89 90/90/90
f 87/87/87 90/90/90 84/84/84
f 87/87/87 84/84/84 83/83/83
f 91/91/91 92/92/92 38/38/38
f 91/91/91 38/38/38 37/37/37
f 91/91/91 37/37/37 18/18/18
f 91/91/91 18/18/18 93/93/93
f 91/91/91 93/93/93 69/69/69
f 91/91/91 69/69/69 82/82/82
f 91/91/91 82/82/82 94/94/94
f 91/91/91 94/94/94 92/92/92
f 95/95/95 96/96/96 44/44/44
f 95/95/95 44/44/44 43/43/43
f 95/95/95 43/43/43 40/40/40
f 95/95/95 40/40/40 97/97/97
f 95/95/95 97/97/97 84/84/84
f 95/95/95 84/84/84 90/90/90
f 95/95/95 90/90/90 98/98/98
f 95/95/95 98/98/98 96/96/96
f 99/99/99 100/100/100 7/7/7
f 99/99/99 7/7/7 6/6/6
f 99/99/99 6/6/6 5/5/5
f 99/99/99 5/5/5 101/101/101
f 99/99/99 101/101/101 52/52/52
f 99/99/99 52/52/52 51/51/51
f 99/99/99 51/51/51 102/102/102
f 99/99/99 102/102/102 100/100/100
f 103/103/103 104/104/104 15/15/15
f 103/103/103 15/15/15 14/14/14
f 103/103/103 14/14/14 9/9/9
f 103/103/103 9/9/9 105/105/105
f 103/103/103 105/105/105 48/48/48
f 103/103/103 48/48/48 58/58/58
f 103/103/103 58/58/58 106/106/106
f 103/103/103 106/106/106 104/104/104
f 107/107/107 108/108/108 12/12/12
f 107/107/107 12/12/12 11/11/11
f 107/107/107 11/11/11 15/15/15
f 107/107/107 15/15/15 104/104/104
f 107/107/107 104/104/104 106/106/106
f 107/107/107 106/106/106 56/56/56
f 107/107/107 56/56/56 60/60/60
f 107/107/107 60/60/60 108/108/108
f 109/109/109 97/97/97 40/40/40
f 109/109/109 40/40/40 39/39/39
f 109/109/109 39/39/39 38/38/38
f 109/109/109 38/38/38 92/92/92
f 109/109/109 92/92/92 94/94/94
f 109/109/109 94/94/94 85/85/85
f 109/109/109 85/85/85 84/84/84
f 109/109/109 84/84/84 97/97/97
f 110/110/110 111/111/111 27/27/27
f 110/110/110 27/27/27 45/45/45
f 110/110/110 45/45/45 44/44/44
f 110/110/110 44/44/44 96/96/96
f 110/110/110 96/96/96 98/98/98
f 110/110/110 98/98/98 88/88/88
f 110/110/110 88/88/88 74/74/74
f 110/110/110 74/74/74 111/111/111
f 112/112/112 105/105/105 9/9/9
f 112/112/112 9/9/9 8/8/8
f 112/112/112 8/8/8 7/7/7
f 112/112/112 7/7/7 100/100/100
f 112/112/112 100/100/100 102/102/102
f 112/112/112 102/102/102 49/49/49
f 112/112/112 49/49/49 48/48/48
f 112/112/112 48/48/48 105/105/105
f 113/113/113 101/101/101 5/5/5
f 113/113/113 5/5/5 33/33/33
f 113/113/113 33/33/33 29/29/29
f 113/113/113 29/29/29 114/114/114
f 113/113/113 114/114/114 72/72/72
f 113/113/113 72/72/72 78/78/78
f 113/113/113 78/78/78 52/52/52
f 113/113/113 52/52/52 101/101/101
f 115/115/115 116/116/116 24/24/24
f 115/115/115 24/24/24 35/35/35
f 115/115/115 35/35/35 12/12/12
f 115/115/115 12/12/12 108/108/108
f 115/115/115 108/108/108 60/60/60
f 115/115/115 60/60/60 80/80/80
f 115/115/115 80/80/80 63/63/63
f 115/115/115 63/63/63 116/116/116
f 117/117/117 93/93/93 18/18/18
f 117/117/117 18/18/18 17/17/17
f 117/117/117 17/17/17 24/24/24
f 117/117/117 24/24/24 116/116/116
f 117/117/117 116/116/116 63/63/63
f 117/117/117 63/63/63 62/62/62
f 117/117/117 62/62/62 69/69/69
f 117/117/117 69/69/69 93/93/93
f 118/118/118 114/114/114 29/29/29
f 118/118/118 29/29/29 28/28/28
f 118/118/118 28/28/28 27/27/27
f 118/118/118 27/27/27 111/111/111
f 118/118/118 111/111/111 74/74/74
f 118/118/118 74/74/74 73/73/73
f 118/118/118 73/73/73 72/72/72
f 118/118/118 72/72/72 114/114/114
