v -2.344322 0.712069 -1.113056
v -2.345584 0.713228 -1.115014
v -2.348162 0.711579 -1.11339
v -2.346439 0.71039 -1.111393
v -2.345274 0.7096 -1.109648
v -2.343676 0.711201 -1.11122
v -2.342973 0.712216 -1.112657
v -2.342879 0.713201 -1.114381
v -2.34369 0.714348 -1.116284
v -2.347675 0.714468 -1.115943
v -2.349557 0.715409 -1.116282
v -2.351954 0.714381 -1.115398
v -2.35025 0.713117 -1.114674
v -2.345781 0.715278 -1.116879
v -2.347735 0.715624 -1.116756
v -2.358063 0.706601 -1.110913
v -2.359555 0.707752 -1.111899
v -2.361707 0.70492 -1.110764
v -2.360381 0.703894 -1.109905
v -2.358668 0.702609 -1.108642
v -2.356132 0.705154 -1.109472
v -2.353539 0.707543 -1.110498
v -2.355563 0.709073 -1.111987
v -2.357132 0.710302 -1.112987
v -2.354328 0.703929 -1.107699
v -2.357079 0.701531 -1.107063
v -2.35592 0.700778 -1.105782
v -2.353011 0.70307 -1.106267
v -2.350288 0.705405 -1.107096
v -2.351657 0.706278 -1.108624
v -2.348956 0.708446 -1.109886
v -2.350848 0.709685 -1.111845
v -2.347594 0.707625 -1.108248
v -2.352919 0.711282 -1.113298
v -2.354539 0.712595 -1.114227
v -2.362482 0.700981 -1.108789
v -2.363493 0.701778 -1.109382
v -2.364216 0.699797 -1.108511
v -2.363969 0.698703 -1.107941
v -2.363063 0.697998 -1.107369
v -2.361188 0.699999 -1.107884
v -2.360018 0.699218 -1.106668
v -2.36228 0.697494 -1.106487
v -2.361177 0.697623 -1.105895
v -2.359172 0.698686 -1.105662
v -2.344276 0.711857 -1.11322
v -2.345564 0.713032 -1.115201
v -2.343677 0.714199 -1.116422
v -2.342846 0.71304 -1.114501
v -2.342942 0.712094 -1.112741
v -2.343629 0.711035 -1.11133
v -2.345224 0.709441 -1.109766
v -2.346387 0.710185 -1.111565
v -2.348133 0.711389 -1.113582
v -2.347679 0.714292 -1.11615
v -2.349573 0.715288 -1.116447
v -2.347745 0.715531 -1.116875
v -2.345788 0.715145 -1.117034
v -2.350243 0.712944 -1.114884
v -2.35196 0.714261 -1.115564
v -2.358012 0.706453 -1.111137
v -2.359525 0.707647 -1.112073
v -2.357113 0.710191 -1.113159
v -2.355525 0.708916 -1.112207
v -2.353483 0.707373 -1.110705
v -2.356065 0.704994 -1.109683
v -2.358593 0.702456 -1.108856
v -2.360323 0.703753 -1.110132
v -2.361672 0.70482 -1.11094
v -2.354246 0.703758 -1.107895
v -2.351585 0.706097 -1.108815
v -2.350225 0.705263 -1.10723
v -2.352942 0.702937 -1.106406
v -2.355845 0.70065 -1.105924
v -2.356988 0.701367 -1.107262
v -2.348894 0.708252 -1.110067
v -2.350806 0.709504 -1.112044
v -2.347538 0.707474 -1.108374
v -2.352897 0.711116 -1.113513
v -2.354532 0.712479 -1.114395
v -2.362422 0.700844 -1.109018
v -2.363457 0.701682 -1.10956
v -2.361111 0.699848 -1.108099
v -2.363005 0.697886 -1.10753
v -2.363925 0.698601 -1.108113
v -2.364187 0.699724 -1.108641
v -2.359923 0.699056 -1.106867
v -2.359092 0.698559 -1.105803
v -2.361121 0.69753 -1.106001
v -2.362208 0.697373 -1.106636
v -2.363816 0.702003 -1.109661
v -2.36471 0.699283 -1.108372
v -2.362136 0.705219 -1.11113
v -2.364187 0.699724 -1.108641
v -2.363002 0.696866 -1.106493
v -2.361666 0.697105 -1.105751
v -2.363662 0.697281 -1.107269
v -2.361121 0.69753 -1.106001
v -2.343437 0.710836 -1.110654
v -2.342669 0.712187 -1.112523
v -2.344861 0.709265 -1.109116
v -2.342942 0.712094 -1.112741
v -2.345154 0.715489 -1.11726
v -2.347822 0.715874 -1.116958
v -2.343054 0.714654 -1.116768
v -2.347745 0.715531 -1.116875
v -2.350194 0.715671 -1.11647
v -2.352528 0.714751 -1.115715
v -2.364445 0.697898 -1.107735
v -2.358853 0.698451 -1.105388
v -2.355499 0.700469 -1.105417
v -2.342383 0.713507 -1.114875
v -2.347112 0.707283 -1.107756
v -2.349802 0.705049 -1.106644
v -2.355078 0.712983 -1.114613
v -2.357649 0.710664 -1.113399
v -2.36004 0.708091 -1.112306
v -2.35254 0.702724 -1.10585
vn -0.1949 0.8232 0.5332
vn -0.036 0.7475 0.6632
vn -0.0805 0.7185 0.6908
vn -0.2244 0.7858 0.5763
vn -0.2368 0.7692 0.5934
vn -0.19 0.8205 0.539
vn -0.1553 0.8527 0.4987
vn -0.0997 0.8512 0.5152
vn 0.0337 0.7874 0.6154
vn 0.0936 0.6168 0.7815
vn 0.088 0.6216 0.7783
vn 0.0086 0.5936 0.8047
vn 0.0335 0.6012 0.7984
vn 0.1359 0.6826 0.718
vn 0.1432 0.6391 0.7556
vn -0.1902 0.513 0.837
vn -0.2216 0.5269 0.8205
vn -0.2459 0.5064 0.8265
vn -0.2077 0.4862 0.8488
vn -0.2943 0.5385 0.7895
vn -0.2648 0.5676 0.7795
vn -0.2042 0.623 0.7551
vn -0.1271 0.5553 0.8219
vn -0.1582 0.559 0.8139
vn -0.335 0.6167 0.7123
vn -0.3631 0.5973 0.715
vn -0.3376 0.5719 0.7476
vn -0.3171 0.5953 0.7382
vn -0.2846 0.6494 0.7051
vn -0.2896 0.6716 0.682
vn -0.248 0.735 0.631
vn -0.1356 0.6787 0.7218
vn -0.2566 0.7134 0.6521
vn -0.0432 0.5884 0.8074
vn -0.0739 0.5827 0.8093
vn -0.1996 0.4623 0.8639
vn -0.2436 0.4812 0.842
vn -0.2329 0.4522 0.8609
vn -0.2223 0.4098 0.8846
vn -0.3459 0.4837 0.8039
vn -0.308 0.5245 0.7938
vn -0.3889 0.5978 0.7009
vn -0.4407 0.566 0.6967
vn -0.3967 0.5695 0.7199
vn -0.3652 0.5681 0.7375
vn 0.2302 -0.8199 -0.5241
vn 0.0482 -0.7398 -0.671
vn 0.0956 -0.708 -0.6997
vn 0.3323 -0.8056 -0.4904
vn 0.4222 -0.8095 -0.408
vn 0.4008 -0.8121 -0.424
vn 0.36 -0.7996 -0.4806
vn 0.2353 -0.7899 -0.5663
vn 0.0804 -0.7186 -0.6907
vn -0.0946 -0.5876 -0.8036
vn -0.1469 -0.4203 -0.8954
vn -0.1552 -0.3966 -0.9048
vn -0.0997 -0.4965 -0.8623
vn -0.0425 -0.591 -0.8055
vn -0.1003 -0.4702 -0.8768
vn 0.1781 -0.5051 -0.8444
vn 0.092 -0.4473 -0.8896
vn 0.0463 -0.4748 -0.8789
vn 0.1164 -0.5472 -0.8289
vn 0.2043 -0.6229 -0.7552
vn 0.2649 -0.5675 -0.7795
vn 0.2944 -0.5384 -0.7895
vn 0.1922 -0.4783 -0.8569
vn 0.0758 -0.4308 -0.8992
vn 0.3444 -0.6242 -0.7013
vn 0.2988 -0.6777 -0.6718
vn 0.3752 -0.7101 -0.5958
vn 0.4059 -0.672 -0.6194
vn 0.422 -0.6785 -0.6013
vn 0.3725 -0.6073 -0.7017
vn 0.2574 -0.7402 -0.6211
vn 0.1356 -0.6787 -0.7217
vn 0.3531 -0.7615 -0.5435
vn 0.0333 -0.5799 -0.814
vn -0.0288 -0.4882 -0.8722
vn 0.1677 -0.4619 -0.8709
vn 0.0121 -0.4201 -0.9074
vn 0.2997 -0.533 -0.7912
vn 0.2627 -0.5697 -0.7787
vn 0.0661 -0.4671 -0.8817
vn -0.0302 -0.4168 -0.9085
vn 0.3909 -0.6216 -0.6788
vn 0.4279 -0.7176 -0.5494
vn 0.426 -0.7433 -0.5157
vn 0.3843 -0.695 -0.6077
vn -0.917 0.2852 -0.2787
vn -0.9976 -0.0485 -0.0491
vn -0.8439 0.3884 -0.37
vn -0.0302 -0.4168 -0.9085
vn -0.518 -0.7691 0.3743
vn -0.106 -0.6872 0.7187
vn -0.6431 -0.7566 0.1186
vn 0.426 -0.7433 -0.5157
vn 0.8074 -0.0299 0.5893
vn 0.9225 0.1566 0.3527
vn 0.702 -0.1844 0.6879
vn 0.4222 -0.8095 -0.408
vn 0.3146 0.6997 -0.6414
vn -0.0663 0.8643 -0.4986
vn 0.7455 0.4098 -0.5255
vn -0.1552 -0.3966 -0.9048
vn -0.3789 0.8186 -0.4316
vn -0.5638 0.7215 -0.4018
vn -0.8328 -0.5439 0.1033
vn 0.2907 -0.5796 0.7613
vn 0.4344 -0.5267 0.7306
vn 0.9699 0.2307 -0.0771
vn 0.6225 -0.3049 0.7208
vn 0.5781 -0.3798 0.7221
vn -0.6745 0.6232 -0.3956
vn -0.7283 0.5548 -0.4022
vn -0.7757 0.483 -0.4061
vn 0.5301 -0.4513 0.7178
vt 0.839504 0.118056
vt 0.856743 0.205307
vt 0.741230 0.205307
vt 0.734555 0.106726
vt 0.724541 0.032791
vt 0.813647 0.052618
vt 0.868992 0.081539
vt 0.913398 0.129584
vt 0.940923 0.205307
vt 0.839504 0.292557
vt 0.813647 0.357995
vt 0.724541 0.377822
vt 0.734555 0.303887
vt 0.913398 0.281029
vt 0.868992 0.329074
vt 0.369475 0.299954
vt 0.368286 0.370940
vt 0.245840 0.351447
vt 0.246397 0.288815
vt 0.246768 0.205307
vt 0.370268 0.205307
vt 0.494283 0.205307
vt 0.492822 0.304944
vt 0.490632 0.379672
vt 0.369475 0.110659
vt 0.246397 0.121798
vt 0.245841 0.059166
vt 0.368286 0.039673
vt 0.490632 0.030941
vt 0.492822 0.105669
vt 0.616755 0.103478
vt 0.619174 0.205307
vt 0.613127 0.027106
vt 0.616755 0.307135
vt 0.613126 0.383507
vt 0.123273 0.268175
vt 0.123047 0.315326
vt 0.054743 0.283353
vt 0.030912 0.249131
vt 0.030973 0.205306
vt 0.123423 0.205306
vt 0.123273 0.142438
vt 0.030912 0.161481
vt 0.054744 0.127260
vt 0.123047 0.095287
vt 0.839504 0.118056
vt 0.856743 0.205307
vt 0.968983 0.205307
vt 0.938030 0.133427
vt 0.876123 0.061548
vt 0.805028 0.030806
vt 0.721203 0.008146
vt 0.734555 0.106726
vt 0.741230 0.205307
vt 0.839504 0.292557
vt 0.805028 0.379807
vt 0.876123 0.349065
vt 0.938030 0.277186
vt 0.734555 0.303887
vt 0.721203 0.402467
vt 0.369475 0.299954
vt 0.367890 0.394602
vt 0.489902 0.404581
vt 0.492822 0.304944
vt 0.494283 0.205307
vt 0.370268 0.205307
vt 0.246768 0.205307
vt 0.246397 0.288815
vt 0.245655 0.372324
vt 0.369475 0.110659
vt 0.492822 0.105669
vt 0.489902 0.006032
vt 0.367890 0.016011
vt 0.245655 0.038289
vt 0.246397 0.121798
vt 0.616755 0.103478
vt 0.619174 0.205307
vt 0.611917 0.001649
vt 0.616755 0.307135
vt 0.611917 0.408964
vt 0.123273 0.268175
vt 0.122972 0.331043
vt 0.123423 0.205306
vt 0.000156 0.205306
vt 0.000125 0.242784
vt 0.000064 0.280261
vt 0.123273 0.142438
vt 0.122972 0.079570
vt 0.000064 0.130352
vt 0.000125 0.167829
vt 0.122972 0.331043
vt 0.030806 0.283587
vt 0.245655 0.372324
vt 0.030806 0.283587
vt 0.000125 0.167829
vt 0.030806 0.127026
vt 0.000156 0.205306
vt 0.030806 0.127026
vt 0.805028 0.030806
vt 0.873826 0.071832
vt 0.721203 0.008146
vt 0.873826 0.071832
vt 0.938030 0.277186
vt 0.873826 0.338781
vt 0.968983 0.205307
vt 0.873826 0.338781
vt 0.805028 0.379807
vt 0.721203 0.402467
vt 0.000125 0.242784
vt 0.122972 0.079570
vt 0.245655 0.038289
vt 0.938030 0.133427
vt 0.611917 0.001649
vt 0.489902 0.006032
vt 0.611917 0.408964
vt 0.489902 0.404581
vt 0.367890 0.394602
vt 0.367890 0.016011
f 1/1/1 2/2/2 3/3/3
f 1/1/1 3/3/3 4/4/4
f 1/1/1 4/4/4 5/5/5
f 1/1/1 5/5/5 6/6/6
f 1/1/1 6/6/6 7/7/7
f 1/1/1 7/7/7 8/8/8
f 1/1/1 8/8/8 9/9/9
f 1/1/1 9/9/9 2/2/2
f 10/10/10 11/11/11 12/12/12
f 10/10/10 12/12/12 13/13/13
f 10/10/10 13/13/13 3/3/3
f 10/10/10 3/3/3 2/2/2
f 10/10/10 2/2/2 9/9/9
f 10/10/10 9/9/9 14/14/14
f 10/10/10 14/14/14 15/15/15
f 10/10/10 15/15/15 11/11/11
f 16/16/16 17/17/17 18/18/18
f 16/16/16 18/18/18 19/19/19
f 16/16/16 19/19/19 20/20/20
f 16/16/16 20/20/20 21/21/21
f 16/16/16 21/21/21 22/22/22
f 16/16/16 22/22/22 23/23/23
f 16/16/16 23/23/23 24/24/24
f 16/16/16 24/24/24 17/17/17
f 25/25/25 21/21/21 20/20/20
f 25/25/25 20/20/20 26/26/26
f 25/25/25 26/26/26 27/27/27
f 25/25/25 27/27/27 28/28/28
f 25/25/25 28/28/28 29/29/29
f 25/25/25 29/29/29 30/30/30
f 25/25/25 30/30/30 22/22/22
f 25/25/25 22/22/22 21/21/21
f 31/31/31 32/32/32 22/22/22
f 31/31/31 22/22/22 30/30/30
f 31/31/31 30/30/30 29/29/29
f 31/31/31 29/29/29 33/33/33
f 31/31/31 33/33/33 5/5/5
f 31/31/31 5/5/5 4/4/4
f 31/31/31 4/4/4 3/3/3
f 31/31/31 3/3/3 32/32/32
f 34/34/34 35/35/35 24/24/24
f 34/34/34 24/24/24 23/23/23
f 34/34/34 23/23/23 22/22/22
f 34/34/34 22/22/22 32/32/32
f 34/34/34 32/32/32 3/3/3
f 34/34/34 3/3/3 13/13/13
f 34/34/34 13/13/13 12/12/12
f 34/34/34 12/12/12 35/35/35
f 36/36/36 37/37/37 38/38/38
f 36/36/36 38/38/38 39/39/39
f 36/36/36 39/39/39 40/40/40
f 36/36/36 40/40/40 41/41/41
f 36/36/36 41/41/41 20/20/20
f 36/36/36 20/20/20 19/19/19
f 36/36/36 19/19/19 18/18/18
f 36/36/36 18/18/18 37/37/37
f 42/42/42 41/41/41 40/40/40
f 42/42/42 40/40/40 43/43/43
f 42/42/42 43/43/43 44/44/44
f 42/42/42 44/44/44 45/45/45
f 42/42/42 45/45/45 27/27/27
f 42/42/42 27/27/27 26/26/26
f 42/42/42 26/26/26 20/20/20
f 42/42/42 20/20/20 41/41/41
f 46/46/46 47/47/47 48/48/48
f 46/46/46 48/48/48 49/49/49
f 46/46/46 49/49/49 50/50/50
f 46/46/46 50/50/50 51/51/51
f 46/46/46 51/51/51 52/52/52
f 46/46/46 52/52/52 53/53/53
f 46/46/46 53/53/53 54/54/54
f 46/46/46 54/54/54 47/47/47
f 55/55/55 56/56/56 57/57/57
f 55/55/55 57/57/57 58/58/58
f 55/55/55 58/58/58 48/48/48
f 55/55/55 48/48/48 47/47/47
f 55/55/55 47/47/47 54/54/54
f 55/55/55 54/54/54 59/59/59
f 55/55/55 59/59/59 60/60/60
f 55/55/55 60/60/60 56/56/56
f 61/61/61 62/62/62 63/63/63
f 61/61/61 63/63/63 64/64/64
f 61/61/61 64/64/64 65/65/65
f 61/61/61 65/65/65 66/66/66
f 61/61/61 66/66/66 67/67/67
f 61/61/61 67/67/67 68/68/68
f 61/61/61 68/68/68 69/69/69
f 61/61/61 69/69/69 62/62/62
f 70/70/70 66/66/66 65/65/65
f 70/70/70 65/65/65 71/71/71
f 70/70/70 71/71/71 72/72/72
f 70/70/70 72/72/72 73/73/73
f 70/70/70 73/73/73 74/74/74
f 70/70/70 74/74/74 75/75/75
f 70/70/70 75/75/75 67/67/67
f 70/70/70 67/67/67 66/66/66
f 76/76/76 77/77/77 54/54/54
f 76/76/76 54/54/54 53/53/53
f 76/76/76 53/53/53 52/52/52
f 76/76/76 52/52/52 78/78/78
f 76/76/76 78/78/78 72/72/72
f 76/76/76 72/72/72 71/71/71
f 76/76/76 71/71/71 65/65/65
f 76/76/76 65/65/65 77/77/77
f 79/79/79 80/80/80 60/60/60
f 79/79/79 60/60/60 59/59/59
f 79/79/79 59/59/59 54/54/54
f 79/79/79 54/54/54 77/77/77
f 79/79/79 77/77/77 65/65/65
f 79/79/79 65/65/65 64/64/64
f 79/79/79 64/64/64 63/63/63
f 79/79/79 63/63/63 80/80/80
f 81/81/81 82/82/82 69/69/69
f 81/81/81 69/69/69 68/68/68
f 81/81/81 68/68/68 67/67/67
f 81/81/81 67/67/67 83/83/83
f 81/81/81 83/83/83 84/84/84
f 81/81/81 84/84/84 85/85/85
f 81/81/81 85/85/85 86/86/86
f 81/81/81 86/86/86 82/82/82
f 87/87/87 83/83/83 67/67/67
f 87/87/87 67/67/67 75/75/75
f 87/87/87 75/75/75 74/74/74
f 87/87/87 74/74/74 88/88/88
f 87/87/87 88/88/88 89/89/89
f 87/87/87 89/89/89 90/90/90
f 87/87/87 90/90/90 84/84/84
f 87/87/87 84/84/84 83/83/83
f 91/91/91 92/92/92 38/38/38
f 91/91/91 38/38/38 37/37/37
f 91/91/91 37/37/37 18/18/18
f 91/91/91 18/18/18 93/93/93
f 91/91/91 93/93/93 69/69/69
f 91/91/91 69/69/69 82/82/82
f 91/91/91 82/82/82 94/94/94
f 91/91/91 94/94/94 92/92/92
f 95/95/95 96/96/96 44/44/44
f 95/95/95 44/44/44 43/43/43
f 95/95/95 43/43/43 40/40/40
f 95/95/95 40/40/40 97/97/97
f 95/95/95 97/97/97 84/84/84
f 95/95/95 84/84/84 90/90/90
f 95/95/95 90/90/90 98/98/98
f 95/95/95 98/98/98 96/96/96
f 99/99/99 100/100/100 7/7/7
f 99/99/99 7/7/7 6/6/6
f 99/99/99 6/6/6 5/5/5
f 99/99/99 5/5/5 101/101/101
f 99/99/99 101/101/101 52/52/52
f 99/99/99 52/52/52 51/51/51
f 99/99/99 51/51/51 102/102/102
f 99/99/99 102/102/102 100/100/100
f 103/103/103 104/104/104 15/15/15
f 103/103/103 15/15/15 14/14/14
f 103/103/103 14/14/14 9/9/9
f 103/103/103 9/9/9 105/105/105
f 103/103/103 105/105/105 48/48/48
f 103/103/103 48/48/48 58/58/58
f 103/103/103 58/58/58 106/106/106
f 103/103/103 106/106/106 104/104/104
f 107/107/107 108/108/108 12/12/12
f 107/107/107 12/12/12 11/11/11
f 107/107/107 11/11/11 15/15/15
f 107/107/107 15/15/15 104/104/104
f 107/107/107 104/104/104 106/106/106
f 107/107/107 106/106/106 56/56/56
f 107/107/107 56/56/56 60/60/60
f 107/107/107 60/60/60 108/108/108
f 109/109/109 97/97/97 40/40/40
f 109/109/109 40/40/40 39/39/39
f 109/109/109 39/39/39 38/38/38
f 109/109/109 38/38/38 92/92/92
f 109/109/109 92/92/92 94/94/94
f 109/109/109 94/94/94 85/85/85
f 109/109/109 85/85/85 84/84/84
f 109/109/109 84/84/84 97/97/97
f 110/110/110 111/111/111 27/27/27
f 110/110/110 27/27/27 45/45/45
f 110/110/110 45/45/45 44/44/44
f 110/110/110 44/44/44 96/96/96
f 110/110/110 96/96/96 98/98/98
f 110/110/110 98/98/98 88/88/88
f 110/110/110 88/88/88 74/74/74
f 110/110/110 74/74/74 111/111/111
f 112/112/112 105/105/105 9/9/9
f 112/112/112 9/9/9 8/8/8
f 112/112/112 8/8/8 7/7/7
f 112/112/112 7/7/7 100/100/100
f 112/112/112 100/100/100 102/102/102
f 112/112/112 102/102/102 49/49/49
f 112/112/112 49/49/49 48/48/48
f 112/112/112 48/48/48 105/105/105
f 113/113/113 101/101/101 5/5/5
f 113/113/113 5/5/5 33/33/33
f 113/113/113 33/33/33 29/29/29
f 113/113/113 29/29/29 114/114/114
f 113/113/113 114/114/114 72/72/72
f 113/113/113 72/72/72 78/78/78
f 113/113/113 78/78/78 52/52/52
f 113/113/113 52/52/52 101/101/101
f 115/115/115 116/116/116 24/24/24
f 115/115/115 24/24/24 35/35/35
f 115/115/115 35/35/35 12/12/12
f 115/115/115 12/12/12 108/108/108
f 115/115/115 108/108/108 60/60/60
f 115/115/115 60/60/60 80/80/80
f 115/115/115 80/80/80 63/63/63
f 115/115/115 63/63/63 116/116/116
f 117/117/117 93/93/93 18/18/18
f 117/117/117 18/18/18 17/17/17
f 117/117/117 17/17/17 24/24/24
f 117/117/117 24/24/24 116/116/116
f 117/117/117 116/116/116 63/63/63
f 117/117/117 63/63/63 62/62/62
f 117/117/117 62/62/62 69/69/69
f 117/117/117 69/69/69 93/93/93
f 118/118/118 114/114/114 29/29/29
f 118/118/118 29/29/29 28/28/28
f 118/118/118 28/28/28 27/27/27
f 118/118/118 27/27/27 111/111/111
f 118/118/118 111/111/111 74/74/74
f 118/118/118 74/74/74 73/73/73
f 118/118/118 73/73/73 72/72/72
f 118/118/118 72/72/72 114/114/114
