v -2.436754 0.765921 -1.111334
v -2.438113 0.765807 -1.112782
v -2.438778 0.763749 -1.111255
v -2.437132 0.764071 -1.109812
v -2.436017 0.764335 -1.108538
v -2.435902 0.765896 -1.109946
v -2.436023 0.766696 -1.111147
v -2.436495 0.767157 -1.112517
v -2.437581 0.767258 -1.113958
v -2.439971 0.765436 -1.113388
v -2.441544 0.765045 -1.113548
v -2.442426 0.763368 -1.11263
v -2.440788 0.76352 -1.112147
v -2.439279 0.766737 -1.114295
v -2.440592 0.766007 -1.114064
v -2.442091 0.756284 -1.108313
v -2.443556 0.756145 -1.109005
v -2.443405 0.753554 -1.107816
v -2.442103 0.753675 -1.107215
v -2.440436 0.753868 -1.106322
v -2.440213 0.756505 -1.107294
v -2.439886 0.75906 -1.108411
v -2.441861 0.758838 -1.109463
v -2.443409 0.758705 -1.110164
v -2.438509 0.756825 -1.106026
v -2.438935 0.754153 -1.105192
v -2.437853 0.754392 -1.104272
v -2.437279 0.757092 -1.104998
v -2.436843 0.759696 -1.105972
v -2.438113 0.759403 -1.10707
v -2.43762 0.761859 -1.108361
v -2.439388 0.761487 -1.109764
v -2.436376 0.76219 -1.107183
v -2.441422 0.761285 -1.110789
v -2.44304 0.761184 -1.111437
v -2.441883 0.75106 -1.10604
v -2.442882 0.750982 -1.106454
v -2.442315 0.749555 -1.105626
v -2.44162 0.749088 -1.105153
v -2.440729 0.749166 -1.104752
v -2.440619 0.751194 -1.105402
v -2.439519 0.751417 -1.104531
v -2.44 0.749332 -1.104118
v -2.4394 0.749995 -1.103764
v -2.438736 0.751608 -1.103806
v -2.436627 0.765804 -1.111451
v -2.43801 0.765685 -1.112915
v -2.437505 0.767165 -1.114056
v -2.436399 0.767067 -1.112601
v -2.435948 0.766632 -1.111207
v -2.435796 0.765812 -1.110024
v -2.435912 0.764255 -1.108622
v -2.437006 0.76396 -1.109935
v -2.438673 0.763633 -1.111392
v -2.439893 0.765311 -1.113536
v -2.441499 0.764951 -1.113665
v -2.440555 0.765936 -1.114149
v -2.439223 0.766641 -1.114404
v -2.440706 0.763402 -1.112297
v -2.442375 0.76328 -1.112749
v -2.441995 0.756201 -1.108479
v -2.443492 0.756082 -1.109134
v -2.443348 0.758634 -1.11029
v -2.441767 0.758744 -1.109624
v -2.439775 0.758968 -1.108562
v -2.440101 0.756424 -1.107451
v -2.440323 0.753795 -1.106482
v -2.442006 0.753599 -1.107384
v -2.443341 0.753496 -1.107948
v -2.438382 0.756746 -1.106172
v -2.437987 0.759314 -1.10721
v -2.43674 0.759631 -1.106071
v -2.437176 0.757035 -1.105101
v -2.43775 0.75434 -1.104378
v -2.438807 0.754082 -1.105341
v -2.437494 0.761758 -1.108493
v -2.43928 0.761382 -1.109909
v -2.436273 0.762116 -1.107275
v -2.441334 0.761179 -1.110945
v -2.442983 0.761104 -1.111559
v -2.441787 0.750987 -1.106211
v -2.442818 0.750927 -1.106586
v -2.440506 0.751124 -1.105563
v -2.440644 0.749114 -1.104873
v -2.441548 0.749033 -1.105281
v -2.442266 0.749515 -1.105723
v -2.439389 0.751349 -1.10468
v -2.438631 0.751559 -1.103912
v -2.439324 0.749958 -1.103844
v -2.439902 0.749282 -1.10423
v -2.443189 0.750932 -1.106651
v -2.44235 0.749029 -1.105452
v -2.443813 0.753488 -1.108076
v -2.442266 0.749515 -1.105723
v -2.440116 0.748615 -1.10403
v -2.439429 0.74947 -1.103588
v -2.440727 0.748467 -1.104589
v -2.439324 0.749958 -1.103844
v -2.435569 0.765851 -1.109516
v -2.435827 0.766838 -1.111069
v -2.435596 0.764388 -1.108149
v -2.435948 0.766632 -1.111207
v -2.439024 0.767128 -1.114645
v -2.44077 0.766092 -1.114225
v -2.43737 0.7677 -1.114393
v -2.440555 0.765936 -1.114149
v -2.442051 0.764873 -1.113654
v -2.442952 0.763278 -1.112845
v -2.441501 0.748406 -1.104914
v -2.438426 0.75165 -1.103611
v -2.437445 0.754449 -1.104011
v -2.436366 0.767529 -1.112948
v -2.435914 0.762268 -1.106829
v -2.436372 0.759765 -1.105649
v -2.443556 0.761115 -1.111709
v -2.4439 0.75863 -1.110455
v -2.444017 0.75607 -1.109294
v -2.436821 0.757156 -1.1047
vn -0.658 0.5719 0.4897
vn -0.483 0.6304 0.6076
vn -0.4978 0.5834 0.6417
vn -0.6552 0.53 0.5384
vn -0.6536 0.5116 0.5578
vn -0.6523 0.5738 0.4952
vn -0.6478 0.6153 0.4491
vn -0.6034 0.6514 0.4599
vn -0.4567 0.6991 0.5501
vn -0.2959 0.6266 0.7209
vn -0.3034 0.6263 0.7181
vn -0.3455 0.5581 0.7544
vn -0.3315 0.5788 0.745
vn -0.3077 0.6961 0.6487
vn -0.2729 0.6719 0.6885
vn -0.4456 0.3746 0.813
vn -0.4791 0.3634 0.7989
vn -0.4844 0.333 0.809
vn -0.4415 0.3444 0.8285
vn -0.5434 0.3226 0.775
vn -0.5398 0.3623 0.7598
vn -0.5295 0.44 0.7253
vn -0.4247 0.445 0.7884
vn -0.4512 0.4273 0.7835
vn -0.6274 0.3472 0.697
vn -0.6365 0.315 0.704
vn -0.5995 0.3157 0.7355
vn -0.5991 0.3453 0.7223
vn -0.6098 0.4033 0.6822
vn -0.6286 0.4143 0.6582
vn -0.639 0.4828 0.5987
vn -0.5136 0.5219 0.6811
vn -0.631 0.4635 0.6221
vn -0.3819 0.5216 0.7629
vn -0.4017 0.4981 0.7684
vn -0.4194 0.3332 0.8444
vn -0.466 0.3172 0.826
vn -0.4386 0.3042 0.8456
vn -0.4027 0.2811 0.8711
vn -0.5475 0.2497 0.7986
vn -0.5448 0.3037 0.7816
vn -0.6571 0.2974 0.6926
vn -0.6766 0.2397 0.6962
vn -0.6443 0.2731 0.7143
vn -0.6185 0.2941 0.7286
vn 0.6833 -0.5461 -0.4846
vn 0.4873 -0.6177 -0.6172
vn 0.5024 -0.5669 -0.6528
vn 0.7537 -0.4664 -0.4629
vn 0.8279 -0.4029 -0.3901
vn 0.8126 -0.4203 -0.4037
vn 0.7714 -0.4432 -0.4565
vn 0.6665 -0.525 -0.5293
vn 0.4977 -0.5835 -0.6417
vn 0.2757 -0.6076 -0.7448
vn 0.1255 -0.5239 -0.8424
vn 0.1036 -0.5121 -0.8526
vn 0.2115 -0.5483 -0.809
vn 0.3178 -0.5776 -0.7519
vn 0.1938 -0.5304 -0.8253
vn 0.431 -0.3771 -0.8197
vn 0.3264 -0.3929 -0.8597
vn 0.3092 -0.4414 -0.8423
vn 0.4111 -0.4464 -0.7948
vn 0.5295 -0.4398 -0.7254
vn 0.5398 -0.3621 -0.7599
vn 0.5434 -0.3224 -0.775
vn 0.4243 -0.3492 -0.8354
vn 0.303 -0.3916 -0.8688
vn 0.6397 -0.3457 -0.6865
vn 0.64 -0.4118 -0.6486
vn 0.7219 -0.3791 -0.5788
vn 0.7204 -0.3333 -0.6082
vn 0.7376 -0.326 -0.5913
vn 0.6505 -0.3151 -0.691
vn 0.6499 -0.4797 -0.5895
vn 0.5136 -0.5219 -0.6811
vn 0.7397 -0.4259 -0.5209
vn 0.3687 -0.5221 -0.7691
vn 0.2603 -0.4983 -0.8269
vn 0.3945 -0.3539 -0.848
vn 0.2468 -0.4246 -0.871
vn 0.544 -0.3152 -0.7776
vn 0.5395 -0.365 -0.7587
vn 0.3195 -0.4236 -0.8476
vn 0.2123 -0.449 -0.8679
vn 0.6746 -0.3115 -0.6692
vn 0.7689 -0.3459 -0.5377
vn 0.785 -0.3626 -0.5022
vn 0.7189 -0.3631 -0.5927
vn -0.8962 -0.3954 -0.2012
vn -0.736 -0.6743 0.0594
vn -0.9092 -0.2814 -0.3068
vn 0.2123 -0.449 -0.8679
vn 0.1071 -0.8703 0.4807
vn 0.3827 -0.5053 0.7734
vn -0.0059 -0.971 0.2391
vn 0.785 -0.3626 -0.5022
vn 0.6595 0.5589 0.5026
vn 0.6204 0.7459 0.2422
vn 0.6806 0.3867 0.6222
vn 0.8279 -0.4029 -0.3901
vn -0.2276 0.6561 -0.7195
vn -0.6206 0.5587 -0.5502
vn 0.2927 0.7206 -0.6285
vn 0.1036 -0.5121 -0.8526
vn -0.8292 0.3344 -0.4478
vn -0.9082 0.1469 -0.3919
vn -0.2879 -0.9299 0.2287
vn 0.62 -0.1666 0.7667
vn 0.6954 -0.0389 0.7175
vn 0.5947 0.7801 -0.1943
vn 0.6977 0.2485 0.6718
vn 0.7116 0.1629 0.6835
vn -0.9301 0.0029 -0.3673
vn -0.9279 -0.084 -0.3632
vn -0.9185 -0.1699 -0.3569
vn 0.7202 0.0774 0.6894
vt 0.839504 0.118056
vt 0.856743 0.205307
vt 0.741230 0.205307
vt 0.734555 0.106726
vt 0.724541 0.032791
vt 0.813647 0.052618
vt 0.868992 0.081539
vt 0.913398 0.129584
vt 0.940923 0.205307
vt 0.839504 0.292557
vt 0.813647 0.357995
vt 0.724541 0.377822
vt 0.734555 0.303887
vt 0.913398 0.281029
vt 0.868992 0.329074
vt 0.369475 0.299954
vt 0.368286 0.370940
vt 0.245840 0.351447
vt 0.246397 0.288815
vt 0.246768 0.205307
vt 0.370268 0.205307
vt 0.494283 0.205307
vt 0.492822 0.304944
vt 0.490632 0.379672
vt 0.369475 0.110659
vt 0.246397 0.121798
vt 0.245841 0.059166
vt 0.368286 0.039673
vt 0.490632 0.030941
vt 0.492822 0.105669
vt 0.616755 0.103478
vt 0.619174 0.205307
vt 0.613127 0.027106
vt 0.616755 0.307135
vt 0.613126 0.383507
vt 0.123273 0.268175
vt 0.123047 0.315326
vt 0.054743 0.283353
vt 0.030912 0.249131
vt 0.030973 0.205306
vt 0.123423 0.205306
vt 0.123273 0.142438
vt 0.030912 0.161481
vt 0.054744 0.127260
vt 0.123047 0.095287
vt 0.839504 0.118056
vt 0.856743 0.205307
vt 0.968983 0.205307
vt 0.938030 0.133427
vt 0.876123 0.061548
vt 0.805028 0.030806
vt 0.721203 0.008146
vt 0.734555 0.106726
vt 0.741230 0.205307
vt 0.839504 0.292557
vt 0.805028 0.379807
vt 0.876123 0.349065
vt 0.938030 0.277186
vt 0.734555 0.303887
vt 0.721203 0.402467
vt 0.369475 0.299954
vt 0.367890 0.394602
vt 0.489902 0.404581
vt 0.492822 0.304944
vt 0.494283 0.205307
vt 0.370268 0.205307
vt 0.246768 0.205307
vt 0.246397 0.288815
vt 0.245655 0.372324
vt 0.369475 0.110659
vt 0.492822 0.105669
vt 0.489902 0.006032
vt 0.367890 0.016011
vt 0.245655 0.038289
vt 0.246397 0.121798
vt 0.616755 0.103478
vt 0.619174 0.205307
vt 0.611917 0.001649
vt 0.616755 0.307135
vt 0.611917 0.408964
vt 0.123273 0.268175
vt 0.122972 0.331043
vt 0.123423 0.205306
vt 0.000156 0.205306
vt 0.000125 0.242784
vt 0.000064 0.280261
vt 0.123273 0.142438
vt 0.122972 0.079570
vt 0.000064 0.130352
vt 0.000125 0.167829
vt 0.122972 0.331043
vt 0.030806 0.283587
vt 0.245655 0.372324
vt 0.030806 0.283587
vt 0.000125 0.167829
vt 0.030806 0.127026
vt 0.000156 0.205306
vt 0.030806 0.127026
vt 0.805028 0.030806
vt 0.873826 0.071832
vt 0.721203 0.008146
vt 0.873826 0.071832
vt 0.938030 0.277186
vt 0.873826 0.338781
vt 0.968983 0.205307
vt 0.873826 0.338781
vt 0.805028 0.379807
vt 0.721203 0.402467
vt 0.000125 0.242784
vt 0.122972 0.079570
vt 0.245655 0.038289
vt 0.938030 0.133427
vt 0.611917 0.001649
vt 0.489902 0.006032
vt 0.611917 0.408964
vt 0.489902 0.404581
vt 0.367890 0.394602
vt 0.367890 0.016011
f 1/1/1 2/2/2 3/3/3
f 1/1/1 3/3/3 4/4/4
f 1/1/1 4/4/4 5/5/5
f 1/1/1 5/5/5 6/6/6
f 1/1/1 6/6/6 7/7/7
f 1/1/1 7/7/7 8/8/8
f 1/1/1 8/8/8 9/9/9
f 1/1/1 9/9/9 2/2/2
f 10/10/10 11/11/11 12/12/12
f 10/10/10 12/12/12 13/13/13
f 10/10/10 13/13/13 3/3/3
f 10/10/10 3/3/3 2/2/2
f 10/10/10 2/2/2 9/9/9
f 10/10/10 9/9/9 14/14/14
f 10/10/10 14/14/14 15/15/15
f 10/10/10 15/15/15 11/11/11
f 16/16/16 17/17/17 18/18/18
f 16/16/16 18/18/18 19/19/19
f 16/16/16 19/19/19 20/20/20
f 16/16/16 20/20/20 21/21/21
f 16/16/16 21/21/21 22/22/22
f 16/16/16 22/22/22 23/23/23
f 16/16/16 23/23/23 24/24/24
f 16/16/16 24/24/24 17/17/17
f 25/25/25 21/21/21 20/20/20
f 25/25/25 20/20/20 26/26/26
f 25/25/25 26/26/26 27/27/27
f 25/25/25 27/27/27 28/28/28
f 25/25/25 28/28/28 29/29/29
f 25/25/25 29/29/29 30/30/30
f 25/25/25 30/30/30 22/22/22
f 25/25/25 22/22/22 21/21/21
f 31/31/31 32/32/32 22/22/22
f 31/31/31 22/22/22 30/30/30
f 31/31/31 30/30/30 29/29/29
f 31/31/31 29/29/29 33/33/33
f 31/31/31 33/33/33 5/5/5
f 31/31/31 5/5/5 4/4/4
f 31/31/31 4/4/4 3/3/3
f 31/31/31 3/3/3 32/32/32
f 34/34/34 35/35/35 24/24/24
f 34/34/34 24/24/24 23/23/23
f 34/34/34 23/23/23 22/22/22
f 34/34/34 22/22/22 32/32/32
f 34/34/34 32/32/32 3/3/3
f 34/34/34 3/3/3 13/13/13
f 34/34/34 13/13/13 12/12/12
f 34/34/34 12/12/12 35/35/35
f 36/36/36 37/37/37 38/38/38
f 36/36/36 38/38/38 39/39/39
f 36/36/36 39/39/39 40/40/40
f 36/36/36 40/40/40 41/41/41
f 36/36/36 41/41/41 20/20/20
f 36/36/36 20/20/20 19/19/19
f 36/36/36 19/19/19 18/18/18
f 36/36/36 18/18/18 37/37/37
f 42/42/42 41/41/41 40/40/40
f 42/42/42 40/40/40 43/43/43
f 42/42/42 43/43/43 44/44/44
f 42/42/42 44/44/44 45/45/45
f 42/42/42 45/45/45 27/27/27
f 42/42/42 27/27/27 26/26/26
f 42/42/42 26/26/26 20/20/20
f 42/42/42 20/20/20 41/41/41
f 46/46/46 47/47/47 48/48/48
f 46/46/46 48/48/48 49/49/49
f 46/46/46 49/49/49 50/50/50
f 46/46/46 50/50/50 51/51/51
f 46/46/46 51/51/51 52/52/52
f 46/46/46 52/52/52 53/53/53
f 46/46/46 53/53/53 54/54/54
f 46/46/46 54/54/54 47/47/47
f 55/55/55 56/56/56 57/57/57
f 55/55/55 57/57/57 58/58/58
f 55/55/55 58/58/58 48/48/48
f 55/55/55 48/48/48 47/47/47
f 55/55/55 47/47/47 54/54/54
f 55/55/55 54/54/54 59/59/59
f 55/55/55 59/59/59 60/60/60
f 55/55/55 60/60/60 56/56/56
f 61/61/61 62/62/62 63/63/63
f 61/61/61 63/63/63 64/64/64
f 61/61/61 64/64/64 65/65/65
f 61/61/61 65/65/65 66/66/66
f 61/61/61 66/66/66 67/67/67
f 61/61/61 67/67/67 68/68/68
f 61/61/61 68/68/68 69/69/69
f 61/61/61 69/69/69 62/62/62
f 70/70/70 66/66/66 65/65/65
f 70/70/70 65/65/65 71/71/71
f 70/70/70 71/71/71 72/72/72
f 70/70/70 72/72/72 73/73/73
f 70/70/70 73/73/73 74/74/74
f 70/70/70 74/74/74 75/75/75
f 70/70/70 75/75/75 67/67/67
f 70/70/70 67/67/67 66/66/66
f 76/76/76 77/77/77 54/54/54
f 76/76/76 54/54/54 53/53/53
f 76/76/76 53/53/53 52/52/52
f 76/76/76 52/52/52 78/78/78
f 76/76/76 78/78/78 72/72/72
f 76/76/76 72/72/72 71/71/71
f 76/76/76 71/71/71 65/65/65
f 76/76/76 65/65/65 77/77/77
f 79/79/79 80/80/80 60/60/60
f 79/79/79 60/60/60 59/59/59
f 79/79/79 59/59/59 54/54/54
f 79/79/79 54/54/54 77/77/77
f 79/79/79 77/77/77 65/65/65
f 79/79/79 65/65/65 64/64/64
f 79/79/79 64/64/64 63/63/63
f 79/79/79 63/63/63 80/80/80
f 81/81/81 82/82/82 69/69/69
f 81/81/81 69/69/69 68/68/68
f 81/81/81 68/68/68 67/67/67
f 81/81/81 67/67/67 83/83/83
f 81/81/81 83/83/83 84/84/84
f 81/81/81 84/84/84 85/85/85
f 81/81/81 85/85/85 86/86/86
f 81/81/81 86/86/86 82/82/82
f 87/87/87 83/83/83 67/67/67
f 87/87/87 67/67/67 75/75/75
f 87/87/87 75/75/75 74/74/74
f 87/87/87 74/74/74 88/88/88
f 87/87/87 88/88/88 89/89/89
f 87/87/87 89/89/89 90/90/90
f 87/87/87 90/90/90 84/84/84
f 87/87/87 84/84/84 83/83/83
f 91/91/91 92/92/92 38/38/38
f 91/91/91 38/38/38 37/37/37
f 91/91/91 37/37/37 18/18/18
f 91/91/91 18/18/18 93/93/93
f 91/91/91 93/93/93 69/69/69
f 91/91/91 69/69/69 82/82/82
f 91/91/91 82/82/82 94/94/94
f 91/91/91 94/94/94 92/92/92
f 95/95/95 96/96/96 44/44/44
f 95/95/95 44/44/44 43/43/43
f 95/95/95 43/43/43 40/40/40
f 95/95/95 40/40/40 97/97/97
f 95/95/95 97/97/97 84/84/84
f 95/95/95 84/84/84 90/90/90
f 95/95/95 90/90/90 98/98/98
f 95/95/95 98/98/98 96/96/96
f 99/99/99 100/100/100 7/7/7
f 99/99/99 7/7/7 6/6/6
f 99/99/99 6/6/6 5/5/5
f 99/99/99 5/5/5 101/101/101
f 99/99/99 101/101/101 52/52/52
f 99/99/99 52/52/52 51/51/51
f 99/99/99 51/51/51 102/102/102
f 99/99/99 102/102/102 100/100/100
f 103/103/103 104/104/104 15/15/15
f 103/103/103 15/15/15 14/14/14
f 103/103/103 14/14/14 9/9/9
f 103/103/103 9/9/9 105/105/105
f 103/103/103 105/105/105 48/48/48
f 103/103/103 48/48/48 58/58/58
f 103/103/103 58/58/58 106/106/106
f 103/103/103 106/106/106 104/104/104
f 107/107/107 108/108/108 12/12/12
f 107/107/107 12/12/12 11/11/11
f 107/107/107 11/11/11 15/15/15
f 107/107/107 15/15/15 104/104/104
f 107/107/107 104/104/104 106/106/106
f 107/107/107 106/106/106 56/56/56
f 107/107/107 56/56/56 60/60/60
f 107/107/107 60/60/60 108/108/108
f 109/109/109 97/97/97 40/40/40
f 109/109/109 40/40/40 39/39/39
f 109/109/109 39/39/39 38/38/38
f 109/109/109 38/38/38 92/92/92
f 109/109/109 92/92/92 94/94/94
f 109/109/109 94/94/94 85/85/85
f 109/109/109 85/85/85 84/84/84
f 109/109/109 84/84/84 97/97/97
f 110/110/110 111/111/111 27/27/27
f 110/110/110 27/27/27 45/45/45
f 110/110/110 45/45/45 44/44/44
f 110/110/110 44/44/44 96/96/96
f 110/110/110 96/96/96 98/98/98
f 110/110/110 98/98/98 88/88/88
f 110/110/110 88/88/88 74/74/74
f 110/110/110 74/74/74 111/111/111
f 112/112/112 105/105/105 9/9/9
f 112/112/112 9/9/9 8/8/8
f 112/112/112 8/8/8 7/7/7
f 112/112/112 7/7/7 100/100/100
f 112/112/112 100/100/100 102/102/102
f 112/112/112 102/102/102 49/49/49
f 112/112/112 49/49/49 48/48/48
f 112/112/112 48/48/48 105/105/105
f 113/113/113 101/101/101 5/5/5
f 113/113/113 5/5/5 33/33/33
f 113/113/113 33/33/33 29/29/29
f 113/113/113 29/29/29 114/114/114
f 113/113/113 114/114/114 72/72/72
f 113/113/113 72/72/72 78/78/78
f 113/113/113 78/78/78 52/52/52
f 113/113/113 52/52/52 101/101/101
f 115/115/115 116/116/116 24/24/24
f 115/115/115 24/24/24 35/35/35
f 115/115/115 35/35/35 12/12/12
f 115/115/115 12/12/12 108/108/108
f 115/115/115 108/108/108 60/60/60
f 115/115/115 60/60/60 80/80/80
f 115/115/115 80/80/80 63/63/63
f 115/115/115 63/63/63 116/116/116
f 117/117/117 93/93/93 18/18/18
f 117/117/117 18/18/18 17/17/17
f 117/117/117 17/17/17 24/24/24
f 117/117/117 24/24/24 116/116/116
f 117/117/117 116/116/116 63/63/63
f 117/117/117 63/63/63 62/62/62
f 117/117/117 62/62/62 69/69/69
f 117/117/117 69/69/69 93/93/93
f 118/118/118 114/114/114 29/29/29
f 118/118/118 29/29/29 28/28/28
f 118/118/118 28/28/28 27/27/27
f 118/118/118 27/27/27 111/111/111
f 118/118/118 111/111/111 74/74/74
f 118/118/118 74/74/74 73/73/73
f 118/118/118 73/73/73 72/72/72
f 118/118/118 72/72/72 114/114/114
