v -2.386795 0.804423 -1.16301
v -2.387087 0.804851 -1.165704
v -2.390015 0.802802 -1.164956
v -2.389324 0.802479 -1.162003
v -2.389066 0.802352 -1.159656
v -2.387042 0.80409 -1.160802
v -2.385808 0.805022 -1.162067
v -2.38497 0.805699 -1.163865
v -2.38488 0.80625 -1.166294
v -2.388675 0.805328 -1.167889
v -2.390339 0.805678 -1.169358
v -2.392811 0.804156 -1.169376
v -2.391461 0.803508 -1.167547
v -2.386597 0.806483 -1.168087
v -2.388478 0.806308 -1.168996
v -2.399502 0.795556 -1.165859
v -2.400507 0.796101 -1.167787
v -2.402619 0.792893 -1.166919
v -2.401716 0.792404 -1.165219
v -2.400636 0.791841 -1.162898
v -2.398294 0.794927 -1.163227
v -2.395776 0.797835 -1.163658
v -2.397056 0.798513 -1.1664
v -2.398135 0.79911 -1.168402
v -2.397409 0.794548 -1.160425
v -2.399864 0.791512 -1.160414
v -2.399374 0.79133 -1.158499
v -2.396839 0.794334 -1.158268
v -2.394297 0.797261 -1.158444
v -2.394866 0.797458 -1.160717
v -2.392093 0.800129 -1.161241
v -2.392964 0.800462 -1.164254
v -2.391595 0.800005 -1.158889
v -2.394315 0.8012 -1.167007
v -2.39549 0.801881 -1.168995
v -2.403759 0.789127 -1.164319
v -2.404481 0.789527 -1.165564
v -2.405292 0.787516 -1.164521
v -2.405202 0.786602 -1.163564
v -2.404577 0.786261 -1.162415
v -2.402916 0.788681 -1.162606
v -2.402377 0.788461 -1.160733
v -2.404255 0.786146 -1.161107
v -2.403589 0.786696 -1.1601
v -2.402059 0.78836 -1.159277
v -2.386636 0.804192 -1.163071
v -2.38694 0.804625 -1.165802
v -2.384774 0.806079 -1.166367
v -2.384853 0.805524 -1.163907
v -2.385718 0.804892 -1.162091
v -2.386917 0.803916 -1.160828
v -2.388935 0.802184 -1.15969
v -2.389157 0.802255 -1.16207
v -2.38986 0.802582 -1.165056
v -2.388544 0.805111 -1.168023
v -2.390249 0.805522 -1.169476
v -2.388411 0.806189 -1.169078
v -2.386503 0.806318 -1.168189
v -2.391319 0.803297 -1.16768
v -2.392712 0.804003 -1.169491
v -2.399317 0.795379 -1.16599
v -2.400374 0.79597 -1.167898
v -2.39801 0.798972 -1.168513
v -2.396883 0.798324 -1.166532
v -2.395592 0.797641 -1.163765
v -2.3981 0.794745 -1.163336
v -2.400434 0.791668 -1.163008
v -2.401524 0.792235 -1.165352
v -2.40248 0.792769 -1.16703
v -2.397206 0.794362 -1.16051
v -2.394674 0.79726 -1.160799
v -2.394149 0.797112 -1.158492
v -2.396683 0.794193 -1.158319
v -2.399213 0.791196 -1.158551
v -2.399654 0.791335 -1.1605
v -2.391913 0.799918 -1.161315
v -2.392795 0.800254 -1.164358
v -2.391456 0.799845 -1.15893
v -2.394157 0.800999 -1.167139
v -2.395378 0.801734 -1.169107
v -2.403564 0.788962 -1.164454
v -2.404342 0.789407 -1.165678
v -2.402711 0.788511 -1.162716
v -2.404423 0.786134 -1.162498
v -2.405057 0.78648 -1.163666
v -2.405187 0.787427 -1.164602
v -2.402163 0.788287 -1.160818
v -2.401895 0.788228 -1.159327
v -2.403468 0.786598 -1.160141
v -2.404095 0.786016 -1.161169
v -2.404662 0.789608 -1.166033
v -2.405734 0.786892 -1.164472
v -2.40286 0.793002 -1.167537
v -2.405187 0.787427 -1.164602
v -2.40481 0.785317 -1.161259
v -2.404027 0.78607 -1.160043
v -2.405063 0.785398 -1.162388
v -2.403468 0.786598 -1.160141
v -2.387067 0.803902 -1.160073
v -2.385599 0.805103 -1.161796
v -2.388921 0.802235 -1.158885
v -2.385718 0.804892 -1.162091
v -2.385863 0.806794 -1.168199
v -2.388488 0.806494 -1.169293
v -2.384098 0.80664 -1.166523
v -2.388411 0.806189 -1.169078
v -2.390855 0.805727 -1.169904
v -2.393219 0.804305 -1.17004
v -2.405619 0.785707 -1.163358
v -2.401879 0.788267 -1.158811
v -2.399139 0.791209 -1.157881
v -2.38431 0.806046 -1.164168
v -2.391367 0.799892 -1.15812
v -2.394041 0.797129 -1.157705
v -2.395833 0.802044 -1.16971
v -2.39844 0.799248 -1.169122
v -2.400784 0.796225 -1.168482
v -2.396579 0.794199 -1.157569
vn -0.5488 0.8259 0.1293
vn -0.4663 0.82 0.3319
vn -0.514 0.7858 0.3439
vn -0.5901 0.7906 0.1636
vn -0.6069 0.7747 0.1773
vn -0.5471 0.8257 0.1372
vn -0.502 0.858 0.1089
vn -0.4622 0.8743 0.1481
vn -0.3886 0.8674 0.3107
vn -0.3953 0.752 0.5274
vn -0.3993 0.7544 0.5209
vn -0.4763 0.7118 0.5161
vn -0.4529 0.7245 0.5195
vn -0.3369 0.814 0.4731
vn -0.3432 0.7815 0.521
vn -0.6512 0.589 0.4785
vn -0.6718 0.5909 0.4466
vn -0.6927 0.5661 0.4469
vn -0.6682 0.5611 0.4885
vn -0.7204 0.577 0.3847
vn -0.6943 0.6106 0.3809
vn -0.6382 0.6745 0.3711
vn -0.5956 0.6429 0.4815
vn -0.6189 0.6368 0.4598
vn -0.7282 0.6261 0.2786
vn -0.7508 0.6009 0.2741
vn -0.7415 0.5896 0.3203
vn -0.7227 0.6153 0.3146
vn -0.6861 0.6692 0.2854
vn -0.682 0.6846 0.2573
vn -0.6302 0.7463 0.2142
vn -0.5709 0.7392 0.3572
vn -0.6449 0.7274 0.2344
vn -0.5213 0.6938 0.4968
vn -0.5478 0.6806 0.4865
vn -0.6653 0.5435 0.5118
vn -0.6948 0.5457 0.4683
vn -0.6909 0.5246 0.4974
vn -0.6876 0.4915 0.5343
vn -0.764 0.5142 0.3898
vn -0.7322 0.5609 0.3863
vn -0.766 0.592 0.2505
vn -0.8037 0.5474 0.2331
vn -0.7781 0.5666 0.2712
vn -0.7595 0.5769 0.3005
vn 0.574 -0.8118 -0.1068
vn 0.4796 -0.8109 -0.3353
vn 0.5298 -0.7735 -0.3477
vn 0.6428 -0.7652 -0.0371
vn 0.6793 -0.7301 0.0738
vn 0.6693 -0.7412 0.0515
vn 0.6608 -0.7504 -0.0182
vn 0.595 -0.7897 -0.1491
vn 0.5139 -0.7859 -0.3439
vn 0.4013 -0.7286 -0.555
vn 0.3781 -0.6008 -0.7042
vn 0.3723 -0.5824 -0.7226
vn 0.4129 -0.6546 -0.6332
vn 0.4473 -0.7185 -0.5325
vn 0.4159 -0.6324 -0.6534
vn 0.6434 -0.5861 -0.4924
vn 0.5838 -0.5624 -0.5856
vn 0.5432 -0.5985 -0.5888
vn 0.5888 -0.6393 -0.4944
vn 0.6384 -0.6743 -0.3711
vn 0.6945 -0.6104 -0.3809
vn 0.7205 -0.5769 -0.3847
vn 0.6578 -0.5593 -0.5044
vn 0.5723 -0.5528 -0.6057
vn 0.7318 -0.6287 -0.2629
vn 0.6858 -0.6861 -0.2427
vn 0.7181 -0.6827 -0.135
vn 0.7507 -0.6428 -0.1523
vn 0.7564 -0.6415 -0.1279
vn 0.7537 -0.6055 -0.2556
vn 0.6341 -0.7469 -0.2
vn 0.5709 -0.7392 -0.3572
vn 0.6806 -0.7276 -0.0856
vn 0.5149 -0.6895 -0.5093
vn 0.4775 -0.6298 -0.6126
vn 0.6414 -0.5528 -0.5319
vn 0.5201 -0.5609 -0.644
vn 0.7251 -0.5707 -0.3853
vn 0.6924 -0.6129 -0.3806
vn 0.5604 -0.5865 -0.5846
vn 0.484 -0.5692 -0.6646
vn 0.7601 -0.6099 -0.2239
vn 0.7414 -0.6674 -0.0701
vn 0.7268 -0.686 -0.0349
vn 0.7297 -0.6681 -0.1454
vn -0.6883 -0.0233 -0.7251
vn -0.8232 -0.3185 -0.4699
vn -0.595 0.0772 -0.8
vn 0.484 -0.5692 -0.6646
vn -0.5196 -0.7964 0.3093
vn -0.349 -0.5471 0.7608
vn -0.5018 -0.8643 0.0328
vn 0.7268 -0.686 -0.0349
vn 0.4034 0.2922 0.8671
vn 0.5931 0.4563 0.6633
vn 0.2863 0.1365 0.9483
vn 0.6793 -0.7301 0.0738
vn 0.4878 0.628 -0.6064
vn 0.0672 0.7096 -0.7014
vn 0.8407 0.4885 -0.2336
vn 0.3723 -0.5824 -0.7226
vn -0.2277 0.5961 -0.77
vn -0.3869 0.4608 -0.7987
vn -0.6871 -0.7157 -0.1254
vn -0.0458 -0.3327 0.9419
vn 0.0846 -0.2505 0.9644
vn 0.8362 0.4602 0.2981
vn 0.2193 0.0077 0.9756
vn 0.1912 -0.0748 0.9787
vn -0.4705 0.3398 -0.8144
vn -0.5036 0.2594 -0.8241
vn -0.5321 0.1783 -0.8277
vn 0.1623 -0.1561 0.9743
vt 0.839504 0.118056
vt 0.856743 0.205307
vt 0.741230 0.205307
vt 0.734555 0.106726
vt 0.724541 0.032791
vt 0.813647 0.052618
vt 0.868992 0.081539
vt 0.913398 0.129584
vt 0.940923 0.205307
vt 0.839504 0.292557
vt 0.813647 0.357995
vt 0.724541 0.377822
vt 0.734555 0.303887
vt 0.913398 0.281029
vt 0.868992 0.329074
vt 0.369475 0.299954
vt 0.368286 0.370940
vt 0.245840 0.351447
vt 0.246397 0.288815
vt 0.246768 0.205307
vt 0.370268 0.205307
vt 0.494283 0.205307
vt 0.492822 0.304944
vt 0.490632 0.379672
vt 0.369475 0.110659
vt 0.246397 0.121798
vt 0.245841 0.059166
vt 0.368286 0.039673
vt 0.490632 0.030941
vt 0.492822 0.105669
vt 0.616755 0.103478
vt 0.619174 0.205307
vt 0.613127 0.027106
vt 0.616755 0.307135
vt 0.613126 0.383507
vt 0.123273 0.268175
vt 0.123047 0.315326
vt 0.054743 0.283353
vt 0.030912 0.249131
vt 0.030973 0.205306
vt 0.123423 0.205306
vt 0.123273 0.142438
vt 0.030912 0.161481
vt 0.054744 0.127260
vt 0.123047 0.095287
vt 0.839504 0.118056
vt 0.856743 0.205307
vt 0.968983 0.205307
vt 0.938030 0.133427
vt 0.876123 0.061548
vt 0.805028 0.030806
vt 0.721203 0.008146
vt 0.734555 0.106726
vt 0.741230 0.205307
vt 0.839504 0.292557
vt 0.805028 0.379807
vt 0.876123 0.349065
vt 0.938030 0.277186
vt 0.734555 0.303887
vt 0.721203 0.402467
vt 0.369475 0.299954
vt 0.367890 0.394602
vt 0.489902 0.404581
vt 0.492822 0.304944
vt 0.494283 0.205307
vt 0.370268 0.205307
vt 0.246768 0.205307
vt 0.246397 0.288815
vt 0.245655 0.372324
vt 0.369475 0.110659
vt 0.492822 0.105669
vt 0.489902 0.006032
vt 0.367890 0.016011
vt 0.245655 0.038289
vt 0.246397 0.121798
vt 0.616755 0.103478
vt 0.619174 0.205307
vt 0.611917 0.001649
vt 0.616755 0.307135
vt 0.611917 0.408964
vt 0.123273 0.268175
vt 0.122972 0.331043
vt 0.123423 0.205306
vt 0.000156 0.205306
vt 0.000125 0.242784
vt 0.000064 0.280261
vt 0.123273 0.142438
vt 0.122972 0.079570
vt 0.000064 0.130352
vt 0.000125 0.167829
vt 0.122972 0.331043
vt 0.030806 0.283587
vt 0.245655 0.372324
vt 0.030806 0.283587
vt 0.000125 0.167829
vt 0.030806 0.127026
vt 0.000156 0.205306
vt 0.030806 0.127026
vt 0.805028 0.030806
vt 0.873826 0.071832
vt 0.721203 0.008146
vt 0.873826 0.071832
vt 0.938030 0.277186
vt 0.873826 0.338781
vt 0.968983 0.205307
vt 0.873826 0.338781
vt 0.805028 0.379807
vt 0.721203 0.402467
vt 0.000125 0.242784
vt 0.122972 0.079570
vt 0.245655 0.038289
vt 0.938030 0.133427
vt 0.611917 0.001649
vt 0.489902 0.006032
vt 0.611917 0.408964
vt 0.489902 0.404581
vt 0.367890 0.394602
vt 0.367890 0.016011
f 1/1/1 2/2/2 3/3/3
f 1/1/1 3/3/3 4/4/4
f 1/1/1 4/4/4 5/5/5
f 1/1/1 5/5/5 6/6/6
f 1/1/1 6/6/6 7/7/7
f 1/1/1 7/7/7 8/8/8
f 1/1/1 8/8/8 9/9/9
f 1/1/1 9/9/9 2/2/2
f 10/10/10 11/11/11 12/12/12
f 10/10/10 12/12/12 13/13/13
f 10/10/10 13/13/13 3/3/3
f 10/10/10 3/3/3 2/2/2
f 10/10/10 2/2/2 9/9/9
f 10/10/10 9/9/9 14/14/14
f 10/10/10 14/14/14 15/15/15
f 10/10/10 15/15/15 11/11/11
f 16/16/16 17/17/17 18/18/18
f 16/16/16 18/18/18 19/19/19
f 16/16/16 19/19/19 20/20/20
f 16/16/16 20/20/20 21/21/21
f 16/16/16 21/21/21 22/22/22
f 16/16/16 22/22/22 23/23/23
f 16/16/16 23/23/23 24/24/24
f 16/16/16 24/24/24 17/17/17
f 25/25/25 21/21/21 20/20/20
f 25/25/25 20/20/20 26/26/26
f 25/25/25 26/26/26 27/27/27
f 25/25/25 27/27/27 28/28/28
f 25/25/25 28/28/28 29/29/29
f 25/25/25 29/29/29 30/30/30
f 25/25/25 30/30/30 22/22/22
f 25/25/25 22/22/22 21/21/21
f 31/31/31 32/32/32 22/22/22
f 31/31/31 22/22/22 30/30/30
f 31/31/31 30/30/30 29/29/29
f 31/31/31 29/29/29 33/33/33
f 31/31/31 33/33/33 5/5/5
f 31/31/31 5/5/5 4/4/4
f 31/31/31 4/4/4 3/3/3
f 31/31/31 3/3/3 32/32/32
f 34/34/34 35/35/35 24/24/24
f 34/34/34 24/24/24 23/23/23
f 34/34/34 23/23/23 22/22/22
f 34/34/34 22/22/22 32/32/32
f 34/34/34 32/32/32 3/3/3
f 34/34/34 3/3/3 13/13/13
f 34/34/34 13/13/13 12/12/12
f 34/34/34 12/12/12 35/35/35
f 36/36/36 37/37/37 38/38/38
f 36/36/36 38/38/38 39/39/39
f 36/36/36 39/39/39 40/40/40
f 36/36/36 40/40/40 41/41/41
f 36/36/36 41/41/41 20/20/20
f 36/36/36 20/20/20 19/19/19
f 36/36/36 19/19/19 18/18/18
f 36/36/36 18/18/18 37/37/37
f 42/42/42 41/41/41 40/40/40
f 42/42/42 40/40/40 43/43/43
f 42/42/42 43/43/43 44/44/44
f 42/42/42 44/44/44 45/45/45
f 42/42/42 45/45/45 27/27/27
f 42/42/42 27/27/27 26/26/26
f 42/42/42 26/26/26 20/20/20
f 42/42/42 20/20/20 41/41/41
f 46/46/46 47/47/47 48/48/48
f 46/46/46 48/48/48 49/49/49
f 46/46/46 49/49/49 50/50/50
f 46/46/46 50/50/50 51/51/51
f 46/46/46 51/51/51 52/52/52
f 46/46/46 52/52/52 53/53/53
f 46/46/46 53/53/53 54/54/54
f 46/46/46 54/54/54 47/47/47
f 55/55/55 56/56/56 57/57/57
f 55/55/55 57/57/57 58/58/58
f 55/55/55 58/58/58 48/48/48
f 55/55/55 48/48/48 47/47/47
f 55/55/55 47/47/47 54/54/54
f 55/55/55 54/54/54 59/59/59
f 55/55/55 59/59/59 60/60/60
f 55/55/55 60/60/60 56/56/56
f 61/61/61 62/62/62 63/63/63
f 61/61/61 63/63/63 64/64/64
f 61/61/61 64/64/64 65/65/65
f 61/61/61 65/65/65 66/66/66
f 61/61/61 66/66/66 67/67/67
f 61/61/61 67/67/67 68/68/68
f 61/61/61 68/68/68 69/69/69
f 61/61/61 69/69/69 62/62/62
f 70/70/70 66/66/66 65/65/65
f 70/70/70 65/65/65 71/71/71
f 70/70/70 71/71/71 72/72/72
f 70/70/70 72/72/72 73/73/73
f 70/70/70 73/73/73 74/74/74
f 70/70/70 74/74/74 75/75/75
f 70/70/70 75/75/75 67/67/67
f 70/70/70 67/67/67 66/66/66
f 76/76/76 77/77/77 54/54/54
f 76/76/76 54/54/54 53/53/53
f 76/76/76 53/53/53 52/52/52
f 76/76/76 52/52/52 78/78/78
f 76/76/76 78/78/78 72/72/72
f 76/76/76 72/72/72 71/71/71
f 76/76/76 71/71/71 65/65/65
f 76/76/76 65/65/65 77/77/77
f 79/79/79 80/80/80 60/60/60
f 79/79/79 60/60/60 59/59/59
f 79/79/79 59/59/59 54/54/54
f 79/79/79 54/54/54 77/77/77
f 79/79/79 77/77/77 65/65/65
f 79/79/79 65/65/65 64/64/64
f 79/79/79 64/64/64 63/63/63
f 79/79/79 63/63/63 80/80/80
f 81/81/81 82/82/82 69/69/69
f 81/81/81 69/69/69 68/68/68
f 81/81/81 68/68/68 67/67/67
f 81/81/81 67/67/67 83/83/83
f 81/81/81 83/83/83 84/84/84
f 81/81/81 84/84/84 85/85/85
f 81/81/81 85/85/85 86/86/86
f 81/81/81 86/86/86 82/82/82
f 87/87/87 83/83/83 67/67/67
f 87/87/87 67/67/67 75/75/75
f 87/87/87 75/75/75 74/74/74
f 87/87/87 74/74/74 88/88/88
f 87/87/87 88/88/88 89/89/89
f 87/87/87 89/89/89 90/90/90
f 87/87/87 90/90/90 84/84/84
f 87/87/87 84/84/84 83/83/83
f 91/91/91 92/92/92 38/38/38
f 91/91/91 38/38/38 37/37/37
f 91/91/91 37/37/37 18/18/18
f 91/91/91 18/18/18 93/93/93
f 91/91/91 93/93/93 69/69/69
f 91/91/91 69/69/69 82/82/82
f 91/91/91 82/82/82 94/94/94
f 91/91/91 94/94/94 92/92/92
f 95/95/95 96/96/96 44/44/44
f 95/95/95 44/44/44 43/43/43
f 95/95/95 43/43/43 40/40/40
f 95/95/95 40/40/40 97/97/97
f 95/95/95 97/97/97 84/84/84
f 95/95/95 84/84/84 90/90/90
f 95/95/95 90/90/90 98/98/98
f 95/95/95 98/98/98 96/96/96
f 99/99/99 100/100/100 7/7/7
f 99/99/99 7/7/7 6/6/6
f 99/99/99 6/6/6 5/5/5
f 99/99/99 5/5/5 101/101/101
f 99/99/99 101/101/101 52/52/52
f 99/99/99 52/52/52 51/51/51
f 99/99/99 51/51/51 102/102/102
f 99/99/99 102/102/102 100/100/100
f 103/103/103 104/104/104 15/15/15
f 103/103/103 15/15/15 14/14/14
f 103/103/103 14/14/14 9/9/9
f 103/103/103 9/9/9 105/105/105
f 103/103/103 105/105/105 48/48/48
f 103/103/103 48/48/48 58/58/58
f 103/103/103 58/58/58 106/106/106
f 103/103/103 106/106/106 104/104/104
f 107/107/107 108/108/108 12/12/12
f 107/107/107 12/12/12 11/11/11
f 107/107/107 11/11/11 15/15/15
f 107/107/107 15/15/15 104/104/104
f 107/107/107 104/104/104 106/106/106
f 107/107/107 106/106/106 56/56/56
f 107/107/107 56/56/56 60/60/60
f 107/107/107 60/60/60 108/108/108
f 109/109/109 97/97/97 40/40/40
f 109/109/109 40/40/40 39/39/39
f 109/109/109 39/39/39 38/38/38
f 109/109/109 38/38/38 92/92/92
f 109/109/109 92/92/92 94/94/94
f 109/109/109 94/94/94 85/85/85
f 109/109/109 85/85/85 84/84/84
f 109/109/109 84/84/84 97/97/97
f 110/110/110 111/111/111 27/27/27
f 110/110/110 27/27/27 45/45/45
f 110/110/110 45/45/45 44/44/44
f 110/110/110 44/44/44 96/96/96
f 110/110/110 96/96/96 98/98/98
f 110/110/110 98/98/98 88/88/88
f 110/110/110 88/88/88 74/74/74
f 110/110/110 74/74/74 111/111/111
f 112/112/112 105/105/105 9/9/9
f 112/112/112 9/9/9 8/8/8
f 112/112/112 8/8/8 7/7/7
f 112/112/112 7/7/7 100/100/100
f 112/112/112 100/100/100 102/102/102
f 112/112/112 102/102/102 49/49/49
f 112/112/112 49/49/49 48/48/48
f 112/112/112 48/48/48 105/105/105
f 113/113/113 101/101/101 5/5/5
f 113/113/113 5/5/5 33/33/33
f 113/113/113 33/33/33 29/29/29
f 113/113/113 29/29/29 114/114/114
f 113/113/113 114/114/114 72/72/72
f 113/113/113 72/72/72 78/78/78
f 113/113/113 78/78/78 52/52/52
f 113/113/113 52/52/52 101/101/101
f 115/115/115 116/116/116 24/24/24
f 115/115/115 24/24/24 35/35/35
f 115/115/115 35/35/35 12/12/12
f 115/115/115 12/12/12 108/108/108
f 115/115/115 108/108/108 60/60/60
f 115/115/115 60/60/60 80/80/80
f 115/115/115 80/80/80 63/63/63
f 115/115/115 63/63/63 116/116/116
f 117/117/117 93/93/93 18/18/18
f 117/117/117 18/18/18 17/17/17
f 117/117/117 17/17/17 24/24/24
f 117/117/117 24/24/24 116/116/116
f 117/117/117 116/116/116 63/63/63
f 117/117/117 63/63/63 62/62/62
f 117/117/117 62/62/62 69/69/69
f 117/117/117 69/69/69 93/93/93
f 118/118/118 114/114/114 29/29/29
f 118/118/118 29/29/29 28/28/28
f 118/118/118 28/28/28 27/27/27
f 118/118/118 27/27/27 111/111/111
f 118/118/118 111/111/111 74/74/74
f 118/118/118 74/74/74 73/73/73
f 118/118/118 73/73/73 72/72/72
f 118/118/118 72/72/72 114/114/114
