v -2.365359 0.723501 -1.110779
v -2.366773 0.723695 -1.110508
v -2.366337 0.722241 -1.109309
v -2.364793 0.722155 -1.109776
v -2.363559 0.722113 -1.109981
v -2.364189 0.723286 -1.110751
v -2.364874 0.723938 -1.111224
v -2.365836 0.724409 -1.111517
v -2.367117 0.724716 -1.11143
v -2.367889 0.723733 -1.109578
v -2.368627 0.723691 -1.108645
v -2.3686 0.722574 -1.107589
v -2.367669 0.722418 -1.108412
v -2.368026 0.724609 -1.110478
v -2.368468 0.724267 -1.109519
v -2.366691 0.717239 -1.105429
v -2.367684 0.71739 -1.104795
v -2.367214 0.715455 -1.104174
v -2.36634 0.715319 -1.104743
v -2.365142 0.715167 -1.105428
v -2.365332 0.717069 -1.106194
v -2.365582 0.718904 -1.107074
v -2.366997 0.719089 -1.106262
v -2.368027 0.719258 -1.105582
v -2.363873 0.716981 -1.106766
v -2.363848 0.715092 -1.105926
v -2.362847 0.715056 -1.106247
v -2.362746 0.716938 -1.107137
v -2.362861 0.718786 -1.108032
v -2.36405 0.71882 -1.107661
v -2.364357 0.72057 -1.108701
v -2.365928 0.720636 -1.108138
v -2.363124 0.720562 -1.109028
v -2.367347 0.720843 -1.107281
v -2.368366 0.721041 -1.106541
v -2.365857 0.713358 -1.104169
v -2.366496 0.71347 -1.103715
v -2.365949 0.712325 -1.1036
v -2.365454 0.711865 -1.103794
v -2.364864 0.71177 -1.104187
v -2.364974 0.713236 -1.104701
v -2.363997 0.713188 -1.105051
v -2.36418 0.711748 -1.104398
v -2.363656 0.712116 -1.104688
v -2.363235 0.713172 -1.105262
v -2.365397 0.723406 -1.110891
v -2.366831 0.7236 -1.110611
v -2.36716 0.724643 -1.111506
v -2.365863 0.724336 -1.1116
v -2.36489 0.723885 -1.111287
v -2.364208 0.723214 -1.110838
v -2.363581 0.722045 -1.11007
v -2.364835 0.722064 -1.109891
v -2.366396 0.722151 -1.109416
v -2.367965 0.72364 -1.109672
v -2.368693 0.723624 -1.10871
v -2.368515 0.724216 -1.109568
v -2.368084 0.724539 -1.110546
v -2.367744 0.72233 -1.10851
v -2.368665 0.72251 -1.107659
v -2.366767 0.717174 -1.105544
v -2.367747 0.717342 -1.104878
v -2.368089 0.719204 -1.105661
v -2.367073 0.719017 -1.106373
v -2.365644 0.71883 -1.107192
v -2.365396 0.717003 -1.106316
v -2.365206 0.715107 -1.105552
v -2.366417 0.71526 -1.104861
v -2.367278 0.715411 -1.10426
v -2.363925 0.716915 -1.106893
v -2.364099 0.718745 -1.107784
v -2.362892 0.718729 -1.108127
v -2.362778 0.716888 -1.107235
v -2.36288 0.715009 -1.106346
v -2.3639 0.71503 -1.106055
v -2.364402 0.720486 -1.108819
v -2.365989 0.720554 -1.10825
v -2.363151 0.720499 -1.10912
v -2.367423 0.720762 -1.107386
v -2.368429 0.720982 -1.106615
v -2.365935 0.713301 -1.104287
v -2.36656 0.713428 -1.1038
v -2.365038 0.713178 -1.104826
v -2.364913 0.711726 -1.104281
v -2.365513 0.711822 -1.103883
v -2.365995 0.712294 -1.103664
v -2.364048 0.713129 -1.105182
v -2.363266 0.713127 -1.105363
v -2.363681 0.712083 -1.104762
v -2.364218 0.711704 -1.104497
v -2.366739 0.713489 -1.103601
v -2.36592 0.711945 -1.103461
v -2.367535 0.715481 -1.104022
v -2.365995 0.712294 -1.103664
v -2.364258 0.711249 -1.104225
v -2.363623 0.711735 -1.104551
v -2.364849 0.711262 -1.104058
v -2.363681 0.712083 -1.104762
v -2.363805 0.723182 -1.110781
v -2.364735 0.724007 -1.111326
v -2.363155 0.722069 -1.11009
v -2.36489 0.723885 -1.111287
v -2.368098 0.72487 -1.110808
v -2.368623 0.724362 -1.109481
v -2.367251 0.725024 -1.111771
v -2.368515 0.724216 -1.109568
v -2.368904 0.723648 -1.108362
v -2.368941 0.722598 -1.107345
v -2.365347 0.711348 -1.103708
v -2.362993 0.713147 -1.105378
v -2.362527 0.715023 -1.106398
v -2.366007 0.724679 -1.1118
v -2.362724 0.720531 -1.109178
v -2.362478 0.718749 -1.108199
v -2.368735 0.721081 -1.106326
v -2.368399 0.71929 -1.105389
v -2.368044 0.717419 -1.10462
v -2.362383 0.716902 -1.107305
vn 0.169 0.6544 0.737
vn 0.3679 0.668 0.6468
vn 0.3811 0.6225 0.6835
vn 0.2043 0.6092 0.7662
vn 0.2182 0.5894 0.7778
vn 0.1767 0.6546 0.735
vn 0.1474 0.6977 0.701
vn 0.1853 0.7234 0.6651
vn 0.3446 0.7342 0.585
vn 0.5589 0.6187 0.552
vn 0.5526 0.6201 0.5568
vn 0.5499 0.5592 0.6203
vn 0.5528 0.5774 0.6008
vn 0.5038 0.6941 0.5141
vn 0.5512 0.6606 0.5097
vn 0.517 0.3957 0.759
vn 0.486 0.3924 0.7809
vn 0.4866 0.363 0.7946
vn 0.5271 0.3642 0.7678
vn 0.4259 0.367 0.827
vn 0.4217 0.4062 0.8106
vn 0.411 0.4826 0.7734
vn 0.5188 0.4621 0.7192
vn 0.4981 0.4503 0.741
vn 0.3213 0.4135 0.8519
vn 0.3171 0.3834 0.8674
vn 0.3627 0.3744 0.8534
vn 0.3568 0.4041 0.8422
vn 0.3274 0.4659 0.822
vn 0.2992 0.4821 0.8234
vn 0.2554 0.5556 0.7913
vn 0.3957 0.5627 0.7258
vn 0.2759 0.5333 0.7996
vn 0.5322 0.5303 0.6599
vn 0.5227 0.5107 0.6826
vn 0.5499 0.3476 0.7595
vn 0.5077 0.3425 0.7905
vn 0.5361 0.3228 0.7799
vn 0.5721 0.2913 0.7667
vn 0.4314 0.2949 0.8526
vn 0.4276 0.3484 0.8341
vn 0.294 0.371 0.8808
vn 0.2772 0.3183 0.9065
vn 0.3146 0.3433 0.8849
vn 0.3433 0.3578 0.8684
vn -0.1473 -0.6345 -0.7588
vn -0.3717 -0.6557 -0.6571
vn -0.3854 -0.6066 -0.6954
vn -0.0794 -0.5724 -0.8161
vn 0.0306 -0.5301 -0.8473
vn 0.0085 -0.543 -0.8396
vn -0.0609 -0.5535 -0.8306
vn -0.1899 -0.6073 -0.7714
vn -0.3811 -0.6226 -0.6834
vn -0.5861 -0.5943 -0.5506
vn -0.7317 -0.4754 -0.4884
vn -0.7495 -0.4587 -0.4772
vn -0.6634 -0.5189 -0.5391
vn -0.5654 -0.573 -0.5933
vn -0.6831 -0.4967 -0.5354
vn -0.5306 -0.3947 -0.7501
vn -0.6207 -0.3862 -0.6822
vn -0.6231 -0.4315 -0.6524
vn -0.5315 -0.4602 -0.7111
vn -0.411 -0.4824 -0.7735
vn -0.4217 -0.406 -0.8107
vn -0.4259 -0.3669 -0.827
vn -0.5426 -0.3649 -0.7566
vn -0.6402 -0.3797 -0.6678
vn -0.3058 -0.4152 -0.8567
vn -0.285 -0.4827 -0.8281
vn -0.1786 -0.4721 -0.8632
vn -0.1963 -0.425 -0.8836
vn -0.1722 -0.4225 -0.8898
vn -0.2989 -0.3872 -0.8722
vn -0.2415 -0.5553 -0.7958
vn -0.3957 -0.5627 -0.7257
vn -0.1286 -0.5258 -0.8408
vn -0.5444 -0.5276 -0.6521
vn -0.6448 -0.4786 -0.596
vn -0.5692 -0.3626 -0.7379
vn -0.6765 -0.4007 -0.6178
vn -0.4265 -0.3597 -0.8299
vn -0.4213 -0.4089 -0.8094
vn -0.6193 -0.4156 -0.6661
vn -0.6958 -0.4178 -0.5842
vn -0.2676 -0.3901 -0.881
vn -0.1144 -0.4522 -0.8845
vn -0.0791 -0.4743 -0.8768
vn -0.1891 -0.455 -0.8702
vn -0.6966 -0.1936 0.6908
vn -0.4428 -0.5159 0.7333
vn -0.7732 -0.0718 0.6301
vn -0.6958 -0.4178 -0.5842
vn 0.3132 -0.9069 0.2819
vn 0.7624 -0.6266 0.1617
vn 0.0353 -0.9651 0.2594
vn -0.0791 -0.4743 -0.8768
vn 0.8558 0.3782 -0.3527
vn 0.6478 0.5879 -0.4845
vn 0.9388 0.196 -0.2832
vn 0.0306 -0.5301 -0.8473
vn -0.6122 0.739 -0.2811
vn -0.6883 0.7096 0.1505
vn -0.257 0.6915 -0.675
vn -0.7495 -0.4587 -0.4772
vn -0.7472 0.5245 0.408
vn -0.7723 0.3525 0.5284
vn -0.1122 -0.868 0.4836
vn 0.9359 -0.3422 -0.0839
vn 0.9547 -0.2291 -0.1897
vn 0.2733 0.6579 -0.7017
vn 0.9658 0.0545 -0.2535
vn 0.9681 -0.0321 -0.2483
vn -0.7871 0.2143 0.5783
vn -0.7972 0.1292 0.5896
vn -0.8013 0.0429 0.5966
vn 0.9633 -0.1182 -0.2407
vt 0.839504 0.118056
vt 0.856743 0.205307
vt 0.741230 0.205307
vt 0.734555 0.106726
vt 0.724541 0.032791
vt 0.813647 0.052618
vt 0.868992 0.081539
vt 0.913398 0.129584
vt 0.940923 0.205307
vt 0.839504 0.292557
vt 0.813647 0.357995
vt 0.724541 0.377822
vt 0.734555 0.303887
vt 0.913398 0.281029
vt 0.868992 0.329074
vt 0.369475 0.299954
vt 0.368286 0.370940
vt 0.245840 0.351447
vt 0.246397 0.288815
vt 0.246768 0.205307
vt 0.370268 0.205307
vt 0.494283 0.205307
vt 0.492822 0.304944
vt 0.490632 0.379672
vt 0.369475 0.110659
vt 0.246397 0.121798
vt 0.245841 0.059166
vt 0.368286 0.039673
vt 0.490632 0.030941
vt 0.492822 0.105669
vt 0.616755 0.103478
vt 0.619174 0.205307
vt 0.613127 0.027106
vt 0.616755 0.307135
vt 0.613126 0.383507
vt 0.123273 0.268175
vt 0.123047 0.315326
vt 0.054743 0.283353
vt 0.030912 0.249131
vt 0.030973 0.205306
vt 0.123423 0.205306
vt 0.123273 0.142438
vt 0.030912 0.161481
vt 0.054744 0.127260
vt 0.123047 0.095287
vt 0.839504 0.118056
vt 0.856743 0.205307
vt 0.968983 0.205307
vt 0.938030 0.133427
vt 0.876123 0.061548
vt 0.805028 0.030806
vt 0.721203 0.008146
vt 0.734555 0.106726
vt 0.741230 0.205307
vt 0.839504 0.292557
vt 0.805028 0.379807
vt 0.876123 0.349065
vt 0.938030 0.277186
vt 0.734555 0.303887
vt 0.721203 0.402467
vt 0.369475 0.299954
vt 0.367890 0.394602
vt 0.489902 0.404581
vt 0.492822 0.304944
vt 0.494283 0.205307
vt 0.370268 0.205307
vt 0.246768 0.205307
vt 0.246397 0.288815
vt 0.245655 0.372324
vt 0.369475 0.110659
vt 0.492822 0.105669
vt 0.489902 0.006032
vt 0.367890 0.016011
vt 0.245655 0.038289
vt 0.246397 0.121798
vt 0.616755 0.103478
vt 0.619174 0.205307
vt 0.611917 0.001649
vt 0.616755 0.307135
vt 0.611917 0.408964
vt 0.123273 0.268175
vt 0.122972 0.331043
vt 0.123423 0.205306
vt 0.000156 0.205306
vt 0.000125 0.242784
vt 0.000064 0.280261
vt 0.123273 0.142438
vt 0.122972 0.079570
vt 0.000064 0.130352
vt 0.000125 0.167829
vt 0.122972 0.331043
vt 0.030806 0.283587
vt 0.245655 0.372324
vt 0.030806 0.283587
vt 0.000125 0.167829
vt 0.030806 0.127026
vt 0.000156 0.205306
vt 0.030806 0.127026
vt 0.805028 0.030806
vt 0.873826 0.071832
vt 0.721203 0.008146
vt 0.873826 0.071832
vt 0.938030 0.277186
vt 0.873826 0.338781
vt 0.968983 0.205307
vt 0.873826 0.338781
vt 0.805028 0.379807
vt 0.721203 0.402467
vt 0.000125 0.242784
vt 0.122972 0.079570
vt 0.245655 0.038289
vt 0.938030 0.133427
vt 0.611917 0.001649
vt 0.489902 0.006032
vt 0.611917 0.408964
vt 0.489902 0.404581
vt 0.367890 0.394602
vt 0.367890 0.016011
f 1/1/1 2/2/2 3/3/3
f 1/1/1 3/3/3 4/4/4
f 1/1/1 4/4/4 5/5/5
f 1/1/1 5/5/5 6/6/6
f 1/1/1 6/6/6 7/7/7
f 1/1/1 7/7/7 8/8/8
f 1/1/1 8/8/8 9/9/9
f 1/1/1 9/9/9 2/2/2
f 10/10/10 11/11/11 12/12/12
f 10/10/10 12/12/12 13/13/13
f 10/10/10 13/13/13 3/3/3
f 10/10/10 3/3/3 2/2/2
f 10/10/10 2/2/2 9/9/9
f 10/10/10 9/9/9 14/14/14
f 10/10/10 14/14/14 15/15/15
f 10/10/10 15/15/15 11/11/11
f 16/16/16 17/17/17 18/18/18
f 16/16/16 18/18/18 19/19/19
f 16/16/16 19/19/19 20/20/20
f 16/16/16 20/20/20 21/21/21
f 16/16/16 21/21/21 22/22/22
f 16/16/16 22/22/22 23/23/23
f 16/16/16 23/23/23 24/24/24
f 16/16/16 24/24/24 17/17/17
f 25/25/25 21/21/21 20/20/20
f 25/25/25 20/20/20 26/26/26
f 25/25/25 26/26/26 27/27/27
f 25/25/25 27/27/27 28/28/28
f 25/25/25 28/28/28 29/29/29
f 25/25/25 29/29/29 30/30/30
f 25/25/25 30/30/30 22/22/22
f 25/25/25 22/22/22 21/21/21
f 31/31/31 32/32/32 22/22/22
f 31/31/31 22/22/22 30/30/30
f 31/31/31 30/30/30 29/29/29
f 31/31/31 29/29/29 33/33/33
f 31/31/31 33/33/33 5/5/5
f 31/31/31 5/5/5 4/4/4
f 31/31/31 4/4/4 3/3/3
f 31/31/31 3/3/3 32/32/32
f 34/34/34 35/35/35 24/24/24
f 34/34/34 24/24/24 23/23/23
f 34/34/34 23/23/23 22/22/22
f 34/34/34 22/22/22 32/32/32
f 34/34/34 32/32/32 3/3/3
f 34/34/34 3/3/3 13/13/13
f 34/34/34 13/13/13 12/12/12
f 34/34/34 12/12/12 35/35/35
f 36/36/36 37/37/37 38/38/38
f 36/36/36 38/38/38 39/39/39
f 36/36/36 39/39/39 40/40/40
f 36/36/36 40/40/40 41/41/41
f 36/36/36 41/41/41 20/20/20
f 36/36/36 20/20/20 19/19/19
f 36/36/36 19/19/19 18/18/18
f 36/36/36 18/18/18 37/37/37
f 42/42/42 41/41/41 40/40/40
f 42/42/42 40/40/40 43/43/43
f 42/42/42 43/43/43 44/44/44
f 42/42/42 44/44/44 45/45/45
f 42/42/42 45/45/45 27/27/27
f 42/42/42 27/27/27 26/26/26
f 42/42/42 26/26/26 20/20/20
f 42/42/42 20/20/20 41/41/41
f 46/46/46 47/47/47 48/48/48
f 46/46/46 48/48/48 49/49/49
f 46/46/46 49/49/49 50/50/50
f 46/46/46 50/50/50 51/51/51
f 46/46/46 51/51/51 52/52/52
f 46/46/46 52/52/52 53/53/53
f 46/46/46 53/53/53 54/54/54
f 46/46/46 54/54/54 47/47/47
f 55/55/55 56/56/56 57/57/57
f 55/55/55 57/57/57 58/58/58
f 55/55/55 58/58/58 48/48/48
f 55/55/55 48/48/48 47/47/47
f 55/55/55 47/47/47 54/54/54
f 55/55/55 54/54/54 59/59/59
f 55/55/55 59/59/59 60/60/60
f 55/55/55 60/60/60 56/56/56
f 61/61/61 62/62/62 63/63/63
f 61/61/61 63/63/63 64/64/64
f 61/61/61 64/64/64 65/65/65
f 61/61/61 65/65/65 66/66/66
f 61/61/61 66/66/66 67/67/67
f 61/61/61 67/67/67 68/68/68
f 61/61/61 68/68/68 69/69/69
f 61/61/61 69/69/69 62/62/62
f 70/70/70 66/66/66 65/65/65
f 70/70/70 65/65/65 71/71/71
f 70/70/70 71/71/71 72/72/72
f 70/70/70 72/72/72 73/73/73
f 70/70/70 73/73/73 74/74/74
f 70/70/70 74/74/74 75/75/75
f 70/70/70 75/75/75 67/67/67
f 70/70/70 67/67/67 66/66/66
f 76/76/76 77/77/77 54/54/54
f 76/76/76 54/54/54 53/53/53
f 76/76/76 53/53/53 52/52/52
f 76/76/76 52/52/52 78/78/78
f 76/76/76 78/78/78 72/72/72
f 76/76/76 72/72/72 71/71/71
f 76/76/76 71/71/71 65/65/65
f 76/76/76 65/65/65 77/77/77
f 79/79/79 80/80/80 60/60/60
f 79/79/79 60/60/60 59/59/59
f 79/79/79 59/59/59 54/54/54
f 79/79/79 54/54/54 77/77/77
f 79/79/79 77/77/77 65/65/65
f 79/79/79 65/65/65 64/64/64
f 79/79/79 64/64/64 63/63/63
f 79/79/79 63/63/63 80/80/80
f 81/81/81 82/82/82 69/69/69
f 81/81/81 69/69/69 68/68/68
f 81/81/81 68/68/68 67/67/67
f 81/81/81 67/67/67 83/83/83
f 81/81/81 83/83/83 84/84/84
f 81/81/81 84/84/84 85/85/85
f 81/81/81 85/85/85 86/86/86
f 81/81/81 86/86/86 82/82/82
f 87/87/87 83/83/83 67/67/67
f 87/87/87 67/67/67 75/75/75
f 87/87/87 75/75/75 74/74/74
f 87/87/87 74/74/74 88/88/88
f 87/87/87 88/88/88 89/89/89
f 87/87/87 89/89/89 90/90/90
f 87/87/87 90/90/90 84/84/84
f 87/87/87 84/84/84 83/83/83
f 91/91/91 92/92/92 38/38/38
f 91/91/91 38/38/38 37/37/37
f 91/91/91 37/37/37 18/18/18
f 91/91/91 18/18/18 93/93/93
f 91/91/91 93/93/93 69/69/69
f 91/91/91 69/69/69 82/82/82
f 91/91/91 82/82/82 94/94/94
f 91/91/91 94/94/94 92/92/92
f 95/95/95 96/96/96 44/44/44
f 95/95/95 44/44/44 43/43/43
f 95/95/95 43/43/43 40/40/40
f 95/95/95 40/40/40 97/97/97
f 95/95/95 97/97/97 84/84/84
f 95/95/95 84/84/84 90/90/90
f 95/95/95 90/90/90 98/98/98
f 95/95/95 98/98/98 96/96/96
f 99/99/99 100/100/100 7/7/7
f 99/99/99 7/7/7 6/6/6
f 99/99/99 6/6/6 5/5/5
f 99/99/99 5/5/5 101/101/101
f 99/99/99 101/101/101 52/52/52
f 99/99/99 52/52/52 51/51/51
f 99/99/99 51/51/51 102/102/102
f 99/99/99 102/102/102 100/100/100
f 103/103/103 104/104/104 15/15/15
f 103/103/103 15/15/15 14/14/14
f 103/103/103 14/14/14 9/9/9
f 103/103/103 9/9/9 105/105/105
f 103/103/103 105/105/105 48/48/48
f 103/103/103 48/48/48 58/58/58
f 103/103/103 58/58/58 106/106/106
f 103/103/103 106/106/106 104/104/104
f 107/107/107 108/108/108 12/12/12
f 107/107/107 12/12/12 11/11/11
f 107/107/107 11/11/11 15/15/15
f 107/107/107 15/15/15 104/104/104
f 107/107/107 104/104/104 106/106/106
f 107/107/107 106/106/106 56/56/56
f 107/107/107 56/56/56 60/60/60
f 107/107/107 60/60/60 108/108/108
f 109/109/109 97/97/97 40/40/40
f 109/109/109 40/40/40 39/39/39
f 109/109/109 39/39/39 38/38/38
f 109/109/109 38/38/38 92/92/92
f 109/109/109 92/92/92 94/94/94
f 109/109/109 94/94/94 85/85/85
f 109/109/109 85/85/85 84/84/84
f 109/109/109 84/84/84 97/97/97
f 110/110/110 111/111/111 27/27/27
f 110/110/110 27/27/27 45/45/45
f 110/110/110 45/45/45 44/44/44
f 110/110/110 44/44/44 96/96/96
f 110/110/110 96/96/96 98/98/98
f 110/110/110 98/98/98 88/88/88
f 110/110/110 88/88/88 74/74/74
f 110/110/110 74/74/74 111/111/111
f 112/112/112 105/105/105 9/9/9
f 112/112/112 9/9/9 8/8/8
f 112/112/112 8/8/8 7/7/7
f 112/112/112 7/7/7 100/100/100
f 112/112/112 100/100/100 102/102/102
f 112/112/112 102/102/102 49/49/49
f 112/112/112 49/49/49 48/48/48
f 112/112/112 48/48/48 105/105/105
f 113/113/113 101/101/101 5/5/5
f 113/113/113 5/5/5 33/33/33
f 113/113/113 33/33/33 29/29/29
f 113/113/113 29/29/29 114/114/114
f 113/113/113 114/114/114 72/72/72
f 113/113/113 72/72/72 78/78/78
f 113/113/113 78/78/78 52/52/52
f 113/113/113 52/52/52 101/101/101
f 115/115/115 116/116/116 24/24/24
f 115/115/115 24/24/24 35/35/35
f 115/115/115 35/35/35 12/12/12
f 115/115/115 12/12/12 108/108/108
f 115/115/115 108/108/108 60/60/60
f 115/115/115 60/60/60 80/80/80
f 115/115/115 80/80/80 63/63/63
f 115/115/115 63/63/63 116/116/116
f 117/117/117 93/93/93 18/18/18
f 117/117/117 18/18/18 17/17/17
f 117/117/117 17/17/17 24/24/24
f 117/117/117 24/24/24 116/116/116
f 117/117/117 116/116/116 63/63/63
f 117/117/117 63/63/63 62/62/62
f 117/117/117 62/62/62 69/69/69
f 117/117/117 69/69/69 93/93/93
f 118/118/118 114/114/114 29/29/29
f 118/118/118 29/29/29 28/28/28
f 118/118/118 28/28/28 27/27/27
f 118/118/118 27/27/27 111/111/111
f 118/118/118 111/111/111 74/74/74
f 118/118/118 74/74/74 73/73/73
f 118/118/118 73/73/73 72/72/72
f 118/118/118 72/72/72 114/114/114
