v -2.363543 0.694341 -1.213905
v -2.365004 0.694052 -1.215624
v -2.366725 0.693365 -1.213228
v -2.364864 0.693708 -1.21155
v -2.363576 0.694146 -1.210138
v -2.362672 0.694705 -1.212299
v -2.362396 0.694806 -1.213929
v -2.362655 0.694671 -1.215642
v -2.363727 0.694453 -1.217396
v -2.367099 0.694225 -1.216493
v -2.368909 0.6945 -1.216837
v -2.370662 0.693914 -1.215294
v -2.368906 0.693576 -1.214492
v -2.365733 0.69457 -1.217883
v -2.367448 0.69464 -1.217605
v -2.373912 0.689841 -1.207358
v -2.375487 0.689996 -1.208334
v -2.376651 0.688277 -1.205814
v -2.375252 0.688129 -1.204958
v -2.37344 0.688042 -1.20376
v -2.371869 0.689753 -1.205996
v -2.370235 0.691263 -1.20831
v -2.372378 0.691376 -1.209728
v -2.374035 0.691569 -1.210737
v -2.369952 0.689971 -1.204476
v -2.371749 0.688244 -1.202409
v -2.370513 0.688478 -1.201347
v -2.368547 0.690223 -1.203284
v -2.366775 0.691807 -1.205454
v -2.368235 0.691512 -1.206713
v -2.366483 0.692761 -1.209112
v -2.368494 0.692451 -1.210755
v -2.365031 0.693147 -1.207798
v -2.370687 0.692623 -1.212171
v -2.372398 0.692906 -1.213159
v -2.376357 0.686349 -1.202424
v -2.377422 0.686503 -1.20304
v -2.377566 0.685434 -1.201362
v -2.377091 0.684964 -1.200488
v -2.376137 0.684853 -1.199911
v -2.374991 0.686251 -1.201548
v -2.373743 0.686435 -1.200522
v -2.3753 0.685023 -1.199184
v -2.374343 0.685539 -1.199017
v -2.372838 0.686653 -1.199704
v -2.363474 0.694115 -1.213933
v -2.364963 0.693822 -1.215671
v -2.363698 0.69428 -1.217429
v -2.362605 0.694501 -1.215659
v -2.362353 0.694681 -1.213938
v -2.362608 0.694538 -1.212309
v -2.363511 0.69398 -1.210158
v -2.364793 0.693484 -1.211587
v -2.366678 0.693138 -1.213283
v -2.367084 0.693997 -1.216559
v -2.368912 0.694331 -1.216897
v -2.367447 0.694514 -1.217645
v -2.365726 0.694398 -1.21793
v -2.368883 0.69335 -1.214563
v -2.370656 0.693746 -1.215357
v -2.373858 0.689631 -1.207459
v -2.375455 0.689839 -1.208415
v -2.37401 0.691408 -1.210812
v -2.372332 0.69116 -1.209819
v -2.370171 0.691047 -1.208388
v -2.371798 0.689543 -1.206085
v -2.373364 0.687837 -1.203856
v -2.375193 0.687924 -1.205066
v -2.376616 0.688123 -1.205901
v -2.369863 0.689762 -1.204552
v -2.368153 0.691297 -1.206778
v -2.366705 0.691648 -1.205496
v -2.368473 0.690068 -1.203334
v -2.370435 0.688326 -1.201403
v -2.371656 0.68804 -1.202492
v -2.366407 0.692541 -1.209163
v -2.368439 0.692229 -1.210822
v -2.364964 0.692984 -1.207829
v -2.370653 0.692402 -1.212252
v -2.372383 0.692741 -1.213227
v -2.376298 0.686146 -1.202535
v -2.377387 0.686351 -1.203129
v -2.374913 0.686048 -1.201647
v -2.376078 0.684701 -1.199985
v -2.377048 0.684812 -1.200572
v -2.377538 0.685321 -1.201427
v -2.373647 0.686233 -1.200606
v -2.372757 0.686503 -1.19976
v -2.374286 0.685428 -1.19906
v -2.375227 0.684872 -1.199247
v -2.377763 0.686487 -1.203286
v -2.377871 0.685076 -1.200934
v -2.377104 0.688258 -1.206139
v -2.377538 0.685321 -1.201427
v -2.375787 0.684485 -1.198766
v -2.374642 0.685182 -1.198584
v -2.376492 0.684319 -1.199398
v -2.374286 0.685428 -1.19906
v -2.36235 0.694753 -1.211766
v -2.362123 0.694887 -1.213874
v -2.363116 0.694219 -1.209674
v -2.362353 0.694681 -1.213938
v -2.365276 0.694608 -1.218367
v -2.367588 0.694708 -1.217851
v -2.363289 0.69451 -1.218001
v -2.367447 0.694514 -1.217645
v -2.369517 0.694518 -1.21698
v -2.371248 0.693952 -1.215592
v -2.377317 0.684435 -1.19988
v -2.372499 0.68666 -1.199455
v -2.370064 0.688488 -1.201017
v -2.362337 0.694705 -1.216228
v -2.364515 0.693204 -1.207372
v -2.366256 0.691835 -1.205052
v -2.372964 0.692927 -1.21352
v -2.374578 0.691562 -1.211108
v -2.376 0.689978 -1.208697
v -2.368044 0.690238 -1.202908
vn -0.3274 0.944 0.0394
vn -0.144 0.9775 0.1538
vn -0.1779 0.9633 0.2011
vn -0.3434 0.9337 0.1008
vn -0.3501 0.9282 0.1261
vn -0.3216 0.9458 0.0446
vn -0.2991 0.9541 -0.0129
vn -0.2433 0.9699 -0.0099
vn -0.09 0.9928 0.079
vn 0.0225 0.9555 0.294
vn 0.0157 0.9569 0.29
vn -0.0523 0.9379 0.3429
vn -0.0305 0.944 0.3285
vn 0.0425 0.9792 0.198
vn 0.0631 0.966 0.2507
vn -0.2235 0.863 0.453
vn -0.2586 0.8607 0.4386
vn -0.277 0.8439 0.4595
vn -0.2332 0.8453 0.4807
vn -0.3346 0.8426 0.4219
vn -0.3137 0.8648 0.3921
vn -0.2699 0.9045 0.3301
vn -0.1734 0.8976 0.4052
vn -0.2052 0.8919 0.403
vn -0.3992 0.8572 0.3252
vn -0.4217 0.8391 0.3435
vn -0.388 0.8403 0.3786
vn -0.3746 0.8569 0.3542
vn -0.3584 0.8869 0.2915
vn -0.3706 0.8911 0.2618
vn -0.3496 0.9199 0.1776
vn -0.2193 0.9406 0.259
vn -0.3509 0.913 0.2081
vn -0.1011 0.928 0.3585
vn -0.1294 0.9202 0.3694
vn -0.2184 0.8355 0.5041
vn -0.2674 0.8325 0.4852
vn -0.2486 0.821 0.5138
vn -0.2266 0.8012 0.5538
vn -0.3707 0.7989 0.4735
vn -0.3443 0.8317 0.4357
vn -0.4482 0.828 0.3369
vn -0.4914 0.7925 0.3611
vn -0.4475 0.8145 0.3691
vn -0.4149 0.8277 0.3778
vn 0.3617 -0.9314 -0.0408
vn 0.1534 -0.9739 -0.1669
vn 0.1893 -0.9576 -0.217
vn 0.4607 -0.8866 -0.0417
vn 0.5562 -0.831 0.0096
vn 0.5345 -0.8451 0.0022
vn 0.4869 -0.8724 -0.0425
vn 0.3559 -0.9299 -0.0926
vn 0.1778 -0.9633 -0.201
vn -0.0322 -0.9443 -0.3276
vn -0.1299 -0.8668 -0.4813
vn -0.1441 -0.8539 -0.5
vn -0.0635 -0.9038 -0.4231
vn 0.0187 -0.9409 -0.3379
vn -0.0715 -0.8907 -0.449
vn 0.2093 -0.8624 -0.4609
vn 0.1084 -0.8526 -0.5111
vn 0.0714 -0.8753 -0.4783
vn 0.1606 -0.8964 -0.4131
vn 0.27 -0.9044 -0.3302
vn 0.3138 -0.8647 -0.3922
vn 0.3347 -0.8426 -0.4219
vn 0.2156 -0.8456 -0.4883
vn 0.0881 -0.8468 -0.5246
vn 0.411 -0.8558 -0.3141
vn 0.3819 -0.8892 -0.252
vn 0.4703 -0.8622 -0.188
vn 0.4892 -0.8401 -0.234
vn 0.508 -0.833 -0.2189
vn 0.4343 -0.8384 -0.3291
vn 0.3608 -0.9172 -0.1686
vn 0.2193 -0.9406 -0.259
vn 0.4657 -0.8777 -0.1131
vn 0.089 -0.9261 -0.3665
vn 0.0023 -0.8928 -0.4503
vn 0.1869 -0.8435 -0.5035
vn 0.023 -0.8515 -0.5239
vn 0.3384 -0.8383 -0.4273
vn 0.3121 -0.8663 -0.3899
vn 0.0886 -0.8679 -0.4888
vn -0.0187 -0.8553 -0.5178
vn 0.4576 -0.8346 -0.3065
vn 0.5275 -0.835 -0.1566
vn 0.5347 -0.8372 -0.1149
vn 0.4746 -0.8553 -0.2077
vn -0.9799 -0.0513 -0.1926
vn -0.9599 -0.2055 0.1905
vn -0.9413 -0.0086 -0.3376
vn -0.0187 -0.8553 -0.5178
vn -0.2911 -0.4877 0.823
vn 0.1216 -0.1701 0.9779
vn -0.4392 -0.6386 0.6319
vn 0.5347 -0.8372 -0.1149
vn 0.8441 0.4187 0.3348
vn 0.8909 0.4537 0.0169
vn 0.7866 0.3339 0.5193
vn 0.5562 -0.831 0.0096
vn 0.0847 0.2525 -0.9639
vn -0.3087 0.4143 -0.8561
vn 0.5795 0.141 -0.8026
vn -0.1441 -0.8539 -0.5
vn -0.5949 0.3717 -0.7126
vn -0.7493 0.2837 -0.5983
vn -0.6727 -0.5002 0.5452
vn 0.4859 -0.0032 0.874
vn 0.6101 0.0424 0.7912
vn 0.8798 0.2786 -0.385
vn 0.7405 0.2435 0.6263
vn 0.7147 0.1769 0.6767
vn -0.8334 0.1917 -0.5182
vn -0.8704 0.1248 -0.4761
vn -0.9003 0.0576 -0.4315
vn 0.684 0.1096 0.7212
vt 0.839504 0.118056
vt 0.856743 0.205307
vt 0.741230 0.205307
vt 0.734555 0.106726
vt 0.724541 0.032791
vt 0.813647 0.052618
vt 0.868992 0.081539
vt 0.913398 0.129584
vt 0.940923 0.205307
vt 0.839504 0.292557
vt 0.813647 0.357995
vt 0.724541 0.377822
vt 0.734555 0.303887
vt 0.913398 0.281029
vt 0.868992 0.329074
vt 0.369475 0.299954
vt 0.368286 0.370940
vt 0.245840 0.351447
vt 0.246397 0.288815
vt 0.246768 0.205307
vt 0.370268 0.205307
vt 0.494283 0.205307
vt 0.492822 0.304944
vt 0.490632 0.379672
vt 0.369475 0.110659
vt 0.246397 0.121798
vt 0.245841 0.059166
vt 0.368286 0.039673
vt 0.490632 0.030941
vt 0.492822 0.105669
vt 0.616755 0.103478
vt 0.619174 0.205307
vt 0.613127 0.027106
vt 0.616755 0.307135
vt 0.613126 0.383507
vt 0.123273 0.268175
vt 0.123047 0.315326
vt 0.054743 0.283353
vt 0.030912 0.249131
vt 0.030973 0.205306
vt 0.123423 0.205306
vt 0.123273 0.142438
vt 0.030912 0.161481
vt 0.054744 0.127260
vt 0.123047 0.095287
vt 0.839504 0.118056
vt 0.856743 0.205307
vt 0.968983 0.205307
vt 0.938030 0.133427
vt 0.876123 0.061548
vt 0.805028 0.030806
vt 0.721203 0.008146
vt 0.734555 0.106726
vt 0.741230 0.205307
vt 0.839504 0.292557
vt 0.805028 0.379807
vt 0.876123 0.349065
vt 0.938030 0.277186
vt 0.734555 0.303887
vt 0.721203 0.402467
vt 0.369475 0.299954
vt 0.367890 0.394602
vt 0.489902 0.404581
vt 0.492822 0.304944
vt 0.494283 0.205307
vt 0.370268 0.205307
vt 0.246768 0.205307
vt 0.246397 0.288815
vt 0.245655 0.372324
vt 0.369475 0.110659
vt 0.492822 0.105669
vt 0.489902 0.006032
vt 0.367890 0.016011
vt 0.245655 0.038289
vt 0.246397 0.121798
vt 0.616755 0.103478
vt 0.619174 0.205307
vt 0.611917 0.001649
vt 0.616755 0.307135
vt 0.611917 0.408964
vt 0.123273 0.268175
vt 0.122972 0.331043
vt 0.123423 0.205306
vt 0.000156 0.205306
vt 0.000125 0.242784
vt 0.000064 0.280261
vt 0.123273 0.142438
vt 0.122972 0.079570
vt 0.000064 0.130352
vt 0.000125 0.167829
vt 0.122972 0.331043
vt 0.030806 0.283587
vt 0.245655 0.372324
vt 0.030806 0.283587
vt 0.000125 0.167829
vt 0.030806 0.127026
vt 0.000156 0.205306
vt 0.030806 0.127026
vt 0.805028 0.030806
vt 0.873826 0.071832
vt 0.721203 0.008146
vt 0.873826 0.071832
vt 0.938030 0.277186
vt 0.873826 0.338781
vt 0.968983 0.205307
vt 0.873826 0.338781
vt 0.805028 0.379807
vt 0.721203 0.402467
vt 0.000125 0.242784
vt 0.122972 0.079570
vt 0.245655 0.038289
vt 0.938030 0.133427
vt 0.611917 0.001649
vt 0.489902 0.006032
vt 0.611917 0.408964
vt 0.489902 0.404581
vt 0.367890 0.394602
vt 0.367890 0.016011
f 1/1/1 2/2/2 3/3/3
f 1/1/1 3/3/3 4/4/4
f 1/1/1 4/4/4 5/5/5
f 1/1/1 5/5/5 6/6/6
f 1/1/1 6/6/6 7/7/7
f 1/1/1 7/7/7 8/8/8
f 1/1/1 8/8/8 9/9/9
f 1/1/1 9/9/9 2/2/2
f 10/10/10 11/11/11 12/12/12
f 10/10/10 12/12/12 13/13/13
f 10/10/10 13/13/13 3/3/3
f 10/10/10 3/3/3 2/2/2
f 10/10/10 2/2/2 9/9/9
f 10/10/10 9/9/9 14/14/14
f 10/10/10 14/14/14 15/15/15
f 10/10/10 15/15/15 11/11/11
f 16/16/16 17/17/17 18/18/18
f 16/16/16 18/18/18 19/19/19
f 16/16/16 19/19/19 20/20/20
f 16/16/16 20/20/20 21/21/21
f 16/16/16 21/21/21 22/22/22
f 16/16/16 22/22/22 23/23/23
f 16/16/16 23/23/23 24/24/24
f 16/16/16 24/24/24 17/17/17
f 25/25/25 21/21/21 20/20/20
f 25/25/25 20/20/20 26/26/26
f 25/25/25 26/26/26 27/27/27
f 25/25/25 27/27/27 28/28/28
f 25/25/25 28/28/28 29/29/29
f 25/25/25 29/29/29 30/30/30
f 25/25/25 30/30/30 22/22/22
f 25/25/25 22/22/22 21/21/21
f 31/31/31 32/32/32 22/22/22
f 31/31/31 22/22/22 30/30/30
f 31/31/31 30/30/30 29/29/29
f 31/31/31 29/29/29 33/33/33
f 31/31/31 33/33/33 5/5/5
f 31/31/31 5/5/5 4/4/4
f 31/31/31 4/4/4 3/3/3
f 31/31/31 3/3/3 32/32/32
f 34/34/34 35/35/35 24/24/24
f 34/34/34 24/24/24 23/23/23
f 34/34/34 23/23/23 22/22/22
f 34/34/34 22/22/22 32/32/32
f 34/34/34 32/32/32 3/3/3
f 34/34/34 3/3/3 13/13/13
f 34/34/34 13/13/13 12/12/12
f 34/34/34 12/12/12 35/35/35
f 36/36/36 37/37/37 38/38/38
f 36/36/36 38/38/38 39/39/39
f 36/36/36 39/39/39 40/40/40
f 36/36/36 40/40/40 41/41/41
f 36/36/36 41/41/41 20/20/20
f 36/36/36 20/20/20 19/19/19
f 36/36/36 19/19/19 18/18/18
f 36/36/36 18/18/18 37/37/37
f 42/42/42 41/41/41 40/40/40
f 42/42/42 40/40/40 43/43/43
f 42/42/42 43/43/43 44/44/44
f 42/42/42 44/44/44 45/45/45
f 42/42/42 45/45/45 27/27/27
f 42/42/42 27/27/27 26/26/26
f 42/42/42 26/26/26 20/20/20
f 42/42/42 20/20/20 41/41/41
f 46/46/46 47/47/47 48/48/48
f 46/46/46 48/48/48 49/49/49
f 46/46/46 49/49/49 50/50/50
f 46/46/46 50/50/50 51/51/51
f 46/46/46 51/51/51 52/52/52
f 46/46/46 52/52/52 53/53/53
f 46/46/46 53/53/53 54/54/54
f 46/46/46 54/54/54 47/47/47
f 55/55/55 56/56/56 57/57/57
f 55/55/55 57/57/57 58/58/58
f 55/55/55 58/58/58 48/48/48
f 55/55/55 48/48/48 47/47/47
f 55/55/55 47/47/47 54/54/54
f 55/55/55 54/54/54 59/59/59
f 55/55/55 59/59/59 60/60/60
f 55/55/55 60/60/60 56/56/56
f 61/61/61 62/62/62 63/63/63
f 61/61/61 63/63/63 64/64/64
f 61/61/61 64/64/64 65/65/65
f 61/61/61 65/65/65 66/66/66
f 61/61/61 66/66/66 67/67/67
f 61/61/61 67/67/67 68/68/68
f 61/61/61 68/68/68 69/69/69
f 61/61/61 69/69/69 62/62/62
f 70/70/70 66/66/66 65/65/65
f 70/70/70 65/65/65 71/71/71
f 70/70/70 71/71/71 72/72/72
f 70/70/70 72/72/72 73/73/73
f 70/70/70 73/73/73 74/74/74
f 70/70/70 74/74/74 75/75/75
f 70/70/70 75/75/75 67/67/67
f 70/70/70 67/67/67 66/66/66
f 76/76/76 77/77/77 54/54/54
f 76/76/76 54/54/54 53/53/53
f 76/76/76 53/53/53 52/52/52
f 76/76/76 52/52/52 78/78/78
f 76/76/76 78/78/78 72/72/72
f 76/76/76 72/72/72 71/71/71
f 76/76/76 71/71/71 65/65/65
f 76/76/76 65/65/65 77/77/77
f 79/79/79 80/80/80 60/60/60
f 79/79/79 60/60/60 59/59/59
f 79/79/79 59/59/59 54/54/54
f 79/79/79 54/54/54 77/77/77
f 79/79/79 77/77/77 65/65/65
f 79/79/79 65/65/65 64/64/64
f 79/79/79 64/64/64 63/63/63
f 79/79/79 63/63/63 80/80/80
f 81/81/81 82/82/82 69/69/69
f 81/81/81 69/69/69 68/68/68
f 81/81/81 68/68/68 67/67/67
f 81/81/81 67/67/67 83/83/83
f 81/81/81 83/83/83 84/84/84
f 81/81/81 84/84/84 85/85/85
f 81/81/81 85/85/85 86/86/86
f 81/81/81 86/86/86 82/82/82
f 87/87/87 83/83/83 67/67/67
f 87/87/87 67/67/67 75/75/75
f 87/87/87 75/75/75 74/74/74
f 87/87/87 74/74/74 88/88/88
f 87/87/87 88/88/88 89/89/89
f 87/87/87 89/89/89 90/90/90
f 87/87/87 90/90/90 84/84/84
f 87/87/87 84/84/84 83/83/83
f 91/91/91 92/92/92 38/38/38
f 91/91/91 38/38/38 37/37/37
f 91/91/91 37/37/37 18/18/18
f 91/91/91 18/18/18 93/93/93
f 91/91/91 93/93/93 69/69/69
f 91/91/91 69/69/69 82/82/82
f 91/91/91 82/82/82 94/94/94
f 91/91/91 94/94/94 92/92/92
f 95/95/95 96/96/96 44/44/44
f 95/95/95 44/44/44 43/43/43
f 95/95/95 43/43/43 40/40/40
f 95/95/95 40/40/40 97/97/97
f 95/95/95 97/97/97 84/84/84
f 95/95/95 84/84/84 90/90/90
f 95/95/95 90/90/90 98/98/98
f 95/95/95 98/98/98 96/96/96
f 99/99/99 100/100/100 7/7/7
f 99/99/99 7/7/7 6/6/6
f 99/99/99 6/6/6 5/5/5
f 99/99/99 5/5/5 101/101/101
f 99/99/99 101/101/101 52/52/52
f 99/99/99 52/52/52 51/51/51
f 99/99/99 51/51/51 102/102/102
f 99/99/99 102/102/102 100/100/100
f 103/103/103 104/104/104 15/15/15
f 103/103/103 15/15/15 14/14/14
f 103/103/103 14/14/14 9/9/9
f 103/103/103 9/9/9 105/105/105
f 103/103/103 105/105/105 48/48/48
f 103/103/103 48/48/48 58/58/58
f 103/103/103 58/58/58 106/106/106
f 103/103/103 106/106/106 104/104/104
f 107/107/107 108/108/108 12/12/12
f 107/107/107 12/12/12 11/11/11
f 107/107/107 11/11/11 15/15/15
f 107/107/107 15/15/15 104/104/104
f 107/107/107 104/104/104 106/106/106
f 107/107/107 106/106/106 56/56/56
f 107/107/107 56/56/56 60/60/60
f 107/107/107 60/60/60 108/108/108
f 109/109/109 97/97/97 40/40/40
f 109/109/109 40/40/40 39/39/39
f 109/109/109 39/39/39 38/38/38
f 109/109/109 38/38/38 92/92/92
f 109/109/109 92/92/92 94/94/94
f 109/109/109 94/94/94 85/85/85
f 109/109/109 85/85/85 84/84/84
f 109/109/109 84/84/84 97/97/97
f 110/110/110 111/111/111 27/27/27
f 110/110/110 27/27/27 45/45/45
f 110/110/110 45/45/45 44/44/44
f 110/110/110 44/44/44 96/96/96
f 110/110/110 96/96/96 98/98/98
f 110/110/110 98/98/98 88/88/88
f 110/110/110 88/88/88 74/74/74
f 110/110/110 74/74/74 111/111/111
f 112/112/112 105/105/105 9/9/9
f 112/112/112 9/9/9 8/8/8
f 112/112/112 8/8/8 7/7/7
f 112/112/112 7/7/7 100/100/100
f 112/112/112 100/100/100 102/102/102
f 112/112/112 102/102/102 49/49/49
f 112/112/112 49/49/49 48/48/48
f 112/112/112 48/48/48 105/105/105
f 113/113/113 101/101/101 5/5/5
f 113/113/113 5/5/5 33/33/33
f 113/113/113 33/33/33 29/29/29
f 113/113/113 29/29/29 114/114/114
f 113/113/113 114/114/114 72/72/72
f 113/113/113 72/72/72 78/78/78
f 113/113/113 78/78/78 52/52/52
f 113/113/113 52/52/52 101/101/101
f 115/115/115 116/116/116 24/24/24
f 115/115/115 24/24/24 35/35/35
f 115/115/115 35/35/35 12/12/12
f 115/115/115 12/12/12 108/108/108
f 115/115/115 108/108/108 60/60/60
f 115/115/115 60/60/60 80/80/80
f 115/115/115 80/80/80 63/63/63
f 115/115/115 63/63/63 116/116/116
f 117/117/117 93/93/93 18/18/18
f 117/117/117 18/18/18 17/17/17
f 117/117/117 17/17/17 24/24/24
f 117/117/117 24/24/24 116/116/116
f 117/117/117 116/116/116 63/63/63
f 117/117/117 63/63/63 62/62/62
f 117/117/117 62/62/62 69/69/69
f 117/117/117 69/69/69 93/93/93
f 118/118/118 114/114/114 29/29/29
f 118/118/118 29/29/29 28/28/28
f 118/118/118 28/28/28 27/27/27
f 118/118/118 27/27/27 111/111/111
f 118/118/118 111/111/111 74/74/74
f 118/118/118 74/74/74 73/73/73
f 118/118/118 73/73/73 72/72/72
f 118/118/118 72/72/72 114/114/114
