v -2.412722 0.677057 -1.102981
v -2.41515 0.676772 -1.102614
v -2.413895 0.674488 -1.100603
v -2.411286 0.675016 -1.10129
v -2.409221 0.675472 -1.101551
v -2.410705 0.677187 -1.102858
v -2.412079 0.678005 -1.103685
v -2.413843 0.678397 -1.104234
v -2.416089 0.678365 -1.104166
v -2.417062 0.676317 -1.101114
v -2.418316 0.675889 -1.099582
v -2.417868 0.673998 -1.09783
v -2.416218 0.674175 -1.099167
v -2.4176 0.677756 -1.102618
v -2.418243 0.676953 -1.101033
v -2.41262 0.665873 -1.094234
v -2.414357 0.665672 -1.093222
v -2.412811 0.662642 -1.092212
v -2.411279 0.662815 -1.093121
v -2.409199 0.663102 -1.094204
v -2.410262 0.666201 -1.095445
v -2.411388 0.669174 -1.096884
v -2.413848 0.668844 -1.095599
v -2.415656 0.668654 -1.094509
v -2.407786 0.666697 -1.096314
v -2.407005 0.663544 -1.094961
v -2.405321 0.663919 -1.095435
v -2.405888 0.667117 -1.096867
v -2.406797 0.670165 -1.098321
v -2.408793 0.669706 -1.097774
v -2.409968 0.672522 -1.099494
v -2.41262 0.671946 -1.098648
v -2.407914 0.673041 -1.099961
v -2.415098 0.671647 -1.097286
v -2.416904 0.671508 -1.096092
v -2.409697 0.65975 -1.092188
v -2.410824 0.659643 -1.091459
v -2.409451 0.657976 -1.09127
v -2.408432 0.657434 -1.091582
v -2.407395 0.657545 -1.092212
v -2.408158 0.659947 -1.093035
v -2.406507 0.660294 -1.093561
v -2.406246 0.657806 -1.092523
v -2.405518 0.658646 -1.092963
v -2.405231 0.660597 -1.093866
v -2.412738 0.676889 -1.103177
v -2.415199 0.676597 -1.102798
v -2.416125 0.678231 -1.104301
v -2.413852 0.678269 -1.104379
v -2.412079 0.677913 -1.103796
v -2.4107 0.677066 -1.10301
v -2.409225 0.675356 -1.101707
v -2.41131 0.674855 -1.101491
v -2.413948 0.674321 -1.100793
v -2.417143 0.676138 -1.101282
v -2.418393 0.675754 -1.0997
v -2.418295 0.676853 -1.101121
v -2.417661 0.67762 -1.10274
v -2.4163 0.674004 -1.099344
v -2.417943 0.673869 -1.097955
v -2.41271 0.665741 -1.094439
v -2.414435 0.665572 -1.093371
v -2.415732 0.668545 -1.094652
v -2.413936 0.6687 -1.095796
v -2.411454 0.669033 -1.097092
v -2.410332 0.666073 -1.095659
v -2.409273 0.662982 -1.094423
v -2.411374 0.662692 -1.09333
v -2.412892 0.662548 -1.092363
v -2.407835 0.666573 -1.096537
v -2.408836 0.66957 -1.097991
v -2.406818 0.670065 -1.098487
v -2.405915 0.667025 -1.097037
v -2.405349 0.663835 -1.095609
v -2.407058 0.663428 -1.095187
v -2.410001 0.672373 -1.099702
v -2.412679 0.671791 -1.098847
v -2.407926 0.672932 -1.100122
v -2.415182 0.671489 -1.097473
v -2.416979 0.671388 -1.096226
v -2.409794 0.65963 -1.092398
v -2.410908 0.659552 -1.09161
v -2.408233 0.65983 -1.093255
v -2.407451 0.657458 -1.092377
v -2.408505 0.657344 -1.091739
v -2.40951 0.657909 -1.091384
v -2.406559 0.660182 -1.09379
v -2.405258 0.660515 -1.094041
v -2.405541 0.658586 -1.093092
v -2.406284 0.657723 -1.092695
v -2.411239 0.659567 -1.091281
v -2.409253 0.657353 -1.091047
v -2.41336 0.662542 -1.091975
v -2.40951 0.657909 -1.091384
v -2.406175 0.65694 -1.092253
v -2.405313 0.658025 -1.092743
v -2.407165 0.656706 -1.092011
v -2.405541 0.658586 -1.093092
v -2.410027 0.677178 -1.102885
v -2.411872 0.678181 -1.103846
v -2.408531 0.675574 -1.101709
v -2.412079 0.677913 -1.103796
v -2.417807 0.678175 -1.103173
v -2.41854 0.677044 -1.100976
v -2.416418 0.678836 -1.104743
v -2.418295 0.676853 -1.101121
v -2.418772 0.675687 -1.099122
v -2.418454 0.673881 -1.097438
v -2.408043 0.656622 -1.09145
v -2.404815 0.660662 -1.094046
v -2.40477 0.664007 -1.095671
v -2.414221 0.678786 -1.104716
v -2.407232 0.673166 -1.100189
v -2.406139 0.670274 -1.098578
v -2.417542 0.671408 -1.095752
v -2.416295 0.668542 -1.094208
v -2.414973 0.665561 -1.09295
v -2.405265 0.667216 -1.097127
vn -0.0231 0.651 0.7587
vn 0.1694 0.7158 0.6774
vn 0.1921 0.6738 0.7135
vn 0.0211 0.6149 0.7883
vn 0.0392 0.5988 0.7999
vn -0.0155 0.6531 0.7571
vn -0.0534 0.6888 0.7229
vn -0.0218 0.7241 0.6893
vn 0.1328 0.7763 0.6162
vn 0.3699 0.7179 0.5896
vn 0.3631 0.7178 0.594
vn 0.3734 0.6558 0.6561
vn 0.3724 0.6748 0.6371
vn 0.2991 0.779 0.5511
vn 0.3533 0.7583 0.5478
vn 0.3768 0.4847 0.7894
vn 0.3468 0.4732 0.8098
vn 0.354 0.4444 0.8229
vn 0.394 0.4563 0.7978
vn 0.2932 0.4324 0.8527
vn 0.2801 0.4699 0.8371
vn 0.2523 0.5425 0.8013
vn 0.3637 0.5508 0.7512
vn 0.3456 0.5336 0.7719
vn 0.1795 0.451 0.8743
vn 0.1823 0.4203 0.8889
vn 0.2293 0.4232 0.8765
vn 0.2167 0.451 0.8658
vn 0.1735 0.5043 0.8459
vn 0.1424 0.513 0.8465
vn 0.083 0.5745 0.8142
vn 0.2195 0.618 0.7549
vn 0.108 0.5577 0.823
vn 0.362 0.6221 0.6942
vn 0.3567 0.6001 0.7159
vn 0.4205 0.4462 0.79
vn 0.3797 0.4299 0.8191
vn 0.4125 0.4182 0.8093
vn 0.4556 0.397 0.7967
vn 0.3153 0.3631 0.8767
vn 0.2991 0.4145 0.8595
vn 0.1625 0.4022 0.901
vn 0.1583 0.3463 0.9246
vn 0.1893 0.38 0.9054
vn 0.2142 0.4016 0.8904
vn 0.04 -0.6257 -0.779
vn -0.1757 -0.7045 -0.6876
vn -0.1997 -0.659 -0.7252
vn 0.0925 -0.547 -0.832
vn 0.1899 -0.4781 -0.8575
vn 0.1714 -0.4963 -0.851
vn 0.1062 -0.5238 -0.8452
vn -0.0075 -0.6093 -0.7929
vn -0.1921 -0.6739 -0.7134
vn -0.4023 -0.7011 -0.5887
vn -0.5744 -0.6237 -0.53
vn -0.5963 -0.6122 -0.5193
vn -0.4959 -0.6473 -0.5788
vn -0.386 -0.6738 -0.63
vn -0.5206 -0.6307 -0.5754
vn -0.3905 -0.4874 -0.781
vn -0.4822 -0.5035 -0.7169
vn -0.4744 -0.549 -0.6881
vn -0.3766 -0.5524 -0.7436
vn -0.2524 -0.5423 -0.8013
vn -0.2802 -0.4697 -0.8372
vn -0.2932 -0.4323 -0.8527
vn -0.4092 -0.4612 -0.7872
vn -0.5032 -0.5023 -0.7032
vn -0.1639 -0.4487 -0.8785
vn -0.1282 -0.51 -0.8506
vn -0.0265 -0.4726 -0.8809
vn -0.0546 -0.4305 -0.9009
vn -0.0316 -0.422 -0.906
vn -0.1636 -0.4194 -0.8929
vn -0.0694 -0.5707 -0.8182
vn -0.2195 -0.618 -0.7549
vn 0.0342 -0.513 -0.8577
vn -0.3746 -0.6228 -0.6868
vn -0.4859 -0.6017 -0.6339
vn -0.4363 -0.4661 -0.7696
vn -0.535 -0.5332 -0.6553
vn -0.2955 -0.4254 -0.8553
vn -0.2792 -0.4725 -0.8359
vn -0.4742 -0.5322 -0.7013
vn -0.5506 -0.5557 -0.6229
vn -0.1323 -0.4143 -0.9005
vn 0.0315 -0.4368 -0.899
vn 0.0709 -0.4498 -0.8903
vn -0.0407 -0.4582 -0.8879
vn -0.6521 -0.3806 0.6557
vn -0.3278 -0.6327 0.7016
vn -0.754 -0.2791 0.5946
vn -0.5506 -0.5557 -0.6229
vn 0.5165 -0.8114 0.2735
vn 0.8871 -0.4254 0.1787
vn 0.2618 -0.9353 0.238
vn 0.0709 -0.4498 -0.8903
vn 0.7487 0.5874 -0.3072
vn 0.5005 0.7441 -0.4424
vn 0.8712 0.429 -0.2387
vn 0.1899 -0.4781 -0.8575
vn -0.7648 0.5755 -0.2896
vn -0.8465 0.5145 0.1366
vn -0.3953 0.6297 -0.6687
vn -0.5963 -0.6122 -0.5193
vn -0.8672 0.3115 0.3883
vn -0.8536 0.1355 0.503
vn 0.0875 -0.8845 0.4581
vn 0.9935 -0.101 -0.0519
vn 0.9878 0.0175 -0.1546
vn 0.1278 0.7278 -0.6737
vn 0.9313 0.297 -0.2107
vn 0.9547 0.2135 -0.2073
vn -0.8357 -0.0035 0.5491
vn -0.8246 -0.0902 0.5585
vn -0.8078 -0.1745 0.5629
vn 0.9707 0.1293 -0.2027
vt 0.839504 0.118056
vt 0.856743 0.205307
vt 0.741230 0.205307
vt 0.734555 0.106726
vt 0.724541 0.032791
vt 0.813647 0.052618
vt 0.868992 0.081539
vt 0.913398 0.129584
vt 0.940923 0.205307
vt 0.839504 0.292557
vt 0.813647 0.357995
vt 0.724541 0.377822
vt 0.734555 0.303887
vt 0.913398 0.281029
vt 0.868992 0.329074
vt 0.369475 0.299954
vt 0.368286 0.370940
vt 0.245840 0.351447
vt 0.246397 0.288815
vt 0.246768 0.205307
vt 0.370268 0.205307
vt 0.494283 0.205307
vt 0.492822 0.304944
vt 0.490632 0.379672
vt 0.369475 0.110659
vt 0.246397 0.121798
vt 0.245841 0.059166
vt 0.368286 0.039673
vt 0.490632 0.030941
vt 0.492822 0.105669
vt 0.616755 0.103478
vt 0.619174 0.205307
vt 0.613127 0.027106
vt 0.616755 0.307135
vt 0.613126 0.383507
vt 0.123273 0.268175
vt 0.123047 0.315326
vt 0.054743 0.283353
vt 0.030912 0.249131
vt 0.030973 0.205306
vt 0.123423 0.205306
vt 0.123273 0.142438
vt 0.030912 0.161481
vt 0.054744 0.127260
vt 0.123047 0.095287
vt 0.839504 0.118056
vt 0.856743 0.205307
vt 0.968983 0.205307
vt 0.938030 0.133427
vt 0.876123 0.061548
vt 0.805028 0.030806
vt 0.721203 0.008146
vt 0.734555 0.106726
vt 0.741230 0.205307
vt 0.839504 0.292557
vt 0.805028 0.379807
vt 0.876123 0.349065
vt 0.938030 0.277186
vt 0.734555 0.303887
vt 0.721203 0.402467
vt 0.369475 0.299954
vt 0.367890 0.394602
vt 0.489902 0.404581
vt 0.492822 0.304944
vt 0.494283 0.205307
vt 0.370268 0.205307
vt 0.246768 0.205307
vt 0.246397 0.288815
vt 0.245655 0.372324
vt 0.369475 0.110659
vt 0.492822 0.105669
vt 0.489902 0.006032
vt 0.367890 0.016011
vt 0.245655 0.038289
vt 0.246397 0.121798
vt 0.616755 0.103478
vt 0.619174 0.205307
vt 0.611917 0.001649
vt 0.616755 0.307135
vt 0.611917 0.408964
vt 0.123273 0.268175
vt 0.122972 0.331043
vt 0.123423 0.205306
vt 0.000156 0.205306
vt 0.000125 0.242784
vt 0.000064 0.280261
vt 0.123273 0.142438
vt 0.122972 0.079570
vt 0.000064 0.130352
vt 0.000125 0.167829
vt 0.122972 0.331043
vt 0.030806 0.283587
vt 0.245655 0.372324
vt 0.030806 0.283587
vt 0.000125 0.167829
vt 0.030806 0.127026
vt 0.000156 0.205306
vt 0.030806 0.127026
vt 0.805028 0.030806
vt 0.873826 0.071832
vt 0.721203 0.008146
vt 0.873826 0.071832
vt 0.938030 0.277186
vt 0.873826 0.338781
vt 0.968983 0.205307
vt 0.873826 0.338781
vt 0.805028 0.379807
vt 0.721203 0.402467
vt 0.000125 0.242784
vt 0.122972 0.079570
vt 0.245655 0.038289
vt 0.938030 0.133427
vt 0.611917 0.001649
vt 0.489902 0.006032
vt 0.611917 0.408964
vt 0.489902 0.404581
vt 0.367890 0.394602
vt 0.367890 0.016011
f 1/1/1 2/2/2 3/3/3
f 1/1/1 3/3/3 4/4/4
f 1/1/1 4/4/4 5/5/5
f 1/1/1 5/5/5 6/6/6
f 1/1/1 6/6/6 7/7/7
f 1/1/1 7/7/7 8/8/8
f 1/1/1 8/8/8 9/9/9
f 1/1/1 9/9/9 2/2/2
f 10/10/10 11/11/11 12/12/12
f 10/10/10 12/12/12 13/13/13
f 10/10/10 13/13/13 3/3/3
f 10/10/10 3/3/3 2/2/2
f 10/10/10 2/2/2 9/9/9
f 10/10/10 9/9/9 14/14/14
f 10/10/10 14/14/14 15/15/15
f 10/10/10 15/15/15 11/11/11
f 16/16/16 17/17/17 18/18/18
f 16/16/16 18/18/18 19/19/19
f 16/16/16 19/19/19 20/20/20
f 16/16/16 20/20/20 21/21/21
f 16/16/16 21/21/21 22/22/22
f 16/16/16 22/22/22 23/23/23
f 16/16/16 23/23/23 24/24/24
f 16/16/16 24/24/24 17/17/17
f 25/25/25 21/21/21 20/20/20
f 25/25/25 20/20/20 26/26/26
f 25/25/25 26/26/26 27/27/27
f 25/25/25 27/27/27 28/28/28
f 25/25/25 28/28/28 29/29/29
f 25/25/25 29/29/29 30/30/30
f 25/25/25 30/30/30 22/22/22
f 25/25/25 22/22/22 21/21/21
f 31/31/31 32/32/32 22/22/22
f 31/31/31 22/22/22 30/30/30
f 31/31/31 30/30/30 29/29/29
f 31/31/31 29/29/29 33/33/33
f 31/31/31 33/33/33 5/5/5
f 31/31/31 5/5/5 4/4/4
f 31/31/31 4/4/4 3/3/3
f 31/31/31 3/3/3 32/32/32
f 34/34/34 35/35/35 24/24/24
f 34/34/34 24/24/24 23/23/23
f 34/34/34 23/23/23 22/22/22
f 34/34/34 22/22/22 32/32/32
f 34/34/34 32/32/32 3/3/3
f 34/34/34 3/3/3 13/13/13
f 34/34/34 13/13/13 12/12/12
f 34/34/34 12/12/12 35/35/35
f 36/36/36 37/37/37 38/38/38
f 36/36/36 38/38/38 39/39/39
f 36/36/36 39/39/39 40/40/40
f 36/36/36 40/40/40 41/41/41
f 36/36/36 41/41/41 20/20/20
f 36/36/36 20/20/20 19/19/19
f 36/36/36 19/19/19 18/18/18
f 36/36/36 18/18/18 37/37/37
f 42/42/42 41/41/41 40/40/40
f 42/42/42 40/40/40 43/43/43
f 42/42/42 43/43/43 44/44/44
f 42/42/42 44/44/44 45/45/45
f 42/42/42 45/45/45 27/27/27
f 42/42/42 27/27/27 26/26/26
f 42/42/42 26/26/26 20/20/20
f 42/42/42 20/20/20 41/41/41
f 46/46/46 47/47/47 48/48/48
f 46/46/46 48/48/48 49/49/49
f 46/46/46 49/49/49 50/50/50
f 46/46/46 50/50/50 51/51/51
f 46/46/46 51/51/51 52/52/52
f 46/46/46 52/52/52 53/53/53
f 46/46/46 53/53/53 54/54/54
f 46/46/46 54/54/54 47/47/47
f 55/55/55 56/56/56 57/57/57
f 55/55/55 57/57/57 58/58/58
f 55/55/55 58/58/58 48/48/48
f 55/55/55 48/48/48 47/47/47
f 55/55/55 47/47/47 54/54/54
f 55/55/55 54/54/54 59/59/59
f 55/55/55 59/59/59 60/60/60
f 55/55/55 60/60/60 56/56/56
f 61/61/61 62/62/62 63/63/63
f 61/61/61 63/63/63 64/64/64
f 61/61/61 64/64/64 65/65/65
f 61/61/61 65/65/65 66/66/66
f 61/61/61 66/66/66 67/67/67
f 61/61/61 67/67/67 68/68/68
f 61/61/61 68/68/68 69/69/69
f 61/61/61 69/69/69 62/62/62
f 70/70/70 66/66/66 65/65/65
f 70/70/70 65/65/65 71/71/71
f 70/70/70 71/71/71 72/72/72
f 70/70/70 72/72/72 73/73/73
f 70/70/70 73/73/73 74/74/74
f 70/70/70 74/74/74 75/75/75
f 70/70/70 75/75/75 67/67/67
f 70/70/70 67/67/67 66/66/66
f 76/76/76 77/77/77 54/54/54
f 76/76/76 54/54/54 53/53/53
f 76/76/76 53/53/53 52/52/52
f 76/76/76 52/52/52 78/78/78
f 76/76/76 78/78/78 72/72/72
f 76/76/76 72/72/72 71/71/71
f 76/76/76 71/71/71 65/65/65
f 76/76/76 65/65/65 77/77/77
f 79/79/79 80/80/80 60/60/60
f 79/79/79 60/60/60 59/59/59
f 79/79/79 59/59/59 54/54/54
f 79/79/79 54/54/54 77/77/77
f 79/79/79 77/77/77 65/65/65
f 79/79/79 65/65/65 64/64/64
f 79/79/79 64/64/64 63/63/63
f 79/79/79 63/63/63 80/80/80
f 81/81/81 82/82/82 69/69/69
f 81/81/81 69/69/69 68/68/68
f 81/81/81 68/68/68 67/67/67
f 81/81/81 67/67/67 83/83/83
f 81/81/81 83/83/83 84/84/84
f 81/81/81 84/84/84 85/85/85
f 81/81/81 85/85/85 86/86/86
f 81/81/81 86/86/86 82/82/82
f 87/87/87 83/83/83 67/67/67
f 87/87/87 67/67/67 75/75/75
f 87/87/87 75/75/75 74/74/74
f 87/87/87 74/74/74 88/88/88
f 87/87/87 88/88/88 89/89/89
f 87/87/87 89/89/89 90/90/90
f 87/87/87 90/90/90 84/84/84
f 87/87/87 84/84/84 83/83/83
f 91/91/91 92/92/92 38/38/38
f 91/91/91 38/38/38 37/37/37
f 91/91/91 37/37/37 18/18/18
f 91/91/91 18/18/18 93/93/93
f 91/91/91 93/93/93 69/69/69
f 91/91/91 69/69/69 82/82/82
f 91/91/91 82/82/82 94/94/94
f 91/91/91 94/94/94 92/92/92
f 95/95/95 96/96/96 44/44/44
f 95/95/95 44/44/44 43/43/43
f 95/95/95 43/43/43 40/40/40
f 95/95/95 40/40/40 97/97/97
f 95/95/95 97/97/97 84/84/84
f 95/95/95 84/84/84 90/90/90
f 95/95/95 90/90/90 98/98/98
f 95/95/95 98/98/98 96/96/96
f 99/99/99 100/100/100 7/7/7
f 99/99/99 7/7/7 6/6/6
f 99/99/99 6/6/6 5/5/5
f 99/99/99 5/5/5 101/101/101
f 99/99/99 101/101/101 52/52/52
f 99/99/99 52/52/52 51/51/51
f 99/99/99 51/51/51 102/102/102
f 99/99/99 102/102/102 100/100/100
f 103/103/103 104/104/104 15/15/15
f 103/103/103 15/15/15 14/14/14
f 103/103/103 14/14/14 9/9/9
f 103/103/103 9/9/9 105/105/105
f 103/103/103 105/105/105 48/48/48
f 103/103/103 48/48/48 58/58/58
f 103/103/103 58/58/58 106/106/106
f 103/103/103 106/106/106 104/104/104
f 107/107/107 108/108/108 12/12/12
f 107/107/107 12/12/12 11/11/11
f 107/107/107 11/11/11 15/15/15
f 107/107/107 15/15/15 104/104/104
f 107/107/107 104/104/104 106/106/106
f 107/107/107 106/106/106 56/56/56
f 107/107/107 56/56/56 60/60/60
f 107/107/107 60/60/60 108/108/108
f 109/109/109 97/97/97 40/40/40
f 109/109/109 40/40/40 39/39/39
f 109/109/109 39/39/39 38/38/38
f 109/109/109 38/38/38 92/92/92
f 109/109/109 92/92/92 94/94/94
f 109/109/109 94/94/94 85/85/85
f 109/109/109 85/85/85 84/84/84
f 109/109/109 84/84/84 97/97/97
f 110/110/110 111/111/111 27/27/27
f 110/110/110 27/27/27 45/45/45
f 110/110/110 45/45/45 44/44/44
f 110/110/110 44/44/44 96/96/96
f 110/110/110 96/96/96 98/98/98
f 110/110/110 98/98/98 88/88/88
f 110/110/110 88/88/88 74/74/74
f 110/110/110 74/74/74 111/111/111
f 112/112/112 105/105/105 9/9/9
f 112/112/112 9/9/9 8/8/8
f 112/112/112 8/8/8 7/7/7
f 112/112/112 7/7/7 100/100/100
f 112/112/112 100/100/100 102/102/102
f 112/112/112 102/102/102 49/49/49
f 112/112/112 49/49/49 48/48/48
f 112/112/112 48/48/48 105/105/105
f 113/113/113 101/101/101 5/5/5
f 113/113/113 5/5/5 33/33/33
f 113/113/113 33/33/33 29/29/29
f 113/113/113 29/29/29 114/114/114
f 113/113/113 114/114/114 72/72/72
f 113/113/113 72/72/72 78/78/78
f 113/113/113 78/78/78 52/52/52
f 113/113/113 52/52/52 101/101/101
f 115/115/115 116/116/116 24/24/24
f 115/115/115 24/24/24 35/35/35
f 115/115/115 35/35/35 12/12/12
f 115/115/115 12/12/12 108/108/108
f 115/115/115 108/108/108 60/60/60
f 115/115/115 60/60/60 80/80/80
f 115/115/115 80/80/80 63/63/63
f 115/115/115 63/63/63 116/116/116
f 117/117/117 93/93/93 18/18/18
f 117/117/117 18/18/18 17/17/17
f 117/117/117 17/17/17 24/24/24
f 117/117/117 24/24/24 116/116/116
f 117/117/117 116/116/116 63/63/63
f 117/117/117 63/63/63 62/62/62
f 117/117/117 62/62/62 69/69/69
f 117/117/117 69/69/69 93/93/93
f 118/118/118 114/114/114 29/29/29
f 118/118/118 29/29/29 28/28/28
f 118/118/118 28/28/28 27/27/27
f 118/118/118 27/27/27 111/111/111
f 118/118/118 111/111/111 74/74/74
f 118/118/118 74/74/74 73/73/73
f 118/118/118 73/73/73 72/72/72
f 118/118/118 72/72/72 114/114/114
