v -2.400632 0.742523 -1.115537
v -2.402792 0.742384 -1.116146
v -2.402674 0.740445 -1.113871
v -2.400229 0.74077 -1.11347
v -2.398398 0.741086 -1.112924
v -2.399009 0.742579 -1.114672
v -2.399772 0.743297 -1.115929
v -2.400991 0.743669 -1.11708
v -2.40287 0.743726 -1.117881
v -2.404965 0.742169 -1.115615
v -2.406606 0.741958 -1.114809
v -2.407029 0.74038 -1.11308
v -2.405152 0.740367 -1.113559
v -2.404741 0.743362 -1.117148
v -2.405925 0.742794 -1.11604
v -2.40462 0.73315 -1.10761
v -2.406448 0.733117 -1.10743
v -2.405764 0.730407 -1.105819
v -2.404146 0.730431 -1.105992
v -2.402004 0.730523 -1.106104
v -2.402198 0.733259 -1.107724
v -2.402378 0.735865 -1.109523
v -2.404914 0.735765 -1.109387
v -2.406828 0.735751 -1.10917
v -2.399796 0.733544 -1.107523
v -2.39988 0.73078 -1.105915
v -2.398287 0.731018 -1.105684
v -2.397994 0.733808 -1.107277
v -2.397985 0.736474 -1.109011
v -2.399867 0.736177 -1.109295
v -2.399992 0.73862 -1.111334
v -2.402537 0.738266 -1.111618
v -2.398088 0.738975 -1.110965
v -2.405113 0.738201 -1.111426
v -2.407062 0.738242 -1.111127
v -2.403405 0.727682 -1.104429
v -2.404617 0.727688 -1.104253
v -2.40367 0.726147 -1.103469
v -2.40275 0.725593 -1.103302
v -2.40165 0.725603 -1.10343
v -2.401803 0.727732 -1.104548
v -2.400221 0.727942 -1.104371
v -2.400568 0.725771 -1.103263
v -2.399744 0.726467 -1.103398
v -2.399033 0.728144 -1.104152
v -2.400583 0.742356 -1.115694
v -2.402775 0.742212 -1.116305
v -2.402857 0.743595 -1.117997
v -2.400953 0.743541 -1.117195
v -2.399737 0.743204 -1.116014
v -2.398955 0.742456 -1.114788
v -2.398349 0.740967 -1.113046
v -2.400183 0.740608 -1.113635
v -2.402658 0.740279 -1.114036
v -2.40498 0.741996 -1.115774
v -2.406635 0.741829 -1.114927
v -2.405942 0.742697 -1.116127
v -2.404755 0.74323 -1.117263
v -2.405165 0.740201 -1.113725
v -2.407053 0.740256 -1.113203
v -2.404627 0.733017 -1.107805
v -2.406463 0.733017 -1.107575
v -2.406844 0.735643 -1.10931
v -2.404921 0.735621 -1.109573
v -2.402363 0.735722 -1.10971
v -2.402184 0.733127 -1.107919
v -2.40199 0.730399 -1.106305
v -2.404154 0.730305 -1.106192
v -2.40578 0.730313 -1.105969
v -2.39976 0.733415 -1.107717
v -2.39983 0.736037 -1.109481
v -2.397946 0.73637 -1.109149
v -2.397958 0.733712 -1.107422
v -2.398251 0.730928 -1.105833
v -2.399845 0.730658 -1.106114
v -2.399951 0.738468 -1.111509
v -2.402521 0.738111 -1.111794
v -2.398045 0.738864 -1.111095
v -2.405123 0.738046 -1.111602
v -2.407082 0.738125 -1.111258
v -2.403414 0.727559 -1.104631
v -2.404634 0.727596 -1.104404
v -2.40179 0.727611 -1.104751
v -2.40164 0.725513 -1.103582
v -2.402757 0.725501 -1.103454
v -2.403681 0.726079 -1.103581
v -2.400185 0.727823 -1.104572
v -2.398995 0.728056 -1.104302
v -2.399719 0.726402 -1.103509
v -2.40054 0.725683 -1.103414
v -2.405031 0.727649 -1.104261
v -2.403634 0.725596 -1.103171
v -2.406312 0.730357 -1.105828
v -2.403681 0.726079 -1.103581
v -2.400671 0.725009 -1.10296
v -2.399701 0.725917 -1.1031
v -2.401594 0.724853 -1.103125
v -2.399719 0.726402 -1.103509
v -2.39844 0.742544 -1.114435
v -2.399528 0.743436 -1.115993
v -2.397763 0.741139 -1.112796
v -2.399737 0.743204 -1.116014
v -2.404673 0.743701 -1.117709
v -2.406185 0.742892 -1.116113
v -2.40289 0.744115 -1.11851
v -2.405942 0.742697 -1.116127
v -2.40717 0.74183 -1.114593
v -2.407668 0.74033 -1.112975
v -2.402535 0.724856 -1.102994
v -2.398618 0.728173 -1.104146
v -2.397738 0.731058 -1.105673
v -2.401093 0.743993 -1.117645
v -2.397431 0.739045 -1.110899
v -2.397338 0.736527 -1.108977
v -2.407723 0.738204 -1.111085
v -2.407476 0.735699 -1.10916
v -2.407066 0.733062 -1.107434
v -2.397375 0.733854 -1.107259
vn -0.2875 0.7196 0.632
vn -0.0743 0.7689 0.6351
vn -0.0719 0.7295 0.6801
vn -0.2625 0.6847 0.6799
vn -0.2521 0.6691 0.6991
vn -0.2796 0.7213 0.6336
vn -0.2971 0.7551 0.5844
vn -0.2519 0.7857 0.5649
vn -0.0775 0.8248 0.5601
vn 0.144 0.7549 0.6399
vn 0.136 0.7552 0.6412
vn 0.115 0.699 0.7058
vn 0.1233 0.7162 0.6868
vn 0.1006 0.8147 0.5711
vn 0.1494 0.7917 0.5924
vn 0.0497 0.5412 0.8394
vn 0.0131 0.5328 0.8461
vn 0.0121 0.5051 0.863
vn 0.0596 0.5131 0.8563
vn -0.0563 0.4984 0.8651
vn -0.0589 0.5347 0.843
vn -0.0637 0.6047 0.7938
vn 0.0586 0.6039 0.7949
vn 0.0324 0.5895 0.8071
vn -0.1669 0.5235 0.8355
vn -0.1728 0.4941 0.852
vn -0.1249 0.494 0.8604
vn -0.1298 0.5212 0.8435
vn -0.1567 0.574 0.8037
vn -0.1844 0.584 0.7905
vn -0.2202 0.6445 0.7322
vn -0.0685 0.6768 0.733
vn -0.2024 0.6276 0.7517
vn 0.0862 0.6696 0.7377
vn 0.0707 0.65 0.7566
vn 0.0861 0.5012 0.861
vn 0.0357 0.4893 0.8714
vn 0.0687 0.4754 0.877
vn 0.1115 0.4515 0.8853
vn -0.0515 0.4308 0.9009
vn -0.0551 0.481 0.875
vn -0.1971 0.4781 0.8559
vn -0.215 0.4248 0.8794
vn -0.1765 0.4554 0.8726
vn -0.146 0.4745 0.868
vn 0.3132 -0.697 -0.6451
vn 0.0736 -0.7583 -0.6477
vn 0.071 -0.7156 -0.6948
vn 0.3887 -0.6257 -0.6763
vn 0.4926 -0.5634 -0.6632
vn 0.4717 -0.5803 -0.6638
vn 0.4084 -0.6045 -0.6839
vn 0.2771 -0.6801 -0.6787
vn 0.0719 -0.7296 -0.6801
vn -0.1725 -0.7367 -0.6538
vn -0.3473 -0.6472 -0.6786
vn -0.3705 -0.6341 -0.6787
vn -0.2574 -0.6785 -0.6879
vn -0.1385 -0.7141 -0.6862
vn -0.2801 -0.6607 -0.6964
vn -0.0658 -0.5425 -0.8374
vn -0.1768 -0.5489 -0.817
vn -0.1852 -0.5918 -0.7845
vn -0.0736 -0.6042 -0.7934
vn 0.0638 -0.6046 -0.794
vn 0.0589 -0.5346 -0.843
vn 0.0563 -0.4983 -0.8651
vn -0.0782 -0.5164 -0.8527
vn -0.2015 -0.5456 -0.8134
vn 0.183 -0.5222 -0.8329
vn 0.1992 -0.5819 -0.7884
vn 0.3068 -0.5516 -0.7756
vn 0.2927 -0.5106 -0.8084
vn 0.3163 -0.5035 -0.804
vn 0.1915 -0.4943 -0.8479
vn 0.2344 -0.6417 -0.7303
vn 0.0685 -0.6768 -0.733
vn 0.3491 -0.5921 -0.7263
vn -0.1008 -0.6691 -0.7363
vn -0.2221 -0.6388 -0.7366
vn -0.1104 -0.5185 -0.8479
vn -0.2524 -0.5706 -0.7814
vn 0.0558 -0.4916 -0.869
vn 0.059 -0.5373 -0.8413
vn -0.1782 -0.5763 -0.7976
vn -0.2817 -0.5893 -0.7572
vn 0.2234 -0.4912 -0.8419
vn 0.3696 -0.5199 -0.7701
vn 0.4007 -0.5336 -0.7448
vn 0.2978 -0.5375 -0.7889
vn -0.8922 -0.2916 0.3449
vn -0.6366 -0.5506 0.5399
vn -0.9515 -0.1923 0.24
vn -0.2817 -0.5893 -0.7572
vn 0.2926 -0.8023 0.5202
vn 0.6974 -0.4419 0.5642
vn 0.0678 -0.9186 0.3893
vn 0.4007 -0.5336 -0.7448
vn 0.8507 0.5255 -0.0026
vn 0.6937 0.6789 -0.2405
vn 0.9211 0.3699 0.1213
vn 0.4926 -0.5634 -0.6632
vn -0.5292 0.5758 -0.6232
vn -0.7855 0.5581 -0.2674
vn -0.0325 0.5795 -0.8143
vn -0.3705 -0.6341 -0.6787
vn -0.9241 0.3806 -0.0345
vn -0.9727 0.2152 0.0872
vn -0.1773 -0.8406 0.5117
vn 0.9146 -0.1442 0.3777
vn 0.9608 -0.0366 0.2747
vn 0.4509 0.6559 -0.6053
vn 0.954 0.2391 0.1808
vn 0.9675 0.1552 0.1998
vn -0.986 0.0808 0.1456
vn -0.9864 -0.0041 0.1641
vn -0.9795 -0.0885 0.181
vn 0.9737 0.0707 0.2166
vt 0.839504 0.118056
vt 0.856743 0.205307
vt 0.741230 0.205307
vt 0.734555 0.106726
vt 0.724541 0.032791
vt 0.813647 0.052618
vt 0.868992 0.081539
vt 0.913398 0.129584
vt 0.940923 0.205307
vt 0.839504 0.292557
vt 0.813647 0.357995
vt 0.724541 0.377822
vt 0.734555 0.303887
vt 0.913398 0.281029
vt 0.868992 0.329074
vt 0.369475 0.299954
vt 0.368286 0.370940
vt 0.245840 0.351447
vt 0.246397 0.288815
vt 0.246768 0.205307
vt 0.370268 0.205307
vt 0.494283 0.205307
vt 0.492822 0.304944
vt 0.490632 0.379672
vt 0.369475 0.110659
vt 0.246397 0.121798
vt 0.245841 0.059166
vt 0.368286 0.039673
vt 0.490632 0.030941
vt 0.492822 0.105669
vt 0.616755 0.103478
vt 0.619174 0.205307
vt 0.613127 0.027106
vt 0.616755 0.307135
vt 0.613126 0.383507
vt 0.123273 0.268175
vt 0.123047 0.315326
vt 0.054743 0.283353
vt 0.030912 0.249131
vt 0.030973 0.205306
vt 0.123423 0.205306
vt 0.123273 0.142438
vt 0.030912 0.161481
vt 0.054744 0.127260
vt 0.123047 0.095287
vt 0.839504 0.118056
vt 0.856743 0.205307
vt 0.968983 0.205307
vt 0.938030 0.133427
vt 0.876123 0.061548
vt 0.805028 0.030806
vt 0.721203 0.008146
vt 0.734555 0.106726
vt 0.741230 0.205307
vt 0.839504 0.292557
vt 0.805028 0.379807
vt 0.876123 0.349065
vt 0.938030 0.277186
vt 0.734555 0.303887
vt 0.721203 0.402467
vt 0.369475 0.299954
vt 0.367890 0.394602
vt 0.489902 0.404581
vt 0.492822 0.304944
vt 0.494283 0.205307
vt 0.370268 0.205307
vt 0.246768 0.205307
vt 0.246397 0.288815
vt 0.245655 0.372324
vt 0.369475 0.110659
vt 0.492822 0.105669
vt 0.489902 0.006032
vt 0.367890 0.016011
vt 0.245655 0.038289
vt 0.246397 0.121798
vt 0.616755 0.103478
vt 0.619174 0.205307
vt 0.611917 0.001649
vt 0.616755 0.307135
vt 0.611917 0.408964
vt 0.123273 0.268175
vt 0.122972 0.331043
vt 0.123423 0.205306
vt 0.000156 0.205306
vt 0.000125 0.242784
vt 0.000064 0.280261
vt 0.123273 0.142438
vt 0.122972 0.079570
vt 0.000064 0.130352
vt 0.000125 0.167829
vt 0.122972 0.331043
vt 0.030806 0.283587
vt 0.245655 0.372324
vt 0.030806 0.283587
vt 0.000125 0.167829
vt 0.030806 0.127026
vt 0.000156 0.205306
vt 0.030806 0.127026
vt 0.805028 0.030806
vt 0.873826 0.071832
vt 0.721203 0.008146
vt 0.873826 0.071832
vt 0.938030 0.277186
vt 0.873826 0.338781
vt 0.968983 0.205307
vt 0.873826 0.338781
vt 0.805028 0.379807
vt 0.721203 0.402467
vt 0.000125 0.242784
vt 0.122972 0.079570
vt 0.245655 0.038289
vt 0.938030 0.133427
vt 0.611917 0.001649
vt 0.489902 0.006032
vt 0.611917 0.408964
vt 0.489902 0.404581
vt 0.367890 0.394602
vt 0.367890 0.016011
f 1/1/1 2/2/2 3/3/3
f 1/1/1 3/3/3 4/4/4
f 1/1/1 4/4/4 5/5/5
f 1/1/1 5/5/5 6/6/6
f 1/1/1 6/6/6 7/7/7
f 1/1/1 7/7/7 8/8/8
f 1/1/1 8/8/8 9/9/9
f 1/1/1 9/9/9 2/2/2
f 10/10/10 11/11/11 12/12/12
f 10/10/10 12/12/12 13/13/13
f 10/10/10 13/13/13 3/3/3
f 10/10/10 3/3/3 2/2/2
f 10/10/10 2/2/2 9/9/9
f 10/10/10 9/9/9 14/14/14
f 10/10/10 14/14/14 15/15/15
f 10/10/10 15/15/15 11/11/11
f 16/16/16 17/17/17 18/18/18
f 16/16/16 18/18/18 19/19/19
f 16/16/16 19/19/19 20/20/20
f 16/16/16 20/20/20 21/21/21
f 16/16/16 21/21/21 22/22/22
f 16/16/16 22/22/22 23/23/23
f 16/16/16 23/23/23 24/24/24
f 16/16/16 24/24/24 17/17/17
f 25/25/25 21/21/21 20/20/20
f 25/25/25 20/20/20 26/26/26
f 25/25/25 26/26/26 27/27/27
f 25/25/25 27/27/27 28/28/28
f 25/25/25 28/28/28 29/29/29
f 25/25/25 29/29/29 30/30/30
f 25/25/25 30/30/30 22/22/22
f 25/25/25 22/22/22 21/21/21
f 31/31/31 32/32/32 22/22/22
f 31/31/31 22/22/22 30/30/30
f 31/31/31 30/30/30 29/29/29
f 31/31/31 29/29/29 33/33/33
f 31/31/31 33/33/33 5/5/5
f 31/31/31 5/5/5 4/4/4
f 31/31/31 4/4/4 3/3/3
f 31/31/31 3/3/3 32/32/32
f 34/34/34 35/35/35 24/24/24
f 34/34/34 24/24/24 23/23/23
f 34/34/34 23/23/23 22/22/22
f 34/34/34 22/22/22 32/32/32
f 34/34/34 32/32/32 3/3/3
f 34/34/34 3/3/3 13/13/13
f 34/34/34 13/13/13 12/12/12
f 34/34/34 12/12/12 35/35/35
f 36/36/36 37/37/37 38/38/38
f 36/36/36 38/38/38 39/39/39
f 36/36/36 39/39/39 40/40/40
f 36/36/36 40/40/40 41/41/41
f 36/36/36 41/41/41 20/20/20
f 36/36/36 20/20/20 19/19/19
f 36/36/36 19/19/19 18/18/18
f 36/36/36 18/18/18 37/37/37
f 42/42/42 41/41/41 40/40/40
f 42/42/42 40/40/40 43/43/43
f 42/42/42 43/43/43 44/44/44
f 42/42/42 44/44/44 45/45/45
f 42/42/42 45/45/45 27/27/27
f 42/42/42 27/27/27 26/26/26
f 42/42/42 26/26/26 20/20/20
f 42/42/42 20/20/20 41/41/41
f 46/46/46 47/47/47 48/48/48
f 46/46/46 48/48/48 49/49/49
f 46/46/46 49/49/49 50/50/50
f 46/46/46 50/50/50 51/51/51
f 46/46/46 51/51/51 52/52/52
f 46/46/46 52/52/52 53/53/53
f 46/46/46 53/53/53 54/54/54
f 46/46/46 54/54/54 47/47/47
f 55/55/55 56/56/56 57/57/57
f 55/55/55 57/57/57 58/58/58
f 55/55/55 58/58/58 48/48/48
f 55/55/55 48/48/48 47/47/47
f 55/55/55 47/47/47 54/54/54
f 55/55/55 54/54/54 59/59/59
f 55/55/55 59/59/59 60/60/60
f 55/55/55 60/60/60 56/56/56
f 61/61/61 62/62/62 63/63/63
f 61/61/61 63/63/63 64/64/64
f 61/61/61 64/64/64 65/65/65
f 61/61/61 65/65/65 66/66/66
f 61/61/61 66/66/66 67/67/67
f 61/61/61 67/67/67 68/68/68
f 61/61/61 68/68/68 69/69/69
f 61/61/61 69/69/69 62/62/62
f 70/70/70 66/66/66 65/65/65
f 70/70/70 65/65/65 71/71/71
f 70/70/70 71/71/71 72/72/72
f 70/70/70 72/72/72 73/73/73
f 70/70/70 73/73/73 74/74/74
f 70/70/70 74/74/74 75/75/75
f 70/70/70 75/75/75 67/67/67
f 70/70/70 67/67/67 66/66/66
f 76/76/76 77/77/77 54/54/54
f 76/76/76 54/54/54 53/53/53
f 76/76/76 53/53/53 52/52/52
f 76/76/76 52/52/52 78/78/78
f 76/76/76 78/78/78 72/72/72
f 76/76/76 72/72/72 71/71/71
f 76/76/76 71/71/71 65/65/65
f 76/76/76 65/65/65 77/77/77
f 79/79/79 80/80/80 60/60/60
f 79/79/79 60/60/60 59/59/59
f 79/79/79 59/59/59 54/54/54
f 79/79/79 54/54/54 77/77/77
f 79/79/79 77/77/77 65/65/65
f 79/79/79 65/65/65 64/64/64
f 79/79/79 64/64/64 63/63/63
f 79/79/79 63/63/63 80/80/80
f 81/81/81 82/82/82 69/69/69
f 81/81/81 69/69/69 68/68/68
f 81/81/81 68/68/68 67/67/67
f 81/81/81 67/67/67 83/83/83
f 81/81/81 83/83/83 84/84/84
f 81/81/81 84/84/84 85/85/85
f 81/81/81 85/85/85 86/86/86
f 81/81/81 86/86/86 82/82/82
f 87/87/87 83/83/83 67/67/67
f 87/87/87 67/67/67 75/75/75
f 87/87/87 75/75/75 74/74/74
f 87/87/87 74/74/74 88/88/88
f 87/87/87 88/88/88 89/89/89
f 87/87/87 89/89/89 90/90/90
f 87/87/87 90/90/90 84/84/84
f 87/87/87 84/84/84 83/83/83
f 91/91/91 92/92/92 38/38/38
f 91/91/91 38/38/38 37/37/37
f 91/91/91 37/37/37 18/18/18
f 91/91/91 18/18/18 93/93/93
f 91/91/91 93/93/93 69/69/69
f 91/91/91 69/69/69 82/82/82
f 91/91/91 82/82/82 94/94/94
f 91/91/91 94/94/94 92/92/92
f 95/95/95 96/96/96 44/44/44
f 95/95/95 44/44/44 43/43/43
f 95/95/95 43/43/43 40/40/40
f 95/95/95 40/40/40 97/97/97
f 95/95/95 97/97/97 84/84/84
f 95/95/95 84/84/84 90/90/90
f 95/95/95 90/90/90 98/98/98
f 95/95/95 98/98/98 96/96/96
f 99/99/99 100/100/100 7/7/7
f 99/99/99 7/7/7 6/6/6
f 99/99/99 6/6/6 5/5/5
f 99/99/99 5/5/5 101/101/101
f 99/99/99 101/101/101 52/52/52
f 99/99/99 52/52/52 51/51/51
f 99/99/99 51/51/51 102/102/102
f 99/99/99 102/102/102 100/100/100
f 103/103/103 104/104/104 15/15/15
f 103/103/103 15/15/15 14/14/14
f 103/103/103 14/14/14 9/9/9
f 103/103/103 9/9/9 105/105/105
f 103/103/103 105/105/105 48/48/48
f 103/103/103 48/48/48 58/58/58
f 103/103/103 58/58/58 106/106/106
f 103/103/103 106/106/106 104/104/104
f 107/107/107 108/108/108 12/12/12
f 107/107/107 12/12/12 11/11/11
f 107/107/107 11/11/11 15/15/15
f 107/107/107 15/15/15 104/104/104
f 107/107/107 104/104/104 106/106/106
f 107/107/107 106/106/106 56/56/56
f 107/107/107 56/56/56 60/60/60
f 107/107/107 60/60/60 108/108/108
f 109/109/109 97/97/97 40/40/40
f 109/109/109 40/40/40 39/39/39
f 109/109/109 39/39/39 38/38/38
f 109/109/109 38/38/38 92/92/92
f 109/109/109 92/92/92 94/94/94
f 109/109/109 94/94/94 85/85/85
f 109/109/109 85/85/85 84/84/84
f 109/109/109 84/84/84 97/97/97
f 110/110/110 111/111/111 27/27/27
f 110/110/110 27/27/27 45/45/45
f 110/110/110 45/45/45 44/44/44
f 110/110/110 44/44/44 96/96/96
f 110/110/110 96/96/96 98/98/98
f 110/110/110 98/98/98 88/88/88
f 110/110/110 88/88/88 74/74/74
f 110/110/110 74/74/74 111/111/111
f 112/112/112 105/105/105 9/9/9
f 112/112/112 9/9/9 8/8/8
f 112/112/112 8/8/8 7/7/7
f 112/112/112 7/7/7 100/100/100
f 112/112/112 100/100/100 102/102/102
f 112/112/112 102/102/102 49/49/49
f 112/112/112 49/49/49 48/48/48
f 112/112/112 48/48/48 105/105/105
f 113/113/113 101/101/101 5/5/5
f 113/113/113 5/5/5 33/33/33
f 113/113/113 33/33/33 29/29/29
f 113/113/113 29/29/29 114/114/114
f 113/113/113 114/114/114 72/72/72
f 113/113/113 72/72/72 78/78/78
f 113/113/113 78/78/78 52/52/52
f 113/113/113 52/52/52 101/101/101
f 115/115/115 116/116/116 24/24/24
f 115/115/115 24/24/24 35/35/35
f 115/115/115 35/35/35 12/12/12
f 115/115/115 12/12/12 108/108/108
f 115/115/115 108/108/108 60/60/60
f 115/115/115 60/60/60 80/80/80
f 115/115/115 80/80/80 63/63/63
f 115/115/115 63/63/63 116/116/116
f 117/117/117 93/93/93 18/18/18
f 117/117/117 18/18/18 17/17/17
f 117/117/117 17/17/17 24/24/24
f 117/117/117 24/24/24 116/116/116
f 117/117/117 116/116/116 63/63/63
f 117/117/117 63/63/63 62/62/62
f 117/117/117 62/62/62 69/69/69
f 117/117/117 69/69/69 93/93/93
f 118/118/118 114/114/114 29/29/29
f 118/118/118 29/29/29 28/28/28
f 118/118/118 28/28/28 27/27/27
f 118/118/118 27/27/27 111/111/111
f 118/118/118 111/111/111 74/74/74
f 118/118/118 74/74/74 73/73/73
f 118/118/118 73/73/73 72/72/72
f 118/118/118 72/72/72 114/114/114
