v -2.372888 0.699623 -1.132855
v -2.371258 0.699628 -1.131616
v -2.370354 0.698142 -1.133716
v -2.372318 0.698252 -1.134864
v -2.373717 0.69843 -1.135926
v -2.373975 0.699623 -1.134134
v -2.373841 0.700192 -1.132761
v -2.373244 0.700504 -1.131349
v -2.371938 0.700637 -1.130029
v -2.36923 0.6997 -1.131336
v -2.367558 0.699759 -1.13147
v -2.366428 0.698584 -1.1329
v -2.36816 0.69834 -1.133138
v -2.370077 0.700571 -1.130034
v -2.368645 0.700302 -1.130604
v -2.365707 0.692504 -1.138866
v -2.364109 0.692667 -1.138396
v -2.3638 0.690356 -1.140188
v -2.365218 0.690206 -1.140593
v -2.367066 0.690076 -1.141224
v -2.367793 0.692362 -1.139589
v -2.368574 0.694509 -1.137818
v -2.366387 0.694672 -1.137075
v -2.364707 0.694865 -1.136604
v -2.369781 0.692418 -1.140558
v -2.368821 0.69013 -1.142089
v -2.370114 0.690223 -1.142809
v -2.371248 0.692515 -1.14136
v -2.372174 0.694706 -1.139705
v -2.370649 0.694582 -1.138845
v -2.371533 0.696549 -1.136904
v -2.369444 0.696436 -1.135822
v -2.373057 0.696734 -1.137838
v -2.367208 0.696641 -1.135108
v -2.365479 0.696895 -1.134692
v -2.364967 0.68785 -1.142368
v -2.363893 0.687989 -1.142101
v -2.364228 0.686608 -1.1432
v -2.364874 0.686044 -1.143696
v -2.365841 0.685935 -1.143963
v -2.366358 0.687731 -1.14281
v -2.367656 0.687793 -1.143484
v -2.366717 0.686005 -1.144461
v -2.367544 0.686538 -1.144576
v -2.368608 0.687889 -1.144059
v -2.372959 0.699449 -1.132753
v -2.371302 0.699453 -1.131501
v -2.37197 0.700504 -1.129945
v -2.373298 0.700372 -1.131275
v -2.373887 0.700095 -1.132709
v -2.374041 0.699494 -1.134063
v -2.373782 0.698304 -1.135848
v -2.372389 0.698083 -1.134753
v -2.370401 0.697972 -1.133595
v -2.369246 0.699528 -1.131211
v -2.367557 0.699631 -1.131371
v -2.368647 0.700206 -1.130533
v -2.370087 0.70044 -1.129942
v -2.368182 0.698172 -1.133006
v -2.366433 0.69846 -1.132797
v -2.365748 0.692362 -1.13871
v -2.364131 0.692561 -1.138276
v -2.364724 0.694753 -1.13649
v -2.366424 0.694522 -1.136926
v -2.368629 0.694358 -1.137677
v -2.367852 0.692219 -1.13944
v -2.367128 0.689939 -1.141069
v -2.365261 0.690071 -1.140432
v -2.363823 0.690255 -1.140064
v -2.369858 0.692275 -1.140416
v -2.370723 0.694431 -1.138711
v -2.372239 0.694593 -1.139609
v -2.371314 0.692409 -1.141258
v -2.370181 0.690121 -1.142704
v -2.3689 0.689993 -1.141942
v -2.371605 0.696389 -1.136781
v -2.369495 0.696274 -1.135691
v -2.373122 0.696615 -1.137751
v -2.367238 0.696481 -1.134968
v -2.36549 0.696776 -1.134583
v -2.36501 0.687717 -1.142204
v -2.363915 0.68789 -1.141975
v -2.36642 0.687597 -1.142654
v -2.365888 0.685835 -1.143845
v -2.364906 0.685944 -1.143572
v -2.364248 0.686534 -1.143107
v -2.367737 0.687659 -1.143336
v -2.368678 0.687789 -1.143952
v -2.367593 0.686463 -1.144496
v -2.366778 0.685905 -1.14435
v -2.363543 0.687992 -1.141956
v -2.364089 0.686144 -1.143504
v -2.363335 0.690362 -1.139997
v -2.364248 0.686534 -1.143107
v -2.366431 0.685364 -1.144737
v -2.36741 0.686074 -1.144883
v -2.36569 0.685291 -1.144295
v -2.367593 0.686463 -1.144496
v -2.374369 0.699566 -1.13453
v -2.374085 0.700286 -1.132781
v -2.374215 0.698433 -1.136246
v -2.373887 0.700095 -1.132709
v -2.370364 0.700803 -1.129559
v -2.368463 0.700405 -1.130447
v -2.372179 0.700914 -1.129463
v -2.368647 0.700206 -1.130533
v -2.366997 0.699722 -1.131469
v -2.36585 0.69861 -1.132773
v -2.364857 0.685398 -1.144083
v -2.368958 0.687877 -1.144204
v -2.370577 0.690208 -1.143003
v -2.373387 0.700739 -1.130814
v -2.373596 0.696743 -1.138112
v -2.372713 0.694698 -1.13995
v -2.364905 0.696927 -1.134504
v -2.364152 0.694879 -1.136396
v -2.363584 0.692674 -1.138185
v -2.371768 0.692501 -1.141583
vn 0.3902 0.8209 -0.4169
vn 0.1877 0.848 -0.4955
vn 0.2075 0.8148 -0.5413
vn 0.3894 0.7901 -0.4733
vn 0.389 0.7761 -0.4963
vn 0.3833 0.822 -0.4211
vn 0.3767 0.8508 -0.3663
vn 0.3236 0.8739 -0.3627
vn 0.1556 0.8938 -0.4206
vn -0.0096 0.8124 -0.5829
vn -0.002 0.8138 -0.5811
vn 0.0488 0.7689 -0.6374
vn 0.032 0.7825 -0.6218
vn -0.003 0.867 -0.4983
vn -0.0371 0.842 -0.5381
vn 0.1799 0.6371 -0.7494
vn 0.2172 0.6335 -0.7426
vn 0.2281 0.6086 -0.76
vn 0.1809 0.6106 -0.771
vn 0.293 0.6092 -0.7369
vn 0.2822 0.6424 -0.7125
vn 0.2589 0.7056 -0.6596
vn 0.1466 0.6923 -0.7065
vn 0.1773 0.6823 -0.7092
vn 0.3807 0.6414 -0.6661
vn 0.3962 0.6152 -0.6815
vn 0.3552 0.6111 -0.7073
vn 0.3497 0.6363 -0.6876
vn 0.3524 0.6861 -0.6364
vn 0.3718 0.6971 -0.613
vn 0.375 0.7529 -0.5408
vn 0.231 0.7693 -0.5957
vn 0.3681 0.7369 -0.5669
vn 0.0911 0.7469 -0.6586
vn 0.1151 0.7316 -0.672
vn 0.1599 0.5968 -0.7863
vn 0.2117 0.5916 -0.7779
vn 0.1856 0.5752 -0.7967
vn 0.1525 0.5482 -0.8223
vn 0.3111 0.5467 -0.7774
vn 0.298 0.5931 -0.7479
vn 0.4224 0.6024 -0.6773
vn 0.4548 0.5547 -0.6967
vn 0.4125 0.5801 -0.7024
vn 0.3801 0.5951 -0.708
vn -0.4218 -0.8029 0.4212
vn -0.1932 -0.8392 0.5083
vn -0.214 -0.8029 0.5564
vn -0.5128 -0.7444 0.4276
vn -0.6127 -0.6921 0.3815
vn -0.5912 -0.7067 0.3885
vn -0.5368 -0.7264 0.4291
vn -0.4031 -0.7869 0.4671
vn -0.2074 -0.8149 0.5412
vn 0.0283 -0.7934 0.608
vn 0.1675 -0.6905 0.7037
vn 0.1871 -0.675 0.7136
vn 0.0859 -0.7317 0.6762
vn -0.018 -0.7788 0.627
vn 0.101 -0.7129 0.6939
vn -0.1642 -0.6366 0.7535
vn -0.0536 -0.6288 0.7757
vn -0.028 -0.666 0.7454
vn -0.1322 -0.6909 0.7107
vn -0.2589 -0.7055 0.6597
vn -0.2822 -0.6423 0.7126
vn -0.293 -0.6091 0.737
vn -0.162 -0.6115 0.7744
vn -0.03 -0.6226 0.7819
vn -0.3947 -0.6415 0.6578
vn -0.385 -0.6963 0.6057
vn -0.4838 -0.6757 0.5561
vn -0.4887 -0.638 0.595
vn -0.5099 -0.6327 0.5827
vn -0.4119 -0.6168 0.6707
vn -0.3879 -0.7513 0.5339
vn -0.231 -0.7693 0.5957
vn -0.4993 -0.7136 0.4914
vn -0.0773 -0.7447 0.6629
vn 0.03 -0.7024 0.7112
vn -0.1303 -0.6097 0.7818
vn 0.0322 -0.6379 0.7694
vn -0.295 -0.6029 0.7413
vn -0.2814 -0.6447 0.7107
vn -0.0414 -0.6532 0.756
vn 0.0706 -0.6502 0.7564
vn -0.4396 -0.6162 0.6534
vn -0.5443 -0.6502 0.53
vn -0.5618 -0.6637 0.4938
vn -0.4824 -0.6626 0.5728
vn 0.9885 -0.1507 -0.0077
vn 0.8606 -0.4079 -0.305
vn 0.991 -0.0603 0.1196
vn 0.0706 -0.6502 0.7564
vn 0.0323 -0.7538 -0.6562
vn -0.3756 -0.4344 -0.8187
vn 0.2092 -0.8626 -0.4606
vn -0.5618 -0.6637 0.4938
vn -0.8602 0.4308 -0.2728
vn -0.8234 0.5671 0.0181
vn -0.8581 0.2866 -0.426
vn -0.6127 -0.6921 0.3815
vn 0.1803 0.5417 0.821
vn 0.5472 0.5965 0.5871
vn -0.3469 0.4696 0.8118
vn 0.1871 -0.675 0.7136
vn 0.7839 0.4661 0.4101
vn 0.8965 0.3239 0.3024
vn 0.4689 -0.7447 -0.4748
vn -0.6858 -0.187 -0.7034
vn -0.7812 -0.0983 -0.6164
vn -0.728 0.5224 0.444
vn -0.8482 0.1619 -0.5042
vn -0.8417 0.08 -0.5339
vn 0.9496 0.1996 0.2418
vn 0.9689 0.118 0.2176
vn 0.9806 0.0366 0.1926
vn -0.8293 -0.0015 -0.5587
vt 0.839504 0.118056
vt 0.856743 0.205307
vt 0.741230 0.205307
vt 0.734555 0.106726
vt 0.724541 0.032791
vt 0.813647 0.052618
vt 0.868992 0.081539
vt 0.913398 0.129584
vt 0.940923 0.205307
vt 0.839504 0.292557
vt 0.813647 0.357995
vt 0.724541 0.377822
vt 0.734555 0.303887
vt 0.913398 0.281029
vt 0.868992 0.329074
vt 0.369475 0.299954
vt 0.368286 0.370940
vt 0.245840 0.351447
vt 0.246397 0.288815
vt 0.246768 0.205307
vt 0.370268 0.205307
vt 0.494283 0.205307
vt 0.492822 0.304944
vt 0.490632 0.379672
vt 0.369475 0.110659
vt 0.246397 0.121798
vt 0.245841 0.059166
vt 0.368286 0.039673
vt 0.490632 0.030941
vt 0.492822 0.105669
vt 0.616755 0.103478
vt 0.619174 0.205307
vt 0.613127 0.027106
vt 0.616755 0.307135
vt 0.613126 0.383507
vt 0.123273 0.268175
vt 0.123047 0.315326
vt 0.054743 0.283353
vt 0.030912 0.249131
vt 0.030973 0.205306
vt 0.123423 0.205306
vt 0.123273 0.142438
vt 0.030912 0.161481
vt 0.054744 0.127260
vt 0.123047 0.095287
vt 0.839504 0.118056
vt 0.856743 0.205307
vt 0.968983 0.205307
vt 0.938030 0.133427
vt 0.876123 0.061548
vt 0.805028 0.030806
vt 0.721203 0.008146
vt 0.734555 0.106726
vt 0.741230 0.205307
vt 0.839504 0.292557
vt 0.805028 0.379807
vt 0.876123 0.349065
vt 0.938030 0.277186
vt 0.734555 0.303887
vt 0.721203 0.402467
vt 0.369475 0.299954
vt 0.367890 0.394602
vt 0.489902 0.404581
vt 0.492822 0.304944
vt 0.494283 0.205307
vt 0.370268 0.205307
vt 0.246768 0.205307
vt 0.246397 0.288815
vt 0.245655 0.372324
vt 0.369475 0.110659
vt 0.492822 0.105669
vt 0.489902 0.006032
vt 0.367890 0.016011
vt 0.245655 0.038289
vt 0.246397 0.121798
vt 0.616755 0.103478
vt 0.619174 0.205307
vt 0.611917 0.001649
vt 0.616755 0.307135
vt 0.611917 0.408964
vt 0.123273 0.268175
vt 0.122972 0.331043
vt 0.123423 0.205306
vt 0.000156 0.205306
vt 0.000125 0.242784
vt 0.000064 0.280261
vt 0.123273 0.142438
vt 0.122972 0.079570
vt 0.000064 0.130352
vt 0.000125 0.167829
vt 0.122972 0.331043
vt 0.030806 0.283587
vt 0.245655 0.372324
vt 0.030806 0.283587
vt 0.000125 0.167829
vt 0.030806 0.127026
vt 0.000156 0.205306
vt 0.030806 0.127026
vt 0.805028 0.030806
vt 0.873826 0.071832
vt 0.721203 0.008146
vt 0.873826 0.071832
vt 0.938030 0.277186
vt 0.873826 0.338781
vt 0.968983 0.205307
vt 0.873826 0.338781
vt 0.805028 0.379807
vt 0.721203 0.402467
vt 0.000125 0.242784
vt 0.122972 0.079570
vt 0.245655 0.038289
vt 0.938030 0.133427
vt 0.611917 0.001649
vt 0.489902 0.006032
vt 0.611917 0.408964
vt 0.489902 0.404581
vt 0.367890 0.394602
vt 0.367890 0.016011
f 1/1/1 2/2/2 3/3/3
f 1/1/1 3/3/3 4/4/4
f 1/1/1 4/4/4 5/5/5
f 1/1/1 5/5/5 6/6/6
f 1/1/1 6/6/6 7/7/7
f 1/1/1 7/7/7 8/8/8
f 1/1/1 8/8/8 9/9/9
f 1/1/1 9/9/9 2/2/2
f 10/10/10 11/11/11 12/12/12
f 10/10/10 12/12/12 13/13/13
f 10/10/10 13/13/13 3/3/3
f 10/10/10 3/3/3 2/2/2
f 10/10/10 2/2/2 9/9/9
f 10/10/10 9/9/9 14/14/14
f 10/10/10 14/14/14 15/15/15
f 10/10/10 15/15/15 11/11/11
f 16/16/16 17/17/17 18/18/18
f 16/16/16 18/18/18 19/19/19
f 16/16/16 19/19/19 20/20/20
f 16/16/16 20/20/20 21/21/21
f 16/16/16 21/21/21 22/22/22
f 16/16/16 22/22/22 23/23/23
f 16/16/16 23/23/23 24/24/24
f 16/16/16 24/24/24 17/17/17
f 25/25/25 21/21/21 20/20/20
f 25/25/25 20/20/20 26/26/26
f 25/25/25 26/26/26 27/27/27
f 25/25/25 27/27/27 28/28/28
f 25/25/25 28/28/28 29/29/29
f 25/25/25 29/29/29 30/30/30
f 25/25/25 30/30/30 22/22/22
f 25/25/25 22/22/22 21/21/21
f 31/31/31 32/32/32 22/22/22
f 31/31/31 22/22/22 30/30/30
f 31/31/31 30/30/30 29/29/29
f 31/31/31 29/29/29 33/33/33
f 31/31/31 33/33/33 5/5/5
f 31/31/31 5/5/5 4/4/4
f 31/31/31 4/4/4 3/3/3
f 31/31/31 3/3/3 32/32/32
f 34/34/34 35/35/35 24/24/24
f 34/34/34 24/24/24 23/23/23
f 34/34/34 23/23/23 22/22/22
f 34/34/34 22/22/22 32/32/32
f 34/34/34 32/32/32 3/3/3
f 34/34/34 3/3/3 13/13/13
f 34/34/34 13/13/13 12/12/12
f 34/34/34 12/12/12 35/35/35
f 36/36/36 37/37/37 38/38/38
f 36/36/36 38/38/38 39/39/39
f 36/36/36 39/39/39 40/40/40
f 36/36/36 40/40/40 41/41/41
f 36/36/36 41/41/41 20/20/20
f 36/36/36 20/20/20 19/19/19
f 36/36/36 19/19/19 18/18/18
f 36/36/36 18/18/18 37/37/37
f 42/42/42 41/41/41 40/40/40
f 42/42/42 40/40/40 43/43/43
f 42/42/42 43/43/43 44/44/44
f 42/42/42 44/44/44 45/45/45
f 42/42/42 45/45/45 27/27/27
f 42/42/42 27/27/27 26/26/26
f 42/42/42 26/26/26 20/20/20
f 42/42/42 20/20/20 41/41/41
f 46/46/46 47/47/47 48/48/48
f 46/46/46 48/48/48 49/49/49
f 46/46/46 49/49/49 50/50/50
f 46/46/46 50/50/50 51/51/51
f 46/46/46 51/51/51 52/52/52
f 46/46/46 52/52/52 53/53/53
f 46/46/46 53/53/53 54/54/54
f 46/46/46 54/54/54 47/47/47
f 55/55/55 56/56/56 57/57/57
f 55/55/55 57/57/57 58/58/58
f 55/55/55 58/58/58 48/48/48
f 55/55/55 48/48/48 47/47/47
f 55/55/55 47/47/47 54/54/54
f 55/55/55 54/54/54 59/59/59
f 55/55/55 59/59/59 60/60/60
f 55/55/55 60/60/60 56/56/56
f 61/61/61 62/62/62 63/63/63
f 61/61/61 63/63/63 64/64/64
f 61/61/61 64/64/64 65/65/65
f 61/61/61 65/65/65 66/66/66
f 61/61/61 66/66/66 67/67/67
f 61/61/61 67/67/67 68/68/68
f 61/61/61 68/68/68 69/69/69
f 61/61/61 69/69/69 62/62/62
f 70/70/70 66/66/66 65/65/65
f 70/70/70 65/65/65 71/71/71
f 70/70/70 71/71/71 72/72/72
f 70/70/70 72/72/72 73/73/73
f 70/70/70 73/73/73 74/74/74
f 70/70/70 74/74/74 75/75/75
f 70/70/70 75/75/75 67/67/67
f 70/70/70 67/67/67 66/66/66
f 76/76/76 77/77/77 54/54/54
f 76/76/76 54/54/54 53/53/53
f 76/76/76 53/53/53 52/52/52
f 76/76/76 52/52/52 78/78/78
f 76/76/76 78/78/78 72/72/72
f 76/76/76 72/72/72 71/71/71
f 76/76/76 71/71/71 65/65/65
f 76/76/76 65/65/65 77/77/77
f 79/79/79 80/80/80 60/60/60
f 79/79/79 60/60/60 59/59/59
f 79/79/79 59/59/59 54/54/54
f 79/79/79 54/54/54 77/77/77
f 79/79/79 77/77/77 65/65/65
f 79/79/79 65/65/65 64/64/64
f 79/79/79 64/64/64 63/63/63
f 79/79/79 63/63/63 80/80/80
f 81/81/81 82/82/82 69/69/69
f 81/81/81 69/69/69 68/68/68
f 81/81/81 68/68/68 67/67/67
f 81/81/81 67/67/67 83/83/83
f 81/81/81 83/83/83 84/84/84
f 81/81/81 84/84/84 85/85/85
f 81/81/81 85/85/85 86/86/86
f 81/81/81 86/86/86 82/82/82
f 87/87/87 83/83/83 67/67/67
f 87/87/87 67/67/67 75/75/75
f 87/87/87 75/75/75 74/74/74
f 87/87/87 74/74/74 88/88/88
f 87/87/87 88/88/88 89/89/89
f 87/87/87 89/89/89 90/90/90
f 87/87/87 90/90/90 84/84/84
f 87/87/87 84/84/84 83/83/83
f 91/91/91 92/92/92 38/38/38
f 91/91/91 38/38/38 37/37/37
f 91/91/91 37/37/37 18/18/18
f 91/91/91 18/18/18 93/93/93
f 91/91/91 93/93/93 69/69/69
f 91/91/91 69/69/69 82/82/82
f 91/91/91 82/82/82 94/94/94
f 91/91/91 94/94/94 92/92/92
f 95/95/95 96/96/96 44/44/44
f 95/95/95 44/44/44 43/43/43
f 95/95/95 43/43/43 40/40/40
f 95/95/95 40/40/40 97/97/97
f 95/95/95 97/97/97 84/84/84
f 95/95/95 84/84/84 90/90/90
f 95/95/95 90/90/90 98/98/98
f 95/95/95 98/98/98 96/96/96
f 99/99/99 100/100/100 7/7/7
f 99/99/99 7/7/7 6/6/6
f 99/99/99 6/6/6 5/5/5
f 99/99/99 5/5/5 101/101/101
f 99/99/99 101/101/101 52/52/52
f 99/99/99 52/52/52 51/51/51
f 99/99/99 51/51/51 102/102/102
f 99/99/99 102/102/102 100/100/100
f 103/103/103 104/104/104 15/15/15
f 103/103/103 15/15/15 14/14/14
f 103/103/103 14/14/14 9/9/9
f 103/103/103 9/9/9 105/105/105
f 103/103/103 105/105/105 48/48/48
f 103/103/103 48/48/48 58/58/58
f 103/103/103 58/58/58 106/106/106
f 103/103/103 106/106/106 104/104/104
f 107/107/107 108/108/108 12/12/12
f 107/107/107 12/12/12 11/11/11
f 107/107/107 11/11/11 15/15/15
f 107/107/107 15/15/15 104/104/104
f 107/107/107 104/104/104 106/106/106
f 107/107/107 106/106/106 56/56/56
f 107/107/107 56/56/56 60/60/60
f 107/107/107 60/60/60 108/108/108
f 109/109/109 97/97/97 40/40/40
f 109/109/109 40/40/40 39/39/39
f 109/109/109 39/39/39 38/38/38
f 109/109/109 38/38/38 92/92/92
f 109/109/109 92/92/92 94/94/94
f 109/109/109 94/94/94 85/85/85
f 109/109/109 85/85/85 84/84/84
f 109/109/109 84/84/84 97/97/97
f 110/110/110 111/111/111 27/27/27
f 110/110/110 27/27/27 45/45/45
f 110/110/110 45/45/45 44/44/44
f 110/110/110 44/44/44 96/96/96
f 110/110/110 96/96/96 98/98/98
f 110/110/110 98/98/98 88/88/88
f 110/110/110 88/88/88 74/74/74
f 110/110/110 74/74/74 111/111/111
f 112/112/112 105/105/105 9/9/9
f 112/112/112 9/9/9 8/8/8
f 112/112/112 8/8/8 7/7/7
f 112/112/112 7/7/7 100/100/100
f 112/112/112 100/100/100 102/102/102
f 112/112/112 102/102/102 49/49/49
f 112/112/112 49/49/49 48/48/48
f 112/112/112 48/48/48 105/105/105
f 113/113/113 101/101/101 5/5/5
f 113/113/113 5/5/5 33/33/33
f 113/113/113 33/33/33 29/29/29
f 113/113/113 29/29/29 114/114/114
f 113/113/113 114/114/114 72/72/72
f 113/113/113 72/72/72 78/78/78
f 113/113/113 78/78/78 52/52/52
f 113/113/113 52/52/52 101/101/101
f 115/115/115 116/116/116 24/24/24
f 115/115/115 24/24/24 35/35/35
f 115/115/115 35/35/35 12/12/12
f 115/115/115 12/12/12 108/108/108
f 115/115/115 108/108/108 60/60/60
f 115/115/115 60/60/60 80/80/80
f 115/115/115 80/80/80 63/63/63
f 115/115/115 63/63/63 116/116/116
f 117/117/117 93/93/93 18/18/18
f 117/117/117 18/18/18 17/17/17
f 117/117/117 17/17/17 24/24/24
f 117/117/117 24/24/24 116/116/116
f 117/117/117 116/116/116 63/63/63
f 117/117/117 63/63/63 62/62/62
f 117/117/117 62/62/62 69/69/69
f 117/117/117 69/69/69 93/93/93
f 118/118/118 114/114/114 29/29/29
f 118/118/118 29/29/29 28/28/28
f 118/118/118 28/28/28 27/27/27
f 118/118/118 27/27/27 111/111/111
f 118/118/118 111/111/111 74/74/74
f 118/118/118 74/74/74 73/73/73
f 118/118/118 73/73/73 72/72/72
f 118/118/118 72/72/72 114/114/114
