v -2.427989 0.652321 -1.071021
v -2.426125 0.651622 -1.068751
v -2.423536 0.652636 -1.071653
v -2.425928 0.653237 -1.07393
v -2.427648 0.654016 -1.075719
v -2.429142 0.653258 -1.072997
v -2.429625 0.652452 -1.07101
v -2.429343 0.651514 -1.068921
v -2.428002 0.650745 -1.066654
v -2.423599 0.65212 -1.067175
v -2.421443 0.652905 -1.066252
v -2.418903 0.653615 -1.068057
v -2.420939 0.653008 -1.069559
v -2.425543 0.65134 -1.065592
v -2.42339 0.652166 -1.065547
v -2.412696 0.654002 -1.079016
v -2.410826 0.654241 -1.077424
v -2.408517 0.65391 -1.081076
v -2.410175 0.653679 -1.082481
v -2.412359 0.653549 -1.084361
v -2.415162 0.653872 -1.081145
v -2.417969 0.653897 -1.07794
v -2.41539 0.654063 -1.07571
v -2.413433 0.65436 -1.074043
v -2.417584 0.654226 -1.083299
v -2.414498 0.653878 -1.086269
v -2.416093 0.654257 -1.087714
v -2.419391 0.654634 -1.084929
v -2.422393 0.654771 -1.081894
v -2.420504 0.654297 -1.080191
v -2.423359 0.653932 -1.077027
v -2.420789 0.65344 -1.074746
v -2.425272 0.654542 -1.078754
v -2.41817 0.653694 -1.072481
v -2.416179 0.654125 -1.070787
v -2.407914 0.653264 -1.08619
v -2.406667 0.653506 -1.085146
v -2.405957 0.653152 -1.087672
v -2.406317 0.652877 -1.08906
v -2.407445 0.652704 -1.090014
v -2.40955 0.653113 -1.08759
v -2.411141 0.653412 -1.089017
v -2.408528 0.652979 -1.090997
v -2.409935 0.653334 -1.091157
v -2.412325 0.653765 -1.090103
v -2.427985 0.652018 -1.071107
v -2.426088 0.651314 -1.068809
v -2.427972 0.650515 -1.066701
v -2.429339 0.651288 -1.068991
v -2.42963 0.652286 -1.071066
v -2.429156 0.653034 -1.073076
v -2.427665 0.653789 -1.075787
v -2.425929 0.65293 -1.074004
v -2.423507 0.652325 -1.071702
v -2.423529 0.651813 -1.067203
v -2.421375 0.652677 -1.066258
v -2.423342 0.651998 -1.065557
v -2.425487 0.651112 -1.065615
v -2.420881 0.652698 -1.069582
v -2.418846 0.653384 -1.06806
v -2.412686 0.653685 -1.079002
v -2.410807 0.654004 -1.077404
v -2.413405 0.654124 -1.074032
v -2.415367 0.653747 -1.075709
v -2.417968 0.653581 -1.077958
v -2.415173 0.653555 -1.081149
v -2.412378 0.653232 -1.084356
v -2.410173 0.653363 -1.082457
v -2.408504 0.653673 -1.081049
v -2.417616 0.653911 -1.083322
v -2.420525 0.653984 -1.080228
v -2.422421 0.654537 -1.081932
v -2.419425 0.6544 -1.084956
v -2.416133 0.654023 -1.087734
v -2.414538 0.653563 -1.086282
v -2.423369 0.653621 -1.077083
v -2.420773 0.653126 -1.07478
v -2.425293 0.654312 -1.078807
v -2.418129 0.65338 -1.072492
v -2.416137 0.653891 -1.070784
v -2.407914 0.652948 -1.086162
v -2.406656 0.65327 -1.085114
v -2.409573 0.652797 -1.087581
v -2.407462 0.652467 -1.090007
v -2.406316 0.652641 -1.089037
v -2.405951 0.652977 -1.087651
v -2.411186 0.653098 -1.089028
v -2.41237 0.653532 -1.090121
v -2.409965 0.653161 -1.091168
v -2.408563 0.652744 -1.091006
v -2.406244 0.653482 -1.084781
v -2.405404 0.653056 -1.0883
v -2.407956 0.653882 -1.080594
v -2.405951 0.652977 -1.087651
v -2.407672 0.65273 -1.091661
v -2.409389 0.653239 -1.091792
v -2.406751 0.652462 -1.090819
v -2.409965 0.653161 -1.091168
v -2.429536 0.653472 -1.073694
v -2.43 0.65248 -1.071095
v -2.428233 0.654175 -1.076348
v -2.42963 0.652286 -1.071066
v -2.426165 0.650979 -1.065075
v -2.423255 0.65217 -1.065185
v -2.428614 0.65035 -1.065977
v -2.423342 0.651998 -1.065557
v -2.420691 0.653066 -1.065944
v -2.418196 0.653715 -1.067554
v -2.405784 0.652643 -1.090006
v -2.412742 0.65378 -1.090475
v -2.416645 0.65428 -1.088207
v -2.429792 0.651145 -1.068253
v -2.425922 0.654644 -1.079356
v -2.423038 0.654825 -1.082481
v -2.415494 0.654165 -1.070219
v -2.412766 0.654354 -1.07348
v -2.410192 0.654216 -1.076883
v -2.420011 0.654666 -1.085486
vn 0.0269 0.9374 0.3471
vn -0.1529 0.9623 0.225
vn -0.1142 0.9767 0.1816
vn 0.0479 0.956 0.2893
vn 0.057 0.9626 0.2649
vn 0.021 0.9395 0.342
vn -0.0054 0.9189 0.3945
vn -0.0632 0.9191 0.3888
vn -0.2122 0.9329 0.2911
vn -0.2986 0.9523 0.062
vn -0.2927 0.9538 0.0672
vn -0.2199 0.9752 0.0223
vn -0.2431 0.9694 0.0343
vn -0.3291 0.9313 0.1559
vn -0.3423 0.9343 0.0994
vn -0.0294 0.9964 -0.0793
vn 0.0041 0.9981 -0.0613
vn 0.0275 0.9961 -0.0837
vn -0.0136 0.9939 -0.1095
vn 0.0811 0.9958 -0.0405
vn 0.0532 0.9985 -0.0084
vn -0.0032 0.9984 0.056
vn -0.0897 0.9955 -0.0306
vn -0.0578 0.998 -0.0258
vn 0.134 0.9889 0.0639
vn 0.1617 0.9858 0.0441
vn 0.1309 0.9914 0.0069
vn 0.1119 0.9931 0.0331
vn 0.0847 0.9915 0.0991
vn 0.0937 0.9871 0.1299
vn 0.0613 0.9748 0.2145
vn -0.0654 0.9898 0.1265
vn 0.066 0.9807 0.1841
vn -0.1698 0.9854 0.012
vn -0.14 0.9901 0.0035
vn -0.0237 0.9903 -0.1369
vn 0.0231 0.9933 -0.1128
vn 0.01 0.9892 -0.1463
vn -0.0033 0.9811 -0.1935
vn 0.131 0.9865 -0.0979
vn 0.0943 0.994 -0.0555
vn 0.19 0.9805 0.0503
vn 0.243 0.9698 0.0222
vn 0.1949 0.9807 0.0157
vn 0.1602 0.987 0.0073
vn -0.0634 -0.9358 -0.3466
vn 0.1423 -0.9666 -0.2131
vn 0.101 -0.9808 -0.1667
vn -0.171 -0.9228 -0.3453
vn -0.2766 -0.8792 -0.3879
vn -0.2522 -0.8888 -0.3827
vn -0.2006 -0.9174 -0.3436
vn -0.0605 -0.9528 -0.2975
vn 0.1143 -0.9767 -0.1816
vn 0.3029 -0.9526 -0.0256
vn 0.3656 -0.9171 0.1585
vn 0.3745 -0.9091 0.1825
vn 0.3163 -0.9451 0.0817
vn 0.253 -0.9672 -0.0227
vn 0.3187 -0.9413 0.1113
vn 0.0424 -0.9951 0.0889
vn 0.1332 -0.979 0.1543
vn 0.1768 -0.9767 0.1218
vn 0.1011 -0.994 0.0403
vn 0.0031 -0.9984 -0.0558
vn -0.0533 -0.9985 0.0085
vn -0.0812 -0.9958 0.0406
vn 0.0301 -0.9924 0.1191
vn 0.1503 -0.9736 0.1719
vn -0.1452 -0.9865 -0.0754
vn -0.1046 -0.9846 -0.14
vn -0.1942 -0.9596 -0.2033
vn -0.2209 -0.9627 -0.156
vn -0.2402 -0.9556 -0.1703
vn -0.1733 -0.9831 -0.0591
vn -0.0724 -0.972 -0.2236
vn 0.0654 -0.9898 -0.1265
vn -0.1818 -0.9435 -0.2771
vn 0.1804 -0.9836 -0.0021
vn 0.2491 -0.9632 0.1004
vn 0.0562 -0.9888 0.1384
vn 0.2136 -0.9602 0.1797
vn -0.0863 -0.9952 0.0464
vn -0.0512 -0.9987 0.0062
vn 0.1577 -0.9787 0.1313
vn 0.2548 -0.9502 0.1792
vn -0.1956 -0.9772 -0.0822
vn -0.2555 -0.9387 -0.2314
vn -0.2599 -0.9266 -0.2718
vn -0.2013 -0.9622 -0.1833
vn 0.94 0.1402 0.3111
vn 0.9843 0.1451 -0.0999
vn 0.8838 0.1125 0.454
vn 0.2548 -0.9502 0.1792
vn 0.4608 -0.0398 -0.8866
vn -0.0217 0.1913 -0.9813
vn 0.6393 -0.2074 -0.7404
vn -0.2599 -0.9266 -0.2718
vn -0.9158 0.2754 -0.2922
vn -0.985 0.1721 0.0064
vn -0.8273 0.2861 -0.4834
vn -0.2766 -0.8792 -0.3879
vn -0.1993 -0.1676 0.9655
vn 0.1306 0.1209 0.984
vn -0.6294 -0.3357 0.7008
vn 0.3745 -0.9091 0.1825
vn 0.4223 0.2138 0.8809
vn 0.6009 0.2205 0.7683
vn 0.8159 -0.056 -0.5754
vn -0.423 0.2028 -0.8831
vn -0.5588 0.1787 -0.8098
vn -0.9386 -0.1339 0.3179
vn -0.7512 0.2592 -0.6071
vn -0.7043 0.2263 -0.6728
vn 0.7122 0.1921 0.6752
vn 0.7695 0.1588 0.6185
vn 0.8205 0.1242 0.558
vn -0.6529 0.1918 -0.7327
vt 0.839504 0.118056
vt 0.856743 0.205307
vt 0.741230 0.205307
vt 0.734555 0.106726
vt 0.724541 0.032791
vt 0.813647 0.052618
vt 0.868992 0.081539
vt 0.913398 0.129584
vt 0.940923 0.205307
vt 0.839504 0.292557
vt 0.813647 0.357995
vt 0.724541 0.377822
vt 0.734555 0.303887
vt 0.913398 0.281029
vt 0.868992 0.329074
vt 0.369475 0.299954
vt 0.368286 0.370940
vt 0.245840 0.351447
vt 0.246397 0.288815
vt 0.246768 0.205307
vt 0.370268 0.205307
vt 0.494283 0.205307
vt 0.492822 0.304944
vt 0.490632 0.379672
vt 0.369475 0.110659
vt 0.246397 0.121798
vt 0.245841 0.059166
vt 0.368286 0.039673
vt 0.490632 0.030941
vt 0.492822 0.105669
vt 0.616755 0.103478
vt 0.619174 0.205307
vt 0.613127 0.027106
vt 0.616755 0.307135
vt 0.613126 0.383507
vt 0.123273 0.268175
vt 0.123047 0.315326
vt 0.054743 0.283353
vt 0.030912 0.249131
vt 0.030973 0.205306
vt 0.123423 0.205306
vt 0.123273 0.142438
vt 0.030912 0.161481
vt 0.054744 0.127260
vt 0.123047 0.095287
vt 0.839504 0.118056
vt 0.856743 0.205307
vt 0.968983 0.205307
vt 0.938030 0.133427
vt 0.876123 0.061548
vt 0.805028 0.030806
vt 0.721203 0.008146
vt 0.734555 0.106726
vt 0.741230 0.205307
vt 0.839504 0.292557
vt 0.805028 0.379807
vt 0.876123 0.349065
vt 0.938030 0.277186
vt 0.734555 0.303887
vt 0.721203 0.402467
vt 0.369475 0.299954
vt 0.367890 0.394602
vt 0.489902 0.404581
vt 0.492822 0.304944
vt 0.494283 0.205307
vt 0.370268 0.205307
vt 0.246768 0.205307
vt 0.246397 0.288815
vt 0.245655 0.372324
vt 0.369475 0.110659
vt 0.492822 0.105669
vt 0.489902 0.006032
vt 0.367890 0.016011
vt 0.245655 0.038289
vt 0.246397 0.121798
vt 0.616755 0.103478
vt 0.619174 0.205307
vt 0.611917 0.001649
vt 0.616755 0.307135
vt 0.611917 0.408964
vt 0.123273 0.268175
vt 0.122972 0.331043
vt 0.123423 0.205306
vt 0.000156 0.205306
vt 0.000125 0.242784
vt 0.000064 0.280261
vt 0.123273 0.142438
vt 0.122972 0.079570
vt 0.000064 0.130352
vt 0.000125 0.167829
vt 0.122972 0.331043
vt 0.030806 0.283587
vt 0.245655 0.372324
vt 0.030806 0.283587
vt 0.000125 0.167829
vt 0.030806 0.127026
vt 0.000156 0.205306
vt 0.030806 0.127026
vt 0.805028 0.030806
vt 0.873826 0.071832
vt 0.721203 0.008146
vt 0.873826 0.071832
vt 0.938030 0.277186
vt 0.873826 0.338781
vt 0.968983 0.205307
vt 0.873826 0.338781
vt 0.805028 0.379807
vt 0.721203 0.402467
vt 0.000125 0.242784
vt 0.122972 0.079570
vt 0.245655 0.038289
vt 0.938030 0.133427
vt 0.611917 0.001649
vt 0.489902 0.006032
vt 0.611917 0.408964
vt 0.489902 0.404581
vt 0.367890 0.394602
vt 0.367890 0.016011
f 1/1/1 2/2/2 3/3/3
f 1/1/1 3/3/3 4/4/4
f 1/1/1 4/4/4 5/5/5
f 1/1/1 5/5/5 6/6/6
f 1/1/1 6/6/6 7/7/7
f 1/1/1 7/7/7 8/8/8
f 1/1/1 8/8/8 9/9/9
f 1/1/1 9/9/9 2/2/2
f 10/10/10 11/11/11 12/12/12
f 10/10/10 12/12/12 13/13/13
f 10/10/10 13/13/13 3/3/3
f 10/10/10 3/3/3 2/2/2
f 10/10/10 2/2/2 9/9/9
f 10/10/10 9/9/9 14/14/14
f 10/10/10 14/14/14 15/15/15
f 10/10/10 15/15/15 11/11/11
f 16/16/16 17/17/17 18/18/18
f 16/16/16 18/18/18 19/19/19
f 16/16/16 19/19/19 20/20/20
f 16/16/16 20/20/20 21/21/21
f 16/16/16 21/21/21 22/22/22
f 16/16/16 22/22/22 23/23/23
f 16/16/16 23/23/23 24/24/24
f 16/16/16 24/24/24 17/17/17
f 25/25/25 21/21/21 20/20/20
f 25/25/25 20/20/20 26/26/26
f 25/25/25 26/26/26 27/27/27
f 25/25/25 27/27/27 28/28/28
f 25/25/25 28/28/28 29/29/29
f 25/25/25 29/29/29 30/30/30
f 25/25/25 30/30/30 22/22/22
f 25/25/25 22/22/22 21/21/21
f 31/31/31 32/32/32 22/22/22
f 31/31/31 22/22/22 30/30/30
f 31/31/31 30/30/30 29/29/29
f 31/31/31 29/29/29 33/33/33
f 31/31/31 33/33/33 5/5/5
f 31/31/31 5/5/5 4/4/4
f 31/31/31 4/4/4 3/3/3
f 31/31/31 3/3/3 32/32/32
f 34/34/34 35/35/35 24/24/24
f 34/34/34 24/24/24 23/23/23
f 34/34/34 23/23/23 22/22/22
f 34/34/34 22/22/22 32/32/32
f 34/34/34 32/32/32 3/3/3
f 34/34/34 3/3/3 13/13/13
f 34/34/34 13/13/13 12/12/12
f 34/34/34 12/12/12 35/35/35
f 36/36/36 37/37/37 38/38/38
f 36/36/36 38/38/38 39/39/39
f 36/36/36 39/39/39 40/40/40
f 36/36/36 40/40/40 41/41/41
f 36/36/36 41/41/41 20/20/20
f 36/36/36 20/20/20 19/19/19
f 36/36/36 19/19/19 18/18/18
f 36/36/36 18/18/18 37/37/37
f 42/42/42 41/41/41 40/40/40
f 42/42/42 40/40/40 43/43/43
f 42/42/42 43/43/43 44/44/44
f 42/42/42 44/44/44 45/45/45
f 42/42/42 45/45/45 27/27/27
f 42/42/42 27/27/27 26/26/26
f 42/42/42 26/26/26 20/20/20
f 42/42/42 20/20/20 41/41/41
f 46/46/46 47/47/47 48/48/48
f 46/46/46 48/48/48 49/49/49
f 46/46/46 49/49/49 50/50/50
f 46/46/46 50/50/50 51/51/51
f 46/46/46 51/51/51 52/52/52
f 46/46/46 52/52/52 53/53/53
f 46/46/46 53/53/53 54/54/54
f 46/46/46 54/54/54 47/47/47
f 55/55/55 56/56/56 57/57/57
f 55/55/55 57/57/57 58/58/58
f 55/55/55 58/58/58 48/48/48
f 55/55/55 48/48/48 47/47/47
f 55/55/55 47/47/47 54/54/54
f 55/55/55 54/54/54 59/59/59
f 55/55/55 59/59/59 60/60/60
f 55/55/55 60/60/60 56/56/56
f 61/61/61 62/62/62 63/63/63
f 61/61/61 63/63/63 64/64/64
f 61/61/61 64/64/64 65/65/65
f 61/61/61 65/65/65 66/66/66
f 61/61/61 66/66/66 67/67/67
f 61/61/61 67/67/67 68/68/68
f 61/61/61 68/68/68 69/69/69
f 61/61/61 69/69/69 62/62/62
f 70/70/70 66/66/66 65/65/65
f 70/70/70 65/65/65 71/71/71
f 70/70/70 71/71/71 72/72/72
f 70/70/70 72/72/72 73/73/73
f 70/70/70 73/73/73 74/74/74
f 70/70/70 74/74/74 75/75/75
f 70/70/70 75/75/75 67/67/67
f 70/70/70 67/67/67 66/66/66
f 76/76/76 77/77/77 54/54/54
f 76/76/76 54/54/54 53/53/53
f 76/76/76 53/53/53 52/52/52
f 76/76/76 52/52/52 78/78/78
f 76/76/76 78/78/78 72/72/72
f 76/76/76 72/72/72 71/71/71
f 76/76/76 71/71/71 65/65/65
f 76/76/76 65/65/65 77/77/77
f 79/79/79 80/80/80 60/60/60
f 79/79/79 60/60/60 59/59/59
f 79/79/79 59/59/59 54/54/54
f 79/79/79 54/54/54 77/77/77
f 79/79/79 77/77/77 65/65/65
f 79/79/79 65/65/65 64/64/64
f 79/79/79 64/64/64 63/63/63
f 79/79/79 63/63/63 80/80/80
f 81/81/81 82/82/82 69/69/69
f 81/81/81 69/69/69 68/68/68
f 81/81/81 68/68/68 67/67/67
f 81/81/81 67/67/67 83/83/83
f 81/81/81 83/83/83 84/84/84
f 81/81/81 84/84/84 85/85/85
f 81/81/81 85/85/85 86/86/86
f 81/81/81 86/86/86 82/82/82
f 87/87/87 83/83/83 67/67/67
f 87/87/87 67/67/67 75/75/75
f 87/87/87 75/75/75 74/74/74
f 87/87/87 74/74/74 88/88/88
f 87/87/87 88/88/88 89/89/89
f 87/87/87 89/89/89 90/90/90
f 87/87/87 90/90/90 84/84/84
f 87/87/87 84/84/84 83/83/83
f 91/91/91 92/92/92 38/38/38
f 91/91/91 38/38/38 37/37/37
f 91/91/91 37/37/37 18/18/18
f 91/91/91 18/18/18 93/93/93
f 91/91/91 93/93/93 69/69/69
f 91/91/91 69/69/69 82/82/82
f 91/91/91 82/82/82 94/94/94
f 91/91/91 94/94/94 92/92/92
f 95/95/95 96/96/96 44/44/44
f 95/95/95 44/44/44 43/43/43
f 95/95/95 43/43/43 40/40/40
f 95/95/95 40/40/40 97/97/97
f 95/95/95 97/97/97 84/84/84
f 95/95/95 84/84/84 90/90/90
f 95/95/95 90/90/90 98/98/98
f 95/95/95 98/98/98 96/96/96
f 99/99/99 100/100/100 7/7/7
f 99/99/99 7/7/7 6/6/6
f 99/99/99 6/6/6 5/5/5
f 99/99/99 5/5/5 101/101/101
f 99/99/99 101/101/101 52/52/52
f 99/99/99 52/52/52 51/51/51
f 99/99/99 51/51/51 102/102/102
f 99/99/99 102/102/102 100/100/100
f 103/103/103 104/104/104 15/15/15
f 103/103/103 15/15/15 14/14/14
f 103/103/103 14/14/14 9/9/9
f 103/103/103 9/9/9 105/105/105
f 103/103/103 105/105/105 48/48/48
f 103/103/103 48/48/48 58/58/58
f 103/103/103 58/58/58 106/106/106
f 103/103/103 106/106/106 104/104/104
f 107/107/107 108/108/108 12/12/12
f 107/107/107 12/12/12 11/11/11
f 107/107/107 11/11/11 15/15/15
f 107/107/107 15/15/15 104/104/104
f 107/107/107 104/104/104 106/106/106
f 107/107/107 106/106/106 56/56/56
f 107/107/107 56/56/56 60/60/60
f 107/107/107 60/60/60 108/108/108
f 109/109/109 97/97/97 40/40/40
f 109/109/109 40/40/40 39/39/39
f 109/109/109 39/39/39 38/38/38
f 109/109/109 38/38/38 92/92/92
f 109/109/109 92/92/92 94/94/94
f 109/109/109 94/94/94 85/85/85
f 109/109/109 85/85/85 84/84/84
f 109/109/109 84/84/84 97/97/97
f 110/110/110 111/111/111 27/27/27
f 110/110/110 27/27/27 45/45/45
f 110/110/110 45/45/45 44/44/44
f 110/110/110 44/44/44 96/96/96
f 110/110/110 96/96/96 98/98/98
f 110/110/110 98/98/98 88/88/88
f 110/110/110 88/88/88 74/74/74
f 110/110/110 74/74/74 111/111/111
f 112/112/112 105/105/105 9/9/9
f 112/112/112 9/9/9 8/8/8
f 112/112/112 8/8/8 7/7/7
f 112/112/112 7/7/7 100/100/100
f 112/112/112 100/100/100 102/102/102
f 112/112/112 102/102/102 49/49/49
f 112/112/112 49/49/49 48/48/48
f 112/112/112 48/48/48 105/105/105
f 113/113/113 101/101/101 5/5/5
f 113/113/113 5/5/5 33/33/33
f 113/113/113 33/33/33 29/29/29
f 113/113/113 29/29/29 114/114/114
f 113/113/113 114/114/114 72/72/72
f 113/113/113 72/72/72 78/78/78
f 113/113/113 78/78/78 52/52/52
f 113/113/113 52/52/52 101/101/101
f 115/115/115 116/116/116 24/24/24
f 115/115/115 24/24/24 35/35/35
f 115/115/115 35/35/35 12/12/12
f 115/115/115 12/12/12 108/108/108
f 115/115/115 108/108/108 60/60/60
f 115/115/115 60/60/60 80/80/80
f 115/115/115 80/80/80 63/63/63
f 115/115/115 63/63/63 116/116/116
f 117/117/117 93/93/93 18/18/18
f 117/117/117 18/18/18 17/17/17
f 117/117/117 17/17/17 24/24/24
f 117/117/117 24/24/24 116/116/116
f 117/117/117 116/116/116 63/63/63
f 117/117/117 63/63/63 62/62/62
f 117/117/117 62/62/62 69/69/69
f 117/117/117 69/69/69 93/93/93
f 118/118/118 114/114/114 29/29/29
f 118/118/118 29/29/29 28/28/28
f 118/118/118 28/28/28 27/27/27
f 118/118/118 27/27/27 111/111/111
f 118/118/118 111/111/111 74/74/74
f 118/118/118 74/74/74 73/73/73
f 118/118/118 73/73/73 72/72/72
f 118/118/118 72/72/72 114/114/114
