v -2.344673 0.697044 -1.138018
v -2.343878 0.697628 -1.140195
v -2.346784 0.696508 -1.140845
v -2.34734 0.69591 -1.138316
v -2.347985 0.695607 -1.136384
v -2.345698 0.696689 -1.136389
v -2.344129 0.697274 -1.136861
v -2.342726 0.697764 -1.137922
v -2.341705 0.698351 -1.139747
v -2.344261 0.698509 -1.142383
v -2.344976 0.699258 -1.144044
v -2.347164 0.698526 -1.145079
v -2.346872 0.697574 -1.143277
v -2.342369 0.699032 -1.1417
v -2.343544 0.699354 -1.14306
v -2.355141 0.692568 -1.145681
v -2.355148 0.693362 -1.147466
v -2.357669 0.691081 -1.147918
v -2.357651 0.69037 -1.146341
v -2.357727 0.689521 -1.144222
v -2.355237 0.691617 -1.143284
v -2.352607 0.69353 -1.142394
v -2.352519 0.694544 -1.144896
v -2.352548 0.695403 -1.146755
v -2.355599 0.690937 -1.140821
v -2.358057 0.688927 -1.142042
v -2.35838 0.688553 -1.140385
v -2.355951 0.690503 -1.138949
v -2.353389 0.692413 -1.137846
v -2.352998 0.692838 -1.139812
v -2.35018 0.694501 -1.138946
v -2.349741 0.695152 -1.141579
v -2.350641 0.694148 -1.136931
v -2.349693 0.696233 -1.144105
v -2.349787 0.697182 -1.145972
v -2.360142 0.688014 -1.146755
v -2.360196 0.688583 -1.147924
v -2.361552 0.687011 -1.147644
v -2.361982 0.686166 -1.146983
v -2.361961 0.685674 -1.145913
v -2.360168 0.687351 -1.145181
v -2.360445 0.686937 -1.143547
v -2.36219 0.685429 -1.144784
v -2.361926 0.685683 -1.143689
v -2.360727 0.686696 -1.142299
v -2.344569 0.696819 -1.138047
v -2.343771 0.697411 -1.140257
v -2.341628 0.698188 -1.139794
v -2.342652 0.697593 -1.137942
v -2.344074 0.697147 -1.136869
v -2.345623 0.696516 -1.136394
v -2.347901 0.695439 -1.136392
v -2.347227 0.695689 -1.138347
v -2.346668 0.696295 -1.140905
v -2.344151 0.698305 -1.142477
v -2.344893 0.699113 -1.14413
v -2.343484 0.699245 -1.14312
v -2.34229 0.698879 -1.141773
v -2.346753 0.697373 -1.143366
v -2.347074 0.698382 -1.14516
v -2.354982 0.692386 -1.145751
v -2.355029 0.693229 -1.147528
v -2.352437 0.695266 -1.146822
v -2.352372 0.694355 -1.144971
v -2.352462 0.693333 -1.142446
v -2.355081 0.691427 -1.143333
v -2.357562 0.689337 -1.144269
v -2.357485 0.690193 -1.146408
v -2.357545 0.690953 -1.147978
v -2.355445 0.690741 -1.140848
v -2.352856 0.692634 -1.139842
v -2.353284 0.692257 -1.137858
v -2.355837 0.690353 -1.138959
v -2.35826 0.688407 -1.140393
v -2.357895 0.688737 -1.142067
v -2.350053 0.694288 -1.138977
v -2.349611 0.694946 -1.141636
v -2.350547 0.693986 -1.136941
v -2.349561 0.696037 -1.144186
v -2.349687 0.697041 -1.146045
v -2.359974 0.68784 -1.146823
v -2.360069 0.688458 -1.147986
v -2.360001 0.687169 -1.145226
v -2.361835 0.685538 -1.145947
v -2.361856 0.686037 -1.147034
v -2.361459 0.686917 -1.147687
v -2.360281 0.686749 -1.14357
v -2.360605 0.686551 -1.142305
v -2.361835 0.685577 -1.143695
v -2.362066 0.685287 -1.1448
v -2.360157 0.688719 -1.148344
v -2.362025 0.686581 -1.147837
v -2.35762 0.691262 -1.148472
v -2.361459 0.686917 -1.147687
v -2.362716 0.684863 -1.145203
v -2.362399 0.685251 -1.143874
v -2.362503 0.685054 -1.146172
v -2.361835 0.685577 -1.143695
v -2.346007 0.696493 -1.135844
v -2.344047 0.69728 -1.136566
v -2.348163 0.695431 -1.13574
v -2.344074 0.697147 -1.136869
v -2.341704 0.699138 -1.141505
v -2.343414 0.699531 -1.143273
v -2.340948 0.698519 -1.139619
v -2.343484 0.699245 -1.14312
v -2.345177 0.699445 -1.144639
v -2.347221 0.69878 -1.14572
v -2.362539 0.685493 -1.147081
v -2.360767 0.68655 -1.141883
v -2.358435 0.688363 -1.139833
v -2.342044 0.697928 -1.137899
v -2.350753 0.693958 -1.136261
v -2.353472 0.692202 -1.137194
v -2.349774 0.697437 -1.146629
v -2.352509 0.695629 -1.147407
v -2.355097 0.693568 -1.148091
v -2.356019 0.690292 -1.138327
vn -0.3711 0.9274 0.0469
vn -0.3803 0.887 0.2618
vn -0.4348 0.8653 0.2494
vn -0.4291 0.9014 0.057
vn -0.4529 0.8895 0.0607
vn -0.3729 0.9262 0.0547
vn -0.3146 0.9478 0.0511
vn -0.2915 0.9508 0.1043
vn -0.2928 0.9145 0.2793
vn -0.4097 0.7901 0.4558
vn -0.4101 0.7939 0.4488
vn -0.4857 0.7727 0.4086
vn -0.4636 0.7787 0.4226
vn -0.3231 0.8387 0.4383
vn -0.3546 0.8057 0.4744
vn -0.6518 0.7011 0.2889
vn -0.6571 0.7103 0.2523
vn -0.6809 0.6917 0.2407
vn -0.6768 0.6778 0.2871
vn -0.6784 0.7135 0.1754
vn -0.6467 0.7394 0.1871
vn -0.5795 0.7875 0.2096
vn -0.5924 0.7388 0.3212
vn -0.6056 0.7403 0.2918
vn -0.6325 0.77 0.0836
vn -0.656 0.7517 0.0669
vn -0.6686 0.7353 0.1108
vn -0.6443 0.7558 0.1168
vn -0.5888 0.8004 0.1126
vn -0.5707 0.8161 0.0909
vn -0.4944 0.8654 0.081
vn -0.5004 0.8339 0.2326
vn -0.5195 0.8496 0.0909
vn -0.5218 0.768 0.3713
vn -0.544 0.7627 0.3498
vn -0.6872 0.6585 0.3066
vn -0.6956 0.6711 0.2561
vn -0.7082 0.6478 0.2807
vn -0.727 0.6125 0.3104
vn -0.7322 0.6635 0.1536
vn -0.6929 0.7008 0.1698
vn -0.6619 0.7486 0.0382
vn -0.6979 0.7162 0.0011
vn -0.6864 0.7256 0.0486
vn -0.6795 0.7288 0.084
vn 0.3875 -0.9217 -0.0146
vn 0.3954 -0.8813 -0.2584
vn 0.4529 -0.8572 -0.2449
vn 0.4303 -0.8989 0.0822
vn 0.4256 -0.8819 0.2029
vn 0.4234 -0.8884 0.1771
vn 0.4419 -0.8904 0.1087
vn 0.4278 -0.9029 -0.0418
vn 0.4346 -0.8654 -0.2494
vn 0.431 -0.7672 -0.475
vn 0.4967 -0.6279 -0.5992
vn 0.5028 -0.6073 -0.6152
vn 0.4881 -0.6934 -0.53
vn 0.465 -0.7707 -0.4356
vn 0.5035 -0.6715 -0.5437
vn 0.6511 -0.6954 -0.3041
vn 0.6403 -0.651 -0.4075
vn 0.598 -0.6753 -0.4316
vn 0.5923 -0.7327 -0.335
vn 0.5796 -0.7875 -0.2096
vn 0.6468 -0.7393 -0.1871
vn 0.6785 -0.7134 -0.1754
vn 0.6743 -0.6724 -0.3053
vn 0.6402 -0.6374 -0.4286
vn 0.6289 -0.7745 -0.0684
vn 0.5679 -0.8195 -0.0764
vn 0.554 -0.8318 0.0345
vn 0.5983 -0.8003 0.0374
vn 0.5939 -0.8021 0.062
vn 0.6502 -0.7581 -0.0497
vn 0.4921 -0.868 -0.0667
vn 0.5004 -0.8339 -0.2326
vn 0.4915 -0.8689 0.0583
vn 0.522 -0.7614 -0.3844
vn 0.5425 -0.6873 -0.483
vn 0.6721 -0.6601 -0.3354
vn 0.6073 -0.6296 -0.4845
vn 0.6841 -0.7085 -0.1732
vn 0.6444 -0.7412 -0.188
vn 0.6142 -0.6685 -0.4194
vn 0.5817 -0.627 -0.5182
vn 0.6423 -0.7662 -0.0191
vn 0.5517 -0.8274 0.1049
vn 0.5206 -0.844 0.1285
vn 0.5717 -0.8198 0.0317
vn -0.3269 0.2013 -0.9234
vn -0.611 -0.0666 -0.7888
vn -0.1925 0.2799 -0.9405
vn 0.5817 -0.627 -0.5182
vn -0.7519 -0.6579 -0.0415
vn -0.7301 -0.491 0.4753
vn -0.6389 -0.7089 -0.2986
vn 0.5206 -0.844 0.1285
vn 0.0711 0.1209 0.9901
vn 0.3561 0.2448 0.9018
vn -0.0979 -0.0052 0.9952
vn 0.4256 -0.8819 0.2029
vn 0.8087 0.5233 -0.2685
vn 0.4884 0.7153 -0.4999
vn 0.9446 0.2737 0.1811
vn 0.5028 -0.6073 -0.6152
vn 0.2298 0.6852 -0.6911
vn 0.0712 0.5969 -0.7991
vn -0.71 -0.5077 -0.488
vn -0.4884 -0.3733 0.7887
vn -0.3637 -0.3282 0.8718
vn 0.721 0.2117 0.6597
vn -0.1952 -0.1144 0.9741
vn -0.2388 -0.1872 0.9528
vn -0.022 0.5025 -0.8643
vn -0.0639 0.4343 -0.8985
vn -0.1044 0.3634 -0.9257
vn -0.2794 -0.2578 0.9249
vt 0.839504 0.118056
vt 0.856743 0.205307
vt 0.741230 0.205307
vt 0.734555 0.106726
vt 0.724541 0.032791
vt 0.813647 0.052618
vt 0.868992 0.081539
vt 0.913398 0.129584
vt 0.940923 0.205307
vt 0.839504 0.292557
vt 0.813647 0.357995
vt 0.724541 0.377822
vt 0.734555 0.303887
vt 0.913398 0.281029
vt 0.868992 0.329074
vt 0.369475 0.299954
vt 0.368286 0.370940
vt 0.245840 0.351447
vt 0.246397 0.288815
vt 0.246768 0.205307
vt 0.370268 0.205307
vt 0.494283 0.205307
vt 0.492822 0.304944
vt 0.490632 0.379672
vt 0.369475 0.110659
vt 0.246397 0.121798
vt 0.245841 0.059166
vt 0.368286 0.039673
vt 0.490632 0.030941
vt 0.492822 0.105669
vt 0.616755 0.103478
vt 0.619174 0.205307
vt 0.613127 0.027106
vt 0.616755 0.307135
vt 0.613126 0.383507
vt 0.123273 0.268175
vt 0.123047 0.315326
vt 0.054743 0.283353
vt 0.030912 0.249131
vt 0.030973 0.205306
vt 0.123423 0.205306
vt 0.123273 0.142438
vt 0.030912 0.161481
vt 0.054744 0.127260
vt 0.123047 0.095287
vt 0.839504 0.118056
vt 0.856743 0.205307
vt 0.968983 0.205307
vt 0.938030 0.133427
vt 0.876123 0.061548
vt 0.805028 0.030806
vt 0.721203 0.008146
vt 0.734555 0.106726
vt 0.741230 0.205307
vt 0.839504 0.292557
vt 0.805028 0.379807
vt 0.876123 0.349065
vt 0.938030 0.277186
vt 0.734555 0.303887
vt 0.721203 0.402467
vt 0.369475 0.299954
vt 0.367890 0.394602
vt 0.489902 0.404581
vt 0.492822 0.304944
vt 0.494283 0.205307
vt 0.370268 0.205307
vt 0.246768 0.205307
vt 0.246397 0.288815
vt 0.245655 0.372324
vt 0.369475 0.110659
vt 0.492822 0.105669
vt 0.489902 0.006032
vt 0.367890 0.016011
vt 0.245655 0.038289
vt 0.246397 0.121798
vt 0.616755 0.103478
vt 0.619174 0.205307
vt 0.611917 0.001649
vt 0.616755 0.307135
vt 0.611917 0.408964
vt 0.123273 0.268175
vt 0.122972 0.331043
vt 0.123423 0.205306
vt 0.000156 0.205306
vt 0.000125 0.242784
vt 0.000064 0.280261
vt 0.123273 0.142438
vt 0.122972 0.079570
vt 0.000064 0.130352
vt 0.000125 0.167829
vt 0.122972 0.331043
vt 0.030806 0.283587
vt 0.245655 0.372324
vt 0.030806 0.283587
vt 0.000125 0.167829
vt 0.030806 0.127026
vt 0.000156 0.205306
vt 0.030806 0.127026
vt 0.805028 0.030806
vt 0.873826 0.071832
vt 0.721203 0.008146
vt 0.873826 0.071832
vt 0.938030 0.277186
vt 0.873826 0.338781
vt 0.968983 0.205307
vt 0.873826 0.338781
vt 0.805028 0.379807
vt 0.721203 0.402467
vt 0.000125 0.242784
vt 0.122972 0.079570
vt 0.245655 0.038289
vt 0.938030 0.133427
vt 0.611917 0.001649
vt 0.489902 0.006032
vt 0.611917 0.408964
vt 0.489902 0.404581
vt 0.367890 0.394602
vt 0.367890 0.016011
f 1/1/1 2/2/2 3/3/3
f 1/1/1 3/3/3 4/4/4
f 1/1/1 4/4/4 5/5/5
f 1/1/1 5/5/5 6/6/6
f 1/1/1 6/6/6 7/7/7
f 1/1/1 7/7/7 8/8/8
f 1/1/1 8/8/8 9/9/9
f 1/1/1 9/9/9 2/2/2
f 10/10/10 11/11/11 12/12/12
f 10/10/10 12/12/12 13/13/13
f 10/10/10 13/13/13 3/3/3
f 10/10/10 3/3/3 2/2/2
f 10/10/10 2/2/2 9/9/9
f 10/10/10 9/9/9 14/14/14
f 10/10/10 14/14/14 15/15/15
f 10/10/10 15/15/15 11/11/11
f 16/16/16 17/17/17 18/18/18
f 16/16/16 18/18/18 19/19/19
f 16/16/16 19/19/19 20/20/20
f 16/16/16 20/20/20 21/21/21
f 16/16/16 21/21/21 22/22/22
f 16/16/16 22/22/22 23/23/23
f 16/16/16 23/23/23 24/24/24
f 16/16/16 24/24/24 17/17/17
f 25/25/25 21/21/21 20/20/20
f 25/25/25 20/20/20 26/26/26
f 25/25/25 26/26/26 27/27/27
f 25/25/25 27/27/27 28/28/28
f 25/25/25 28/28/28 29/29/29
f 25/25/25 29/29/29 30/30/30
f 25/25/25 30/30/30 22/22/22
f 25/25/25 22/22/22 21/21/21
f 31/31/31 32/32/32 22/22/22
f 31/31/31 22/22/22 30/30/30
f 31/31/31 30/30/30 29/29/29
f 31/31/31 29/29/29 33/33/33
f 31/31/31 33/33/33 5/5/5
f 31/31/31 5/5/5 4/4/4
f 31/31/31 4/4/4 3/3/3
f 31/31/31 3/3/3 32/32/32
f 34/34/34 35/35/35 24/24/24
f 34/34/34 24/24/24 23/23/23
f 34/34/34 23/23/23 22/22/22
f 34/34/34 22/22/22 32/32/32
f 34/34/34 32/32/32 3/3/3
f 34/34/34 3/3/3 13/13/13
f 34/34/34 13/13/13 12/12/12
f 34/34/34 12/12/12 35/35/35
f 36/36/36 37/37/37 38/38/38
f 36/36/36 38/38/38 39/39/39
f 36/36/36 39/39/39 40/40/40
f 36/36/36 40/40/40 41/41/41
f 36/36/36 41/41/41 20/20/20
f 36/36/36 20/20/20 19/19/19
f 36/36/36 19/19/19 18/18/18
f 36/36/36 18/18/18 37/37/37
f 42/42/42 41/41/41 40/40/40
f 42/42/42 40/40/40 43/43/43
f 42/42/42 43/43/43 44/44/44
f 42/42/42 44/44/44 45/45/45
f 42/42/42 45/45/45 27/27/27
f 42/42/42 27/27/27 26/26/26
f 42/42/42 26/26/26 20/20/20
f 42/42/42 20/20/20 41/41/41
f 46/46/46 47/47/47 48/48/48
f 46/46/46 48/48/48 49/49/49
f 46/46/46 49/49/49 50/50/50
f 46/46/46 50/50/50 51/51/51
f 46/46/46 51/51/51 52/52/52
f 46/46/46 52/52/52 53/53/53
f 46/46/46 53/53/53 54/54/54
f 46/46/46 54/54/54 47/47/47
f 55/55/55 56/56/56 57/57/57
f 55/55/55 57/57/57 58/58/58
f 55/55/55 58/58/58 48/48/48
f 55/55/55 48/48/48 47/47/47
f 55/55/55 47/47/47 54/54/54
f 55/55/55 54/54/54 59/59/59
f 55/55/55 59/59/59 60/60/60
f 55/55/55 60/60/60 56/56/56
f 61/61/61 62/62/62 63/63/63
f 61/61/61 63/63/63 64/64/64
f 61/61/61 64/64/64 65/65/65
f 61/61/61 65/65/65 66/66/66
f 61/61/61 66/66/66 67/67/67
f 61/61/61 67/67/67 68/68/68
f 61/61/61 68/68/68 69/69/69
f 61/61/61 69/69/69 62/62/62
f 70/70/70 66/66/66 65/65/65
f 70/70/70 65/65/65 71/71/71
f 70/70/70 71/71/71 72/72/72
f 70/70/70 72/72/72 73/73/73
f 70/70/70 73/73/73 74/74/74
f 70/70/70 74/74/74 75/75/75
f 70/70/70 75/75/75 67/67/67
f 70/70/70 67/67/67 66/66/66
f 76/76/76 77/77/77 54/54/54
f 76/76/76 54/54/54 53/53/53
f 76/76/76 53/53/53 52/52/52
f 76/76/76 52/52/52 78/78/78
f 76/76/76 78/78/78 72/72/72
f 76/76/76 72/72/72 71/71/71
f 76/76/76 71/71/71 65/65/65
f 76/76/76 65/65/65 77/77/77
f 79/79/79 80/80/80 60/60/60
f 79/79/79 60/60/60 59/59/59
f 79/79/79 59/59/59 54/54/54
f 79/79/79 54/54/54 77/77/77
f 79/79/79 77/77/77 65/65/65
f 79/79/79 65/65/65 64/64/64
f 79/79/79 64/64/64 63/63/63
f 79/79/79 63/63/63 80/80/80
f 81/81/81 82/82/82 69/69/69
f 81/81/81 69/69/69 68/68/68
f 81/81/81 68/68/68 67/67/67
f 81/81/81 67/67/67 83/83/83
f 81/81/81 83/83/83 84/84/84
f 81/81/81 84/84/84 85/85/85
f 81/81/81 85/85/85 86/86/86
f 81/81/81 86/86/86 82/82/82
f 87/87/87 83/83/83 67/67/67
f 87/87/87 67/67/67 75/75/75
f 87/87/87 75/75/75 74/74/74
f 87/87/87 74/74/74 88/88/88
f 87/87/87 88/88/88 89/89/89
f 87/87/87 89/89/89 90/90/90
f 87/87/87 90/90/90 84/84/84
f 87/87/87 84/84/84 83/83/83
f 91/91/91 92/92/92 38/38/38
f 91/91/91 38/38/38 37/37/37
f 91/91/91 37/37/37 18/18/18
f 91/91/91 18/18/18 93/93/93
f 91/91/91 93/93/93 69/69/69
f 91/91/91 69/69/69 82/82/82
f 91/91/91 82/82/82 94/94/94
f 91/91/91 94/94/94 92/92/92
f 95/95/95 96/96/96 44/44/44
f 95/95/95 44/44/44 43/43/43
f 95/95/95 43/43/43 40/40/40
f 95/95/95 40/40/40 97/97/97
f 95/95/95 97/97/97 84/84/84
f 95/95/95 84/84/84 90/90/90
f 95/95/95 90/90/90 98/98/98
f 95/95/95 98/98/98 96/96/96
f 99/99/99 100/100/100 7/7/7
f 99/99/99 7/7/7 6/6/6
f 99/99/99 6/6/6 5/5/5
f 99/99/99 5/5/5 101/101/101
f 99/99/99 101/101/101 52/52/52
f 99/99/99 52/52/52 51/51/51
f 99/99/99 51/51/51 102/102/102
f 99/99/99 102/102/102 100/100/100
f 103/103/103 104/104/104 15/15/15
f 103/103/103 15/15/15 14/14/14
f 103/103/103 14/14/14 9/9/9
f 103/103/103 9/9/9 105/105/105
f 103/103/103 105/105/105 48/48/48
f 103/103/103 48/48/48 58/58/58
f 103/103/103 58/58/58 106/106/106
f 103/103/103 106/106/106 104/104/104
f 107/107/107 108/108/108 12/12/12
f 107/107/107 12/12/12 11/11/11
f 107/107/107 11/11/11 15/15/15
f 107/107/107 15/15/15 104/104/104
f 107/107/107 104/104/104 106/106/106
f 107/107/107 106/106/106 56/56/56
f 107/107/107 56/56/56 60/60/60
f 107/107/107 60/60/60 108/108/108
f 109/109/109 97/97/97 40/40/40
f 109/109/109 40/40/40 39/39/39
f 109/109/109 39/39/39 38/38/38
f 109/109/109 38/38/38 92/92/92
f 109/109/109 92/92/92 94/94/94
f 109/109/109 94/94/94 85/85/85
f 109/109/109 85/85/85 84/84/84
f 109/109/109 84/84/84 97/97/97
f 110/110/110 111/111/111 27/27/27
f 110/110/110 27/27/27 45/45/45
f 110/110/110 45/45/45 44/44/44
f 110/110/110 44/44/44 96/96/96
f 110/110/110 96/96/96 98/98/98
f 110/110/110 98/98/98 88/88/88
f 110/110/110 88/88/88 74/74/74
f 110/110/110 74/74/74 111/111/111
f 112/112/112 105/105/105 9/9/9
f 112/112/112 9/9/9 8/8/8
f 112/112/112 8/8/8 7/7/7
f 112/112/112 7/7/7 100/100/100
f 112/112/112 100/100/100 102/102/102
f 112/112/112 102/102/102 49/49/49
f 112/112/112 49/49/49 48/48/48
f 112/112/112 48/48/48 105/105/105
f 113/113/113 101/101/101 5/5/5
f 113/113/113 5/5/5 33/33/33
f 113/113/113 33/33/33 29/29/29
f 113/113/113 29/29/29 114/114/114
f 113/113/113 114/114/114 72/72/72
f 113/113/113 72/72/72 78/78/78
f 113/113/113 78/78/78 52/52/52
f 113/113/113 52/52/52 101/101/101
f 115/115/115 116/116/116 24/24/24
f 115/115/115 24/24/24 35/35/35
f 115/115/115 35/35/35 12/12/12
f 115/115/115 12/12/12 108/108/108
f 115/115/115 108/108/108 60/60/60
f 115/115/115 60/60/60 80/80/80
f 115/115/115 80/80/80 63/63/63
f 115/115/115 63/63/63 116/116/116
f 117/117/117 93/93/93 18/18/18
f 117/117/117 18/18/18 17/17/17
f 117/117/117 17/17/17 24/24/24
f 117/117/117 24/24/24 116/116/116
f 117/117/117 116/116/116 63/63/63
f 117/117/117 63/63/63 62/62/62
f 117/117/117 62/62/62 69/69/69
f 117/117/117 69/69/69 93/93/93
f 118/118/118 114/114/114 29/29/29
f 118/118/118 29/29/29 28/28/28
f 118/118/118 28/28/28 27/27/27
f 118/118/118 27/27/27 111/111/111
f 118/118/118 111/111/111 74/74/74
f 118/118/118 74/74/74 73/73/73
f 118/118/118 73/73/73 72/72/72
f 118/118/118 72/72/72 114/114/114
