v -2.393843 0.796728 -1.184293
v -2.396325 0.796663 -1.186061
v -2.397782 0.795272 -1.182538
v -2.394793 0.795419 -1.180947
v -2.392633 0.795738 -1.179487
v -2.392161 0.796906 -1.182457
v -2.392346 0.797359 -1.184622
v -2.39326 0.797509 -1.186759
v -2.395247 0.797551 -1.188689
v -2.399326 0.797042 -1.186437
v -2.401778 0.797457 -1.186216
v -2.403558 0.796363 -1.183757
v -2.401025 0.795776 -1.183384
v -2.398007 0.797781 -1.188614
v -2.400134 0.797805 -1.187666
v -2.405278 0.789395 -1.173254
v -2.407641 0.789775 -1.173946
v -2.408375 0.786996 -1.170647
v -2.40628 0.786647 -1.170049
v -2.403533 0.786317 -1.169139
v -2.402176 0.789033 -1.172212
v -2.400771 0.791499 -1.175444
v -2.40402 0.791904 -1.176519
v -2.406499 0.79234 -1.177219
v -2.399171 0.789045 -1.170866
v -2.40088 0.786338 -1.167938
v -2.398911 0.786454 -1.166948
v -2.396941 0.789162 -1.169763
v -2.395307 0.791699 -1.172843
v -2.397633 0.791538 -1.174022
v -2.396115 0.793676 -1.177453
v -2.399285 0.793565 -1.178943
v -2.393776 0.793947 -1.176183
v -2.402596 0.794047 -1.179987
v -2.405135 0.794597 -1.180624
v -2.406936 0.783786 -1.166764
v -2.408517 0.7841 -1.167165
v -2.408185 0.782355 -1.165167
v -2.407295 0.781568 -1.164295
v -2.405868 0.781318 -1.163898
v -2.404875 0.7835 -1.166119
v -2.402906 0.783556 -1.165188
v -2.404533 0.781409 -1.163215
v -2.403216 0.78207 -1.163225
v -2.40145 0.783695 -1.164403
v -2.393773 0.796434 -1.184394
v -2.396296 0.796368 -1.186178
v -2.395227 0.797328 -1.188773
v -2.393207 0.797288 -1.186829
v -2.392298 0.797196 -1.184672
v -2.392088 0.796688 -1.182524
v -2.392562 0.795522 -1.179565
v -2.394723 0.79513 -1.181061
v -2.397748 0.794982 -1.182667
v -2.399338 0.796753 -1.18657
v -2.401808 0.797244 -1.186323
v -2.400151 0.797646 -1.187742
v -2.39802 0.797563 -1.188711
v -2.401028 0.795491 -1.183526
v -2.403578 0.796153 -1.183871
v -2.40525 0.789137 -1.173441
v -2.407633 0.789583 -1.174091
v -2.406498 0.792142 -1.177354
v -2.404 0.791636 -1.176693
v -2.400723 0.791229 -1.175608
v -2.402122 0.788773 -1.17239
v -2.403474 0.786064 -1.169326
v -2.406248 0.786397 -1.170246
v -2.408364 0.78681 -1.170799
v -2.399091 0.788784 -1.171033
v -2.397556 0.791267 -1.174174
v -2.395236 0.791497 -1.172951
v -2.396868 0.788966 -1.169882
v -2.398834 0.786264 -1.167074
v -2.400795 0.786084 -1.168114
v -2.396042 0.793395 -1.177586
v -2.399245 0.793284 -1.179088
v -2.393706 0.793737 -1.176276
v -2.402587 0.79377 -1.180144
v -2.405144 0.794392 -1.180748
v -2.406904 0.783539 -1.166965
v -2.408507 0.783916 -1.167321
v -2.404814 0.783249 -1.16631
v -2.405823 0.78113 -1.164042
v -2.407272 0.781383 -1.164446
v -2.408174 0.782219 -1.165281
v -2.402818 0.783305 -1.165367
v -2.40137 0.783507 -1.16453
v -2.40316 0.781931 -1.163321
v -2.404466 0.781222 -1.163349
v -2.409042 0.784123 -1.167369
v -2.40845 0.781795 -1.164584
v -2.409071 0.78703 -1.170915
v -2.408174 0.782219 -1.165281
v -2.405046 0.780611 -1.162617
v -2.403472 0.78151 -1.162638
v -2.406179 0.780507 -1.163222
v -2.40316 0.781931 -1.163321
v -2.391564 0.796869 -1.181872
v -2.391969 0.797459 -1.184628
v -2.391878 0.795749 -1.179033
v -2.392298 0.797196 -1.184672
v -2.397573 0.79793 -1.189382
v -2.400395 0.797941 -1.187922
v -2.394879 0.797747 -1.189602
v -2.400151 0.797646 -1.187742
v -2.402613 0.797502 -1.186192
v -2.404415 0.796467 -1.183934
v -2.407405 0.780746 -1.16354
v -2.400925 0.783658 -1.164196
v -2.398218 0.786408 -1.166673
v -2.393043 0.797671 -1.187611
v -2.392962 0.793944 -1.1758
v -2.394497 0.791663 -1.172497
v -2.405989 0.79469 -1.180893
v -2.407328 0.792398 -1.177513
v -2.408428 0.789816 -1.174242
v -2.396162 0.789114 -1.169447
vn -0.2791 0.9261 0.2539
vn -0.0718 0.944 0.3221
vn -0.0933 0.9228 0.3738
vn -0.2794 0.9069 0.3153
vn -0.2797 0.8977 0.3404
vn -0.272 0.9272 0.2577
vn -0.2645 0.9438 0.1982
vn -0.2092 0.9594 0.1892
vn -0.0378 0.9702 0.2391
vn 0.1237 0.903 0.4113
vn 0.1161 0.9049 0.4094
vn 0.0629 0.878 0.4744
vn 0.0806 0.8863 0.456
vn 0.1198 0.9405 0.3178
vn 0.1525 0.9199 0.3612
vn -0.0775 0.7868 0.6123
vn -0.1151 0.7862 0.607
vn -0.1282 0.7665 0.6292
vn -0.0805 0.7652 0.6387
vn -0.1934 0.7703 0.6075
vn -0.1799 0.7967 0.5769
vn -0.1518 0.8453 0.5122
vn -0.0399 0.8283 0.5588
vn -0.0714 0.8227 0.564
vn -0.2796 0.7983 0.5333
vn -0.2974 0.7776 0.5539
vn -0.256 0.7739 0.5792
vn -0.2485 0.7939 0.5548
vn -0.2477 0.8328 0.495
vn -0.2667 0.8413 0.4702
vn -0.2666 0.882 0.3884
vn -0.1196 0.8917 0.4365
vn -0.2605 0.8708 0.417
vn 0.0193 0.8657 0.5002
vn -0.0055 0.8561 0.5167
vn -0.0605 0.7523 0.6561
vn -0.113 0.7516 0.6499
vn -0.088 0.7362 0.671
vn -0.0572 0.711 0.7008
vn -0.2167 0.7194 0.6599
vn -0.1996 0.7574 0.6216
vn -0.325 0.7674 0.5527
vn -0.3618 0.7285 0.5817
vn -0.3166 0.7494 0.5815
vn -0.2825 0.7613 0.5835
vn 0.3122 -0.9131 -0.2622
vn 0.0778 -0.9385 -0.3365
vn 0.1005 -0.9148 -0.3911
vn 0.4089 -0.868 -0.2815
vn 0.516 -0.8198 -0.2485
vn 0.4929 -0.8327 -0.2522
vn 0.4346 -0.8536 -0.2869
vn 0.2936 -0.9042 -0.31
vn 0.0932 -0.9228 -0.3737
vn -0.1411 -0.8871 -0.4394
vn -0.2716 -0.789 -0.551
vn -0.2898 -0.7736 -0.5635
vn -0.1941 -0.8335 -0.5173
vn -0.0942 -0.882 -0.4617
vn -0.2078 -0.8168 -0.5381
vn 0.0617 -0.7851 -0.6162
vn -0.0481 -0.7689 -0.6375
vn -0.0764 -0.7963 -0.6
vn 0.0256 -0.8261 -0.5629
vn 0.1519 -0.8452 -0.5123
vn 0.18 -0.7966 -0.577
vn 0.1934 -0.7703 -0.6076
vn 0.0615 -0.7645 -0.6416
vn -0.071 -0.7614 -0.6444
vn 0.2939 -0.7985 -0.5254
vn 0.2802 -0.8406 -0.4634
vn 0.3826 -0.8226 -0.4205
vn 0.3901 -0.794 -0.4662
vn 0.4122 -0.7891 -0.4555
vn 0.3132 -0.779 -0.5432
vn 0.2798 -0.8807 -0.3822
vn 0.1196 -0.8917 -0.4365
vn 0.3963 -0.8488 -0.3499
vn -0.033 -0.8628 -0.5045
vn -0.1368 -0.8183 -0.5582
vn 0.0299 -0.7605 -0.6486
vn -0.1339 -0.7665 -0.6281
vn 0.1958 -0.7653 -0.6131
vn 0.1789 -0.7985 -0.5747
vn -0.0621 -0.7874 -0.6132
vn -0.173 -0.7714 -0.6123
vn 0.3415 -0.7783 -0.5269
vn 0.4465 -0.7998 -0.4011
vn 0.4639 -0.8079 -0.3633
vn 0.3821 -0.8129 -0.4395
vn -0.998 -0.0302 0.0551
vn -0.8876 -0.2376 0.3946
vn -0.9956 0.0335 -0.0873
vn -0.173 -0.7714 -0.6123
vn -0.09 -0.6035 0.7922
vn 0.3574 -0.3088 0.8814
vn -0.2859 -0.7265 0.6249
vn 0.4639 -0.8079 -0.3633
vn 0.9131 0.3719 0.1674
vn 0.88 0.4527 -0.1436
vn 0.901 0.2608 0.3465
vn 0.516 -0.8198 -0.2485
vn -0.1513 0.3899 -0.9083
vn -0.5004 0.5317 -0.6832
vn 0.3645 0.2596 -0.8942
vn -0.2898 -0.7736 -0.5635
vn -0.7429 0.4667 -0.48
vn -0.8663 0.362 -0.3441
vn -0.5298 -0.5784 0.6202
vn 0.6883 -0.1266 0.7143
vn 0.7893 -0.0685 0.6102
vn 0.7634 0.3374 -0.5507
vn 0.8803 0.1552 0.4482
vn 0.8658 0.0819 0.4935
vn -0.9304 0.259 -0.2594
vn -0.9576 0.1866 -0.2195
vn -0.9774 0.1131 -0.1784
vn 0.8454 0.0088 0.534
vt 0.839504 0.118056
vt 0.856743 0.205307
vt 0.741230 0.205307
vt 0.734555 0.106726
vt 0.724541 0.032791
vt 0.813647 0.052618
vt 0.868992 0.081539
vt 0.913398 0.129584
vt 0.940923 0.205307
vt 0.839504 0.292557
vt 0.813647 0.357995
vt 0.724541 0.377822
vt 0.734555 0.303887
vt 0.913398 0.281029
vt 0.868992 0.329074
vt 0.369475 0.299954
vt 0.368286 0.370940
vt 0.245840 0.351447
vt 0.246397 0.288815
vt 0.246768 0.205307
vt 0.370268 0.205307
vt 0.494283 0.205307
vt 0.492822 0.304944
vt 0.490632 0.379672
vt 0.369475 0.110659
vt 0.246397 0.121798
vt 0.245841 0.059166
vt 0.368286 0.039673
vt 0.490632 0.030941
vt 0.492822 0.105669
vt 0.616755 0.103478
vt 0.619174 0.205307
vt 0.613127 0.027106
vt 0.616755 0.307135
vt 0.613126 0.383507
vt 0.123273 0.268175
vt 0.123047 0.315326
vt 0.054743 0.283353
vt 0.030912 0.249131
vt 0.030973 0.205306
vt 0.123423 0.205306
vt 0.123273 0.142438
vt 0.030912 0.161481
vt 0.054744 0.127260
vt 0.123047 0.095287
vt 0.839504 0.118056
vt 0.856743 0.205307
vt 0.968983 0.205307
vt 0.938030 0.133427
vt 0.876123 0.061548
vt 0.805028 0.030806
vt 0.721203 0.008146
vt 0.734555 0.106726
vt 0.741230 0.205307
vt 0.839504 0.292557
vt 0.805028 0.379807
vt 0.876123 0.349065
vt 0.938030 0.277186
vt 0.734555 0.303887
vt 0.721203 0.402467
vt 0.369475 0.299954
vt 0.367890 0.394602
vt 0.489902 0.404581
vt 0.492822 0.304944
vt 0.494283 0.205307
vt 0.370268 0.205307
vt 0.246768 0.205307
vt 0.246397 0.288815
vt 0.245655 0.372324
vt 0.369475 0.110659
vt 0.492822 0.105669
vt 0.489902 0.006032
vt 0.367890 0.016011
vt 0.245655 0.038289
vt 0.246397 0.121798
vt 0.616755 0.103478
vt 0.619174 0.205307
vt 0.611917 0.001649
vt 0.616755 0.307135
vt 0.611917 0.408964
vt 0.123273 0.268175
vt 0.122972 0.331043
vt 0.123423 0.205306
vt 0.000156 0.205306
vt 0.000125 0.242784
vt 0.000064 0.280261
vt 0.123273 0.142438
vt 0.122972 0.079570
vt 0.000064 0.130352
vt 0.000125 0.167829
vt 0.122972 0.331043
vt 0.030806 0.283587
vt 0.245655 0.372324
vt 0.030806 0.283587
vt 0.000125 0.167829
vt 0.030806 0.127026
vt 0.000156 0.205306
vt 0.030806 0.127026
vt 0.805028 0.030806
vt 0.873826 0.071832
vt 0.721203 0.008146
vt 0.873826 0.071832
vt 0.938030 0.277186
vt 0.873826 0.338781
vt 0.968983 0.205307
vt 0.873826 0.338781
vt 0.805028 0.379807
vt 0.721203 0.402467
vt 0.000125 0.242784
vt 0.122972 0.079570
vt 0.245655 0.038289
vt 0.938030 0.133427
vt 0.611917 0.001649
vt 0.489902 0.006032
vt 0.611917 0.408964
vt 0.489902 0.404581
vt 0.367890 0.394602
vt 0.367890 0.016011
f 1/1/1 2/2/2 3/3/3
f 1/1/1 3/3/3 4/4/4
f 1/1/1 4/4/4 5/5/5
f 1/1/1 5/5/5 6/6/6
f 1/1/1 6/6/6 7/7/7
f 1/1/1 7/7/7 8/8/8
f 1/1/1 8/8/8 9/9/9
f 1/1/1 9/9/9 2/2/2
f 10/10/10 11/11/11 12/12/12
f 10/10/10 12/12/12 13/13/13
f 10/10/10 13/13/13 3/3/3
f 10/10/10 3/3/3 2/2/2
f 10/10/10 2/2/2 9/9/9
f 10/10/10 9/9/9 14/14/14
f 10/10/10 14/14/14 15/15/15
f 10/10/10 15/15/15 11/11/11
f 16/16/16 17/17/17 18/18/18
f 16/16/16 18/18/18 19/19/19
f 16/16/16 19/19/19 20/20/20
f 16/16/16 20/20/20 21/21/21
f 16/16/16 21/21/21 22/22/22
f 16/16/16 22/22/22 23/23/23
f 16/16/16 23/23/23 24/24/24
f 16/16/16 24/24/24 17/17/17
f 25/25/25 21/21/21 20/20/20
f 25/25/25 20/20/20 26/26/26
f 25/25/25 26/26/26 27/27/27
f 25/25/25 27/27/27 28/28/28
f 25/25/25 28/28/28 29/29/29
f 25/25/25 29/29/29 30/30/30
f 25/25/25 30/30/30 22/22/22
f 25/25/25 22/22/22 21/21/21
f 31/31/31 32/32/32 22/22/22
f 31/31/31 22/22/22 30/30/30
f 31/31/31 30/30/30 29/29/29
f 31/31/31 29/29/29 33/33/33
f 31/31/31 33/33/33 5/5/5
f 31/31/31 5/5/5 4/4/4
f 31/31/31 4/4/4 3/3/3
f 31/31/31 3/3/3 32/32/32
f 34/34/34 35/35/35 24/24/24
f 34/34/34 24/24/24 23/23/23
f 34/34/34 23/23/23 22/22/22
f 34/34/34 22/22/22 32/32/32
f 34/34/34 32/32/32 3/3/3
f 34/34/34 3/3/3 13/13/13
f 34/34/34 13/13/13 12/12/12
f 34/34/34 12/12/12 35/35/35
f 36/36/36 37/37/37 38/38/38
f 36/36/36 38/38/38 39/39/39
f 36/36/36 39/39/39 40/40/40
f 36/36/36 40/40/40 41/41/41
f 36/36/36 41/41/41 20/20/20
f 36/36/36 20/20/20 19/19/19
f 36/36/36 19/19/19 18/18/18
f 36/36/36 18/18/18 37/37/37
f 42/42/42 41/41/41 40/40/40
f 42/42/42 40/40/40 43/43/43
f 42/42/42 43/43/43 44/44/44
f 42/42/42 44/44/44 45/45/45
f 42/42/42 45/45/45 27/27/27
f 42/42/42 27/27/27 26/26/26
f 42/42/42 26/26/26 20/20/20
f 42/42/42 20/20/20 41/41/41
f 46/46/46 47/47/47 48/48/48
f 46/46/46 48/48/48 49/49/49
f 46/46/46 49/49/49 50/50/50
f 46/46/46 50/50/50 51/51/51
f 46/46/46 51/51/51 52/52/52
f 46/46/46 52/52/52 53/53/53
f 46/46/46 53/53/53 54/54/54
f 46/46/46 54/54/54 47/47/47
f 55/55/55 56/56/56 57/57/57
f 55/55/55 57/57/57 58/58/58
f 55/55/55 58/58/58 48/48/48
f 55/55/55 48/48/48 47/47/47
f 55/55/55 47/47/47 54/54/54
f 55/55/55 54/54/54 59/59/59
f 55/55/55 59/59/59 60/60/60
f 55/55/55 60/60/60 56/56/56
f 61/61/61 62/62/62 63/63/63
f 61/61/61 63/63/63 64/64/64
f 61/61/61 64/64/64 65/65/65
f 61/61/61 65/65/65 66/66/66
f 61/61/61 66/66/66 67/67/67
f 61/61/61 67/67/67 68/68/68
f 61/61/61 68/68/68 69/69/69
f 61/61/61 69/69/69 62/62/62
f 70/70/70 66/66/66 65/65/65
f 70/70/70 65/65/65 71/71/71
f 70/70/70 71/71/71 72/72/72
f 70/70/70 72/72/72 73/73/73
f 70/70/70 73/73/73 74/74/74
f 70/70/70 74/74/74 75/75/75
f 70/70/70 75/75/75 67/67/67
f 70/70/70 67/67/67 66/66/66
f 76/76/76 77/77/77 54/54/54
f 76/76/76 54/54/54 53/53/53
f 76/76/76 53/53/53 52/52/52
f 76/76/76 52/52/52 78/78/78
f 76/76/76 78/78/78 72/72/72
f 76/76/76 72/72/72 71/71/71
f 76/76/76 71/71/71 65/65/65
f 76/76/76 65/65/65 77/77/77
f 79/79/79 80/80/80 60/60/60
f 79/79/79 60/60/60 59/59/59
f 79/79/79 59/59/59 54/54/54
f 79/79/79 54/54/54 77/77/77
f 79/79/79 77/77/77 65/65/65
f 79/79/79 65/65/65 64/64/64
f 79/79/79 64/64/64 63/63/63
f 79/79/79 63/63/63 80/80/80
f 81/81/81 82/82/82 69/69/69
f 81/81/81 69/69/69 68/68/68
f 81/81/81 68/68/68 67/67/67
f 81/81/81 67/67/67 83/83/83
f 81/81/81 83/83/83 84/84/84
f 81/81/81 84/84/84 85/85/85
f 81/81/81 85/85/85 86/86/86
f 81/81/81 86/86/86 82/82/82
f 87/87/87 83/83/83 67/67/67
f 87/87/87 67/67/67 75/75/75
f 87/87/87 75/75/75 74/74/74
f 87/87/87 74/74/74 88/88/88
f 87/87/87 88/88/88 89/89/89
f 87/87/87 89/89/89 90/90/90
f 87/87/87 90/90/90 84/84/84
f 87/87/87 84/84/84 83/83/83
f 91/91/91 92/92/92 38/38/38
f 91/91/91 38/38/38 37/37/37
f 91/91/91 37/37/37 18/18/18
f 91/91/91 18/18/18 93/93/93
f 91/91/91 93/93/93 69/69/69
f 91/91/91 69/69/69 82/82/82
f 91/91/91 82/82/82 94/94/94
f 91/91/91 94/94/94 92/92/92
f 95/95/95 96/96/96 44/44/44
f 95/95/95 44/44/44 43/43/43
f 95/95/95 43/43/43 40/40/40
f 95/95/95 40/40/40 97/97/97
f 95/95/95 97/97/97 84/84/84
f 95/95/95 84/84/84 90/90/90
f 95/95/95 90/90/90 98/98/98
f 95/95/95 98/98/98 96/96/96
f 99/99/99 100/100/100 7/7/7
f 99/99/99 7/7/7 6/6/6
f 99/99/99 6/6/6 5/5/5
f 99/99/99 5/5/5 101/101/101
f 99/99/99 101/101/101 52/52/52
f 99/99/99 52/52/52 51/51/51
f 99/99/99 51/51/51 102/102/102
f 99/99/99 102/102/102 100/100/100
f 103/103/103 104/104/104 15/15/15
f 103/103/103 15/15/15 14/14/14
f 103/103/103 14/14/14 9/9/9
f 103/103/103 9/9/9 105/105/105
f 103/103/103 105/105/105 48/48/48
f 103/103/103 48/48/48 58/58/58
f 103/103/103 58/58/58 106/106/106
f 103/103/103 106/106/106 104/104/104
f 107/107/107 108/108/108 12/12/12
f 107/107/107 12/12/12 11/11/11
f 107/107/107 11/11/11 15/15/15
f 107/107/107 15/15/15 104/104/104
f 107/107/107 104/104/104 106/106/106
f 107/107/107 106/106/106 56/56/56
f 107/107/107 56/56/56 60/60/60
f 107/107/107 60/60/60 108/108/108
f 109/109/109 97/97/97 40/40/40
f 109/109/109 40/40/40 39/39/39
f 109/109/109 39/39/39 38/38/38
f 109/109/109 38/38/38 92/92/92
f 109/109/109 92/92/92 94/94/94
f 109/109/109 94/94/94 85/85/85
f 109/109/109 85/85/85 84/84/84
f 109/109/109 84/84/84 97/97/97
f 110/110/110 111/111/111 27/27/27
f 110/110/110 27/27/27 45/45/45
f 110/110/110 45/45/45 44/44/44
f 110/110/110 44/44/44 96/96/96
f 110/110/110 96/96/96 98/98/98
f 110/110/110 98/98/98 88/88/88
f 110/110/110 88/88/88 74/74/74
f 110/110/110 74/74/74 111/111/111
f 112/112/112 105/105/105 9/9/9
f 112/112/112 9/9/9 8/8/8
f 112/112/112 8/8/8 7/7/7
f 112/112/112 7/7/7 100/100/100
f 112/112/112 100/100/100 102/102/102
f 112/112/112 102/102/102 49/49/49
f 112/112/112 49/49/49 48/48/48
f 112/112/112 48/48/48 105/105/105
f 113/113/113 101/101/101 5/5/5
f 113/113/113 5/5/5 33/33/33
f 113/113/113 33/33/33 29/29/29
f 113/113/113 29/29/29 114/114/114
f 113/113/113 114/114/114 72/72/72
f 113/113/113 72/72/72 78/78/78
f 113/113/113 78/78/78 52/52/52
f 113/113/113 52/52/52 101/101/101
f 115/115/115 116/116/116 24/24/24
f 115/115/115 24/24/24 35/35/35
f 115/115/115 35/35/35 12/12/12
f 115/115/115 12/12/12 108/108/108
f 115/115/115 108/108/108 60/60/60
f 115/115/115 60/60/60 80/80/80
f 115/115/115 80/80/80 63/63/63
f 115/115/115 63/63/63 116/116/116
f 117/117/117 93/93/93 18/18/18
f 117/117/117 18/18/18 17/17/17
f 117/117/117 17/17/17 24/24/24
f 117/117/117 24/24/24 116/116/116
f 117/117/117 116/116/116 63/63/63
f 117/117/117 63/63/63 62/62/62
f 117/117/117 62/62/62 69/69/69
f 117/117/117 69/69/69 93/93/93
f 118/118/118 114/114/114 29/29/29
f 118/118/118 29/29/29 28/28/28
f 118/118/118 28/28/28 27/27/27
f 118/118/118 27/27/27 111/111/111
f 118/118/118 111/111/111 74/74/74
f 118/118/118 74/74/74 73/73/73
f 118/118/118 73/73/73 72/72/72
f 118/118/118 72/72/72 114/114/114
