v -2.422996 0.74163 -1.102676
v -2.42359 0.741504 -1.100345
v -2.420614 0.74031 -1.100326
v -2.420293 0.740523 -1.102976
v -2.419826 0.74084 -1.104973
v -2.422119 0.741814 -1.104433
v -2.42365 0.742189 -1.103663
v -2.424958 0.742297 -1.102373
v -2.425811 0.742276 -1.100357
v -2.423001 0.741693 -1.098017
v -2.422127 0.741924 -1.096263
v -2.419836 0.740965 -1.095693
v -2.420298 0.740594 -1.097682
v -2.424963 0.742351 -1.098341
v -2.423656 0.742278 -1.097047
v -2.411781 0.73528 -1.097655
v -2.411606 0.735497 -1.095706
v -2.409036 0.733238 -1.096198
v -2.409202 0.733036 -1.097922
v -2.409325 0.73287 -1.100214
v -2.411908 0.735101 -1.100247
v -2.414629 0.737138 -1.100277
v -2.414483 0.737345 -1.097566
v -2.414279 0.737603 -1.095528
v -2.411775 0.73521 -1.102842
v -2.409197 0.732974 -1.10251
v -2.409028 0.73313 -1.104238
v -2.411597 0.735374 -1.104796
v -2.41427 0.737475 -1.105036
v -2.414478 0.737272 -1.102992
v -2.417385 0.739056 -1.103059
v -2.417579 0.738865 -1.100303
v -2.417111 0.739345 -1.105135
v -2.417391 0.73913 -1.097553
v -2.417121 0.739475 -1.095485
v -2.406666 0.730716 -1.09847
v -2.406502 0.730907 -1.097182
v -2.405169 0.72952 -1.098054
v -2.4048 0.728923 -1.098983
v -2.404922 0.728776 -1.100154
v -2.406787 0.730561 -1.10018
v -2.406662 0.73067 -1.101894
v -2.404797 0.728891 -1.101329
v -2.405164 0.729463 -1.102275
v -2.406496 0.730826 -1.103186
v -2.423097 0.741402 -1.102708
v -2.423692 0.741274 -1.100342
v -2.425885 0.742102 -1.100355
v -2.425031 0.742125 -1.102399
v -2.423704 0.742063 -1.103689
v -2.422195 0.741645 -1.104475
v -2.419909 0.740673 -1.10501
v -2.420404 0.740298 -1.103004
v -2.420726 0.740084 -1.100323
v -2.423102 0.741466 -1.097979
v -2.422203 0.741756 -1.096218
v -2.423711 0.742153 -1.097017
v -2.425035 0.74218 -1.098311
v -2.420409 0.74037 -1.097648
v -2.419919 0.740799 -1.095652
v -2.411933 0.735079 -1.09763
v -2.41172 0.735347 -1.095676
v -2.414384 0.737447 -1.095496
v -2.414623 0.737136 -1.097539
v -2.41477 0.736928 -1.100274
v -2.412061 0.734899 -1.100244
v -2.409486 0.732675 -1.100212
v -2.409362 0.732842 -1.097897
v -2.409155 0.733093 -1.096168
v -2.411928 0.735009 -1.102862
v -2.414618 0.737063 -1.103014
v -2.414374 0.737319 -1.105064
v -2.411711 0.735224 -1.104822
v -2.409147 0.732984 -1.104264
v -2.409358 0.73278 -1.10253
v -2.41751 0.738839 -1.103083
v -2.417705 0.738646 -1.1003
v -2.417205 0.739183 -1.105167
v -2.417516 0.738914 -1.097523
v -2.417215 0.739314 -1.095449
v -2.406829 0.730524 -1.098444
v -2.406624 0.730764 -1.097151
v -2.406951 0.730368 -1.100178
v -2.405045 0.728631 -1.100153
v -2.404922 0.728779 -1.098962
v -2.405259 0.729414 -1.098033
v -2.406825 0.730477 -1.101916
v -2.406618 0.730683 -1.103214
v -2.405255 0.729357 -1.102293
v -2.40492 0.728747 -1.101346
v -2.406502 0.730908 -1.096736
v -2.404677 0.729062 -1.098043
v -2.409034 0.733241 -1.095608
v -2.405259 0.729414 -1.098033
v -2.40423 0.728235 -1.101149
v -2.404673 0.729005 -1.102272
v -2.404355 0.728116 -1.100145
v -2.405255 0.729357 -1.102293
v -2.42186 0.741801 -1.105041
v -2.423759 0.742282 -1.103935
v -2.419708 0.740872 -1.105659
v -2.423704 0.742063 -1.103689
v -2.425648 0.742495 -1.098435
v -2.423767 0.742379 -1.096777
v -2.426584 0.742456 -1.100361
v -2.423711 0.742153 -1.097017
v -2.42187 0.741927 -1.095655
v -2.419718 0.741015 -1.095008
v -2.404232 0.728262 -1.099144
v -2.406495 0.730815 -1.103632
v -2.409024 0.733117 -1.104828
v -2.425644 0.742443 -1.102284
v -2.417062 0.739369 -1.105844
v -2.414247 0.737473 -1.105732
v -2.417073 0.739518 -1.094777
v -2.414258 0.73762 -1.094832
v -2.411598 0.735503 -1.095041
v -2.411588 0.735363 -1.105461
vn 0.3662 0.9077 0.2047
vn 0.3554 0.9346 -0.0122
vn 0.4107 0.9117 -0.0118
vn 0.4229 0.8877 0.182
vn 0.4462 0.878 0.1728
vn 0.3672 0.9091 0.1967
vn 0.3094 0.927 0.2119
vn 0.2816 0.9453 0.1644
vn 0.2665 0.9637 -0.0127
vn 0.3666 0.9019 -0.2283
vn 0.3677 0.9034 -0.2204
vn 0.4466 0.8731 -0.1955
vn 0.4233 0.8824 -0.2051
vn 0.282 0.9405 -0.1892
vn 0.3099 0.9209 -0.2362
vn 0.6231 0.7731 -0.1184
vn 0.6316 0.771 -0.0815
vn 0.6564 0.7503 -0.0782
vn 0.648 0.7511 -0.126
vn 0.6599 0.7512 -0.0095
vn 0.6273 0.7787 -0.0099
vn 0.5584 0.8295 -0.0106
vn 0.5609 0.8172 -0.1324
vn 0.5768 0.8101 -0.1052
vn 0.6228 0.7761 0.0988
vn 0.6478 0.7542 0.1071
vn 0.6563 0.7521 0.0593
vn 0.6315 0.7729 0.0619
vn 0.5766 0.8126 0.0844
vn 0.5606 0.8205 0.1115
vn 0.4856 0.8624 0.1426
vn 0.4776 0.8785 -0.0113
vn 0.5098 0.851 0.1261
vn 0.486 0.8583 -0.1648
vn 0.51 0.8473 -0.148
vn 0.6566 0.7389 -0.1514
vn 0.6696 0.7359 -0.1003
vn 0.6798 0.7214 -0.1318
vn 0.6958 0.6972 -0.1725
vn 0.7156 0.6984 -0.0087
vn 0.6749 0.7378 -0.0092
vn 0.6563 0.7427 0.1328
vn 0.6955 0.7016 0.155
vn 0.6797 0.7246 0.1138
vn 0.6696 0.7382 0.0819
vn -0.3854 -0.893 -0.2321
vn -0.3707 -0.9286 0.0121
vn -0.4292 -0.9031 0.0117
vn -0.437 -0.8431 -0.3133
vn -0.4434 -0.7902 -0.423
vn -0.4389 -0.8043 -0.4006
vn -0.451 -0.8274 -0.3347
vn -0.4231 -0.8844 -0.1971
vn -0.4106 -0.9117 0.0118
vn -0.3859 -0.8865 0.2553
vn -0.4397 -0.7931 0.4213
vn -0.4443 -0.7785 0.4432
vn -0.4377 -0.8344 0.3349
vn -0.4235 -0.8787 0.2199
vn -0.4517 -0.818 0.356
vn -0.6209 -0.7722 0.1346
vn -0.6005 -0.761 0.2453
vn -0.5562 -0.7903 0.2569
vn -0.5595 -0.8156 0.1473
vn -0.5585 -0.8294 0.0106
vn -0.6275 -0.7786 0.0098
vn -0.66 -0.7512 0.0094
vn -0.6438 -0.7513 0.1448
vn -0.5984 -0.7545 0.2694
vn -0.6206 -0.7756 -0.115
vn -0.5592 -0.8193 -0.1264
vn -0.5557 -0.797 -0.2366
vn -0.6001 -0.7674 -0.2259
vn -0.5979 -0.7615 -0.2501
vn -0.6436 -0.7549 -0.1258
vn -0.4847 -0.8604 -0.1571
vn -0.4776 -0.8785 0.0113
vn -0.4956 -0.8235 -0.276
vn -0.485 -0.8559 0.1792
vn -0.4962 -0.8158 0.2971
vn -0.6389 -0.7486 0.1769
vn -0.5606 -0.763 0.3218
vn -0.6659 -0.746 0.0093
vn -0.625 -0.7805 0.0099
vn -0.5734 -0.7805 0.2488
vn -0.532 -0.77 0.3522
vn -0.6386 -0.7531 -0.158
vn -0.56 -0.7713 -0.3023
vn -0.5313 -0.7792 -0.3325
vn -0.5729 -0.787 -0.2289
vn 0.4109 -0.0788 0.9083
vn 0.6813 -0.2861 0.6738
vn 0.2791 -0.0129 0.9601
vn -0.532 -0.77 0.3522
vn 0.752 -0.6187 -0.2272
vn 0.6826 -0.304 -0.6646
vn 0.663 -0.7485 0.0107
vn -0.5313 -0.7792 -0.3325
vn -0.1624 0.4129 -0.8961
vn -0.4379 0.4966 -0.7494
vn 0.0055 0.299 -0.9542
vn -0.4434 -0.7902 -0.423
vn -0.7797 0.3951 0.4856
vn -0.4393 0.5167 0.7348
vn -0.957 0.2899 -0.0051
vn -0.4443 -0.7785 0.4432
vn -0.1642 0.437 0.8843
vn 0.0034 0.3247 0.9458
vn 0.7515 -0.6125 0.2449
vn 0.413 -0.1036 -0.9048
vn 0.2813 -0.0391 -0.9588
vn -0.7785 0.382 -0.498
vn 0.1044 0.1911 -0.976
vn 0.1493 0.1166 -0.9819
vn 0.1021 0.2176 0.9707
vn 0.1472 0.1434 0.9786
vn 0.19 0.0688 0.9793
vn 0.1922 0.042 -0.9804
vt 0.839504 0.118056
vt 0.856743 0.205307
vt 0.741230 0.205307
vt 0.734555 0.106726
vt 0.724541 0.032791
vt 0.813647 0.052618
vt 0.868992 0.081539
vt 0.913398 0.129584
vt 0.940923 0.205307
vt 0.839504 0.292557
vt 0.813647 0.357995
vt 0.724541 0.377822
vt 0.734555 0.303887
vt 0.913398 0.281029
vt 0.868992 0.329074
vt 0.369475 0.299954
vt 0.368286 0.370940
vt 0.245840 0.351447
vt 0.246397 0.288815
vt 0.246768 0.205307
vt 0.370268 0.205307
vt 0.494283 0.205307
vt 0.492822 0.304944
vt 0.490632 0.379672
vt 0.369475 0.110659
vt 0.246397 0.121798
vt 0.245841 0.059166
vt 0.368286 0.039673
vt 0.490632 0.030941
vt 0.492822 0.105669
vt 0.616755 0.103478
vt 0.619174 0.205307
vt 0.613127 0.027106
vt 0.616755 0.307135
vt 0.613126 0.383507
vt 0.123273 0.268175
vt 0.123047 0.315326
vt 0.054743 0.283353
vt 0.030912 0.249131
vt 0.030973 0.205306
vt 0.123423 0.205306
vt 0.123273 0.142438
vt 0.030912 0.161481
vt 0.054744 0.127260
vt 0.123047 0.095287
vt 0.839504 0.118056
vt 0.856743 0.205307
vt 0.968983 0.205307
vt 0.938030 0.133427
vt 0.876123 0.061548
vt 0.805028 0.030806
vt 0.721203 0.008146
vt 0.734555 0.106726
vt 0.741230 0.205307
vt 0.839504 0.292557
vt 0.805028 0.379807
vt 0.876123 0.349065
vt 0.938030 0.277186
vt 0.734555 0.303887
vt 0.721203 0.402467
vt 0.369475 0.299954
vt 0.367890 0.394602
vt 0.489902 0.404581
vt 0.492822 0.304944
vt 0.494283 0.205307
vt 0.370268 0.205307
vt 0.246768 0.205307
vt 0.246397 0.288815
vt 0.245655 0.372324
vt 0.369475 0.110659
vt 0.492822 0.105669
vt 0.489902 0.006032
vt 0.367890 0.016011
vt 0.245655 0.038289
vt 0.246397 0.121798
vt 0.616755 0.103478
vt 0.619174 0.205307
vt 0.611917 0.001649
vt 0.616755 0.307135
vt 0.611917 0.408964
vt 0.123273 0.268175
vt 0.122972 0.331043
vt 0.123423 0.205306
vt 0.000156 0.205306
vt 0.000125 0.242784
vt 0.000064 0.280261
vt 0.123273 0.142438
vt 0.122972 0.079570
vt 0.000064 0.130352
vt 0.000125 0.167829
vt 0.122972 0.331043
vt 0.030806 0.283587
vt 0.245655 0.372324
vt 0.030806 0.283587
vt 0.000125 0.167829
vt 0.030806 0.127026
vt 0.000156 0.205306
vt 0.030806 0.127026
vt 0.805028 0.030806
vt 0.873826 0.071832
vt 0.721203 0.008146
vt 0.873826 0.071832
vt 0.938030 0.277186
vt 0.873826 0.338781
vt 0.968983 0.205307
vt 0.873826 0.338781
vt 0.805028 0.379807
vt 0.721203 0.402467
vt 0.000125 0.242784
vt 0.122972 0.079570
vt 0.245655 0.038289
vt 0.938030 0.133427
vt 0.611917 0.001649
vt 0.489902 0.006032
vt 0.611917 0.408964
vt 0.489902 0.404581
vt 0.367890 0.394602
vt 0.367890 0.016011
f 1/1/1 2/2/2 3/3/3
f 1/1/1 3/3/3 4/4/4
f 1/1/1 4/4/4 5/5/5
f 1/1/1 5/5/5 6/6/6
f 1/1/1 6/6/6 7/7/7
f 1/1/1 7/7/7 8/8/8
f 1/1/1 8/8/8 9/9/9
f 1/1/1 9/9/9 2/2/2
f 10/10/10 11/11/11 12/12/12
f 10/10/10 12/12/12 13/13/13
f 10/10/10 13/13/13 3/3/3
f 10/10/10 3/3/3 2/2/2
f 10/10/10 2/2/2 9/9/9
f 10/10/10 9/9/9 14/14/14
f 10/10/10 14/14/14 15/15/15
f 10/10/10 15/15/15 11/11/11
f 16/16/16 17/17/17 18/18/18
f 16/16/16 18/18/18 19/19/19
f 16/16/16 19/19/19 20/20/20
f 16/16/16 20/20/20 21/21/21
f 16/16/16 21/21/21 22/22/22
f 16/16/16 22/22/22 23/23/23
f 16/16/16 23/23/23 24/24/24
f 16/16/16 24/24/24 17/17/17
f 25/25/25 21/21/21 20/20/20
f 25/25/25 20/20/20 26/26/26
f 25/25/25 26/26/26 27/27/27
f 25/25/25 27/27/27 28/28/28
f 25/25/25 28/28/28 29/29/29
f 25/25/25 29/29/29 30/30/30
f 25/25/25 30/30/30 22/22/22
f 25/25/25 22/22/22 21/21/21
f 31/31/31 32/32/32 22/22/22
f 31/31/31 22/22/22 30/30/30
f 31/31/31 30/30/30 29/29/29
f 31/31/31 29/29/29 33/33/33
f 31/31/31 33/33/33 5/5/5
f 31/31/31 5/5/5 4/4/4
f 31/31/31 4/4/4 3/3/3
f 31/31/31 3/3/3 32/32/32
f 34/34/34 35/35/35 24/24/24
f 34/34/34 24/24/24 23/23/23
f 34/34/34 23/23/23 22/22/22
f 34/34/34 22/22/22 32/32/32
f 34/34/34 32/32/32 3/3/3
f 34/34/34 3/3/3 13/13/13
f 34/34/34 13/13/13 12/12/12
f 34/34/34 12/12/12 35/35/35
f 36/36/36 37/37/37 38/38/38
f 36/36/36 38/38/38 39/39/39
f 36/36/36 39/39/39 40/40/40
f 36/36/36 40/40/40 41/41/41
f 36/36/36 41/41/41 20/20/20
f 36/36/36 20/20/20 19/19/19
f 36/36/36 19/19/19 18/18/18
f 36/36/36 18/18/18 37/37/37
f 42/42/42 41/41/41 40/40/40
f 42/42/42 40/40/40 43/43/43
f 42/42/42 43/43/43 44/44/44
f 42/42/42 44/44/44 45/45/45
f 42/42/42 45/45/45 27/27/27
f 42/42/42 27/27/27 26/26/26
f 42/42/42 26/26/26 20/20/20
f 42/42/42 20/20/20 41/41/41
f 46/46/46 47/47/47 48/48/48
f 46/46/46 48/48/48 49/49/49
f 46/46/46 49/49/49 50/50/50
f 46/46/46 50/50/50 51/51/51
f 46/46/46 51/51/51 52/52/52
f 46/46/46 52/52/52 53/53/53
f 46/46/46 53/53/53 54/54/54
f 46/46/46 54/54/54 47/47/47
f 55/55/55 56/56/56 57/57/57
f 55/55/55 57/57/57 58/58/58
f 55/55/55 58/58/58 48/48/48
f 55/55/55 48/48/48 47/47/47
f 55/55/55 47/47/47 54/54/54
f 55/55/55 54/54/54 59/59/59
f 55/55/55 59/59/59 60/60/60
f 55/55/55 60/60/60 56/56/56
f 61/61/61 62/62/62 63/63/63
f 61/61/61 63/63/63 64/64/64
f 61/61/61 64/64/64 65/65/65
f 61/61/61 65/65/65 66/66/66
f 61/61/61 66/66/66 67/67/67
f 61/61/61 67/67/67 68/68/68
f 61/61/61 68/68/68 69/69/69
f 61/61/61 69/69/69 62/62/62
f 70/70/70 66/66/66 65/65/65
f 70/70/70 65/65/65 71/71/71
f 70/70/70 71/71/71 72/72/72
f 70/70/70 72/72/72 73/73/73
f 70/70/70 73/73/73 74/74/74
f 70/70/70 74/74/74 75/75/75
f 70/70/70 75/75/75 67/67/67
f 70/70/70 67/67/67 66/66/66
f 76/76/76 77/77/77 54/54/54
f 76/76/76 54/54/54 53/53/53
f 76/76/76 53/53/53 52/52/52
f 76/76/76 52/52/52 78/78/78
f 76/76/76 78/78/78 72/72/72
f 76/76/76 72/72/72 71/71/71
f 76/76/76 71/71/71 65/65/65
f 76/76/76 65/65/65 77/77/77
f 79/79/79 80/80/80 60/60/60
f 79/79/79 60/60/60 59/59/59
f 79/79/79 59/59/59 54/54/54
f 79/79/79 54/54/54 77/77/77
f 79/79/79 77/77/77 65/65/65
f 79/79/79 65/65/65 64/64/64
f 79/79/79 64/64/64 63/63/63
f 79/79/79 63/63/63 80/80/80
f 81/81/81 82/82/82 69/69/69
f 81/81/81 69/69/69 68/68/68
f 81/81/81 68/68/68 67/67/67
f 81/81/81 67/67/67 83/83/83
f 81/81/81 83/83/83 84/84/84
f 81/81/81 84/84/84 85/85/85
f 81/81/81 85/85/85 86/86/86
f 81/81/81 86/86/86 82/82/82
f 87/87/87 83/83/83 67/67/67
f 87/87/87 67/67/67 75/75/75
f 87/87/87 75/75/75 74/74/74
f 87/87/87 74/74/74 88/88/88
f 87/87/87 88/88/88 89/89/89
f 87/87/87 89/89/89 90/90/90
f 87/87/87 90/90/90 84/84/84
f 87/87/87 84/84/84 83/83/83
f 91/91/91 92/92/92 38/38/38
f 91/91/91 38/38/38 37/37/37
f 91/91/91 37/37/37 18/18/18
f 91/91/91 18/18/18 93/93/93
f 91/91/91 93/93/93 69/69/69
f 91/91/91 69/69/69 82/82/82
f 91/91/91 82/82/82 94/94/94
f 91/91/91 94/94/94 92/92/92
f 95/95/95 96/96/96 44/44/44
f 95/95/95 44/44/44 43/43/43
f 95/95/95 43/43/43 40/40/40
f 95/95/95 40/40/40 97/97/97
f 95/95/95 97/97/97 84/84/84
f 95/95/95 84/84/84 90/90/90
f 95/95/95 90/90/90 98/98/98
f 95/95/95 98/98/98 96/96/96
f 99/99/99 100/100/100 7/7/7
f 99/99/99 7/7/7 6/6/6
f 99/99/99 6/6/6 5/5/5
f 99/99/99 5/5/5 101/101/101
f 99/99/99 101/101/101 52/52/52
f 99/99/99 52/52/52 51/51/51
f 99/99/99 51/51/51 102/102/102
f 99/99/99 102/102/102 100/100/100
f 103/103/103 104/104/104 15/15/15
f 103/103/103 15/15/15 14/14/14
f 103/103/103 14/14/14 9/9/9
f 103/103/103 9/9/9 105/105/105
f 103/103/103 105/105/105 48/48/48
f 103/103/103 48/48/48 58/58/58
f 103/103/103 58/58/58 106/106/106
f 103/103/103 106/106/106 104/104/104
f 107/107/107 108/108/108 12/12/12
f 107/107/107 12/12/12 11/11/11
f 107/107/107 11/11/11 15/15/15
f 107/107/107 15/15/15 104/104/104
f 107/107/107 104/104/104 106/106/106
f 107/107/107 106/106/106 56/56/56
f 107/107/107 56/56/56 60/60/60
f 107/107/107 60/60/60 108/108/108
f 109/109/109 97/97/97 40/40/40
f 109/109/109 40/40/40 39/39/39
f 109/109/109 39/39/39 38/38/38
f 109/109/109 38/38/38 92/92/92
f 109/109/109 92/92/92 94/94/94
f 109/109/109 94/94/94 85/85/85
f 109/109/109 85/85/85 84/84/84
f 109/109/109 84/84/84 97/97/97
f 110/110/110 111/111/111 27/27/27
f 110/110/110 27/27/27 45/45/45
f 110/110/110 45/45/45 44/44/44
f 110/110/110 44/44/44 96/96/96
f 110/110/110 96/96/96 98/98/98
f 110/110/110 98/98/98 88/88/88
f 110/110/110 88/88/88 74/74/74
f 110/110/110 74/74/74 111/111/111
f 112/112/112 105/105/105 9/9/9
f 112/112/112 9/9/9 8/8/8
f 112/112/112 8/8/8 7/7/7
f 112/112/112 7/7/7 100/100/100
f 112/112/112 100/100/100 102/102/102
f 112/112/112 102/102/102 49/49/49
f 112/112/112 49/49/49 48/48/48
f 112/112/112 48/48/48 105/105/105
f 113/113/113 101/101/101 5/5/5
f 113/113/113 5/5/5 33/33/33
f 113/113/113 33/33/33 29/29/29
f 113/113/113 29/29/29 114/114/114
f 113/113/113 114/114/114 72/72/72
f 113/113/113 72/72/72 78/78/78
f 113/113/113 78/78/78 52/52/52
f 113/113/113 52/52/52 101/101/101
f 115/115/115 116/116/116 24/24/24
f 115/115/115 24/24/24 35/35/35
f 115/115/115 35/35/35 12/12/12
f 115/115/115 12/12/12 108/108/108
f 115/115/115 108/108/108 60/60/60
f 115/115/115 60/60/60 80/80/80
f 115/115/115 80/80/80 63/63/63
f 115/115/115 63/63/63 116/116/116
f 117/117/117 93/93/93 18/18/18
f 117/117/117 18/18/18 17/17/17
f 117/117/117 17/17/17 24/24/24
f 117/117/117 24/24/24 116/116/116
f 117/117/117 116/116/116 63/63/63
f 117/117/117 63/63/63 62/62/62
f 117/117/117 62/62/62 69/69/69
f 117/117/117 69/69/69 93/93/93
f 118/118/118 114/114/114 29/29/29
f 118/118/118 29/29/29 28/28/28
f 118/118/118 28/28/28 27/27/27
f 118/118/118 27/27/27 111/111/111
f 118/118/118 111/111/111 74/74/74
f 118/118/118 74/74/74 73/73/73
f 118/118/118 73/73/73 72/72/72
f 118/118/118 72/72/72 114/114/114
