v -2.440279 0.760535 -1.093492
v -2.439638 0.761153 -1.094088
v -2.440274 0.760349 -1.095081
v -2.440908 0.759718 -1.094294
v -2.441497 0.759266 -1.093745
v -2.440921 0.760042 -1.093152
v -2.440392 0.760568 -1.092921
v -2.439773 0.761102 -1.092953
v -2.439133 0.761712 -1.093362
v -2.439453 0.761719 -1.094979
v -2.439472 0.762119 -1.09576
v -2.439851 0.761625 -1.096707
v -2.439969 0.761063 -1.095984
v -2.439058 0.762127 -1.09424
v -2.439219 0.762249 -1.095033
v -2.441309 0.758106 -1.09905
v -2.441067 0.758643 -1.099698
v -2.441396 0.757401 -1.100544
v -2.441602 0.756924 -1.099968
v -2.441935 0.756312 -1.099218
v -2.44169 0.757415 -1.098204
v -2.441353 0.758471 -1.097176
v -2.440963 0.759199 -1.098062
v -2.440725 0.759768 -1.098742
v -2.442229 0.756788 -1.097394
v -2.442416 0.755758 -1.098504
v -2.442821 0.755358 -1.097978
v -2.44268 0.756333 -1.096797
v -2.442411 0.757352 -1.095707
v -2.441925 0.75782 -1.09633
v -2.44147 0.758805 -1.095268
v -2.440863 0.759452 -1.096122
v -2.442005 0.75835 -1.094643
v -2.440494 0.760204 -1.097026
v -2.440294 0.760802 -1.097723
v -2.441914 0.755652 -1.100794
v -2.441782 0.756017 -1.10123
v -2.442008 0.755145 -1.101497
v -2.442141 0.754659 -1.101376
v -2.442276 0.754332 -1.100984
v -2.442145 0.755188 -1.100229
v -2.442521 0.754782 -1.099701
v -2.442557 0.754063 -1.100628
v -2.442757 0.754072 -1.10015
v -2.442847 0.754491 -1.099313
v -2.440195 0.760462 -1.093481
v -2.439547 0.761088 -1.094089
v -2.439065 0.761662 -1.093364
v -2.439711 0.761046 -1.092946
v -2.440348 0.760526 -1.092913
v -2.440861 0.759984 -1.093138
v -2.441435 0.759211 -1.093731
v -2.44082 0.759649 -1.094282
v -2.44018 0.760287 -1.095078
v -2.439356 0.761664 -1.09499
v -2.439397 0.762083 -1.095774
v -2.439164 0.762221 -1.095043
v -2.438985 0.762085 -1.09425
v -2.43987 0.76101 -1.095991
v -2.439775 0.761589 -1.096718
v -2.441205 0.758064 -1.09904
v -2.440988 0.758615 -1.099694
v -2.440646 0.759737 -1.098742
v -2.44086 0.759153 -1.098057
v -2.441254 0.758419 -1.097163
v -2.44159 0.757367 -1.098186
v -2.441834 0.756267 -1.099198
v -2.441498 0.756885 -1.099955
v -2.441315 0.757375 -1.100538
v -2.442133 0.756734 -1.09737
v -2.441831 0.757762 -1.096309
v -2.442343 0.757306 -1.095688
v -2.44261 0.75629 -1.096775
v -2.442751 0.755318 -1.097954
v -2.442319 0.755708 -1.098476
v -2.44138 0.758741 -1.095252
v -2.440767 0.759395 -1.096115
v -2.44194 0.758299 -1.094627
v -2.440393 0.760154 -1.097027
v -2.440217 0.760768 -1.097728
v -2.441808 0.755614 -1.10078
v -2.441701 0.755992 -1.101223
v -2.442043 0.755145 -1.100208
v -2.4422 0.7543 -1.100968
v -2.442062 0.754631 -1.101366
v -2.441949 0.755126 -1.101491
v -2.442424 0.754732 -1.099672
v -2.442777 0.754451 -1.099288
v -2.442705 0.754043 -1.100132
v -2.442485 0.754025 -1.100605
v -2.441702 0.756128 -1.101373
v -2.442045 0.754924 -1.101696
v -2.44129 0.757549 -1.100734
v -2.441949 0.755126 -1.101491
v -2.442537 0.753806 -1.100926
v -2.442796 0.75385 -1.100346
v -2.442286 0.754033 -1.101228
v -2.442705 0.754043 -1.100132
v -2.441109 0.759852 -1.093031
v -2.440431 0.760547 -1.092792
v -2.441666 0.759091 -1.093555
v -2.440348 0.760526 -1.092913
v -2.438894 0.762244 -1.093999
v -2.439161 0.762366 -1.095076
v -2.438935 0.761876 -1.093121
v -2.439164 0.762221 -1.095043
v -2.439445 0.762237 -1.096027
v -2.439777 0.761797 -1.096954
v -2.442181 0.754315 -1.101566
v -2.442925 0.754376 -1.099172
v -2.442926 0.755206 -1.097791
v -2.439577 0.761266 -1.09277
v -2.442155 0.758175 -1.094427
v -2.442544 0.757175 -1.09549
v -2.440192 0.760987 -1.097959
v -2.44061 0.759945 -1.09897
v -2.440952 0.75881 -1.099913
v -2.4428 0.756162 -1.096588
vn -0.6976 0.7049 -0.1283
vn -0.7934 0.6072 0.0425
vn -0.8195 0.573 0.0008
vn -0.7357 0.6596 -0.1536
vn -0.7506 0.6399 -0.1643
vn -0.7023 0.7012 -0.1228
vn -0.6653 0.7408 -0.0923
vn -0.6754 0.7366 -0.0353
vn -0.7469 0.6562 0.1072
vn -0.8703 0.4574 0.1823
vn -0.8688 0.4626 0.1765
vn -0.8975 0.4295 0.0999
vn -0.8902 0.4383 0.1242
vn -0.8162 0.5349 0.2185
vn -0.844 0.485 0.2292
vn -0.9346 0.3426 -0.0952
vn -0.9246 0.3587 -0.1279
vn -0.929 0.3375 -0.1519
vn -0.9429 0.3137 -0.1116
vn -0.9042 0.3756 -0.2034
vn -0.8968 0.4064 -0.1748
vn -0.8771 0.4659 -0.1165
vn -0.9213 0.3875 -0.0336
vn -0.9176 0.3921 -0.0652
vn -0.848 0.4666 -0.2512
vn -0.85 0.4469 -0.279
vn -0.8742 0.416 -0.2504
vn -0.8673 0.4409 -0.2309
vn -0.8419 0.5007 -0.2013
vn -0.824 0.5267 -0.2085
vn -0.782 0.5991 -0.1718
vn -0.848 0.5275 -0.0511
vn -0.7993 0.5738 -0.1784
vn -0.9046 0.4234 0.0487
vn -0.9087 0.4171 0.0183
vn -0.9523 0.2875 -0.1021
vn -0.9391 0.3098 -0.1484
vn -0.951 0.2776 -0.1359
vn -0.9649 0.2317 -0.1233
vn -0.9133 0.3185 -0.2538
vn -0.9071 0.3609 -0.2167
vn -0.839 0.4499 -0.3061
vn -0.8344 0.4188 -0.3583
vn -0.8529 0.4183 -0.3122
vn -0.8665 0.414 -0.2789
vn 0.6919 -0.703 0.1645
vn 0.8008 -0.598 -0.031
vn 0.8277 -0.5609 0.0133
vn 0.6672 -0.6944 0.2693
vn 0.597 -0.7132 0.3673
vn 0.6107 -0.713 0.3445
vn 0.6592 -0.6901 0.2984
vn 0.7279 -0.6654 0.1654
vn 0.8195 -0.5731 -0.0009
vn 0.8863 -0.4245 -0.1853
vn 0.9383 -0.2437 -0.2451
vn 0.9421 -0.2187 -0.254
vn 0.9255 -0.3244 -0.1956
vn 0.8942 -0.4271 -0.1338
vn 0.9348 -0.2953 -0.1974
vn 0.9392 -0.3334 0.0825
vn 0.9632 -0.2685 -0.0073
vn 0.9531 -0.2982 -0.0519
vn 0.9254 -0.3782 0.0223
vn 0.8771 -0.4658 0.1166
vn 0.8968 -0.4063 0.1749
vn 0.9042 -0.3755 0.2035
vn 0.9477 -0.3046 0.0955
vn 0.9677 -0.2509 -0.0242
vn 0.8396 -0.4761 0.2615
vn 0.8163 -0.5346 0.2187
vn 0.7563 -0.5802 0.3022
vn 0.7753 -0.538 0.3308
vn 0.7605 -0.5477 0.3486
vn 0.8398 -0.4591 0.2897
vn 0.7743 -0.6059 0.1822
vn 0.8479 -0.5276 0.0512
vn 0.7126 -0.6409 0.2853
vn 0.9084 -0.4138 -0.0591
vn 0.9412 -0.3134 -0.1259
vn 0.9557 -0.286 0.0699
vn 0.9668 -0.2396 -0.0884
vn 0.9053 -0.3699 0.2087
vn 0.8962 -0.4086 0.1727
vn 0.9564 -0.2901 -0.0325
vn 0.9628 -0.2365 -0.1305
vn 0.8222 -0.4772 0.3102
vn 0.7182 -0.5958 0.3594
vn 0.69 -0.6275 0.3607
vn 0.766 -0.5629 0.3103
vn 0.1212 0.3239 -0.9383
vn -0.0484 -0.0488 -0.9976
vn 0.1982 0.4441 -0.8737
vn 0.9628 -0.2365 -0.1305
vn -0.2735 -0.8313 -0.4839
vn -0.5816 -0.8126 -0.0374
vn -0.0396 -0.7712 -0.6353
vn 0.69 -0.6275 0.3607
vn -0.4841 -0.1344 0.8646
vn -0.2763 0.0949 0.9564
vn -0.5624 -0.3058 0.7682
vn 0.597 -0.7132 0.3673
vn 0.5264 0.8118 0.2527
vn 0.3157 0.9426 -0.1089
vn 0.5141 0.5102 0.6895
vn 0.9421 -0.2187 -0.254
vn 0.2253 0.8823 -0.4132
vn 0.1953 0.7799 -0.5947
vn -0.0853 -0.5613 -0.8232
vn -0.6019 -0.7114 0.3627
vn -0.5672 -0.6522 0.5029
vn 0.1341 0.25 0.9589
vn -0.5798 -0.4305 0.6917
vn -0.5713 -0.5052 0.6468
vn 0.1964 0.6811 -0.7053
vn 0.2097 0.614 -0.7609
vn 0.2219 0.5441 -0.8091
vn -0.5588 -0.5752 0.5973
vt 0.839504 0.118056
vt 0.856743 0.205307
vt 0.741230 0.205307
vt 0.734555 0.106726
vt 0.724541 0.032791
vt 0.813647 0.052618
vt 0.868992 0.081539
vt 0.913398 0.129584
vt 0.940923 0.205307
vt 0.839504 0.292557
vt 0.813647 0.357995
vt 0.724541 0.377822
vt 0.734555 0.303887
vt 0.913398 0.281029
vt 0.868992 0.329074
vt 0.369475 0.299954
vt 0.368286 0.370940
vt 0.245840 0.351447
vt 0.246397 0.288815
vt 0.246768 0.205307
vt 0.370268 0.205307
vt 0.494283 0.205307
vt 0.492822 0.304944
vt 0.490632 0.379672
vt 0.369475 0.110659
vt 0.246397 0.121798
vt 0.245841 0.059166
vt 0.368286 0.039673
vt 0.490632 0.030941
vt 0.492822 0.105669
vt 0.616755 0.103478
vt 0.619174 0.205307
vt 0.613127 0.027106
vt 0.616755 0.307135
vt 0.613126 0.383507
vt 0.123273 0.268175
vt 0.123047 0.315326
vt 0.054743 0.283353
vt 0.030912 0.249131
vt 0.030973 0.205306
vt 0.123423 0.205306
vt 0.123273 0.142438
vt 0.030912 0.161481
vt 0.054744 0.127260
vt 0.123047 0.095287
vt 0.839504 0.118056
vt 0.856743 0.205307
vt 0.968983 0.205307
vt 0.938030 0.133427
vt 0.876123 0.061548
vt 0.805028 0.030806
vt 0.721203 0.008146
vt 0.734555 0.106726
vt 0.741230 0.205307
vt 0.839504 0.292557
vt 0.805028 0.379807
vt 0.876123 0.349065
vt 0.938030 0.277186
vt 0.734555 0.303887
vt 0.721203 0.402467
vt 0.369475 0.299954
vt 0.367890 0.394602
vt 0.489902 0.404581
vt 0.492822 0.304944
vt 0.494283 0.205307
vt 0.370268 0.205307
vt 0.246768 0.205307
vt 0.246397 0.288815
vt 0.245655 0.372324
vt 0.369475 0.110659
vt 0.492822 0.105669
vt 0.489902 0.006032
vt 0.367890 0.016011
vt 0.245655 0.038289
vt 0.246397 0.121798
vt 0.616755 0.103478
vt 0.619174 0.205307
vt 0.611917 0.001649
vt 0.616755 0.307135
vt 0.611917 0.408964
vt 0.123273 0.268175
vt 0.122972 0.331043
vt 0.123423 0.205306
vt 0.000156 0.205306
vt 0.000125 0.242784
vt 0.000064 0.280261
vt 0.123273 0.142438
vt 0.122972 0.079570
vt 0.000064 0.130352
vt 0.000125 0.167829
vt 0.122972 0.331043
vt 0.030806 0.283587
vt 0.245655 0.372324
vt 0.030806 0.283587
vt 0.000125 0.167829
vt 0.030806 0.127026
vt 0.000156 0.205306
vt 0.030806 0.127026
vt 0.805028 0.030806
vt 0.873826 0.071832
vt 0.721203 0.008146
vt 0.873826 0.071832
vt 0.938030 0.277186
vt 0.873826 0.338781
vt 0.968983 0.205307
vt 0.873826 0.338781
vt 0.805028 0.379807
vt 0.721203 0.402467
vt 0.000125 0.242784
vt 0.122972 0.079570
vt 0.245655 0.038289
vt 0.938030 0.133427
vt 0.611917 0.001649
vt 0.489902 0.006032
vt 0.611917 0.408964
vt 0.489902 0.404581
vt 0.367890 0.394602
vt 0.367890 0.016011
f 1/1/1 2/2/2 3/3/3
f 1/1/1 3/3/3 4/4/4
f 1/1/1 4/4/4 5/5/5
f 1/1/1 5/5/5 6/6/6
f 1/1/1 6/6/6 7/7/7
f 1/1/1 7/7/7 8/8/8
f 1/1/1 8/8/8 9/9/9
f 1/1/1 9/9/9 2/2/2
f 10/10/10 11/11/11 12/12/12
f 10/10/10 12/12/12 13/13/13
f 10/10/10 13/13/13 3/3/3
f 10/10/10 3/3/3 2/2/2
f 10/10/10 2/2/2 9/9/9
f 10/10/10 9/9/9 14/14/14
f 10/10/10 14/14/14 15/15/15
f 10/10/10 15/15/15 11/11/11
f 16/16/16 17/17/17 18/18/18
f 16/16/16 18/18/18 19/19/19
f 16/16/16 19/19/19 20/20/20
f 16/16/16 20/20/20 21/21/21
f 16/16/16 21/21/21 22/22/22
f 16/16/16 22/22/22 23/23/23
f 16/16/16 23/23/23 24/24/24
f 16/16/16 24/24/24 17/17/17
f 25/25/25 21/21/21 20/20/20
f 25/25/25 20/20/20 26/26/26
f 25/25/25 26/26/26 27/27/27
f 25/25/25 27/27/27 28/28/28
f 25/25/25 28/28/28 29/29/29
f 25/25/25 29/29/29 30/30/30
f 25/25/25 30/30/30 22/22/22
f 25/25/25 22/22/22 21/21/21
f 31/31/31 32/32/32 22/22/22
f 31/31/31 22/22/22 30/30/30
f 31/31/31 30/30/30 29/29/29
f 31/31/31 29/29/29 33/33/33
f 31/31/31 33/33/33 5/5/5
f 31/31/31 5/5/5 4/4/4
f 31/31/31 4/4/4 3/3/3
f 31/31/31 3/3/3 32/32/32
f 34/34/34 35/35/35 24/24/24
f 34/34/34 24/24/24 23/23/23
f 34/34/34 23/23/23 22/22/22
f 34/34/34 22/22/22 32/32/32
f 34/34/34 32/32/32 3/3/3
f 34/34/34 3/3/3 13/13/13
f 34/34/34 13/13/13 12/12/12
f 34/34/34 12/12/12 35/35/35
f 36/36/36 37/37/37 38/38/38
f 36/36/36 38/38/38 39/39/39
f 36/36/36 39/39/39 40/40/40
f 36/36/36 40/40/40 41/41/41
f 36/36/36 41/41/41 20/20/20
f 36/36/36 20/20/20 19/19/19
f 36/36/36 19/19/19 18/18/18
f 36/36/36 18/18/18 37/37/37
f 42/42/42 41/41/41 40/40/40
f 42/42/42 40/40/40 43/43/43
f 42/42/42 43/43/43 44/44/44
f 42/42/42 44/44/44 45/45/45
f 42/42/42 45/45/45 27/27/27
f 42/42/42 27/27/27 26/26/26
f 42/42/42 26/26/26 20/20/20
f 42/42/42 20/20/20 41/41/41
f 46/46/46 47/47/47 48/48/48
f 46/46/46 48/48/48 49/49/49
f 46/46/46 49/49/49 50/50/50
f 46/46/46 50/50/50 51/51/51
f 46/46/46 51/51/51 52/52/52
f 46/46/46 52/52/52 53/53/53
f 46/46/46 53/53/53 54/54/54
f 46/46/46 54/54/54 47/47/47
f 55/55/55 56/56/56 57/57/57
f 55/55/55 57/57/57 58/58/58
f 55/55/55 58/58/58 48/48/48
f 55/55/55 48/48/48 47/47/47
f 55/55/55 47/47/47 54/54/54
f 55/55/55 54/54/54 59/59/59
f 55/55/55 59/59/59 60/60/60
f 55/55/55 60/60/60 56/56/56
f 61/61/61 62/62/62 63/63/63
f 61/61/61 63/63/63 64/64/64
f 61/61/61 64/64/64 65/65/65
f 61/61/61 65/65/65 66/66/66
f 61/61/61 66/66/66 67/67/67
f 61/61/61 67/67/67 68/68/68
f 61/61/61 68/68/68 69/69/69
f 61/61/61 69/69/69 62/62/62
f 70/70/70 66/66/66 65/65/65
f 70/70/70 65/65/65 71/71/71
f 70/70/70 71/71/71 72/72/72
f 70/70/70 72/72/72 73/73/73
f 70/70/70 73/73/73 74/74/74
f 70/70/70 74/74/74 75/75/75
f 70/70/70 75/75/75 67/67/67
f 70/70/70 67/67/67 66/66/66
f 76/76/76 77/77/77 54/54/54
f 76/76/76 54/54/54 53/53/53
f 76/76/76 53/53/53 52/52/52
f 76/76/76 52/52/52 78/78/78
f 76/76/76 78/78/78 72/72/72
f 76/76/76 72/72/72 71/71/71
f 76/76/76 71/71/71 65/65/65
f 76/76/76 65/65/65 77/77/77
f 79/79/79 80/80/80 60/60/60
f 79/79/79 60/60/60 59/59/59
f 79/79/79 59/59/59 54/54/54
f 79/79/79 54/54/54 77/77/77
f 79/79/79 77/77/77 65/65/65
f 79/79/79 65/65/65 64/64/64
f 79/79/79 64/64/64 63/63/63
f 79/79/79 63/63/63 80/80/80
f 81/81/81 82/82/82 69/69/69
f 81/81/81 69/69/69 68/68/68
f 81/81/81 68/68/68 67/67/67
f 81/81/81 67/67/67 83/83/83
f 81/81/81 83/83/83 84/84/84
f 81/81/81 84/84/84 85/85/85
f 81/81/81 85/85/85 86/86/86
f 81/81/81 86/86/86 82/82/82
f 87/87/87 83/83/83 67/67/67
f 87/87/87 67/67/67 75/75/75
f 87/87/87 75/75/75 74/74/74
f 87/87/87 74/74/74 88/88/88
f 87/87/87 88/88/88 89/89/89
f 87/87/87 89/89/89 90/90/90
f 87/87/87 90/90/90 84/84/84
f 87/87/87 84/84/84 83/83/83
f 91/91/91 92/92/92 38/38/38
f 91/91/91 38/38/38 37/37/37
f 91/91/91 37/37/37 18/18/18
f 91/91/91 18/18/18 93/93/93
f 91/91/91 93/93/93 69/69/69
f 91/91/91 69/69/69 82/82/82
f 91/91/91 82/82/82 94/94/94
f 91/91/91 94/94/94 92/92/92
f 95/95/95 96/96/96 44/44/44
f 95/95/95 44/44/44 43/43/43
f 95/95/95 43/43/43 40/40/40
f 95/95/95 40/40/40 97/97/97
f 95/95/95 97/97/97 84/84/84
f 95/95/95 84/84/84 90/90/90
f 95/95/95 90/90/90 98/98/98
f 95/95/95 98/98/98 96/96/96
f 99/99/99 100/100/100 7/7/7
f 99/99/99 7/7/7 6/6/6
f 99/99/99 6/6/6 5/5/5
f 99/99/99 5/5/5 101/101/101
f 99/99/99 101/101/101 52/52/52
f 99/99/99 52/52/52 51/51/51
f 99/99/99 51/51/51 102/102/102
f 99/99/99 102/102/102 100/100/100
f 103/103/103 104/104/104 15/15/15
f 103/103/103 15/15/15 14/14/14
f 103/103/103 14/14/14 9/9/9
f 103/103/103 9/9/9 105/105/105
f 103/103/103 105/105/105 48/48/48
f 103/103/103 48/48/48 58/58/58
f 103/103/103 58/58/58 106/106/106
f 103/103/103 106/106/106 104/104/104
f 107/107/107 108/108/108 12/12/12
f 107/107/107 12/12/12 11/11/11
f 107/107/107 11/11/11 15/15/15
f 107/107/107 15/15/15 104/104/104
f 107/107/107 104/104/104 106/106/106
f 107/107/107 106/106/106 56/56/56
f 107/107/107 56/56/56 60/60/60
f 107/107/107 60/60/60 108/108/108
f 109/109/109 97/97/97 40/40/40
f 109/109/109 40/40/40 39/39/39
f 109/109/109 39/39/39 38/38/38
f 109/109/109 38/38/38 92/92/92
f 109/109/109 92/92/92 94/94/94
f 109/109/109 94/94/94 85/85/85
f 109/109/109 85/85/85 84/84/84
f 109/109/109 84/84/84 97/97/97
f 110/110/110 111/111/111 27/27/27
f 110/110/110 27/27/27 45/45/45
f 110/110/110 45/45/45 44/44/44
f 110/110/110 44/44/44 96/96/96
f 110/110/110 96/96/96 98/98/98
f 110/110/110 98/98/98 88/88/88
f 110/110/110 88/88/88 74/74/74
f 110/110/110 74/74/74 111/111/111
f 112/112/112 105/105/105 9/9/9
f 112/112/112 9/9/9 8/8/8
f 112/112/112 8/8/8 7/7/7
f 112/112/112 7/7/7 100/100/100
f 112/112/112 100/100/100 102/102/102
f 112/112/112 102/102/102 49/49/49
f 112/112/112 49/49/49 48/48/48
f 112/112/112 48/48/48 105/105/105
f 113/113/113 101/101/101 5/5/5
f 113/113/113 5/5/5 33/33/33
f 113/113/113 33/33/33 29/29/29
f 113/113/113 29/29/29 114/114/114
f 113/113/113 114/114/114 72/72/72
f 113/113/113 72/72/72 78/78/78
f 113/113/113 78/78/78 52/52/52
f 113/113/113 52/52/52 101/101/101
f 115/115/115 116/116/116 24/24/24
f 115/115/115 24/24/24 35/35/35
f 115/115/115 35/35/35 12/12/12
f 115/115/115 12/12/12 108/108/108
f 115/115/115 108/108/108 60/60/60
f 115/115/115 60/60/60 80/80/80
f 115/115/115 80/80/80 63/63/63
f 115/115/115 63/63/63 116/116/116
f 117/117/117 93/93/93 18/18/18
f 117/117/117 18/18/18 17/17/17
f 117/117/117 17/17/17 24/24/24
f 117/117/117 24/24/24 116/116/116
f 117/117/117 116/116/116 63/63/63
f 117/117/117 63/63/63 62/62/62
f 117/117/117 62/62/62 69/69/69
f 117/117/117 69/69/69 93/93/93
f 118/118/118 114/114/114 29/29/29
f 118/118/118 29/29/29 28/28/28
f 118/118/118 28/28/28 27/27/27
f 118/118/118 27/27/27 111/111/111
f 118/118/118 111/111/111 74/74/74
f 118/118/118 74/74/74 73/73/73
f 118/118/118 73/73/73 72/72/72
f 118/118/118 72/72/72 114/114/114
