v -2.344137 0.704912 -1.083445
v -2.341647 0.705222 -1.085553
v -2.345021 0.704598 -1.088249
v -2.347456 0.704226 -1.085563
v -2.349524 0.704218 -1.08364
v -2.34648 0.704926 -1.082134
v -2.344148 0.705157 -1.08168
v -2.341674 0.705257 -1.082053
v -2.339138 0.705534 -1.083591
v -2.340436 0.706303 -1.0884
v -2.339988 0.707365 -1.090825
v -2.342149 0.706989 -1.093512
v -2.343249 0.705806 -1.091195
v -2.33847 0.706461 -1.086342
v -2.338891 0.707132 -1.088718
v -2.353098 0.701553 -1.099653
v -2.351727 0.702437 -1.101778
v -2.355154 0.700164 -1.104062
v -2.356355 0.699366 -1.102178
v -2.358051 0.698468 -1.099703
v -2.355027 0.700553 -1.096859
v -2.351867 0.702345 -1.093996
v -2.349861 0.703421 -1.096919
v -2.348448 0.704391 -1.099145
v -2.35722 0.700004 -1.094135
v -2.36 0.697996 -1.097298
v -2.361542 0.697763 -1.09551
v -2.358949 0.699723 -1.092109
v -2.356004 0.701552 -1.08903
v -2.354174 0.701801 -1.091147
v -2.35086 0.703198 -1.08821
v -2.34848 0.703666 -1.091094
v -2.35278 0.703072 -1.086073
v -2.346485 0.704842 -1.094067
v -2.345113 0.705953 -1.096337
v -2.359795 0.696987 -1.104402
v -2.358937 0.697648 -1.105822
v -2.361223 0.696016 -1.106436
v -2.36242 0.695095 -1.105956
v -2.363227 0.694537 -1.104673
v -2.36103 0.696268 -1.102546
v -2.362515 0.695965 -1.10076
v -2.364284 0.694394 -1.10346
v -2.364578 0.694756 -1.101945
v -2.363708 0.695855 -1.099436
v -2.344071 0.704576 -1.083429
v -2.341552 0.704894 -1.085575
v -2.339071 0.705287 -1.083611
v -2.34163 0.705005 -1.082042
v -2.34412 0.704969 -1.081663
v -2.346445 0.704672 -1.082103
v -2.349477 0.703967 -1.083607
v -2.347376 0.703893 -1.085543
v -2.344916 0.704271 -1.088262
v -2.340314 0.705988 -1.088459
v -2.339884 0.707138 -1.090887
v -2.338819 0.706961 -1.088761
v -2.338381 0.706225 -1.086391
v -2.343119 0.705492 -1.091241
v -2.34204 0.706761 -1.093562
v -2.352928 0.701254 -1.09965
v -2.351591 0.702216 -1.101787
v -2.348321 0.704167 -1.099165
v -2.349705 0.703115 -1.096929
v -2.351728 0.70203 -1.09398
v -2.354874 0.700245 -1.096831
v -2.357888 0.698166 -1.099667
v -2.356176 0.699072 -1.102166
v -2.355011 0.699948 -1.104065
v -2.357086 0.699691 -1.094084
v -2.354054 0.701481 -1.091106
v -2.355924 0.70131 -1.088987
v -2.358858 0.699486 -1.092059
v -2.361445 0.697531 -1.095453
v -2.359857 0.697689 -1.097238
v -2.350761 0.702871 -1.088181
v -2.348358 0.703345 -1.091094
v -2.352717 0.702825 -1.086036
v -2.346342 0.704531 -1.094095
v -2.344995 0.705726 -1.096373
v -2.359611 0.696696 -1.104388
v -2.358791 0.697434 -1.105825
v -2.360864 0.695968 -1.102507
v -2.363103 0.694313 -1.104643
v -2.362281 0.694877 -1.105947
v -2.361117 0.695857 -1.106434
v -2.36237 0.695659 -1.100695
v -2.363609 0.695624 -1.099375
v -2.364502 0.694585 -1.101903
v -2.364176 0.694165 -1.10341
v -2.358584 0.697774 -1.106299
v -2.361798 0.695577 -1.106996
v -2.354689 0.700335 -1.104694
v -2.361117 0.695857 -1.106434
v -2.364826 0.693769 -1.104338
v -2.365159 0.694314 -1.102497
v -2.363904 0.69386 -1.105369
v -2.364502 0.694585 -1.101903
v -2.347248 0.704817 -1.08168
v -2.344235 0.705168 -1.08127
v -2.350195 0.704103 -1.082981
v -2.34412 0.704969 -1.081663
v -2.337776 0.706409 -1.085679
v -2.338547 0.707305 -1.088884
v -2.338273 0.705528 -1.082947
v -2.338819 0.706961 -1.088761
v -2.339789 0.70762 -1.091664
v -2.341732 0.707283 -1.09431
v -2.363233 0.694368 -1.10647
v -2.364064 0.695715 -1.098964
v -2.362015 0.697582 -1.094886
v -2.340834 0.70526 -1.081585
v -2.353395 0.70292 -1.085341
v -2.356581 0.701361 -1.088303
v -2.344601 0.706224 -1.097113
v -2.347919 0.704616 -1.099898
v -2.351207 0.702634 -1.102493
v -2.359488 0.699523 -1.091409
vn -0.1175 0.9892 -0.0871
vn -0.2333 0.9675 0.0973
vn -0.2794 0.9583 0.0602
vn -0.178 0.9783 -0.106
vn -0.2029 0.9725 -0.1142
vn -0.1228 0.9891 -0.0811
vn -0.0661 0.9962 -0.0565
vn -0.0699 0.9975 0.0015
vn -0.1596 0.975 0.1544
vn -0.3703 0.8942 0.2513
vn -0.3665 0.8975 0.2451
vn -0.418 0.8917 0.1737
vn -0.404 0.8934 0.1965
vn -0.2765 0.9199 0.2779
vn -0.3278 0.8979 0.2939
vn -0.5227 0.8524 -0.0122
vn -0.5083 0.8599 -0.0465
vn -0.5278 0.8465 -0.0687
vn -0.5488 0.8355 -0.0263
vn -0.4906 0.8624 -0.1244
vn -0.4626 0.8811 -0.0982
vn -0.4038 0.9137 -0.0452
vn -0.4775 0.8774 0.0455
vn -0.4751 0.8798 0.0134
vn -0.3958 0.9001 -0.1821
vn -0.4127 0.8866 -0.2086
vn -0.4475 0.8767 -0.1762
vn -0.4245 0.8914 -0.1587
vn -0.3643 0.9214 -0.1348
vn -0.3352 0.9309 -0.1451
vn -0.2535 0.9603 -0.1165
vn -0.3356 0.9419 0.0137
vn -0.2834 0.9515 -0.12
vn -0.433 0.8928 0.1238
vn -0.4434 0.8913 0.0943
vn -0.5714 0.8206 -0.0146
vn -0.5525 0.8311 -0.0627
vn -0.5801 0.8131 -0.0477
vn -0.6181 0.7854 -0.0317
vn -0.5387 0.825 -0.1708
vn -0.5035 0.8531 -0.1366
vn -0.4054 0.8829 -0.2369
vn -0.4268 0.8573 -0.2878
vn -0.4365 0.8671 -0.24
vn -0.446 0.8711 -0.2053
vn 0.1182 -0.9853 0.1235
vn 0.2461 -0.9653 -0.0871
vn 0.2949 -0.9543 -0.0476
vn 0.116 -0.9662 0.2302
vn 0.0608 -0.94 0.3357
vn 0.0692 -0.9477 0.3115
vn 0.1158 -0.9588 0.2593
vn 0.1696 -0.9783 0.1189
vn 0.2793 -0.9583 -0.0603
vn 0.4028 -0.8783 -0.2575
vn 0.549 -0.7675 -0.3309
vn 0.5666 -0.75 -0.3413
vn 0.4946 -0.8239 -0.2766
vn 0.4132 -0.8868 -0.2071
vn 0.5192 -0.8073 -0.2806
vn 0.5304 -0.8477 -0.0014
vn 0.5791 -0.8095 -0.096
vn 0.5481 -0.825 -0.1379
vn 0.4852 -0.8725 -0.0575
vn 0.4039 -0.9137 0.0453
vn 0.4627 -0.881 0.0984
vn 0.4907 -0.8624 0.1245
vn 0.5564 -0.8309 0.0093
vn 0.5919 -0.7978 -0.1142
vn 0.3847 -0.9025 0.1937
vn 0.3254 -0.9326 0.1564
vn 0.2598 -0.9333 0.2479
vn 0.304 -0.9129 0.2722
vn 0.2885 -0.9119 0.2919
vn 0.3984 -0.8902 0.2208
vn 0.2444 -0.9612 0.1279
vn 0.3356 -0.9419 -0.0137
vn 0.1864 -0.9531 0.2384
vn 0.4407 -0.8874 -0.135
vn 0.5211 -0.8273 -0.2096
vn 0.5712 -0.8206 -0.0179
vn 0.5912 -0.7865 -0.1784
vn 0.4957 -0.8588 0.1292
vn 0.4606 -0.8824 0.0963
vn 0.5579 -0.8213 -0.1193
vn 0.5852 -0.7804 -0.2199
vn 0.3757 -0.894 0.244
vn 0.2268 -0.9235 0.3095
vn 0.1854 -0.9307 0.3153
vn 0.2789 -0.9261 0.254
vn 0.1904 0.2057 -0.9599
vn -0.1786 0.0214 -0.9837
vn 0.3319 0.2494 -0.9097
vn 0.5852 -0.7804 -0.2199
vn -0.7825 -0.4657 -0.4132
vn -0.9602 -0.2721 0.0628
vn -0.5805 -0.56 -0.5911
vn 0.1854 -0.9307 0.3153
vn -0.3628 0.1711 0.916
vn -0.0486 0.2187 0.9746
vn -0.5402 0.0885 0.8368
vn 0.0608 -0.94 0.3357
vn 0.9407 0.3002 0.1578
vn 0.8181 0.5442 -0.1855
vn 0.7919 0.0583 0.6078
vn 0.5666 -0.75 -0.3413
vn 0.6768 0.5616 -0.4759
vn 0.5692 0.5053 -0.6485
vn -0.5065 -0.3619 -0.7826
vn -0.8683 -0.1921 0.4573
vn -0.7888 -0.1718 0.5901
vn 0.3664 0.0843 0.9266
vn -0.64 0.0038 0.7683
vn -0.6849 -0.0581 0.7263
vn 0.4967 0.431 -0.7533
vn 0.46 0.3721 -0.8062
vn 0.4206 0.3109 -0.8523
vn -0.7239 -0.1193 0.6795
vt 0.839504 0.118056
vt 0.856743 0.205307
vt 0.741230 0.205307
vt 0.734555 0.106726
vt 0.724541 0.032791
vt 0.813647 0.052618
vt 0.868992 0.081539
vt 0.913398 0.129584
vt 0.940923 0.205307
vt 0.839504 0.292557
vt 0.813647 0.357995
vt 0.724541 0.377822
vt 0.734555 0.303887
vt 0.913398 0.281029
vt 0.868992 0.329074
vt 0.369475 0.299954
vt 0.368286 0.370940
vt 0.245840 0.351447
vt 0.246397 0.288815
vt 0.246768 0.205307
vt 0.370268 0.205307
vt 0.494283 0.205307
vt 0.492822 0.304944
vt 0.490632 0.379672
vt 0.369475 0.110659
vt 0.246397 0.121798
vt 0.245841 0.059166
vt 0.368286 0.039673
vt 0.490632 0.030941
vt 0.492822 0.105669
vt 0.616755 0.103478
vt 0.619174 0.205307
vt 0.613127 0.027106
vt 0.616755 0.307135
vt 0.613126 0.383507
vt 0.123273 0.268175
vt 0.123047 0.315326
vt 0.054743 0.283353
vt 0.030912 0.249131
vt 0.030973 0.205306
vt 0.123423 0.205306
vt 0.123273 0.142438
vt 0.030912 0.161481
vt 0.054744 0.127260
vt 0.123047 0.095287
vt 0.839504 0.118056
vt 0.856743 0.205307
vt 0.968983 0.205307
vt 0.938030 0.133427
vt 0.876123 0.061548
vt 0.805028 0.030806
vt 0.721203 0.008146
vt 0.734555 0.106726
vt 0.741230 0.205307
vt 0.839504 0.292557
vt 0.805028 0.379807
vt 0.876123 0.349065
vt 0.938030 0.277186
vt 0.734555 0.303887
vt 0.721203 0.402467
vt 0.369475 0.299954
vt 0.367890 0.394602
vt 0.489902 0.404581
vt 0.492822 0.304944
vt 0.494283 0.205307
vt 0.370268 0.205307
vt 0.246768 0.205307
vt 0.246397 0.288815
vt 0.245655 0.372324
vt 0.369475 0.110659
vt 0.492822 0.105669
vt 0.489902 0.006032
vt 0.367890 0.016011
vt 0.245655 0.038289
vt 0.246397 0.121798
vt 0.616755 0.103478
vt 0.619174 0.205307
vt 0.611917 0.001649
vt 0.616755 0.307135
vt 0.611917 0.408964
vt 0.123273 0.268175
vt 0.122972 0.331043
vt 0.123423 0.205306
vt 0.000156 0.205306
vt 0.000125 0.242784
vt 0.000064 0.280261
vt 0.123273 0.142438
vt 0.122972 0.079570
vt 0.000064 0.130352
vt 0.000125 0.167829
vt 0.122972 0.331043
vt 0.030806 0.283587
vt 0.245655 0.372324
vt 0.030806 0.283587
vt 0.000125 0.167829
vt 0.030806 0.127026
vt 0.000156 0.205306
vt 0.030806 0.127026
vt 0.805028 0.030806
vt 0.873826 0.071832
vt 0.721203 0.008146
vt 0.873826 0.071832
vt 0.938030 0.277186
vt 0.873826 0.338781
vt 0.968983 0.205307
vt 0.873826 0.338781
vt 0.805028 0.379807
vt 0.721203 0.402467
vt 0.000125 0.242784
vt 0.122972 0.079570
vt 0.245655 0.038289
vt 0.938030 0.133427
vt 0.611917 0.001649
vt 0.489902 0.006032
vt 0.611917 0.408964
vt 0.489902 0.404581
vt 0.367890 0.394602
vt 0.367890 0.016011
f 1/1/1 2/2/2 3/3/3
f 1/1/1 3/3/3 4/4/4
f 1/1/1 4/4/4 5/5/5
f 1/1/1 5/5/5 6/6/6
f 1/1/1 6/6/6 7/7/7
f 1/1/1 7/7/7 8/8/8
f 1/1/1 8/8/8 9/9/9
f 1/1/1 9/9/9 2/2/2
f 10/10/10 11/11/11 12/12/12
f 10/10/10 12/12/12 13/13/13
f 10/10/10 13/13/13 3/3/3
f 10/10/10 3/3/3 2/2/2
f 10/10/10 2/2/2 9/9/9
f 10/10/10 9/9/9 14/14/14
f 10/10/10 14/14/14 15/15/15
f 10/10/10 15/15/15 11/11/11
f 16/16/16 17/17/17 18/18/18
f 16/16/16 18/18/18 19/19/19
f 16/16/16 19/19/19 20/20/20
f 16/16/16 20/20/20 21/21/21
f 16/16/16 21/21/21 22/22/22
f 16/16/16 22/22/22 23/23/23
f 16/16/16 23/23/23 24/24/24
f 16/16/16 24/24/24 17/17/17
f 25/25/25 21/21/21 20/20/20
f 25/25/25 20/20/20 26/26/26
f 25/25/25 26/26/26 27/27/27
f 25/25/25 27/27/27 28/28/28
f 25/25/25 28/28/28 29/29/29
f 25/25/25 29/29/29 30/30/30
f 25/25/25 30/30/30 22/22/22
f 25/25/25 22/22/22 21/21/21
f 31/31/31 32/32/32 22/22/22
f 31/31/31 22/22/22 30/30/30
f 31/31/31 30/30/30 29/29/29
f 31/31/31 29/29/29 33/33/33
f 31/31/31 33/33/33 5/5/5
f 31/31/31 5/5/5 4/4/4
f 31/31/31 4/4/4 3/3/3
f 31/31/31 3/3/3 32/32/32
f 34/34/34 35/35/35 24/24/24
f 34/34/34 24/24/24 23/23/23
f 34/34/34 23/23/23 22/22/22
f 34/34/34 22/22/22 32/32/32
f 34/34/34 32/32/32 3/3/3
f 34/34/34 3/3/3 13/13/13
f 34/34/34 13/13/13 12/12/12
f 34/34/34 12/12/12 35/35/35
f 36/36/36 37/37/37 38/38/38
f 36/36/36 38/38/38 39/39/39
f 36/36/36 39/39/39 40/40/40
f 36/36/36 40/40/40 41/41/41
f 36/36/36 41/41/41 20/20/20
f 36/36/36 20/20/20 19/19/19
f 36/36/36 19/19/19 18/18/18
f 36/36/36 18/18/18 37/37/37
f 42/42/42 41/41/41 40/40/40
f 42/42/42 40/40/40 43/43/43
f 42/42/42 43/43/43 44/44/44
f 42/42/42 44/44/44 45/45/45
f 42/42/42 45/45/45 27/27/27
f 42/42/42 27/27/27 26/26/26
f 42/42/42 26/26/26 20/20/20
f 42/42/42 20/20/20 41/41/41
f 46/46/46 47/47/47 48/48/48
f 46/46/46 48/48/48 49/49/49
f 46/46/46 49/49/49 50/50/50
f 46/46/46 50/50/50 51/51/51
f 46/46/46 51/51/51 52/52/52
f 46/46/46 52/52/52 53/53/53
f 46/46/46 53/53/53 54/54/54
f 46/46/46 54/54/54 47/47/47
f 55/55/55 56/56/56 57/57/57
f 55/55/55 57/57/57 58/58/58
f 55/55/55 58/58/58 48/48/48
f 55/55/55 48/48/48 47/47/47
f 55/55/55 47/47/47 54/54/54
f 55/55/55 54/54/54 59/59/59
f 55/55/55 59/59/59 60/60/60
f 55/55/55 60/60/60 56/56/56
f 61/61/61 62/62/62 63/63/63
f 61/61/61 63/63/63 64/64/64
f 61/61/61 64/64/64 65/65/65
f 61/61/61 65/65/65 66/66/66
f 61/61/61 66/66/66 67/67/67
f 61/61/61 67/67/67 68/68/68
f 61/61/61 68/68/68 69/69/69
f 61/61/61 69/69/69 62/62/62
f 70/70/70 66/66/66 65/65/65
f 70/70/70 65/65/65 71/71/71
f 70/70/70 71/71/71 72/72/72
f 70/70/70 72/72/72 73/73/73
f 70/70/70 73/73/73 74/74/74
f 70/70/70 74/74/74 75/75/75
f 70/70/70 75/75/75 67/67/67
f 70/70/70 67/67/67 66/66/66
f 76/76/76 77/77/77 54/54/54
f 76/76/76 54/54/54 53/53/53
f 76/76/76 53/53/53 52/52/52
f 76/76/76 52/52/52 78/78/78
f 76/76/76 78/78/78 72/72/72
f 76/76/76 72/72/72 71/71/71
f 76/76/76 71/71/71 65/65/65
f 76/76/76 65/65/65 77/77/77
f 79/79/79 80/80/80 60/60/60
f 79/79/79 60/60/60 59/59/59
f 79/79/79 59/59/59 54/54/54
f 79/79/79 54/54/54 77/77/77
f 79/79/79 77/77/77 65/65/65
f 79/79/79 65/65/65 64/64/64
f 79/79/79 64/64/64 63/63/63
f 79/79/79 63/63/63 80/80/80
f 81/81/81 82/82/82 69/69/69
f 81/81/81 69/69/69 68/68/68
f 81/81/81 68/68/68 67/67/67
f 81/81/81 67/67/67 83/83/83
f 81/81/81 83/83/83 84/84/84
f 81/81/81 84/84/84 85/85/85
f 81/81/81 85/85/85 86/86/86
f 81/81/81 86/86/86 82/82/82
f 87/87/87 83/83/83 67/67/67
f 87/87/87 67/67/67 75/75/75
f 87/87/87 75/75/75 74/74/74
f 87/87/87 74/74/74 88/88/88
f 87/87/87 88/88/88 89/89/89
f 87/87/87 89/89/89 90/90/90
f 87/87/87 90/90/90 84/84/84
f 87/87/87 84/84/84 83/83/83
f 91/91/91 92/92/92 38/38/38
f 91/91/91 38/38/38 37/37/37
f 91/91/91 37/37/37 18/18/18
f 91/91/91 18/18/18 93/93/93
f 91/91/91 93/93/93 69/69/69
f 91/91/91 69/69/69 82/82/82
f 91/91/91 82/82/82 94/94/94
f 91/91/91 94/94/94 92/92/92
f 95/95/95 96/96/96 44/44/44
f 95/95/95 44/44/44 43/43/43
f 95/95/95 43/43/43 40/40/40
f 95/95/95 40/40/40 97/97/97
f 95/95/95 97/97/97 84/84/84
f 95/95/95 84/84/84 90/90/90
f 95/95/95 90/90/90 98/98/98
f 95/95/95 98/98/98 96/96/96
f 99/99/99 100/100/100 7/7/7
f 99/99/99 7/7/7 6/6/6
f 99/99/99 6/6/6 5/5/5
f 99/99/99 5/5/5 101/101/101
f 99/99/99 101/101/101 52/52/52
f 99/99/99 52/52/52 51/51/51
f 99/99/99 51/51/51 102/102/102
f 99/99/99 102/102/102 100/100/100
f 103/103/103 104/104/104 15/15/15
f 103/103/103 15/15/15 14/14/14
f 103/103/103 14/14/14 9/9/9
f 103/103/103 9/9/9 105/105/105
f 103/103/103 105/105/105 48/48/48
f 103/103/103 48/48/48 58/58/58
f 103/103/103 58/58/58 106/106/106
f 103/103/103 106/106/106 104/104/104
f 107/107/107 108/108/108 12/12/12
f 107/107/107 12/12/12 11/11/11
f 107/107/107 11/11/11 15/15/15
f 107/107/107 15/15/15 104/104/104
f 107/107/107 104/104/104 106/106/106
f 107/107/107 106/106/106 56/56/56
f 107/107/107 56/56/56 60/60/60
f 107/107/107 60/60/60 108/108/108
f 109/109/109 97/97/97 40/40/40
f 109/109/109 40/40/40 39/39/39
f 109/109/109 39/39/39 38/38/38
f 109/109/109 38/38/38 92/92/92
f 109/109/109 92/92/92 94/94/94
f 109/109/109 94/94/94 85/85/85
f 109/109/109 85/85/85 84/84/84
f 109/109/109 84/84/84 97/97/97
f 110/110/110 111/111/111 27/27/27
f 110/110/110 27/27/27 45/45/45
f 110/110/110 45/45/45 44/44/44
f 110/110/110 44/44/44 96/96/96
f 110/110/110 96/96/96 98/98/98
f 110/110/110 98/98/98 88/88/88
f 110/110/110 88/88/88 74/74/74
f 110/110/110 74/74/74 111/111/111
f 112/112/112 105/105/105 9/9/9
f 112/112/112 9/9/9 8/8/8
f 112/112/112 8/8/8 7/7/7
f 112/112/112 7/7/7 100/100/100
f 112/112/112 100/100/100 102/102/102
f 112/112/112 102/102/102 49/49/49
f 112/112/112 49/49/49 48/48/48
f 112/112/112 48/48/48 105/105/105
f 113/113/113 101/101/101 5/5/5
f 113/113/113 5/5/5 33/33/33
f 113/113/113 33/33/33 29/29/29
f 113/113/113 29/29/29 114/114/114
f 113/113/113 114/114/114 72/72/72
f 113/113/113 72/72/72 78/78/78
f 113/113/113 78/78/78 52/52/52
f 113/113/113 52/52/52 101/101/101
f 115/115/115 116/116/116 24/24/24
f 115/115/115 24/24/24 35/35/35
f 115/115/115 35/35/35 12/12/12
f 115/115/115 12/12/12 108/108/108
f 115/115/115 108/108/108 60/60/60
f 115/115/115 60/60/60 80/80/80
f 115/115/115 80/80/80 63/63/63
f 115/115/115 63/63/63 116/116/116
f 117/117/117 93/93/93 18/18/18
f 117/117/117 18/18/18 17/17/17
f 117/117/117 17/17/17 24/24/24
f 117/117/117 24/24/24 116/116/116
f 117/117/117 116/116/116 63/63/63
f 117/117/117 63/63/63 62/62/62
f 117/117/117 62/62/62 69/69/69
f 117/117/117 69/69/69 93/93/93
f 118/118/118 114/114/114 29/29/29
f 118/118/118 29/29/29 28/28/28
f 118/118/118 28/28/28 27/27/27
f 118/118/118 27/27/27 111/111/111
f 118/118/118 111/111/111 74/74/74
f 118/118/118 74/74/74 73/73/73
f 118/118/118 73/73/73 72/72/72
f 118/118/118 72/72/72 114/114/114
