v -2.393462 0.734445 -1.18206
v -2.392158 0.734596 -1.18413
v -2.39485 0.733061 -1.185152
v -2.396003 0.732999 -1.182683
v -2.397109 0.733085 -1.180884
v -2.39487 0.734374 -1.18063
v -2.393213 0.734993 -1.180871
v -2.391573 0.735365 -1.181697
v -2.390131 0.735622 -1.183375
v -2.392033 0.73493 -1.186556
v -2.392364 0.735224 -1.188515
v -2.394261 0.734052 -1.189841
v -2.394379 0.73355 -1.187792
v -2.390336 0.735785 -1.185588
v -2.391183 0.735682 -1.187256
v -2.401839 0.727241 -1.190787
v -2.401437 0.727617 -1.192714
v -2.403754 0.725008 -1.193168
v -2.404098 0.724667 -1.191461
v -2.404662 0.724306 -1.189216
v -2.40249 0.726841 -1.188252
v -2.400159 0.729196 -1.187257
v -2.399493 0.729634 -1.189912
v -2.399097 0.730055 -1.191932
v -2.403431 0.726701 -1.185781
v -2.405505 0.724189 -1.187033
v -2.406221 0.72417 -1.185409
v -2.404226 0.72667 -1.183941
v -2.402014 0.729065 -1.182755
v -2.401158 0.729069 -1.184674
v -2.398625 0.731187 -1.183598
v -2.397565 0.731265 -1.186209
v -2.399566 0.73126 -1.181664
v -2.396936 0.731761 -1.188912
v -2.396605 0.732264 -1.190977
v -2.406391 0.721994 -1.191853
v -2.406177 0.722285 -1.193139
v -2.40754 0.720659 -1.192791
v -2.4081 0.719932 -1.19204
v -2.408324 0.719691 -1.190878
v -2.40678 0.721697 -1.19017
v -2.407441 0.721638 -1.188549
v -2.40882 0.719687 -1.189776
v -2.408835 0.720219 -1.188717
v -2.408019 0.72166 -1.187345
v -2.393344 0.734224 -1.182009
v -2.392027 0.734376 -1.184113
v -2.390036 0.735455 -1.183363
v -2.391488 0.735198 -1.181658
v -2.393152 0.734869 -1.180835
v -2.394788 0.734208 -1.180575
v -2.397018 0.732924 -1.180831
v -2.395875 0.732783 -1.182632
v -2.394712 0.732846 -1.185131
v -2.391893 0.734716 -1.186572
v -2.392255 0.735068 -1.188544
v -2.391105 0.735564 -1.187274
v -2.390234 0.735623 -1.185603
v -2.394232 0.73334 -1.187801
v -2.394147 0.733898 -1.189863
v -2.401659 0.727059 -1.190773
v -2.401298 0.727482 -1.192714
v -2.398966 0.729913 -1.191937
v -2.399323 0.729442 -1.189903
v -2.399995 0.729001 -1.187226
v -2.402315 0.726655 -1.188216
v -2.40448 0.724127 -1.189177
v -2.40391 0.724491 -1.191444
v -2.40361 0.724878 -1.193167
v -2.403264 0.726514 -1.185724
v -2.401002 0.728872 -1.18462
v -2.401901 0.728917 -1.182703
v -2.404104 0.726529 -1.183888
v -2.406094 0.724035 -1.185353
v -2.405331 0.724009 -1.186973
v -2.398483 0.73098 -1.183546
v -2.397414 0.731059 -1.186183
v -2.399464 0.731104 -1.181612
v -2.396777 0.731559 -1.188912
v -2.396483 0.732116 -1.19099
v -2.4062 0.721822 -1.191837
v -2.406031 0.722158 -1.193139
v -2.406595 0.721521 -1.190131
v -2.408185 0.719559 -1.190848
v -2.407957 0.719803 -1.192029
v -2.407433 0.720564 -1.192788
v -2.407265 0.72146 -1.188486
v -2.407892 0.721526 -1.187287
v -2.40874 0.720121 -1.188676
v -2.408688 0.719554 -1.189728
v -2.406041 0.722326 -1.19357
v -2.407948 0.720143 -1.19298
v -2.403575 0.725064 -1.193739
v -2.407433 0.720564 -1.192788
v -2.409221 0.718978 -1.190164
v -2.409245 0.719702 -1.188899
v -2.408777 0.718964 -1.1911
v -2.40874 0.720121 -1.188676
v -2.395304 0.734276 -1.180125
v -2.393204 0.735075 -1.180568
v -2.397438 0.733043 -1.180258
v -2.393152 0.734869 -1.180835
v -2.389726 0.735998 -1.185273
v -2.391008 0.73582 -1.187476
v -2.389414 0.73589 -1.183119
v -2.391105 0.735564 -1.187274
v -2.392425 0.735254 -1.189184
v -2.39417 0.734152 -1.190537
v -2.408606 0.719187 -1.192098
v -2.408156 0.721608 -1.186915
v -2.406404 0.724104 -1.184841
v -2.390907 0.735597 -1.181558
v -2.399835 0.731215 -1.180994
v -2.40225 0.728998 -1.18209
v -2.39644 0.732367 -1.191674
v -2.398906 0.730133 -1.19261
v -2.40124 0.727682 -1.193359
v -2.404437 0.726597 -1.183302
vn -0.4039 0.8764 -0.2622
vn -0.4629 0.8849 -0.0517
vn -0.5119 0.8561 -0.0704
vn -0.4617 0.8482 -0.2594
vn -0.4852 0.8353 -0.2584
vn -0.4075 0.8769 -0.2549
vn -0.3508 0.9023 -0.2504
vn -0.3413 0.9193 -0.1957
vn -0.383 0.9235 -0.0221
vn -0.5344 0.8321 0.1483
vn -0.5332 0.8342 0.1406
vn -0.5962 0.7976 0.0909
vn -0.5783 0.8086 0.1075
vn -0.4478 0.8831 0.1395
vn -0.4858 0.8565 0.1744
vn -0.7263 0.6861 -0.0422
vn -0.7229 0.6863 -0.0801
vn -0.7426 0.6634 -0.092
vn -0.7492 0.6608 -0.0439
vn -0.7252 0.67 -0.1582
vn -0.6982 0.7007 -0.1463
vn -0.6401 0.7586 -0.1216
vn -0.6777 0.7353 -0.0074
vn -0.6835 0.7289 -0.0386
vn -0.6608 0.7083 -0.2483
vn -0.679 0.6847 -0.265
vn -0.7012 0.6774 -0.2222
vn -0.6797 0.7009 -0.2161
vn -0.6263 0.7483 -0.2184
vn -0.6041 0.7603 -0.2386
vn -0.5295 0.8128 -0.2427
vn -0.5706 0.8159 -0.0933
vn -0.5557 0.7974 -0.2353
vn -0.6222 0.7814 0.0487
vn -0.6384 0.7693 0.0247
vn -0.7634 0.6455 -0.0231
vn -0.7599 0.6456 -0.0757
vn -0.7771 0.6274 -0.0497
vn -0.8012 0.5981 -0.0174
vn -0.7705 0.6117 -0.179
vn -0.7375 0.6551 -0.1638
vn -0.6777 0.6746 -0.2926
vn -0.7025 0.6316 -0.3279
vn -0.7032 0.6524 -0.2827
vn -0.7051 0.6641 -0.2485
vn 0.4119 -0.8621 0.295
vn 0.4765 -0.8773 0.0568
vn 0.5282 -0.8457 0.0767
vn 0.4295 -0.8142 0.3906
vn 0.3954 -0.7709 0.4993
vn 0.3997 -0.7833 0.476
vn 0.434 -0.799 0.4161
vn 0.4568 -0.8463 0.2739
vn 0.5118 -0.8562 0.0703
vn 0.5588 -0.8123 -0.1671
vn 0.6473 -0.6993 -0.3031
vn 0.6564 -0.6823 -0.3218
vn 0.6248 -0.7479 -0.2241
vn 0.5825 -0.8036 -0.1215
vn 0.6423 -0.7283 -0.2388
vn 0.729 -0.684 0.0263
vn 0.7418 -0.6653 -0.0845
vn 0.7073 -0.6982 -0.1108
vn 0.6806 -0.7326 -0.007
vn 0.6402 -0.7585 0.1217
vn 0.6983 -0.7006 0.1464
vn 0.7253 -0.6699 0.1583
vn 0.751 -0.6598 0.0248
vn 0.7462 -0.6569 -0.1077
vn 0.6537 -0.7095 0.2629
vn 0.5981 -0.7606 0.2524
vn 0.5585 -0.7486 0.3571
vn 0.5997 -0.7135 0.3621
vn 0.5896 -0.7101 0.3848
vn 0.6694 -0.6875 0.2814
vn 0.5239 -0.8123 0.2563
vn 0.5705 -0.8159 0.0933
vn 0.4934 -0.785 0.3745
vn 0.6253 -0.7779 -0.0626
vn 0.6661 -0.7264 -0.1689
vn 0.7557 -0.6549 -0.0071
vn 0.7274 -0.6648 -0.1697
vn 0.7301 -0.6642 0.1604
vn 0.6962 -0.7029 0.1455
vn 0.7198 -0.6872 -0.0973
vn 0.7105 -0.6722 -0.2079
vn 0.6547 -0.6891 0.3105
vn 0.5395 -0.7286 0.422
vn 0.5043 -0.7422 0.4414
vn 0.5758 -0.7362 0.3555
vn -0.103 -0.0427 -0.9937
vn -0.4014 -0.298 -0.8661
vn 0.0283 0.0416 -0.9987
vn 0.7105 -0.6722 -0.2079
vn -0.6968 -0.7155 -0.0495
vn -0.805 -0.4352 0.4031
vn -0.5236 -0.8131 -0.2542
vn 0.5043 -0.7422 0.4414
vn -0.1722 0.3471 0.9219
vn 0.1213 0.4733 0.8725
vn -0.3331 0.2107 0.919
vn 0.3954 -0.7709 0.4993
vn 0.8305 0.5203 -0.1987
vn 0.5684 0.6251 -0.5348
vn 0.8636 0.3919 0.3169
vn 0.6564 -0.6823 -0.3218
vn 0.3644 0.5294 -0.7661
vn 0.2395 0.405 -0.8824
vn -0.5543 -0.6672 -0.4975
vn -0.6494 -0.2285 0.7253
vn -0.5499 -0.1548 0.8207
vn 0.5339 0.4197 0.734
vn -0.4187 0.0913 0.9035
vn -0.4532 0.0119 0.8913
vn 0.1679 0.2901 -0.9421
vn 0.1377 0.2124 -0.9674
vn 0.1074 0.1339 -0.9851
vn -0.4833 -0.0667 0.8729
vt 0.839504 0.118056
vt 0.856743 0.205307
vt 0.741230 0.205307
vt 0.734555 0.106726
vt 0.724541 0.032791
vt 0.813647 0.052618
vt 0.868992 0.081539
vt 0.913398 0.129584
vt 0.940923 0.205307
vt 0.839504 0.292557
vt 0.813647 0.357995
vt 0.724541 0.377822
vt 0.734555 0.303887
vt 0.913398 0.281029
vt 0.868992 0.329074
vt 0.369475 0.299954
vt 0.368286 0.370940
vt 0.245840 0.351447
vt 0.246397 0.288815
vt 0.246768 0.205307
vt 0.370268 0.205307
vt 0.494283 0.205307
vt 0.492822 0.304944
vt 0.490632 0.379672
vt 0.369475 0.110659
vt 0.246397 0.121798
vt 0.245841 0.059166
vt 0.368286 0.039673
vt 0.490632 0.030941
vt 0.492822 0.105669
vt 0.616755 0.103478
vt 0.619174 0.205307
vt 0.613127 0.027106
vt 0.616755 0.307135
vt 0.613126 0.383507
vt 0.123273 0.268175
vt 0.123047 0.315326
vt 0.054743 0.283353
vt 0.030912 0.249131
vt 0.030973 0.205306
vt 0.123423 0.205306
vt 0.123273 0.142438
vt 0.030912 0.161481
vt 0.054744 0.127260
vt 0.123047 0.095287
vt 0.839504 0.118056
vt 0.856743 0.205307
vt 0.968983 0.205307
vt 0.938030 0.133427
vt 0.876123 0.061548
vt 0.805028 0.030806
vt 0.721203 0.008146
vt 0.734555 0.106726
vt 0.741230 0.205307
vt 0.839504 0.292557
vt 0.805028 0.379807
vt 0.876123 0.349065
vt 0.938030 0.277186
vt 0.734555 0.303887
vt 0.721203 0.402467
vt 0.369475 0.299954
vt 0.367890 0.394602
vt 0.489902 0.404581
vt 0.492822 0.304944
vt 0.494283 0.205307
vt 0.370268 0.205307
vt 0.246768 0.205307
vt 0.246397 0.288815
vt 0.245655 0.372324
vt 0.369475 0.110659
vt 0.492822 0.105669
vt 0.489902 0.006032
vt 0.367890 0.016011
vt 0.245655 0.038289
vt 0.246397 0.121798
vt 0.616755 0.103478
vt 0.619174 0.205307
vt 0.611917 0.001649
vt 0.616755 0.307135
vt 0.611917 0.408964
vt 0.123273 0.268175
vt 0.122972 0.331043
vt 0.123423 0.205306
vt 0.000156 0.205306
vt 0.000125 0.242784
vt 0.000064 0.280261
vt 0.123273 0.142438
vt 0.122972 0.079570
vt 0.000064 0.130352
vt 0.000125 0.167829
vt 0.122972 0.331043
vt 0.030806 0.283587
vt 0.245655 0.372324
vt 0.030806 0.283587
vt 0.000125 0.167829
vt 0.030806 0.127026
vt 0.000156 0.205306
vt 0.030806 0.127026
vt 0.805028 0.030806
vt 0.873826 0.071832
vt 0.721203 0.008146
vt 0.873826 0.071832
vt 0.938030 0.277186
vt 0.873826 0.338781
vt 0.968983 0.205307
vt 0.873826 0.338781
vt 0.805028 0.379807
vt 0.721203 0.402467
vt 0.000125 0.242784
vt 0.122972 0.079570
vt 0.245655 0.038289
vt 0.938030 0.133427
vt 0.611917 0.001649
vt 0.489902 0.006032
vt 0.611917 0.408964
vt 0.489902 0.404581
vt 0.367890 0.394602
vt 0.367890 0.016011
f 1/1/1 2/2/2 3/3/3
f 1/1/1 3/3/3 4/4/4
f 1/1/1 4/4/4 5/5/5
f 1/1/1 5/5/5 6/6/6
f 1/1/1 6/6/6 7/7/7
f 1/1/1 7/7/7 8/8/8
f 1/1/1 8/8/8 9/9/9
f 1/1/1 9/9/9 2/2/2
f 10/10/10 11/11/11 12/12/12
f 10/10/10 12/12/12 13/13/13
f 10/10/10 13/13/13 3/3/3
f 10/10/10 3/3/3 2/2/2
f 10/10/10 2/2/2 9/9/9
f 10/10/10 9/9/9 14/14/14
f 10/10/10 14/14/14 15/15/15
f 10/10/10 15/15/15 11/11/11
f 16/16/16 17/17/17 18/18/18
f 16/16/16 18/18/18 19/19/19
f 16/16/16 19/19/19 20/20/20
f 16/16/16 20/20/20 21/21/21
f 16/16/16 21/21/21 22/22/22
f 16/16/16 22/22/22 23/23/23
f 16/16/16 23/23/23 24/24/24
f 16/16/16 24/24/24 17/17/17
f 25/25/25 21/21/21 20/20/20
f 25/25/25 20/20/20 26/26/26
f 25/25/25 26/26/26 27/27/27
f 25/25/25 27/27/27 28/28/28
f 25/25/25 28/28/28 29/29/29
f 25/25/25 29/29/29 30/30/30
f 25/25/25 30/30/30 22/22/22
f 25/25/25 22/22/22 21/21/21
f 31/31/31 32/32/32 22/22/22
f 31/31/31 22/22/22 30/30/30
f 31/31/31 30/30/30 29/29/29
f 31/31/31 29/29/29 33/33/33
f 31/31/31 33/33/33 5/5/5
f 31/31/31 5/5/5 4/4/4
f 31/31/31 4/4/4 3/3/3
f 31/31/31 3/3/3 32/32/32
f 34/34/34 35/35/35 24/24/24
f 34/34/34 24/24/24 23/23/23
f 34/34/34 23/23/23 22/22/22
f 34/34/34 22/22/22 32/32/32
f 34/34/34 32/32/32 3/3/3
f 34/34/34 3/3/3 13/13/13
f 34/34/34 13/13/13 12/12/12
f 34/34/34 12/12/12 35/35/35
f 36/36/36 37/37/37 38/38/38
f 36/36/36 38/38/38 39/39/39
f 36/36/36 39/39/39 40/40/40
f 36/36/36 40/40/40 41/41/41
f 36/36/36 41/41/41 20/20/20
f 36/36/36 20/20/20 19/19/19
f 36/36/36 19/19/19 18/18/18
f 36/36/36 18/18/18 37/37/37
f 42/42/42 41/41/41 40/40/40
f 42/42/42 40/40/40 43/43/43
f 42/42/42 43/43/43 44/44/44
f 42/42/42 44/44/44 45/45/45
f 42/42/42 45/45/45 27/27/27
f 42/42/42 27/27/27 26/26/26
f 42/42/42 26/26/26 20/20/20
f 42/42/42 20/20/20 41/41/41
f 46/46/46 47/47/47 48/48/48
f 46/46/46 48/48/48 49/49/49
f 46/46/46 49/49/49 50/50/50
f 46/46/46 50/50/50 51/51/51
f 46/46/46 51/51/51 52/52/52
f 46/46/46 52/52/52 53/53/53
f 46/46/46 53/53/53 54/54/54
f 46/46/46 54/54/54 47/47/47
f 55/55/55 56/56/56 57/57/57
f 55/55/55 57/57/57 58/58/58
f 55/55/55 58/58/58 48/48/48
f 55/55/55 48/48/48 47/47/47
f 55/55/55 47/47/47 54/54/54
f 55/55/55 54/54/54 59/59/59
f 55/55/55 59/59/59 60/60/60
f 55/55/55 60/60/60 56/56/56
f 61/61/61 62/62/62 63/63/63
f 61/61/61 63/63/63 64/64/64
f 61/61/61 64/64/64 65/65/65
f 61/61/61 65/65/65 66/66/66
f 61/61/61 66/66/66 67/67/67
f 61/61/61 67/67/67 68/68/68
f 61/61/61 68/68/68 69/69/69
f 61/61/61 69/69/69 62/62/62
f 70/70/70 66/66/66 65/65/65
f 70/70/70 65/65/65 71/71/71
f 70/70/70 71/71/71 72/72/72
f 70/70/70 72/72/72 73/73/73
f 70/70/70 73/73/73 74/74/74
f 70/70/70 74/74/74 75/75/75
f 70/70/70 75/75/75 67/67/67
f 70/70/70 67/67/67 66/66/66
f 76/76/76 77/77/77 54/54/54
f 76/76/76 54/54/54 53/53/53
f 76/76/76 53/53/53 52/52/52
f 76/76/76 52/52/52 78/78/78
f 76/76/76 78/78/78 72/72/72
f 76/76/76 72/72/72 71/71/71
f 76/76/76 71/71/71 65/65/65
f 76/76/76 65/65/65 77/77/77
f 79/79/79 80/80/80 60/60/60
f 79/79/79 60/60/60 59/59/59
f 79/79/79 59/59/59 54/54/54
f 79/79/79 54/54/54 77/77/77
f 79/79/79 77/77/77 65/65/65
f 79/79/79 65/65/65 64/64/64
f 79/79/79 64/64/64 63/63/63
f 79/79/79 63/63/63 80/80/80
f 81/81/81 82/82/82 69/69/69
f 81/81/81 69/69/69 68/68/68
f 81/81/81 68/68/68 67/67/67
f 81/81/81 67/67/67 83/83/83
f 81/81/81 83/83/83 84/84/84
f 81/81/81 84/84/84 85/85/85
f 81/81/81 85/85/85 86/86/86
f 81/81/81 86/86/86 82/82/82
f 87/87/87 83/83/83 67/67/67
f 87/87/87 67/67/67 75/75/75
f 87/87/87 75/75/75 74/74/74
f 87/87/87 74/74/74 88/88/88
f 87/87/87 88/88/88 89/89/89
f 87/87/87 89/89/89 90/90/90
f 87/87/87 90/90/90 84/84/84
f 87/87/87 84/84/84 83/83/83
f 91/91/91 92/92/92 38/38/38
f 91/91/91 38/38/38 37/37/37
f 91/91/91 37/37/37 18/18/18
f 91/91/91 18/18/18 93/93/93
f 91/91/91 93/93/93 69/69/69
f 91/91/91 69/69/69 82/82/82
f 91/91/91 82/82/82 94/94/94
f 91/91/91 94/94/94 92/92/92
f 95/95/95 96/96/96 44/44/44
f 95/95/95 44/44/44 43/43/43
f 95/95/95 43/43/43 40/40/40
f 95/95/95 40/40/40 97/97/97
f 95/95/95 97/97/97 84/84/84
f 95/95/95 84/84/84 90/90/90
f 95/95/95 90/90/90 98/98/98
f 95/95/95 98/98/98 96/96/96
f 99/99/99 100/100/100 7/7/7
f 99/99/99 7/7/7 6/6/6
f 99/99/99 6/6/6 5/5/5
f 99/99/99 5/5/5 101/101/101
f 99/99/99 101/101/101 52/52/52
f 99/99/99 52/52/52 51/51/51
f 99/99/99 51/51/51 102/102/102
f 99/99/99 102/102/102 100/100/100
f 103/103/103 104/104/104 15/15/15
f 103/103/103 15/15/15 14/14/14
f 103/103/103 14/14/14 9/9/9
f 103/103/103 9/9/9 105/105/105
f 103/103/103 105/105/105 48/48/48
f 103/103/103 48/48/48 58/58/58
f 103/103/103 58/58/58 106/106/106
f 103/103/103 106/106/106 104/104/104
f 107/107/107 108/108/108 12/12/12
f 107/107/107 12/12/12 11/11/11
f 107/107/107 11/11/11 15/15/15
f 107/107/107 15/15/15 104/104/104
f 107/107/107 104/104/104 106/106/106
f 107/107/107 106/106/106 56/56/56
f 107/107/107 56/56/56 60/60/60
f 107/107/107 60/60/60 108/108/108
f 109/109/109 97/97/97 40/40/40
f 109/109/109 40/40/40 39/39/39
f 109/109/109 39/39/39 38/38/38
f 109/109/109 38/38/38 92/92/92
f 109/109/109 92/92/92 94/94/94
f 109/109/109 94/94/94 85/85/85
f 109/109/109 85/85/85 84/84/84
f 109/109/109 84/84/84 97/97/97
f 110/110/110 111/111/111 27/27/27
f 110/110/110 27/27/27 45/45/45
f 110/110/110 45/45/45 44/44/44
f 110/110/110 44/44/44 96/96/96
f 110/110/110 96/96/96 98/98/98
f 110/110/110 98/98/98 88/88/88
f 110/110/110 88/88/88 74/74/74
f 110/110/110 74/74/74 111/111/111
f 112/112/112 105/105/105 9/9/9
f 112/112/112 9/9/9 8/8/8
f 112/112/112 8/8/8 7/7/7
f 112/112/112 7/7/7 100/100/100
f 112/112/112 100/100/100 102/102/102
f 112/112/112 102/102/102 49/49/49
f 112/112/112 49/49/49 48/48/48
f 112/112/112 48/48/48 105/105/105
f 113/113/113 101/101/101 5/5/5
f 113/113/113 5/5/5 33/33/33
f 113/113/113 33/33/33 29/29/29
f 113/113/113 29/29/29 114/114/114
f 113/113/113 114/114/114 72/72/72
f 113/113/113 72/72/72 78/78/78
f 113/113/113 78/78/78 52/52/52
f 113/113/113 52/52/52 101/101/101
f 115/115/115 116/116/116 24/24/24
f 115/115/115 24/24/24 35/35/35
f 115/115/115 35/35/35 12/12/12
f 115/115/115 12/12/12 108/108/108
f 115/115/115 108/108/108 60/60/60
f 115/115/115 60/60/60 80/80/80
f 115/115/115 80/80/80 63/63/63
f 115/115/115 63/63/63 116/116/116
f 117/117/117 93/93/93 18/18/18
f 117/117/117 18/18/18 17/17/17
f 117/117/117 17/17/17 24/24/24
f 117/117/117 24/24/24 116/116/116
f 117/117/117 116/116/116 63/63/63
f 117/117/117 63/63/63 62/62/62
f 117/117/117 62/62/62 69/69/69
f 117/117/117 69/69/69 93/93/93
f 118/118/118 114/114/114 29/29/29
f 118/118/118 29/29/29 28/28/28
f 118/118/118 28/28/28 27/27/27
f 118/118/118 27/27/27 111/111/111
f 118/118/118 111/111/111 74/74/74
f 118/118/118 74/74/74 73/73/73
f 118/118/118 73/73/73 72/72/72
f 118/118/118 72/72/72 114/114/114
