v -2.432146 0.66801 -1.084664
v -2.4321 0.667347 -1.081885
v -2.428538 0.666524 -1.082938
v -2.429003 0.667291 -1.085986
v -2.429121 0.668094 -1.08831
v -2.431706 0.668694 -1.086859
v -2.433268 0.668705 -1.085484
v -2.434383 0.668358 -1.083639
v -2.434742 0.667822 -1.081124
v -2.430752 0.667272 -1.079367
v -2.42926 0.667401 -1.077569
v -2.426342 0.666625 -1.077757
v -2.427418 0.666453 -1.079965
v -2.433176 0.66772 -1.079054
v -2.431287 0.667657 -1.077961
v -2.416965 0.661907 -1.083417
v -2.416207 0.661852 -1.081208
v -2.413112 0.659809 -1.082958
v -2.413794 0.659843 -1.084911
v -2.414603 0.660026 -1.087512
v -2.417869 0.662126 -1.08636
v -2.421263 0.663975 -1.085209
v -2.420305 0.663771 -1.08213
v -2.419493 0.663754 -1.079819
v -2.418518 0.662728 -1.089316
v -2.415167 0.66057 -1.090127
v -2.415519 0.661082 -1.0921
v -2.418929 0.663292 -1.091545
v -2.42234 0.66526 -1.090631
v -2.42193 0.664631 -1.0883
v -2.425512 0.666158 -1.087194
v -2.424872 0.665421 -1.084057
v -2.425869 0.666905 -1.089561
v -2.423863 0.665286 -1.080933
v -2.42298 0.665377 -1.078588
v -2.410745 0.657731 -1.086728
v -2.410197 0.65776 -1.085271
v -2.408746 0.656558 -1.086924
v -2.408523 0.656097 -1.088207
v -2.408996 0.656107 -1.089534
v -2.411379 0.657826 -1.088667
v -2.41177 0.658273 -1.090621
v -2.409226 0.656469 -1.090875
v -2.41001 0.657226 -1.091724
v -2.411994 0.658711 -1.092098
v -2.43224 0.667732 -1.084722
v -2.432183 0.66706 -1.081903
v -2.4348 0.667606 -1.081138
v -2.434449 0.66815 -1.083686
v -2.43332 0.668553 -1.085526
v -2.431781 0.668492 -1.086921
v -2.429204 0.667892 -1.088365
v -2.429107 0.667015 -1.086035
v -2.428632 0.666241 -1.082952
v -2.430824 0.666983 -1.079345
v -2.429308 0.667184 -1.077532
v -2.431323 0.667496 -1.077939
v -2.433225 0.667502 -1.079037
v -2.427503 0.666167 -1.079944
v -2.426401 0.66641 -1.077723
v -2.417102 0.661641 -1.08339
v -2.416307 0.661653 -1.081175
v -2.419581 0.663549 -1.079788
v -2.420428 0.663499 -1.082106
v -2.421392 0.663705 -1.085212
v -2.418014 0.661863 -1.086358
v -2.414758 0.659768 -1.087507
v -2.413941 0.659583 -1.08488
v -2.413218 0.659613 -1.082922
v -2.418669 0.66247 -1.08934
v -2.422067 0.664366 -1.088331
v -2.422446 0.665064 -1.090668
v -2.419045 0.663101 -1.091575
v -2.415642 0.660895 -1.092129
v -2.415328 0.660317 -1.090148
v -2.425631 0.665887 -1.087234
v -2.424984 0.665143 -1.084066
v -2.425962 0.666705 -1.089606
v -2.423966 0.665006 -1.080911
v -2.423053 0.665167 -1.078556
v -2.410896 0.657474 -1.086694
v -2.410306 0.657566 -1.085232
v -2.411537 0.657571 -1.088661
v -2.409115 0.655916 -1.089529
v -2.408636 0.655904 -1.088181
v -2.408828 0.656414 -1.086899
v -2.411935 0.658023 -1.090642
v -2.412121 0.658526 -1.092128
v -2.410104 0.657089 -1.091742
v -2.40935 0.656282 -1.090892
v -2.410061 0.657683 -1.084765
v -2.408119 0.656118 -1.087145
v -2.412931 0.65971 -1.082289
v -2.408828 0.656414 -1.086899
v -2.408433 0.655784 -1.090968
v -2.409385 0.656787 -1.091955
v -2.408254 0.655449 -1.089821
v -2.410104 0.657089 -1.091742
v -2.431593 0.668834 -1.087622
v -2.433488 0.66884 -1.085743
v -2.429198 0.668273 -1.089113
v -2.43332 0.668553 -1.085526
v -2.434005 0.667772 -1.078942
v -2.431345 0.667706 -1.077603
v -2.435647 0.667884 -1.080876
v -2.431323 0.667496 -1.077939
v -2.428783 0.667347 -1.076948
v -2.426009 0.666586 -1.077002
v -2.407833 0.655467 -1.088689
v -2.412126 0.658775 -1.092607
v -2.415691 0.661171 -1.092773
v -2.435158 0.668382 -1.083319
v -2.42603 0.667066 -1.090373
v -2.422525 0.665383 -1.091428
v -2.422717 0.665314 -1.077789
v -2.419261 0.663657 -1.079032
v -2.415998 0.661745 -1.080455
v -2.419118 0.663396 -1.092304
vn 0.2958 0.9147 0.2754
vn 0.227 0.9709 0.0755
vn 0.2829 0.9573 0.0588
vn 0.3469 0.9074 0.237
vn 0.368 0.9031 0.221
vn 0.2946 0.9173 0.2677
vn 0.241 0.9233 0.2989
vn 0.2 0.9438 0.2633
vn 0.1381 0.9853 0.1008
vn 0.1866 0.9725 -0.1396
vn 0.1893 0.973 -0.1321
vn 0.2751 0.9523 -0.132
vn 0.2492 0.9591 -0.134
vn 0.1107 0.9909 -0.0757
vn 0.1279 0.9831 -0.1306
vn 0.4759 0.8716 -0.1173
vn 0.4939 0.8654 -0.0844
vn 0.521 0.8487 -0.0907
vn 0.5006 0.8552 -0.1343
vn 0.5417 0.8401 -0.0256
vn 0.5071 0.8618 -0.0135
vn 0.4347 0.9005 0.011
vn 0.4075 0.9067 -0.1082
vn 0.4306 0.8983 -0.0872
vn 0.5308 0.8426 0.091
vn 0.5594 0.824 0.0891
vn 0.5557 0.8304 0.041
vn 0.5301 0.8463 0.0531
vn 0.4784 0.873 0.0945
vn 0.469 0.8742 0.1255
vn 0.4001 0.8986 0.1802
vn 0.3512 0.9355 0.0378
vn 0.4203 0.8937 0.1568
vn 0.3225 0.9396 -0.1144
vn 0.3511 0.9303 -0.1059
vn 0.5038 0.8483 -0.1628
vn 0.5297 0.84 -0.1176
vn 0.5331 0.8321 -0.1527
vn 0.541 0.817 -0.1996
vn 0.6016 0.7974 -0.0473
vn 0.5577 0.8294 -0.0313
vn 0.5755 0.8104 0.1097
vn 0.6236 0.7733 0.1144
vn 0.5952 0.7993 0.0828
vn 0.5757 0.8156 0.0571
vn -0.3231 -0.8993 -0.2945
vn -0.2425 -0.9675 -0.0709
vn -0.3016 -0.9519 -0.0531
vn -0.3993 -0.8469 -0.3512
vn -0.4396 -0.7803 -0.4448
vn -0.4278 -0.7966 -0.427
vn -0.4199 -0.8307 -0.3655
vn -0.3513 -0.9021 -0.2507
vn -0.2828 -0.9574 -0.0588
vn -0.2001 -0.9644 0.1727
vn -0.2204 -0.9062 0.3607
vn -0.221 -0.8959 0.3854
vn -0.2356 -0.9335 0.2703
vn -0.246 -0.9577 0.149
vn -0.2456 -0.9229 0.2965
vn -0.4699 -0.8727 0.1324
vn -0.4235 -0.8748 0.2355
vn -0.3745 -0.898 0.2311
vn -0.4026 -0.9071 0.1225
vn -0.4349 -0.9004 -0.0109
vn -0.5072 -0.8617 0.0135
vn -0.5418 -0.8401 0.0257
vn -0.4918 -0.8574 0.1512
vn -0.4161 -0.8716 0.2592
vn -0.5328 -0.8394 -0.1068
vn -0.4716 -0.8706 -0.1399
vn -0.499 -0.8321 -0.242
vn -0.5423 -0.8119 -0.2161
vn -0.5472 -0.8022 -0.2387
vn -0.5601 -0.8213 -0.1081
vn -0.403 -0.8944 -0.1939
vn -0.3512 -0.9355 -0.0378
vn -0.4483 -0.8426 -0.2984
vn -0.3181 -0.9393 0.1284
vn -0.3036 -0.9191 0.251
vn -0.4791 -0.8588 0.1813
vn -0.3655 -0.8815 0.299
vn -0.548 -0.836 0.0279
vn -0.5045 -0.8633 0.0126
vn -0.3942 -0.89 0.2291
vn -0.3294 -0.8882 0.3202
vn -0.5637 -0.8141 -0.1397
vn -0.5229 -0.7982 -0.2991
vn -0.5021 -0.7968 -0.336
vn -0.5147 -0.8263 -0.2287
vn 0.6352 -0.1445 0.7587
vn 0.8594 -0.269 0.4347
vn 0.5143 -0.1089 0.8506
vn -0.3294 -0.8882 0.3202
vn 0.7373 -0.4508 -0.503
vn 0.5215 -0.0902 -0.8484
vn 0.728 -0.6263 -0.2786
vn -0.5021 -0.7968 -0.336
vn -0.4332 0.5084 -0.7441
vn -0.6702 0.5246 -0.5249
vn -0.2734 0.4325 -0.8591
vn -0.4396 -0.7803 -0.4448
vn -0.6713 0.1902 0.7163
vn -0.2957 0.3267 0.8977
vn -0.9541 0.1309 0.2692
vn -0.221 -0.8959 0.3854
vn 0.016 0.2709 0.9625
vn 0.2061 0.1789 0.962
vn 0.8565 -0.5137 -0.0504
vn 0.1779 0.0974 -0.9792
vn 0.0301 0.1473 -0.9886
vn -0.9194 0.3215 -0.2264
vn -0.1715 0.3464 -0.9223
vn -0.121 0.2817 -0.9518
vn 0.3199 0.0865 0.9435
vn 0.3739 0.02 0.9272
vn 0.4241 -0.0462 0.9044
vn -0.0705 0.2154 -0.974
vt 0.839504 0.118056
vt 0.856743 0.205307
vt 0.741230 0.205307
vt 0.734555 0.106726
vt 0.724541 0.032791
vt 0.813647 0.052618
vt 0.868992 0.081539
vt 0.913398 0.129584
vt 0.940923 0.205307
vt 0.839504 0.292557
vt 0.813647 0.357995
vt 0.724541 0.377822
vt 0.734555 0.303887
vt 0.913398 0.281029
vt 0.868992 0.329074
vt 0.369475 0.299954
vt 0.368286 0.370940
vt 0.245840 0.351447
vt 0.246397 0.288815
vt 0.246768 0.205307
vt 0.370268 0.205307
vt 0.494283 0.205307
vt 0.492822 0.304944
vt 0.490632 0.379672
vt 0.369475 0.110659
vt 0.246397 0.121798
vt 0.245841 0.059166
vt 0.368286 0.039673
vt 0.490632 0.030941
vt 0.492822 0.105669
vt 0.616755 0.103478
vt 0.619174 0.205307
vt 0.613127 0.027106
vt 0.616755 0.307135
vt 0.613126 0.383507
vt 0.123273 0.268175
vt 0.123047 0.315326
vt 0.054743 0.283353
vt 0.030912 0.249131
vt 0.030973 0.205306
vt 0.123423 0.205306
vt 0.123273 0.142438
vt 0.030912 0.161481
vt 0.054744 0.127260
vt 0.123047 0.095287
vt 0.839504 0.118056
vt 0.856743 0.205307
vt 0.968983 0.205307
vt 0.938030 0.133427
vt 0.876123 0.061548
vt 0.805028 0.030806
vt 0.721203 0.008146
vt 0.734555 0.106726
vt 0.741230 0.205307
vt 0.839504 0.292557
vt 0.805028 0.379807
vt 0.876123 0.349065
vt 0.938030 0.277186
vt 0.734555 0.303887
vt 0.721203 0.402467
vt 0.369475 0.299954
vt 0.367890 0.394602
vt 0.489902 0.404581
vt 0.492822 0.304944
vt 0.494283 0.205307
vt 0.370268 0.205307
vt 0.246768 0.205307
vt 0.246397 0.288815
vt 0.245655 0.372324
vt 0.369475 0.110659
vt 0.492822 0.105669
vt 0.489902 0.006032
vt 0.367890 0.016011
vt 0.245655 0.038289
vt 0.246397 0.121798
vt 0.616755 0.103478
vt 0.619174 0.205307
vt 0.611917 0.001649
vt 0.616755 0.307135
vt 0.611917 0.408964
vt 0.123273 0.268175
vt 0.122972 0.331043
vt 0.123423 0.205306
vt 0.000156 0.205306
vt 0.000125 0.242784
vt 0.000064 0.280261
vt 0.123273 0.142438
vt 0.122972 0.079570
vt 0.000064 0.130352
vt 0.000125 0.167829
vt 0.122972 0.331043
vt 0.030806 0.283587
vt 0.245655 0.372324
vt 0.030806 0.283587
vt 0.000125 0.167829
vt 0.030806 0.127026
vt 0.000156 0.205306
vt 0.030806 0.127026
vt 0.805028 0.030806
vt 0.873826 0.071832
vt 0.721203 0.008146
vt 0.873826 0.071832
vt 0.938030 0.277186
vt 0.873826 0.338781
vt 0.968983 0.205307
vt 0.873826 0.338781
vt 0.805028 0.379807
vt 0.721203 0.402467
vt 0.000125 0.242784
vt 0.122972 0.079570
vt 0.245655 0.038289
vt 0.938030 0.133427
vt 0.611917 0.001649
vt 0.489902 0.006032
vt 0.611917 0.408964
vt 0.489902 0.404581
vt 0.367890 0.394602
vt 0.367890 0.016011
f 1/1/1 2/2/2 3/3/3
f 1/1/1 3/3/3 4/4/4
f 1/1/1 4/4/4 5/5/5
f 1/1/1 5/5/5 6/6/6
f 1/1/1 6/6/6 7/7/7
f 1/1/1 7/7/7 8/8/8
f 1/1/1 8/8/8 9/9/9
f 1/1/1 9/9/9 2/2/2
f 10/10/10 11/11/11 12/12/12
f 10/10/10 12/12/12 13/13/13
f 10/10/10 13/13/13 3/3/3
f 10/10/10 3/3/3 2/2/2
f 10/10/10 2/2/2 9/9/9
f 10/10/10 9/9/9 14/14/14
f 10/10/10 14/14/14 15/15/15
f 10/10/10 15/15/15 11/11/11
f 16/16/16 17/17/17 18/18/18
f 16/16/16 18/18/18 19/19/19
f 16/16/16 19/19/19 20/20/20
f 16/16/16 20/20/20 21/21/21
f 16/16/16 21/21/21 22/22/22
f 16/16/16 22/22/22 23/23/23
f 16/16/16 23/23/23 24/24/24
f 16/16/16 24/24/24 17/17/17
f 25/25/25 21/21/21 20/20/20
f 25/25/25 20/20/20 26/26/26
f 25/25/25 26/26/26 27/27/27
f 25/25/25 27/27/27 28/28/28
f 25/25/25 28/28/28 29/29/29
f 25/25/25 29/29/29 30/30/30
f 25/25/25 30/30/30 22/22/22
f 25/25/25 22/22/22 21/21/21
f 31/31/31 32/32/32 22/22/22
f 31/31/31 22/22/22 30/30/30
f 31/31/31 30/30/30 29/29/29
f 31/31/31 29/29/29 33/33/33
f 31/31/31 33/33/33 5/5/5
f 31/31/31 5/5/5 4/4/4
f 31/31/31 4/4/4 3/3/3
f 31/31/31 3/3/3 32/32/32
f 34/34/34 35/35/35 24/24/24
f 34/34/34 24/24/24 23/23/23
f 34/34/34 23/23/23 22/22/22
f 34/34/34 22/22/22 32/32/32
f 34/34/34 32/32/32 3/3/3
f 34/34/34 3/3/3 13/13/13
f 34/34/34 13/13/13 12/12/12
f 34/34/34 12/12/12 35/35/35
f 36/36/36 37/37/37 38/38/38
f 36/36/36 38/38/38 39/39/39
f 36/36/36 39/39/39 40/40/40
f 36/36/36 40/40/40 41/41/41
f 36/36/36 41/41/41 20/20/20
f 36/36/36 20/20/20 19/19/19
f 36/36/36 19/19/19 18/18/18
f 36/36/36 18/18/18 37/37/37
f 42/42/42 41/41/41 40/40/40
f 42/42/42 40/40/40 43/43/43
f 42/42/42 43/43/43 44/44/44
f 42/42/42 44/44/44 45/45/45
f 42/42/42 45/45/45 27/27/27
f 42/42/42 27/27/27 26/26/26
f 42/42/42 26/26/26 20/20/20
f 42/42/42 20/20/20 41/41/41
f 46/46/46 47/47/47 48/48/48
f 46/46/46 48/48/48 49/49/49
f 46/46/46 49/49/49 50/50/50
f 46/46/46 50/50/50 51/51/51
f 46/46/46 51/51/51 52/52/52
f 46/46/46 52/52/52 53/53/53
f 46/46/46 53/53/53 54/54/54
f 46/46/46 54/54/54 47/47/47
f 55/55/55 56/56/56 57/57/57
f 55/55/55 57/57/57 58/58/58
f 55/55/55 58/58/58 48/48/48
f 55/55/55 48/48/48 47/47/47
f 55/55/55 47/47/47 54/54/54
f 55/55/55 54/54/54 59/59/59
f 55/55/55 59/59/59 60/60/60
f 55/55/55 60/60/60 56/56/56
f 61/61/61 62/62/62 63/63/63
f 61/61/61 63/63/63 64/64/64
f 61/61/61 64/64/64 65/65/65
f 61/61/61 65/65/65 66/66/66
f 61/61/61 66/66/66 67/67/67
f 61/61/61 67/67/67 68/68/68
f 61/61/61 68/68/68 69/69/69
f 61/61/61 69/69/69 62/62/62
f 70/70/70 66/66/66 65/65/65
f 70/70/70 65/65/65 71/71/71
f 70/70/70 71/71/71 72/72/72
f 70/70/70 72/72/72 73/73/73
f 70/70/70 73/73/73 74/74/74
f 70/70/70 74/74/74 75/75/75
f 70/70/70 75/75/75 67/67/67
f 70/70/70 67/67/67 66/66/66
f 76/76/76 77/77/77 54/54/54
f 76/76/76 54/54/54 53/53/53
f 76/76/76 53/53/53 52/52/52
f 76/76/76 52/52/52 78/78/78
f 76/76/76 78/78/78 72/72/72
f 76/76/76 72/72/72 71/71/71
f 76/76/76 71/71/71 65/65/65
f 76/76/76 65/65/65 77/77/77
f 79/79/79 80/80/80 60/60/60
f 79/79/79 60/60/60 59/59/59
f 79/79/79 59/59/59 54/54/54
f 79/79/79 54/54/54 77/77/77
f 79/79/79 77/77/77 65/65/65
f 79/79/79 65/65/65 64/64/64
f 79/79/79 64/64/64 63/63/63
f 79/79/79 63/63/63 80/80/80
f 81/81/81 82/82/82 69/69/69
f 81/81/81 69/69/69 68/68/68
f 81/81/81 68/68/68 67/67/67
f 81/81/81 67/67/67 83/83/83
f 81/81/81 83/83/83 84/84/84
f 81/81/81 84/84/84 85/85/85
f 81/81/81 85/85/85 86/86/86
f 81/81/81 86/86/86 82/82/82
f 87/87/87 83/83/83 67/67/67
f 87/87/87 67/67/67 75/75/75
f 87/87/87 75/75/75 74/74/74
f 87/87/87 74/74/74 88/88/88
f 87/87/87 88/88/88 89/89/89
f 87/87/87 89/89/89 90/90/90
f 87/87/87 90/90/90 84/84/84
f 87/87/87 84/84/84 83/83/83
f 91/91/91 92/92/92 38/38/38
f 91/91/91 38/38/38 37/37/37
f 91/91/91 37/37/37 18/18/18
f 91/91/91 18/18/18 93/93/93
f 91/91/91 93/93/93 69/69/69
f 91/91/91 69/69/69 82/82/82
f 91/91/91 82/82/82 94/94/94
f 91/91/91 94/94/94 92/92/92
f 95/95/95 96/96/96 44/44/44
f 95/95/95 44/44/44 43/43/43
f 95/95/95 43/43/43 40/40/40
f 95/95/95 40/40/40 97/97/97
f 95/95/95 97/97/97 84/84/84
f 95/95/95 84/84/84 90/90/90
f 95/95/95 90/90/90 98/98/98
f 95/95/95 98/98/98 96/96/96
f 99/99/99 100/100/100 7/7/7
f 99/99/99 7/7/7 6/6/6
f 99/99/99 6/6/6 5/5/5
f 99/99/99 5/5/5 101/101/101
f 99/99/99 101/101/101 52/52/52
f 99/99/99 52/52/52 51/51/51
f 99/99/99 51/51/51 102/102/102
f 99/99/99 102/102/102 100/100/100
f 103/103/103 104/104/104 15/15/15
f 103/103/103 15/15/15 14/14/14
f 103/103/103 14/14/14 9/9/9
f 103/103/103 9/9/9 105/105/105
f 103/103/103 105/105/105 48/48/48
f 103/103/103 48/48/48 58/58/58
f 103/103/103 58/58/58 106/106/106
f 103/103/103 106/106/106 104/104/104
f 107/107/107 108/108/108 12/12/12
f 107/107/107 12/12/12 11/11/11
f 107/107/107 11/11/11 15/15/15
f 107/107/107 15/15/15 104/104/104
f 107/107/107 104/104/104 106/106/106
f 107/107/107 106/106/106 56/56/56
f 107/107/107 56/56/56 60/60/60
f 107/107/107 60/60/60 108/108/108
f 109/109/109 97/97/97 40/40/40
f 109/109/109 40/40/40 39/39/39
f 109/109/109 39/39/39 38/38/38
f 109/109/109 38/38/38 92/92/92
f 109/109/109 92/92/92 94/94/94
f 109/109/109 94/94/94 85/85/85
f 109/109/109 85/85/85 84/84/84
f 109/109/109 84/84/84 97/97/97
f 110/110/110 111/111/111 27/27/27
f 110/110/110 27/27/27 45/45/45
f 110/110/110 45/45/45 44/44/44
f 110/110/110 44/44/44 96/96/96
f 110/110/110 96/96/96 98/98/98
f 110/110/110 98/98/98 88/88/88
f 110/110/110 88/88/88 74/74/74
f 110/110/110 74/74/74 111/111/111
f 112/112/112 105/105/105 9/9/9
f 112/112/112 9/9/9 8/8/8
f 112/112/112 8/8/8 7/7/7
f 112/112/112 7/7/7 100/100/100
f 112/112/112 100/100/100 102/102/102
f 112/112/112 102/102/102 49/49/49
f 112/112/112 49/49/49 48/48/48
f 112/112/112 48/48/48 105/105/105
f 113/113/113 101/101/101 5/5/5
f 113/113/113 5/5/5 33/33/33
f 113/113/113 33/33/33 29/29/29
f 113/113/113 29/29/29 114/114/114
f 113/113/113 114/114/114 72/72/72
f 113/113/113 72/72/72 78/78/78
f 113/113/113 78/78/78 52/52/52
f 113/113/113 52/52/52 101/101/101
f 115/115/115 116/116/116 24/24/24
f 115/115/115 24/24/24 35/35/35
f 115/115/115 35/35/35 12/12/12
f 115/115/115 12/12/12 108/108/108
f 115/115/115 108/108/108 60/60/60
f 115/115/115 60/60/60 80/80/80
f 115/115/115 80/80/80 63/63/63
f 115/115/115 63/63/63 116/116/116
f 117/117/117 93/93/93 18/18/18
f 117/117/117 18/18/18 17/17/17
f 117/117/117 17/17/17 24/24/24
f 117/117/117 24/24/24 116/116/116
f 117/117/117 116/116/116 63/63/63
f 117/117/117 63/63/63 62/62/62
f 117/117/117 62/62/62 69/69/69
f 117/117/117 69/69/69 93/93/93
f 118/118/118 114/114/114 29/29/29
f 118/118/118 29/29/29 28/28/28
f 118/118/118 28/28/28 27/27/27
f 118/118/118 27/27/27 111/111/111
f 118/118/118 111/111/111 74/74/74
f 118/118/118 74/74/74 73/73/73
f 118/118/118 73/73/73 72/72/72
f 118/118/118 72/72/72 114/114/114
