v -2.370723 0.739838 -1.062993
v -2.372737 0.740379 -1.063001
v -2.372854 0.737778 -1.062039
v -2.370567 0.737431 -1.062189
v -2.368802 0.737114 -1.062075
v -2.369168 0.739203 -1.062685
v -2.369812 0.740481 -1.063192
v -2.370935 0.741516 -1.063647
v -2.372674 0.742253 -1.063794
v -2.374634 0.740331 -1.062136
v -2.376026 0.740068 -1.061182
v -2.376592 0.738097 -1.060368
v -2.375011 0.737992 -1.061215
v -2.374319 0.741943 -1.062905
v -2.375365 0.741182 -1.061975
v -2.375696 0.72947 -1.05965
v -2.377286 0.729671 -1.059071
v -2.3772 0.726679 -1.059096
v -2.375796 0.726504 -1.059621
v -2.373904 0.726266 -1.060198
v -2.373554 0.729199 -1.060291
v -2.373251 0.732111 -1.060583
v -2.375486 0.732398 -1.059892
v -2.377143 0.732611 -1.059256
v -2.371341 0.728921 -1.060604
v -2.371945 0.726018 -1.060465
v -2.370452 0.725828 -1.060575
v -2.369657 0.728708 -1.060743
v -2.369161 0.731604 -1.061005
v -2.370931 0.731824 -1.06089
v -2.370655 0.73471 -1.061453
v -2.373022 0.734996 -1.061199
v -2.368838 0.734493 -1.061482
v -2.375277 0.735293 -1.06044
v -2.376938 0.735516 -1.059707
v -2.375677 0.723494 -1.059714
v -2.376716 0.723623 -1.059274
v -2.376195 0.721889 -1.059529
v -2.375513 0.721221 -1.059855
v -2.374562 0.721102 -1.060223
v -2.374273 0.723318 -1.060181
v -2.372803 0.723132 -1.060343
v -2.373544 0.720972 -1.060286
v -2.372652 0.721441 -1.060306
v -2.371677 0.722987 -1.060378
v -2.370746 0.739771 -1.063199
v -2.372789 0.740315 -1.063203
v -2.372714 0.742202 -1.063944
v -2.37095 0.741463 -1.063801
v -2.369817 0.740443 -1.063307
v -2.36917 0.739152 -1.062841
v -2.368808 0.73707 -1.062233
v -2.370592 0.737373 -1.062397
v -2.372906 0.737722 -1.062243
v -2.374715 0.740272 -1.062329
v -2.376101 0.740027 -1.061322
v -2.375417 0.741149 -1.062079
v -2.374382 0.741896 -1.063049
v -2.375089 0.737941 -1.061412
v -2.376663 0.738061 -1.060511
v -2.375763 0.729458 -1.059858
v -2.377346 0.729663 -1.059224
v -2.377204 0.732594 -1.059407
v -2.375556 0.732374 -1.060098
v -2.373301 0.732083 -1.060794
v -2.373603 0.729184 -1.060504
v -2.373952 0.72626 -1.060412
v -2.375863 0.7265 -1.05983
v -2.377259 0.726678 -1.05925
v -2.371371 0.728904 -1.06082
v -2.370961 0.731794 -1.061105
v -2.369174 0.731581 -1.061167
v -2.369669 0.728694 -1.060906
v -2.370464 0.72582 -1.060739
v -2.371974 0.72601 -1.060682
v -2.370683 0.734666 -1.061665
v -2.373073 0.734954 -1.061407
v -2.368848 0.734459 -1.061642
v -2.37535 0.735255 -1.060642
v -2.377004 0.735489 -1.059855
v -2.375744 0.723494 -1.059922
v -2.376776 0.723624 -1.059427
v -2.37432 0.723315 -1.060395
v -2.374597 0.7211 -1.060383
v -2.375565 0.721221 -1.060011
v -2.376237 0.721889 -1.059644
v -2.37283 0.723126 -1.060561
v -2.371687 0.722981 -1.060542
v -2.372662 0.721438 -1.060427
v -2.373563 0.720968 -1.060449
v -2.377091 0.723666 -1.059195
v -2.376272 0.721312 -1.059532
v -2.377697 0.726737 -1.058989
v -2.376237 0.721889 -1.059644
v -2.3738 0.720251 -1.06034
v -2.372722 0.720864 -1.06031
v -2.374673 0.720362 -1.060308
v -2.372662 0.721438 -1.060427
v -2.368647 0.738968 -1.062652
v -2.369569 0.740579 -1.063244
v -2.368213 0.736988 -1.062107
v -2.369817 0.740443 -1.063307
v -2.374243 0.742459 -1.063225
v -2.375577 0.741337 -1.061928
v -2.372671 0.742854 -1.064125
v -2.375417 0.741149 -1.062079
v -2.376526 0.739963 -1.060925
v -2.377153 0.738117 -1.060148
v -2.375482 0.720463 -1.059971
v -2.371304 0.722936 -1.060463
v -2.369957 0.72576 -1.060684
v -2.371012 0.742051 -1.063933
v -2.368234 0.734406 -1.061563
v -2.368575 0.73152 -1.061115
v -2.377523 0.735578 -1.059527
v -2.377724 0.732675 -1.05911
v -2.377845 0.729734 -1.058946
v -2.369098 0.72863 -1.060862
vn 0.0257 0.343 0.939
vn 0.2422 0.3442 0.9071
vn 0.2395 0.2879 0.9272
vn 0.0461 0.2849 0.9574
vn 0.054 0.2601 0.964
vn 0.0337 0.3423 0.939
vn 0.0201 0.3989 0.9167
vn 0.0691 0.4264 0.9019
vn 0.2447 0.4296 0.8692
vn 0.4455 0.29 0.8469
vn 0.4382 0.2912 0.8504
vn 0.4113 0.2151 0.8857
vn 0.4214 0.2376 0.8752
vn 0.4119 0.383 0.8268
vn 0.4546 0.344 0.8216
vn 0.3227 0.0264 0.9461
vn 0.2866 0.0227 0.9578
vn 0.28 -0.0089 0.9599
vn 0.3264 -0.0075 0.9452
vn 0.2136 -0.0032 0.9769
vn 0.2186 0.0391 0.975
vn 0.2273 0.1238 0.9659
vn 0.343 0.1002 0.934
vn 0.3157 0.0866 0.9449
vn 0.112 0.053 0.9923
vn 0.1004 0.021 0.9947
vn 0.1467 0.0079 0.9891
vn 0.1475 0.0403 0.9882
vn 0.1319 0.1098 0.9851
vn 0.1066 0.13 0.9857
vn 0.082 0.217 0.9727
vn 0.2349 0.2161 0.9477
vn 0.0967 0.1897 0.9771
vn 0.38 0.1794 0.9074
vn 0.3624 0.1561 0.9189
vn 0.3487 -0.0248 0.9369
vn 0.299 -0.0308 0.9537
vn 0.3269 -0.0514 0.9436
vn 0.3618 -0.0836 0.9285
vn 0.2039 -0.0792 0.9758
vn 0.2112 -0.0231 0.9771
vn 0.0732 0.0099 0.9973
vn 0.0442 -0.0436 0.998
vn 0.0887 -0.0214 0.9958
vn 0.1223 -0.0085 0.9924
vn 0.0033 -0.3221 -0.9467
vn -0.2415 -0.3288 -0.913
vn -0.2384 -0.2685 -0.9333
vn 0.0909 -0.26 -0.9613
vn 0.2091 -0.233 -0.9497
vn 0.1844 -0.2431 -0.9523
vn 0.1146 -0.2417 -0.9635
vn -0.0307 -0.2843 -0.9582
vn -0.2395 -0.288 -0.9272
vn -0.4692 -0.2625 -0.8431
vn -0.6124 -0.1422 -0.7776
vn -0.6306 -0.127 -0.7656
vn -0.5377 -0.1807 -0.8235
vn -0.4351 -0.2333 -0.8696
vn -0.5551 -0.1571 -0.8168
vn -0.3381 -0.0256 -0.9407
vn -0.4421 -0.021 -0.8967
vn -0.4577 -0.072 -0.8861
vn -0.3571 -0.0985 -0.9288
vn -0.2272 -0.1236 -0.9659
vn -0.2185 -0.0389 -0.975
vn -0.2136 0.0033 -0.9769
vn -0.3445 0.0064 -0.9387
vn -0.464 -0.0156 -0.8857
vn -0.0961 -0.0562 -0.9938
vn -0.0917 -0.132 -0.987
vn 0.0207 -0.1325 -0.991
vn 0.0146 -0.0787 -0.9968
vn 0.0397 -0.0792 -0.9961
vn -0.0821 -0.0267 -0.9962
vn -0.0674 -0.2181 -0.9736
vn -0.2349 -0.2162 -0.9477
vn 0.0561 -0.1992 -0.9783
vn -0.3935 -0.177 -0.9021
vn -0.4996 -0.129 -0.8566
vn -0.3749 0.008 -0.927
vn -0.515 -0.0435 -0.8561
vn -0.2127 0.011 -0.977
vn -0.219 -0.0421 -0.9748
vn -0.4486 -0.0537 -0.8921
vn -0.5446 -0.0662 -0.836
vn -0.0501 -0.0329 -0.9982
vn 0.0901 -0.1198 -0.9887
vn 0.1192 -0.1499 -0.9815
vn 0.0145 -0.1122 -0.9936
vn -0.8799 -0.2567 0.3997
vn -0.685 -0.6205 0.3817
vn -0.9223 -0.1092 0.3706
vn -0.5446 -0.0662 -0.836
vn 0.119 -0.9929 0.0051
vn 0.6129 -0.7841 0.0973
vn -0.1463 -0.9843 -0.099
vn 0.1192 -0.1499 -0.9815
vn 0.9569 0.2903 0.0083
vn 0.8185 0.5682 -0.0842
vn 0.9962 0.0834 0.0254
vn 0.2091 -0.233 -0.9497
vn -0.4232 0.8964 -0.1318
vn -0.6203 0.7494 0.2316
vn 0.0211 0.9048 -0.4252
vn -0.6306 -0.127 -0.7656
vn -0.7691 0.509 0.3865
vn -0.846 0.3168 0.4289
vn -0.3384 -0.9351 0.1053
vn 0.8778 -0.4787 0.0146
vn 0.9382 -0.3441 -0.037
vn 0.5304 0.7761 -0.3411
vn 0.998 -0.0629 0.0085
vn 0.9892 -0.1458 -0.0166
vn -0.8895 0.1752 0.422
vn -0.9118 0.0938 0.3998
vn -0.9272 0.013 0.3744
vn 0.973 -0.227 -0.0417
vt 0.839504 0.118056
vt 0.856743 0.205307
vt 0.741230 0.205307
vt 0.734555 0.106726
vt 0.724541 0.032791
vt 0.813647 0.052618
vt 0.868992 0.081539
vt 0.913398 0.129584
vt 0.940923 0.205307
vt 0.839504 0.292557
vt 0.813647 0.357995
vt 0.724541 0.377822
vt 0.734555 0.303887
vt 0.913398 0.281029
vt 0.868992 0.329074
vt 0.369475 0.299954
vt 0.368286 0.370940
vt 0.245840 0.351447
vt 0.246397 0.288815
vt 0.246768 0.205307
vt 0.370268 0.205307
vt 0.494283 0.205307
vt 0.492822 0.304944
vt 0.490632 0.379672
vt 0.369475 0.110659
vt 0.246397 0.121798
vt 0.245841 0.059166
vt 0.368286 0.039673
vt 0.490632 0.030941
vt 0.492822 0.105669
vt 0.616755 0.103478
vt 0.619174 0.205307
vt 0.613127 0.027106
vt 0.616755 0.307135
vt 0.613126 0.383507
vt 0.123273 0.268175
vt 0.123047 0.315326
vt 0.054743 0.283353
vt 0.030912 0.249131
vt 0.030973 0.205306
vt 0.123423 0.205306
vt 0.123273 0.142438
vt 0.030912 0.161481
vt 0.054744 0.127260
vt 0.123047 0.095287
vt 0.839504 0.118056
vt 0.856743 0.205307
vt 0.968983 0.205307
vt 0.938030 0.133427
vt 0.876123 0.061548
vt 0.805028 0.030806
vt 0.721203 0.008146
vt 0.734555 0.106726
vt 0.741230 0.205307
vt 0.839504 0.292557
vt 0.805028 0.379807
vt 0.876123 0.349065
vt 0.938030 0.277186
vt 0.734555 0.303887
vt 0.721203 0.402467
vt 0.369475 0.299954
vt 0.367890 0.394602
vt 0.489902 0.404581
vt 0.492822 0.304944
vt 0.494283 0.205307
vt 0.370268 0.205307
vt 0.246768 0.205307
vt 0.246397 0.288815
vt 0.245655 0.372324
vt 0.369475 0.110659
vt 0.492822 0.105669
vt 0.489902 0.006032
vt 0.367890 0.016011
vt 0.245655 0.038289
vt 0.246397 0.121798
vt 0.616755 0.103478
vt 0.619174 0.205307
vt 0.611917 0.001649
vt 0.616755 0.307135
vt 0.611917 0.408964
vt 0.123273 0.268175
vt 0.122972 0.331043
vt 0.123423 0.205306
vt 0.000156 0.205306
vt 0.000125 0.242784
vt 0.000064 0.280261
vt 0.123273 0.142438
vt 0.122972 0.079570
vt 0.000064 0.130352
vt 0.000125 0.167829
vt 0.122972 0.331043
vt 0.030806 0.283587
vt 0.245655 0.372324
vt 0.030806 0.283587
vt 0.000125 0.167829
vt 0.030806 0.127026
vt 0.000156 0.205306
vt 0.030806 0.127026
vt 0.805028 0.030806
vt 0.873826 0.071832
vt 0.721203 0.008146
vt 0.873826 0.071832
vt 0.938030 0.277186
vt 0.873826 0.338781
vt 0.968983 0.205307
vt 0.873826 0.338781
vt 0.805028 0.379807
vt 0.721203 0.402467
vt 0.000125 0.242784
vt 0.122972 0.079570
vt 0.245655 0.038289
vt 0.938030 0.133427
vt 0.611917 0.001649
vt 0.489902 0.006032
vt 0.611917 0.408964
vt 0.489902 0.404581
vt 0.367890 0.394602
vt 0.367890 0.016011
f 1/1/1 2/2/2 3/3/3
f 1/1/1 3/3/3 4/4/4
f 1/1/1 4/4/4 5/5/5
f 1/1/1 5/5/5 6/6/6
f 1/1/1 6/6/6 7/7/7
f 1/1/1 7/7/7 8/8/8
f 1/1/1 8/8/8 9/9/9
f 1/1/1 9/9/9 2/2/2
f 10/10/10 11/11/11 12/12/12
f 10/10/10 12/12/12 13/13/13
f 10/10/10 13/13/13 3/3/3
f 10/10/10 3/3/3 2/2/2
f 10/10/10 2/2/2 9/9/9
f 10/10/10 9/9/9 14/14/14
f 10/10/10 14/14/14 15/15/15
f 10/10/10 15/15/15 11/11/11
f 16/16/16 17/17/17 18/18/18
f 16/16/16 18/18/18 19/19/19
f 16/16/16 19/19/19 20/20/20
f 16/16/16 20/20/20 21/21/21
f 16/16/16 21/21/21 22/22/22
f 16/16/16 22/22/22 23/23/23
f 16/16/16 23/23/23 24/24/24
f 16/16/16 24/24/24 17/17/17
f 25/25/25 21/21/21 20/20/20
f 25/25/25 20/20/20 26/26/26
f 25/25/25 26/26/26 27/27/27
f 25/25/25 27/27/27 28/28/28
f 25/25/25 28/28/28 29/29/29
f 25/25/25 29/29/29 30/30/30
f 25/25/25 30/30/30 22/22/22
f 25/25/25 22/22/22 21/21/21
f 31/31/31 32/32/32 22/22/22
f 31/31/31 22/22/22 30/30/30
f 31/31/31 30/30/30 29/29/29
f 31/31/31 29/29/29 33/33/33
f 31/31/31 33/33/33 5/5/5
f 31/31/31 5/5/5 4/4/4
f 31/31/31 4/4/4 3/3/3
f 31/31/31 3/3/3 32/32/32
f 34/34/34 35/35/35 24/24/24
f 34/34/34 24/24/24 23/23/23
f 34/34/34 23/23/23 22/22/22
f 34/34/34 22/22/22 32/32/32
f 34/34/34 32/32/32 3/3/3
f 34/34/34 3/3/3 13/13/13
f 34/34/34 13/13/13 12/12/12
f 34/34/34 12/12/12 35/35/35
f 36/36/36 37/37/37 38/38/38
f 36/36/36 38/38/38 39/39/39
f 36/36/36 39/39/39 40/40/40
f 36/36/36 40/40/40 41/41/41
f 36/36/36 41/41/41 20/20/20
f 36/36/36 20/20/20 19/19/19
f 36/36/36 19/19/19 18/18/18
f 36/36/36 18/18/18 37/37/37
f 42/42/42 41/41/41 40/40/40
f 42/42/42 40/40/40 43/43/43
f 42/42/42 43/43/43 44/44/44
f 42/42/42 44/44/44 45/45/45
f 42/42/42 45/45/45 27/27/27
f 42/42/42 27/27/27 26/26/26
f 42/42/42 26/26/26 20/20/20
f 42/42/42 20/20/20 41/41/41
f 46/46/46 47/47/47 48/48/48
f 46/46/46 48/48/48 49/49/49
f 46/46/46 49/49/49 50/50/50
f 46/46/46 50/50/50 51/51/51
f 46/46/46 51/51/51 52/52/52
f 46/46/46 52/52/52 53/53/53
f 46/46/46 53/53/53 54/54/54
f 46/46/46 54/54/54 47/47/47
f 55/55/55 56/56/56 57/57/57
f 55/55/55 57/57/57 58/58/58
f 55/55/55 58/58/58 48/48/48
f 55/55/55 48/48/48 47/47/47
f 55/55/55 47/47/47 54/54/54
f 55/55/55 54/54/54 59/59/59
f 55/55/55 59/59/59 60/60/60
f 55/55/55 60/60/60 56/56/56
f 61/61/61 62/62/62 63/63/63
f 61/61/61 63/63/63 64/64/64
f 61/61/61 64/64/64 65/65/65
f 61/61/61 65/65/65 66/66/66
f 61/61/61 66/66/66 67/67/67
f 61/61/61 67/67/67 68/68/68
f 61/61/61 68/68/68 69/69/69
f 61/61/61 69/69/69 62/62/62
f 70/70/70 66/66/66 65/65/65
f 70/70/70 65/65/65 71/71/71
f 70/70/70 71/71/71 72/72/72
f 70/70/70 72/72/72 73/73/73
f 70/70/70 73/73/73 74/74/74
f 70/70/70 74/74/74 75/75/75
f 70/70/70 75/75/75 67/67/67
f 70/70/70 67/67/67 66/66/66
f 76/76/76 77/77/77 54/54/54
f 76/76/76 54/54/54 53/53/53
f 76/76/76 53/53/53 52/52/52
f 76/76/76 52/52/52 78/78/78
f 76/76/76 78/78/78 72/72/72
f 76/76/76 72/72/72 71/71/71
f 76/76/76 71/71/71 65/65/65
f 76/76/76 65/65/65 77/77/77
f 79/79/79 80/80/80 60/60/60
f 79/79/79 60/60/60 59/59/59
f 79/79/79 59/59/59 54/54/54
f 79/79/79 54/54/54 77/77/77
f 79/79/79 77/77/77 65/65/65
f 79/79/79 65/65/65 64/64/64
f 79/79/79 64/64/64 63/63/63
f 79/79/79 63/63/63 80/80/80
f 81/81/81 82/82/82 69/69/69
f 81/81/81 69/69/69 68/68/68
f 81/81/81 68/68/68 67/67/67
f 81/81/81 67/67/67 83/83/83
f 81/81/81 83/83/83 84/84/84
f 81/81/81 84/84/84 85/85/85
f 81/81/81 85/85/85 86/86/86
f 81/81/81 86/86/86 82/82/82
f 87/87/87 83/83/83 67/67/67
f 87/87/87 67/67/67 75/75/75
f 87/87/87 75/75/75 74/74/74
f 87/87/87 74/74/74 88/88/88
f 87/87/87 88/88/88 89/89/89
f 87/87/87 89/89/89 90/90/90
f 87/87/87 90/90/90 84/84/84
f 87/87/87 84/84/84 83/83/83
f 91/91/91 92/92/92 38/38/38
f 91/91/91 38/38/38 37/37/37
f 91/91/91 37/37/37 18/18/18
f 91/91/91 18/18/18 93/93/93
f 91/91/91 93/93/93 69/69/69
f 91/91/91 69/69/69 82/82/82
f 91/91/91 82/82/82 94/94/94
f 91/91/91 94/94/94 92/92/92
f 95/95/95 96/96/96 44/44/44
f 95/95/95 44/44/44 43/43/43
f 95/95/95 43/43/43 40/40/40
f 95/95/95 40/40/40 97/97/97
f 95/95/95 97/97/97 84/84/84
f 95/95/95 84/84/84 90/90/90
f 95/95/95 90/90/90 98/98/98
f 95/95/95 98/98/98 96/96/96
f 99/99/99 100/100/100 7/7/7
f 99/99/99 7/7/7 6/6/6
f 99/99/99 6/6/6 5/5/5
f 99/99/99 5/5/5 101/101/101
f 99/99/99 101/101/101 52/52/52
f 99/99/99 52/52/52 51/51/51
f 99/99/99 51/51/51 102/102/102
f 99/99/99 102/102/102 100/100/100
f 103/103/103 104/104/104 15/15/15
f 103/103/103 15/15/15 14/14/14
f 103/103/103 14/14/14 9/9/9
f 103/103/103 9/9/9 105/105/105
f 103/103/103 105/105/105 48/48/48
f 103/103/103 48/48/48 58/58/58
f 103/103/103 58/58/58 106/106/106
f 103/103/103 106/106/106 104/104/104
f 107/107/107 108/108/108 12/12/12
f 107/107/107 12/12/12 11/11/11
f 107/107/107 11/11/11 15/15/15
f 107/107/107 15/15/15 104/104/104
f 107/107/107 104/104/104 106/106/106
f 107/107/107 106/106/106 56/56/56
f 107/107/107 56/56/56 60/60/60
f 107/107/107 60/60/60 108/108/108
f 109/109/109 97/97/97 40/40/40
f 109/109/109 40/40/40 39/39/39
f 109/109/109 39/39/39 38/38/38
f 109/109/109 38/38/38 92/92/92
f 109/109/109 92/92/92 94/94/94
f 109/109/109 94/94/94 85/85/85
f 109/109/109 85/85/85 84/84/84
f 109/109/109 84/84/84 97/97/97
f 110/110/110 111/111/111 27/27/27
f 110/110/110 27/27/27 45/45/45
f 110/110/110 45/45/45 44/44/44
f 110/110/110 44/44/44 96/96/96
f 110/110/110 96/96/96 98/98/98
f 110/110/110 98/98/98 88/88/88
f 110/110/110 88/88/88 74/74/74
f 110/110/110 74/74/74 111/111/111
f 112/112/112 105/105/105 9/9/9
f 112/112/112 9/9/9 8/8/8
f 112/112/112 8/8/8 7/7/7
f 112/112/112 7/7/7 100/100/100
f 112/112/112 100/100/100 102/102/102
f 112/112/112 102/102/102 49/49/49
f 112/112/112 49/49/49 48/48/48
f 112/112/112 48/48/48 105/105/105
f 113/113/113 101/101/101 5/5/5
f 113/113/113 5/5/5 33/33/33
f 113/113/113 33/33/33 29/29/29
f 113/113/113 29/29/29 114/114/114
f 113/113/113 114/114/114 72/72/72
f 113/113/113 72/72/72 78/78/78
f 113/113/113 78/78/78 52/52/52
f 113/113/113 52/52/52 101/101/101
f 115/115/115 116/116/116 24/24/24
f 115/115/115 24/24/24 35/35/35
f 115/115/115 35/35/35 12/12/12
f 115/115/115 12/12/12 108/108/108
f 115/115/115 108/108/108 60/60/60
f 115/115/115 60/60/60 80/80/80
f 115/115/115 80/80/80 63/63/63
f 115/115/115 63/63/63 116/116/116
f 117/117/117 93/93/93 18/18/18
f 117/117/117 18/18/18 17/17/17
f 117/117/117 17/17/17 24/24/24
f 117/117/117 24/24/24 116/116/116
f 117/117/117 116/116/116 63/63/63
f 117/117/117 63/63/63 62/62/62
f 117/117/117 62/62/62 69/69/69
f 117/117/117 69/69/69 93/93/93
f 118/118/118 114/114/114 29/29/29
f 118/118/118 29/29/29 28/28/28
f 118/118/118 28/28/28 27/27/27
f 118/118/118 27/27/27 111/111/111
f 118/118/118 111/111/111 74/74/74
f 118/118/118 74/74/74 73/73/73
f 118/118/118 73/73/73 72/72/72
f 118/118/118 72/72/72 114/114/114
