v -2.377913 0.721649 -1.104169
v -2.378427 0.721456 -1.102194
v -2.376359 0.719688 -1.102406
v -2.37604 0.720059 -1.104632
v -2.375576 0.720404 -1.106302
v -2.377155 0.721749 -1.105665
v -2.378285 0.722382 -1.104922
v -2.37931 0.722685 -1.103777
v -2.380004 0.72268 -1.102047
v -2.377902 0.721191 -1.10023
v -2.377136 0.720946 -1.098756
v -2.375553 0.719492 -1.098454
v -2.376027 0.719539 -1.100155
v -2.379301 0.722288 -1.100367
v -2.378269 0.721732 -1.099327
v -2.370628 0.712966 -1.10098
v -2.370429 0.712879 -1.099319
v -2.368979 0.710427 -1.100058
v -2.369168 0.710499 -1.101528
v -2.369311 0.710651 -1.103476
v -2.370779 0.713141 -1.103182
v -2.37241 0.715514 -1.102902
v -2.372237 0.715344 -1.100597
v -2.372003 0.715271 -1.098857
v -2.370641 0.713476 -1.105367
v -2.369179 0.71095 -1.105408
v -2.368999 0.711217 -1.106856
v -2.370451 0.713772 -1.107005
v -2.372026 0.716206 -1.106897
v -2.37225 0.715877 -1.105186
v -2.374101 0.718104 -1.104956
v -2.374311 0.717702 -1.102642
v -2.3738 0.718486 -1.106688
v -2.374088 0.717562 -1.1003
v -2.373777 0.717538 -1.098528
v -2.367763 0.708013 -1.10232
v -2.367579 0.707981 -1.101219
v -2.366886 0.706604 -1.102144
v -2.366753 0.706128 -1.103004
v -2.366891 0.706171 -1.104004
v -2.367903 0.70811 -1.103776
v -2.367771 0.70835 -1.105215
v -2.366759 0.706358 -1.104988
v -2.366896 0.707019 -1.105714
v -2.367594 0.708571 -1.106296
v -2.378057 0.721498 -1.104217
v -2.378573 0.7213 -1.102212
v -2.380111 0.722561 -1.102061
v -2.379416 0.72257 -1.103814
v -2.378364 0.722299 -1.104956
v -2.377263 0.721639 -1.105715
v -2.375689 0.720298 -1.106347
v -2.376191 0.719914 -1.104675
v -2.37651 0.719538 -1.102423
v -2.378046 0.721033 -1.100218
v -2.377243 0.720828 -1.098732
v -2.378348 0.721643 -1.099313
v -2.379406 0.722168 -1.100357
v -2.376178 0.719387 -1.100146
v -2.375666 0.719378 -1.098433
v -2.370806 0.712845 -1.100975
v -2.370561 0.712787 -1.099305
v -2.37213 0.715172 -1.098842
v -2.372407 0.715213 -1.100591
v -2.372581 0.715385 -1.102916
v -2.370957 0.713022 -1.103196
v -2.369495 0.710538 -1.103489
v -2.36935 0.710385 -1.101522
v -2.369115 0.71034 -1.100043
v -2.370819 0.713359 -1.105399
v -2.372421 0.715751 -1.10522
v -2.372153 0.716113 -1.106933
v -2.370584 0.713686 -1.107039
v -2.369135 0.711136 -1.10689
v -2.369362 0.71084 -1.105439
v -2.374262 0.717967 -1.104995
v -2.374473 0.717561 -1.102658
v -2.37392 0.718386 -1.106728
v -2.374248 0.71742 -1.100292
v -2.373896 0.717431 -1.098511
v -2.367947 0.707902 -1.102312
v -2.367717 0.707896 -1.101202
v -2.368088 0.708 -1.103788
v -2.36703 0.706089 -1.104013
v -2.366891 0.706044 -1.102997
v -2.366988 0.706542 -1.102135
v -2.367955 0.708243 -1.105248
v -2.367731 0.708492 -1.10633
v -2.366998 0.70696 -1.105737
v -2.366897 0.706279 -1.105013
v -2.367579 0.707932 -1.100842
v -2.366616 0.706102 -1.1022
v -2.368977 0.710364 -1.099559
v -2.366988 0.706542 -1.102135
v -2.366482 0.705659 -1.104923
v -2.366627 0.706518 -1.105777
v -2.366616 0.705489 -1.104084
v -2.366998 0.70696 -1.105737
v -2.37695 0.721734 -1.106189
v -2.378348 0.722516 -1.105139
v -2.375471 0.720472 -1.106881
v -2.378364 0.722299 -1.104956
v -2.379813 0.7226 -1.100408
v -2.37833 0.721813 -1.099086
v -2.380577 0.723035 -1.102005
v -2.378348 0.721643 -1.099313
v -2.376927 0.720812 -1.098251
v -2.375445 0.719425 -1.097875
v -2.366478 0.705462 -1.103228
v -2.367596 0.70861 -1.106673
v -2.368999 0.71127 -1.107356
v -2.379823 0.722978 -1.103663
v -2.373753 0.71857 -1.107285
v -2.372007 0.716274 -1.107486
v -2.373726 0.717482 -1.097927
v -2.371981 0.715203 -1.098268
v -2.370421 0.712809 -1.098757
v -2.370446 0.713833 -1.107569
vn 0.6398 0.7082 0.2984
vn 0.6384 0.7647 0.087
vn 0.6833 0.7254 0.0823
vn 0.687 0.6741 0.2712
vn 0.706 0.6588 0.26
vn 0.6414 0.7099 0.2909
vn 0.5925 0.7432 0.3105
vn 0.572 0.7757 0.2666
vn 0.5637 0.8206 0.0938
vn 0.6386 0.7581 -0.1317
vn 0.6401 0.7583 -0.1238
vn 0.7049 0.7013 -0.1059
vn 0.6859 0.7188 -0.1133
vn 0.5711 0.8165 -0.0847
vn 0.5912 0.7951 -0.1349
vn 0.8395 0.541 -0.049
vn 0.847 0.5314 -0.0128
vn 0.8638 0.5036 -0.0131
vn 0.8561 0.5132 -0.0602
vn 0.8674 0.4946 0.055
vn 0.8453 0.5309 0.0593
vn 0.7966 0.6008 0.0675
vn 0.795 0.6041 -0.0548
vn 0.8078 0.5887 -0.0293
vn 0.8402 0.5159 0.1669
vn 0.8567 0.4864 0.1715
vn 0.8642 0.4878 0.1234
vn 0.8474 0.5149 0.1297
vn 0.8083 0.5669 0.159
vn 0.7957 0.5759 0.1874
vn 0.7383 0.6353 0.2265
vn 0.736 0.6727 0.0761
vn 0.7574 0.619 0.2077
vn 0.7374 0.6708 -0.0789
vn 0.7566 0.6507 -0.0645
vn 0.8603 0.5023 -0.0872
vn 0.8716 0.4887 -0.0374
vn 0.8766 0.4759 -0.071
vn 0.884 0.4532 -0.1147
vn 0.9029 0.4272 0.0471
vn 0.8772 0.4772 0.0529
vn 0.8611 0.4695 0.1952
vn 0.8848 0.4156 0.2107
vn 0.8773 0.4475 0.1733
vn 0.8722 0.4676 0.1437
vn -0.6534 -0.6846 -0.323
vn -0.6511 -0.7541 -0.0858
vn -0.6979 -0.7116 -0.0806
vn -0.6858 -0.6109 -0.3954
vn -0.6748 -0.545 -0.4975
vn -0.6751 -0.5624 -0.4773
vn -0.694 -0.5889 -0.4142
vn -0.6861 -0.669 -0.2857
vn -0.6833 -0.7255 -0.0823
vn -0.6519 -0.741 0.1611
vn -0.6728 -0.6574 0.3392
vn -0.6724 -0.645 0.363
vn -0.6841 -0.6857 0.2487
vn -0.6849 -0.7172 0.1285
vn -0.692 -0.6686 0.272
vn -0.8372 -0.5429 0.0649
vn -0.8144 -0.5531 0.1752
vn -0.782 -0.5963 0.1814
vn -0.7932 -0.605 0.0697
vn -0.7967 -0.6006 -0.0675
vn -0.8455 -0.5307 -0.0592
vn -0.8674 -0.4945 -0.055
vn -0.8522 -0.5172 0.0786
vn -0.8104 -0.5507 0.1998
vn -0.8379 -0.5141 -0.183
vn -0.794 -0.5734 -0.2022
vn -0.7833 -0.5394 -0.309
vn -0.8158 -0.4987 -0.2929
vn -0.8119 -0.4908 -0.3162
vn -0.853 -0.486 -0.1903
vn -0.7367 -0.6319 -0.2406
vn -0.736 -0.6727 -0.0761
vn -0.7351 -0.5784 -0.3536
vn -0.7357 -0.6708 0.0934
vn -0.7334 -0.6446 0.2157
vn -0.8467 -0.5204 0.1106
vn -0.7774 -0.5775 0.2492
vn -0.8713 -0.4878 -0.0542
vn -0.8437 -0.5335 -0.0596
vn -0.7951 -0.5806 0.1754
vn -0.7526 -0.5972 0.2774
vn -0.8477 -0.4817 -0.2221
vn -0.7791 -0.5054 -0.3707
vn -0.7544 -0.5182 -0.4028
vn -0.7964 -0.5255 -0.2993
vn 0.3626 -0.3222 0.8744
vn 0.5517 -0.5735 0.6055
vn 0.2593 -0.225 0.9392
vn -0.7526 -0.5972 0.2774
vn 0.5118 -0.7926 -0.3313
vn 0.5483 -0.4187 -0.7239
vn 0.3857 -0.9163 -0.1076
vn -0.7544 -0.5182 -0.4028
vn -0.0195 0.5548 -0.8317
vn -0.2528 0.7027 -0.665
vn 0.102 0.4017 -0.91
vn -0.6748 -0.545 -0.4975
vn -0.6102 0.5585 0.5619
vn -0.2493 0.5316 0.8094
vn -0.8122 0.5792 0.0701
vn -0.6724 -0.645 0.363
vn -0.0145 0.3492 0.9369
vn 0.1079 0.1819 0.9774
vn 0.5132 -0.8471 0.1379
vn 0.3578 -0.1133 -0.9269
vn 0.2539 -0.0036 -0.9672
vn -0.6133 0.6718 -0.4153
vn 0.1607 0.2716 -0.9489
vn 0.1796 0.1879 -0.9656
vn 0.1664 0.0468 0.9849
vn 0.1849 -0.0383 0.982
vn 0.2016 -0.1226 0.9717
vn 0.1961 0.1038 -0.975
vt 0.839504 0.118056
vt 0.856743 0.205307
vt 0.741230 0.205307
vt 0.734555 0.106726
vt 0.724541 0.032791
vt 0.813647 0.052618
vt 0.868992 0.081539
vt 0.913398 0.129584
vt 0.940923 0.205307
vt 0.839504 0.292557
vt 0.813647 0.357995
vt 0.724541 0.377822
vt 0.734555 0.303887
vt 0.913398 0.281029
vt 0.868992 0.329074
vt 0.369475 0.299954
vt 0.368286 0.370940
vt 0.245840 0.351447
vt 0.246397 0.288815
vt 0.246768 0.205307
vt 0.370268 0.205307
vt 0.494283 0.205307
vt 0.492822 0.304944
vt 0.490632 0.379672
vt 0.369475 0.110659
vt 0.246397 0.121798
vt 0.245841 0.059166
vt 0.368286 0.039673
vt 0.490632 0.030941
vt 0.492822 0.105669
vt 0.616755 0.103478
vt 0.619174 0.205307
vt 0.613127 0.027106
vt 0.616755 0.307135
vt 0.613126 0.383507
vt 0.123273 0.268175
vt 0.123047 0.315326
vt 0.054743 0.283353
vt 0.030912 0.249131
vt 0.030973 0.205306
vt 0.123423 0.205306
vt 0.123273 0.142438
vt 0.030912 0.161481
vt 0.054744 0.127260
vt 0.123047 0.095287
vt 0.839504 0.118056
vt 0.856743 0.205307
vt 0.968983 0.205307
vt 0.938030 0.133427
vt 0.876123 0.061548
vt 0.805028 0.030806
vt 0.721203 0.008146
vt 0.734555 0.106726
vt 0.741230 0.205307
vt 0.839504 0.292557
vt 0.805028 0.379807
vt 0.876123 0.349065
vt 0.938030 0.277186
vt 0.734555 0.303887
vt 0.721203 0.402467
vt 0.369475 0.299954
vt 0.367890 0.394602
vt 0.489902 0.404581
vt 0.492822 0.304944
vt 0.494283 0.205307
vt 0.370268 0.205307
vt 0.246768 0.205307
vt 0.246397 0.288815
vt 0.245655 0.372324
vt 0.369475 0.110659
vt 0.492822 0.105669
vt 0.489902 0.006032
vt 0.367890 0.016011
vt 0.245655 0.038289
vt 0.246397 0.121798
vt 0.616755 0.103478
vt 0.619174 0.205307
vt 0.611917 0.001649
vt 0.616755 0.307135
vt 0.611917 0.408964
vt 0.123273 0.268175
vt 0.122972 0.331043
vt 0.123423 0.205306
vt 0.000156 0.205306
vt 0.000125 0.242784
vt 0.000064 0.280261
vt 0.123273 0.142438
vt 0.122972 0.079570
vt 0.000064 0.130352
vt 0.000125 0.167829
vt 0.122972 0.331043
vt 0.030806 0.283587
vt 0.245655 0.372324
vt 0.030806 0.283587
vt 0.000125 0.167829
vt 0.030806 0.127026
vt 0.000156 0.205306
vt 0.030806 0.127026
vt 0.805028 0.030806
vt 0.873826 0.071832
vt 0.721203 0.008146
vt 0.873826 0.071832
vt 0.938030 0.277186
vt 0.873826 0.338781
vt 0.968983 0.205307
vt 0.873826 0.338781
vt 0.805028 0.379807
vt 0.721203 0.402467
vt 0.000125 0.242784
vt 0.122972 0.079570
vt 0.245655 0.038289
vt 0.938030 0.133427
vt 0.611917 0.001649
vt 0.489902 0.006032
vt 0.611917 0.408964
vt 0.489902 0.404581
vt 0.367890 0.394602
vt 0.367890 0.016011
f 1/1/1 2/2/2 3/3/3
f 1/1/1 3/3/3 4/4/4
f 1/1/1 4/4/4 5/5/5
f 1/1/1 5/5/5 6/6/6
f 1/1/1 6/6/6 7/7/7
f 1/1/1 7/7/7 8/8/8
f 1/1/1 8/8/8 9/9/9
f 1/1/1 9/9/9 2/2/2
f 10/10/10 11/11/11 12/12/12
f 10/10/10 12/12/12 13/13/13
f 10/10/10 13/13/13 3/3/3
f 10/10/10 3/3/3 2/2/2
f 10/10/10 2/2/2 9/9/9
f 10/10/10 9/9/9 14/14/14
f 10/10/10 14/14/14 15/15/15
f 10/10/10 15/15/15 11/11/11
f 16/16/16 17/17/17 18/18/18
f 16/16/16 18/18/18 19/19/19
f 16/16/16 19/19/19 20/20/20
f 16/16/16 20/20/20 21/21/21
f 16/16/16 21/21/21 22/22/22
f 16/16/16 22/22/22 23/23/23
f 16/16/16 23/23/23 24/24/24
f 16/16/16 24/24/24 17/17/17
f 25/25/25 21/21/21 20/20/20
f 25/25/25 20/20/20 26/26/26
f 25/25/25 26/26/26 27/27/27
f 25/25/25 27/27/27 28/28/28
f 25/25/25 28/28/28 29/29/29
f 25/25/25 29/29/29 30/30/30
f 25/25/25 30/30/30 22/22/22
f 25/25/25 22/22/22 21/21/21
f 31/31/31 32/32/32 22/22/22
f 31/31/31 22/22/22 30/30/30
f 31/31/31 30/30/30 29/29/29
f 31/31/31 29/29/29 33/33/33
f 31/31/31 33/33/33 5/5/5
f 31/31/31 5/5/5 4/4/4
f 31/31/31 4/4/4 3/3/3
f 31/31/31 3/3/3 32/32/32
f 34/34/34 35/35/35 24/24/24
f 34/34/34 24/24/24 23/23/23
f 34/34/34 23/23/23 22/22/22
f 34/34/34 22/22/22 32/32/32
f 34/34/34 32/32/32 3/3/3
f 34/34/34 3/3/3 13/13/13
f 34/34/34 13/13/13 12/12/12
f 34/34/34 12/12/12 35/35/35
f 36/36/36 37/37/37 38/38/38
f 36/36/36 38/38/38 39/39/39
f 36/36/36 39/39/39 40/40/40
f 36/36/36 40/40/40 41/41/41
f 36/36/36 41/41/41 20/20/20
f 36/36/36 20/20/20 19/19/19
f 36/36/36 19/19/19 18/18/18
f 36/36/36 18/18/18 37/37/37
f 42/42/42 41/41/41 40/40/40
f 42/42/42 40/40/40 43/43/43
f 42/42/42 43/43/43 44/44/44
f 42/42/42 44/44/44 45/45/45
f 42/42/42 45/45/45 27/27/27
f 42/42/42 27/27/27 26/26/26
f 42/42/42 26/26/26 20/20/20
f 42/42/42 20/20/20 41/41/41
f 46/46/46 47/47/47 48/48/48
f 46/46/46 48/48/48 49/49/49
f 46/46/46 49/49/49 50/50/50
f 46/46/46 50/50/50 51/51/51
f 46/46/46 51/51/51 52/52/52
f 46/46/46 52/52/52 53/53/53
f 46/46/46 53/53/53 54/54/54
f 46/46/46 54/54/54 47/47/47
f 55/55/55 56/56/56 57/57/57
f 55/55/55 57/57/57 58/58/58
f 55/55/55 58/58/58 48/48/48
f 55/55/55 48/48/48 47/47/47
f 55/55/55 47/47/47 54/54/54
f 55/55/55 54/54/54 59/59/59
f 55/55/55 59/59/59 60/60/60
f 55/55/55 60/60/60 56/56/56
f 61/61/61 62/62/62 63/63/63
f 61/61/61 63/63/63 64/64/64
f 61/61/61 64/64/64 65/65/65
f 61/61/61 65/65/65 66/66/66
f 61/61/61 66/66/66 67/67/67
f 61/61/61 67/67/67 68/68/68
f 61/61/61 68/68/68 69/69/69
f 61/61/61 69/69/69 62/62/62
f 70/70/70 66/66/66 65/65/65
f 70/70/70 65/65/65 71/71/71
f 70/70/70 71/71/71 72/72/72
f 70/70/70 72/72/72 73/73/73
f 70/70/70 73/73/73 74/74/74
f 70/70/70 74/74/74 75/75/75
f 70/70/70 75/75/75 67/67/67
f 70/70/70 67/67/67 66/66/66
f 76/76/76 77/77/77 54/54/54
f 76/76/76 54/54/54 53/53/53
f 76/76/76 53/53/53 52/52/52
f 76/76/76 52/52/52 78/78/78
f 76/76/76 78/78/78 72/72/72
f 76/76/76 72/72/72 71/71/71
f 76/76/76 71/71/71 65/65/65
f 76/76/76 65/65/65 77/77/77
f 79/79/79 80/80/80 60/60/60
f 79/79/79 60/60/60 59/59/59
f 79/79/79 59/59/59 54/54/54
f 79/79/79 54/54/54 77/77/77
f 79/79/79 77/77/77 65/65/65
f 79/79/79 65/65/65 64/64/64
f 79/79/79 64/64/64 63/63/63
f 79/79/79 63/63/63 80/80/80
f 81/81/81 82/82/82 69/69/69
f 81/81/81 69/69/69 68/68/68
f 81/81/81 68/68/68 67/67/67
f 81/81/81 67/67/67 83/83/83
f 81/81/81 83/83/83 84/84/84
f 81/81/81 84/84/84 85/85/85
f 81/81/81 85/85/85 86/86/86
f 81/81/81 86/86/86 82/82/82
f 87/87/87 83/83/83 67/67/67
f 87/87/87 67/67/67 75/75/75
f 87/87/87 75/75/75 74/74/74
f 87/87/87 74/74/74 88/88/88
f 87/87/87 88/88/88 89/89/89
f 87/87/87 89/89/89 90/90/90
f 87/87/87 90/90/90 84/84/84
f 87/87/87 84/84/84 83/83/83
f 91/91/91 92/92/92 38/38/38
f 91/91/91 38/38/38 37/37/37
f 91/91/91 37/37/37 18/18/18
f 91/91/91 18/18/18 93/93/93
f 91/91/91 93/93/93 69/69/69
f 91/91/91 69/69/69 82/82/82
f 91/91/91 82/82/82 94/94/94
f 91/91/91 94/94/94 92/92/92
f 95/95/95 96/96/96 44/44/44
f 95/95/95 44/44/44 43/43/43
f 95/95/95 43/43/43 40/40/40
f 95/95/95 40/40/40 97/97/97
f 95/95/95 97/97/97 84/84/84
f 95/95/95 84/84/84 90/90/90
f 95/95/95 90/90/90 98/98/98
f 95/95/95 98/98/98 96/96/96
f 99/99/99 100/100/100 7/7/7
f 99/99/99 7/7/7 6/6/6
f 99/99/99 6/6/6 5/5/5
f 99/99/99 5/5/5 101/101/101
f 99/99/99 101/101/101 52/52/52
f 99/99/99 52/52/52 51/51/51
f 99/99/99 51/51/51 102/102/102
f 99/99/99 102/102/102 100/100/100
f 103/103/103 104/104/104 15/15/15
f 103/103/103 15/15/15 14/14/14
f 103/103/103 14/14/14 9/9/9
f 103/103/103 9/9/9 105/105/105
f 103/103/103 105/105/105 48/48/48
f 103/103/103 48/48/48 58/58/58
f 103/103/103 58/58/58 106/106/106
f 103/103/103 106/106/106 104/104/104
f 107/107/107 108/108/108 12/12/12
f 107/107/107 12/12/12 11/11/11
f 107/107/107 11/11/11 15/15/15
f 107/107/107 15/15/15 104/104/104
f 107/107/107 104/104/104 106/106/106
f 107/107/107 106/106/106 56/56/56
f 107/107/107 56/56/56 60/60/60
f 107/107/107 60/60/60 108/108/108
f 109/109/109 97/97/97 40/40/40
f 109/109/109 40/40/40 39/39/39
f 109/109/109 39/39/39 38/38/38
f 109/109/109 38/38/38 92/92/92
f 109/109/109 92/92/92 94/94/94
f 109/109/109 94/94/94 85/85/85
f 109/109/109 85/85/85 84/84/84
f 109/109/109 84/84/84 97/97/97
f 110/110/110 111/111/111 27/27/27
f 110/110/110 27/27/27 45/45/45
f 110/110/110 45/45/45 44/44/44
f 110/110/110 44/44/44 96/96/96
f 110/110/110 96/96/96 98/98/98
f 110/110/110 98/98/98 88/88/88
f 110/110/110 88/88/88 74/74/74
f 110/110/110 74/74/74 111/111/111
f 112/112/112 105/105/105 9/9/9
f 112/112/112 9/9/9 8/8/8
f 112/112/112 8/8/8 7/7/7
f 112/112/112 7/7/7 100/100/100
f 112/112/112 100/100/100 102/102/102
f 112/112/112 102/102/102 49/49/49
f 112/112/112 49/49/49 48/48/48
f 112/112/112 48/48/48 105/105/105
f 113/113/113 101/101/101 5/5/5
f 113/113/113 5/5/5 33/33/33
f 113/113/113 33/33/33 29/29/29
f 113/113/113 29/29/29 114/114/114
f 113/113/113 114/114/114 72/72/72
f 113/113/113 72/72/72 78/78/78
f 113/113/113 78/78/78 52/52/52
f 113/113/113 52/52/52 101/101/101
f 115/115/115 116/116/116 24/24/24
f 115/115/115 24/24/24 35/35/35
f 115/115/115 35/35/35 12/12/12
f 115/115/115 12/12/12 108/108/108
f 115/115/115 108/108/108 60/60/60
f 115/115/115 60/60/60 80/80/80
f 115/115/115 80/80/80 63/63/63
f 115/115/115 63/63/63 116/116/116
f 117/117/117 93/93/93 18/18/18
f 117/117/117 18/18/18 17/17/17
f 117/117/117 17/17/17 24/24/24
f 117/117/117 24/24/24 116/116/116
f 117/117/117 116/116/116 63/63/63
f 117/117/117 63/63/63 62/62/62
f 117/117/117 62/62/62 69/69/69
f 117/117/117 69/69/69 93/93/93
f 118/118/118 114/114/114 29/29/29
f 118/118/118 29/29/29 28/28/28
f 118/118/118 28/28/28 27/27/27
f 118/118/118 27/27/27 111/111/111
f 118/118/118 111/111/111 74/74/74
f 118/118/118 74/74/74 73/73/73
f 118/118/118 73/73/73 72/72/72
f 118/118/118 72/72/72 114/114/114
