v -2.440239 0.748096 -1.098065
v -2.44227 0.747917 -1.096994
v -2.440435 0.746325 -1.095123
v -2.43835 0.74665 -1.096574
v -2.436625 0.747007 -1.097487
v -2.438426 0.748248 -1.098563
v -2.439933 0.748791 -1.099061
v -2.441678 0.749012 -1.099115
v -2.443648 0.748993 -1.098408
v -2.443518 0.747847 -1.095059
v -2.444177 0.747812 -1.093292
v -2.443157 0.746511 -1.0915
v -2.442076 0.746366 -1.093158
v -2.444516 0.748797 -1.096513
v -2.44459 0.748437 -1.094792
v -2.436914 0.740026 -1.088127
v -2.438161 0.740074 -1.086718
v -2.436289 0.737578 -1.085626
v -2.435194 0.737528 -1.086883
v -2.433669 0.737543 -1.08847
v -2.435182 0.74005 -1.089912
v -2.436796 0.742396 -1.091479
v -2.438598 0.742388 -1.0896
v -2.439887 0.742464 -1.088106
v -2.433262 0.740304 -1.091474
v -2.431965 0.737773 -1.089843
v -2.43063 0.738007 -1.090814
v -2.431762 0.74056 -1.092582
v -2.433194 0.742972 -1.094241
v -2.434779 0.742678 -1.093101
v -2.436502 0.744819 -1.09486
v -2.438579 0.744486 -1.093251
v -2.434848 0.745185 -1.095961
v -2.440378 0.744524 -1.091308
v -2.44164 0.744669 -1.089736
v -2.433308 0.734982 -1.085861
v -2.434098 0.735052 -1.084889
v -2.432705 0.733595 -1.084754
v -2.431848 0.733036 -1.085194
v -2.43111 0.732994 -1.086055
v -2.432191 0.734969 -1.087071
v -2.430898 0.735165 -1.08807
v -2.430197 0.733162 -1.086708
v -2.429734 0.73382 -1.087477
v -2.429872 0.735372 -1.088763
v -2.440295 0.7479 -1.098192
v -2.442352 0.747716 -1.097099
v -2.443707 0.748841 -1.098485
v -2.441717 0.748864 -1.099209
v -2.439957 0.748682 -1.099136
v -2.438455 0.748104 -1.098669
v -2.436662 0.746866 -1.097595
v -2.438414 0.746458 -1.096705
v -2.440522 0.746129 -1.095234
v -2.443624 0.747647 -1.095141
v -2.444267 0.747663 -1.093341
v -2.444654 0.748325 -1.094831
v -2.444594 0.748645 -1.096571
v -2.442185 0.746171 -1.093248
v -2.443249 0.746366 -1.091557
v -2.437041 0.73986 -1.088248
v -2.438264 0.739949 -1.086801
v -2.439986 0.742332 -1.088183
v -2.43872 0.742212 -1.089713
v -2.436901 0.74222 -1.091608
v -2.435294 0.739884 -1.090048
v -2.433786 0.737384 -1.08861
v -2.435326 0.737369 -1.087008
v -2.436395 0.737458 -1.085713
v -2.433358 0.74014 -1.091624
v -2.434866 0.742505 -1.093245
v -2.433251 0.742843 -1.094356
v -2.431826 0.740438 -1.092702
v -2.430696 0.737891 -1.090936
v -2.432065 0.737616 -1.089997
v -2.436578 0.744635 -1.094997
v -2.438674 0.7443 -1.09337
v -2.434895 0.745049 -1.096072
v -2.440492 0.744338 -1.091409
v -2.441735 0.74453 -1.089803
v -2.433443 0.734826 -1.085987
v -2.434207 0.734934 -1.084975
v -2.43231 0.734813 -1.087213
v -2.4312 0.732878 -1.086162
v -2.43195 0.732919 -1.085288
v -2.432784 0.733508 -1.08482
v -2.430999 0.735012 -1.088227
v -2.429939 0.735258 -1.088888
v -2.429786 0.733736 -1.087568
v -2.430272 0.733047 -1.086826
v -2.434412 0.735022 -1.084602
v -2.432423 0.733085 -1.084482
v -2.436702 0.737541 -1.085244
v -2.432784 0.733508 -1.08482
v -2.429996 0.732443 -1.086306
v -2.429446 0.733311 -1.087211
v -2.43079 0.732284 -1.085765
v -2.429786 0.733736 -1.087568
v -2.437832 0.748236 -1.098778
v -2.439807 0.748914 -1.099297
v -2.436064 0.747064 -1.097842
v -2.439957 0.748682 -1.099136
v -2.444883 0.749045 -1.097023
v -2.444845 0.748531 -1.094678
v -2.444134 0.749284 -1.098913
v -2.444654 0.748325 -1.094831
v -2.444439 0.747734 -1.092722
v -2.44356 0.746495 -1.09097
v -2.431407 0.732336 -1.085013
v -2.429558 0.735391 -1.089051
v -2.430212 0.738034 -1.091193
v -2.442174 0.749251 -1.099506
v -2.434315 0.745247 -1.09638
v -2.432689 0.743013 -1.094674
v -2.442105 0.744655 -1.08924
v -2.440362 0.74243 -1.087641
v -2.438624 0.740034 -1.086283
v -2.431289 0.740592 -1.093006
vn 0.1512 0.8188 0.5537
vn 0.3052 0.8621 0.4044
vn 0.3409 0.8304 0.4407
vn 0.2049 0.7913 0.576
vn 0.2268 0.7787 0.5849
vn 0.1578 0.8205 0.5494
vn 0.1088 0.8465 0.521
vn 0.1261 0.8725 0.472
vn 0.2474 0.9054 0.345
vn 0.4699 0.843 0.2616
vn 0.4649 0.8439 0.2678
vn 0.4979 0.7993 0.3364
vn 0.4898 0.813 0.3148
vn 0.3864 0.8923 0.2334
vn 0.4386 0.8716 0.2186
vn 0.5541 0.6666 0.4986
vn 0.5325 0.6605 0.5293
vn 0.5455 0.6359 0.546
vn 0.5752 0.6413 0.5078
vn 0.4973 0.6314 0.5949
vn 0.4773 0.6638 0.5757
vn 0.4345 0.7252 0.5341
vn 0.5251 0.7211 0.4519
vn 0.5154 0.7096 0.4805
vn 0.3941 0.6544 0.6453
vn 0.4035 0.6283 0.6651
vn 0.4443 0.6281 0.6388
vn 0.4269 0.6525 0.6261
vn 0.3758 0.699 0.6084
vn 0.3456 0.7075 0.6164
vn 0.2747 0.7589 0.5904
vn 0.3836 0.7867 0.4837
vn 0.3024 0.7449 0.5947
vn 0.501 0.7761 0.383
vn 0.5041 0.7602 0.4098
vn 0.5989 0.6296 0.4949
vn 0.5699 0.621 0.5381
vn 0.5991 0.6073 0.5217
vn 0.6382 0.5838 0.5018
vn 0.5311 0.5703 0.6266
vn 0.5065 0.6157 0.6036
vn 0.3897 0.6137 0.6866
vn 0.3971 0.5654 0.7229
vn 0.4182 0.5934 0.6877
vn 0.4358 0.6106 0.6612
vn -0.1431 -0.7993 -0.5836
vn -0.3152 -0.8537 -0.4146
vn -0.3527 -0.8189 -0.4527
vn -0.115 -0.736 -0.6671
vn -0.0354 -0.6753 -0.7367
vn -0.0497 -0.6914 -0.7207
vn -0.1077 -0.7168 -0.6889
vn -0.1937 -0.787 -0.5857
vn -0.3408 -0.8305 -0.4406
vn -0.5019 -0.8266 -0.2547
vn -0.6546 -0.7374 -0.1661
vn -0.673 -0.7238 -0.1521
vn -0.5924 -0.7722 -0.2296
vn -0.5007 -0.8103 -0.3043
vn -0.6162 -0.7554 -0.2228
vn -0.5644 -0.6671 -0.4861
vn -0.6315 -0.6672 -0.395
vn -0.612 -0.7041 -0.3601
vn -0.5351 -0.7208 -0.4406
vn -0.4346 -0.7251 -0.5342
vn -0.4774 -0.6636 -0.5759
vn -0.4974 -0.6313 -0.595
vn -0.5862 -0.6435 -0.4922
vn -0.6474 -0.6628 -0.3762
vn -0.3807 -0.6532 -0.6544
vn -0.3335 -0.7055 -0.6252
vn -0.2487 -0.6765 -0.6932
vn -0.2847 -0.6409 -0.7129
vn -0.265 -0.6337 -0.7267
vn -0.387 -0.6284 -0.6748
vn -0.2632 -0.7562 -0.5991
vn -0.3836 -0.7867 -0.4837
vn -0.1809 -0.7097 -0.6809
vn -0.5108 -0.775 -0.3722
vn -0.6027 -0.7418 -0.2941
vn -0.6063 -0.6439 -0.4666
vn -0.6611 -0.6809 -0.3151
vn -0.501 -0.6253 -0.5983
vn -0.4759 -0.6661 -0.5743
vn -0.617 -0.6912 -0.3763
vn -0.6646 -0.6947 -0.2751
vn -0.3598 -0.6252 -0.6926
vn -0.2017 -0.646 -0.7362
vn -0.1606 -0.6563 -0.7371
vn -0.2654 -0.6643 -0.6987
vn -0.3965 -0.2082 0.8941
vn -0.0541 -0.4399 0.8964
vn -0.5195 -0.1253 0.8452
vn -0.6646 -0.6947 -0.2751
vn 0.6367 -0.7165 0.2849
vn 0.9311 -0.3647 -0.007
vn 0.3937 -0.8461 0.3594
vn -0.1606 -0.6563 -0.7371
vn 0.5756 0.4952 -0.6507
vn 0.2867 0.6127 -0.7365
vn 0.7241 0.3597 -0.5884
vn -0.0354 -0.6753 -0.7367
vn -0.859 0.4834 -0.1685
vn -0.8058 0.5296 0.2649
vn -0.624 0.4429 -0.6438
vn -0.673 -0.7238 -0.1521
vn -0.7351 0.3956 0.5505
vn -0.6743 0.2534 0.6936
vn 0.2889 -0.7429 0.6039
vn 0.9382 -0.107 -0.329
vn 0.8932 -0.0182 -0.4493
vn -0.1353 0.5382 -0.8318
vn 0.8002 0.2389 -0.5501
vn 0.8303 0.1588 -0.5342
vn -0.6326 0.1301 0.7634
vn -0.6124 0.0486 0.789
vn -0.5885 -0.0319 0.8078
vn 0.8538 0.0781 -0.5148
vt 0.839504 0.118056
vt 0.856743 0.205307
vt 0.741230 0.205307
vt 0.734555 0.106726
vt 0.724541 0.032791
vt 0.813647 0.052618
vt 0.868992 0.081539
vt 0.913398 0.129584
vt 0.940923 0.205307
vt 0.839504 0.292557
vt 0.813647 0.357995
vt 0.724541 0.377822
vt 0.734555 0.303887
vt 0.913398 0.281029
vt 0.868992 0.329074
vt 0.369475 0.299954
vt 0.368286 0.370940
vt 0.245840 0.351447
vt 0.246397 0.288815
vt 0.246768 0.205307
vt 0.370268 0.205307
vt 0.494283 0.205307
vt 0.492822 0.304944
vt 0.490632 0.379672
vt 0.369475 0.110659
vt 0.246397 0.121798
vt 0.245841 0.059166
vt 0.368286 0.039673
vt 0.490632 0.030941
vt 0.492822 0.105669
vt 0.616755 0.103478
vt 0.619174 0.205307
vt 0.613127 0.027106
vt 0.616755 0.307135
vt 0.613126 0.383507
vt 0.123273 0.268175
vt 0.123047 0.315326
vt 0.054743 0.283353
vt 0.030912 0.249131
vt 0.030973 0.205306
vt 0.123423 0.205306
vt 0.123273 0.142438
vt 0.030912 0.161481
vt 0.054744 0.127260
vt 0.123047 0.095287
vt 0.839504 0.118056
vt 0.856743 0.205307
vt 0.968983 0.205307
vt 0.938030 0.133427
vt 0.876123 0.061548
vt 0.805028 0.030806
vt 0.721203 0.008146
vt 0.734555 0.106726
vt 0.741230 0.205307
vt 0.839504 0.292557
vt 0.805028 0.379807
vt 0.876123 0.349065
vt 0.938030 0.277186
vt 0.734555 0.303887
vt 0.721203 0.402467
vt 0.369475 0.299954
vt 0.367890 0.394602
vt 0.489902 0.404581
vt 0.492822 0.304944
vt 0.494283 0.205307
vt 0.370268 0.205307
vt 0.246768 0.205307
vt 0.246397 0.288815
vt 0.245655 0.372324
vt 0.369475 0.110659
vt 0.492822 0.105669
vt 0.489902 0.006032
vt 0.367890 0.016011
vt 0.245655 0.038289
vt 0.246397 0.121798
vt 0.616755 0.103478
vt 0.619174 0.205307
vt 0.611917 0.001649
vt 0.616755 0.307135
vt 0.611917 0.408964
vt 0.123273 0.268175
vt 0.122972 0.331043
vt 0.123423 0.205306
vt 0.000156 0.205306
vt 0.000125 0.242784
vt 0.000064 0.280261
vt 0.123273 0.142438
vt 0.122972 0.079570
vt 0.000064 0.130352
vt 0.000125 0.167829
vt 0.122972 0.331043
vt 0.030806 0.283587
vt 0.245655 0.372324
vt 0.030806 0.283587
vt 0.000125 0.167829
vt 0.030806 0.127026
vt 0.000156 0.205306
vt 0.030806 0.127026
vt 0.805028 0.030806
vt 0.873826 0.071832
vt 0.721203 0.008146
vt 0.873826 0.071832
vt 0.938030 0.277186
vt 0.873826 0.338781
vt 0.968983 0.205307
vt 0.873826 0.338781
vt 0.805028 0.379807
vt 0.721203 0.402467
vt 0.000125 0.242784
vt 0.122972 0.079570
vt 0.245655 0.038289
vt 0.938030 0.133427
vt 0.611917 0.001649
vt 0.489902 0.006032
vt 0.611917 0.408964
vt 0.489902 0.404581
vt 0.367890 0.394602
vt 0.367890 0.016011
f 1/1/1 2/2/2 3/3/3
f 1/1/1 3/3/3 4/4/4
f 1/1/1 4/4/4 5/5/5
f 1/1/1 5/5/5 6/6/6
f 1/1/1 6/6/6 7/7/7
f 1/1/1 7/7/7 8/8/8
f 1/1/1 8/8/8 9/9/9
f 1/1/1 9/9/9 2/2/2
f 10/10/10 11/11/11 12/12/12
f 10/10/10 12/12/12 13/13/13
f 10/10/10 13/13/13 3/3/3
f 10/10/10 3/3/3 2/2/2
f 10/10/10 2/2/2 9/9/9
f 10/10/10 9/9/9 14/14/14
f 10/10/10 14/14/14 15/15/15
f 10/10/10 15/15/15 11/11/11
f 16/16/16 17/17/17 18/18/18
f 16/16/16 18/18/18 19/19/19
f 16/16/16 19/19/19 20/20/20
f 16/16/16 20/20/20 21/21/21
f 16/16/16 21/21/21 22/22/22
f 16/16/16 22/22/22 23/23/23
f 16/16/16 23/23/23 24/24/24
f 16/16/16 24/24/24 17/17/17
f 25/25/25 21/21/21 20/20/20
f 25/25/25 20/20/20 26/26/26
f 25/25/25 26/26/26 27/27/27
f 25/25/25 27/27/27 28/28/28
f 25/25/25 28/28/28 29/29/29
f 25/25/25 29/29/29 30/30/30
f 25/25/25 30/30/30 22/22/22
f 25/25/25 22/22/22 21/21/21
f 31/31/31 32/32/32 22/22/22
f 31/31/31 22/22/22 30/30/30
f 31/31/31 30/30/30 29/29/29
f 31/31/31 29/29/29 33/33/33
f 31/31/31 33/33/33 5/5/5
f 31/31/31 5/5/5 4/4/4
f 31/31/31 4/4/4 3/3/3
f 31/31/31 3/3/3 32/32/32
f 34/34/34 35/35/35 24/24/24
f 34/34/34 24/24/24 23/23/23
f 34/34/34 23/23/23 22/22/22
f 34/34/34 22/22/22 32/32/32
f 34/34/34 32/32/32 3/3/3
f 34/34/34 3/3/3 13/13/13
f 34/34/34 13/13/13 12/12/12
f 34/34/34 12/12/12 35/35/35
f 36/36/36 37/37/37 38/38/38
f 36/36/36 38/38/38 39/39/39
f 36/36/36 39/39/39 40/40/40
f 36/36/36 40/40/40 41/41/41
f 36/36/36 41/41/41 20/20/20
f 36/36/36 20/20/20 19/19/19
f 36/36/36 19/19/19 18/18/18
f 36/36/36 18/18/18 37/37/37
f 42/42/42 41/41/41 40/40/40
f 42/42/42 40/40/40 43/43/43
f 42/42/42 43/43/43 44/44/44
f 42/42/42 44/44/44 45/45/45
f 42/42/42 45/45/45 27/27/27
f 42/42/42 27/27/27 26/26/26
f 42/42/42 26/26/26 20/20/20
f 42/42/42 20/20/20 41/41/41
f 46/46/46 47/47/47 48/48/48
f 46/46/46 48/48/48 49/49/49
f 46/46/46 49/49/49 50/50/50
f 46/46/46 50/50/50 51/51/51
f 46/46/46 51/51/51 52/52/52
f 46/46/46 52/52/52 53/53/53
f 46/46/46 53/53/53 54/54/54
f 46/46/46 54/54/54 47/47/47
f 55/55/55 56/56/56 57/57/57
f 55/55/55 57/57/57 58/58/58
f 55/55/55 58/58/58 48/48/48
f 55/55/55 48/48/48 47/47/47
f 55/55/55 47/47/47 54/54/54
f 55/55/55 54/54/54 59/59/59
f 55/55/55 59/59/59 60/60/60
f 55/55/55 60/60/60 56/56/56
f 61/61/61 62/62/62 63/63/63
f 61/61/61 63/63/63 64/64/64
f 61/61/61 64/64/64 65/65/65
f 61/61/61 65/65/65 66/66/66
f 61/61/61 66/66/66 67/67/67
f 61/61/61 67/67/67 68/68/68
f 61/61/61 68/68/68 69/69/69
f 61/61/61 69/69/69 62/62/62
f 70/70/70 66/66/66 65/65/65
f 70/70/70 65/65/65 71/71/71
f 70/70/70 71/71/71 72/72/72
f 70/70/70 72/72/72 73/73/73
f 70/70/70 73/73/73 74/74/74
f 70/70/70 74/74/74 75/75/75
f 70/70/70 75/75/75 67/67/67
f 70/70/70 67/67/67 66/66/66
f 76/76/76 77/77/77 54/54/54
f 76/76/76 54/54/54 53/53/53
f 76/76/76 53/53/53 52/52/52
f 76/76/76 52/52/52 78/78/78
f 76/76/76 78/78/78 72/72/72
f 76/76/76 72/72/72 71/71/71
f 76/76/76 71/71/71 65/65/65
f 76/76/76 65/65/65 77/77/77
f 79/79/79 80/80/80 60/60/60
f 79/79/79 60/60/60 59/59/59
f 79/79/79 59/59/59 54/54/54
f 79/79/79 54/54/54 77/77/77
f 79/79/79 77/77/77 65/65/65
f 79/79/79 65/65/65 64/64/64
f 79/79/79 64/64/64 63/63/63
f 79/79/79 63/63/63 80/80/80
f 81/81/81 82/82/82 69/69/69
f 81/81/81 69/69/69 68/68/68
f 81/81/81 68/68/68 67/67/67
f 81/81/81 67/67/67 83/83/83
f 81/81/81 83/83/83 84/84/84
f 81/81/81 84/84/84 85/85/85
f 81/81/81 85/85/85 86/86/86
f 81/81/81 86/86/86 82/82/82
f 87/87/87 83/83/83 67/67/67
f 87/87/87 67/67/67 75/75/75
f 87/87/87 75/75/75 74/74/74
f 87/87/87 74/74/74 88/88/88
f 87/87/87 88/88/88 89/89/89
f 87/87/87 89/89/89 90/90/90
f 87/87/87 90/90/90 84/84/84
f 87/87/87 84/84/84 83/83/83
f 91/91/91 92/92/92 38/38/38
f 91/91/91 38/38/38 37/37/37
f 91/91/91 37/37/37 18/18/18
f 91/91/91 18/18/18 93/93/93
f 91/91/91 93/93/93 69/69/69
f 91/91/91 69/69/69 82/82/82
f 91/91/91 82/82/82 94/94/94
f 91/91/91 94/94/94 92/92/92
f 95/95/95 96/96/96 44/44/44
f 95/95/95 44/44/44 43/43/43
f 95/95/95 43/43/43 40/40/40
f 95/95/95 40/40/40 97/97/97
f 95/95/95 97/97/97 84/84/84
f 95/95/95 84/84/84 90/90/90
f 95/95/95 90/90/90 98/98/98
f 95/95/95 98/98/98 96/96/96
f 99/99/99 100/100/100 7/7/7
f 99/99/99 7/7/7 6/6/6
f 99/99/99 6/6/6 5/5/5
f 99/99/99 5/5/5 101/101/101
f 99/99/99 101/101/101 52/52/52
f 99/99/99 52/52/52 51/51/51
f 99/99/99 51/51/51 102/102/102
f 99/99/99 102/102/102 100/100/100
f 103/103/103 104/104/104 15/15/15
f 103/103/103 15/15/15 14/14/14
f 103/103/103 14/14/14 9/9/9
f 103/103/103 9/9/9 105/105/105
f 103/103/103 105/105/105 48/48/48
f 103/103/103 48/48/48 58/58/58
f 103/103/103 58/58/58 106/106/106
f 103/103/103 106/106/106 104/104/104
f 107/107/107 108/108/108 12/12/12
f 107/107/107 12/12/12 11/11/11
f 107/107/107 11/11/11 15/15/15
f 107/107/107 15/15/15 104/104/104
f 107/107/107 104/104/104 106/106/106
f 107/107/107 106/106/106 56/56/56
f 107/107/107 56/56/56 60/60/60
f 107/107/107 60/60/60 108/108/108
f 109/109/109 97/97/97 40/40/40
f 109/109/109 40/40/40 39/39/39
f 109/109/109 39/39/39 38/38/38
f 109/109/109 38/38/38 92/92/92
f 109/109/109 92/92/92 94/94/94
f 109/109/109 94/94/94 85/85/85
f 109/109/109 85/85/85 84/84/84
f 109/109/109 84/84/84 97/97/97
f 110/110/110 111/111/111 27/27/27
f 110/110/110 27/27/27 45/45/45
f 110/110/110 45/45/45 44/44/44
f 110/110/110 44/44/44 96/96/96
f 110/110/110 96/96/96 98/98/98
f 110/110/110 98/98/98 88/88/88
f 110/110/110 88/88/88 74/74/74
f 110/110/110 74/74/74 111/111/111
f 112/112/112 105/105/105 9/9/9
f 112/112/112 9/9/9 8/8/8
f 112/112/112 8/8/8 7/7/7
f 112/112/112 7/7/7 100/100/100
f 112/112/112 100/100/100 102/102/102
f 112/112/112 102/102/102 49/49/49
f 112/112/112 49/49/49 48/48/48
f 112/112/112 48/48/48 105/105/105
f 113/113/113 101/101/101 5/5/5
f 113/113/113 5/5/5 33/33/33
f 113/113/113 33/33/33 29/29/29
f 113/113/113 29/29/29 114/114/114
f 113/113/113 114/114/114 72/72/72
f 113/113/113 72/72/72 78/78/78
f 113/113/113 78/78/78 52/52/52
f 113/113/113 52/52/52 101/101/101
f 115/115/115 116/116/116 24/24/24
f 115/115/115 24/24/24 35/35/35
f 115/115/115 35/35/35 12/12/12
f 115/115/115 12/12/12 108/108/108
f 115/115/115 108/108/108 60/60/60
f 115/115/115 60/60/60 80/80/80
f 115/115/115 80/80/80 63/63/63
f 115/115/115 63/63/63 116/116/116
f 117/117/117 93/93/93 18/18/18
f 117/117/117 18/18/18 17/17/17
f 117/117/117 17/17/17 24/24/24
f 117/117/117 24/24/24 116/116/116
f 117/117/117 116/116/116 63/63/63
f 117/117/117 63/63/63 62/62/62
f 117/117/117 62/62/62 69/69/69
f 117/117/117 69/69/69 93/93/93
f 118/118/118 114/114/114 29/29/29
f 118/118/118 29/29/29 28/28/28
f 118/118/118 28/28/28 27/27/27
f 118/118/118 27/27/27 111/111/111
f 118/118/118 111/111/111 74/74/74
f 118/118/118 74/74/74 73/73/73
f 118/118/118 73/73/73 72/72/72
f 118/118/118 72/72/72 114/114/114
