v -2.394092 0.802249 -1.173031
v -2.395352 0.802211 -1.174895
v -2.39704 0.800637 -1.172986
v -2.3954 0.8008 -1.171102
v -2.394318 0.801032 -1.16951
v -2.393412 0.802291 -1.171318
v -2.393064 0.802875 -1.172809
v -2.393185 0.803174 -1.174499
v -2.394079 0.803277 -1.176336
v -2.397363 0.802274 -1.175903
v -2.39915 0.802335 -1.176355
v -2.400836 0.801082 -1.175232
v -2.399119 0.800828 -1.174367
v -2.396017 0.803196 -1.176985
v -2.397711 0.802911 -1.176889
v -2.403723 0.794575 -1.169102
v -2.405219 0.794733 -1.170159
v -2.406185 0.792246 -1.168337
v -2.404853 0.792099 -1.16741
v -2.403152 0.791982 -1.166099
v -2.401807 0.794449 -1.16761
v -2.400359 0.796759 -1.16924
v -2.402372 0.796907 -1.170789
v -2.403954 0.797097 -1.171876
v -2.400079 0.794547 -1.165903
v -2.401631 0.792074 -1.164582
v -2.400539 0.792203 -1.16338
v -2.398835 0.794684 -1.164554
v -2.397276 0.797046 -1.166014
v -2.398561 0.796878 -1.167443
v -2.396946 0.798986 -1.169208
v -2.39874 0.79882 -1.171066
v -2.395688 0.799223 -1.167704
v -2.400813 0.799015 -1.172603
v -2.402465 0.799275 -1.173653
v -2.405752 0.789561 -1.165584
v -2.406775 0.789702 -1.166244
v -2.406821 0.788218 -1.164943
v -2.406327 0.787616 -1.164183
v -2.405415 0.787509 -1.163561
v -2.404461 0.789451 -1.16463
v -2.403347 0.789543 -1.163473
v -2.404679 0.787604 -1.162736
v -2.403856 0.788196 -1.16234
v -2.402559 0.78967 -1.162543
v -2.393982 0.802055 -1.173108
v -2.395266 0.802016 -1.174994
v -2.394017 0.803128 -1.176408
v -2.393104 0.803028 -1.174553
v -2.392998 0.802768 -1.172845
v -2.393318 0.802148 -1.171364
v -2.394223 0.800892 -1.169564
v -2.395288 0.800611 -1.171188
v -2.39695 0.800446 -1.173091
v -2.397303 0.802081 -1.176023
v -2.399117 0.802192 -1.176455
v -2.397684 0.802804 -1.176959
v -2.395976 0.80305 -1.177073
v -2.39905 0.80064 -1.17449
v -2.400796 0.800942 -1.175334
v -2.403625 0.794414 -1.169245
v -2.405155 0.794613 -1.170273
v -2.403895 0.796971 -1.171986
v -2.402282 0.796737 -1.170926
v -2.400252 0.796588 -1.169363
v -2.401694 0.794288 -1.167741
v -2.403034 0.791828 -1.166235
v -2.404751 0.791946 -1.167559
v -2.406118 0.792132 -1.168455
v -2.39995 0.794386 -1.166019
v -2.398438 0.796708 -1.167551
v -2.397176 0.796919 -1.166087
v -2.398731 0.794564 -1.164634
v -2.400431 0.792088 -1.163463
v -2.401498 0.791921 -1.164703
v -2.396828 0.798806 -1.169304
v -2.398641 0.798639 -1.17118
v -2.395591 0.799089 -1.167767
v -2.400734 0.798836 -1.172733
v -2.402416 0.799141 -1.173759
v -2.40565 0.789411 -1.165736
v -2.406708 0.78959 -1.166365
v -2.404342 0.789299 -1.164767
v -2.405325 0.787395 -1.163664
v -2.406251 0.787504 -1.164297
v -2.406769 0.788135 -1.165031
v -2.403211 0.789392 -1.163595
v -2.402449 0.789558 -1.162626
v -2.403777 0.788112 -1.162404
v -2.404576 0.787491 -1.162827
v -2.407089 0.7897 -1.166519
v -2.407076 0.787718 -1.164662
v -2.406601 0.792244 -1.168699
v -2.406769 0.788135 -1.165031
v -2.405077 0.786907 -1.162531
v -2.404105 0.787695 -1.162055
v -2.405693 0.786811 -1.16325
v -2.403777 0.788112 -1.162404
v -2.393141 0.802242 -1.170765
v -2.392817 0.80298 -1.172706
v -2.393912 0.801047 -1.169001
v -2.392998 0.802768 -1.172845
v -2.395551 0.803438 -1.177384
v -2.397844 0.803019 -1.17712
v -2.393628 0.803565 -1.176848
v -2.397684 0.802804 -1.176959
v -2.399734 0.802292 -1.176552
v -2.401393 0.801105 -1.175568
v -2.406485 0.786918 -1.163767
v -2.402246 0.789663 -1.162268
v -2.400125 0.792195 -1.163014
v -2.392848 0.803417 -1.175011
v -2.395223 0.799242 -1.167229
v -2.396801 0.797046 -1.165568
v -2.402996 0.799302 -1.174052
v -2.404457 0.797105 -1.172289
v -2.405691 0.794732 -1.170564
v -2.398373 0.794676 -1.164139
vn -0.4993 0.8302 0.2478
vn -0.3327 0.8602 0.3865
vn -0.3662 0.8281 0.4243
vn -0.5168 0.8009 0.3023
vn -0.5239 0.7876 0.3244
vn -0.4942 0.8314 0.2539
vn -0.4703 0.8587 0.2034
vn -0.4187 0.8819 0.2165
vn -0.278 0.904 0.3246
vn -0.1739 0.8277 0.5335
vn -0.1806 0.829 0.5292
vn -0.2471 0.7854 0.5675
vn -0.2259 0.7987 0.5577
vn -0.1528 0.88 0.4498
vn -0.1333 0.8562 0.4991
vn -0.4077 0.6562 0.6349
vn -0.4408 0.6523 0.6166
vn -0.4569 0.6277 0.6302
vn -0.4157 0.6302 0.6557
vn -0.5109 0.6275 0.5875
vn -0.4927 0.6601 0.567
vn -0.4534 0.7219 0.5227
vn -0.3621 0.7104 0.6035
vn -0.3921 0.7003 0.5965
vn -0.5711 0.6574 0.4915
vn -0.5909 0.6316 0.5018
vn -0.5603 0.6284 0.5395
vn -0.5486 0.6531 0.522
vn -0.5346 0.7014 0.4714
vn -0.5454 0.7118 0.4426
vn -0.525 0.7656 0.3717
vn -0.4061 0.784 0.4694
vn -0.527 0.7503 0.3991
vn -0.294 0.7638 0.5745
vn -0.3209 0.7488 0.5799
vn -0.4008 0.6169 0.6773
vn -0.4472 0.6113 0.6529
vn -0.4284 0.5955 0.6796
vn -0.4055 0.5693 0.7151
vn -0.5414 0.566 0.6217
vn -0.5193 0.6117 0.5968
vn -0.6144 0.6186 0.4898
vn -0.6516 0.5712 0.499
vn -0.6132 0.5969 0.5173
vn -0.5842 0.6124 0.5326
vn 0.5307 -0.8123 -0.2421
vn 0.342 -0.8517 -0.397
vn 0.3773 -0.8166 -0.4369
vn 0.6195 -0.7533 -0.2206
vn 0.6996 -0.6993 -0.1463
vn 0.6814 -0.7143 -0.1594
vn 0.6425 -0.7356 -0.2147
vn 0.5278 -0.7975 -0.2921
vn 0.3661 -0.8282 -0.4243
vn 0.1644 -0.8094 -0.5637
vn 0.0637 -0.7096 -0.7016
vn 0.0484 -0.6946 -0.7177
vn 0.132 -0.7498 -0.6483
vn 0.2144 -0.7951 -0.5672
vn 0.1234 -0.7315 -0.6706
vn 0.3941 -0.6558 -0.6438
vn 0.2965 -0.6491 -0.7005
vn 0.2624 -0.6856 -0.679
vn 0.3498 -0.7091 -0.6121
vn 0.4534 -0.7218 -0.5228
vn 0.4928 -0.6599 -0.5671
vn 0.511 -0.6273 -0.5876
vn 0.3989 -0.6313 -0.665
vn 0.2762 -0.6432 -0.7141
vn 0.5817 -0.6572 -0.4791
vn 0.5556 -0.7107 -0.4315
vn 0.6333 -0.6885 -0.3534
vn 0.6505 -0.6518 -0.3897
vn 0.6667 -0.6462 -0.3713
vn 0.6023 -0.6328 -0.4865
vn 0.535 -0.7638 -0.3611
vn 0.4061 -0.784 -0.4695
vn 0.627 -0.7246 -0.2861
vn 0.2822 -0.7618 -0.5831
vn 0.1962 -0.7212 -0.6643
vn 0.3712 -0.6298 -0.6823
vn 0.2133 -0.6584 -0.7218
vn 0.5142 -0.6213 -0.5912
vn 0.4914 -0.6623 -0.5655
vn 0.2785 -0.673 -0.6852
vn 0.1727 -0.6704 -0.7215
vn 0.623 -0.6317 -0.4613
vn 0.6824 -0.662 -0.31
vn 0.6873 -0.6744 -0.2698
vn 0.6376 -0.6756 -0.3701
vn -0.9395 -0.1551 -0.3052
vn -0.9145 -0.4037 0.0242
vn -0.9006 -0.0678 -0.4292
vn 0.1727 -0.6704 -0.7215
vn -0.2448 -0.7363 0.6308
vn 0.0913 -0.4109 0.9071
vn -0.35 -0.8508 0.3919
vn 0.6873 -0.6744 -0.2698
vn 0.7292 0.4415 0.5227
vn 0.788 0.5702 0.2319
vn 0.6771 0.3009 0.6715
vn 0.6996 -0.6993 -0.1463
vn 0.0954 0.5189 -0.8495
vn -0.3271 0.5784 -0.7472
vn 0.5913 0.4492 -0.6697
vn 0.0484 -0.6946 -0.7177
vn -0.609 0.4518 -0.6519
vn -0.7509 0.3118 -0.5821
vn -0.5998 -0.7337 0.3193
vn 0.4231 -0.1655 0.8908
vn 0.5416 -0.0792 0.8369
vn 0.8344 0.5134 -0.2004
vn 0.6418 0.1776 0.746
vn 0.6258 0.0964 0.774
vn -0.8211 0.1891 -0.5385
vn -0.8475 0.108 -0.5196
vn -0.8669 0.0273 -0.4977
vn 0.6059 0.0157 0.7954
vt 0.839504 0.118056
vt 0.856743 0.205307
vt 0.741230 0.205307
vt 0.734555 0.106726
vt 0.724541 0.032791
vt 0.813647 0.052618
vt 0.868992 0.081539
vt 0.913398 0.129584
vt 0.940923 0.205307
vt 0.839504 0.292557
vt 0.813647 0.357995
vt 0.724541 0.377822
vt 0.734555 0.303887
vt 0.913398 0.281029
vt 0.868992 0.329074
vt 0.369475 0.299954
vt 0.368286 0.370940
vt 0.245840 0.351447
vt 0.246397 0.288815
vt 0.246768 0.205307
vt 0.370268 0.205307
vt 0.494283 0.205307
vt 0.492822 0.304944
vt 0.490632 0.379672
vt 0.369475 0.110659
vt 0.246397 0.121798
vt 0.245841 0.059166
vt 0.368286 0.039673
vt 0.490632 0.030941
vt 0.492822 0.105669
vt 0.616755 0.103478
vt 0.619174 0.205307
vt 0.613127 0.027106
vt 0.616755 0.307135
vt 0.613126 0.383507
vt 0.123273 0.268175
vt 0.123047 0.315326
vt 0.054743 0.283353
vt 0.030912 0.249131
vt 0.030973 0.205306
vt 0.123423 0.205306
vt 0.123273 0.142438
vt 0.030912 0.161481
vt 0.054744 0.127260
vt 0.123047 0.095287
vt 0.839504 0.118056
vt 0.856743 0.205307
vt 0.968983 0.205307
vt 0.938030 0.133427
vt 0.876123 0.061548
vt 0.805028 0.030806
vt 0.721203 0.008146
vt 0.734555 0.106726
vt 0.741230 0.205307
vt 0.839504 0.292557
vt 0.805028 0.379807
vt 0.876123 0.349065
vt 0.938030 0.277186
vt 0.734555 0.303887
vt 0.721203 0.402467
vt 0.369475 0.299954
vt 0.367890 0.394602
vt 0.489902 0.404581
vt 0.492822 0.304944
vt 0.494283 0.205307
vt 0.370268 0.205307
vt 0.246768 0.205307
vt 0.246397 0.288815
vt 0.245655 0.372324
vt 0.369475 0.110659
vt 0.492822 0.105669
vt 0.489902 0.006032
vt 0.367890 0.016011
vt 0.245655 0.038289
vt 0.246397 0.121798
vt 0.616755 0.103478
vt 0.619174 0.205307
vt 0.611917 0.001649
vt 0.616755 0.307135
vt 0.611917 0.408964
vt 0.123273 0.268175
vt 0.122972 0.331043
vt 0.123423 0.205306
vt 0.000156 0.205306
vt 0.000125 0.242784
vt 0.000064 0.280261
vt 0.123273 0.142438
vt 0.122972 0.079570
vt 0.000064 0.130352
vt 0.000125 0.167829
vt 0.122972 0.331043
vt 0.030806 0.283587
vt 0.245655 0.372324
vt 0.030806 0.283587
vt 0.000125 0.167829
vt 0.030806 0.127026
vt 0.000156 0.205306
vt 0.030806 0.127026
vt 0.805028 0.030806
vt 0.873826 0.071832
vt 0.721203 0.008146
vt 0.873826 0.071832
vt 0.938030 0.277186
vt 0.873826 0.338781
vt 0.968983 0.205307
vt 0.873826 0.338781
vt 0.805028 0.379807
vt 0.721203 0.402467
vt 0.000125 0.242784
vt 0.122972 0.079570
vt 0.245655 0.038289
vt 0.938030 0.133427
vt 0.611917 0.001649
vt 0.489902 0.006032
vt 0.611917 0.408964
vt 0.489902 0.404581
vt 0.367890 0.394602
vt 0.367890 0.016011
f 1/1/1 2/2/2 3/3/3
f 1/1/1 3/3/3 4/4/4
f 1/1/1 4/4/4 5/5/5
f 1/1/1 5/5/5 6/6/6
f 1/1/1 6/6/6 7/7/7
f 1/1/1 7/7/7 8/8/8
f 1/1/1 8/8/8 9/9/9
f 1/1/1 9/9/9 2/2/2
f 10/10/10 11/11/11 12/12/12
f 10/10/10 12/12/12 13/13/13
f 10/10/10 13/13/13 3/3/3
f 10/10/10 3/3/3 2/2/2
f 10/10/10 2/2/2 9/9/9
f 10/10/10 9/9/9 14/14/14
f 10/10/10 14/14/14 15/15/15
f 10/10/10 15/15/15 11/11/11
f 16/16/16 17/17/17 18/18/18
f 16/16/16 18/18/18 19/19/19
f 16/16/16 19/19/19 20/20/20
f 16/16/16 20/20/20 21/21/21
f 16/16/16 21/21/21 22/22/22
f 16/16/16 22/22/22 23/23/23
f 16/16/16 23/23/23 24/24/24
f 16/16/16 24/24/24 17/17/17
f 25/25/25 21/21/21 20/20/20
f 25/25/25 20/20/20 26/26/26
f 25/25/25 26/26/26 27/27/27
f 25/25/25 27/27/27 28/28/28
f 25/25/25 28/28/28 29/29/29
f 25/25/25 29/29/29 30/30/30
f 25/25/25 30/30/30 22/22/22
f 25/25/25 22/22/22 21/21/21
f 31/31/31 32/32/32 22/22/22
f 31/31/31 22/22/22 30/30/30
f 31/31/31 30/30/30 29/29/29
f 31/31/31 29/29/29 33/33/33
f 31/31/31 33/33/33 5/5/5
f 31/31/31 5/5/5 4/4/4
f 31/31/31 4/4/4 3/3/3
f 31/31/31 3/3/3 32/32/32
f 34/34/34 35/35/35 24/24/24
f 34/34/34 24/24/24 23/23/23
f 34/34/34 23/23/23 22/22/22
f 34/34/34 22/22/22 32/32/32
f 34/34/34 32/32/32 3/3/3
f 34/34/34 3/3/3 13/13/13
f 34/34/34 13/13/13 12/12/12
f 34/34/34 12/12/12 35/35/35
f 36/36/36 37/37/37 38/38/38
f 36/36/36 38/38/38 39/39/39
f 36/36/36 39/39/39 40/40/40
f 36/36/36 40/40/40 41/41/41
f 36/36/36 41/41/41 20/20/20
f 36/36/36 20/20/20 19/19/19
f 36/36/36 19/19/19 18/18/18
f 36/36/36 18/18/18 37/37/37
f 42/42/42 41/41/41 40/40/40
f 42/42/42 40/40/40 43/43/43
f 42/42/42 43/43/43 44/44/44
f 42/42/42 44/44/44 45/45/45
f 42/42/42 45/45/45 27/27/27
f 42/42/42 27/27/27 26/26/26
f 42/42/42 26/26/26 20/20/20
f 42/42/42 20/20/20 41/41/41
f 46/46/46 47/47/47 48/48/48
f 46/46/46 48/48/48 49/49/49
f 46/46/46 49/49/49 50/50/50
f 46/46/46 50/50/50 51/51/51
f 46/46/46 51/51/51 52/52/52
f 46/46/46 52/52/52 53/53/53
f 46/46/46 53/53/53 54/54/54
f 46/46/46 54/54/54 47/47/47
f 55/55/55 56/56/56 57/57/57
f 55/55/55 57/57/57 58/58/58
f 55/55/55 58/58/58 48/48/48
f 55/55/55 48/48/48 47/47/47
f 55/55/55 47/47/47 54/54/54
f 55/55/55 54/54/54 59/59/59
f 55/55/55 59/59/59 60/60/60
f 55/55/55 60/60/60 56/56/56
f 61/61/61 62/62/62 63/63/63
f 61/61/61 63/63/63 64/64/64
f 61/61/61 64/64/64 65/65/65
f 61/61/61 65/65/65 66/66/66
f 61/61/61 66/66/66 67/67/67
f 61/61/61 67/67/67 68/68/68
f 61/61/61 68/68/68 69/69/69
f 61/61/61 69/69/69 62/62/62
f 70/70/70 66/66/66 65/65/65
f 70/70/70 65/65/65 71/71/71
f 70/70/70 71/71/71 72/72/72
f 70/70/70 72/72/72 73/73/73
f 70/70/70 73/73/73 74/74/74
f 70/70/70 74/74/74 75/75/75
f 70/70/70 75/75/75 67/67/67
f 70/70/70 67/67/67 66/66/66
f 76/76/76 77/77/77 54/54/54
f 76/76/76 54/54/54 53/53/53
f 76/76/76 53/53/53 52/52/52
f 76/76/76 52/52/52 78/78/78
f 76/76/76 78/78/78 72/72/72
f 76/76/76 72/72/72 71/71/71
f 76/76/76 71/71/71 65/65/65
f 76/76/76 65/65/65 77/77/77
f 79/79/79 80/80/80 60/60/60
f 79/79/79 60/60/60 59/59/59
f 79/79/79 59/59/59 54/54/54
f 79/79/79 54/54/54 77/77/77
f 79/79/79 77/77/77 65/65/65
f 79/79/79 65/65/65 64/64/64
f 79/79/79 64/64/64 63/63/63
f 79/79/79 63/63/63 80/80/80
f 81/81/81 82/82/82 69/69/69
f 81/81/81 69/69/69 68/68/68
f 81/81/81 68/68/68 67/67/67
f 81/81/81 67/67/67 83/83/83
f 81/81/81 83/83/83 84/84/84
f 81/81/81 84/84/84 85/85/85
f 81/81/81 85/85/85 86/86/86
f 81/81/81 86/86/86 82/82/82
f 87/87/87 83/83/83 67/67/67
f 87/87/87 67/67/67 75/75/75
f 87/87/87 75/75/75 74/74/74
f 87/87/87 74/74/74 88/88/88
f 87/87/87 88/88/88 89/89/89
f 87/87/87 89/89/89 90/90/90
f 87/87/87 90/90/90 84/84/84
f 87/87/87 84/84/84 83/83/83
f 91/91/91 92/92/92 38/38/38
f 91/91/91 38/38/38 37/37/37
f 91/91/91 37/37/37 18/18/18
f 91/91/91 18/18/18 93/93/93
f 91/91/91 93/93/93 69/69/69
f 91/91/91 69/69/69 82/82/82
f 91/91/91 82/82/82 94/94/94
f 91/91/91 94/94/94 92/92/92
f 95/95/95 96/96/96 44/44/44
f 95/95/95 44/44/44 43/43/43
f 95/95/95 43/43/43 40/40/40
f 95/95/95 40/40/40 97/97/97
f 95/95/95 97/97/97 84/84/84
f 95/95/95 84/84/84 90/90/90
f 95/95/95 90/90/90 98/98/98
f 95/95/95 98/98/98 96/96/96
f 99/99/99 100/100/100 7/7/7
f 99/99/99 7/7/7 6/6/6
f 99/99/99 6/6/6 5/5/5
f 99/99/99 5/5/5 101/101/101
f 99/99/99 101/101/101 52/52/52
f 99/99/99 52/52/52 51/51/51
f 99/99/99 51/51/51 102/102/102
f 99/99/99 102/102/102 100/100/100
f 103/103/103 104/104/104 15/15/15
f 103/103/103 15/15/15 14/14/14
f 103/103/103 14/14/14 9/9/9
f 103/103/103 9/9/9 105/105/105
f 103/103/103 105/105/105 48/48/48
f 103/103/103 48/48/48 58/58/58
f 103/103/103 58/58/58 106/106/106
f 103/103/103 106/106/106 104/104/104
f 107/107/107 108/108/108 12/12/12
f 107/107/107 12/12/12 11/11/11
f 107/107/107 11/11/11 15/15/15
f 107/107/107 15/15/15 104/104/104
f 107/107/107 104/104/104 106/106/106
f 107/107/107 106/106/106 56/56/56
f 107/107/107 56/56/56 60/60/60
f 107/107/107 60/60/60 108/108/108
f 109/109/109 97/97/97 40/40/40
f 109/109/109 40/40/40 39/39/39
f 109/109/109 39/39/39 38/38/38
f 109/109/109 38/38/38 92/92/92
f 109/109/109 92/92/92 94/94/94
f 109/109/109 94/94/94 85/85/85
f 109/109/109 85/85/85 84/84/84
f 109/109/109 84/84/84 97/97/97
f 110/110/110 111/111/111 27/27/27
f 110/110/110 27/27/27 45/45/45
f 110/110/110 45/45/45 44/44/44
f 110/110/110 44/44/44 96/96/96
f 110/110/110 96/96/96 98/98/98
f 110/110/110 98/98/98 88/88/88
f 110/110/110 88/88/88 74/74/74
f 110/110/110 74/74/74 111/111/111
f 112/112/112 105/105/105 9/9/9
f 112/112/112 9/9/9 8/8/8
f 112/112/112 8/8/8 7/7/7
f 112/112/112 7/7/7 100/100/100
f 112/112/112 100/100/100 102/102/102
f 112/112/112 102/102/102 49/49/49
f 112/112/112 49/49/49 48/48/48
f 112/112/112 48/48/48 105/105/105
f 113/113/113 101/101/101 5/5/5
f 113/113/113 5/5/5 33/33/33
f 113/113/113 33/33/33 29/29/29
f 113/113/113 29/29/29 114/114/114
f 113/113/113 114/114/114 72/72/72
f 113/113/113 72/72/72 78/78/78
f 113/113/113 78/78/78 52/52/52
f 113/113/113 52/52/52 101/101/101
f 115/115/115 116/116/116 24/24/24
f 115/115/115 24/24/24 35/35/35
f 115/115/115 35/35/35 12/12/12
f 115/115/115 12/12/12 108/108/108
f 115/115/115 108/108/108 60/60/60
f 115/115/115 60/60/60 80/80/80
f 115/115/115 80/80/80 63/63/63
f 115/115/115 63/63/63 116/116/116
f 117/117/117 93/93/93 18/18/18
f 117/117/117 18/18/18 17/17/17
f 117/117/117 17/17/17 24/24/24
f 117/117/117 24/24/24 116/116/116
f 117/117/117 116/116/116 63/63/63
f 117/117/117 63/63/63 62/62/62
f 117/117/117 62/62/62 69/69/69
f 117/117/117 69/69/69 93/93/93
f 118/118/118 114/114/114 29/29/29
f 118/118/118 29/29/29 28/28/28
f 118/118/118 28/28/28 27/27/27
f 118/118/118 27/27/27 111/111/111
f 118/118/118 111/111/111 74/74/74
f 118/118/118 74/74/74 73/73/73
f 118/118/118 73/73/73 72/72/72
f 118/118/118 72/72/72 114/114/114
