v -2.308484 0.772244 -1.220437
v -2.306559 0.772088 -1.220935
v -2.307698 0.770404 -1.222643
v -2.309746 0.770725 -1.221856
v -2.311388 0.771034 -1.221456
v -2.310114 0.772324 -1.220375
v -2.308956 0.772933 -1.219746
v -2.307501 0.773232 -1.219405
v -2.305702 0.773251 -1.219629
v -2.305133 0.771882 -1.222314
v -2.304238 0.771689 -1.223666
v -2.304713 0.770312 -1.225194
v -2.305938 0.770313 -1.223989
v -2.3046 0.772919 -1.221029
v -2.304197 0.772419 -1.222411
v -2.309124 0.76401 -1.228372
v -2.307803 0.763964 -1.229326
v -2.309093 0.761593 -1.230278
v -2.310256 0.761628 -1.229423
v -2.311847 0.761732 -1.22838
v -2.310929 0.764131 -1.227202
v -2.309943 0.766413 -1.225882
v -2.308061 0.766299 -1.227119
v -2.30669 0.766269 -1.228139
v -2.312856 0.764413 -1.226282
v -2.313556 0.761985 -1.227575
v -2.314876 0.762217 -1.227039
v -2.314342 0.764671 -1.225665
v -2.31353 0.767008 -1.224309
v -2.311965 0.76672 -1.224933
v -2.310917 0.768854 -1.223406
v -2.308846 0.768508 -1.224327
v -2.312536 0.769196 -1.222837
v -2.306956 0.768426 -1.225624
v -2.305595 0.768446 -1.226723
v -2.311569 0.759222 -1.230313
v -2.310718 0.759217 -1.230989
v -2.31182 0.757872 -1.23118
v -2.31261 0.757394 -1.230902
v -2.313396 0.757412 -1.230312
v -2.312743 0.759282 -1.229507
v -2.314032 0.759488 -1.228934
v -2.314297 0.757576 -1.229957
v -2.314857 0.7582 -1.22948
v -2.315037 0.759684 -1.22857
v -2.308455 0.772093 -1.220296
v -2.306504 0.771933 -1.220807
v -2.305662 0.773132 -1.219535
v -2.307482 0.773117 -1.219301
v -2.308946 0.77285 -1.219666
v -2.310105 0.772214 -1.220263
v -2.311373 0.770927 -1.221341
v -2.30971 0.770579 -1.221711
v -2.307639 0.770255 -1.22251
v -2.305053 0.771726 -1.222201
v -2.304166 0.771573 -1.223589
v -2.304147 0.772332 -1.222353
v -2.304541 0.7728 -1.220947
v -2.305857 0.770163 -1.223869
v -2.304641 0.7702 -1.225111
v -2.309034 0.763889 -1.228227
v -2.307728 0.763873 -1.229222
v -2.306617 0.766171 -1.228041
v -2.307975 0.766168 -1.22698
v -2.309873 0.766283 -1.225733
v -2.310855 0.764011 -1.227047
v -2.31177 0.761619 -1.228221
v -2.310163 0.761514 -1.229274
v -2.309016 0.761506 -1.230171
v -2.312798 0.764295 -1.226119
v -2.311913 0.766593 -1.224775
v -2.3135 0.766915 -1.224187
v -2.314307 0.764584 -1.225538
v -2.314839 0.762135 -1.22691
v -2.313496 0.761874 -1.227408
v -2.310873 0.768717 -1.223255
v -2.308782 0.768368 -1.224186
v -2.312513 0.769095 -1.222718
v -2.306873 0.768285 -1.225495
v -2.305523 0.76834 -1.226632
v -2.311474 0.75911 -1.230163
v -2.310639 0.759133 -1.230882
v -2.312665 0.759172 -1.229346
v -2.313338 0.75733 -1.230192
v -2.312538 0.75731 -1.23079
v -2.311764 0.75781 -1.231099
v -2.313972 0.75938 -1.228765
v -2.315001 0.759604 -1.228439
v -2.314828 0.758141 -1.229384
v -2.314253 0.757495 -1.229829
v -2.310397 0.759178 -1.231168
v -2.31199 0.757389 -1.231397
v -2.308669 0.761542 -1.230516
v -2.311764 0.75781 -1.231099
v -2.314367 0.756903 -1.230241
v -2.315032 0.757717 -1.229693
v -2.313588 0.756753 -1.230528
v -2.314828 0.758141 -1.229384
v -2.310657 0.772303 -1.220304
v -2.309112 0.773058 -1.219587
v -2.311931 0.77109 -1.22127
v -2.308946 0.77285 -1.219666
v -2.304396 0.773211 -1.220565
v -2.303963 0.772502 -1.222471
v -2.305399 0.773585 -1.219152
v -2.304147 0.772332 -1.222353
v -2.303905 0.771573 -1.224085
v -2.30427 0.770262 -1.22556
v -2.312925 0.756747 -1.231048
v -2.315358 0.759714 -1.22839
v -2.315302 0.762259 -1.226802
v -2.307165 0.77351 -1.219015
v -2.313068 0.769265 -1.222593
v -2.31404 0.767063 -1.224046
v -2.305107 0.768405 -1.227051
v -2.306199 0.766216 -1.228437
v -2.307328 0.763908 -1.229599
v -2.314824 0.764718 -1.225402
vn -0.0554 0.7271 -0.6843
vn -0.2402 0.779 -0.5791
vn -0.2657 0.7405 -0.6173
vn -0.1017 0.6933 -0.7134
vn -0.1205 0.6782 -0.7249
vn -0.0628 0.7289 -0.6817
vn -0.0223 0.7617 -0.6476
vn -0.051 0.7926 -0.6076
vn -0.1986 0.8335 -0.5155
vn -0.4316 0.7677 -0.4736
vn -0.4252 0.7681 -0.4787
vn -0.4406 0.7128 -0.5456
vn -0.438 0.7296 -0.5251
vn -0.3582 0.8258 -0.4356
vn -0.4116 0.8037 -0.4295
vn -0.4545 0.5564 -0.6955
vn -0.4265 0.5478 -0.7197
vn -0.4345 0.5204 -0.735
vn -0.4721 0.5288 -0.7053
vn -0.3766 0.5129 -0.7714
vn -0.3625 0.5488 -0.7533
vn -0.3323 0.6178 -0.7126
vn -0.4386 0.6185 -0.6519
vn -0.4224 0.604 -0.6758
vn -0.2656 0.5361 -0.8013
vn -0.2695 0.5069 -0.8188
vn -0.3152 0.5074 -0.8019
vn -0.3018 0.5343 -0.7895
vn -0.2576 0.5862 -0.7681
vn -0.2268 0.5956 -0.7706
vn -0.1653 0.6547 -0.7376
vn -0.2961 0.6887 -0.6618
vn -0.1908 0.6383 -0.7458
vn -0.4324 0.6835 -0.588
vn -0.4289 0.6641 -0.6123
vn -0.4976 0.5174 -0.6962
vn -0.4595 0.505 -0.7306
vn -0.4912 0.4915 -0.7191
vn -0.5327 0.4683 -0.7049
vn -0.4001 0.446 -0.8006
vn -0.3829 0.4957 -0.7795
vn -0.2506 0.4906 -0.8345
vn -0.248 0.4375 -0.8643
vn -0.2774 0.4687 -0.8386
vn -0.3011 0.488 -0.8192
vn 0.0402 -0.7044 0.7086
vn 0.2473 -0.7687 0.5899
vn 0.2741 -0.7269 0.6297
vn -0.008 -0.6328 0.7743
vn -0.1032 -0.569 0.8158
vn -0.0853 -0.5861 0.8057
vn -0.0207 -0.6113 0.7911
vn 0.0886 -0.6886 0.7197
vn 0.2656 -0.7406 0.6172
vn 0.4636 -0.7501 0.4715
vn 0.6288 -0.6632 0.4059
vn 0.6492 -0.6503 0.3944
vn 0.5552 -0.6937 0.4588
vn 0.4509 -0.7277 0.5169
vn 0.5794 -0.6762 0.455
vn 0.4674 -0.558 0.6857
vn 0.5529 -0.5653 0.612
vn 0.543 -0.6077 0.5795
vn 0.4508 -0.619 0.6431
vn 0.3323 -0.6177 0.7127
vn 0.3626 -0.5486 0.7533
vn 0.3766 -0.5128 0.7715
vn 0.4863 -0.5323 0.6929
vn 0.5724 -0.5624 0.5967
vn 0.2505 -0.5346 0.8071
vn 0.213 -0.5933 0.7762
vn 0.1141 -0.5614 0.8196
vn 0.1436 -0.5211 0.8413
vn 0.1212 -0.5135 0.8495
vn 0.2512 -0.5069 0.8246
vn 0.1521 -0.6516 0.7432
vn 0.2961 -0.6887 0.6617
vn 0.052 -0.6004 0.798
vn 0.4443 -0.6831 0.5795
vn 0.5499 -0.6543 0.5191
vn 0.5116 -0.5347 0.6725
vn 0.5999 -0.5874 0.5431
vn 0.3791 -0.5061 0.7747
vn 0.3615 -0.5513 0.7519
vn 0.5438 -0.5924 0.5944
vn 0.6128 -0.606 0.5072
vn 0.2207 -0.5032 0.8355
vn 0.0577 -0.5289 0.8467
vn 0.0178 -0.5418 0.8403
vn 0.1288 -0.5476 0.8267
vn 0.5919 -0.2965 -0.7495
vn 0.2676 -0.549 -0.7918
vn 0.6979 -0.1995 -0.6878
vn 0.6128 -0.606 0.5072
vn -0.53 -0.7894 -0.3097
vn -0.8951 -0.4231 -0.1407
vn -0.272 -0.9106 -0.311
vn 0.0178 -0.5418 0.8403
vn -0.7231 0.5363 0.4353
vn -0.4652 0.683 0.563
vn -0.8492 0.384 0.3623
vn -0.1032 -0.569 0.8158
vn 0.7821 0.5581 0.2773
vn 0.8241 0.5438 -0.1586
vn 0.4489 0.5645 0.6926
vn 0.6492 -0.6503 0.3944
vn 0.8236 0.3696 -0.4302
vn 0.8012 0.2056 -0.5619
vn -0.12 -0.8336 -0.5392
vn -0.9831 -0.1259 0.1326
vn -0.9691 -0.0197 0.2457
vn -0.0727 0.6505 0.756
vn -0.9105 0.2542 0.3262
vn -0.9333 0.1708 0.3157
vn 0.7806 0.0714 -0.6209
vn 0.7698 -0.0134 -0.6381
vn 0.7535 -0.0973 -0.6502
vn -0.9489 0.0867 0.3034
vt 0.839504 0.118056
vt 0.856743 0.205307
vt 0.741230 0.205307
vt 0.734555 0.106726
vt 0.724541 0.032791
vt 0.813647 0.052618
vt 0.868992 0.081539
vt 0.913398 0.129584
vt 0.940923 0.205307
vt 0.839504 0.292557
vt 0.813647 0.357995
vt 0.724541 0.377822
vt 0.734555 0.303887
vt 0.913398 0.281029
vt 0.868992 0.329074
vt 0.369475 0.299954
vt 0.368286 0.370940
vt 0.245840 0.351447
vt 0.246397 0.288815
vt 0.246768 0.205307
vt 0.370268 0.205307
vt 0.494283 0.205307
vt 0.492822 0.304944
vt 0.490632 0.379672
vt 0.369475 0.110659
vt 0.246397 0.121798
vt 0.245841 0.059166
vt 0.368286 0.039673
vt 0.490632 0.030941
vt 0.492822 0.105669
vt 0.616755 0.103478
vt 0.619174 0.205307
vt 0.613127 0.027106
vt 0.616755 0.307135
vt 0.613126 0.383507
vt 0.123273 0.268175
vt 0.123047 0.315326
vt 0.054743 0.283353
vt 0.030912 0.249131
vt 0.030973 0.205306
vt 0.123423 0.205306
vt 0.123273 0.142438
vt 0.030912 0.161481
vt 0.054744 0.127260
vt 0.123047 0.095287
vt 0.839504 0.118056
vt 0.856743 0.205307
vt 0.968983 0.205307
vt 0.938030 0.133427
vt 0.876123 0.061548
vt 0.805028 0.030806
vt 0.721203 0.008146
vt 0.734555 0.106726
vt 0.741230 0.205307
vt 0.839504 0.292557
vt 0.805028 0.379807
vt 0.876123 0.349065
vt 0.938030 0.277186
vt 0.734555 0.303887
vt 0.721203 0.402467
vt 0.369475 0.299954
vt 0.367890 0.394602
vt 0.489902 0.404581
vt 0.492822 0.304944
vt 0.494283 0.205307
vt 0.370268 0.205307
vt 0.246768 0.205307
vt 0.246397 0.288815
vt 0.245655 0.372324
vt 0.369475 0.110659
vt 0.492822 0.105669
vt 0.489902 0.006032
vt 0.367890 0.016011
vt 0.245655 0.038289
vt 0.246397 0.121798
vt 0.616755 0.103478
vt 0.619174 0.205307
vt 0.611917 0.001649
vt 0.616755 0.307135
vt 0.611917 0.408964
vt 0.123273 0.268175
vt 0.122972 0.331043
vt 0.123423 0.205306
vt 0.000156 0.205306
vt 0.000125 0.242784
vt 0.000064 0.280261
vt 0.123273 0.142438
vt 0.122972 0.079570
vt 0.000064 0.130352
vt 0.000125 0.167829
vt 0.122972 0.331043
vt 0.030806 0.283587
vt 0.245655 0.372324
vt 0.030806 0.283587
vt 0.000125 0.167829
vt 0.030806 0.127026
vt 0.000156 0.205306
vt 0.030806 0.127026
vt 0.805028 0.030806
vt 0.873826 0.071832
vt 0.721203 0.008146
vt 0.873826 0.071832
vt 0.938030 0.277186
vt 0.873826 0.338781
vt 0.968983 0.205307
vt 0.873826 0.338781
vt 0.805028 0.379807
vt 0.721203 0.402467
vt 0.000125 0.242784
vt 0.122972 0.079570
vt 0.245655 0.038289
vt 0.938030 0.133427
vt 0.611917 0.001649
vt 0.489902 0.006032
vt 0.611917 0.408964
vt 0.489902 0.404581
vt 0.367890 0.394602
vt 0.367890 0.016011
f 1/1/1 2/2/2 3/3/3
f 1/1/1 3/3/3 4/4/4
f 1/1/1 4/4/4 5/5/5
f 1/1/1 5/5/5 6/6/6
f 1/1/1 6/6/6 7/7/7
f 1/1/1 7/7/7 8/8/8
f 1/1/1 8/8/8 9/9/9
f 1/1/1 9/9/9 2/2/2
f 10/10/10 11/11/11 12/12/12
f 10/10/10 12/12/12 13/13/13
f 10/10/10 13/13/13 3/3/3
f 10/10/10 3/3/3 2/2/2
f 10/10/10 2/2/2 9/9/9
f 10/10/10 9/9/9 14/14/14
f 10/10/10 14/14/14 15/15/15
f 10/10/10 15/15/15 11/11/11
f 16/16/16 17/17/17 18/18/18
f 16/16/16 18/18/18 19/19/19
f 16/16/16 19/19/19 20/20/20
f 16/16/16 20/20/20 21/21/21
f 16/16/16 21/21/21 22/22/22
f 16/16/16 22/22/22 23/23/23
f 16/16/16 23/23/23 24/24/24
f 16/16/16 24/24/24 17/17/17
f 25/25/25 21/21/21 20/20/20
f 25/25/25 20/20/20 26/26/26
f 25/25/25 26/26/26 27/27/27
f 25/25/25 27/27/27 28/28/28
f 25/25/25 28/28/28 29/29/29
f 25/25/25 29/29/29 30/30/30
f 25/25/25 30/30/30 22/22/22
f 25/25/25 22/22/22 21/21/21
f 31/31/31 32/32/32 22/22/22
f 31/31/31 22/22/22 30/30/30
f 31/31/31 30/30/30 29/29/29
f 31/31/31 29/29/29 33/33/33
f 31/31/31 33/33/33 5/5/5
f 31/31/31 5/5/5 4/4/4
f 31/31/31 4/4/4 3/3/3
f 31/31/31 3/3/3 32/32/32
f 34/34/34 35/35/35 24/24/24
f 34/34/34 24/24/24 23/23/23
f 34/34/34 23/23/23 22/22/22
f 34/34/34 22/22/22 32/32/32
f 34/34/34 32/32/32 3/3/3
f 34/34/34 3/3/3 13/13/13
f 34/34/34 13/13/13 12/12/12
f 34/34/34 12/12/12 35/35/35
f 36/36/36 37/37/37 38/38/38
f 36/36/36 38/38/38 39/39/39
f 36/36/36 39/39/39 40/40/40
f 36/36/36 40/40/40 41/41/41
f 36/36/36 41/41/41 20/20/20
f 36/36/36 20/20/20 19/19/19
f 36/36/36 19/19/19 18/18/18
f 36/36/36 18/18/18 37/37/37
f 42/42/42 41/41/41 40/40/40
f 42/42/42 40/40/40 43/43/43
f 42/42/42 43/43/43 44/44/44
f 42/42/42 44/44/44 45/45/45
f 42/42/42 45/45/45 27/27/27
f 42/42/42 27/27/27 26/26/26
f 42/42/42 26/26/26 20/20/20
f 42/42/42 20/20/20 41/41/41
f 46/46/46 47/47/47 48/48/48
f 46/46/46 48/48/48 49/49/49
f 46/46/46 49/49/49 50/50/50
f 46/46/46 50/50/50 51/51/51
f 46/46/46 51/51/51 52/52/52
f 46/46/46 52/52/52 53/53/53
f 46/46/46 53/53/53 54/54/54
f 46/46/46 54/54/54 47/47/47
f 55/55/55 56/56/56 57/57/57
f 55/55/55 57/57/57 58/58/58
f 55/55/55 58/58/58 48/48/48
f 55/55/55 48/48/48 47/47/47
f 55/55/55 47/47/47 54/54/54
f 55/55/55 54/54/54 59/59/59
f 55/55/55 59/59/59 60/60/60
f 55/55/55 60/60/60 56/56/56
f 61/61/61 62/62/62 63/63/63
f 61/61/61 63/63/63 64/64/64
f 61/61/61 64/64/64 65/65/65
f 61/61/61 65/65/65 66/66/66
f 61/61/61 66/66/66 67/67/67
f 61/61/61 67/67/67 68/68/68
f 61/61/61 68/68/68 69/69/69
f 61/61/61 69/69/69 62/62/62
f 70/70/70 66/66/66 65/65/65
f 70/70/70 65/65/65 71/71/71
f 70/70/70 71/71/71 72/72/72
f 70/70/70 72/72/72 73/73/73
f 70/70/70 73/73/73 74/74/74
f 70/70/70 74/74/74 75/75/75
f 70/70/70 75/75/75 67/67/67
f 70/70/70 67/67/67 66/66/66
f 76/76/76 77/77/77 54/54/54
f 76/76/76 54/54/54 53/53/53
f 76/76/76 53/53/53 52/52/52
f 76/76/76 52/52/52 78/78/78
f 76/76/76 78/78/78 72/72/72
f 76/76/76 72/72/72 71/71/71
f 76/76/76 71/71/71 65/65/65
f 76/76/76 65/65/65 77/77/77
f 79/79/79 80/80/80 60/60/60
f 79/79/79 60/60/60 59/59/59
f 79/79/79 59/59/59 54/54/54
f 79/79/79 54/54/54 77/77/77
f 79/79/79 77/77/77 65/65/65
f 79/79/79 65/65/65 64/64/64
f 79/79/79 64/64/64 63/63/63
f 79/79/79 63/63/63 80/80/80
f 81/81/81 82/82/82 69/69/69
f 81/81/81 69/69/69 68/68/68
f 81/81/81 68/68/68 67/67/67
f 81/81/81 67/67/67 83/83/83
f 81/81/81 83/83/83 84/84/84
f 81/81/81 84/84/84 85/85/85
f 81/81/81 85/85/85 86/86/86
f 81/81/81 86/86/86 82/82/82
f 87/87/87 83/83/83 67/67/67
f 87/87/87 67/67/67 75/75/75
f 87/87/87 75/75/75 74/74/74
f 87/87/87 74/74/74 88/88/88
f 87/87/87 88/88/88 89/89/89
f 87/87/87 89/89/89 90/90/90
f 87/87/87 90/90/90 84/84/84
f 87/87/87 84/84/84 83/83/83
f 91/91/91 92/92/92 38/38/38
f 91/91/91 38/38/38 37/37/37
f 91/91/91 37/37/37 18/18/18
f 91/91/91 18/18/18 93/93/93
f 91/91/91 93/93/93 69/69/69
f 91/91/91 69/69/69 82/82/82
f 91/91/91 82/82/82 94/94/94
f 91/91/91 94/94/94 92/92/92
f 95/95/95 96/96/96 44/44/44
f 95/95/95 44/44/44 43/43/43
f 95/95/95 43/43/43 40/40/40
f 95/95/95 40/40/40 97/97/97
f 95/95/95 97/97/97 84/84/84
f 95/95/95 84/84/84 90/90/90
f 95/95/95 90/90/90 98/98/98
f 95/95/95 98/98/98 96/96/96
f 99/99/99 100/100/100 7/7/7
f 99/99/99 7/7/7 6/6/6
f 99/99/99 6/6/6 5/5/5
f 99/99/99 5/5/5 101/101/101
f 99/99/99 101/101/101 52/52/52
f 99/99/99 52/52/52 51/51/51
f 99/99/99 51/51/51 102/102/102
f 99/99/99 102/102/102 100/100/100
f 103/103/103 104/104/104 15/15/15
f 103/103/103 15/15/15 14/14/14
f 103/103/103 14/14/14 9/9/9
f 103/103/103 9/9/9 105/105/105
f 103/103/103 105/105/105 48/48/48
f 103/103/103 48/48/48 58/58/58
f 103/103/103 58/58/58 106/106/106
f 103/103/103 106/106/106 104/104/104
f 107/107/107 108/108/108 12/12/12
f 107/107/107 12/12/12 11/11/11
f 107/107/107 11/11/11 15/15/15
f 107/107/107 15/15/15 104/104/104
f 107/107/107 104/104/104 106/106/106
f 107/107/107 106/106/106 56/56/56
f 107/107/107 56/56/56 60/60/60
f 107/107/107 60/60/60 108/108/108
f 109/109/109 97/97/97 40/40/40
f 109/109/109 40/40/40 39/39/39
f 109/109/109 39/39/39 38/38/38
f 109/109/109 38/38/38 92/92/92
f 109/109/109 92/92/92 94/94/94
f 109/109/109 94/94/94 85/85/85
f 109/109/109 85/85/85 84/84/84
f 109/109/109 84/84/84 97/97/97
f 110/110/110 111/111/111 27/27/27
f 110/110/110 27/27/27 45/45/45
f 110/110/110 45/45/45 44/44/44
f 110/110/110 44/44/44 96/96/96
f 110/110/110 96/96/96 98/98/98
f 110/110/110 98/98/98 88/88/88
f 110/110/110 88/88/88 74/74/74
f 110/110/110 74/74/74 111/111/111
f 112/112/112 105/105/105 9/9/9
f 112/112/112 9/9/9 8/8/8
f 112/112/112 8/8/8 7/7/7
f 112/112/112 7/7/7 100/100/100
f 112/112/112 100/100/100 102/102/102
f 112/112/112 102/102/102 49/49/49
f 112/112/112 49/49/49 48/48/48
f 112/112/112 48/48/48 105/105/105
f 113/113/113 101/101/101 5/5/5
f 113/113/113 5/5/5 33/33/33
f 113/113/113 33/33/33 29/29/29
f 113/113/113 29/29/29 114/114/114
f 113/113/113 114/114/114 72/72/72
f 113/113/113 72/72/72 78/78/78
f 113/113/113 78/78/78 52/52/52
f 113/113/113 52/52/52 101/101/101
f 115/115/115 116/116/116 24/24/24
f 115/115/115 24/24/24 35/35/35
f 115/115/115 35/35/35 12/12/12
f 115/115/115 12/12/12 108/108/108
f 115/115/115 108/108/108 60/60/60
f 115/115/115 60/60/60 80/80/80
f 115/115/115 80/80/80 63/63/63
f 115/115/115 63/63/63 116/116/116
f 117/117/117 93/93/93 18/18/18
f 117/117/117 18/18/18 17/17/17
f 117/117/117 17/17/17 24/24/24
f 117/117/117 24/24/24 116/116/116
f 117/117/117 116/116/116 63/63/63
f 117/117/117 63/63/63 62/62/62
f 117/117/117 62/62/62 69/69/69
f 117/117/117 69/69/69 93/93/93
f 118/118/118 114/114/114 29/29/29
f 118/118/118 29/29/29 28/28/28
f 118/118/118 28/28/28 27/27/27
f 118/118/118 27/27/27 111/111/111
f 118/118/118 111/111/111 74/74/74
f 118/118/118 74/74/74 73/73/73
f 118/118/118 73/73/73 72/72/72
f 118/118/118 72/72/72 114/114/114
