v -2.370512 0.793429 -1.172077
v -2.37065 0.793981 -1.170437
v -2.368688 0.792763 -1.170361
v -2.368773 0.792233 -1.172214
v -2.368663 0.791905 -1.173669
v -2.370099 0.79301 -1.17337
v -2.371035 0.793662 -1.172827
v -2.37178 0.794227 -1.171886
v -2.372127 0.794811 -1.170463
v -2.369924 0.794571 -1.168976
v -2.369067 0.795014 -1.167932
v -2.36749 0.794181 -1.167491
v -2.368104 0.793531 -1.16869
v -2.37127 0.795215 -1.169202
v -2.370199 0.795284 -1.168423
v -2.362696 0.788777 -1.168006
v -2.362306 0.789356 -1.166772
v -2.360807 0.787368 -1.166733
v -2.361161 0.78685 -1.167822
v -2.361553 0.786216 -1.169303
v -2.36313 0.788064 -1.169684
v -2.364824 0.789803 -1.170004
v -2.364359 0.79056 -1.168254
v -2.363933 0.791184 -1.166973
v -2.363351 0.787504 -1.171459
v -2.361741 0.785725 -1.170875
v -2.361822 0.785396 -1.172085
v -2.363454 0.787127 -1.172822
v -2.365134 0.788852 -1.173302
v -2.365045 0.78923 -1.171867
v -2.366901 0.790819 -1.172131
v -2.366712 0.79137 -1.170223
v -2.366939 0.790482 -1.173615
v -2.366205 0.79217 -1.168466
v -2.36572 0.792848 -1.167192
v -2.3597 0.784812 -1.167802
v -2.359403 0.78522 -1.167002
v -2.358726 0.783899 -1.16734
v -2.358647 0.78323 -1.167839
v -2.358896 0.782872 -1.168575
v -2.360016 0.784323 -1.168897
v -2.360132 0.783972 -1.170081
v -2.358944 0.782654 -1.169401
v -2.359259 0.782864 -1.17015
v -2.360162 0.783748 -1.170999
v -2.370612 0.793284 -1.172032
v -2.370746 0.793844 -1.170368
v -2.372197 0.794707 -1.170411
v -2.371852 0.794116 -1.171853
v -2.37109 0.79358 -1.172808
v -2.370175 0.792899 -1.173349
v -2.368743 0.791798 -1.173644
v -2.368879 0.792093 -1.172167
v -2.36879 0.79263 -1.170292
v -2.370015 0.794444 -1.168884
v -2.369132 0.794924 -1.167853
v -2.370248 0.795216 -1.168366
v -2.371336 0.795119 -1.169132
v -2.368202 0.793406 -1.168601
v -2.367561 0.794093 -1.167415
v -2.362821 0.788671 -1.167926
v -2.362398 0.78928 -1.166705
v -2.364019 0.791103 -1.166904
v -2.364477 0.790448 -1.168172
v -2.364945 0.789685 -1.169937
v -2.363259 0.787952 -1.169619
v -2.361686 0.78611 -1.169238
v -2.361291 0.78675 -1.167742
v -2.360902 0.787295 -1.166667
v -2.363482 0.787388 -1.171409
v -2.365168 0.789106 -1.171816
v -2.365227 0.788757 -1.173273
v -2.363553 0.787037 -1.172792
v -2.361925 0.78531 -1.172056
v -2.361877 0.785614 -1.170826
v -2.367015 0.790687 -1.172082
v -2.366823 0.791244 -1.170155
v -2.367026 0.79038 -1.173588
v -2.366313 0.79205 -1.16838
v -2.365798 0.792763 -1.16712
v -2.359831 0.784714 -1.167722
v -2.3595 0.78515 -1.166935
v -2.360152 0.784218 -1.168833
v -2.358997 0.782795 -1.168527
v -2.358746 0.783157 -1.167778
v -2.358798 0.783847 -1.167292
v -2.36027 0.783863 -1.170033
v -2.360266 0.783663 -1.170971
v -2.359336 0.782802 -1.170127
v -2.359047 0.782572 -1.169366
v -2.359347 0.785326 -1.166704
v -2.358428 0.783526 -1.167255
v -2.360731 0.787509 -1.166339
v -2.358798 0.783847 -1.167292
v -2.358594 0.782178 -1.169158
v -2.358963 0.782489 -1.170071
v -2.358567 0.782355 -1.168447
v -2.359336 0.782802 -1.170127
v -2.369995 0.792821 -1.173795
v -2.371136 0.793675 -1.173024
v -2.368662 0.791747 -1.174145
v -2.37109 0.79358 -1.172808
v -2.371747 0.795387 -1.169246
v -2.370232 0.795431 -1.168259
v -2.37265 0.795041 -1.170448
v -2.370248 0.795216 -1.168366
v -2.368809 0.795123 -1.167546
v -2.367317 0.794359 -1.167055
v -2.358341 0.78267 -1.167824
v -2.360218 0.783634 -1.171294
v -2.361895 0.785248 -1.172477
v -2.372234 0.794443 -1.171808
v -2.366991 0.790323 -1.1741
v -2.365206 0.788683 -1.17377
v -2.365592 0.793037 -1.166734
v -2.363828 0.791356 -1.166514
v -2.362216 0.789516 -1.166329
v -2.363533 0.786961 -1.173265
vn 0.527 0.8322 -0.1723
vn 0.4827 0.7881 -0.3819
vn 0.5332 0.756 -0.3797
vn 0.5753 0.7949 -0.1925
vn 0.5949 0.7784 -0.2002
vn 0.5268 0.8307 -0.1801
vn 0.4759 0.8637 -0.1659
vn 0.4432 0.8706 -0.2134
vn 0.4004 0.8326 -0.3827
vn 0.4511 0.6848 -0.5723
vn 0.4537 0.6886 -0.5657
vn 0.5303 0.653 -0.5406
vn 0.5074 0.6632 -0.5502
vn 0.3812 0.7503 -0.5401
vn 0.3974 0.7111 -0.58
vn 0.7007 0.5507 -0.4535
vn 0.7151 0.5591 -0.4194
vn 0.7368 0.5363 -0.4118
vn 0.7204 0.5229 -0.4555
vn 0.7524 0.5589 -0.3487
vn 0.7246 0.5906 -0.3551
vn 0.6649 0.651 -0.366
vn 0.6443 0.5993 -0.4751
vn 0.6635 0.5984 -0.4491
vn 0.7388 0.6247 -0.2527
vn 0.7613 0.6023 -0.2402
vn 0.7609 0.5831 -0.2847
vn 0.7403 0.608 -0.2868
vn 0.6967 0.663 -0.2738
vn 0.6871 0.6823 -0.2498
vn 0.6257 0.7462 -0.2272
vn 0.5935 0.7121 -0.375
vn 0.6447 0.7254 -0.2412
vn 0.5718 0.6415 -0.5113
vn 0.5966 0.6321 -0.4945
vn 0.7225 0.5016 -0.4757
vn 0.7436 0.5129 -0.4288
vn 0.7459 0.4871 -0.4541
vn 0.7508 0.4484 -0.485
vn 0.7988 0.4992 -0.3356
vn 0.7649 0.5436 -0.3454
vn 0.7724 0.5983 -0.2132
vn 0.8082 0.5599 -0.1823
vn 0.7888 0.5712 -0.2268
vn 0.7755 0.5752 -0.2602
vn -0.5484 -0.8238 0.1437
vn -0.4967 -0.7796 0.3814
vn -0.5499 -0.7445 0.3786
vn -0.6053 -0.7939 0.0564
vn -0.6229 -0.7797 -0.0634
vn -0.6165 -0.7864 -0.0381
vn -0.6202 -0.7837 0.0326
vn -0.5776 -0.7968 0.1774
vn -0.5331 -0.7561 0.3797
vn -0.4629 -0.6579 0.594
vn -0.4725 -0.5065 0.7212
vn -0.471 -0.4848 0.737
vn -0.4916 -0.5732 0.6555
vn -0.5045 -0.6548 0.5627
vn -0.4991 -0.5486 0.6707
vn -0.6956 -0.5451 0.4679
vn -0.6548 -0.5025 0.5644
vn -0.614 -0.5346 0.5807
vn -0.6401 -0.5932 0.4882
vn -0.6651 -0.6509 0.366
vn -0.7248 -0.5904 0.3551
vn -0.7525 -0.5587 0.3487
vn -0.7131 -0.5178 0.4725
vn -0.6476 -0.489 0.5843
vn -0.7394 -0.63 0.2373
vn -0.6881 -0.6864 0.2353
vn -0.7006 -0.7026 0.1247
vn -0.7375 -0.6629 0.1291
vn -0.7387 -0.6659 0.1041
vn -0.7606 -0.6099 0.2226
vn -0.6269 -0.7494 0.213
vn -0.5935 -0.7121 0.375
vn -0.6529 -0.752 0.0907
vn -0.568 -0.6348 0.5237
vn -0.5524 -0.5568 0.6203
vn -0.7023 -0.5058 0.5009
vn -0.603 -0.4871 0.6317
vn -0.7573 -0.5529 0.3475
vn -0.7226 -0.5928 0.3555
vn -0.6308 -0.5248 0.5716
vn -0.571 -0.4893 0.6592
vn -0.7611 -0.6197 0.1915
vn -0.7123 -0.6997 0.055
vn -0.6908 -0.7225 0.0266
vn -0.7145 -0.6873 0.1302
vn 0.5465 0.143 0.8251
vn 0.738 -0.1788 0.6506
vn 0.4372 0.2468 0.8648
vn -0.571 -0.4893 0.6592
vn 0.6005 -0.7959 -0.0765
vn 0.5033 -0.6344 -0.5866
vn 0.5361 -0.8201 0.2001
vn -0.6908 -0.7225 0.0266
vn -0.2528 0.1201 -0.96
vn -0.4833 0.3007 -0.8221
vn -0.1162 -0.038 -0.9925
vn -0.6229 -0.7797 -0.0634
vn -0.6155 0.6797 0.3988
vn -0.2228 0.8058 0.5487
vn -0.8894 0.457 0.0003
vn -0.471 -0.4848 0.737
vn 0.0591 0.7262 0.6849
vn 0.2166 0.609 0.763
vn 0.6833 -0.6352 0.36
vn 0.2288 -0.474 -0.8502
vn 0.1007 -0.4059 -0.9083
vn -0.788 0.345 -0.5098
vn -0.04 -0.1642 -0.9856
vn -0.0083 -0.2439 -0.9698
vn 0.3011 0.4987 0.8128
vn 0.3351 0.4238 0.8414
vn 0.3661 0.3463 0.8637
vn 0.0224 -0.3207 -0.9469
vt 0.839504 0.118056
vt 0.856743 0.205307
vt 0.741230 0.205307
vt 0.734555 0.106726
vt 0.724541 0.032791
vt 0.813647 0.052618
vt 0.868992 0.081539
vt 0.913398 0.129584
vt 0.940923 0.205307
vt 0.839504 0.292557
vt 0.813647 0.357995
vt 0.724541 0.377822
vt 0.734555 0.303887
vt 0.913398 0.281029
vt 0.868992 0.329074
vt 0.369475 0.299954
vt 0.368286 0.370940
vt 0.245840 0.351447
vt 0.246397 0.288815
vt 0.246768 0.205307
vt 0.370268 0.205307
vt 0.494283 0.205307
vt 0.492822 0.304944
vt 0.490632 0.379672
vt 0.369475 0.110659
vt 0.246397 0.121798
vt 0.245841 0.059166
vt 0.368286 0.039673
vt 0.490632 0.030941
vt 0.492822 0.105669
vt 0.616755 0.103478
vt 0.619174 0.205307
vt 0.613127 0.027106
vt 0.616755 0.307135
vt 0.613126 0.383507
vt 0.123273 0.268175
vt 0.123047 0.315326
vt 0.054743 0.283353
vt 0.030912 0.249131
vt 0.030973 0.205306
vt 0.123423 0.205306
vt 0.123273 0.142438
vt 0.030912 0.161481
vt 0.054744 0.127260
vt 0.123047 0.095287
vt 0.839504 0.118056
vt 0.856743 0.205307
vt 0.968983 0.205307
vt 0.938030 0.133427
vt 0.876123 0.061548
vt 0.805028 0.030806
vt 0.721203 0.008146
vt 0.734555 0.106726
vt 0.741230 0.205307
vt 0.839504 0.292557
vt 0.805028 0.379807
vt 0.876123 0.349065
vt 0.938030 0.277186
vt 0.734555 0.303887
vt 0.721203 0.402467
vt 0.369475 0.299954
vt 0.367890 0.394602
vt 0.489902 0.404581
vt 0.492822 0.304944
vt 0.494283 0.205307
vt 0.370268 0.205307
vt 0.246768 0.205307
vt 0.246397 0.288815
vt 0.245655 0.372324
vt 0.369475 0.110659
vt 0.492822 0.105669
vt 0.489902 0.006032
vt 0.367890 0.016011
vt 0.245655 0.038289
vt 0.246397 0.121798
vt 0.616755 0.103478
vt 0.619174 0.205307
vt 0.611917 0.001649
vt 0.616755 0.307135
vt 0.611917 0.408964
vt 0.123273 0.268175
vt 0.122972 0.331043
vt 0.123423 0.205306
vt 0.000156 0.205306
vt 0.000125 0.242784
vt 0.000064 0.280261
vt 0.123273 0.142438
vt 0.122972 0.079570
vt 0.000064 0.130352
vt 0.000125 0.167829
vt 0.122972 0.331043
vt 0.030806 0.283587
vt 0.245655 0.372324
vt 0.030806 0.283587
vt 0.000125 0.167829
vt 0.030806 0.127026
vt 0.000156 0.205306
vt 0.030806 0.127026
vt 0.805028 0.030806
vt 0.873826 0.071832
vt 0.721203 0.008146
vt 0.873826 0.071832
vt 0.938030 0.277186
vt 0.873826 0.338781
vt 0.968983 0.205307
vt 0.873826 0.338781
vt 0.805028 0.379807
vt 0.721203 0.402467
vt 0.000125 0.242784
vt 0.122972 0.079570
vt 0.245655 0.038289
vt 0.938030 0.133427
vt 0.611917 0.001649
vt 0.489902 0.006032
vt 0.611917 0.408964
vt 0.489902 0.404581
vt 0.367890 0.394602
vt 0.367890 0.016011
f 1/1/1 2/2/2 3/3/3
f 1/1/1 3/3/3 4/4/4
f 1/1/1 4/4/4 5/5/5
f 1/1/1 5/5/5 6/6/6
f 1/1/1 6/6/6 7/7/7
f 1/1/1 7/7/7 8/8/8
f 1/1/1 8/8/8 9/9/9
f 1/1/1 9/9/9 2/2/2
f 10/10/10 11/11/11 12/12/12
f 10/10/10 12/12/12 13/13/13
f 10/10/10 13/13/13 3/3/3
f 10/10/10 3/3/3 2/2/2
f 10/10/10 2/2/2 9/9/9
f 10/10/10 9/9/9 14/14/14
f 10/10/10 14/14/14 15/15/15
f 10/10/10 15/15/15 11/11/11
f 16/16/16 17/17/17 18/18/18
f 16/16/16 18/18/18 19/19/19
f 16/16/16 19/19/19 20/20/20
f 16/16/16 20/20/20 21/21/21
f 16/16/16 21/21/21 22/22/22
f 16/16/16 22/22/22 23/23/23
f 16/16/16 23/23/23 24/24/24
f 16/16/16 24/24/24 17/17/17
f 25/25/25 21/21/21 20/20/20
f 25/25/25 20/20/20 26/26/26
f 25/25/25 26/26/26 27/27/27
f 25/25/25 27/27/27 28/28/28
f 25/25/25 28/28/28 29/29/29
f 25/25/25 29/29/29 30/30/30
f 25/25/25 30/30/30 22/22/22
f 25/25/25 22/22/22 21/21/21
f 31/31/31 32/32/32 22/22/22
f 31/31/31 22/22/22 30/30/30
f 31/31/31 30/30/30 29/29/29
f 31/31/31 29/29/29 33/33/33
f 31/31/31 33/33/33 5/5/5
f 31/31/31 5/5/5 4/4/4
f 31/31/31 4/4/4 3/3/3
f 31/31/31 3/3/3 32/32/32
f 34/34/34 35/35/35 24/24/24
f 34/34/34 24/24/24 23/23/23
f 34/34/34 23/23/23 22/22/22
f 34/34/34 22/22/22 32/32/32
f 34/34/34 32/32/32 3/3/3
f 34/34/34 3/3/3 13/13/13
f 34/34/34 13/13/13 12/12/12
f 34/34/34 12/12/12 35/35/35
f 36/36/36 37/37/37 38/38/38
f 36/36/36 38/38/38 39/39/39
f 36/36/36 39/39/39 40/40/40
f 36/36/36 40/40/40 41/41/41
f 36/36/36 41/41/41 20/20/20
f 36/36/36 20/20/20 19/19/19
f 36/36/36 19/19/19 18/18/18
f 36/36/36 18/18/18 37/37/37
f 42/42/42 41/41/41 40/40/40
f 42/42/42 40/40/40 43/43/43
f 42/42/42 43/43/43 44/44/44
f 42/42/42 44/44/44 45/45/45
f 42/42/42 45/45/45 27/27/27
f 42/42/42 27/27/27 26/26/26
f 42/42/42 26/26/26 20/20/20
f 42/42/42 20/20/20 41/41/41
f 46/46/46 47/47/47 48/48/48
f 46/46/46 48/48/48 49/49/49
f 46/46/46 49/49/49 50/50/50
f 46/46/46 50/50/50 51/51/51
f 46/46/46 51/51/51 52/52/52
f 46/46/46 52/52/52 53/53/53
f 46/46/46 53/53/53 54/54/54
f 46/46/46 54/54/54 47/47/47
f 55/55/55 56/56/56 57/57/57
f 55/55/55 57/57/57 58/58/58
f 55/55/55 58/58/58 48/48/48
f 55/55/55 48/48/48 47/47/47
f 55/55/55 47/47/47 54/54/54
f 55/55/55 54/54/54 59/59/59
f 55/55/55 59/59/59 60/60/60
f 55/55/55 60/60/60 56/56/56
f 61/61/61 62/62/62 63/63/63
f 61/61/61 63/63/63 64/64/64
f 61/61/61 64/64/64 65/65/65
f 61/61/61 65/65/65 66/66/66
f 61/61/61 66/66/66 67/67/67
f 61/61/61 67/67/67 68/68/68
f 61/61/61 68/68/68 69/69/69
f 61/61/61 69/69/69 62/62/62
f 70/70/70 66/66/66 65/65/65
f 70/70/70 65/65/65 71/71/71
f 70/70/70 71/71/71 72/72/72
f 70/70/70 72/72/72 73/73/73
f 70/70/70 73/73/73 74/74/74
f 70/70/70 74/74/74 75/75/75
f 70/70/70 75/75/75 67/67/67
f 70/70/70 67/67/67 66/66/66
f 76/76/76 77/77/77 54/54/54
f 76/76/76 54/54/54 53/53/53
f 76/76/76 53/53/53 52/52/52
f 76/76/76 52/52/52 78/78/78
f 76/76/76 78/78/78 72/72/72
f 76/76/76 72/72/72 71/71/71
f 76/76/76 71/71/71 65/65/65
f 76/76/76 65/65/65 77/77/77
f 79/79/79 80/80/80 60/60/60
f 79/79/79 60/60/60 59/59/59
f 79/79/79 59/59/59 54/54/54
f 79/79/79 54/54/54 77/77/77
f 79/79/79 77/77/77 65/65/65
f 79/79/79 65/65/65 64/64/64
f 79/79/79 64/64/64 63/63/63
f 79/79/79 63/63/63 80/80/80
f 81/81/81 82/82/82 69/69/69
f 81/81/81 69/69/69 68/68/68
f 81/81/81 68/68/68 67/67/67
f 81/81/81 67/67/67 83/83/83
f 81/81/81 83/83/83 84/84/84
f 81/81/81 84/84/84 85/85/85
f 81/81/81 85/85/85 86/86/86
f 81/81/81 86/86/86 82/82/82
f 87/87/87 83/83/83 67/67/67
f 87/87/87 67/67/67 75/75/75
f 87/87/87 75/75/75 74/74/74
f 87/87/87 74/74/74 88/88/88
f 87/87/87 88/88/88 89/89/89
f 87/87/87 89/89/89 90/90/90
f 87/87/87 90/90/90 84/84/84
f 87/87/87 84/84/84 83/83/83
f 91/91/91 92/92/92 38/38/38
f 91/91/91 38/38/38 37/37/37
f 91/91/91 37/37/37 18/18/18
f 91/91/91 18/18/18 93/93/93
f 91/91/91 93/93/93 69/69/69
f 91/91/91 69/69/69 82/82/82
f 91/91/91 82/82/82 94/94/94
f 91/91/91 94/94/94 92/92/92
f 95/95/95 96/96/96 44/44/44
f 95/95/95 44/44/44 43/43/43
f 95/95/95 43/43/43 40/40/40
f 95/95/95 40/40/40 97/97/97
f 95/95/95 97/97/97 84/84/84
f 95/95/95 84/84/84 90/90/90
f 95/95/95 90/90/90 98/98/98
f 95/95/95 98/98/98 96/96/96
f 99/99/99 100/100/100 7/7/7
f 99/99/99 7/7/7 6/6/6
f 99/99/99 6/6/6 5/5/5
f 99/99/99 5/5/5 101/101/101
f 99/99/99 101/101/101 52/52/52
f 99/99/99 52/52/52 51/51/51
f 99/99/99 51/51/51 102/102/102
f 99/99/99 102/102/102 100/100/100
f 103/103/103 104/104/104 15/15/15
f 103/103/103 15/15/15 14/14/14
f 103/103/103 14/14/14 9/9/9
f 103/103/103 9/9/9 105/105/105
f 103/103/103 105/105/105 48/48/48
f 103/103/103 48/48/48 58/58/58
f 103/103/103 58/58/58 106/106/106
f 103/103/103 106/106/106 104/104/104
f 107/107/107 108/108/108 12/12/12
f 107/107/107 12/12/12 11/11/11
f 107/107/107 11/11/11 15/15/15
f 107/107/107 15/15/15 104/104/104
f 107/107/107 104/104/104 106/106/106
f 107/107/107 106/106/106 56/56/56
f 107/107/107 56/56/56 60/60/60
f 107/107/107 60/60/60 108/108/108
f 109/109/109 97/97/97 40/40/40
f 109/109/109 40/40/40 39/39/39
f 109/109/109 39/39/39 38/38/38
f 109/109/109 38/38/38 92/92/92
f 109/109/109 92/92/92 94/94/94
f 109/109/109 94/94/94 85/85/85
f 109/109/109 85/85/85 84/84/84
f 109/109/109 84/84/84 97/97/97
f 110/110/110 111/111/111 27/27/27
f 110/110/110 27/27/27 45/45/45
f 110/110/110 45/45/45 44/44/44
f 110/110/110 44/44/44 96/96/96
f 110/110/110 96/96/96 98/98/98
f 110/110/110 98/98/98 88/88/88
f 110/110/110 88/88/88 74/74/74
f 110/110/110 74/74/74 111/111/111
f 112/112/112 105/105/105 9/9/9
f 112/112/112 9/9/9 8/8/8
f 112/112/112 8/8/8 7/7/7
f 112/112/112 7/7/7 100/100/100
f 112/112/112 100/100/100 102/102/102
f 112/112/112 102/102/102 49/49/49
f 112/112/112 49/49/49 48/48/48
f 112/112/112 48/48/48 105/105/105
f 113/113/113 101/101/101 5/5/5
f 113/113/113 5/5/5 33/33/33
f 113/113/113 33/33/33 29/29/29
f 113/113/113 29/29/29 114/114/114
f 113/113/113 114/114/114 72/72/72
f 113/113/113 72/72/72 78/78/78
f 113/113/113 78/78/78 52/52/52
f 113/113/113 52/52/52 101/101/101
f 115/115/115 116/116/116 24/24/24
f 115/115/115 24/24/24 35/35/35
f 115/115/115 35/35/35 12/12/12
f 115/115/115 12/12/12 108/108/108
f 115/115/115 108/108/108 60/60/60
f 115/115/115 60/60/60 80/80/80
f 115/115/115 80/80/80 63/63/63
f 115/115/115 63/63/63 116/116/116
f 117/117/117 93/93/93 18/18/18
f 117/117/117 18/18/18 17/17/17
f 117/117/117 17/17/17 24/24/24
f 117/117/117 24/24/24 116/116/116
f 117/117/117 116/116/116 63/63/63
f 117/117/117 63/63/63 62/62/62
f 117/117/117 62/62/62 69/69/69
f 117/117/117 69/69/69 93/93/93
f 118/118/118 114/114/114 29/29/29
f 118/118/118 29/29/29 28/28/28
f 118/118/118 28/28/28 27/27/27
f 118/118/118 27/27/27 111/111/111
f 118/118/118 111/111/111 74/74/74
f 118/118/118 74/74/74 73/73/73
f 118/118/118 73/73/73 72/72/72
f 118/118/118 72/72/72 114/114/114
