v -2.376594 0.739978 -1.066688
v -2.378782 0.740142 -1.066191
v -2.378059 0.737533 -1.06491
v -2.375675 0.737604 -1.065667
v -2.373767 0.737641 -1.066008
v -2.374778 0.739669 -1.066739
v -2.37586 0.740806 -1.06721
v -2.377363 0.741599 -1.06747
v -2.37935 0.742003 -1.067211
v -2.380494 0.739843 -1.064762
v -2.381618 0.739431 -1.063361
v -2.381537 0.737371 -1.06217
v -2.380108 0.73745 -1.063477
v -2.380738 0.741482 -1.065802
v -2.381399 0.740614 -1.064474
v -2.378447 0.728602 -1.060848
v -2.379975 0.728581 -1.059825
v -2.379202 0.725454 -1.059589
v -2.377857 0.725473 -1.060507
v -2.376011 0.725514 -1.061608
v -2.376354 0.728649 -1.062082
v -2.376789 0.731723 -1.062747
v -2.378969 0.731681 -1.061438
v -2.380553 0.731669 -1.060338
v -2.374103 0.728753 -1.062993
v -2.374016 0.725606 -1.062404
v -2.372471 0.725688 -1.062914
v -2.372365 0.728845 -1.063585
v -2.372593 0.731946 -1.06427
v -2.374426 0.731839 -1.063682
v -2.374951 0.73484 -1.064619
v -2.377376 0.734705 -1.063726
v -2.373049 0.734972 -1.065131
v -2.379561 0.73468 -1.062342
v -2.381128 0.734691 -1.061141
v -2.377063 0.722323 -1.060349
v -2.378045 0.722316 -1.059616
v -2.377176 0.720561 -1.05986
v -2.376406 0.719948 -1.060324
v -2.375497 0.719958 -1.060958
v -2.375703 0.722349 -1.061207
v -2.374196 0.722423 -1.061765
v -2.374442 0.720016 -1.061294
v -2.373642 0.720684 -1.061606
v -2.373019 0.72249 -1.062099
v -2.376654 0.739873 -1.06689
v -2.378872 0.740035 -1.06638
v -2.379417 0.74192 -1.067351
v -2.377405 0.741518 -1.06762
v -2.375885 0.740747 -1.067324
v -2.374807 0.739592 -1.066896
v -2.373802 0.737569 -1.066166
v -2.375741 0.737507 -1.065871
v -2.378151 0.737434 -1.065103
v -2.380612 0.739736 -1.064935
v -2.381721 0.739352 -1.063481
v -2.381471 0.740553 -1.064564
v -2.380828 0.741399 -1.065929
v -2.380225 0.737351 -1.063656
v -2.381638 0.737297 -1.062296
v -2.378565 0.728544 -1.061044
v -2.380073 0.728538 -1.059967
v -2.380651 0.731616 -1.060476
v -2.379087 0.731611 -1.06163
v -2.376887 0.731652 -1.06295
v -2.376453 0.728592 -1.062288
v -2.376112 0.725466 -1.061817
v -2.377976 0.725424 -1.060705
v -2.379301 0.725418 -1.059732
v -2.374184 0.728696 -1.063208
v -2.374504 0.73177 -1.063894
v -2.37264 0.731894 -1.064433
v -2.372415 0.728804 -1.06375
v -2.372523 0.725653 -1.063081
v -2.374098 0.725559 -1.062621
v -2.375023 0.734756 -1.064827
v -2.377471 0.73462 -1.063924
v -2.373091 0.73491 -1.065292
v -2.379678 0.734594 -1.062527
v -2.381227 0.734628 -1.061273
v -2.377184 0.722278 -1.060547
v -2.378146 0.722282 -1.059759
v -2.375804 0.722304 -1.061416
v -2.375573 0.719925 -1.061115
v -2.376498 0.719914 -1.060472
v -2.377248 0.720536 -1.059968
v -2.374277 0.722379 -1.061983
v -2.373069 0.722458 -1.062266
v -2.373682 0.72066 -1.061729
v -2.374502 0.719984 -1.061458
v -2.37842 0.722299 -1.059434
v -2.377122 0.71994 -1.059787
v -2.379697 0.725432 -1.059346
v -2.377248 0.720536 -1.059968
v -2.37455 0.7192 -1.06121
v -2.373581 0.720063 -1.061536
v -2.375462 0.719147 -1.060945
v -2.373682 0.72066 -1.061729
v -2.374182 0.739532 -1.066827
v -2.375647 0.740949 -1.067341
v -2.373144 0.737622 -1.066193
v -2.375885 0.740747 -1.067324
v -2.38086 0.741991 -1.066205
v -2.38164 0.740741 -1.06438
v -2.379569 0.742586 -1.067613
v -2.381471 0.740553 -1.064564
v -2.382041 0.739259 -1.062945
v -2.382061 0.737312 -1.061788
v -2.376228 0.719141 -1.060381
v -2.372646 0.722499 -1.062286
v -2.371977 0.7257 -1.063159
v -2.377637 0.742103 -1.067797
v -2.372432 0.734988 -1.065374
v -2.372 0.731958 -1.06454
v -2.381697 0.734667 -1.060798
v -2.381127 0.731642 -1.060032
v -2.38053 0.728555 -1.059546
v -2.371805 0.728858 -1.063856
vn 0.1702 0.4689 0.8666
vn 0.3679 0.5058 0.7803
vn 0.3821 0.4532 0.8053
vn 0.2063 0.4187 0.8843
vn 0.2208 0.3971 0.8908
vn 0.178 0.4698 0.8646
vn 0.1477 0.5192 0.8418
vn 0.1848 0.5528 0.8125
vn 0.343 0.5841 0.7356
vn 0.5583 0.4824 0.6749
vn 0.552 0.4827 0.68
vn 0.5509 0.4086 0.7277
vn 0.5532 0.4308 0.713
vn 0.5017 0.5638 0.656
vn 0.5494 0.533 0.6435
vn 0.5214 0.217 0.8252
vn 0.4907 0.2083 0.846
vn 0.4918 0.1766 0.8526
vn 0.5319 0.1845 0.8264
vn 0.4314 0.1722 0.8856
vn 0.4266 0.214 0.8787
vn 0.4146 0.2967 0.8602
vn 0.522 0.2908 0.8018
vn 0.5015 0.2741 0.8205
vn 0.3266 0.2102 0.9215
vn 0.3229 0.1772 0.9297
vn 0.3685 0.1724 0.9135
vn 0.3621 0.2039 0.9095
vn 0.3316 0.2682 0.9045
vn 0.3035 0.2832 0.9098
vn 0.2584 0.3615 0.8958
vn 0.3978 0.3855 0.8325
vn 0.2792 0.3382 0.8987
vn 0.534 0.371 0.7597
vn 0.5248 0.3467 0.7774
vn 0.5548 0.1707 0.8142
vn 0.513 0.1579 0.8437
vn 0.5416 0.1416 0.8286
vn 0.5779 0.1146 0.808
vn 0.4382 0.0963 0.8937
vn 0.4334 0.1524 0.8882
vn 0.3001 0.1618 0.9401
vn 0.2844 0.1044 0.953
vn 0.3211 0.134 0.9375
vn 0.3496 0.1523 0.9244
vn -0.149 -0.4442 -0.8834
vn -0.3719 -0.4915 -0.7875
vn -0.3865 -0.4352 -0.8131
vn -0.0826 -0.3696 -0.9255
vn 0.0266 -0.3199 -0.9471
vn 0.0048 -0.3347 -0.9423
vn -0.0645 -0.3477 -0.9354
vn -0.1921 -0.4154 -0.8891
vn -0.382 -0.4534 -0.8053
vn -0.5858 -0.4594 -0.6676
vn -0.7319 -0.3602 -0.5784
vn -0.7497 -0.3468 -0.5636
vn -0.6636 -0.3898 -0.6385
vn -0.5658 -0.4284 -0.7045
vn -0.6836 -0.3692 -0.6295
vn -0.5349 -0.2183 -0.8162
vn -0.6243 -0.227 -0.7475
vn -0.6257 -0.2781 -0.7288
vn -0.5345 -0.2911 -0.7934
vn -0.4146 -0.2966 -0.8603
vn -0.4266 -0.2138 -0.8787
vn -0.4314 -0.1721 -0.8856
vn -0.5473 -0.1881 -0.8155
vn -0.6436 -0.2243 -0.7317
vn -0.3112 -0.2105 -0.9267
vn -0.2892 -0.2825 -0.9146
vn -0.1834 -0.2627 -0.9473
vn -0.2019 -0.2123 -0.9561
vn -0.1779 -0.2081 -0.9618
vn -0.3048 -0.1796 -0.9353
vn -0.2446 -0.36 -0.9003
vn -0.3978 -0.3855 -0.8325
vn -0.1325 -0.3193 -0.9383
vn -0.5459 -0.3704 -0.7514
vn -0.6463 -0.3371 -0.6846
vn -0.5738 -0.1904 -0.7965
vn -0.679 -0.2568 -0.6877
vn -0.4322 -0.1644 -0.8866
vn -0.4262 -0.217 -0.8782
vn -0.6223 -0.2594 -0.7385
vn -0.6977 -0.2815 -0.6588
vn -0.2735 -0.18 -0.9449
vn -0.1196 -0.2373 -0.964
vn -0.0839 -0.2601 -0.9619
vn -0.1943 -0.2444 -0.95
vn -0.6861 -0.3575 0.6335
vn -0.4276 -0.6777 0.5981
vn -0.7649 -0.2256 0.6034
vn -0.6977 -0.2815 -0.6588
vn 0.3276 -0.9428 0.0619
vn 0.7717 -0.6359 0.0057
vn 0.0495 -0.9983 0.0293
vn -0.0839 -0.2601 -0.9619
vn 0.8473 0.461 -0.2636
vn 0.6354 0.6926 -0.3414
vn 0.9328 0.2696 -0.239
vn 0.0266 -0.3199 -0.9471
vn -0.6243 0.7751 -0.0977
vn -0.6948 0.6461 0.3159
vn -0.2732 0.8249 -0.4948
vn -0.7497 -0.3468 -0.5636
vn -0.7483 0.406 0.5246
vn -0.7701 0.2111 0.602
vn -0.0964 -0.9576 0.2714
vn 0.9386 -0.3007 -0.169
vn 0.9549 -0.1657 -0.2462
vn 0.2573 0.8059 -0.5332
vn 0.9621 0.1248 -0.2425
vn 0.9655 0.039 -0.2572
vn -0.7827 0.0644 0.619
vn -0.7915 -0.0223 0.6107
vn -0.7947 -0.1071 0.5975
vn 0.9617 -0.0461 -0.2701
vt 0.839504 0.118056
vt 0.856743 0.205307
vt 0.741230 0.205307
vt 0.734555 0.106726
vt 0.724541 0.032791
vt 0.813647 0.052618
vt 0.868992 0.081539
vt 0.913398 0.129584
vt 0.940923 0.205307
vt 0.839504 0.292557
vt 0.813647 0.357995
vt 0.724541 0.377822
vt 0.734555 0.303887
vt 0.913398 0.281029
vt 0.868992 0.329074
vt 0.369475 0.299954
vt 0.368286 0.370940
vt 0.245840 0.351447
vt 0.246397 0.288815
vt 0.246768 0.205307
vt 0.370268 0.205307
vt 0.494283 0.205307
vt 0.492822 0.304944
vt 0.490632 0.379672
vt 0.369475 0.110659
vt 0.246397 0.121798
vt 0.245841 0.059166
vt 0.368286 0.039673
vt 0.490632 0.030941
vt 0.492822 0.105669
vt 0.616755 0.103478
vt 0.619174 0.205307
vt 0.613127 0.027106
vt 0.616755 0.307135
vt 0.613126 0.383507
vt 0.123273 0.268175
vt 0.123047 0.315326
vt 0.054743 0.283353
vt 0.030912 0.249131
vt 0.030973 0.205306
vt 0.123423 0.205306
vt 0.123273 0.142438
vt 0.030912 0.161481
vt 0.054744 0.127260
vt 0.123047 0.095287
vt 0.839504 0.118056
vt 0.856743 0.205307
vt 0.968983 0.205307
vt 0.938030 0.133427
vt 0.876123 0.061548
vt 0.805028 0.030806
vt 0.721203 0.008146
vt 0.734555 0.106726
vt 0.741230 0.205307
vt 0.839504 0.292557
vt 0.805028 0.379807
vt 0.876123 0.349065
vt 0.938030 0.277186
vt 0.734555 0.303887
vt 0.721203 0.402467
vt 0.369475 0.299954
vt 0.367890 0.394602
vt 0.489902 0.404581
vt 0.492822 0.304944
vt 0.494283 0.205307
vt 0.370268 0.205307
vt 0.246768 0.205307
vt 0.246397 0.288815
vt 0.245655 0.372324
vt 0.369475 0.110659
vt 0.492822 0.105669
vt 0.489902 0.006032
vt 0.367890 0.016011
vt 0.245655 0.038289
vt 0.246397 0.121798
vt 0.616755 0.103478
vt 0.619174 0.205307
vt 0.611917 0.001649
vt 0.616755 0.307135
vt 0.611917 0.408964
vt 0.123273 0.268175
vt 0.122972 0.331043
vt 0.123423 0.205306
vt 0.000156 0.205306
vt 0.000125 0.242784
vt 0.000064 0.280261
vt 0.123273 0.142438
vt 0.122972 0.079570
vt 0.000064 0.130352
vt 0.000125 0.167829
vt 0.122972 0.331043
vt 0.030806 0.283587
vt 0.245655 0.372324
vt 0.030806 0.283587
vt 0.000125 0.167829
vt 0.030806 0.127026
vt 0.000156 0.205306
vt 0.030806 0.127026
vt 0.805028 0.030806
vt 0.873826 0.071832
vt 0.721203 0.008146
vt 0.873826 0.071832
vt 0.938030 0.277186
vt 0.873826 0.338781
vt 0.968983 0.205307
vt 0.873826 0.338781
vt 0.805028 0.379807
vt 0.721203 0.402467
vt 0.000125 0.242784
vt 0.122972 0.079570
vt 0.245655 0.038289
vt 0.938030 0.133427
vt 0.611917 0.001649
vt 0.489902 0.006032
vt 0.611917 0.408964
vt 0.489902 0.404581
vt 0.367890 0.394602
vt 0.367890 0.016011
f 1/1/1 2/2/2 3/3/3
f 1/1/1 3/3/3 4/4/4
f 1/1/1 4/4/4 5/5/5
f 1/1/1 5/5/5 6/6/6
f 1/1/1 6/6/6 7/7/7
f 1/1/1 7/7/7 8/8/8
f 1/1/1 8/8/8 9/9/9
f 1/1/1 9/9/9 2/2/2
f 10/10/10 11/11/11 12/12/12
f 10/10/10 12/12/12 13/13/13
f 10/10/10 13/13/13 3/3/3
f 10/10/10 3/3/3 2/2/2
f 10/10/10 2/2/2 9/9/9
f 10/10/10 9/9/9 14/14/14
f 10/10/10 14/14/14 15/15/15
f 10/10/10 15/15/15 11/11/11
f 16/16/16 17/17/17 18/18/18
f 16/16/16 18/18/18 19/19/19
f 16/16/16 19/19/19 20/20/20
f 16/16/16 20/20/20 21/21/21
f 16/16/16 21/21/21 22/22/22
f 16/16/16 22/22/22 23/23/23
f 16/16/16 23/23/23 24/24/24
f 16/16/16 24/24/24 17/17/17
f 25/25/25 21/21/21 20/20/20
f 25/25/25 20/20/20 26/26/26
f 25/25/25 26/26/26 27/27/27
f 25/25/25 27/27/27 28/28/28
f 25/25/25 28/28/28 29/29/29
f 25/25/25 29/29/29 30/30/30
f 25/25/25 30/30/30 22/22/22
f 25/25/25 22/22/22 21/21/21
f 31/31/31 32/32/32 22/22/22
f 31/31/31 22/22/22 30/30/30
f 31/31/31 30/30/30 29/29/29
f 31/31/31 29/29/29 33/33/33
f 31/31/31 33/33/33 5/5/5
f 31/31/31 5/5/5 4/4/4
f 31/31/31 4/4/4 3/3/3
f 31/31/31 3/3/3 32/32/32
f 34/34/34 35/35/35 24/24/24
f 34/34/34 24/24/24 23/23/23
f 34/34/34 23/23/23 22/22/22
f 34/34/34 22/22/22 32/32/32
f 34/34/34 32/32/32 3/3/3
f 34/34/34 3/3/3 13/13/13
f 34/34/34 13/13/13 12/12/12
f 34/34/34 12/12/12 35/35/35
f 36/36/36 37/37/37 38/38/38
f 36/36/36 38/38/38 39/39/39
f 36/36/36 39/39/39 40/40/40
f 36/36/36 40/40/40 41/41/41
f 36/36/36 41/41/41 20/20/20
f 36/36/36 20/20/20 19/19/19
f 36/36/36 19/19/19 18/18/18
f 36/36/36 18/18/18 37/37/37
f 42/42/42 41/41/41 40/40/40
f 42/42/42 40/40/40 43/43/43
f 42/42/42 43/43/43 44/44/44
f 42/42/42 44/44/44 45/45/45
f 42/42/42 45/45/45 27/27/27
f 42/42/42 27/27/27 26/26/26
f 42/42/42 26/26/26 20/20/20
f 42/42/42 20/20/20 41/41/41
f 46/46/46 47/47/47 48/48/48
f 46/46/46 48/48/48 49/49/49
f 46/46/46 49/49/49 50/50/50
f 46/46/46 50/50/50 51/51/51
f 46/46/46 51/51/51 52/52/52
f 46/46/46 52/52/52 53/53/53
f 46/46/46 53/53/53 54/54/54
f 46/46/46 54/54/54 47/47/47
f 55/55/55 56/56/56 57/57/57
f 55/55/55 57/57/57 58/58/58
f 55/55/55 58/58/58 48/48/48
f 55/55/55 48/48/48 47/47/47
f 55/55/55 47/47/47 54/54/54
f 55/55/55 54/54/54 59/59/59
f 55/55/55 59/59/59 60/60/60
f 55/55/55 60/60/60 56/56/56
f 61/61/61 62/62/62 63/63/63
f 61/61/61 63/63/63 64/64/64
f 61/61/61 64/64/64 65/65/65
f 61/61/61 65/65/65 66/66/66
f 61/61/61 66/66/66 67/67/67
f 61/61/61 67/67/67 68/68/68
f 61/61/61 68/68/68 69/69/69
f 61/61/61 69/69/69 62/62/62
f 70/70/70 66/66/66 65/65/65
f 70/70/70 65/65/65 71/71/71
f 70/70/70 71/71/71 72/72/72
f 70/70/70 72/72/72 73/73/73
f 70/70/70 73/73/73 74/74/74
f 70/70/70 74/74/74 75/75/75
f 70/70/70 75/75/75 67/67/67
f 70/70/70 67/67/67 66/66/66
f 76/76/76 77/77/77 54/54/54
f 76/76/76 54/54/54 53/53/53
f 76/76/76 53/53/53 52/52/52
f 76/76/76 52/52/52 78/78/78
f 76/76/76 78/78/78 72/72/72
f 76/76/76 72/72/72 71/71/71
f 76/76/76 71/71/71 65/65/65
f 76/76/76 65/65/65 77/77/77
f 79/79/79 80/80/80 60/60/60
f 79/79/79 60/60/60 59/59/59
f 79/79/79 59/59/59 54/54/54
f 79/79/79 54/54/54 77/77/77
f 79/79/79 77/77/77 65/65/65
f 79/79/79 65/65/65 64/64/64
f 79/79/79 64/64/64 63/63/63
f 79/79/79 63/63/63 80/80/80
f 81/81/81 82/82/82 69/69/69
f 81/81/81 69/69/69 68/68/68
f 81/81/81 68/68/68 67/67/67
f 81/81/81 67/67/67 83/83/83
f 81/81/81 83/83/83 84/84/84
f 81/81/81 84/84/84 85/85/85
f 81/81/81 85/85/85 86/86/86
f 81/81/81 86/86/86 82/82/82
f 87/87/87 83/83/83 67/67/67
f 87/87/87 67/67/67 75/75/75
f 87/87/87 75/75/75 74/74/74
f 87/87/87 74/74/74 88/88/88
f 87/87/87 88/88/88 89/89/89
f 87/87/87 89/89/89 90/90/90
f 87/87/87 90/90/90 84/84/84
f 87/87/87 84/84/84 83/83/83
f 91/91/91 92/92/92 38/38/38
f 91/91/91 38/38/38 37/37/37
f 91/91/91 37/37/37 18/18/18
f 91/91/91 18/18/18 93/93/93
f 91/91/91 93/93/93 69/69/69
f 91/91/91 69/69/69 82/82/82
f 91/91/91 82/82/82 94/94/94
f 91/91/91 94/94/94 92/92/92
f 95/95/95 96/96/96 44/44/44
f 95/95/95 44/44/44 43/43/43
f 95/95/95 43/43/43 40/40/40
f 95/95/95 40/40/40 97/97/97
f 95/95/95 97/97/97 84/84/84
f 95/95/95 84/84/84 90/90/90
f 95/95/95 90/90/90 98/98/98
f 95/95/95 98/98/98 96/96/96
f 99/99/99 100/100/100 7/7/7
f 99/99/99 7/7/7 6/6/6
f 99/99/99 6/6/6 5/5/5
f 99/99/99 5/5/5 101/101/101
f 99/99/99 101/101/101 52/52/52
f 99/99/99 52/52/52 51/51/51
f 99/99/99 51/51/51 102/102/102
f 99/99/99 102/102/102 100/100/100
f 103/103/103 104/104/104 15/15/15
f 103/103/103 15/15/15 14/14/14
f 103/103/103 14/14/14 9/9/9
f 103/103/103 9/9/9 105/105/105
f 103/103/103 105/105/105 48/48/48
f 103/103/103 48/48/48 58/58/58
f 103/103/103 58/58/58 106/106/106
f 103/103/103 106/106/106 104/104/104
f 107/107/107 108/108/108 12/12/12
f 107/107/107 12/12/12 11/11/11
f 107/107/107 11/11/11 15/15/15
f 107/107/107 15/15/15 104/104/104
f 107/107/107 104/104/104 106/106/106
f 107/107/107 106/106/106 56/56/56
f 107/107/107 56/56/56 60/60/60
f 107/107/107 60/60/60 108/108/108
f 109/109/109 97/97/97 40/40/40
f 109/109/109 40/40/40 39/39/39
f 109/109/109 39/39/39 38/38/38
f 109/109/109 38/38/38 92/92/92
f 109/109/109 92/92/92 94/94/94
f 109/109/109 94/94/94 85/85/85
f 109/109/109 85/85/85 84/84/84
f 109/109/109 84/84/84 97/97/97
f 110/110/110 111/111/111 27/27/27
f 110/110/110 27/27/27 45/45/45
f 110/110/110 45/45/45 44/44/44
f 110/110/110 44/44/44 96/96/96
f 110/110/110 96/96/96 98/98/98
f 110/110/110 98/98/98 88/88/88
f 110/110/110 88/88/88 74/74/74
f 110/110/110 74/74/74 111/111/111
f 112/112/112 105/105/105 9/9/9
f 112/112/112 9/9/9 8/8/8
f 112/112/112 8/8/8 7/7/7
f 112/112/112 7/7/7 100/100/100
f 112/112/112 100/100/100 102/102/102
f 112/112/112 102/102/102 49/49/49
f 112/112/112 49/49/49 48/48/48
f 112/112/112 48/48/48 105/105/105
f 113/113/113 101/101/101 5/5/5
f 113/113/113 5/5/5 33/33/33
f 113/113/113 33/33/33 29/29/29
f 113/113/113 29/29/29 114/114/114
f 113/113/113 114/114/114 72/72/72
f 113/113/113 72/72/72 78/78/78
f 113/113/113 78/78/78 52/52/52
f 113/113/113 52/52/52 101/101/101
f 115/115/115 116/116/116 24/24/24
f 115/115/115 24/24/24 35/35/35
f 115/115/115 35/35/35 12/12/12
f 115/115/115 12/12/12 108/108/108
f 115/115/115 108/108/108 60/60/60
f 115/115/115 60/60/60 80/80/80
f 115/115/115 80/80/80 63/63/63
f 115/115/115 63/63/63 116/116/116
f 117/117/117 93/93/93 18/18/18
f 117/117/117 18/18/18 17/17/17
f 117/117/117 17/17/17 24/24/24
f 117/117/117 24/24/24 116/116/116
f 117/117/117 116/116/116 63/63/63
f 117/117/117 63/63/63 62/62/62
f 117/117/117 62/62/62 69/69/69
f 117/117/117 69/69/69 93/93/93
f 118/118/118 114/114/114 29/29/29
f 118/118/118 29/29/29 28/28/28
f 118/118/118 28/28/28 27/27/27
f 118/118/118 27/27/27 111/111/111
f 118/118/118 111/111/111 74/74/74
f 118/118/118 74/74/74 73/73/73
f 118/118/118 73/73/73 72/72/72
f 118/118/118 72/72/72 114/114/114
