v -2.389116 0.703258 -1.201208
v -2.388941 0.703697 -1.199817
v -2.387406 0.702508 -1.200056
v -2.387795 0.70211 -1.201592
v -2.387947 0.701858 -1.202824
v -2.389 0.702901 -1.202352
v -2.389641 0.703514 -1.201753
v -2.390071 0.70403 -1.200853
v -2.390099 0.704519 -1.199611
v -2.388072 0.704102 -1.198702
v -2.387169 0.70438 -1.197957
v -2.385867 0.703538 -1.197832
v -2.386609 0.703068 -1.198744
v -2.389167 0.70476 -1.198684
v -2.388158 0.704713 -1.198194
v -2.382426 0.698601 -1.19902
v -2.38187 0.699029 -1.198045
v -2.38079 0.697229 -1.198252
v -2.381289 0.696847 -1.199111
v -2.381888 0.696378 -1.200292
v -2.383095 0.698074 -1.200359
v -2.3844 0.699687 -1.200359
v -2.38369 0.700247 -1.198964
v -2.383094 0.700708 -1.197955
v -2.383589 0.697661 -1.20181
v -2.382318 0.696016 -1.201578
v -2.382593 0.695773 -1.202577
v -2.383908 0.697383 -1.202935
v -2.385226 0.698986 -1.20307
v -2.384907 0.699264 -1.201883
v -2.386351 0.700762 -1.201814
v -2.385864 0.701168 -1.200247
v -2.386631 0.700515 -1.203048
v -2.385116 0.70176 -1.198852
v -2.384467 0.702262 -1.197857
v -2.380248 0.695009 -1.199329
v -2.379849 0.69531 -1.198703
v -2.379449 0.694149 -1.199096
v -2.379515 0.693589 -1.199529
v -2.37986 0.693326 -1.200109
v -2.380714 0.694647 -1.200198
v -2.381015 0.694389 -1.20117
v -2.380041 0.693165 -1.200791
v -2.380395 0.693384 -1.201367
v -2.381195 0.694223 -1.201933
v -2.389205 0.703143 -1.201157
v -2.389022 0.703588 -1.199746
v -2.390158 0.704436 -1.199558
v -2.390136 0.703943 -1.200816
v -2.389691 0.703449 -1.20173
v -2.38907 0.702813 -1.202323
v -2.38802 0.701773 -1.202792
v -2.387888 0.701999 -1.201538
v -2.387491 0.702402 -1.199984
v -2.388144 0.704 -1.198613
v -2.387218 0.704308 -1.197882
v -2.388195 0.704657 -1.198141
v -2.389219 0.704683 -1.198617
v -2.386687 0.702969 -1.198656
v -2.385921 0.703468 -1.197758
v -2.382527 0.698521 -1.198935
v -2.381943 0.698971 -1.197976
v -2.383162 0.700645 -1.197885
v -2.383785 0.70016 -1.198879
v -2.3845 0.699595 -1.200286
v -2.383202 0.69799 -1.200287
v -2.381998 0.696298 -1.200219
v -2.381394 0.696771 -1.199026
v -2.380866 0.697175 -1.198183
v -2.3837 0.697573 -1.20175
v -2.385012 0.699169 -1.201824
v -2.385307 0.698913 -1.203032
v -2.383993 0.697315 -1.202895
v -2.382681 0.695708 -1.202538
v -2.382433 0.695932 -1.201518
v -2.386449 0.700659 -1.201757
v -2.385957 0.701069 -1.200175
v -2.386707 0.700436 -1.203013
v -2.385203 0.701666 -1.198766
v -2.384529 0.702196 -1.197786
v -2.380354 0.694935 -1.199243
v -2.379925 0.695257 -1.198633
v -2.380826 0.694569 -1.200125
v -2.379944 0.693267 -1.200054
v -2.379594 0.693535 -1.199465
v -2.379506 0.694109 -1.199046
v -2.381132 0.694306 -1.201111
v -2.381284 0.694159 -1.201895
v -2.380461 0.693338 -1.201337
v -2.380129 0.693103 -1.200747
v -2.379749 0.695387 -1.198462
v -2.379222 0.693808 -1.199073
v -2.380657 0.697333 -1.197934
v -2.379506 0.694109 -1.199046
v -2.379755 0.692729 -1.200646
v -2.38017 0.693042 -1.201348
v -2.379613 0.692859 -1.200055
v -2.380461 0.693338 -1.201337
v -2.388993 0.702742 -1.202722
v -2.389753 0.703539 -1.201902
v -2.388031 0.701736 -1.203222
v -2.389691 0.703449 -1.20173
v -2.389555 0.704945 -1.198648
v -2.388148 0.704835 -1.198052
v -2.390511 0.704756 -1.199519
v -2.388195 0.704657 -1.198141
v -2.386889 0.704442 -1.197673
v -2.385643 0.703664 -1.197493
v -2.379306 0.693092 -1.199567
v -2.381294 0.694139 -1.202172
v -2.382724 0.695663 -1.202894
v -2.390418 0.704248 -1.200719
v -2.386758 0.700397 -1.203446
v -2.385368 0.69886 -1.20345
v -2.384278 0.702401 -1.197493
v -2.382925 0.700834 -1.197586
v -2.381717 0.699147 -1.197688
v -2.384053 0.697259 -1.203293
vn 0.5697 0.7813 -0.2548
vn 0.4853 0.7473 -0.4538
vn 0.5319 0.7104 -0.4608
vn 0.6098 0.74 -0.2837
vn 0.6261 0.7219 -0.2948
vn 0.5681 0.78 -0.2625
vn 0.5242 0.8173 -0.2393
vn 0.4846 0.8286 -0.2803
vn 0.4091 0.7995 -0.4397
vn 0.4107 0.6527 -0.6366
vn 0.4147 0.6562 -0.6304
vn 0.4906 0.6126 -0.6196
vn 0.4675 0.6252 -0.6249
vn 0.3545 0.7237 -0.5921
vn 0.3594 0.6843 -0.6344
vn 0.6624 0.4919 -0.565
vn 0.6835 0.4979 -0.5337
vn 0.7038 0.4728 -0.5302
vn 0.6786 0.4623 -0.5707
vn 0.7322 0.4921 -0.4708
vn 0.7071 0.5266 -0.4719
vn 0.6528 0.5928 -0.4716
vn 0.6083 0.5463 -0.5758
vn 0.6316 0.5428 -0.5535
vn 0.7423 0.5564 -0.3733
vn 0.7642 0.5315 -0.3652
vn 0.7542 0.5136 -0.4091
vn 0.7362 0.5405 -0.4073
vn 0.7013 0.5991 -0.3863
vn 0.698 0.6186 -0.3608
vn 0.6482 0.6875 -0.3272
vn 0.5874 0.6608 -0.4673
vn 0.6622 0.6654 -0.3445
vn 0.5353 0.5963 -0.5982
vn 0.5615 0.5841 -0.5861
vn 0.675 0.4414 -0.5911
vn 0.7053 0.4493 -0.5484
vn 0.7004 0.4241 -0.574
vn 0.6957 0.3862 -0.6057
vn 0.774 0.4279 -0.4666
vn 0.7436 0.4756 -0.47
vn 0.7794 0.5258 -0.3406
vn 0.8162 0.4829 -0.3171
vn 0.7907 0.497 -0.3574
vn 0.7721 0.5034 -0.3877
vn -0.5948 -0.77 0.2307
vn -0.4983 -0.7374 0.4559
vn -0.5472 -0.6973 0.4628
vn -0.663 -0.7324 0.155
vn -0.6996 -0.7133 0.0403
vn -0.6896 -0.7213 0.0639
vn -0.6807 -0.7202 0.1342
vn -0.6148 -0.7413 0.2692
vn -0.5318 -0.7105 0.4608
vn -0.4158 -0.6254 0.6603
vn -0.3877 -0.4775 0.7884
vn -0.3812 -0.4566 0.8038
vn -0.4247 -0.5401 0.7265
vn -0.4616 -0.6175 0.6369
vn -0.4269 -0.5152 0.7431
vn -0.6544 -0.4871 0.5783
vn -0.5934 -0.4512 0.6665
vn -0.5538 -0.4877 0.6749
vn -0.6013 -0.5409 0.588
vn -0.6529 -0.5926 0.4716
vn -0.7072 -0.5264 0.4719
vn -0.7323 -0.492 0.4708
vn -0.668 -0.4584 0.5862
vn -0.5815 -0.4391 0.6848
vn -0.7461 -0.5611 0.3583
vn -0.7019 -0.6222 0.3467
vn -0.7351 -0.6341 0.2398
vn -0.7665 -0.5911 0.2511
vn -0.7723 -0.5933 0.2268
vn -0.7674 -0.5387 0.3476
vn -0.6522 -0.6902 0.3134
vn -0.5874 -0.6608 0.4672
vn -0.6992 -0.687 0.1975
vn -0.5287 -0.5904 0.6099
vn -0.4887 -0.517 0.7027
vn -0.6512 -0.4483 0.6123
vn -0.5292 -0.4429 0.7237
vn -0.7367 -0.4856 0.4705
vn -0.7053 -0.5289 0.472
vn -0.5707 -0.4761 0.669
vn -0.4931 -0.449 0.7451
vn -0.7742 -0.5477 0.317
vn -0.7585 -0.628 0.1735
vn -0.7448 -0.6521 0.1415
vn -0.7463 -0.6176 0.2481
vn 0.694 0.0661 0.7169
vn 0.8187 -0.2672 0.5082
vn 0.6038 0.18 0.7765
vn -0.4931 -0.449 0.7451
vn 0.4944 -0.8485 -0.1888
vn 0.3264 -0.665 -0.6717
vn 0.4779 -0.8733 0.0949
vn -0.7448 -0.6521 0.1415
vn -0.403 0.1699 -0.8993
vn -0.5864 0.3681 -0.7216
vn -0.2912 0.0005 -0.9566
vn -0.6996 -0.7133 0.0403
vn -0.4652 0.7255 0.5071
vn -0.0412 0.8083 0.5873
vn -0.8254 0.541 0.1611
vn -0.3812 -0.4566 0.8038
vn 0.2509 0.6981 0.6705
vn 0.4066 0.5643 0.7185
vn 0.6685 -0.7078 0.2283
vn 0.028 -0.4718 -0.8813
vn -0.1003 -0.3901 -0.9153
vn -0.8261 0.4334 -0.3601
vn -0.228 -0.1329 -0.9645
vn -0.2022 -0.2156 -0.9553
vn 0.4873 0.4445 0.7516
vn 0.5184 0.3655 0.7731
vn 0.5441 0.2858 0.7888
vn -0.1756 -0.296 -0.9389
vt 0.839504 0.118056
vt 0.856743 0.205307
vt 0.741230 0.205307
vt 0.734555 0.106726
vt 0.724541 0.032791
vt 0.813647 0.052618
vt 0.868992 0.081539
vt 0.913398 0.129584
vt 0.940923 0.205307
vt 0.839504 0.292557
vt 0.813647 0.357995
vt 0.724541 0.377822
vt 0.734555 0.303887
vt 0.913398 0.281029
vt 0.868992 0.329074
vt 0.369475 0.299954
vt 0.368286 0.370940
vt 0.245840 0.351447
vt 0.246397 0.288815
vt 0.246768 0.205307
vt 0.370268 0.205307
vt 0.494283 0.205307
vt 0.492822 0.304944
vt 0.490632 0.379672
vt 0.369475 0.110659
vt 0.246397 0.121798
vt 0.245841 0.059166
vt 0.368286 0.039673
vt 0.490632 0.030941
vt 0.492822 0.105669
vt 0.616755 0.103478
vt 0.619174 0.205307
vt 0.613127 0.027106
vt 0.616755 0.307135
vt 0.613126 0.383507
vt 0.123273 0.268175
vt 0.123047 0.315326
vt 0.054743 0.283353
vt 0.030912 0.249131
vt 0.030973 0.205306
vt 0.123423 0.205306
vt 0.123273 0.142438
vt 0.030912 0.161481
vt 0.054744 0.127260
vt 0.123047 0.095287
vt 0.839504 0.118056
vt 0.856743 0.205307
vt 0.968983 0.205307
vt 0.938030 0.133427
vt 0.876123 0.061548
vt 0.805028 0.030806
vt 0.721203 0.008146
vt 0.734555 0.106726
vt 0.741230 0.205307
vt 0.839504 0.292557
vt 0.805028 0.379807
vt 0.876123 0.349065
vt 0.938030 0.277186
vt 0.734555 0.303887
vt 0.721203 0.402467
vt 0.369475 0.299954
vt 0.367890 0.394602
vt 0.489902 0.404581
vt 0.492822 0.304944
vt 0.494283 0.205307
vt 0.370268 0.205307
vt 0.246768 0.205307
vt 0.246397 0.288815
vt 0.245655 0.372324
vt 0.369475 0.110659
vt 0.492822 0.105669
vt 0.489902 0.006032
vt 0.367890 0.016011
vt 0.245655 0.038289
vt 0.246397 0.121798
vt 0.616755 0.103478
vt 0.619174 0.205307
vt 0.611917 0.001649
vt 0.616755 0.307135
vt 0.611917 0.408964
vt 0.123273 0.268175
vt 0.122972 0.331043
vt 0.123423 0.205306
vt 0.000156 0.205306
vt 0.000125 0.242784
vt 0.000064 0.280261
vt 0.123273 0.142438
vt 0.122972 0.079570
vt 0.000064 0.130352
vt 0.000125 0.167829
vt 0.122972 0.331043
vt 0.030806 0.283587
vt 0.245655 0.372324
vt 0.030806 0.283587
vt 0.000125 0.167829
vt 0.030806 0.127026
vt 0.000156 0.205306
vt 0.030806 0.127026
vt 0.805028 0.030806
vt 0.873826 0.071832
vt 0.721203 0.008146
vt 0.873826 0.071832
vt 0.938030 0.277186
vt 0.873826 0.338781
vt 0.968983 0.205307
vt 0.873826 0.338781
vt 0.805028 0.379807
vt 0.721203 0.402467
vt 0.000125 0.242784
vt 0.122972 0.079570
vt 0.245655 0.038289
vt 0.938030 0.133427
vt 0.611917 0.001649
vt 0.489902 0.006032
vt 0.611917 0.408964
vt 0.489902 0.404581
vt 0.367890 0.394602
vt 0.367890 0.016011
f 1/1/1 2/2/2 3/3/3
f 1/1/1 3/3/3 4/4/4
f 1/1/1 4/4/4 5/5/5
f 1/1/1 5/5/5 6/6/6
f 1/1/1 6/6/6 7/7/7
f 1/1/1 7/7/7 8/8/8
f 1/1/1 8/8/8 9/9/9
f 1/1/1 9/9/9 2/2/2
f 10/10/10 11/11/11 12/12/12
f 10/10/10 12/12/12 13/13/13
f 10/10/10 13/13/13 3/3/3
f 10/10/10 3/3/3 2/2/2
f 10/10/10 2/2/2 9/9/9
f 10/10/10 9/9/9 14/14/14
f 10/10/10 14/14/14 15/15/15
f 10/10/10 15/15/15 11/11/11
f 16/16/16 17/17/17 18/18/18
f 16/16/16 18/18/18 19/19/19
f 16/16/16 19/19/19 20/20/20
f 16/16/16 20/20/20 21/21/21
f 16/16/16 21/21/21 22/22/22
f 16/16/16 22/22/22 23/23/23
f 16/16/16 23/23/23 24/24/24
f 16/16/16 24/24/24 17/17/17
f 25/25/25 21/21/21 20/20/20
f 25/25/25 20/20/20 26/26/26
f 25/25/25 26/26/26 27/27/27
f 25/25/25 27/27/27 28/28/28
f 25/25/25 28/28/28 29/29/29
f 25/25/25 29/29/29 30/30/30
f 25/25/25 30/30/30 22/22/22
f 25/25/25 22/22/22 21/21/21
f 31/31/31 32/32/32 22/22/22
f 31/31/31 22/22/22 30/30/30
f 31/31/31 30/30/30 29/29/29
f 31/31/31 29/29/29 33/33/33
f 31/31/31 33/33/33 5/5/5
f 31/31/31 5/5/5 4/4/4
f 31/31/31 4/4/4 3/3/3
f 31/31/31 3/3/3 32/32/32
f 34/34/34 35/35/35 24/24/24
f 34/34/34 24/24/24 23/23/23
f 34/34/34 23/23/23 22/22/22
f 34/34/34 22/22/22 32/32/32
f 34/34/34 32/32/32 3/3/3
f 34/34/34 3/3/3 13/13/13
f 34/34/34 13/13/13 12/12/12
f 34/34/34 12/12/12 35/35/35
f 36/36/36 37/37/37 38/38/38
f 36/36/36 38/38/38 39/39/39
f 36/36/36 39/39/39 40/40/40
f 36/36/36 40/40/40 41/41/41
f 36/36/36 41/41/41 20/20/20
f 36/36/36 20/20/20 19/19/19
f 36/36/36 19/19/19 18/18/18
f 36/36/36 18/18/18 37/37/37
f 42/42/42 41/41/41 40/40/40
f 42/42/42 40/40/40 43/43/43
f 42/42/42 43/43/43 44/44/44
f 42/42/42 44/44/44 45/45/45
f 42/42/42 45/45/45 27/27/27
f 42/42/42 27/27/27 26/26/26
f 42/42/42 26/26/26 20/20/20
f 42/42/42 20/20/20 41/41/41
f 46/46/46 47/47/47 48/48/48
f 46/46/46 48/48/48 49/49/49
f 46/46/46 49/49/49 50/50/50
f 46/46/46 50/50/50 51/51/51
f 46/46/46 51/51/51 52/52/52
f 46/46/46 52/52/52 53/53/53
f 46/46/46 53/53/53 54/54/54
f 46/46/46 54/54/54 47/47/47
f 55/55/55 56/56/56 57/57/57
f 55/55/55 57/57/57 58/58/58
f 55/55/55 58/58/58 48/48/48
f 55/55/55 48/48/48 47/47/47
f 55/55/55 47/47/47 54/54/54
f 55/55/55 54/54/54 59/59/59
f 55/55/55 59/59/59 60/60/60
f 55/55/55 60/60/60 56/56/56
f 61/61/61 62/62/62 63/63/63
f 61/61/61 63/63/63 64/64/64
f 61/61/61 64/64/64 65/65/65
f 61/61/61 65/65/65 66/66/66
f 61/61/61 66/66/66 67/67/67
f 61/61/61 67/67/67 68/68/68
f 61/61/61 68/68/68 69/69/69
f 61/61/61 69/69/69 62/62/62
f 70/70/70 66/66/66 65/65/65
f 70/70/70 65/65/65 71/71/71
f 70/70/70 71/71/71 72/72/72
f 70/70/70 72/72/72 73/73/73
f 70/70/70 73/73/73 74/74/74
f 70/70/70 74/74/74 75/75/75
f 70/70/70 75/75/75 67/67/67
f 70/70/70 67/67/67 66/66/66
f 76/76/76 77/77/77 54/54/54
f 76/76/76 54/54/54 53/53/53
f 76/76/76 53/53/53 52/52/52
f 76/76/76 52/52/52 78/78/78
f 76/76/76 78/78/78 72/72/72
f 76/76/76 72/72/72 71/71/71
f 76/76/76 71/71/71 65/65/65
f 76/76/76 65/65/65 77/77/77
f 79/79/79 80/80/80 60/60/60
f 79/79/79 60/60/60 59/59/59
f 79/79/79 59/59/59 54/54/54
f 79/79/79 54/54/54 77/77/77
f 79/79/79 77/77/77 65/65/65
f 79/79/79 65/65/65 64/64/64
f 79/79/79 64/64/64 63/63/63
f 79/79/79 63/63/63 80/80/80
f 81/81/81 82/82/82 69/69/69
f 81/81/81 69/69/69 68/68/68
f 81/81/81 68/68/68 67/67/67
f 81/81/81 67/67/67 83/83/83
f 81/81/81 83/83/83 84/84/84
f 81/81/81 84/84/84 85/85/85
f 81/81/81 85/85/85 86/86/86
f 81/81/81 86/86/86 82/82/82
f 87/87/87 83/83/83 67/67/67
f 87/87/87 67/67/67 75/75/75
f 87/87/87 75/75/75 74/74/74
f 87/87/87 74/74/74 88/88/88
f 87/87/87 88/88/88 89/89/89
f 87/87/87 89/89/89 90/90/90
f 87/87/87 90/90/90 84/84/84
f 87/87/87 84/84/84 83/83/83
f 91/91/91 92/92/92 38/38/38
f 91/91/91 38/38/38 37/37/37
f 91/91/91 37/37/37 18/18/18
f 91/91/91 18/18/18 93/93/93
f 91/91/91 93/93/93 69/69/69
f 91/91/91 69/69/69 82/82/82
f 91/91/91 82/82/82 94/94/94
f 91/91/91 94/94/94 92/92/92
f 95/95/95 96/96/96 44/44/44
f 95/95/95 44/44/44 43/43/43
f 95/95/95 43/43/43 40/40/40
f 95/95/95 40/40/40 97/97/97
f 95/95/95 97/97/97 84/84/84
f 95/95/95 84/84/84 90/90/90
f 95/95/95 90/90/90 98/98/98
f 95/95/95 98/98/98 96/96/96
f 99/99/99 100/100/100 7/7/7
f 99/99/99 7/7/7 6/6/6
f 99/99/99 6/6/6 5/5/5
f 99/99/99 5/5/5 101/101/101
f 99/99/99 101/101/101 52/52/52
f 99/99/99 52/52/52 51/51/51
f 99/99/99 51/51/51 102/102/102
f 99/99/99 102/102/102 100/100/100
f 103/103/103 104/104/104 15/15/15
f 103/103/103 15/15/15 14/14/14
f 103/103/103 14/14/14 9/9/9
f 103/103/103 9/9/9 105/105/105
f 103/103/103 105/105/105 48/48/48
f 103/103/103 48/48/48 58/58/58
f 103/103/103 58/58/58 106/106/106
f 103/103/103 106/106/106 104/104/104
f 107/107/107 108/108/108 12/12/12
f 107/107/107 12/12/12 11/11/11
f 107/107/107 11/11/11 15/15/15
f 107/107/107 15/15/15 104/104/104
f 107/107/107 104/104/104 106/106/106
f 107/107/107 106/106/106 56/56/56
f 107/107/107 56/56/56 60/60/60
f 107/107/107 60/60/60 108/108/108
f 109/109/109 97/97/97 40/40/40
f 109/109/109 40/40/40 39/39/39
f 109/109/109 39/39/39 38/38/38
f 109/109/109 38/38/38 92/92/92
f 109/109/109 92/92/92 94/94/94
f 109/109/109 94/94/94 85/85/85
f 109/109/109 85/85/85 84/84/84
f 109/109/109 84/84/84 97/97/97
f 110/110/110 111/111/111 27/27/27
f 110/110/110 27/27/27 45/45/45
f 110/110/110 45/45/45 44/44/44
f 110/110/110 44/44/44 96/96/96
f 110/110/110 96/96/96 98/98/98
f 110/110/110 98/98/98 88/88/88
f 110/110/110 88/88/88 74/74/74
f 110/110/110 74/74/74 111/111/111
f 112/112/112 105/105/105 9/9/9
f 112/112/112 9/9/9 8/8/8
f 112/112/112 8/8/8 7/7/7
f 112/112/112 7/7/7 100/100/100
f 112/112/112 100/100/100 102/102/102
f 112/112/112 102/102/102 49/49/49
f 112/112/112 49/49/49 48/48/48
f 112/112/112 48/48/48 105/105/105
f 113/113/113 101/101/101 5/5/5
f 113/113/113 5/5/5 33/33/33
f 113/113/113 33/33/33 29/29/29
f 113/113/113 29/29/29 114/114/114
f 113/113/113 114/114/114 72/72/72
f 113/113/113 72/72/72 78/78/78
f 113/113/113 78/78/78 52/52/52
f 113/113/113 52/52/52 101/101/101
f 115/115/115 116/116/116 24/24/24
f 115/115/115 24/24/24 35/35/35
f 115/115/115 35/35/35 12/12/12
f 115/115/115 12/12/12 108/108/108
f 115/115/115 108/108/108 60/60/60
f 115/115/115 60/60/60 80/80/80
f 115/115/115 80/80/80 63/63/63
f 115/115/115 63/63/63 116/116/116
f 117/117/117 93/93/93 18/18/18
f 117/117/117 18/18/18 17/17/17
f 117/117/117 17/17/17 24/24/24
f 117/117/117 24/24/24 116/116/116
f 117/117/117 116/116/116 63/63/63
f 117/117/117 63/63/63 62/62/62
f 117/117/117 62/62/62 69/69/69
f 117/117/117 69/69/69 93/93/93
f 118/118/118 114/114/114 29/29/29
f 118/118/118 29/29/29 28/28/28
f 118/118/118 28/28/28 27/27/27
f 118/118/118 27/27/27 111/111/111
f 118/118/118 111/111/111 74/74/74
f 118/118/118 74/74/74 73/73/73
f 118/118/118 73/73/73 72/72/72
f 118/118/118 72/72/72 114/114/114
