v -2.387671 0.701134 -1.20692
v -2.388298 0.701513 -1.20576
v -2.386849 0.700603 -1.205119
v -2.386318 0.700242 -1.206503
v -2.385777 0.700034 -1.207533
v -2.386954 0.700858 -1.20774
v -2.387827 0.701328 -1.207622
v -2.38868 0.701723 -1.207158
v -2.389395 0.702129 -1.20622
v -2.388244 0.701951 -1.204461
v -2.38796 0.70229 -1.203428
v -2.386919 0.701661 -1.202635
v -2.38697 0.70117 -1.203709
v -2.389177 0.70243 -1.20503
v -2.388642 0.702488 -1.20413
v -2.383071 0.697543 -1.201627
v -2.38319 0.697971 -1.200598
v -2.382037 0.696441 -1.200143
v -2.381939 0.696058 -1.201054
v -2.381742 0.695595 -1.202265
v -2.382841 0.697023 -1.202995
v -2.384039 0.69836 -1.203719
v -2.38427 0.698913 -1.202289
v -2.38438 0.699375 -1.201213
v -2.382432 0.696633 -1.204365
v -2.381374 0.695254 -1.203476
v -2.381047 0.695031 -1.204387
v -2.382071 0.696377 -1.205395
v -2.383209 0.697708 -1.206232
v -2.383602 0.697962 -1.205153
v -2.38493 0.699175 -1.20589
v -2.385403 0.699553 -1.204433
v -2.384486 0.698956 -1.206987
v -2.385608 0.70014 -1.202984
v -2.385674 0.700647 -1.201894
v -2.380806 0.694488 -1.200626
v -2.380853 0.694793 -1.199945
v -2.380206 0.69378 -1.200006
v -2.37997 0.693269 -1.200358
v -2.379909 0.693005 -1.200977
v -2.380679 0.694129 -1.20153
v -2.380384 0.693888 -1.202433
v -2.379681 0.692858 -1.201596
v -2.379686 0.69304 -1.202234
v -2.380113 0.69374 -1.203114
v -2.387751 0.701016 -1.206921
v -2.388383 0.701399 -1.205742
v -2.389457 0.702042 -1.206206
v -2.388739 0.701633 -1.207159
v -2.38787 0.701261 -1.207627
v -2.387012 0.700767 -1.20775
v -2.385839 0.699946 -1.207542
v -2.386404 0.700127 -1.206504
v -2.38694 0.700492 -1.205104
v -2.388334 0.701845 -1.204425
v -2.388029 0.702214 -1.203392
v -2.388692 0.702431 -1.204106
v -2.389242 0.70235 -1.205001
v -2.387064 0.701066 -1.203677
v -2.386991 0.701587 -1.202603
v -2.383183 0.697453 -1.20161
v -2.383275 0.697906 -1.200579
v -2.384461 0.699307 -1.201191
v -2.384377 0.698819 -1.202268
v -2.384143 0.698261 -1.20371
v -2.38295 0.69693 -1.20299
v -2.381855 0.695505 -1.202261
v -2.382054 0.695973 -1.201039
v -2.382125 0.696379 -1.200126
v -2.382538 0.696536 -1.204371
v -2.383703 0.697859 -1.205157
v -2.383283 0.69763 -1.206241
v -2.382149 0.696303 -1.205406
v -2.381128 0.69496 -1.204399
v -2.381484 0.69516 -1.203484
v -2.385023 0.699066 -1.205892
v -2.3855 0.699447 -1.204421
v -2.384554 0.698872 -1.206996
v -2.385708 0.70004 -1.202957
v -2.385751 0.700576 -1.201867
v -2.380922 0.694405 -1.200611
v -2.380941 0.694732 -1.199927
v -2.380793 0.694041 -1.201527
v -2.379995 0.692939 -1.200975
v -2.380057 0.693207 -1.200346
v -2.380271 0.693735 -1.199994
v -2.380495 0.693796 -1.202443
v -2.380194 0.693669 -1.203128
v -2.379747 0.692988 -1.202243
v -2.379764 0.692789 -1.201604
v -2.380908 0.694868 -1.199709
v -2.380002 0.69349 -1.19986
v -2.382109 0.696541 -1.19983
v -2.380271 0.693735 -1.199994
v -2.379483 0.692484 -1.20132
v -2.379481 0.692749 -1.202092
v -2.37969 0.692601 -1.200791
v -2.379747 0.692988 -1.202243
v -2.38674 0.700725 -1.20802
v -2.387841 0.701343 -1.207797
v -2.385623 0.699925 -1.207882
v -2.38787 0.701261 -1.207627
v -2.389517 0.702554 -1.205207
v -2.388722 0.702598 -1.204019
v -2.389788 0.702295 -1.206367
v -2.388692 0.702431 -1.204106
v -2.387896 0.70237 -1.203066
v -2.386934 0.701792 -1.20226
v -2.37973 0.692835 -1.200263
v -2.380059 0.693659 -1.203348
v -2.380974 0.694925 -1.204697
v -2.389043 0.701879 -1.207238
v -2.384368 0.698845 -1.207359
v -2.383111 0.697589 -1.206597
v -2.385731 0.700785 -1.201517
v -2.384453 0.6995 -1.200843
v -2.383268 0.698085 -1.200245
v -2.381985 0.696258 -1.205745
vn 0.5118 0.8563 0.0686
vn 0.5551 0.8194 -0.1427
vn 0.6021 0.7891 -0.1216
vn 0.5659 0.8216 0.068
vn 0.5878 0.8061 0.0681
vn 0.5148 0.8551 0.0614
vn 0.461 0.8856 0.0553
vn 0.449 0.8935 -0.0012
vn 0.4776 0.8611 -0.1745
vn 0.6054 0.7231 -0.3326
vn 0.6052 0.7264 -0.3256
vn 0.6674 0.6927 -0.2733
vn 0.6496 0.7025 -0.2907
vn 0.5256 0.7845 -0.329
vn 0.5579 0.7476 -0.3604
vn 0.7949 0.5929 -0.1288
vn 0.7944 0.6004 -0.0915
vn 0.8125 0.5779 -0.0766
vn 0.8151 0.5659 -0.1236
vn 0.801 0.5985 -0.0119
vn 0.7765 0.6295 -0.028
vn 0.723 0.6882 -0.0599
vn 0.7491 0.6404 -0.1695
vn 0.7567 0.639 -0.1381
vn 0.7479 0.6598 0.0726
vn 0.7647 0.6377 0.0924
vn 0.7827 0.6203 0.0508
vn 0.7635 0.6445 0.0414
vn 0.7157 0.6974 0.0376
vn 0.6965 0.7154 0.0564
vn 0.6282 0.7761 0.0546
vn 0.6579 0.7472 -0.0946
vn 0.652 0.7566 0.0486
vn 0.6946 0.6815 -0.2302
vn 0.7113 0.6722 -0.2053
vn 0.826 0.5455 -0.1419
vn 0.8265 0.5556 -0.0901
vn 0.8397 0.5311 -0.1132
vn 0.8581 0.4937 -0.1406
vn 0.8415 0.54 0.0168
vn 0.8121 0.5835 -0.0044
vn 0.7645 0.633 0.1214
vn 0.7873 0.5947 0.1629
vn 0.7864 0.607 0.1148
vn 0.7869 0.612 0.079
vn -0.5206 -0.8475 -0.103
vn -0.5683 -0.8113 0.1369
vn -0.6176 -0.7782 0.1142
vn -0.5403 -0.8161 -0.205
vn -0.5102 -0.7976 -0.3217
vn -0.5141 -0.805 -0.2962
vn -0.5453 -0.8053 -0.2326
vn -0.562 -0.8229 -0.0828
vn -0.6021 -0.7891 0.1216
vn -0.6261 -0.6974 0.3487
vn -0.6918 -0.5518 0.4657
vn -0.6977 -0.5305 0.4813
vn -0.6807 -0.6163 0.396
vn -0.6521 -0.6946 0.3037
vn -0.6945 -0.5928 0.4076
vn -0.7961 -0.5877 0.1442
vn -0.7984 -0.5477 0.2498
vn -0.7656 -0.5791 0.2799
vn -0.7507 -0.6347 0.1834
vn -0.7231 -0.6881 0.0598
vn -0.7765 -0.6294 0.0279
vn -0.801 -0.5984 0.0119
vn -0.8153 -0.5612 0.1422
vn -0.8002 -0.5348 0.2712
vn -0.7421 -0.6645 -0.0871
vn -0.6915 -0.7189 -0.0703
vn -0.659 -0.7309 -0.1773
vn -0.6966 -0.6928 -0.1866
vn -0.6878 -0.6948 -0.2101
vn -0.7568 -0.6446 -0.1085
vn -0.6236 -0.7787 -0.0683
vn -0.6579 -0.7471 0.0947
vn -0.5995 -0.7772 -0.191
vn -0.6963 -0.6752 0.2434
vn -0.7234 -0.6008 0.34
vn -0.8171 -0.55 0.1728
vn -0.7777 -0.5335 0.3325
vn -0.8054 -0.5926 0.009
vn -0.7748 -0.6315 0.0291
vn -0.7781 -0.5693 0.2654
vn -0.7588 -0.5356 0.3704
vn -0.7446 -0.6532 -0.1375
vn -0.6425 -0.7257 -0.2458
vn -0.6105 -0.7467 -0.2641
vn -0.6748 -0.7164 -0.1772
vn 0.1734 0.1271 0.9766
vn 0.4329 -0.1801 0.8832
vn 0.052 0.2259 0.9727
vn -0.7588 -0.5356 0.3704
vn 0.6201 -0.7708 0.1459
vn 0.7225 -0.5919 -0.3572
vn 0.4535 -0.8084 0.3752
vn -0.6105 -0.7467 -0.2641
vn 0.1372 0.1509 -0.979
vn -0.1369 0.3174 -0.9383
vn 0.2825 -0.0007 -0.9592
vn -0.5102 -0.7976 -0.3217
vn -0.7543 0.641 0.1419
vn -0.4575 0.7746 0.4367
vn -0.8396 0.4254 -0.3377
vn -0.6977 -0.5305 0.4813
vn -0.2475 0.6989 0.6709
vn -0.1283 0.5842 0.8014
vn 0.5177 -0.6253 0.5839
vn 0.5658 -0.4306 -0.7032
vn 0.4671 -0.3648 -0.8054
vn -0.5413 0.3381 -0.7698
vn 0.356 -0.1243 -0.9261
vn 0.3828 -0.2036 -0.9011
vn -0.0645 0.4743 0.878
vn -0.0404 0.3991 0.916
vn -0.0176 0.3227 0.9463
vn 0.4061 -0.2807 -0.8696
vt 0.839504 0.118056
vt 0.856743 0.205307
vt 0.741230 0.205307
vt 0.734555 0.106726
vt 0.724541 0.032791
vt 0.813647 0.052618
vt 0.868992 0.081539
vt 0.913398 0.129584
vt 0.940923 0.205307
vt 0.839504 0.292557
vt 0.813647 0.357995
vt 0.724541 0.377822
vt 0.734555 0.303887
vt 0.913398 0.281029
vt 0.868992 0.329074
vt 0.369475 0.299954
vt 0.368286 0.370940
vt 0.245840 0.351447
vt 0.246397 0.288815
vt 0.246768 0.205307
vt 0.370268 0.205307
vt 0.494283 0.205307
vt 0.492822 0.304944
vt 0.490632 0.379672
vt 0.369475 0.110659
vt 0.246397 0.121798
vt 0.245841 0.059166
vt 0.368286 0.039673
vt 0.490632 0.030941
vt 0.492822 0.105669
vt 0.616755 0.103478
vt 0.619174 0.205307
vt 0.613127 0.027106
vt 0.616755 0.307135
vt 0.613126 0.383507
vt 0.123273 0.268175
vt 0.123047 0.315326
vt 0.054743 0.283353
vt 0.030912 0.249131
vt 0.030973 0.205306
vt 0.123423 0.205306
vt 0.123273 0.142438
vt 0.030912 0.161481
vt 0.054744 0.127260
vt 0.123047 0.095287
vt 0.839504 0.118056
vt 0.856743 0.205307
vt 0.968983 0.205307
vt 0.938030 0.133427
vt 0.876123 0.061548
vt 0.805028 0.030806
vt 0.721203 0.008146
vt 0.734555 0.106726
vt 0.741230 0.205307
vt 0.839504 0.292557
vt 0.805028 0.379807
vt 0.876123 0.349065
vt 0.938030 0.277186
vt 0.734555 0.303887
vt 0.721203 0.402467
vt 0.369475 0.299954
vt 0.367890 0.394602
vt 0.489902 0.404581
vt 0.492822 0.304944
vt 0.494283 0.205307
vt 0.370268 0.205307
vt 0.246768 0.205307
vt 0.246397 0.288815
vt 0.245655 0.372324
vt 0.369475 0.110659
vt 0.492822 0.105669
vt 0.489902 0.006032
vt 0.367890 0.016011
vt 0.245655 0.038289
vt 0.246397 0.121798
vt 0.616755 0.103478
vt 0.619174 0.205307
vt 0.611917 0.001649
vt 0.616755 0.307135
vt 0.611917 0.408964
vt 0.123273 0.268175
vt 0.122972 0.331043
vt 0.123423 0.205306
vt 0.000156 0.205306
vt 0.000125 0.242784
vt 0.000064 0.280261
vt 0.123273 0.142438
vt 0.122972 0.079570
vt 0.000064 0.130352
vt 0.000125 0.167829
vt 0.122972 0.331043
vt 0.030806 0.283587
vt 0.245655 0.372324
vt 0.030806 0.283587
vt 0.000125 0.167829
vt 0.030806 0.127026
vt 0.000156 0.205306
vt 0.030806 0.127026
vt 0.805028 0.030806
vt 0.873826 0.071832
vt 0.721203 0.008146
vt 0.873826 0.071832
vt 0.938030 0.277186
vt 0.873826 0.338781
vt 0.968983 0.205307
vt 0.873826 0.338781
vt 0.805028 0.379807
vt 0.721203 0.402467
vt 0.000125 0.242784
vt 0.122972 0.079570
vt 0.245655 0.038289
vt 0.938030 0.133427
vt 0.611917 0.001649
vt 0.489902 0.006032
vt 0.611917 0.408964
vt 0.489902 0.404581
vt 0.367890 0.394602
vt 0.367890 0.016011
f 1/1/1 2/2/2 3/3/3
f 1/1/1 3/3/3 4/4/4
f 1/1/1 4/4/4 5/5/5
f 1/1/1 5/5/5 6/6/6
f 1/1/1 6/6/6 7/7/7
f 1/1/1 7/7/7 8/8/8
f 1/1/1 8/8/8 9/9/9
f 1/1/1 9/9/9 2/2/2
f 10/10/10 11/11/11 12/12/12
f 10/10/10 12/12/12 13/13/13
f 10/10/10 13/13/13 3/3/3
f 10/10/10 3/3/3 2/2/2
f 10/10/10 2/2/2 9/9/9
f 10/10/10 9/9/9 14/14/14
f 10/10/10 14/14/14 15/15/15
f 10/10/10 15/15/15 11/11/11
f 16/16/16 17/17/17 18/18/18
f 16/16/16 18/18/18 19/19/19
f 16/16/16 19/19/19 20/20/20
f 16/16/16 20/20/20 21/21/21
f 16/16/16 21/21/21 22/22/22
f 16/16/16 22/22/22 23/23/23
f 16/16/16 23/23/23 24/24/24
f 16/16/16 24/24/24 17/17/17
f 25/25/25 21/21/21 20/20/20
f 25/25/25 20/20/20 26/26/26
f 25/25/25 26/26/26 27/27/27
f 25/25/25 27/27/27 28/28/28
f 25/25/25 28/28/28 29/29/29
f 25/25/25 29/29/29 30/30/30
f 25/25/25 30/30/30 22/22/22
f 25/25/25 22/22/22 21/21/21
f 31/31/31 32/32/32 22/22/22
f 31/31/31 22/22/22 30/30/30
f 31/31/31 30/30/30 29/29/29
f 31/31/31 29/29/29 33/33/33
f 31/31/31 33/33/33 5/5/5
f 31/31/31 5/5/5 4/4/4
f 31/31/31 4/4/4 3/3/3
f 31/31/31 3/3/3 32/32/32
f 34/34/34 35/35/35 24/24/24
f 34/34/34 24/24/24 23/23/23
f 34/34/34 23/23/23 22/22/22
f 34/34/34 22/22/22 32/32/32
f 34/34/34 32/32/32 3/3/3
f 34/34/34 3/3/3 13/13/13
f 34/34/34 13/13/13 12/12/12
f 34/34/34 12/12/12 35/35/35
f 36/36/36 37/37/37 38/38/38
f 36/36/36 38/38/38 39/39/39
f 36/36/36 39/39/39 40/40/40
f 36/36/36 40/40/40 41/41/41
f 36/36/36 41/41/41 20/20/20
f 36/36/36 20/20/20 19/19/19
f 36/36/36 19/19/19 18/18/18
f 36/36/36 18/18/18 37/37/37
f 42/42/42 41/41/41 40/40/40
f 42/42/42 40/40/40 43/43/43
f 42/42/42 43/43/43 44/44/44
f 42/42/42 44/44/44 45/45/45
f 42/42/42 45/45/45 27/27/27
f 42/42/42 27/27/27 26/26/26
f 42/42/42 26/26/26 20/20/20
f 42/42/42 20/20/20 41/41/41
f 46/46/46 47/47/47 48/48/48
f 46/46/46 48/48/48 49/49/49
f 46/46/46 49/49/49 50/50/50
f 46/46/46 50/50/50 51/51/51
f 46/46/46 51/51/51 52/52/52
f 46/46/46 52/52/52 53/53/53
f 46/46/46 53/53/53 54/54/54
f 46/46/46 54/54/54 47/47/47
f 55/55/55 56/56/56 57/57/57
f 55/55/55 57/57/57 58/58/58
f 55/55/55 58/58/58 48/48/48
f 55/55/55 48/48/48 47/47/47
f 55/55/55 47/47/47 54/54/54
f 55/55/55 54/54/54 59/59/59
f 55/55/55 59/59/59 60/60/60
f 55/55/55 60/60/60 56/56/56
f 61/61/61 62/62/62 63/63/63
f 61/61/61 63/63/63 64/64/64
f 61/61/61 64/64/64 65/65/65
f 61/61/61 65/65/65 66/66/66
f 61/61/61 66/66/66 67/67/67
f 61/61/61 67/67/67 68/68/68
f 61/61/61 68/68/68 69/69/69
f 61/61/61 69/69/69 62/62/62
f 70/70/70 66/66/66 65/65/65
f 70/70/70 65/65/65 71/71/71
f 70/70/70 71/71/71 72/72/72
f 70/70/70 72/72/72 73/73/73
f 70/70/70 73/73/73 74/74/74
f 70/70/70 74/74/74 75/75/75
f 70/70/70 75/75/75 67/67/67
f 70/70/70 67/67/67 66/66/66
f 76/76/76 77/77/77 54/54/54
f 76/76/76 54/54/54 53/53/53
f 76/76/76 53/53/53 52/52/52
f 76/76/76 52/52/52 78/78/78
f 76/76/76 78/78/78 72/72/72
f 76/76/76 72/72/72 71/71/71
f 76/76/76 71/71/71 65/65/65
f 76/76/76 65/65/65 77/77/77
f 79/79/79 80/80/80 60/60/60
f 79/79/79 60/60/60 59/59/59
f 79/79/79 59/59/59 54/54/54
f 79/79/79 54/54/54 77/77/77
f 79/79/79 77/77/77 65/65/65
f 79/79/79 65/65/65 64/64/64
f 79/79/79 64/64/64 63/63/63
f 79/79/79 63/63/63 80/80/80
f 81/81/81 82/82/82 69/69/69
f 81/81/81 69/69/69 68/68/68
f 81/81/81 68/68/68 67/67/67
f 81/81/81 67/67/67 83/83/83
f 81/81/81 83/83/83 84/84/84
f 81/81/81 84/84/84 85/85/85
f 81/81/81 85/85/85 86/86/86
f 81/81/81 86/86/86 82/82/82
f 87/87/87 83/83/83 67/67/67
f 87/87/87 67/67/67 75/75/75
f 87/87/87 75/75/75 74/74/74
f 87/87/87 74/74/74 88/88/88
f 87/87/87 88/88/88 89/89/89
f 87/87/87 89/89/89 90/90/90
f 87/87/87 90/90/90 84/84/84
f 87/87/87 84/84/84 83/83/83
f 91/91/91 92/92/92 38/38/38
f 91/91/91 38/38/38 37/37/37
f 91/91/91 37/37/37 18/18/18
f 91/91/91 18/18/18 93/93/93
f 91/91/91 93/93/93 69/69/69
f 91/91/91 69/69/69 82/82/82
f 91/91/91 82/82/82 94/94/94
f 91/91/91 94/94/94 92/92/92
f 95/95/95 96/96/96 44/44/44
f 95/95/95 44/44/44 43/43/43
f 95/95/95 43/43/43 40/40/40
f 95/95/95 40/40/40 97/97/97
f 95/95/95 97/97/97 84/84/84
f 95/95/95 84/84/84 90/90/90
f 95/95/95 90/90/90 98/98/98
f 95/95/95 98/98/98 96/96/96
f 99/99/99 100/100/100 7/7/7
f 99/99/99 7/7/7 6/6/6
f 99/99/99 6/6/6 5/5/5
f 99/99/99 5/5/5 101/101/101
f 99/99/99 101/101/101 52/52/52
f 99/99/99 52/52/52 51/51/51
f 99/99/99 51/51/51 102/102/102
f 99/99/99 102/102/102 100/100/100
f 103/103/103 104/104/104 15/15/15
f 103/103/103 15/15/15 14/14/14
f 103/103/103 14/14/14 9/9/9
f 103/103/103 9/9/9 105/105/105
f 103/103/103 105/105/105 48/48/48
f 103/103/103 48/48/48 58/58/58
f 103/103/103 58/58/58 106/106/106
f 103/103/103 106/106/106 104/104/104
f 107/107/107 108/108/108 12/12/12
f 107/107/107 12/12/12 11/11/11
f 107/107/107 11/11/11 15/15/15
f 107/107/107 15/15/15 104/104/104
f 107/107/107 104/104/104 106/106/106
f 107/107/107 106/106/106 56/56/56
f 107/107/107 56/56/56 60/60/60
f 107/107/107 60/60/60 108/108/108
f 109/109/109 97/97/97 40/40/40
f 109/109/109 40/40/40 39/39/39
f 109/109/109 39/39/39 38/38/38
f 109/109/109 38/38/38 92/92/92
f 109/109/109 92/92/92 94/94/94
f 109/109/109 94/94/94 85/85/85
f 109/109/109 85/85/85 84/84/84
f 109/109/109 84/84/84 97/97/97
f 110/110/110 111/111/111 27/27/27
f 110/110/110 27/27/27 45/45/45
f 110/110/110 45/45/45 44/44/44
f 110/110/110 44/44/44 96/96/96
f 110/110/110 96/96/96 98/98/98
f 110/110/110 98/98/98 88/88/88
f 110/110/110 88/88/88 74/74/74
f 110/110/110 74/74/74 111/111/111
f 112/112/112 105/105/105 9/9/9
f 112/112/112 9/9/9 8/8/8
f 112/112/112 8/8/8 7/7/7
f 112/112/112 7/7/7 100/100/100
f 112/112/112 100/100/100 102/102/102
f 112/112/112 102/102/102 49/49/49
f 112/112/112 49/49/49 48/48/48
f 112/112/112 48/48/48 105/105/105
f 113/113/113 101/101/101 5/5/5
f 113/113/113 5/5/5 33/33/33
f 113/113/113 33/33/33 29/29/29
f 113/113/113 29/29/29 114/114/114
f 113/113/113 114/114/114 72/72/72
f 113/113/113 72/72/72 78/78/78
f 113/113/113 78/78/78 52/52/52
f 113/113/113 52/52/52 101/101/101
f 115/115/115 116/116/116 24/24/24
f 115/115/115 24/24/24 35/35/35
f 115/115/115 35/35/35 12/12/12
f 115/115/115 12/12/12 108/108/108
f 115/115/115 108/108/108 60/60/60
f 115/115/115 60/60/60 80/80/80
f 115/115/115 80/80/80 63/63/63
f 115/115/115 63/63/63 116/116/116
f 117/117/117 93/93/93 18/18/18
f 117/117/117 18/18/18 17/17/17
f 117/117/117 17/17/17 24/24/24
f 117/117/117 24/24/24 116/116/116
f 117/117/117 116/116/116 63/63/63
f 117/117/117 63/63/63 62/62/62
f 117/117/117 62/62/62 69/69/69
f 117/117/117 69/69/69 93/93/93
f 118/118/118 114/114/114 29/29/29
f 118/118/118 29/29/29 28/28/28
f 118/118/118 28/28/28 27/27/27
f 118/118/118 27/27/27 111/111/111
f 118/118/118 111/111/111 74/74/74
f 118/118/118 74/74/74 73/73/73
f 118/118/118 73/73/73 72/72/72
f 118/118/118 72/72/72 114/114/114
