v -2.428831 0.749371 -1.067443
v -2.427369 0.750409 -1.068287
v -2.428152 0.748868 -1.070279
v -2.429685 0.747823 -1.069091
v -2.43102 0.747083 -1.068324
v -2.430174 0.748538 -1.067072
v -2.429278 0.749497 -1.066471
v -2.428105 0.750439 -1.066303
v -2.426727 0.751482 -1.06681
v -2.426603 0.751352 -1.069852
v -2.426265 0.752013 -1.071295
v -2.426579 0.751031 -1.073122
v -2.427152 0.750075 -1.071828
v -2.426176 0.752154 -1.068387
v -2.426113 0.752311 -1.069892
v -2.428493 0.744394 -1.077672
v -2.427733 0.745304 -1.078776
v -2.428065 0.742948 -1.080334
v -2.428727 0.742139 -1.079351
v -2.429701 0.741107 -1.078098
v -2.429604 0.74323 -1.076262
v -2.429349 0.74526 -1.074355
v -2.428203 0.746488 -1.075837
v -2.427433 0.747455 -1.077002
v -2.430975 0.742188 -1.07499
v -2.430922 0.740188 -1.076979
v -2.431912 0.739529 -1.076177
v -2.432083 0.741438 -1.074076
v -2.431982 0.743411 -1.072087
v -2.430799 0.74418 -1.073032
v -2.430355 0.746076 -1.071009
v -2.428838 0.747145 -1.072332
v -2.431625 0.745334 -1.070082
v -2.427721 0.748418 -1.073856
v -2.427008 0.749438 -1.075071
v -2.429041 0.739727 -1.080863
v -2.428584 0.740348 -1.081619
v -2.428951 0.738727 -1.082126
v -2.429283 0.73785 -1.081926
v -2.429724 0.737296 -1.081254
v -2.429739 0.738944 -1.079912
v -2.430679 0.738271 -1.079093
v -2.430406 0.736853 -1.080713
v -2.430971 0.736931 -1.079943
v -2.431456 0.737795 -1.078515
v -2.428691 0.749233 -1.067381
v -2.42721 0.750284 -1.068242
v -2.426608 0.751386 -1.066779
v -2.428001 0.750333 -1.066257
v -2.429205 0.749417 -1.066434
v -2.430078 0.748428 -1.067016
v -2.430919 0.746979 -1.068266
v -2.42954 0.747691 -1.069024
v -2.42799 0.748748 -1.070229
v -2.426428 0.751244 -1.069826
v -2.426127 0.75194 -1.071285
v -2.426013 0.752254 -1.069883
v -2.426045 0.752072 -1.068371
v -2.426977 0.749969 -1.071793
v -2.426442 0.750959 -1.073104
v -2.428314 0.744311 -1.077605
v -2.427595 0.745247 -1.078732
v -2.427295 0.747392 -1.076965
v -2.428025 0.746397 -1.075779
v -2.429183 0.745158 -1.074285
v -2.429436 0.743136 -1.076183
v -2.429532 0.741019 -1.078013
v -2.428548 0.742062 -1.079278
v -2.427926 0.742895 -1.080286
v -2.430818 0.742085 -1.0749
v -2.430644 0.744069 -1.072949
v -2.431873 0.743323 -1.072019
v -2.431971 0.741357 -1.074003
v -2.4318 0.739452 -1.0761
v -2.430764 0.740091 -1.076883
v -2.430205 0.745954 -1.070935
v -2.428674 0.747034 -1.072271
v -2.43152 0.745237 -1.07002
v -2.427544 0.748319 -1.07381
v -2.426871 0.74937 -1.075043
v -2.428861 0.739653 -1.08079
v -2.428444 0.740298 -1.08157
v -2.42957 0.738859 -1.079825
v -2.429597 0.737233 -1.081188
v -2.429148 0.737795 -1.081871
v -2.428849 0.738688 -1.082088
v -2.430522 0.738176 -1.078995
v -2.431345 0.737719 -1.078435
v -2.430887 0.736877 -1.079886
v -2.430289 0.736781 -1.080639
v -2.428368 0.740534 -1.081851
v -2.428951 0.738302 -1.08248
v -2.427782 0.743195 -1.080641
v -2.428849 0.738688 -1.082088
v -2.430263 0.736348 -1.08122
v -2.430974 0.736503 -1.080294
v -2.429663 0.736719 -1.081672
v -2.430887 0.736877 -1.079886
v -2.430581 0.74821 -1.066921
v -2.429405 0.749474 -1.066253
v -2.431422 0.746789 -1.068041
v -2.429205 0.749417 -1.066434
v -2.425976 0.752385 -1.067892
v -2.42598 0.752518 -1.069954
v -2.42646 0.751796 -1.066304
v -2.426013 0.752254 -1.069883
v -2.42609 0.752203 -1.071774
v -2.426326 0.751319 -1.073547
v -2.429304 0.7372 -1.082256
v -2.431668 0.737601 -1.078286
v -2.432194 0.739274 -1.075874
v -2.427817 0.750748 -1.065902
v -2.432003 0.745042 -1.069744
v -2.432329 0.743114 -1.07174
v -2.426708 0.749749 -1.075465
v -2.427114 0.747751 -1.077376
v -2.427418 0.745583 -1.079125
v -2.432403 0.741151 -1.073738
vn -0.6146 0.7208 -0.3204
vn -0.7521 0.636 -0.1726
vn -0.7692 0.6007 -0.2177
vn -0.6478 0.6756 -0.3518
vn -0.6606 0.6561 -0.3648
vn -0.6206 0.7176 -0.316
vn -0.5899 0.7576 -0.2795
vn -0.6131 0.7569 -0.2263
vn -0.7198 0.6868 -0.101
vn -0.8664 0.497 -0.0483
vn -0.8632 0.5019 -0.0539
vn -0.8749 0.4654 -0.1334
vn -0.873 0.4755 -0.1086
vn -0.8187 0.5742 -0.004
vn -0.8504 0.5261 0.0021
vn -0.8695 0.3694 -0.3278
vn -0.8512 0.3837 -0.358
vn -0.8511 0.361 -0.3812
vn -0.875 0.34 -0.3445
vn -0.8131 0.3955 -0.4271
vn -0.8112 0.4275 -0.399
vn -0.8029 0.4894 -0.3404
vn -0.8688 0.4171 -0.2668
vn -0.8574 0.4202 -0.2969
vn -0.7431 0.4818 -0.4644
vn -0.7394 0.4606 -0.491
vn -0.7711 0.4321 -0.4676
vn -0.7678 0.4578 -0.4481
vn -0.7472 0.5181 -0.4161
vn -0.727 0.5432 -0.42
vn -0.6913 0.616 -0.3778
vn -0.7869 0.5535 -0.2729
vn -0.7078 0.5909 -0.3871
vn -0.8701 0.457 -0.1846
vn -0.8672 0.4492 -0.2148
vn -0.8876 0.3147 -0.3363
vn -0.8631 0.334 -0.3788
vn -0.8789 0.3032 -0.3681
vn -0.8975 0.2586 -0.3573
vn -0.8128 0.3362 -0.4757
vn -0.8135 0.3802 -0.4401
vn -0.7223 0.4617 -0.5148
vn -0.707 0.4277 -0.5631
vn -0.7358 0.4306 -0.5227
vn -0.757 0.4284 -0.4934
vn 0.6006 -0.7168 0.354
vn 0.757 -0.6266 0.1852
vn 0.7746 -0.588 0.2329
vn 0.5524 -0.7017 0.4499
vn 0.4605 -0.7126 0.5292
vn 0.4793 -0.7141 0.5102
vn 0.5383 -0.6957 0.4757
vn 0.6372 -0.6805 0.3617
vn 0.7692 -0.6007 0.2177
vn 0.884 -0.465 0.0478
vn 0.9572 -0.2893 -0.0061
vn 0.964 -0.2652 -0.015
vn 0.9293 -0.3668 0.0425
vn 0.8797 -0.4649 0.0997
vn 0.94 -0.3385 0.0417
vn 0.8773 -0.3612 0.316
vn 0.9245 -0.3025 0.2318
vn 0.9237 -0.334 0.1874
vn 0.8759 -0.4087 0.2564
vn 0.8029 -0.4893 0.3405
vn 0.8112 -0.4273 0.3992
vn 0.8131 -0.3954 0.4272
vn 0.8838 -0.332 0.3294
vn 0.9337 -0.2856 0.2156
vn 0.7321 -0.4902 0.4729
vn 0.7166 -0.5502 0.4285
vn 0.6367 -0.5891 0.4975
vn 0.6505 -0.5461 0.5278
vn 0.6317 -0.5542 0.5421
vn 0.7265 -0.4719 0.4995
vn 0.6811 -0.622 0.3863
vn 0.7869 -0.5535 0.2729
vn 0.5955 -0.649 0.4734
vn 0.8766 -0.4481 0.175
vn 0.9288 -0.3527 0.1133
vn 0.8985 -0.3152 0.3056
vn 0.9485 -0.2777 0.1526
vn 0.8133 -0.3895 0.4322
vn 0.811 -0.4297 0.397
vn 0.9229 -0.3248 0.2068
vn 0.9545 -0.2767 0.1107
vn 0.7036 -0.4884 0.5161
vn 0.5855 -0.6004 0.5447
vn 0.5562 -0.631 0.5408
vn 0.6451 -0.5718 0.5069
vn 0.3516 0.2688 -0.8967
vn 0.1842 -0.0996 -0.9778
vn 0.4172 0.3887 -0.8214
vn 0.9545 -0.2767 0.1107
vn -0.1915 -0.8461 -0.4975
vn -0.5948 -0.7922 -0.1366
vn 0.0742 -0.8023 -0.5922
vn 0.5562 -0.631 0.5408
vn -0.6784 -0.0702 0.7313
vn -0.4872 0.1567 0.8591
vn -0.7398 -0.2434 0.6272
vn 0.4605 -0.7126 0.5292
vn 0.4901 0.8056 0.333
vn 0.376 0.9237 -0.0734
vn 0.362 0.5282 0.768
vn 0.964 -0.2652 -0.015
vn 0.3565 0.85 -0.3878
vn 0.3648 0.7384 -0.5671
vn 0.0834 -0.6012 -0.7947
vn -0.7029 -0.6686 0.2426
vn -0.6988 -0.6032 0.3845
vn -0.0818 0.2973 0.9513
vn -0.7447 -0.3721 0.554
vn -0.7297 -0.4493 0.5154
vn 0.3872 0.6343 -0.6691
vn 0.4104 0.5647 -0.7159
vn 0.4306 0.4913 -0.757
vn -0.7092 -0.5217 0.4742
vt 0.839504 0.118056
vt 0.856743 0.205307
vt 0.741230 0.205307
vt 0.734555 0.106726
vt 0.724541 0.032791
vt 0.813647 0.052618
vt 0.868992 0.081539
vt 0.913398 0.129584
vt 0.940923 0.205307
vt 0.839504 0.292557
vt 0.813647 0.357995
vt 0.724541 0.377822
vt 0.734555 0.303887
vt 0.913398 0.281029
vt 0.868992 0.329074
vt 0.369475 0.299954
vt 0.368286 0.370940
vt 0.245840 0.351447
vt 0.246397 0.288815
vt 0.246768 0.205307
vt 0.370268 0.205307
vt 0.494283 0.205307
vt 0.492822 0.304944
vt 0.490632 0.379672
vt 0.369475 0.110659
vt 0.246397 0.121798
vt 0.245841 0.059166
vt 0.368286 0.039673
vt 0.490632 0.030941
vt 0.492822 0.105669
vt 0.616755 0.103478
vt 0.619174 0.205307
vt 0.613127 0.027106
vt 0.616755 0.307135
vt 0.613126 0.383507
vt 0.123273 0.268175
vt 0.123047 0.315326
vt 0.054743 0.283353
vt 0.030912 0.249131
vt 0.030973 0.205306
vt 0.123423 0.205306
vt 0.123273 0.142438
vt 0.030912 0.161481
vt 0.054744 0.127260
vt 0.123047 0.095287
vt 0.839504 0.118056
vt 0.856743 0.205307
vt 0.968983 0.205307
vt 0.938030 0.133427
vt 0.876123 0.061548
vt 0.805028 0.030806
vt 0.721203 0.008146
vt 0.734555 0.106726
vt 0.741230 0.205307
vt 0.839504 0.292557
vt 0.805028 0.379807
vt 0.876123 0.349065
vt 0.938030 0.277186
vt 0.734555 0.303887
vt 0.721203 0.402467
vt 0.369475 0.299954
vt 0.367890 0.394602
vt 0.489902 0.404581
vt 0.492822 0.304944
vt 0.494283 0.205307
vt 0.370268 0.205307
vt 0.246768 0.205307
vt 0.246397 0.288815
vt 0.245655 0.372324
vt 0.369475 0.110659
vt 0.492822 0.105669
vt 0.489902 0.006032
vt 0.367890 0.016011
vt 0.245655 0.038289
vt 0.246397 0.121798
vt 0.616755 0.103478
vt 0.619174 0.205307
vt 0.611917 0.001649
vt 0.616755 0.307135
vt 0.611917 0.408964
vt 0.123273 0.268175
vt 0.122972 0.331043
vt 0.123423 0.205306
vt 0.000156 0.205306
vt 0.000125 0.242784
vt 0.000064 0.280261
vt 0.123273 0.142438
vt 0.122972 0.079570
vt 0.000064 0.130352
vt 0.000125 0.167829
vt 0.122972 0.331043
vt 0.030806 0.283587
vt 0.245655 0.372324
vt 0.030806 0.283587
vt 0.000125 0.167829
vt 0.030806 0.127026
vt 0.000156 0.205306
vt 0.030806 0.127026
vt 0.805028 0.030806
vt 0.873826 0.071832
vt 0.721203 0.008146
vt 0.873826 0.071832
vt 0.938030 0.277186
vt 0.873826 0.338781
vt 0.968983 0.205307
vt 0.873826 0.338781
vt 0.805028 0.379807
vt 0.721203 0.402467
vt 0.000125 0.242784
vt 0.122972 0.079570
vt 0.245655 0.038289
vt 0.938030 0.133427
vt 0.611917 0.001649
vt 0.489902 0.006032
vt 0.611917 0.408964
vt 0.489902 0.404581
vt 0.367890 0.394602
vt 0.367890 0.016011
f 1/1/1 2/2/2 3/3/3
f 1/1/1 3/3/3 4/4/4
f 1/1/1 4/4/4 5/5/5
f 1/1/1 5/5/5 6/6/6
f 1/1/1 6/6/6 7/7/7
f 1/1/1 7/7/7 8/8/8
f 1/1/1 8/8/8 9/9/9
f 1/1/1 9/9/9 2/2/2
f 10/10/10 11/11/11 12/12/12
f 10/10/10 12/12/12 13/13/13
f 10/10/10 13/13/13 3/3/3
f 10/10/10 3/3/3 2/2/2
f 10/10/10 2/2/2 9/9/9
f 10/10/10 9/9/9 14/14/14
f 10/10/10 14/14/14 15/15/15
f 10/10/10 15/15/15 11/11/11
f 16/16/16 17/17/17 18/18/18
f 16/16/16 18/18/18 19/19/19
f 16/16/16 19/19/19 20/20/20
f 16/16/16 20/20/20 21/21/21
f 16/16/16 21/21/21 22/22/22
f 16/16/16 22/22/22 23/23/23
f 16/16/16 23/23/23 24/24/24
f 16/16/16 24/24/24 17/17/17
f 25/25/25 21/21/21 20/20/20
f 25/25/25 20/20/20 26/26/26
f 25/25/25 26/26/26 27/27/27
f 25/25/25 27/27/27 28/28/28
f 25/25/25 28/28/28 29/29/29
f 25/25/25 29/29/29 30/30/30
f 25/25/25 30/30/30 22/22/22
f 25/25/25 22/22/22 21/21/21
f 31/31/31 32/32/32 22/22/22
f 31/31/31 22/22/22 30/30/30
f 31/31/31 30/30/30 29/29/29
f 31/31/31 29/29/29 33/33/33
f 31/31/31 33/33/33 5/5/5
f 31/31/31 5/5/5 4/4/4
f 31/31/31 4/4/4 3/3/3
f 31/31/31 3/3/3 32/32/32
f 34/34/34 35/35/35 24/24/24
f 34/34/34 24/24/24 23/23/23
f 34/34/34 23/23/23 22/22/22
f 34/34/34 22/22/22 32/32/32
f 34/34/34 32/32/32 3/3/3
f 34/34/34 3/3/3 13/13/13
f 34/34/34 13/13/13 12/12/12
f 34/34/34 12/12/12 35/35/35
f 36/36/36 37/37/37 38/38/38
f 36/36/36 38/38/38 39/39/39
f 36/36/36 39/39/39 40/40/40
f 36/36/36 40/40/40 41/41/41
f 36/36/36 41/41/41 20/20/20
f 36/36/36 20/20/20 19/19/19
f 36/36/36 19/19/19 18/18/18
f 36/36/36 18/18/18 37/37/37
f 42/42/42 41/41/41 40/40/40
f 42/42/42 40/40/40 43/43/43
f 42/42/42 43/43/43 44/44/44
f 42/42/42 44/44/44 45/45/45
f 42/42/42 45/45/45 27/27/27
f 42/42/42 27/27/27 26/26/26
f 42/42/42 26/26/26 20/20/20
f 42/42/42 20/20/20 41/41/41
f 46/46/46 47/47/47 48/48/48
f 46/46/46 48/48/48 49/49/49
f 46/46/46 49/49/49 50/50/50
f 46/46/46 50/50/50 51/51/51
f 46/46/46 51/51/51 52/52/52
f 46/46/46 52/52/52 53/53/53
f 46/46/46 53/53/53 54/54/54
f 46/46/46 54/54/54 47/47/47
f 55/55/55 56/56/56 57/57/57
f 55/55/55 57/57/57 58/58/58
f 55/55/55 58/58/58 48/48/48
f 55/55/55 48/48/48 47/47/47
f 55/55/55 47/47/47 54/54/54
f 55/55/55 54/54/54 59/59/59
f 55/55/55 59/59/59 60/60/60
f 55/55/55 60/60/60 56/56/56
f 61/61/61 62/62/62 63/63/63
f 61/61/61 63/63/63 64/64/64
f 61/61/61 64/64/64 65/65/65
f 61/61/61 65/65/65 66/66/66
f 61/61/61 66/66/66 67/67/67
f 61/61/61 67/67/67 68/68/68
f 61/61/61 68/68/68 69/69/69
f 61/61/61 69/69/69 62/62/62
f 70/70/70 66/66/66 65/65/65
f 70/70/70 65/65/65 71/71/71
f 70/70/70 71/71/71 72/72/72
f 70/70/70 72/72/72 73/73/73
f 70/70/70 73/73/73 74/74/74
f 70/70/70 74/74/74 75/75/75
f 70/70/70 75/75/75 67/67/67
f 70/70/70 67/67/67 66/66/66
f 76/76/76 77/77/77 54/54/54
f 76/76/76 54/54/54 53/53/53
f 76/76/76 53/53/53 52/52/52
f 76/76/76 52/52/52 78/78/78
f 76/76/76 78/78/78 72/72/72
f 76/76/76 72/72/72 71/71/71
f 76/76/76 71/71/71 65/65/65
f 76/76/76 65/65/65 77/77/77
f 79/79/79 80/80/80 60/60/60
f 79/79/79 60/60/60 59/59/59
f 79/79/79 59/59/59 54/54/54
f 79/79/79 54/54/54 77/77/77
f 79/79/79 77/77/77 65/65/65
f 79/79/79 65/65/65 64/64/64
f 79/79/79 64/64/64 63/63/63
f 79/79/79 63/63/63 80/80/80
f 81/81/81 82/82/82 69/69/69
f 81/81/81 69/69/69 68/68/68
f 81/81/81 68/68/68 67/67/67
f 81/81/81 67/67/67 83/83/83
f 81/81/81 83/83/83 84/84/84
f 81/81/81 84/84/84 85/85/85
f 81/81/81 85/85/85 86/86/86
f 81/81/81 86/86/86 82/82/82
f 87/87/87 83/83/83 67/67/67
f 87/87/87 67/67/67 75/75/75
f 87/87/87 75/75/75 74/74/74
f 87/87/87 74/74/74 88/88/88
f 87/87/87 88/88/88 89/89/89
f 87/87/87 89/89/89 90/90/90
f 87/87/87 90/90/90 84/84/84
f 87/87/87 84/84/84 83/83/83
f 91/91/91 92/92/92 38/38/38
f 91/91/91 38/38/38 37/37/37
f 91/91/91 37/37/37 18/18/18
f 91/91/91 18/18/18 93/93/93
f 91/91/91 93/93/93 69/69/69
f 91/91/91 69/69/69 82/82/82
f 91/91/91 82/82/82 94/94/94
f 91/91/91 94/94/94 92/92/92
f 95/95/95 96/96/96 44/44/44
f 95/95/95 44/44/44 43/43/43
f 95/95/95 43/43/43 40/40/40
f 95/95/95 40/40/40 97/97/97
f 95/95/95 97/97/97 84/84/84
f 95/95/95 84/84/84 90/90/90
f 95/95/95 90/90/90 98/98/98
f 95/95/95 98/98/98 96/96/96
f 99/99/99 100/100/100 7/7/7
f 99/99/99 7/7/7 6/6/6
f 99/99/99 6/6/6 5/5/5
f 99/99/99 5/5/5 101/101/101
f 99/99/99 101/101/101 52/52/52
f 99/99/99 52/52/52 51/51/51
f 99/99/99 51/51/51 102/102/102
f 99/99/99 102/102/102 100/100/100
f 103/103/103 104/104/104 15/15/15
f 103/103/103 15/15/15 14/14/14
f 103/103/103 14/14/14 9/9/9
f 103/103/103 9/9/9 105/105/105
f 103/103/103 105/105/105 48/48/48
f 103/103/103 48/48/48 58/58/58
f 103/103/103 58/58/58 106/106/106
f 103/103/103 106/106/106 104/104/104
f 107/107/107 108/108/108 12/12/12
f 107/107/107 12/12/12 11/11/11
f 107/107/107 11/11/11 15/15/15
f 107/107/107 15/15/15 104/104/104
f 107/107/107 104/104/104 106/106/106
f 107/107/107 106/106/106 56/56/56
f 107/107/107 56/56/56 60/60/60
f 107/107/107 60/60/60 108/108/108
f 109/109/109 97/97/97 40/40/40
f 109/109/109 40/40/40 39/39/39
f 109/109/109 39/39/39 38/38/38
f 109/109/109 38/38/38 92/92/92
f 109/109/109 92/92/92 94/94/94
f 109/109/109 94/94/94 85/85/85
f 109/109/109 85/85/85 84/84/84
f 109/109/109 84/84/84 97/97/97
f 110/110/110 111/111/111 27/27/27
f 110/110/110 27/27/27 45/45/45
f 110/110/110 45/45/45 44/44/44
f 110/110/110 44/44/44 96/96/96
f 110/110/110 96/96/96 98/98/98
f 110/110/110 98/98/98 88/88/88
f 110/110/110 88/88/88 74/74/74
f 110/110/110 74/74/74 111/111/111
f 112/112/112 105/105/105 9/9/9
f 112/112/112 9/9/9 8/8/8
f 112/112/112 8/8/8 7/7/7
f 112/112/112 7/7/7 100/100/100
f 112/112/112 100/100/100 102/102/102
f 112/112/112 102/102/102 49/49/49
f 112/112/112 49/49/49 48/48/48
f 112/112/112 48/48/48 105/105/105
f 113/113/113 101/101/101 5/5/5
f 113/113/113 5/5/5 33/33/33
f 113/113/113 33/33/33 29/29/29
f 113/113/113 29/29/29 114/114/114
f 113/113/113 114/114/114 72/72/72
f 113/113/113 72/72/72 78/78/78
f 113/113/113 78/78/78 52/52/52
f 113/113/113 52/52/52 101/101/101
f 115/115/115 116/116/116 24/24/24
f 115/115/115 24/24/24 35/35/35
f 115/115/115 35/35/35 12/12/12
f 115/115/115 12/12/12 108/108/108
f 115/115/115 108/108/108 60/60/60
f 115/115/115 60/60/60 80/80/80
f 115/115/115 80/80/80 63/63/63
f 115/115/115 63/63/63 116/116/116
f 117/117/117 93/93/93 18/18/18
f 117/117/117 18/18/18 17/17/17
f 117/117/117 17/17/17 24/24/24
f 117/117/117 24/24/24 116/116/116
f 117/117/117 116/116/116 63/63/63
f 117/117/117 63/63/63 62/62/62
f 117/117/117 62/62/62 69/69/69
f 117/117/117 69/69/69 93/93/93
f 118/118/118 114/114/114 29/29/29
f 118/118/118 29/29/29 28/28/28
f 118/118/118 28/28/28 27/27/27
f 118/118/118 27/27/27 111/111/111
f 118/118/118 111/111/111 74/74/74
f 118/118/118 74/74/74 73/73/73
f 118/118/118 73/73/73 72/72/72
f 118/118/118 72/72/72 114/114/114
