v -2.356912 0.793675 -1.147518
v -2.354268 0.793833 -1.147405
v -2.354752 0.792001 -1.150384
v -2.35769 0.791961 -1.150147
v -2.359972 0.792061 -1.150233
v -2.359009 0.793575 -1.148074
v -2.357895 0.79432 -1.146684
v -2.356241 0.794778 -1.145607
v -2.353891 0.79507 -1.145162
v -2.351918 0.794116 -1.1486
v -2.35025 0.794348 -1.149973
v -2.350022 0.792939 -1.152389
v -2.352014 0.792462 -1.151377
v -2.351918 0.795159 -1.146544
v -2.350802 0.794946 -1.148221
v -2.353211 0.785164 -1.159592
v -2.351182 0.785523 -1.160263
v -2.352004 0.782572 -1.162521
v -2.353795 0.782245 -1.161913
v -2.35621 0.781905 -1.161226
v -2.355945 0.784787 -1.158828
v -2.355625 0.787484 -1.156253
v -2.35277 0.787898 -1.157069
v -2.350656 0.788303 -1.157799
v -2.358773 0.784673 -1.158386
v -2.358714 0.781811 -1.160847
v -2.360624 0.781811 -1.160653
v -2.360927 0.784663 -1.158151
v -2.36085 0.787403 -1.155589
v -2.358588 0.787385 -1.155808
v -2.358238 0.789839 -1.152986
v -2.355216 0.789887 -1.153386
v -2.360559 0.789936 -1.152844
v -2.352335 0.79036 -1.154266
v -2.350213 0.79085 -1.155086
v -2.354664 0.779229 -1.164112
v -2.353339 0.779509 -1.164614
v -2.354402 0.777695 -1.165609
v -2.35541 0.776907 -1.16569
v -2.356624 0.776676 -1.165266
v -2.356456 0.778946 -1.163562
v -2.358335 0.778905 -1.163316
v -2.357926 0.776685 -1.165145
v -2.358928 0.777296 -1.164628
v -2.359775 0.778941 -1.163219
v -2.356898 0.793444 -1.147366
v -2.354216 0.793602 -1.147259
v -2.353852 0.794896 -1.145056
v -2.356233 0.794602 -1.145496
v -2.357897 0.794191 -1.146599
v -2.359018 0.793402 -1.147957
v -2.359974 0.791893 -1.150109
v -2.357671 0.791736 -1.149986
v -2.354698 0.791777 -1.150229
v -2.351829 0.793891 -1.148464
v -2.350165 0.794184 -1.149876
v -2.350744 0.794823 -1.14815
v -2.35185 0.794989 -1.146446
v -2.351928 0.792243 -1.151231
v -2.34994 0.792778 -1.152284
v -2.353128 0.784977 -1.159403
v -2.351108 0.785385 -1.160125
v -2.350581 0.788157 -1.15767
v -2.352687 0.7877 -1.156892
v -2.355568 0.787282 -1.15607
v -2.355886 0.784596 -1.158633
v -2.35615 0.781722 -1.161023
v -2.353712 0.782066 -1.161717
v -2.351929 0.782439 -1.162377
v -2.358738 0.784482 -1.158187
v -2.358557 0.787182 -1.15562
v -2.36084 0.787251 -1.155446
v -2.360913 0.784519 -1.158
v -2.360609 0.781673 -1.160496
v -2.358678 0.781628 -1.16064
v -2.358212 0.789625 -1.152812
v -2.35516 0.789673 -1.153218
v -2.360554 0.789776 -1.152711
v -2.352251 0.790151 -1.154104
v -2.350136 0.790695 -1.154969
v -2.354578 0.779053 -1.163913
v -2.353262 0.779379 -1.164469
v -2.356395 0.778767 -1.163357
v -2.356579 0.776543 -1.165112
v -2.355345 0.776776 -1.165541
v -2.354348 0.777599 -1.1655
v -2.3583 0.778724 -1.163106
v -2.359763 0.778805 -1.16306
v -2.358915 0.777196 -1.16451
v -2.357901 0.77655 -1.164987
v -2.35286 0.779545 -1.164718
v -2.354444 0.77711 -1.16606
v -2.351371 0.782622 -1.162661
v -2.354348 0.777599 -1.1655
v -2.357779 0.775886 -1.165684
v -2.358978 0.77671 -1.165078
v -2.356661 0.77586 -1.165765
v -2.358915 0.777196 -1.16451
v -2.359716 0.793465 -1.148207
v -2.358175 0.794419 -1.146519
v -2.360737 0.792019 -1.150205
v -2.357897 0.794191 -1.146599
v -2.351888 0.795431 -1.145815
v -2.3505 0.795097 -1.148183
v -2.353748 0.795405 -1.144368
v -2.350744 0.794823 -1.14815
v -2.349653 0.794353 -1.150388
v -2.349318 0.793027 -1.152681
v -2.35563 0.776075 -1.16615
v -2.360253 0.778893 -1.163116
v -2.361257 0.781749 -1.160518
v -2.356014 0.795067 -1.144921
v -2.361333 0.789897 -1.152737
v -2.361603 0.787342 -1.155452
v -2.349468 0.790945 -1.155308
v -2.349916 0.788373 -1.157986
v -2.35047 0.785582 -1.160426
v -2.361642 0.784596 -1.158005
vn 0.0327 0.8474 -0.5299
vn -0.1794 0.8599 -0.4778
vn -0.1875 0.8282 -0.528
vn 0.0016 0.8167 -0.577
vn -0.0109 0.8028 -0.5962
vn 0.0247 0.848 -0.5293
vn 0.0489 0.8762 -0.4794
vn 0.006 0.8954 -0.4451
vn -0.1655 0.9031 -0.3961
vn -0.3889 0.8102 -0.4385
vn -0.3816 0.8122 -0.4413
vn -0.3697 0.7711 -0.5184
vn -0.3753 0.7834 -0.4953
vn -0.3382 0.865 -0.3705
vn -0.3875 0.8377 -0.3848
vn -0.3186 0.6493 -0.6906
vn -0.284 0.6484 -0.7063
vn -0.2835 0.6242 -0.728
vn -0.3286 0.6229 -0.7099
vn -0.2173 0.6295 -0.7459
vn -0.2141 0.6619 -0.7183
vn -0.2067 0.7232 -0.659
vn -0.3246 0.7019 -0.634
vn -0.3004 0.6942 -0.6541
vn -0.1069 0.668 -0.7364
vn -0.1015 0.643 -0.7591
vn -0.1496 0.6361 -0.757
vn -0.1443 0.6607 -0.7366
vn -0.1157 0.7105 -0.6941
vn -0.0871 0.7228 -0.6855
vn -0.0464 0.7786 -0.6257
vn -0.1967 0.7846 -0.5879
vn -0.066 0.7623 -0.6438
vn -0.3458 0.7523 -0.5608
vn -0.333 0.7387 -0.586
vn -0.3537 0.6076 -0.7111
vn -0.3062 0.6062 -0.734
vn -0.3374 0.588 -0.7351
vn -0.3775 0.5587 -0.7384
vn -0.2218 0.5685 -0.7921
vn -0.2186 0.6139 -0.7585
vn -0.077 0.6321 -0.771
vn -0.0586 0.587 -0.8075
vn -0.0979 0.6092 -0.7869
vn -0.1285 0.6219 -0.7725
vn -0.0572 -0.8318 0.5521
vn 0.1817 -0.8515 0.4918
vn 0.1901 -0.8169 0.5446
vn -0.1315 -0.7801 0.6116
vn -0.2427 -0.735 0.6331
vn -0.2203 -0.7479 0.6261
vn -0.1514 -0.7638 0.6274
vn -0.0166 -0.8145 0.5799
vn 0.1875 -0.8283 0.5279
vn 0.4174 -0.7899 0.4492
vn 0.5801 -0.6771 0.4527
vn 0.6008 -0.6604 0.4504
vn 0.4998 -0.7243 0.4749
vn 0.3895 -0.7787 0.4918
vn 0.5214 -0.7044 0.4816
vn 0.3338 -0.6476 0.685
vn 0.4366 -0.6319 0.6404
vn 0.4423 -0.6671 0.5994
vn 0.3387 -0.6995 0.6293
vn 0.2067 -0.7231 0.6591
vn 0.2141 -0.6618 0.7185
vn 0.2173 -0.6294 0.746
vn 0.3461 -0.6224 0.702
vn 0.459 -0.6241 0.6323
vn 0.0907 -0.6691 0.7376
vn 0.0721 -0.723 0.6871
vn -0.0384 -0.7095 0.7036
vn -0.0222 -0.6724 0.7398
vn -0.0469 -0.6688 0.742
vn 0.0825 -0.6457 0.7591
vn 0.0319 -0.778 0.6275
vn 0.1967 -0.7846 0.5879
vn -0.0858 -0.7484 0.6577
vn 0.3594 -0.749 0.5565
vn 0.4725 -0.6991 0.5366
vn 0.3762 -0.6183 0.6901
vn 0.5035 -0.6348 0.586
vn 0.2178 -0.6235 0.7509
vn 0.2139 -0.6641 0.7163
vn 0.4368 -0.6553 0.6163
vn 0.5283 -0.6442 0.553
vn 0.05 -0.6471 0.7607
vn -0.1042 -0.6885 0.7177
vn -0.1385 -0.7031 0.6974
vn -0.0284 -0.6964 0.7171
vn 0.813 -0.0799 -0.5767
vn 0.5537 -0.3444 -0.7581
vn 0.8826 0.0103 -0.47
vn 0.5283 -0.6442 0.553
vn -0.3041 -0.7489 -0.5887
vn -0.7501 -0.4593 -0.4758
vn -0.041 -0.8447 -0.5337
vn -0.1385 -0.7031 0.6974
vn -0.8852 0.368 0.2847
vn -0.6969 0.5061 0.508
vn -0.9628 0.2239 0.1512
vn -0.2427 -0.735 0.6331
vn 0.5851 0.5524 0.5937
vn 0.7484 0.6339 0.1948
vn 0.1525 0.4424 0.8837
vn 0.6008 -0.6604 0.4504
vn 0.8485 0.5212 -0.0912
vn 0.8874 0.3875 -0.2497
vn 0.1562 -0.7082 -0.6884
vn -0.9523 -0.2355 -0.1942
vn -0.9858 -0.1545 -0.0649
vn -0.3727 0.4677 0.8014
vn -0.992 0.1003 0.0764
vn -0.9988 0.0195 0.0452
vn 0.9036 0.2679 -0.3343
vn 0.9104 0.1882 -0.3684
vn 0.9104 0.1071 -0.3996
vn -0.998 -0.0614 0.0139
vt 0.839504 0.118056
vt 0.856743 0.205307
vt 0.741230 0.205307
vt 0.734555 0.106726
vt 0.724541 0.032791
vt 0.813647 0.052618
vt 0.868992 0.081539
vt 0.913398 0.129584
vt 0.940923 0.205307
vt 0.839504 0.292557
vt 0.813647 0.357995
vt 0.724541 0.377822
vt 0.734555 0.303887
vt 0.913398 0.281029
vt 0.868992 0.329074
vt 0.369475 0.299954
vt 0.368286 0.370940
vt 0.245840 0.351447
vt 0.246397 0.288815
vt 0.246768 0.205307
vt 0.370268 0.205307
vt 0.494283 0.205307
vt 0.492822 0.304944
vt 0.490632 0.379672
vt 0.369475 0.110659
vt 0.246397 0.121798
vt 0.245841 0.059166
vt 0.368286 0.039673
vt 0.490632 0.030941
vt 0.492822 0.105669
vt 0.616755 0.103478
vt 0.619174 0.205307
vt 0.613127 0.027106
vt 0.616755 0.307135
vt 0.613126 0.383507
vt 0.123273 0.268175
vt 0.123047 0.315326
vt 0.054743 0.283353
vt 0.030912 0.249131
vt 0.030973 0.205306
vt 0.123423 0.205306
vt 0.123273 0.142438
vt 0.030912 0.161481
vt 0.054744 0.127260
vt 0.123047 0.095287
vt 0.839504 0.118056
vt 0.856743 0.205307
vt 0.968983 0.205307
vt 0.938030 0.133427
vt 0.876123 0.061548
vt 0.805028 0.030806
vt 0.721203 0.008146
vt 0.734555 0.106726
vt 0.741230 0.205307
vt 0.839504 0.292557
vt 0.805028 0.379807
vt 0.876123 0.349065
vt 0.938030 0.277186
vt 0.734555 0.303887
vt 0.721203 0.402467
vt 0.369475 0.299954
vt 0.367890 0.394602
vt 0.489902 0.404581
vt 0.492822 0.304944
vt 0.494283 0.205307
vt 0.370268 0.205307
vt 0.246768 0.205307
vt 0.246397 0.288815
vt 0.245655 0.372324
vt 0.369475 0.110659
vt 0.492822 0.105669
vt 0.489902 0.006032
vt 0.367890 0.016011
vt 0.245655 0.038289
vt 0.246397 0.121798
vt 0.616755 0.103478
vt 0.619174 0.205307
vt 0.611917 0.001649
vt 0.616755 0.307135
vt 0.611917 0.408964
vt 0.123273 0.268175
vt 0.122972 0.331043
vt 0.123423 0.205306
vt 0.000156 0.205306
vt 0.000125 0.242784
vt 0.000064 0.280261
vt 0.123273 0.142438
vt 0.122972 0.079570
vt 0.000064 0.130352
vt 0.000125 0.167829
vt 0.122972 0.331043
vt 0.030806 0.283587
vt 0.245655 0.372324
vt 0.030806 0.283587
vt 0.000125 0.167829
vt 0.030806 0.127026
vt 0.000156 0.205306
vt 0.030806 0.127026
vt 0.805028 0.030806
vt 0.873826 0.071832
vt 0.721203 0.008146
vt 0.873826 0.071832
vt 0.938030 0.277186
vt 0.873826 0.338781
vt 0.968983 0.205307
vt 0.873826 0.338781
vt 0.805028 0.379807
vt 0.721203 0.402467
vt 0.000125 0.242784
vt 0.122972 0.079570
vt 0.245655 0.038289
vt 0.938030 0.133427
vt 0.611917 0.001649
vt 0.489902 0.006032
vt 0.611917 0.408964
vt 0.489902 0.404581
vt 0.367890 0.394602
vt 0.367890 0.016011
f 1/1/1 2/2/2 3/3/3
f 1/1/1 3/3/3 4/4/4
f 1/1/1 4/4/4 5/5/5
f 1/1/1 5/5/5 6/6/6
f 1/1/1 6/6/6 7/7/7
f 1/1/1 7/7/7 8/8/8
f 1/1/1 8/8/8 9/9/9
f 1/1/1 9/9/9 2/2/2
f 10/10/10 11/11/11 12/12/12
f 10/10/10 12/12/12 13/13/13
f 10/10/10 13/13/13 3/3/3
f 10/10/10 3/3/3 2/2/2
f 10/10/10 2/2/2 9/9/9
f 10/10/10 9/9/9 14/14/14
f 10/10/10 14/14/14 15/15/15
f 10/10/10 15/15/15 11/11/11
f 16/16/16 17/17/17 18/18/18
f 16/16/16 18/18/18 19/19/19
f 16/16/16 19/19/19 20/20/20
f 16/16/16 20/20/20 21/21/21
f 16/16/16 21/21/21 22/22/22
f 16/16/16 22/22/22 23/23/23
f 16/16/16 23/23/23 24/24/24
f 16/16/16 24/24/24 17/17/17
f 25/25/25 21/21/21 20/20/20
f 25/25/25 20/20/20 26/26/26
f 25/25/25 26/26/26 27/27/27
f 25/25/25 27/27/27 28/28/28
f 25/25/25 28/28/28 29/29/29
f 25/25/25 29/29/29 30/30/30
f 25/25/25 30/30/30 22/22/22
f 25/25/25 22/22/22 21/21/21
f 31/31/31 32/32/32 22/22/22
f 31/31/31 22/22/22 30/30/30
f 31/31/31 30/30/30 29/29/29
f 31/31/31 29/29/29 33/33/33
f 31/31/31 33/33/33 5/5/5
f 31/31/31 5/5/5 4/4/4
f 31/31/31 4/4/4 3/3/3
f 31/31/31 3/3/3 32/32/32
f 34/34/34 35/35/35 24/24/24
f 34/34/34 24/24/24 23/23/23
f 34/34/34 23/23/23 22/22/22
f 34/34/34 22/22/22 32/32/32
f 34/34/34 32/32/32 3/3/3
f 34/34/34 3/3/3 13/13/13
f 34/34/34 13/13/13 12/12/12
f 34/34/34 12/12/12 35/35/35
f 36/36/36 37/37/37 38/38/38
f 36/36/36 38/38/38 39/39/39
f 36/36/36 39/39/39 40/40/40
f 36/36/36 40/40/40 41/41/41
f 36/36/36 41/41/41 20/20/20
f 36/36/36 20/20/20 19/19/19
f 36/36/36 19/19/19 18/18/18
f 36/36/36 18/18/18 37/37/37
f 42/42/42 41/41/41 40/40/40
f 42/42/42 40/40/40 43/43/43
f 42/42/42 43/43/43 44/44/44
f 42/42/42 44/44/44 45/45/45
f 42/42/42 45/45/45 27/27/27
f 42/42/42 27/27/27 26/26/26
f 42/42/42 26/26/26 20/20/20
f 42/42/42 20/20/20 41/41/41
f 46/46/46 47/47/47 48/48/48
f 46/46/46 48/48/48 49/49/49
f 46/46/46 49/49/49 50/50/50
f 46/46/46 50/50/50 51/51/51
f 46/46/46 51/51/51 52/52/52
f 46/46/46 52/52/52 53/53/53
f 46/46/46 53/53/53 54/54/54
f 46/46/46 54/54/54 47/47/47
f 55/55/55 56/56/56 57/57/57
f 55/55/55 57/57/57 58/58/58
f 55/55/55 58/58/58 48/48/48
f 55/55/55 48/48/48 47/47/47
f 55/55/55 47/47/47 54/54/54
f 55/55/55 54/54/54 59/59/59
f 55/55/55 59/59/59 60/60/60
f 55/55/55 60/60/60 56/56/56
f 61/61/61 62/62/62 63/63/63
f 61/61/61 63/63/63 64/64/64
f 61/61/61 64/64/64 65/65/65
f 61/61/61 65/65/65 66/66/66
f 61/61/61 66/66/66 67/67/67
f 61/61/61 67/67/67 68/68/68
f 61/61/61 68/68/68 69/69/69
f 61/61/61 69/69/69 62/62/62
f 70/70/70 66/66/66 65/65/65
f 70/70/70 65/65/65 71/71/71
f 70/70/70 71/71/71 72/72/72
f 70/70/70 72/72/72 73/73/73
f 70/70/70 73/73/73 74/74/74
f 70/70/70 74/74/74 75/75/75
f 70/70/70 75/75/75 67/67/67
f 70/70/70 67/67/67 66/66/66
f 76/76/76 77/77/77 54/54/54
f 76/76/76 54/54/54 53/53/53
f 76/76/76 53/53/53 52/52/52
f 76/76/76 52/52/52 78/78/78
f 76/76/76 78/78/78 72/72/72
f 76/76/76 72/72/72 71/71/71
f 76/76/76 71/71/71 65/65/65
f 76/76/76 65/65/65 77/77/77
f 79/79/79 80/80/80 60/60/60
f 79/79/79 60/60/60 59/59/59
f 79/79/79 59/59/59 54/54/54
f 79/79/79 54/54/54 77/77/77
f 79/79/79 77/77/77 65/65/65
f 79/79/79 65/65/65 64/64/64
f 79/79/79 64/64/64 63/63/63
f 79/79/79 63/63/63 80/80/80
f 81/81/81 82/82/82 69/69/69
f 81/81/81 69/69/69 68/68/68
f 81/81/81 68/68/68 67/67/67
f 81/81/81 67/67/67 83/83/83
f 81/81/81 83/83/83 84/84/84
f 81/81/81 84/84/84 85/85/85
f 81/81/81 85/85/85 86/86/86
f 81/81/81 86/86/86 82/82/82
f 87/87/87 83/83/83 67/67/67
f 87/87/87 67/67/67 75/75/75
f 87/87/87 75/75/75 74/74/74
f 87/87/87 74/74/74 88/88/88
f 87/87/87 88/88/88 89/89/89
f 87/87/87 89/89/89 90/90/90
f 87/87/87 90/90/90 84/84/84
f 87/87/87 84/84/84 83/83/83
f 91/91/91 92/92/92 38/38/38
f 91/91/91 38/38/38 37/37/37
f 91/91/91 37/37/37 18/18/18
f 91/91/91 18/18/18 93/93/93
f 91/91/91 93/93/93 69/69/69
f 91/91/91 69/69/69 82/82/82
f 91/91/91 82/82/82 94/94/94
f 91/91/91 94/94/94 92/92/92
f 95/95/95 96/96/96 44/44/44
f 95/95/95 44/44/44 43/43/43
f 95/95/95 43/43/43 40/40/40
f 95/95/95 40/40/40 97/97/97
f 95/95/95 97/97/97 84/84/84
f 95/95/95 84/84/84 90/90/90
f 95/95/95 90/90/90 98/98/98
f 95/95/95 98/98/98 96/96/96
f 99/99/99 100/100/100 7/7/7
f 99/99/99 7/7/7 6/6/6
f 99/99/99 6/6/6 5/5/5
f 99/99/99 5/5/5 101/101/101
f 99/99/99 101/101/101 52/52/52
f 99/99/99 52/52/52 51/51/51
f 99/99/99 51/51/51 102/102/102
f 99/99/99 102/102/102 100/100/100
f 103/103/103 104/104/104 15/15/15
f 103/103/103 15/15/15 14/14/14
f 103/103/103 14/14/14 9/9/9
f 103/103/103 9/9/9 105/105/105
f 103/103/103 105/105/105 48/48/48
f 103/103/103 48/48/48 58/58/58
f 103/103/103 58/58/58 106/106/106
f 103/103/103 106/106/106 104/104/104
f 107/107/107 108/108/108 12/12/12
f 107/107/107 12/12/12 11/11/11
f 107/107/107 11/11/11 15/15/15
f 107/107/107 15/15/15 104/104/104
f 107/107/107 104/104/104 106/106/106
f 107/107/107 106/106/106 56/56/56
f 107/107/107 56/56/56 60/60/60
f 107/107/107 60/60/60 108/108/108
f 109/109/109 97/97/97 40/40/40
f 109/109/109 40/40/40 39/39/39
f 109/109/109 39/39/39 38/38/38
f 109/109/109 38/38/38 92/92/92
f 109/109/109 92/92/92 94/94/94
f 109/109/109 94/94/94 85/85/85
f 109/109/109 85/85/85 84/84/84
f 109/109/109 84/84/84 97/97/97
f 110/110/110 111/111/111 27/27/27
f 110/110/110 27/27/27 45/45/45
f 110/110/110 45/45/45 44/44/44
f 110/110/110 44/44/44 96/96/96
f 110/110/110 96/96/96 98/98/98
f 110/110/110 98/98/98 88/88/88
f 110/110/110 88/88/88 74/74/74
f 110/110/110 74/74/74 111/111/111
f 112/112/112 105/105/105 9/9/9
f 112/112/112 9/9/9 8/8/8
f 112/112/112 8/8/8 7/7/7
f 112/112/112 7/7/7 100/100/100
f 112/112/112 100/100/100 102/102/102
f 112/112/112 102/102/102 49/49/49
f 112/112/112 49/49/49 48/48/48
f 112/112/112 48/48/48 105/105/105
f 113/113/113 101/101/101 5/5/5
f 113/113/113 5/5/5 33/33/33
f 113/113/113 33/33/33 29/29/29
f 113/113/113 29/29/29 114/114/114
f 113/113/113 114/114/114 72/72/72
f 113/113/113 72/72/72 78/78/78
f 113/113/113 78/78/78 52/52/52
f 113/113/113 52/52/52 101/101/101
f 115/115/115 116/116/116 24/24/24
f 115/115/115 24/24/24 35/35/35
f 115/115/115 35/35/35 12/12/12
f 115/115/115 12/12/12 108/108/108
f 115/115/115 108/108/108 60/60/60
f 115/115/115 60/60/60 80/80/80
f 115/115/115 80/80/80 63/63/63
f 115/115/115 63/63/63 116/116/116
f 117/117/117 93/93/93 18/18/18
f 117/117/117 18/18/18 17/17/17
f 117/117/117 17/17/17 24/24/24
f 117/117/117 24/24/24 116/116/116
f 117/117/117 116/116/116 63/63/63
f 117/117/117 63/63/63 62/62/62
f 117/117/117 62/62/62 69/69/69
f 117/117/117 69/69/69 93/93/93
f 118/118/118 114/114/114 29/29/29
f 118/118/118 29/29/29 28/28/28
f 118/118/118 28/28/28 27/27/27
f 118/118/118 27/27/27 111/111/111
f 118/118/118 111/111/111 74/74/74
f 118/118/118 74/74/74 73/73/73
f 118/118/118 73/73/73 72/72/72
f 118/118/118 72/72/72 114/114/114
