v -2.412477 0.750406 -1.080049
v -2.410044 0.750879 -1.078992
v -2.409205 0.749087 -1.081985
v -2.412056 0.748684 -1.082816
v -2.41419 0.748513 -1.083717
v -2.414244 0.750074 -1.08133
v -2.413784 0.750907 -1.079614
v -2.412667 0.751527 -1.077999
v -2.410645 0.752088 -1.076733
v -2.407436 0.751493 -1.079287
v -2.405402 0.75198 -1.079994
v -2.404145 0.750677 -1.082199
v -2.406326 0.749918 -1.08195
v -2.408303 0.752468 -1.077339
v -2.406623 0.75245 -1.078532
v -2.4036 0.742724 -1.090137
v -2.401491 0.743355 -1.090048
v -2.401089 0.740365 -1.092469
v -2.402955 0.739797 -1.092532
v -2.405435 0.739137 -1.092743
v -2.406404 0.741985 -1.09039
v -2.407362 0.744646 -1.087847
v -2.40443 0.745439 -1.0876
v -2.402226 0.746129 -1.087537
v -2.409215 0.741514 -1.090985
v -2.40792 0.738727 -1.093282
v -2.40979 0.738489 -1.093784
v -2.41133 0.741235 -1.091535
v -2.412518 0.743911 -1.089092
v -2.410304 0.744173 -1.088487
v -2.411291 0.746584 -1.085696
v -2.408303 0.747011 -1.084991
v -2.413543 0.746398 -1.086395
v -2.405332 0.747869 -1.084796
v -2.403099 0.748648 -1.084817
v -2.402608 0.736733 -1.094912
v -2.401214 0.737194 -1.094916
v -2.401633 0.735274 -1.09623
v -2.402456 0.734361 -1.096664
v -2.403723 0.733966 -1.096695
v -2.404459 0.736211 -1.095031
v -2.406313 0.735934 -1.095472
v -2.404995 0.733814 -1.097048
v -2.406202 0.73429 -1.096921
v -2.407712 0.735794 -1.095898
v -2.41249 0.750169 -1.079897
v -2.410018 0.750648 -1.078834
v -2.410625 0.751913 -1.076618
v -2.412677 0.751347 -1.077889
v -2.4138 0.750774 -1.079533
v -2.414273 0.749895 -1.081221
v -2.414215 0.748338 -1.083599
v -2.412067 0.748453 -1.082654
v -2.409182 0.748861 -1.081817
v -2.407372 0.751272 -1.079124
v -2.405336 0.751821 -1.07987
v -2.406579 0.75233 -1.078442
v -2.408252 0.752301 -1.07722
v -2.406269 0.749702 -1.081778
v -2.404086 0.750521 -1.082069
v -2.403566 0.742537 -1.089926
v -2.401454 0.743219 -1.089889
v -2.402184 0.745985 -1.087386
v -2.404391 0.745242 -1.0874
v -2.407348 0.744443 -1.08765
v -2.406394 0.741793 -1.090182
v -2.405428 0.738953 -1.092528
v -2.402923 0.739619 -1.092314
v -2.401053 0.740234 -1.092305
v -2.409229 0.741317 -1.090782
v -2.410315 0.743965 -1.088296
v -2.412539 0.743754 -1.088951
v -2.411352 0.741086 -1.091385
v -2.409816 0.738346 -1.093629
v -2.407937 0.738538 -1.093072
v -2.411302 0.746364 -1.08552
v -2.408285 0.746796 -1.084809
v -2.413566 0.746231 -1.086266
v -2.405283 0.747661 -1.08461
v -2.403049 0.748498 -1.084677
v -2.402576 0.736558 -1.094692
v -2.401177 0.737067 -1.094749
v -2.404453 0.73603 -1.094813
v -2.403719 0.733831 -1.096532
v -2.402431 0.734231 -1.096498
v -2.401609 0.735179 -1.096107
v -2.406333 0.735748 -1.095259
v -2.40774 0.735652 -1.095741
v -2.406219 0.734186 -1.096804
v -2.405011 0.733675 -1.096888
v -2.40073 0.737292 -1.094843
v -2.401437 0.734696 -1.09667
v -2.400448 0.740497 -1.092375
v -2.401609 0.735179 -1.096107
v -2.404563 0.733046 -1.097502
v -2.406015 0.73371 -1.097362
v -2.403476 0.733158 -1.097177
v -2.406219 0.734186 -1.096804
v -2.41485 0.749883 -1.08171
v -2.414119 0.750967 -1.079558
v -2.414916 0.748378 -1.083966
v -2.4138 0.750774 -1.079533
v -2.408568 0.752718 -1.076638
v -2.406372 0.752637 -1.078387
v -2.410837 0.752413 -1.07593
v -2.406579 0.75233 -1.078442
v -2.404691 0.752073 -1.080174
v -2.403388 0.750862 -1.082224
v -2.402394 0.733513 -1.097174
v -2.408193 0.735684 -1.095971
v -2.410428 0.738346 -1.093883
v -2.412734 0.75182 -1.077267
v -2.414307 0.746261 -1.086571
v -2.413268 0.743754 -1.089231
v -2.402329 0.748842 -1.084761
v -2.40147 0.746296 -1.087449
v -2.400769 0.743506 -1.089948
v -2.412047 0.741076 -1.091652
vn 0.1116 0.8644 -0.4902
vn -0.105 0.8497 -0.5166
vn -0.091 0.8192 -0.5662
vn 0.1032 0.832 -0.5451
vn 0.1 0.8174 -0.5673
vn 0.1039 0.864 -0.4926
vn 0.1054 0.893 -0.4374
vn 0.0512 0.9057 -0.4207
vn -0.1263 0.8913 -0.4355
vn -0.3071 0.7742 -0.5535
vn -0.2996 0.777 -0.5536
vn -0.2562 0.7406 -0.6211
vn -0.2712 0.7513 -0.6017
vn -0.2908 0.832 -0.4724
vn -0.3281 0.7996 -0.503
vn -0.1332 0.6322 -0.7633
vn -0.0955 0.6359 -0.7658
vn -0.0844 0.6129 -0.7856
vn -0.1325 0.6055 -0.7847
vn -0.0173 0.6266 -0.7791
vn -0.0281 0.6581 -0.7524
vn -0.0497 0.7176 -0.6947
vn -0.1652 0.6815 -0.7129
vn -0.1348 0.6775 -0.723
vn 0.0769 0.6775 -0.7315
vn 0.093 0.6541 -0.7506
vn 0.0485 0.6415 -0.7655
vn 0.0432 0.6659 -0.7448
vn 0.0486 0.717 -0.6954
vn 0.0706 0.7324 -0.6772
vn 0.0804 0.7903 -0.6073
vn -0.073 0.7771 -0.6252
vn 0.0706 0.7725 -0.6311
vn -0.2169 0.7263 -0.6522
vn -0.1945 0.7153 -0.6712
vn -0.1535 0.5875 -0.7945
vn -0.1012 0.5926 -0.7991
vn -0.1276 0.5709 -0.811
vn -0.1599 0.537 -0.8282
vn 0.0022 0.5672 -0.8235
vn -0.0122 0.6114 -0.7912
vn 0.1214 0.6467 -0.753
vn 0.1568 0.6053 -0.7803
vn 0.1103 0.622 -0.7752
vn 0.0752 0.6305 -0.7725
vn -0.1442 -0.8526 0.5022
vn 0.1012 -0.8417 0.5304
vn 0.0861 -0.8082 0.5825
vn -0.2404 -0.8123 0.5313
vn -0.3567 -0.7815 0.5118
vn -0.3319 -0.7915 0.5132
vn -0.2664 -0.7991 0.5389
vn -0.1184 -0.8317 0.5424
vn 0.091 -0.8193 0.5661
vn 0.3272 -0.751 0.5735
vn 0.463 -0.62 0.6334
vn 0.481 -0.6007 0.6385
vn 0.3866 -0.677 0.6262
vn 0.285 -0.7448 0.6034
vn 0.4017 -0.6551 0.6399
vn 0.1491 -0.6285 0.7634
vn 0.2582 -0.599 0.7579
vn 0.2823 -0.6319 0.7218
vn 0.1797 -0.6773 0.7134
vn 0.0496 -0.7175 0.6948
vn 0.028 -0.6579 0.7525
vn 0.0173 -0.6265 0.7792
vn 0.1514 -0.6027 0.7834
vn 0.2808 -0.5884 0.7582
vn -0.0923 -0.6805 0.7269
vn -0.0851 -0.7343 0.6734
vn -0.1951 -0.7347 0.6497
vn -0.1975 -0.6973 0.689
vn -0.2217 -0.6966 0.6823
vn -0.1103 -0.6591 0.7439
vn -0.0946 -0.7914 0.6038
vn 0.073 -0.7771 0.6251
vn -0.2181 -0.7772 0.5903
vn 0.2307 -0.7213 0.653
vn 0.3363 -0.6577 0.674
vn 0.1831 -0.5946 0.7829
vn 0.3399 -0.5921 0.7307
vn 0.0153 -0.6207 0.7839
vn 0.0288 -0.6603 0.7505
vn 0.2698 -0.6213 0.7356
vn 0.3757 -0.5972 0.7086
vn -0.1409 -0.6644 0.7339
vn -0.2638 -0.7221 0.6395
vn -0.2866 -0.7399 0.6085
vn -0.1922 -0.7209 0.6658
vn 0.9671 0.0386 -0.2514
vn 0.823 -0.2479 -0.511
vn 0.9829 0.1325 -0.1275
vn 0.3757 -0.5972 0.7086
vn 0.0175 -0.7574 -0.6527
vn -0.4717 -0.5271 -0.7068
vn 0.2539 -0.8232 -0.5077
vn -0.2866 -0.7399 0.6085
vn -0.9671 0.2496 -0.0494
vn -0.888 0.4009 0.2253
vn -0.9743 0.1026 -0.2003
vn -0.3567 -0.7815 0.5118
vn 0.2656 0.5954 0.7582
vn 0.5473 0.7106 0.442
vn -0.224 0.4243 0.8774
vn 0.481 -0.6007 0.6385
vn 0.7546 0.6212 0.2113
vn 0.863 0.4991 0.0778
vn 0.4744 -0.6589 -0.5838
vn -0.7864 -0.339 -0.5164
vn -0.873 -0.2673 -0.408
vn -0.6854 0.3904 0.6146
vn -0.9598 -0.0208 -0.2799
vn -0.9449 -0.1011 -0.3113
vn 0.9228 0.3851 0.0047
vn 0.9511 0.3077 -0.0245
vn 0.972 0.229 -0.0528
vn -0.9233 -0.1798 -0.3394
vt 0.839504 0.118056
vt 0.856743 0.205307
vt 0.741230 0.205307
vt 0.734555 0.106726
vt 0.724541 0.032791
vt 0.813647 0.052618
vt 0.868992 0.081539
vt 0.913398 0.129584
vt 0.940923 0.205307
vt 0.839504 0.292557
vt 0.813647 0.357995
vt 0.724541 0.377822
vt 0.734555 0.303887
vt 0.913398 0.281029
vt 0.868992 0.329074
vt 0.369475 0.299954
vt 0.368286 0.370940
vt 0.245840 0.351447
vt 0.246397 0.288815
vt 0.246768 0.205307
vt 0.370268 0.205307
vt 0.494283 0.205307
vt 0.492822 0.304944
vt 0.490632 0.379672
vt 0.369475 0.110659
vt 0.246397 0.121798
vt 0.245841 0.059166
vt 0.368286 0.039673
vt 0.490632 0.030941
vt 0.492822 0.105669
vt 0.616755 0.103478
vt 0.619174 0.205307
vt 0.613127 0.027106
vt 0.616755 0.307135
vt 0.613126 0.383507
vt 0.123273 0.268175
vt 0.123047 0.315326
vt 0.054743 0.283353
vt 0.030912 0.249131
vt 0.030973 0.205306
vt 0.123423 0.205306
vt 0.123273 0.142438
vt 0.030912 0.161481
vt 0.054744 0.127260
vt 0.123047 0.095287
vt 0.839504 0.118056
vt 0.856743 0.205307
vt 0.968983 0.205307
vt 0.938030 0.133427
vt 0.876123 0.061548
vt 0.805028 0.030806
vt 0.721203 0.008146
vt 0.734555 0.106726
vt 0.741230 0.205307
vt 0.839504 0.292557
vt 0.805028 0.379807
vt 0.876123 0.349065
vt 0.938030 0.277186
vt 0.734555 0.303887
vt 0.721203 0.402467
vt 0.369475 0.299954
vt 0.367890 0.394602
vt 0.489902 0.404581
vt 0.492822 0.304944
vt 0.494283 0.205307
vt 0.370268 0.205307
vt 0.246768 0.205307
vt 0.246397 0.288815
vt 0.245655 0.372324
vt 0.369475 0.110659
vt 0.492822 0.105669
vt 0.489902 0.006032
vt 0.367890 0.016011
vt 0.245655 0.038289
vt 0.246397 0.121798
vt 0.616755 0.103478
vt 0.619174 0.205307
vt 0.611917 0.001649
vt 0.616755 0.307135
vt 0.611917 0.408964
vt 0.123273 0.268175
vt 0.122972 0.331043
vt 0.123423 0.205306
vt 0.000156 0.205306
vt 0.000125 0.242784
vt 0.000064 0.280261
vt 0.123273 0.142438
vt 0.122972 0.079570
vt 0.000064 0.130352
vt 0.000125 0.167829
vt 0.122972 0.331043
vt 0.030806 0.283587
vt 0.245655 0.372324
vt 0.030806 0.283587
vt 0.000125 0.167829
vt 0.030806 0.127026
vt 0.000156 0.205306
vt 0.030806 0.127026
vt 0.805028 0.030806
vt 0.873826 0.071832
vt 0.721203 0.008146
vt 0.873826 0.071832
vt 0.938030 0.277186
vt 0.873826 0.338781
vt 0.968983 0.205307
vt 0.873826 0.338781
vt 0.805028 0.379807
vt 0.721203 0.402467
vt 0.000125 0.242784
vt 0.122972 0.079570
vt 0.245655 0.038289
vt 0.938030 0.133427
vt 0.611917 0.001649
vt 0.489902 0.006032
vt 0.611917 0.408964
vt 0.489902 0.404581
vt 0.367890 0.394602
vt 0.367890 0.016011
f 1/1/1 2/2/2 3/3/3
f 1/1/1 3/3/3 4/4/4
f 1/1/1 4/4/4 5/5/5
f 1/1/1 5/5/5 6/6/6
f 1/1/1 6/6/6 7/7/7
f 1/1/1 7/7/7 8/8/8
f 1/1/1 8/8/8 9/9/9
f 1/1/1 9/9/9 2/2/2
f 10/10/10 11/11/11 12/12/12
f 10/10/10 12/12/12 13/13/13
f 10/10/10 13/13/13 3/3/3
f 10/10/10 3/3/3 2/2/2
f 10/10/10 2/2/2 9/9/9
f 10/10/10 9/9/9 14/14/14
f 10/10/10 14/14/14 15/15/15
f 10/10/10 15/15/15 11/11/11
f 16/16/16 17/17/17 18/18/18
f 16/16/16 18/18/18 19/19/19
f 16/16/16 19/19/19 20/20/20
f 16/16/16 20/20/20 21/21/21
f 16/16/16 21/21/21 22/22/22
f 16/16/16 22/22/22 23/23/23
f 16/16/16 23/23/23 24/24/24
f 16/16/16 24/24/24 17/17/17
f 25/25/25 21/21/21 20/20/20
f 25/25/25 20/20/20 26/26/26
f 25/25/25 26/26/26 27/27/27
f 25/25/25 27/27/27 28/28/28
f 25/25/25 28/28/28 29/29/29
f 25/25/25 29/29/29 30/30/30
f 25/25/25 30/30/30 22/22/22
f 25/25/25 22/22/22 21/21/21
f 31/31/31 32/32/32 22/22/22
f 31/31/31 22/22/22 30/30/30
f 31/31/31 30/30/30 29/29/29
f 31/31/31 29/29/29 33/33/33
f 31/31/31 33/33/33 5/5/5
f 31/31/31 5/5/5 4/4/4
f 31/31/31 4/4/4 3/3/3
f 31/31/31 3/3/3 32/32/32
f 34/34/34 35/35/35 24/24/24
f 34/34/34 24/24/24 23/23/23
f 34/34/34 23/23/23 22/22/22
f 34/34/34 22/22/22 32/32/32
f 34/34/34 32/32/32 3/3/3
f 34/34/34 3/3/3 13/13/13
f 34/34/34 13/13/13 12/12/12
f 34/34/34 12/12/12 35/35/35
f 36/36/36 37/37/37 38/38/38
f 36/36/36 38/38/38 39/39/39
f 36/36/36 39/39/39 40/40/40
f 36/36/36 40/40/40 41/41/41
f 36/36/36 41/41/41 20/20/20
f 36/36/36 20/20/20 19/19/19
f 36/36/36 19/19/19 18/18/18
f 36/36/36 18/18/18 37/37/37
f 42/42/42 41/41/41 40/40/40
f 42/42/42 40/40/40 43/43/43
f 42/42/42 43/43/43 44/44/44
f 42/42/42 44/44/44 45/45/45
f 42/42/42 45/45/45 27/27/27
f 42/42/42 27/27/27 26/26/26
f 42/42/42 26/26/26 20/20/20
f 42/42/42 20/20/20 41/41/41
f 46/46/46 47/47/47 48/48/48
f 46/46/46 48/48/48 49/49/49
f 46/46/46 49/49/49 50/50/50
f 46/46/46 50/50/50 51/51/51
f 46/46/46 51/51/51 52/52/52
f 46/46/46 52/52/52 53/53/53
f 46/46/46 53/53/53 54/54/54
f 46/46/46 54/54/54 47/47/47
f 55/55/55 56/56/56 57/57/57
f 55/55/55 57/57/57 58/58/58
f 55/55/55 58/58/58 48/48/48
f 55/55/55 48/48/48 47/47/47
f 55/55/55 47/47/47 54/54/54
f 55/55/55 54/54/54 59/59/59
f 55/55/55 59/59/59 60/60/60
f 55/55/55 60/60/60 56/56/56
f 61/61/61 62/62/62 63/63/63
f 61/61/61 63/63/63 64/64/64
f 61/61/61 64/64/64 65/65/65
f 61/61/61 65/65/65 66/66/66
f 61/61/61 66/66/66 67/67/67
f 61/61/61 67/67/67 68/68/68
f 61/61/61 68/68/68 69/69/69
f 61/61/61 69/69/69 62/62/62
f 70/70/70 66/66/66 65/65/65
f 70/70/70 65/65/65 71/71/71
f 70/70/70 71/71/71 72/72/72
f 70/70/70 72/72/72 73/73/73
f 70/70/70 73/73/73 74/74/74
f 70/70/70 74/74/74 75/75/75
f 70/70/70 75/75/75 67/67/67
f 70/70/70 67/67/67 66/66/66
f 76/76/76 77/77/77 54/54/54
f 76/76/76 54/54/54 53/53/53
f 76/76/76 53/53/53 52/52/52
f 76/76/76 52/52/52 78/78/78
f 76/76/76 78/78/78 72/72/72
f 76/76/76 72/72/72 71/71/71
f 76/76/76 71/71/71 65/65/65
f 76/76/76 65/65/65 77/77/77
f 79/79/79 80/80/80 60/60/60
f 79/79/79 60/60/60 59/59/59
f 79/79/79 59/59/59 54/54/54
f 79/79/79 54/54/54 77/77/77
f 79/79/79 77/77/77 65/65/65
f 79/79/79 65/65/65 64/64/64
f 79/79/79 64/64/64 63/63/63
f 79/79/79 63/63/63 80/80/80
f 81/81/81 82/82/82 69/69/69
f 81/81/81 69/69/69 68/68/68
f 81/81/81 68/68/68 67/67/67
f 81/81/81 67/67/67 83/83/83
f 81/81/81 83/83/83 84/84/84
f 81/81/81 84/84/84 85/85/85
f 81/81/81 85/85/85 86/86/86
f 81/81/81 86/86/86 82/82/82
f 87/87/87 83/83/83 67/67/67
f 87/87/87 67/67/67 75/75/75
f 87/87/87 75/75/75 74/74/74
f 87/87/87 74/74/74 88/88/88
f 87/87/87 88/88/88 89/89/89
f 87/87/87 89/89/89 90/90/90
f 87/87/87 90/90/90 84/84/84
f 87/87/87 84/84/84 83/83/83
f 91/91/91 92/92/92 38/38/38
f 91/91/91 38/38/38 37/37/37
f 91/91/91 37/37/37 18/18/18
f 91/91/91 18/18/18 93/93/93
f 91/91/91 93/93/93 69/69/69
f 91/91/91 69/69/69 82/82/82
f 91/91/91 82/82/82 94/94/94
f 91/91/91 94/94/94 92/92/92
f 95/95/95 96/96/96 44/44/44
f 95/95/95 44/44/44 43/43/43
f 95/95/95 43/43/43 40/40/40
f 95/95/95 40/40/40 97/97/97
f 95/95/95 97/97/97 84/84/84
f 95/95/95 84/84/84 90/90/90
f 95/95/95 90/90/90 98/98/98
f 95/95/95 98/98/98 96/96/96
f 99/99/99 100/100/100 7/7/7
f 99/99/99 7/7/7 6/6/6
f 99/99/99 6/6/6 5/5/5
f 99/99/99 5/5/5 101/101/101
f 99/99/99 101/101/101 52/52/52
f 99/99/99 52/52/52 51/51/51
f 99/99/99 51/51/51 102/102/102
f 99/99/99 102/102/102 100/100/100
f 103/103/103 104/104/104 15/15/15
f 103/103/103 15/15/15 14/14/14
f 103/103/103 14/14/14 9/9/9
f 103/103/103 9/9/9 105/105/105
f 103/103/103 105/105/105 48/48/48
f 103/103/103 48/48/48 58/58/58
f 103/103/103 58/58/58 106/106/106
f 103/103/103 106/106/106 104/104/104
f 107/107/107 108/108/108 12/12/12
f 107/107/107 12/12/12 11/11/11
f 107/107/107 11/11/11 15/15/15
f 107/107/107 15/15/15 104/104/104
f 107/107/107 104/104/104 106/106/106
f 107/107/107 106/106/106 56/56/56
f 107/107/107 56/56/56 60/60/60
f 107/107/107 60/60/60 108/108/108
f 109/109/109 97/97/97 40/40/40
f 109/109/109 40/40/40 39/39/39
f 109/109/109 39/39/39 38/38/38
f 109/109/109 38/38/38 92/92/92
f 109/109/109 92/92/92 94/94/94
f 109/109/109 94/94/94 85/85/85
f 109/109/109 85/85/85 84/84/84
f 109/109/109 84/84/84 97/97/97
f 110/110/110 111/111/111 27/27/27
f 110/110/110 27/27/27 45/45/45
f 110/110/110 45/45/45 44/44/44
f 110/110/110 44/44/44 96/96/96
f 110/110/110 96/96/96 98/98/98
f 110/110/110 98/98/98 88/88/88
f 110/110/110 88/88/88 74/74/74
f 110/110/110 74/74/74 111/111/111
f 112/112/112 105/105/105 9/9/9
f 112/112/112 9/9/9 8/8/8
f 112/112/112 8/8/8 7/7/7
f 112/112/112 7/7/7 100/100/100
f 112/112/112 100/100/100 102/102/102
f 112/112/112 102/102/102 49/49/49
f 112/112/112 49/49/49 48/48/48
f 112/112/112 48/48/48 105/105/105
f 113/113/113 101/101/101 5/5/5
f 113/113/113 5/5/5 33/33/33
f 113/113/113 33/33/33 29/29/29
f 113/113/113 29/29/29 114/114/114
f 113/113/113 114/114/114 72/72/72
f 113/113/113 72/72/72 78/78/78
f 113/113/113 78/78/78 52/52/52
f 113/113/113 52/52/52 101/101/101
f 115/115/115 116/116/116 24/24/24
f 115/115/115 24/24/24 35/35/35
f 115/115/115 35/35/35 12/12/12
f 115/115/115 12/12/12 108/108/108
f 115/115/115 108/108/108 60/60/60
f 115/115/115 60/60/60 80/80/80
f 115/115/115 80/80/80 63/63/63
f 115/115/115 63/63/63 116/116/116
f 117/117/117 93/93/93 18/18/18
f 117/117/117 18/18/18 17/17/17
f 117/117/117 17/17/17 24/24/24
f 117/117/117 24/24/24 116/116/116
f 117/117/117 116/116/116 63/63/63
f 117/117/117 63/63/63 62/62/62
f 117/117/117 62/62/62 69/69/69
f 117/117/117 69/69/69 93/93/93
f 118/118/118 114/114/114 29/29/29
f 118/118/118 29/29/29 28/28/28
f 118/118/118 28/28/28 27/27/27
f 118/118/118 27/27/27 111/111/111
f 118/118/118 111/111/111 74/74/74
f 118/118/118 74/74/74 73/73/73
f 118/118/118 73/73/73 72/72/72
f 118/118/118 72/72/72 114/114/114
