v -2.429835 0.744551 -1.062752
v -2.427949 0.745844 -1.063194
v -2.428543 0.744622 -1.06598
v -2.430575 0.743242 -1.065161
v -2.432289 0.742301 -1.064709
v -2.431489 0.743601 -1.062773
v -2.430528 0.744489 -1.061694
v -2.429166 0.745444 -1.061062
v -2.427439 0.746665 -1.061135
v -2.426741 0.747256 -1.064598
v -2.426063 0.748344 -1.06601
v -2.426125 0.747688 -1.068386
v -2.427059 0.746316 -1.067259
v -2.426488 0.747784 -1.062659
v -2.426133 0.74833 -1.064316
v -2.427732 0.741333 -1.075563
v -2.426618 0.742593 -1.076453
v -2.426796 0.740297 -1.078876
v -2.427771 0.739176 -1.07808
v -2.429166 0.737753 -1.077088
v -2.429319 0.73973 -1.074449
v -2.429306 0.741572 -1.071727
v -2.427662 0.743263 -1.072899
v -2.426523 0.744603 -1.073843
v -2.431178 0.738321 -1.073507
v -2.430819 0.736513 -1.076262
v -2.432136 0.73563 -1.07569
v -2.432656 0.737317 -1.072851
v -2.432838 0.739083 -1.070076
v -2.431267 0.740112 -1.070749
v -2.431059 0.741758 -1.067897
v -2.429021 0.7432 -1.068865
v -2.432728 0.74077 -1.067252
v -2.427402 0.744954 -1.070078
v -2.426318 0.746371 -1.071075
v -2.427938 0.736804 -1.080462
v -2.427249 0.737669 -1.081083
v -2.427636 0.73596 -1.082133
v -2.428087 0.73493 -1.082186
v -2.428741 0.73416 -1.08164
v -2.428949 0.735721 -1.079702
v -2.430212 0.734816 -1.079106
v -2.429646 0.733568 -1.081257
v -2.43044 0.733509 -1.08046
v -2.431237 0.734184 -1.078704
v -2.429688 0.744367 -1.062693
v -2.427777 0.745678 -1.063148
v -2.42731 0.746539 -1.061104
v -2.429058 0.745303 -1.06102
v -2.430453 0.744382 -1.061659
v -2.431392 0.743454 -1.062722
v -2.432187 0.74216 -1.064652
v -2.430423 0.743064 -1.065094
v -2.428369 0.74446 -1.065926
v -2.426547 0.747112 -1.064566
v -2.425907 0.748248 -1.065993
v -2.426021 0.748255 -1.064303
v -2.426342 0.747676 -1.062639
v -2.426866 0.746173 -1.067216
v -2.425971 0.747593 -1.06836
v -2.42754 0.741207 -1.075477
v -2.426467 0.742507 -1.076393
v -2.426371 0.744511 -1.073793
v -2.42747 0.743131 -1.072826
v -2.429128 0.741426 -1.071644
v -2.429142 0.739591 -1.074354
v -2.428988 0.73762 -1.076985
v -2.427579 0.739056 -1.077986
v -2.426645 0.740215 -1.07881
v -2.431016 0.73817 -1.073404
v -2.431106 0.739953 -1.070657
v -2.432727 0.738957 -1.070002
v -2.432542 0.737197 -1.07277
v -2.432023 0.735515 -1.075603
v -2.430656 0.736367 -1.076151
v -2.430902 0.741588 -1.067818
v -2.428845 0.743046 -1.068796
v -2.43262 0.740636 -1.067188
v -2.427209 0.744816 -1.070021
v -2.426166 0.746277 -1.071038
v -2.427746 0.736687 -1.080366
v -2.427097 0.737589 -1.081017
v -2.428771 0.735591 -1.079596
v -2.428608 0.734062 -1.08156
v -2.427942 0.734843 -1.082114
v -2.427526 0.735899 -1.082082
v -2.430052 0.734672 -1.078991
v -2.431125 0.734069 -1.078614
v -2.430355 0.733426 -1.080394
v -2.429526 0.733459 -1.08117
v -2.42695 0.737924 -1.081262
v -2.427585 0.73556 -1.082643
v -2.426403 0.740636 -1.079113
v -2.427526 0.735899 -1.082082
v -2.429404 0.733103 -1.081935
v -2.430394 0.733105 -1.080967
v -2.428612 0.733597 -1.08225
v -2.430355 0.733426 -1.080394
v -2.432 0.743217 -1.062756
v -2.430716 0.744418 -1.061474
v -2.432818 0.741923 -1.064531
v -2.430453 0.744382 -1.061659
v -2.426338 0.747913 -1.062005
v -2.425961 0.748573 -1.06431
v -2.427212 0.746882 -1.060436
v -2.426021 0.748255 -1.064303
v -2.425765 0.748666 -1.066475
v -2.425743 0.748106 -1.068751
v -2.428072 0.734267 -1.082729
v -2.43153 0.733921 -1.07853
v -2.432527 0.735284 -1.07546
v -2.428895 0.745678 -1.06048
v -2.433238 0.740379 -1.067007
v -2.433315 0.738682 -1.069817
v -2.425888 0.746804 -1.071392
v -2.426074 0.74501 -1.074136
v -2.426178 0.742977 -1.076724
v -2.4331 0.736927 -1.072595
vn -0.5363 0.8081 -0.2435
vn -0.6975 0.7029 -0.1393
vn -0.7084 0.6788 -0.1931
vn -0.5655 0.7726 -0.2885
vn -0.5766 0.757 -0.3071
vn -0.5429 0.8045 -0.2408
vn -0.5173 0.8339 -0.1923
vn -0.5486 0.8235 -0.1445
vn -0.6753 0.7355 -0.0544
vn -0.8338 0.5481 -0.0661
vn -0.8297 0.5537 -0.07
vn -0.8297 0.5358 -0.1563
vn -0.8314 0.5402 -0.1299
vn -0.7914 0.6113 0.0003
vn -0.8253 0.5646 -0.0088
vn -0.7968 0.4823 -0.3639
vn -0.7737 0.5013 -0.3873
vn -0.7706 0.484 -0.4146
vn -0.8005 0.4574 -0.3872
vn -0.7248 0.5251 -0.4459
vn -0.7264 0.5503 -0.4116
vn -0.7256 0.5979 -0.3404
vn -0.8043 0.516 -0.2946
vn -0.7883 0.5247 -0.3214
vn -0.6475 0.6128 -0.453
vn -0.6403 0.5975 -0.4827
vn -0.6761 0.5667 -0.4709
vn -0.6752 0.5875 -0.4461
vn -0.658 0.6385 -0.3991
vn -0.6368 0.6624 -0.3945
vn -0.6061 0.7224 -0.3328
vn -0.7186 0.6453 -0.2591
vn -0.6215 0.701 -0.3496
vn -0.8172 0.5379 -0.2069
vn -0.8099 0.5364 -0.2373
vn -0.8149 0.4318 -0.3865
vn -0.7835 0.458 -0.4198
vn -0.8017 0.4268 -0.4185
vn -0.823 0.3818 -0.4205
vn -0.7187 0.4773 -0.5055
vn -0.7237 0.5129 -0.4618
vn -0.6196 0.6025 -0.503
vn -0.5979 0.5786 -0.5546
vn -0.6326 0.5744 -0.5193
vn -0.6582 0.5676 -0.4946
vn 0.5173 -0.8104 0.2748
vn 0.7007 -0.6966 0.1542
vn 0.7116 -0.6701 0.2111
vn 0.4552 -0.8127 0.3635
vn 0.3518 -0.8344 0.4243
vn 0.3733 -0.833 0.4083
vn 0.4375 -0.8113 0.3877
vn 0.5533 -0.7788 0.2954
vn 0.7084 -0.6789 0.1929
vn 0.8522 -0.5178 0.0751
vn 0.9378 -0.3396 0.0717
vn 0.9468 -0.3141 0.0694
vn 0.9007 -0.4233 0.0979
vn 0.8398 -0.5284 0.1245
vn 0.912 -0.3967 0.1046
vn 0.8065 -0.4723 0.3555
vn 0.8681 -0.4002 0.2937
vn 0.8733 -0.4216 0.244
vn 0.8131 -0.5061 0.2875
vn 0.7256 -0.5978 0.3406
vn 0.7265 -0.5502 0.4118
vn 0.7249 -0.5249 0.446
vn 0.8118 -0.447 0.3757
vn 0.8801 -0.3811 0.2831
vn 0.6351 -0.6222 0.4578
vn 0.6251 -0.6704 0.3997
vn 0.5343 -0.7179 0.4462
vn 0.5444 -0.6831 0.4868
vn 0.5233 -0.6929 0.496
vn 0.6259 -0.6095 0.4865
vn 0.5945 -0.7295 0.3382
vn 0.7186 -0.6454 0.2591
vn 0.4956 -0.7688 0.404
vn 0.8255 -0.5275 0.2004
vn 0.8893 -0.4248 0.1692
vn 0.8304 -0.4265 0.3584
vn 0.9047 -0.361 0.2261
vn 0.7244 -0.5202 0.4522
vn 0.7265 -0.552 0.4091
vn 0.8697 -0.4167 0.2645
vn 0.9173 -0.3518 0.1867
vn 0.6003 -0.6276 0.4957
vn 0.476 -0.7357 0.4818
vn 0.4468 -0.763 0.4671
vn 0.5416 -0.7035 0.4602
vn 0.4946 0.4275 -0.7566
vn 0.3313 0.0954 -0.9387
vn 0.5511 0.5253 -0.6482
vn 0.9173 -0.3518 0.1867
vn -0.1353 -0.7099 -0.6912
vn -0.5881 -0.7083 -0.3904
vn 0.1426 -0.6639 -0.7341
vn 0.4468 -0.763 0.4671
vn -0.7859 -0.18 0.5916
vn -0.6105 0.003 0.792
vn -0.8351 -0.3234 0.4448
vn 0.3518 -0.8344 0.4243
vn 0.4548 0.6866 0.5671
vn 0.4085 0.8941 0.1838
vn 0.2524 0.3321 0.9088
vn 0.9468 -0.3141 0.0694
vn 0.4369 0.8888 -0.1385
vn 0.47 0.817 -0.3341
vn 0.1891 -0.4261 -0.8847
vn -0.7508 -0.6604 -0.0134
vn -0.767 -0.6265 0.1385
vn -0.2207 0.0959 0.9706
vn -0.8324 -0.4331 0.3458
vn -0.8138 -0.5011 0.2942
vn 0.5049 0.7353 -0.4521
vn 0.533 0.6758 -0.509
vn 0.5571 0.612 -0.5614
vn -0.7891 -0.5648 0.2414
vt 0.839504 0.118056
vt 0.856743 0.205307
vt 0.741230 0.205307
vt 0.734555 0.106726
vt 0.724541 0.032791
vt 0.813647 0.052618
vt 0.868992 0.081539
vt 0.913398 0.129584
vt 0.940923 0.205307
vt 0.839504 0.292557
vt 0.813647 0.357995
vt 0.724541 0.377822
vt 0.734555 0.303887
vt 0.913398 0.281029
vt 0.868992 0.329074
vt 0.369475 0.299954
vt 0.368286 0.370940
vt 0.245840 0.351447
vt 0.246397 0.288815
vt 0.246768 0.205307
vt 0.370268 0.205307
vt 0.494283 0.205307
vt 0.492822 0.304944
vt 0.490632 0.379672
vt 0.369475 0.110659
vt 0.246397 0.121798
vt 0.245841 0.059166
vt 0.368286 0.039673
vt 0.490632 0.030941
vt 0.492822 0.105669
vt 0.616755 0.103478
vt 0.619174 0.205307
vt 0.613127 0.027106
vt 0.616755 0.307135
vt 0.613126 0.383507
vt 0.123273 0.268175
vt 0.123047 0.315326
vt 0.054743 0.283353
vt 0.030912 0.249131
vt 0.030973 0.205306
vt 0.123423 0.205306
vt 0.123273 0.142438
vt 0.030912 0.161481
vt 0.054744 0.127260
vt 0.123047 0.095287
vt 0.839504 0.118056
vt 0.856743 0.205307
vt 0.968983 0.205307
vt 0.938030 0.133427
vt 0.876123 0.061548
vt 0.805028 0.030806
vt 0.721203 0.008146
vt 0.734555 0.106726
vt 0.741230 0.205307
vt 0.839504 0.292557
vt 0.805028 0.379807
vt 0.876123 0.349065
vt 0.938030 0.277186
vt 0.734555 0.303887
vt 0.721203 0.402467
vt 0.369475 0.299954
vt 0.367890 0.394602
vt 0.489902 0.404581
vt 0.492822 0.304944
vt 0.494283 0.205307
vt 0.370268 0.205307
vt 0.246768 0.205307
vt 0.246397 0.288815
vt 0.245655 0.372324
vt 0.369475 0.110659
vt 0.492822 0.105669
vt 0.489902 0.006032
vt 0.367890 0.016011
vt 0.245655 0.038289
vt 0.246397 0.121798
vt 0.616755 0.103478
vt 0.619174 0.205307
vt 0.611917 0.001649
vt 0.616755 0.307135
vt 0.611917 0.408964
vt 0.123273 0.268175
vt 0.122972 0.331043
vt 0.123423 0.205306
vt 0.000156 0.205306
vt 0.000125 0.242784
vt 0.000064 0.280261
vt 0.123273 0.142438
vt 0.122972 0.079570
vt 0.000064 0.130352
vt 0.000125 0.167829
vt 0.122972 0.331043
vt 0.030806 0.283587
vt 0.245655 0.372324
vt 0.030806 0.283587
vt 0.000125 0.167829
vt 0.030806 0.127026
vt 0.000156 0.205306
vt 0.030806 0.127026
vt 0.805028 0.030806
vt 0.873826 0.071832
vt 0.721203 0.008146
vt 0.873826 0.071832
vt 0.938030 0.277186
vt 0.873826 0.338781
vt 0.968983 0.205307
vt 0.873826 0.338781
vt 0.805028 0.379807
vt 0.721203 0.402467
vt 0.000125 0.242784
vt 0.122972 0.079570
vt 0.245655 0.038289
vt 0.938030 0.133427
vt 0.611917 0.001649
vt 0.489902 0.006032
vt 0.611917 0.408964
vt 0.489902 0.404581
vt 0.367890 0.394602
vt 0.367890 0.016011
f 1/1/1 2/2/2 3/3/3
f 1/1/1 3/3/3 4/4/4
f 1/1/1 4/4/4 5/5/5
f 1/1/1 5/5/5 6/6/6
f 1/1/1 6/6/6 7/7/7
f 1/1/1 7/7/7 8/8/8
f 1/1/1 8/8/8 9/9/9
f 1/1/1 9/9/9 2/2/2
f 10/10/10 11/11/11 12/12/12
f 10/10/10 12/12/12 13/13/13
f 10/10/10 13/13/13 3/3/3
f 10/10/10 3/3/3 2/2/2
f 10/10/10 2/2/2 9/9/9
f 10/10/10 9/9/9 14/14/14
f 10/10/10 14/14/14 15/15/15
f 10/10/10 15/15/15 11/11/11
f 16/16/16 17/17/17 18/18/18
f 16/16/16 18/18/18 19/19/19
f 16/16/16 19/19/19 20/20/20
f 16/16/16 20/20/20 21/21/21
f 16/16/16 21/21/21 22/22/22
f 16/16/16 22/22/22 23/23/23
f 16/16/16 23/23/23 24/24/24
f 16/16/16 24/24/24 17/17/17
f 25/25/25 21/21/21 20/20/20
f 25/25/25 20/20/20 26/26/26
f 25/25/25 26/26/26 27/27/27
f 25/25/25 27/27/27 28/28/28
f 25/25/25 28/28/28 29/29/29
f 25/25/25 29/29/29 30/30/30
f 25/25/25 30/30/30 22/22/22
f 25/25/25 22/22/22 21/21/21
f 31/31/31 32/32/32 22/22/22
f 31/31/31 22/22/22 30/30/30
f 31/31/31 30/30/30 29/29/29
f 31/31/31 29/29/29 33/33/33
f 31/31/31 33/33/33 5/5/5
f 31/31/31 5/5/5 4/4/4
f 31/31/31 4/4/4 3/3/3
f 31/31/31 3/3/3 32/32/32
f 34/34/34 35/35/35 24/24/24
f 34/34/34 24/24/24 23/23/23
f 34/34/34 23/23/23 22/22/22
f 34/34/34 22/22/22 32/32/32
f 34/34/34 32/32/32 3/3/3
f 34/34/34 3/3/3 13/13/13
f 34/34/34 13/13/13 12/12/12
f 34/34/34 12/12/12 35/35/35
f 36/36/36 37/37/37 38/38/38
f 36/36/36 38/38/38 39/39/39
f 36/36/36 39/39/39 40/40/40
f 36/36/36 40/40/40 41/41/41
f 36/36/36 41/41/41 20/20/20
f 36/36/36 20/20/20 19/19/19
f 36/36/36 19/19/19 18/18/18
f 36/36/36 18/18/18 37/37/37
f 42/42/42 41/41/41 40/40/40
f 42/42/42 40/40/40 43/43/43
f 42/42/42 43/43/43 44/44/44
f 42/42/42 44/44/44 45/45/45
f 42/42/42 45/45/45 27/27/27
f 42/42/42 27/27/27 26/26/26
f 42/42/42 26/26/26 20/20/20
f 42/42/42 20/20/20 41/41/41
f 46/46/46 47/47/47 48/48/48
f 46/46/46 48/48/48 49/49/49
f 46/46/46 49/49/49 50/50/50
f 46/46/46 50/50/50 51/51/51
f 46/46/46 51/51/51 52/52/52
f 46/46/46 52/52/52 53/53/53
f 46/46/46 53/53/53 54/54/54
f 46/46/46 54/54/54 47/47/47
f 55/55/55 56/56/56 57/57/57
f 55/55/55 57/57/57 58/58/58
f 55/55/55 58/58/58 48/48/48
f 55/55/55 48/48/48 47/47/47
f 55/55/55 47/47/47 54/54/54
f 55/55/55 54/54/54 59/59/59
f 55/55/55 59/59/59 60/60/60
f 55/55/55 60/60/60 56/56/56
f 61/61/61 62/62/62 63/63/63
f 61/61/61 63/63/63 64/64/64
f 61/61/61 64/64/64 65/65/65
f 61/61/61 65/65/65 66/66/66
f 61/61/61 66/66/66 67/67/67
f 61/61/61 67/67/67 68/68/68
f 61/61/61 68/68/68 69/69/69
f 61/61/61 69/69/69 62/62/62
f 70/70/70 66/66/66 65/65/65
f 70/70/70 65/65/65 71/71/71
f 70/70/70 71/71/71 72/72/72
f 70/70/70 72/72/72 73/73/73
f 70/70/70 73/73/73 74/74/74
f 70/70/70 74/74/74 75/75/75
f 70/70/70 75/75/75 67/67/67
f 70/70/70 67/67/67 66/66/66
f 76/76/76 77/77/77 54/54/54
f 76/76/76 54/54/54 53/53/53
f 76/76/76 53/53/53 52/52/52
f 76/76/76 52/52/52 78/78/78
f 76/76/76 78/78/78 72/72/72
f 76/76/76 72/72/72 71/71/71
f 76/76/76 71/71/71 65/65/65
f 76/76/76 65/65/65 77/77/77
f 79/79/79 80/80/80 60/60/60
f 79/79/79 60/60/60 59/59/59
f 79/79/79 59/59/59 54/54/54
f 79/79/79 54/54/54 77/77/77
f 79/79/79 77/77/77 65/65/65
f 79/79/79 65/65/65 64/64/64
f 79/79/79 64/64/64 63/63/63
f 79/79/79 63/63/63 80/80/80
f 81/81/81 82/82/82 69/69/69
f 81/81/81 69/69/69 68/68/68
f 81/81/81 68/68/68 67/67/67
f 81/81/81 67/67/67 83/83/83
f 81/81/81 83/83/83 84/84/84
f 81/81/81 84/84/84 85/85/85
f 81/81/81 85/85/85 86/86/86
f 81/81/81 86/86/86 82/82/82
f 87/87/87 83/83/83 67/67/67
f 87/87/87 67/67/67 75/75/75
f 87/87/87 75/75/75 74/74/74
f 87/87/87 74/74/74 88/88/88
f 87/87/87 88/88/88 89/89/89
f 87/87/87 89/89/89 90/90/90
f 87/87/87 90/90/90 84/84/84
f 87/87/87 84/84/84 83/83/83
f 91/91/91 92/92/92 38/38/38
f 91/91/91 38/38/38 37/37/37
f 91/91/91 37/37/37 18/18/18
f 91/91/91 18/18/18 93/93/93
f 91/91/91 93/93/93 69/69/69
f 91/91/91 69/69/69 82/82/82
f 91/91/91 82/82/82 94/94/94
f 91/91/91 94/94/94 92/92/92
f 95/95/95 96/96/96 44/44/44
f 95/95/95 44/44/44 43/43/43
f 95/95/95 43/43/43 40/40/40
f 95/95/95 40/40/40 97/97/97
f 95/95/95 97/97/97 84/84/84
f 95/95/95 84/84/84 90/90/90
f 95/95/95 90/90/90 98/98/98
f 95/95/95 98/98/98 96/96/96
f 99/99/99 100/100/100 7/7/7
f 99/99/99 7/7/7 6/6/6
f 99/99/99 6/6/6 5/5/5
f 99/99/99 5/5/5 101/101/101
f 99/99/99 101/101/101 52/52/52
f 99/99/99 52/52/52 51/51/51
f 99/99/99 51/51/51 102/102/102
f 99/99/99 102/102/102 100/100/100
f 103/103/103 104/104/104 15/15/15
f 103/103/103 15/15/15 14/14/14
f 103/103/103 14/14/14 9/9/9
f 103/103/103 9/9/9 105/105/105
f 103/103/103 105/105/105 48/48/48
f 103/103/103 48/48/48 58/58/58
f 103/103/103 58/58/58 106/106/106
f 103/103/103 106/106/106 104/104/104
f 107/107/107 108/108/108 12/12/12
f 107/107/107 12/12/12 11/11/11
f 107/107/107 11/11/11 15/15/15
f 107/107/107 15/15/15 104/104/104
f 107/107/107 104/104/104 106/106/106
f 107/107/107 106/106/106 56/56/56
f 107/107/107 56/56/56 60/60/60
f 107/107/107 60/60/60 108/108/108
f 109/109/109 97/97/97 40/40/40
f 109/109/109 40/40/40 39/39/39
f 109/109/109 39/39/39 38/38/38
f 109/109/109 38/38/38 92/92/92
f 109/109/109 92/92/92 94/94/94
f 109/109/109 94/94/94 85/85/85
f 109/109/109 85/85/85 84/84/84
f 109/109/109 84/84/84 97/97/97
f 110/110/110 111/111/111 27/27/27
f 110/110/110 27/27/27 45/45/45
f 110/110/110 45/45/45 44/44/44
f 110/110/110 44/44/44 96/96/96
f 110/110/110 96/96/96 98/98/98
f 110/110/110 98/98/98 88/88/88
f 110/110/110 88/88/88 74/74/74
f 110/110/110 74/74/74 111/111/111
f 112/112/112 105/105/105 9/9/9
f 112/112/112 9/9/9 8/8/8
f 112/112/112 8/8/8 7/7/7
f 112/112/112 7/7/7 100/100/100
f 112/112/112 100/100/100 102/102/102
f 112/112/112 102/102/102 49/49/49
f 112/112/112 49/49/49 48/48/48
f 112/112/112 48/48/48 105/105/105
f 113/113/113 101/101/101 5/5/5
f 113/113/113 5/5/5 33/33/33
f 113/113/113 33/33/33 29/29/29
f 113/113/113 29/29/29 114/114/114
f 113/113/113 114/114/114 72/72/72
f 113/113/113 72/72/72 78/78/78
f 113/113/113 78/78/78 52/52/52
f 113/113/113 52/52/52 101/101/101
f 115/115/115 116/116/116 24/24/24
f 115/115/115 24/24/24 35/35/35
f 115/115/115 35/35/35 12/12/12
f 115/115/115 12/12/12 108/108/108
f 115/115/115 108/108/108 60/60/60
f 115/115/115 60/60/60 80/80/80
f 115/115/115 80/80/80 63/63/63
f 115/115/115 63/63/63 116/116/116
f 117/117/117 93/93/93 18/18/18
f 117/117/117 18/18/18 17/17/17
f 117/117/117 17/17/17 24/24/24
f 117/117/117 24/24/24 116/116/116
f 117/117/117 116/116/116 63/63/63
f 117/117/117 63/63/63 62/62/62
f 117/117/117 62/62/62 69/69/69
f 117/117/117 69/69/69 93/93/93
f 118/118/118 114/114/114 29/29/29
f 118/118/118 29/29/29 28/28/28
f 118/118/118 28/28/28 27/27/27
f 118/118/118 27/27/27 111/111/111
f 118/118/118 111/111/111 74/74/74
f 118/118/118 74/74/74 73/73/73
f 118/118/118 73/73/73 72/72/72
f 118/118/118 72/72/72 114/114/114
