v -2.365217 0.696615 -1.1251
v -2.362744 0.696612 -1.124853
v -2.36312 0.695337 -1.127883
v -2.365881 0.695417 -1.127803
v -2.368005 0.695637 -1.127973
v -2.367152 0.696703 -1.125724
v -2.366151 0.697151 -1.124285
v -2.364641 0.697347 -1.123149
v -2.362455 0.69744 -1.12259
v -2.360472 0.696915 -1.125815
v -2.358831 0.697228 -1.126979
v -2.358552 0.696234 -1.129398
v -2.360489 0.695758 -1.128616
v -2.360535 0.697607 -1.123768
v -2.359413 0.697577 -1.1253
v -2.361495 0.690154 -1.137271
v -2.359547 0.690473 -1.137752
v -2.360327 0.688081 -1.140282
v -2.362047 0.687789 -1.139844
v -2.364356 0.687504 -1.139364
v -2.364108 0.68984 -1.136739
v -2.363826 0.691979 -1.133974
v -2.361096 0.692327 -1.134543
v -2.359064 0.692693 -1.135068
v -2.366779 0.68982 -1.136475
v -2.36672 0.687494 -1.13914
v -2.368515 0.687564 -1.139047
v -2.368806 0.689888 -1.136356
v -2.368749 0.692081 -1.133608
v -2.366623 0.691978 -1.13371
v -2.366337 0.693858 -1.130746
v -2.363489 0.693802 -1.130973
v -2.36851 0.694047 -1.130707
v -2.360729 0.694212 -1.131592
v -2.358681 0.694667 -1.132189
v -2.362875 0.685331 -1.14233
v -2.361598 0.685591 -1.142697
v -2.362619 0.684097 -1.143913
v -2.363592 0.683429 -1.144141
v -2.364759 0.68322 -1.143835
v -2.364592 0.685087 -1.141941
v -2.366363 0.685111 -1.141805
v -2.365981 0.683278 -1.143781
v -2.366919 0.683826 -1.143265
v -2.367713 0.685205 -1.141775
v -2.365222 0.69638 -1.12499
v -2.362713 0.696376 -1.124748
v -2.362432 0.697262 -1.122514
v -2.364648 0.69717 -1.12307
v -2.366163 0.69702 -1.124224
v -2.367174 0.696528 -1.12564
v -2.368021 0.695464 -1.127882
v -2.365881 0.695186 -1.127684
v -2.363088 0.695106 -1.127768
v -2.360406 0.696684 -1.125716
v -2.358764 0.697059 -1.126907
v -2.359367 0.69745 -1.125248
v -2.360484 0.697433 -1.123698
v -2.360425 0.695531 -1.128507
v -2.358489 0.696067 -1.129319
v -2.361436 0.689951 -1.137118
v -2.359492 0.690322 -1.137639
v -2.359008 0.692536 -1.134965
v -2.361037 0.692116 -1.134403
v -2.363791 0.691765 -1.133829
v -2.364071 0.689635 -1.136582
v -2.364318 0.687305 -1.139199
v -2.361987 0.687592 -1.139683
v -2.36027 0.687935 -1.140163
v -2.366765 0.689614 -1.136315
v -2.366612 0.691764 -1.133562
v -2.368753 0.69192 -1.133495
v -2.368807 0.689734 -1.136235
v -2.368516 0.687414 -1.13892
v -2.366706 0.687294 -1.138972
v -2.366331 0.693635 -1.130613
v -2.363455 0.693579 -1.130843
v -2.368519 0.69388 -1.130606
v -2.360668 0.693992 -1.131467
v -2.358622 0.694505 -1.132098
v -2.362813 0.685138 -1.142166
v -2.36154 0.685447 -1.142577
v -2.364554 0.684891 -1.141773
v -2.364731 0.683073 -1.143709
v -2.363544 0.683284 -1.144019
v -2.362579 0.683991 -1.143823
v -2.36635 0.684914 -1.141633
v -2.367716 0.685057 -1.141646
v -2.366917 0.683717 -1.143169
v -2.365973 0.683131 -1.143652
v -2.361144 0.685614 -1.142767
v -2.36266 0.683618 -1.144413
v -2.359726 0.688114 -1.140375
v -2.362579 0.683991 -1.143823
v -2.365851 0.682602 -1.144383
v -2.366968 0.683346 -1.143764
v -2.364802 0.682533 -1.14441
v -2.366917 0.683717 -1.143169
v -2.367811 0.696654 -1.125894
v -2.366417 0.697235 -1.124131
v -2.368724 0.695633 -1.127989
v -2.366163 0.69702 -1.124224
v -2.360533 0.69776 -1.123056
v -2.359126 0.697696 -1.12523
v -2.362349 0.697637 -1.121803
v -2.359367 0.69745 -1.125248
v -2.358251 0.697259 -1.127336
v -2.357875 0.696319 -1.129624
v -2.363809 0.682731 -1.144691
v -2.368167 0.68517 -1.141708
v -2.369117 0.687521 -1.13896
v -2.364453 0.697512 -1.122465
v -2.369241 0.694035 -1.130648
v -2.369462 0.692044 -1.133523
v -2.357969 0.694748 -1.132348
v -2.358359 0.692745 -1.135197
v -2.358871 0.690513 -1.137863
v -2.369484 0.689842 -1.136263
vn 0.1016 0.9112 -0.3992
vn -0.1123 0.9276 -0.3563
vn -0.119 0.9039 -0.4109
vn 0.0718 0.8892 -0.4518
vn 0.0598 0.8788 -0.4733
vn 0.0936 0.9121 -0.3991
vn 0.1163 0.9315 -0.3445
vn 0.0726 0.948 -0.3099
vn -0.101 0.9579 -0.2685
vn -0.3258 0.8842 -0.3348
vn -0.3182 0.8861 -0.337
vn -0.3038 0.8559 -0.4185
vn -0.3102 0.865 -0.3942
vn -0.2764 0.926 -0.2572
vn -0.3261 0.9036 -0.2778
vn -0.249 0.7572 -0.6039
vn -0.2136 0.7567 -0.6178
vn -0.213 0.7358 -0.6428
vn -0.2591 0.7344 -0.6272
vn -0.1457 0.7401 -0.6565
vn -0.1426 0.768 -0.6244
vn -0.1357 0.8197 -0.5565
vn -0.2557 0.8014 -0.5406
vn -0.2308 0.7954 -0.5604
vn -0.0345 0.7707 -0.6362
vn -0.029 0.749 -0.6619
vn -0.0773 0.7445 -0.6631
vn -0.0721 0.7656 -0.6392
vn -0.0436 0.8072 -0.5886
vn -0.015 0.8166 -0.5769
vn 0.0248 0.8611 -0.5077
vn -0.1268 0.8697 -0.4769
vn 0.0055 0.8486 -0.529
vn -0.2786 0.8419 -0.462
vn -0.2651 0.8314 -0.4882
vn -0.2848 0.7209 -0.6318
vn -0.2362 0.7201 -0.6524
vn -0.2681 0.704 -0.6576
vn -0.3094 0.6776 -0.6671
vn -0.1505 0.6866 -0.7112
vn -0.1471 0.7265 -0.6712
vn -0.0042 0.7385 -0.6742
vn 0.014 0.6981 -0.7158
vn -0.0254 0.7194 -0.6941
vn -0.0562 0.7316 -0.6794
vn -0.1266 -0.8975 0.4223
vn 0.1142 -0.9214 0.3714
vn 0.1212 -0.8951 0.4291
vn -0.2016 -0.8508 0.4852
vn -0.3116 -0.8033 0.5075
vn -0.2895 -0.8164 0.4996
vn -0.2215 -0.836 0.5019
vn -0.0868 -0.8867 0.4542
vn 0.119 -0.9039 0.4107
vn 0.3544 -0.8672 0.3497
vn 0.5217 -0.7651 0.3775
vn 0.5434 -0.7493 0.3786
vn 0.4383 -0.8104 0.3887
vn 0.3248 -0.8607 0.3921
vn 0.4602 -0.793 0.3991
vn 0.2645 -0.7555 0.5993
vn 0.3702 -0.7392 0.5625
vn 0.3767 -0.7685 0.5171
vn 0.2701 -0.7991 0.537
vn 0.1357 -0.8196 0.5566
vn 0.1426 -0.7678 0.6245
vn 0.1457 -0.74 0.6566
vn 0.277 -0.7338 0.6203
vn 0.3934 -0.7316 0.5568
vn 0.0182 -0.7711 0.6364
vn 0.0 -0.8162 0.5777
vn -0.1105 -0.7993 0.5906
vn -0.0948 -0.7686 0.6326
vn -0.1194 -0.764 0.6341
vn 0.0099 -0.7507 0.6606
vn -0.0394 -0.8599 0.5089
vn 0.1268 -0.8697 0.4769
vn -0.157 -0.8286 0.5372
vn 0.2926 -0.8389 0.4588
vn 0.4087 -0.7929 0.452
vn 0.3079 -0.7296 0.6106
vn 0.44 -0.738 0.5116
vn 0.1462 -0.7348 0.6623
vn 0.1423 -0.7699 0.622
vn 0.3707 -0.7589 0.5354
vn 0.4661 -0.7439 0.4788
vn -0.0227 -0.7505 0.6604
vn -0.176 -0.7769 0.6044
vn -0.2097 -0.7867 0.5806
vn -0.1008 -0.7888 0.6063
vn 0.8395 -0.0407 -0.5418
vn 0.5787 -0.2623 -0.7722
vn 0.9072 0.0297 -0.4196
vn 0.4661 -0.7439 0.4788
vn -0.3053 -0.6399 -0.7051
vn -0.7429 -0.3457 -0.5731
vn -0.0504 -0.7566 -0.6519
vn -0.2097 -0.7867 0.5806
vn -0.8816 0.3711 0.2917
vn -0.6999 0.4658 0.5414
vn -0.9582 0.252 0.1355
vn -0.3116 -0.8033 0.5075
vn 0.5759 0.4299 0.6953
vn 0.765 0.5585 0.3207
vn 0.1231 0.3033 0.9449
vn 0.5434 -0.7493 0.3786
vn 0.8757 0.4821 0.0269
vn 0.9171 0.3703 -0.1473
vn 0.1613 -0.6105 -0.7754
vn -0.9499 -0.1535 -0.2721
vn -0.9869 -0.0897 -0.1341
vn -0.3946 0.3685 0.8417
vn -0.989 0.1418 0.0417
vn -0.9978 0.0665 -0.0014
vn 0.9323 0.2632 -0.2481
vn 0.9372 0.1888 -0.2932
vn 0.9353 0.1137 -0.3349
vn -0.999 -0.0084 -0.0432
vt 0.839504 0.118056
vt 0.856743 0.205307
vt 0.741230 0.205307
vt 0.734555 0.106726
vt 0.724541 0.032791
vt 0.813647 0.052618
vt 0.868992 0.081539
vt 0.913398 0.129584
vt 0.940923 0.205307
vt 0.839504 0.292557
vt 0.813647 0.357995
vt 0.724541 0.377822
vt 0.734555 0.303887
vt 0.913398 0.281029
vt 0.868992 0.329074
vt 0.369475 0.299954
vt 0.368286 0.370940
vt 0.245840 0.351447
vt 0.246397 0.288815
vt 0.246768 0.205307
vt 0.370268 0.205307
vt 0.494283 0.205307
vt 0.492822 0.304944
vt 0.490632 0.379672
vt 0.369475 0.110659
vt 0.246397 0.121798
vt 0.245841 0.059166
vt 0.368286 0.039673
vt 0.490632 0.030941
vt 0.492822 0.105669
vt 0.616755 0.103478
vt 0.619174 0.205307
vt 0.613127 0.027106
vt 0.616755 0.307135
vt 0.613126 0.383507
vt 0.123273 0.268175
vt 0.123047 0.315326
vt 0.054743 0.283353
vt 0.030912 0.249131
vt 0.030973 0.205306
vt 0.123423 0.205306
vt 0.123273 0.142438
vt 0.030912 0.161481
vt 0.054744 0.127260
vt 0.123047 0.095287
vt 0.839504 0.118056
vt 0.856743 0.205307
vt 0.968983 0.205307
vt 0.938030 0.133427
vt 0.876123 0.061548
vt 0.805028 0.030806
vt 0.721203 0.008146
vt 0.734555 0.106726
vt 0.741230 0.205307
vt 0.839504 0.292557
vt 0.805028 0.379807
vt 0.876123 0.349065
vt 0.938030 0.277186
vt 0.734555 0.303887
vt 0.721203 0.402467
vt 0.369475 0.299954
vt 0.367890 0.394602
vt 0.489902 0.404581
vt 0.492822 0.304944
vt 0.494283 0.205307
vt 0.370268 0.205307
vt 0.246768 0.205307
vt 0.246397 0.288815
vt 0.245655 0.372324
vt 0.369475 0.110659
vt 0.492822 0.105669
vt 0.489902 0.006032
vt 0.367890 0.016011
vt 0.245655 0.038289
vt 0.246397 0.121798
vt 0.616755 0.103478
vt 0.619174 0.205307
vt 0.611917 0.001649
vt 0.616755 0.307135
vt 0.611917 0.408964
vt 0.123273 0.268175
vt 0.122972 0.331043
vt 0.123423 0.205306
vt 0.000156 0.205306
vt 0.000125 0.242784
vt 0.000064 0.280261
vt 0.123273 0.142438
vt 0.122972 0.079570
vt 0.000064 0.130352
vt 0.000125 0.167829
vt 0.122972 0.331043
vt 0.030806 0.283587
vt 0.245655 0.372324
vt 0.030806 0.283587
vt 0.000125 0.167829
vt 0.030806 0.127026
vt 0.000156 0.205306
vt 0.030806 0.127026
vt 0.805028 0.030806
vt 0.873826 0.071832
vt 0.721203 0.008146
vt 0.873826 0.071832
vt 0.938030 0.277186
vt 0.873826 0.338781
vt 0.968983 0.205307
vt 0.873826 0.338781
vt 0.805028 0.379807
vt 0.721203 0.402467
vt 0.000125 0.242784
vt 0.122972 0.079570
vt 0.245655 0.038289
vt 0.938030 0.133427
vt 0.611917 0.001649
vt 0.489902 0.006032
vt 0.611917 0.408964
vt 0.489902 0.404581
vt 0.367890 0.394602
vt 0.367890 0.016011
f 1/1/1 2/2/2 3/3/3
f 1/1/1 3/3/3 4/4/4
f 1/1/1 4/4/4 5/5/5
f 1/1/1 5/5/5 6/6/6
f 1/1/1 6/6/6 7/7/7
f 1/1/1 7/7/7 8/8/8
f 1/1/1 8/8/8 9/9/9
f 1/1/1 9/9/9 2/2/2
f 10/10/10 11/11/11 12/12/12
f 10/10/10 12/12/12 13/13/13
f 10/10/10 13/13/13 3/3/3
f 10/10/10 3/3/3 2/2/2
f 10/10/10 2/2/2 9/9/9
f 10/10/10 9/9/9 14/14/14
f 10/10/10 14/14/14 15/15/15
f 10/10/10 15/15/15 11/11/11
f 16/16/16 17/17/17 18/18/18
f 16/16/16 18/18/18 19/19/19
f 16/16/16 19/19/19 20/20/20
f 16/16/16 20/20/20 21/21/21
f 16/16/16 21/21/21 22/22/22
f 16/16/16 22/22/22 23/23/23
f 16/16/16 23/23/23 24/24/24
f 16/16/16 24/24/24 17/17/17
f 25/25/25 21/21/21 20/20/20
f 25/25/25 20/20/20 26/26/26
f 25/25/25 26/26/26 27/27/27
f 25/25/25 27/27/27 28/28/28
f 25/25/25 28/28/28 29/29/29
f 25/25/25 29/29/29 30/30/30
f 25/25/25 30/30/30 22/22/22
f 25/25/25 22/22/22 21/21/21
f 31/31/31 32/32/32 22/22/22
f 31/31/31 22/22/22 30/30/30
f 31/31/31 30/30/30 29/29/29
f 31/31/31 29/29/29 33/33/33
f 31/31/31 33/33/33 5/5/5
f 31/31/31 5/5/5 4/4/4
f 31/31/31 4/4/4 3/3/3
f 31/31/31 3/3/3 32/32/32
f 34/34/34 35/35/35 24/24/24
f 34/34/34 24/24/24 23/23/23
f 34/34/34 23/23/23 22/22/22
f 34/34/34 22/22/22 32/32/32
f 34/34/34 32/32/32 3/3/3
f 34/34/34 3/3/3 13/13/13
f 34/34/34 13/13/13 12/12/12
f 34/34/34 12/12/12 35/35/35
f 36/36/36 37/37/37 38/38/38
f 36/36/36 38/38/38 39/39/39
f 36/36/36 39/39/39 40/40/40
f 36/36/36 40/40/40 41/41/41
f 36/36/36 41/41/41 20/20/20
f 36/36/36 20/20/20 19/19/19
f 36/36/36 19/19/19 18/18/18
f 36/36/36 18/18/18 37/37/37
f 42/42/42 41/41/41 40/40/40
f 42/42/42 40/40/40 43/43/43
f 42/42/42 43/43/43 44/44/44
f 42/42/42 44/44/44 45/45/45
f 42/42/42 45/45/45 27/27/27
f 42/42/42 27/27/27 26/26/26
f 42/42/42 26/26/26 20/20/20
f 42/42/42 20/20/20 41/41/41
f 46/46/46 47/47/47 48/48/48
f 46/46/46 48/48/48 49/49/49
f 46/46/46 49/49/49 50/50/50
f 46/46/46 50/50/50 51/51/51
f 46/46/46 51/51/51 52/52/52
f 46/46/46 52/52/52 53/53/53
f 46/46/46 53/53/53 54/54/54
f 46/46/46 54/54/54 47/47/47
f 55/55/55 56/56/56 57/57/57
f 55/55/55 57/57/57 58/58/58
f 55/55/55 58/58/58 48/48/48
f 55/55/55 48/48/48 47/47/47
f 55/55/55 47/47/47 54/54/54
f 55/55/55 54/54/54 59/59/59
f 55/55/55 59/59/59 60/60/60
f 55/55/55 60/60/60 56/56/56
f 61/61/61 62/62/62 63/63/63
f 61/61/61 63/63/63 64/64/64
f 61/61/61 64/64/64 65/65/65
f 61/61/61 65/65/65 66/66/66
f 61/61/61 66/66/66 67/67/67
f 61/61/61 67/67/67 68/68/68
f 61/61/61 68/68/68 69/69/69
f 61/61/61 69/69/69 62/62/62
f 70/70/70 66/66/66 65/65/65
f 70/70/70 65/65/65 71/71/71
f 70/70/70 71/71/71 72/72/72
f 70/70/70 72/72/72 73/73/73
f 70/70/70 73/73/73 74/74/74
f 70/70/70 74/74/74 75/75/75
f 70/70/70 75/75/75 67/67/67
f 70/70/70 67/67/67 66/66/66
f 76/76/76 77/77/77 54/54/54
f 76/76/76 54/54/54 53/53/53
f 76/76/76 53/53/53 52/52/52
f 76/76/76 52/52/52 78/78/78
f 76/76/76 78/78/78 72/72/72
f 76/76/76 72/72/72 71/71/71
f 76/76/76 71/71/71 65/65/65
f 76/76/76 65/65/65 77/77/77
f 79/79/79 80/80/80 60/60/60
f 79/79/79 60/60/60 59/59/59
f 79/79/79 59/59/59 54/54/54
f 79/79/79 54/54/54 77/77/77
f 79/79/79 77/77/77 65/65/65
f 79/79/79 65/65/65 64/64/64
f 79/79/79 64/64/64 63/63/63
f 79/79/79 63/63/63 80/80/80
f 81/81/81 82/82/82 69/69/69
f 81/81/81 69/69/69 68/68/68
f 81/81/81 68/68/68 67/67/67
f 81/81/81 67/67/67 83/83/83
f 81/81/81 83/83/83 84/84/84
f 81/81/81 84/84/84 85/85/85
f 81/81/81 85/85/85 86/86/86
f 81/81/81 86/86/86 82/82/82
f 87/87/87 83/83/83 67/67/67
f 87/87/87 67/67/67 75/75/75
f 87/87/87 75/75/75 74/74/74
f 87/87/87 74/74/74 88/88/88
f 87/87/87 88/88/88 89/89/89
f 87/87/87 89/89/89 90/90/90
f 87/87/87 90/90/90 84/84/84
f 87/87/87 84/84/84 83/83/83
f 91/91/91 92/92/92 38/38/38
f 91/91/91 38/38/38 37/37/37
f 91/91/91 37/37/37 18/18/18
f 91/91/91 18/18/18 93/93/93
f 91/91/91 93/93/93 69/69/69
f 91/91/91 69/69/69 82/82/82
f 91/91/91 82/82/82 94/94/94
f 91/91/91 94/94/94 92/92/92
f 95/95/95 96/96/96 44/44/44
f 95/95/95 44/44/44 43/43/43
f 95/95/95 43/43/43 40/40/40
f 95/95/95 40/40/40 97/97/97
f 95/95/95 97/97/97 84/84/84
f 95/95/95 84/84/84 90/90/90
f 95/95/95 90/90/90 98/98/98
f 95/95/95 98/98/98 96/96/96
f 99/99/99 100/100/100 7/7/7
f 99/99/99 7/7/7 6/6/6
f 99/99/99 6/6/6 5/5/5
f 99/99/99 5/5/5 101/101/101
f 99/99/99 101/101/101 52/52/52
f 99/99/99 52/52/52 51/51/51
f 99/99/99 51/51/51 102/102/102
f 99/99/99 102/102/102 100/100/100
f 103/103/103 104/104/104 15/15/15
f 103/103/103 15/15/15 14/14/14
f 103/103/103 14/14/14 9/9/9
f 103/103/103 9/9/9 105/105/105
f 103/103/103 105/105/105 48/48/48
f 103/103/103 48/48/48 58/58/58
f 103/103/103 58/58/58 106/106/106
f 103/103/103 106/106/106 104/104/104
f 107/107/107 108/108/108 12/12/12
f 107/107/107 12/12/12 11/11/11
f 107/107/107 11/11/11 15/15/15
f 107/107/107 15/15/15 104/104/104
f 107/107/107 104/104/104 106/106/106
f 107/107/107 106/106/106 56/56/56
f 107/107/107 56/56/56 60/60/60
f 107/107/107 60/60/60 108/108/108
f 109/109/109 97/97/97 40/40/40
f 109/109/109 40/40/40 39/39/39
f 109/109/109 39/39/39 38/38/38
f 109/109/109 38/38/38 92/92/92
f 109/109/109 92/92/92 94/94/94
f 109/109/109 94/94/94 85/85/85
f 109/109/109 85/85/85 84/84/84
f 109/109/109 84/84/84 97/97/97
f 110/110/110 111/111/111 27/27/27
f 110/110/110 27/27/27 45/45/45
f 110/110/110 45/45/45 44/44/44
f 110/110/110 44/44/44 96/96/96
f 110/110/110 96/96/96 98/98/98
f 110/110/110 98/98/98 88/88/88
f 110/110/110 88/88/88 74/74/74
f 110/110/110 74/74/74 111/111/111
f 112/112/112 105/105/105 9/9/9
f 112/112/112 9/9/9 8/8/8
f 112/112/112 8/8/8 7/7/7
f 112/112/112 7/7/7 100/100/100
f 112/112/112 100/100/100 102/102/102
f 112/112/112 102/102/102 49/49/49
f 112/112/112 49/49/49 48/48/48
f 112/112/112 48/48/48 105/105/105
f 113/113/113 101/101/101 5/5/5
f 113/113/113 5/5/5 33/33/33
f 113/113/113 33/33/33 29/29/29
f 113/113/113 29/29/29 114/114/114
f 113/113/113 114/114/114 72/72/72
f 113/113/113 72/72/72 78/78/78
f 113/113/113 78/78/78 52/52/52
f 113/113/113 52/52/52 101/101/101
f 115/115/115 116/116/116 24/24/24
f 115/115/115 24/24/24 35/35/35
f 115/115/115 35/35/35 12/12/12
f 115/115/115 12/12/12 108/108/108
f 115/115/115 108/108/108 60/60/60
f 115/115/115 60/60/60 80/80/80
f 115/115/115 80/80/80 63/63/63
f 115/115/115 63/63/63 116/116/116
f 117/117/117 93/93/93 18/18/18
f 117/117/117 18/18/18 17/17/17
f 117/117/117 17/17/17 24/24/24
f 117/117/117 24/24/24 116/116/116
f 117/117/117 116/116/116 63/63/63
f 117/117/117 63/63/63 62/62/62
f 117/117/117 62/62/62 69/69/69
f 117/117/117 69/69/69 93/93/93
f 118/118/118 114/114/114 29/29/29
f 118/118/118 29/29/29 28/28/28
f 118/118/118 28/28/28 27/27/27
f 118/118/118 27/27/27 111/111/111
f 118/118/118 111/111/111 74/74/74
f 118/118/118 74/74/74 73/73/73
f 118/118/118 73/73/73 72/72/72
f 118/118/118 72/72/72 114/114/114
