v -2.360978 0.479511 -1.093804
v -2.359465 0.479759 -1.093344
v -2.360229 0.480043 -1.092375
v -2.361494 0.479972 -1.09236
v -2.3625 0.479671 -1.093066
v -2.362492 0.479262 -1.094265
v -2.361727 0.478978 -1.095233
v -2.360463 0.479049 -1.095248
v -2.359457 0.479351 -1.094542
v -2.368216 0.559078 -1.134224
v -2.367453 0.558863 -1.135196
v -2.365225 0.54276 -1.125239
v -2.365996 0.543034 -1.124293
v -2.366013 0.54342 -1.12313
v -2.368223 0.559384 -1.133023
v -2.370433 0.575347 -1.142915
v -2.370437 0.575123 -1.144155
v -2.36968 0.574967 -1.145152
v -2.364244 0.511148 -1.109279
v -2.363476 0.510869 -1.110236
v -2.364256 0.511545 -1.108098
v -2.362213 0.510933 -1.110257
v -2.361211 0.511224 -1.109566
v -2.363964 0.542818 -1.125266
v -2.362965 0.543097 -1.12459
v -2.361223 0.511621 -1.108385
v -2.361991 0.5119 -1.107428
v -2.362982 0.543483 -1.123427
v -2.363752 0.543757 -1.12248
v -2.363254 0.511836 -1.107407
v -2.365014 0.543699 -1.122454
v -2.366189 0.558911 -1.135213
v -2.365182 0.559133 -1.134506
v -2.368414 0.575004 -1.14516
v -2.367399 0.575168 -1.144422
v -2.365189 0.559439 -1.133304
v -2.365952 0.559656 -1.132333
v -2.367395 0.575396 -1.143182
v -2.368152 0.575555 -1.142186
v -2.367216 0.559607 -1.132316
v -2.369418 0.575515 -1.142177
v -2.374842 0.622267 -1.172719
v -2.374082 0.62204 -1.173715
v -2.372969 0.606172 -1.164824
v -2.373726 0.606352 -1.163811
v -2.373721 0.606595 -1.162544
v -2.374842 0.622582 -1.171479
v -2.375755 0.638713 -1.180061
v -2.375747 0.638301 -1.18126
v -2.374982 0.638015 -1.182228
v -2.372816 0.622082 -1.17372
v -2.371804 0.622305 -1.172979
v -2.370686 0.606358 -1.164061
v -2.371703 0.606194 -1.164822
v -2.373718 0.638088 -1.182244
v -2.372711 0.638393 -1.181537
v -2.371803 0.622621 -1.171738
v -2.372562 0.622848 -1.170742
v -2.371435 0.606784 -1.16178
v -2.37068 0.606602 -1.162793
v -2.372719 0.638806 -1.180338
v -2.373484 0.639092 -1.179369
v -2.373829 0.622805 -1.170738
v -2.372703 0.60676 -1.161782
v -2.374748 0.639019 -1.179354
v -2.377304 0.656964 -1.188262
v -2.376539 0.656679 -1.18923
v -2.377312 0.657374 -1.187063
v -2.378869 0.676035 -1.194066
v -2.378861 0.675627 -1.195264
v -2.378096 0.675343 -1.196233
v -2.375275 0.656751 -1.189246
v -2.374269 0.657054 -1.188539
v -2.376832 0.675414 -1.196248
v -2.375825 0.675716 -1.195542
v -2.374276 0.657465 -1.187341
v -2.375041 0.65775 -1.186372
v -2.375834 0.676124 -1.194344
v -2.376598 0.676408 -1.193375
v -2.376305 0.657678 -1.186357
v -2.377862 0.676337 -1.193359
v -2.372187 0.590678 -1.154167
v -2.371431 0.590516 -1.155177
v -2.372181 0.590898 -1.152906
v -2.370164 0.59054 -1.155178
v -2.369148 0.590693 -1.154421
v -2.369141 0.590916 -1.15316
v -2.369896 0.59108 -1.15215
v -2.371164 0.591053 -1.152149
vn 0.0571 -0.9449 0.3225
vn 0.7634 -0.4695 0.4435
vn 0.3807 -0.2923 0.8773
vn -0.2154 -0.3363 0.9168
vn -0.6738 -0.4818 0.5602
vn -0.6834 -0.73 0.0056
vn -0.3068 -0.854 -0.42
vn 0.2756 -0.855 -0.4393
vn 0.7342 -0.6699 -0.1103
vn -0.9249 -0.2842 -0.2524
vn -0.4134 -0.5195 -0.7477
vn -0.423 -0.4654 -0.7775
vn -0.9369 -0.2312 -0.2619
vn -0.8872 0.1553 0.4344
vn -0.8953 0.1385 0.4234
vn -0.8948 0.1523 0.4197
vn -0.9274 -0.275 -0.2534
vn -0.4159 -0.5222 -0.7445
vn -0.9412 -0.1848 -0.2828
vn -0.4334 -0.4031 -0.806
vn -0.8967 0.1476 0.4173
vn 0.3185 -0.3894 -0.8642
vn 0.8968 -0.1471 -0.4172
vn 0.3233 -0.4276 -0.8441
vn 0.904 -0.1306 -0.407
vn 0.9412 0.1853 0.2825
vn 0.4335 0.4044 0.8054
vn 0.9311 0.2392 0.2754
vn 0.4271 0.4602 0.7783
vn -0.3189 0.3902 0.8637
vn -0.3054 0.4318 0.8487
vn 0.3128 -0.4678 -0.8266
vn 0.8953 -0.138 -0.4235
vn 0.3107 -0.4802 -0.8203
vn 0.8951 -0.1522 -0.419
vn 0.9249 0.2842 0.2524
vn 0.4136 0.5202 0.7472
vn 0.9252 0.2792 0.2567
vn 0.4089 0.523 0.7478
vn -0.3135 0.4685 0.8259
vn -0.3147 0.4769 0.8206
vn -0.9402 -0.2073 -0.2702
vn -0.4301 -0.4529 -0.7809
vn -0.4253 -0.483 -0.7654
vn -0.9352 -0.2348 -0.265
vn -0.8991 0.1604 0.4072
vn -0.8986 0.164 0.4069
vn -0.9037 0.1209 0.4106
vn -0.938 -0.1962 -0.2857
vn -0.4247 -0.3966 -0.8139
vn 0.3219 -0.4379 -0.8394
vn 0.8953 -0.1692 -0.412
vn 0.8924 -0.1726 -0.4169
vn 0.3153 -0.4606 -0.8297
vn 0.3239 -0.3694 -0.871
vn 0.8907 -0.1345 -0.4341
vn 0.9416 0.2048 0.267
vn 0.4296 0.4534 0.7809
vn 0.4238 0.4857 0.7645
vn 0.938 0.2301 0.2592
vn 0.947 0.1841 0.2631
vn 0.4454 0.3948 0.8036
vn -0.325 0.4366 0.8389
vn -0.3215 0.4586 0.8284
vn -0.3268 0.3705 0.8694
vn -0.9431 -0.1828 -0.2776
vn -0.4384 -0.3475 -0.8288
vn -0.8955 0.0889 0.436
vn -0.8999 0.0854 0.4276
vn -0.9416 -0.1842 -0.2816
vn -0.4398 -0.3474 -0.8282
vn 0.3233 -0.3086 -0.8945
vn 0.8955 -0.0889 -0.4361
vn 0.3175 -0.3097 -0.8962
vn 0.8909 -0.0925 -0.4447
vn 0.9431 0.1829 0.2776
vn 0.4384 0.3476 0.8288
vn 0.9445 0.1815 0.2738
vn 0.4371 0.3477 0.8295
vn -0.3232 0.3087 0.8945
vn -0.3286 0.3077 0.8929
vn -0.9298 -0.2613 -0.259
vn -0.4172 -0.5145 -0.7491
vn -0.8968 0.1624 0.4115
vn 0.3124 -0.4825 -0.8183
vn 0.8931 -0.1699 -0.4165
vn 0.9315 0.2584 0.2557
vn 0.4159 0.5155 0.7492
vn -0.3155 0.4806 0.8182
vt 0.000000 0.000000
vt 0.000000 0.000000
vt 0.000000 0.000000
vt 0.000000 0.000000
vt 0.000000 0.000000
vt 0.000000 0.000000
vt 0.000000 0.000000
vt 0.000000 0.000000
vt 0.000000 0.000000
vt 0.000000 0.000000
vt 0.000000 0.000000
vt 0.000000 0.000000
vt 0.000000 0.000000
vt 0.000000 0.000000
vt 0.000000 0.000000
vt 0.000000 0.000000
vt 0.000000 0.000000
vt 0.000000 0.000000
vt 0.000000 0.000000
vt 0.000000 0.000000
vt 0.000000 0.000000
vt 0.000000 0.000000
vt 0.000000 0.000000
vt 0.000000 0.000000
vt 0.000000 0.000000
vt 0.000000 0.000000
vt 0.000000 0.000000
vt 0.000000 0.000000
vt 0.000000 0.000000
vt 0.000000 0.000000
vt 0.000000 0.000000
vt 0.000000 0.000000
vt 0.000000 0.000000
vt 0.000000 0.000000
vt 0.000000 0.000000
vt 0.000000 0.000000
vt 0.000000 0.000000
vt 0.000000 0.000000
vt 0.000000 0.000000
vt 0.000000 0.000000
vt 0.000000 0.000000
vt 0.000000 0.000000
vt 0.000000 0.000000
vt 0.000000 0.000000
vt 0.000000 0.000000
vt 0.000000 0.000000
vt 0.000000 0.000000
vt 0.000000 0.000000
vt 0.000000 0.000000
vt 0.000000 0.000000
vt 0.000000 0.000000
vt 0.000000 0.000000
vt 0.000000 0.000000
vt 0.000000 0.000000
vt 0.000000 0.000000
vt 0.000000 0.000000
vt 0.000000 0.000000
vt 0.000000 0.000000
vt 0.000000 0.000000
vt 0.000000 0.000000
vt 0.000000 0.000000
vt 0.000000 0.000000
vt 0.000000 0.000000
vt 0.000000 0.000000
vt 0.000000 0.000000
vt 0.000000 0.000000
vt 0.000000 0.000000
vt 0.000000 0.000000
vt 0.000000 0.000000
vt 0.000000 0.000000
vt 0.000000 0.000000
vt 0.000000 0.000000
vt 0.000000 0.000000
vt 0.000000 0.000000
vt 0.000000 0.000000
vt 0.000000 0.000000
vt 0.000000 0.000000
vt 0.000000 0.000000
vt 0.000000 0.000000
vt 0.000000 0.000000
vt 0.000000 0.000000
vt 0.000000 0.000000
vt 0.000000 0.000000
vt 0.000000 0.000000
vt 0.000000 0.000000
vt 0.000000 0.000000
vt 0.000000 0.000000
vt 0.000000 0.000000
vt 0.000000 0.000000
f 1/1/1 2/2/2 3/3/3
f 1/1/1 3/3/3 4/4/4
f 1/1/1 4/4/4 5/5/5
f 1/1/1 5/5/5 6/6/6
f 1/1/1 6/6/6 7/7/7
f 1/1/1 7/7/7 8/8/8
f 1/1/1 8/8/8 9/9/9
f 1/1/1 9/9/9 2/2/2
f 10/10/10 11/11/11 12/12/12
f 10/10/10 12/12/12 13/13/13
f 10/10/10 13/13/13 14/14/14
f 10/10/10 14/14/14 15/15/15
f 10/10/10 15/15/15 16/16/16
f 10/10/10 16/16/16 17/17/17
f 10/10/10 17/17/17 18/18/18
f 10/10/10 18/18/18 11/11/11
f 19/19/19 20/20/20 7/7/7
f 19/19/19 7/7/7 6/6/6
f 19/19/19 6/6/6 5/5/5
f 19/19/19 5/5/5 21/21/21
f 19/19/19 21/21/21 14/14/14
f 19/19/19 14/14/14 13/13/13
f 19/19/19 13/13/13 12/12/12
f 19/19/19 12/12/12 20/20/20
f 22/22/22 23/23/23 9/9/9
f 22/22/22 9/9/9 8/8/8
f 22/22/22 8/8/8 7/7/7
f 22/22/22 7/7/7 20/20/20
f 22/22/22 20/20/20 12/12/12
f 22/22/22 12/12/12 24/24/24
f 22/22/22 24/24/24 25/25/25
f 22/22/22 25/25/25 23/23/23
f 26/26/26 27/27/27 3/3/3
f 26/26/26 3/3/3 2/2/2
f 26/26/26 2/2/2 9/9/9
f 26/26/26 9/9/9 23/23/23
f 26/26/26 23/23/23 25/25/25
f 26/26/26 25/25/25 28/28/28
f 26/26/26 28/28/28 29/29/29
f 26/26/26 29/29/29 27/27/27
f 30/30/30 21/21/21 5/5/5
f 30/30/30 5/5/5 4/4/4
f 30/30/30 4/4/4 3/3/3
f 30/30/30 3/3/3 27/27/27
f 30/30/30 27/27/27 29/29/29
f 30/30/30 29/29/29 31/31/31
f 30/30/30 31/31/31 14/14/14
f 30/30/30 14/14/14 21/21/21
f 32/32/32 33/33/33 25/25/25
f 32/32/32 25/25/25 24/24/24
f 32/32/32 24/24/24 12/12/12
f 32/32/32 12/12/12 11/11/11
f 32/32/32 11/11/11 18/18/18
f 32/32/32 18/18/18 34/34/34
f 32/32/32 34/34/34 35/35/35
f 32/32/32 35/35/35 33/33/33
f 36/36/36 37/37/37 29/29/29
f 36/36/36 29/29/29 28/28/28
f 36/36/36 28/28/28 25/25/25
f 36/36/36 25/25/25 33/33/33
f 36/36/36 33/33/33 35/35/35
f 36/36/36 35/35/35 38/38/38
f 36/36/36 38/38/38 39/39/39
f 36/36/36 39/39/39 37/37/37
f 40/40/40 15/15/15 14/14/14
f 40/40/40 14/14/14 31/31/31
f 40/40/40 31/31/31 29/29/29
f 40/40/40 29/29/29 37/37/37
f 40/40/40 37/37/37 39/39/39
f 40/40/40 39/39/39 41/41/41
f 40/40/40 41/41/41 16/16/16
f 40/40/40 16/16/16 15/15/15
f 42/42/42 43/43/43 44/44/44
f 42/42/42 44/44/44 45/45/45
f 42/42/42 45/45/45 46/46/46
f 42/42/42 46/46/46 47/47/47
f 42/42/42 47/47/47 48/48/48
f 42/42/42 48/48/48 49/49/49
f 42/42/42 49/49/49 50/50/50
f 42/42/42 50/50/50 43/43/43
f 51/51/51 52/52/52 53/53/53
f 51/51/51 53/53/53 54/54/54
f 51/51/51 54/54/54 44/44/44
f 51/51/51 44/44/44 43/43/43
f 51/51/51 43/43/43 50/50/50
f 51/51/51 50/50/50 55/55/55
f 51/51/51 55/55/55 56/56/56
f 51/51/51 56/56/56 52/52/52
f 57/57/57 58/58/58 59/59/59
f 57/57/57 59/59/59 60/60/60
f 57/57/57 60/60/60 53/53/53
f 57/57/57 53/53/53 52/52/52
f 57/57/57 52/52/52 56/56/56
f 57/57/57 56/56/56 61/61/61
f 57/57/57 61/61/61 62/62/62
f 57/57/57 62/62/62 58/58/58
f 63/63/63 47/47/47 46/46/46
f 63/63/63 46/46/46 64/64/64
f 63/63/63 64/64/64 59/59/59
f 63/63/63 59/59/59 58/58/58
f 63/63/63 58/58/58 62/62/62
f 63/63/63 62/62/62 65/65/65
f 63/63/63 65/65/65 48/48/48
f 63/63/63 48/48/48 47/47/47
f 66/66/66 67/67/67 50/50/50
f 66/66/66 50/50/50 49/49/49
f 66/66/66 49/49/49 48/48/48
f 66/66/66 48/48/48 68/68/68
f 66/66/66 68/68/68 69/69/69
f 66/66/66 69/69/69 70/70/70
f 66/66/66 70/70/70 71/71/71
f 66/66/66 71/71/71 67/67/67
f 72/72/72 73/73/73 56/56/56
f 72/72/72 56/56/56 55/55/55
f 72/72/72 55/55/55 50/50/50
f 72/72/72 50/50/50 67/67/67
f 72/72/72 67/67/67 71/71/71
f 72/72/72 71/71/71 74/74/74
f 72/72/72 74/74/74 75/75/75
f 72/72/72 75/75/75 73/73/73
f 76/76/76 77/77/77 62/62/62
f 76/76/76 62/62/62 61/61/61
f 76/76/76 61/61/61 56/56/56
f 76/76/76 56/56/56 73/73/73
f 76/76/76 73/73/73 75/75/75
f 76/76/76 75/75/75 78/78/78
f 76/76/76 78/78/78 79/79/79
f 76/76/76 79/79/79 77/77/77
f 80/80/80 68/68/68 48/48/48
f 80/80/80 48/48/48 65/65/65
f 80/80/80 65/65/65 62/62/62
f 80/80/80 62/62/62 77/77/77
f 80/80/80 77/77/77 79/79/79
f 80/80/80 79/79/79 81/81/81
f 80/80/80 81/81/81 69/69/69
f 80/80/80 69/69/69 68/68/68
f 82/82/82 83/83/83 18/18/18
f 82/82/82 18/18/18 17/17/17
f 82/82/82 17/17/17 16/16/16
f 82/82/82 16/16/16 84/84/84
f 82/82/82 84/84/84 46/46/46
f 82/82/82 46/46/46 45/45/45
f 82/82/82 45/45/45 44/44/44
f 82/82/82 44/44/44 83/83/83
f 85/85/85 86/86/86 35/35/35
f 85/85/85 35/35/35 34/34/34
f 85/85/85 34/34/34 18/18/18
f 85/85/85 18/18/18 83/83/83
f 85/85/85 83/83/83 44/44/44
f 85/85/85 44/44/44 54/54/54
f 85/85/85 54/54/54 53/53/53
f 85/85/85 53/53/53 86/86/86
f 87/87/87 88/88/88 39/39/39
f 87/87/87 39/39/39 38/38/38
f 87/87/87 38/38/38 35/35/35
f 87/87/87 35/35/35 86/86/86
f 87/87/87 86/86/86 53/53/53
f 87/87/87 53/53/53 60/60/60
f 87/87/87 60/60/60 59/59/59
f 87/87/87 59/59/59 88/88/88
f 89/89/89 84/84/84 16/16/16
f 89/89/89 16/16/16 41/41/41
f 89/89/89 41/41/41 39/39/39
f 89/89/89 39/39/39 88/88/88
f 89/89/89 88/88/88 59/59/59
f 89/89/89 59/59/59 64/64/64
f 89/89/89 64/64/64 46/46/46
f 89/89/89 46/46/46 84/84/84
