v -2.477859 1.508567 -0.727249
v -2.477859 1.508567 -0.587249
v -2.484695 1.218647 -0.587249
v -2.484695 1.218647 -0.727249
v -2.48274 1.513683 -0.587249
v -2.48274 1.513683 -0.727249
v -2.492737 1.513919 -0.727249
v -2.492737 1.513919 -0.587249
v -2.492855 1.50892 -0.732249
v -2.482858 1.508685 -0.732249
v -2.489694 1.218765 -0.732249
v -2.499691 1.219001 -0.732249
v -2.482858 1.508685 -0.582249
v -2.492855 1.50892 -0.582249
v -2.499691 1.219001 -0.582249
v -2.489694 1.218765 -0.582249
v -2.485422 1.216167 -0.727249
v -2.486068 1.216288 -0.72964
v -2.485363 1.218663 -0.729746
v -2.4873 1.214375 -0.727249
v -2.487391 1.215027 -0.72964
v -2.489812 1.213767 -0.727249
v -2.489796 1.214434 -0.729746
v -2.489753 1.216269 -0.731581
v -2.48736 1.216318 -0.730933
v -2.487198 1.218706 -0.731581
v -2.48736 1.216318 -0.730933
v -2.489753 1.216269 -0.731581
v -2.485363 1.218663 -0.729746
v -2.486068 1.216288 -0.72964
v -2.487391 1.215027 -0.72964
v -2.489753 1.216269 -0.582917
v -2.48736 1.216318 -0.583566
v -2.487198 1.218706 -0.582917
v -2.489796 1.214434 -0.584753
v -2.487391 1.215027 -0.584858
v -2.489812 1.213767 -0.587249
v -2.4873 1.214375 -0.587249
v -2.487391 1.215027 -0.584858
v -2.489796 1.214434 -0.584753
v -2.485422 1.216167 -0.587249
v -2.486068 1.216288 -0.584858
v -2.485363 1.218663 -0.584753
v -2.486068 1.216288 -0.584858
v -2.485422 1.216167 -0.587249
v -2.48736 1.216318 -0.583566
v -2.487391 1.215027 -0.584858
v -2.48026 1.512957 -0.727249
v -2.480381 1.51231 -0.72964
v -2.482756 1.513015 -0.729746
v -2.478468 1.511078 -0.727249
v -2.479119 1.510988 -0.72964
v -2.478527 1.508582 -0.729746
v -2.479119 1.510988 -0.72964
v -2.478468 1.511078 -0.727249
v -2.480362 1.508626 -0.731581
v -2.480411 1.511019 -0.730933
v -2.482799 1.511181 -0.731581
v -2.482756 1.513015 -0.729746
v -2.480381 1.51231 -0.72964
v -2.482756 1.513015 -0.584753
v -2.480381 1.51231 -0.584858
v -2.48026 1.512957 -0.587249
v -2.482799 1.511181 -0.582917
v -2.480411 1.511019 -0.583566
v -2.480362 1.508626 -0.582917
v -2.480411 1.511019 -0.583566
v -2.482799 1.511181 -0.582917
v -2.478527 1.508582 -0.584753
v -2.479119 1.510988 -0.584858
v -2.478468 1.511078 -0.587249
v -2.479119 1.510988 -0.584858
v -2.478527 1.508582 -0.584753
v -2.480381 1.51231 -0.584858
v -2.480411 1.511019 -0.583566
v -2.492753 1.513249 -0.729749
v -2.482799 1.511181 -0.731581
v -2.492796 1.51142 -0.73158
v -2.492796 1.51142 -0.73158
v -2.499809 1.214002 -0.727249
v -2.499793 1.214672 -0.729749
v -2.49975 1.216502 -0.73158
v -2.49975 1.216502 -0.73158
v -2.492753 1.513249 -0.584749
v -2.492796 1.51142 -0.582919
v -2.492796 1.51142 -0.582919
v -2.499809 1.214002 -0.587249
v -2.499793 1.214672 -0.584749
v -2.489753 1.216269 -0.582917
v -2.49975 1.216502 -0.582919
v -2.49975 1.216502 -0.582919
vn 0.9858 0.1064 -0.1296
vn 0.9858 0.1064 0.1296
vn 0.9797 -0.1527 0.1296
vn 0.9797 -0.1527 -0.1296
vn 0.1527 0.9797 0.1296
vn 0.1527 0.9797 -0.1296
vn 0.0233 0.9912 -0.1304
vn 0.0233 0.9912 0.1304
vn 0.003 0.1304 -0.9915
vn 0.1326 0.1265 -0.983
vn 0.1265 -0.1326 -0.983
vn -0.0031 -0.1304 -0.9915
vn 0.1326 0.1265 0.983
vn 0.003 0.1304 0.9915
vn -0.0031 -0.1304 0.9915
vn 0.1265 -0.1326 0.983
vn 0.8505 -0.5117 -0.1216
vn 0.7637 -0.4654 -0.4473
vn 0.8592 -0.1419 -0.4915
vn 0.4711 -0.8737 -0.1216
vn 0.429 -0.7848 -0.4473
vn 0.1064 -0.9858 -0.1296
vn 0.1012 -0.8649 -0.4915
vn 0.11 -0.4943 -0.8623
vn 0.4367 -0.4577 -0.7744
vn 0.4885 -0.1331 -0.8623
vn 0.4367 -0.4577 -0.7744
vn 0.11 -0.4943 -0.8623
vn 0.8592 -0.1419 -0.4915
vn 0.7637 -0.4654 -0.4473
vn 0.429 -0.7848 -0.4473
vn 0.11 -0.4943 0.8623
vn 0.4367 -0.4578 0.7744
vn 0.4885 -0.1331 0.8623
vn 0.1012 -0.8649 0.4915
vn 0.429 -0.7848 0.4473
vn 0.1064 -0.9858 0.1296
vn 0.4711 -0.8737 0.1216
vn 0.429 -0.7848 0.4473
vn 0.1012 -0.8649 0.4915
vn 0.8505 -0.5117 0.1216
vn 0.7637 -0.4654 0.4473
vn 0.8592 -0.1419 0.4915
vn 0.7637 -0.4654 0.4473
vn 0.8505 -0.5117 0.1216
vn 0.4367 -0.4578 0.7744
vn 0.429 -0.7848 0.4473
vn 0.5117 0.8505 -0.1216
vn 0.4654 0.7637 -0.4473
vn 0.1419 0.8592 -0.4916
vn 0.8737 0.471 -0.1216
vn 0.7848 0.4289 -0.4473
vn 0.865 0.1011 -0.4915
vn 0.7848 0.4289 -0.4473
vn 0.8737 0.471 -0.1216
vn 0.4943 0.1099 -0.8623
vn 0.4577 0.4367 -0.7744
vn 0.1331 0.4885 -0.8623
vn 0.1419 0.8592 -0.4916
vn 0.4654 0.7637 -0.4473
vn 0.1419 0.8592 0.4916
vn 0.4654 0.7637 0.4473
vn 0.5117 0.8505 0.1216
vn 0.1331 0.4885 0.8623
vn 0.4577 0.4367 0.7744
vn 0.4943 0.1099 0.8623
vn 0.4577 0.4367 0.7744
vn 0.1331 0.4885 0.8623
vn 0.865 0.1011 0.4915
vn 0.7848 0.4289 0.4473
vn 0.8737 0.471 0.1216
vn 0.7848 0.4289 0.4473
vn 0.865 0.1011 0.4915
vn 0.4654 0.7637 0.4473
vn 0.4577 0.4367 0.7744
vn 0.0204 0.8658 -0.5
vn 0.1331 0.4885 -0.8623
vn 0.0118 0.4998 -0.866
vn 0.0118 0.4998 -0.866
vn -0.0234 -0.9912 -0.1304
vn -0.0204 -0.8658 -0.4999
vn -0.0117 -0.4998 -0.866
vn -0.0117 -0.4998 -0.866
vn 0.0204 0.8658 0.5
vn 0.0118 0.4998 0.866
vn 0.0118 0.4998 0.866
vn -0.0234 -0.9912 0.1304
vn -0.0204 -0.8658 0.4999
vn 0.11 -0.4943 0.8623
vn -0.0117 -0.4998 0.866
vn -0.0117 -0.4998 0.866
vt 0.720710 0.980674
vt 0.022069 0.980674
vt 0.022070 0.019501
vt 0.720712 0.019501
vt 0.022069 1.013818
vt 0.720711 1.013819
vt 0.720710 1.046962
vt 0.022068 1.046962
vt 0.820517 0.980675
vt 0.770614 0.980675
vt 0.770615 0.019501
vt 0.820519 0.019501
vt -0.027834 0.980674
vt -0.077738 0.980674
vt -0.077738 0.019501
vt -0.027834 0.019501
vt 0.720712 0.011226
vt 0.732644 0.011576
vt 0.733171 0.019501
vt 0.720712 -0.005368
vt 0.732644 -0.005718
vt 0.720712 -0.013643
vt 0.733171 -0.013643
vt 0.742330 -0.013643
vt 0.739092 -0.005718
vt 0.758156 0.019501
vt 0.758683 0.011576
vt 0.770615 0.011226
vt 0.748997 0.019501
vt 0.752235 0.011576
vt 0.758683 0.007294
vt -0.027834 0.011226
vt -0.015901 0.011576
vt -0.015374 0.019501
vt -0.027834 0.005143
vt -0.015901 0.007294
vt 0.022070 -0.013643
vt 0.022070 -0.005368
vt 0.010138 -0.005718
vt 0.009610 -0.013643
vt 0.022070 0.000715
vt 0.010138 -0.001435
vt 0.009610 0.019501
vt 0.010138 0.011576
vt 0.022070 0.011226
vt 0.003690 0.011576
vt 0.010138 0.007294
vt 0.720711 1.005543
vt 0.732643 1.005893
vt 0.733170 1.013818
vt 0.720711 0.999460
vt 0.732643 1.001611
vt 0.733170 0.980675
vt 0.732643 0.988599
vt 0.720710 0.988950
vt 0.758154 0.980675
vt 0.758681 0.988599
vt 0.770614 0.988950
vt 0.770614 0.995032
vt 0.758681 0.992882
vt 0.009609 1.013818
vt 0.010137 1.005893
vt 0.022069 1.005543
vt 0.000451 1.013818
vt 0.003689 1.005893
vt -0.015375 0.980674
vt -0.015902 0.988599
vt -0.027834 0.988950
vt -0.006216 0.980674
vt -0.009454 0.988599
vt 0.022069 0.988949
vt 0.010137 0.988599
vt 0.009609 0.980674
vt 0.010137 0.992882
vt 0.003689 0.988599
vt 0.733186 1.046962
vt 0.742329 1.013819
vt 0.742319 1.046962
vt 0.820517 0.988961
vt 0.720712 -0.046787
vt 0.733188 -0.046787
vt 0.742321 -0.046787
vt 0.820519 0.011215
vt 0.009593 1.046962
vt 0.000460 1.046962
vt -0.077738 0.988960
vt 0.022070 -0.046787
vt 0.009594 -0.046787
vt 0.000452 -0.013643
vt 0.000461 -0.046787
vt -0.077738 0.011215
f 1/1/1 2/2/2 3/3/3
f 1/1/1 3/3/3 4/4/4
f 5/5/5 6/6/6 7/7/7
f 5/5/5 7/7/7 8/8/8
f 9/9/9 10/10/10 11/11/11
f 9/9/9 11/11/11 12/12/12
f 13/13/13 14/14/14 15/15/15
f 13/13/13 15/15/15 16/16/16
f 4/4/4 17/17/17 18/18/18
f 4/4/4 18/18/18 19/19/19
f 17/17/17 20/20/20 21/21/21
f 17/17/17 21/21/21 18/18/18
f 22/22/22 23/23/23 21/21/21
f 22/22/22 21/21/21 20/20/20
f 23/23/23 24/24/24 25/25/25
f 23/23/23 25/25/25 21/21/21
f 11/11/11 26/26/26 27/27/27
f 11/11/11 27/27/27 28/28/28
f 26/26/26 29/29/29 30/30/30
f 26/26/26 30/30/30 27/27/27
f 18/18/18 31/31/31 27/27/27
f 16/16/16 32/32/32 33/33/33
f 16/16/16 33/33/33 34/34/34
f 32/32/32 35/35/35 36/36/36
f 32/32/32 36/36/36 33/33/33
f 37/37/37 38/38/38 39/39/39
f 37/37/37 39/39/39 40/40/40
f 38/38/38 41/41/41 42/42/42
f 38/38/38 42/42/42 39/39/39
f 3/3/3 43/43/43 44/44/44
f 3/3/3 44/44/44 45/45/45
f 43/43/43 34/34/34 33/33/33
f 43/43/43 33/33/33 44/44/44
f 46/46/46 47/47/47 44/44/44
f 6/6/6 48/48/48 49/49/49
f 6/6/6 49/49/49 50/50/50
f 48/48/48 51/51/51 52/52/52
f 48/48/48 52/52/52 49/49/49
f 1/1/1 53/53/53 54/54/54
f 1/1/1 54/54/54 55/55/55
f 53/53/53 56/56/56 57/57/57
f 53/53/53 57/57/57 54/54/54
f 10/10/10 58/58/58 57/57/57
f 10/10/10 57/57/57 56/56/56
f 58/58/58 59/59/59 60/60/60
f 58/58/58 60/60/60 57/57/57
f 60/60/60 54/54/54 57/57/57
f 5/5/5 61/61/61 62/62/62
f 5/5/5 62/62/62 63/63/63
f 61/61/61 64/64/64 65/65/65
f 61/61/61 65/65/65 62/62/62
f 13/13/13 66/66/66 67/67/67
f 13/13/13 67/67/67 68/68/68
f 66/66/66 69/69/69 70/70/70
f 66/66/66 70/70/70 67/67/67
f 2/2/2 71/71/71 72/72/72
f 2/2/2 72/72/72 73/73/73
f 71/71/71 63/63/63 62/62/62
f 71/71/71 62/62/62 72/72/72
f 74/74/74 75/75/75 72/72/72
f 7/7/7 6/6/6 50/50/50
f 7/7/7 50/50/50 76/76/76
f 76/76/76 50/50/50 77/77/77
f 76/76/76 77/77/77 78/78/78
f 79/79/79 58/58/58 10/10/10
f 79/79/79 10/10/10 9/9/9
f 1/1/1 4/4/4 19/19/19
f 1/1/1 19/19/19 53/53/53
f 53/53/53 19/19/19 26/26/26
f 53/53/53 26/26/26 56/56/56
f 56/56/56 26/26/26 11/11/11
f 56/56/56 11/11/11 10/10/10
f 22/22/22 80/80/80 81/81/81
f 22/22/22 81/81/81 23/23/23
f 23/23/23 81/81/81 82/82/82
f 23/23/23 82/82/82 24/24/24
f 28/28/28 83/83/83 12/12/12
f 28/28/28 12/12/12 11/11/11
f 6/6/6 5/5/5 63/63/63
f 6/6/6 63/63/63 48/48/48
f 48/48/48 63/63/63 71/71/71
f 48/48/48 71/71/71 55/55/55
f 55/55/55 71/71/71 2/2/2
f 55/55/55 2/2/2 1/1/1
f 13/13/13 16/16/16 34/34/34
f 13/13/13 34/34/34 66/66/66
f 66/66/66 34/34/34 43/43/43
f 66/66/66 43/43/43 73/73/73
f 73/73/73 43/43/43 3/3/3
f 73/73/73 3/3/3 2/2/2
f 37/37/37 22/22/22 20/20/20
f 37/37/37 20/20/20 38/38/38
f 38/38/38 20/20/20 17/17/17
f 38/38/38 17/17/17 45/45/45
f 45/45/45 17/17/17 4/4/4
f 45/45/45 4/4/4 3/3/3
f 5/5/5 8/8/8 84/84/84
f 5/5/5 84/84/84 61/61/61
f 61/61/61 84/84/84 85/85/85
f 61/61/61 85/85/85 64/64/64
f 68/68/68 86/86/86 14/14/14
f 68/68/68 14/14/14 13/13/13
f 87/87/87 37/37/37 40/40/40
f 87/87/87 40/40/40 88/88/88
f 88/88/88 40/40/40 89/89/89
f 88/88/88 89/89/89 90/90/90
f 91/91/91 32/32/32 16/16/16
f 91/91/91 16/16/16 15/15/15
f 87/87/87 80/80/80 22/22/22
f 87/87/87 22/22/22 37/37/37
