v -2.312139 0.774939 -1.215201
v -2.309385 0.774777 -1.215246
v -2.310326 0.772197 -1.217686
v -2.313342 0.772612 -1.217311
v -2.31569 0.772989 -1.217327
v -2.314356 0.774963 -1.215639
v -2.313013 0.775941 -1.214507
v -2.311172 0.776474 -1.21363
v -2.30868 0.776577 -1.213369
v -2.307021 0.774417 -1.216623
v -2.305381 0.774048 -1.218133
v -2.305495 0.77195 -1.22016
v -2.307526 0.772019 -1.218928
v -2.306742 0.776022 -1.214862
v -2.305745 0.7752 -1.216527
v -2.310239 0.762652 -1.225024
v -2.308157 0.762555 -1.225885
v -2.309521 0.759106 -1.227271
v -2.311359 0.759186 -1.226493
v -2.313836 0.759357 -1.225605
v -2.313043 0.76285 -1.224036
v -2.312202 0.7662 -1.222239
v -2.309273 0.766009 -1.223295
v -2.307103 0.76593 -1.22423
v -2.315938 0.763233 -1.22344
v -2.316399 0.7597 -1.225093
v -2.318353 0.760006 -1.224816
v -2.318143 0.763573 -1.223109
v -2.317549 0.766995 -1.221327
v -2.315235 0.766617 -1.221638
v -2.314372 0.76979 -1.219526
v -2.311281 0.769327 -1.220069
v -2.316742 0.770233 -1.219312
v -2.308323 0.769174 -1.221207
v -2.306142 0.769153 -1.222257
v -2.312774 0.755694 -1.2278
v -2.311414 0.755659 -1.228439
v -2.312797 0.753722 -1.228874
v -2.313934 0.753049 -1.228689
v -2.31518 0.753097 -1.228147
v -2.314611 0.755802 -1.227093
v -2.316535 0.756078 -1.226755
v -2.316511 0.753312 -1.227972
v -2.317434 0.754194 -1.227585
v -2.318009 0.756331 -1.226606
v -2.312139 0.774749 -1.214984
v -2.309347 0.774581 -1.215037
v -2.308652 0.776427 -1.213216
v -2.311175 0.776329 -1.21347
v -2.313024 0.775836 -1.214386
v -2.314375 0.774825 -1.215472
v -2.315702 0.772856 -1.217156
v -2.313336 0.77243 -1.217087
v -2.310285 0.77201 -1.21747
v -2.306945 0.77422 -1.216427
v -2.305305 0.773901 -1.217993
v -2.305694 0.775089 -1.216423
v -2.306684 0.775871 -1.214718
v -2.307451 0.77183 -1.218723
v -2.305421 0.771808 -1.220013
v -2.310161 0.762507 -1.224786
v -2.308086 0.762446 -1.22571
v -2.307033 0.76581 -1.224063
v -2.309198 0.76585 -1.223065
v -2.312152 0.766043 -1.222001
v -2.312989 0.762706 -1.223789
v -2.313779 0.759224 -1.225354
v -2.311278 0.759051 -1.22625
v -2.309448 0.759003 -1.227093
v -2.315909 0.763093 -1.223188
v -2.315211 0.766463 -1.221394
v -2.317544 0.766882 -1.221141
v -2.318133 0.76347 -1.222918
v -2.318342 0.75991 -1.224621
v -2.316368 0.75957 -1.224836
v -2.314357 0.769621 -1.219292
v -2.311235 0.769154 -1.219843
v -2.316746 0.77011 -1.219133
v -2.308248 0.768999 -1.22099
v -2.306071 0.769021 -1.2221
v -2.31269 0.755563 -1.227555
v -2.311338 0.75556 -1.22826
v -2.314554 0.755673 -1.22684
v -2.315137 0.753001 -1.227957
v -2.31387 0.752951 -1.228505
v -2.312744 0.753648 -1.22874
v -2.316504 0.755951 -1.226495
v -2.317999 0.756239 -1.226409
v -2.317424 0.754125 -1.22744
v -2.31649 0.753218 -1.227777
v -2.310924 0.755603 -1.228574
v -2.312942 0.753021 -1.229158
v -2.308874 0.759033 -1.227452
v -2.312744 0.753648 -1.22874
v -2.316494 0.752348 -1.228292
v -2.317589 0.753494 -1.227867
v -2.315351 0.752153 -1.228413
v -2.317424 0.754125 -1.22744
v -2.315108 0.774911 -1.21571
v -2.313277 0.776122 -1.214359
v -2.316482 0.773057 -1.217255
v -2.313024 0.775836 -1.214386
v -2.306623 0.77649 -1.214211
v -2.305414 0.77532 -1.216544
v -2.308433 0.77711 -1.212676
v -2.305694 0.775089 -1.216423
v -2.304796 0.77386 -1.218576
v -2.304781 0.771864 -1.220507
v -2.314292 0.752124 -1.228903
v -2.318499 0.756375 -1.226468
v -2.319003 0.760066 -1.224637
v -2.310852 0.776921 -1.213036
v -2.317538 0.770327 -1.21916
v -2.318321 0.767071 -1.221141
v -2.30538 0.769087 -1.222539
v -2.306345 0.765851 -1.224468
v -2.307429 0.762474 -1.226095
v -2.318876 0.763641 -1.222914
vn 0.0875 0.6652 -0.7415
vn -0.1175 0.7179 -0.6862
vn -0.1328 0.6753 -0.7255
vn 0.0498 0.6272 -0.7772
vn 0.0344 0.6104 -0.7913
vn 0.0797 0.6668 -0.741
vn 0.1106 0.7039 -0.7016
vn 0.0728 0.7368 -0.6721
vn -0.0928 0.7791 -0.6199
vn -0.3277 0.7075 -0.6261
vn -0.3204 0.7077 -0.6296
vn -0.3188 0.6464 -0.6932
vn -0.3214 0.6651 -0.6741
vn -0.2663 0.7714 -0.5779
vn -0.3192 0.7479 -0.5821
vn -0.2946 0.4778 -0.8276
vn -0.2615 0.4684 -0.8439
vn -0.2654 0.4394 -0.8581
vn -0.3089 0.4488 -0.8385
vn -0.2004 0.4314 -0.8796
vn -0.1917 0.4692 -0.862
vn -0.1731 0.5426 -0.822
vn -0.2905 0.5438 -0.7873
vn -0.2688 0.5281 -0.8055
vn -0.0862 0.4566 -0.8855
vn -0.0853 0.4259 -0.9007
vn -0.1334 0.426 -0.8948
vn -0.124 0.4543 -0.8821
vn -0.0871 0.5095 -0.856
vn -0.0566 0.52 -0.8523
vn -0.0057 0.584 -0.8117
vn -0.1511 0.6189 -0.7708
vn -0.0283 0.566 -0.8239
vn -0.3005 0.6141 -0.7297
vn -0.2911 0.5929 -0.7508
vn -0.3356 0.4371 -0.8345
vn -0.2904 0.4235 -0.8581
vn -0.3234 0.4098 -0.8529
vn -0.3667 0.386 -0.8465
vn -0.2152 0.3614 -0.9072
vn -0.2044 0.4133 -0.8873
vn -0.063 0.4093 -0.9102
vn -0.0525 0.3541 -0.9337
vn -0.0876 0.3858 -0.9184
vn -0.1155 0.4057 -0.9067
vn -0.1084 -0.6412 0.7597
vn 0.1217 -0.7064 0.6972
vn 0.1378 -0.6603 0.7382
vn -0.1719 -0.5664 0.806
vn -0.2755 -0.5034 0.8189
vn -0.2552 -0.5205 0.8148
vn -0.1885 -0.5443 0.8174
vn -0.0642 -0.6225 0.78
vn 0.1327 -0.6754 0.7254
vn 0.359 -0.6888 0.6298
vn 0.5328 -0.6011 0.5956
vn 0.555 -0.5883 0.588
vn 0.4498 -0.6298 0.6332
vn 0.3358 -0.6632 0.6688
vn 0.4739 -0.6118 0.6333
vn 0.3095 -0.4796 0.8211
vn 0.4097 -0.4895 0.7697
vn 0.4085 -0.5348 0.7397
vn 0.3044 -0.5446 0.7815
vn 0.1731 -0.5424 0.822
vn 0.1917 -0.469 0.8621
vn 0.2004 -0.4313 0.8797
vn 0.3256 -0.4527 0.8301
vn 0.4322 -0.487 0.7589
vn 0.0701 -0.4552 0.8876
vn 0.0419 -0.5178 0.8545
vn -0.0649 -0.4866 0.8712
vn -0.0421 -0.4434 0.8953
vn -0.066 -0.4362 0.8974
vn 0.0661 -0.4262 0.9022
vn -0.0085 -0.5811 0.8138
vn 0.1511 -0.6189 0.7708
vn -0.1195 -0.5298 0.8396
vn 0.314 -0.614 0.7241
vn 0.4301 -0.5858 0.6869
vn 0.3551 -0.4557 0.8162
vn 0.4718 -0.5153 0.7154
vn 0.202 -0.4243 0.8827
vn 0.1911 -0.4719 0.8607
vn 0.4055 -0.5183 0.753
vn 0.4928 -0.5362 0.6852
vn 0.0338 -0.4229 0.9055
vn -0.1267 -0.4542 0.8818
vn -0.1638 -0.4692 0.8677
vn -0.0526 -0.4716 0.8802
vn 0.7542 -0.3325 -0.5662
vn 0.454 -0.6009 -0.6578
vn 0.8412 -0.2268 -0.4909
vn 0.4928 -0.5362 0.6852
vn -0.4285 -0.8332 -0.3494
vn -0.8297 -0.4699 -0.3012
vn -0.1743 -0.9436 -0.2814
vn -0.1638 -0.4692 0.8677
vn -0.8151 0.5399 0.21
vn -0.5965 0.7074 0.379
vn -0.9179 0.3768 0.1243
vn -0.2755 -0.5034 0.8189
vn 0.6851 0.6111 0.3964
vn 0.8269 0.562 -0.0163
vn 0.2659 0.6381 0.7226
vn 0.555 -0.5883 0.588
vn 0.8924 0.3653 -0.2649
vn 0.9041 0.1908 -0.3822
vn 0.025 -0.8794 -0.4753
vn -0.9844 -0.1552 -0.0831
vn -0.999 -0.039 0.0204
vn -0.2579 0.7072 0.6582
vn -0.9663 0.2422 0.087
vn -0.9844 0.1572 0.0792
vn 0.9005 0.0522 -0.4316
vn 0.8959 -0.0338 -0.4429
vn 0.8846 -0.1192 -0.4508
vn -0.9948 0.072 0.0713
vt 0.839504 0.118056
vt 0.856743 0.205307
vt 0.741230 0.205307
vt 0.734555 0.106726
vt 0.724541 0.032791
vt 0.813647 0.052618
vt 0.868992 0.081539
vt 0.913398 0.129584
vt 0.940923 0.205307
vt 0.839504 0.292557
vt 0.813647 0.357995
vt 0.724541 0.377822
vt 0.734555 0.303887
vt 0.913398 0.281029
vt 0.868992 0.329074
vt 0.369475 0.299954
vt 0.368286 0.370940
vt 0.245840 0.351447
vt 0.246397 0.288815
vt 0.246768 0.205307
vt 0.370268 0.205307
vt 0.494283 0.205307
vt 0.492822 0.304944
vt 0.490632 0.379672
vt 0.369475 0.110659
vt 0.246397 0.121798
vt 0.245841 0.059166
vt 0.368286 0.039673
vt 0.490632 0.030941
vt 0.492822 0.105669
vt 0.616755 0.103478
vt 0.619174 0.205307
vt 0.613127 0.027106
vt 0.616755 0.307135
vt 0.613126 0.383507
vt 0.123273 0.268175
vt 0.123047 0.315326
vt 0.054743 0.283353
vt 0.030912 0.249131
vt 0.030973 0.205306
vt 0.123423 0.205306
vt 0.123273 0.142438
vt 0.030912 0.161481
vt 0.054744 0.127260
vt 0.123047 0.095287
vt 0.839504 0.118056
vt 0.856743 0.205307
vt 0.968983 0.205307
vt 0.938030 0.133427
vt 0.876123 0.061548
vt 0.805028 0.030806
vt 0.721203 0.008146
vt 0.734555 0.106726
vt 0.741230 0.205307
vt 0.839504 0.292557
vt 0.805028 0.379807
vt 0.876123 0.349065
vt 0.938030 0.277186
vt 0.734555 0.303887
vt 0.721203 0.402467
vt 0.369475 0.299954
vt 0.367890 0.394602
vt 0.489902 0.404581
vt 0.492822 0.304944
vt 0.494283 0.205307
vt 0.370268 0.205307
vt 0.246768 0.205307
vt 0.246397 0.288815
vt 0.245655 0.372324
vt 0.369475 0.110659
vt 0.492822 0.105669
vt 0.489902 0.006032
vt 0.367890 0.016011
vt 0.245655 0.038289
vt 0.246397 0.121798
vt 0.616755 0.103478
vt 0.619174 0.205307
vt 0.611917 0.001649
vt 0.616755 0.307135
vt 0.611917 0.408964
vt 0.123273 0.268175
vt 0.122972 0.331043
vt 0.123423 0.205306
vt 0.000156 0.205306
vt 0.000125 0.242784
vt 0.000064 0.280261
vt 0.123273 0.142438
vt 0.122972 0.079570
vt 0.000064 0.130352
vt 0.000125 0.167829
vt 0.122972 0.331043
vt 0.030806 0.283587
vt 0.245655 0.372324
vt 0.030806 0.283587
vt 0.000125 0.167829
vt 0.030806 0.127026
vt 0.000156 0.205306
vt 0.030806 0.127026
vt 0.805028 0.030806
vt 0.873826 0.071832
vt 0.721203 0.008146
vt 0.873826 0.071832
vt 0.938030 0.277186
vt 0.873826 0.338781
vt 0.968983 0.205307
vt 0.873826 0.338781
vt 0.805028 0.379807
vt 0.721203 0.402467
vt 0.000125 0.242784
vt 0.122972 0.079570
vt 0.245655 0.038289
vt 0.938030 0.133427
vt 0.611917 0.001649
vt 0.489902 0.006032
vt 0.611917 0.408964
vt 0.489902 0.404581
vt 0.367890 0.394602
vt 0.367890 0.016011
f 1/1/1 2/2/2 3/3/3
f 1/1/1 3/3/3 4/4/4
f 1/1/1 4/4/4 5/5/5
f 1/1/1 5/5/5 6/6/6
f 1/1/1 6/6/6 7/7/7
f 1/1/1 7/7/7 8/8/8
f 1/1/1 8/8/8 9/9/9
f 1/1/1 9/9/9 2/2/2
f 10/10/10 11/11/11 12/12/12
f 10/10/10 12/12/12 13/13/13
f 10/10/10 13/13/13 3/3/3
f 10/10/10 3/3/3 2/2/2
f 10/10/10 2/2/2 9/9/9
f 10/10/10 9/9/9 14/14/14
f 10/10/10 14/14/14 15/15/15
f 10/10/10 15/15/15 11/11/11
f 16/16/16 17/17/17 18/18/18
f 16/16/16 18/18/18 19/19/19
f 16/16/16 19/19/19 20/20/20
f 16/16/16 20/20/20 21/21/21
f 16/16/16 21/21/21 22/22/22
f 16/16/16 22/22/22 23/23/23
f 16/16/16 23/23/23 24/24/24
f 16/16/16 24/24/24 17/17/17
f 25/25/25 21/21/21 20/20/20
f 25/25/25 20/20/20 26/26/26
f 25/25/25 26/26/26 27/27/27
f 25/25/25 27/27/27 28/28/28
f 25/25/25 28/28/28 29/29/29
f 25/25/25 29/29/29 30/30/30
f 25/25/25 30/30/30 22/22/22
f 25/25/25 22/22/22 21/21/21
f 31/31/31 32/32/32 22/22/22
f 31/31/31 22/22/22 30/30/30
f 31/31/31 30/30/30 29/29/29
f 31/31/31 29/29/29 33/33/33
f 31/31/31 33/33/33 5/5/5
f 31/31/31 5/5/5 4/4/4
f 31/31/31 4/4/4 3/3/3
f 31/31/31 3/3/3 32/32/32
f 34/34/34 35/35/35 24/24/24
f 34/34/34 24/24/24 23/23/23
f 34/34/34 23/23/23 22/22/22
f 34/34/34 22/22/22 32/32/32
f 34/34/34 32/32/32 3/3/3
f 34/34/34 3/3/3 13/13/13
f 34/34/34 13/13/13 12/12/12
f 34/34/34 12/12/12 35/35/35
f 36/36/36 37/37/37 38/38/38
f 36/36/36 38/38/38 39/39/39
f 36/36/36 39/39/39 40/40/40
f 36/36/36 40/40/40 41/41/41
f 36/36/36 41/41/41 20/20/20
f 36/36/36 20/20/20 19/19/19
f 36/36/36 19/19/19 18/18/18
f 36/36/36 18/18/18 37/37/37
f 42/42/42 41/41/41 40/40/40
f 42/42/42 40/40/40 43/43/43
f 42/42/42 43/43/43 44/44/44
f 42/42/42 44/44/44 45/45/45
f 42/42/42 45/45/45 27/27/27
f 42/42/42 27/27/27 26/26/26
f 42/42/42 26/26/26 20/20/20
f 42/42/42 20/20/20 41/41/41
f 46/46/46 47/47/47 48/48/48
f 46/46/46 48/48/48 49/49/49
f 46/46/46 49/49/49 50/50/50
f 46/46/46 50/50/50 51/51/51
f 46/46/46 51/51/51 52/52/52
f 46/46/46 52/52/52 53/53/53
f 46/46/46 53/53/53 54/54/54
f 46/46/46 54/54/54 47/47/47
f 55/55/55 56/56/56 57/57/57
f 55/55/55 57/57/57 58/58/58
f 55/55/55 58/58/58 48/48/48
f 55/55/55 48/48/48 47/47/47
f 55/55/55 47/47/47 54/54/54
f 55/55/55 54/54/54 59/59/59
f 55/55/55 59/59/59 60/60/60
f 55/55/55 60/60/60 56/56/56
f 61/61/61 62/62/62 63/63/63
f 61/61/61 63/63/63 64/64/64
f 61/61/61 64/64/64 65/65/65
f 61/61/61 65/65/65 66/66/66
f 61/61/61 66/66/66 67/67/67
f 61/61/61 67/67/67 68/68/68
f 61/61/61 68/68/68 69/69/69
f 61/61/61 69/69/69 62/62/62
f 70/70/70 66/66/66 65/65/65
f 70/70/70 65/65/65 71/71/71
f 70/70/70 71/71/71 72/72/72
f 70/70/70 72/72/72 73/73/73
f 70/70/70 73/73/73 74/74/74
f 70/70/70 74/74/74 75/75/75
f 70/70/70 75/75/75 67/67/67
f 70/70/70 67/67/67 66/66/66
f 76/76/76 77/77/77 54/54/54
f 76/76/76 54/54/54 53/53/53
f 76/76/76 53/53/53 52/52/52
f 76/76/76 52/52/52 78/78/78
f 76/76/76 78/78/78 72/72/72
f 76/76/76 72/72/72 71/71/71
f 76/76/76 71/71/71 65/65/65
f 76/76/76 65/65/65 77/77/77
f 79/79/79 80/80/80 60/60/60
f 79/79/79 60/60/60 59/59/59
f 79/79/79 59/59/59 54/54/54
f 79/79/79 54/54/54 77/77/77
f 79/79/79 77/77/77 65/65/65
f 79/79/79 65/65/65 64/64/64
f 79/79/79 64/64/64 63/63/63
f 79/79/79 63/63/63 80/80/80
f 81/81/81 82/82/82 69/69/69
f 81/81/81 69/69/69 68/68/68
f 81/81/81 68/68/68 67/67/67
f 81/81/81 67/67/67 83/83/83
f 81/81/81 83/83/83 84/84/84
f 81/81/81 84/84/84 85/85/85
f 81/81/81 85/85/85 86/86/86
f 81/81/81 86/86/86 82/82/82
f 87/87/87 83/83/83 67/67/67
f 87/87/87 67/67/67 75/75/75
f 87/87/87 75/75/75 74/74/74
f 87/87/87 74/74/74 88/88/88
f 87/87/87 88/88/88 89/89/89
f 87/87/87 89/89/89 90/90/90
f 87/87/87 90/90/90 84/84/84
f 87/87/87 84/84/84 83/83/83
f 91/91/91 92/92/92 38/38/38
f 91/91/91 38/38/38 37/37/37
f 91/91/91 37/37/37 18/18/18
f 91/91/91 18/18/18 93/93/93
f 91/91/91 93/93/93 69/69/69
f 91/91/91 69/69/69 82/82/82
f 91/91/91 82/82/82 94/94/94
f 91/91/91 94/94/94 92/92/92
f 95/95/95 96/96/96 44/44/44
f 95/95/95 44/44/44 43/43/43
f 95/95/95 43/43/43 40/40/40
f 95/95/95 40/40/40 97/97/97
f 95/95/95 97/97/97 84/84/84
f 95/95/95 84/84/84 90/90/90
f 95/95/95 90/90/90 98/98/98
f 95/95/95 98/98/98 96/96/96
f 99/99/99 100/100/100 7/7/7
f 99/99/99 7/7/7 6/6/6
f 99/99/99 6/6/6 5/5/5
f 99/99/99 5/5/5 101/101/101
f 99/99/99 101/101/101 52/52/52
f 99/99/99 52/52/52 51/51/51
f 99/99/99 51/51/51 102/102/102
f 99/99/99 102/102/102 100/100/100
f 103/103/103 104/104/104 15/15/15
f 103/103/103 15/15/15 14/14/14
f 103/103/103 14/14/14 9/9/9
f 103/103/103 9/9/9 105/105/105
f 103/103/103 105/105/105 48/48/48
f 103/103/103 48/48/48 58/58/58
f 103/103/103 58/58/58 106/106/106
f 103/103/103 106/106/106 104/104/104
f 107/107/107 108/108/108 12/12/12
f 107/107/107 12/12/12 11/11/11
f 107/107/107 11/11/11 15/15/15
f 107/107/107 15/15/15 104/104/104
f 107/107/107 104/104/104 106/106/106
f 107/107/107 106/106/106 56/56/56
f 107/107/107 56/56/56 60/60/60
f 107/107/107 60/60/60 108/108/108
f 109/109/109 97/97/97 40/40/40
f 109/109/109 40/40/40 39/39/39
f 109/109/109 39/39/39 38/38/38
f 109/109/109 38/38/38 92/92/92
f 109/109/109 92/92/92 94/94/94
f 109/109/109 94/94/94 85/85/85
f 109/109/109 85/85/85 84/84/84
f 109/109/109 84/84/84 97/97/97
f 110/110/110 111/111/111 27/27/27
f 110/110/110 27/27/27 45/45/45
f 110/110/110 45/45/45 44/44/44
f 110/110/110 44/44/44 96/96/96
f 110/110/110 96/96/96 98/98/98
f 110/110/110 98/98/98 88/88/88
f 110/110/110 88/88/88 74/74/74
f 110/110/110 74/74/74 111/111/111
f 112/112/112 105/105/105 9/9/9
f 112/112/112 9/9/9 8/8/8
f 112/112/112 8/8/8 7/7/7
f 112/112/112 7/7/7 100/100/100
f 112/112/112 100/100/100 102/102/102
f 112/112/112 102/102/102 49/49/49
f 112/112/112 49/49/49 48/48/48
f 112/112/112 48/48/48 105/105/105
f 113/113/113 101/101/101 5/5/5
f 113/113/113 5/5/5 33/33/33
f 113/113/113 33/33/33 29/29/29
f 113/113/113 29/29/29 114/114/114
f 113/113/113 114/114/114 72/72/72
f 113/113/113 72/72/72 78/78/78
f 113/113/113 78/78/78 52/52/52
f 113/113/113 52/52/52 101/101/101
f 115/115/115 116/116/116 24/24/24
f 115/115/115 24/24/24 35/35/35
f 115/115/115 35/35/35 12/12/12
f 115/115/115 12/12/12 108/108/108
f 115/115/115 108/108/108 60/60/60
f 115/115/115 60/60/60 80/80/80
f 115/115/115 80/80/80 63/63/63
f 115/115/115 63/63/63 116/116/116
f 117/117/117 93/93/93 18/18/18
f 117/117/117 18/18/18 17/17/17
f 117/117/117 17/17/17 24/24/24
f 117/117/117 24/24/24 116/116/116
f 117/117/117 116/116/116 63/63/63
f 117/117/117 63/63/63 62/62/62
f 117/117/117 62/62/62 69/69/69
f 117/117/117 69/69/69 93/93/93
f 118/118/118 114/114/114 29/29/29
f 118/118/118 29/29/29 28/28/28
f 118/118/118 28/28/28 27/27/27
f 118/118/118 27/27/27 111/111/111
f 118/118/118 111/111/111 74/74/74
f 118/118/118 74/74/74 73/73/73
f 118/118/118 73/73/73 72/72/72
f 118/118/118 72/72/72 114/114/114
