v -2.396814 0.810358 -1.168485
v -2.397898 0.810671 -1.170134
v -2.399386 0.808887 -1.168838
v -2.397968 0.808688 -1.167139
v -2.397042 0.808594 -1.16569
v -2.396242 0.810067 -1.16698
v -2.395924 0.810879 -1.168145
v -2.39601 0.811474 -1.169548
v -2.396774 0.81191 -1.171137
v -2.399667 0.81088 -1.17104
v -2.401246 0.810982 -1.17146
v -2.402726 0.809634 -1.170779
v -2.401211 0.809281 -1.170042
v -2.39848 0.811926 -1.171759
v -2.399976 0.81162 -1.171773
v -2.405212 0.802712 -1.166848
v -2.406526 0.803026 -1.167766
v -2.407345 0.800488 -1.16671
v -2.406175 0.800206 -1.165908
v -2.404685 0.799881 -1.164758
v -2.403535 0.802348 -1.165539
v -2.402286 0.804706 -1.166452
v -2.404049 0.805098 -1.167809
v -2.405439 0.805444 -1.168748
v -2.402034 0.802131 -1.164003
v -2.403365 0.799692 -1.163392
v -2.402421 0.799587 -1.162301
v -2.400958 0.802007 -1.162781
v -2.399616 0.804379 -1.163534
v -2.400726 0.80449 -1.164833
v -2.399321 0.806704 -1.165899
v -2.400876 0.806892 -1.167581
v -2.398238 0.806636 -1.164522
v -2.402694 0.807321 -1.168919
v -2.404148 0.807717 -1.169814
v -2.406933 0.797625 -1.164857
v -2.407834 0.797855 -1.165424
v -2.407855 0.79631 -1.164597
v -2.407413 0.795649 -1.164048
v -2.406612 0.795452 -1.163511
v -2.405802 0.797368 -1.164025
v -2.404836 0.797241 -1.16298
v -2.405976 0.795386 -1.162762
v -2.405269 0.795838 -1.162282
v -2.404156 0.797183 -1.162132
v -2.39671 0.810209 -1.168588
v -2.397815 0.810524 -1.170257
v -2.396713 0.811798 -1.171228
v -2.395933 0.81136 -1.169622
v -2.395862 0.810795 -1.168196
v -2.396154 0.809955 -1.167046
v -2.396953 0.808487 -1.165762
v -2.397862 0.808545 -1.167247
v -2.399298 0.808746 -1.168964
v -2.399606 0.810739 -1.171181
v -2.401211 0.81088 -1.171574
v -2.399948 0.811543 -1.171855
v -2.398437 0.811818 -1.171864
v -2.401142 0.809145 -1.170185
v -2.402685 0.809535 -1.170894
v -2.405118 0.802604 -1.167002
v -2.406463 0.802947 -1.167887
v -2.405382 0.805358 -1.168867
v -2.403963 0.804981 -1.167959
v -2.402184 0.804586 -1.16659
v -2.403427 0.802238 -1.165682
v -2.404574 0.799778 -1.164903
v -2.406078 0.800105 -1.166065
v -2.407279 0.800414 -1.166833
v -2.401914 0.802018 -1.164133
v -2.40061 0.804368 -1.164957
v -2.399522 0.804286 -1.16362
v -2.400861 0.801922 -1.162872
v -2.402321 0.799507 -1.162394
v -2.40324 0.799586 -1.163524
v -2.39921 0.806571 -1.166016
v -2.400781 0.806761 -1.167713
v -2.398147 0.806536 -1.164602
v -2.402616 0.807193 -1.169066
v -2.404099 0.807624 -1.169931
v -2.406836 0.797527 -1.165016
v -2.407768 0.797784 -1.165549
v -2.405689 0.797267 -1.164171
v -2.406527 0.795377 -1.163621
v -2.407341 0.795576 -1.164168
v -2.407805 0.796257 -1.164688
v -2.404709 0.797138 -1.163112
v -2.404055 0.797105 -1.162223
v -2.405196 0.79578 -1.162352
v -2.40588 0.795309 -1.162861
v -2.408107 0.797901 -1.165669
v -2.408072 0.795815 -1.16446
v -2.407707 0.800549 -1.167034
v -2.407805 0.796257 -1.164688
v -2.406313 0.794733 -1.162733
v -2.405482 0.795341 -1.162141
v -2.406844 0.79478 -1.163388
v -2.405196 0.79578 -1.162352
v -2.39601 0.80992 -1.166505
v -2.395709 0.810956 -1.168029
v -2.396692 0.808515 -1.165237
v -2.395862 0.810795 -1.168196
v -2.398066 0.812226 -1.172046
v -2.400093 0.811757 -1.171954
v -2.396373 0.812273 -1.171511
v -2.399948 0.811543 -1.171855
v -2.401759 0.810971 -1.171653
v -2.403215 0.809708 -1.171078
v -2.407541 0.794958 -1.163832
v -2.403883 0.797128 -1.161888
v -2.40206 0.799517 -1.161977
v -2.395708 0.811795 -1.169935
v -2.397835 0.806569 -1.164097
v -2.399202 0.8043 -1.163137
v -2.404613 0.807808 -1.170165
v -2.405879 0.805521 -1.169115
v -2.406937 0.803095 -1.168127
v -2.400555 0.801928 -1.162412
vn -0.53 0.7392 0.4154
vn -0.3671 0.7415 0.5615
vn -0.4004 0.7009 0.5903
vn -0.5476 0.698 0.4614
vn -0.5547 0.6798 0.4798
vn -0.525 0.7392 0.4218
vn -0.5009 0.7779 0.3794
vn -0.4503 0.7989 0.3986
vn -0.3127 0.7997 0.5125
vn -0.2103 0.6809 0.7015
vn -0.217 0.6829 0.6975
vn -0.2827 0.6301 0.7232
vn -0.2618 0.6457 0.7172
vn -0.1892 0.7512 0.6323
vn -0.17 0.7174 0.6755
vn -0.4406 0.4848 0.7555
vn -0.4732 0.4841 0.736
vn -0.4889 0.4567 0.7432
vn -0.4481 0.4546 0.7698
vn -0.5419 0.4648 0.7002
vn -0.5243 0.5016 0.6881
vn -0.4861 0.5729 0.6599
vn -0.3961 0.5458 0.7384
vn -0.4256 0.5369 0.7285
vn -0.6011 0.5141 0.6119
vn -0.6203 0.486 0.6156
vn -0.5903 0.4753 0.6523
vn -0.5792 0.5036 0.641
vn -0.5656 0.5625 0.6031
vn -0.5761 0.5787 0.5772
vn -0.556 0.6477 0.5208
vn -0.4398 0.6466 0.6232
vn -0.558 0.6267 0.5439
vn -0.3291 0.6062 0.724
vn -0.3557 0.5896 0.7251
vn -0.4332 0.4371 0.7882
vn -0.4789 0.436 0.7619
vn -0.4602 0.4151 0.7848
vn -0.4371 0.3822 0.8141
vn -0.5711 0.3964 0.7188
vn -0.5499 0.4471 0.7055
vn -0.6431 0.4755 0.6003
vn -0.679 0.4264 0.5976
vn -0.6417 0.4483 0.6223
vn -0.6136 0.4606 0.6414
vn 0.5607 -0.7223 -0.4049
vn 0.3764 -0.7306 -0.5696
vn 0.4113 -0.6864 -0.5997
vn 0.647 -0.6676 -0.3684
vn 0.7238 -0.6298 -0.2818
vn 0.7064 -0.6418 -0.2985
vn 0.6694 -0.6508 -0.3581
vn 0.5583 -0.6967 -0.4503
vn 0.4003 -0.701 -0.5902
vn 0.2008 -0.6564 -0.7272
vn 0.0998 -0.5307 -0.8416
vn 0.0844 -0.5128 -0.8543
vn 0.1682 -0.5802 -0.7969
vn 0.2504 -0.6404 -0.726
vn 0.1594 -0.5575 -0.8147
vn 0.4271 -0.4827 -0.7645
vn 0.3305 -0.4659 -0.8208
vn 0.2972 -0.5072 -0.8089
vn 0.384 -0.543 -0.7468
vn 0.4862 -0.5727 -0.66
vn 0.5244 -0.5015 -0.6881
vn 0.542 -0.4646 -0.7002
vn 0.4316 -0.4539 -0.7795
vn 0.3104 -0.4576 -0.8332
vn 0.6114 -0.5164 -0.5995
vn 0.586 -0.5799 -0.5659
vn 0.6615 -0.5739 -0.4827
vn 0.6784 -0.5295 -0.5093
vn 0.694 -0.5278 -0.4897
vn 0.6314 -0.4905 -0.6006
vn 0.5658 -0.648 -0.5098
vn 0.4398 -0.6466 -0.6232
vn 0.655 -0.6244 -0.4256
vn 0.3175 -0.6026 -0.7321
vn 0.2318 -0.547 -0.8044
vn 0.4042 -0.4493 -0.7967
vn 0.2481 -0.4724 -0.8458
vn 0.5451 -0.4578 -0.7023
vn 0.523 -0.5043 -0.6871
vn 0.313 -0.4931 -0.8117
vn 0.2078 -0.4852 -0.8493
vn 0.6515 -0.4945 -0.5753
vn 0.7089 -0.5566 -0.4332
vn 0.7133 -0.5777 -0.3967
vn 0.6656 -0.5576 -0.4959
vn -0.9279 -0.1063 -0.3572
vn -0.9021 -0.4216 -0.0919
vn -0.8894 0.007 -0.457
vn 0.2078 -0.4852 -0.8493
vn -0.2343 -0.866 0.4417
vn 0.0866 -0.6025 0.7934
vn -0.3311 -0.9261 0.1807
vn 0.7133 -0.5777 -0.3967
vn 0.7046 0.3309 0.6276
vn 0.7653 0.5231 0.375
vn 0.6543 0.1594 0.7392
vn 0.7238 -0.6298 -0.2818
vn 0.0956 0.6998 -0.7079
vn -0.3305 0.7236 -0.6059
vn 0.5897 0.6044 -0.5356
vn 0.0844 -0.5128 -0.8543
vn -0.6096 0.5715 -0.5492
vn -0.7487 0.4156 -0.5164
vn -0.5826 -0.8023 0.1298
vn 0.4105 -0.3514 0.8414
vn 0.5273 -0.2517 0.8115
vn 0.8216 0.567 -0.0578
vn 0.6216 0.0219 0.783
vn 0.6076 -0.0637 0.7917
vn -0.8159 0.2845 -0.5034
vn -0.84 0.2008 -0.504
vn -0.8574 0.1162 -0.5013
vn 0.5896 -0.1476 0.7941
vt 0.839504 0.118056
vt 0.856743 0.205307
vt 0.741230 0.205307
vt 0.734555 0.106726
vt 0.724541 0.032791
vt 0.813647 0.052618
vt 0.868992 0.081539
vt 0.913398 0.129584
vt 0.940923 0.205307
vt 0.839504 0.292557
vt 0.813647 0.357995
vt 0.724541 0.377822
vt 0.734555 0.303887
vt 0.913398 0.281029
vt 0.868992 0.329074
vt 0.369475 0.299954
vt 0.368286 0.370940
vt 0.245840 0.351447
vt 0.246397 0.288815
vt 0.246768 0.205307
vt 0.370268 0.205307
vt 0.494283 0.205307
vt 0.492822 0.304944
vt 0.490632 0.379672
vt 0.369475 0.110659
vt 0.246397 0.121798
vt 0.245841 0.059166
vt 0.368286 0.039673
vt 0.490632 0.030941
vt 0.492822 0.105669
vt 0.616755 0.103478
vt 0.619174 0.205307
vt 0.613127 0.027106
vt 0.616755 0.307135
vt 0.613126 0.383507
vt 0.123273 0.268175
vt 0.123047 0.315326
vt 0.054743 0.283353
vt 0.030912 0.249131
vt 0.030973 0.205306
vt 0.123423 0.205306
vt 0.123273 0.142438
vt 0.030912 0.161481
vt 0.054744 0.127260
vt 0.123047 0.095287
vt 0.839504 0.118056
vt 0.856743 0.205307
vt 0.968983 0.205307
vt 0.938030 0.133427
vt 0.876123 0.061548
vt 0.805028 0.030806
vt 0.721203 0.008146
vt 0.734555 0.106726
vt 0.741230 0.205307
vt 0.839504 0.292557
vt 0.805028 0.379807
vt 0.876123 0.349065
vt 0.938030 0.277186
vt 0.734555 0.303887
vt 0.721203 0.402467
vt 0.369475 0.299954
vt 0.367890 0.394602
vt 0.489902 0.404581
vt 0.492822 0.304944
vt 0.494283 0.205307
vt 0.370268 0.205307
vt 0.246768 0.205307
vt 0.246397 0.288815
vt 0.245655 0.372324
vt 0.369475 0.110659
vt 0.492822 0.105669
vt 0.489902 0.006032
vt 0.367890 0.016011
vt 0.245655 0.038289
vt 0.246397 0.121798
vt 0.616755 0.103478
vt 0.619174 0.205307
vt 0.611917 0.001649
vt 0.616755 0.307135
vt 0.611917 0.408964
vt 0.123273 0.268175
vt 0.122972 0.331043
vt 0.123423 0.205306
vt 0.000156 0.205306
vt 0.000125 0.242784
vt 0.000064 0.280261
vt 0.123273 0.142438
vt 0.122972 0.079570
vt 0.000064 0.130352
vt 0.000125 0.167829
vt 0.122972 0.331043
vt 0.030806 0.283587
vt 0.245655 0.372324
vt 0.030806 0.283587
vt 0.000125 0.167829
vt 0.030806 0.127026
vt 0.000156 0.205306
vt 0.030806 0.127026
vt 0.805028 0.030806
vt 0.873826 0.071832
vt 0.721203 0.008146
vt 0.873826 0.071832
vt 0.938030 0.277186
vt 0.873826 0.338781
vt 0.968983 0.205307
vt 0.873826 0.338781
vt 0.805028 0.379807
vt 0.721203 0.402467
vt 0.000125 0.242784
vt 0.122972 0.079570
vt 0.245655 0.038289
vt 0.938030 0.133427
vt 0.611917 0.001649
vt 0.489902 0.006032
vt 0.611917 0.408964
vt 0.489902 0.404581
vt 0.367890 0.394602
vt 0.367890 0.016011
f 1/1/1 2/2/2 3/3/3
f 1/1/1 3/3/3 4/4/4
f 1/1/1 4/4/4 5/5/5
f 1/1/1 5/5/5 6/6/6
f 1/1/1 6/6/6 7/7/7
f 1/1/1 7/7/7 8/8/8
f 1/1/1 8/8/8 9/9/9
f 1/1/1 9/9/9 2/2/2
f 10/10/10 11/11/11 12/12/12
f 10/10/10 12/12/12 13/13/13
f 10/10/10 13/13/13 3/3/3
f 10/10/10 3/3/3 2/2/2
f 10/10/10 2/2/2 9/9/9
f 10/10/10 9/9/9 14/14/14
f 10/10/10 14/14/14 15/15/15
f 10/10/10 15/15/15 11/11/11
f 16/16/16 17/17/17 18/18/18
f 16/16/16 18/18/18 19/19/19
f 16/16/16 19/19/19 20/20/20
f 16/16/16 20/20/20 21/21/21
f 16/16/16 21/21/21 22/22/22
f 16/16/16 22/22/22 23/23/23
f 16/16/16 23/23/23 24/24/24
f 16/16/16 24/24/24 17/17/17
f 25/25/25 21/21/21 20/20/20
f 25/25/25 20/20/20 26/26/26
f 25/25/25 26/26/26 27/27/27
f 25/25/25 27/27/27 28/28/28
f 25/25/25 28/28/28 29/29/29
f 25/25/25 29/29/29 30/30/30
f 25/25/25 30/30/30 22/22/22
f 25/25/25 22/22/22 21/21/21
f 31/31/31 32/32/32 22/22/22
f 31/31/31 22/22/22 30/30/30
f 31/31/31 30/30/30 29/29/29
f 31/31/31 29/29/29 33/33/33
f 31/31/31 33/33/33 5/5/5
f 31/31/31 5/5/5 4/4/4
f 31/31/31 4/4/4 3/3/3
f 31/31/31 3/3/3 32/32/32
f 34/34/34 35/35/35 24/24/24
f 34/34/34 24/24/24 23/23/23
f 34/34/34 23/23/23 22/22/22
f 34/34/34 22/22/22 32/32/32
f 34/34/34 32/32/32 3/3/3
f 34/34/34 3/3/3 13/13/13
f 34/34/34 13/13/13 12/12/12
f 34/34/34 12/12/12 35/35/35
f 36/36/36 37/37/37 38/38/38
f 36/36/36 38/38/38 39/39/39
f 36/36/36 39/39/39 40/40/40
f 36/36/36 40/40/40 41/41/41
f 36/36/36 41/41/41 20/20/20
f 36/36/36 20/20/20 19/19/19
f 36/36/36 19/19/19 18/18/18
f 36/36/36 18/18/18 37/37/37
f 42/42/42 41/41/41 40/40/40
f 42/42/42 40/40/40 43/43/43
f 42/42/42 43/43/43 44/44/44
f 42/42/42 44/44/44 45/45/45
f 42/42/42 45/45/45 27/27/27
f 42/42/42 27/27/27 26/26/26
f 42/42/42 26/26/26 20/20/20
f 42/42/42 20/20/20 41/41/41
f 46/46/46 47/47/47 48/48/48
f 46/46/46 48/48/48 49/49/49
f 46/46/46 49/49/49 50/50/50
f 46/46/46 50/50/50 51/51/51
f 46/46/46 51/51/51 52/52/52
f 46/46/46 52/52/52 53/53/53
f 46/46/46 53/53/53 54/54/54
f 46/46/46 54/54/54 47/47/47
f 55/55/55 56/56/56 57/57/57
f 55/55/55 57/57/57 58/58/58
f 55/55/55 58/58/58 48/48/48
f 55/55/55 48/48/48 47/47/47
f 55/55/55 47/47/47 54/54/54
f 55/55/55 54/54/54 59/59/59
f 55/55/55 59/59/59 60/60/60
f 55/55/55 60/60/60 56/56/56
f 61/61/61 62/62/62 63/63/63
f 61/61/61 63/63/63 64/64/64
f 61/61/61 64/64/64 65/65/65
f 61/61/61 65/65/65 66/66/66
f 61/61/61 66/66/66 67/67/67
f 61/61/61 67/67/67 68/68/68
f 61/61/61 68/68/68 69/69/69
f 61/61/61 69/69/69 62/62/62
f 70/70/70 66/66/66 65/65/65
f 70/70/70 65/65/65 71/71/71
f 70/70/70 71/71/71 72/72/72
f 70/70/70 72/72/72 73/73/73
f 70/70/70 73/73/73 74/74/74
f 70/70/70 74/74/74 75/75/75
f 70/70/70 75/75/75 67/67/67
f 70/70/70 67/67/67 66/66/66
f 76/76/76 77/77/77 54/54/54
f 76/76/76 54/54/54 53/53/53
f 76/76/76 53/53/53 52/52/52
f 76/76/76 52/52/52 78/78/78
f 76/76/76 78/78/78 72/72/72
f 76/76/76 72/72/72 71/71/71
f 76/76/76 71/71/71 65/65/65
f 76/76/76 65/65/65 77/77/77
f 79/79/79 80/80/80 60/60/60
f 79/79/79 60/60/60 59/59/59
f 79/79/79 59/59/59 54/54/54
f 79/79/79 54/54/54 77/77/77
f 79/79/79 77/77/77 65/65/65
f 79/79/79 65/65/65 64/64/64
f 79/79/79 64/64/64 63/63/63
f 79/79/79 63/63/63 80/80/80
f 81/81/81 82/82/82 69/69/69
f 81/81/81 69/69/69 68/68/68
f 81/81/81 68/68/68 67/67/67
f 81/81/81 67/67/67 83/83/83
f 81/81/81 83/83/83 84/84/84
f 81/81/81 84/84/84 85/85/85
f 81/81/81 85/85/85 86/86/86
f 81/81/81 86/86/86 82/82/82
f 87/87/87 83/83/83 67/67/67
f 87/87/87 67/67/67 75/75/75
f 87/87/87 75/75/75 74/74/74
f 87/87/87 74/74/74 88/88/88
f 87/87/87 88/88/88 89/89/89
f 87/87/87 89/89/89 90/90/90
f 87/87/87 90/90/90 84/84/84
f 87/87/87 84/84/84 83/83/83
f 91/91/91 92/92/92 38/38/38
f 91/91/91 38/38/38 37/37/37
f 91/91/91 37/37/37 18/18/18
f 91/91/91 18/18/18 93/93/93
f 91/91/91 93/93/93 69/69/69
f 91/91/91 69/69/69 82/82/82
f 91/91/91 82/82/82 94/94/94
f 91/91/91 94/94/94 92/92/92
f 95/95/95 96/96/96 44/44/44
f 95/95/95 44/44/44 43/43/43
f 95/95/95 43/43/43 40/40/40
f 95/95/95 40/40/40 97/97/97
f 95/95/95 97/97/97 84/84/84
f 95/95/95 84/84/84 90/90/90
f 95/95/95 90/90/90 98/98/98
f 95/95/95 98/98/98 96/96/96
f 99/99/99 100/100/100 7/7/7
f 99/99/99 7/7/7 6/6/6
f 99/99/99 6/6/6 5/5/5
f 99/99/99 5/5/5 101/101/101
f 99/99/99 101/101/101 52/52/52
f 99/99/99 52/52/52 51/51/51
f 99/99/99 51/51/51 102/102/102
f 99/99/99 102/102/102 100/100/100
f 103/103/103 104/104/104 15/15/15
f 103/103/103 15/15/15 14/14/14
f 103/103/103 14/14/14 9/9/9
f 103/103/103 9/9/9 105/105/105
f 103/103/103 105/105/105 48/48/48
f 103/103/103 48/48/48 58/58/58
f 103/103/103 58/58/58 106/106/106
f 103/103/103 106/106/106 104/104/104
f 107/107/107 108/108/108 12/12/12
f 107/107/107 12/12/12 11/11/11
f 107/107/107 11/11/11 15/15/15
f 107/107/107 15/15/15 104/104/104
f 107/107/107 104/104/104 106/106/106
f 107/107/107 106/106/106 56/56/56
f 107/107/107 56/56/56 60/60/60
f 107/107/107 60/60/60 108/108/108
f 109/109/109 97/97/97 40/40/40
f 109/109/109 40/40/40 39/39/39
f 109/109/109 39/39/39 38/38/38
f 109/109/109 38/38/38 92/92/92
f 109/109/109 92/92/92 94/94/94
f 109/109/109 94/94/94 85/85/85
f 109/109/109 85/85/85 84/84/84
f 109/109/109 84/84/84 97/97/97
f 110/110/110 111/111/111 27/27/27
f 110/110/110 27/27/27 45/45/45
f 110/110/110 45/45/45 44/44/44
f 110/110/110 44/44/44 96/96/96
f 110/110/110 96/96/96 98/98/98
f 110/110/110 98/98/98 88/88/88
f 110/110/110 88/88/88 74/74/74
f 110/110/110 74/74/74 111/111/111
f 112/112/112 105/105/105 9/9/9
f 112/112/112 9/9/9 8/8/8
f 112/112/112 8/8/8 7/7/7
f 112/112/112 7/7/7 100/100/100
f 112/112/112 100/100/100 102/102/102
f 112/112/112 102/102/102 49/49/49
f 112/112/112 49/49/49 48/48/48
f 112/112/112 48/48/48 105/105/105
f 113/113/113 101/101/101 5/5/5
f 113/113/113 5/5/5 33/33/33
f 113/113/113 33/33/33 29/29/29
f 113/113/113 29/29/29 114/114/114
f 113/113/113 114/114/114 72/72/72
f 113/113/113 72/72/72 78/78/78
f 113/113/113 78/78/78 52/52/52
f 113/113/113 52/52/52 101/101/101
f 115/115/115 116/116/116 24/24/24
f 115/115/115 24/24/24 35/35/35
f 115/115/115 35/35/35 12/12/12
f 115/115/115 12/12/12 108/108/108
f 115/115/115 108/108/108 60/60/60
f 115/115/115 60/60/60 80/80/80
f 115/115/115 80/80/80 63/63/63
f 115/115/115 63/63/63 116/116/116
f 117/117/117 93/93/93 18/18/18
f 117/117/117 18/18/18 17/17/17
f 117/117/117 17/17/17 24/24/24
f 117/117/117 24/24/24 116/116/116
f 117/117/117 116/116/116 63/63/63
f 117/117/117 63/63/63 62/62/62
f 117/117/117 62/62/62 69/69/69
f 117/117/117 69/69/69 93/93/93
f 118/118/118 114/114/114 29/29/29
f 118/118/118 29/29/29 28/28/28
f 118/118/118 28/28/28 27/27/27
f 118/118/118 27/27/27 111/111/111
f 118/118/118 111/111/111 74/74/74
f 118/118/118 74/74/74 73/73/73
f 118/118/118 73/73/73 72/72/72
f 118/118/118 72/72/72 114/114/114
