v -2.410402 0.799596 -1.180668
v -2.412511 0.799783 -1.180408
v -2.411709 0.798728 -1.177895
v -2.409417 0.798578 -1.178487
v -2.407598 0.798601 -1.178754
v -2.408663 0.799531 -1.180515
v -2.40974 0.799963 -1.181547
v -2.411202 0.800225 -1.182219
v -2.413126 0.800465 -1.182277
v -2.414198 0.800241 -1.179185
v -2.415321 0.800663 -1.177914
v -2.415162 0.799886 -1.1758
v -2.413732 0.799311 -1.176801
v -2.414488 0.800784 -1.180936
v -2.415133 0.800879 -1.179441
v -2.411639 0.794627 -1.169538
v -2.413148 0.795063 -1.16878
v -2.412186 0.793012 -1.16672
v -2.410856 0.792617 -1.1674
v -2.409045 0.792182 -1.168227
v -2.409586 0.794142 -1.170464
v -2.410196 0.795933 -1.172806
v -2.412337 0.796458 -1.171828
v -2.413904 0.796941 -1.171019
v -2.407411 0.793908 -1.17119
v -2.407118 0.791982 -1.16886
v -2.405634 0.791899 -1.16928
v -2.40574 0.793804 -1.171674
v -2.406155 0.795624 -1.174046
v -2.407915 0.795706 -1.173555
v -2.408586 0.797272 -1.176052
v -2.410921 0.797453 -1.175322
v -2.406769 0.797261 -1.176502
v -2.413073 0.798034 -1.174299
v -2.414633 0.798597 -1.17343
v -2.409867 0.790505 -1.165383
v -2.410843 0.790836 -1.164845
v -2.409867 0.789505 -1.163963
v -2.40906 0.788862 -1.163931
v -2.408161 0.788585 -1.164399
v -2.408529 0.790153 -1.166023
v -2.407077 0.790031 -1.166473
v -2.407149 0.788537 -1.164678
v -2.406427 0.78892 -1.165307
v -2.40595 0.790004 -1.166756
v -2.410436 0.799392 -1.180752
v -2.412574 0.799582 -1.180481
v -2.413172 0.800313 -1.18233
v -2.411225 0.800071 -1.18228
v -2.409752 0.799849 -1.181595
v -2.408673 0.799378 -1.180583
v -2.407615 0.798451 -1.178827
v -2.409456 0.798378 -1.178578
v -2.411774 0.798531 -1.177977
v -2.414289 0.800047 -1.179247
v -2.415403 0.800522 -1.177955
v -2.415189 0.800773 -1.179471
v -2.414557 0.800638 -1.180978
v -2.413822 0.79912 -1.176872
v -2.415242 0.799747 -1.175848
v -2.411732 0.794455 -1.169647
v -2.413226 0.794937 -1.168858
v -2.413983 0.796809 -1.171089
v -2.412429 0.796279 -1.171926
v -2.410269 0.79575 -1.172912
v -2.409661 0.793966 -1.170581
v -2.409122 0.792011 -1.16835
v -2.410952 0.792451 -1.167516
v -2.412266 0.792889 -1.166803
v -2.407468 0.79373 -1.171313
v -2.407968 0.79552 -1.173669
v -2.406185 0.795484 -1.174134
v -2.405773 0.79367 -1.17177
v -2.405668 0.791768 -1.16938
v -2.407176 0.791809 -1.16899
v -2.408632 0.797078 -1.176153
v -2.41099 0.797263 -1.175416
v -2.406792 0.797115 -1.176582
v -2.413164 0.797849 -1.174383
v -2.414711 0.798461 -1.173489
v -2.409965 0.790341 -1.165501
v -2.410925 0.790715 -1.164929
v -2.408607 0.789985 -1.166149
v -2.40822 0.788459 -1.164494
v -2.409134 0.788739 -1.164019
v -2.409925 0.789415 -1.164027
v -2.407135 0.78986 -1.166606
v -2.405983 0.789875 -1.166859
v -2.406454 0.788825 -1.165383
v -2.407191 0.788409 -1.164778
v -2.411207 0.790893 -1.164702
v -2.409772 0.789102 -1.163535
v -2.412667 0.79309 -1.16653
v -2.409925 0.789415 -1.164027
v -2.407191 0.787982 -1.164124
v -2.406325 0.788517 -1.164881
v -2.408065 0.788006 -1.1639
v -2.406454 0.788825 -1.165383
v -2.408084 0.799442 -1.180495
v -2.409543 0.80001 -1.181729
v -2.406996 0.798542 -1.178877
v -2.409752 0.799849 -1.181595
v -2.414616 0.8009 -1.181537
v -2.415376 0.801002 -1.17945
v -2.413351 0.800625 -1.182923
v -2.415189 0.800773 -1.179471
v -2.415734 0.800742 -1.177507
v -2.415677 0.800017 -1.175486
v -2.408824 0.78826 -1.163486
v -2.405587 0.789937 -1.166897
v -2.405152 0.791813 -1.169465
v -2.411479 0.800367 -1.182763
v -2.406171 0.797192 -1.176689
v -2.40558 0.795534 -1.17425
v -2.41519 0.798725 -1.173166
v -2.414464 0.797044 -1.17078
v -2.413687 0.795153 -1.168562
v -2.405195 0.79371 -1.171879
vn 0.0669 0.9263 0.3708
vn 0.2665 0.9219 0.2812
vn 0.2832 0.899 0.3339
vn 0.1057 0.903 0.4165
vn 0.1215 0.892 0.4353
vn 0.0748 0.9265 0.3688
vn 0.0422 0.9466 0.3196
vn 0.0783 0.958 0.2756
vn 0.2385 0.951 0.1968
vn 0.4653 0.8585 0.2152
vn 0.4586 0.8612 0.2189
vn 0.4603 0.8345 0.3029
vn 0.4619 0.8424 0.2774
vn 0.4038 0.9026 0.1487
vn 0.4546 0.8764 0.1587
vn 0.4402 0.7458 0.4999
vn 0.4089 0.7489 0.5214
vn 0.4121 0.7289 0.5466
vn 0.4533 0.7228 0.5215
vn 0.3502 0.7396 0.5747
vn 0.3424 0.7669 0.5428
vn 0.3248 0.8173 0.4759
vn 0.4363 0.7877 0.4349
vn 0.416 0.7844 0.4599
vn 0.2402 0.7798 0.578
vn 0.2387 0.7593 0.6053
vn 0.2857 0.7504 0.5961
vn 0.2769 0.7714 0.573
vn 0.2415 0.8141 0.528
vn 0.2119 0.8258 0.5225
vn 0.1615 0.8721 0.4619
vn 0.3027 0.866 0.3981
vn 0.184 0.8583 0.4789
vn 0.4444 0.824 0.3514
vn 0.4361 0.8155 0.3804
vn 0.4781 0.7071 0.5209
vn 0.4355 0.7113 0.5517
vn 0.4664 0.6925 0.5504
vn 0.5062 0.6627 0.5518
vn 0.3627 0.6873 0.6293
vn 0.3536 0.7263 0.5893
vn 0.2166 0.7515 0.6231
vn 0.2048 0.714 0.6695
vn 0.24 0.7309 0.6388
vn 0.2676 0.7399 0.6172
vn -0.0467 -0.9156 -0.3994
vn -0.2712 -0.9159 -0.2958
vn -0.2887 -0.8905 -0.3515
vn 0.016 -0.8776 -0.4791
vn 0.1219 -0.8409 -0.5272
vn 0.101 -0.8516 -0.5142
vn 0.0328 -0.865 -0.5006
vn -0.0915 -0.9019 -0.4222
vn -0.2832 -0.8991 -0.3338
vn -0.495 -0.8394 -0.2242
vn -0.6552 -0.723 -0.2189
vn -0.6752 -0.7053 -0.216
vn -0.5807 -0.776 -0.2462
vn -0.4752 -0.8366 -0.2723
vn -0.6027 -0.757 -0.2524
vn -0.4541 -0.7427 -0.4921
vn -0.5472 -0.7158 -0.4338
vn -0.5456 -0.7433 -0.3869
vn -0.4493 -0.784 -0.4282
vn -0.3248 -0.8172 -0.4761
vn -0.3424 -0.7667 -0.543
vn -0.3502 -0.7395 -0.5748
vn -0.469 -0.7204 -0.5108
vn -0.5677 -0.7059 -0.4235
vn -0.2244 -0.7817 -0.5819
vn -0.1974 -0.8268 -0.5266
vn -0.0916 -0.8206 -0.5642
vn -0.1137 -0.7895 -0.6031
vn -0.0898 -0.7871 -0.6102
vn -0.2201 -0.7627 -0.6082
vn -0.1476 -0.8722 -0.4663
vn -0.3027 -0.866 -0.3981
vn -0.037 -0.8526 -0.5212
vn -0.457 -0.8196 -0.3454
vn -0.5643 -0.763 -0.3152
vn -0.4965 -0.7132 -0.4948
vn -0.6034 -0.7069 -0.3688
vn -0.3516 -0.7344 -0.5805
vn -0.3418 -0.7688 -0.5405
vn -0.5432 -0.7347 -0.4063
vn -0.6221 -0.7096 -0.3308
vn -0.1883 -0.7656 -0.6151
vn -0.0291 -0.8045 -0.5932
vn 0.0081 -0.8167 -0.5769
vn -0.1036 -0.8095 -0.5778
vn -0.6978 0.0501 0.7145
vn -0.4114 -0.1889 0.8916
vn -0.7849 0.1235 0.6071
vn -0.6221 -0.7096 -0.3308
vn 0.4002 -0.6475 0.6485
vn 0.8201 -0.3984 0.4106
vn 0.1309 -0.7417 0.6578
vn 0.0081 -0.8167 -0.5769
vn 0.8225 0.2809 -0.4945
vn 0.5978 0.3859 -0.7026
vn 0.9217 0.1592 -0.3536
vn 0.1219 -0.8409 -0.5272
vn -0.6784 0.4638 -0.5697
vn -0.7674 0.6184 -0.169
vn -0.3053 0.2899 -0.907
vn -0.6752 -0.7053 -0.216
vn -0.8159 0.5598 0.145
vn -0.8267 0.4568 0.3286
vn -0.0345 -0.5739 0.8182
vn 0.9704 -0.2333 0.0629
vn 0.9808 -0.1768 -0.0825
vn 0.2263 0.3097 -0.9235
vn 0.9631 0.0492 -0.2644
vn 0.975 -0.0257 -0.2207
vn -0.8281 0.3537 0.4349
vn -0.8289 0.2807 0.4839
vn -0.824 0.2072 0.5273
vn 0.9792 -0.0994 -0.1769
vt 0.839504 0.118056
vt 0.856743 0.205307
vt 0.741230 0.205307
vt 0.734555 0.106726
vt 0.724541 0.032791
vt 0.813647 0.052618
vt 0.868992 0.081539
vt 0.913398 0.129584
vt 0.940923 0.205307
vt 0.839504 0.292557
vt 0.813647 0.357995
vt 0.724541 0.377822
vt 0.734555 0.303887
vt 0.913398 0.281029
vt 0.868992 0.329074
vt 0.369475 0.299954
vt 0.368286 0.370940
vt 0.245840 0.351447
vt 0.246397 0.288815
vt 0.246768 0.205307
vt 0.370268 0.205307
vt 0.494283 0.205307
vt 0.492822 0.304944
vt 0.490632 0.379672
vt 0.369475 0.110659
vt 0.246397 0.121798
vt 0.245841 0.059166
vt 0.368286 0.039673
vt 0.490632 0.030941
vt 0.492822 0.105669
vt 0.616755 0.103478
vt 0.619174 0.205307
vt 0.613127 0.027106
vt 0.616755 0.307135
vt 0.613126 0.383507
vt 0.123273 0.268175
vt 0.123047 0.315326
vt 0.054743 0.283353
vt 0.030912 0.249131
vt 0.030973 0.205306
vt 0.123423 0.205306
vt 0.123273 0.142438
vt 0.030912 0.161481
vt 0.054744 0.127260
vt 0.123047 0.095287
vt 0.839504 0.118056
vt 0.856743 0.205307
vt 0.968983 0.205307
vt 0.938030 0.133427
vt 0.876123 0.061548
vt 0.805028 0.030806
vt 0.721203 0.008146
vt 0.734555 0.106726
vt 0.741230 0.205307
vt 0.839504 0.292557
vt 0.805028 0.379807
vt 0.876123 0.349065
vt 0.938030 0.277186
vt 0.734555 0.303887
vt 0.721203 0.402467
vt 0.369475 0.299954
vt 0.367890 0.394602
vt 0.489902 0.404581
vt 0.492822 0.304944
vt 0.494283 0.205307
vt 0.370268 0.205307
vt 0.246768 0.205307
vt 0.246397 0.288815
vt 0.245655 0.372324
vt 0.369475 0.110659
vt 0.492822 0.105669
vt 0.489902 0.006032
vt 0.367890 0.016011
vt 0.245655 0.038289
vt 0.246397 0.121798
vt 0.616755 0.103478
vt 0.619174 0.205307
vt 0.611917 0.001649
vt 0.616755 0.307135
vt 0.611917 0.408964
vt 0.123273 0.268175
vt 0.122972 0.331043
vt 0.123423 0.205306
vt 0.000156 0.205306
vt 0.000125 0.242784
vt 0.000064 0.280261
vt 0.123273 0.142438
vt 0.122972 0.079570
vt 0.000064 0.130352
vt 0.000125 0.167829
vt 0.122972 0.331043
vt 0.030806 0.283587
vt 0.245655 0.372324
vt 0.030806 0.283587
vt 0.000125 0.167829
vt 0.030806 0.127026
vt 0.000156 0.205306
vt 0.030806 0.127026
vt 0.805028 0.030806
vt 0.873826 0.071832
vt 0.721203 0.008146
vt 0.873826 0.071832
vt 0.938030 0.277186
vt 0.873826 0.338781
vt 0.968983 0.205307
vt 0.873826 0.338781
vt 0.805028 0.379807
vt 0.721203 0.402467
vt 0.000125 0.242784
vt 0.122972 0.079570
vt 0.245655 0.038289
vt 0.938030 0.133427
vt 0.611917 0.001649
vt 0.489902 0.006032
vt 0.611917 0.408964
vt 0.489902 0.404581
vt 0.367890 0.394602
vt 0.367890 0.016011
f 1/1/1 2/2/2 3/3/3
f 1/1/1 3/3/3 4/4/4
f 1/1/1 4/4/4 5/5/5
f 1/1/1 5/5/5 6/6/6
f 1/1/1 6/6/6 7/7/7
f 1/1/1 7/7/7 8/8/8
f 1/1/1 8/8/8 9/9/9
f 1/1/1 9/9/9 2/2/2
f 10/10/10 11/11/11 12/12/12
f 10/10/10 12/12/12 13/13/13
f 10/10/10 13/13/13 3/3/3
f 10/10/10 3/3/3 2/2/2
f 10/10/10 2/2/2 9/9/9
f 10/10/10 9/9/9 14/14/14
f 10/10/10 14/14/14 15/15/15
f 10/10/10 15/15/15 11/11/11
f 16/16/16 17/17/17 18/18/18
f 16/16/16 18/18/18 19/19/19
f 16/16/16 19/19/19 20/20/20
f 16/16/16 20/20/20 21/21/21
f 16/16/16 21/21/21 22/22/22
f 16/16/16 22/22/22 23/23/23
f 16/16/16 23/23/23 24/24/24
f 16/16/16 24/24/24 17/17/17
f 25/25/25 21/21/21 20/20/20
f 25/25/25 20/20/20 26/26/26
f 25/25/25 26/26/26 27/27/27
f 25/25/25 27/27/27 28/28/28
f 25/25/25 28/28/28 29/29/29
f 25/25/25 29/29/29 30/30/30
f 25/25/25 30/30/30 22/22/22
f 25/25/25 22/22/22 21/21/21
f 31/31/31 32/32/32 22/22/22
f 31/31/31 22/22/22 30/30/30
f 31/31/31 30/30/30 29/29/29
f 31/31/31 29/29/29 33/33/33
f 31/31/31 33/33/33 5/5/5
f 31/31/31 5/5/5 4/4/4
f 31/31/31 4/4/4 3/3/3
f 31/31/31 3/3/3 32/32/32
f 34/34/34 35/35/35 24/24/24
f 34/34/34 24/24/24 23/23/23
f 34/34/34 23/23/23 22/22/22
f 34/34/34 22/22/22 32/32/32
f 34/34/34 32/32/32 3/3/3
f 34/34/34 3/3/3 13/13/13
f 34/34/34 13/13/13 12/12/12
f 34/34/34 12/12/12 35/35/35
f 36/36/36 37/37/37 38/38/38
f 36/36/36 38/38/38 39/39/39
f 36/36/36 39/39/39 40/40/40
f 36/36/36 40/40/40 41/41/41
f 36/36/36 41/41/41 20/20/20
f 36/36/36 20/20/20 19/19/19
f 36/36/36 19/19/19 18/18/18
f 36/36/36 18/18/18 37/37/37
f 42/42/42 41/41/41 40/40/40
f 42/42/42 40/40/40 43/43/43
f 42/42/42 43/43/43 44/44/44
f 42/42/42 44/44/44 45/45/45
f 42/42/42 45/45/45 27/27/27
f 42/42/42 27/27/27 26/26/26
f 42/42/42 26/26/26 20/20/20
f 42/42/42 20/20/20 41/41/41
f 46/46/46 47/47/47 48/48/48
f 46/46/46 48/48/48 49/49/49
f 46/46/46 49/49/49 50/50/50
f 46/46/46 50/50/50 51/51/51
f 46/46/46 51/51/51 52/52/52
f 46/46/46 52/52/52 53/53/53
f 46/46/46 53/53/53 54/54/54
f 46/46/46 54/54/54 47/47/47
f 55/55/55 56/56/56 57/57/57
f 55/55/55 57/57/57 58/58/58
f 55/55/55 58/58/58 48/48/48
f 55/55/55 48/48/48 47/47/47
f 55/55/55 47/47/47 54/54/54
f 55/55/55 54/54/54 59/59/59
f 55/55/55 59/59/59 60/60/60
f 55/55/55 60/60/60 56/56/56
f 61/61/61 62/62/62 63/63/63
f 61/61/61 63/63/63 64/64/64
f 61/61/61 64/64/64 65/65/65
f 61/61/61 65/65/65 66/66/66
f 61/61/61 66/66/66 67/67/67
f 61/61/61 67/67/67 68/68/68
f 61/61/61 68/68/68 69/69/69
f 61/61/61 69/69/69 62/62/62
f 70/70/70 66/66/66 65/65/65
f 70/70/70 65/65/65 71/71/71
f 70/70/70 71/71/71 72/72/72
f 70/70/70 72/72/72 73/73/73
f 70/70/70 73/73/73 74/74/74
f 70/70/70 74/74/74 75/75/75
f 70/70/70 75/75/75 67/67/67
f 70/70/70 67/67/67 66/66/66
f 76/76/76 77/77/77 54/54/54
f 76/76/76 54/54/54 53/53/53
f 76/76/76 53/53/53 52/52/52
f 76/76/76 52/52/52 78/78/78
f 76/76/76 78/78/78 72/72/72
f 76/76/76 72/72/72 71/71/71
f 76/76/76 71/71/71 65/65/65
f 76/76/76 65/65/65 77/77/77
f 79/79/79 80/80/80 60/60/60
f 79/79/79 60/60/60 59/59/59
f 79/79/79 59/59/59 54/54/54
f 79/79/79 54/54/54 77/77/77
f 79/79/79 77/77/77 65/65/65
f 79/79/79 65/65/65 64/64/64
f 79/79/79 64/64/64 63/63/63
f 79/79/79 63/63/63 80/80/80
f 81/81/81 82/82/82 69/69/69
f 81/81/81 69/69/69 68/68/68
f 81/81/81 68/68/68 67/67/67
f 81/81/81 67/67/67 83/83/83
f 81/81/81 83/83/83 84/84/84
f 81/81/81 84/84/84 85/85/85
f 81/81/81 85/85/85 86/86/86
f 81/81/81 86/86/86 82/82/82
f 87/87/87 83/83/83 67/67/67
f 87/87/87 67/67/67 75/75/75
f 87/87/87 75/75/75 74/74/74
f 87/87/87 74/74/74 88/88/88
f 87/87/87 88/88/88 89/89/89
f 87/87/87 89/89/89 90/90/90
f 87/87/87 90/90/90 84/84/84
f 87/87/87 84/84/84 83/83/83
f 91/91/91 92/92/92 38/38/38
f 91/91/91 38/38/38 37/37/37
f 91/91/91 37/37/37 18/18/18
f 91/91/91 18/18/18 93/93/93
f 91/91/91 93/93/93 69/69/69
f 91/91/91 69/69/69 82/82/82
f 91/91/91 82/82/82 94/94/94
f 91/91/91 94/94/94 92/92/92
f 95/95/95 96/96/96 44/44/44
f 95/95/95 44/44/44 43/43/43
f 95/95/95 43/43/43 40/40/40
f 95/95/95 40/40/40 97/97/97
f 95/95/95 97/97/97 84/84/84
f 95/95/95 84/84/84 90/90/90
f 95/95/95 90/90/90 98/98/98
f 95/95/95 98/98/98 96/96/96
f 99/99/99 100/100/100 7/7/7
f 99/99/99 7/7/7 6/6/6
f 99/99/99 6/6/6 5/5/5
f 99/99/99 5/5/5 101/101/101
f 99/99/99 101/101/101 52/52/52
f 99/99/99 52/52/52 51/51/51
f 99/99/99 51/51/51 102/102/102
f 99/99/99 102/102/102 100/100/100
f 103/103/103 104/104/104 15/15/15
f 103/103/103 15/15/15 14/14/14
f 103/103/103 14/14/14 9/9/9
f 103/103/103 9/9/9 105/105/105
f 103/103/103 105/105/105 48/48/48
f 103/103/103 48/48/48 58/58/58
f 103/103/103 58/58/58 106/106/106
f 103/103/103 106/106/106 104/104/104
f 107/107/107 108/108/108 12/12/12
f 107/107/107 12/12/12 11/11/11
f 107/107/107 11/11/11 15/15/15
f 107/107/107 15/15/15 104/104/104
f 107/107/107 104/104/104 106/106/106
f 107/107/107 106/106/106 56/56/56
f 107/107/107 56/56/56 60/60/60
f 107/107/107 60/60/60 108/108/108
f 109/109/109 97/97/97 40/40/40
f 109/109/109 40/40/40 39/39/39
f 109/109/109 39/39/39 38/38/38
f 109/109/109 38/38/38 92/92/92
f 109/109/109 92/92/92 94/94/94
f 109/109/109 94/94/94 85/85/85
f 109/109/109 85/85/85 84/84/84
f 109/109/109 84/84/84 97/97/97
f 110/110/110 111/111/111 27/27/27
f 110/110/110 27/27/27 45/45/45
f 110/110/110 45/45/45 44/44/44
f 110/110/110 44/44/44 96/96/96
f 110/110/110 96/96/96 98/98/98
f 110/110/110 98/98/98 88/88/88
f 110/110/110 88/88/88 74/74/74
f 110/110/110 74/74/74 111/111/111
f 112/112/112 105/105/105 9/9/9
f 112/112/112 9/9/9 8/8/8
f 112/112/112 8/8/8 7/7/7
f 112/112/112 7/7/7 100/100/100
f 112/112/112 100/100/100 102/102/102
f 112/112/112 102/102/102 49/49/49
f 112/112/112 49/49/49 48/48/48
f 112/112/112 48/48/48 105/105/105
f 113/113/113 101/101/101 5/5/5
f 113/113/113 5/5/5 33/33/33
f 113/113/113 33/33/33 29/29/29
f 113/113/113 29/29/29 114/114/114
f 113/113/113 114/114/114 72/72/72
f 113/113/113 72/72/72 78/78/78
f 113/113/113 78/78/78 52/52/52
f 113/113/113 52/52/52 101/101/101
f 115/115/115 116/116/116 24/24/24
f 115/115/115 24/24/24 35/35/35
f 115/115/115 35/35/35 12/12/12
f 115/115/115 12/12/12 108/108/108
f 115/115/115 108/108/108 60/60/60
f 115/115/115 60/60/60 80/80/80
f 115/115/115 80/80/80 63/63/63
f 115/115/115 63/63/63 116/116/116
f 117/117/117 93/93/93 18/18/18
f 117/117/117 18/18/18 17/17/17
f 117/117/117 17/17/17 24/24/24
f 117/117/117 24/24/24 116/116/116
f 117/117/117 116/116/116 63/63/63
f 117/117/117 63/63/63 62/62/62
f 117/117/117 62/62/62 69/69/69
f 117/117/117 69/69/69 93/93/93
f 118/118/118 114/114/114 29/29/29
f 118/118/118 29/29/29 28/28/28
f 118/118/118 28/28/28 27/27/27
f 118/118/118 27/27/27 111/111/111
f 118/118/118 111/111/111 74/74/74
f 118/118/118 74/74/74 73/73/73
f 118/118/118 73/73/73 72/72/72
f 118/118/118 72/72/72 114/114/114
