v -2.399158 0.812565 -1.151675
v -2.397518 0.812886 -1.153182
v -2.39923 0.810855 -1.154566
v -2.400865 0.810669 -1.152682
v -2.40231 0.810589 -1.151391
v -2.400729 0.812256 -1.150763
v -2.399376 0.813171 -1.150635
v -2.39783 0.813832 -1.150995
v -2.396199 0.814299 -1.152137
v -2.396827 0.813082 -1.155314
v -2.396643 0.813162 -1.157146
v -2.397668 0.811619 -1.158642
v -2.398217 0.811256 -1.156818
v -2.395813 0.814279 -1.154145
v -2.396066 0.813905 -1.155804
v -2.402498 0.803797 -1.160558
v -2.401712 0.804119 -1.16219
v -2.403038 0.801251 -1.162859
v -2.403721 0.800961 -1.161409
v -2.404733 0.800632 -1.159541
v -2.403654 0.803428 -1.158453
v -2.40241 0.806103 -1.157277
v -2.401217 0.806501 -1.159488
v -2.400421 0.806858 -1.161208
v -2.405093 0.803221 -1.156505
v -2.406016 0.800453 -1.157825
v -2.407059 0.800359 -1.156578
v -2.406259 0.803111 -1.155088
v -2.405177 0.805803 -1.153779
v -2.403931 0.8059 -1.155248
v -2.402489 0.808414 -1.153923
v -2.400898 0.808586 -1.155956
v -2.403826 0.808367 -1.152472
v -2.399735 0.809025 -1.158225
v -2.399 0.809437 -1.16001
v -2.40503 0.798046 -1.162011
v -2.404561 0.798284 -1.163118
v -2.405488 0.796549 -1.162962
v -2.40602 0.795816 -1.162359
v -2.406474 0.795613 -1.161368
v -2.405754 0.797783 -1.160599
v -2.406743 0.797666 -1.159336
v -2.407193 0.795556 -1.160526
v -2.407599 0.796081 -1.159664
v -2.407564 0.797619 -1.158427
v -2.399025 0.812398 -1.151575
v -2.397367 0.812721 -1.153108
v -2.396088 0.814173 -1.152083
v -2.397734 0.813704 -1.15092
v -2.399308 0.813077 -1.150573
v -2.40064 0.812131 -1.150675
v -2.402214 0.81047 -1.151303
v -2.400725 0.810509 -1.15258
v -2.399073 0.810697 -1.154488
v -2.39666 0.812923 -1.155269
v -2.39651 0.813047 -1.157126
v -2.395971 0.813817 -1.155786
v -2.395689 0.814158 -1.154114
v -2.398046 0.811103 -1.156765
v -2.397532 0.811507 -1.158615
v -2.40231 0.803677 -1.16048
v -2.401567 0.804031 -1.16214
v -2.400279 0.806762 -1.161163
v -2.401034 0.80637 -1.159416
v -2.402238 0.805969 -1.157186
v -2.403476 0.803305 -1.158357
v -2.404552 0.800517 -1.159441
v -2.40353 0.800849 -1.161327
v -2.402889 0.801169 -1.162807
v -2.404927 0.803096 -1.156392
v -2.403772 0.805763 -1.155139
v -2.405064 0.8057 -1.153688
v -2.406141 0.803016 -1.154995
v -2.406939 0.800271 -1.156482
v -2.405847 0.800336 -1.157708
v -2.40234 0.808266 -1.153818
v -2.400734 0.808439 -1.155872
v -2.403722 0.808255 -1.152383
v -2.399558 0.808882 -1.158163
v -2.398861 0.809333 -1.159974
v -2.404837 0.797937 -1.161929
v -2.404411 0.798205 -1.163066
v -2.405571 0.797672 -1.160498
v -2.406337 0.79553 -1.161292
v -2.405874 0.795735 -1.162298
v -2.405378 0.79649 -1.162921
v -2.406573 0.797552 -1.159217
v -2.407444 0.797532 -1.158329
v -2.407508 0.796017 -1.159593
v -2.407067 0.795471 -1.160435
v -2.404337 0.798329 -1.163466
v -2.40568 0.795988 -1.163169
v -2.402743 0.801311 -1.163321
v -2.405378 0.79649 -1.162921
v -2.407287 0.794814 -1.160882
v -2.407795 0.795519 -1.159864
v -2.406653 0.794853 -1.16159
v -2.407508 0.796017 -1.159593
v -2.401216 0.812098 -1.150417
v -2.399466 0.813262 -1.150377
v -2.40275 0.81051 -1.150919
v -2.399308 0.813077 -1.150573
v -2.39542 0.814623 -1.153742
v -2.395885 0.814056 -1.155969
v -2.39571 0.814713 -1.151765
v -2.395971 0.813817 -1.155786
v -2.39652 0.813139 -1.157751
v -2.397423 0.811691 -1.15924
v -2.406285 0.795037 -1.162448
v -2.407786 0.797564 -1.158079
v -2.407355 0.800289 -1.156118
v -2.397345 0.814197 -1.150735
v -2.404227 0.808302 -1.151946
v -2.405544 0.805725 -1.153247
v -2.398692 0.809529 -1.160592
v -2.400091 0.806934 -1.161764
v -2.401385 0.804187 -1.162713
v -2.406597 0.803032 -1.154572
vn -0.493 0.7317 -0.4706
vn -0.6114 0.7375 -0.2867
vn -0.6451 0.6965 -0.3141
vn -0.5412 0.6904 -0.48
vn -0.5606 0.6721 -0.4837
vn -0.4984 0.7318 -0.4648
vn -0.4527 0.7707 -0.4484
vn -0.4636 0.7927 -0.3957
vn -0.5542 0.7965 -0.2418
vn -0.7248 0.6803 -0.1086
vn -0.7219 0.6822 -0.1159
vn -0.7578 0.6284 -0.1757
vn -0.7485 0.6444 -0.1563
vn -0.6528 0.7509 -0.1
vn -0.6925 0.7176 -0.0737
vn -0.8151 0.4805 -0.3237
vn -0.8009 0.4792 -0.359
vn -0.8107 0.4515 -0.3728
vn -0.8304 0.4502 -0.3283
vn -0.7766 0.4584 -0.4321
vn -0.7617 0.4955 -0.4173
vn -0.7277 0.5673 -0.3854
vn -0.7909 0.5422 -0.2836
vn -0.7858 0.5327 -0.3141
vn -0.6987 0.5062 -0.5054
vn -0.7055 0.4779 -0.5233
vn -0.737 0.4679 -0.4877
vn -0.7241 0.4963 -0.4789
vn -0.6843 0.5552 -0.4727
vn -0.6604 0.5711 -0.4875
vn -0.6013 0.6402 -0.478
vn -0.684 0.6417 -0.3468
vn -0.6246 0.6192 -0.4758
vn -0.766 0.6037 -0.2209
vn -0.7713 0.5867 -0.2466
vn -0.8462 0.4331 -0.3103
vn -0.8275 0.431 -0.3596
vn -0.8472 0.4106 -0.3371
vn -0.8726 0.3782 -0.309
vn -0.7998 0.3896 -0.4567
vn -0.7831 0.4407 -0.4388
vn -0.694 0.4669 -0.548
vn -0.6972 0.4171 -0.583
vn -0.7156 0.4397 -0.5427
vn -0.73 0.4526 -0.5121
vn 0.4876 -0.7141 0.5023
vn 0.6209 -0.7265 0.2944
vn 0.6561 -0.6819 0.3233
vn 0.4653 -0.6578 0.5923
vn 0.3921 -0.618 0.6814
vn 0.4057 -0.6304 0.6618
vn 0.4588 -0.6405 0.6158
vn 0.5321 -0.6888 0.4923
vn 0.6451 -0.6965 0.3141
vn 0.7486 -0.6562 0.0946
vn 0.8458 -0.5329 -0.0255
vn 0.856 -0.5152 -0.0431
vn 0.8125 -0.5809 0.05
vn 0.7554 -0.6393 0.1435
vn 0.8286 -0.5585 0.0381
vn 0.8218 -0.4787 0.3089
vn 0.862 -0.4639 0.2043
vn 0.8449 -0.5058 0.174
vn 0.7974 -0.5396 0.2702
vn 0.7278 -0.5672 0.3854
vn 0.7618 -0.4954 0.4174
vn 0.7766 -0.4583 0.4321
vn 0.8374 -0.4499 0.3104
vn 0.8711 -0.456 0.1823
vn 0.6881 -0.5083 0.5177
vn 0.6508 -0.5721 0.4991
vn 0.5807 -0.5643 0.5868
vn 0.6097 -0.5199 0.5983
vn 0.5929 -0.5178 0.6167
vn 0.6924 -0.4821 0.5368
vn 0.5921 -0.6403 0.4893
vn 0.684 -0.6417 0.3468
vn 0.5231 -0.6147 0.5903
vn 0.7722 -0.6004 0.208
vn 0.83 -0.5466 0.111
vn 0.85 -0.4458 0.2806
vn 0.8736 -0.4718 0.1191
vn 0.7792 -0.4515 0.4348
vn 0.7606 -0.4982 0.4162
vn 0.8502 -0.4914 0.1889
vn 0.8707 -0.4855 0.079
vn 0.6706 -0.4856 0.5607
vn 0.5394 -0.546 0.6409
vn 0.5042 -0.5667 0.6517
vn 0.5944 -0.5481 0.5884
vn 0.2048 -0.1249 -0.9708
vn -0.0539 -0.4385 -0.8971
vn 0.3096 -0.0111 -0.9508
vn 0.8707 -0.4855 0.079
vn -0.4751 -0.8679 -0.1449
vn -0.7704 -0.5974 0.2225
vn -0.2328 -0.9311 -0.2809
vn 0.5042 -0.5667 0.6517
vn -0.5069 0.3467 0.7892
vn -0.2478 0.5386 0.8053
vn -0.6256 0.1743 0.7604
vn 0.3921 -0.618 0.6814
vn 0.7155 0.6979 -0.031
vn 0.5472 0.7147 -0.4356
vn 0.6237 0.6122 0.4859
vn 0.856 -0.5152 -0.0431
vn 0.4463 0.5579 -0.6996
vn 0.3916 0.4 -0.8286
vn -0.2223 -0.812 -0.5396
vn -0.766 -0.3406 0.5451
vn -0.7178 -0.2387 0.654
vn 0.1892 0.5813 0.7913
vn -0.6745 0.0362 0.7374
vn -0.6853 -0.0495 0.7266
vn 0.3681 0.2678 -0.8904
vn 0.3645 0.1834 -0.9129
vn 0.3587 0.0985 -0.9282
vn -0.6905 -0.1338 0.7109
vt 0.839504 0.118056
vt 0.856743 0.205307
vt 0.741230 0.205307
vt 0.734555 0.106726
vt 0.724541 0.032791
vt 0.813647 0.052618
vt 0.868992 0.081539
vt 0.913398 0.129584
vt 0.940923 0.205307
vt 0.839504 0.292557
vt 0.813647 0.357995
vt 0.724541 0.377822
vt 0.734555 0.303887
vt 0.913398 0.281029
vt 0.868992 0.329074
vt 0.369475 0.299954
vt 0.368286 0.370940
vt 0.245840 0.351447
vt 0.246397 0.288815
vt 0.246768 0.205307
vt 0.370268 0.205307
vt 0.494283 0.205307
vt 0.492822 0.304944
vt 0.490632 0.379672
vt 0.369475 0.110659
vt 0.246397 0.121798
vt 0.245841 0.059166
vt 0.368286 0.039673
vt 0.490632 0.030941
vt 0.492822 0.105669
vt 0.616755 0.103478
vt 0.619174 0.205307
vt 0.613127 0.027106
vt 0.616755 0.307135
vt 0.613126 0.383507
vt 0.123273 0.268175
vt 0.123047 0.315326
vt 0.054743 0.283353
vt 0.030912 0.249131
vt 0.030973 0.205306
vt 0.123423 0.205306
vt 0.123273 0.142438
vt 0.030912 0.161481
vt 0.054744 0.127260
vt 0.123047 0.095287
vt 0.839504 0.118056
vt 0.856743 0.205307
vt 0.968983 0.205307
vt 0.938030 0.133427
vt 0.876123 0.061548
vt 0.805028 0.030806
vt 0.721203 0.008146
vt 0.734555 0.106726
vt 0.741230 0.205307
vt 0.839504 0.292557
vt 0.805028 0.379807
vt 0.876123 0.349065
vt 0.938030 0.277186
vt 0.734555 0.303887
vt 0.721203 0.402467
vt 0.369475 0.299954
vt 0.367890 0.394602
vt 0.489902 0.404581
vt 0.492822 0.304944
vt 0.494283 0.205307
vt 0.370268 0.205307
vt 0.246768 0.205307
vt 0.246397 0.288815
vt 0.245655 0.372324
vt 0.369475 0.110659
vt 0.492822 0.105669
vt 0.489902 0.006032
vt 0.367890 0.016011
vt 0.245655 0.038289
vt 0.246397 0.121798
vt 0.616755 0.103478
vt 0.619174 0.205307
vt 0.611917 0.001649
vt 0.616755 0.307135
vt 0.611917 0.408964
vt 0.123273 0.268175
vt 0.122972 0.331043
vt 0.123423 0.205306
vt 0.000156 0.205306
vt 0.000125 0.242784
vt 0.000064 0.280261
vt 0.123273 0.142438
vt 0.122972 0.079570
vt 0.000064 0.130352
vt 0.000125 0.167829
vt 0.122972 0.331043
vt 0.030806 0.283587
vt 0.245655 0.372324
vt 0.030806 0.283587
vt 0.000125 0.167829
vt 0.030806 0.127026
vt 0.000156 0.205306
vt 0.030806 0.127026
vt 0.805028 0.030806
vt 0.873826 0.071832
vt 0.721203 0.008146
vt 0.873826 0.071832
vt 0.938030 0.277186
vt 0.873826 0.338781
vt 0.968983 0.205307
vt 0.873826 0.338781
vt 0.805028 0.379807
vt 0.721203 0.402467
vt 0.000125 0.242784
vt 0.122972 0.079570
vt 0.245655 0.038289
vt 0.938030 0.133427
vt 0.611917 0.001649
vt 0.489902 0.006032
vt 0.611917 0.408964
vt 0.489902 0.404581
vt 0.367890 0.394602
vt 0.367890 0.016011
f 1/1/1 2/2/2 3/3/3
f 1/1/1 3/3/3 4/4/4
f 1/1/1 4/4/4 5/5/5
f 1/1/1 5/5/5 6/6/6
f 1/1/1 6/6/6 7/7/7
f 1/1/1 7/7/7 8/8/8
f 1/1/1 8/8/8 9/9/9
f 1/1/1 9/9/9 2/2/2
f 10/10/10 11/11/11 12/12/12
f 10/10/10 12/12/12 13/13/13
f 10/10/10 13/13/13 3/3/3
f 10/10/10 3/3/3 2/2/2
f 10/10/10 2/2/2 9/9/9
f 10/10/10 9/9/9 14/14/14
f 10/10/10 14/14/14 15/15/15
f 10/10/10 15/15/15 11/11/11
f 16/16/16 17/17/17 18/18/18
f 16/16/16 18/18/18 19/19/19
f 16/16/16 19/19/19 20/20/20
f 16/16/16 20/20/20 21/21/21
f 16/16/16 21/21/21 22/22/22
f 16/16/16 22/22/22 23/23/23
f 16/16/16 23/23/23 24/24/24
f 16/16/16 24/24/24 17/17/17
f 25/25/25 21/21/21 20/20/20
f 25/25/25 20/20/20 26/26/26
f 25/25/25 26/26/26 27/27/27
f 25/25/25 27/27/27 28/28/28
f 25/25/25 28/28/28 29/29/29
f 25/25/25 29/29/29 30/30/30
f 25/25/25 30/30/30 22/22/22
f 25/25/25 22/22/22 21/21/21
f 31/31/31 32/32/32 22/22/22
f 31/31/31 22/22/22 30/30/30
f 31/31/31 30/30/30 29/29/29
f 31/31/31 29/29/29 33/33/33
f 31/31/31 33/33/33 5/5/5
f 31/31/31 5/5/5 4/4/4
f 31/31/31 4/4/4 3/3/3
f 31/31/31 3/3/3 32/32/32
f 34/34/34 35/35/35 24/24/24
f 34/34/34 24/24/24 23/23/23
f 34/34/34 23/23/23 22/22/22
f 34/34/34 22/22/22 32/32/32
f 34/34/34 32/32/32 3/3/3
f 34/34/34 3/3/3 13/13/13
f 34/34/34 13/13/13 12/12/12
f 34/34/34 12/12/12 35/35/35
f 36/36/36 37/37/37 38/38/38
f 36/36/36 38/38/38 39/39/39
f 36/36/36 39/39/39 40/40/40
f 36/36/36 40/40/40 41/41/41
f 36/36/36 41/41/41 20/20/20
f 36/36/36 20/20/20 19/19/19
f 36/36/36 19/19/19 18/18/18
f 36/36/36 18/18/18 37/37/37
f 42/42/42 41/41/41 40/40/40
f 42/42/42 40/40/40 43/43/43
f 42/42/42 43/43/43 44/44/44
f 42/42/42 44/44/44 45/45/45
f 42/42/42 45/45/45 27/27/27
f 42/42/42 27/27/27 26/26/26
f 42/42/42 26/26/26 20/20/20
f 42/42/42 20/20/20 41/41/41
f 46/46/46 47/47/47 48/48/48
f 46/46/46 48/48/48 49/49/49
f 46/46/46 49/49/49 50/50/50
f 46/46/46 50/50/50 51/51/51
f 46/46/46 51/51/51 52/52/52
f 46/46/46 52/52/52 53/53/53
f 46/46/46 53/53/53 54/54/54
f 46/46/46 54/54/54 47/47/47
f 55/55/55 56/56/56 57/57/57
f 55/55/55 57/57/57 58/58/58
f 55/55/55 58/58/58 48/48/48
f 55/55/55 48/48/48 47/47/47
f 55/55/55 47/47/47 54/54/54
f 55/55/55 54/54/54 59/59/59
f 55/55/55 59/59/59 60/60/60
f 55/55/55 60/60/60 56/56/56
f 61/61/61 62/62/62 63/63/63
f 61/61/61 63/63/63 64/64/64
f 61/61/61 64/64/64 65/65/65
f 61/61/61 65/65/65 66/66/66
f 61/61/61 66/66/66 67/67/67
f 61/61/61 67/67/67 68/68/68
f 61/61/61 68/68/68 69/69/69
f 61/61/61 69/69/69 62/62/62
f 70/70/70 66/66/66 65/65/65
f 70/70/70 65/65/65 71/71/71
f 70/70/70 71/71/71 72/72/72
f 70/70/70 72/72/72 73/73/73
f 70/70/70 73/73/73 74/74/74
f 70/70/70 74/74/74 75/75/75
f 70/70/70 75/75/75 67/67/67
f 70/70/70 67/67/67 66/66/66
f 76/76/76 77/77/77 54/54/54
f 76/76/76 54/54/54 53/53/53
f 76/76/76 53/53/53 52/52/52
f 76/76/76 52/52/52 78/78/78
f 76/76/76 78/78/78 72/72/72
f 76/76/76 72/72/72 71/71/71
f 76/76/76 71/71/71 65/65/65
f 76/76/76 65/65/65 77/77/77
f 79/79/79 80/80/80 60/60/60
f 79/79/79 60/60/60 59/59/59
f 79/79/79 59/59/59 54/54/54
f 79/79/79 54/54/54 77/77/77
f 79/79/79 77/77/77 65/65/65
f 79/79/79 65/65/65 64/64/64
f 79/79/79 64/64/64 63/63/63
f 79/79/79 63/63/63 80/80/80
f 81/81/81 82/82/82 69/69/69
f 81/81/81 69/69/69 68/68/68
f 81/81/81 68/68/68 67/67/67
f 81/81/81 67/67/67 83/83/83
f 81/81/81 83/83/83 84/84/84
f 81/81/81 84/84/84 85/85/85
f 81/81/81 85/85/85 86/86/86
f 81/81/81 86/86/86 82/82/82
f 87/87/87 83/83/83 67/67/67
f 87/87/87 67/67/67 75/75/75
f 87/87/87 75/75/75 74/74/74
f 87/87/87 74/74/74 88/88/88
f 87/87/87 88/88/88 89/89/89
f 87/87/87 89/89/89 90/90/90
f 87/87/87 90/90/90 84/84/84
f 87/87/87 84/84/84 83/83/83
f 91/91/91 92/92/92 38/38/38
f 91/91/91 38/38/38 37/37/37
f 91/91/91 37/37/37 18/18/18
f 91/91/91 18/18/18 93/93/93
f 91/91/91 93/93/93 69/69/69
f 91/91/91 69/69/69 82/82/82
f 91/91/91 82/82/82 94/94/94
f 91/91/91 94/94/94 92/92/92
f 95/95/95 96/96/96 44/44/44
f 95/95/95 44/44/44 43/43/43
f 95/95/95 43/43/43 40/40/40
f 95/95/95 40/40/40 97/97/97
f 95/95/95 97/97/97 84/84/84
f 95/95/95 84/84/84 90/90/90
f 95/95/95 90/90/90 98/98/98
f 95/95/95 98/98/98 96/96/96
f 99/99/99 100/100/100 7/7/7
f 99/99/99 7/7/7 6/6/6
f 99/99/99 6/6/6 5/5/5
f 99/99/99 5/5/5 101/101/101
f 99/99/99 101/101/101 52/52/52
f 99/99/99 52/52/52 51/51/51
f 99/99/99 51/51/51 102/102/102
f 99/99/99 102/102/102 100/100/100
f 103/103/103 104/104/104 15/15/15
f 103/103/103 15/15/15 14/14/14
f 103/103/103 14/14/14 9/9/9
f 103/103/103 9/9/9 105/105/105
f 103/103/103 105/105/105 48/48/48
f 103/103/103 48/48/48 58/58/58
f 103/103/103 58/58/58 106/106/106
f 103/103/103 106/106/106 104/104/104
f 107/107/107 108/108/108 12/12/12
f 107/107/107 12/12/12 11/11/11
f 107/107/107 11/11/11 15/15/15
f 107/107/107 15/15/15 104/104/104
f 107/107/107 104/104/104 106/106/106
f 107/107/107 106/106/106 56/56/56
f 107/107/107 56/56/56 60/60/60
f 107/107/107 60/60/60 108/108/108
f 109/109/109 97/97/97 40/40/40
f 109/109/109 40/40/40 39/39/39
f 109/109/109 39/39/39 38/38/38
f 109/109/109 38/38/38 92/92/92
f 109/109/109 92/92/92 94/94/94
f 109/109/109 94/94/94 85/85/85
f 109/109/109 85/85/85 84/84/84
f 109/109/109 84/84/84 97/97/97
f 110/110/110 111/111/111 27/27/27
f 110/110/110 27/27/27 45/45/45
f 110/110/110 45/45/45 44/44/44
f 110/110/110 44/44/44 96/96/96
f 110/110/110 96/96/96 98/98/98
f 110/110/110 98/98/98 88/88/88
f 110/110/110 88/88/88 74/74/74
f 110/110/110 74/74/74 111/111/111
f 112/112/112 105/105/105 9/9/9
f 112/112/112 9/9/9 8/8/8
f 112/112/112 8/8/8 7/7/7
f 112/112/112 7/7/7 100/100/100
f 112/112/112 100/100/100 102/102/102
f 112/112/112 102/102/102 49/49/49
f 112/112/112 49/49/49 48/48/48
f 112/112/112 48/48/48 105/105/105
f 113/113/113 101/101/101 5/5/5
f 113/113/113 5/5/5 33/33/33
f 113/113/113 33/33/33 29/29/29
f 113/113/113 29/29/29 114/114/114
f 113/113/113 114/114/114 72/72/72
f 113/113/113 72/72/72 78/78/78
f 113/113/113 78/78/78 52/52/52
f 113/113/113 52/52/52 101/101/101
f 115/115/115 116/116/116 24/24/24
f 115/115/115 24/24/24 35/35/35
f 115/115/115 35/35/35 12/12/12
f 115/115/115 12/12/12 108/108/108
f 115/115/115 108/108/108 60/60/60
f 115/115/115 60/60/60 80/80/80
f 115/115/115 80/80/80 63/63/63
f 115/115/115 63/63/63 116/116/116
f 117/117/117 93/93/93 18/18/18
f 117/117/117 18/18/18 17/17/17
f 117/117/117 17/17/17 24/24/24
f 117/117/117 24/24/24 116/116/116
f 117/117/117 116/116/116 63/63/63
f 117/117/117 63/63/63 62/62/62
f 117/117/117 62/62/62 69/69/69
f 117/117/117 69/69/69 93/93/93
f 118/118/118 114/114/114 29/29/29
f 118/118/118 29/29/29 28/28/28
f 118/118/118 28/28/28 27/27/27
f 118/118/118 27/27/27 111/111/111
f 118/118/118 111/111/111 74/74/74
f 118/118/118 74/74/74 73/73/73
f 118/118/118 73/73/73 72/72/72
f 118/118/118 72/72/72 114/114/114
