v -2.365153 0.698637 -1.211527
v -2.36621 0.698411 -1.213106
v -2.367846 0.697715 -1.211282
v -2.366454 0.697997 -1.209699
v -2.365519 0.698352 -1.208388
v -2.364582 0.698913 -1.210094
v -2.364207 0.699057 -1.211428
v -2.364263 0.698991 -1.212888
v -2.364993 0.698837 -1.214458
v -2.367886 0.698532 -1.21402
v -2.369376 0.698729 -1.214466
v -2.370964 0.698143 -1.213355
v -2.36956 0.697878 -1.212533
v -2.366628 0.6989 -1.215045
v -2.368088 0.698907 -1.214969
v -2.374288 0.694389 -1.20714
v -2.37552 0.694511 -1.208096
v -2.376673 0.692957 -1.206147
v -2.375577 0.692841 -1.205307
v -2.37417 0.692776 -1.204142
v -2.372702 0.694323 -1.205816
v -2.371169 0.695706 -1.207556
v -2.372833 0.695792 -1.208935
v -2.374132 0.695945 -1.209925
v -2.371244 0.694506 -1.204363
v -2.372886 0.692944 -1.202852
v -2.371956 0.693138 -1.201844
v -2.370186 0.694715 -1.203231
v -2.368553 0.696159 -1.204836
v -2.369649 0.695914 -1.20603
v -2.368003 0.697084 -1.207838
v -2.369525 0.696825 -1.209405
v -2.36692 0.697403 -1.206595
v -2.371233 0.69696 -1.210785
v -2.372581 0.697186 -1.21176
v -2.376682 0.691238 -1.203343
v -2.37752 0.69136 -1.203951
v -2.377763 0.690405 -1.202593
v -2.377432 0.689995 -1.201832
v -2.376683 0.689907 -1.201266
v -2.375617 0.691162 -1.202488
v -2.374673 0.691315 -1.20151
v -2.376056 0.690048 -1.200577
v -2.375286 0.6905 -1.200333
v -2.373997 0.691495 -1.200738
v -2.365087 0.698449 -1.21155
v -2.366164 0.698221 -1.213148
v -2.364961 0.698693 -1.214488
v -2.364214 0.69885 -1.212902
v -2.364166 0.698953 -1.211435
v -2.364523 0.698775 -1.210102
v -2.365458 0.698215 -1.208403
v -2.366385 0.697812 -1.20973
v -2.367796 0.697528 -1.21133
v -2.367862 0.698343 -1.214081
v -2.369368 0.698589 -1.214521
v -2.368081 0.698803 -1.215006
v -2.366613 0.698758 -1.21509
v -2.369528 0.697691 -1.212597
v -2.370949 0.698004 -1.213412
v -2.374228 0.694217 -1.207225
v -2.375481 0.694382 -1.208166
v -2.374099 0.695813 -1.20999
v -2.372781 0.695615 -1.209013
v -2.371102 0.695529 -1.207622
v -2.372628 0.694151 -1.20589
v -2.374092 0.692608 -1.204221
v -2.375513 0.692674 -1.205398
v -2.376631 0.692832 -1.20622
v -2.371158 0.694335 -1.204425
v -2.369569 0.695738 -1.206083
v -2.368485 0.696028 -1.204869
v -2.370115 0.694588 -1.203271
v -2.371881 0.693014 -1.201887
v -2.372795 0.692778 -1.202918
v -2.367928 0.696903 -1.20788
v -2.369466 0.696642 -1.209462
v -2.366856 0.697269 -1.206619
v -2.371191 0.696777 -1.210856
v -2.372558 0.69705 -1.21182
v -2.376616 0.691072 -1.203436
v -2.377478 0.691236 -1.204027
v -2.375537 0.690996 -1.202569
v -2.376623 0.689783 -1.201326
v -2.377384 0.689871 -1.201903
v -2.37773 0.690313 -1.202647
v -2.374579 0.691151 -1.201578
v -2.37392 0.691373 -1.200781
v -2.375231 0.690409 -1.200368
v -2.375985 0.689924 -1.200627
v -2.377782 0.691346 -1.204188
v -2.378046 0.690083 -1.202274
v -2.377021 0.69294 -1.206461
v -2.37773 0.690313 -1.202647
v -2.376485 0.68957 -1.200287
v -2.375564 0.690178 -1.20001
v -2.377012 0.689433 -1.200885
v -2.375231 0.690409 -1.200368
v -2.364363 0.698944 -1.209618
v -2.363985 0.69913 -1.211354
v -2.365178 0.69841 -1.207956
v -2.364166 0.698953 -1.211435
v -2.366203 0.698959 -1.215407
v -2.368185 0.698969 -1.215185
v -2.364573 0.698914 -1.214921
v -2.368081 0.698803 -1.215006
v -2.369871 0.698733 -1.214641
v -2.371428 0.69817 -1.213656
v -2.377661 0.689525 -1.20136
v -2.373736 0.691501 -1.200498
v -2.371611 0.693148 -1.201526
v -2.363945 0.699046 -1.213347
v -2.366529 0.69745 -1.20619
v -2.368156 0.696183 -1.204451
v -2.373022 0.697201 -1.212113
v -2.374552 0.695937 -1.210285
v -2.375914 0.694494 -1.208447
v -2.3698 0.694729 -1.20287
vn -0.3614 0.9317 0.0356
vn -0.1926 0.9663 0.1705
vn -0.231 0.9493 0.2132
vn -0.3836 0.9186 0.0945
vn -0.3927 0.9119 0.1188
vn -0.3562 0.9335 0.0414
vn -0.328 0.9446 -0.0129
vn -0.2734 0.9619 -0.0034
vn -0.1314 0.986 0.1027
vn -0.0416 0.944 0.3273
vn -0.048 0.9453 0.3226
vn -0.1207 0.9224 0.367
vn -0.0977 0.9296 0.3553
vn -0.0121 0.9719 0.2349
vn 0.0031 0.9573 0.289
vn -0.3002 0.8383 0.4552
vn -0.3334 0.8354 0.4369
vn -0.3534 0.8174 0.455
vn -0.3122 0.8193 0.4809
vn -0.4065 0.8158 0.4113
vn -0.3832 0.8397 0.3847
vn -0.3344 0.883 0.3294
vn -0.2464 0.8761 0.4143
vn -0.2775 0.8696 0.4084
vn -0.4607 0.8321 0.3087
vn -0.4845 0.8127 0.3238
vn -0.4548 0.8135 0.3623
vn -0.4394 0.8314 0.3402
vn -0.4176 0.8642 0.2807
vn -0.4266 0.8692 0.25
vn -0.3975 0.9017 0.1697
vn -0.2776 0.9232 0.2655
vn -0.4019 0.8936 0.1996
vn -0.1705 0.9105 0.3768
vn -0.1995 0.9014 0.3842
vn -0.2997 0.8091 0.5055
vn -0.3464 0.8054 0.481
vn -0.3304 0.7935 0.5111
vn -0.3121 0.7727 0.5527
vn -0.4465 0.7691 0.4572
vn -0.4172 0.804 0.4235
vn -0.5096 0.801 0.314
vn -0.5539 0.7634 0.3321
vn -0.5119 0.7864 0.3457
vn -0.481 0.8001 0.3583
vn 0.3953 -0.918 -0.0328
vn 0.2032 -0.962 -0.1823
vn 0.2438 -0.9427 -0.2276
vn 0.4919 -0.8704 -0.0214
vn 0.5794 -0.8139 0.042
vn 0.5593 -0.8283 0.0318
vn 0.5177 -0.8553 -0.0189
vn 0.395 -0.9147 -0.0848
vn 0.2309 -0.9493 -0.2131
vn 0.0352 -0.9318 -0.3612
vn -0.0477 -0.8517 -0.5218
vn -0.0603 -0.8385 -0.5415
vn 0.0131 -0.8887 -0.4583
vn 0.0869 -0.9266 -0.3658
vn 0.0075 -0.8748 -0.4843
vn 0.2868 -0.8378 -0.4645
vn 0.1917 -0.8292 -0.525
vn 0.1522 -0.8541 -0.4973
vn 0.2345 -0.875 -0.4234
vn 0.3344 -0.8829 -0.3295
vn 0.3833 -0.8396 -0.3849
vn 0.4066 -0.8157 -0.4114
vn 0.2956 -0.8198 -0.4904
vn 0.1728 -0.8235 -0.5403
vn 0.4712 -0.8307 -0.2963
vn 0.4367 -0.8673 -0.239
vn 0.5167 -0.8401 -0.1647
vn 0.5398 -0.8158 -0.2076
vn 0.5565 -0.8087 -0.1904
vn 0.4954 -0.8122 -0.3081
vn 0.4076 -0.8991 -0.1594
vn 0.2776 -0.9233 -0.2655
vn 0.5045 -0.8585 -0.0915
vn 0.1592 -0.9086 -0.386
vn 0.0811 -0.8748 -0.4776
vn 0.2685 -0.818 -0.5086
vn 0.1082 -0.8301 -0.5469
vn 0.4107 -0.8112 -0.4161
vn 0.3815 -0.8413 -0.3829
vn 0.1701 -0.8459 -0.5055
vn 0.0662 -0.8354 -0.5456
vn 0.5159 -0.8085 -0.283
vn 0.5692 -0.8124 -0.1265
vn 0.572 -0.8159 -0.0843
vn 0.5229 -0.8324 -0.1837
vn -0.951 -0.0734 -0.3002
vn -0.9677 -0.2402 0.0761
vn -0.8986 -0.0243 -0.438
vn 0.0662 -0.8354 -0.5456
vn -0.3616 -0.5267 0.7693
vn 0.0211 -0.2028 0.979
vn -0.4827 -0.6749 0.558
vn 0.572 -0.8159 -0.0843
vn 0.7884 0.4306 0.4393
vn 0.8682 0.479 0.1296
vn 0.7141 0.3373 0.6133
vn 0.5794 -0.8139 0.042
vn 0.18 0.2911 -0.9396
vn -0.228 0.4368 -0.8702
vn 0.6583 0.1884 -0.7288
vn -0.0603 -0.8385 -0.5415
vn -0.5267 0.3803 -0.7602
vn -0.689 0.2837 -0.6669
vn -0.7104 -0.5401 0.4512
vn 0.388 -0.0219 0.9214
vn 0.5187 0.0305 0.8544
vn 0.9064 0.3189 -0.2771
vn 0.6598 0.2417 0.7115
vn 0.631 0.1727 0.7563
vn -0.7779 0.1866 -0.6
vn -0.8172 0.117 -0.5643
vn -0.8498 0.0469 -0.525
vn 0.5977 0.1026 0.7951
vt 0.839504 0.118056
vt 0.856743 0.205307
vt 0.741230 0.205307
vt 0.734555 0.106726
vt 0.724541 0.032791
vt 0.813647 0.052618
vt 0.868992 0.081539
vt 0.913398 0.129584
vt 0.940923 0.205307
vt 0.839504 0.292557
vt 0.813647 0.357995
vt 0.724541 0.377822
vt 0.734555 0.303887
vt 0.913398 0.281029
vt 0.868992 0.329074
vt 0.369475 0.299954
vt 0.368286 0.370940
vt 0.245840 0.351447
vt 0.246397 0.288815
vt 0.246768 0.205307
vt 0.370268 0.205307
vt 0.494283 0.205307
vt 0.492822 0.304944
vt 0.490632 0.379672
vt 0.369475 0.110659
vt 0.246397 0.121798
vt 0.245841 0.059166
vt 0.368286 0.039673
vt 0.490632 0.030941
vt 0.492822 0.105669
vt 0.616755 0.103478
vt 0.619174 0.205307
vt 0.613127 0.027106
vt 0.616755 0.307135
vt 0.613126 0.383507
vt 0.123273 0.268175
vt 0.123047 0.315326
vt 0.054743 0.283353
vt 0.030912 0.249131
vt 0.030973 0.205306
vt 0.123423 0.205306
vt 0.123273 0.142438
vt 0.030912 0.161481
vt 0.054744 0.127260
vt 0.123047 0.095287
vt 0.839504 0.118056
vt 0.856743 0.205307
vt 0.968983 0.205307
vt 0.938030 0.133427
vt 0.876123 0.061548
vt 0.805028 0.030806
vt 0.721203 0.008146
vt 0.734555 0.106726
vt 0.741230 0.205307
vt 0.839504 0.292557
vt 0.805028 0.379807
vt 0.876123 0.349065
vt 0.938030 0.277186
vt 0.734555 0.303887
vt 0.721203 0.402467
vt 0.369475 0.299954
vt 0.367890 0.394602
vt 0.489902 0.404581
vt 0.492822 0.304944
vt 0.494283 0.205307
vt 0.370268 0.205307
vt 0.246768 0.205307
vt 0.246397 0.288815
vt 0.245655 0.372324
vt 0.369475 0.110659
vt 0.492822 0.105669
vt 0.489902 0.006032
vt 0.367890 0.016011
vt 0.245655 0.038289
vt 0.246397 0.121798
vt 0.616755 0.103478
vt 0.619174 0.205307
vt 0.611917 0.001649
vt 0.616755 0.307135
vt 0.611917 0.408964
vt 0.123273 0.268175
vt 0.122972 0.331043
vt 0.123423 0.205306
vt 0.000156 0.205306
vt 0.000125 0.242784
vt 0.000064 0.280261
vt 0.123273 0.142438
vt 0.122972 0.079570
vt 0.000064 0.130352
vt 0.000125 0.167829
vt 0.122972 0.331043
vt 0.030806 0.283587
vt 0.245655 0.372324
vt 0.030806 0.283587
vt 0.000125 0.167829
vt 0.030806 0.127026
vt 0.000156 0.205306
vt 0.030806 0.127026
vt 0.805028 0.030806
vt 0.873826 0.071832
vt 0.721203 0.008146
vt 0.873826 0.071832
vt 0.938030 0.277186
vt 0.873826 0.338781
vt 0.968983 0.205307
vt 0.873826 0.338781
vt 0.805028 0.379807
vt 0.721203 0.402467
vt 0.000125 0.242784
vt 0.122972 0.079570
vt 0.245655 0.038289
vt 0.938030 0.133427
vt 0.611917 0.001649
vt 0.489902 0.006032
vt 0.611917 0.408964
vt 0.489902 0.404581
vt 0.367890 0.394602
vt 0.367890 0.016011
f 1/1/1 2/2/2 3/3/3
f 1/1/1 3/3/3 4/4/4
f 1/1/1 4/4/4 5/5/5
f 1/1/1 5/5/5 6/6/6
f 1/1/1 6/6/6 7/7/7
f 1/1/1 7/7/7 8/8/8
f 1/1/1 8/8/8 9/9/9
f 1/1/1 9/9/9 2/2/2
f 10/10/10 11/11/11 12/12/12
f 10/10/10 12/12/12 13/13/13
f 10/10/10 13/13/13 3/3/3
f 10/10/10 3/3/3 2/2/2
f 10/10/10 2/2/2 9/9/9
f 10/10/10 9/9/9 14/14/14
f 10/10/10 14/14/14 15/15/15
f 10/10/10 15/15/15 11/11/11
f 16/16/16 17/17/17 18/18/18
f 16/16/16 18/18/18 19/19/19
f 16/16/16 19/19/19 20/20/20
f 16/16/16 20/20/20 21/21/21
f 16/16/16 21/21/21 22/22/22
f 16/16/16 22/22/22 23/23/23
f 16/16/16 23/23/23 24/24/24
f 16/16/16 24/24/24 17/17/17
f 25/25/25 21/21/21 20/20/20
f 25/25/25 20/20/20 26/26/26
f 25/25/25 26/26/26 27/27/27
f 25/25/25 27/27/27 28/28/28
f 25/25/25 28/28/28 29/29/29
f 25/25/25 29/29/29 30/30/30
f 25/25/25 30/30/30 22/22/22
f 25/25/25 22/22/22 21/21/21
f 31/31/31 32/32/32 22/22/22
f 31/31/31 22/22/22 30/30/30
f 31/31/31 30/30/30 29/29/29
f 31/31/31 29/29/29 33/33/33
f 31/31/31 33/33/33 5/5/5
f 31/31/31 5/5/5 4/4/4
f 31/31/31 4/4/4 3/3/3
f 31/31/31 3/3/3 32/32/32
f 34/34/34 35/35/35 24/24/24
f 34/34/34 24/24/24 23/23/23
f 34/34/34 23/23/23 22/22/22
f 34/34/34 22/22/22 32/32/32
f 34/34/34 32/32/32 3/3/3
f 34/34/34 3/3/3 13/13/13
f 34/34/34 13/13/13 12/12/12
f 34/34/34 12/12/12 35/35/35
f 36/36/36 37/37/37 38/38/38
f 36/36/36 38/38/38 39/39/39
f 36/36/36 39/39/39 40/40/40
f 36/36/36 40/40/40 41/41/41
f 36/36/36 41/41/41 20/20/20
f 36/36/36 20/20/20 19/19/19
f 36/36/36 19/19/19 18/18/18
f 36/36/36 18/18/18 37/37/37
f 42/42/42 41/41/41 40/40/40
f 42/42/42 40/40/40 43/43/43
f 42/42/42 43/43/43 44/44/44
f 42/42/42 44/44/44 45/45/45
f 42/42/42 45/45/45 27/27/27
f 42/42/42 27/27/27 26/26/26
f 42/42/42 26/26/26 20/20/20
f 42/42/42 20/20/20 41/41/41
f 46/46/46 47/47/47 48/48/48
f 46/46/46 48/48/48 49/49/49
f 46/46/46 49/49/49 50/50/50
f 46/46/46 50/50/50 51/51/51
f 46/46/46 51/51/51 52/52/52
f 46/46/46 52/52/52 53/53/53
f 46/46/46 53/53/53 54/54/54
f 46/46/46 54/54/54 47/47/47
f 55/55/55 56/56/56 57/57/57
f 55/55/55 57/57/57 58/58/58
f 55/55/55 58/58/58 48/48/48
f 55/55/55 48/48/48 47/47/47
f 55/55/55 47/47/47 54/54/54
f 55/55/55 54/54/54 59/59/59
f 55/55/55 59/59/59 60/60/60
f 55/55/55 60/60/60 56/56/56
f 61/61/61 62/62/62 63/63/63
f 61/61/61 63/63/63 64/64/64
f 61/61/61 64/64/64 65/65/65
f 61/61/61 65/65/65 66/66/66
f 61/61/61 66/66/66 67/67/67
f 61/61/61 67/67/67 68/68/68
f 61/61/61 68/68/68 69/69/69
f 61/61/61 69/69/69 62/62/62
f 70/70/70 66/66/66 65/65/65
f 70/70/70 65/65/65 71/71/71
f 70/70/70 71/71/71 72/72/72
f 70/70/70 72/72/72 73/73/73
f 70/70/70 73/73/73 74/74/74
f 70/70/70 74/74/74 75/75/75
f 70/70/70 75/75/75 67/67/67
f 70/70/70 67/67/67 66/66/66
f 76/76/76 77/77/77 54/54/54
f 76/76/76 54/54/54 53/53/53
f 76/76/76 53/53/53 52/52/52
f 76/76/76 52/52/52 78/78/78
f 76/76/76 78/78/78 72/72/72
f 76/76/76 72/72/72 71/71/71
f 76/76/76 71/71/71 65/65/65
f 76/76/76 65/65/65 77/77/77
f 79/79/79 80/80/80 60/60/60
f 79/79/79 60/60/60 59/59/59
f 79/79/79 59/59/59 54/54/54
f 79/79/79 54/54/54 77/77/77
f 79/79/79 77/77/77 65/65/65
f 79/79/79 65/65/65 64/64/64
f 79/79/79 64/64/64 63/63/63
f 79/79/79 63/63/63 80/80/80
f 81/81/81 82/82/82 69/69/69
f 81/81/81 69/69/69 68/68/68
f 81/81/81 68/68/68 67/67/67
f 81/81/81 67/67/67 83/83/83
f 81/81/81 83/83/83 84/84/84
f 81/81/81 84/84/84 85/85/85
f 81/81/81 85/85/85 86/86/86
f 81/81/81 86/86/86 82/82/82
f 87/87/87 83/83/83 67/67/67
f 87/87/87 67/67/67 75/75/75
f 87/87/87 75/75/75 74/74/74
f 87/87/87 74/74/74 88/88/88
f 87/87/87 88/88/88 89/89/89
f 87/87/87 89/89/89 90/90/90
f 87/87/87 90/90/90 84/84/84
f 87/87/87 84/84/84 83/83/83
f 91/91/91 92/92/92 38/38/38
f 91/91/91 38/38/38 37/37/37
f 91/91/91 37/37/37 18/18/18
f 91/91/91 18/18/18 93/93/93
f 91/91/91 93/93/93 69/69/69
f 91/91/91 69/69/69 82/82/82
f 91/91/91 82/82/82 94/94/94
f 91/91/91 94/94/94 92/92/92
f 95/95/95 96/96/96 44/44/44
f 95/95/95 44/44/44 43/43/43
f 95/95/95 43/43/43 40/40/40
f 95/95/95 40/40/40 97/97/97
f 95/95/95 97/97/97 84/84/84
f 95/95/95 84/84/84 90/90/90
f 95/95/95 90/90/90 98/98/98
f 95/95/95 98/98/98 96/96/96
f 99/99/99 100/100/100 7/7/7
f 99/99/99 7/7/7 6/6/6
f 99/99/99 6/6/6 5/5/5
f 99/99/99 5/5/5 101/101/101
f 99/99/99 101/101/101 52/52/52
f 99/99/99 52/52/52 51/51/51
f 99/99/99 51/51/51 102/102/102
f 99/99/99 102/102/102 100/100/100
f 103/103/103 104/104/104 15/15/15
f 103/103/103 15/15/15 14/14/14
f 103/103/103 14/14/14 9/9/9
f 103/103/103 9/9/9 105/105/105
f 103/103/103 105/105/105 48/48/48
f 103/103/103 48/48/48 58/58/58
f 103/103/103 58/58/58 106/106/106
f 103/103/103 106/106/106 104/104/104
f 107/107/107 108/108/108 12/12/12
f 107/107/107 12/12/12 11/11/11
f 107/107/107 11/11/11 15/15/15
f 107/107/107 15/15/15 104/104/104
f 107/107/107 104/104/104 106/106/106
f 107/107/107 106/106/106 56/56/56
f 107/107/107 56/56/56 60/60/60
f 107/107/107 60/60/60 108/108/108
f 109/109/109 97/97/97 40/40/40
f 109/109/109 40/40/40 39/39/39
f 109/109/109 39/39/39 38/38/38
f 109/109/109 38/38/38 92/92/92
f 109/109/109 92/92/92 94/94/94
f 109/109/109 94/94/94 85/85/85
f 109/109/109 85/85/85 84/84/84
f 109/109/109 84/84/84 97/97/97
f 110/110/110 111/111/111 27/27/27
f 110/110/110 27/27/27 45/45/45
f 110/110/110 45/45/45 44/44/44
f 110/110/110 44/44/44 96/96/96
f 110/110/110 96/96/96 98/98/98
f 110/110/110 98/98/98 88/88/88
f 110/110/110 88/88/88 74/74/74
f 110/110/110 74/74/74 111/111/111
f 112/112/112 105/105/105 9/9/9
f 112/112/112 9/9/9 8/8/8
f 112/112/112 8/8/8 7/7/7
f 112/112/112 7/7/7 100/100/100
f 112/112/112 100/100/100 102/102/102
f 112/112/112 102/102/102 49/49/49
f 112/112/112 49/49/49 48/48/48
f 112/112/112 48/48/48 105/105/105
f 113/113/113 101/101/101 5/5/5
f 113/113/113 5/5/5 33/33/33
f 113/113/113 33/33/33 29/29/29
f 113/113/113 29/29/29 114/114/114
f 113/113/113 114/114/114 72/72/72
f 113/113/113 72/72/72 78/78/78
f 113/113/113 78/78/78 52/52/52
f 113/113/113 52/52/52 101/101/101
f 115/115/115 116/116/116 24/24/24
f 115/115/115 24/24/24 35/35/35
f 115/115/115 35/35/35 12/12/12
f 115/115/115 12/12/12 108/108/108
f 115/115/115 108/108/108 60/60/60
f 115/115/115 60/60/60 80/80/80
f 115/115/115 80/80/80 63/63/63
f 115/115/115 63/63/63 116/116/116
f 117/117/117 93/93/93 18/18/18
f 117/117/117 18/18/18 17/17/17
f 117/117/117 17/17/17 24/24/24
f 117/117/117 24/24/24 116/116/116
f 117/117/117 116/116/116 63/63/63
f 117/117/117 63/63/63 62/62/62
f 117/117/117 62/62/62 69/69/69
f 117/117/117 69/69/69 93/93/93
f 118/118/118 114/114/114 29/29/29
f 118/118/118 29/29/29 28/28/28
f 118/118/118 28/28/28 27/27/27
f 118/118/118 27/27/27 111/111/111
f 118/118/118 111/111/111 74/74/74
f 118/118/118 74/74/74 73/73/73
f 118/118/118 73/73/73 72/72/72
f 118/118/118 72/72/72 114/114/114
