v -2.42278 0.663855 -1.071419
v -2.421173 0.663768 -1.069652
v -2.419315 0.663591 -1.072228
v -2.421343 0.663642 -1.073944
v -2.422796 0.663899 -1.075381
v -2.423793 0.664139 -1.073069
v -2.424058 0.664079 -1.07135
v -2.423721 0.663889 -1.069566
v -2.422529 0.663789 -1.067753
v -2.419037 0.664349 -1.068753
v -2.417228 0.665005 -1.068393
v -2.415338 0.664883 -1.070069
v -2.417089 0.664203 -1.070914
v -2.420481 0.664316 -1.067258
v -2.418741 0.664781 -1.067563
v -2.411309 0.661916 -1.078697
v -2.4097 0.662357 -1.077681
v -2.408193 0.661007 -1.08045
v -2.409619 0.660604 -1.081342
v -2.411491 0.660195 -1.082584
v -2.413422 0.661466 -1.080108
v -2.415372 0.662512 -1.077564
v -2.413161 0.663006 -1.076093
v -2.411475 0.663503 -1.075041
v -2.415478 0.661366 -1.081666
v -2.413306 0.660118 -1.083968
v -2.414653 0.660155 -1.085052
v -2.417005 0.661394 -1.082883
v -2.419116 0.662494 -1.080483
v -2.417521 0.662431 -1.079199
v -2.419533 0.663178 -1.076582
v -2.417359 0.663196 -1.074901
v -2.421141 0.66334 -1.077917
v -2.415108 0.663762 -1.07343
v -2.413387 0.664363 -1.072394
v -2.408159 0.65918 -1.084129
v -2.407084 0.659532 -1.083485
v -2.406744 0.658572 -1.085317
v -2.407151 0.658042 -1.08626
v -2.408123 0.657756 -1.086861
v -2.409564 0.658837 -1.085039
v -2.41091 0.658817 -1.086089
v -2.409037 0.657793 -1.087603
v -2.410136 0.658124 -1.087734
v -2.411908 0.658895 -1.086921
v -2.422801 0.663606 -1.071404
v -2.421165 0.663521 -1.069618
v -2.42252 0.663604 -1.06773
v -2.423735 0.663702 -1.069559
v -2.424075 0.663941 -1.071349
v -2.423823 0.663953 -1.073068
v -2.422826 0.663713 -1.075371
v -2.421366 0.663394 -1.07392
v -2.419313 0.663344 -1.072186
v -2.419001 0.664107 -1.068698
v -2.417188 0.664828 -1.068342
v -2.418714 0.664649 -1.06753
v -2.42045 0.664136 -1.067219
v -2.417062 0.663962 -1.070854
v -2.415306 0.664706 -1.070015
v -2.411316 0.661683 -1.078605
v -2.409697 0.662184 -1.077605
v -2.411464 0.663327 -1.074973
v -2.413159 0.662769 -1.076011
v -2.41539 0.662271 -1.077495
v -2.413448 0.661229 -1.080028
v -2.411523 0.659962 -1.082496
v -2.409632 0.660374 -1.081242
v -2.408194 0.660837 -1.080369
v -2.415521 0.661128 -1.0816
v -2.417557 0.662189 -1.079145
v -2.419153 0.662313 -1.080449
v -2.417046 0.661215 -1.08284
v -2.414699 0.659978 -1.085003
v -2.413355 0.659883 -1.083894
v -2.419562 0.662933 -1.076542
v -2.417366 0.662952 -1.074846
v -2.421174 0.663156 -1.077895
v -2.415094 0.663523 -1.07336
v -2.413366 0.664187 -1.072334
v -2.408173 0.658952 -1.084026
v -2.407084 0.659363 -1.083401
v -2.409597 0.658605 -1.084949
v -2.408148 0.657582 -1.086793
v -2.407161 0.657871 -1.086181
v -2.406747 0.658446 -1.085257
v -2.410963 0.658584 -1.086013
v -2.411957 0.65872 -1.086872
v -2.41017 0.657995 -1.087695
v -2.409077 0.657618 -1.087546
v -2.406723 0.659574 -1.083232
v -2.406364 0.658299 -1.085793
v -2.407716 0.661066 -1.080115
v -2.406747 0.658446 -1.085257
v -2.408431 0.657374 -1.088082
v -2.409763 0.65785 -1.088214
v -2.407654 0.657319 -1.087438
v -2.41017 0.657995 -1.087695
v -2.424147 0.664151 -1.073621
v -2.424359 0.664106 -1.071399
v -2.423296 0.663902 -1.075857
v -2.424075 0.663941 -1.071349
v -2.420948 0.664226 -1.066743
v -2.418607 0.664865 -1.067303
v -2.422976 0.663714 -1.067111
v -2.418714 0.664649 -1.06753
v -2.416604 0.665146 -1.068249
v -2.414737 0.665031 -1.069761
v -2.40682 0.657587 -1.086935
v -2.412265 0.658843 -1.087179
v -2.415125 0.660089 -1.085393
v -2.424041 0.663817 -1.068946
v -2.421695 0.663312 -1.078354
v -2.419666 0.662435 -1.080897
v -2.412802 0.664486 -1.07202
v -2.410906 0.663591 -1.074658
v -2.409161 0.662428 -1.077307
v -2.417534 0.661323 -1.083271
vn 0.1241 0.9921 0.0173
vn -0.0649 0.9935 -0.0929
vn -0.0299 0.9895 -0.1413
vn 0.1404 0.9891 -0.0448
vn 0.1475 0.9865 -0.0705
vn 0.1179 0.993 0.0122
vn 0.0955 0.9929 0.0704
vn 0.0376 0.9969 0.0691
vn -0.1191 0.9927 -0.0167
vn -0.2266 0.9458 -0.2325
vn -0.22 0.9484 -0.2284
vn -0.1508 0.9471 -0.283
vn -0.1731 0.9477 -0.2681
vn -0.2488 0.9591 -0.1351
vn -0.2674 0.945 -0.1882
vn 0.0295 0.9162 -0.3996
vn 0.0647 0.9203 -0.3857
vn 0.0856 0.9091 -0.4077
vn 0.042 0.9026 -0.4284
vn 0.1431 0.9175 -0.3709
vn 0.1187 0.933 -0.3395
vn 0.0692 0.959 -0.2748
vn -0.0255 0.9367 -0.3491
vn 0.0068 0.9376 -0.3476
vn 0.2055 0.9394 -0.2742
vn 0.2309 0.9275 -0.2939
vn 0.1969 0.9237 -0.3284
vn 0.1809 0.9357 -0.3029
vn 0.1604 0.9579 -0.2382
vn 0.172 0.9628 -0.2084
vn 0.1475 0.9814 -0.1224
vn 0.0139 0.9795 -0.201
vn 0.1496 0.9768 -0.1534
vn -0.1015 0.9486 -0.2998
vn -0.0724 0.9475 -0.3114
vn 0.029 0.8914 -0.4523
vn 0.0781 0.8975 -0.4339
vn 0.0613 0.8842 -0.4631
vn 0.0429 0.8626 -0.5041
vn 0.1863 0.8855 -0.4256
vn 0.1545 0.9097 -0.3855
vn 0.2592 0.9218 -0.2883
vn 0.3082 0.8976 -0.3151
vn 0.2606 0.9104 -0.3213
vn 0.2258 0.917 -0.3288
vn -0.1603 -0.9869 -0.0146
vn 0.0553 -0.9928 0.1062
vn 0.018 -0.9873 0.1576
vn -0.2661 -0.9639 -0.0099
vn -0.3723 -0.9264 -0.0566
vn -0.348 -0.9361 -0.0503
vn -0.2947 -0.9555 -0.0078
vn -0.1536 -0.9874 0.037
vn 0.03 -0.9895 0.1412
vn 0.2345 -0.9348 0.2665
vn 0.3175 -0.8483 0.4237
vn 0.3293 -0.8338 0.4431
vn 0.259 -0.8946 0.3642
vn 0.1842 -0.9428 0.2776
vn 0.2646 -0.8817 0.3906
vn -0.0155 -0.9131 0.4073
vn 0.0823 -0.8856 0.457
vn 0.1224 -0.8981 0.4224
vn 0.038 -0.9333 0.3569
vn -0.0692 -0.959 0.2749
vn -0.1188 -0.933 0.3397
vn -0.1432 -0.9175 0.371
vn -0.0246 -0.8997 0.4357
vn 0.1013 -0.8766 0.4705
vn -0.2177 -0.9398 0.2633
vn -0.1837 -0.9626 0.199
vn -0.2774 -0.9508 0.1377
vn -0.2993 -0.936 0.1852
vn -0.3194 -0.9321 0.1709
vn -0.2438 -0.9286 0.2796
vn -0.1592 -0.9807 0.1137
vn -0.0139 -0.9795 0.201
vn -0.2713 -0.9605 0.0619
vn 0.1131 -0.9447 0.3077
vn 0.1929 -0.8992 0.3926
vn 0.0035 -0.8926 0.4508
vn 0.1658 -0.8675 0.4688
vn -0.1476 -0.9145 0.3766
vn -0.117 -0.9341 0.3373
vn 0.1043 -0.8951 0.4334
vn 0.2074 -0.8622 0.4621
vn -0.2678 -0.9284 0.2576
vn -0.3396 -0.9342 0.1089
vn -0.3472 -0.9354 0.0672
vn -0.2825 -0.9462 0.1579
vn 0.9736 0.1419 0.1786
vn 0.9768 0.0103 -0.2137
vn 0.9303 0.1671 0.3265
vn 0.2074 -0.8622 0.4621
vn 0.366 -0.3663 -0.8555
vn -0.1073 -0.1325 -0.9854
vn 0.5469 -0.4943 -0.6756
vn -0.3472 -0.9354 0.0672
vn -0.9201 0.2534 -0.2985
vn -0.9657 0.2586 0.0214
vn -0.8506 0.1937 -0.4888
vn -0.3723 -0.9264 -0.0566
vn -0.1125 0.1711 0.9788
vn 0.2363 0.4173 0.8775
vn -0.5771 -0.031 0.8161
vn 0.3293 -0.8338 0.4431
vn 0.5219 0.4437 0.7285
vn 0.6883 0.3968 0.6073
vn 0.7487 -0.3156 -0.5829
vn -0.4949 -0.0519 -0.8674
vn -0.6239 -0.0381 -0.7806
vn -0.909 0.0659 0.4115
vn -0.7891 0.1213 -0.6021
vn -0.7513 0.0648 -0.6568
vn 0.7874 0.3294 0.521
vn 0.8365 0.2744 0.4743
vn 0.8785 0.2177 0.4252
vn -0.7085 0.0081 -0.7056
vt 0.839504 0.118056
vt 0.856743 0.205307
vt 0.741230 0.205307
vt 0.734555 0.106726
vt 0.724541 0.032791
vt 0.813647 0.052618
vt 0.868992 0.081539
vt 0.913398 0.129584
vt 0.940923 0.205307
vt 0.839504 0.292557
vt 0.813647 0.357995
vt 0.724541 0.377822
vt 0.734555 0.303887
vt 0.913398 0.281029
vt 0.868992 0.329074
vt 0.369475 0.299954
vt 0.368286 0.370940
vt 0.245840 0.351447
vt 0.246397 0.288815
vt 0.246768 0.205307
vt 0.370268 0.205307
vt 0.494283 0.205307
vt 0.492822 0.304944
vt 0.490632 0.379672
vt 0.369475 0.110659
vt 0.246397 0.121798
vt 0.245841 0.059166
vt 0.368286 0.039673
vt 0.490632 0.030941
vt 0.492822 0.105669
vt 0.616755 0.103478
vt 0.619174 0.205307
vt 0.613127 0.027106
vt 0.616755 0.307135
vt 0.613126 0.383507
vt 0.123273 0.268175
vt 0.123047 0.315326
vt 0.054743 0.283353
vt 0.030912 0.249131
vt 0.030973 0.205306
vt 0.123423 0.205306
vt 0.123273 0.142438
vt 0.030912 0.161481
vt 0.054744 0.127260
vt 0.123047 0.095287
vt 0.839504 0.118056
vt 0.856743 0.205307
vt 0.968983 0.205307
vt 0.938030 0.133427
vt 0.876123 0.061548
vt 0.805028 0.030806
vt 0.721203 0.008146
vt 0.734555 0.106726
vt 0.741230 0.205307
vt 0.839504 0.292557
vt 0.805028 0.379807
vt 0.876123 0.349065
vt 0.938030 0.277186
vt 0.734555 0.303887
vt 0.721203 0.402467
vt 0.369475 0.299954
vt 0.367890 0.394602
vt 0.489902 0.404581
vt 0.492822 0.304944
vt 0.494283 0.205307
vt 0.370268 0.205307
vt 0.246768 0.205307
vt 0.246397 0.288815
vt 0.245655 0.372324
vt 0.369475 0.110659
vt 0.492822 0.105669
vt 0.489902 0.006032
vt 0.367890 0.016011
vt 0.245655 0.038289
vt 0.246397 0.121798
vt 0.616755 0.103478
vt 0.619174 0.205307
vt 0.611917 0.001649
vt 0.616755 0.307135
vt 0.611917 0.408964
vt 0.123273 0.268175
vt 0.122972 0.331043
vt 0.123423 0.205306
vt 0.000156 0.205306
vt 0.000125 0.242784
vt 0.000064 0.280261
vt 0.123273 0.142438
vt 0.122972 0.079570
vt 0.000064 0.130352
vt 0.000125 0.167829
vt 0.122972 0.331043
vt 0.030806 0.283587
vt 0.245655 0.372324
vt 0.030806 0.283587
vt 0.000125 0.167829
vt 0.030806 0.127026
vt 0.000156 0.205306
vt 0.030806 0.127026
vt 0.805028 0.030806
vt 0.873826 0.071832
vt 0.721203 0.008146
vt 0.873826 0.071832
vt 0.938030 0.277186
vt 0.873826 0.338781
vt 0.968983 0.205307
vt 0.873826 0.338781
vt 0.805028 0.379807
vt 0.721203 0.402467
vt 0.000125 0.242784
vt 0.122972 0.079570
vt 0.245655 0.038289
vt 0.938030 0.133427
vt 0.611917 0.001649
vt 0.489902 0.006032
vt 0.611917 0.408964
vt 0.489902 0.404581
vt 0.367890 0.394602
vt 0.367890 0.016011
f 1/1/1 2/2/2 3/3/3
f 1/1/1 3/3/3 4/4/4
f 1/1/1 4/4/4 5/5/5
f 1/1/1 5/5/5 6/6/6
f 1/1/1 6/6/6 7/7/7
f 1/1/1 7/7/7 8/8/8
f 1/1/1 8/8/8 9/9/9
f 1/1/1 9/9/9 2/2/2
f 10/10/10 11/11/11 12/12/12
f 10/10/10 12/12/12 13/13/13
f 10/10/10 13/13/13 3/3/3
f 10/10/10 3/3/3 2/2/2
f 10/10/10 2/2/2 9/9/9
f 10/10/10 9/9/9 14/14/14
f 10/10/10 14/14/14 15/15/15
f 10/10/10 15/15/15 11/11/11
f 16/16/16 17/17/17 18/18/18
f 16/16/16 18/18/18 19/19/19
f 16/16/16 19/19/19 20/20/20
f 16/16/16 20/20/20 21/21/21
f 16/16/16 21/21/21 22/22/22
f 16/16/16 22/22/22 23/23/23
f 16/16/16 23/23/23 24/24/24
f 16/16/16 24/24/24 17/17/17
f 25/25/25 21/21/21 20/20/20
f 25/25/25 20/20/20 26/26/26
f 25/25/25 26/26/26 27/27/27
f 25/25/25 27/27/27 28/28/28
f 25/25/25 28/28/28 29/29/29
f 25/25/25 29/29/29 30/30/30
f 25/25/25 30/30/30 22/22/22
f 25/25/25 22/22/22 21/21/21
f 31/31/31 32/32/32 22/22/22
f 31/31/31 22/22/22 30/30/30
f 31/31/31 30/30/30 29/29/29
f 31/31/31 29/29/29 33/33/33
f 31/31/31 33/33/33 5/5/5
f 31/31/31 5/5/5 4/4/4
f 31/31/31 4/4/4 3/3/3
f 31/31/31 3/3/3 32/32/32
f 34/34/34 35/35/35 24/24/24
f 34/34/34 24/24/24 23/23/23
f 34/34/34 23/23/23 22/22/22
f 34/34/34 22/22/22 32/32/32
f 34/34/34 32/32/32 3/3/3
f 34/34/34 3/3/3 13/13/13
f 34/34/34 13/13/13 12/12/12
f 34/34/34 12/12/12 35/35/35
f 36/36/36 37/37/37 38/38/38
f 36/36/36 38/38/38 39/39/39
f 36/36/36 39/39/39 40/40/40
f 36/36/36 40/40/40 41/41/41
f 36/36/36 41/41/41 20/20/20
f 36/36/36 20/20/20 19/19/19
f 36/36/36 19/19/19 18/18/18
f 36/36/36 18/18/18 37/37/37
f 42/42/42 41/41/41 40/40/40
f 42/42/42 40/40/40 43/43/43
f 42/42/42 43/43/43 44/44/44
f 42/42/42 44/44/44 45/45/45
f 42/42/42 45/45/45 27/27/27
f 42/42/42 27/27/27 26/26/26
f 42/42/42 26/26/26 20/20/20
f 42/42/42 20/20/20 41/41/41
f 46/46/46 47/47/47 48/48/48
f 46/46/46 48/48/48 49/49/49
f 46/46/46 49/49/49 50/50/50
f 46/46/46 50/50/50 51/51/51
f 46/46/46 51/51/51 52/52/52
f 46/46/46 52/52/52 53/53/53
f 46/46/46 53/53/53 54/54/54
f 46/46/46 54/54/54 47/47/47
f 55/55/55 56/56/56 57/57/57
f 55/55/55 57/57/57 58/58/58
f 55/55/55 58/58/58 48/48/48
f 55/55/55 48/48/48 47/47/47
f 55/55/55 47/47/47 54/54/54
f 55/55/55 54/54/54 59/59/59
f 55/55/55 59/59/59 60/60/60
f 55/55/55 60/60/60 56/56/56
f 61/61/61 62/62/62 63/63/63
f 61/61/61 63/63/63 64/64/64
f 61/61/61 64/64/64 65/65/65
f 61/61/61 65/65/65 66/66/66
f 61/61/61 66/66/66 67/67/67
f 61/61/61 67/67/67 68/68/68
f 61/61/61 68/68/68 69/69/69
f 61/61/61 69/69/69 62/62/62
f 70/70/70 66/66/66 65/65/65
f 70/70/70 65/65/65 71/71/71
f 70/70/70 71/71/71 72/72/72
f 70/70/70 72/72/72 73/73/73
f 70/70/70 73/73/73 74/74/74
f 70/70/70 74/74/74 75/75/75
f 70/70/70 75/75/75 67/67/67
f 70/70/70 67/67/67 66/66/66
f 76/76/76 77/77/77 54/54/54
f 76/76/76 54/54/54 53/53/53
f 76/76/76 53/53/53 52/52/52
f 76/76/76 52/52/52 78/78/78
f 76/76/76 78/78/78 72/72/72
f 76/76/76 72/72/72 71/71/71
f 76/76/76 71/71/71 65/65/65
f 76/76/76 65/65/65 77/77/77
f 79/79/79 80/80/80 60/60/60
f 79/79/79 60/60/60 59/59/59
f 79/79/79 59/59/59 54/54/54
f 79/79/79 54/54/54 77/77/77
f 79/79/79 77/77/77 65/65/65
f 79/79/79 65/65/65 64/64/64
f 79/79/79 64/64/64 63/63/63
f 79/79/79 63/63/63 80/80/80
f 81/81/81 82/82/82 69/69/69
f 81/81/81 69/69/69 68/68/68
f 81/81/81 68/68/68 67/67/67
f 81/81/81 67/67/67 83/83/83
f 81/81/81 83/83/83 84/84/84
f 81/81/81 84/84/84 85/85/85
f 81/81/81 85/85/85 86/86/86
f 81/81/81 86/86/86 82/82/82
f 87/87/87 83/83/83 67/67/67
f 87/87/87 67/67/67 75/75/75
f 87/87/87 75/75/75 74/74/74
f 87/87/87 74/74/74 88/88/88
f 87/87/87 88/88/88 89/89/89
f 87/87/87 89/89/89 90/90/90
f 87/87/87 90/90/90 84/84/84
f 87/87/87 84/84/84 83/83/83
f 91/91/91 92/92/92 38/38/38
f 91/91/91 38/38/38 37/37/37
f 91/91/91 37/37/37 18/18/18
f 91/91/91 18/18/18 93/93/93
f 91/91/91 93/93/93 69/69/69
f 91/91/91 69/69/69 82/82/82
f 91/91/91 82/82/82 94/94/94
f 91/91/91 94/94/94 92/92/92
f 95/95/95 96/96/96 44/44/44
f 95/95/95 44/44/44 43/43/43
f 95/95/95 43/43/43 40/40/40
f 95/95/95 40/40/40 97/97/97
f 95/95/95 97/97/97 84/84/84
f 95/95/95 84/84/84 90/90/90
f 95/95/95 90/90/90 98/98/98
f 95/95/95 98/98/98 96/96/96
f 99/99/99 100/100/100 7/7/7
f 99/99/99 7/7/7 6/6/6
f 99/99/99 6/6/6 5/5/5
f 99/99/99 5/5/5 101/101/101
f 99/99/99 101/101/101 52/52/52
f 99/99/99 52/52/52 51/51/51
f 99/99/99 51/51/51 102/102/102
f 99/99/99 102/102/102 100/100/100
f 103/103/103 104/104/104 15/15/15
f 103/103/103 15/15/15 14/14/14
f 103/103/103 14/14/14 9/9/9
f 103/103/103 9/9/9 105/105/105
f 103/103/103 105/105/105 48/48/48
f 103/103/103 48/48/48 58/58/58
f 103/103/103 58/58/58 106/106/106
f 103/103/103 106/106/106 104/104/104
f 107/107/107 108/108/108 12/12/12
f 107/107/107 12/12/12 11/11/11
f 107/107/107 11/11/11 15/15/15
f 107/107/107 15/15/15 104/104/104
f 107/107/107 104/104/104 106/106/106
f 107/107/107 106/106/106 56/56/56
f 107/107/107 56/56/56 60/60/60
f 107/107/107 60/60/60 108/108/108
f 109/109/109 97/97/97 40/40/40
f 109/109/109 40/40/40 39/39/39
f 109/109/109 39/39/39 38/38/38
f 109/109/109 38/38/38 92/92/92
f 109/109/109 92/92/92 94/94/94
f 109/109/109 94/94/94 85/85/85
f 109/109/109 85/85/85 84/84/84
f 109/109/109 84/84/84 97/97/97
f 110/110/110 111/111/111 27/27/27
f 110/110/110 27/27/27 45/45/45
f 110/110/110 45/45/45 44/44/44
f 110/110/110 44/44/44 96/96/96
f 110/110/110 96/96/96 98/98/98
f 110/110/110 98/98/98 88/88/88
f 110/110/110 88/88/88 74/74/74
f 110/110/110 74/74/74 111/111/111
f 112/112/112 105/105/105 9/9/9
f 112/112/112 9/9/9 8/8/8
f 112/112/112 8/8/8 7/7/7
f 112/112/112 7/7/7 100/100/100
f 112/112/112 100/100/100 102/102/102
f 112/112/112 102/102/102 49/49/49
f 112/112/112 49/49/49 48/48/48
f 112/112/112 48/48/48 105/105/105
f 113/113/113 101/101/101 5/5/5
f 113/113/113 5/5/5 33/33/33
f 113/113/113 33/33/33 29/29/29
f 113/113/113 29/29/29 114/114/114
f 113/113/113 114/114/114 72/72/72
f 113/113/113 72/72/72 78/78/78
f 113/113/113 78/78/78 52/52/52
f 113/113/113 52/52/52 101/101/101
f 115/115/115 116/116/116 24/24/24
f 115/115/115 24/24/24 35/35/35
f 115/115/115 35/35/35 12/12/12
f 115/115/115 12/12/12 108/108/108
f 115/115/115 108/108/108 60/60/60
f 115/115/115 60/60/60 80/80/80
f 115/115/115 80/80/80 63/63/63
f 115/115/115 63/63/63 116/116/116
f 117/117/117 93/93/93 18/18/18
f 117/117/117 18/18/18 17/17/17
f 117/117/117 17/17/17 24/24/24
f 117/117/117 24/24/24 116/116/116
f 117/117/117 116/116/116 63/63/63
f 117/117/117 63/63/63 62/62/62
f 117/117/117 62/62/62 69/69/69
f 117/117/117 69/69/69 93/93/93
f 118/118/118 114/114/114 29/29/29
f 118/118/118 29/29/29 28/28/28
f 118/118/118 28/28/28 27/27/27
f 118/118/118 27/27/27 111/111/111
f 118/118/118 111/111/111 74/74/74
f 118/118/118 74/74/74 73/73/73
f 118/118/118 73/73/73 72/72/72
f 118/118/118 72/72/72 114/114/114
