v -2.383472 0.789822 -1.234675
v -2.384288 0.789643 -1.236845
v -2.386608 0.788426 -1.235196
v -2.385403 0.788704 -1.232926
v -2.384677 0.78906 -1.231092
v -2.383198 0.790034 -1.232802
v -2.382428 0.790406 -1.234264
v -2.382112 0.790499 -1.23601
v -2.382553 0.790436 -1.238076
v -2.386049 0.789741 -1.23836
v -2.387718 0.789892 -1.239265
v -2.389811 0.788899 -1.238434
v -2.388332 0.788612 -1.237114
v -2.384343 0.790429 -1.2392
v -2.386089 0.790291 -1.239498
v -2.39489 0.783299 -1.232349
v -2.396114 0.783445 -1.233795
v -2.397793 0.781225 -1.231953
v -2.3967 0.781086 -1.23068
v -2.395329 0.780998 -1.228935
v -2.393348 0.783208 -1.230368
v -2.391253 0.785233 -1.231878
v -2.392876 0.785347 -1.233942
v -2.394175 0.78553 -1.235444
v -2.39202 0.783388 -1.228244
v -2.394162 0.781166 -1.227051
v -2.393345 0.781364 -1.225593
v -2.391085 0.783603 -1.226604
v -2.388914 0.785694 -1.227921
v -2.389874 0.785441 -1.229649
v -2.387603 0.787228 -1.23123
v -2.388968 0.786964 -1.233513
v -2.38668 0.787564 -1.229441
v -2.390649 0.787133 -1.235586
v -2.392019 0.787396 -1.237075
v -2.398319 0.778809 -1.228813
v -2.399168 0.778951 -1.229742
v -2.399691 0.77761 -1.228297
v -2.399446 0.777054 -1.227351
v -2.398697 0.77695 -1.226491
v -2.397271 0.778714 -1.227526
v -2.396425 0.778868 -1.226104
v -2.398149 0.777094 -1.225495
v -2.397355 0.777683 -1.224958
v -2.395846 0.779055 -1.224993
v -2.383366 0.789605 -1.234703
v -2.384201 0.789423 -1.236901
v -2.38249 0.79027 -1.238116
v -2.382034 0.790336 -1.236027
v -2.382366 0.790286 -1.234272
v -2.38311 0.789874 -1.232809
v -2.384585 0.788903 -1.231107
v -2.385291 0.788491 -1.232962
v -2.386514 0.78821 -1.235257
v -2.385982 0.789523 -1.238444
v -2.387678 0.789731 -1.239341
v -2.386058 0.79017 -1.23955
v -2.384296 0.790265 -1.239262
v -2.388255 0.788398 -1.2372
v -2.389763 0.788741 -1.238511
v -2.394776 0.783108 -1.23245
v -2.396035 0.783302 -1.23388
v -2.394104 0.785381 -1.235525
v -2.392773 0.785148 -1.234038
v -2.391135 0.785033 -1.231955
v -2.393221 0.783016 -1.230453
v -2.395196 0.780813 -1.229023
v -2.396581 0.780901 -1.230787
v -2.39771 0.781087 -1.232042
v -2.391881 0.783198 -1.228311
v -2.389744 0.785243 -1.229708
v -2.38881 0.785547 -1.227955
v -2.390975 0.783461 -1.226644
v -2.393231 0.781227 -1.225636
v -2.394017 0.780982 -1.227121
v -2.387482 0.787022 -1.231277
v -2.388863 0.786756 -1.233583
v -2.386583 0.787411 -1.229466
v -2.390559 0.786926 -1.235677
v -2.391959 0.787242 -1.237154
v -2.398198 0.778627 -1.228922
v -2.399084 0.778815 -1.229833
v -2.397136 0.778531 -1.227617
v -2.398595 0.776813 -1.226559
v -2.399356 0.776918 -1.227434
v -2.399627 0.777509 -1.228362
v -2.396277 0.778687 -1.226175
v -2.39573 0.77892 -1.225036
v -2.39727 0.777583 -1.224992
v -2.398037 0.776959 -1.225547
v -2.399415 0.778938 -1.230095
v -2.400069 0.777156 -1.228028
v -2.398122 0.78121 -1.232419
v -2.399627 0.777509 -1.228362
v -2.398673 0.776443 -1.225315
v -2.397729 0.77723 -1.224682
v -2.399127 0.776301 -1.226176
v -2.39727 0.777583 -1.224992
v -2.383065 0.790034 -1.232178
v -2.382194 0.790506 -1.234111
v -2.384392 0.78911 -1.230485
v -2.382366 0.790286 -1.234272
v -2.383754 0.790585 -1.239507
v -2.386154 0.790382 -1.239774
v -2.381947 0.790627 -1.238503
v -2.386058 0.79017 -1.23955
v -2.388259 0.789871 -1.239604
v -2.390285 0.788925 -1.238911
v -2.399782 0.776408 -1.226901
v -2.3956 0.779057 -1.224639
v -2.393021 0.78137 -1.225124
v -2.381624 0.790652 -1.236462
v -2.386328 0.787608 -1.228853
v -2.388546 0.785713 -1.227358
v -2.39245 0.787416 -1.237609
v -2.394578 0.785524 -1.235982
v -2.396489 0.783431 -1.234317
v -2.390723 0.783611 -1.226073
vn -0.4502 0.8924 0.031
vn -0.318 0.9263 0.2021
vn -0.3627 0.9021 0.2338
vn -0.483 0.8717 0.0824
vn -0.4963 0.8619 0.1035
vn -0.4465 0.8939 0.0381
vn -0.4087 0.9126 -0.0077
vn -0.3594 0.9331 0.015
vn -0.2461 0.9574 0.1511
vn -0.2021 0.9001 0.3858
vn -0.2075 0.9014 0.38
vn -0.2853 0.8685 0.4053
vn -0.2611 0.8787 0.3996
vn -0.1567 0.9395 0.3047
vn -0.1519 0.9207 0.3595
vn -0.4703 0.7622 0.4448
vn -0.4984 0.7586 0.4195
vn -0.5199 0.7373 0.4313
vn -0.4855 0.7399 0.4657
vn -0.5622 0.7361 0.377
vn -0.5362 0.7642 0.3583
vn -0.4812 0.8166 0.3186
vn -0.413 0.8081 0.42
vn -0.4414 0.7997 0.4069
vn -0.5948 0.7583 0.2667
vn -0.6192 0.7357 0.2745
vn -0.5987 0.7349 0.3186
vn -0.5806 0.7561 0.3019
vn -0.55 0.7963 0.2515
vn -0.5528 0.8037 0.2201
vn -0.5108 0.8463 0.151
vn -0.4165 0.8674 0.2723
vn -0.5206 0.8349 0.1785
vn -0.3346 0.8518 0.4029
vn -0.3635 0.8398 0.4031
vn -0.4776 0.7283 0.4914
vn -0.5173 0.7233 0.4573
vn -0.507 0.7097 0.4892
vn -0.496 0.6864 0.5318
vn -0.6063 0.682 0.409
vn -0.574 0.7223 0.3856
vn -0.6404 0.7231 0.2586
vn -0.6837 0.6805 0.2633
vn -0.6481 0.7051 0.2876
vn -0.622 0.72 0.3078
vn 0.4812 -0.8763 -0.0198
vn 0.3305 -0.9199 -0.2109
vn 0.3775 -0.8931 -0.2444
vn 0.5681 -0.8227 0.0163
vn 0.6343 -0.7663 0.1018
vn 0.6183 -0.7812 0.0862
vn 0.5913 -0.806 0.0256
vn 0.4916 -0.868 -0.0703
vn 0.3626 -0.9021 -0.2338
vn 0.2019 -0.8851 -0.4193
vn 0.1473 -0.7959 -0.5872
vn 0.138 -0.7819 -0.608
vn 0.1966 -0.8344 -0.5148
vn 0.2526 -0.8755 -0.412
vn 0.1955 -0.8184 -0.5403
vn 0.4592 -0.7619 -0.4568
vn 0.3787 -0.7546 -0.5358
vn 0.3368 -0.7852 -0.5195
vn 0.4033 -0.807 -0.4314
vn 0.4814 -0.8165 -0.3187
vn 0.5363 -0.7641 -0.3583
vn 0.5622 -0.736 -0.3771
vn 0.4714 -0.7407 -0.4786
vn 0.3629 -0.7489 -0.5545
vn 0.6023 -0.7574 -0.2522
vn 0.5601 -0.8021 -0.2071
vn 0.6196 -0.7764 -0.1151
vn 0.6487 -0.7461 -0.1498
vn 0.6607 -0.7395 -0.1287
vn 0.6265 -0.7358 -0.2568
vn 0.5182 -0.8439 -0.1386
vn 0.4165 -0.8674 -0.2723
vn 0.594 -0.803 -0.048
vn 0.3255 -0.85 -0.4142
vn 0.2656 -0.8133 -0.5177
vn 0.4488 -0.7392 -0.5021
vn 0.3022 -0.7599 -0.5755
vn 0.5669 -0.7307 -0.3804
vn 0.5343 -0.7662 -0.3569
vn 0.3551 -0.7748 -0.5229
vn 0.2615 -0.7685 -0.5839
vn 0.6408 -0.7332 -0.2276
vn 0.6599 -0.7486 -0.0641
vn 0.654 -0.7561 -0.0228
vn 0.629 -0.7662 -0.1314
vn -0.8544 -0.1169 -0.5063
vn -0.9336 -0.3222 -0.1568
vn -0.7787 -0.0497 -0.6253
vn 0.2615 -0.7685 -0.5839
vn -0.4626 -0.6281 0.6256
vn -0.1664 -0.298 0.9399
vn -0.5217 -0.7631 0.3815
vn 0.654 -0.7561 -0.0228
vn 0.632 0.4447 0.6347
vn 0.77 0.5297 0.3556
vn 0.5319 0.3287 0.7804
vn 0.6343 -0.7663 0.1018
vn 0.3452 0.3972 -0.8503
vn -0.0805 0.5031 -0.8605
vn 0.7757 0.3114 -0.5489
vn 0.138 -0.7819 -0.608
vn -0.3887 0.4126 -0.8238
vn -0.5572 0.2945 -0.7763
vn -0.7333 -0.6366 0.2387
vn 0.1846 -0.0844 0.9792
vn 0.321 -0.0151 0.9469
vn 0.9088 0.4149 -0.0444
vn 0.467 0.2192 0.8566
vn 0.4364 0.144 0.8881
vn -0.6481 0.1847 -0.7388
vn -0.6866 0.1093 -0.7187
vn -0.7198 0.0333 -0.6933
vn 0.4033 0.0685 0.9125
vt 0.839504 0.118056
vt 0.856743 0.205307
vt 0.741230 0.205307
vt 0.734555 0.106726
vt 0.724541 0.032791
vt 0.813647 0.052618
vt 0.868992 0.081539
vt 0.913398 0.129584
vt 0.940923 0.205307
vt 0.839504 0.292557
vt 0.813647 0.357995
vt 0.724541 0.377822
vt 0.734555 0.303887
vt 0.913398 0.281029
vt 0.868992 0.329074
vt 0.369475 0.299954
vt 0.368286 0.370940
vt 0.245840 0.351447
vt 0.246397 0.288815
vt 0.246768 0.205307
vt 0.370268 0.205307
vt 0.494283 0.205307
vt 0.492822 0.304944
vt 0.490632 0.379672
vt 0.369475 0.110659
vt 0.246397 0.121798
vt 0.245841 0.059166
vt 0.368286 0.039673
vt 0.490632 0.030941
vt 0.492822 0.105669
vt 0.616755 0.103478
vt 0.619174 0.205307
vt 0.613127 0.027106
vt 0.616755 0.307135
vt 0.613126 0.383507
vt 0.123273 0.268175
vt 0.123047 0.315326
vt 0.054743 0.283353
vt 0.030912 0.249131
vt 0.030973 0.205306
vt 0.123423 0.205306
vt 0.123273 0.142438
vt 0.030912 0.161481
vt 0.054744 0.127260
vt 0.123047 0.095287
vt 0.839504 0.118056
vt 0.856743 0.205307
vt 0.968983 0.205307
vt 0.938030 0.133427
vt 0.876123 0.061548
vt 0.805028 0.030806
vt 0.721203 0.008146
vt 0.734555 0.106726
vt 0.741230 0.205307
vt 0.839504 0.292557
vt 0.805028 0.379807
vt 0.876123 0.349065
vt 0.938030 0.277186
vt 0.734555 0.303887
vt 0.721203 0.402467
vt 0.369475 0.299954
vt 0.367890 0.394602
vt 0.489902 0.404581
vt 0.492822 0.304944
vt 0.494283 0.205307
vt 0.370268 0.205307
vt 0.246768 0.205307
vt 0.246397 0.288815
vt 0.245655 0.372324
vt 0.369475 0.110659
vt 0.492822 0.105669
vt 0.489902 0.006032
vt 0.367890 0.016011
vt 0.245655 0.038289
vt 0.246397 0.121798
vt 0.616755 0.103478
vt 0.619174 0.205307
vt 0.611917 0.001649
vt 0.616755 0.307135
vt 0.611917 0.408964
vt 0.123273 0.268175
vt 0.122972 0.331043
vt 0.123423 0.205306
vt 0.000156 0.205306
vt 0.000125 0.242784
vt 0.000064 0.280261
vt 0.123273 0.142438
vt 0.122972 0.079570
vt 0.000064 0.130352
vt 0.000125 0.167829
vt 0.122972 0.331043
vt 0.030806 0.283587
vt 0.245655 0.372324
vt 0.030806 0.283587
vt 0.000125 0.167829
vt 0.030806 0.127026
vt 0.000156 0.205306
vt 0.030806 0.127026
vt 0.805028 0.030806
vt 0.873826 0.071832
vt 0.721203 0.008146
vt 0.873826 0.071832
vt 0.938030 0.277186
vt 0.873826 0.338781
vt 0.968983 0.205307
vt 0.873826 0.338781
vt 0.805028 0.379807
vt 0.721203 0.402467
vt 0.000125 0.242784
vt 0.122972 0.079570
vt 0.245655 0.038289
vt 0.938030 0.133427
vt 0.611917 0.001649
vt 0.489902 0.006032
vt 0.611917 0.408964
vt 0.489902 0.404581
vt 0.367890 0.394602
vt 0.367890 0.016011
f 1/1/1 2/2/2 3/3/3
f 1/1/1 3/3/3 4/4/4
f 1/1/1 4/4/4 5/5/5
f 1/1/1 5/5/5 6/6/6
f 1/1/1 6/6/6 7/7/7
f 1/1/1 7/7/7 8/8/8
f 1/1/1 8/8/8 9/9/9
f 1/1/1 9/9/9 2/2/2
f 10/10/10 11/11/11 12/12/12
f 10/10/10 12/12/12 13/13/13
f 10/10/10 13/13/13 3/3/3
f 10/10/10 3/3/3 2/2/2
f 10/10/10 2/2/2 9/9/9
f 10/10/10 9/9/9 14/14/14
f 10/10/10 14/14/14 15/15/15
f 10/10/10 15/15/15 11/11/11
f 16/16/16 17/17/17 18/18/18
f 16/16/16 18/18/18 19/19/19
f 16/16/16 19/19/19 20/20/20
f 16/16/16 20/20/20 21/21/21
f 16/16/16 21/21/21 22/22/22
f 16/16/16 22/22/22 23/23/23
f 16/16/16 23/23/23 24/24/24
f 16/16/16 24/24/24 17/17/17
f 25/25/25 21/21/21 20/20/20
f 25/25/25 20/20/20 26/26/26
f 25/25/25 26/26/26 27/27/27
f 25/25/25 27/27/27 28/28/28
f 25/25/25 28/28/28 29/29/29
f 25/25/25 29/29/29 30/30/30
f 25/25/25 30/30/30 22/22/22
f 25/25/25 22/22/22 21/21/21
f 31/31/31 32/32/32 22/22/22
f 31/31/31 22/22/22 30/30/30
f 31/31/31 30/30/30 29/29/29
f 31/31/31 29/29/29 33/33/33
f 31/31/31 33/33/33 5/5/5
f 31/31/31 5/5/5 4/4/4
f 31/31/31 4/4/4 3/3/3
f 31/31/31 3/3/3 32/32/32
f 34/34/34 35/35/35 24/24/24
f 34/34/34 24/24/24 23/23/23
f 34/34/34 23/23/23 22/22/22
f 34/34/34 22/22/22 32/32/32
f 34/34/34 32/32/32 3/3/3
f 34/34/34 3/3/3 13/13/13
f 34/34/34 13/13/13 12/12/12
f 34/34/34 12/12/12 35/35/35
f 36/36/36 37/37/37 38/38/38
f 36/36/36 38/38/38 39/39/39
f 36/36/36 39/39/39 40/40/40
f 36/36/36 40/40/40 41/41/41
f 36/36/36 41/41/41 20/20/20
f 36/36/36 20/20/20 19/19/19
f 36/36/36 19/19/19 18/18/18
f 36/36/36 18/18/18 37/37/37
f 42/42/42 41/41/41 40/40/40
f 42/42/42 40/40/40 43/43/43
f 42/42/42 43/43/43 44/44/44
f 42/42/42 44/44/44 45/45/45
f 42/42/42 45/45/45 27/27/27
f 42/42/42 27/27/27 26/26/26
f 42/42/42 26/26/26 20/20/20
f 42/42/42 20/20/20 41/41/41
f 46/46/46 47/47/47 48/48/48
f 46/46/46 48/48/48 49/49/49
f 46/46/46 49/49/49 50/50/50
f 46/46/46 50/50/50 51/51/51
f 46/46/46 51/51/51 52/52/52
f 46/46/46 52/52/52 53/53/53
f 46/46/46 53/53/53 54/54/54
f 46/46/46 54/54/54 47/47/47
f 55/55/55 56/56/56 57/57/57
f 55/55/55 57/57/57 58/58/58
f 55/55/55 58/58/58 48/48/48
f 55/55/55 48/48/48 47/47/47
f 55/55/55 47/47/47 54/54/54
f 55/55/55 54/54/54 59/59/59
f 55/55/55 59/59/59 60/60/60
f 55/55/55 60/60/60 56/56/56
f 61/61/61 62/62/62 63/63/63
f 61/61/61 63/63/63 64/64/64
f 61/61/61 64/64/64 65/65/65
f 61/61/61 65/65/65 66/66/66
f 61/61/61 66/66/66 67/67/67
f 61/61/61 67/67/67 68/68/68
f 61/61/61 68/68/68 69/69/69
f 61/61/61 69/69/69 62/62/62
f 70/70/70 66/66/66 65/65/65
f 70/70/70 65/65/65 71/71/71
f 70/70/70 71/71/71 72/72/72
f 70/70/70 72/72/72 73/73/73
f 70/70/70 73/73/73 74/74/74
f 70/70/70 74/74/74 75/75/75
f 70/70/70 75/75/75 67/67/67
f 70/70/70 67/67/67 66/66/66
f 76/76/76 77/77/77 54/54/54
f 76/76/76 54/54/54 53/53/53
f 76/76/76 53/53/53 52/52/52
f 76/76/76 52/52/52 78/78/78
f 76/76/76 78/78/78 72/72/72
f 76/76/76 72/72/72 71/71/71
f 76/76/76 71/71/71 65/65/65
f 76/76/76 65/65/65 77/77/77
f 79/79/79 80/80/80 60/60/60
f 79/79/79 60/60/60 59/59/59
f 79/79/79 59/59/59 54/54/54
f 79/79/79 54/54/54 77/77/77
f 79/79/79 77/77/77 65/65/65
f 79/79/79 65/65/65 64/64/64
f 79/79/79 64/64/64 63/63/63
f 79/79/79 63/63/63 80/80/80
f 81/81/81 82/82/82 69/69/69
f 81/81/81 69/69/69 68/68/68
f 81/81/81 68/68/68 67/67/67
f 81/81/81 67/67/67 83/83/83
f 81/81/81 83/83/83 84/84/84
f 81/81/81 84/84/84 85/85/85
f 81/81/81 85/85/85 86/86/86
f 81/81/81 86/86/86 82/82/82
f 87/87/87 83/83/83 67/67/67
f 87/87/87 67/67/67 75/75/75
f 87/87/87 75/75/75 74/74/74
f 87/87/87 74/74/74 88/88/88
f 87/87/87 88/88/88 89/89/89
f 87/87/87 89/89/89 90/90/90
f 87/87/87 90/90/90 84/84/84
f 87/87/87 84/84/84 83/83/83
f 91/91/91 92/92/92 38/38/38
f 91/91/91 38/38/38 37/37/37
f 91/91/91 37/37/37 18/18/18
f 91/91/91 18/18/18 93/93/93
f 91/91/91 93/93/93 69/69/69
f 91/91/91 69/69/69 82/82/82
f 91/91/91 82/82/82 94/94/94
f 91/91/91 94/94/94 92/92/92
f 95/95/95 96/96/96 44/44/44
f 95/95/95 44/44/44 43/43/43
f 95/95/95 43/43/43 40/40/40
f 95/95/95 40/40/40 97/97/97
f 95/95/95 97/97/97 84/84/84
f 95/95/95 84/84/84 90/90/90
f 95/95/95 90/90/90 98/98/98
f 95/95/95 98/98/98 96/96/96
f 99/99/99 100/100/100 7/7/7
f 99/99/99 7/7/7 6/6/6
f 99/99/99 6/6/6 5/5/5
f 99/99/99 5/5/5 101/101/101
f 99/99/99 101/101/101 52/52/52
f 99/99/99 52/52/52 51/51/51
f 99/99/99 51/51/51 102/102/102
f 99/99/99 102/102/102 100/100/100
f 103/103/103 104/104/104 15/15/15
f 103/103/103 15/15/15 14/14/14
f 103/103/103 14/14/14 9/9/9
f 103/103/103 9/9/9 105/105/105
f 103/103/103 105/105/105 48/48/48
f 103/103/103 48/48/48 58/58/58
f 103/103/103 58/58/58 106/106/106
f 103/103/103 106/106/106 104/104/104
f 107/107/107 108/108/108 12/12/12
f 107/107/107 12/12/12 11/11/11
f 107/107/107 11/11/11 15/15/15
f 107/107/107 15/15/15 104/104/104
f 107/107/107 104/104/104 106/106/106
f 107/107/107 106/106/106 56/56/56
f 107/107/107 56/56/56 60/60/60
f 107/107/107 60/60/60 108/108/108
f 109/109/109 97/97/97 40/40/40
f 109/109/109 40/40/40 39/39/39
f 109/109/109 39/39/39 38/38/38
f 109/109/109 38/38/38 92/92/92
f 109/109/109 92/92/92 94/94/94
f 109/109/109 94/94/94 85/85/85
f 109/109/109 85/85/85 84/84/84
f 109/109/109 84/84/84 97/97/97
f 110/110/110 111/111/111 27/27/27
f 110/110/110 27/27/27 45/45/45
f 110/110/110 45/45/45 44/44/44
f 110/110/110 44/44/44 96/96/96
f 110/110/110 96/96/96 98/98/98
f 110/110/110 98/98/98 88/88/88
f 110/110/110 88/88/88 74/74/74
f 110/110/110 74/74/74 111/111/111
f 112/112/112 105/105/105 9/9/9
f 112/112/112 9/9/9 8/8/8
f 112/112/112 8/8/8 7/7/7
f 112/112/112 7/7/7 100/100/100
f 112/112/112 100/100/100 102/102/102
f 112/112/112 102/102/102 49/49/49
f 112/112/112 49/49/49 48/48/48
f 112/112/112 48/48/48 105/105/105
f 113/113/113 101/101/101 5/5/5
f 113/113/113 5/5/5 33/33/33
f 113/113/113 33/33/33 29/29/29
f 113/113/113 29/29/29 114/114/114
f 113/113/113 114/114/114 72/72/72
f 113/113/113 72/72/72 78/78/78
f 113/113/113 78/78/78 52/52/52
f 113/113/113 52/52/52 101/101/101
f 115/115/115 116/116/116 24/24/24
f 115/115/115 24/24/24 35/35/35
f 115/115/115 35/35/35 12/12/12
f 115/115/115 12/12/12 108/108/108
f 115/115/115 108/108/108 60/60/60
f 115/115/115 60/60/60 80/80/80
f 115/115/115 80/80/80 63/63/63
f 115/115/115 63/63/63 116/116/116
f 117/117/117 93/93/93 18/18/18
f 117/117/117 18/18/18 17/17/17
f 117/117/117 17/17/17 24/24/24
f 117/117/117 24/24/24 116/116/116
f 117/117/117 116/116/116 63/63/63
f 117/117/117 63/63/63 62/62/62
f 117/117/117 62/62/62 69/69/69
f 117/117/117 69/69/69 93/93/93
f 118/118/118 114/114/114 29/29/29
f 118/118/118 29/29/29 28/28/28
f 118/118/118 28/28/28 27/27/27
f 118/118/118 27/27/27 111/111/111
f 118/118/118 111/111/111 74/74/74
f 118/118/118 74/74/74 73/73/73
f 118/118/118 73/73/73 72/72/72
f 118/118/118 72/72/72 114/114/114
