v -2.446356 0.745483 -1.137971
v -2.44495 0.746079 -1.136452
v -2.443282 0.744569 -1.13823
v -2.445069 0.744009 -1.139724
v -2.44632 0.743681 -1.141056
v -2.447208 0.745034 -1.13945
v -2.447471 0.745811 -1.138112
v -2.447213 0.746459 -1.136621
v -2.44618 0.747107 -1.135089
v -2.442982 0.746734 -1.13587
v -2.441291 0.747229 -1.135764
v -2.439598 0.746175 -1.13687
v -2.441234 0.745432 -1.137336
v -2.444293 0.747543 -1.134802
v -2.442679 0.747588 -1.135128
v -2.436257 0.739508 -1.141895
v -2.434778 0.740162 -1.141196
v -2.433562 0.737696 -1.142612
v -2.434875 0.737112 -1.143218
v -2.436583 0.736404 -1.144124
v -2.438183 0.738714 -1.14293
v -2.439829 0.740885 -1.14158
v -2.43781 0.741731 -1.140512
v -2.436256 0.742436 -1.139806
v -2.440014 0.738115 -1.144235
v -2.438198 0.735879 -1.145288
v -2.439385 0.735536 -1.146238
v -2.441362 0.73772 -1.145297
v -2.443143 0.739882 -1.144096
v -2.44174 0.740273 -1.142961
v -2.443478 0.742255 -1.141422
v -2.441552 0.742837 -1.139977
v -2.44488 0.741917 -1.142643
v -2.43949 0.743735 -1.138938
v -2.437891 0.744509 -1.138291
v -2.43371 0.734586 -1.144617
v -2.432714 0.735049 -1.144203
v -2.432505 0.733431 -1.145156
v -2.432922 0.732627 -1.145671
v -2.433817 0.732223 -1.146074
v -2.434996 0.734037 -1.145262
v -2.43619 0.733666 -1.146161
v -2.434621 0.731996 -1.146729
v -2.435562 0.732297 -1.14706
v -2.437062 0.733436 -1.146912
v -2.446404 0.745301 -1.137848
v -2.444973 0.745905 -1.136311
v -2.446195 0.746975 -1.134986
v -2.447248 0.746321 -1.136532
v -2.447503 0.745708 -1.138049
v -2.447257 0.744895 -1.139366
v -2.446369 0.743547 -1.140966
v -2.445119 0.743833 -1.139593
v -2.44331 0.744399 -1.138084
v -2.442979 0.746571 -1.135715
v -2.441277 0.747113 -1.135641
v -2.442671 0.7475 -1.135039
v -2.444287 0.747419 -1.134688
v -2.44124 0.745272 -1.137177
v -2.439591 0.746061 -1.136744
v -2.436292 0.739373 -1.141717
v -2.434797 0.740063 -1.141059
v -2.436268 0.742332 -1.139673
v -2.437838 0.741587 -1.14034
v -2.439874 0.740734 -1.141418
v -2.438236 0.738572 -1.142761
v -2.43664 0.736268 -1.143952
v -2.434915 0.736983 -1.143036
v -2.433584 0.737603 -1.142471
v -2.440082 0.737967 -1.144077
v -2.441803 0.740116 -1.14281
v -2.443198 0.739762 -1.143989
v -2.441421 0.737606 -1.145184
v -2.439448 0.735428 -1.146123
v -2.438271 0.735738 -1.145126
v -2.443533 0.742088 -1.141281
v -2.441588 0.742676 -1.139823
v -2.444932 0.741789 -1.142545
v -2.439506 0.743582 -1.138773
v -2.437894 0.744399 -1.138161
v -2.433751 0.73446 -1.144433
v -2.432736 0.734958 -1.144061
v -2.435054 0.733904 -1.145089
v -2.433862 0.732124 -1.145943
v -2.432952 0.732533 -1.145533
v -2.432523 0.733363 -1.145052
v -2.436265 0.733527 -1.145999
v -2.437128 0.733329 -1.146796
v -2.435609 0.732218 -1.146973
v -2.434679 0.731892 -1.146608
v -2.43239 0.735164 -1.144001
v -2.432193 0.732964 -1.145371
v -2.433132 0.73785 -1.142346
v -2.432523 0.733363 -1.145052
v -2.434124 0.731394 -1.146865
v -2.435256 0.731827 -1.147279
v -2.433444 0.731574 -1.146286
v -2.435609 0.732218 -1.146973
v -2.447517 0.744822 -1.139907
v -2.447736 0.745838 -1.138184
v -2.446761 0.743512 -1.141462
v -2.447503 0.745708 -1.138049
v -2.444726 0.747757 -1.134396
v -2.442552 0.747761 -1.134955
v -2.446596 0.747391 -1.13459
v -2.442671 0.7475 -1.135039
v -2.440718 0.747343 -1.135673
v -2.439047 0.746373 -1.136657
v -2.432673 0.731932 -1.145961
v -2.437384 0.733312 -1.147112
v -2.439811 0.735373 -1.146505
v -2.447514 0.746723 -1.136132
v -2.445373 0.741746 -1.143008
v -2.443637 0.739697 -1.144428
v -2.437358 0.744719 -1.138016
v -2.435742 0.742626 -1.13951
v -2.434292 0.740337 -1.140901
v -2.441839 0.737537 -1.145602
vn 0.2546 0.8397 -0.4796
vn 0.0688 0.8046 -0.5897
vn 0.1036 0.7725 -0.6264
vn 0.2712 0.8034 -0.53
vn 0.2783 0.7873 -0.5502
vn 0.2487 0.8385 -0.4848
vn 0.2257 0.8708 -0.4367
vn 0.1689 0.8798 -0.4444
vn 0.014 0.849 -0.5282
vn -0.0959 0.7096 -0.698
vn -0.0892 0.7132 -0.6953
vn -0.0201 0.6766 -0.736
vn -0.0422 0.6872 -0.7252
vn -0.1174 0.7734 -0.6229
vn -0.1371 0.7361 -0.6628
vn 0.156 0.5709 -0.806
vn 0.1911 0.5779 -0.7934
vn 0.2106 0.5546 -0.805
vn 0.167 0.5432 -0.8228
vn 0.2684 0.5746 -0.7731
vn 0.2459 0.6065 -0.756
vn 0.1994 0.6673 -0.7176
vn 0.1035 0.6203 -0.7775
vn 0.1357 0.6183 -0.7741
vn 0.332 0.6362 -0.6964
vn 0.3558 0.6133 -0.7052
vn 0.322 0.5959 -0.7356
vn 0.3074 0.621 -0.721
vn 0.2892 0.6753 -0.6784
vn 0.301 0.6935 -0.6545
vn 0.2781 0.7563 -0.5921
vn 0.1465 0.7286 -0.6691
vn 0.28 0.7362 -0.616
vn 0.0292 0.6639 -0.7472
vn 0.058 0.6539 -0.7544
vn 0.1529 0.5228 -0.8386
vn 0.202 0.5321 -0.8222
vn 0.1841 0.5075 -0.8417
vn 0.1635 0.4701 -0.8673
vn 0.3076 0.5146 -0.8003
vn 0.2788 0.5592 -0.7807
vn 0.383 0.6082 -0.6952
vn 0.4287 0.5685 -0.7021
vn 0.3833 0.5813 -0.7177
vn 0.3497 0.5868 -0.7302
vn -0.2899 -0.83 0.4764
vn -0.0784 -0.7961 0.6
vn -0.1153 -0.761 0.6383
vn -0.3916 -0.7967 0.4604
vn -0.4912 -0.7774 0.3929
vn -0.4686 -0.7851 0.405
vn -0.419 -0.7854 0.4556
vn -0.2839 -0.8046 0.5215
vn -0.1035 -0.7726 0.6263
vn 0.1048 -0.6837 0.7222
vn 0.1967 -0.538 0.8196
vn 0.21 -0.5171 0.8297
vn 0.1332 -0.6019 0.7874
vn 0.0537 -0.6794 0.7318
vn 0.1403 -0.5778 0.804
vn -0.1418 -0.5659 0.8122
vn -0.0418 -0.5275 0.8485
vn -0.0033 -0.5602 0.8283
vn -0.0909 -0.6148 0.7834
vn -0.1995 -0.6672 0.7176
vn -0.246 -0.6064 0.7561
vn -0.2685 -0.5745 0.7732
vn -0.1494 -0.5388 0.829
vn -0.0219 -0.5148 0.8571
vn -0.3439 -0.6409 0.6863
vn -0.3125 -0.697 0.6454
vn -0.4029 -0.7084 0.5794
vn -0.4233 -0.669 0.6109
vn -0.4426 -0.6709 0.595
vn -0.3684 -0.6201 0.6926
vn -0.2896 -0.7588 0.5833
vn -0.1465 -0.7286 0.6691
vn -0.3972 -0.7562 0.5199
vn -0.0173 -0.6578 0.753
vn 0.0668 -0.5841 0.8089
vn -0.1208 -0.5281 0.8405
vn 0.0433 -0.5149 0.8561
vn -0.2725 -0.5686 0.7761
vn -0.2443 -0.6087 0.7548
vn -0.0209 -0.55 0.8349
vn 0.0853 -0.5184 0.8509
vn -0.392 -0.6286 0.6716
vn -0.462 -0.7024 0.5414
vn -0.4692 -0.724 0.5056
vn -0.4077 -0.6934 0.594
vn 0.9816 0.1078 0.1577
vn 0.9722 -0.2058 -0.1111
vn 0.9402 0.21 0.2683
vn 0.0853 -0.5184 0.8509
vn 0.3247 -0.7909 -0.5186
vn -0.1113 -0.6081 -0.7859
vn 0.4844 -0.8271 -0.2852
vn -0.4692 -0.724 0.5056
vn -0.8744 0.1609 -0.4578
vn -0.923 0.3348 -0.1895
vn -0.8111 0.005 -0.5849
vn -0.4912 -0.7774 0.3929
vn -0.101 0.6609 0.7436
vn 0.2787 0.7808 0.5591
vn -0.5862 0.4552 0.6701
vn 0.21 -0.5171 0.8297
vn 0.567 0.696 0.4404
vn 0.7271 0.576 0.3735
vn 0.7072 -0.649 -0.2803
vn -0.4863 -0.4371 -0.7566
vn -0.6138 -0.3664 -0.6993
vn -0.8972 0.3654 0.2479
vn -0.7583 -0.1215 -0.6405
vn -0.7277 -0.2017 -0.6555
vn 0.8177 0.4634 0.3414
vn 0.8596 0.3871 0.3334
vn 0.8943 0.3093 0.3233
vn -0.6926 -0.2792 -0.665
vt 0.839504 0.118056
vt 0.856743 0.205307
vt 0.741230 0.205307
vt 0.734555 0.106726
vt 0.724541 0.032791
vt 0.813647 0.052618
vt 0.868992 0.081539
vt 0.913398 0.129584
vt 0.940923 0.205307
vt 0.839504 0.292557
vt 0.813647 0.357995
vt 0.724541 0.377822
vt 0.734555 0.303887
vt 0.913398 0.281029
vt 0.868992 0.329074
vt 0.369475 0.299954
vt 0.368286 0.370940
vt 0.245840 0.351447
vt 0.246397 0.288815
vt 0.246768 0.205307
vt 0.370268 0.205307
vt 0.494283 0.205307
vt 0.492822 0.304944
vt 0.490632 0.379672
vt 0.369475 0.110659
vt 0.246397 0.121798
vt 0.245841 0.059166
vt 0.368286 0.039673
vt 0.490632 0.030941
vt 0.492822 0.105669
vt 0.616755 0.103478
vt 0.619174 0.205307
vt 0.613127 0.027106
vt 0.616755 0.307135
vt 0.613126 0.383507
vt 0.123273 0.268175
vt 0.123047 0.315326
vt 0.054743 0.283353
vt 0.030912 0.249131
vt 0.030973 0.205306
vt 0.123423 0.205306
vt 0.123273 0.142438
vt 0.030912 0.161481
vt 0.054744 0.127260
vt 0.123047 0.095287
vt 0.839504 0.118056
vt 0.856743 0.205307
vt 0.968983 0.205307
vt 0.938030 0.133427
vt 0.876123 0.061548
vt 0.805028 0.030806
vt 0.721203 0.008146
vt 0.734555 0.106726
vt 0.741230 0.205307
vt 0.839504 0.292557
vt 0.805028 0.379807
vt 0.876123 0.349065
vt 0.938030 0.277186
vt 0.734555 0.303887
vt 0.721203 0.402467
vt 0.369475 0.299954
vt 0.367890 0.394602
vt 0.489902 0.404581
vt 0.492822 0.304944
vt 0.494283 0.205307
vt 0.370268 0.205307
vt 0.246768 0.205307
vt 0.246397 0.288815
vt 0.245655 0.372324
vt 0.369475 0.110659
vt 0.492822 0.105669
vt 0.489902 0.006032
vt 0.367890 0.016011
vt 0.245655 0.038289
vt 0.246397 0.121798
vt 0.616755 0.103478
vt 0.619174 0.205307
vt 0.611917 0.001649
vt 0.616755 0.307135
vt 0.611917 0.408964
vt 0.123273 0.268175
vt 0.122972 0.331043
vt 0.123423 0.205306
vt 0.000156 0.205306
vt 0.000125 0.242784
vt 0.000064 0.280261
vt 0.123273 0.142438
vt 0.122972 0.079570
vt 0.000064 0.130352
vt 0.000125 0.167829
vt 0.122972 0.331043
vt 0.030806 0.283587
vt 0.245655 0.372324
vt 0.030806 0.283587
vt 0.000125 0.167829
vt 0.030806 0.127026
vt 0.000156 0.205306
vt 0.030806 0.127026
vt 0.805028 0.030806
vt 0.873826 0.071832
vt 0.721203 0.008146
vt 0.873826 0.071832
vt 0.938030 0.277186
vt 0.873826 0.338781
vt 0.968983 0.205307
vt 0.873826 0.338781
vt 0.805028 0.379807
vt 0.721203 0.402467
vt 0.000125 0.242784
vt 0.122972 0.079570
vt 0.245655 0.038289
vt 0.938030 0.133427
vt 0.611917 0.001649
vt 0.489902 0.006032
vt 0.611917 0.408964
vt 0.489902 0.404581
vt 0.367890 0.394602
vt 0.367890 0.016011
f 1/1/1 2/2/2 3/3/3
f 1/1/1 3/3/3 4/4/4
f 1/1/1 4/4/4 5/5/5
f 1/1/1 5/5/5 6/6/6
f 1/1/1 6/6/6 7/7/7
f 1/1/1 7/7/7 8/8/8
f 1/1/1 8/8/8 9/9/9
f 1/1/1 9/9/9 2/2/2
f 10/10/10 11/11/11 12/12/12
f 10/10/10 12/12/12 13/13/13
f 10/10/10 13/13/13 3/3/3
f 10/10/10 3/3/3 2/2/2
f 10/10/10 2/2/2 9/9/9
f 10/10/10 9/9/9 14/14/14
f 10/10/10 14/14/14 15/15/15
f 10/10/10 15/15/15 11/11/11
f 16/16/16 17/17/17 18/18/18
f 16/16/16 18/18/18 19/19/19
f 16/16/16 19/19/19 20/20/20
f 16/16/16 20/20/20 21/21/21
f 16/16/16 21/21/21 22/22/22
f 16/16/16 22/22/22 23/23/23
f 16/16/16 23/23/23 24/24/24
f 16/16/16 24/24/24 17/17/17
f 25/25/25 21/21/21 20/20/20
f 25/25/25 20/20/20 26/26/26
f 25/25/25 26/26/26 27/27/27
f 25/25/25 27/27/27 28/28/28
f 25/25/25 28/28/28 29/29/29
f 25/25/25 29/29/29 30/30/30
f 25/25/25 30/30/30 22/22/22
f 25/25/25 22/22/22 21/21/21
f 31/31/31 32/32/32 22/22/22
f 31/31/31 22/22/22 30/30/30
f 31/31/31 30/30/30 29/29/29
f 31/31/31 29/29/29 33/33/33
f 31/31/31 33/33/33 5/5/5
f 31/31/31 5/5/5 4/4/4
f 31/31/31 4/4/4 3/3/3
f 31/31/31 3/3/3 32/32/32
f 34/34/34 35/35/35 24/24/24
f 34/34/34 24/24/24 23/23/23
f 34/34/34 23/23/23 22/22/22
f 34/34/34 22/22/22 32/32/32
f 34/34/34 32/32/32 3/3/3
f 34/34/34 3/3/3 13/13/13
f 34/34/34 13/13/13 12/12/12
f 34/34/34 12/12/12 35/35/35
f 36/36/36 37/37/37 38/38/38
f 36/36/36 38/38/38 39/39/39
f 36/36/36 39/39/39 40/40/40
f 36/36/36 40/40/40 41/41/41
f 36/36/36 41/41/41 20/20/20
f 36/36/36 20/20/20 19/19/19
f 36/36/36 19/19/19 18/18/18
f 36/36/36 18/18/18 37/37/37
f 42/42/42 41/41/41 40/40/40
f 42/42/42 40/40/40 43/43/43
f 42/42/42 43/43/43 44/44/44
f 42/42/42 44/44/44 45/45/45
f 42/42/42 45/45/45 27/27/27
f 42/42/42 27/27/27 26/26/26
f 42/42/42 26/26/26 20/20/20
f 42/42/42 20/20/20 41/41/41
f 46/46/46 47/47/47 48/48/48
f 46/46/46 48/48/48 49/49/49
f 46/46/46 49/49/49 50/50/50
f 46/46/46 50/50/50 51/51/51
f 46/46/46 51/51/51 52/52/52
f 46/46/46 52/52/52 53/53/53
f 46/46/46 53/53/53 54/54/54
f 46/46/46 54/54/54 47/47/47
f 55/55/55 56/56/56 57/57/57
f 55/55/55 57/57/57 58/58/58
f 55/55/55 58/58/58 48/48/48
f 55/55/55 48/48/48 47/47/47
f 55/55/55 47/47/47 54/54/54
f 55/55/55 54/54/54 59/59/59
f 55/55/55 59/59/59 60/60/60
f 55/55/55 60/60/60 56/56/56
f 61/61/61 62/62/62 63/63/63
f 61/61/61 63/63/63 64/64/64
f 61/61/61 64/64/64 65/65/65
f 61/61/61 65/65/65 66/66/66
f 61/61/61 66/66/66 67/67/67
f 61/61/61 67/67/67 68/68/68
f 61/61/61 68/68/68 69/69/69
f 61/61/61 69/69/69 62/62/62
f 70/70/70 66/66/66 65/65/65
f 70/70/70 65/65/65 71/71/71
f 70/70/70 71/71/71 72/72/72
f 70/70/70 72/72/72 73/73/73
f 70/70/70 73/73/73 74/74/74
f 70/70/70 74/74/74 75/75/75
f 70/70/70 75/75/75 67/67/67
f 70/70/70 67/67/67 66/66/66
f 76/76/76 77/77/77 54/54/54
f 76/76/76 54/54/54 53/53/53
f 76/76/76 53/53/53 52/52/52
f 76/76/76 52/52/52 78/78/78
f 76/76/76 78/78/78 72/72/72
f 76/76/76 72/72/72 71/71/71
f 76/76/76 71/71/71 65/65/65
f 76/76/76 65/65/65 77/77/77
f 79/79/79 80/80/80 60/60/60
f 79/79/79 60/60/60 59/59/59
f 79/79/79 59/59/59 54/54/54
f 79/79/79 54/54/54 77/77/77
f 79/79/79 77/77/77 65/65/65
f 79/79/79 65/65/65 64/64/64
f 79/79/79 64/64/64 63/63/63
f 79/79/79 63/63/63 80/80/80
f 81/81/81 82/82/82 69/69/69
f 81/81/81 69/69/69 68/68/68
f 81/81/81 68/68/68 67/67/67
f 81/81/81 67/67/67 83/83/83
f 81/81/81 83/83/83 84/84/84
f 81/81/81 84/84/84 85/85/85
f 81/81/81 85/85/85 86/86/86
f 81/81/81 86/86/86 82/82/82
f 87/87/87 83/83/83 67/67/67
f 87/87/87 67/67/67 75/75/75
f 87/87/87 75/75/75 74/74/74
f 87/87/87 74/74/74 88/88/88
f 87/87/87 88/88/88 89/89/89
f 87/87/87 89/89/89 90/90/90
f 87/87/87 90/90/90 84/84/84
f 87/87/87 84/84/84 83/83/83
f 91/91/91 92/92/92 38/38/38
f 91/91/91 38/38/38 37/37/37
f 91/91/91 37/37/37 18/18/18
f 91/91/91 18/18/18 93/93/93
f 91/91/91 93/93/93 69/69/69
f 91/91/91 69/69/69 82/82/82
f 91/91/91 82/82/82 94/94/94
f 91/91/91 94/94/94 92/92/92
f 95/95/95 96/96/96 44/44/44
f 95/95/95 44/44/44 43/43/43
f 95/95/95 43/43/43 40/40/40
f 95/95/95 40/40/40 97/97/97
f 95/95/95 97/97/97 84/84/84
f 95/95/95 84/84/84 90/90/90
f 95/95/95 90/90/90 98/98/98
f 95/95/95 98/98/98 96/96/96
f 99/99/99 100/100/100 7/7/7
f 99/99/99 7/7/7 6/6/6
f 99/99/99 6/6/6 5/5/5
f 99/99/99 5/5/5 101/101/101
f 99/99/99 101/101/101 52/52/52
f 99/99/99 52/52/52 51/51/51
f 99/99/99 51/51/51 102/102/102
f 99/99/99 102/102/102 100/100/100
f 103/103/103 104/104/104 15/15/15
f 103/103/103 15/15/15 14/14/14
f 103/103/103 14/14/14 9/9/9
f 103/103/103 9/9/9 105/105/105
f 103/103/103 105/105/105 48/48/48
f 103/103/103 48/48/48 58/58/58
f 103/103/103 58/58/58 106/106/106
f 103/103/103 106/106/106 104/104/104
f 107/107/107 108/108/108 12/12/12
f 107/107/107 12/12/12 11/11/11
f 107/107/107 11/11/11 15/15/15
f 107/107/107 15/15/15 104/104/104
f 107/107/107 104/104/104 106/106/106
f 107/107/107 106/106/106 56/56/56
f 107/107/107 56/56/56 60/60/60
f 107/107/107 60/60/60 108/108/108
f 109/109/109 97/97/97 40/40/40
f 109/109/109 40/40/40 39/39/39
f 109/109/109 39/39/39 38/38/38
f 109/109/109 38/38/38 92/92/92
f 109/109/109 92/92/92 94/94/94
f 109/109/109 94/94/94 85/85/85
f 109/109/109 85/85/85 84/84/84
f 109/109/109 84/84/84 97/97/97
f 110/110/110 111/111/111 27/27/27
f 110/110/110 27/27/27 45/45/45
f 110/110/110 45/45/45 44/44/44
f 110/110/110 44/44/44 96/96/96
f 110/110/110 96/96/96 98/98/98
f 110/110/110 98/98/98 88/88/88
f 110/110/110 88/88/88 74/74/74
f 110/110/110 74/74/74 111/111/111
f 112/112/112 105/105/105 9/9/9
f 112/112/112 9/9/9 8/8/8
f 112/112/112 8/8/8 7/7/7
f 112/112/112 7/7/7 100/100/100
f 112/112/112 100/100/100 102/102/102
f 112/112/112 102/102/102 49/49/49
f 112/112/112 49/49/49 48/48/48
f 112/112/112 48/48/48 105/105/105
f 113/113/113 101/101/101 5/5/5
f 113/113/113 5/5/5 33/33/33
f 113/113/113 33/33/33 29/29/29
f 113/113/113 29/29/29 114/114/114
f 113/113/113 114/114/114 72/72/72
f 113/113/113 72/72/72 78/78/78
f 113/113/113 78/78/78 52/52/52
f 113/113/113 52/52/52 101/101/101
f 115/115/115 116/116/116 24/24/24
f 115/115/115 24/24/24 35/35/35
f 115/115/115 35/35/35 12/12/12
f 115/115/115 12/12/12 108/108/108
f 115/115/115 108/108/108 60/60/60
f 115/115/115 60/60/60 80/80/80
f 115/115/115 80/80/80 63/63/63
f 115/115/115 63/63/63 116/116/116
f 117/117/117 93/93/93 18/18/18
f 117/117/117 18/18/18 17/17/17
f 117/117/117 17/17/17 24/24/24
f 117/117/117 24/24/24 116/116/116
f 117/117/117 116/116/116 63/63/63
f 117/117/117 63/63/63 62/62/62
f 117/117/117 62/62/62 69/69/69
f 117/117/117 69/69/69 93/93/93
f 118/118/118 114/114/114 29/29/29
f 118/118/118 29/29/29 28/28/28
f 118/118/118 28/28/28 27/27/27
f 118/118/118 27/27/27 111/111/111
f 118/118/118 111/111/111 74/74/74
f 118/118/118 74/74/74 73/73/73
f 118/118/118 73/73/73 72/72/72
f 118/118/118 72/72/72 114/114/114
