v -2.386126 0.786428 -1.235874
v -2.38719 0.786482 -1.23756
v -2.388989 0.785614 -1.235811
v -2.387573 0.785596 -1.234106
v -2.386619 0.785721 -1.232682
v -2.385559 0.786477 -1.234343
v -2.385119 0.786787 -1.235692
v -2.385137 0.786925 -1.23721
v -2.385857 0.787031 -1.238869
v -2.388899 0.78684 -1.238524
v -2.390422 0.7872 -1.23899
v -2.392143 0.786542 -1.23796
v -2.390724 0.786065 -1.237117
v -2.387537 0.787282 -1.239503
v -2.389057 0.787372 -1.239455
v -2.396015 0.782017 -1.232145
v -2.397259 0.782353 -1.233142
v -2.398612 0.780554 -1.231374
v -2.397505 0.780248 -1.230499
v -2.39608 0.779929 -1.229274
v -2.39441 0.781664 -1.230752
v -2.392679 0.783235 -1.23232
v -2.394363 0.783621 -1.233768
v -2.395674 0.783999 -1.234798
v -2.392927 0.781558 -1.229194
v -2.394774 0.779842 -1.22789
v -2.393825 0.779843 -1.226801
v -2.391848 0.781549 -1.227972
v -2.390014 0.783158 -1.22939
v -2.391133 0.783141 -1.230682
v -2.389295 0.784494 -1.232347
v -2.390846 0.784542 -1.234036
v -2.388187 0.784581 -1.230995
v -2.392573 0.784981 -1.235479
v -2.393932 0.785435 -1.236484
v -2.398809 0.778392 -1.228721
v -2.399655 0.778655 -1.22935
v -2.400007 0.777497 -1.228088
v -2.39971 0.776947 -1.227353
v -2.398954 0.77673 -1.226764
v -2.397732 0.778127 -1.227826
v -2.396771 0.778089 -1.226774
v -2.398314 0.77674 -1.226018
v -2.397493 0.777123 -1.225687
v -2.396081 0.778124 -1.225935
v -2.386068 0.786234 -1.235923
v -2.387153 0.786289 -1.237629
v -2.385832 0.786886 -1.238919
v -2.385094 0.786779 -1.237243
v -2.385082 0.786679 -1.235713
v -2.385505 0.786332 -1.234369
v -2.386563 0.785578 -1.232715
v -2.387511 0.785405 -1.234162
v -2.388947 0.785424 -1.235886
v -2.388882 0.786652 -1.238613
v -2.390421 0.787062 -1.239066
v -2.389054 0.787269 -1.239508
v -2.387528 0.78714 -1.239568
v -2.3907 0.785879 -1.237209
v -2.392134 0.786406 -1.238038
v -2.39596 0.781848 -1.232256
v -2.397225 0.782228 -1.233231
v -2.395647 0.783869 -1.234883
v -2.394316 0.783446 -1.233873
v -2.392618 0.783057 -1.232412
v -2.394341 0.781493 -1.230851
v -2.396007 0.779762 -1.229377
v -2.397445 0.780083 -1.230615
v -2.398573 0.780432 -1.231467
v -2.392845 0.781385 -1.22928
v -2.391058 0.782962 -1.23076
v -2.389951 0.783023 -1.229441
v -2.39178 0.781419 -1.228029
v -2.393754 0.779716 -1.226862
v -2.394687 0.779674 -1.22798
v -2.389227 0.784308 -1.232414
v -2.390794 0.784357 -1.234118
v -2.388129 0.784442 -1.231037
v -2.392537 0.7848 -1.235577
v -2.393913 0.785302 -1.236564
v -2.398748 0.77823 -1.228839
v -2.399616 0.778535 -1.229445
v -2.397656 0.777962 -1.22793
v -2.398897 0.776607 -1.226842
v -2.399665 0.776826 -1.227442
v -2.399976 0.777408 -1.228156
v -2.396681 0.777923 -1.226864
v -2.396007 0.777999 -1.225996
v -2.39744 0.777031 -1.225734
v -2.398246 0.776615 -1.226086
v -2.399921 0.77869 -1.229603
v -2.40033 0.777139 -1.22781
v -2.398965 0.780602 -1.231708
v -2.399976 0.777408 -1.228156
v -2.398798 0.776234 -1.225796
v -2.397812 0.776765 -1.225404
v -2.399336 0.77621 -1.226445
v -2.39744 0.777031 -1.225734
v -2.385344 0.786429 -1.233842
v -2.384886 0.786838 -1.235601
v -2.386274 0.785699 -1.23222
v -2.385082 0.786679 -1.235713
v -2.38708 0.787366 -1.239858
v -2.389147 0.787471 -1.239672
v -2.385402 0.787149 -1.239327
v -2.389054 0.787269 -1.239508
v -2.390932 0.787259 -1.239181
v -2.392615 0.786641 -1.238278
v -2.399991 0.776412 -1.226936
v -2.395816 0.77808 -1.225681
v -2.393476 0.779787 -1.226464
v -2.384788 0.787026 -1.237669
v -2.38779 0.784549 -1.230561
v -2.389611 0.783104 -1.22898
v -2.394378 0.785527 -1.236856
v -2.396101 0.784068 -1.23518
v -2.39766 0.78241 -1.233516
v -2.391457 0.781489 -1.227589
vn -0.3082 0.9389 0.1533
vn -0.1417 0.9448 0.2952
vn -0.1822 0.9246 0.3345
vn -0.3328 0.9194 0.2095
vn -0.3431 0.9101 0.2324
vn -0.3031 0.9395 0.1595
vn -0.2726 0.9561 0.1077
vn -0.2174 0.9686 0.1207
vn -0.0775 0.9696 0.2318
vn 0.0031 0.8926 0.4507
vn -0.0031 0.8949 0.4462
vn -0.0782 0.8708 0.4854
vn -0.0545 0.8781 0.4753
vn 0.0368 0.9308 0.3636
vn 0.0495 0.9081 0.4157
vn -0.2647 0.7867 0.5577
vn -0.2975 0.7884 0.5384
vn -0.319 0.7693 0.5535
vn -0.2786 0.7652 0.5803
vn -0.3709 0.7768 0.5089
vn -0.3455 0.8025 0.4863
vn -0.2926 0.8498 0.4384
vn -0.2077 0.8263 0.5234
vn -0.239 0.8225 0.516
vn -0.421 0.8099 0.4083
vn -0.4462 0.7901 0.4201
vn -0.4179 0.784 0.4591
vn -0.4007 0.8037 0.4399
vn -0.3753 0.8428 0.3858
vn -0.383 0.8524 0.3559
vn -0.3499 0.8935 0.2813
vn -0.2318 0.8947 0.3817
vn -0.3557 0.8817 0.3098
vn -0.1288 0.8607 0.4925
vn -0.1586 0.8525 0.4981
vn -0.2674 0.7511 0.6036
vn -0.3135 0.7534 0.578
vn -0.2991 0.7366 0.6066
vn -0.2832 0.7095 0.6453
vn -0.4147 0.727 0.5472
vn -0.3826 0.7642 0.5192
vn -0.4718 0.7814 0.4083
vn -0.5187 0.7446 0.4201
vn -0.476 0.7628 0.4376
vn -0.4446 0.7729 0.4527
vn 0.3427 -0.9277 -0.148
vn 0.1529 -0.9396 -0.3062
vn 0.1958 -0.917 -0.3475
vn 0.4413 -0.8881 -0.1282
vn 0.53 -0.8462 -0.0559
vn 0.5094 -0.8578 -0.0684
vn 0.4682 -0.875 -0.1231
vn 0.3441 -0.9176 -0.1991
vn 0.1821 -0.9246 -0.3344
vn -0.0078 -0.8756 -0.4829
vn -0.0813 -0.7698 -0.633
vn -0.0925 -0.7534 -0.651
vn -0.0246 -0.8188 -0.5736
vn 0.0442 -0.873 -0.4856
vn -0.0285 -0.8012 -0.5976
vn 0.2517 -0.7842 -0.5671
vn 0.1591 -0.7618 -0.6279
vn 0.1173 -0.7878 -0.6046
vn 0.1961 -0.8233 -0.5326
vn 0.2927 -0.8497 -0.4385
vn 0.3456 -0.8024 -0.4865
vn 0.3709 -0.7767 -0.509
vn 0.2622 -0.7635 -0.5902
vn 0.141 -0.7529 -0.6428
vn 0.4312 -0.8109 -0.3956
vn 0.393 -0.8526 -0.3445
vn 0.4722 -0.8404 -0.2657
vn 0.4979 -0.8121 -0.3043
vn 0.5145 -0.8084 -0.2858
vn 0.4568 -0.7924 -0.4043
vn 0.3598 -0.8929 -0.2706
vn 0.2318 -0.8947 -0.3817
vn 0.4568 -0.8677 -0.1957
vn 0.118 -0.857 -0.5016
vn 0.0447 -0.8066 -0.5894
vn 0.2359 -0.7576 -0.6086
vn 0.0763 -0.7546 -0.6517
vn 0.3755 -0.7719 -0.513
vn 0.3436 -0.8044 -0.4846
vn 0.1359 -0.7796 -0.6113
vn 0.034 -0.7574 -0.652
vn 0.4768 -0.7934 -0.3785
vn 0.5251 -0.8213 -0.2228
vn 0.5264 -0.8306 -0.1816
vn 0.4794 -0.8306 -0.2832
vn -0.9445 0.0253 -0.3273
vn -0.9815 -0.1897 0.0234
vn -0.8849 0.0897 -0.457
vn 0.034 -0.7574 -0.652
vn -0.4136 -0.6016 0.6834
vn -0.0192 -0.3326 0.9428
vn -0.5369 -0.7125 0.4517
vn 0.5264 -0.8306 -0.1816
vn 0.7987 0.3195 0.5098
vn 0.8902 0.4033 0.2118
vn 0.7142 0.2085 0.6681
vn 0.53 -0.8462 -0.0559
vn 0.2238 0.4022 -0.8878
vn -0.177 0.5622 -0.8078
vn 0.6885 0.2435 -0.6831
vn -0.0925 -0.7534 -0.651
vn -0.4813 0.5098 -0.713
vn -0.6519 0.4114 -0.637
vn -0.753 -0.5514 0.3591
vn 0.3588 -0.1682 0.9181
vn 0.4943 -0.1154 0.8616
vn 0.9309 0.297 -0.2123
vn 0.6515 0.104 0.7514
vn 0.6177 0.0316 0.7858
vn -0.7487 0.3114 -0.5852
vn -0.7927 0.2403 -0.5602
vn -0.8295 0.1686 -0.5324
vn 0.5794 -0.0407 0.814
vt 0.839504 0.118056
vt 0.856743 0.205307
vt 0.741230 0.205307
vt 0.734555 0.106726
vt 0.724541 0.032791
vt 0.813647 0.052618
vt 0.868992 0.081539
vt 0.913398 0.129584
vt 0.940923 0.205307
vt 0.839504 0.292557
vt 0.813647 0.357995
vt 0.724541 0.377822
vt 0.734555 0.303887
vt 0.913398 0.281029
vt 0.868992 0.329074
vt 0.369475 0.299954
vt 0.368286 0.370940
vt 0.245840 0.351447
vt 0.246397 0.288815
vt 0.246768 0.205307
vt 0.370268 0.205307
vt 0.494283 0.205307
vt 0.492822 0.304944
vt 0.490632 0.379672
vt 0.369475 0.110659
vt 0.246397 0.121798
vt 0.245841 0.059166
vt 0.368286 0.039673
vt 0.490632 0.030941
vt 0.492822 0.105669
vt 0.616755 0.103478
vt 0.619174 0.205307
vt 0.613127 0.027106
vt 0.616755 0.307135
vt 0.613126 0.383507
vt 0.123273 0.268175
vt 0.123047 0.315326
vt 0.054743 0.283353
vt 0.030912 0.249131
vt 0.030973 0.205306
vt 0.123423 0.205306
vt 0.123273 0.142438
vt 0.030912 0.161481
vt 0.054744 0.127260
vt 0.123047 0.095287
vt 0.839504 0.118056
vt 0.856743 0.205307
vt 0.968983 0.205307
vt 0.938030 0.133427
vt 0.876123 0.061548
vt 0.805028 0.030806
vt 0.721203 0.008146
vt 0.734555 0.106726
vt 0.741230 0.205307
vt 0.839504 0.292557
vt 0.805028 0.379807
vt 0.876123 0.349065
vt 0.938030 0.277186
vt 0.734555 0.303887
vt 0.721203 0.402467
vt 0.369475 0.299954
vt 0.367890 0.394602
vt 0.489902 0.404581
vt 0.492822 0.304944
vt 0.494283 0.205307
vt 0.370268 0.205307
vt 0.246768 0.205307
vt 0.246397 0.288815
vt 0.245655 0.372324
vt 0.369475 0.110659
vt 0.492822 0.105669
vt 0.489902 0.006032
vt 0.367890 0.016011
vt 0.245655 0.038289
vt 0.246397 0.121798
vt 0.616755 0.103478
vt 0.619174 0.205307
vt 0.611917 0.001649
vt 0.616755 0.307135
vt 0.611917 0.408964
vt 0.123273 0.268175
vt 0.122972 0.331043
vt 0.123423 0.205306
vt 0.000156 0.205306
vt 0.000125 0.242784
vt 0.000064 0.280261
vt 0.123273 0.142438
vt 0.122972 0.079570
vt 0.000064 0.130352
vt 0.000125 0.167829
vt 0.122972 0.331043
vt 0.030806 0.283587
vt 0.245655 0.372324
vt 0.030806 0.283587
vt 0.000125 0.167829
vt 0.030806 0.127026
vt 0.000156 0.205306
vt 0.030806 0.127026
vt 0.805028 0.030806
vt 0.873826 0.071832
vt 0.721203 0.008146
vt 0.873826 0.071832
vt 0.938030 0.277186
vt 0.873826 0.338781
vt 0.968983 0.205307
vt 0.873826 0.338781
vt 0.805028 0.379807
vt 0.721203 0.402467
vt 0.000125 0.242784
vt 0.122972 0.079570
vt 0.245655 0.038289
vt 0.938030 0.133427
vt 0.611917 0.001649
vt 0.489902 0.006032
vt 0.611917 0.408964
vt 0.489902 0.404581
vt 0.367890 0.394602
vt 0.367890 0.016011
f 1/1/1 2/2/2 3/3/3
f 1/1/1 3/3/3 4/4/4
f 1/1/1 4/4/4 5/5/5
f 1/1/1 5/5/5 6/6/6
f 1/1/1 6/6/6 7/7/7
f 1/1/1 7/7/7 8/8/8
f 1/1/1 8/8/8 9/9/9
f 1/1/1 9/9/9 2/2/2
f 10/10/10 11/11/11 12/12/12
f 10/10/10 12/12/12 13/13/13
f 10/10/10 13/13/13 3/3/3
f 10/10/10 3/3/3 2/2/2
f 10/10/10 2/2/2 9/9/9
f 10/10/10 9/9/9 14/14/14
f 10/10/10 14/14/14 15/15/15
f 10/10/10 15/15/15 11/11/11
f 16/16/16 17/17/17 18/18/18
f 16/16/16 18/18/18 19/19/19
f 16/16/16 19/19/19 20/20/20
f 16/16/16 20/20/20 21/21/21
f 16/16/16 21/21/21 22/22/22
f 16/16/16 22/22/22 23/23/23
f 16/16/16 23/23/23 24/24/24
f 16/16/16 24/24/24 17/17/17
f 25/25/25 21/21/21 20/20/20
f 25/25/25 20/20/20 26/26/26
f 25/25/25 26/26/26 27/27/27
f 25/25/25 27/27/27 28/28/28
f 25/25/25 28/28/28 29/29/29
f 25/25/25 29/29/29 30/30/30
f 25/25/25 30/30/30 22/22/22
f 25/25/25 22/22/22 21/21/21
f 31/31/31 32/32/32 22/22/22
f 31/31/31 22/22/22 30/30/30
f 31/31/31 30/30/30 29/29/29
f 31/31/31 29/29/29 33/33/33
f 31/31/31 33/33/33 5/5/5
f 31/31/31 5/5/5 4/4/4
f 31/31/31 4/4/4 3/3/3
f 31/31/31 3/3/3 32/32/32
f 34/34/34 35/35/35 24/24/24
f 34/34/34 24/24/24 23/23/23
f 34/34/34 23/23/23 22/22/22
f 34/34/34 22/22/22 32/32/32
f 34/34/34 32/32/32 3/3/3
f 34/34/34 3/3/3 13/13/13
f 34/34/34 13/13/13 12/12/12
f 34/34/34 12/12/12 35/35/35
f 36/36/36 37/37/37 38/38/38
f 36/36/36 38/38/38 39/39/39
f 36/36/36 39/39/39 40/40/40
f 36/36/36 40/40/40 41/41/41
f 36/36/36 41/41/41 20/20/20
f 36/36/36 20/20/20 19/19/19
f 36/36/36 19/19/19 18/18/18
f 36/36/36 18/18/18 37/37/37
f 42/42/42 41/41/41 40/40/40
f 42/42/42 40/40/40 43/43/43
f 42/42/42 43/43/43 44/44/44
f 42/42/42 44/44/44 45/45/45
f 42/42/42 45/45/45 27/27/27
f 42/42/42 27/27/27 26/26/26
f 42/42/42 26/26/26 20/20/20
f 42/42/42 20/20/20 41/41/41
f 46/46/46 47/47/47 48/48/48
f 46/46/46 48/48/48 49/49/49
f 46/46/46 49/49/49 50/50/50
f 46/46/46 50/50/50 51/51/51
f 46/46/46 51/51/51 52/52/52
f 46/46/46 52/52/52 53/53/53
f 46/46/46 53/53/53 54/54/54
f 46/46/46 54/54/54 47/47/47
f 55/55/55 56/56/56 57/57/57
f 55/55/55 57/57/57 58/58/58
f 55/55/55 58/58/58 48/48/48
f 55/55/55 48/48/48 47/47/47
f 55/55/55 47/47/47 54/54/54
f 55/55/55 54/54/54 59/59/59
f 55/55/55 59/59/59 60/60/60
f 55/55/55 60/60/60 56/56/56
f 61/61/61 62/62/62 63/63/63
f 61/61/61 63/63/63 64/64/64
f 61/61/61 64/64/64 65/65/65
f 61/61/61 65/65/65 66/66/66
f 61/61/61 66/66/66 67/67/67
f 61/61/61 67/67/67 68/68/68
f 61/61/61 68/68/68 69/69/69
f 61/61/61 69/69/69 62/62/62
f 70/70/70 66/66/66 65/65/65
f 70/70/70 65/65/65 71/71/71
f 70/70/70 71/71/71 72/72/72
f 70/70/70 72/72/72 73/73/73
f 70/70/70 73/73/73 74/74/74
f 70/70/70 74/74/74 75/75/75
f 70/70/70 75/75/75 67/67/67
f 70/70/70 67/67/67 66/66/66
f 76/76/76 77/77/77 54/54/54
f 76/76/76 54/54/54 53/53/53
f 76/76/76 53/53/53 52/52/52
f 76/76/76 52/52/52 78/78/78
f 76/76/76 78/78/78 72/72/72
f 76/76/76 72/72/72 71/71/71
f 76/76/76 71/71/71 65/65/65
f 76/76/76 65/65/65 77/77/77
f 79/79/79 80/80/80 60/60/60
f 79/79/79 60/60/60 59/59/59
f 79/79/79 59/59/59 54/54/54
f 79/79/79 54/54/54 77/77/77
f 79/79/79 77/77/77 65/65/65
f 79/79/79 65/65/65 64/64/64
f 79/79/79 64/64/64 63/63/63
f 79/79/79 63/63/63 80/80/80
f 81/81/81 82/82/82 69/69/69
f 81/81/81 69/69/69 68/68/68
f 81/81/81 68/68/68 67/67/67
f 81/81/81 67/67/67 83/83/83
f 81/81/81 83/83/83 84/84/84
f 81/81/81 84/84/84 85/85/85
f 81/81/81 85/85/85 86/86/86
f 81/81/81 86/86/86 82/82/82
f 87/87/87 83/83/83 67/67/67
f 87/87/87 67/67/67 75/75/75
f 87/87/87 75/75/75 74/74/74
f 87/87/87 74/74/74 88/88/88
f 87/87/87 88/88/88 89/89/89
f 87/87/87 89/89/89 90/90/90
f 87/87/87 90/90/90 84/84/84
f 87/87/87 84/84/84 83/83/83
f 91/91/91 92/92/92 38/38/38
f 91/91/91 38/38/38 37/37/37
f 91/91/91 37/37/37 18/18/18
f 91/91/91 18/18/18 93/93/93
f 91/91/91 93/93/93 69/69/69
f 91/91/91 69/69/69 82/82/82
f 91/91/91 82/82/82 94/94/94
f 91/91/91 94/94/94 92/92/92
f 95/95/95 96/96/96 44/44/44
f 95/95/95 44/44/44 43/43/43
f 95/95/95 43/43/43 40/40/40
f 95/95/95 40/40/40 97/97/97
f 95/95/95 97/97/97 84/84/84
f 95/95/95 84/84/84 90/90/90
f 95/95/95 90/90/90 98/98/98
f 95/95/95 98/98/98 96/96/96
f 99/99/99 100/100/100 7/7/7
f 99/99/99 7/7/7 6/6/6
f 99/99/99 6/6/6 5/5/5
f 99/99/99 5/5/5 101/101/101
f 99/99/99 101/101/101 52/52/52
f 99/99/99 52/52/52 51/51/51
f 99/99/99 51/51/51 102/102/102
f 99/99/99 102/102/102 100/100/100
f 103/103/103 104/104/104 15/15/15
f 103/103/103 15/15/15 14/14/14
f 103/103/103 14/14/14 9/9/9
f 103/103/103 9/9/9 105/105/105
f 103/103/103 105/105/105 48/48/48
f 103/103/103 48/48/48 58/58/58
f 103/103/103 58/58/58 106/106/106
f 103/103/103 106/106/106 104/104/104
f 107/107/107 108/108/108 12/12/12
f 107/107/107 12/12/12 11/11/11
f 107/107/107 11/11/11 15/15/15
f 107/107/107 15/15/15 104/104/104
f 107/107/107 104/104/104 106/106/106
f 107/107/107 106/106/106 56/56/56
f 107/107/107 56/56/56 60/60/60
f 107/107/107 60/60/60 108/108/108
f 109/109/109 97/97/97 40/40/40
f 109/109/109 40/40/40 39/39/39
f 109/109/109 39/39/39 38/38/38
f 109/109/109 38/38/38 92/92/92
f 109/109/109 92/92/92 94/94/94
f 109/109/109 94/94/94 85/85/85
f 109/109/109 85/85/85 84/84/84
f 109/109/109 84/84/84 97/97/97
f 110/110/110 111/111/111 27/27/27
f 110/110/110 27/27/27 45/45/45
f 110/110/110 45/45/45 44/44/44
f 110/110/110 44/44/44 96/96/96
f 110/110/110 96/96/96 98/98/98
f 110/110/110 98/98/98 88/88/88
f 110/110/110 88/88/88 74/74/74
f 110/110/110 74/74/74 111/111/111
f 112/112/112 105/105/105 9/9/9
f 112/112/112 9/9/9 8/8/8
f 112/112/112 8/8/8 7/7/7
f 112/112/112 7/7/7 100/100/100
f 112/112/112 100/100/100 102/102/102
f 112/112/112 102/102/102 49/49/49
f 112/112/112 49/49/49 48/48/48
f 112/112/112 48/48/48 105/105/105
f 113/113/113 101/101/101 5/5/5
f 113/113/113 5/5/5 33/33/33
f 113/113/113 33/33/33 29/29/29
f 113/113/113 29/29/29 114/114/114
f 113/113/113 114/114/114 72/72/72
f 113/113/113 72/72/72 78/78/78
f 113/113/113 78/78/78 52/52/52
f 113/113/113 52/52/52 101/101/101
f 115/115/115 116/116/116 24/24/24
f 115/115/115 24/24/24 35/35/35
f 115/115/115 35/35/35 12/12/12
f 115/115/115 12/12/12 108/108/108
f 115/115/115 108/108/108 60/60/60
f 115/115/115 60/60/60 80/80/80
f 115/115/115 80/80/80 63/63/63
f 115/115/115 63/63/63 116/116/116
f 117/117/117 93/93/93 18/18/18
f 117/117/117 18/18/18 17/17/17
f 117/117/117 17/17/17 24/24/24
f 117/117/117 24/24/24 116/116/116
f 117/117/117 116/116/116 63/63/63
f 117/117/117 63/63/63 62/62/62
f 117/117/117 62/62/62 69/69/69
f 117/117/117 69/69/69 93/93/93
f 118/118/118 114/114/114 29/29/29
f 118/118/118 29/29/29 28/28/28
f 118/118/118 28/28/28 27/27/27
f 118/118/118 27/27/27 111/111/111
f 118/118/118 111/111/111 74/74/74
f 118/118/118 74/74/74 73/73/73
f 118/118/118 73/73/73 72/72/72
f 118/118/118 72/72/72 114/114/114
