v -2.409044 0.740781 -1.112165
v -2.410937 0.74065 -1.111394
v -2.40958 0.738867 -1.109839
v -2.407598 0.73917 -1.11092
v -2.405975 0.739461 -1.11155
v -2.407392 0.740831 -1.112453
v -2.408644 0.741492 -1.112923
v -2.410165 0.741834 -1.113063
v -2.411963 0.741885 -1.112586
v -2.412201 0.740442 -1.109796
v -2.41293 0.740238 -1.108299
v -2.412266 0.738786 -1.106831
v -2.411186 0.738785 -1.108227
v -2.412898 0.741541 -1.111013
v -2.413129 0.741011 -1.109558
v -2.407479 0.732168 -1.104307
v -2.408692 0.73213 -1.103153
v -2.407301 0.729652 -1.102401
v -2.406235 0.729681 -1.103431
v -2.404758 0.729774 -1.104712
v -2.405802 0.732278 -1.105746
v -2.406937 0.734664 -1.106917
v -2.408682 0.734562 -1.105399
v -2.409937 0.734541 -1.104171
v -2.403962 0.732545 -1.106945
v -2.403125 0.730014 -1.105764
v -2.401851 0.730236 -1.106489
v -2.40253 0.732791 -1.107776
v -2.403491 0.735232 -1.109006
v -2.405004 0.734957 -1.108158
v -2.406233 0.737197 -1.109534
v -2.408221 0.736866 -1.108314
v -2.404657 0.737525 -1.110333
v -2.409966 0.736796 -1.106734
v -2.411198 0.736824 -1.105426
v -2.40483 0.727167 -1.102745
v -2.405602 0.727167 -1.101939
v -2.404485 0.72576 -1.101918
v -2.40373 0.725258 -1.102319
v -2.403012 0.725272 -1.103027
v -2.403746 0.72722 -1.103728
v -2.402509 0.727416 -1.104486
v -2.40214 0.725429 -1.103512
v -2.401623 0.726067 -1.104065
v -2.401532 0.727603 -1.104992
v -2.409096 0.740629 -1.112307
v -2.411014 0.740494 -1.111519
v -2.412019 0.741766 -1.112678
v -2.410201 0.741719 -1.113169
v -2.408666 0.741408 -1.113005
v -2.407419 0.740721 -1.112567
v -2.406009 0.739354 -1.111666
v -2.407657 0.739023 -1.111065
v -2.409661 0.738717 -1.109969
v -2.412302 0.740286 -1.109902
v -2.413016 0.740121 -1.108368
v -2.413189 0.740923 -1.109612
v -2.412973 0.741421 -1.11109
v -2.411288 0.738634 -1.108341
v -2.412353 0.738674 -1.106907
v -2.407593 0.732048 -1.104444
v -2.408784 0.73204 -1.10325
v -2.410027 0.734443 -1.104262
v -2.408792 0.734432 -1.10553
v -2.407031 0.734535 -1.107061
v -2.405901 0.732159 -1.105895
v -2.404861 0.729662 -1.104865
v -2.406353 0.729568 -1.103572
v -2.407396 0.729566 -1.1025
v -2.404046 0.732428 -1.107105
v -2.405081 0.73483 -1.108314
v -2.403541 0.735139 -1.109128
v -2.402585 0.732704 -1.107901
v -2.401908 0.730155 -1.106617
v -2.403212 0.729904 -1.105928
v -2.406302 0.73706 -1.109684
v -2.408309 0.736726 -1.108451
v -2.404699 0.737424 -1.110451
v -2.410071 0.736655 -1.106856
v -2.411286 0.736718 -1.10551
v -2.404949 0.727057 -1.102886
v -2.405699 0.727084 -1.102038
v -2.40385 0.727111 -1.103882
v -2.40309 0.725191 -1.103143
v -2.403821 0.725176 -1.102424
v -2.404555 0.725699 -1.101994
v -2.402596 0.727309 -1.104651
v -2.401589 0.727525 -1.105122
v -2.401667 0.726009 -1.10416
v -2.402205 0.725349 -1.103636
v -2.405905 0.72713 -1.101713
v -2.404293 0.725256 -1.101729
v -2.4077 0.729604 -1.1021
v -2.404555 0.725699 -1.101994
v -2.402046 0.724731 -1.103243
v -2.401426 0.725564 -1.103879
v -2.402802 0.724587 -1.102845
v -2.401667 0.726009 -1.10416
v -2.40685 0.7408 -1.112601
v -2.408504 0.74162 -1.113104
v -2.405447 0.739511 -1.111814
v -2.408666 0.741408 -1.113005
v -2.413163 0.741854 -1.111452
v -2.413357 0.741099 -1.109464
v -2.41233 0.742244 -1.113024
v -2.413189 0.740923 -1.109612
v -2.413213 0.740118 -1.107828
v -2.412667 0.738737 -1.106398
v -2.403404 0.724585 -1.102223
v -2.40123 0.727631 -1.10522
v -2.40145 0.730274 -1.106789
v -2.410554 0.742133 -1.11341
v -2.404148 0.73759 -1.110653
v -2.403007 0.735283 -1.109344
v -2.41165 0.736786 -1.105026
v -2.410397 0.734491 -1.103801
v -2.409139 0.732077 -1.102811
v -2.402075 0.732835 -1.108109
vn 0.163 0.7135 0.6814
vn 0.333 0.7637 0.5531
vn 0.3626 0.724 0.5868
vn 0.2121 0.6783 0.7035
vn 0.232 0.6626 0.7121
vn 0.1701 0.7152 0.6779
vn 0.1261 0.7494 0.65
vn 0.1498 0.7805 0.607
vn 0.2844 0.8201 0.4964
vn 0.5081 0.7505 0.4225
vn 0.5025 0.7509 0.4284
vn 0.5257 0.6941 0.4919
vn 0.5206 0.7114 0.472
vn 0.4316 0.8107 0.3956
vn 0.4833 0.7877 0.382
vn 0.5561 0.5349 0.636
vn 0.5314 0.5264 0.6637
vn 0.541 0.4986 0.6773
vn 0.5743 0.5067 0.643
vn 0.4882 0.4915 0.7211
vn 0.4726 0.528 0.7055
vn 0.4387 0.5984 0.6704
vn 0.5359 0.598 0.5959
vn 0.5227 0.5834 0.6216
vn 0.3829 0.5163 0.766
vn 0.3884 0.4868 0.7823
vn 0.4313 0.4868 0.7596
vn 0.4171 0.514 0.7495
vn 0.3716 0.5671 0.735
vn 0.3415 0.5772 0.7418
vn 0.2775 0.638 0.7183
vn 0.3976 0.6709 0.6259
vn 0.3035 0.621 0.7226
vn 0.5226 0.6643 0.5344
vn 0.522 0.6444 0.5587
vn 0.5981 0.4949 0.6303
vn 0.5648 0.4828 0.6692
vn 0.5941 0.4691 0.6534
vn 0.6329 0.4452 0.6334
vn 0.5141 0.4237 0.7458
vn 0.4953 0.474 0.728
vn 0.3715 0.4706 0.8003
vn 0.3718 0.417 0.8293
vn 0.3981 0.448 0.8005
vn 0.4193 0.4673 0.7783
vn -0.1506 -0.6907 -0.7072
vn -0.3413 -0.753 -0.5626
vn -0.3722 -0.71 -0.5977
vn -0.1102 -0.6189 -0.7776
vn -0.0201 -0.5563 -0.8307
vn -0.037 -0.5732 -0.8186
vn -0.0994 -0.5974 -0.7957
vn -0.1998 -0.6737 -0.7114
vn -0.3625 -0.7241 -0.5867
vn -0.5391 -0.7324 -0.4158
vn -0.692 -0.6435 -0.3272
vn -0.7104 -0.6304 -0.3128
vn -0.6271 -0.6742 -0.3901
vn -0.5322 -0.7093 -0.4621
vn -0.65 -0.6564 -0.3827
vn -0.5676 -0.5363 -0.6246
vn -0.6426 -0.5433 -0.5402
vn -0.6292 -0.5865 -0.5099
vn -0.5468 -0.5984 -0.5855
vn -0.4388 -0.5982 -0.6705
vn -0.4727 -0.5278 -0.7056
vn -0.4883 -0.4914 -0.7212
vn -0.5867 -0.5102 -0.6288
vn -0.6599 -0.5402 -0.5222
vn -0.3686 -0.515 -0.7739
vn -0.3286 -0.575 -0.7492
vn -0.2358 -0.5443 -0.805
vn -0.267 -0.5031 -0.8219
vn -0.2456 -0.4959 -0.8329
vn -0.371 -0.487 -0.7906
vn -0.2651 -0.6351 -0.7255
vn -0.3976 -0.6709 -0.6259
vn -0.1722 -0.585 -0.7925
vn -0.5332 -0.6638 -0.5244
vn -0.629 -0.6341 -0.4498
vn -0.6092 -0.5124 -0.6052
vn -0.6804 -0.5657 -0.4658
vn -0.491 -0.4847 -0.7239
vn -0.4715 -0.5306 -0.7044
vn -0.6318 -0.5709 -0.5243
vn -0.6887 -0.5846 -0.4288
vn -0.3422 -0.4838 -0.8055
vn -0.1828 -0.5124 -0.839
vn -0.1427 -0.5262 -0.8383
vn -0.251 -0.53 -0.81
vn -0.492 -0.2975 0.8182
vn -0.1711 -0.557 0.8126
vn -0.6031 -0.1978 0.7727
vn -0.6887 -0.5846 -0.4288
vn 0.5499 -0.8049 0.223
vn 0.8964 -0.443 0.012
vn 0.2918 -0.9211 0.2575
vn -0.1427 -0.5262 -0.8383
vn 0.6694 0.5297 -0.5209
vn 0.3999 0.6837 -0.6105
vn 0.8012 0.3732 -0.4677
vn -0.0201 -0.5563 -0.8307
vn -0.7999 0.5782 -0.1606
vn -0.7831 0.557 0.2766
vn -0.5257 0.5854 -0.6171
vn -0.7104 -0.6304 -0.3128
vn -0.7497 0.3775 0.5435
vn -0.7133 0.2108 0.6683
vn 0.1732 -0.8452 0.5056
vn 0.9533 -0.1429 -0.2659
vn 0.9265 -0.0344 -0.3745
vn -0.0158 0.6623 -0.7491
vn 0.8637 0.2418 -0.4422
vn 0.886 0.1573 -0.4361
vn -0.6877 0.0748 0.7221
vn -0.6767 -0.0102 0.7361
vn -0.6612 -0.094 0.7443
vn 0.9013 0.0726 -0.4271
vt 0.839504 0.118056
vt 0.856743 0.205307
vt 0.741230 0.205307
vt 0.734555 0.106726
vt 0.724541 0.032791
vt 0.813647 0.052618
vt 0.868992 0.081539
vt 0.913398 0.129584
vt 0.940923 0.205307
vt 0.839504 0.292557
vt 0.813647 0.357995
vt 0.724541 0.377822
vt 0.734555 0.303887
vt 0.913398 0.281029
vt 0.868992 0.329074
vt 0.369475 0.299954
vt 0.368286 0.370940
vt 0.245840 0.351447
vt 0.246397 0.288815
vt 0.246768 0.205307
vt 0.370268 0.205307
vt 0.494283 0.205307
vt 0.492822 0.304944
vt 0.490632 0.379672
vt 0.369475 0.110659
vt 0.246397 0.121798
vt 0.245841 0.059166
vt 0.368286 0.039673
vt 0.490632 0.030941
vt 0.492822 0.105669
vt 0.616755 0.103478
vt 0.619174 0.205307
vt 0.613127 0.027106
vt 0.616755 0.307135
vt 0.613126 0.383507
vt 0.123273 0.268175
vt 0.123047 0.315326
vt 0.054743 0.283353
vt 0.030912 0.249131
vt 0.030973 0.205306
vt 0.123423 0.205306
vt 0.123273 0.142438
vt 0.030912 0.161481
vt 0.054744 0.127260
vt 0.123047 0.095287
vt 0.839504 0.118056
vt 0.856743 0.205307
vt 0.968983 0.205307
vt 0.938030 0.133427
vt 0.876123 0.061548
vt 0.805028 0.030806
vt 0.721203 0.008146
vt 0.734555 0.106726
vt 0.741230 0.205307
vt 0.839504 0.292557
vt 0.805028 0.379807
vt 0.876123 0.349065
vt 0.938030 0.277186
vt 0.734555 0.303887
vt 0.721203 0.402467
vt 0.369475 0.299954
vt 0.367890 0.394602
vt 0.489902 0.404581
vt 0.492822 0.304944
vt 0.494283 0.205307
vt 0.370268 0.205307
vt 0.246768 0.205307
vt 0.246397 0.288815
vt 0.245655 0.372324
vt 0.369475 0.110659
vt 0.492822 0.105669
vt 0.489902 0.006032
vt 0.367890 0.016011
vt 0.245655 0.038289
vt 0.246397 0.121798
vt 0.616755 0.103478
vt 0.619174 0.205307
vt 0.611917 0.001649
vt 0.616755 0.307135
vt 0.611917 0.408964
vt 0.123273 0.268175
vt 0.122972 0.331043
vt 0.123423 0.205306
vt 0.000156 0.205306
vt 0.000125 0.242784
vt 0.000064 0.280261
vt 0.123273 0.142438
vt 0.122972 0.079570
vt 0.000064 0.130352
vt 0.000125 0.167829
vt 0.122972 0.331043
vt 0.030806 0.283587
vt 0.245655 0.372324
vt 0.030806 0.283587
vt 0.000125 0.167829
vt 0.030806 0.127026
vt 0.000156 0.205306
vt 0.030806 0.127026
vt 0.805028 0.030806
vt 0.873826 0.071832
vt 0.721203 0.008146
vt 0.873826 0.071832
vt 0.938030 0.277186
vt 0.873826 0.338781
vt 0.968983 0.205307
vt 0.873826 0.338781
vt 0.805028 0.379807
vt 0.721203 0.402467
vt 0.000125 0.242784
vt 0.122972 0.079570
vt 0.245655 0.038289
vt 0.938030 0.133427
vt 0.611917 0.001649
vt 0.489902 0.006032
vt 0.611917 0.408964
vt 0.489902 0.404581
vt 0.367890 0.394602
vt 0.367890 0.016011
f 1/1/1 2/2/2 3/3/3
f 1/1/1 3/3/3 4/4/4
f 1/1/1 4/4/4 5/5/5
f 1/1/1 5/5/5 6/6/6
f 1/1/1 6/6/6 7/7/7
f 1/1/1 7/7/7 8/8/8
f 1/1/1 8/8/8 9/9/9
f 1/1/1 9/9/9 2/2/2
f 10/10/10 11/11/11 12/12/12
f 10/10/10 12/12/12 13/13/13
f 10/10/10 13/13/13 3/3/3
f 10/10/10 3/3/3 2/2/2
f 10/10/10 2/2/2 9/9/9
f 10/10/10 9/9/9 14/14/14
f 10/10/10 14/14/14 15/15/15
f 10/10/10 15/15/15 11/11/11
f 16/16/16 17/17/17 18/18/18
f 16/16/16 18/18/18 19/19/19
f 16/16/16 19/19/19 20/20/20
f 16/16/16 20/20/20 21/21/21
f 16/16/16 21/21/21 22/22/22
f 16/16/16 22/22/22 23/23/23
f 16/16/16 23/23/23 24/24/24
f 16/16/16 24/24/24 17/17/17
f 25/25/25 21/21/21 20/20/20
f 25/25/25 20/20/20 26/26/26
f 25/25/25 26/26/26 27/27/27
f 25/25/25 27/27/27 28/28/28
f 25/25/25 28/28/28 29/29/29
f 25/25/25 29/29/29 30/30/30
f 25/25/25 30/30/30 22/22/22
f 25/25/25 22/22/22 21/21/21
f 31/31/31 32/32/32 22/22/22
f 31/31/31 22/22/22 30/30/30
f 31/31/31 30/30/30 29/29/29
f 31/31/31 29/29/29 33/33/33
f 31/31/31 33/33/33 5/5/5
f 31/31/31 5/5/5 4/4/4
f 31/31/31 4/4/4 3/3/3
f 31/31/31 3/3/3 32/32/32
f 34/34/34 35/35/35 24/24/24
f 34/34/34 24/24/24 23/23/23
f 34/34/34 23/23/23 22/22/22
f 34/34/34 22/22/22 32/32/32
f 34/34/34 32/32/32 3/3/3
f 34/34/34 3/3/3 13/13/13
f 34/34/34 13/13/13 12/12/12
f 34/34/34 12/12/12 35/35/35
f 36/36/36 37/37/37 38/38/38
f 36/36/36 38/38/38 39/39/39
f 36/36/36 39/39/39 40/40/40
f 36/36/36 40/40/40 41/41/41
f 36/36/36 41/41/41 20/20/20
f 36/36/36 20/20/20 19/19/19
f 36/36/36 19/19/19 18/18/18
f 36/36/36 18/18/18 37/37/37
f 42/42/42 41/41/41 40/40/40
f 42/42/42 40/40/40 43/43/43
f 42/42/42 43/43/43 44/44/44
f 42/42/42 44/44/44 45/45/45
f 42/42/42 45/45/45 27/27/27
f 42/42/42 27/27/27 26/26/26
f 42/42/42 26/26/26 20/20/20
f 42/42/42 20/20/20 41/41/41
f 46/46/46 47/47/47 48/48/48
f 46/46/46 48/48/48 49/49/49
f 46/46/46 49/49/49 50/50/50
f 46/46/46 50/50/50 51/51/51
f 46/46/46 51/51/51 52/52/52
f 46/46/46 52/52/52 53/53/53
f 46/46/46 53/53/53 54/54/54
f 46/46/46 54/54/54 47/47/47
f 55/55/55 56/56/56 57/57/57
f 55/55/55 57/57/57 58/58/58
f 55/55/55 58/58/58 48/48/48
f 55/55/55 48/48/48 47/47/47
f 55/55/55 47/47/47 54/54/54
f 55/55/55 54/54/54 59/59/59
f 55/55/55 59/59/59 60/60/60
f 55/55/55 60/60/60 56/56/56
f 61/61/61 62/62/62 63/63/63
f 61/61/61 63/63/63 64/64/64
f 61/61/61 64/64/64 65/65/65
f 61/61/61 65/65/65 66/66/66
f 61/61/61 66/66/66 67/67/67
f 61/61/61 67/67/67 68/68/68
f 61/61/61 68/68/68 69/69/69
f 61/61/61 69/69/69 62/62/62
f 70/70/70 66/66/66 65/65/65
f 70/70/70 65/65/65 71/71/71
f 70/70/70 71/71/71 72/72/72
f 70/70/70 72/72/72 73/73/73
f 70/70/70 73/73/73 74/74/74
f 70/70/70 74/74/74 75/75/75
f 70/70/70 75/75/75 67/67/67
f 70/70/70 67/67/67 66/66/66
f 76/76/76 77/77/77 54/54/54
f 76/76/76 54/54/54 53/53/53
f 76/76/76 53/53/53 52/52/52
f 76/76/76 52/52/52 78/78/78
f 76/76/76 78/78/78 72/72/72
f 76/76/76 72/72/72 71/71/71
f 76/76/76 71/71/71 65/65/65
f 76/76/76 65/65/65 77/77/77
f 79/79/79 80/80/80 60/60/60
f 79/79/79 60/60/60 59/59/59
f 79/79/79 59/59/59 54/54/54
f 79/79/79 54/54/54 77/77/77
f 79/79/79 77/77/77 65/65/65
f 79/79/79 65/65/65 64/64/64
f 79/79/79 64/64/64 63/63/63
f 79/79/79 63/63/63 80/80/80
f 81/81/81 82/82/82 69/69/69
f 81/81/81 69/69/69 68/68/68
f 81/81/81 68/68/68 67/67/67
f 81/81/81 67/67/67 83/83/83
f 81/81/81 83/83/83 84/84/84
f 81/81/81 84/84/84 85/85/85
f 81/81/81 85/85/85 86/86/86
f 81/81/81 86/86/86 82/82/82
f 87/87/87 83/83/83 67/67/67
f 87/87/87 67/67/67 75/75/75
f 87/87/87 75/75/75 74/74/74
f 87/87/87 74/74/74 88/88/88
f 87/87/87 88/88/88 89/89/89
f 87/87/87 89/89/89 90/90/90
f 87/87/87 90/90/90 84/84/84
f 87/87/87 84/84/84 83/83/83
f 91/91/91 92/92/92 38/38/38
f 91/91/91 38/38/38 37/37/37
f 91/91/91 37/37/37 18/18/18
f 91/91/91 18/18/18 93/93/93
f 91/91/91 93/93/93 69/69/69
f 91/91/91 69/69/69 82/82/82
f 91/91/91 82/82/82 94/94/94
f 91/91/91 94/94/94 92/92/92
f 95/95/95 96/96/96 44/44/44
f 95/95/95 44/44/44 43/43/43
f 95/95/95 43/43/43 40/40/40
f 95/95/95 40/40/40 97/97/97
f 95/95/95 97/97/97 84/84/84
f 95/95/95 84/84/84 90/90/90
f 95/95/95 90/90/90 98/98/98
f 95/95/95 98/98/98 96/96/96
f 99/99/99 100/100/100 7/7/7
f 99/99/99 7/7/7 6/6/6
f 99/99/99 6/6/6 5/5/5
f 99/99/99 5/5/5 101/101/101
f 99/99/99 101/101/101 52/52/52
f 99/99/99 52/52/52 51/51/51
f 99/99/99 51/51/51 102/102/102
f 99/99/99 102/102/102 100/100/100
f 103/103/103 104/104/104 15/15/15
f 103/103/103 15/15/15 14/14/14
f 103/103/103 14/14/14 9/9/9
f 103/103/103 9/9/9 105/105/105
f 103/103/103 105/105/105 48/48/48
f 103/103/103 48/48/48 58/58/58
f 103/103/103 58/58/58 106/106/106
f 103/103/103 106/106/106 104/104/104
f 107/107/107 108/108/108 12/12/12
f 107/107/107 12/12/12 11/11/11
f 107/107/107 11/11/11 15/15/15
f 107/107/107 15/15/15 104/104/104
f 107/107/107 104/104/104 106/106/106
f 107/107/107 106/106/106 56/56/56
f 107/107/107 56/56/56 60/60/60
f 107/107/107 60/60/60 108/108/108
f 109/109/109 97/97/97 40/40/40
f 109/109/109 40/40/40 39/39/39
f 109/109/109 39/39/39 38/38/38
f 109/109/109 38/38/38 92/92/92
f 109/109/109 92/92/92 94/94/94
f 109/109/109 94/94/94 85/85/85
f 109/109/109 85/85/85 84/84/84
f 109/109/109 84/84/84 97/97/97
f 110/110/110 111/111/111 27/27/27
f 110/110/110 27/27/27 45/45/45
f 110/110/110 45/45/45 44/44/44
f 110/110/110 44/44/44 96/96/96
f 110/110/110 96/96/96 98/98/98
f 110/110/110 98/98/98 88/88/88
f 110/110/110 88/88/88 74/74/74
f 110/110/110 74/74/74 111/111/111
f 112/112/112 105/105/105 9/9/9
f 112/112/112 9/9/9 8/8/8
f 112/112/112 8/8/8 7/7/7
f 112/112/112 7/7/7 100/100/100
f 112/112/112 100/100/100 102/102/102
f 112/112/112 102/102/102 49/49/49
f 112/112/112 49/49/49 48/48/48
f 112/112/112 48/48/48 105/105/105
f 113/113/113 101/101/101 5/5/5
f 113/113/113 5/5/5 33/33/33
f 113/113/113 33/33/33 29/29/29
f 113/113/113 29/29/29 114/114/114
f 113/113/113 114/114/114 72/72/72
f 113/113/113 72/72/72 78/78/78
f 113/113/113 78/78/78 52/52/52
f 113/113/113 52/52/52 101/101/101
f 115/115/115 116/116/116 24/24/24
f 115/115/115 24/24/24 35/35/35
f 115/115/115 35/35/35 12/12/12
f 115/115/115 12/12/12 108/108/108
f 115/115/115 108/108/108 60/60/60
f 115/115/115 60/60/60 80/80/80
f 115/115/115 80/80/80 63/63/63
f 115/115/115 63/63/63 116/116/116
f 117/117/117 93/93/93 18/18/18
f 117/117/117 18/18/18 17/17/17
f 117/117/117 17/17/17 24/24/24
f 117/117/117 24/24/24 116/116/116
f 117/117/117 116/116/116 63/63/63
f 117/117/117 63/63/63 62/62/62
f 117/117/117 62/62/62 69/69/69
f 117/117/117 69/69/69 93/93/93
f 118/118/118 114/114/114 29/29/29
f 118/118/118 29/29/29 28/28/28
f 118/118/118 28/28/28 27/27/27
f 118/118/118 27/27/27 111/111/111
f 118/118/118 111/111/111 74/74/74
f 118/118/118 74/74/74 73/73/73
f 118/118/118 73/73/73 72/72/72
f 118/118/118 72/72/72 114/114/114
