v -2.424361 0.746402 -1.133335
v -2.422962 0.747377 -1.134883
v -2.424505 0.745369 -1.136612
v -2.425875 0.744442 -1.134658
v -2.427147 0.743791 -1.13328
v -2.425768 0.745588 -1.132379
v -2.424552 0.746717 -1.132138
v -2.423161 0.747746 -1.13246
v -2.421751 0.74878 -1.13361
v -2.422571 0.748186 -1.137004
v -2.42263 0.748717 -1.138813
v -2.423582 0.747345 -1.140589
v -2.423842 0.746469 -1.138827
v -2.421612 0.74929 -1.135635
v -2.42201 0.749251 -1.137349
v -2.427331 0.739182 -1.144011
v -2.426804 0.74002 -1.145612
v -2.427728 0.737106 -1.14687
v -2.428181 0.736361 -1.145449
v -2.428905 0.735418 -1.143597
v -2.428162 0.738119 -1.141922
v -2.427224 0.740713 -1.140202
v -2.426373 0.741836 -1.142392
v -2.425853 0.74273 -1.144073
v -2.429324 0.737195 -1.139926
v -2.429944 0.734604 -1.141836
v -2.430817 0.734027 -1.140538
v -2.430296 0.736539 -1.138453
v -2.429505 0.739088 -1.136585
v -2.428458 0.739758 -1.138118
v -2.427275 0.7422 -1.136307
v -2.425965 0.743139 -1.138409
v -2.428424 0.741565 -1.134771
v -2.42516 0.744309 -1.140644
v -2.424717 0.745261 -1.142371
v -2.429073 0.733389 -1.146654
v -2.428782 0.733964 -1.14773
v -2.429396 0.73205 -1.147926
v -2.429729 0.731092 -1.147465
v -2.430025 0.73058 -1.146496
v -2.429576 0.732671 -1.145261
v -2.430388 0.732077 -1.143957
v -2.43063 0.730193 -1.145617
v -2.431018 0.730433 -1.144601
v -2.431089 0.731665 -1.143002
v -2.424188 0.746242 -1.133288
v -2.422774 0.747228 -1.134863
v -2.421611 0.748666 -1.133597
v -2.423034 0.747623 -1.132425
v -2.424461 0.746625 -1.132106
v -2.425647 0.745463 -1.132329
v -2.42702 0.743672 -1.13323
v -2.425696 0.744289 -1.134608
v -2.424312 0.745227 -1.136587
v -2.422371 0.748053 -1.137012
v -2.422475 0.748625 -1.138833
v -2.421898 0.74918 -1.137361
v -2.421463 0.749189 -1.135645
v -2.423638 0.746341 -1.138827
v -2.423424 0.747256 -1.140601
v -2.427113 0.739083 -1.143979
v -2.426637 0.739951 -1.145597
v -2.425688 0.742654 -1.144065
v -2.426159 0.741728 -1.142368
v -2.427017 0.740594 -1.140159
v -2.427952 0.738011 -1.141871
v -2.428692 0.735318 -1.143542
v -2.42796 0.73627 -1.145412
v -2.427559 0.737043 -1.146851
v -2.429123 0.737079 -1.139858
v -2.428262 0.739631 -1.138057
v -2.429364 0.738989 -1.136529
v -2.43015 0.736448 -1.138394
v -2.430669 0.733942 -1.140475
v -2.42974 0.734496 -1.141763
v -2.427087 0.74206 -1.136252
v -2.425766 0.743008 -1.138375
v -2.428289 0.741456 -1.134719
v -2.424951 0.74419 -1.140631
v -2.424556 0.745177 -1.142372
v -2.42885 0.733301 -1.146616
v -2.428612 0.733904 -1.147711
v -2.429362 0.732574 -1.145203
v -2.429864 0.730508 -1.146453
v -2.429561 0.731027 -1.147437
v -2.429271 0.732004 -1.147909
v -2.430184 0.731972 -1.143881
v -2.430941 0.731581 -1.142936
v -2.430907 0.730372 -1.144554
v -2.430477 0.730114 -1.145559
v -2.428609 0.73413 -1.148083
v -2.429519 0.73151 -1.148253
v -2.427501 0.737327 -1.147338
v -2.429271 0.732004 -1.147909
v -2.430643 0.72953 -1.146145
v -2.431144 0.72989 -1.144922
v -2.430104 0.729852 -1.146889
v -2.430907 0.730372 -1.144554
v -2.426185 0.745259 -1.132035
v -2.424626 0.74673 -1.131853
v -2.427516 0.74352 -1.132796
v -2.424461 0.746625 -1.132106
v -2.421227 0.749613 -1.135184
v -2.421876 0.749471 -1.137491
v -2.421285 0.749196 -1.13318
v -2.421898 0.74918 -1.137361
v -2.422579 0.748855 -1.139428
v -2.423424 0.747599 -1.141185
v -2.429873 0.730298 -1.147723
v -2.431258 0.731489 -1.142652
v -2.431043 0.733796 -1.140076
v -2.422705 0.748139 -1.132153
v -2.428749 0.741304 -1.134234
v -2.429793 0.73882 -1.136047
v -2.424497 0.745542 -1.14295
v -2.425605 0.742995 -1.144632
v -2.426553 0.74027 -1.146141
v -2.430556 0.736279 -1.137934
vn -0.6614 0.7105 -0.24
vn -0.7558 0.6528 -0.0511
vn -0.7854 0.6132 -0.0848
vn -0.703 0.6638 -0.2551
vn -0.7193 0.6435 -0.2616
vn -0.6662 0.7082 -0.2339
vn -0.6258 0.7505 -0.2124
vn -0.6337 0.7578 -0.1553
vn -0.7041 0.7101 0.0018
vn -0.8354 0.5371 0.1166
vn -0.8336 0.5412 0.1097
vn -0.8673 0.496 0.0418
vn -0.8585 0.5088 0.0637
vn -0.7759 0.616 0.136
vn -0.8058 0.571 0.1567
vn -0.917 0.3764 -0.1322
vn -0.9072 0.3858 -0.1679
vn -0.9138 0.3604 -0.187
vn -0.9275 0.3456 -0.1427
vn -0.8889 0.3866 -0.2456
vn -0.8787 0.4217 -0.2235
vn -0.8535 0.4898 -0.1781
vn -0.8987 0.4311 -0.0806
vn -0.8958 0.4298 -0.1129
vn -0.8296 0.4634 -0.3113
vn -0.8338 0.439 -0.3348
vn -0.8585 0.4156 -0.3002
vn -0.8495 0.4433 -0.286
vn -0.8196 0.5057 -0.2691
vn -0.8007 0.5288 -0.2814
vn -0.7532 0.604 -0.2604
vn -0.8183 0.5606 -0.1265
vn -0.7721 0.5791 -0.2616
vn -0.8767 0.4808 -0.0071
vn -0.8823 0.4693 -0.0358
vn -0.9379 0.3222 -0.1281
vn -0.9254 0.3347 -0.1779
vn -0.9384 0.3064 -0.1594
vn -0.9544 0.2644 -0.1381
vn -0.9031 0.322 -0.284
vn -0.8932 0.3699 -0.2558
vn -0.8238 0.436 -0.3623
vn -0.8228 0.3958 -0.4078
vn -0.8397 0.4047 -0.3619
vn -0.8522 0.4076 -0.328
vn 0.6572 -0.7016 0.2753
vn 0.7642 -0.6421 0.0605
vn 0.7947 -0.5993 0.0963
vn 0.637 -0.672 0.3776
vn 0.5698 -0.6676 0.4791
vn 0.5828 -0.6725 0.4562
vn 0.6306 -0.6619 0.4051
vn 0.6953 -0.6668 0.2681
vn 0.7853 -0.6133 0.0848
vn 0.853 -0.5064 -0.1261
vn 0.9128 -0.3435 -0.2206
vn 0.9177 -0.3208 -0.2342
vn 0.8975 -0.4124 -0.1563
vn 0.8628 -0.4998 -0.0754
vn 0.9081 -0.3853 -0.1637
vn 0.9214 -0.3701 0.1179
vn 0.9455 -0.3252 0.017
vn 0.932 -0.3618 -0.021
vn 0.9029 -0.4245 0.0678
vn 0.8535 -0.4896 0.1782
vn 0.8788 -0.4215 0.2236
vn 0.8889 -0.3865 0.2456
vn 0.9321 -0.34 0.1249
vn 0.9503 -0.3111 -0.0031
vn 0.8211 -0.4701 0.3235
vn 0.7929 -0.5341 0.2932
vn 0.7338 -0.5594 0.3855
vn 0.7562 -0.5138 0.405
vn 0.7416 -0.5192 0.4247
vn 0.8233 -0.4484 0.3479
vn 0.7456 -0.6083 0.272
vn 0.8183 -0.5607 0.1265
vn 0.6861 -0.6193 0.3815
vn 0.8807 -0.4736 -0.0049
vn 0.9164 -0.3898 -0.0905
vn 0.9401 -0.3271 0.096
vn 0.9477 -0.3118 -0.0682
vn 0.8906 -0.3801 0.2495
vn 0.8779 -0.4242 0.222
vn 0.9366 -0.3504 -0.0034
vn 0.9422 -0.3165 -0.11
vn 0.8055 -0.4612 0.372
vn 0.6969 -0.5617 0.4458
vn 0.6671 -0.5907 0.454
vn 0.7447 -0.5417 0.3898
vn 0.1022 0.1346 -0.9856
vn -0.0898 -0.2309 -0.9688
vn 0.1883 0.259 -0.9473
vn 0.9422 -0.3165 -0.11
vn -0.3385 -0.8881 -0.3107
vn -0.6276 -0.7669 0.1335
vn -0.1075 -0.8723 -0.4769
vn 0.6671 -0.5907 0.454
vn -0.4571 0.06 0.8874
vn -0.2331 0.2895 0.9283
vn -0.5483 -0.1209 0.8275
vn 0.5698 -0.6676 0.4791
vn 0.5806 0.8103 0.08
vn 0.3634 0.8839 -0.2941
vn 0.5683 0.5963 0.567
vn 0.9177 -0.3208 -0.2342
vn 0.2584 0.7732 -0.579
vn 0.2153 0.6403 -0.7373
vn -0.1488 -0.6994 -0.6991
vn -0.6263 -0.5917 0.5076
vn -0.5826 -0.5093 0.6334
vn 0.1851 0.4163 0.8902
vn -0.5756 -0.2564 0.7765
vn -0.5732 -0.3381 0.7464
vn 0.2064 0.5229 -0.827
vn 0.2143 0.4466 -0.8686
vn 0.221 0.3681 -0.9031
vn -0.5662 -0.4161 0.7115
vt 0.839504 0.118056
vt 0.856743 0.205307
vt 0.741230 0.205307
vt 0.734555 0.106726
vt 0.724541 0.032791
vt 0.813647 0.052618
vt 0.868992 0.081539
vt 0.913398 0.129584
vt 0.940923 0.205307
vt 0.839504 0.292557
vt 0.813647 0.357995
vt 0.724541 0.377822
vt 0.734555 0.303887
vt 0.913398 0.281029
vt 0.868992 0.329074
vt 0.369475 0.299954
vt 0.368286 0.370940
vt 0.245840 0.351447
vt 0.246397 0.288815
vt 0.246768 0.205307
vt 0.370268 0.205307
vt 0.494283 0.205307
vt 0.492822 0.304944
vt 0.490632 0.379672
vt 0.369475 0.110659
vt 0.246397 0.121798
vt 0.245841 0.059166
vt 0.368286 0.039673
vt 0.490632 0.030941
vt 0.492822 0.105669
vt 0.616755 0.103478
vt 0.619174 0.205307
vt 0.613127 0.027106
vt 0.616755 0.307135
vt 0.613126 0.383507
vt 0.123273 0.268175
vt 0.123047 0.315326
vt 0.054743 0.283353
vt 0.030912 0.249131
vt 0.030973 0.205306
vt 0.123423 0.205306
vt 0.123273 0.142438
vt 0.030912 0.161481
vt 0.054744 0.127260
vt 0.123047 0.095287
vt 0.839504 0.118056
vt 0.856743 0.205307
vt 0.968983 0.205307
vt 0.938030 0.133427
vt 0.876123 0.061548
vt 0.805028 0.030806
vt 0.721203 0.008146
vt 0.734555 0.106726
vt 0.741230 0.205307
vt 0.839504 0.292557
vt 0.805028 0.379807
vt 0.876123 0.349065
vt 0.938030 0.277186
vt 0.734555 0.303887
vt 0.721203 0.402467
vt 0.369475 0.299954
vt 0.367890 0.394602
vt 0.489902 0.404581
vt 0.492822 0.304944
vt 0.494283 0.205307
vt 0.370268 0.205307
vt 0.246768 0.205307
vt 0.246397 0.288815
vt 0.245655 0.372324
vt 0.369475 0.110659
vt 0.492822 0.105669
vt 0.489902 0.006032
vt 0.367890 0.016011
vt 0.245655 0.038289
vt 0.246397 0.121798
vt 0.616755 0.103478
vt 0.619174 0.205307
vt 0.611917 0.001649
vt 0.616755 0.307135
vt 0.611917 0.408964
vt 0.123273 0.268175
vt 0.122972 0.331043
vt 0.123423 0.205306
vt 0.000156 0.205306
vt 0.000125 0.242784
vt 0.000064 0.280261
vt 0.123273 0.142438
vt 0.122972 0.079570
vt 0.000064 0.130352
vt 0.000125 0.167829
vt 0.122972 0.331043
vt 0.030806 0.283587
vt 0.245655 0.372324
vt 0.030806 0.283587
vt 0.000125 0.167829
vt 0.030806 0.127026
vt 0.000156 0.205306
vt 0.030806 0.127026
vt 0.805028 0.030806
vt 0.873826 0.071832
vt 0.721203 0.008146
vt 0.873826 0.071832
vt 0.938030 0.277186
vt 0.873826 0.338781
vt 0.968983 0.205307
vt 0.873826 0.338781
vt 0.805028 0.379807
vt 0.721203 0.402467
vt 0.000125 0.242784
vt 0.122972 0.079570
vt 0.245655 0.038289
vt 0.938030 0.133427
vt 0.611917 0.001649
vt 0.489902 0.006032
vt 0.611917 0.408964
vt 0.489902 0.404581
vt 0.367890 0.394602
vt 0.367890 0.016011
f 1/1/1 2/2/2 3/3/3
f 1/1/1 3/3/3 4/4/4
f 1/1/1 4/4/4 5/5/5
f 1/1/1 5/5/5 6/6/6
f 1/1/1 6/6/6 7/7/7
f 1/1/1 7/7/7 8/8/8
f 1/1/1 8/8/8 9/9/9
f 1/1/1 9/9/9 2/2/2
f 10/10/10 11/11/11 12/12/12
f 10/10/10 12/12/12 13/13/13
f 10/10/10 13/13/13 3/3/3
f 10/10/10 3/3/3 2/2/2
f 10/10/10 2/2/2 9/9/9
f 10/10/10 9/9/9 14/14/14
f 10/10/10 14/14/14 15/15/15
f 10/10/10 15/15/15 11/11/11
f 16/16/16 17/17/17 18/18/18
f 16/16/16 18/18/18 19/19/19
f 16/16/16 19/19/19 20/20/20
f 16/16/16 20/20/20 21/21/21
f 16/16/16 21/21/21 22/22/22
f 16/16/16 22/22/22 23/23/23
f 16/16/16 23/23/23 24/24/24
f 16/16/16 24/24/24 17/17/17
f 25/25/25 21/21/21 20/20/20
f 25/25/25 20/20/20 26/26/26
f 25/25/25 26/26/26 27/27/27
f 25/25/25 27/27/27 28/28/28
f 25/25/25 28/28/28 29/29/29
f 25/25/25 29/29/29 30/30/30
f 25/25/25 30/30/30 22/22/22
f 25/25/25 22/22/22 21/21/21
f 31/31/31 32/32/32 22/22/22
f 31/31/31 22/22/22 30/30/30
f 31/31/31 30/30/30 29/29/29
f 31/31/31 29/29/29 33/33/33
f 31/31/31 33/33/33 5/5/5
f 31/31/31 5/5/5 4/4/4
f 31/31/31 4/4/4 3/3/3
f 31/31/31 3/3/3 32/32/32
f 34/34/34 35/35/35 24/24/24
f 34/34/34 24/24/24 23/23/23
f 34/34/34 23/23/23 22/22/22
f 34/34/34 22/22/22 32/32/32
f 34/34/34 32/32/32 3/3/3
f 34/34/34 3/3/3 13/13/13
f 34/34/34 13/13/13 12/12/12
f 34/34/34 12/12/12 35/35/35
f 36/36/36 37/37/37 38/38/38
f 36/36/36 38/38/38 39/39/39
f 36/36/36 39/39/39 40/40/40
f 36/36/36 40/40/40 41/41/41
f 36/36/36 41/41/41 20/20/20
f 36/36/36 20/20/20 19/19/19
f 36/36/36 19/19/19 18/18/18
f 36/36/36 18/18/18 37/37/37
f 42/42/42 41/41/41 40/40/40
f 42/42/42 40/40/40 43/43/43
f 42/42/42 43/43/43 44/44/44
f 42/42/42 44/44/44 45/45/45
f 42/42/42 45/45/45 27/27/27
f 42/42/42 27/27/27 26/26/26
f 42/42/42 26/26/26 20/20/20
f 42/42/42 20/20/20 41/41/41
f 46/46/46 47/47/47 48/48/48
f 46/46/46 48/48/48 49/49/49
f 46/46/46 49/49/49 50/50/50
f 46/46/46 50/50/50 51/51/51
f 46/46/46 51/51/51 52/52/52
f 46/46/46 52/52/52 53/53/53
f 46/46/46 53/53/53 54/54/54
f 46/46/46 54/54/54 47/47/47
f 55/55/55 56/56/56 57/57/57
f 55/55/55 57/57/57 58/58/58
f 55/55/55 58/58/58 48/48/48
f 55/55/55 48/48/48 47/47/47
f 55/55/55 47/47/47 54/54/54
f 55/55/55 54/54/54 59/59/59
f 55/55/55 59/59/59 60/60/60
f 55/55/55 60/60/60 56/56/56
f 61/61/61 62/62/62 63/63/63
f 61/61/61 63/63/63 64/64/64
f 61/61/61 64/64/64 65/65/65
f 61/61/61 65/65/65 66/66/66
f 61/61/61 66/66/66 67/67/67
f 61/61/61 67/67/67 68/68/68
f 61/61/61 68/68/68 69/69/69
f 61/61/61 69/69/69 62/62/62
f 70/70/70 66/66/66 65/65/65
f 70/70/70 65/65/65 71/71/71
f 70/70/70 71/71/71 72/72/72
f 70/70/70 72/72/72 73/73/73
f 70/70/70 73/73/73 74/74/74
f 70/70/70 74/74/74 75/75/75
f 70/70/70 75/75/75 67/67/67
f 70/70/70 67/67/67 66/66/66
f 76/76/76 77/77/77 54/54/54
f 76/76/76 54/54/54 53/53/53
f 76/76/76 53/53/53 52/52/52
f 76/76/76 52/52/52 78/78/78
f 76/76/76 78/78/78 72/72/72
f 76/76/76 72/72/72 71/71/71
f 76/76/76 71/71/71 65/65/65
f 76/76/76 65/65/65 77/77/77
f 79/79/79 80/80/80 60/60/60
f 79/79/79 60/60/60 59/59/59
f 79/79/79 59/59/59 54/54/54
f 79/79/79 54/54/54 77/77/77
f 79/79/79 77/77/77 65/65/65
f 79/79/79 65/65/65 64/64/64
f 79/79/79 64/64/64 63/63/63
f 79/79/79 63/63/63 80/80/80
f 81/81/81 82/82/82 69/69/69
f 81/81/81 69/69/69 68/68/68
f 81/81/81 68/68/68 67/67/67
f 81/81/81 67/67/67 83/83/83
f 81/81/81 83/83/83 84/84/84
f 81/81/81 84/84/84 85/85/85
f 81/81/81 85/85/85 86/86/86
f 81/81/81 86/86/86 82/82/82
f 87/87/87 83/83/83 67/67/67
f 87/87/87 67/67/67 75/75/75
f 87/87/87 75/75/75 74/74/74
f 87/87/87 74/74/74 88/88/88
f 87/87/87 88/88/88 89/89/89
f 87/87/87 89/89/89 90/90/90
f 87/87/87 90/90/90 84/84/84
f 87/87/87 84/84/84 83/83/83
f 91/91/91 92/92/92 38/38/38
f 91/91/91 38/38/38 37/37/37
f 91/91/91 37/37/37 18/18/18
f 91/91/91 18/18/18 93/93/93
f 91/91/91 93/93/93 69/69/69
f 91/91/91 69/69/69 82/82/82
f 91/91/91 82/82/82 94/94/94
f 91/91/91 94/94/94 92/92/92
f 95/95/95 96/96/96 44/44/44
f 95/95/95 44/44/44 43/43/43
f 95/95/95 43/43/43 40/40/40
f 95/95/95 40/40/40 97/97/97
f 95/95/95 97/97/97 84/84/84
f 95/95/95 84/84/84 90/90/90
f 95/95/95 90/90/90 98/98/98
f 95/95/95 98/98/98 96/96/96
f 99/99/99 100/100/100 7/7/7
f 99/99/99 7/7/7 6/6/6
f 99/99/99 6/6/6 5/5/5
f 99/99/99 5/5/5 101/101/101
f 99/99/99 101/101/101 52/52/52
f 99/99/99 52/52/52 51/51/51
f 99/99/99 51/51/51 102/102/102
f 99/99/99 102/102/102 100/100/100
f 103/103/103 104/104/104 15/15/15
f 103/103/103 15/15/15 14/14/14
f 103/103/103 14/14/14 9/9/9
f 103/103/103 9/9/9 105/105/105
f 103/103/103 105/105/105 48/48/48
f 103/103/103 48/48/48 58/58/58
f 103/103/103 58/58/58 106/106/106
f 103/103/103 106/106/106 104/104/104
f 107/107/107 108/108/108 12/12/12
f 107/107/107 12/12/12 11/11/11
f 107/107/107 11/11/11 15/15/15
f 107/107/107 15/15/15 104/104/104
f 107/107/107 104/104/104 106/106/106
f 107/107/107 106/106/106 56/56/56
f 107/107/107 56/56/56 60/60/60
f 107/107/107 60/60/60 108/108/108
f 109/109/109 97/97/97 40/40/40
f 109/109/109 40/40/40 39/39/39
f 109/109/109 39/39/39 38/38/38
f 109/109/109 38/38/38 92/92/92
f 109/109/109 92/92/92 94/94/94
f 109/109/109 94/94/94 85/85/85
f 109/109/109 85/85/85 84/84/84
f 109/109/109 84/84/84 97/97/97
f 110/110/110 111/111/111 27/27/27
f 110/110/110 27/27/27 45/45/45
f 110/110/110 45/45/45 44/44/44
f 110/110/110 44/44/44 96/96/96
f 110/110/110 96/96/96 98/98/98
f 110/110/110 98/98/98 88/88/88
f 110/110/110 88/88/88 74/74/74
f 110/110/110 74/74/74 111/111/111
f 112/112/112 105/105/105 9/9/9
f 112/112/112 9/9/9 8/8/8
f 112/112/112 8/8/8 7/7/7
f 112/112/112 7/7/7 100/100/100
f 112/112/112 100/100/100 102/102/102
f 112/112/112 102/102/102 49/49/49
f 112/112/112 49/49/49 48/48/48
f 112/112/112 48/48/48 105/105/105
f 113/113/113 101/101/101 5/5/5
f 113/113/113 5/5/5 33/33/33
f 113/113/113 33/33/33 29/29/29
f 113/113/113 29/29/29 114/114/114
f 113/113/113 114/114/114 72/72/72
f 113/113/113 72/72/72 78/78/78
f 113/113/113 78/78/78 52/52/52
f 113/113/113 52/52/52 101/101/101
f 115/115/115 116/116/116 24/24/24
f 115/115/115 24/24/24 35/35/35
f 115/115/115 35/35/35 12/12/12
f 115/115/115 12/12/12 108/108/108
f 115/115/115 108/108/108 60/60/60
f 115/115/115 60/60/60 80/80/80
f 115/115/115 80/80/80 63/63/63
f 115/115/115 63/63/63 116/116/116
f 117/117/117 93/93/93 18/18/18
f 117/117/117 18/18/18 17/17/17
f 117/117/117 17/17/17 24/24/24
f 117/117/117 24/24/24 116/116/116
f 117/117/117 116/116/116 63/63/63
f 117/117/117 63/63/63 62/62/62
f 117/117/117 62/62/62 69/69/69
f 117/117/117 69/69/69 93/93/93
f 118/118/118 114/114/114 29/29/29
f 118/118/118 29/29/29 28/28/28
f 118/118/118 28/28/28 27/27/27
f 118/118/118 27/27/27 111/111/111
f 118/118/118 111/111/111 74/74/74
f 118/118/118 74/74/74 73/73/73
f 118/118/118 73/73/73 72/72/72
f 118/118/118 72/72/72 114/114/114
