v -2.422864 0.723504 -1.09094
v -2.421957 0.723359 -1.088667
v -2.419234 0.72348 -1.090463
v -2.420559 0.723563 -1.092843
v -2.421451 0.723864 -1.094735
v -2.423259 0.723872 -1.092874
v -2.424129 0.723661 -1.091329
v -2.424436 0.723342 -1.089509
v -2.423942 0.723158 -1.087344
v -2.420282 0.723992 -1.086992
v -2.418731 0.724728 -1.085951
v -2.416307 0.724837 -1.08687
v -2.417625 0.724118 -1.088357
v -2.422201 0.723764 -1.086092
v -2.420462 0.724354 -1.085722
v -2.409105 0.722706 -1.09382
v -2.407966 0.723159 -1.092234
v -2.405419 0.72208 -1.094409
v -2.406431 0.721665 -1.095807
v -2.407743 0.721248 -1.097702
v -2.410583 0.722247 -1.095968
v -2.41345 0.723011 -1.094188
v -2.411902 0.723514 -1.091944
v -2.410707 0.724026 -1.090293
v -2.41198 0.722162 -1.098216
v -2.408974 0.721184 -1.099694
v -2.409875 0.721238 -1.101222
v -2.413005 0.722207 -1.099938
v -2.415977 0.723029 -1.098351
v -2.41491 0.722945 -1.096543
v -2.417839 0.723395 -1.094732
v -2.416366 0.723393 -1.092328
v -2.418908 0.723582 -1.096589
v -2.414787 0.723972 -1.090065
v -2.41356 0.724594 -1.088411
v -2.403917 0.720509 -1.09802
v -2.403147 0.720873 -1.096991
v -2.402086 0.720057 -1.098673
v -2.402095 0.719569 -1.099754
v -2.402785 0.719274 -1.100701
v -2.404906 0.720157 -1.099423
v -2.405814 0.72015 -1.100921
v -2.403395 0.719323 -1.101742
v -2.404426 0.719614 -1.102251
v -2.406475 0.720244 -1.102079
v -2.422869 0.723248 -1.090948
v -2.421942 0.723104 -1.088645
v -2.423928 0.722967 -1.08733
v -2.424438 0.72315 -1.089518
v -2.424135 0.723519 -1.091342
v -2.423273 0.723681 -1.092895
v -2.421469 0.723672 -1.094747
v -2.420571 0.723307 -1.092842
v -2.419228 0.723225 -1.090435
v -2.420248 0.723743 -1.086941
v -2.418697 0.724546 -1.085897
v -2.420437 0.724218 -1.085687
v -2.422172 0.723578 -1.086054
v -2.417602 0.723868 -1.088303
v -2.416282 0.724653 -1.086816
v -2.409127 0.72246 -1.093747
v -2.407977 0.722977 -1.092171
v -2.410708 0.723842 -1.090234
v -2.411911 0.723266 -1.091878
v -2.413473 0.722759 -1.094142
v -2.410618 0.721998 -1.095914
v -2.407786 0.721001 -1.097643
v -2.406462 0.721421 -1.095729
v -2.405436 0.7219 -1.094341
v -2.412027 0.721911 -1.098182
v -2.414945 0.722692 -1.096517
v -2.416011 0.722839 -1.098342
v -2.413046 0.722019 -1.099921
v -2.409923 0.721051 -1.101202
v -2.40903 0.720936 -1.099655
v -2.417862 0.72314 -1.094718
v -2.416374 0.723139 -1.092291
v -2.418933 0.723391 -1.09659
v -2.41478 0.723722 -1.090006
v -2.413548 0.724409 -1.088355
v -2.40395 0.720267 -1.097939
v -2.403165 0.720694 -1.09692
v -2.404953 0.719911 -1.099362
v -2.402821 0.71909 -1.100655
v -2.402119 0.719388 -1.099692
v -2.402101 0.719923 -1.098624
v -2.405874 0.719903 -1.100881
v -2.406526 0.720058 -1.102059
v -2.404462 0.719477 -1.102234
v -2.403441 0.719138 -1.101713
v -2.402897 0.720915 -1.096614
v -2.40153 0.719835 -1.099005
v -2.405088 0.722139 -1.093911
v -2.402101 0.719923 -1.098624
v -2.402609 0.718965 -1.102003
v -2.403874 0.719392 -1.102589
v -2.402094 0.718898 -1.101106
v -2.404462 0.719477 -1.102234
v -2.4234 0.72391 -1.093531
v -2.424401 0.723677 -1.091485
v -2.421758 0.723879 -1.095374
v -2.424135 0.723519 -1.091342
v -2.422827 0.723606 -1.085775
v -2.420434 0.724427 -1.085419
v -2.424596 0.723006 -1.086897
v -2.420437 0.724218 -1.085687
v -2.418197 0.724894 -1.085576
v -2.415855 0.724995 -1.086348
v -2.401498 0.719175 -1.100304
v -2.406719 0.720193 -1.102458
v -2.410198 0.721173 -1.101725
v -2.42496 0.723202 -1.089037
v -2.419278 0.72356 -1.097211
v -2.41635 0.722973 -1.098952
v -2.413144 0.72472 -1.087832
v -2.410308 0.724115 -1.089714
v -2.40759 0.72323 -1.091676
v -2.413366 0.722138 -1.100506
vn 0.0349 0.9928 0.1144
vn -0.1028 0.9931 -0.0556
vn -0.0527 0.9947 -0.0885
vn 0.0722 0.9954 0.0622
vn 0.0881 0.9953 0.0406
vn 0.0308 0.9937 0.1076
vn -0.0105 0.988 0.1538
vn -0.0643 0.9891 0.1322
vn -0.1801 0.9836 -0.0038
vn -0.2008 0.9482 -0.246
vn -0.1964 0.9507 -0.2398
vn -0.1124 0.9573 -0.2661
vn -0.1385 0.9556 -0.2601
vn -0.2569 0.9527 -0.1621
vn -0.2545 0.9419 -0.2192
vn 0.0992 0.9448 -0.3123
vn 0.1267 0.9496 -0.2865
vn 0.1549 0.9412 -0.3002
vn 0.122 0.9341 -0.3354
vn 0.195 0.9497 -0.2449
vn 0.16 0.9615 -0.2235
vn 0.089 0.9797 -0.1793
vn 0.0285 0.9585 -0.2836
vn 0.058 0.9609 -0.2707
vn 0.2175 0.9672 -0.1313
vn 0.2489 0.9581 -0.1412
vn 0.2297 0.9553 -0.1858
vn 0.2048 0.9644 -0.1671
vn 0.1613 0.9804 -0.1128
vn 0.1613 0.9836 -0.0806
vn 0.1067 0.9942 -0.0081
vn 0.0099 0.9916 -0.1291
vn 0.1199 0.9921 -0.0364
vn -0.0606 0.9626 -0.264
vn -0.0293 0.9639 -0.2647
vn 0.1191 0.9242 -0.3629
vn 0.158 0.9313 -0.328
vn 0.1538 0.9194 -0.3619
vn 0.1525 0.9002 -0.4078
vn 0.2568 0.9243 -0.2822
vn 0.2113 0.9436 -0.2549
vn 0.2738 0.9534 -0.1262
vn 0.3309 0.9339 -0.1351
vn 0.2876 0.9447 -0.1572
vn 0.2573 0.9501 -0.1762
vn -0.0699 -0.9897 -0.1246
vn 0.089 -0.9939 0.0646
vn 0.0357 -0.9944 0.0996
vn -0.172 -0.9725 -0.1566
vn -0.2575 -0.937 -0.236
vn -0.2365 -0.9459 -0.2221
vn -0.2003 -0.9658 -0.1645
vn -0.0819 -0.9939 -0.074
vn 0.0529 -0.9947 0.0884
vn 0.1954 -0.9395 0.2812
vn 0.2111 -0.8613 0.4622
vn 0.2141 -0.8478 0.4852
vn 0.1809 -0.9058 0.3832
vn 0.1452 -0.9509 0.2731
vn 0.1758 -0.8947 0.4105
vn -0.089 -0.9416 0.3246
vn -0.0173 -0.9131 0.4073
vn 0.0332 -0.9208 0.3886
vn -0.0198 -0.9551 0.2955
vn -0.0891 -0.9797 0.1794
vn -0.1601 -0.9614 0.2236
vn -0.195 -0.9497 0.245
vn -0.1085 -0.9309 0.3486
vn -0.005 -0.9041 0.4271
vn -0.225 -0.9673 0.1168
vn -0.1689 -0.9833 0.0676
vn -0.2355 -0.9716 -0.0222
vn -0.2739 -0.9616 0.0151
vn -0.2879 -0.9576 -0.0053
vn -0.2559 -0.9588 0.1234
vn -0.1147 -0.9934 -0.0042
vn -0.0099 -0.9916 0.1291
vn -0.2025 -0.975 -0.0913
vn 0.0684 -0.9587 0.2758
vn 0.1095 -0.916 0.3859
vn -0.0882 -0.9236 0.3731
vn 0.0551 -0.8918 0.4491
vn -0.2014 -0.9474 0.2489
vn -0.1575 -0.9622 0.222
vn 0.0122 -0.9196 0.3927
vn 0.0958 -0.8838 0.458
vn -0.2705 -0.9581 0.0942
vn -0.2847 -0.956 -0.0705
vn -0.277 -0.9543 -0.1122
vn -0.2479 -0.9688 -0.005
vn 0.8349 0.177 0.5211
vn 0.9857 0.0771 0.1501
vn 0.7404 0.1885 0.6451
vn 0.0958 -0.8838 0.458
vn 0.6704 -0.2794 -0.6874
vn 0.257 -0.061 -0.9644
vn 0.785 -0.4118 -0.4627
vn -0.277 -0.9543 -0.1122
vn -0.7725 0.2286 -0.5925
vn -0.9279 0.2065 -0.3102
vn -0.6362 0.1874 -0.7483
vn -0.2575 -0.937 -0.236
vn -0.4623 0.0884 0.8823
vn -0.1197 0.3594 0.9255
vn -0.8234 -0.1238 0.5538
vn 0.2141 -0.8478 0.4852
vn 0.1971 0.4118 0.8897
vn 0.3984 0.383 0.8334
vn 0.9274 -0.2308 -0.2944
vn -0.1522 -0.0095 -0.9883
vn -0.3044 -0.009 -0.9525
vn -0.9979 -0.0128 0.0634
vn -0.5336 0.1273 -0.8361
vn -0.4746 0.0771 -0.8768
vn 0.5264 0.3277 0.7845
vn 0.5928 0.279 0.7555
vn 0.6537 0.2285 0.7214
vn -0.4133 0.0266 -0.9102
vt 0.839504 0.118056
vt 0.856743 0.205307
vt 0.741230 0.205307
vt 0.734555 0.106726
vt 0.724541 0.032791
vt 0.813647 0.052618
vt 0.868992 0.081539
vt 0.913398 0.129584
vt 0.940923 0.205307
vt 0.839504 0.292557
vt 0.813647 0.357995
vt 0.724541 0.377822
vt 0.734555 0.303887
vt 0.913398 0.281029
vt 0.868992 0.329074
vt 0.369475 0.299954
vt 0.368286 0.370940
vt 0.245840 0.351447
vt 0.246397 0.288815
vt 0.246768 0.205307
vt 0.370268 0.205307
vt 0.494283 0.205307
vt 0.492822 0.304944
vt 0.490632 0.379672
vt 0.369475 0.110659
vt 0.246397 0.121798
vt 0.245841 0.059166
vt 0.368286 0.039673
vt 0.490632 0.030941
vt 0.492822 0.105669
vt 0.616755 0.103478
vt 0.619174 0.205307
vt 0.613127 0.027106
vt 0.616755 0.307135
vt 0.613126 0.383507
vt 0.123273 0.268175
vt 0.123047 0.315326
vt 0.054743 0.283353
vt 0.030912 0.249131
vt 0.030973 0.205306
vt 0.123423 0.205306
vt 0.123273 0.142438
vt 0.030912 0.161481
vt 0.054744 0.127260
vt 0.123047 0.095287
vt 0.839504 0.118056
vt 0.856743 0.205307
vt 0.968983 0.205307
vt 0.938030 0.133427
vt 0.876123 0.061548
vt 0.805028 0.030806
vt 0.721203 0.008146
vt 0.734555 0.106726
vt 0.741230 0.205307
vt 0.839504 0.292557
vt 0.805028 0.379807
vt 0.876123 0.349065
vt 0.938030 0.277186
vt 0.734555 0.303887
vt 0.721203 0.402467
vt 0.369475 0.299954
vt 0.367890 0.394602
vt 0.489902 0.404581
vt 0.492822 0.304944
vt 0.494283 0.205307
vt 0.370268 0.205307
vt 0.246768 0.205307
vt 0.246397 0.288815
vt 0.245655 0.372324
vt 0.369475 0.110659
vt 0.492822 0.105669
vt 0.489902 0.006032
vt 0.367890 0.016011
vt 0.245655 0.038289
vt 0.246397 0.121798
vt 0.616755 0.103478
vt 0.619174 0.205307
vt 0.611917 0.001649
vt 0.616755 0.307135
vt 0.611917 0.408964
vt 0.123273 0.268175
vt 0.122972 0.331043
vt 0.123423 0.205306
vt 0.000156 0.205306
vt 0.000125 0.242784
vt 0.000064 0.280261
vt 0.123273 0.142438
vt 0.122972 0.079570
vt 0.000064 0.130352
vt 0.000125 0.167829
vt 0.122972 0.331043
vt 0.030806 0.283587
vt 0.245655 0.372324
vt 0.030806 0.283587
vt 0.000125 0.167829
vt 0.030806 0.127026
vt 0.000156 0.205306
vt 0.030806 0.127026
vt 0.805028 0.030806
vt 0.873826 0.071832
vt 0.721203 0.008146
vt 0.873826 0.071832
vt 0.938030 0.277186
vt 0.873826 0.338781
vt 0.968983 0.205307
vt 0.873826 0.338781
vt 0.805028 0.379807
vt 0.721203 0.402467
vt 0.000125 0.242784
vt 0.122972 0.079570
vt 0.245655 0.038289
vt 0.938030 0.133427
vt 0.611917 0.001649
vt 0.489902 0.006032
vt 0.611917 0.408964
vt 0.489902 0.404581
vt 0.367890 0.394602
vt 0.367890 0.016011
f 1/1/1 2/2/2 3/3/3
f 1/1/1 3/3/3 4/4/4
f 1/1/1 4/4/4 5/5/5
f 1/1/1 5/5/5 6/6/6
f 1/1/1 6/6/6 7/7/7
f 1/1/1 7/7/7 8/8/8
f 1/1/1 8/8/8 9/9/9
f 1/1/1 9/9/9 2/2/2
f 10/10/10 11/11/11 12/12/12
f 10/10/10 12/12/12 13/13/13
f 10/10/10 13/13/13 3/3/3
f 10/10/10 3/3/3 2/2/2
f 10/10/10 2/2/2 9/9/9
f 10/10/10 9/9/9 14/14/14
f 10/10/10 14/14/14 15/15/15
f 10/10/10 15/15/15 11/11/11
f 16/16/16 17/17/17 18/18/18
f 16/16/16 18/18/18 19/19/19
f 16/16/16 19/19/19 20/20/20
f 16/16/16 20/20/20 21/21/21
f 16/16/16 21/21/21 22/22/22
f 16/16/16 22/22/22 23/23/23
f 16/16/16 23/23/23 24/24/24
f 16/16/16 24/24/24 17/17/17
f 25/25/25 21/21/21 20/20/20
f 25/25/25 20/20/20 26/26/26
f 25/25/25 26/26/26 27/27/27
f 25/25/25 27/27/27 28/28/28
f 25/25/25 28/28/28 29/29/29
f 25/25/25 29/29/29 30/30/30
f 25/25/25 30/30/30 22/22/22
f 25/25/25 22/22/22 21/21/21
f 31/31/31 32/32/32 22/22/22
f 31/31/31 22/22/22 30/30/30
f 31/31/31 30/30/30 29/29/29
f 31/31/31 29/29/29 33/33/33
f 31/31/31 33/33/33 5/5/5
f 31/31/31 5/5/5 4/4/4
f 31/31/31 4/4/4 3/3/3
f 31/31/31 3/3/3 32/32/32
f 34/34/34 35/35/35 24/24/24
f 34/34/34 24/24/24 23/23/23
f 34/34/34 23/23/23 22/22/22
f 34/34/34 22/22/22 32/32/32
f 34/34/34 32/32/32 3/3/3
f 34/34/34 3/3/3 13/13/13
f 34/34/34 13/13/13 12/12/12
f 34/34/34 12/12/12 35/35/35
f 36/36/36 37/37/37 38/38/38
f 36/36/36 38/38/38 39/39/39
f 36/36/36 39/39/39 40/40/40
f 36/36/36 40/40/40 41/41/41
f 36/36/36 41/41/41 20/20/20
f 36/36/36 20/20/20 19/19/19
f 36/36/36 19/19/19 18/18/18
f 36/36/36 18/18/18 37/37/37
f 42/42/42 41/41/41 40/40/40
f 42/42/42 40/40/40 43/43/43
f 42/42/42 43/43/43 44/44/44
f 42/42/42 44/44/44 45/45/45
f 42/42/42 45/45/45 27/27/27
f 42/42/42 27/27/27 26/26/26
f 42/42/42 26/26/26 20/20/20
f 42/42/42 20/20/20 41/41/41
f 46/46/46 47/47/47 48/48/48
f 46/46/46 48/48/48 49/49/49
f 46/46/46 49/49/49 50/50/50
f 46/46/46 50/50/50 51/51/51
f 46/46/46 51/51/51 52/52/52
f 46/46/46 52/52/52 53/53/53
f 46/46/46 53/53/53 54/54/54
f 46/46/46 54/54/54 47/47/47
f 55/55/55 56/56/56 57/57/57
f 55/55/55 57/57/57 58/58/58
f 55/55/55 58/58/58 48/48/48
f 55/55/55 48/48/48 47/47/47
f 55/55/55 47/47/47 54/54/54
f 55/55/55 54/54/54 59/59/59
f 55/55/55 59/59/59 60/60/60
f 55/55/55 60/60/60 56/56/56
f 61/61/61 62/62/62 63/63/63
f 61/61/61 63/63/63 64/64/64
f 61/61/61 64/64/64 65/65/65
f 61/61/61 65/65/65 66/66/66
f 61/61/61 66/66/66 67/67/67
f 61/61/61 67/67/67 68/68/68
f 61/61/61 68/68/68 69/69/69
f 61/61/61 69/69/69 62/62/62
f 70/70/70 66/66/66 65/65/65
f 70/70/70 65/65/65 71/71/71
f 70/70/70 71/71/71 72/72/72
f 70/70/70 72/72/72 73/73/73
f 70/70/70 73/73/73 74/74/74
f 70/70/70 74/74/74 75/75/75
f 70/70/70 75/75/75 67/67/67
f 70/70/70 67/67/67 66/66/66
f 76/76/76 77/77/77 54/54/54
f 76/76/76 54/54/54 53/53/53
f 76/76/76 53/53/53 52/52/52
f 76/76/76 52/52/52 78/78/78
f 76/76/76 78/78/78 72/72/72
f 76/76/76 72/72/72 71/71/71
f 76/76/76 71/71/71 65/65/65
f 76/76/76 65/65/65 77/77/77
f 79/79/79 80/80/80 60/60/60
f 79/79/79 60/60/60 59/59/59
f 79/79/79 59/59/59 54/54/54
f 79/79/79 54/54/54 77/77/77
f 79/79/79 77/77/77 65/65/65
f 79/79/79 65/65/65 64/64/64
f 79/79/79 64/64/64 63/63/63
f 79/79/79 63/63/63 80/80/80
f 81/81/81 82/82/82 69/69/69
f 81/81/81 69/69/69 68/68/68
f 81/81/81 68/68/68 67/67/67
f 81/81/81 67/67/67 83/83/83
f 81/81/81 83/83/83 84/84/84
f 81/81/81 84/84/84 85/85/85
f 81/81/81 85/85/85 86/86/86
f 81/81/81 86/86/86 82/82/82
f 87/87/87 83/83/83 67/67/67
f 87/87/87 67/67/67 75/75/75
f 87/87/87 75/75/75 74/74/74
f 87/87/87 74/74/74 88/88/88
f 87/87/87 88/88/88 89/89/89
f 87/87/87 89/89/89 90/90/90
f 87/87/87 90/90/90 84/84/84
f 87/87/87 84/84/84 83/83/83
f 91/91/91 92/92/92 38/38/38
f 91/91/91 38/38/38 37/37/37
f 91/91/91 37/37/37 18/18/18
f 91/91/91 18/18/18 93/93/93
f 91/91/91 93/93/93 69/69/69
f 91/91/91 69/69/69 82/82/82
f 91/91/91 82/82/82 94/94/94
f 91/91/91 94/94/94 92/92/92
f 95/95/95 96/96/96 44/44/44
f 95/95/95 44/44/44 43/43/43
f 95/95/95 43/43/43 40/40/40
f 95/95/95 40/40/40 97/97/97
f 95/95/95 97/97/97 84/84/84
f 95/95/95 84/84/84 90/90/90
f 95/95/95 90/90/90 98/98/98
f 95/95/95 98/98/98 96/96/96
f 99/99/99 100/100/100 7/7/7
f 99/99/99 7/7/7 6/6/6
f 99/99/99 6/6/6 5/5/5
f 99/99/99 5/5/5 101/101/101
f 99/99/99 101/101/101 52/52/52
f 99/99/99 52/52/52 51/51/51
f 99/99/99 51/51/51 102/102/102
f 99/99/99 102/102/102 100/100/100
f 103/103/103 104/104/104 15/15/15
f 103/103/103 15/15/15 14/14/14
f 103/103/103 14/14/14 9/9/9
f 103/103/103 9/9/9 105/105/105
f 103/103/103 105/105/105 48/48/48
f 103/103/103 48/48/48 58/58/58
f 103/103/103 58/58/58 106/106/106
f 103/103/103 106/106/106 104/104/104
f 107/107/107 108/108/108 12/12/12
f 107/107/107 12/12/12 11/11/11
f 107/107/107 11/11/11 15/15/15
f 107/107/107 15/15/15 104/104/104
f 107/107/107 104/104/104 106/106/106
f 107/107/107 106/106/106 56/56/56
f 107/107/107 56/56/56 60/60/60
f 107/107/107 60/60/60 108/108/108
f 109/109/109 97/97/97 40/40/40
f 109/109/109 40/40/40 39/39/39
f 109/109/109 39/39/39 38/38/38
f 109/109/109 38/38/38 92/92/92
f 109/109/109 92/92/92 94/94/94
f 109/109/109 94/94/94 85/85/85
f 109/109/109 85/85/85 84/84/84
f 109/109/109 84/84/84 97/97/97
f 110/110/110 111/111/111 27/27/27
f 110/110/110 27/27/27 45/45/45
f 110/110/110 45/45/45 44/44/44
f 110/110/110 44/44/44 96/96/96
f 110/110/110 96/96/96 98/98/98
f 110/110/110 98/98/98 88/88/88
f 110/110/110 88/88/88 74/74/74
f 110/110/110 74/74/74 111/111/111
f 112/112/112 105/105/105 9/9/9
f 112/112/112 9/9/9 8/8/8
f 112/112/112 8/8/8 7/7/7
f 112/112/112 7/7/7 100/100/100
f 112/112/112 100/100/100 102/102/102
f 112/112/112 102/102/102 49/49/49
f 112/112/112 49/49/49 48/48/48
f 112/112/112 48/48/48 105/105/105
f 113/113/113 101/101/101 5/5/5
f 113/113/113 5/5/5 33/33/33
f 113/113/113 33/33/33 29/29/29
f 113/113/113 29/29/29 114/114/114
f 113/113/113 114/114/114 72/72/72
f 113/113/113 72/72/72 78/78/78
f 113/113/113 78/78/78 52/52/52
f 113/113/113 52/52/52 101/101/101
f 115/115/115 116/116/116 24/24/24
f 115/115/115 24/24/24 35/35/35
f 115/115/115 35/35/35 12/12/12
f 115/115/115 12/12/12 108/108/108
f 115/115/115 108/108/108 60/60/60
f 115/115/115 60/60/60 80/80/80
f 115/115/115 80/80/80 63/63/63
f 115/115/115 63/63/63 116/116/116
f 117/117/117 93/93/93 18/18/18
f 117/117/117 18/18/18 17/17/17
f 117/117/117 17/17/17 24/24/24
f 117/117/117 24/24/24 116/116/116
f 117/117/117 116/116/116 63/63/63
f 117/117/117 63/63/63 62/62/62
f 117/117/117 62/62/62 69/69/69
f 117/117/117 69/69/69 93/93/93
f 118/118/118 114/114/114 29/29/29
f 118/118/118 29/29/29 28/28/28
f 118/118/118 28/28/28 27/27/27
f 118/118/118 27/27/27 111/111/111
f 118/118/118 111/111/111 74/74/74
f 118/118/118 74/74/74 73/73/73
f 118/118/118 73/73/73 72/72/72
f 118/118/118 72/72/72 114/114/114
