v -2.388494 0.804623 -1.166864
v -2.388923 0.804632 -1.169431
v -2.3916 0.802762 -1.168275
v -2.390782 0.802897 -1.165503
v -2.390412 0.80312 -1.163303
v -2.388603 0.804624 -1.164736
v -2.387527 0.80534 -1.166121
v -2.386846 0.805732 -1.167948
v -2.386904 0.805902 -1.170306
v -2.390554 0.804735 -1.171455
v -2.392215 0.80482 -1.172788
v -2.394515 0.803342 -1.17245
v -2.393123 0.803024 -1.170721
v -2.388629 0.805829 -1.171922
v -2.390452 0.805498 -1.172642
v -2.400429 0.795656 -1.16756
v -2.401496 0.79587 -1.169387
v -2.403361 0.792947 -1.168
v -2.402404 0.79275 -1.166389
v -2.401245 0.792577 -1.164197
v -2.39913 0.795468 -1.165075
v -2.396848 0.798181 -1.166032
v -2.398222 0.798397 -1.168625
v -2.399365 0.798649 -1.170524
v -2.398135 0.795532 -1.162447
v -2.400375 0.79264 -1.161868
v -2.399806 0.792754 -1.160076
v -2.397477 0.795652 -1.160429
v -2.395161 0.79842 -1.161152
v -2.395823 0.798267 -1.163276
v -2.393299 0.80075 -1.164301
v -2.39429 0.800612 -1.167121
v -2.392702 0.800981 -1.16211
v -2.395733 0.800882 -1.169728
v -2.396968 0.801212 -1.17162
v -2.4042 0.789768 -1.164967
v -2.404961 0.78995 -1.166149
v -2.405618 0.788199 -1.164841
v -2.405458 0.787482 -1.16382
v -2.404797 0.787339 -1.16273
v -2.403301 0.789612 -1.163346
v -2.402686 0.789686 -1.161592
v -2.404421 0.787426 -1.161508
v -2.403752 0.788098 -1.160681
v -2.402306 0.789806 -1.160232
v -2.38834 0.804401 -1.166897
v -2.388783 0.804409 -1.169499
v -2.386802 0.805732 -1.170355
v -2.386733 0.805564 -1.167969
v -2.387439 0.805216 -1.16613
v -2.388481 0.80446 -1.164743
v -2.390285 0.80296 -1.163318
v -2.390621 0.802681 -1.165544
v -2.391452 0.802545 -1.168347
v -2.390431 0.804515 -1.171557
v -2.392132 0.804658 -1.172881
v -2.390389 0.805377 -1.172706
v -2.388541 0.805662 -1.171998
v -2.39299 0.802809 -1.170823
v -2.394423 0.803184 -1.172541
v -2.400255 0.795475 -1.167669
v -2.401371 0.795735 -1.169479
v -2.399249 0.798505 -1.170614
v -2.39806 0.798205 -1.16873
v -2.396675 0.797987 -1.166115
v -2.398947 0.795285 -1.165162
v -2.401054 0.792402 -1.164286
v -2.402224 0.792577 -1.166501
v -2.403232 0.792818 -1.168094
v -2.397942 0.795349 -1.162512
v -2.39564 0.798073 -1.163335
v -2.395019 0.798276 -1.161184
v -2.397328 0.795515 -1.160465
v -2.399652 0.792624 -1.160115
v -2.400176 0.792465 -1.161935
v -2.393127 0.800544 -1.164351
v -2.39413 0.800406 -1.167198
v -2.392567 0.800828 -1.162133
v -2.395585 0.800678 -1.169831
v -2.396864 0.801061 -1.17171
v -2.404019 0.789598 -1.165081
v -2.404831 0.789824 -1.166246
v -2.403108 0.78944 -1.163437
v -2.404652 0.787211 -1.162799
v -2.405322 0.787355 -1.163907
v -2.40552 0.788105 -1.16491
v -2.402484 0.789515 -1.161659
v -2.40215 0.789678 -1.16027
v -2.403637 0.788003 -1.160712
v -2.404268 0.787298 -1.161557
v -2.405158 0.789955 -1.166589
v -2.406016 0.787613 -1.164682
v -2.403624 0.792955 -1.168581
v -2.40552 0.788105 -1.16491
v -2.404931 0.786615 -1.161501
v -2.404146 0.787512 -1.160513
v -2.405231 0.786525 -1.162555
v -2.403637 0.788003 -1.160712
v -2.388584 0.804552 -1.164025
v -2.387317 0.805458 -1.165891
v -2.390231 0.803123 -1.162573
v -2.387439 0.805216 -1.16613
v -2.387949 0.806119 -1.172111
v -2.390482 0.80563 -1.172946
v -2.386186 0.806249 -1.170619
v -2.390389 0.805377 -1.172706
v -2.392734 0.804777 -1.173277
v -2.39494 0.803379 -1.17307
v -2.405817 0.786663 -1.163476
v -2.402109 0.789789 -1.159793
v -2.399548 0.792734 -1.159493
v -2.386247 0.806027 -1.168318
v -2.392442 0.80099 -1.161387
v -2.394876 0.798408 -1.160456
v -2.397335 0.801256 -1.172294
v -2.399695 0.798669 -1.171199
v -2.401798 0.795881 -1.17004
v -2.39719 0.795631 -1.15977
vn -0.5646 0.8245 0.036
vn -0.471 0.8511 0.232
vn -0.5169 0.8181 0.2518
vn -0.6029 0.794 0.0776
vn -0.6184 0.7801 0.0945
vn -0.5624 0.8256 0.0437
vn -0.5199 0.8542 0.0084
vn -0.4785 0.877 0.0422
vn -0.3959 0.8964 0.1994
vn -0.3874 0.8149 0.431
vn -0.3918 0.8163 0.4244
vn -0.4677 0.7719 0.4306
vn -0.4445 0.7854 0.4307
vn -0.3339 0.8692 0.3647
vn -0.3365 0.8442 0.4171
vn -0.6407 0.6413 0.4222
vn -0.6631 0.6378 0.3917
vn -0.6832 0.6129 0.3968
vn -0.6564 0.6148 0.4372
vn -0.7146 0.6138 0.3355
vn -0.6897 0.6469 0.3252
vn -0.6362 0.7097 0.3027
vn -0.5866 0.6961 0.4138
vn -0.6109 0.6863 0.3947
vn -0.7296 0.6461 0.2239
vn -0.7517 0.62 0.2245
vn -0.7396 0.616 0.2713
vn -0.7219 0.641 0.2607
vn -0.6885 0.6905 0.2217
vn -0.6865 0.7015 0.1914
vn -0.6389 0.757 0.1365
vn -0.5716 0.773 0.2752
vn -0.6519 0.7411 0.1602
vn -0.5131 0.7502 0.4169
vn -0.5397 0.7351 0.4103
vn -0.6517 0.601 0.4628
vn -0.6836 0.596 0.4212
vn -0.6774 0.5797 0.4529
vn -0.6711 0.5527 0.4941
vn -0.756 0.5514 0.3526
vn -0.7259 0.5978 0.3402
vn -0.7679 0.6073 0.2035
vn -0.8052 0.5599 0.1952
vn -0.7781 0.5851 0.2284
vn -0.7583 0.6 0.2547
vn 0.5907 -0.8067 -0.0174
vn 0.4838 -0.8423 -0.2376
vn 0.5321 -0.8063 -0.2583
vn 0.6615 -0.7488 0.0403
vn 0.7031 -0.6967 0.1423
vn 0.6923 -0.7111 0.1226
vn 0.6803 -0.7308 0.0558
vn 0.6086 -0.7909 -0.0637
vn 0.5168 -0.8182 -0.2518
vn 0.3912 -0.7959 -0.4621
vn 0.356 -0.6927 -0.6272
vn 0.3487 -0.6773 -0.6478
vn 0.3963 -0.7343 -0.551
vn 0.438 -0.7816 -0.4441
vn 0.3976 -0.7154 -0.5744
vn 0.6321 -0.6406 -0.436
vn 0.5667 -0.6325 -0.5279
vn 0.5271 -0.6695 -0.5234
vn 0.5791 -0.6947 -0.4267
vn 0.6362 -0.7096 -0.3027
vn 0.6899 -0.6467 -0.3252
vn 0.7147 -0.6137 -0.3356
vn 0.645 -0.6156 -0.4527
vn 0.5539 -0.6262 -0.5486
vn 0.7342 -0.6462 -0.2083
vn 0.6911 -0.7008 -0.177
vn 0.7291 -0.6805 -0.073
vn 0.7595 -0.643 -0.0981
vn 0.7666 -0.6378 -0.0745
vn 0.7557 -0.6217 -0.2058
vn 0.6436 -0.7555 -0.1227
vn 0.5716 -0.773 -0.2752
vn 0.6957 -0.7181 -0.0154
vn 0.5059 -0.748 -0.4295
vn 0.4611 -0.7054 -0.5383
vn 0.627 -0.6137 -0.4798
vn 0.5 -0.6412 -0.5821
vn 0.719 -0.6075 -0.3374
vn 0.688 -0.6491 -0.3244
vn 0.5442 -0.6568 -0.5219
vn 0.463 -0.6533 -0.599
vn 0.764 -0.6211 -0.1743
vn 0.7555 -0.655 -0.0125
vn 0.7433 -0.6684 0.0258
vn 0.7397 -0.6673 -0.0862
vn -0.7261 -0.1467 -0.6717
vn -0.8383 -0.4028 -0.3672
vn -0.6402 -0.0571 -0.7661
vn 0.463 -0.6533 -0.599
vn -0.4783 -0.751 0.4551
vn -0.2901 -0.4317 0.8541
vn -0.4737 -0.8595 0.1916
vn 0.7433 -0.6684 0.0258
vn 0.442 0.4284 0.7881
vn 0.6153 0.5631 0.5516
vn 0.3342 0.2845 0.8985
vn 0.7031 -0.6967 0.1423
vn 0.4352 0.5388 -0.7213
vn 0.0078 0.5964 -0.8026
vn 0.8121 0.4645 -0.353
vn 0.3487 -0.6773 -0.6478
vn -0.2869 0.4678 -0.8359
vn -0.4434 0.3266 -0.8347
vn -0.6715 -0.7406 0.0248
vn 0.0157 -0.1869 0.9822
vn 0.1451 -0.0995 0.9844
vn 0.8378 0.517 0.1757
vn 0.2723 0.1597 0.9488
vn 0.2468 0.078 0.9659
vn -0.5242 0.203 -0.827
vn -0.5556 0.1214 -0.8225
vn -0.5819 0.0399 -0.8122
vn 0.2203 -0.0034 0.9754
vt 0.839504 0.118056
vt 0.856743 0.205307
vt 0.741230 0.205307
vt 0.734555 0.106726
vt 0.724541 0.032791
vt 0.813647 0.052618
vt 0.868992 0.081539
vt 0.913398 0.129584
vt 0.940923 0.205307
vt 0.839504 0.292557
vt 0.813647 0.357995
vt 0.724541 0.377822
vt 0.734555 0.303887
vt 0.913398 0.281029
vt 0.868992 0.329074
vt 0.369475 0.299954
vt 0.368286 0.370940
vt 0.245840 0.351447
vt 0.246397 0.288815
vt 0.246768 0.205307
vt 0.370268 0.205307
vt 0.494283 0.205307
vt 0.492822 0.304944
vt 0.490632 0.379672
vt 0.369475 0.110659
vt 0.246397 0.121798
vt 0.245841 0.059166
vt 0.368286 0.039673
vt 0.490632 0.030941
vt 0.492822 0.105669
vt 0.616755 0.103478
vt 0.619174 0.205307
vt 0.613127 0.027106
vt 0.616755 0.307135
vt 0.613126 0.383507
vt 0.123273 0.268175
vt 0.123047 0.315326
vt 0.054743 0.283353
vt 0.030912 0.249131
vt 0.030973 0.205306
vt 0.123423 0.205306
vt 0.123273 0.142438
vt 0.030912 0.161481
vt 0.054744 0.127260
vt 0.123047 0.095287
vt 0.839504 0.118056
vt 0.856743 0.205307
vt 0.968983 0.205307
vt 0.938030 0.133427
vt 0.876123 0.061548
vt 0.805028 0.030806
vt 0.721203 0.008146
vt 0.734555 0.106726
vt 0.741230 0.205307
vt 0.839504 0.292557
vt 0.805028 0.379807
vt 0.876123 0.349065
vt 0.938030 0.277186
vt 0.734555 0.303887
vt 0.721203 0.402467
vt 0.369475 0.299954
vt 0.367890 0.394602
vt 0.489902 0.404581
vt 0.492822 0.304944
vt 0.494283 0.205307
vt 0.370268 0.205307
vt 0.246768 0.205307
vt 0.246397 0.288815
vt 0.245655 0.372324
vt 0.369475 0.110659
vt 0.492822 0.105669
vt 0.489902 0.006032
vt 0.367890 0.016011
vt 0.245655 0.038289
vt 0.246397 0.121798
vt 0.616755 0.103478
vt 0.619174 0.205307
vt 0.611917 0.001649
vt 0.616755 0.307135
vt 0.611917 0.408964
vt 0.123273 0.268175
vt 0.122972 0.331043
vt 0.123423 0.205306
vt 0.000156 0.205306
vt 0.000125 0.242784
vt 0.000064 0.280261
vt 0.123273 0.142438
vt 0.122972 0.079570
vt 0.000064 0.130352
vt 0.000125 0.167829
vt 0.122972 0.331043
vt 0.030806 0.283587
vt 0.245655 0.372324
vt 0.030806 0.283587
vt 0.000125 0.167829
vt 0.030806 0.127026
vt 0.000156 0.205306
vt 0.030806 0.127026
vt 0.805028 0.030806
vt 0.873826 0.071832
vt 0.721203 0.008146
vt 0.873826 0.071832
vt 0.938030 0.277186
vt 0.873826 0.338781
vt 0.968983 0.205307
vt 0.873826 0.338781
vt 0.805028 0.379807
vt 0.721203 0.402467
vt 0.000125 0.242784
vt 0.122972 0.079570
vt 0.245655 0.038289
vt 0.938030 0.133427
vt 0.611917 0.001649
vt 0.489902 0.006032
vt 0.611917 0.408964
vt 0.489902 0.404581
vt 0.367890 0.394602
vt 0.367890 0.016011
f 1/1/1 2/2/2 3/3/3
f 1/1/1 3/3/3 4/4/4
f 1/1/1 4/4/4 5/5/5
f 1/1/1 5/5/5 6/6/6
f 1/1/1 6/6/6 7/7/7
f 1/1/1 7/7/7 8/8/8
f 1/1/1 8/8/8 9/9/9
f 1/1/1 9/9/9 2/2/2
f 10/10/10 11/11/11 12/12/12
f 10/10/10 12/12/12 13/13/13
f 10/10/10 13/13/13 3/3/3
f 10/10/10 3/3/3 2/2/2
f 10/10/10 2/2/2 9/9/9
f 10/10/10 9/9/9 14/14/14
f 10/10/10 14/14/14 15/15/15
f 10/10/10 15/15/15 11/11/11
f 16/16/16 17/17/17 18/18/18
f 16/16/16 18/18/18 19/19/19
f 16/16/16 19/19/19 20/20/20
f 16/16/16 20/20/20 21/21/21
f 16/16/16 21/21/21 22/22/22
f 16/16/16 22/22/22 23/23/23
f 16/16/16 23/23/23 24/24/24
f 16/16/16 24/24/24 17/17/17
f 25/25/25 21/21/21 20/20/20
f 25/25/25 20/20/20 26/26/26
f 25/25/25 26/26/26 27/27/27
f 25/25/25 27/27/27 28/28/28
f 25/25/25 28/28/28 29/29/29
f 25/25/25 29/29/29 30/30/30
f 25/25/25 30/30/30 22/22/22
f 25/25/25 22/22/22 21/21/21
f 31/31/31 32/32/32 22/22/22
f 31/31/31 22/22/22 30/30/30
f 31/31/31 30/30/30 29/29/29
f 31/31/31 29/29/29 33/33/33
f 31/31/31 33/33/33 5/5/5
f 31/31/31 5/5/5 4/4/4
f 31/31/31 4/4/4 3/3/3
f 31/31/31 3/3/3 32/32/32
f 34/34/34 35/35/35 24/24/24
f 34/34/34 24/24/24 23/23/23
f 34/34/34 23/23/23 22/22/22
f 34/34/34 22/22/22 32/32/32
f 34/34/34 32/32/32 3/3/3
f 34/34/34 3/3/3 13/13/13
f 34/34/34 13/13/13 12/12/12
f 34/34/34 12/12/12 35/35/35
f 36/36/36 37/37/37 38/38/38
f 36/36/36 38/38/38 39/39/39
f 36/36/36 39/39/39 40/40/40
f 36/36/36 40/40/40 41/41/41
f 36/36/36 41/41/41 20/20/20
f 36/36/36 20/20/20 19/19/19
f 36/36/36 19/19/19 18/18/18
f 36/36/36 18/18/18 37/37/37
f 42/42/42 41/41/41 40/40/40
f 42/42/42 40/40/40 43/43/43
f 42/42/42 43/43/43 44/44/44
f 42/42/42 44/44/44 45/45/45
f 42/42/42 45/45/45 27/27/27
f 42/42/42 27/27/27 26/26/26
f 42/42/42 26/26/26 20/20/20
f 42/42/42 20/20/20 41/41/41
f 46/46/46 47/47/47 48/48/48
f 46/46/46 48/48/48 49/49/49
f 46/46/46 49/49/49 50/50/50
f 46/46/46 50/50/50 51/51/51
f 46/46/46 51/51/51 52/52/52
f 46/46/46 52/52/52 53/53/53
f 46/46/46 53/53/53 54/54/54
f 46/46/46 54/54/54 47/47/47
f 55/55/55 56/56/56 57/57/57
f 55/55/55 57/57/57 58/58/58
f 55/55/55 58/58/58 48/48/48
f 55/55/55 48/48/48 47/47/47
f 55/55/55 47/47/47 54/54/54
f 55/55/55 54/54/54 59/59/59
f 55/55/55 59/59/59 60/60/60
f 55/55/55 60/60/60 56/56/56
f 61/61/61 62/62/62 63/63/63
f 61/61/61 63/63/63 64/64/64
f 61/61/61 64/64/64 65/65/65
f 61/61/61 65/65/65 66/66/66
f 61/61/61 66/66/66 67/67/67
f 61/61/61 67/67/67 68/68/68
f 61/61/61 68/68/68 69/69/69
f 61/61/61 69/69/69 62/62/62
f 70/70/70 66/66/66 65/65/65
f 70/70/70 65/65/65 71/71/71
f 70/70/70 71/71/71 72/72/72
f 70/70/70 72/72/72 73/73/73
f 70/70/70 73/73/73 74/74/74
f 70/70/70 74/74/74 75/75/75
f 70/70/70 75/75/75 67/67/67
f 70/70/70 67/67/67 66/66/66
f 76/76/76 77/77/77 54/54/54
f 76/76/76 54/54/54 53/53/53
f 76/76/76 53/53/53 52/52/52
f 76/76/76 52/52/52 78/78/78
f 76/76/76 78/78/78 72/72/72
f 76/76/76 72/72/72 71/71/71
f 76/76/76 71/71/71 65/65/65
f 76/76/76 65/65/65 77/77/77
f 79/79/79 80/80/80 60/60/60
f 79/79/79 60/60/60 59/59/59
f 79/79/79 59/59/59 54/54/54
f 79/79/79 54/54/54 77/77/77
f 79/79/79 77/77/77 65/65/65
f 79/79/79 65/65/65 64/64/64
f 79/79/79 64/64/64 63/63/63
f 79/79/79 63/63/63 80/80/80
f 81/81/81 82/82/82 69/69/69
f 81/81/81 69/69/69 68/68/68
f 81/81/81 68/68/68 67/67/67
f 81/81/81 67/67/67 83/83/83
f 81/81/81 83/83/83 84/84/84
f 81/81/81 84/84/84 85/85/85
f 81/81/81 85/85/85 86/86/86
f 81/81/81 86/86/86 82/82/82
f 87/87/87 83/83/83 67/67/67
f 87/87/87 67/67/67 75/75/75
f 87/87/87 75/75/75 74/74/74
f 87/87/87 74/74/74 88/88/88
f 87/87/87 88/88/88 89/89/89
f 87/87/87 89/89/89 90/90/90
f 87/87/87 90/90/90 84/84/84
f 87/87/87 84/84/84 83/83/83
f 91/91/91 92/92/92 38/38/38
f 91/91/91 38/38/38 37/37/37
f 91/91/91 37/37/37 18/18/18
f 91/91/91 18/18/18 93/93/93
f 91/91/91 93/93/93 69/69/69
f 91/91/91 69/69/69 82/82/82
f 91/91/91 82/82/82 94/94/94
f 91/91/91 94/94/94 92/92/92
f 95/95/95 96/96/96 44/44/44
f 95/95/95 44/44/44 43/43/43
f 95/95/95 43/43/43 40/40/40
f 95/95/95 40/40/40 97/97/97
f 95/95/95 97/97/97 84/84/84
f 95/95/95 84/84/84 90/90/90
f 95/95/95 90/90/90 98/98/98
f 95/95/95 98/98/98 96/96/96
f 99/99/99 100/100/100 7/7/7
f 99/99/99 7/7/7 6/6/6
f 99/99/99 6/6/6 5/5/5
f 99/99/99 5/5/5 101/101/101
f 99/99/99 101/101/101 52/52/52
f 99/99/99 52/52/52 51/51/51
f 99/99/99 51/51/51 102/102/102
f 99/99/99 102/102/102 100/100/100
f 103/103/103 104/104/104 15/15/15
f 103/103/103 15/15/15 14/14/14
f 103/103/103 14/14/14 9/9/9
f 103/103/103 9/9/9 105/105/105
f 103/103/103 105/105/105 48/48/48
f 103/103/103 48/48/48 58/58/58
f 103/103/103 58/58/58 106/106/106
f 103/103/103 106/106/106 104/104/104
f 107/107/107 108/108/108 12/12/12
f 107/107/107 12/12/12 11/11/11
f 107/107/107 11/11/11 15/15/15
f 107/107/107 15/15/15 104/104/104
f 107/107/107 104/104/104 106/106/106
f 107/107/107 106/106/106 56/56/56
f 107/107/107 56/56/56 60/60/60
f 107/107/107 60/60/60 108/108/108
f 109/109/109 97/97/97 40/40/40
f 109/109/109 40/40/40 39/39/39
f 109/109/109 39/39/39 38/38/38
f 109/109/109 38/38/38 92/92/92
f 109/109/109 92/92/92 94/94/94
f 109/109/109 94/94/94 85/85/85
f 109/109/109 85/85/85 84/84/84
f 109/109/109 84/84/84 97/97/97
f 110/110/110 111/111/111 27/27/27
f 110/110/110 27/27/27 45/45/45
f 110/110/110 45/45/45 44/44/44
f 110/110/110 44/44/44 96/96/96
f 110/110/110 96/96/96 98/98/98
f 110/110/110 98/98/98 88/88/88
f 110/110/110 88/88/88 74/74/74
f 110/110/110 74/74/74 111/111/111
f 112/112/112 105/105/105 9/9/9
f 112/112/112 9/9/9 8/8/8
f 112/112/112 8/8/8 7/7/7
f 112/112/112 7/7/7 100/100/100
f 112/112/112 100/100/100 102/102/102
f 112/112/112 102/102/102 49/49/49
f 112/112/112 49/49/49 48/48/48
f 112/112/112 48/48/48 105/105/105
f 113/113/113 101/101/101 5/5/5
f 113/113/113 5/5/5 33/33/33
f 113/113/113 33/33/33 29/29/29
f 113/113/113 29/29/29 114/114/114
f 113/113/113 114/114/114 72/72/72
f 113/113/113 72/72/72 78/78/78
f 113/113/113 78/78/78 52/52/52
f 113/113/113 52/52/52 101/101/101
f 115/115/115 116/116/116 24/24/24
f 115/115/115 24/24/24 35/35/35
f 115/115/115 35/35/35 12/12/12
f 115/115/115 12/12/12 108/108/108
f 115/115/115 108/108/108 60/60/60
f 115/115/115 60/60/60 80/80/80
f 115/115/115 80/80/80 63/63/63
f 115/115/115 63/63/63 116/116/116
f 117/117/117 93/93/93 18/18/18
f 117/117/117 18/18/18 17/17/17
f 117/117/117 17/17/17 24/24/24
f 117/117/117 24/24/24 116/116/116
f 117/117/117 116/116/116 63/63/63
f 117/117/117 63/63/63 62/62/62
f 117/117/117 62/62/62 69/69/69
f 117/117/117 69/69/69 93/93/93
f 118/118/118 114/114/114 29/29/29
f 118/118/118 29/29/29 28/28/28
f 118/118/118 28/28/28 27/27/27
f 118/118/118 27/27/27 111/111/111
f 118/118/118 111/111/111 74/74/74
f 118/118/118 74/74/74 73/73/73
f 118/118/118 73/73/73 72/72/72
f 118/118/118 72/72/72 114/114/114
