v -2.372167 0.70007 -1.170675
v -2.37524 0.70025 -1.169959
v -2.373677 0.698336 -1.166554
v -2.370383 0.698265 -1.167776
v -2.367742 0.698389 -1.168428
v -2.36958 0.699998 -1.170712
v -2.371325 0.700762 -1.172004
v -2.373582 0.701212 -1.172737
v -2.376428 0.701523 -1.172507
v -2.377553 0.700694 -1.167853
v -2.379026 0.701093 -1.165762
v -2.378472 0.699632 -1.162804
v -2.376505 0.698974 -1.164568
v -2.378244 0.701752 -1.170294
v -2.378975 0.701648 -1.167995
v -2.372301 0.691025 -1.154941
v -2.374419 0.691513 -1.153545
v -2.372675 0.688204 -1.150979
v -2.370811 0.687761 -1.152228
v -2.368257 0.687293 -1.15377
v -2.369405 0.690507 -1.156671
v -2.370668 0.693485 -1.159741
v -2.373687 0.694052 -1.157916
v -2.375884 0.6946 -1.156429
v -2.366303 0.69033 -1.158085
v -2.365506 0.687146 -1.155008
v -2.363379 0.687127 -1.155851
v -2.363909 0.690296 -1.159053
v -2.36489 0.693326 -1.162191
v -2.367413 0.693325 -1.161204
v -2.368786 0.695993 -1.164527
v -2.372123 0.696088 -1.163092
v -2.366174 0.696094 -1.165452
v -2.375152 0.696731 -1.16119
v -2.37733 0.697387 -1.159604
v -2.369033 0.684369 -1.149739
v -2.370396 0.684748 -1.148758
v -2.368812 0.682679 -1.147812
v -2.367611 0.681749 -1.147979
v -2.366351 0.681436 -1.148839
v -2.36715 0.683983 -1.150926
v -2.365074 0.68391 -1.151814
v -2.364899 0.681435 -1.149401
v -2.363931 0.682114 -1.15037
v -2.363454 0.683944 -1.152396
v -2.372227 0.699782 -1.170825
v -2.375341 0.699963 -1.170089
v -2.376502 0.701306 -1.1726
v -2.373622 0.700994 -1.172846
v -2.371347 0.700601 -1.17209
v -2.369604 0.699783 -1.170834
v -2.367775 0.698178 -1.168555
v -2.370452 0.697983 -1.167934
v -2.373783 0.698056 -1.166694
v -2.377694 0.700415 -1.16796
v -2.379151 0.700889 -1.165831
v -2.379062 0.701495 -1.168047
v -2.378349 0.701542 -1.170369
v -2.376646 0.698701 -1.164689
v -2.378596 0.699432 -1.162885
v -2.372453 0.690786 -1.155114
v -2.374545 0.691336 -1.153667
v -2.376008 0.694414 -1.15654
v -2.373835 0.693801 -1.158074
v -2.370789 0.693229 -1.159914
v -2.369531 0.690263 -1.156858
v -2.368387 0.687059 -1.153966
v -2.370966 0.68753 -1.15241
v -2.372804 0.688034 -1.151108
v -2.366403 0.690085 -1.158285
v -2.367506 0.693068 -1.161391
v -2.364946 0.693132 -1.162338
v -2.36397 0.690111 -1.159209
v -2.363444 0.686949 -1.156014
v -2.36561 0.68691 -1.155217
v -2.368867 0.695723 -1.164699
v -2.372236 0.695819 -1.163248
v -2.366218 0.695891 -1.165588
v -2.375296 0.696468 -1.16133
v -2.377454 0.697193 -1.1597
v -2.369191 0.684142 -1.149923
v -2.370528 0.684581 -1.148888
v -2.367281 0.683752 -1.151126
v -2.36645 0.681263 -1.148989
v -2.367731 0.68158 -1.148117
v -2.368907 0.682555 -1.14791
v -2.365177 0.683677 -1.152027
v -2.363517 0.683768 -1.152562
v -2.363981 0.681984 -1.150492
v -2.364975 0.68126 -1.149562
v -2.370912 0.684801 -1.148487
v -2.368604 0.682024 -1.147259
v -2.373357 0.688277 -1.150618
v -2.368907 0.682555 -1.14791
v -2.364874 0.680532 -1.148668
v -2.363714 0.681457 -1.149822
v -2.366129 0.68051 -1.14821
v -2.363981 0.681984 -1.150492
v -2.368724 0.699879 -1.170781
v -2.37106 0.700865 -1.172291
v -2.366872 0.698337 -1.168704
v -2.371347 0.700601 -1.17209
v -2.378521 0.702011 -1.17114
v -2.379337 0.701824 -1.167954
v -2.376856 0.70185 -1.173397
v -2.379062 0.701495 -1.168047
v -2.379577 0.701136 -1.165093
v -2.379187 0.699763 -1.16225
v -2.367191 0.680801 -1.147454
v -2.362939 0.683877 -1.152666
v -2.362696 0.687041 -1.156205
v -2.37407 0.701495 -1.173472
v -2.365319 0.696038 -1.165822
v -2.364071 0.69324 -1.162587
v -2.378115 0.69752 -1.159117
v -2.376675 0.6947 -1.155981
v -2.375183 0.691598 -1.153132
v -2.363135 0.690202 -1.159447
vn 0.096 0.8844 0.4567
vn 0.2858 0.8928 0.348
vn 0.3078 0.865 0.3962
vn 0.1394 0.8572 0.4957
vn 0.157 0.8447 0.5116
vn 0.1036 0.8849 0.454
vn 0.0662 0.9094 0.4107
vn 0.0977 0.926 0.3647
vn 0.2493 0.9299 0.2703
vn 0.4776 0.8402 0.2567
vn 0.4713 0.8423 0.2613
vn 0.4815 0.8071 0.3415
vn 0.4805 0.8177 0.3169
vn 0.4093 0.8899 0.2014
vn 0.4611 0.8636 0.2037
vn 0.4816 0.6984 0.5293
vn 0.4527 0.6987 0.5539
vn 0.4585 0.6763 0.5766
vn 0.497 0.6736 0.547
vn 0.3995 0.6829 0.6114
vn 0.3884 0.7132 0.5835
vn 0.3639 0.7699 0.5242
vn 0.471 0.7467 0.4696
vn 0.4534 0.7405 0.496
vn 0.2901 0.7206 0.6297
vn 0.2916 0.6974 0.6547
vn 0.3373 0.6903 0.64
vn 0.3262 0.7134 0.6201
vn 0.2863 0.7598 0.5836
vn 0.2561 0.7716 0.5822
vn 0.1996 0.8229 0.5319
vn 0.3338 0.8259 0.4544
vn 0.2238 0.8078 0.5452
vn 0.4705 0.7915 0.39
vn 0.4653 0.7799 0.4186
vn 0.5218 0.6584 0.5423
vn 0.4823 0.6587 0.5774
vn 0.5131 0.6406 0.5712
vn 0.5532 0.6116 0.5656
vn 0.4178 0.6255 0.6589
vn 0.4046 0.6683 0.6242
vn 0.2713 0.6874 0.6736
vn 0.2645 0.645 0.7169
vn 0.2965 0.6657 0.6847
vn 0.3217 0.6773 0.6616
vn -0.0789 -0.8704 -0.4859
vn -0.292 -0.8855 -0.3614
vn -0.3151 -0.8548 -0.4123
vn -0.0246 -0.8234 -0.567
vn 0.0757 -0.78 -0.6211
vn 0.0563 -0.7924 -0.6073
vn -0.0101 -0.8084 -0.5885
vn -0.1258 -0.8553 -0.5026
vn -0.3078 -0.865 -0.3961
vn -0.5083 -0.8207 -0.2608
vn -0.6678 -0.7086 -0.2278
vn -0.6876 -0.6916 -0.2211
vn -0.5959 -0.7571 -0.2676
vn -0.4933 -0.8127 -0.31
vn -0.6188 -0.7378 -0.2695
vn -0.4948 -0.6963 -0.5199
vn -0.5819 -0.6773 -0.4502
vn -0.5755 -0.7094 -0.4068
vn -0.4834 -0.7439 -0.4614
vn -0.364 -0.7698 -0.5243
vn -0.3885 -0.713 -0.5836
vn -0.3996 -0.6829 -0.6115
vn -0.5117 -0.6725 -0.5346
vn -0.6013 -0.6689 -0.437
vn -0.2748 -0.7218 -0.6352
vn -0.2421 -0.7719 -0.5878
vn -0.1406 -0.7598 -0.6348
vn -0.1666 -0.7254 -0.6678
vn -0.1435 -0.7219 -0.6769
vn -0.2732 -0.7001 -0.6596
vn -0.1862 -0.8223 -0.5377
vn -0.3338 -0.8259 -0.4544
vn -0.0817 -0.7952 -0.6008
vn -0.4825 -0.788 -0.3823
vn -0.5867 -0.7367 -0.3361
vn -0.5375 -0.6675 -0.5153
vn -0.6314 -0.6762 -0.3796
vn -0.4016 -0.6772 -0.6165
vn -0.3876 -0.7153 -0.5815
vn -0.5749 -0.6989 -0.4254
vn -0.6461 -0.6831 -0.3405
vn -0.2423 -0.7017 -0.67
vn -0.0815 -0.7398 -0.6679
vn -0.0427 -0.7529 -0.6567
vn -0.1541 -0.7476 -0.646
vn -0.624 -0.0361 0.7805
vn -0.3193 -0.2873 0.903
vn -0.7217 0.046 0.6906
vn -0.6461 -0.6831 -0.3405
vn 0.467 -0.7035 0.5356
vn 0.8597 -0.4238 0.285
vn 0.2011 -0.8028 0.5613
vn -0.0427 -0.7529 -0.6567
vn 0.7671 0.3452 -0.5407
vn 0.5224 0.4668 -0.7136
vn 0.8809 0.2112 -0.4234
vn 0.0757 -0.78 -0.6211
vn -0.7351 0.5073 -0.4497
vn -0.7855 0.6182 -0.0282
vn -0.3958 0.3759 -0.8379
vn -0.6876 -0.6916 -0.2211
vn -0.8019 0.5269 0.2816
vn -0.7935 0.4053 0.4539
vn 0.0511 -0.6553 0.7536
vn 0.9736 -0.2208 -0.057
vn 0.9692 -0.1496 -0.1957
vn 0.1317 0.4069 -0.9039
vn 0.9319 0.0934 -0.3506
vn 0.9484 0.0149 -0.3167
vn -0.7835 0.2921 0.5484
vn -0.7791 0.2148 0.5889
vn -0.7692 0.1369 0.6241
vn 0.9576 -0.063 -0.281
vt 0.839504 0.118056
vt 0.856743 0.205307
vt 0.741230 0.205307
vt 0.734555 0.106726
vt 0.724541 0.032791
vt 0.813647 0.052618
vt 0.868992 0.081539
vt 0.913398 0.129584
vt 0.940923 0.205307
vt 0.839504 0.292557
vt 0.813647 0.357995
vt 0.724541 0.377822
vt 0.734555 0.303887
vt 0.913398 0.281029
vt 0.868992 0.329074
vt 0.369475 0.299954
vt 0.368286 0.370940
vt 0.245840 0.351447
vt 0.246397 0.288815
vt 0.246768 0.205307
vt 0.370268 0.205307
vt 0.494283 0.205307
vt 0.492822 0.304944
vt 0.490632 0.379672
vt 0.369475 0.110659
vt 0.246397 0.121798
vt 0.245841 0.059166
vt 0.368286 0.039673
vt 0.490632 0.030941
vt 0.492822 0.105669
vt 0.616755 0.103478
vt 0.619174 0.205307
vt 0.613127 0.027106
vt 0.616755 0.307135
vt 0.613126 0.383507
vt 0.123273 0.268175
vt 0.123047 0.315326
vt 0.054743 0.283353
vt 0.030912 0.249131
vt 0.030973 0.205306
vt 0.123423 0.205306
vt 0.123273 0.142438
vt 0.030912 0.161481
vt 0.054744 0.127260
vt 0.123047 0.095287
vt 0.839504 0.118056
vt 0.856743 0.205307
vt 0.968983 0.205307
vt 0.938030 0.133427
vt 0.876123 0.061548
vt 0.805028 0.030806
vt 0.721203 0.008146
vt 0.734555 0.106726
vt 0.741230 0.205307
vt 0.839504 0.292557
vt 0.805028 0.379807
vt 0.876123 0.349065
vt 0.938030 0.277186
vt 0.734555 0.303887
vt 0.721203 0.402467
vt 0.369475 0.299954
vt 0.367890 0.394602
vt 0.489902 0.404581
vt 0.492822 0.304944
vt 0.494283 0.205307
vt 0.370268 0.205307
vt 0.246768 0.205307
vt 0.246397 0.288815
vt 0.245655 0.372324
vt 0.369475 0.110659
vt 0.492822 0.105669
vt 0.489902 0.006032
vt 0.367890 0.016011
vt 0.245655 0.038289
vt 0.246397 0.121798
vt 0.616755 0.103478
vt 0.619174 0.205307
vt 0.611917 0.001649
vt 0.616755 0.307135
vt 0.611917 0.408964
vt 0.123273 0.268175
vt 0.122972 0.331043
vt 0.123423 0.205306
vt 0.000156 0.205306
vt 0.000125 0.242784
vt 0.000064 0.280261
vt 0.123273 0.142438
vt 0.122972 0.079570
vt 0.000064 0.130352
vt 0.000125 0.167829
vt 0.122972 0.331043
vt 0.030806 0.283587
vt 0.245655 0.372324
vt 0.030806 0.283587
vt 0.000125 0.167829
vt 0.030806 0.127026
vt 0.000156 0.205306
vt 0.030806 0.127026
vt 0.805028 0.030806
vt 0.873826 0.071832
vt 0.721203 0.008146
vt 0.873826 0.071832
vt 0.938030 0.277186
vt 0.873826 0.338781
vt 0.968983 0.205307
vt 0.873826 0.338781
vt 0.805028 0.379807
vt 0.721203 0.402467
vt 0.000125 0.242784
vt 0.122972 0.079570
vt 0.245655 0.038289
vt 0.938030 0.133427
vt 0.611917 0.001649
vt 0.489902 0.006032
vt 0.611917 0.408964
vt 0.489902 0.404581
vt 0.367890 0.394602
vt 0.367890 0.016011
f 1/1/1 2/2/2 3/3/3
f 1/1/1 3/3/3 4/4/4
f 1/1/1 4/4/4 5/5/5
f 1/1/1 5/5/5 6/6/6
f 1/1/1 6/6/6 7/7/7
f 1/1/1 7/7/7 8/8/8
f 1/1/1 8/8/8 9/9/9
f 1/1/1 9/9/9 2/2/2
f 10/10/10 11/11/11 12/12/12
f 10/10/10 12/12/12 13/13/13
f 10/10/10 13/13/13 3/3/3
f 10/10/10 3/3/3 2/2/2
f 10/10/10 2/2/2 9/9/9
f 10/10/10 9/9/9 14/14/14
f 10/10/10 14/14/14 15/15/15
f 10/10/10 15/15/15 11/11/11
f 16/16/16 17/17/17 18/18/18
f 16/16/16 18/18/18 19/19/19
f 16/16/16 19/19/19 20/20/20
f 16/16/16 20/20/20 21/21/21
f 16/16/16 21/21/21 22/22/22
f 16/16/16 22/22/22 23/23/23
f 16/16/16 23/23/23 24/24/24
f 16/16/16 24/24/24 17/17/17
f 25/25/25 21/21/21 20/20/20
f 25/25/25 20/20/20 26/26/26
f 25/25/25 26/26/26 27/27/27
f 25/25/25 27/27/27 28/28/28
f 25/25/25 28/28/28 29/29/29
f 25/25/25 29/29/29 30/30/30
f 25/25/25 30/30/30 22/22/22
f 25/25/25 22/22/22 21/21/21
f 31/31/31 32/32/32 22/22/22
f 31/31/31 22/22/22 30/30/30
f 31/31/31 30/30/30 29/29/29
f 31/31/31 29/29/29 33/33/33
f 31/31/31 33/33/33 5/5/5
f 31/31/31 5/5/5 4/4/4
f 31/31/31 4/4/4 3/3/3
f 31/31/31 3/3/3 32/32/32
f 34/34/34 35/35/35 24/24/24
f 34/34/34 24/24/24 23/23/23
f 34/34/34 23/23/23 22/22/22
f 34/34/34 22/22/22 32/32/32
f 34/34/34 32/32/32 3/3/3
f 34/34/34 3/3/3 13/13/13
f 34/34/34 13/13/13 12/12/12
f 34/34/34 12/12/12 35/35/35
f 36/36/36 37/37/37 38/38/38
f 36/36/36 38/38/38 39/39/39
f 36/36/36 39/39/39 40/40/40
f 36/36/36 40/40/40 41/41/41
f 36/36/36 41/41/41 20/20/20
f 36/36/36 20/20/20 19/19/19
f 36/36/36 19/19/19 18/18/18
f 36/36/36 18/18/18 37/37/37
f 42/42/42 41/41/41 40/40/40
f 42/42/42 40/40/40 43/43/43
f 42/42/42 43/43/43 44/44/44
f 42/42/42 44/44/44 45/45/45
f 42/42/42 45/45/45 27/27/27
f 42/42/42 27/27/27 26/26/26
f 42/42/42 26/26/26 20/20/20
f 42/42/42 20/20/20 41/41/41
f 46/46/46 47/47/47 48/48/48
f 46/46/46 48/48/48 49/49/49
f 46/46/46 49/49/49 50/50/50
f 46/46/46 50/50/50 51/51/51
f 46/46/46 51/51/51 52/52/52
f 46/46/46 52/52/52 53/53/53
f 46/46/46 53/53/53 54/54/54
f 46/46/46 54/54/54 47/47/47
f 55/55/55 56/56/56 57/57/57
f 55/55/55 57/57/57 58/58/58
f 55/55/55 58/58/58 48/48/48
f 55/55/55 48/48/48 47/47/47
f 55/55/55 47/47/47 54/54/54
f 55/55/55 54/54/54 59/59/59
f 55/55/55 59/59/59 60/60/60
f 55/55/55 60/60/60 56/56/56
f 61/61/61 62/62/62 63/63/63
f 61/61/61 63/63/63 64/64/64
f 61/61/61 64/64/64 65/65/65
f 61/61/61 65/65/65 66/66/66
f 61/61/61 66/66/66 67/67/67
f 61/61/61 67/67/67 68/68/68
f 61/61/61 68/68/68 69/69/69
f 61/61/61 69/69/69 62/62/62
f 70/70/70 66/66/66 65/65/65
f 70/70/70 65/65/65 71/71/71
f 70/70/70 71/71/71 72/72/72
f 70/70/70 72/72/72 73/73/73
f 70/70/70 73/73/73 74/74/74
f 70/70/70 74/74/74 75/75/75
f 70/70/70 75/75/75 67/67/67
f 70/70/70 67/67/67 66/66/66
f 76/76/76 77/77/77 54/54/54
f 76/76/76 54/54/54 53/53/53
f 76/76/76 53/53/53 52/52/52
f 76/76/76 52/52/52 78/78/78
f 76/76/76 78/78/78 72/72/72
f 76/76/76 72/72/72 71/71/71
f 76/76/76 71/71/71 65/65/65
f 76/76/76 65/65/65 77/77/77
f 79/79/79 80/80/80 60/60/60
f 79/79/79 60/60/60 59/59/59
f 79/79/79 59/59/59 54/54/54
f 79/79/79 54/54/54 77/77/77
f 79/79/79 77/77/77 65/65/65
f 79/79/79 65/65/65 64/64/64
f 79/79/79 64/64/64 63/63/63
f 79/79/79 63/63/63 80/80/80
f 81/81/81 82/82/82 69/69/69
f 81/81/81 69/69/69 68/68/68
f 81/81/81 68/68/68 67/67/67
f 81/81/81 67/67/67 83/83/83
f 81/81/81 83/83/83 84/84/84
f 81/81/81 84/84/84 85/85/85
f 81/81/81 85/85/85 86/86/86
f 81/81/81 86/86/86 82/82/82
f 87/87/87 83/83/83 67/67/67
f 87/87/87 67/67/67 75/75/75
f 87/87/87 75/75/75 74/74/74
f 87/87/87 74/74/74 88/88/88
f 87/87/87 88/88/88 89/89/89
f 87/87/87 89/89/89 90/90/90
f 87/87/87 90/90/90 84/84/84
f 87/87/87 84/84/84 83/83/83
f 91/91/91 92/92/92 38/38/38
f 91/91/91 38/38/38 37/37/37
f 91/91/91 37/37/37 18/18/18
f 91/91/91 18/18/18 93/93/93
f 91/91/91 93/93/93 69/69/69
f 91/91/91 69/69/69 82/82/82
f 91/91/91 82/82/82 94/94/94
f 91/91/91 94/94/94 92/92/92
f 95/95/95 96/96/96 44/44/44
f 95/95/95 44/44/44 43/43/43
f 95/95/95 43/43/43 40/40/40
f 95/95/95 40/40/40 97/97/97
f 95/95/95 97/97/97 84/84/84
f 95/95/95 84/84/84 90/90/90
f 95/95/95 90/90/90 98/98/98
f 95/95/95 98/98/98 96/96/96
f 99/99/99 100/100/100 7/7/7
f 99/99/99 7/7/7 6/6/6
f 99/99/99 6/6/6 5/5/5
f 99/99/99 5/5/5 101/101/101
f 99/99/99 101/101/101 52/52/52
f 99/99/99 52/52/52 51/51/51
f 99/99/99 51/51/51 102/102/102
f 99/99/99 102/102/102 100/100/100
f 103/103/103 104/104/104 15/15/15
f 103/103/103 15/15/15 14/14/14
f 103/103/103 14/14/14 9/9/9
f 103/103/103 9/9/9 105/105/105
f 103/103/103 105/105/105 48/48/48
f 103/103/103 48/48/48 58/58/58
f 103/103/103 58/58/58 106/106/106
f 103/103/103 106/106/106 104/104/104
f 107/107/107 108/108/108 12/12/12
f 107/107/107 12/12/12 11/11/11
f 107/107/107 11/11/11 15/15/15
f 107/107/107 15/15/15 104/104/104
f 107/107/107 104/104/104 106/106/106
f 107/107/107 106/106/106 56/56/56
f 107/107/107 56/56/56 60/60/60
f 107/107/107 60/60/60 108/108/108
f 109/109/109 97/97/97 40/40/40
f 109/109/109 40/40/40 39/39/39
f 109/109/109 39/39/39 38/38/38
f 109/109/109 38/38/38 92/92/92
f 109/109/109 92/92/92 94/94/94
f 109/109/109 94/94/94 85/85/85
f 109/109/109 85/85/85 84/84/84
f 109/109/109 84/84/84 97/97/97
f 110/110/110 111/111/111 27/27/27
f 110/110/110 27/27/27 45/45/45
f 110/110/110 45/45/45 44/44/44
f 110/110/110 44/44/44 96/96/96
f 110/110/110 96/96/96 98/98/98
f 110/110/110 98/98/98 88/88/88
f 110/110/110 88/88/88 74/74/74
f 110/110/110 74/74/74 111/111/111
f 112/112/112 105/105/105 9/9/9
f 112/112/112 9/9/9 8/8/8
f 112/112/112 8/8/8 7/7/7
f 112/112/112 7/7/7 100/100/100
f 112/112/112 100/100/100 102/102/102
f 112/112/112 102/102/102 49/49/49
f 112/112/112 49/49/49 48/48/48
f 112/112/112 48/48/48 105/105/105
f 113/113/113 101/101/101 5/5/5
f 113/113/113 5/5/5 33/33/33
f 113/113/113 33/33/33 29/29/29
f 113/113/113 29/29/29 114/114/114
f 113/113/113 114/114/114 72/72/72
f 113/113/113 72/72/72 78/78/78
f 113/113/113 78/78/78 52/52/52
f 113/113/113 52/52/52 101/101/101
f 115/115/115 116/116/116 24/24/24
f 115/115/115 24/24/24 35/35/35
f 115/115/115 35/35/35 12/12/12
f 115/115/115 12/12/12 108/108/108
f 115/115/115 108/108/108 60/60/60
f 115/115/115 60/60/60 80/80/80
f 115/115/115 80/80/80 63/63/63
f 115/115/115 63/63/63 116/116/116
f 117/117/117 93/93/93 18/18/18
f 117/117/117 18/18/18 17/17/17
f 117/117/117 17/17/17 24/24/24
f 117/117/117 24/24/24 116/116/116
f 117/117/117 116/116/116 63/63/63
f 117/117/117 63/63/63 62/62/62
f 117/117/117 62/62/62 69/69/69
f 117/117/117 69/69/69 93/93/93
f 118/118/118 114/114/114 29/29/29
f 118/118/118 29/29/29 28/28/28
f 118/118/118 28/28/28 27/27/27
f 118/118/118 27/27/27 111/111/111
f 118/118/118 111/111/111 74/74/74
f 118/118/118 74/74/74 73/73/73
f 118/118/118 73/73/73 72/72/72
f 118/118/118 72/72/72 114/114/114
