v -2.391183 0.796208 -1.224547
v -2.390367 0.796046 -1.226168
v -2.392068 0.794322 -1.226297
v -2.392773 0.794661 -1.224428
v -2.393502 0.794956 -1.223069
v -2.392117 0.796261 -1.223384
v -2.39105 0.796898 -1.223849
v -2.389977 0.797228 -1.224673
v -2.389063 0.797251 -1.226054
v -2.39045 0.795739 -1.227963
v -2.390831 0.795438 -1.229374
v -2.39204 0.794022 -1.229873
v -2.391939 0.794128 -1.22831
v -2.389342 0.796822 -1.227629
v -2.390008 0.796232 -1.2287
v -2.396284 0.787898 -1.228346
v -2.396152 0.787779 -1.229824
v -2.39736 0.785506 -1.229362
v -2.397467 0.785609 -1.228051
v -2.397704 0.785785 -1.226335
v -2.396563 0.788101 -1.226408
v -2.395273 0.790325 -1.226437
v -2.394996 0.790123 -1.228468
v -2.39488 0.790013 -1.230021
v -2.397101 0.788421 -1.224542
v -2.398189 0.786071 -1.224688
v -2.398626 0.786316 -1.223467
v -2.397583 0.788694 -1.22316
v -2.396377 0.79097 -1.22305
v -2.39585 0.79067 -1.224489
v -2.394368 0.792782 -1.22443
v -2.393739 0.792407 -1.226393
v -2.394969 0.793125 -1.222988
v -2.393501 0.792228 -1.228467
v -2.39345 0.792154 -1.230063
v -2.398644 0.78331 -1.227534
v -2.398602 0.78325 -1.228524
v -2.399269 0.781991 -1.227799
v -2.399504 0.781573 -1.227059
v -2.399567 0.781638 -1.226166
v -2.398792 0.78343 -1.226246
v -2.399183 0.783655 -1.225024
v -2.399873 0.781809 -1.225339
v -2.399933 0.782416 -1.224704
v -2.399548 0.783854 -1.224122
v -2.391055 0.796086 -1.224476
v -2.390232 0.795919 -1.226122
v -2.388964 0.797155 -1.226019
v -2.389883 0.797135 -1.224618
v -2.390981 0.796831 -1.223803
v -2.392025 0.796173 -1.223318
v -2.393404 0.794871 -1.223006
v -2.392639 0.794544 -1.224359
v -2.391928 0.794201 -1.22625
v -2.390311 0.79561 -1.227942
v -2.390724 0.795342 -1.229372
v -2.389931 0.79616 -1.228695
v -2.38924 0.796724 -1.227615
v -2.391796 0.794005 -1.228286
v -2.391931 0.79393 -1.229867
v -2.39612 0.787805 -1.228315
v -2.396027 0.787708 -1.22981
v -2.39476 0.789935 -1.230008
v -2.394837 0.790021 -1.228438
v -2.395118 0.790224 -1.226389
v -2.396402 0.788009 -1.226361
v -2.397539 0.7857 -1.226288
v -2.397299 0.785522 -1.228021
v -2.397233 0.785441 -1.229348
v -2.396944 0.788332 -1.224479
v -2.395699 0.790572 -1.224425
v -2.396266 0.790898 -1.222993
v -2.397467 0.788629 -1.223104
v -2.398508 0.786255 -1.223412
v -2.398028 0.785988 -1.224624
v -2.394226 0.792674 -1.224363
v -2.393592 0.792295 -1.226346
v -2.394865 0.793046 -1.222929
v -2.39335 0.792115 -1.22844
v -2.393335 0.792068 -1.230053
v -2.398475 0.783226 -1.227505
v -2.398474 0.783186 -1.228511
v -2.398626 0.783348 -1.226199
v -2.399442 0.781577 -1.226131
v -2.399376 0.78151 -1.227038
v -2.399174 0.781944 -1.227787
v -2.399021 0.783576 -1.224959
v -2.399429 0.783796 -1.224065
v -2.399845 0.782373 -1.224664
v -2.399752 0.78175 -1.22529
v -2.398531 0.783201 -1.22885
v -2.399476 0.781527 -1.227782
v -2.397268 0.785443 -1.229794
v -2.399174 0.781944 -1.227787
v -2.400049 0.781168 -1.225423
v -2.400141 0.781953 -1.224681
v -2.39977 0.781014 -1.226124
v -2.399845 0.782373 -1.224664
v -2.392388 0.79624 -1.222964
v -2.391044 0.797025 -1.223654
v -2.393702 0.795017 -1.222585
v -2.390981 0.796831 -1.223803
v -2.388928 0.797139 -1.227512
v -2.389917 0.796305 -1.228902
v -2.388585 0.79761 -1.226
v -2.389931 0.79616 -1.228695
v -2.39091 0.795295 -1.229846
v -2.392025 0.793945 -1.230394
v -2.399734 0.780966 -1.226892
v -2.399617 0.783895 -1.223795
v -2.39872 0.786371 -1.223034
v -2.389534 0.797527 -1.22469
v -2.395124 0.793205 -1.222479
v -2.396504 0.791039 -1.222543
v -2.393382 0.792091 -1.230593
v -2.394788 0.789942 -1.230535
v -2.396052 0.787708 -1.230313
v -2.397692 0.788756 -1.222673
vn -0.6227 0.6432 -0.4454
vn -0.6688 0.7035 -0.2402
vn -0.7103 0.6605 -0.2432
vn -0.6714 0.6056 -0.4271
vn -0.6909 0.5888 -0.4194
vn -0.6258 0.6451 -0.4384
vn -0.577 0.6823 -0.449
vn -0.5686 0.7171 -0.4031
vn -0.5994 0.7655 -0.2338
vn -0.7128 0.7009 -0.0258
vn -0.7126 0.7007 -0.0339
vn -0.7676 0.6379 -0.0623
vn -0.752 0.6571 -0.0519
vn -0.6422 0.7641 -0.0603
vn -0.6702 0.742 -0.0145
vn -0.8741 0.4653 -0.1394
vn -0.8732 0.4545 -0.1759
vn -0.8874 0.4253 -0.178
vn -0.8902 0.4364 -0.1307
vn -0.8763 0.4148 -0.2451
vn -0.8569 0.4528 -0.2461
vn -0.8135 0.5265 -0.247
vn -0.837 0.5322 -0.1269
vn -0.843 0.5153 -0.1539
vn -0.8289 0.4364 -0.35
vn -0.8416 0.4054 -0.3567
vn -0.8588 0.407 -0.3112
vn -0.8433 0.4354 -0.3149
vn -0.8036 0.4901 -0.3377
vn -0.7863 0.4997 -0.3633
vn -0.7273 0.5632 -0.3921
vn -0.7586 0.6034 -0.2457
vn -0.7484 0.5456 -0.3771
vn -0.7913 0.6042 -0.0942
vn -0.8054 0.5821 -0.1114
vn -0.8988 0.4256 -0.1047
vn -0.8987 0.4101 -0.1551
vn -0.9092 0.3977 -0.1229
vn -0.9233 0.3755 -0.0808
vn -0.907 0.3445 -0.242
vn -0.8848 0.3966 -0.2444
vn -0.8396 0.3878 -0.3803
vn -0.8551 0.3318 -0.3983
vn -0.858 0.365 -0.3613
vn -0.8607 0.3859 -0.3319
vn 0.6289 -0.6182 0.4714
vn 0.6806 -0.6919 0.2411
vn 0.7241 -0.6451 0.244
vn 0.6399 -0.5405 0.5462
vn 0.6029 -0.4741 0.6416
vn 0.6088 -0.4919 0.6224
vn 0.6422 -0.5175 0.5655
vn 0.6672 -0.6004 0.4409
vn 0.7103 -0.6605 0.2432
vn 0.7304 -0.683 -0.0009
vn 0.7798 -0.6013 -0.174
vn 0.7832 -0.5894 -0.1978
vn 0.7748 -0.6268 -0.082
vn 0.754 -0.6558 0.0367
vn 0.786 -0.6095 -0.1039
vn 0.8752 -0.4677 0.1234
vn 0.8761 -0.4819 0.0111
vn 0.8493 -0.5279 0.0001
vn 0.8383 -0.5335 0.112
vn 0.8135 -0.5264 0.247
vn 0.8571 -0.4526 0.2462
vn 0.8763 -0.4147 0.2451
vn 0.8904 -0.441 0.1121
vn 0.8769 -0.4803 -0.0139
vn 0.8232 -0.4345 0.3652
vn 0.7814 -0.4971 0.3773
vn 0.7466 -0.4622 0.4785
vn 0.7781 -0.4192 0.4677
vn 0.7689 -0.4113 0.4895
vn 0.8341 -0.405 0.3743
vn 0.7226 -0.5598 0.4056
vn 0.7586 -0.6034 0.2457
vn 0.6936 -0.5046 0.5141
vn 0.7926 -0.6045 0.0796
vn 0.8129 -0.5809 -0.0415
vn 0.8918 -0.4453 0.0798
vn 0.857 -0.5108 -0.0679
vn 0.8797 -0.4076 0.2448
vn 0.8555 -0.4555 0.2462
vn 0.8594 -0.5112 0.0082
vn 0.8401 -0.5332 -0.0997
vn 0.8221 -0.4007 0.4044
vn 0.727 -0.4279 0.5369
vn 0.6975 -0.4422 0.5638
vn 0.7601 -0.4474 0.4712
vn -0.1503 -0.3691 -0.9171
vn -0.3683 -0.6302 -0.6835
vn -0.0443 -0.2641 -0.9635
vn 0.8401 -0.5332 -0.0997
vn -0.5007 -0.8287 0.2501
vn -0.6468 -0.4524 0.6139
vn -0.322 -0.9448 0.0608
vn 0.6975 -0.4422 0.5638
vn -0.1953 0.5695 0.7984
vn 0.054 0.7342 0.6767
vn -0.3176 0.4072 0.8563
vn 0.6029 -0.4741 0.6416
vn 0.6627 0.6003 -0.4476
vn 0.363 0.5365 -0.7618
vn 0.758 0.6481 0.0738
vn 0.7832 -0.5894 -0.1978
vn 0.1751 0.3323 -0.9268
vn 0.078 0.1544 -0.9849
vn -0.4027 -0.8915 -0.2076
vn -0.5276 -0.1284 0.8397
vn -0.4436 -0.0092 0.8962
vn 0.4584 0.731 0.5054
vn -0.3723 0.2727 0.8871
vn -0.3865 0.1886 0.9028
vn 0.0332 0.0142 -0.9993
vn 0.0214 -0.0725 -0.9971
vn 0.0103 -0.1574 -0.9875
vn -0.3972 0.1037 0.9118
vt 0.839504 0.118056
vt 0.856743 0.205307
vt 0.741230 0.205307
vt 0.734555 0.106726
vt 0.724541 0.032791
vt 0.813647 0.052618
vt 0.868992 0.081539
vt 0.913398 0.129584
vt 0.940923 0.205307
vt 0.839504 0.292557
vt 0.813647 0.357995
vt 0.724541 0.377822
vt 0.734555 0.303887
vt 0.913398 0.281029
vt 0.868992 0.329074
vt 0.369475 0.299954
vt 0.368286 0.370940
vt 0.245840 0.351447
vt 0.246397 0.288815
vt 0.246768 0.205307
vt 0.370268 0.205307
vt 0.494283 0.205307
vt 0.492822 0.304944
vt 0.490632 0.379672
vt 0.369475 0.110659
vt 0.246397 0.121798
vt 0.245841 0.059166
vt 0.368286 0.039673
vt 0.490632 0.030941
vt 0.492822 0.105669
vt 0.616755 0.103478
vt 0.619174 0.205307
vt 0.613127 0.027106
vt 0.616755 0.307135
vt 0.613126 0.383507
vt 0.123273 0.268175
vt 0.123047 0.315326
vt 0.054743 0.283353
vt 0.030912 0.249131
vt 0.030973 0.205306
vt 0.123423 0.205306
vt 0.123273 0.142438
vt 0.030912 0.161481
vt 0.054744 0.127260
vt 0.123047 0.095287
vt 0.839504 0.118056
vt 0.856743 0.205307
vt 0.968983 0.205307
vt 0.938030 0.133427
vt 0.876123 0.061548
vt 0.805028 0.030806
vt 0.721203 0.008146
vt 0.734555 0.106726
vt 0.741230 0.205307
vt 0.839504 0.292557
vt 0.805028 0.379807
vt 0.876123 0.349065
vt 0.938030 0.277186
vt 0.734555 0.303887
vt 0.721203 0.402467
vt 0.369475 0.299954
vt 0.367890 0.394602
vt 0.489902 0.404581
vt 0.492822 0.304944
vt 0.494283 0.205307
vt 0.370268 0.205307
vt 0.246768 0.205307
vt 0.246397 0.288815
vt 0.245655 0.372324
vt 0.369475 0.110659
vt 0.492822 0.105669
vt 0.489902 0.006032
vt 0.367890 0.016011
vt 0.245655 0.038289
vt 0.246397 0.121798
vt 0.616755 0.103478
vt 0.619174 0.205307
vt 0.611917 0.001649
vt 0.616755 0.307135
vt 0.611917 0.408964
vt 0.123273 0.268175
vt 0.122972 0.331043
vt 0.123423 0.205306
vt 0.000156 0.205306
vt 0.000125 0.242784
vt 0.000064 0.280261
vt 0.123273 0.142438
vt 0.122972 0.079570
vt 0.000064 0.130352
vt 0.000125 0.167829
vt 0.122972 0.331043
vt 0.030806 0.283587
vt 0.245655 0.372324
vt 0.030806 0.283587
vt 0.000125 0.167829
vt 0.030806 0.127026
vt 0.000156 0.205306
vt 0.030806 0.127026
vt 0.805028 0.030806
vt 0.873826 0.071832
vt 0.721203 0.008146
vt 0.873826 0.071832
vt 0.938030 0.277186
vt 0.873826 0.338781
vt 0.968983 0.205307
vt 0.873826 0.338781
vt 0.805028 0.379807
vt 0.721203 0.402467
vt 0.000125 0.242784
vt 0.122972 0.079570
vt 0.245655 0.038289
vt 0.938030 0.133427
vt 0.611917 0.001649
vt 0.489902 0.006032
vt 0.611917 0.408964
vt 0.489902 0.404581
vt 0.367890 0.394602
vt 0.367890 0.016011
f 1/1/1 2/2/2 3/3/3
f 1/1/1 3/3/3 4/4/4
f 1/1/1 4/4/4 5/5/5
f 1/1/1 5/5/5 6/6/6
f 1/1/1 6/6/6 7/7/7
f 1/1/1 7/7/7 8/8/8
f 1/1/1 8/8/8 9/9/9
f 1/1/1 9/9/9 2/2/2
f 10/10/10 11/11/11 12/12/12
f 10/10/10 12/12/12 13/13/13
f 10/10/10 13/13/13 3/3/3
f 10/10/10 3/3/3 2/2/2
f 10/10/10 2/2/2 9/9/9
f 10/10/10 9/9/9 14/14/14
f 10/10/10 14/14/14 15/15/15
f 10/10/10 15/15/15 11/11/11
f 16/16/16 17/17/17 18/18/18
f 16/16/16 18/18/18 19/19/19
f 16/16/16 19/19/19 20/20/20
f 16/16/16 20/20/20 21/21/21
f 16/16/16 21/21/21 22/22/22
f 16/16/16 22/22/22 23/23/23
f 16/16/16 23/23/23 24/24/24
f 16/16/16 24/24/24 17/17/17
f 25/25/25 21/21/21 20/20/20
f 25/25/25 20/20/20 26/26/26
f 25/25/25 26/26/26 27/27/27
f 25/25/25 27/27/27 28/28/28
f 25/25/25 28/28/28 29/29/29
f 25/25/25 29/29/29 30/30/30
f 25/25/25 30/30/30 22/22/22
f 25/25/25 22/22/22 21/21/21
f 31/31/31 32/32/32 22/22/22
f 31/31/31 22/22/22 30/30/30
f 31/31/31 30/30/30 29/29/29
f 31/31/31 29/29/29 33/33/33
f 31/31/31 33/33/33 5/5/5
f 31/31/31 5/5/5 4/4/4
f 31/31/31 4/4/4 3/3/3
f 31/31/31 3/3/3 32/32/32
f 34/34/34 35/35/35 24/24/24
f 34/34/34 24/24/24 23/23/23
f 34/34/34 23/23/23 22/22/22
f 34/34/34 22/22/22 32/32/32
f 34/34/34 32/32/32 3/3/3
f 34/34/34 3/3/3 13/13/13
f 34/34/34 13/13/13 12/12/12
f 34/34/34 12/12/12 35/35/35
f 36/36/36 37/37/37 38/38/38
f 36/36/36 38/38/38 39/39/39
f 36/36/36 39/39/39 40/40/40
f 36/36/36 40/40/40 41/41/41
f 36/36/36 41/41/41 20/20/20
f 36/36/36 20/20/20 19/19/19
f 36/36/36 19/19/19 18/18/18
f 36/36/36 18/18/18 37/37/37
f 42/42/42 41/41/41 40/40/40
f 42/42/42 40/40/40 43/43/43
f 42/42/42 43/43/43 44/44/44
f 42/42/42 44/44/44 45/45/45
f 42/42/42 45/45/45 27/27/27
f 42/42/42 27/27/27 26/26/26
f 42/42/42 26/26/26 20/20/20
f 42/42/42 20/20/20 41/41/41
f 46/46/46 47/47/47 48/48/48
f 46/46/46 48/48/48 49/49/49
f 46/46/46 49/49/49 50/50/50
f 46/46/46 50/50/50 51/51/51
f 46/46/46 51/51/51 52/52/52
f 46/46/46 52/52/52 53/53/53
f 46/46/46 53/53/53 54/54/54
f 46/46/46 54/54/54 47/47/47
f 55/55/55 56/56/56 57/57/57
f 55/55/55 57/57/57 58/58/58
f 55/55/55 58/58/58 48/48/48
f 55/55/55 48/48/48 47/47/47
f 55/55/55 47/47/47 54/54/54
f 55/55/55 54/54/54 59/59/59
f 55/55/55 59/59/59 60/60/60
f 55/55/55 60/60/60 56/56/56
f 61/61/61 62/62/62 63/63/63
f 61/61/61 63/63/63 64/64/64
f 61/61/61 64/64/64 65/65/65
f 61/61/61 65/65/65 66/66/66
f 61/61/61 66/66/66 67/67/67
f 61/61/61 67/67/67 68/68/68
f 61/61/61 68/68/68 69/69/69
f 61/61/61 69/69/69 62/62/62
f 70/70/70 66/66/66 65/65/65
f 70/70/70 65/65/65 71/71/71
f 70/70/70 71/71/71 72/72/72
f 70/70/70 72/72/72 73/73/73
f 70/70/70 73/73/73 74/74/74
f 70/70/70 74/74/74 75/75/75
f 70/70/70 75/75/75 67/67/67
f 70/70/70 67/67/67 66/66/66
f 76/76/76 77/77/77 54/54/54
f 76/76/76 54/54/54 53/53/53
f 76/76/76 53/53/53 52/52/52
f 76/76/76 52/52/52 78/78/78
f 76/76/76 78/78/78 72/72/72
f 76/76/76 72/72/72 71/71/71
f 76/76/76 71/71/71 65/65/65
f 76/76/76 65/65/65 77/77/77
f 79/79/79 80/80/80 60/60/60
f 79/79/79 60/60/60 59/59/59
f 79/79/79 59/59/59 54/54/54
f 79/79/79 54/54/54 77/77/77
f 79/79/79 77/77/77 65/65/65
f 79/79/79 65/65/65 64/64/64
f 79/79/79 64/64/64 63/63/63
f 79/79/79 63/63/63 80/80/80
f 81/81/81 82/82/82 69/69/69
f 81/81/81 69/69/69 68/68/68
f 81/81/81 68/68/68 67/67/67
f 81/81/81 67/67/67 83/83/83
f 81/81/81 83/83/83 84/84/84
f 81/81/81 84/84/84 85/85/85
f 81/81/81 85/85/85 86/86/86
f 81/81/81 86/86/86 82/82/82
f 87/87/87 83/83/83 67/67/67
f 87/87/87 67/67/67 75/75/75
f 87/87/87 75/75/75 74/74/74
f 87/87/87 74/74/74 88/88/88
f 87/87/87 88/88/88 89/89/89
f 87/87/87 89/89/89 90/90/90
f 87/87/87 90/90/90 84/84/84
f 87/87/87 84/84/84 83/83/83
f 91/91/91 92/92/92 38/38/38
f 91/91/91 38/38/38 37/37/37
f 91/91/91 37/37/37 18/18/18
f 91/91/91 18/18/18 93/93/93
f 91/91/91 93/93/93 69/69/69
f 91/91/91 69/69/69 82/82/82
f 91/91/91 82/82/82 94/94/94
f 91/91/91 94/94/94 92/92/92
f 95/95/95 96/96/96 44/44/44
f 95/95/95 44/44/44 43/43/43
f 95/95/95 43/43/43 40/40/40
f 95/95/95 40/40/40 97/97/97
f 95/95/95 97/97/97 84/84/84
f 95/95/95 84/84/84 90/90/90
f 95/95/95 90/90/90 98/98/98
f 95/95/95 98/98/98 96/96/96
f 99/99/99 100/100/100 7/7/7
f 99/99/99 7/7/7 6/6/6
f 99/99/99 6/6/6 5/5/5
f 99/99/99 5/5/5 101/101/101
f 99/99/99 101/101/101 52/52/52
f 99/99/99 52/52/52 51/51/51
f 99/99/99 51/51/51 102/102/102
f 99/99/99 102/102/102 100/100/100
f 103/103/103 104/104/104 15/15/15
f 103/103/103 15/15/15 14/14/14
f 103/103/103 14/14/14 9/9/9
f 103/103/103 9/9/9 105/105/105
f 103/103/103 105/105/105 48/48/48
f 103/103/103 48/48/48 58/58/58
f 103/103/103 58/58/58 106/106/106
f 103/103/103 106/106/106 104/104/104
f 107/107/107 108/108/108 12/12/12
f 107/107/107 12/12/12 11/11/11
f 107/107/107 11/11/11 15/15/15
f 107/107/107 15/15/15 104/104/104
f 107/107/107 104/104/104 106/106/106
f 107/107/107 106/106/106 56/56/56
f 107/107/107 56/56/56 60/60/60
f 107/107/107 60/60/60 108/108/108
f 109/109/109 97/97/97 40/40/40
f 109/109/109 40/40/40 39/39/39
f 109/109/109 39/39/39 38/38/38
f 109/109/109 38/38/38 92/92/92
f 109/109/109 92/92/92 94/94/94
f 109/109/109 94/94/94 85/85/85
f 109/109/109 85/85/85 84/84/84
f 109/109/109 84/84/84 97/97/97
f 110/110/110 111/111/111 27/27/27
f 110/110/110 27/27/27 45/45/45
f 110/110/110 45/45/45 44/44/44
f 110/110/110 44/44/44 96/96/96
f 110/110/110 96/96/96 98/98/98
f 110/110/110 98/98/98 88/88/88
f 110/110/110 88/88/88 74/74/74
f 110/110/110 74/74/74 111/111/111
f 112/112/112 105/105/105 9/9/9
f 112/112/112 9/9/9 8/8/8
f 112/112/112 8/8/8 7/7/7
f 112/112/112 7/7/7 100/100/100
f 112/112/112 100/100/100 102/102/102
f 112/112/112 102/102/102 49/49/49
f 112/112/112 49/49/49 48/48/48
f 112/112/112 48/48/48 105/105/105
f 113/113/113 101/101/101 5/5/5
f 113/113/113 5/5/5 33/33/33
f 113/113/113 33/33/33 29/29/29
f 113/113/113 29/29/29 114/114/114
f 113/113/113 114/114/114 72/72/72
f 113/113/113 72/72/72 78/78/78
f 113/113/113 78/78/78 52/52/52
f 113/113/113 52/52/52 101/101/101
f 115/115/115 116/116/116 24/24/24
f 115/115/115 24/24/24 35/35/35
f 115/115/115 35/35/35 12/12/12
f 115/115/115 12/12/12 108/108/108
f 115/115/115 108/108/108 60/60/60
f 115/115/115 60/60/60 80/80/80
f 115/115/115 80/80/80 63/63/63
f 115/115/115 63/63/63 116/116/116
f 117/117/117 93/93/93 18/18/18
f 117/117/117 18/18/18 17/17/17
f 117/117/117 17/17/17 24/24/24
f 117/117/117 24/24/24 116/116/116
f 117/117/117 116/116/116 63/63/63
f 117/117/117 63/63/63 62/62/62
f 117/117/117 62/62/62 69/69/69
f 117/117/117 69/69/69 93/93/93
f 118/118/118 114/114/114 29/29/29
f 118/118/118 29/29/29 28/28/28
f 118/118/118 28/28/28 27/27/27
f 118/118/118 27/27/27 111/111/111
f 118/118/118 111/111/111 74/74/74
f 118/118/118 74/74/74 73/73/73
f 118/118/118 73/73/73 72/72/72
f 118/118/118 72/72/72 114/114/114
