v -2.367059 0.717825 -1.040815
v -2.365164 0.718914 -1.041539
v -2.366707 0.718535 -1.044161
v -2.368655 0.717287 -1.043062
v -2.370316 0.716505 -1.042309
v -2.368793 0.717146 -1.040517
v -2.367433 0.71759 -1.039643
v -2.365805 0.718157 -1.039289
v -2.363973 0.719107 -1.039641
v -2.364134 0.720447 -1.042916
v -2.363664 0.721745 -1.044202
v -2.36449 0.72173 -1.046495
v -2.365331 0.720267 -1.04545
v -2.363273 0.720427 -1.041107
v -2.363279 0.721314 -1.042627
v -2.369177 0.717724 -1.05387
v -2.368127 0.718997 -1.054776
v -2.3694 0.717455 -1.057408
v -2.370318 0.716319 -1.056604
v -2.371634 0.714904 -1.05555
v -2.370676 0.716133 -1.052682
v -2.369566 0.717191 -1.049817
v -2.368013 0.718873 -1.051058
v -2.366938 0.720232 -1.052004
v -2.372434 0.714804 -1.05153
v -2.373199 0.713737 -1.054534
v -2.374448 0.712929 -1.053782
v -2.373834 0.71388 -1.050676
v -2.372908 0.714879 -1.047716
v -2.37142 0.715818 -1.04861
v -2.370134 0.716632 -1.045724
v -2.368209 0.717976 -1.046948
v -2.371711 0.715752 -1.044818
v -2.366677 0.719732 -1.048207
v -2.365653 0.721184 -1.04917
v -2.371586 0.714693 -1.059217
v -2.370938 0.715579 -1.059825
v -2.37192 0.714275 -1.061014
v -2.372561 0.713371 -1.061131
v -2.373175 0.71259 -1.060584
v -2.372539 0.713609 -1.058426
v -2.373735 0.712766 -1.057673
v -2.374033 0.71205 -1.060073
v -2.374571 0.711898 -1.05911
v -2.374707 0.712199 -1.057117
v -2.366942 0.717616 -1.040842
v -2.365024 0.718723 -1.041584
v -2.36387 0.718963 -1.039678
v -2.365721 0.717999 -1.039312
v -2.367375 0.71747 -1.039655
v -2.368718 0.716981 -1.040529
v -2.370234 0.716344 -1.042317
v -2.368531 0.717081 -1.043083
v -2.366563 0.718345 -1.044197
v -2.363974 0.720277 -1.042975
v -2.363534 0.721629 -1.044253
v -2.363186 0.721226 -1.042665
v -2.363154 0.720301 -1.041156
v -2.365168 0.720097 -1.045499
v -2.364358 0.721612 -1.046538
v -2.369 0.717559 -1.053876
v -2.367988 0.71888 -1.054785
v -2.366802 0.720113 -1.052024
v -2.367841 0.718705 -1.051076
v -2.369408 0.717009 -1.049825
v -2.370512 0.715954 -1.052678
v -2.371468 0.714729 -1.055537
v -2.370138 0.716157 -1.056601
v -2.369259 0.71734 -1.057411
v -2.372286 0.714613 -1.051515
v -2.371278 0.715623 -1.048607
v -2.372809 0.714727 -1.047708
v -2.37373 0.713731 -1.05066
v -2.374342 0.712783 -1.053759
v -2.373047 0.713549 -1.054511
v -2.370001 0.716432 -1.045734
v -2.368058 0.71779 -1.046971
v -2.371621 0.715595 -1.044819
v -2.36651 0.719562 -1.048242
v -2.36552 0.721065 -1.049202
v -2.371404 0.714534 -1.059212
v -2.370795 0.715467 -1.059826
v -2.372371 0.713435 -1.05841
v -2.37305 0.71246 -1.060571
v -2.372423 0.713252 -1.061128
v -2.371816 0.71419 -1.061013
v -2.373584 0.712579 -1.057646
v -2.374602 0.712053 -1.057091
v -2.37449 0.711792 -1.059092
v -2.37392 0.71191 -1.060052
v -2.370656 0.715826 -1.060029
v -2.372089 0.714017 -1.061578
v -2.36903 0.717784 -1.057679
v -2.371816 0.71419 -1.061013
v -2.374083 0.711749 -1.060864
v -2.374745 0.711637 -1.05967
v -2.373332 0.712193 -1.061297
v -2.37449 0.711792 -1.059092
v -2.369341 0.716844 -1.040421
v -2.367563 0.717491 -1.039397
v -2.370836 0.716171 -1.04206
v -2.367375 0.71747 -1.039655
v -2.362933 0.720365 -1.040527
v -2.363068 0.721521 -1.042626
v -2.363531 0.719108 -1.039025
v -2.363186 0.721226 -1.042665
v -2.363447 0.722129 -1.044655
v -2.364149 0.722167 -1.046864
v -2.372824 0.712878 -1.061768
v -2.374986 0.711944 -1.056919
v -2.374819 0.712593 -1.05352
v -2.36535 0.718198 -1.038791
v -2.372199 0.715387 -1.044515
v -2.373362 0.714497 -1.047413
v -2.365251 0.721617 -1.049506
v -2.366518 0.720633 -1.05233
v -2.367714 0.719371 -1.055083
v -2.374256 0.713505 -1.050383
vn -0.4077 0.907 0.1053
vn -0.5524 0.801 0.2307
vn -0.5821 0.793 0.1794
vn -0.4546 0.8883 0.0654
vn -0.4733 0.8795 0.0483
vn -0.4141 0.9037 0.109
vn -0.3707 0.9162 0.152
vn -0.3893 0.8982 0.204
vn -0.502 0.8076 0.3092
vn -0.6921 0.652 0.3096
vn -0.688 0.6581 0.3059
vn -0.7152 0.6627 0.2221
vn -0.7088 0.6604 0.2481
vn -0.6216 0.6899 0.3709
vn -0.6651 0.6524 0.3634
vn -0.7513 0.6598 0.0082
vn -0.732 0.6811 -0.0168
vn -0.7398 0.6711 -0.0466
vn -0.7661 0.6425 -0.0172
vn -0.6972 0.7122 -0.0815
vn -0.6843 0.7279 -0.0441
vn -0.6547 0.7553 0.0314
vn -0.7327 0.6755 0.0817
vn -0.7232 0.6885 0.0536
vn -0.6086 0.7878 -0.0943
vn -0.613 0.7797 -0.1272
vn -0.6497 0.7519 -0.1114
vn -0.6378 0.7655 -0.0844
vn -0.5987 0.8001 -0.0358
vn -0.5726 0.8191 -0.0333
vn -0.5149 0.8568 0.0267
vn -0.6164 0.7791 0.1144
vn -0.5384 0.8426 0.0115
vn -0.7168 0.6758 0.1717
vn -0.7184 0.6812 0.1408
vn -0.7846 0.6197 -0.0175
vn -0.7588 0.6492 -0.0529
vn -0.7818 0.6213 -0.0525
vn -0.8115 0.5815 -0.0567
vn -0.7172 0.6807 -0.1486
vn -0.7028 0.7043 -0.0992
vn -0.598 0.787 -0.1515
vn -0.5964 0.7744 -0.2111
vn -0.6204 0.766 -0.1683
vn -0.6391 0.7564 -0.1388
vn 0.398 -0.9146 -0.0709
vn 0.5608 -0.7991 -0.2167
vn 0.5918 -0.7897 -0.1617
vn 0.363 -0.9313 0.0303
vn 0.2777 -0.9538 0.1146
vn 0.294 -0.9512 0.0935
vn 0.3531 -0.9337 0.0586
vn 0.4437 -0.8943 -0.0564
vn 0.5821 -0.793 -0.1794
vn 0.718 -0.6276 -0.3008
vn 0.8336 -0.4674 -0.2943
vn 0.8465 -0.4438 -0.294
vn 0.7887 -0.5495 -0.2754
vn 0.7176 -0.6489 -0.2532
vn 0.8067 -0.527 -0.2672
vn 0.7602 -0.6494 -0.017
vn 0.8158 -0.5729 -0.0788
vn 0.803 -0.5813 -0.131
vn 0.7411 -0.6654 -0.0891
vn 0.6547 -0.7552 -0.0313
vn 0.6844 -0.7278 0.0443
vn 0.6972 -0.7121 0.0817
vn 0.7757 -0.631 0.0052
vn 0.8282 -0.5533 -0.0885
vn 0.5963 -0.7964 0.1007
vn 0.5614 -0.8266 0.04
vn 0.479 -0.8719 0.1018
vn 0.5065 -0.8502 0.1434
vn 0.4871 -0.8592 0.1565
vn 0.598 -0.7904 0.1328
vn 0.504 -0.8634 -0.0194
vn 0.6163 -0.7791 -0.1144
vn 0.4209 -0.9048 0.0643
vn 0.7248 -0.6655 -0.1781
vn 0.7972 -0.5674 -0.206
vn 0.7927 -0.6094 -0.0124
vn 0.84 -0.5229 -0.1448
vn 0.6994 -0.7092 0.0885
vn 0.6833 -0.7289 0.0414
vn 0.8061 -0.5814 -0.1097
vn 0.8429 -0.5058 -0.1834
vn 0.5728 -0.8066 0.1457
vn 0.4302 -0.8902 0.1494
vn 0.3934 -0.9087 0.1394
vn 0.4924 -0.8626 0.1154
vn 0.3472 0.5371 -0.7687
vn 0.0767 0.2861 -0.9551
vn 0.4492 0.5956 -0.6659
vn 0.8429 -0.5058 -0.1834
vn -0.4583 -0.4863 -0.7439
vn -0.8023 -0.5015 -0.3236
vn -0.1987 -0.4684 -0.8608
vn 0.3934 -0.9087 0.1394
vn -0.616 -0.2192 0.7566
vn -0.3596 -0.1178 0.9256
vn -0.7311 -0.3129 0.6063
vn 0.2777 -0.9538 0.1146
vn 0.7201 0.4528 0.5257
vn 0.6149 0.7557 0.2254
vn 0.5502 0.053 0.8333
vn 0.8465 -0.4438 -0.294
vn 0.5531 0.8289 -0.0833
vn 0.5166 0.8057 -0.2898
vn -0.1481 -0.2087 -0.9667
vn -0.8434 -0.5303 0.0863
vn -0.8108 -0.5342 0.2391
vn 0.0744 -0.1259 0.9892
vn -0.7773 -0.3932 0.4911
vn -0.7873 -0.4477 0.4239
vn 0.501 0.7528 -0.4269
vn 0.5 0.7065 -0.5009
vn 0.4955 0.6552 -0.5702
vn -0.7912 -0.4984 0.3544
vt 0.839504 0.118056
vt 0.856743 0.205307
vt 0.741230 0.205307
vt 0.734555 0.106726
vt 0.724541 0.032791
vt 0.813647 0.052618
vt 0.868992 0.081539
vt 0.913398 0.129584
vt 0.940923 0.205307
vt 0.839504 0.292557
vt 0.813647 0.357995
vt 0.724541 0.377822
vt 0.734555 0.303887
vt 0.913398 0.281029
vt 0.868992 0.329074
vt 0.369475 0.299954
vt 0.368286 0.370940
vt 0.245840 0.351447
vt 0.246397 0.288815
vt 0.246768 0.205307
vt 0.370268 0.205307
vt 0.494283 0.205307
vt 0.492822 0.304944
vt 0.490632 0.379672
vt 0.369475 0.110659
vt 0.246397 0.121798
vt 0.245841 0.059166
vt 0.368286 0.039673
vt 0.490632 0.030941
vt 0.492822 0.105669
vt 0.616755 0.103478
vt 0.619174 0.205307
vt 0.613127 0.027106
vt 0.616755 0.307135
vt 0.613126 0.383507
vt 0.123273 0.268175
vt 0.123047 0.315326
vt 0.054743 0.283353
vt 0.030912 0.249131
vt 0.030973 0.205306
vt 0.123423 0.205306
vt 0.123273 0.142438
vt 0.030912 0.161481
vt 0.054744 0.127260
vt 0.123047 0.095287
vt 0.839504 0.118056
vt 0.856743 0.205307
vt 0.968983 0.205307
vt 0.938030 0.133427
vt 0.876123 0.061548
vt 0.805028 0.030806
vt 0.721203 0.008146
vt 0.734555 0.106726
vt 0.741230 0.205307
vt 0.839504 0.292557
vt 0.805028 0.379807
vt 0.876123 0.349065
vt 0.938030 0.277186
vt 0.734555 0.303887
vt 0.721203 0.402467
vt 0.369475 0.299954
vt 0.367890 0.394602
vt 0.489902 0.404581
vt 0.492822 0.304944
vt 0.494283 0.205307
vt 0.370268 0.205307
vt 0.246768 0.205307
vt 0.246397 0.288815
vt 0.245655 0.372324
vt 0.369475 0.110659
vt 0.492822 0.105669
vt 0.489902 0.006032
vt 0.367890 0.016011
vt 0.245655 0.038289
vt 0.246397 0.121798
vt 0.616755 0.103478
vt 0.619174 0.205307
vt 0.611917 0.001649
vt 0.616755 0.307135
vt 0.611917 0.408964
vt 0.123273 0.268175
vt 0.122972 0.331043
vt 0.123423 0.205306
vt 0.000156 0.205306
vt 0.000125 0.242784
vt 0.000064 0.280261
vt 0.123273 0.142438
vt 0.122972 0.079570
vt 0.000064 0.130352
vt 0.000125 0.167829
vt 0.122972 0.331043
vt 0.030806 0.283587
vt 0.245655 0.372324
vt 0.030806 0.283587
vt 0.000125 0.167829
vt 0.030806 0.127026
vt 0.000156 0.205306
vt 0.030806 0.127026
vt 0.805028 0.030806
vt 0.873826 0.071832
vt 0.721203 0.008146
vt 0.873826 0.071832
vt 0.938030 0.277186
vt 0.873826 0.338781
vt 0.968983 0.205307
vt 0.873826 0.338781
vt 0.805028 0.379807
vt 0.721203 0.402467
vt 0.000125 0.242784
vt 0.122972 0.079570
vt 0.245655 0.038289
vt 0.938030 0.133427
vt 0.611917 0.001649
vt 0.489902 0.006032
vt 0.611917 0.408964
vt 0.489902 0.404581
vt 0.367890 0.394602
vt 0.367890 0.016011
f 1/1/1 2/2/2 3/3/3
f 1/1/1 3/3/3 4/4/4
f 1/1/1 4/4/4 5/5/5
f 1/1/1 5/5/5 6/6/6
f 1/1/1 6/6/6 7/7/7
f 1/1/1 7/7/7 8/8/8
f 1/1/1 8/8/8 9/9/9
f 1/1/1 9/9/9 2/2/2
f 10/10/10 11/11/11 12/12/12
f 10/10/10 12/12/12 13/13/13
f 10/10/10 13/13/13 3/3/3
f 10/10/10 3/3/3 2/2/2
f 10/10/10 2/2/2 9/9/9
f 10/10/10 9/9/9 14/14/14
f 10/10/10 14/14/14 15/15/15
f 10/10/10 15/15/15 11/11/11
f 16/16/16 17/17/17 18/18/18
f 16/16/16 18/18/18 19/19/19
f 16/16/16 19/19/19 20/20/20
f 16/16/16 20/20/20 21/21/21
f 16/16/16 21/21/21 22/22/22
f 16/16/16 22/22/22 23/23/23
f 16/16/16 23/23/23 24/24/24
f 16/16/16 24/24/24 17/17/17
f 25/25/25 21/21/21 20/20/20
f 25/25/25 20/20/20 26/26/26
f 25/25/25 26/26/26 27/27/27
f 25/25/25 27/27/27 28/28/28
f 25/25/25 28/28/28 29/29/29
f 25/25/25 29/29/29 30/30/30
f 25/25/25 30/30/30 22/22/22
f 25/25/25 22/22/22 21/21/21
f 31/31/31 32/32/32 22/22/22
f 31/31/31 22/22/22 30/30/30
f 31/31/31 30/30/30 29/29/29
f 31/31/31 29/29/29 33/33/33
f 31/31/31 33/33/33 5/5/5
f 31/31/31 5/5/5 4/4/4
f 31/31/31 4/4/4 3/3/3
f 31/31/31 3/3/3 32/32/32
f 34/34/34 35/35/35 24/24/24
f 34/34/34 24/24/24 23/23/23
f 34/34/34 23/23/23 22/22/22
f 34/34/34 22/22/22 32/32/32
f 34/34/34 32/32/32 3/3/3
f 34/34/34 3/3/3 13/13/13
f 34/34/34 13/13/13 12/12/12
f 34/34/34 12/12/12 35/35/35
f 36/36/36 37/37/37 38/38/38
f 36/36/36 38/38/38 39/39/39
f 36/36/36 39/39/39 40/40/40
f 36/36/36 40/40/40 41/41/41
f 36/36/36 41/41/41 20/20/20
f 36/36/36 20/20/20 19/19/19
f 36/36/36 19/19/19 18/18/18
f 36/36/36 18/18/18 37/37/37
f 42/42/42 41/41/41 40/40/40
f 42/42/42 40/40/40 43/43/43
f 42/42/42 43/43/43 44/44/44
f 42/42/42 44/44/44 45/45/45
f 42/42/42 45/45/45 27/27/27
f 42/42/42 27/27/27 26/26/26
f 42/42/42 26/26/26 20/20/20
f 42/42/42 20/20/20 41/41/41
f 46/46/46 47/47/47 48/48/48
f 46/46/46 48/48/48 49/49/49
f 46/46/46 49/49/49 50/50/50
f 46/46/46 50/50/50 51/51/51
f 46/46/46 51/51/51 52/52/52
f 46/46/46 52/52/52 53/53/53
f 46/46/46 53/53/53 54/54/54
f 46/46/46 54/54/54 47/47/47
f 55/55/55 56/56/56 57/57/57
f 55/55/55 57/57/57 58/58/58
f 55/55/55 58/58/58 48/48/48
f 55/55/55 48/48/48 47/47/47
f 55/55/55 47/47/47 54/54/54
f 55/55/55 54/54/54 59/59/59
f 55/55/55 59/59/59 60/60/60
f 55/55/55 60/60/60 56/56/56
f 61/61/61 62/62/62 63/63/63
f 61/61/61 63/63/63 64/64/64
f 61/61/61 64/64/64 65/65/65
f 61/61/61 65/65/65 66/66/66
f 61/61/61 66/66/66 67/67/67
f 61/61/61 67/67/67 68/68/68
f 61/61/61 68/68/68 69/69/69
f 61/61/61 69/69/69 62/62/62
f 70/70/70 66/66/66 65/65/65
f 70/70/70 65/65/65 71/71/71
f 70/70/70 71/71/71 72/72/72
f 70/70/70 72/72/72 73/73/73
f 70/70/70 73/73/73 74/74/74
f 70/70/70 74/74/74 75/75/75
f 70/70/70 75/75/75 67/67/67
f 70/70/70 67/67/67 66/66/66
f 76/76/76 77/77/77 54/54/54
f 76/76/76 54/54/54 53/53/53
f 76/76/76 53/53/53 52/52/52
f 76/76/76 52/52/52 78/78/78
f 76/76/76 78/78/78 72/72/72
f 76/76/76 72/72/72 71/71/71
f 76/76/76 71/71/71 65/65/65
f 76/76/76 65/65/65 77/77/77
f 79/79/79 80/80/80 60/60/60
f 79/79/79 60/60/60 59/59/59
f 79/79/79 59/59/59 54/54/54
f 79/79/79 54/54/54 77/77/77
f 79/79/79 77/77/77 65/65/65
f 79/79/79 65/65/65 64/64/64
f 79/79/79 64/64/64 63/63/63
f 79/79/79 63/63/63 80/80/80
f 81/81/81 82/82/82 69/69/69
f 81/81/81 69/69/69 68/68/68
f 81/81/81 68/68/68 67/67/67
f 81/81/81 67/67/67 83/83/83
f 81/81/81 83/83/83 84/84/84
f 81/81/81 84/84/84 85/85/85
f 81/81/81 85/85/85 86/86/86
f 81/81/81 86/86/86 82/82/82
f 87/87/87 83/83/83 67/67/67
f 87/87/87 67/67/67 75/75/75
f 87/87/87 75/75/75 74/74/74
f 87/87/87 74/74/74 88/88/88
f 87/87/87 88/88/88 89/89/89
f 87/87/87 89/89/89 90/90/90
f 87/87/87 90/90/90 84/84/84
f 87/87/87 84/84/84 83/83/83
f 91/91/91 92/92/92 38/38/38
f 91/91/91 38/38/38 37/37/37
f 91/91/91 37/37/37 18/18/18
f 91/91/91 18/18/18 93/93/93
f 91/91/91 93/93/93 69/69/69
f 91/91/91 69/69/69 82/82/82
f 91/91/91 82/82/82 94/94/94
f 91/91/91 94/94/94 92/92/92
f 95/95/95 96/96/96 44/44/44
f 95/95/95 44/44/44 43/43/43
f 95/95/95 43/43/43 40/40/40
f 95/95/95 40/40/40 97/97/97
f 95/95/95 97/97/97 84/84/84
f 95/95/95 84/84/84 90/90/90
f 95/95/95 90/90/90 98/98/98
f 95/95/95 98/98/98 96/96/96
f 99/99/99 100/100/100 7/7/7
f 99/99/99 7/7/7 6/6/6
f 99/99/99 6/6/6 5/5/5
f 99/99/99 5/5/5 101/101/101
f 99/99/99 101/101/101 52/52/52
f 99/99/99 52/52/52 51/51/51
f 99/99/99 51/51/51 102/102/102
f 99/99/99 102/102/102 100/100/100
f 103/103/103 104/104/104 15/15/15
f 103/103/103 15/15/15 14/14/14
f 103/103/103 14/14/14 9/9/9
f 103/103/103 9/9/9 105/105/105
f 103/103/103 105/105/105 48/48/48
f 103/103/103 48/48/48 58/58/58
f 103/103/103 58/58/58 106/106/106
f 103/103/103 106/106/106 104/104/104
f 107/107/107 108/108/108 12/12/12
f 107/107/107 12/12/12 11/11/11
f 107/107/107 11/11/11 15/15/15
f 107/107/107 15/15/15 104/104/104
f 107/107/107 104/104/104 106/106/106
f 107/107/107 106/106/106 56/56/56
f 107/107/107 56/56/56 60/60/60
f 107/107/107 60/60/60 108/108/108
f 109/109/109 97/97/97 40/40/40
f 109/109/109 40/40/40 39/39/39
f 109/109/109 39/39/39 38/38/38
f 109/109/109 38/38/38 92/92/92
f 109/109/109 92/92/92 94/94/94
f 109/109/109 94/94/94 85/85/85
f 109/109/109 85/85/85 84/84/84
f 109/109/109 84/84/84 97/97/97
f 110/110/110 111/111/111 27/27/27
f 110/110/110 27/27/27 45/45/45
f 110/110/110 45/45/45 44/44/44
f 110/110/110 44/44/44 96/96/96
f 110/110/110 96/96/96 98/98/98
f 110/110/110 98/98/98 88/88/88
f 110/110/110 88/88/88 74/74/74
f 110/110/110 74/74/74 111/111/111
f 112/112/112 105/105/105 9/9/9
f 112/112/112 9/9/9 8/8/8
f 112/112/112 8/8/8 7/7/7
f 112/112/112 7/7/7 100/100/100
f 112/112/112 100/100/100 102/102/102
f 112/112/112 102/102/102 49/49/49
f 112/112/112 49/49/49 48/48/48
f 112/112/112 48/48/48 105/105/105
f 113/113/113 101/101/101 5/5/5
f 113/113/113 5/5/5 33/33/33
f 113/113/113 33/33/33 29/29/29
f 113/113/113 29/29/29 114/114/114
f 113/113/113 114/114/114 72/72/72
f 113/113/113 72/72/72 78/78/78
f 113/113/113 78/78/78 52/52/52
f 113/113/113 52/52/52 101/101/101
f 115/115/115 116/116/116 24/24/24
f 115/115/115 24/24/24 35/35/35
f 115/115/115 35/35/35 12/12/12
f 115/115/115 12/12/12 108/108/108
f 115/115/115 108/108/108 60/60/60
f 115/115/115 60/60/60 80/80/80
f 115/115/115 80/80/80 63/63/63
f 115/115/115 63/63/63 116/116/116
f 117/117/117 93/93/93 18/18/18
f 117/117/117 18/18/18 17/17/17
f 117/117/117 17/17/17 24/24/24
f 117/117/117 24/24/24 116/116/116
f 117/117/117 116/116/116 63/63/63
f 117/117/117 63/63/63 62/62/62
f 117/117/117 62/62/62 69/69/69
f 117/117/117 69/69/69 93/93/93
f 118/118/118 114/114/114 29/29/29
f 118/118/118 29/29/29 28/28/28
f 118/118/118 28/28/28 27/27/27
f 118/118/118 27/27/27 111/111/111
f 118/118/118 111/111/111 74/74/74
f 118/118/118 74/74/74 73/73/73
f 118/118/118 73/73/73 72/72/72
f 118/118/118 72/72/72 114/114/114
