v -2.379432 0.786825 -1.23412
v -2.380347 0.786694 -1.236719
v -2.383186 0.785294 -1.234856
v -2.381809 0.785526 -1.232124
v -2.380986 0.785879 -1.229922
v -2.379152 0.787021 -1.231886
v -2.378186 0.787469 -1.23359
v -2.377759 0.787611 -1.23565
v -2.378227 0.787602 -1.238113
v -2.38239 0.78691 -1.238562
v -2.384338 0.787171 -1.239676
v -2.386878 0.786048 -1.238771
v -2.38517 0.785623 -1.237172
v -2.380319 0.787685 -1.239494
v -2.382386 0.78759 -1.239898
v -2.393264 0.779443 -1.231829
v -2.394671 0.779695 -1.233573
v -2.39679 0.777078 -1.231489
v -2.395535 0.776844 -1.229954
v -2.393959 0.776648 -1.227849
v -2.391493 0.779232 -1.229441
v -2.388896 0.781594 -1.231125
v -2.390761 0.781838 -1.233614
v -2.392252 0.782137 -1.235424
v -2.389971 0.779348 -1.226882
v -2.392622 0.77676 -1.225579
v -2.391686 0.776931 -1.223823
v -2.3889 0.779529 -1.224906
v -2.386216 0.781963 -1.226358
v -2.387316 0.781739 -1.22844
v -2.384516 0.783814 -1.230209
v -2.386081 0.783605 -1.23296
v -2.383459 0.784136 -1.228055
v -2.388011 0.783915 -1.235459
v -2.389585 0.784313 -1.237255
v -2.397586 0.774157 -1.227838
v -2.398561 0.774378 -1.22896
v -2.399268 0.772772 -1.227294
v -2.399024 0.772081 -1.226179
v -2.398163 0.77191 -1.225141
v -2.396382 0.773976 -1.226287
v -2.395412 0.774094 -1.224574
v -2.397535 0.772038 -1.223942
v -2.396588 0.772695 -1.223269
v -2.39475 0.774268 -1.223236
v -2.379313 0.786564 -1.234156
v -2.38025 0.786431 -1.236789
v -2.378158 0.787404 -1.238163
v -2.377672 0.787415 -1.235673
v -2.378116 0.787325 -1.2336
v -2.379052 0.786828 -1.231896
v -2.380882 0.785689 -1.229941
v -2.381683 0.78527 -1.23217
v -2.38308 0.785036 -1.234932
v -2.382315 0.786651 -1.238664
v -2.384294 0.786979 -1.239769
v -2.382352 0.787447 -1.239962
v -2.380268 0.787489 -1.239571
v -2.385084 0.785368 -1.237278
v -2.386824 0.78586 -1.238864
v -2.393133 0.779215 -1.231951
v -2.39458 0.779525 -1.233675
v -2.392172 0.78196 -1.235523
v -2.390642 0.781601 -1.23373
v -2.388762 0.781356 -1.231219
v -2.391348 0.779003 -1.229542
v -2.393806 0.776426 -1.227955
v -2.395396 0.776623 -1.230081
v -2.396694 0.776914 -1.231595
v -2.389811 0.779119 -1.226962
v -2.387167 0.781501 -1.22851
v -2.386097 0.781785 -1.226399
v -2.388774 0.779358 -1.224954
v -2.391555 0.776766 -1.223875
v -2.392455 0.776538 -1.225664
v -2.384379 0.783567 -1.230267
v -2.385962 0.783356 -1.233045
v -2.383349 0.783952 -1.228085
v -2.387909 0.783668 -1.235569
v -2.389518 0.784129 -1.237351
v -2.397446 0.773939 -1.227969
v -2.398465 0.774216 -1.229069
v -2.396225 0.773756 -1.226395
v -2.398045 0.771746 -1.225222
v -2.39892 0.771918 -1.226278
v -2.399194 0.772652 -1.227372
v -2.395241 0.773875 -1.224658
v -2.394615 0.774105 -1.223287
v -2.39649 0.772574 -1.22331
v -2.397406 0.771874 -1.224004
v -2.398845 0.77438 -1.229385
v -2.39974 0.772241 -1.226995
v -2.397168 0.777084 -1.23205
v -2.399194 0.772652 -1.227372
v -2.398185 0.77128 -1.223758
v -2.397055 0.772164 -1.222963
v -2.398704 0.771149 -1.224795
v -2.39649 0.772574 -1.22331
v -2.379011 0.787001 -1.231142
v -2.377908 0.787577 -1.233399
v -2.380663 0.785912 -1.229193
v -2.378116 0.787325 -1.2336
v -2.379607 0.787856 -1.239839
v -2.382453 0.787708 -1.240224
v -2.377491 0.787816 -1.238599
v -2.382352 0.787447 -1.239962
v -2.384971 0.787173 -1.240092
v -2.387425 0.786107 -1.239348
v -2.399458 0.771317 -1.22567
v -2.394468 0.774253 -1.22281
v -2.391314 0.776915 -1.223258
v -2.377163 0.787786 -1.236169
v -2.383056 0.784162 -1.227347
v -2.385795 0.781959 -1.22568
v -2.390082 0.784364 -1.237899
v -2.392715 0.782158 -1.236074
v -2.395101 0.779704 -1.234202
v -2.388485 0.779513 -1.224266
vn -0.4241 0.9047 0.0396
vn -0.2949 0.9312 0.2142
vn -0.341 0.9077 0.2445
vn -0.4586 0.8841 0.0897
vn -0.4728 0.8742 0.1103
vn -0.4206 0.906 0.0468
vn -0.3811 0.9245 0.0023
vn -0.3317 0.943 0.0265
vn -0.221 0.9611 0.1655
vn -0.1841 0.8978 0.4
vn -0.1894 0.8993 0.394
vn -0.2687 0.8683 0.4169
vn -0.2441 0.8779 0.4119
vn -0.1357 0.9373 0.3208
vn -0.1327 0.9173 0.3753
vn -0.4576 0.7669 0.45
vn -0.4852 0.7647 0.424
vn -0.5076 0.7438 0.4348
vn -0.474 0.7446 0.47
vn -0.5486 0.7449 0.3796
vn -0.5214 0.7726 0.362
vn -0.464 0.8241 0.3248
vn -0.3984 0.8115 0.4274
vn -0.4267 0.8043 0.4136
vn -0.578 0.7703 0.2691
vn -0.6032 0.7483 0.2759
vn -0.5838 0.746 0.3204
vn -0.5647 0.767 0.3045
vn -0.5318 0.8073 0.2557
vn -0.5336 0.8154 0.2244
vn -0.4888 0.8581 0.1572
vn -0.3968 0.8738 0.2809
vn -0.4996 0.8464 0.1842
vn -0.3184 0.8532 0.4131
vn -0.3477 0.842 0.4124
vn -0.467 0.7322 0.4957
vn -0.5062 0.7291 0.4605
vn -0.4971 0.7145 0.4923
vn -0.4876 0.6901 0.5347
vn -0.5949 0.6916 0.4095
vn -0.5611 0.7313 0.3876
vn -0.6245 0.7367 0.2592
vn -0.6691 0.6954 0.262
vn -0.6333 0.7184 0.2877
vn -0.6072 0.7321 0.3088
vn 0.4552 -0.8899 -0.0274
vn 0.3077 -0.925 -0.2226
vn 0.3563 -0.899 -0.2545
vn 0.543 -0.8396 0.0119
vn 0.6088 -0.787 0.0999
vn 0.5927 -0.801 0.0838
vn 0.5664 -0.8238 0.0222
vn 0.4671 -0.8808 -0.0773
vn 0.3409 -0.9077 -0.2444
vn 0.1852 -0.8821 -0.4331
vn 0.1372 -0.7879 -0.6003
vn 0.1287 -0.7731 -0.6211
vn 0.1836 -0.8293 -0.5277
vn 0.2359 -0.8741 -0.4245
vn 0.1835 -0.8128 -0.5528
vn 0.4468 -0.766 -0.4622
vn 0.3684 -0.7547 -0.5429
vn 0.3253 -0.7843 -0.5282
vn 0.389 -0.8099 -0.439
vn 0.4642 -0.824 -0.3248
vn 0.5216 -0.7725 -0.3621
vn 0.5487 -0.7448 -0.3797
vn 0.4601 -0.7448 -0.4833
vn 0.3533 -0.7481 -0.5617
vn 0.5852 -0.77 -0.2544
vn 0.5407 -0.8143 -0.2111
vn 0.5988 -0.7923 -0.1173
vn 0.6295 -0.7622 -0.1507
vn 0.6412 -0.7564 -0.1293
vn 0.6101 -0.7491 -0.258
vn 0.496 -0.8562 -0.1446
vn 0.3968 -0.8738 -0.2809
vn 0.5708 -0.8195 -0.0514
vn 0.3095 -0.8508 -0.4245
vn 0.2532 -0.8102 -0.5286
vn 0.4382 -0.7421 -0.5072
vn 0.2928 -0.7568 -0.5843
vn 0.5535 -0.7396 -0.3828
vn 0.5195 -0.7746 -0.3607
vn 0.344 -0.7744 -0.5309
vn 0.2521 -0.7641 -0.5938
vn 0.6238 -0.7474 -0.2284
vn 0.6386 -0.7667 -0.065
vn 0.6315 -0.775 -0.024
vn 0.6087 -0.7821 -0.1333
vn -0.8455 -0.0809 -0.5278
vn -0.9388 -0.2907 -0.1847
vn -0.7649 -0.0133 -0.6439
vn 0.2521 -0.7641 -0.5938
vn -0.4955 -0.6263 0.6019
vn -0.197 -0.3119 0.9294
vn -0.5526 -0.7546 0.3537
vn 0.6315 -0.775 -0.024
vn 0.6297 0.4124 0.6583
vn 0.7769 0.4989 0.3839
vn 0.5229 0.2965 0.7991
vn 0.6088 -0.787 0.0999
vn 0.3764 0.4037 -0.8338
vn -0.0455 0.5228 -0.8513
vn 0.7969 0.2989 -0.5249
vn 0.1287 -0.7731 -0.6211
vn -0.3571 0.4407 -0.8235
vn -0.53 0.3269 -0.7824
vn -0.7572 -0.6189 0.2087
vn 0.1594 -0.1096 0.9811
vn 0.2985 -0.044 0.9534
vn 0.9214 0.3881 -0.0152
vn 0.4535 0.1877 0.8712
vn 0.42 0.1129 0.9004
vn -0.6253 0.2188 -0.749
vn -0.6665 0.1443 -0.7313
vn -0.7019 0.0695 -0.7089
vn 0.384 0.0378 0.9225
vt 0.839504 0.118056
vt 0.856743 0.205307
vt 0.741230 0.205307
vt 0.734555 0.106726
vt 0.724541 0.032791
vt 0.813647 0.052618
vt 0.868992 0.081539
vt 0.913398 0.129584
vt 0.940923 0.205307
vt 0.839504 0.292557
vt 0.813647 0.357995
vt 0.724541 0.377822
vt 0.734555 0.303887
vt 0.913398 0.281029
vt 0.868992 0.329074
vt 0.369475 0.299954
vt 0.368286 0.370940
vt 0.245840 0.351447
vt 0.246397 0.288815
vt 0.246768 0.205307
vt 0.370268 0.205307
vt 0.494283 0.205307
vt 0.492822 0.304944
vt 0.490632 0.379672
vt 0.369475 0.110659
vt 0.246397 0.121798
vt 0.245841 0.059166
vt 0.368286 0.039673
vt 0.490632 0.030941
vt 0.492822 0.105669
vt 0.616755 0.103478
vt 0.619174 0.205307
vt 0.613127 0.027106
vt 0.616755 0.307135
vt 0.613126 0.383507
vt 0.123273 0.268175
vt 0.123047 0.315326
vt 0.054743 0.283353
vt 0.030912 0.249131
vt 0.030973 0.205306
vt 0.123423 0.205306
vt 0.123273 0.142438
vt 0.030912 0.161481
vt 0.054744 0.127260
vt 0.123047 0.095287
vt 0.839504 0.118056
vt 0.856743 0.205307
vt 0.968983 0.205307
vt 0.938030 0.133427
vt 0.876123 0.061548
vt 0.805028 0.030806
vt 0.721203 0.008146
vt 0.734555 0.106726
vt 0.741230 0.205307
vt 0.839504 0.292557
vt 0.805028 0.379807
vt 0.876123 0.349065
vt 0.938030 0.277186
vt 0.734555 0.303887
vt 0.721203 0.402467
vt 0.369475 0.299954
vt 0.367890 0.394602
vt 0.489902 0.404581
vt 0.492822 0.304944
vt 0.494283 0.205307
vt 0.370268 0.205307
vt 0.246768 0.205307
vt 0.246397 0.288815
vt 0.245655 0.372324
vt 0.369475 0.110659
vt 0.492822 0.105669
vt 0.489902 0.006032
vt 0.367890 0.016011
vt 0.245655 0.038289
vt 0.246397 0.121798
vt 0.616755 0.103478
vt 0.619174 0.205307
vt 0.611917 0.001649
vt 0.616755 0.307135
vt 0.611917 0.408964
vt 0.123273 0.268175
vt 0.122972 0.331043
vt 0.123423 0.205306
vt 0.000156 0.205306
vt 0.000125 0.242784
vt 0.000064 0.280261
vt 0.123273 0.142438
vt 0.122972 0.079570
vt 0.000064 0.130352
vt 0.000125 0.167829
vt 0.122972 0.331043
vt 0.030806 0.283587
vt 0.245655 0.372324
vt 0.030806 0.283587
vt 0.000125 0.167829
vt 0.030806 0.127026
vt 0.000156 0.205306
vt 0.030806 0.127026
vt 0.805028 0.030806
vt 0.873826 0.071832
vt 0.721203 0.008146
vt 0.873826 0.071832
vt 0.938030 0.277186
vt 0.873826 0.338781
vt 0.968983 0.205307
vt 0.873826 0.338781
vt 0.805028 0.379807
vt 0.721203 0.402467
vt 0.000125 0.242784
vt 0.122972 0.079570
vt 0.245655 0.038289
vt 0.938030 0.133427
vt 0.611917 0.001649
vt 0.489902 0.006032
vt 0.611917 0.408964
vt 0.489902 0.404581
vt 0.367890 0.394602
vt 0.367890 0.016011
f 1/1/1 2/2/2 3/3/3
f 1/1/1 3/3/3 4/4/4
f 1/1/1 4/4/4 5/5/5
f 1/1/1 5/5/5 6/6/6
f 1/1/1 6/6/6 7/7/7
f 1/1/1 7/7/7 8/8/8
f 1/1/1 8/8/8 9/9/9
f 1/1/1 9/9/9 2/2/2
f 10/10/10 11/11/11 12/12/12
f 10/10/10 12/12/12 13/13/13
f 10/10/10 13/13/13 3/3/3
f 10/10/10 3/3/3 2/2/2
f 10/10/10 2/2/2 9/9/9
f 10/10/10 9/9/9 14/14/14
f 10/10/10 14/14/14 15/15/15
f 10/10/10 15/15/15 11/11/11
f 16/16/16 17/17/17 18/18/18
f 16/16/16 18/18/18 19/19/19
f 16/16/16 19/19/19 20/20/20
f 16/16/16 20/20/20 21/21/21
f 16/16/16 21/21/21 22/22/22
f 16/16/16 22/22/22 23/23/23
f 16/16/16 23/23/23 24/24/24
f 16/16/16 24/24/24 17/17/17
f 25/25/25 21/21/21 20/20/20
f 25/25/25 20/20/20 26/26/26
f 25/25/25 26/26/26 27/27/27
f 25/25/25 27/27/27 28/28/28
f 25/25/25 28/28/28 29/29/29
f 25/25/25 29/29/29 30/30/30
f 25/25/25 30/30/30 22/22/22
f 25/25/25 22/22/22 21/21/21
f 31/31/31 32/32/32 22/22/22
f 31/31/31 22/22/22 30/30/30
f 31/31/31 30/30/30 29/29/29
f 31/31/31 29/29/29 33/33/33
f 31/31/31 33/33/33 5/5/5
f 31/31/31 5/5/5 4/4/4
f 31/31/31 4/4/4 3/3/3
f 31/31/31 3/3/3 32/32/32
f 34/34/34 35/35/35 24/24/24
f 34/34/34 24/24/24 23/23/23
f 34/34/34 23/23/23 22/22/22
f 34/34/34 22/22/22 32/32/32
f 34/34/34 32/32/32 3/3/3
f 34/34/34 3/3/3 13/13/13
f 34/34/34 13/13/13 12/12/12
f 34/34/34 12/12/12 35/35/35
f 36/36/36 37/37/37 38/38/38
f 36/36/36 38/38/38 39/39/39
f 36/36/36 39/39/39 40/40/40
f 36/36/36 40/40/40 41/41/41
f 36/36/36 41/41/41 20/20/20
f 36/36/36 20/20/20 19/19/19
f 36/36/36 19/19/19 18/18/18
f 36/36/36 18/18/18 37/37/37
f 42/42/42 41/41/41 40/40/40
f 42/42/42 40/40/40 43/43/43
f 42/42/42 43/43/43 44/44/44
f 42/42/42 44/44/44 45/45/45
f 42/42/42 45/45/45 27/27/27
f 42/42/42 27/27/27 26/26/26
f 42/42/42 26/26/26 20/20/20
f 42/42/42 20/20/20 41/41/41
f 46/46/46 47/47/47 48/48/48
f 46/46/46 48/48/48 49/49/49
f 46/46/46 49/49/49 50/50/50
f 46/46/46 50/50/50 51/51/51
f 46/46/46 51/51/51 52/52/52
f 46/46/46 52/52/52 53/53/53
f 46/46/46 53/53/53 54/54/54
f 46/46/46 54/54/54 47/47/47
f 55/55/55 56/56/56 57/57/57
f 55/55/55 57/57/57 58/58/58
f 55/55/55 58/58/58 48/48/48
f 55/55/55 48/48/48 47/47/47
f 55/55/55 47/47/47 54/54/54
f 55/55/55 54/54/54 59/59/59
f 55/55/55 59/59/59 60/60/60
f 55/55/55 60/60/60 56/56/56
f 61/61/61 62/62/62 63/63/63
f 61/61/61 63/63/63 64/64/64
f 61/61/61 64/64/64 65/65/65
f 61/61/61 65/65/65 66/66/66
f 61/61/61 66/66/66 67/67/67
f 61/61/61 67/67/67 68/68/68
f 61/61/61 68/68/68 69/69/69
f 61/61/61 69/69/69 62/62/62
f 70/70/70 66/66/66 65/65/65
f 70/70/70 65/65/65 71/71/71
f 70/70/70 71/71/71 72/72/72
f 70/70/70 72/72/72 73/73/73
f 70/70/70 73/73/73 74/74/74
f 70/70/70 74/74/74 75/75/75
f 70/70/70 75/75/75 67/67/67
f 70/70/70 67/67/67 66/66/66
f 76/76/76 77/77/77 54/54/54
f 76/76/76 54/54/54 53/53/53
f 76/76/76 53/53/53 52/52/52
f 76/76/76 52/52/52 78/78/78
f 76/76/76 78/78/78 72/72/72
f 76/76/76 72/72/72 71/71/71
f 76/76/76 71/71/71 65/65/65
f 76/76/76 65/65/65 77/77/77
f 79/79/79 80/80/80 60/60/60
f 79/79/79 60/60/60 59/59/59
f 79/79/79 59/59/59 54/54/54
f 79/79/79 54/54/54 77/77/77
f 79/79/79 77/77/77 65/65/65
f 79/79/79 65/65/65 64/64/64
f 79/79/79 64/64/64 63/63/63
f 79/79/79 63/63/63 80/80/80
f 81/81/81 82/82/82 69/69/69
f 81/81/81 69/69/69 68/68/68
f 81/81/81 68/68/68 67/67/67
f 81/81/81 67/67/67 83/83/83
f 81/81/81 83/83/83 84/84/84
f 81/81/81 84/84/84 85/85/85
f 81/81/81 85/85/85 86/86/86
f 81/81/81 86/86/86 82/82/82
f 87/87/87 83/83/83 67/67/67
f 87/87/87 67/67/67 75/75/75
f 87/87/87 75/75/75 74/74/74
f 87/87/87 74/74/74 88/88/88
f 87/87/87 88/88/88 89/89/89
f 87/87/87 89/89/89 90/90/90
f 87/87/87 90/90/90 84/84/84
f 87/87/87 84/84/84 83/83/83
f 91/91/91 92/92/92 38/38/38
f 91/91/91 38/38/38 37/37/37
f 91/91/91 37/37/37 18/18/18
f 91/91/91 18/18/18 93/93/93
f 91/91/91 93/93/93 69/69/69
f 91/91/91 69/69/69 82/82/82
f 91/91/91 82/82/82 94/94/94
f 91/91/91 94/94/94 92/92/92
f 95/95/95 96/96/96 44/44/44
f 95/95/95 44/44/44 43/43/43
f 95/95/95 43/43/43 40/40/40
f 95/95/95 40/40/40 97/97/97
f 95/95/95 97/97/97 84/84/84
f 95/95/95 84/84/84 90/90/90
f 95/95/95 90/90/90 98/98/98
f 95/95/95 98/98/98 96/96/96
f 99/99/99 100/100/100 7/7/7
f 99/99/99 7/7/7 6/6/6
f 99/99/99 6/6/6 5/5/5
f 99/99/99 5/5/5 101/101/101
f 99/99/99 101/101/101 52/52/52
f 99/99/99 52/52/52 51/51/51
f 99/99/99 51/51/51 102/102/102
f 99/99/99 102/102/102 100/100/100
f 103/103/103 104/104/104 15/15/15
f 103/103/103 15/15/15 14/14/14
f 103/103/103 14/14/14 9/9/9
f 103/103/103 9/9/9 105/105/105
f 103/103/103 105/105/105 48/48/48
f 103/103/103 48/48/48 58/58/58
f 103/103/103 58/58/58 106/106/106
f 103/103/103 106/106/106 104/104/104
f 107/107/107 108/108/108 12/12/12
f 107/107/107 12/12/12 11/11/11
f 107/107/107 11/11/11 15/15/15
f 107/107/107 15/15/15 104/104/104
f 107/107/107 104/104/104 106/106/106
f 107/107/107 106/106/106 56/56/56
f 107/107/107 56/56/56 60/60/60
f 107/107/107 60/60/60 108/108/108
f 109/109/109 97/97/97 40/40/40
f 109/109/109 40/40/40 39/39/39
f 109/109/109 39/39/39 38/38/38
f 109/109/109 38/38/38 92/92/92
f 109/109/109 92/92/92 94/94/94
f 109/109/109 94/94/94 85/85/85
f 109/109/109 85/85/85 84/84/84
f 109/109/109 84/84/84 97/97/97
f 110/110/110 111/111/111 27/27/27
f 110/110/110 27/27/27 45/45/45
f 110/110/110 45/45/45 44/44/44
f 110/110/110 44/44/44 96/96/96
f 110/110/110 96/96/96 98/98/98
f 110/110/110 98/98/98 88/88/88
f 110/110/110 88/88/88 74/74/74
f 110/110/110 74/74/74 111/111/111
f 112/112/112 105/105/105 9/9/9
f 112/112/112 9/9/9 8/8/8
f 112/112/112 8/8/8 7/7/7
f 112/112/112 7/7/7 100/100/100
f 112/112/112 100/100/100 102/102/102
f 112/112/112 102/102/102 49/49/49
f 112/112/112 49/49/49 48/48/48
f 112/112/112 48/48/48 105/105/105
f 113/113/113 101/101/101 5/5/5
f 113/113/113 5/5/5 33/33/33
f 113/113/113 33/33/33 29/29/29
f 113/113/113 29/29/29 114/114/114
f 113/113/113 114/114/114 72/72/72
f 113/113/113 72/72/72 78/78/78
f 113/113/113 78/78/78 52/52/52
f 113/113/113 52/52/52 101/101/101
f 115/115/115 116/116/116 24/24/24
f 115/115/115 24/24/24 35/35/35
f 115/115/115 35/35/35 12/12/12
f 115/115/115 12/12/12 108/108/108
f 115/115/115 108/108/108 60/60/60
f 115/115/115 60/60/60 80/80/80
f 115/115/115 80/80/80 63/63/63
f 115/115/115 63/63/63 116/116/116
f 117/117/117 93/93/93 18/18/18
f 117/117/117 18/18/18 17/17/17
f 117/117/117 17/17/17 24/24/24
f 117/117/117 24/24/24 116/116/116
f 117/117/117 116/116/116 63/63/63
f 117/117/117 63/63/63 62/62/62
f 117/117/117 62/62/62 69/69/69
f 117/117/117 69/69/69 93/93/93
f 118/118/118 114/114/114 29/29/29
f 118/118/118 29/29/29 28/28/28
f 118/118/118 28/28/28 27/27/27
f 118/118/118 27/27/27 111/111/111
f 118/118/118 111/111/111 74/74/74
f 118/118/118 74/74/74 73/73/73
f 118/118/118 73/73/73 72/72/72
f 118/118/118 72/72/72 114/114/114
