v -2.40439 0.813882 -1.161264
v -2.404734 0.81424 -1.162694
v -2.405627 0.812445 -1.162495
v -2.405105 0.812217 -1.160911
v -2.404865 0.812026 -1.159643
v -2.404351 0.813474 -1.160094
v -2.404024 0.814343 -1.160689
v -2.403847 0.815033 -1.161601
v -2.404026 0.815525 -1.162873
v -2.405709 0.814249 -1.163853
v -2.406663 0.814119 -1.164634
v -2.407492 0.812758 -1.1648
v -2.406603 0.812635 -1.163853
v -2.404988 0.815351 -1.163841
v -2.405897 0.814865 -1.164366
v -2.408484 0.806613 -1.163712
v -2.40918 0.806782 -1.164721
v -2.409377 0.804625 -1.164553
v -2.408753 0.804476 -1.163665
v -2.408001 0.804285 -1.162444
v -2.407642 0.806396 -1.162327
v -2.407155 0.808476 -1.16228
v -2.408048 0.808707 -1.163722
v -2.408796 0.808889 -1.164766
v -2.407015 0.806204 -1.160829
v -2.407454 0.804114 -1.161116
v -2.407102 0.80399 -1.160086
v -2.406607 0.806065 -1.15967
v -2.406105 0.808138 -1.159482
v -2.406512 0.808279 -1.160706
v -2.405843 0.810316 -1.160729
v -2.406459 0.810508 -1.162346
v -2.405487 0.810186 -1.159456
v -2.407402 0.810751 -1.163789
v -2.408218 0.810947 -1.164818
v -2.408898 0.8023 -1.163486
v -2.409396 0.802414 -1.164134
v -2.409251 0.80115 -1.163753
v -2.408943 0.800652 -1.163314
v -2.408512 0.80055 -1.162714
v -2.408313 0.802155 -1.162587
v -2.407929 0.80203 -1.161584
v -2.408279 0.800467 -1.16201
v -2.408056 0.800817 -1.161408
v -2.407696 0.80194 -1.160798
v -2.404256 0.813816 -1.161317
v -2.404609 0.814176 -1.162767
v -2.403933 0.815475 -1.162927
v -2.403747 0.814982 -1.161639
v -2.403949 0.814305 -1.160713
v -2.404246 0.813424 -1.160123
v -2.404759 0.81198 -1.159675
v -2.404969 0.812158 -1.160966
v -2.4055 0.812386 -1.162568
v -2.405595 0.814189 -1.163945
v -2.406583 0.814076 -1.164712
v -2.405837 0.814832 -1.164421
v -2.404904 0.815304 -1.16391
v -2.406485 0.81258 -1.163943
v -2.407408 0.812719 -1.164876
v -2.408353 0.806586 -1.163798
v -2.409086 0.806762 -1.164791
v -2.408704 0.808863 -1.164837
v -2.40792 0.808671 -1.163809
v -2.40702 0.808438 -1.162354
v -2.407505 0.806367 -1.162401
v -2.407862 0.804261 -1.162518
v -2.408621 0.804454 -1.163751
v -2.409282 0.80461 -1.164624
v -2.406872 0.806173 -1.160891
v -2.406371 0.808239 -1.160767
v -2.405996 0.808108 -1.159521
v -2.406497 0.806041 -1.159709
v -2.406991 0.803971 -1.160125
v -2.40731 0.804089 -1.161177
v -2.405705 0.810266 -1.160787
v -2.406327 0.810459 -1.16242
v -2.40538 0.810148 -1.159492
v -2.407279 0.810705 -1.163877
v -2.40813 0.810915 -1.164892
v -2.408766 0.802281 -1.163573
v -2.409301 0.802401 -1.164205
v -2.408174 0.802134 -1.162661
v -2.408407 0.800534 -1.16277
v -2.408845 0.800638 -1.16338
v -2.409179 0.80114 -1.163805
v -2.407783 0.802007 -1.161644
v -2.407585 0.801922 -1.160836
v -2.407974 0.800804 -1.161438
v -2.40817 0.80045 -1.162055
v -2.409521 0.802446 -1.164383
v -2.409308 0.800733 -1.163786
v -2.409544 0.804668 -1.164882
v -2.409179 0.80114 -1.163805
v -2.408348 0.799938 -1.162172
v -2.408111 0.800399 -1.161436
v -2.408531 0.800007 -1.162781
v -2.407974 0.800804 -1.161438
v -2.40429 0.813316 -1.159715
v -2.403933 0.814413 -1.160533
v -2.404737 0.811941 -1.159233
v -2.403949 0.814305 -1.160713
v -2.404711 0.815697 -1.163868
v -2.405959 0.814977 -1.164511
v -2.403749 0.815931 -1.162956
v -2.405837 0.814832 -1.164421
v -2.406947 0.814057 -1.164931
v -2.407752 0.812782 -1.165151
v -2.408915 0.800096 -1.163286
v -2.407569 0.801902 -1.160551
v -2.406934 0.80394 -1.159758
v -2.403621 0.815393 -1.161729
v -2.40532 0.810126 -1.159046
v -2.40592 0.808078 -1.15909
v -2.408452 0.810999 -1.165195
v -2.409006 0.808938 -1.165147
v -2.409371 0.80683 -1.16509
v -2.406422 0.806008 -1.159299
vn -0.8556 0.4505 0.2548
vn -0.767 0.4526 0.4549
vn -0.7929 0.3989 0.4605
vn -0.874 0.3954 0.2824
vn -0.8808 0.3718 0.2931
vn -0.8535 0.4499 0.2627
vn -0.83 0.5032 0.2407
vn -0.7997 0.5298 0.2825
vn -0.7208 0.5331 0.4429
vn -0.6606 0.3962 0.6377
vn -0.6658 0.3974 0.6315
vn -0.7149 0.3256 0.6188
vn -0.6997 0.3468 0.6246
vn -0.6404 0.4853 0.5952
vn -0.6282 0.4468 0.637
vn -0.8166 0.1433 0.5592
vn -0.8378 0.1402 0.5277
vn -0.8449 0.1088 0.5236
vn -0.8183 0.1096 0.5642
vn -0.8784 0.1152 0.4638
vn -0.8708 0.157 0.4659
vn -0.8507 0.2402 0.4675
vn -0.7916 0.2155 0.5717
vn -0.8108 0.2028 0.549
vn -0.9144 0.1706 0.367
vn -0.9233 0.1389 0.3581
vn -0.9068 0.1261 0.4022
vn -0.9023 0.1583 0.401
vn -0.8962 0.2266 0.3814
vn -0.9014 0.2461 0.3562
vn -0.8863 0.3305 0.3245
vn -0.8214 0.33 0.4652
vn -0.8894 0.3042 0.3412
vn -0.7478 0.2919 0.5962
vn -0.766 0.2698 0.5835
vn -0.8062 0.092 0.5844
vn -0.8362 0.0868 0.5415
vn -0.8212 0.0656 0.5668
vn -0.8009 0.0325 0.5979
vn -0.8881 0.0394 0.4579
vn -0.8815 0.0954 0.4625
vn -0.9342 0.1276 0.3332
vn -0.9484 0.0739 0.3083
vn -0.9319 0.0967 0.3494
vn -0.9183 0.1097 0.3803
vn 0.8731 -0.4299 -0.23
vn 0.7743 -0.438 -0.4566
vn 0.8012 -0.3802 -0.4621
vn 0.9171 -0.3681 -0.1527
vn 0.9406 -0.3374 -0.037
vn 0.9353 -0.3485 -0.061
vn 0.9275 -0.3497 -0.1314
vn 0.8789 -0.3946 -0.2678
vn 0.7929 -0.3991 -0.4605
vn 0.6535 -0.3688 -0.6609
vn 0.5654 -0.2449 -0.7876
vn 0.5506 -0.2284 -0.8029
vn 0.6252 -0.2864 -0.726
vn 0.6911 -0.3422 -0.6365
vn 0.6165 -0.263 -0.7421
vn 0.8074 -0.1422 -0.5726
vn 0.7378 -0.1347 -0.6614
vn 0.718 -0.1845 -0.6711
vn 0.7831 -0.2136 -0.5841
vn 0.8508 -0.2402 -0.4674
vn 0.8708 -0.1569 -0.4658
vn 0.8784 -0.115 -0.4637
vn 0.8072 -0.1103 -0.5799
vn 0.7219 -0.1285 -0.68
vn 0.9197 -0.1736 -0.352
vn 0.9064 -0.2479 -0.342
vn 0.9403 -0.2464 -0.2347
vn 0.9499 -0.1939 -0.2448
vn 0.9559 -0.1937 -0.2206
vn 0.929 -0.1443 -0.3406
vn 0.8909 -0.3314 -0.3106
vn 0.8214 -0.33 -0.4652
vn 0.9305 -0.3105 -0.1939
vn 0.7394 -0.2892 -0.608
vn 0.6725 -0.2385 -0.7006
vn 0.788 -0.108 -0.6061
vn 0.6768 -0.1538 -0.7198
vn 0.8796 -0.1074 -0.4633
vn 0.8701 -0.1601 -0.466
vn 0.7281 -0.1667 -0.6648
vn 0.6473 -0.1745 -0.7419
vn 0.9388 -0.1499 -0.3099
vn 0.958 -0.2323 -0.168
vn 0.9557 -0.2607 -0.1364
vn 0.9433 -0.2268 -0.2423
vn -0.6462 -0.2272 -0.7285
vn -0.6148 -0.587 -0.5267
vn -0.6139 -0.085 -0.7847
vn 0.6473 -0.1745 -0.7419
vn -0.0788 -0.9826 0.1679
vn -0.0124 -0.7541 0.6566
vn -0.0497 -0.992 -0.1162
vn 0.9557 -0.2607 -0.1364
vn 0.2795 0.3096 0.9088
vn 0.3602 0.5709 0.7377
vn 0.2519 0.1076 0.9617
vn 0.9406 -0.3374 -0.037
vn 0.1088 0.866 -0.4881
vn -0.3081 0.7581 -0.5747
vn 0.5088 0.8496 -0.1387
vn 0.5506 -0.2284 -0.8029
vn -0.5221 0.5336 -0.6653
vn -0.6037 0.3465 -0.7179
vn -0.2915 -0.9233 -0.2502
vn 0.1706 -0.4549 0.874
vn 0.2505 -0.3259 0.9116
vn 0.5513 0.7424 0.3806
vn 0.2528 -0.0403 0.9666
vn 0.2655 -0.1257 0.9558
vn -0.6238 0.2043 -0.7544
vn -0.6172 0.1201 -0.7775
vn -0.6057 0.0368 -0.7949
vn 0.2767 -0.2093 0.9379
vt 0.839504 0.118056
vt 0.856743 0.205307
vt 0.741230 0.205307
vt 0.734555 0.106726
vt 0.724541 0.032791
vt 0.813647 0.052618
vt 0.868992 0.081539
vt 0.913398 0.129584
vt 0.940923 0.205307
vt 0.839504 0.292557
vt 0.813647 0.357995
vt 0.724541 0.377822
vt 0.734555 0.303887
vt 0.913398 0.281029
vt 0.868992 0.329074
vt 0.369475 0.299954
vt 0.368286 0.370940
vt 0.245840 0.351447
vt 0.246397 0.288815
vt 0.246768 0.205307
vt 0.370268 0.205307
vt 0.494283 0.205307
vt 0.492822 0.304944
vt 0.490632 0.379672
vt 0.369475 0.110659
vt 0.246397 0.121798
vt 0.245841 0.059166
vt 0.368286 0.039673
vt 0.490632 0.030941
vt 0.492822 0.105669
vt 0.616755 0.103478
vt 0.619174 0.205307
vt 0.613127 0.027106
vt 0.616755 0.307135
vt 0.613126 0.383507
vt 0.123273 0.268175
vt 0.123047 0.315326
vt 0.054743 0.283353
vt 0.030912 0.249131
vt 0.030973 0.205306
vt 0.123423 0.205306
vt 0.123273 0.142438
vt 0.030912 0.161481
vt 0.054744 0.127260
vt 0.123047 0.095287
vt 0.839504 0.118056
vt 0.856743 0.205307
vt 0.968983 0.205307
vt 0.938030 0.133427
vt 0.876123 0.061548
vt 0.805028 0.030806
vt 0.721203 0.008146
vt 0.734555 0.106726
vt 0.741230 0.205307
vt 0.839504 0.292557
vt 0.805028 0.379807
vt 0.876123 0.349065
vt 0.938030 0.277186
vt 0.734555 0.303887
vt 0.721203 0.402467
vt 0.369475 0.299954
vt 0.367890 0.394602
vt 0.489902 0.404581
vt 0.492822 0.304944
vt 0.494283 0.205307
vt 0.370268 0.205307
vt 0.246768 0.205307
vt 0.246397 0.288815
vt 0.245655 0.372324
vt 0.369475 0.110659
vt 0.492822 0.105669
vt 0.489902 0.006032
vt 0.367890 0.016011
vt 0.245655 0.038289
vt 0.246397 0.121798
vt 0.616755 0.103478
vt 0.619174 0.205307
vt 0.611917 0.001649
vt 0.616755 0.307135
vt 0.611917 0.408964
vt 0.123273 0.268175
vt 0.122972 0.331043
vt 0.123423 0.205306
vt 0.000156 0.205306
vt 0.000125 0.242784
vt 0.000064 0.280261
vt 0.123273 0.142438
vt 0.122972 0.079570
vt 0.000064 0.130352
vt 0.000125 0.167829
vt 0.122972 0.331043
vt 0.030806 0.283587
vt 0.245655 0.372324
vt 0.030806 0.283587
vt 0.000125 0.167829
vt 0.030806 0.127026
vt 0.000156 0.205306
vt 0.030806 0.127026
vt 0.805028 0.030806
vt 0.873826 0.071832
vt 0.721203 0.008146
vt 0.873826 0.071832
vt 0.938030 0.277186
vt 0.873826 0.338781
vt 0.968983 0.205307
vt 0.873826 0.338781
vt 0.805028 0.379807
vt 0.721203 0.402467
vt 0.000125 0.242784
vt 0.122972 0.079570
vt 0.245655 0.038289
vt 0.938030 0.133427
vt 0.611917 0.001649
vt 0.489902 0.006032
vt 0.611917 0.408964
vt 0.489902 0.404581
vt 0.367890 0.394602
vt 0.367890 0.016011
f 1/1/1 2/2/2 3/3/3
f 1/1/1 3/3/3 4/4/4
f 1/1/1 4/4/4 5/5/5
f 1/1/1 5/5/5 6/6/6
f 1/1/1 6/6/6 7/7/7
f 1/1/1 7/7/7 8/8/8
f 1/1/1 8/8/8 9/9/9
f 1/1/1 9/9/9 2/2/2
f 10/10/10 11/11/11 12/12/12
f 10/10/10 12/12/12 13/13/13
f 10/10/10 13/13/13 3/3/3
f 10/10/10 3/3/3 2/2/2
f 10/10/10 2/2/2 9/9/9
f 10/10/10 9/9/9 14/14/14
f 10/10/10 14/14/14 15/15/15
f 10/10/10 15/15/15 11/11/11
f 16/16/16 17/17/17 18/18/18
f 16/16/16 18/18/18 19/19/19
f 16/16/16 19/19/19 20/20/20
f 16/16/16 20/20/20 21/21/21
f 16/16/16 21/21/21 22/22/22
f 16/16/16 22/22/22 23/23/23
f 16/16/16 23/23/23 24/24/24
f 16/16/16 24/24/24 17/17/17
f 25/25/25 21/21/21 20/20/20
f 25/25/25 20/20/20 26/26/26
f 25/25/25 26/26/26 27/27/27
f 25/25/25 27/27/27 28/28/28
f 25/25/25 28/28/28 29/29/29
f 25/25/25 29/29/29 30/30/30
f 25/25/25 30/30/30 22/22/22
f 25/25/25 22/22/22 21/21/21
f 31/31/31 32/32/32 22/22/22
f 31/31/31 22/22/22 30/30/30
f 31/31/31 30/30/30 29/29/29
f 31/31/31 29/29/29 33/33/33
f 31/31/31 33/33/33 5/5/5
f 31/31/31 5/5/5 4/4/4
f 31/31/31 4/4/4 3/3/3
f 31/31/31 3/3/3 32/32/32
f 34/34/34 35/35/35 24/24/24
f 34/34/34 24/24/24 23/23/23
f 34/34/34 23/23/23 22/22/22
f 34/34/34 22/22/22 32/32/32
f 34/34/34 32/32/32 3/3/3
f 34/34/34 3/3/3 13/13/13
f 34/34/34 13/13/13 12/12/12
f 34/34/34 12/12/12 35/35/35
f 36/36/36 37/37/37 38/38/38
f 36/36/36 38/38/38 39/39/39
f 36/36/36 39/39/39 40/40/40
f 36/36/36 40/40/40 41/41/41
f 36/36/36 41/41/41 20/20/20
f 36/36/36 20/20/20 19/19/19
f 36/36/36 19/19/19 18/18/18
f 36/36/36 18/18/18 37/37/37
f 42/42/42 41/41/41 40/40/40
f 42/42/42 40/40/40 43/43/43
f 42/42/42 43/43/43 44/44/44
f 42/42/42 44/44/44 45/45/45
f 42/42/42 45/45/45 27/27/27
f 42/42/42 27/27/27 26/26/26
f 42/42/42 26/26/26 20/20/20
f 42/42/42 20/20/20 41/41/41
f 46/46/46 47/47/47 48/48/48
f 46/46/46 48/48/48 49/49/49
f 46/46/46 49/49/49 50/50/50
f 46/46/46 50/50/50 51/51/51
f 46/46/46 51/51/51 52/52/52
f 46/46/46 52/52/52 53/53/53
f 46/46/46 53/53/53 54/54/54
f 46/46/46 54/54/54 47/47/47
f 55/55/55 56/56/56 57/57/57
f 55/55/55 57/57/57 58/58/58
f 55/55/55 58/58/58 48/48/48
f 55/55/55 48/48/48 47/47/47
f 55/55/55 47/47/47 54/54/54
f 55/55/55 54/54/54 59/59/59
f 55/55/55 59/59/59 60/60/60
f 55/55/55 60/60/60 56/56/56
f 61/61/61 62/62/62 63/63/63
f 61/61/61 63/63/63 64/64/64
f 61/61/61 64/64/64 65/65/65
f 61/61/61 65/65/65 66/66/66
f 61/61/61 66/66/66 67/67/67
f 61/61/61 67/67/67 68/68/68
f 61/61/61 68/68/68 69/69/69
f 61/61/61 69/69/69 62/62/62
f 70/70/70 66/66/66 65/65/65
f 70/70/70 65/65/65 71/71/71
f 70/70/70 71/71/71 72/72/72
f 70/70/70 72/72/72 73/73/73
f 70/70/70 73/73/73 74/74/74
f 70/70/70 74/74/74 75/75/75
f 70/70/70 75/75/75 67/67/67
f 70/70/70 67/67/67 66/66/66
f 76/76/76 77/77/77 54/54/54
f 76/76/76 54/54/54 53/53/53
f 76/76/76 53/53/53 52/52/52
f 76/76/76 52/52/52 78/78/78
f 76/76/76 78/78/78 72/72/72
f 76/76/76 72/72/72 71/71/71
f 76/76/76 71/71/71 65/65/65
f 76/76/76 65/65/65 77/77/77
f 79/79/79 80/80/80 60/60/60
f 79/79/79 60/60/60 59/59/59
f 79/79/79 59/59/59 54/54/54
f 79/79/79 54/54/54 77/77/77
f 79/79/79 77/77/77 65/65/65
f 79/79/79 65/65/65 64/64/64
f 79/79/79 64/64/64 63/63/63
f 79/79/79 63/63/63 80/80/80
f 81/81/81 82/82/82 69/69/69
f 81/81/81 69/69/69 68/68/68
f 81/81/81 68/68/68 67/67/67
f 81/81/81 67/67/67 83/83/83
f 81/81/81 83/83/83 84/84/84
f 81/81/81 84/84/84 85/85/85
f 81/81/81 85/85/85 86/86/86
f 81/81/81 86/86/86 82/82/82
f 87/87/87 83/83/83 67/67/67
f 87/87/87 67/67/67 75/75/75
f 87/87/87 75/75/75 74/74/74
f 87/87/87 74/74/74 88/88/88
f 87/87/87 88/88/88 89/89/89
f 87/87/87 89/89/89 90/90/90
f 87/87/87 90/90/90 84/84/84
f 87/87/87 84/84/84 83/83/83
f 91/91/91 92/92/92 38/38/38
f 91/91/91 38/38/38 37/37/37
f 91/91/91 37/37/37 18/18/18
f 91/91/91 18/18/18 93/93/93
f 91/91/91 93/93/93 69/69/69
f 91/91/91 69/69/69 82/82/82
f 91/91/91 82/82/82 94/94/94
f 91/91/91 94/94/94 92/92/92
f 95/95/95 96/96/96 44/44/44
f 95/95/95 44/44/44 43/43/43
f 95/95/95 43/43/43 40/40/40
f 95/95/95 40/40/40 97/97/97
f 95/95/95 97/97/97 84/84/84
f 95/95/95 84/84/84 90/90/90
f 95/95/95 90/90/90 98/98/98
f 95/95/95 98/98/98 96/96/96
f 99/99/99 100/100/100 7/7/7
f 99/99/99 7/7/7 6/6/6
f 99/99/99 6/6/6 5/5/5
f 99/99/99 5/5/5 101/101/101
f 99/99/99 101/101/101 52/52/52
f 99/99/99 52/52/52 51/51/51
f 99/99/99 51/51/51 102/102/102
f 99/99/99 102/102/102 100/100/100
f 103/103/103 104/104/104 15/15/15
f 103/103/103 15/15/15 14/14/14
f 103/103/103 14/14/14 9/9/9
f 103/103/103 9/9/9 105/105/105
f 103/103/103 105/105/105 48/48/48
f 103/103/103 48/48/48 58/58/58
f 103/103/103 58/58/58 106/106/106
f 103/103/103 106/106/106 104/104/104
f 107/107/107 108/108/108 12/12/12
f 107/107/107 12/12/12 11/11/11
f 107/107/107 11/11/11 15/15/15
f 107/107/107 15/15/15 104/104/104
f 107/107/107 104/104/104 106/106/106
f 107/107/107 106/106/106 56/56/56
f 107/107/107 56/56/56 60/60/60
f 107/107/107 60/60/60 108/108/108
f 109/109/109 97/97/97 40/40/40
f 109/109/109 40/40/40 39/39/39
f 109/109/109 39/39/39 38/38/38
f 109/109/109 38/38/38 92/92/92
f 109/109/109 92/92/92 94/94/94
f 109/109/109 94/94/94 85/85/85
f 109/109/109 85/85/85 84/84/84
f 109/109/109 84/84/84 97/97/97
f 110/110/110 111/111/111 27/27/27
f 110/110/110 27/27/27 45/45/45
f 110/110/110 45/45/45 44/44/44
f 110/110/110 44/44/44 96/96/96
f 110/110/110 96/96/96 98/98/98
f 110/110/110 98/98/98 88/88/88
f 110/110/110 88/88/88 74/74/74
f 110/110/110 74/74/74 111/111/111
f 112/112/112 105/105/105 9/9/9
f 112/112/112 9/9/9 8/8/8
f 112/112/112 8/8/8 7/7/7
f 112/112/112 7/7/7 100/100/100
f 112/112/112 100/100/100 102/102/102
f 112/112/112 102/102/102 49/49/49
f 112/112/112 49/49/49 48/48/48
f 112/112/112 48/48/48 105/105/105
f 113/113/113 101/101/101 5/5/5
f 113/113/113 5/5/5 33/33/33
f 113/113/113 33/33/33 29/29/29
f 113/113/113 29/29/29 114/114/114
f 113/113/113 114/114/114 72/72/72
f 113/113/113 72/72/72 78/78/78
f 113/113/113 78/78/78 52/52/52
f 113/113/113 52/52/52 101/101/101
f 115/115/115 116/116/116 24/24/24
f 115/115/115 24/24/24 35/35/35
f 115/115/115 35/35/35 12/12/12
f 115/115/115 12/12/12 108/108/108
f 115/115/115 108/108/108 60/60/60
f 115/115/115 60/60/60 80/80/80
f 115/115/115 80/80/80 63/63/63
f 115/115/115 63/63/63 116/116/116
f 117/117/117 93/93/93 18/18/18
f 117/117/117 18/18/18 17/17/17
f 117/117/117 17/17/17 24/24/24
f 117/117/117 24/24/24 116/116/116
f 117/117/117 116/116/116 63/63/63
f 117/117/117 63/63/63 62/62/62
f 117/117/117 62/62/62 69/69/69
f 117/117/117 69/69/69 93/93/93
f 118/118/118 114/114/114 29/29/29
f 118/118/118 29/29/29 28/28/28
f 118/118/118 28/28/28 27/27/27
f 118/118/118 27/27/27 111/111/111
f 118/118/118 111/111/111 74/74/74
f 118/118/118 74/74/74 73/73/73
f 118/118/118 73/73/73 72/72/72
f 118/118/118 72/72/72 114/114/114
