v -2.350079 0.698045 -1.131623
v -2.348373 0.698323 -1.133232
v -2.350697 0.697108 -1.134966
v -2.352352 0.696867 -1.132941
v -2.353801 0.696832 -1.131513
v -2.35173 0.697912 -1.130623
v -2.350107 0.698436 -1.1304
v -2.348371 0.698783 -1.130752
v -2.346624 0.699115 -1.131954
v -2.347681 0.698879 -1.135421
v -2.347525 0.699374 -1.137284
v -2.349024 0.698492 -1.139079
v -2.349627 0.697814 -1.137258
v -2.346296 0.699504 -1.134039
v -2.346701 0.69962 -1.135794
v -2.356091 0.692499 -1.142442
v -2.355254 0.693028 -1.144099
v -2.357392 0.690709 -1.145339
v -2.358122 0.690231 -1.143868
v -2.359183 0.689693 -1.141951
v -2.357302 0.691899 -1.140279
v -2.355284 0.693921 -1.138561
v -2.35403 0.694568 -1.140828
v -2.353176 0.695151 -1.142568
v -2.358761 0.691571 -1.138212
v -2.360483 0.68941 -1.140128
v -2.36153 0.68927 -1.138784
v -2.359933 0.691402 -1.136688
v -2.35807 0.693449 -1.134816
v -2.356823 0.693597 -1.136404
v -2.354643 0.695373 -1.134591
v -2.353042 0.695649 -1.136766
v -2.35597 0.695302 -1.133
v -2.351809 0.696358 -1.13908
v -2.351003 0.697028 -1.140868
v -2.360254 0.687843 -1.145052
v -2.359746 0.688238 -1.146166
v -2.36115 0.686725 -1.146333
v -2.36187 0.685985 -1.145844
v -2.362357 0.685651 -1.144842
v -2.361018 0.687412 -1.14361
v -2.362016 0.687231 -1.142261
v -2.363078 0.685565 -1.143932
v -2.363323 0.685969 -1.142892
v -2.362836 0.687164 -1.141271
v -2.349987 0.697822 -1.131572
v -2.348262 0.698104 -1.13321
v -2.346544 0.698949 -1.13194
v -2.348306 0.698613 -1.130715
v -2.350062 0.69831 -1.130366
v -2.351671 0.697744 -1.130571
v -2.353733 0.696667 -1.13146
v -2.35225 0.696648 -1.132888
v -2.350579 0.696893 -1.134939
v -2.347553 0.698668 -1.135428
v -2.34742 0.699222 -1.137303
v -2.346627 0.699504 -1.135806
v -2.346202 0.699345 -1.134048
v -2.349493 0.697606 -1.137256
v -2.348916 0.698341 -1.13909
v -2.35593 0.692313 -1.142408
v -2.355129 0.692891 -1.144083
v -2.353056 0.695008 -1.142559
v -2.353878 0.694374 -1.140803
v -2.355144 0.693722 -1.138516
v -2.357152 0.691708 -1.140226
v -2.359028 0.689508 -1.141893
v -2.357955 0.690051 -1.143829
v -2.357262 0.690576 -1.145319
v -2.358624 0.691377 -1.138142
v -2.356696 0.693394 -1.136339
v -2.357981 0.693296 -1.134758
v -2.359836 0.691255 -1.136626
v -2.361429 0.689128 -1.138718
v -2.36034 0.689222 -1.140052
v -2.354529 0.695162 -1.134533
v -2.352913 0.695441 -1.136731
v -2.355892 0.695142 -1.132946
v -2.351667 0.696157 -1.139066
v -2.35089 0.696881 -1.140869
v -2.360085 0.687666 -1.145012
v -2.359614 0.688108 -1.146146
v -2.360861 0.68723 -1.14355
v -2.362239 0.685515 -1.144797
v -2.361742 0.685853 -1.145815
v -2.361053 0.686628 -1.146316
v -2.361872 0.687045 -1.142182
v -2.362735 0.687023 -1.141203
v -2.363246 0.685865 -1.142843
v -2.36297 0.685426 -1.143872
v -2.359516 0.688313 -1.146531
v -2.361502 0.686273 -1.14666
v -2.35709 0.69081 -1.145822
v -2.361053 0.686628 -1.146316
v -2.363384 0.684949 -1.144462
v -2.363679 0.685516 -1.143211
v -2.362751 0.685004 -1.145232
v -2.363246 0.685865 -1.142843
v -2.352256 0.697793 -1.130264
v -2.350166 0.698483 -1.130108
v -2.354256 0.696747 -1.13101
v -2.350062 0.69831 -1.130366
v -2.345793 0.699642 -1.133584
v -2.346482 0.699764 -1.135944
v -2.346006 0.699305 -1.131522
v -2.346627 0.699504 -1.135806
v -2.347424 0.699473 -1.137917
v -2.348773 0.698652 -1.139694
v -2.362352 0.685307 -1.146096
v -2.363066 0.687079 -1.140909
v -2.361836 0.68916 -1.138305
v -2.347774 0.698953 -1.130445
v -2.356379 0.695207 -1.132444
v -2.358448 0.693332 -1.134259
v -2.350683 0.697187 -1.141467
v -2.352837 0.695282 -1.143146
v -2.354918 0.693145 -1.144646
v -2.360282 0.69128 -1.13615
vn -0.3005 0.921 -0.248
vn -0.4083 0.911 -0.0579
vn -0.4523 0.8872 -0.0908
vn -0.3581 0.8961 -0.2622
vn -0.3815 0.8845 -0.2683
vn -0.3057 0.9209 -0.2418
vn -0.251 0.9424 -0.2211
vn -0.2544 0.953 -0.1641
vn -0.3368 0.9415 -0.006
vn -0.5278 0.8419 0.112
vn -0.5246 0.8448 0.105
vn -0.5749 0.8173 0.038
vn -0.5613 0.8254 0.0596
vn -0.4401 0.8885 0.1298
vn -0.4862 0.8606 0.1514
vn -0.6724 0.728 -0.134
vn -0.6599 0.7319 -0.1698
vn -0.6768 0.7115 -0.1885
vn -0.695 0.7044 -0.1439
vn -0.6438 0.724 -0.2475
vn -0.6195 0.7517 -0.2261
vn -0.5673 0.8032 -0.1819
vn -0.632 0.7704 -0.0833
vn -0.6304 0.7676 -0.1155
vn -0.5583 0.7676 -0.3147
vn -0.5726 0.7469 -0.3378
vn -0.6047 0.7366 -0.3027
vn -0.5846 0.758 -0.289
vn -0.5309 0.8022 -0.2731
vn -0.504 0.8149 -0.286
vn -0.429 0.8632 -0.2663
vn -0.5049 0.8531 -0.1315
vn -0.4568 0.8486 -0.2669
vn -0.5904 0.807 -0.0107
vn -0.6007 0.7985 -0.0391
vn -0.7143 0.6878 -0.129
vn -0.6981 0.6932 -0.1791
vn -0.7217 0.6735 -0.1601
vn -0.7537 0.6425 -0.1379
vn -0.6846 0.6709 -0.2849
vn -0.6549 0.7105 -0.2575
vn -0.565 0.7397 -0.3653
vn -0.5819 0.7021 -0.4103
vn -0.5929 0.7181 -0.3645
vn -0.6026 0.7264 -0.3305
vn 0.3008 -0.9106 0.2832
vn 0.4206 -0.9048 0.067
vn 0.467 -0.8784 0.1019
vn 0.2962 -0.8741 0.3851
vn 0.2381 -0.8403 0.4869
vn 0.2476 -0.8505 0.464
vn 0.2949 -0.8619 0.4125
vn 0.35 -0.8954 0.2752
vn 0.4522 -0.8873 0.0908
vn 0.5566 -0.8217 -0.1221
vn 0.6789 -0.7006 -0.2193
vn 0.6927 -0.6824 -0.2333
vn 0.6365 -0.7557 -0.1539
vn 0.5689 -0.8193 -0.0715
vn 0.6575 -0.7358 -0.1618
vn 0.6789 -0.7244 0.1194
vn 0.7187 -0.6951 0.0178
vn 0.6906 -0.7229 -0.0195
vn 0.6385 -0.7664 0.0703
vn 0.5674 -0.8031 0.1819
vn 0.6196 -0.7516 0.2262
vn 0.6439 -0.7239 0.2476
vn 0.7014 -0.7015 0.126
vn 0.7289 -0.6846 -0.0025
vn 0.5479 -0.7699 0.327
vn 0.4949 -0.8163 0.2979
vn 0.4315 -0.813 0.3909
vn 0.4714 -0.781 0.4096
vn 0.4561 -0.7794 0.4294
vn 0.5593 -0.7509 0.3511
vn 0.4203 -0.8637 0.2781
vn 0.5049 -0.8531 0.1315
vn 0.363 -0.8471 0.388
vn 0.5969 -0.8023 -0.0016
vn 0.6639 -0.7425 -0.0886
vn 0.7138 -0.6936 0.0969
vn 0.7254 -0.685 -0.0676
vn 0.6482 -0.7187 0.2514
vn 0.6178 -0.7536 0.2246
vn 0.6998 -0.7143 -0.0023
vn 0.718 -0.6874 -0.1093
vn 0.538 -0.7547 0.3755
vn 0.3978 -0.7988 0.4512
vn 0.3586 -0.8123 0.46
vn 0.4491 -0.8015 0.3948
vn 0.1391 0.0664 -0.988
vn -0.1892 -0.1824 -0.9648
vn 0.2708 0.1435 -0.9519
vn 0.718 -0.6874 -0.1093
vn -0.6862 -0.6647 -0.2952
vn -0.8919 -0.4273 0.1476
vn -0.4719 -0.7503 -0.4629
vn 0.3586 -0.8123 0.46
vn -0.3791 0.259 0.8883
vn -0.0785 0.3723 0.9248
vn -0.5387 0.1331 0.8318
vn 0.2381 -0.8403 0.4869
vn 0.8699 0.4889 0.065
vn 0.7006 0.643 -0.3094
vn 0.7733 0.3061 0.5553
vn 0.6927 -0.6824 -0.2333
vn 0.5555 0.5838 -0.5921
vn 0.4586 0.4798 -0.7479
vn -0.4381 -0.5781 -0.6883
vn -0.8126 -0.2644 0.5193
vn -0.7369 -0.2069 0.6435
vn 0.3535 0.3093 0.8828
vn -0.6216 0.0211 0.783
vn -0.6546 -0.0543 0.754
vn 0.4003 0.3765 -0.8354
vn 0.3746 0.3036 -0.876
vn 0.3471 0.2293 -0.9094
vn -0.6821 -0.1286 0.7199
vt 0.839504 0.118056
vt 0.856743 0.205307
vt 0.741230 0.205307
vt 0.734555 0.106726
vt 0.724541 0.032791
vt 0.813647 0.052618
vt 0.868992 0.081539
vt 0.913398 0.129584
vt 0.940923 0.205307
vt 0.839504 0.292557
vt 0.813647 0.357995
vt 0.724541 0.377822
vt 0.734555 0.303887
vt 0.913398 0.281029
vt 0.868992 0.329074
vt 0.369475 0.299954
vt 0.368286 0.370940
vt 0.245840 0.351447
vt 0.246397 0.288815
vt 0.246768 0.205307
vt 0.370268 0.205307
vt 0.494283 0.205307
vt 0.492822 0.304944
vt 0.490632 0.379672
vt 0.369475 0.110659
vt 0.246397 0.121798
vt 0.245841 0.059166
vt 0.368286 0.039673
vt 0.490632 0.030941
vt 0.492822 0.105669
vt 0.616755 0.103478
vt 0.619174 0.205307
vt 0.613127 0.027106
vt 0.616755 0.307135
vt 0.613126 0.383507
vt 0.123273 0.268175
vt 0.123047 0.315326
vt 0.054743 0.283353
vt 0.030912 0.249131
vt 0.030973 0.205306
vt 0.123423 0.205306
vt 0.123273 0.142438
vt 0.030912 0.161481
vt 0.054744 0.127260
vt 0.123047 0.095287
vt 0.839504 0.118056
vt 0.856743 0.205307
vt 0.968983 0.205307
vt 0.938030 0.133427
vt 0.876123 0.061548
vt 0.805028 0.030806
vt 0.721203 0.008146
vt 0.734555 0.106726
vt 0.741230 0.205307
vt 0.839504 0.292557
vt 0.805028 0.379807
vt 0.876123 0.349065
vt 0.938030 0.277186
vt 0.734555 0.303887
vt 0.721203 0.402467
vt 0.369475 0.299954
vt 0.367890 0.394602
vt 0.489902 0.404581
vt 0.492822 0.304944
vt 0.494283 0.205307
vt 0.370268 0.205307
vt 0.246768 0.205307
vt 0.246397 0.288815
vt 0.245655 0.372324
vt 0.369475 0.110659
vt 0.492822 0.105669
vt 0.489902 0.006032
vt 0.367890 0.016011
vt 0.245655 0.038289
vt 0.246397 0.121798
vt 0.616755 0.103478
vt 0.619174 0.205307
vt 0.611917 0.001649
vt 0.616755 0.307135
vt 0.611917 0.408964
vt 0.123273 0.268175
vt 0.122972 0.331043
vt 0.123423 0.205306
vt 0.000156 0.205306
vt 0.000125 0.242784
vt 0.000064 0.280261
vt 0.123273 0.142438
vt 0.122972 0.079570
vt 0.000064 0.130352
vt 0.000125 0.167829
vt 0.122972 0.331043
vt 0.030806 0.283587
vt 0.245655 0.372324
vt 0.030806 0.283587
vt 0.000125 0.167829
vt 0.030806 0.127026
vt 0.000156 0.205306
vt 0.030806 0.127026
vt 0.805028 0.030806
vt 0.873826 0.071832
vt 0.721203 0.008146
vt 0.873826 0.071832
vt 0.938030 0.277186
vt 0.873826 0.338781
vt 0.968983 0.205307
vt 0.873826 0.338781
vt 0.805028 0.379807
vt 0.721203 0.402467
vt 0.000125 0.242784
vt 0.122972 0.079570
vt 0.245655 0.038289
vt 0.938030 0.133427
vt 0.611917 0.001649
vt 0.489902 0.006032
vt 0.611917 0.408964
vt 0.489902 0.404581
vt 0.367890 0.394602
vt 0.367890 0.016011
f 1/1/1 2/2/2 3/3/3
f 1/1/1 3/3/3 4/4/4
f 1/1/1 4/4/4 5/5/5
f 1/1/1 5/5/5 6/6/6
f 1/1/1 6/6/6 7/7/7
f 1/1/1 7/7/7 8/8/8
f 1/1/1 8/8/8 9/9/9
f 1/1/1 9/9/9 2/2/2
f 10/10/10 11/11/11 12/12/12
f 10/10/10 12/12/12 13/13/13
f 10/10/10 13/13/13 3/3/3
f 10/10/10 3/3/3 2/2/2
f 10/10/10 2/2/2 9/9/9
f 10/10/10 9/9/9 14/14/14
f 10/10/10 14/14/14 15/15/15
f 10/10/10 15/15/15 11/11/11
f 16/16/16 17/17/17 18/18/18
f 16/16/16 18/18/18 19/19/19
f 16/16/16 19/19/19 20/20/20
f 16/16/16 20/20/20 21/21/21
f 16/16/16 21/21/21 22/22/22
f 16/16/16 22/22/22 23/23/23
f 16/16/16 23/23/23 24/24/24
f 16/16/16 24/24/24 17/17/17
f 25/25/25 21/21/21 20/20/20
f 25/25/25 20/20/20 26/26/26
f 25/25/25 26/26/26 27/27/27
f 25/25/25 27/27/27 28/28/28
f 25/25/25 28/28/28 29/29/29
f 25/25/25 29/29/29 30/30/30
f 25/25/25 30/30/30 22/22/22
f 25/25/25 22/22/22 21/21/21
f 31/31/31 32/32/32 22/22/22
f 31/31/31 22/22/22 30/30/30
f 31/31/31 30/30/30 29/29/29
f 31/31/31 29/29/29 33/33/33
f 31/31/31 33/33/33 5/5/5
f 31/31/31 5/5/5 4/4/4
f 31/31/31 4/4/4 3/3/3
f 31/31/31 3/3/3 32/32/32
f 34/34/34 35/35/35 24/24/24
f 34/34/34 24/24/24 23/23/23
f 34/34/34 23/23/23 22/22/22
f 34/34/34 22/22/22 32/32/32
f 34/34/34 32/32/32 3/3/3
f 34/34/34 3/3/3 13/13/13
f 34/34/34 13/13/13 12/12/12
f 34/34/34 12/12/12 35/35/35
f 36/36/36 37/37/37 38/38/38
f 36/36/36 38/38/38 39/39/39
f 36/36/36 39/39/39 40/40/40
f 36/36/36 40/40/40 41/41/41
f 36/36/36 41/41/41 20/20/20
f 36/36/36 20/20/20 19/19/19
f 36/36/36 19/19/19 18/18/18
f 36/36/36 18/18/18 37/37/37
f 42/42/42 41/41/41 40/40/40
f 42/42/42 40/40/40 43/43/43
f 42/42/42 43/43/43 44/44/44
f 42/42/42 44/44/44 45/45/45
f 42/42/42 45/45/45 27/27/27
f 42/42/42 27/27/27 26/26/26
f 42/42/42 26/26/26 20/20/20
f 42/42/42 20/20/20 41/41/41
f 46/46/46 47/47/47 48/48/48
f 46/46/46 48/48/48 49/49/49
f 46/46/46 49/49/49 50/50/50
f 46/46/46 50/50/50 51/51/51
f 46/46/46 51/51/51 52/52/52
f 46/46/46 52/52/52 53/53/53
f 46/46/46 53/53/53 54/54/54
f 46/46/46 54/54/54 47/47/47
f 55/55/55 56/56/56 57/57/57
f 55/55/55 57/57/57 58/58/58
f 55/55/55 58/58/58 48/48/48
f 55/55/55 48/48/48 47/47/47
f 55/55/55 47/47/47 54/54/54
f 55/55/55 54/54/54 59/59/59
f 55/55/55 59/59/59 60/60/60
f 55/55/55 60/60/60 56/56/56
f 61/61/61 62/62/62 63/63/63
f 61/61/61 63/63/63 64/64/64
f 61/61/61 64/64/64 65/65/65
f 61/61/61 65/65/65 66/66/66
f 61/61/61 66/66/66 67/67/67
f 61/61/61 67/67/67 68/68/68
f 61/61/61 68/68/68 69/69/69
f 61/61/61 69/69/69 62/62/62
f 70/70/70 66/66/66 65/65/65
f 70/70/70 65/65/65 71/71/71
f 70/70/70 71/71/71 72/72/72
f 70/70/70 72/72/72 73/73/73
f 70/70/70 73/73/73 74/74/74
f 70/70/70 74/74/74 75/75/75
f 70/70/70 75/75/75 67/67/67
f 70/70/70 67/67/67 66/66/66
f 76/76/76 77/77/77 54/54/54
f 76/76/76 54/54/54 53/53/53
f 76/76/76 53/53/53 52/52/52
f 76/76/76 52/52/52 78/78/78
f 76/76/76 78/78/78 72/72/72
f 76/76/76 72/72/72 71/71/71
f 76/76/76 71/71/71 65/65/65
f 76/76/76 65/65/65 77/77/77
f 79/79/79 80/80/80 60/60/60
f 79/79/79 60/60/60 59/59/59
f 79/79/79 59/59/59 54/54/54
f 79/79/79 54/54/54 77/77/77
f 79/79/79 77/77/77 65/65/65
f 79/79/79 65/65/65 64/64/64
f 79/79/79 64/64/64 63/63/63
f 79/79/79 63/63/63 80/80/80
f 81/81/81 82/82/82 69/69/69
f 81/81/81 69/69/69 68/68/68
f 81/81/81 68/68/68 67/67/67
f 81/81/81 67/67/67 83/83/83
f 81/81/81 83/83/83 84/84/84
f 81/81/81 84/84/84 85/85/85
f 81/81/81 85/85/85 86/86/86
f 81/81/81 86/86/86 82/82/82
f 87/87/87 83/83/83 67/67/67
f 87/87/87 67/67/67 75/75/75
f 87/87/87 75/75/75 74/74/74
f 87/87/87 74/74/74 88/88/88
f 87/87/87 88/88/88 89/89/89
f 87/87/87 89/89/89 90/90/90
f 87/87/87 90/90/90 84/84/84
f 87/87/87 84/84/84 83/83/83
f 91/91/91 92/92/92 38/38/38
f 91/91/91 38/38/38 37/37/37
f 91/91/91 37/37/37 18/18/18
f 91/91/91 18/18/18 93/93/93
f 91/91/91 93/93/93 69/69/69
f 91/91/91 69/69/69 82/82/82
f 91/91/91 82/82/82 94/94/94
f 91/91/91 94/94/94 92/92/92
f 95/95/95 96/96/96 44/44/44
f 95/95/95 44/44/44 43/43/43
f 95/95/95 43/43/43 40/40/40
f 95/95/95 40/40/40 97/97/97
f 95/95/95 97/97/97 84/84/84
f 95/95/95 84/84/84 90/90/90
f 95/95/95 90/90/90 98/98/98
f 95/95/95 98/98/98 96/96/96
f 99/99/99 100/100/100 7/7/7
f 99/99/99 7/7/7 6/6/6
f 99/99/99 6/6/6 5/5/5
f 99/99/99 5/5/5 101/101/101
f 99/99/99 101/101/101 52/52/52
f 99/99/99 52/52/52 51/51/51
f 99/99/99 51/51/51 102/102/102
f 99/99/99 102/102/102 100/100/100
f 103/103/103 104/104/104 15/15/15
f 103/103/103 15/15/15 14/14/14
f 103/103/103 14/14/14 9/9/9
f 103/103/103 9/9/9 105/105/105
f 103/103/103 105/105/105 48/48/48
f 103/103/103 48/48/48 58/58/58
f 103/103/103 58/58/58 106/106/106
f 103/103/103 106/106/106 104/104/104
f 107/107/107 108/108/108 12/12/12
f 107/107/107 12/12/12 11/11/11
f 107/107/107 11/11/11 15/15/15
f 107/107/107 15/15/15 104/104/104
f 107/107/107 104/104/104 106/106/106
f 107/107/107 106/106/106 56/56/56
f 107/107/107 56/56/56 60/60/60
f 107/107/107 60/60/60 108/108/108
f 109/109/109 97/97/97 40/40/40
f 109/109/109 40/40/40 39/39/39
f 109/109/109 39/39/39 38/38/38
f 109/109/109 38/38/38 92/92/92
f 109/109/109 92/92/92 94/94/94
f 109/109/109 94/94/94 85/85/85
f 109/109/109 85/85/85 84/84/84
f 109/109/109 84/84/84 97/97/97
f 110/110/110 111/111/111 27/27/27
f 110/110/110 27/27/27 45/45/45
f 110/110/110 45/45/45 44/44/44
f 110/110/110 44/44/44 96/96/96
f 110/110/110 96/96/96 98/98/98
f 110/110/110 98/98/98 88/88/88
f 110/110/110 88/88/88 74/74/74
f 110/110/110 74/74/74 111/111/111
f 112/112/112 105/105/105 9/9/9
f 112/112/112 9/9/9 8/8/8
f 112/112/112 8/8/8 7/7/7
f 112/112/112 7/7/7 100/100/100
f 112/112/112 100/100/100 102/102/102
f 112/112/112 102/102/102 49/49/49
f 112/112/112 49/49/49 48/48/48
f 112/112/112 48/48/48 105/105/105
f 113/113/113 101/101/101 5/5/5
f 113/113/113 5/5/5 33/33/33
f 113/113/113 33/33/33 29/29/29
f 113/113/113 29/29/29 114/114/114
f 113/113/113 114/114/114 72/72/72
f 113/113/113 72/72/72 78/78/78
f 113/113/113 78/78/78 52/52/52
f 113/113/113 52/52/52 101/101/101
f 115/115/115 116/116/116 24/24/24
f 115/115/115 24/24/24 35/35/35
f 115/115/115 35/35/35 12/12/12
f 115/115/115 12/12/12 108/108/108
f 115/115/115 108/108/108 60/60/60
f 115/115/115 60/60/60 80/80/80
f 115/115/115 80/80/80 63/63/63
f 115/115/115 63/63/63 116/116/116
f 117/117/117 93/93/93 18/18/18
f 117/117/117 18/18/18 17/17/17
f 117/117/117 17/17/17 24/24/24
f 117/117/117 24/24/24 116/116/116
f 117/117/117 116/116/116 63/63/63
f 117/117/117 63/63/63 62/62/62
f 117/117/117 62/62/62 69/69/69
f 117/117/117 69/69/69 93/93/93
f 118/118/118 114/114/114 29/29/29
f 118/118/118 29/29/29 28/28/28
f 118/118/118 28/28/28 27/27/27
f 118/118/118 27/27/27 111/111/111
f 118/118/118 111/111/111 74/74/74
f 118/118/118 74/74/74 73/73/73
f 118/118/118 73/73/73 72/72/72
f 118/118/118 72/72/72 114/114/114
