v -2.362342 0.797777 -1.152227
v -2.36006 0.798266 -1.151702
v -2.359747 0.796322 -1.154205
v -2.362363 0.79593 -1.154485
v -2.364359 0.795718 -1.154953
v -2.36407 0.797372 -1.153057
v -2.363425 0.798295 -1.151728
v -2.362219 0.799006 -1.150553
v -2.36027 0.799605 -1.1498
v -2.357815 0.798717 -1.152392
v -2.35613 0.79902 -1.153345
v -2.35534 0.797592 -1.15528
v -2.357218 0.796998 -1.154671
v -2.3583 0.79982 -1.150695
v -2.356995 0.799631 -1.151961
v -2.355988 0.789658 -1.161307
v -2.354126 0.790181 -1.161597
v -2.354118 0.787259 -1.163401
v -2.355763 0.786791 -1.16313
v -2.357968 0.786237 -1.162892
v -2.358483 0.789037 -1.161052
v -2.358961 0.791695 -1.159026
v -2.356355 0.79236 -1.15931
v -2.354414 0.792929 -1.159642
v -2.36103 0.788611 -1.161124
v -2.360222 0.785865 -1.162969
v -2.361932 0.785637 -1.163117
v -2.362961 0.788346 -1.161276
v -2.363655 0.79101 -1.159307
v -2.361629 0.791265 -1.159119
v -2.3621 0.793732 -1.156844
v -2.359382 0.794128 -1.156695
v -2.364171 0.793532 -1.157118
v -2.356748 0.794843 -1.157038
v -2.354793 0.79548 -1.157458
v -2.355798 0.783811 -1.164882
v -2.354576 0.784188 -1.165133
v -2.355131 0.782355 -1.165989
v -2.355915 0.781518 -1.166144
v -2.357031 0.781193 -1.165949
v -2.357438 0.783377 -1.164668
v -2.359126 0.78312 -1.164762
v -2.358195 0.781044 -1.166061
v -2.359234 0.781502 -1.165841
v -2.360411 0.782976 -1.164922
v -2.362332 0.797586 -1.152066
v -2.360016 0.79808 -1.151541
v -2.360236 0.799464 -1.149682
v -2.362213 0.79886 -1.150435
v -2.363428 0.798187 -1.15164
v -2.36408 0.797227 -1.152937
v -2.364366 0.795579 -1.154826
v -2.36235 0.795746 -1.154315
v -2.359704 0.796143 -1.154036
v -2.357737 0.79854 -1.152233
v -2.356055 0.798894 -1.153228
v -2.356943 0.799534 -1.151875
v -2.358239 0.799685 -1.150579
v -2.357144 0.796827 -1.154504
v -2.35527 0.797468 -1.155156
v -2.355929 0.789518 -1.161107
v -2.354071 0.790079 -1.161448
v -2.354356 0.792819 -1.1595
v -2.356293 0.792209 -1.159119
v -2.358922 0.791539 -1.158833
v -2.358445 0.788892 -1.16085
v -2.357932 0.7861 -1.162685
v -2.355705 0.786659 -1.162924
v -2.354064 0.787163 -1.163247
v -2.361014 0.788462 -1.160922
v -2.361613 0.791104 -1.158926
v -2.363655 0.790888 -1.159163
v -2.36296 0.788233 -1.161126
v -2.361933 0.785529 -1.162962
v -2.360208 0.785724 -1.162761
v -2.362085 0.793559 -1.156663
v -2.35934 0.793959 -1.156514
v -2.364173 0.793401 -1.156982
v -2.356681 0.794681 -1.156859
v -2.354729 0.795363 -1.157325
v -2.35574 0.783683 -1.164674
v -2.354521 0.784094 -1.164979
v -2.357403 0.783243 -1.164458
v -2.357005 0.781093 -1.165792
v -2.35587 0.781422 -1.165988
v -2.355093 0.782285 -1.165874
v -2.359114 0.782982 -1.164552
v -2.360414 0.78287 -1.164765
v -2.359233 0.781425 -1.165724
v -2.358187 0.780941 -1.165904
v -2.354142 0.784272 -1.165148
v -2.355022 0.781791 -1.16633
v -2.353543 0.787373 -1.163423
v -2.355093 0.782285 -1.165874
v -2.357882 0.780306 -1.166425
v -2.359133 0.780937 -1.166181
v -2.356884 0.78042 -1.166306
v -2.359233 0.781425 -1.165724
v -2.364655 0.797172 -1.15328
v -2.363711 0.798362 -1.151641
v -2.365031 0.795586 -1.155053
v -2.363428 0.798187 -1.15164
v -2.358434 0.800127 -1.150079
v -2.356754 0.799806 -1.151893
v -2.360324 0.799989 -1.149114
v -2.356943 0.799534 -1.151875
v -2.355531 0.799067 -1.153611
v -2.354679 0.797736 -1.155428
v -2.355934 0.780711 -1.166495
v -2.360844 0.782881 -1.164905
v -2.362505 0.785512 -1.163098
v -2.362175 0.79935 -1.149944
v -2.364866 0.793407 -1.157149
v -2.364333 0.79087 -1.159306
v -2.35411 0.795641 -1.157539
v -2.353738 0.79307 -1.15969
v -2.353479 0.79031 -1.161628
v -2.363607 0.788207 -1.16126
vn 0.0351 0.7896 -0.6126
vn -0.1831 0.7766 -0.6027
vn -0.1771 0.7396 -0.6493
vn 0.018 0.7505 -0.6606
vn 0.0114 0.7331 -0.68
vn 0.0271 0.7891 -0.6136
vn 0.0372 0.8251 -0.5637
vn -0.0135 0.8412 -0.5406
vn -0.1912 0.8289 -0.5256
vn -0.3886 0.7016 -0.5973
vn -0.3812 0.7043 -0.5988
vn -0.3491 0.6583 -0.6668
vn -0.3608 0.6718 -0.6469
vn -0.3597 0.7692 -0.5282
vn -0.4014 0.7339 -0.548
vn -0.2504 0.5292 -0.8107
vn -0.2135 0.5318 -0.8195
vn -0.2058 0.506 -0.8376
vn -0.253 0.5 -0.8282
vn -0.1383 0.519 -0.8435
vn -0.1447 0.5539 -0.8199
vn -0.1568 0.6209 -0.768
vn -0.2739 0.5855 -0.763
vn -0.2454 0.5795 -0.7771
vn -0.0377 0.5734 -0.8184
vn -0.0248 0.5474 -0.8365
vn -0.0711 0.534 -0.8425
vn -0.0731 0.561 -0.8246
vn -0.0599 0.6181 -0.7838
vn -0.0352 0.6351 -0.7716
vn -0.0144 0.7016 -0.7125
vn -0.1687 0.6896 -0.7042
vn -0.0278 0.6809 -0.7318
vn -0.3153 0.6391 -0.7016
vn -0.2961 0.6252 -0.7221
vn -0.2754 0.4813 -0.8321
vn -0.2245 0.4844 -0.8455
vn -0.2524 0.4619 -0.8502
vn -0.2872 0.4271 -0.8574
vn -0.1263 0.4539 -0.882
vn -0.1353 0.5022 -0.8541
vn 0.0028 0.539 -0.8422
vn 0.0334 0.4937 -0.869
vn -0.0118 0.5118 -0.859
vn -0.046 0.5214 -0.852
vn -0.0652 -0.7756 0.6278
vn 0.1815 -0.7667 0.6157
vn 0.175 -0.7263 0.6647
vn -0.1556 -0.7295 0.6659
vn -0.2735 -0.6988 0.6608
vn -0.2488 -0.709 0.6598
vn -0.1801 -0.7149 0.6756
vn -0.0334 -0.7502 0.6604
vn 0.1771 -0.7396 0.6492
vn 0.4117 -0.6765 0.6106
vn 0.5554 -0.5421 0.6305
vn 0.5741 -0.5228 0.6301
vn 0.4788 -0.5978 0.643
vn 0.3747 -0.6654 0.6456
vn 0.4959 -0.5745 0.6511
vn 0.2661 -0.5259 0.8078
vn 0.3729 -0.5 0.7816
vn 0.391 -0.5379 0.7469
vn 0.2883 -0.5816 0.7607
vn 0.1568 -0.6208 0.7681
vn 0.1447 -0.5538 0.82
vn 0.1383 -0.5189 0.8436
vn 0.2715 -0.4978 0.8237
vn 0.3954 -0.4899 0.7769
vn 0.0218 -0.5766 0.8167
vn 0.0204 -0.6372 0.7704
vn -0.092 -0.6382 0.7643
vn -0.0881 -0.5958 0.7983
vn -0.113 -0.5956 0.7953
vn 0.0067 -0.5528 0.8333
vn -0.0001 -0.7027 0.7114
vn 0.1687 -0.6896 0.7042
vn -0.1242 -0.6876 0.7154
vn 0.329 -0.6344 0.6995
vn 0.4367 -0.5711 0.6951
vn 0.3027 -0.4906 0.8171
vn 0.4493 -0.4985 0.7413
vn 0.1371 -0.5124 0.8477
vn 0.1451 -0.5564 0.8181
vn 0.3807 -0.5254 0.7609
vn 0.4812 -0.5074 0.7148
vn -0.0251 -0.5586 0.829
vn -0.1614 -0.6254 0.7635
vn -0.1888 -0.6465 0.7391
vn -0.0866 -0.6225 0.7778
vn 0.9155 -0.0173 -0.4019
vn 0.7314 -0.3325 -0.5953
vn 0.9509 0.0919 -0.2955
vn 0.4812 -0.5074 0.7148
vn -0.087 -0.8368 -0.5406
vn -0.5781 -0.6045 -0.548
vn 0.1685 -0.8886 -0.4266
vn -0.1888 -0.6465 0.7391
vn -0.9621 0.2638 0.0693
vn -0.8401 0.448 0.3056
vn -0.9935 0.098 -0.0583
vn -0.2735 -0.6988 0.6608
vn 0.3831 0.6836 0.6213
vn 0.6119 0.7494 0.2528
vn -0.082 0.5412 0.8369
vn 0.5741 -0.5228 0.6301
vn 0.7801 0.6256 0.0064
vn 0.8657 0.4846 -0.1249
vn 0.3743 -0.7411 -0.5573
vn -0.8584 -0.3861 -0.3378
vn -0.9268 -0.2985 -0.2278
vn -0.579 0.4837 0.6563
vn -0.9919 -0.0353 -0.1221
vn -0.9824 -0.1188 -0.1437
vn 0.913 0.3606 -0.1905
vn 0.9361 0.2796 -0.2132
vn 0.9521 0.1976 -0.2334
vn -0.9658 -0.2008 -0.164
vt 0.839504 0.118056
vt 0.856743 0.205307
vt 0.741230 0.205307
vt 0.734555 0.106726
vt 0.724541 0.032791
vt 0.813647 0.052618
vt 0.868992 0.081539
vt 0.913398 0.129584
vt 0.940923 0.205307
vt 0.839504 0.292557
vt 0.813647 0.357995
vt 0.724541 0.377822
vt 0.734555 0.303887
vt 0.913398 0.281029
vt 0.868992 0.329074
vt 0.369475 0.299954
vt 0.368286 0.370940
vt 0.245840 0.351447
vt 0.246397 0.288815
vt 0.246768 0.205307
vt 0.370268 0.205307
vt 0.494283 0.205307
vt 0.492822 0.304944
vt 0.490632 0.379672
vt 0.369475 0.110659
vt 0.246397 0.121798
vt 0.245841 0.059166
vt 0.368286 0.039673
vt 0.490632 0.030941
vt 0.492822 0.105669
vt 0.616755 0.103478
vt 0.619174 0.205307
vt 0.613127 0.027106
vt 0.616755 0.307135
vt 0.613126 0.383507
vt 0.123273 0.268175
vt 0.123047 0.315326
vt 0.054743 0.283353
vt 0.030912 0.249131
vt 0.030973 0.205306
vt 0.123423 0.205306
vt 0.123273 0.142438
vt 0.030912 0.161481
vt 0.054744 0.127260
vt 0.123047 0.095287
vt 0.839504 0.118056
vt 0.856743 0.205307
vt 0.968983 0.205307
vt 0.938030 0.133427
vt 0.876123 0.061548
vt 0.805028 0.030806
vt 0.721203 0.008146
vt 0.734555 0.106726
vt 0.741230 0.205307
vt 0.839504 0.292557
vt 0.805028 0.379807
vt 0.876123 0.349065
vt 0.938030 0.277186
vt 0.734555 0.303887
vt 0.721203 0.402467
vt 0.369475 0.299954
vt 0.367890 0.394602
vt 0.489902 0.404581
vt 0.492822 0.304944
vt 0.494283 0.205307
vt 0.370268 0.205307
vt 0.246768 0.205307
vt 0.246397 0.288815
vt 0.245655 0.372324
vt 0.369475 0.110659
vt 0.492822 0.105669
vt 0.489902 0.006032
vt 0.367890 0.016011
vt 0.245655 0.038289
vt 0.246397 0.121798
vt 0.616755 0.103478
vt 0.619174 0.205307
vt 0.611917 0.001649
vt 0.616755 0.307135
vt 0.611917 0.408964
vt 0.123273 0.268175
vt 0.122972 0.331043
vt 0.123423 0.205306
vt 0.000156 0.205306
vt 0.000125 0.242784
vt 0.000064 0.280261
vt 0.123273 0.142438
vt 0.122972 0.079570
vt 0.000064 0.130352
vt 0.000125 0.167829
vt 0.122972 0.331043
vt 0.030806 0.283587
vt 0.245655 0.372324
vt 0.030806 0.283587
vt 0.000125 0.167829
vt 0.030806 0.127026
vt 0.000156 0.205306
vt 0.030806 0.127026
vt 0.805028 0.030806
vt 0.873826 0.071832
vt 0.721203 0.008146
vt 0.873826 0.071832
vt 0.938030 0.277186
vt 0.873826 0.338781
vt 0.968983 0.205307
vt 0.873826 0.338781
vt 0.805028 0.379807
vt 0.721203 0.402467
vt 0.000125 0.242784
vt 0.122972 0.079570
vt 0.245655 0.038289
vt 0.938030 0.133427
vt 0.611917 0.001649
vt 0.489902 0.006032
vt 0.611917 0.408964
vt 0.489902 0.404581
vt 0.367890 0.394602
vt 0.367890 0.016011
f 1/1/1 2/2/2 3/3/3
f 1/1/1 3/3/3 4/4/4
f 1/1/1 4/4/4 5/5/5
f 1/1/1 5/5/5 6/6/6
f 1/1/1 6/6/6 7/7/7
f 1/1/1 7/7/7 8/8/8
f 1/1/1 8/8/8 9/9/9
f 1/1/1 9/9/9 2/2/2
f 10/10/10 11/11/11 12/12/12
f 10/10/10 12/12/12 13/13/13
f 10/10/10 13/13/13 3/3/3
f 10/10/10 3/3/3 2/2/2
f 10/10/10 2/2/2 9/9/9
f 10/10/10 9/9/9 14/14/14
f 10/10/10 14/14/14 15/15/15
f 10/10/10 15/15/15 11/11/11
f 16/16/16 17/17/17 18/18/18
f 16/16/16 18/18/18 19/19/19
f 16/16/16 19/19/19 20/20/20
f 16/16/16 20/20/20 21/21/21
f 16/16/16 21/21/21 22/22/22
f 16/16/16 22/22/22 23/23/23
f 16/16/16 23/23/23 24/24/24
f 16/16/16 24/24/24 17/17/17
f 25/25/25 21/21/21 20/20/20
f 25/25/25 20/20/20 26/26/26
f 25/25/25 26/26/26 27/27/27
f 25/25/25 27/27/27 28/28/28
f 25/25/25 28/28/28 29/29/29
f 25/25/25 29/29/29 30/30/30
f 25/25/25 30/30/30 22/22/22
f 25/25/25 22/22/22 21/21/21
f 31/31/31 32/32/32 22/22/22
f 31/31/31 22/22/22 30/30/30
f 31/31/31 30/30/30 29/29/29
f 31/31/31 29/29/29 33/33/33
f 31/31/31 33/33/33 5/5/5
f 31/31/31 5/5/5 4/4/4
f 31/31/31 4/4/4 3/3/3
f 31/31/31 3/3/3 32/32/32
f 34/34/34 35/35/35 24/24/24
f 34/34/34 24/24/24 23/23/23
f 34/34/34 23/23/23 22/22/22
f 34/34/34 22/22/22 32/32/32
f 34/34/34 32/32/32 3/3/3
f 34/34/34 3/3/3 13/13/13
f 34/34/34 13/13/13 12/12/12
f 34/34/34 12/12/12 35/35/35
f 36/36/36 37/37/37 38/38/38
f 36/36/36 38/38/38 39/39/39
f 36/36/36 39/39/39 40/40/40
f 36/36/36 40/40/40 41/41/41
f 36/36/36 41/41/41 20/20/20
f 36/36/36 20/20/20 19/19/19
f 36/36/36 19/19/19 18/18/18
f 36/36/36 18/18/18 37/37/37
f 42/42/42 41/41/41 40/40/40
f 42/42/42 40/40/40 43/43/43
f 42/42/42 43/43/43 44/44/44
f 42/42/42 44/44/44 45/45/45
f 42/42/42 45/45/45 27/27/27
f 42/42/42 27/27/27 26/26/26
f 42/42/42 26/26/26 20/20/20
f 42/42/42 20/20/20 41/41/41
f 46/46/46 47/47/47 48/48/48
f 46/46/46 48/48/48 49/49/49
f 46/46/46 49/49/49 50/50/50
f 46/46/46 50/50/50 51/51/51
f 46/46/46 51/51/51 52/52/52
f 46/46/46 52/52/52 53/53/53
f 46/46/46 53/53/53 54/54/54
f 46/46/46 54/54/54 47/47/47
f 55/55/55 56/56/56 57/57/57
f 55/55/55 57/57/57 58/58/58
f 55/55/55 58/58/58 48/48/48
f 55/55/55 48/48/48 47/47/47
f 55/55/55 47/47/47 54/54/54
f 55/55/55 54/54/54 59/59/59
f 55/55/55 59/59/59 60/60/60
f 55/55/55 60/60/60 56/56/56
f 61/61/61 62/62/62 63/63/63
f 61/61/61 63/63/63 64/64/64
f 61/61/61 64/64/64 65/65/65
f 61/61/61 65/65/65 66/66/66
f 61/61/61 66/66/66 67/67/67
f 61/61/61 67/67/67 68/68/68
f 61/61/61 68/68/68 69/69/69
f 61/61/61 69/69/69 62/62/62
f 70/70/70 66/66/66 65/65/65
f 70/70/70 65/65/65 71/71/71
f 70/70/70 71/71/71 72/72/72
f 70/70/70 72/72/72 73/73/73
f 70/70/70 73/73/73 74/74/74
f 70/70/70 74/74/74 75/75/75
f 70/70/70 75/75/75 67/67/67
f 70/70/70 67/67/67 66/66/66
f 76/76/76 77/77/77 54/54/54
f 76/76/76 54/54/54 53/53/53
f 76/76/76 53/53/53 52/52/52
f 76/76/76 52/52/52 78/78/78
f 76/76/76 78/78/78 72/72/72
f 76/76/76 72/72/72 71/71/71
f 76/76/76 71/71/71 65/65/65
f 76/76/76 65/65/65 77/77/77
f 79/79/79 80/80/80 60/60/60
f 79/79/79 60/60/60 59/59/59
f 79/79/79 59/59/59 54/54/54
f 79/79/79 54/54/54 77/77/77
f 79/79/79 77/77/77 65/65/65
f 79/79/79 65/65/65 64/64/64
f 79/79/79 64/64/64 63/63/63
f 79/79/79 63/63/63 80/80/80
f 81/81/81 82/82/82 69/69/69
f 81/81/81 69/69/69 68/68/68
f 81/81/81 68/68/68 67/67/67
f 81/81/81 67/67/67 83/83/83
f 81/81/81 83/83/83 84/84/84
f 81/81/81 84/84/84 85/85/85
f 81/81/81 85/85/85 86/86/86
f 81/81/81 86/86/86 82/82/82
f 87/87/87 83/83/83 67/67/67
f 87/87/87 67/67/67 75/75/75
f 87/87/87 75/75/75 74/74/74
f 87/87/87 74/74/74 88/88/88
f 87/87/87 88/88/88 89/89/89
f 87/87/87 89/89/89 90/90/90
f 87/87/87 90/90/90 84/84/84
f 87/87/87 84/84/84 83/83/83
f 91/91/91 92/92/92 38/38/38
f 91/91/91 38/38/38 37/37/37
f 91/91/91 37/37/37 18/18/18
f 91/91/91 18/18/18 93/93/93
f 91/91/91 93/93/93 69/69/69
f 91/91/91 69/69/69 82/82/82
f 91/91/91 82/82/82 94/94/94
f 91/91/91 94/94/94 92/92/92
f 95/95/95 96/96/96 44/44/44
f 95/95/95 44/44/44 43/43/43
f 95/95/95 43/43/43 40/40/40
f 95/95/95 40/40/40 97/97/97
f 95/95/95 97/97/97 84/84/84
f 95/95/95 84/84/84 90/90/90
f 95/95/95 90/90/90 98/98/98
f 95/95/95 98/98/98 96/96/96
f 99/99/99 100/100/100 7/7/7
f 99/99/99 7/7/7 6/6/6
f 99/99/99 6/6/6 5/5/5
f 99/99/99 5/5/5 101/101/101
f 99/99/99 101/101/101 52/52/52
f 99/99/99 52/52/52 51/51/51
f 99/99/99 51/51/51 102/102/102
f 99/99/99 102/102/102 100/100/100
f 103/103/103 104/104/104 15/15/15
f 103/103/103 15/15/15 14/14/14
f 103/103/103 14/14/14 9/9/9
f 103/103/103 9/9/9 105/105/105
f 103/103/103 105/105/105 48/48/48
f 103/103/103 48/48/48 58/58/58
f 103/103/103 58/58/58 106/106/106
f 103/103/103 106/106/106 104/104/104
f 107/107/107 108/108/108 12/12/12
f 107/107/107 12/12/12 11/11/11
f 107/107/107 11/11/11 15/15/15
f 107/107/107 15/15/15 104/104/104
f 107/107/107 104/104/104 106/106/106
f 107/107/107 106/106/106 56/56/56
f 107/107/107 56/56/56 60/60/60
f 107/107/107 60/60/60 108/108/108
f 109/109/109 97/97/97 40/40/40
f 109/109/109 40/40/40 39/39/39
f 109/109/109 39/39/39 38/38/38
f 109/109/109 38/38/38 92/92/92
f 109/109/109 92/92/92 94/94/94
f 109/109/109 94/94/94 85/85/85
f 109/109/109 85/85/85 84/84/84
f 109/109/109 84/84/84 97/97/97
f 110/110/110 111/111/111 27/27/27
f 110/110/110 27/27/27 45/45/45
f 110/110/110 45/45/45 44/44/44
f 110/110/110 44/44/44 96/96/96
f 110/110/110 96/96/96 98/98/98
f 110/110/110 98/98/98 88/88/88
f 110/110/110 88/88/88 74/74/74
f 110/110/110 74/74/74 111/111/111
f 112/112/112 105/105/105 9/9/9
f 112/112/112 9/9/9 8/8/8
f 112/112/112 8/8/8 7/7/7
f 112/112/112 7/7/7 100/100/100
f 112/112/112 100/100/100 102/102/102
f 112/112/112 102/102/102 49/49/49
f 112/112/112 49/49/49 48/48/48
f 112/112/112 48/48/48 105/105/105
f 113/113/113 101/101/101 5/5/5
f 113/113/113 5/5/5 33/33/33
f 113/113/113 33/33/33 29/29/29
f 113/113/113 29/29/29 114/114/114
f 113/113/113 114/114/114 72/72/72
f 113/113/113 72/72/72 78/78/78
f 113/113/113 78/78/78 52/52/52
f 113/113/113 52/52/52 101/101/101
f 115/115/115 116/116/116 24/24/24
f 115/115/115 24/24/24 35/35/35
f 115/115/115 35/35/35 12/12/12
f 115/115/115 12/12/12 108/108/108
f 115/115/115 108/108/108 60/60/60
f 115/115/115 60/60/60 80/80/80
f 115/115/115 80/80/80 63/63/63
f 115/115/115 63/63/63 116/116/116
f 117/117/117 93/93/93 18/18/18
f 117/117/117 18/18/18 17/17/17
f 117/117/117 17/17/17 24/24/24
f 117/117/117 24/24/24 116/116/116
f 117/117/117 116/116/116 63/63/63
f 117/117/117 63/63/63 62/62/62
f 117/117/117 62/62/62 69/69/69
f 117/117/117 69/69/69 93/93/93
f 118/118/118 114/114/114 29/29/29
f 118/118/118 29/29/29 28/28/28
f 118/118/118 28/28/28 27/27/27
f 118/118/118 27/27/27 111/111/111
f 118/118/118 111/111/111 74/74/74
f 118/118/118 74/74/74 73/73/73
f 118/118/118 73/73/73 72/72/72
f 118/118/118 72/72/72 114/114/114
