v -2.424488 0.668098 -1.081679
v -2.424152 0.667575 -1.079677
v -2.42176 0.666788 -1.08088
v -2.422425 0.667414 -1.083024
v -2.422749 0.668037 -1.084689
v -2.4244 0.668602 -1.083318
v -2.425358 0.66868 -1.082132
v -2.425955 0.668465 -1.080661
v -2.425936 0.668061 -1.078799
v -2.422875 0.667413 -1.078022
v -2.421571 0.667401 -1.076905
v -2.419535 0.666673 -1.077403
v -2.420592 0.666635 -1.078868
v -2.424559 0.667872 -1.077496
v -2.423067 0.667707 -1.076938
v -2.413738 0.662769 -1.082667
v -2.412924 0.662659 -1.081164
v -2.411023 0.661014 -1.082817
v -2.411752 0.661102 -1.084145
v -2.412645 0.661314 -1.085926
v -2.414738 0.663018 -1.084684
v -2.416938 0.664545 -1.083427
v -2.415882 0.664304 -1.081319
v -2.415014 0.664216 -1.079748
v -2.415534 0.663532 -1.08674
v -2.413341 0.661776 -1.087746
v -2.413807 0.662196 -1.089128
v -2.416071 0.663996 -1.088299
v -2.418306 0.665614 -1.087212
v -2.417761 0.665102 -1.085579
v -2.42012 0.666405 -1.084332
v -2.419317 0.66579 -1.082144
v -2.420625 0.667001 -1.085998
v -2.418214 0.665595 -1.08001
v -2.417284 0.665582 -1.078423
v -2.409898 0.65941 -1.085842
v -2.409322 0.659382 -1.084856
v -2.408548 0.658442 -1.086233
v -2.408571 0.658109 -1.087191
v -2.409074 0.65816 -1.088092
v -2.410587 0.659539 -1.087166
v -2.411083 0.659913 -1.088529
v -2.409384 0.658454 -1.089033
v -2.41001 0.659063 -1.089547
v -2.411401 0.660264 -1.089569
v -2.424578 0.667901 -1.08171
v -2.42423 0.667371 -1.079681
v -2.425992 0.667907 -1.078803
v -2.426021 0.668317 -1.080687
v -2.425409 0.668572 -1.082156
v -2.424473 0.668459 -1.083355
v -2.422827 0.667895 -1.084719
v -2.422522 0.667218 -1.083049
v -2.421845 0.666586 -1.08088
v -2.422941 0.667206 -1.077999
v -2.421614 0.667245 -1.076873
v -2.423099 0.667591 -1.076919
v -2.424605 0.667716 -1.077478
v -2.420667 0.666431 -1.078844
v -2.419586 0.666519 -1.077372
v -2.413849 0.662583 -1.082632
v -2.413003 0.662518 -1.081128
v -2.415085 0.664071 -1.079715
v -2.415983 0.664111 -1.081288
v -2.417048 0.664355 -1.083414
v -2.414857 0.662834 -1.084665
v -2.412771 0.661134 -1.085904
v -2.41187 0.660919 -1.084106
v -2.411107 0.660876 -1.082779
v -2.415661 0.663352 -1.086739
v -2.417878 0.664916 -1.085585
v -2.418398 0.665478 -1.087226
v -2.41617 0.663863 -1.088308
v -2.41391 0.662067 -1.089134
v -2.413474 0.661601 -1.087742
v -2.420227 0.666214 -1.084347
v -2.419414 0.665593 -1.082138
v -2.420709 0.666861 -1.086019
v -2.418301 0.665396 -1.079982
v -2.417345 0.665432 -1.078391
v -2.410017 0.659229 -1.0858
v -2.409407 0.659245 -1.084815
v -2.410716 0.659361 -1.087143
v -2.40917 0.658027 -1.088074
v -2.40866 0.657974 -1.087158
v -2.408612 0.658341 -1.086206
v -2.41122 0.65974 -1.088525
v -2.411507 0.660137 -1.089575
v -2.410087 0.658968 -1.08955
v -2.409486 0.658325 -1.08903
v -2.409167 0.659311 -1.084507
v -2.408148 0.658088 -1.086473
v -2.410816 0.660923 -1.082355
v -2.408612 0.658341 -1.086206
v -2.408862 0.65791 -1.089199
v -2.409612 0.65871 -1.089792
v -2.408612 0.657641 -1.088393
v -2.410087 0.658968 -1.08955
v -2.424405 0.668708 -1.083884
v -2.42554 0.668794 -1.082291
v -2.422893 0.668183 -1.085259
v -2.425409 0.668572 -1.082156
v -2.42514 0.667955 -1.077312
v -2.423062 0.667741 -1.076672
v -2.426555 0.668154 -1.078509
v -2.423099 0.667591 -1.076919
v -2.421154 0.667327 -1.076515
v -2.419204 0.666616 -1.076899
v -2.408168 0.657615 -1.087626
v -2.411555 0.660325 -1.08992
v -2.414009 0.662279 -1.089594
v -2.426473 0.668521 -1.080334
v -2.420832 0.667139 -1.086565
v -2.41853 0.665725 -1.087765
v -2.417 0.665511 -1.077877
v -2.414755 0.664122 -1.079208
v -2.412687 0.66256 -1.080645
v -2.416295 0.664092 -1.088825
vn 0.4081 0.8845 0.2257
vn 0.3115 0.9494 0.0404
vn 0.3626 0.9318 0.0146
vn 0.4514 0.8741 0.1793
vn 0.4692 0.8685 0.16
vn 0.406 0.8874 0.2185
vn 0.3588 0.897 0.2581
vn 0.3141 0.9211 0.23
vn 0.2296 0.9699 0.0805
vn 0.2359 0.9577 -0.1647
vn 0.24 0.9579 -0.1578
vn 0.3226 0.9307 -0.1722
vn 0.2974 0.9395 -0.1698
vn 0.1736 0.9808 -0.089
vn 0.1807 0.9726 -0.1461
vn 0.5162 0.8347 -0.1918
vn 0.5388 0.8266 -0.1624
vn 0.5632 0.808 -0.1732
vn 0.5363 0.8167 -0.2129
vn 0.5937 0.7967 -0.1126
vn 0.5634 0.8207 -0.0948
vn 0.4994 0.8644 -0.0584
vn 0.4532 0.8748 -0.1712
vn 0.4787 0.8643 -0.1544
vn 0.6027 0.7979 0.0042
vn 0.6291 0.7773 -0.0025
vn 0.6178 0.7848 -0.0493
vn 0.5959 0.8023 -0.033
vn 0.5542 0.8322 0.0166
vn 0.5502 0.8336 0.0487
vn 0.4935 0.8622 0.1143
vn 0.4245 0.9052 -0.0177
vn 0.5091 0.8562 0.0878
vn 0.3712 0.9141 -0.1629
vn 0.4001 0.9025 -0.1594
vn 0.5341 0.8102 -0.2414
vn 0.5666 0.799 -0.2013
vn 0.5635 0.7915 -0.2365
vn 0.562 0.7768 -0.284
vn 0.6456 0.7499 -0.1443
vn 0.6077 0.7849 -0.121
vn 0.6472 0.7621 0.0149
vn 0.6925 0.7213 0.0114
vn 0.6612 0.75 -0.0148
vn 0.6391 0.7682 -0.0369
vn -0.437 -0.8669 -0.2398
vn -0.3257 -0.9449 -0.0333
vn -0.3796 -0.9251 -0.0058
vn -0.5171 -0.8079 -0.2827
vn -0.5672 -0.7367 -0.3681
vn -0.5541 -0.754 -0.3527
vn -0.5386 -0.7898 -0.2934
vn -0.4576 -0.8681 -0.1921
vn -0.3625 -0.9319 -0.0146
vn -0.2431 -0.9492 0.1997
vn -0.2271 -0.8929 0.3887
vn -0.2228 -0.883 0.4132
vn -0.2593 -0.9173 0.3021
vn -0.2917 -0.9386 0.1841
vn -0.2639 -0.9065 0.3296
vn -0.5078 -0.8365 0.2057
vn -0.4451 -0.8439 0.2995
vn -0.3995 -0.8707 0.2868
vn -0.446 -0.8758 0.1845
vn -0.4995 -0.8643 0.0584
vn -0.5635 -0.8206 0.0948
vn -0.5939 -0.7966 0.1127
vn -0.525 -0.8199 0.228
vn -0.4336 -0.8417 0.3217
vn -0.6071 -0.7944 -0.0194
vn -0.5549 -0.8296 -0.0624
vn -0.5958 -0.7873 -0.1583
vn -0.6326 -0.7643 -0.1254
vn -0.6403 -0.7539 -0.1468
vn -0.6327 -0.7742 -0.016
vn -0.4983 -0.8576 -0.1273
vn -0.4245 -0.9052 0.0177
vn -0.5562 -0.8007 -0.2224
vn -0.3645 -0.9144 0.176
vn -0.3282 -0.8975 0.2944
vn -0.5077 -0.8227 0.2556
vn -0.3779 -0.8561 0.3524
vn -0.5993 -0.7921 0.1159
vn -0.5612 -0.8224 0.0934
vn -0.4186 -0.8612 0.2882
vn -0.3395 -0.8659 0.3673
vn -0.6409 -0.7661 -0.0465
vn -0.6263 -0.7506 -0.2104
vn -0.6119 -0.7502 -0.2503
vn -0.6087 -0.7805 -0.1426
vn 0.7401 -0.2058 0.6402
vn 0.8964 -0.3411 0.2831
vn 0.6392 -0.1626 0.7516
vn -0.3395 -0.8659 0.3673
vn 0.6052 -0.4967 -0.622
vn 0.3641 -0.1152 -0.9242
vn 0.6197 -0.6751 -0.4002
vn -0.6119 -0.7502 -0.2503
vn -0.5101 0.5528 -0.6588
vn -0.7054 0.5833 -0.4027
vn -0.3785 0.4669 -0.7992
vn -0.5672 -0.7367 -0.3681
vn -0.525 0.2283 0.8198
vn -0.1151 0.3327 0.9359
vn -0.8823 0.1984 0.4269
vn -0.2228 -0.883 0.4132
vn 0.1976 0.2522 0.9473
vn 0.377 0.1461 0.9146
vn 0.7932 -0.5765 -0.1962
vn 0.0185 0.1006 -0.9948
vn -0.1244 0.1617 -0.9789
vn -0.9165 0.3944 -0.067
vn -0.2956 0.3742 -0.8789
vn -0.256 0.3066 -0.9168
vn 0.4786 0.0455 0.8768
vn 0.5238 -0.0245 0.8515
vn 0.5642 -0.0939 0.8202
vn -0.2155 0.2371 -0.9473
vt 0.839504 0.118056
vt 0.856743 0.205307
vt 0.741230 0.205307
vt 0.734555 0.106726
vt 0.724541 0.032791
vt 0.813647 0.052618
vt 0.868992 0.081539
vt 0.913398 0.129584
vt 0.940923 0.205307
vt 0.839504 0.292557
vt 0.813647 0.357995
vt 0.724541 0.377822
vt 0.734555 0.303887
vt 0.913398 0.281029
vt 0.868992 0.329074
vt 0.369475 0.299954
vt 0.368286 0.370940
vt 0.245840 0.351447
vt 0.246397 0.288815
vt 0.246768 0.205307
vt 0.370268 0.205307
vt 0.494283 0.205307
vt 0.492822 0.304944
vt 0.490632 0.379672
vt 0.369475 0.110659
vt 0.246397 0.121798
vt 0.245841 0.059166
vt 0.368286 0.039673
vt 0.490632 0.030941
vt 0.492822 0.105669
vt 0.616755 0.103478
vt 0.619174 0.205307
vt 0.613127 0.027106
vt 0.616755 0.307135
vt 0.613126 0.383507
vt 0.123273 0.268175
vt 0.123047 0.315326
vt 0.054743 0.283353
vt 0.030912 0.249131
vt 0.030973 0.205306
vt 0.123423 0.205306
vt 0.123273 0.142438
vt 0.030912 0.161481
vt 0.054744 0.127260
vt 0.123047 0.095287
vt 0.839504 0.118056
vt 0.856743 0.205307
vt 0.968983 0.205307
vt 0.938030 0.133427
vt 0.876123 0.061548
vt 0.805028 0.030806
vt 0.721203 0.008146
vt 0.734555 0.106726
vt 0.741230 0.205307
vt 0.839504 0.292557
vt 0.805028 0.379807
vt 0.876123 0.349065
vt 0.938030 0.277186
vt 0.734555 0.303887
vt 0.721203 0.402467
vt 0.369475 0.299954
vt 0.367890 0.394602
vt 0.489902 0.404581
vt 0.492822 0.304944
vt 0.494283 0.205307
vt 0.370268 0.205307
vt 0.246768 0.205307
vt 0.246397 0.288815
vt 0.245655 0.372324
vt 0.369475 0.110659
vt 0.492822 0.105669
vt 0.489902 0.006032
vt 0.367890 0.016011
vt 0.245655 0.038289
vt 0.246397 0.121798
vt 0.616755 0.103478
vt 0.619174 0.205307
vt 0.611917 0.001649
vt 0.616755 0.307135
vt 0.611917 0.408964
vt 0.123273 0.268175
vt 0.122972 0.331043
vt 0.123423 0.205306
vt 0.000156 0.205306
vt 0.000125 0.242784
vt 0.000064 0.280261
vt 0.123273 0.142438
vt 0.122972 0.079570
vt 0.000064 0.130352
vt 0.000125 0.167829
vt 0.122972 0.331043
vt 0.030806 0.283587
vt 0.245655 0.372324
vt 0.030806 0.283587
vt 0.000125 0.167829
vt 0.030806 0.127026
vt 0.000156 0.205306
vt 0.030806 0.127026
vt 0.805028 0.030806
vt 0.873826 0.071832
vt 0.721203 0.008146
vt 0.873826 0.071832
vt 0.938030 0.277186
vt 0.873826 0.338781
vt 0.968983 0.205307
vt 0.873826 0.338781
vt 0.805028 0.379807
vt 0.721203 0.402467
vt 0.000125 0.242784
vt 0.122972 0.079570
vt 0.245655 0.038289
vt 0.938030 0.133427
vt 0.611917 0.001649
vt 0.489902 0.006032
vt 0.611917 0.408964
vt 0.489902 0.404581
vt 0.367890 0.394602
vt 0.367890 0.016011
f 1/1/1 2/2/2 3/3/3
f 1/1/1 3/3/3 4/4/4
f 1/1/1 4/4/4 5/5/5
f 1/1/1 5/5/5 6/6/6
f 1/1/1 6/6/6 7/7/7
f 1/1/1 7/7/7 8/8/8
f 1/1/1 8/8/8 9/9/9
f 1/1/1 9/9/9 2/2/2
f 10/10/10 11/11/11 12/12/12
f 10/10/10 12/12/12 13/13/13
f 10/10/10 13/13/13 3/3/3
f 10/10/10 3/3/3 2/2/2
f 10/10/10 2/2/2 9/9/9
f 10/10/10 9/9/9 14/14/14
f 10/10/10 14/14/14 15/15/15
f 10/10/10 15/15/15 11/11/11
f 16/16/16 17/17/17 18/18/18
f 16/16/16 18/18/18 19/19/19
f 16/16/16 19/19/19 20/20/20
f 16/16/16 20/20/20 21/21/21
f 16/16/16 21/21/21 22/22/22
f 16/16/16 22/22/22 23/23/23
f 16/16/16 23/23/23 24/24/24
f 16/16/16 24/24/24 17/17/17
f 25/25/25 21/21/21 20/20/20
f 25/25/25 20/20/20 26/26/26
f 25/25/25 26/26/26 27/27/27
f 25/25/25 27/27/27 28/28/28
f 25/25/25 28/28/28 29/29/29
f 25/25/25 29/29/29 30/30/30
f 25/25/25 30/30/30 22/22/22
f 25/25/25 22/22/22 21/21/21
f 31/31/31 32/32/32 22/22/22
f 31/31/31 22/22/22 30/30/30
f 31/31/31 30/30/30 29/29/29
f 31/31/31 29/29/29 33/33/33
f 31/31/31 33/33/33 5/5/5
f 31/31/31 5/5/5 4/4/4
f 31/31/31 4/4/4 3/3/3
f 31/31/31 3/3/3 32/32/32
f 34/34/34 35/35/35 24/24/24
f 34/34/34 24/24/24 23/23/23
f 34/34/34 23/23/23 22/22/22
f 34/34/34 22/22/22 32/32/32
f 34/34/34 32/32/32 3/3/3
f 34/34/34 3/3/3 13/13/13
f 34/34/34 13/13/13 12/12/12
f 34/34/34 12/12/12 35/35/35
f 36/36/36 37/37/37 38/38/38
f 36/36/36 38/38/38 39/39/39
f 36/36/36 39/39/39 40/40/40
f 36/36/36 40/40/40 41/41/41
f 36/36/36 41/41/41 20/20/20
f 36/36/36 20/20/20 19/19/19
f 36/36/36 19/19/19 18/18/18
f 36/36/36 18/18/18 37/37/37
f 42/42/42 41/41/41 40/40/40
f 42/42/42 40/40/40 43/43/43
f 42/42/42 43/43/43 44/44/44
f 42/42/42 44/44/44 45/45/45
f 42/42/42 45/45/45 27/27/27
f 42/42/42 27/27/27 26/26/26
f 42/42/42 26/26/26 20/20/20
f 42/42/42 20/20/20 41/41/41
f 46/46/46 47/47/47 48/48/48
f 46/46/46 48/48/48 49/49/49
f 46/46/46 49/49/49 50/50/50
f 46/46/46 50/50/50 51/51/51
f 46/46/46 51/51/51 52/52/52
f 46/46/46 52/52/52 53/53/53
f 46/46/46 53/53/53 54/54/54
f 46/46/46 54/54/54 47/47/47
f 55/55/55 56/56/56 57/57/57
f 55/55/55 57/57/57 58/58/58
f 55/55/55 58/58/58 48/48/48
f 55/55/55 48/48/48 47/47/47
f 55/55/55 47/47/47 54/54/54
f 55/55/55 54/54/54 59/59/59
f 55/55/55 59/59/59 60/60/60
f 55/55/55 60/60/60 56/56/56
f 61/61/61 62/62/62 63/63/63
f 61/61/61 63/63/63 64/64/64
f 61/61/61 64/64/64 65/65/65
f 61/61/61 65/65/65 66/66/66
f 61/61/61 66/66/66 67/67/67
f 61/61/61 67/67/67 68/68/68
f 61/61/61 68/68/68 69/69/69
f 61/61/61 69/69/69 62/62/62
f 70/70/70 66/66/66 65/65/65
f 70/70/70 65/65/65 71/71/71
f 70/70/70 71/71/71 72/72/72
f 70/70/70 72/72/72 73/73/73
f 70/70/70 73/73/73 74/74/74
f 70/70/70 74/74/74 75/75/75
f 70/70/70 75/75/75 67/67/67
f 70/70/70 67/67/67 66/66/66
f 76/76/76 77/77/77 54/54/54
f 76/76/76 54/54/54 53/53/53
f 76/76/76 53/53/53 52/52/52
f 76/76/76 52/52/52 78/78/78
f 76/76/76 78/78/78 72/72/72
f 76/76/76 72/72/72 71/71/71
f 76/76/76 71/71/71 65/65/65
f 76/76/76 65/65/65 77/77/77
f 79/79/79 80/80/80 60/60/60
f 79/79/79 60/60/60 59/59/59
f 79/79/79 59/59/59 54/54/54
f 79/79/79 54/54/54 77/77/77
f 79/79/79 77/77/77 65/65/65
f 79/79/79 65/65/65 64/64/64
f 79/79/79 64/64/64 63/63/63
f 79/79/79 63/63/63 80/80/80
f 81/81/81 82/82/82 69/69/69
f 81/81/81 69/69/69 68/68/68
f 81/81/81 68/68/68 67/67/67
f 81/81/81 67/67/67 83/83/83
f 81/81/81 83/83/83 84/84/84
f 81/81/81 84/84/84 85/85/85
f 81/81/81 85/85/85 86/86/86
f 81/81/81 86/86/86 82/82/82
f 87/87/87 83/83/83 67/67/67
f 87/87/87 67/67/67 75/75/75
f 87/87/87 75/75/75 74/74/74
f 87/87/87 74/74/74 88/88/88
f 87/87/87 88/88/88 89/89/89
f 87/87/87 89/89/89 90/90/90
f 87/87/87 90/90/90 84/84/84
f 87/87/87 84/84/84 83/83/83
f 91/91/91 92/92/92 38/38/38
f 91/91/91 38/38/38 37/37/37
f 91/91/91 37/37/37 18/18/18
f 91/91/91 18/18/18 93/93/93
f 91/91/91 93/93/93 69/69/69
f 91/91/91 69/69/69 82/82/82
f 91/91/91 82/82/82 94/94/94
f 91/91/91 94/94/94 92/92/92
f 95/95/95 96/96/96 44/44/44
f 95/95/95 44/44/44 43/43/43
f 95/95/95 43/43/43 40/40/40
f 95/95/95 40/40/40 97/97/97
f 95/95/95 97/97/97 84/84/84
f 95/95/95 84/84/84 90/90/90
f 95/95/95 90/90/90 98/98/98
f 95/95/95 98/98/98 96/96/96
f 99/99/99 100/100/100 7/7/7
f 99/99/99 7/7/7 6/6/6
f 99/99/99 6/6/6 5/5/5
f 99/99/99 5/5/5 101/101/101
f 99/99/99 101/101/101 52/52/52
f 99/99/99 52/52/52 51/51/51
f 99/99/99 51/51/51 102/102/102
f 99/99/99 102/102/102 100/100/100
f 103/103/103 104/104/104 15/15/15
f 103/103/103 15/15/15 14/14/14
f 103/103/103 14/14/14 9/9/9
f 103/103/103 9/9/9 105/105/105
f 103/103/103 105/105/105 48/48/48
f 103/103/103 48/48/48 58/58/58
f 103/103/103 58/58/58 106/106/106
f 103/103/103 106/106/106 104/104/104
f 107/107/107 108/108/108 12/12/12
f 107/107/107 12/12/12 11/11/11
f 107/107/107 11/11/11 15/15/15
f 107/107/107 15/15/15 104/104/104
f 107/107/107 104/104/104 106/106/106
f 107/107/107 106/106/106 56/56/56
f 107/107/107 56/56/56 60/60/60
f 107/107/107 60/60/60 108/108/108
f 109/109/109 97/97/97 40/40/40
f 109/109/109 40/40/40 39/39/39
f 109/109/109 39/39/39 38/38/38
f 109/109/109 38/38/38 92/92/92
f 109/109/109 92/92/92 94/94/94
f 109/109/109 94/94/94 85/85/85
f 109/109/109 85/85/85 84/84/84
f 109/109/109 84/84/84 97/97/97
f 110/110/110 111/111/111 27/27/27
f 110/110/110 27/27/27 45/45/45
f 110/110/110 45/45/45 44/44/44
f 110/110/110 44/44/44 96/96/96
f 110/110/110 96/96/96 98/98/98
f 110/110/110 98/98/98 88/88/88
f 110/110/110 88/88/88 74/74/74
f 110/110/110 74/74/74 111/111/111
f 112/112/112 105/105/105 9/9/9
f 112/112/112 9/9/9 8/8/8
f 112/112/112 8/8/8 7/7/7
f 112/112/112 7/7/7 100/100/100
f 112/112/112 100/100/100 102/102/102
f 112/112/112 102/102/102 49/49/49
f 112/112/112 49/49/49 48/48/48
f 112/112/112 48/48/48 105/105/105
f 113/113/113 101/101/101 5/5/5
f 113/113/113 5/5/5 33/33/33
f 113/113/113 33/33/33 29/29/29
f 113/113/113 29/29/29 114/114/114
f 113/113/113 114/114/114 72/72/72
f 113/113/113 72/72/72 78/78/78
f 113/113/113 78/78/78 52/52/52
f 113/113/113 52/52/52 101/101/101
f 115/115/115 116/116/116 24/24/24
f 115/115/115 24/24/24 35/35/35
f 115/115/115 35/35/35 12/12/12
f 115/115/115 12/12/12 108/108/108
f 115/115/115 108/108/108 60/60/60
f 115/115/115 60/60/60 80/80/80
f 115/115/115 80/80/80 63/63/63
f 115/115/115 63/63/63 116/116/116
f 117/117/117 93/93/93 18/18/18
f 117/117/117 18/18/18 17/17/17
f 117/117/117 17/17/17 24/24/24
f 117/117/117 24/24/24 116/116/116
f 117/117/117 116/116/116 63/63/63
f 117/117/117 63/63/63 62/62/62
f 117/117/117 62/62/62 69/69/69
f 117/117/117 69/69/69 93/93/93
f 118/118/118 114/114/114 29/29/29
f 118/118/118 29/29/29 28/28/28
f 118/118/118 28/28/28 27/27/27
f 118/118/118 27/27/27 111/111/111
f 118/118/118 111/111/111 74/74/74
f 118/118/118 74/74/74 73/73/73
f 118/118/118 73/73/73 72/72/72
f 118/118/118 72/72/72 114/114/114
