v -2.398287 0.653031 -1.065954
v -2.395778 0.653697 -1.066503
v -2.397367 0.654258 -1.069607
v -2.400019 0.653373 -1.068664
v -2.402172 0.652958 -1.068017
v -2.400445 0.65283 -1.065806
v -2.39888 0.652702 -1.064681
v -2.396934 0.652705 -1.064113
v -2.394574 0.653177 -1.064269
v -2.394018 0.65525 -1.067738
v -2.392959 0.656722 -1.068935
v -2.393667 0.65738 -1.071572
v -2.395167 0.655896 -1.070692
v -2.393239 0.654626 -1.065658
v -2.392817 0.655854 -1.067215
v -2.399485 0.655879 -1.080873
v -2.39783 0.657062 -1.081623
v -2.399503 0.656269 -1.08495
v -2.400959 0.655208 -1.084284
v -2.402967 0.653935 -1.083404
v -2.401764 0.654454 -1.07988
v -2.40045 0.654737 -1.076385
v -2.398077 0.656251 -1.07742
v -2.396363 0.657526 -1.078199
v -2.404239 0.653408 -1.078886
v -2.405163 0.653022 -1.082527
v -2.406871 0.652438 -1.08187
v -2.40616 0.652732 -1.07814
v -2.405076 0.652996 -1.074556
v -2.40305 0.653666 -1.075341
v -2.401625 0.65362 -1.071864
v -2.398955 0.654638 -1.072931
v -2.403731 0.653042 -1.071058
v -2.396579 0.656243 -1.073973
v -2.394888 0.65764 -1.074754
v -2.402656 0.654318 -1.087606
v -2.401597 0.655165 -1.088105
v -2.403001 0.654284 -1.089738
v -2.403992 0.653539 -1.090066
v -2.404975 0.652805 -1.089614
v -2.404132 0.653326 -1.086948
v -2.405793 0.652686 -1.086294
v -2.406142 0.652421 -1.089167
v -2.40687 0.652273 -1.088121
v -2.407099 0.652305 -1.085805
v -2.398225 0.652769 -1.066021
v -2.395684 0.653449 -1.066584
v -2.394505 0.652992 -1.064333
v -2.396891 0.652509 -1.064166
v -2.398855 0.652553 -1.064716
v -2.400416 0.652628 -1.065848
v -2.402134 0.652756 -1.068053
v -2.399949 0.653111 -1.068723
v -2.397268 0.654009 -1.069678
v -2.393892 0.655022 -1.067832
v -2.392849 0.656562 -1.069011
v -2.39274 0.655732 -1.067271
v -2.393145 0.654457 -1.065732
v -2.39504 0.655663 -1.070775
v -2.393558 0.657215 -1.071638
v -2.399344 0.655641 -1.080904
v -2.397715 0.65689 -1.08165
v -2.39625 0.657354 -1.078238
v -2.397941 0.656013 -1.077467
v -2.400335 0.654486 -1.076423
v -2.401643 0.654203 -1.079903
v -2.402843 0.653686 -1.083417
v -2.400815 0.65497 -1.084306
v -2.399385 0.656097 -1.08497
v -2.40414 0.653148 -1.0789
v -2.402958 0.653405 -1.07537
v -2.405018 0.652795 -1.074573
v -2.406096 0.652532 -1.078147
v -2.406805 0.65224 -1.081869
v -2.40506 0.652763 -1.082531
v -2.401543 0.653358 -1.071908
v -2.398848 0.654388 -1.072986
v -2.403683 0.652841 -1.071085
v -2.396448 0.656007 -1.074038
v -2.394778 0.657471 -1.074808
v -2.402508 0.654081 -1.087624
v -2.401476 0.654995 -1.088123
v -2.404006 0.653077 -1.086956
v -2.404881 0.652618 -1.08962
v -2.403881 0.653363 -1.090079
v -2.402914 0.654157 -1.08975
v -2.40569 0.652427 -1.086294
v -2.407033 0.652106 -1.0858
v -2.406818 0.652127 -1.088118
v -2.406066 0.652227 -1.089166
v -2.401188 0.655374 -1.08828
v -2.403222 0.654159 -1.090433
v -2.398963 0.656548 -1.085181
v -2.402914 0.654157 -1.08975
v -2.406225 0.652246 -1.090124
v -2.407097 0.652144 -1.088813
v -2.405214 0.652548 -1.090505
v -2.406818 0.652127 -1.088118
v -2.401156 0.652672 -1.065773
v -2.399077 0.652596 -1.064425
v -2.402876 0.652729 -1.067815
v -2.398855 0.652553 -1.064716
v -2.392937 0.654343 -1.064999
v -2.392518 0.656007 -1.067168
v -2.394143 0.652922 -1.063553
v -2.39274 0.655732 -1.067271
v -2.392553 0.657144 -1.069369
v -2.393115 0.657803 -1.071895
v -2.404388 0.653201 -1.090892
v -2.407507 0.652088 -1.085639
v -2.407413 0.652155 -1.081649
v -2.396465 0.65251 -1.063524
v -2.404415 0.652759 -1.0708
v -2.405729 0.652682 -1.074301
v -2.394273 0.658032 -1.075039
v -2.395739 0.657876 -1.078477
v -2.397225 0.657381 -1.081886
v -2.406774 0.652417 -1.077894
vn -0.1384 0.9606 0.241
vn -0.3166 0.8845 0.3427
vn -0.3433 0.8934 0.2899
vn -0.1854 0.9627 0.1972
vn -0.2044 0.9625 0.1783
vn -0.1457 0.9588 0.244
vn -0.1041 0.9514 0.2897
vn -0.1309 0.9321 0.3375
vn -0.2726 0.8643 0.4227
vn -0.4986 0.7733 0.3916
vn -0.4928 0.7783 0.389
vn -0.5108 0.8032 0.3064
vn -0.5074 0.7952 0.3318
vn -0.4252 0.7791 0.4605
vn -0.477 0.7575 0.4456
vn -0.5296 0.843 0.094
vn -0.5032 0.861 0.0734
vn -0.5112 0.8584 0.0421
vn -0.5467 0.8347 0.0656
vn -0.456 0.8898 0.0157
vn -0.4421 0.8952 0.0557
vn -0.4118 0.9011 0.1355
vn -0.5131 0.8414 0.1696
vn -0.4982 0.855 0.1444
vn -0.3488 0.937 0.0184
vn -0.3527 0.9356 -0.0155
vn -0.397 0.9178 -0.0056
vn -0.3839 0.9231 0.0235
vn -0.3404 0.937 0.0784
vn -0.3102 0.9469 0.0848
vn -0.249 0.9565 0.1519
vn -0.3749 0.9 0.2225
vn -0.2743 0.9522 0.1339
vn -0.5047 0.8235 0.2588
vn -0.5024 0.8337 0.2293
vn -0.5709 0.8187 0.061
vn -0.5351 0.8442 0.0318
vn -0.5651 0.8245 0.027
vn -0.6045 0.7964 0.0154
vn -0.4789 0.876 -0.0561
vn -0.4623 0.8867 -0.0031
vn -0.3345 0.9416 -0.0378
vn -0.332 0.9381 -0.0986
vn -0.3607 0.9308 -0.0585
vn -0.3836 0.923 -0.0316
vn 0.1241 -0.9701 -0.2087
vn 0.324 -0.8872 -0.3283
vn 0.352 -0.8957 -0.2717
vn 0.0782 -0.9905 -0.1126
vn -0.0162 -0.9992 -0.0359
vn 0.0016 -0.9984 -0.0558
vn 0.0659 -0.9941 -0.0854
vn 0.1725 -0.9666 -0.1896
vn 0.3432 -0.8933 -0.29
vn 0.5296 -0.7592 -0.3781
vn 0.6854 -0.643 -0.3417
vn 0.7044 -0.6246 -0.3372
vn 0.6176 -0.71 -0.3381
vn 0.5195 -0.7862 -0.3347
vn 0.6406 -0.6954 -0.3257
vn 0.5418 -0.8344 -0.1007
vn 0.6216 -0.7694 -0.1472
vn 0.611 -0.7658 -0.2005
vn 0.5246 -0.8332 -0.1749
vn 0.4119 -0.9011 -0.1354
vn 0.4422 -0.8952 -0.0555
vn 0.4561 -0.8898 -0.0156
vn 0.5602 -0.8249 -0.0753
vn 0.6397 -0.7532 -0.1532
vn 0.3341 -0.9424 -0.0139
vn 0.2968 -0.9516 -0.0797
vn 0.2004 -0.9793 -0.0288
vn 0.2296 -0.9731 0.0166
vn 0.2076 -0.9778 0.0274
vn 0.3349 -0.942 0.0189
vn 0.2361 -0.9606 -0.1462
vn 0.3749 -0.9 -0.2225
vn 0.1384 -0.9877 -0.073
vn 0.5159 -0.8151 -0.2632
vn 0.6153 -0.7397 -0.2724
vn 0.5839 -0.8069 -0.0885
vn 0.6641 -0.7194 -0.2034
vn 0.4585 -0.8886 -0.0084
vn 0.4411 -0.8955 -0.0585
vn 0.6124 -0.7699 -0.1796
vn 0.6749 -0.6983 -0.2386
vn 0.3052 -0.9519 0.028
vn 0.1449 -0.9893 0.0136
vn 0.1052 -0.9944 -0.0005
vn 0.2149 -0.9765 -0.0134
vn 0.5446 0.5192 -0.6586
vn 0.2292 0.3902 -0.8917
vn 0.6508 0.5288 -0.5448
vn 0.6749 -0.6983 -0.2386
vn -0.5191 -0.2135 -0.8276
vn -0.8846 -0.189 -0.4263
vn -0.2572 -0.2555 -0.9319
vn 0.1052 -0.9944 -0.0005
vn -0.7096 -0.138 0.6909
vn -0.449 -0.1432 0.882
vn -0.8346 -0.1703 0.5239
vn -0.0162 -0.9992 -0.0359
vn 0.7767 0.1375 0.6146
vn 0.7858 0.4986 0.3658
vn 0.4765 -0.2358 0.847
vn 0.7044 -0.6246 -0.3372
vn 0.7717 0.6319 0.0716
vn 0.7462 0.6514 -0.137
vn -0.1262 -0.0092 -0.9919
vn -0.9638 -0.265 -0.0282
vn -0.9456 -0.3011 0.1227
vn -0.0417 -0.288 0.9567
vn -0.8927 -0.2153 0.3957
vn -0.9128 -0.2537 0.32
vn 0.7267 0.6266 -0.2813
vn 0.7183 0.5943 -0.3617
vn 0.7048 0.5574 -0.4387
vn -0.9256 -0.2902 0.2429
vt 0.839504 0.118056
vt 0.856743 0.205307
vt 0.741230 0.205307
vt 0.734555 0.106726
vt 0.724541 0.032791
vt 0.813647 0.052618
vt 0.868992 0.081539
vt 0.913398 0.129584
vt 0.940923 0.205307
vt 0.839504 0.292557
vt 0.813647 0.357995
vt 0.724541 0.377822
vt 0.734555 0.303887
vt 0.913398 0.281029
vt 0.868992 0.329074
vt 0.369475 0.299954
vt 0.368286 0.370940
vt 0.245840 0.351447
vt 0.246397 0.288815
vt 0.246768 0.205307
vt 0.370268 0.205307
vt 0.494283 0.205307
vt 0.492822 0.304944
vt 0.490632 0.379672
vt 0.369475 0.110659
vt 0.246397 0.121798
vt 0.245841 0.059166
vt 0.368286 0.039673
vt 0.490632 0.030941
vt 0.492822 0.105669
vt 0.616755 0.103478
vt 0.619174 0.205307
vt 0.613127 0.027106
vt 0.616755 0.307135
vt 0.613126 0.383507
vt 0.123273 0.268175
vt 0.123047 0.315326
vt 0.054743 0.283353
vt 0.030912 0.249131
vt 0.030973 0.205306
vt 0.123423 0.205306
vt 0.123273 0.142438
vt 0.030912 0.161481
vt 0.054744 0.127260
vt 0.123047 0.095287
vt 0.839504 0.118056
vt 0.856743 0.205307
vt 0.968983 0.205307
vt 0.938030 0.133427
vt 0.876123 0.061548
vt 0.805028 0.030806
vt 0.721203 0.008146
vt 0.734555 0.106726
vt 0.741230 0.205307
vt 0.839504 0.292557
vt 0.805028 0.379807
vt 0.876123 0.349065
vt 0.938030 0.277186
vt 0.734555 0.303887
vt 0.721203 0.402467
vt 0.369475 0.299954
vt 0.367890 0.394602
vt 0.489902 0.404581
vt 0.492822 0.304944
vt 0.494283 0.205307
vt 0.370268 0.205307
vt 0.246768 0.205307
vt 0.246397 0.288815
vt 0.245655 0.372324
vt 0.369475 0.110659
vt 0.492822 0.105669
vt 0.489902 0.006032
vt 0.367890 0.016011
vt 0.245655 0.038289
vt 0.246397 0.121798
vt 0.616755 0.103478
vt 0.619174 0.205307
vt 0.611917 0.001649
vt 0.616755 0.307135
vt 0.611917 0.408964
vt 0.123273 0.268175
vt 0.122972 0.331043
vt 0.123423 0.205306
vt 0.000156 0.205306
vt 0.000125 0.242784
vt 0.000064 0.280261
vt 0.123273 0.142438
vt 0.122972 0.079570
vt 0.000064 0.130352
vt 0.000125 0.167829
vt 0.122972 0.331043
vt 0.030806 0.283587
vt 0.245655 0.372324
vt 0.030806 0.283587
vt 0.000125 0.167829
vt 0.030806 0.127026
vt 0.000156 0.205306
vt 0.030806 0.127026
vt 0.805028 0.030806
vt 0.873826 0.071832
vt 0.721203 0.008146
vt 0.873826 0.071832
vt 0.938030 0.277186
vt 0.873826 0.338781
vt 0.968983 0.205307
vt 0.873826 0.338781
vt 0.805028 0.379807
vt 0.721203 0.402467
vt 0.000125 0.242784
vt 0.122972 0.079570
vt 0.245655 0.038289
vt 0.938030 0.133427
vt 0.611917 0.001649
vt 0.489902 0.006032
vt 0.611917 0.408964
vt 0.489902 0.404581
vt 0.367890 0.394602
vt 0.367890 0.016011
f 1/1/1 2/2/2 3/3/3
f 1/1/1 3/3/3 4/4/4
f 1/1/1 4/4/4 5/5/5
f 1/1/1 5/5/5 6/6/6
f 1/1/1 6/6/6 7/7/7
f 1/1/1 7/7/7 8/8/8
f 1/1/1 8/8/8 9/9/9
f 1/1/1 9/9/9 2/2/2
f 10/10/10 11/11/11 12/12/12
f 10/10/10 12/12/12 13/13/13
f 10/10/10 13/13/13 3/3/3
f 10/10/10 3/3/3 2/2/2
f 10/10/10 2/2/2 9/9/9
f 10/10/10 9/9/9 14/14/14
f 10/10/10 14/14/14 15/15/15
f 10/10/10 15/15/15 11/11/11
f 16/16/16 17/17/17 18/18/18
f 16/16/16 18/18/18 19/19/19
f 16/16/16 19/19/19 20/20/20
f 16/16/16 20/20/20 21/21/21
f 16/16/16 21/21/21 22/22/22
f 16/16/16 22/22/22 23/23/23
f 16/16/16 23/23/23 24/24/24
f 16/16/16 24/24/24 17/17/17
f 25/25/25 21/21/21 20/20/20
f 25/25/25 20/20/20 26/26/26
f 25/25/25 26/26/26 27/27/27
f 25/25/25 27/27/27 28/28/28
f 25/25/25 28/28/28 29/29/29
f 25/25/25 29/29/29 30/30/30
f 25/25/25 30/30/30 22/22/22
f 25/25/25 22/22/22 21/21/21
f 31/31/31 32/32/32 22/22/22
f 31/31/31 22/22/22 30/30/30
f 31/31/31 30/30/30 29/29/29
f 31/31/31 29/29/29 33/33/33
f 31/31/31 33/33/33 5/5/5
f 31/31/31 5/5/5 4/4/4
f 31/31/31 4/4/4 3/3/3
f 31/31/31 3/3/3 32/32/32
f 34/34/34 35/35/35 24/24/24
f 34/34/34 24/24/24 23/23/23
f 34/34/34 23/23/23 22/22/22
f 34/34/34 22/22/22 32/32/32
f 34/34/34 32/32/32 3/3/3
f 34/34/34 3/3/3 13/13/13
f 34/34/34 13/13/13 12/12/12
f 34/34/34 12/12/12 35/35/35
f 36/36/36 37/37/37 38/38/38
f 36/36/36 38/38/38 39/39/39
f 36/36/36 39/39/39 40/40/40
f 36/36/36 40/40/40 41/41/41
f 36/36/36 41/41/41 20/20/20
f 36/36/36 20/20/20 19/19/19
f 36/36/36 19/19/19 18/18/18
f 36/36/36 18/18/18 37/37/37
f 42/42/42 41/41/41 40/40/40
f 42/42/42 40/40/40 43/43/43
f 42/42/42 43/43/43 44/44/44
f 42/42/42 44/44/44 45/45/45
f 42/42/42 45/45/45 27/27/27
f 42/42/42 27/27/27 26/26/26
f 42/42/42 26/26/26 20/20/20
f 42/42/42 20/20/20 41/41/41
f 46/46/46 47/47/47 48/48/48
f 46/46/46 48/48/48 49/49/49
f 46/46/46 49/49/49 50/50/50
f 46/46/46 50/50/50 51/51/51
f 46/46/46 51/51/51 52/52/52
f 46/46/46 52/52/52 53/53/53
f 46/46/46 53/53/53 54/54/54
f 46/46/46 54/54/54 47/47/47
f 55/55/55 56/56/56 57/57/57
f 55/55/55 57/57/57 58/58/58
f 55/55/55 58/58/58 48/48/48
f 55/55/55 48/48/48 47/47/47
f 55/55/55 47/47/47 54/54/54
f 55/55/55 54/54/54 59/59/59
f 55/55/55 59/59/59 60/60/60
f 55/55/55 60/60/60 56/56/56
f 61/61/61 62/62/62 63/63/63
f 61/61/61 63/63/63 64/64/64
f 61/61/61 64/64/64 65/65/65
f 61/61/61 65/65/65 66/66/66
f 61/61/61 66/66/66 67/67/67
f 61/61/61 67/67/67 68/68/68
f 61/61/61 68/68/68 69/69/69
f 61/61/61 69/69/69 62/62/62
f 70/70/70 66/66/66 65/65/65
f 70/70/70 65/65/65 71/71/71
f 70/70/70 71/71/71 72/72/72
f 70/70/70 72/72/72 73/73/73
f 70/70/70 73/73/73 74/74/74
f 70/70/70 74/74/74 75/75/75
f 70/70/70 75/75/75 67/67/67
f 70/70/70 67/67/67 66/66/66
f 76/76/76 77/77/77 54/54/54
f 76/76/76 54/54/54 53/53/53
f 76/76/76 53/53/53 52/52/52
f 76/76/76 52/52/52 78/78/78
f 76/76/76 78/78/78 72/72/72
f 76/76/76 72/72/72 71/71/71
f 76/76/76 71/71/71 65/65/65
f 76/76/76 65/65/65 77/77/77
f 79/79/79 80/80/80 60/60/60
f 79/79/79 60/60/60 59/59/59
f 79/79/79 59/59/59 54/54/54
f 79/79/79 54/54/54 77/77/77
f 79/79/79 77/77/77 65/65/65
f 79/79/79 65/65/65 64/64/64
f 79/79/79 64/64/64 63/63/63
f 79/79/79 63/63/63 80/80/80
f 81/81/81 82/82/82 69/69/69
f 81/81/81 69/69/69 68/68/68
f 81/81/81 68/68/68 67/67/67
f 81/81/81 67/67/67 83/83/83
f 81/81/81 83/83/83 84/84/84
f 81/81/81 84/84/84 85/85/85
f 81/81/81 85/85/85 86/86/86
f 81/81/81 86/86/86 82/82/82
f 87/87/87 83/83/83 67/67/67
f 87/87/87 67/67/67 75/75/75
f 87/87/87 75/75/75 74/74/74
f 87/87/87 74/74/74 88/88/88
f 87/87/87 88/88/88 89/89/89
f 87/87/87 89/89/89 90/90/90
f 87/87/87 90/90/90 84/84/84
f 87/87/87 84/84/84 83/83/83
f 91/91/91 92/92/92 38/38/38
f 91/91/91 38/38/38 37/37/37
f 91/91/91 37/37/37 18/18/18
f 91/91/91 18/18/18 93/93/93
f 91/91/91 93/93/93 69/69/69
f 91/91/91 69/69/69 82/82/82
f 91/91/91 82/82/82 94/94/94
f 91/91/91 94/94/94 92/92/92
f 95/95/95 96/96/96 44/44/44
f 95/95/95 44/44/44 43/43/43
f 95/95/95 43/43/43 40/40/40
f 95/95/95 40/40/40 97/97/97
f 95/95/95 97/97/97 84/84/84
f 95/95/95 84/84/84 90/90/90
f 95/95/95 90/90/90 98/98/98
f 95/95/95 98/98/98 96/96/96
f 99/99/99 100/100/100 7/7/7
f 99/99/99 7/7/7 6/6/6
f 99/99/99 6/6/6 5/5/5
f 99/99/99 5/5/5 101/101/101
f 99/99/99 101/101/101 52/52/52
f 99/99/99 52/52/52 51/51/51
f 99/99/99 51/51/51 102/102/102
f 99/99/99 102/102/102 100/100/100
f 103/103/103 104/104/104 15/15/15
f 103/103/103 15/15/15 14/14/14
f 103/103/103 14/14/14 9/9/9
f 103/103/103 9/9/9 105/105/105
f 103/103/103 105/105/105 48/48/48
f 103/103/103 48/48/48 58/58/58
f 103/103/103 58/58/58 106/106/106
f 103/103/103 106/106/106 104/104/104
f 107/107/107 108/108/108 12/12/12
f 107/107/107 12/12/12 11/11/11
f 107/107/107 11/11/11 15/15/15
f 107/107/107 15/15/15 104/104/104
f 107/107/107 104/104/104 106/106/106
f 107/107/107 106/106/106 56/56/56
f 107/107/107 56/56/56 60/60/60
f 107/107/107 60/60/60 108/108/108
f 109/109/109 97/97/97 40/40/40
f 109/109/109 40/40/40 39/39/39
f 109/109/109 39/39/39 38/38/38
f 109/109/109 38/38/38 92/92/92
f 109/109/109 92/92/92 94/94/94
f 109/109/109 94/94/94 85/85/85
f 109/109/109 85/85/85 84/84/84
f 109/109/109 84/84/84 97/97/97
f 110/110/110 111/111/111 27/27/27
f 110/110/110 27/27/27 45/45/45
f 110/110/110 45/45/45 44/44/44
f 110/110/110 44/44/44 96/96/96
f 110/110/110 96/96/96 98/98/98
f 110/110/110 98/98/98 88/88/88
f 110/110/110 88/88/88 74/74/74
f 110/110/110 74/74/74 111/111/111
f 112/112/112 105/105/105 9/9/9
f 112/112/112 9/9/9 8/8/8
f 112/112/112 8/8/8 7/7/7
f 112/112/112 7/7/7 100/100/100
f 112/112/112 100/100/100 102/102/102
f 112/112/112 102/102/102 49/49/49
f 112/112/112 49/49/49 48/48/48
f 112/112/112 48/48/48 105/105/105
f 113/113/113 101/101/101 5/5/5
f 113/113/113 5/5/5 33/33/33
f 113/113/113 33/33/33 29/29/29
f 113/113/113 29/29/29 114/114/114
f 113/113/113 114/114/114 72/72/72
f 113/113/113 72/72/72 78/78/78
f 113/113/113 78/78/78 52/52/52
f 113/113/113 52/52/52 101/101/101
f 115/115/115 116/116/116 24/24/24
f 115/115/115 24/24/24 35/35/35
f 115/115/115 35/35/35 12/12/12
f 115/115/115 12/12/12 108/108/108
f 115/115/115 108/108/108 60/60/60
f 115/115/115 60/60/60 80/80/80
f 115/115/115 80/80/80 63/63/63
f 115/115/115 63/63/63 116/116/116
f 117/117/117 93/93/93 18/18/18
f 117/117/117 18/18/18 17/17/17
f 117/117/117 17/17/17 24/24/24
f 117/117/117 24/24/24 116/116/116
f 117/117/117 116/116/116 63/63/63
f 117/117/117 63/63/63 62/62/62
f 117/117/117 62/62/62 69/69/69
f 117/117/117 69/69/69 93/93/93
f 118/118/118 114/114/114 29/29/29
f 118/118/118 29/29/29 28/28/28
f 118/118/118 28/28/28 27/27/27
f 118/118/118 27/27/27 111/111/111
f 118/118/118 111/111/111 74/74/74
f 118/118/118 74/74/74 73/73/73
f 118/118/118 73/73/73 72/72/72
f 118/118/118 72/72/72 114/114/114
