v -2.454213 0.734301 -1.132483
v -2.452587 0.735082 -1.130026
v -2.449672 0.734029 -1.132646
v -2.451837 0.733181 -1.135112
v -2.453349 0.732754 -1.137217
v -2.455127 0.733869 -1.134766
v -2.455841 0.734462 -1.13275
v -2.455809 0.734988 -1.130481
v -2.454713 0.735727 -1.128046
v -2.450127 0.736374 -1.128772
v -2.447962 0.737504 -1.128257
v -2.44521 0.736885 -1.129823
v -2.447194 0.735537 -1.130894
v -2.452272 0.736783 -1.127269
v -2.450038 0.737406 -1.127479
v -2.438115 0.730262 -1.138049
v -2.43634 0.731377 -1.136703
v -2.433779 0.728794 -1.139135
v -2.435355 0.727796 -1.140312
v -2.437413 0.7266 -1.141992
v -2.440437 0.728923 -1.139961
v -2.443492 0.731 -1.137758
v -2.441062 0.732427 -1.135774
v -2.4392 0.733631 -1.134393
v -2.442665 0.727954 -1.142182
v -2.439379 0.725754 -1.143967
v -2.44083 0.725216 -1.14554
v -2.444311 0.727331 -1.143945
v -2.447539 0.729399 -1.141968
v -2.445821 0.730012 -1.140097
v -2.448959 0.731752 -1.137695
v -2.446606 0.732685 -1.135271
v -2.450686 0.731236 -1.139672
v -2.44413 0.734203 -1.133309
v -2.442223 0.73553 -1.131984
v -2.432847 0.725112 -1.142744
v -2.431654 0.725911 -1.14191
v -2.430783 0.724052 -1.143623
v -2.431064 0.722989 -1.144604
v -2.432139 0.722297 -1.145394
v -2.434394 0.72418 -1.143963
v -2.43585 0.723588 -1.145472
v -2.433122 0.721945 -1.146473
v -2.434485 0.722173 -1.146986
v -2.436919 0.723239 -1.146693
v -2.454232 0.734005 -1.132367
v -2.452575 0.734799 -1.129881
v -2.454701 0.735514 -1.127941
v -2.455821 0.734765 -1.130399
v -2.455858 0.734295 -1.132694
v -2.455157 0.733642 -1.134694
v -2.453382 0.732532 -1.137134
v -2.451862 0.732889 -1.134984
v -2.44967 0.733749 -1.132493
v -2.450085 0.736109 -1.1286
v -2.447916 0.737317 -1.128116
v -2.450006 0.737264 -1.127378
v -2.452236 0.736584 -1.127142
v -2.447164 0.735273 -1.130717
v -2.445175 0.736697 -1.129678
v -2.438137 0.730018 -1.137843
v -2.436346 0.731199 -1.136541
v -2.439194 0.733448 -1.134237
v -2.441069 0.732175 -1.135578
v -2.44352 0.730736 -1.13758
v -2.440478 0.728667 -1.139772
v -2.437463 0.726351 -1.141797
v -2.435385 0.727557 -1.1401
v -2.433791 0.728622 -1.138968
v -2.442726 0.727689 -1.142012
v -2.44587 0.729738 -1.139939
v -2.447586 0.72919 -1.141859
v -2.444366 0.727129 -1.143827
v -2.440892 0.725018 -1.145418
v -2.439448 0.725495 -1.143791
v -2.448995 0.73147 -1.137552
v -2.446618 0.732413 -1.135106
v -2.450725 0.731019 -1.139576
v -2.444118 0.733944 -1.133122
v -2.442203 0.735344 -1.131834
v -2.432879 0.724877 -1.142529
v -2.431667 0.725741 -1.14174
v -2.434448 0.723933 -1.143766
v -2.432179 0.722113 -1.145246
v -2.431088 0.722814 -1.144442
v -2.430796 0.723925 -1.143499
v -2.435924 0.723332 -1.145295
v -2.436985 0.723042 -1.146571
v -2.434531 0.722029 -1.146892
v -2.433179 0.721753 -1.146342
v -2.43126 0.726103 -1.141555
v -2.43019 0.723571 -1.143999
v -2.433257 0.729052 -1.138667
v -2.430796 0.723925 -1.143499
v -2.432238 0.721312 -1.146749
v -2.433899 0.721689 -1.147368
v -2.431405 0.721588 -1.145805
v -2.434531 0.722029 -1.146892
v -2.455448 0.733623 -1.135498
v -2.456208 0.734443 -1.132879
v -2.453871 0.732512 -1.137885
v -2.455858 0.734295 -1.132694
v -2.45297 0.736831 -1.126711
v -2.44993 0.737628 -1.127177
v -2.455415 0.735847 -1.12734
v -2.450006 0.737264 -1.127378
v -2.447216 0.7378 -1.12802
v -2.44453 0.737253 -1.129399
v -2.43048 0.722204 -1.145152
v -2.437307 0.723034 -1.147048
v -2.441343 0.724948 -1.146012
v -2.456346 0.735118 -1.129778
v -2.451281 0.730967 -1.14029
v -2.448134 0.729101 -1.142546
v -2.441576 0.735892 -1.131474
v -2.438574 0.733953 -1.133861
v -2.435748 0.73167 -1.13618
v -2.444887 0.727033 -1.144482
vn 0.0901 0.9534 -0.2879
vn -0.0767 0.904 -0.4206
vn -0.0336 0.8878 -0.4589
vn 0.1171 0.9322 -0.3422
vn 0.1287 0.9223 -0.3643
vn 0.0848 0.9521 -0.2938
vn 0.0527 0.9686 -0.243
vn -0.0042 0.967 -0.2546
vn -0.1433 0.9228 -0.3577
vn -0.2099 0.8011 -0.5604
vn -0.2043 0.8054 -0.5564
vn -0.1266 0.7928 -0.5962
vn -0.1511 0.7961 -0.5859
vn -0.2493 0.8426 -0.4772
vn -0.2579 0.811 -0.5252
vn 0.0722 0.7419 -0.6666
vn 0.1043 0.7531 -0.6495
vn 0.129 0.7373 -0.6631
vn 0.09 0.721 -0.687
vn 0.179 0.7618 -0.6226
vn 0.149 0.7843 -0.6022
vn 0.0881 0.8251 -0.558
vn 0.0086 0.7726 -0.6348
vn 0.0402 0.7766 -0.6287
vn 0.2228 0.8183 -0.5298
vn 0.2516 0.803 -0.5402
vn 0.2243 0.7856 -0.5766
vn 0.2037 0.8036 -0.5592
vn 0.1716 0.8433 -0.5093
vn 0.1776 0.8583 -0.4813
vn 0.1379 0.9011 -0.411
vn 0.0202 0.8632 -0.5045
vn 0.1455 0.8871 -0.438
vn -0.0751 0.793 -0.6045
vn -0.0444 0.7907 -0.6106
vn 0.0817 0.7017 -0.7077
vn 0.1265 0.7175 -0.685
vn 0.1156 0.6943 -0.7103
vn 0.1052 0.6594 -0.7444
vn 0.2319 0.7179 -0.6564
vn 0.1929 0.7507 -0.6318
vn 0.2786 0.8017 -0.5288
vn 0.3323 0.7745 -0.5383
vn 0.286 0.7806 -0.5557
vn 0.2529 0.7815 -0.5702
vn -0.1263 -0.9507 0.283
vn 0.0649 -0.8999 0.4313
vn 0.019 -0.8816 0.4716
vn -0.232 -0.9364 0.2634
vn -0.3294 -0.9246 0.191
vn -0.3064 -0.9298 0.2038
vn -0.2608 -0.9302 0.2581
vn -0.1288 -0.9343 0.3324
vn 0.0337 -0.8878 0.4588
vn 0.2114 -0.7794 0.5898
vn 0.2632 -0.6408 0.7212
vn 0.2709 -0.62 0.7363
vn 0.2173 -0.7083 0.6716
vn 0.1602 -0.7876 0.5949
vn 0.2178 -0.6872 0.693
vn -0.0598 -0.7353 0.675
vn 0.0268 -0.6854 0.7277
vn 0.0727 -0.7047 0.7057
vn 0.0022 -0.7659 0.6429
vn -0.0883 -0.8251 0.5581
vn -0.1492 -0.7842 0.6023
vn -0.1791 -0.7617 0.6226
vn -0.0742 -0.7144 0.6957
vn 0.043 -0.6709 0.7403
vn -0.2329 -0.8231 0.5179
vn -0.1875 -0.8621 0.4706
vn -0.2693 -0.8783 0.395
vn -0.2997 -0.8511 0.431
vn -0.3171 -0.8536 0.4132
vn -0.2617 -0.8096 0.5254
vn -0.148 -0.9041 0.4008
vn -0.0202 -0.8632 0.5045
vn -0.2498 -0.9109 0.3285
vn 0.0851 -0.7859 0.6125
vn 0.1474 -0.7093 0.6893
vn -0.0494 -0.7006 0.7118
vn 0.1065 -0.6576 0.7458
vn -0.1845 -0.7575 0.6262
vn -0.1469 -0.7859 0.6007
vn 0.0529 -0.7 0.7121
vn 0.1484 -0.6512 0.7442
vn -0.2815 -0.8184 0.501
vn -0.326 -0.877 0.3529
vn -0.3261 -0.8919 0.3132
vn -0.278 -0.8679 0.4115
vn 0.9228 0.2726 0.2721
vn 0.9984 0.0249 -0.0496
vn 0.8535 0.3395 0.3951
vn 0.1484 -0.6512 0.7442
vn 0.5204 -0.5857 -0.6213
vn 0.0708 -0.4459 -0.8922
vn 0.6706 -0.6348 -0.3838
vn -0.3261 -0.8919 0.3132
vn -0.8605 0.0674 -0.505
vn -0.9617 0.1698 -0.2151
vn -0.7571 -0.0433 -0.6518
vn -0.3294 -0.9246 0.191
vn -0.2869 0.4617 0.8394
vn 0.0667 0.6916 0.7191
vn -0.7099 0.1801 0.6809
vn 0.2709 -0.62 0.7363
vn 0.3731 0.6936 0.6161
vn 0.5593 0.6251 0.5444
vn 0.848 -0.4195 -0.3237
vn -0.3337 -0.365 -0.8691
vn -0.4765 -0.3352 -0.8127
vn -0.9685 0.1158 0.2202
vn -0.6749 -0.1421 -0.7241
vn -0.6265 -0.2096 -0.7507
vn 0.6742 0.5423 0.5012
vn 0.7322 0.4798 0.4834
vn 0.7838 0.4142 0.4627
vn -0.5744 -0.275 -0.771
vt 0.839504 0.118056
vt 0.856743 0.205307
vt 0.741230 0.205307
vt 0.734555 0.106726
vt 0.724541 0.032791
vt 0.813647 0.052618
vt 0.868992 0.081539
vt 0.913398 0.129584
vt 0.940923 0.205307
vt 0.839504 0.292557
vt 0.813647 0.357995
vt 0.724541 0.377822
vt 0.734555 0.303887
vt 0.913398 0.281029
vt 0.868992 0.329074
vt 0.369475 0.299954
vt 0.368286 0.370940
vt 0.245840 0.351447
vt 0.246397 0.288815
vt 0.246768 0.205307
vt 0.370268 0.205307
vt 0.494283 0.205307
vt 0.492822 0.304944
vt 0.490632 0.379672
vt 0.369475 0.110659
vt 0.246397 0.121798
vt 0.245841 0.059166
vt 0.368286 0.039673
vt 0.490632 0.030941
vt 0.492822 0.105669
vt 0.616755 0.103478
vt 0.619174 0.205307
vt 0.613127 0.027106
vt 0.616755 0.307135
vt 0.613126 0.383507
vt 0.123273 0.268175
vt 0.123047 0.315326
vt 0.054743 0.283353
vt 0.030912 0.249131
vt 0.030973 0.205306
vt 0.123423 0.205306
vt 0.123273 0.142438
vt 0.030912 0.161481
vt 0.054744 0.127260
vt 0.123047 0.095287
vt 0.839504 0.118056
vt 0.856743 0.205307
vt 0.968983 0.205307
vt 0.938030 0.133427
vt 0.876123 0.061548
vt 0.805028 0.030806
vt 0.721203 0.008146
vt 0.734555 0.106726
vt 0.741230 0.205307
vt 0.839504 0.292557
vt 0.805028 0.379807
vt 0.876123 0.349065
vt 0.938030 0.277186
vt 0.734555 0.303887
vt 0.721203 0.402467
vt 0.369475 0.299954
vt 0.367890 0.394602
vt 0.489902 0.404581
vt 0.492822 0.304944
vt 0.494283 0.205307
vt 0.370268 0.205307
vt 0.246768 0.205307
vt 0.246397 0.288815
vt 0.245655 0.372324
vt 0.369475 0.110659
vt 0.492822 0.105669
vt 0.489902 0.006032
vt 0.367890 0.016011
vt 0.245655 0.038289
vt 0.246397 0.121798
vt 0.616755 0.103478
vt 0.619174 0.205307
vt 0.611917 0.001649
vt 0.616755 0.307135
vt 0.611917 0.408964
vt 0.123273 0.268175
vt 0.122972 0.331043
vt 0.123423 0.205306
vt 0.000156 0.205306
vt 0.000125 0.242784
vt 0.000064 0.280261
vt 0.123273 0.142438
vt 0.122972 0.079570
vt 0.000064 0.130352
vt 0.000125 0.167829
vt 0.122972 0.331043
vt 0.030806 0.283587
vt 0.245655 0.372324
vt 0.030806 0.283587
vt 0.000125 0.167829
vt 0.030806 0.127026
vt 0.000156 0.205306
vt 0.030806 0.127026
vt 0.805028 0.030806
vt 0.873826 0.071832
vt 0.721203 0.008146
vt 0.873826 0.071832
vt 0.938030 0.277186
vt 0.873826 0.338781
vt 0.968983 0.205307
vt 0.873826 0.338781
vt 0.805028 0.379807
vt 0.721203 0.402467
vt 0.000125 0.242784
vt 0.122972 0.079570
vt 0.245655 0.038289
vt 0.938030 0.133427
vt 0.611917 0.001649
vt 0.489902 0.006032
vt 0.611917 0.408964
vt 0.489902 0.404581
vt 0.367890 0.394602
vt 0.367890 0.016011
f 1/1/1 2/2/2 3/3/3
f 1/1/1 3/3/3 4/4/4
f 1/1/1 4/4/4 5/5/5
f 1/1/1 5/5/5 6/6/6
f 1/1/1 6/6/6 7/7/7
f 1/1/1 7/7/7 8/8/8
f 1/1/1 8/8/8 9/9/9
f 1/1/1 9/9/9 2/2/2
f 10/10/10 11/11/11 12/12/12
f 10/10/10 12/12/12 13/13/13
f 10/10/10 13/13/13 3/3/3
f 10/10/10 3/3/3 2/2/2
f 10/10/10 2/2/2 9/9/9
f 10/10/10 9/9/9 14/14/14
f 10/10/10 14/14/14 15/15/15
f 10/10/10 15/15/15 11/11/11
f 16/16/16 17/17/17 18/18/18
f 16/16/16 18/18/18 19/19/19
f 16/16/16 19/19/19 20/20/20
f 16/16/16 20/20/20 21/21/21
f 16/16/16 21/21/21 22/22/22
f 16/16/16 22/22/22 23/23/23
f 16/16/16 23/23/23 24/24/24
f 16/16/16 24/24/24 17/17/17
f 25/25/25 21/21/21 20/20/20
f 25/25/25 20/20/20 26/26/26
f 25/25/25 26/26/26 27/27/27
f 25/25/25 27/27/27 28/28/28
f 25/25/25 28/28/28 29/29/29
f 25/25/25 29/29/29 30/30/30
f 25/25/25 30/30/30 22/22/22
f 25/25/25 22/22/22 21/21/21
f 31/31/31 32/32/32 22/22/22
f 31/31/31 22/22/22 30/30/30
f 31/31/31 30/30/30 29/29/29
f 31/31/31 29/29/29 33/33/33
f 31/31/31 33/33/33 5/5/5
f 31/31/31 5/5/5 4/4/4
f 31/31/31 4/4/4 3/3/3
f 31/31/31 3/3/3 32/32/32
f 34/34/34 35/35/35 24/24/24
f 34/34/34 24/24/24 23/23/23
f 34/34/34 23/23/23 22/22/22
f 34/34/34 22/22/22 32/32/32
f 34/34/34 32/32/32 3/3/3
f 34/34/34 3/3/3 13/13/13
f 34/34/34 13/13/13 12/12/12
f 34/34/34 12/12/12 35/35/35
f 36/36/36 37/37/37 38/38/38
f 36/36/36 38/38/38 39/39/39
f 36/36/36 39/39/39 40/40/40
f 36/36/36 40/40/40 41/41/41
f 36/36/36 41/41/41 20/20/20
f 36/36/36 20/20/20 19/19/19
f 36/36/36 19/19/19 18/18/18
f 36/36/36 18/18/18 37/37/37
f 42/42/42 41/41/41 40/40/40
f 42/42/42 40/40/40 43/43/43
f 42/42/42 43/43/43 44/44/44
f 42/42/42 44/44/44 45/45/45
f 42/42/42 45/45/45 27/27/27
f 42/42/42 27/27/27 26/26/26
f 42/42/42 26/26/26 20/20/20
f 42/42/42 20/20/20 41/41/41
f 46/46/46 47/47/47 48/48/48
f 46/46/46 48/48/48 49/49/49
f 46/46/46 49/49/49 50/50/50
f 46/46/46 50/50/50 51/51/51
f 46/46/46 51/51/51 52/52/52
f 46/46/46 52/52/52 53/53/53
f 46/46/46 53/53/53 54/54/54
f 46/46/46 54/54/54 47/47/47
f 55/55/55 56/56/56 57/57/57
f 55/55/55 57/57/57 58/58/58
f 55/55/55 58/58/58 48/48/48
f 55/55/55 48/48/48 47/47/47
f 55/55/55 47/47/47 54/54/54
f 55/55/55 54/54/54 59/59/59
f 55/55/55 59/59/59 60/60/60
f 55/55/55 60/60/60 56/56/56
f 61/61/61 62/62/62 63/63/63
f 61/61/61 63/63/63 64/64/64
f 61/61/61 64/64/64 65/65/65
f 61/61/61 65/65/65 66/66/66
f 61/61/61 66/66/66 67/67/67
f 61/61/61 67/67/67 68/68/68
f 61/61/61 68/68/68 69/69/69
f 61/61/61 69/69/69 62/62/62
f 70/70/70 66/66/66 65/65/65
f 70/70/70 65/65/65 71/71/71
f 70/70/70 71/71/71 72/72/72
f 70/70/70 72/72/72 73/73/73
f 70/70/70 73/73/73 74/74/74
f 70/70/70 74/74/74 75/75/75
f 70/70/70 75/75/75 67/67/67
f 70/70/70 67/67/67 66/66/66
f 76/76/76 77/77/77 54/54/54
f 76/76/76 54/54/54 53/53/53
f 76/76/76 53/53/53 52/52/52
f 76/76/76 52/52/52 78/78/78
f 76/76/76 78/78/78 72/72/72
f 76/76/76 72/72/72 71/71/71
f 76/76/76 71/71/71 65/65/65
f 76/76/76 65/65/65 77/77/77
f 79/79/79 80/80/80 60/60/60
f 79/79/79 60/60/60 59/59/59
f 79/79/79 59/59/59 54/54/54
f 79/79/79 54/54/54 77/77/77
f 79/79/79 77/77/77 65/65/65
f 79/79/79 65/65/65 64/64/64
f 79/79/79 64/64/64 63/63/63
f 79/79/79 63/63/63 80/80/80
f 81/81/81 82/82/82 69/69/69
f 81/81/81 69/69/69 68/68/68
f 81/81/81 68/68/68 67/67/67
f 81/81/81 67/67/67 83/83/83
f 81/81/81 83/83/83 84/84/84
f 81/81/81 84/84/84 85/85/85
f 81/81/81 85/85/85 86/86/86
f 81/81/81 86/86/86 82/82/82
f 87/87/87 83/83/83 67/67/67
f 87/87/87 67/67/67 75/75/75
f 87/87/87 75/75/75 74/74/74
f 87/87/87 74/74/74 88/88/88
f 87/87/87 88/88/88 89/89/89
f 87/87/87 89/89/89 90/90/90
f 87/87/87 90/90/90 84/84/84
f 87/87/87 84/84/84 83/83/83
f 91/91/91 92/92/92 38/38/38
f 91/91/91 38/38/38 37/37/37
f 91/91/91 37/37/37 18/18/18
f 91/91/91 18/18/18 93/93/93
f 91/91/91 93/93/93 69/69/69
f 91/91/91 69/69/69 82/82/82
f 91/91/91 82/82/82 94/94/94
f 91/91/91 94/94/94 92/92/92
f 95/95/95 96/96/96 44/44/44
f 95/95/95 44/44/44 43/43/43
f 95/95/95 43/43/43 40/40/40
f 95/95/95 40/40/40 97/97/97
f 95/95/95 97/97/97 84/84/84
f 95/95/95 84/84/84 90/90/90
f 95/95/95 90/90/90 98/98/98
f 95/95/95 98/98/98 96/96/96
f 99/99/99 100/100/100 7/7/7
f 99/99/99 7/7/7 6/6/6
f 99/99/99 6/6/6 5/5/5
f 99/99/99 5/5/5 101/101/101
f 99/99/99 101/101/101 52/52/52
f 99/99/99 52/52/52 51/51/51
f 99/99/99 51/51/51 102/102/102
f 99/99/99 102/102/102 100/100/100
f 103/103/103 104/104/104 15/15/15
f 103/103/103 15/15/15 14/14/14
f 103/103/103 14/14/14 9/9/9
f 103/103/103 9/9/9 105/105/105
f 103/103/103 105/105/105 48/48/48
f 103/103/103 48/48/48 58/58/58
f 103/103/103 58/58/58 106/106/106
f 103/103/103 106/106/106 104/104/104
f 107/107/107 108/108/108 12/12/12
f 107/107/107 12/12/12 11/11/11
f 107/107/107 11/11/11 15/15/15
f 107/107/107 15/15/15 104/104/104
f 107/107/107 104/104/104 106/106/106
f 107/107/107 106/106/106 56/56/56
f 107/107/107 56/56/56 60/60/60
f 107/107/107 60/60/60 108/108/108
f 109/109/109 97/97/97 40/40/40
f 109/109/109 40/40/40 39/39/39
f 109/109/109 39/39/39 38/38/38
f 109/109/109 38/38/38 92/92/92
f 109/109/109 92/92/92 94/94/94
f 109/109/109 94/94/94 85/85/85
f 109/109/109 85/85/85 84/84/84
f 109/109/109 84/84/84 97/97/97
f 110/110/110 111/111/111 27/27/27
f 110/110/110 27/27/27 45/45/45
f 110/110/110 45/45/45 44/44/44
f 110/110/110 44/44/44 96/96/96
f 110/110/110 96/96/96 98/98/98
f 110/110/110 98/98/98 88/88/88
f 110/110/110 88/88/88 74/74/74
f 110/110/110 74/74/74 111/111/111
f 112/112/112 105/105/105 9/9/9
f 112/112/112 9/9/9 8/8/8
f 112/112/112 8/8/8 7/7/7
f 112/112/112 7/7/7 100/100/100
f 112/112/112 100/100/100 102/102/102
f 112/112/112 102/102/102 49/49/49
f 112/112/112 49/49/49 48/48/48
f 112/112/112 48/48/48 105/105/105
f 113/113/113 101/101/101 5/5/5
f 113/113/113 5/5/5 33/33/33
f 113/113/113 33/33/33 29/29/29
f 113/113/113 29/29/29 114/114/114
f 113/113/113 114/114/114 72/72/72
f 113/113/113 72/72/72 78/78/78
f 113/113/113 78/78/78 52/52/52
f 113/113/113 52/52/52 101/101/101
f 115/115/115 116/116/116 24/24/24
f 115/115/115 24/24/24 35/35/35
f 115/115/115 35/35/35 12/12/12
f 115/115/115 12/12/12 108/108/108
f 115/115/115 108/108/108 60/60/60
f 115/115/115 60/60/60 80/80/80
f 115/115/115 80/80/80 63/63/63
f 115/115/115 63/63/63 116/116/116
f 117/117/117 93/93/93 18/18/18
f 117/117/117 18/18/18 17/17/17
f 117/117/117 17/17/17 24/24/24
f 117/117/117 24/24/24 116/116/116
f 117/117/117 116/116/116 63/63/63
f 117/117/117 63/63/63 62/62/62
f 117/117/117 62/62/62 69/69/69
f 117/117/117 69/69/69 93/93/93
f 118/118/118 114/114/114 29/29/29
f 118/118/118 29/29/29 28/28/28
f 118/118/118 28/28/28 27/27/27
f 118/118/118 27/27/27 111/111/111
f 118/118/118 111/111/111 74/74/74
f 118/118/118 74/74/74 73/73/73
f 118/118/118 73/73/73 72/72/72
f 118/118/118 72/72/72 114/114/114
