v -2.315076 0.774367 -1.242213
v -2.315145 0.775267 -1.241014
v -2.314369 0.773601 -1.240228
v -2.314415 0.772751 -1.241664
v -2.314283 0.772071 -1.242756
v -2.314799 0.773539 -1.243078
v -2.315221 0.774544 -1.242996
v -2.315607 0.775517 -1.242528
v -2.315776 0.776469 -1.241566
v -2.314564 0.775777 -1.239727
v -2.313901 0.776012 -1.238719
v -2.313263 0.774881 -1.237804
v -2.313833 0.774354 -1.238839
v -2.315164 0.776738 -1.240377
v -2.314493 0.776547 -1.239466
v -2.312439 0.768915 -1.236078
v -2.312065 0.769498 -1.235065
v -2.311982 0.767478 -1.234319
v -2.312322 0.766964 -1.235214
v -2.312687 0.766276 -1.236418
v -2.312843 0.768135 -1.237441
v -2.313143 0.769984 -1.238428
v -2.312706 0.770802 -1.237007
v -2.312293 0.771413 -1.235953
v -2.313009 0.767344 -1.238846
v -2.312826 0.765575 -1.237662
v -2.312865 0.765044 -1.238609
v -2.313064 0.766745 -1.239915
v -2.313338 0.768534 -1.241027
v -2.313303 0.769159 -1.239903
v -2.313797 0.770988 -1.240868
v -2.313677 0.771824 -1.239362
v -2.31377 0.770356 -1.242023
v -2.313192 0.772656 -1.23793
v -2.312709 0.773278 -1.236874
v -2.312285 0.764921 -1.234486
v -2.311997 0.765303 -1.233822
v -2.312111 0.763996 -1.233706
v -2.312308 0.763355 -1.233985
v -2.312547 0.763006 -1.234592
v -2.312584 0.764409 -1.23538
v -2.312662 0.763884 -1.236313
v -2.312566 0.762645 -1.235237
v -2.312575 0.762718 -1.235959
v -2.312657 0.763485 -1.237026
v -2.315223 0.77432 -1.242182
v -2.315289 0.77523 -1.240963
v -2.315883 0.77644 -1.241527
v -2.315716 0.77548 -1.242505
v -2.315302 0.774515 -1.242983
v -2.314909 0.773499 -1.243065
v -2.314395 0.772037 -1.242742
v -2.314563 0.772711 -1.241633
v -2.314516 0.77357 -1.24018
v -2.314703 0.775752 -1.239659
v -2.314002 0.775999 -1.238659
v -2.314569 0.776535 -1.239423
v -2.315267 0.776718 -1.240324
v -2.313975 0.774333 -1.238775
v -2.313366 0.774871 -1.237748
v -2.31259 0.768917 -1.236032
v -2.312176 0.769502 -1.235024
v -2.312402 0.771413 -1.235908
v -2.312855 0.770796 -1.236956
v -2.313295 0.769971 -1.23839
v -2.312997 0.768129 -1.237406
v -2.312841 0.766276 -1.236386
v -2.312473 0.766971 -1.23517
v -2.312093 0.767487 -1.23428
v -2.313165 0.767332 -1.238824
v -2.313457 0.769139 -1.239877
v -2.313454 0.768516 -1.241014
v -2.313182 0.766733 -1.239905
v -2.312983 0.765035 -1.2386
v -2.312982 0.765569 -1.237642
v -2.313949 0.770958 -1.240839
v -2.313826 0.771801 -1.239318
v -2.313884 0.77033 -1.242009
v -2.313338 0.772642 -1.237872
v -2.312816 0.773272 -1.236824
v -2.312437 0.764931 -1.234442
v -2.312108 0.765313 -1.233784
v -2.312739 0.764411 -1.235349
v -2.312663 0.763008 -1.234569
v -2.312421 0.763363 -1.233952
v -2.312194 0.764003 -1.233679
v -2.312819 0.76388 -1.236295
v -2.312775 0.763477 -1.237019
v -2.312662 0.762714 -1.235952
v -2.312683 0.762641 -1.235224
v -2.31195 0.765435 -1.233583
v -2.312096 0.763632 -1.2335
v -2.311918 0.767654 -1.234002
v -2.312194 0.764003 -1.233679
v -2.312586 0.76223 -1.234873
v -2.312561 0.762351 -1.235757
v -2.312586 0.76254 -1.234319
v -2.312662 0.762714 -1.235952
v -2.314756 0.773244 -1.243363
v -2.315256 0.774542 -1.243185
v -2.314289 0.771828 -1.243116
v -2.315302 0.774515 -1.242983
v -2.315409 0.777049 -1.240569
v -2.314469 0.776709 -1.239365
v -2.316034 0.776856 -1.241732
v -2.314569 0.776535 -1.239423
v -2.313724 0.776086 -1.238354
v -2.313118 0.775053 -1.237433
v -2.312365 0.762837 -1.233803
v -2.312708 0.763347 -1.237262
v -2.312931 0.764862 -1.238922
v -2.315832 0.775883 -1.242623
v -2.313812 0.770133 -1.242403
v -2.313401 0.768317 -1.241397
v -2.312595 0.773484 -1.236498
v -2.312203 0.771617 -1.23558
v -2.31199 0.769694 -1.234708
v -2.313135 0.766539 -1.240268
vn 0.9224 0.3594 -0.1411
vn 0.8973 0.2782 -0.3427
vn 0.9199 0.2281 -0.3189
vn 0.9442 0.2991 -0.1381
vn 0.9522 0.2734 -0.1362
vn 0.9227 0.3558 -0.1482
vn 0.8976 0.4119 -0.1568
vn 0.8831 0.4183 -0.2127
vn 0.8556 0.3544 -0.3773
vn 0.846 0.1492 -0.5118
vn 0.8491 0.1534 -0.5054
vn 0.8872 0.0946 -0.4515
vn 0.8759 0.111 -0.4695
vn 0.8206 0.2466 -0.5156
vn 0.8184 0.1945 -0.5407
vn 0.9534 -0.0441 -0.2983
vn 0.9641 -0.0334 -0.2633
vn 0.9675 -0.0603 -0.2454
vn 0.9542 -0.0769 -0.289
vn 0.9821 -0.0291 -0.1857
vn 0.9785 0.0079 -0.2061
vn 0.9658 0.0826 -0.2459
vn 0.9385 0.016 -0.3448
vn 0.9492 0.0143 -0.3143
vn 0.9918 0.0615 -0.1122
vn 0.9953 0.0364 -0.0894
vn 0.9918 0.0067 -0.1276
vn 0.9894 0.0363 -0.1404
vn 0.9826 0.1062 -0.152
vn 0.9815 0.1344 -0.1361
vn 0.9637 0.2236 -0.1458
vn 0.9435 0.1645 -0.2877
vn 0.9698 0.1929 -0.1492
vn 0.9095 0.0743 -0.409
vn 0.9214 0.0598 -0.3838
vn 0.9474 -0.1017 -0.3034
vn 0.9629 -0.0879 -0.255
vn 0.9546 -0.1179 -0.2733
vn 0.9421 -0.1617 -0.2936
vn 0.9843 -0.0959 -0.1483
vn 0.9833 -0.0467 -0.176
vn 0.9975 0.0364 -0.0601
vn 0.9999 -0.0021 -0.0132
vn 0.998 0.0018 -0.0628
vn 0.9951 0.0009 -0.0988
vn -0.9302 -0.3512 0.1062
vn -0.9038 -0.2645 0.3363
vn -0.9268 -0.211 0.3106
vn -0.9449 -0.3272 0.0016
vn -0.9309 -0.3456 -0.118
vn -0.9338 -0.3458 -0.0912
vn -0.9473 -0.3191 -0.0272
vn -0.9445 -0.3042 0.1235
vn -0.9199 -0.2282 0.3189
vn -0.8443 -0.1144 0.5235
vn -0.7888 0.0534 0.6122
vn -0.7782 0.075 0.6235
vn -0.8306 -0.0126 0.5567
vn -0.871 -0.1016 0.4807
vn -0.8255 0.0164 0.5642
vn -0.9486 0.0508 0.3123
vn -0.9081 0.0961 0.4075
vn -0.8956 0.0552 0.4413
vn -0.9339 -0.0089 0.3574
vn -0.9658 -0.0826 0.2458
vn -0.9785 -0.0078 0.206
vn -0.9821 0.0294 0.1856
vn -0.9483 0.0829 0.3063
vn -0.898 0.1099 0.426
vn -0.9926 -0.0705 0.0987
vn -0.9822 -0.142 0.123
vn -0.9827 -0.1844 0.0187
vn -0.9911 -0.1328 0.0042
vn -0.9896 -0.1426 -0.0189
vn -0.996 -0.0485 0.0746
vn -0.964 -0.2301 0.1327
vn -0.9435 -0.1645 0.2877
vn -0.9659 -0.2586 0.011
vn -0.9047 -0.0667 0.4207
vn -0.8648 0.0197 0.5017
vn -0.9376 0.0965 0.334
vn -0.8688 0.1047 0.484
vn -0.9826 0.0361 0.1819
vn -0.9781 -0.0108 0.2076
vn -0.9022 0.0685 0.4258
vn -0.8487 0.096 0.5201
vn -0.9967 -0.0662 0.0472
vn -0.9787 -0.199 -0.0503
vn -0.9691 -0.2374 -0.066
vn -0.9863 -0.1637 0.0169
vn 0.3837 0.1115 0.9167
vn 0.3882 -0.2996 0.8715
vn 0.3466 0.2616 0.9008
vn -0.8487 0.096 0.5201
vn 0.0551 -0.964 0.2599
vn 0.1531 -0.9493 -0.2744
vn -0.0577 -0.8631 0.5016
vn -0.9691 -0.2374 -0.066
vn 0.0244 -0.0866 -0.9959
vn -0.0845 0.2166 -0.9726
vn 0.0523 -0.2919 -0.955
vn -0.9309 -0.3456 -0.118
vn -0.1866 0.9808 0.0563
vn 0.177 0.9378 0.2985
vn -0.466 0.8071 -0.3626
vn -0.7782 0.075 0.6235
vn 0.3381 0.7788 0.5282
vn 0.3873 0.6315 0.6717
vn 0.1379 -0.7349 0.664
vn 0.0643 -0.7693 -0.6356
vn 0.0083 -0.6697 -0.7426
vn -0.3598 0.5029 -0.7859
vn 0.0423 -0.4294 -0.9021
vn 0.0208 -0.5048 -0.8629
vn 0.3858 0.5159 0.7648
vn 0.3664 0.4482 0.8154
vn 0.3444 0.3772 0.8596
vn -0.0007 -0.5749 -0.8182
vt 0.839504 0.118056
vt 0.856743 0.205307
vt 0.741230 0.205307
vt 0.734555 0.106726
vt 0.724541 0.032791
vt 0.813647 0.052618
vt 0.868992 0.081539
vt 0.913398 0.129584
vt 0.940923 0.205307
vt 0.839504 0.292557
vt 0.813647 0.357995
vt 0.724541 0.377822
vt 0.734555 0.303887
vt 0.913398 0.281029
vt 0.868992 0.329074
vt 0.369475 0.299954
vt 0.368286 0.370940
vt 0.245840 0.351447
vt 0.246397 0.288815
vt 0.246768 0.205307
vt 0.370268 0.205307
vt 0.494283 0.205307
vt 0.492822 0.304944
vt 0.490632 0.379672
vt 0.369475 0.110659
vt 0.246397 0.121798
vt 0.245841 0.059166
vt 0.368286 0.039673
vt 0.490632 0.030941
vt 0.492822 0.105669
vt 0.616755 0.103478
vt 0.619174 0.205307
vt 0.613127 0.027106
vt 0.616755 0.307135
vt 0.613126 0.383507
vt 0.123273 0.268175
vt 0.123047 0.315326
vt 0.054743 0.283353
vt 0.030912 0.249131
vt 0.030973 0.205306
vt 0.123423 0.205306
vt 0.123273 0.142438
vt 0.030912 0.161481
vt 0.054744 0.127260
vt 0.123047 0.095287
vt 0.839504 0.118056
vt 0.856743 0.205307
vt 0.968983 0.205307
vt 0.938030 0.133427
vt 0.876123 0.061548
vt 0.805028 0.030806
vt 0.721203 0.008146
vt 0.734555 0.106726
vt 0.741230 0.205307
vt 0.839504 0.292557
vt 0.805028 0.379807
vt 0.876123 0.349065
vt 0.938030 0.277186
vt 0.734555 0.303887
vt 0.721203 0.402467
vt 0.369475 0.299954
vt 0.367890 0.394602
vt 0.489902 0.404581
vt 0.492822 0.304944
vt 0.494283 0.205307
vt 0.370268 0.205307
vt 0.246768 0.205307
vt 0.246397 0.288815
vt 0.245655 0.372324
vt 0.369475 0.110659
vt 0.492822 0.105669
vt 0.489902 0.006032
vt 0.367890 0.016011
vt 0.245655 0.038289
vt 0.246397 0.121798
vt 0.616755 0.103478
vt 0.619174 0.205307
vt 0.611917 0.001649
vt 0.616755 0.307135
vt 0.611917 0.408964
vt 0.123273 0.268175
vt 0.122972 0.331043
vt 0.123423 0.205306
vt 0.000156 0.205306
vt 0.000125 0.242784
vt 0.000064 0.280261
vt 0.123273 0.142438
vt 0.122972 0.079570
vt 0.000064 0.130352
vt 0.000125 0.167829
vt 0.122972 0.331043
vt 0.030806 0.283587
vt 0.245655 0.372324
vt 0.030806 0.283587
vt 0.000125 0.167829
vt 0.030806 0.127026
vt 0.000156 0.205306
vt 0.030806 0.127026
vt 0.805028 0.030806
vt 0.873826 0.071832
vt 0.721203 0.008146
vt 0.873826 0.071832
vt 0.938030 0.277186
vt 0.873826 0.338781
vt 0.968983 0.205307
vt 0.873826 0.338781
vt 0.805028 0.379807
vt 0.721203 0.402467
vt 0.000125 0.242784
vt 0.122972 0.079570
vt 0.245655 0.038289
vt 0.938030 0.133427
vt 0.611917 0.001649
vt 0.489902 0.006032
vt 0.611917 0.408964
vt 0.489902 0.404581
vt 0.367890 0.394602
vt 0.367890 0.016011
f 1/1/1 2/2/2 3/3/3
f 1/1/1 3/3/3 4/4/4
f 1/1/1 4/4/4 5/5/5
f 1/1/1 5/5/5 6/6/6
f 1/1/1 6/6/6 7/7/7
f 1/1/1 7/7/7 8/8/8
f 1/1/1 8/8/8 9/9/9
f 1/1/1 9/9/9 2/2/2
f 10/10/10 11/11/11 12/12/12
f 10/10/10 12/12/12 13/13/13
f 10/10/10 13/13/13 3/3/3
f 10/10/10 3/3/3 2/2/2
f 10/10/10 2/2/2 9/9/9
f 10/10/10 9/9/9 14/14/14
f 10/10/10 14/14/14 15/15/15
f 10/10/10 15/15/15 11/11/11
f 16/16/16 17/17/17 18/18/18
f 16/16/16 18/18/18 19/19/19
f 16/16/16 19/19/19 20/20/20
f 16/16/16 20/20/20 21/21/21
f 16/16/16 21/21/21 22/22/22
f 16/16/16 22/22/22 23/23/23
f 16/16/16 23/23/23 24/24/24
f 16/16/16 24/24/24 17/17/17
f 25/25/25 21/21/21 20/20/20
f 25/25/25 20/20/20 26/26/26
f 25/25/25 26/26/26 27/27/27
f 25/25/25 27/27/27 28/28/28
f 25/25/25 28/28/28 29/29/29
f 25/25/25 29/29/29 30/30/30
f 25/25/25 30/30/30 22/22/22
f 25/25/25 22/22/22 21/21/21
f 31/31/31 32/32/32 22/22/22
f 31/31/31 22/22/22 30/30/30
f 31/31/31 30/30/30 29/29/29
f 31/31/31 29/29/29 33/33/33
f 31/31/31 33/33/33 5/5/5
f 31/31/31 5/5/5 4/4/4
f 31/31/31 4/4/4 3/3/3
f 31/31/31 3/3/3 32/32/32
f 34/34/34 35/35/35 24/24/24
f 34/34/34 24/24/24 23/23/23
f 34/34/34 23/23/23 22/22/22
f 34/34/34 22/22/22 32/32/32
f 34/34/34 32/32/32 3/3/3
f 34/34/34 3/3/3 13/13/13
f 34/34/34 13/13/13 12/12/12
f 34/34/34 12/12/12 35/35/35
f 36/36/36 37/37/37 38/38/38
f 36/36/36 38/38/38 39/39/39
f 36/36/36 39/39/39 40/40/40
f 36/36/36 40/40/40 41/41/41
f 36/36/36 41/41/41 20/20/20
f 36/36/36 20/20/20 19/19/19
f 36/36/36 19/19/19 18/18/18
f 36/36/36 18/18/18 37/37/37
f 42/42/42 41/41/41 40/40/40
f 42/42/42 40/40/40 43/43/43
f 42/42/42 43/43/43 44/44/44
f 42/42/42 44/44/44 45/45/45
f 42/42/42 45/45/45 27/27/27
f 42/42/42 27/27/27 26/26/26
f 42/42/42 26/26/26 20/20/20
f 42/42/42 20/20/20 41/41/41
f 46/46/46 47/47/47 48/48/48
f 46/46/46 48/48/48 49/49/49
f 46/46/46 49/49/49 50/50/50
f 46/46/46 50/50/50 51/51/51
f 46/46/46 51/51/51 52/52/52
f 46/46/46 52/52/52 53/53/53
f 46/46/46 53/53/53 54/54/54
f 46/46/46 54/54/54 47/47/47
f 55/55/55 56/56/56 57/57/57
f 55/55/55 57/57/57 58/58/58
f 55/55/55 58/58/58 48/48/48
f 55/55/55 48/48/48 47/47/47
f 55/55/55 47/47/47 54/54/54
f 55/55/55 54/54/54 59/59/59
f 55/55/55 59/59/59 60/60/60
f 55/55/55 60/60/60 56/56/56
f 61/61/61 62/62/62 63/63/63
f 61/61/61 63/63/63 64/64/64
f 61/61/61 64/64/64 65/65/65
f 61/61/61 65/65/65 66/66/66
f 61/61/61 66/66/66 67/67/67
f 61/61/61 67/67/67 68/68/68
f 61/61/61 68/68/68 69/69/69
f 61/61/61 69/69/69 62/62/62
f 70/70/70 66/66/66 65/65/65
f 70/70/70 65/65/65 71/71/71
f 70/70/70 71/71/71 72/72/72
f 70/70/70 72/72/72 73/73/73
f 70/70/70 73/73/73 74/74/74
f 70/70/70 74/74/74 75/75/75
f 70/70/70 75/75/75 67/67/67
f 70/70/70 67/67/67 66/66/66
f 76/76/76 77/77/77 54/54/54
f 76/76/76 54/54/54 53/53/53
f 76/76/76 53/53/53 52/52/52
f 76/76/76 52/52/52 78/78/78
f 76/76/76 78/78/78 72/72/72
f 76/76/76 72/72/72 71/71/71
f 76/76/76 71/71/71 65/65/65
f 76/76/76 65/65/65 77/77/77
f 79/79/79 80/80/80 60/60/60
f 79/79/79 60/60/60 59/59/59
f 79/79/79 59/59/59 54/54/54
f 79/79/79 54/54/54 77/77/77
f 79/79/79 77/77/77 65/65/65
f 79/79/79 65/65/65 64/64/64
f 79/79/79 64/64/64 63/63/63
f 79/79/79 63/63/63 80/80/80
f 81/81/81 82/82/82 69/69/69
f 81/81/81 69/69/69 68/68/68
f 81/81/81 68/68/68 67/67/67
f 81/81/81 67/67/67 83/83/83
f 81/81/81 83/83/83 84/84/84
f 81/81/81 84/84/84 85/85/85
f 81/81/81 85/85/85 86/86/86
f 81/81/81 86/86/86 82/82/82
f 87/87/87 83/83/83 67/67/67
f 87/87/87 67/67/67 75/75/75
f 87/87/87 75/75/75 74/74/74
f 87/87/87 74/74/74 88/88/88
f 87/87/87 88/88/88 89/89/89
f 87/87/87 89/89/89 90/90/90
f 87/87/87 90/90/90 84/84/84
f 87/87/87 84/84/84 83/83/83
f 91/91/91 92/92/92 38/38/38
f 91/91/91 38/38/38 37/37/37
f 91/91/91 37/37/37 18/18/18
f 91/91/91 18/18/18 93/93/93
f 91/91/91 93/93/93 69/69/69
f 91/91/91 69/69/69 82/82/82
f 91/91/91 82/82/82 94/94/94
f 91/91/91 94/94/94 92/92/92
f 95/95/95 96/96/96 44/44/44
f 95/95/95 44/44/44 43/43/43
f 95/95/95 43/43/43 40/40/40
f 95/95/95 40/40/40 97/97/97
f 95/95/95 97/97/97 84/84/84
f 95/95/95 84/84/84 90/90/90
f 95/95/95 90/90/90 98/98/98
f 95/95/95 98/98/98 96/96/96
f 99/99/99 100/100/100 7/7/7
f 99/99/99 7/7/7 6/6/6
f 99/99/99 6/6/6 5/5/5
f 99/99/99 5/5/5 101/101/101
f 99/99/99 101/101/101 52/52/52
f 99/99/99 52/52/52 51/51/51
f 99/99/99 51/51/51 102/102/102
f 99/99/99 102/102/102 100/100/100
f 103/103/103 104/104/104 15/15/15
f 103/103/103 15/15/15 14/14/14
f 103/103/103 14/14/14 9/9/9
f 103/103/103 9/9/9 105/105/105
f 103/103/103 105/105/105 48/48/48
f 103/103/103 48/48/48 58/58/58
f 103/103/103 58/58/58 106/106/106
f 103/103/103 106/106/106 104/104/104
f 107/107/107 108/108/108 12/12/12
f 107/107/107 12/12/12 11/11/11
f 107/107/107 11/11/11 15/15/15
f 107/107/107 15/15/15 104/104/104
f 107/107/107 104/104/104 106/106/106
f 107/107/107 106/106/106 56/56/56
f 107/107/107 56/56/56 60/60/60
f 107/107/107 60/60/60 108/108/108
f 109/109/109 97/97/97 40/40/40
f 109/109/109 40/40/40 39/39/39
f 109/109/109 39/39/39 38/38/38
f 109/109/109 38/38/38 92/92/92
f 109/109/109 92/92/92 94/94/94
f 109/109/109 94/94/94 85/85/85
f 109/109/109 85/85/85 84/84/84
f 109/109/109 84/84/84 97/97/97
f 110/110/110 111/111/111 27/27/27
f 110/110/110 27/27/27 45/45/45
f 110/110/110 45/45/45 44/44/44
f 110/110/110 44/44/44 96/96/96
f 110/110/110 96/96/96 98/98/98
f 110/110/110 98/98/98 88/88/88
f 110/110/110 88/88/88 74/74/74
f 110/110/110 74/74/74 111/111/111
f 112/112/112 105/105/105 9/9/9
f 112/112/112 9/9/9 8/8/8
f 112/112/112 8/8/8 7/7/7
f 112/112/112 7/7/7 100/100/100
f 112/112/112 100/100/100 102/102/102
f 112/112/112 102/102/102 49/49/49
f 112/112/112 49/49/49 48/48/48
f 112/112/112 48/48/48 105/105/105
f 113/113/113 101/101/101 5/5/5
f 113/113/113 5/5/5 33/33/33
f 113/113/113 33/33/33 29/29/29
f 113/113/113 29/29/29 114/114/114
f 113/113/113 114/114/114 72/72/72
f 113/113/113 72/72/72 78/78/78
f 113/113/113 78/78/78 52/52/52
f 113/113/113 52/52/52 101/101/101
f 115/115/115 116/116/116 24/24/24
f 115/115/115 24/24/24 35/35/35
f 115/115/115 35/35/35 12/12/12
f 115/115/115 12/12/12 108/108/108
f 115/115/115 108/108/108 60/60/60
f 115/115/115 60/60/60 80/80/80
f 115/115/115 80/80/80 63/63/63
f 115/115/115 63/63/63 116/116/116
f 117/117/117 93/93/93 18/18/18
f 117/117/117 18/18/18 17/17/17
f 117/117/117 17/17/17 24/24/24
f 117/117/117 24/24/24 116/116/116
f 117/117/117 116/116/116 63/63/63
f 117/117/117 63/63/63 62/62/62
f 117/117/117 62/62/62 69/69/69
f 117/117/117 69/69/69 93/93/93
f 118/118/118 114/114/114 29/29/29
f 118/118/118 29/29/29 28/28/28
f 118/118/118 28/28/28 27/27/27
f 118/118/118 27/27/27 111/111/111
f 118/118/118 111/111/111 74/74/74
f 118/118/118 74/74/74 73/73/73
f 118/118/118 73/73/73 72/72/72
f 118/118/118 72/72/72 114/114/114
