v -2.352984 0.695929 -1.123523
v -2.350466 0.69635 -1.124806
v -2.352636 0.695206 -1.127714
v -2.355229 0.69478 -1.125928
v -2.357383 0.694657 -1.124742
v -2.355236 0.695747 -1.122912
v -2.353406 0.696265 -1.122066
v -2.351262 0.696627 -1.121873
v -2.348828 0.697067 -1.122665
v -2.348935 0.697224 -1.127055
v -2.348134 0.69802 -1.129105
v -2.349316 0.697239 -1.131778
v -2.350626 0.696252 -1.129941
v -2.347757 0.697749 -1.12493
v -2.347655 0.698105 -1.127082
v -2.356585 0.690781 -1.138683
v -2.355059 0.691557 -1.140271
v -2.357198 0.689018 -1.14268
v -2.358537 0.688319 -1.141267
v -2.360411 0.687516 -1.13945
v -2.358715 0.689883 -1.136637
v -2.356879 0.692017 -1.133749
v -2.354665 0.69298 -1.135896
v -2.35309 0.693828 -1.137568
v -2.361095 0.689338 -1.13475
v -2.362525 0.687043 -1.137789
v -2.364187 0.686782 -1.136585
v -2.362961 0.689028 -1.13338
v -2.361356 0.691184 -1.13036
v -2.359382 0.691471 -1.131782
v -2.357394 0.693289 -1.128761
v -2.354813 0.693777 -1.130735
v -2.35946 0.693098 -1.127352
v -2.352607 0.694821 -1.132935
v -2.351071 0.695782 -1.134668
v -2.360688 0.685692 -1.143617
v -2.359725 0.686263 -1.144698
v -2.36134 0.684536 -1.145528
v -2.362354 0.683631 -1.145283
v -2.363256 0.683144 -1.144317
v -2.362058 0.685054 -1.142243
v -2.363665 0.684739 -1.141021
v -2.364394 0.682978 -1.143504
v -2.365009 0.683362 -1.142328
v -2.364944 0.684594 -1.140146
v -2.352899 0.695649 -1.123462
v -2.350349 0.696077 -1.124772
v -2.348743 0.696861 -1.122642
v -2.351202 0.696416 -1.12183
v -2.353368 0.696108 -1.122027
v -2.355188 0.695536 -1.122853
v -2.357325 0.694449 -1.124679
v -2.355133 0.694505 -1.12586
v -2.352512 0.694938 -1.127671
v -2.348788 0.696964 -1.127047
v -2.34801 0.697832 -1.129112
v -2.347568 0.697963 -1.127086
v -2.347648 0.697553 -1.124929
v -2.350476 0.695995 -1.129921
v -2.34919 0.697052 -1.131774
v -2.356414 0.690544 -1.138614
v -2.354921 0.691383 -1.140228
v -2.352957 0.693649 -1.137536
v -2.3545 0.692735 -1.135841
v -2.356735 0.691765 -1.133676
v -2.358562 0.68964 -1.136551
v -2.360253 0.687278 -1.139356
v -2.35836 0.688089 -1.14119
v -2.357056 0.688849 -1.142631
v -2.360962 0.689089 -1.134648
v -2.359259 0.691213 -1.131691
v -2.361274 0.690988 -1.130283
v -2.362872 0.688839 -1.133295
v -2.364094 0.686597 -1.136493
v -2.362387 0.6868 -1.137678
v -2.357284 0.693022 -1.128682
v -2.354679 0.693515 -1.130677
v -2.35939 0.692896 -1.127283
v -2.352451 0.694569 -1.132898
v -2.350942 0.695598 -1.13465
v -2.360508 0.685465 -1.143538
v -2.35958 0.686098 -1.144648
v -2.361898 0.68482 -1.142145
v -2.363136 0.682968 -1.144244
v -2.362218 0.683461 -1.145224
v -2.361235 0.684412 -1.145489
v -2.363526 0.684499 -1.140906
v -2.364851 0.684411 -1.140051
v -2.364938 0.683227 -1.142259
v -2.364291 0.682798 -1.143417
v -2.359337 0.686381 -1.145038
v -2.361653 0.684047 -1.146075
v -2.356686 0.689177 -1.143131
v -2.361235 0.684412 -1.145489
v -2.364591 0.682311 -1.144292
v -2.36533 0.682871 -1.142868
v -2.363602 0.682429 -1.144976
v -2.364938 0.683227 -1.142259
v -2.355969 0.695592 -1.122679
v -2.35357 0.696292 -1.12174
v -2.358079 0.694524 -1.124316
v -2.353368 0.696108 -1.122027
v -2.347316 0.697837 -1.124223
v -2.347348 0.698283 -1.127167
v -2.348244 0.697214 -1.121942
v -2.347568 0.697963 -1.127086
v -2.347809 0.698203 -1.129795
v -2.34882 0.697486 -1.132391
v -2.362849 0.682869 -1.145812
v -2.365331 0.684463 -1.13981
v -2.364701 0.686612 -1.136141
v -2.350662 0.696766 -1.121305
v -2.36012 0.692944 -1.12685
v -2.361979 0.691001 -1.129849
v -2.350499 0.696022 -1.13524
v -2.352503 0.694033 -1.138113
v -2.354487 0.691739 -1.140783
v -2.363545 0.688841 -1.132883
vn -0.2056 0.9523 -0.2253
vn -0.3609 0.9297 -0.0727
vn -0.3948 0.9111 -0.1184
vn -0.2577 0.9315 -0.2567
vn -0.2788 0.9216 -0.2699
vn -0.2123 0.952 -0.2206
vn -0.1648 0.969 -0.1842
vn -0.1833 0.9745 -0.1294
vn -0.3054 0.9522 -0.0009
vn -0.5229 0.8508 0.0514
vn -0.518 0.8541 0.0459
vn -0.5487 0.8353 -0.0345
vn -0.5413 0.8407 -0.0093
vn -0.4425 0.8915 0.0966
vn -0.4933 0.8638 0.1022
vn -0.5979 0.7665 -0.2344
vn -0.5763 0.7731 -0.2649
vn -0.5879 0.7554 -0.2895
vn -0.6175 0.745 -0.2523
vn -0.5399 0.7717 -0.336
vn -0.5218 0.7962 -0.3062
vn -0.4825 0.841 -0.2447
vn -0.572 0.8023 -0.1707
vn -0.5618 0.8023 -0.2014
vn -0.4387 0.8174 -0.3732
vn -0.4467 0.7996 -0.4013
vn -0.4872 0.7876 -0.3772
vn -0.4711 0.8068 -0.3565
vn -0.4228 0.8468 -0.3226
vn -0.3933 0.8594 -0.3265
vn -0.3255 0.9022 -0.2828
vn -0.4351 0.8832 -0.1748
vn -0.3522 0.8891 -0.2923
vn -0.5507 0.8302 -0.0864
vn -0.5531 0.8248 -0.1172
vn -0.6404 0.728 -0.2447
vn -0.6113 0.7372 -0.2879
vn -0.6395 0.7168 -0.278
vn -0.6769 0.6854 -0.2684
vn -0.5701 0.7242 -0.388
vn -0.5481 0.7597 -0.3498
vn -0.4321 0.7946 -0.4264
vn -0.4368 0.7622 -0.4776
vn -0.4593 0.7745 -0.435
vn -0.4776 0.78 -0.4043
vn 0.1966 -0.9453 0.26
vn 0.3703 -0.925 0.0853
vn 0.4059 -0.904 0.1339
vn 0.1654 -0.9181 0.3602
vn 0.0827 -0.8913 0.4457
vn 0.0978 -0.8997 0.4252
vn 0.157 -0.9084 0.3874
vn 0.2464 -0.9316 0.2671
vn 0.3947 -0.9111 0.1183
vn 0.5538 -0.8311 -0.0514
vn 0.7001 -0.707 -0.0999
vn 0.7175 -0.6882 -0.1077
vn 0.6405 -0.766 -0.054
vn 0.552 -0.8339 0.0006
vn 0.6631 -0.7465 -0.054
vn 0.6083 -0.7619 0.2225
vn 0.6745 -0.7252 0.1386
vn 0.657 -0.7482 0.0925
vn 0.5818 -0.7973 0.1604
vn 0.4826 -0.8409 0.2448
vn 0.5219 -0.7961 0.3063
vn 0.54 -0.7716 0.3361
vn 0.6285 -0.7407 0.2371
vn 0.6899 -0.7134 0.1229
vn 0.4253 -0.8204 0.3821
vn 0.3812 -0.8615 0.3353
vn 0.2953 -0.8639 0.4079
vn 0.3292 -0.8357 0.4396
vn 0.3093 -0.8352 0.4547
vn 0.4302 -0.8042 0.4101
vn 0.3139 -0.9035 0.2917
vn 0.435 -0.8833 0.1748
vn 0.2294 -0.8946 0.3835
vn 0.5604 -0.8246 0.0768
vn 0.6494 -0.7602 0.0172
vn 0.6485 -0.7307 0.2133
vn 0.7041 -0.7075 0.0595
vn 0.5432 -0.767 0.3415
vn 0.5205 -0.7979 0.3041
vn 0.6613 -0.7416 0.1124
vn 0.7082 -0.7058 0.0173
vn 0.403 -0.8092 0.4274
vn 0.2469 -0.8538 0.4582
vn 0.2065 -0.8663 0.4548
vn 0.3113 -0.8536 0.4176
vn 0.4012 0.1505 -0.9035
vn 0.0745 -0.0844 -0.9936
vn 0.5192 0.2175 -0.8265
vn 0.7082 -0.7058 0.0173
vn -0.5936 -0.6034 -0.5324
vn -0.9067 -0.3984 -0.1385
vn -0.3436 -0.6828 -0.6447
vn 0.2065 -0.8663 0.4548
vn -0.5994 0.193 0.7768
vn -0.3178 0.2889 0.903
vn -0.7401 0.0802 0.6676
vn 0.0827 -0.8913 0.4457
vn 0.8291 0.4414 0.343
vn 0.7695 0.637 -0.0453
vn 0.6006 0.2189 0.769
vn 0.7175 -0.6882 -0.1077
vn 0.7052 0.6104 -0.3608
vn 0.6519 0.5254 -0.5467
vn -0.2473 -0.4925 -0.8344
vn -0.9272 -0.2742 0.255
vn -0.8867 -0.2321 0.3998
vn 0.1086 0.211 0.9714
vn -0.809 -0.023 0.5872
vn -0.8345 -0.0941 0.5429
vn 0.6171 0.4331 -0.6569
vn 0.602 0.3656 -0.7099
vn 0.5828 0.2956 -0.7569
vn -0.8531 -0.1637 0.4954
vt 0.839504 0.118056
vt 0.856743 0.205307
vt 0.741230 0.205307
vt 0.734555 0.106726
vt 0.724541 0.032791
vt 0.813647 0.052618
vt 0.868992 0.081539
vt 0.913398 0.129584
vt 0.940923 0.205307
vt 0.839504 0.292557
vt 0.813647 0.357995
vt 0.724541 0.377822
vt 0.734555 0.303887
vt 0.913398 0.281029
vt 0.868992 0.329074
vt 0.369475 0.299954
vt 0.368286 0.370940
vt 0.245840 0.351447
vt 0.246397 0.288815
vt 0.246768 0.205307
vt 0.370268 0.205307
vt 0.494283 0.205307
vt 0.492822 0.304944
vt 0.490632 0.379672
vt 0.369475 0.110659
vt 0.246397 0.121798
vt 0.245841 0.059166
vt 0.368286 0.039673
vt 0.490632 0.030941
vt 0.492822 0.105669
vt 0.616755 0.103478
vt 0.619174 0.205307
vt 0.613127 0.027106
vt 0.616755 0.307135
vt 0.613126 0.383507
vt 0.123273 0.268175
vt 0.123047 0.315326
vt 0.054743 0.283353
vt 0.030912 0.249131
vt 0.030973 0.205306
vt 0.123423 0.205306
vt 0.123273 0.142438
vt 0.030912 0.161481
vt 0.054744 0.127260
vt 0.123047 0.095287
vt 0.839504 0.118056
vt 0.856743 0.205307
vt 0.968983 0.205307
vt 0.938030 0.133427
vt 0.876123 0.061548
vt 0.805028 0.030806
vt 0.721203 0.008146
vt 0.734555 0.106726
vt 0.741230 0.205307
vt 0.839504 0.292557
vt 0.805028 0.379807
vt 0.876123 0.349065
vt 0.938030 0.277186
vt 0.734555 0.303887
vt 0.721203 0.402467
vt 0.369475 0.299954
vt 0.367890 0.394602
vt 0.489902 0.404581
vt 0.492822 0.304944
vt 0.494283 0.205307
vt 0.370268 0.205307
vt 0.246768 0.205307
vt 0.246397 0.288815
vt 0.245655 0.372324
vt 0.369475 0.110659
vt 0.492822 0.105669
vt 0.489902 0.006032
vt 0.367890 0.016011
vt 0.245655 0.038289
vt 0.246397 0.121798
vt 0.616755 0.103478
vt 0.619174 0.205307
vt 0.611917 0.001649
vt 0.616755 0.307135
vt 0.611917 0.408964
vt 0.123273 0.268175
vt 0.122972 0.331043
vt 0.123423 0.205306
vt 0.000156 0.205306
vt 0.000125 0.242784
vt 0.000064 0.280261
vt 0.123273 0.142438
vt 0.122972 0.079570
vt 0.000064 0.130352
vt 0.000125 0.167829
vt 0.122972 0.331043
vt 0.030806 0.283587
vt 0.245655 0.372324
vt 0.030806 0.283587
vt 0.000125 0.167829
vt 0.030806 0.127026
vt 0.000156 0.205306
vt 0.030806 0.127026
vt 0.805028 0.030806
vt 0.873826 0.071832
vt 0.721203 0.008146
vt 0.873826 0.071832
vt 0.938030 0.277186
vt 0.873826 0.338781
vt 0.968983 0.205307
vt 0.873826 0.338781
vt 0.805028 0.379807
vt 0.721203 0.402467
vt 0.000125 0.242784
vt 0.122972 0.079570
vt 0.245655 0.038289
vt 0.938030 0.133427
vt 0.611917 0.001649
vt 0.489902 0.006032
vt 0.611917 0.408964
vt 0.489902 0.404581
vt 0.367890 0.394602
vt 0.367890 0.016011
f 1/1/1 2/2/2 3/3/3
f 1/1/1 3/3/3 4/4/4
f 1/1/1 4/4/4 5/5/5
f 1/1/1 5/5/5 6/6/6
f 1/1/1 6/6/6 7/7/7
f 1/1/1 7/7/7 8/8/8
f 1/1/1 8/8/8 9/9/9
f 1/1/1 9/9/9 2/2/2
f 10/10/10 11/11/11 12/12/12
f 10/10/10 12/12/12 13/13/13
f 10/10/10 13/13/13 3/3/3
f 10/10/10 3/3/3 2/2/2
f 10/10/10 2/2/2 9/9/9
f 10/10/10 9/9/9 14/14/14
f 10/10/10 14/14/14 15/15/15
f 10/10/10 15/15/15 11/11/11
f 16/16/16 17/17/17 18/18/18
f 16/16/16 18/18/18 19/19/19
f 16/16/16 19/19/19 20/20/20
f 16/16/16 20/20/20 21/21/21
f 16/16/16 21/21/21 22/22/22
f 16/16/16 22/22/22 23/23/23
f 16/16/16 23/23/23 24/24/24
f 16/16/16 24/24/24 17/17/17
f 25/25/25 21/21/21 20/20/20
f 25/25/25 20/20/20 26/26/26
f 25/25/25 26/26/26 27/27/27
f 25/25/25 27/27/27 28/28/28
f 25/25/25 28/28/28 29/29/29
f 25/25/25 29/29/29 30/30/30
f 25/25/25 30/30/30 22/22/22
f 25/25/25 22/22/22 21/21/21
f 31/31/31 32/32/32 22/22/22
f 31/31/31 22/22/22 30/30/30
f 31/31/31 30/30/30 29/29/29
f 31/31/31 29/29/29 33/33/33
f 31/31/31 33/33/33 5/5/5
f 31/31/31 5/5/5 4/4/4
f 31/31/31 4/4/4 3/3/3
f 31/31/31 3/3/3 32/32/32
f 34/34/34 35/35/35 24/24/24
f 34/34/34 24/24/24 23/23/23
f 34/34/34 23/23/23 22/22/22
f 34/34/34 22/22/22 32/32/32
f 34/34/34 32/32/32 3/3/3
f 34/34/34 3/3/3 13/13/13
f 34/34/34 13/13/13 12/12/12
f 34/34/34 12/12/12 35/35/35
f 36/36/36 37/37/37 38/38/38
f 36/36/36 38/38/38 39/39/39
f 36/36/36 39/39/39 40/40/40
f 36/36/36 40/40/40 41/41/41
f 36/36/36 41/41/41 20/20/20
f 36/36/36 20/20/20 19/19/19
f 36/36/36 19/19/19 18/18/18
f 36/36/36 18/18/18 37/37/37
f 42/42/42 41/41/41 40/40/40
f 42/42/42 40/40/40 43/43/43
f 42/42/42 43/43/43 44/44/44
f 42/42/42 44/44/44 45/45/45
f 42/42/42 45/45/45 27/27/27
f 42/42/42 27/27/27 26/26/26
f 42/42/42 26/26/26 20/20/20
f 42/42/42 20/20/20 41/41/41
f 46/46/46 47/47/47 48/48/48
f 46/46/46 48/48/48 49/49/49
f 46/46/46 49/49/49 50/50/50
f 46/46/46 50/50/50 51/51/51
f 46/46/46 51/51/51 52/52/52
f 46/46/46 52/52/52 53/53/53
f 46/46/46 53/53/53 54/54/54
f 46/46/46 54/54/54 47/47/47
f 55/55/55 56/56/56 57/57/57
f 55/55/55 57/57/57 58/58/58
f 55/55/55 58/58/58 48/48/48
f 55/55/55 48/48/48 47/47/47
f 55/55/55 47/47/47 54/54/54
f 55/55/55 54/54/54 59/59/59
f 55/55/55 59/59/59 60/60/60
f 55/55/55 60/60/60 56/56/56
f 61/61/61 62/62/62 63/63/63
f 61/61/61 63/63/63 64/64/64
f 61/61/61 64/64/64 65/65/65
f 61/61/61 65/65/65 66/66/66
f 61/61/61 66/66/66 67/67/67
f 61/61/61 67/67/67 68/68/68
f 61/61/61 68/68/68 69/69/69
f 61/61/61 69/69/69 62/62/62
f 70/70/70 66/66/66 65/65/65
f 70/70/70 65/65/65 71/71/71
f 70/70/70 71/71/71 72/72/72
f 70/70/70 72/72/72 73/73/73
f 70/70/70 73/73/73 74/74/74
f 70/70/70 74/74/74 75/75/75
f 70/70/70 75/75/75 67/67/67
f 70/70/70 67/67/67 66/66/66
f 76/76/76 77/77/77 54/54/54
f 76/76/76 54/54/54 53/53/53
f 76/76/76 53/53/53 52/52/52
f 76/76/76 52/52/52 78/78/78
f 76/76/76 78/78/78 72/72/72
f 76/76/76 72/72/72 71/71/71
f 76/76/76 71/71/71 65/65/65
f 76/76/76 65/65/65 77/77/77
f 79/79/79 80/80/80 60/60/60
f 79/79/79 60/60/60 59/59/59
f 79/79/79 59/59/59 54/54/54
f 79/79/79 54/54/54 77/77/77
f 79/79/79 77/77/77 65/65/65
f 79/79/79 65/65/65 64/64/64
f 79/79/79 64/64/64 63/63/63
f 79/79/79 63/63/63 80/80/80
f 81/81/81 82/82/82 69/69/69
f 81/81/81 69/69/69 68/68/68
f 81/81/81 68/68/68 67/67/67
f 81/81/81 67/67/67 83/83/83
f 81/81/81 83/83/83 84/84/84
f 81/81/81 84/84/84 85/85/85
f 81/81/81 85/85/85 86/86/86
f 81/81/81 86/86/86 82/82/82
f 87/87/87 83/83/83 67/67/67
f 87/87/87 67/67/67 75/75/75
f 87/87/87 75/75/75 74/74/74
f 87/87/87 74/74/74 88/88/88
f 87/87/87 88/88/88 89/89/89
f 87/87/87 89/89/89 90/90/90
f 87/87/87 90/90/90 84/84/84
f 87/87/87 84/84/84 83/83/83
f 91/91/91 92/92/92 38/38/38
f 91/91/91 38/38/38 37/37/37
f 91/91/91 37/37/37 18/18/18
f 91/91/91 18/18/18 93/93/93
f 91/91/91 93/93/93 69/69/69
f 91/91/91 69/69/69 82/82/82
f 91/91/91 82/82/82 94/94/94
f 91/91/91 94/94/94 92/92/92
f 95/95/95 96/96/96 44/44/44
f 95/95/95 44/44/44 43/43/43
f 95/95/95 43/43/43 40/40/40
f 95/95/95 40/40/40 97/97/97
f 95/95/95 97/97/97 84/84/84
f 95/95/95 84/84/84 90/90/90
f 95/95/95 90/90/90 98/98/98
f 95/95/95 98/98/98 96/96/96
f 99/99/99 100/100/100 7/7/7
f 99/99/99 7/7/7 6/6/6
f 99/99/99 6/6/6 5/5/5
f 99/99/99 5/5/5 101/101/101
f 99/99/99 101/101/101 52/52/52
f 99/99/99 52/52/52 51/51/51
f 99/99/99 51/51/51 102/102/102
f 99/99/99 102/102/102 100/100/100
f 103/103/103 104/104/104 15/15/15
f 103/103/103 15/15/15 14/14/14
f 103/103/103 14/14/14 9/9/9
f 103/103/103 9/9/9 105/105/105
f 103/103/103 105/105/105 48/48/48
f 103/103/103 48/48/48 58/58/58
f 103/103/103 58/58/58 106/106/106
f 103/103/103 106/106/106 104/104/104
f 107/107/107 108/108/108 12/12/12
f 107/107/107 12/12/12 11/11/11
f 107/107/107 11/11/11 15/15/15
f 107/107/107 15/15/15 104/104/104
f 107/107/107 104/104/104 106/106/106
f 107/107/107 106/106/106 56/56/56
f 107/107/107 56/56/56 60/60/60
f 107/107/107 60/60/60 108/108/108
f 109/109/109 97/97/97 40/40/40
f 109/109/109 40/40/40 39/39/39
f 109/109/109 39/39/39 38/38/38
f 109/109/109 38/38/38 92/92/92
f 109/109/109 92/92/92 94/94/94
f 109/109/109 94/94/94 85/85/85
f 109/109/109 85/85/85 84/84/84
f 109/109/109 84/84/84 97/97/97
f 110/110/110 111/111/111 27/27/27
f 110/110/110 27/27/27 45/45/45
f 110/110/110 45/45/45 44/44/44
f 110/110/110 44/44/44 96/96/96
f 110/110/110 96/96/96 98/98/98
f 110/110/110 98/98/98 88/88/88
f 110/110/110 88/88/88 74/74/74
f 110/110/110 74/74/74 111/111/111
f 112/112/112 105/105/105 9/9/9
f 112/112/112 9/9/9 8/8/8
f 112/112/112 8/8/8 7/7/7
f 112/112/112 7/7/7 100/100/100
f 112/112/112 100/100/100 102/102/102
f 112/112/112 102/102/102 49/49/49
f 112/112/112 49/49/49 48/48/48
f 112/112/112 48/48/48 105/105/105
f 113/113/113 101/101/101 5/5/5
f 113/113/113 5/5/5 33/33/33
f 113/113/113 33/33/33 29/29/29
f 113/113/113 29/29/29 114/114/114
f 113/113/113 114/114/114 72/72/72
f 113/113/113 72/72/72 78/78/78
f 113/113/113 78/78/78 52/52/52
f 113/113/113 52/52/52 101/101/101
f 115/115/115 116/116/116 24/24/24
f 115/115/115 24/24/24 35/35/35
f 115/115/115 35/35/35 12/12/12
f 115/115/115 12/12/12 108/108/108
f 115/115/115 108/108/108 60/60/60
f 115/115/115 60/60/60 80/80/80
f 115/115/115 80/80/80 63/63/63
f 115/115/115 63/63/63 116/116/116
f 117/117/117 93/93/93 18/18/18
f 117/117/117 18/18/18 17/17/17
f 117/117/117 17/17/17 24/24/24
f 117/117/117 24/24/24 116/116/116
f 117/117/117 116/116/116 63/63/63
f 117/117/117 63/63/63 62/62/62
f 117/117/117 62/62/62 69/69/69
f 117/117/117 69/69/69 93/93/93
f 118/118/118 114/114/114 29/29/29
f 118/118/118 29/29/29 28/28/28
f 118/118/118 28/28/28 27/27/27
f 118/118/118 27/27/27 111/111/111
f 118/118/118 111/111/111 74/74/74
f 118/118/118 74/74/74 73/73/73
f 118/118/118 73/73/73 72/72/72
f 118/118/118 72/72/72 114/114/114
