v -2.419347 0.736461 -1.173882
v -2.417129 0.737302 -1.1733
v -2.416514 0.735647 -1.176031
v -2.419082 0.734821 -1.176354
v -2.421061 0.734303 -1.176851
v -2.421028 0.73583 -1.174765
v -2.42052 0.736743 -1.173325
v -2.419411 0.737555 -1.172062
v -2.417543 0.738427 -1.171238
v -2.41496 0.738213 -1.173957
v -2.413333 0.738903 -1.174896
v -2.412319 0.737794 -1.177
v -2.414095 0.736812 -1.176439
v -2.415613 0.739072 -1.172127
v -2.414288 0.739232 -1.173431
v -2.411681 0.730304 -1.183888
v -2.409904 0.731181 -1.184132
v -2.409414 0.728427 -1.186246
v -2.410983 0.727644 -1.186017
v -2.4131 0.72668 -1.185829
v -2.414078 0.72922 -1.183689
v -2.414991 0.731606 -1.181375
v -2.412491 0.732756 -1.181599
v -2.410642 0.733698 -1.181882
v -2.416567 0.728353 -1.183805
v -2.415304 0.725918 -1.185943
v -2.416986 0.725403 -1.186117
v -2.418466 0.727762 -1.183986
v -2.419598 0.730122 -1.181729
v -2.417602 0.730715 -1.181512
v -2.41847 0.732888 -1.178963
v -2.415803 0.733748 -1.178772
v -2.420524 0.732351 -1.179261
v -2.413284 0.73496 -1.179051
v -2.411435 0.735981 -1.179416
v -2.410525 0.724819 -1.188084
v -2.409366 0.725434 -1.188302
v -2.409617 0.723581 -1.189348
v -2.410262 0.722621 -1.189586
v -2.411325 0.722081 -1.18942
v -2.412096 0.724076 -1.187908
v -2.41375 0.723531 -1.188029
v -2.412471 0.721738 -1.189549
v -2.413593 0.721994 -1.189281
v -2.41502 0.723176 -1.188206
v -2.419301 0.736257 -1.173736
v -2.417049 0.737108 -1.173154
v -2.417483 0.73828 -1.171131
v -2.419378 0.7374 -1.171956
v -2.420502 0.736626 -1.173246
v -2.421011 0.735672 -1.174656
v -2.42104 0.73415 -1.176736
v -2.419034 0.734623 -1.176199
v -2.416437 0.735459 -1.175876
v -2.414848 0.738035 -1.173812
v -2.413234 0.738778 -1.174789
v -2.414218 0.739136 -1.173353
v -2.415527 0.738937 -1.172022
v -2.413989 0.736638 -1.176285
v -2.412225 0.737671 -1.176886
v -2.411594 0.730155 -1.183698
v -2.409829 0.731075 -1.18399
v -2.410563 0.733585 -1.181748
v -2.412399 0.732598 -1.18142
v -2.414922 0.731438 -1.181194
v -2.414012 0.729062 -1.183498
v -2.413037 0.726529 -1.185631
v -2.410898 0.727503 -1.18582
v -2.40934 0.728326 -1.186099
v -2.416522 0.728187 -1.183614
v -2.417555 0.730539 -1.181332
v -2.419574 0.729986 -1.181594
v -2.418443 0.727634 -1.183844
v -2.416966 0.725281 -1.185969
v -2.415262 0.72576 -1.185745
v -2.418422 0.732701 -1.178796
v -2.415729 0.73357 -1.178605
v -2.420501 0.732207 -1.179137
v -2.413185 0.734793 -1.178885
v -2.411348 0.735862 -1.179292
v -2.41044 0.724681 -1.187885
v -2.409291 0.725336 -1.188154
v -2.412033 0.723928 -1.187708
v -2.411278 0.72197 -1.189269
v -2.410197 0.722518 -1.189437
v -2.409565 0.723507 -1.189238
v -2.413711 0.723375 -1.187829
v -2.415002 0.723055 -1.188056
v -2.413577 0.721905 -1.18917
v -2.412443 0.721621 -1.189399
v -2.408943 0.725597 -1.188309
v -2.409415 0.723068 -1.189749
v -2.408856 0.728644 -1.186257
v -2.409565 0.723507 -1.189238
v -2.412033 0.721088 -1.189989
v -2.413398 0.721477 -1.189681
v -2.411047 0.721367 -1.189857
v -2.413577 0.721905 -1.18917
v -2.421585 0.735549 -1.175011
v -2.420817 0.736751 -1.17323
v -2.421715 0.734062 -1.176965
v -2.420502 0.736626 -1.173246
v -2.415792 0.739298 -1.171471
v -2.414075 0.739444 -1.173345
v -2.417654 0.738737 -1.170504
v -2.414218 0.739136 -1.173353
v -2.412744 0.73908 -1.175162
v -2.411683 0.738068 -1.177136
v -2.410145 0.721842 -1.190021
v -2.415438 0.723003 -1.188198
v -2.417541 0.725176 -1.18611
v -2.419418 0.737851 -1.171409
v -2.421201 0.732107 -1.179305
v -2.420256 0.729863 -1.181741
v -2.410777 0.73627 -1.179483
v -2.409988 0.733963 -1.181916
v -2.409276 0.731427 -1.18415
v -2.419091 0.727508 -1.183983
vn -0.1102 0.8371 -0.5357
vn -0.3229 0.786 -0.5272
vn -0.3113 0.755 -0.5771
vn -0.1211 0.8003 -0.5873
vn -0.1251 0.7838 -0.6082
vn -0.1181 0.8353 -0.5369
vn -0.1134 0.8677 -0.4839
vn -0.1658 0.8726 -0.4593
vn -0.3385 0.8288 -0.4455
vn -0.5124 0.6765 -0.5289
vn -0.5054 0.6807 -0.5303
vn -0.4671 0.6472 -0.6023
vn -0.4805 0.6567 -0.5812
vn -0.4941 0.7416 -0.4537
vn -0.5295 0.7016 -0.4767
vn -0.35 0.551 -0.7575
vn -0.3142 0.5606 -0.7661
vn -0.3024 0.5383 -0.7866
vn -0.3478 0.5235 -0.7777
vn -0.2384 0.5633 -0.7911
vn -0.2503 0.5942 -0.7643
vn -0.2728 0.6531 -0.7064
vn -0.382 0.5978 -0.7048
vn -0.3532 0.5981 -0.7194
vn -0.1481 0.6316 -0.761
vn -0.1314 0.61 -0.7814
vn -0.1748 0.5895 -0.7886
vn -0.1809 0.6139 -0.7683
vn -0.1771 0.6684 -0.7224
vn -0.1556 0.6882 -0.7086
vn -0.1455 0.7515 -0.6435
vn -0.2954 0.7125 -0.6365
vn -0.1556 0.7307 -0.6648
vn -0.431 0.6375 -0.6386
vn -0.4101 0.629 -0.6604
vn -0.3667 0.5016 -0.7835
vn -0.3174 0.5147 -0.7964
vn -0.3411 0.4883 -0.8032
vn -0.3694 0.4488 -0.8137
vn -0.2159 0.505 -0.8357
vn -0.2326 0.5483 -0.8032
vn -0.1028 0.6071 -0.788
vn -0.0653 0.5703 -0.8188
vn -0.1127 0.5796 -0.8071
vn -0.1479 0.5824 -0.7993
vn 0.0784 -0.83 0.5523
vn 0.3198 -0.7777 0.5412
vn 0.3071 -0.7438 0.5936
vn -0.0179 -0.8039 0.5945
vn -0.1394 -0.7936 0.5922
vn -0.1134 -0.7992 0.5902
vn -0.0443 -0.7946 0.6055
vn 0.1059 -0.8026 0.587
vn 0.3113 -0.755 0.577
vn 0.531 -0.6492 0.5446
vn 0.6499 -0.4946 0.5771
vn 0.6648 -0.4726 0.5784
vn 0.584 -0.5637 0.5841
vn 0.4932 -0.6479 0.5805
vn 0.5972 -0.5384 0.5945
vn 0.3648 -0.5448 0.755
vn 0.4653 -0.4986 0.7313
vn 0.489 -0.5294 0.6932
vn 0.3955 -0.5912 0.7028
vn 0.2728 -0.653 0.7065
vn 0.2503 -0.5941 0.7645
vn 0.2383 -0.5632 0.7912
vn 0.3656 -0.5177 0.7734
vn 0.4856 -0.4843 0.7277
vn 0.133 -0.6374 0.759
vn 0.1413 -0.6927 0.7072
vn 0.0307 -0.7125 0.701
vn 0.0277 -0.6734 0.7388
vn 0.0031 -0.6771 0.7359
vn 0.1143 -0.6181 0.7777
vn 0.1314 -0.7551 0.6423
vn 0.2954 -0.7125 0.6365
vn 0.0067 -0.7618 0.6477
vn 0.4437 -0.6303 0.637
vn 0.5389 -0.5493 0.6386
vn 0.395 -0.5047 0.7676
vn 0.5397 -0.4802 0.6915
vn 0.2361 -0.5575 0.7959
vn 0.2511 -0.5964 0.7624
vn 0.4771 -0.5201 0.7084
vn 0.5721 -0.4811 0.6642
vn 0.0839 -0.6289 0.7729
vn -0.0399 -0.7117 0.7013
vn -0.0637 -0.7349 0.6751
vn 0.0334 -0.6974 0.7159
vn 0.8985 0.1782 -0.401
vn 0.7685 -0.1445 -0.6233
vn 0.9164 0.2805 -0.2855
vn 0.5721 -0.4811 0.6642
vn 0.0483 -0.7857 -0.6167
vn -0.4752 -0.6413 -0.6023
vn 0.3115 -0.8031 -0.508
vn -0.0637 -0.7349 0.6751
vn -0.9919 0.0867 0.0932
vn -0.8997 0.2665 0.3457
vn -0.9964 -0.0691 -0.0487
vn -0.1394 -0.7936 0.5922
vn 0.2705 0.6786 0.6828
vn 0.4789 0.8166 0.3221
vn -0.1598 0.4393 0.884
vn 0.6648 -0.4726 0.5784
vn 0.6617 0.7469 0.0649
vn 0.7682 0.6353 -0.0793
vn 0.4877 -0.6104 -0.6241
vn -0.7851 -0.4946 -0.3727
vn -0.8657 -0.4307 -0.2549
vn -0.6431 0.314 0.6984
vn -0.973 -0.1939 -0.1249
vn -0.9496 -0.2724 -0.1549
vn 0.8348 0.5281 -0.1559
vn 0.8709 0.4551 -0.1855
vn 0.9005 0.3785 -0.2139
vn -0.9196 -0.3479 -0.1827
vt 0.839504 0.118056
vt 0.856743 0.205307
vt 0.741230 0.205307
vt 0.734555 0.106726
vt 0.724541 0.032791
vt 0.813647 0.052618
vt 0.868992 0.081539
vt 0.913398 0.129584
vt 0.940923 0.205307
vt 0.839504 0.292557
vt 0.813647 0.357995
vt 0.724541 0.377822
vt 0.734555 0.303887
vt 0.913398 0.281029
vt 0.868992 0.329074
vt 0.369475 0.299954
vt 0.368286 0.370940
vt 0.245840 0.351447
vt 0.246397 0.288815
vt 0.246768 0.205307
vt 0.370268 0.205307
vt 0.494283 0.205307
vt 0.492822 0.304944
vt 0.490632 0.379672
vt 0.369475 0.110659
vt 0.246397 0.121798
vt 0.245841 0.059166
vt 0.368286 0.039673
vt 0.490632 0.030941
vt 0.492822 0.105669
vt 0.616755 0.103478
vt 0.619174 0.205307
vt 0.613127 0.027106
vt 0.616755 0.307135
vt 0.613126 0.383507
vt 0.123273 0.268175
vt 0.123047 0.315326
vt 0.054743 0.283353
vt 0.030912 0.249131
vt 0.030973 0.205306
vt 0.123423 0.205306
vt 0.123273 0.142438
vt 0.030912 0.161481
vt 0.054744 0.127260
vt 0.123047 0.095287
vt 0.839504 0.118056
vt 0.856743 0.205307
vt 0.968983 0.205307
vt 0.938030 0.133427
vt 0.876123 0.061548
vt 0.805028 0.030806
vt 0.721203 0.008146
vt 0.734555 0.106726
vt 0.741230 0.205307
vt 0.839504 0.292557
vt 0.805028 0.379807
vt 0.876123 0.349065
vt 0.938030 0.277186
vt 0.734555 0.303887
vt 0.721203 0.402467
vt 0.369475 0.299954
vt 0.367890 0.394602
vt 0.489902 0.404581
vt 0.492822 0.304944
vt 0.494283 0.205307
vt 0.370268 0.205307
vt 0.246768 0.205307
vt 0.246397 0.288815
vt 0.245655 0.372324
vt 0.369475 0.110659
vt 0.492822 0.105669
vt 0.489902 0.006032
vt 0.367890 0.016011
vt 0.245655 0.038289
vt 0.246397 0.121798
vt 0.616755 0.103478
vt 0.619174 0.205307
vt 0.611917 0.001649
vt 0.616755 0.307135
vt 0.611917 0.408964
vt 0.123273 0.268175
vt 0.122972 0.331043
vt 0.123423 0.205306
vt 0.000156 0.205306
vt 0.000125 0.242784
vt 0.000064 0.280261
vt 0.123273 0.142438
vt 0.122972 0.079570
vt 0.000064 0.130352
vt 0.000125 0.167829
vt 0.122972 0.331043
vt 0.030806 0.283587
vt 0.245655 0.372324
vt 0.030806 0.283587
vt 0.000125 0.167829
vt 0.030806 0.127026
vt 0.000156 0.205306
vt 0.030806 0.127026
vt 0.805028 0.030806
vt 0.873826 0.071832
vt 0.721203 0.008146
vt 0.873826 0.071832
vt 0.938030 0.277186
vt 0.873826 0.338781
vt 0.968983 0.205307
vt 0.873826 0.338781
vt 0.805028 0.379807
vt 0.721203 0.402467
vt 0.000125 0.242784
vt 0.122972 0.079570
vt 0.245655 0.038289
vt 0.938030 0.133427
vt 0.611917 0.001649
vt 0.489902 0.006032
vt 0.611917 0.408964
vt 0.489902 0.404581
vt 0.367890 0.394602
vt 0.367890 0.016011
f 1/1/1 2/2/2 3/3/3
f 1/1/1 3/3/3 4/4/4
f 1/1/1 4/4/4 5/5/5
f 1/1/1 5/5/5 6/6/6
f 1/1/1 6/6/6 7/7/7
f 1/1/1 7/7/7 8/8/8
f 1/1/1 8/8/8 9/9/9
f 1/1/1 9/9/9 2/2/2
f 10/10/10 11/11/11 12/12/12
f 10/10/10 12/12/12 13/13/13
f 10/10/10 13/13/13 3/3/3
f 10/10/10 3/3/3 2/2/2
f 10/10/10 2/2/2 9/9/9
f 10/10/10 9/9/9 14/14/14
f 10/10/10 14/14/14 15/15/15
f 10/10/10 15/15/15 11/11/11
f 16/16/16 17/17/17 18/18/18
f 16/16/16 18/18/18 19/19/19
f 16/16/16 19/19/19 20/20/20
f 16/16/16 20/20/20 21/21/21
f 16/16/16 21/21/21 22/22/22
f 16/16/16 22/22/22 23/23/23
f 16/16/16 23/23/23 24/24/24
f 16/16/16 24/24/24 17/17/17
f 25/25/25 21/21/21 20/20/20
f 25/25/25 20/20/20 26/26/26
f 25/25/25 26/26/26 27/27/27
f 25/25/25 27/27/27 28/28/28
f 25/25/25 28/28/28 29/29/29
f 25/25/25 29/29/29 30/30/30
f 25/25/25 30/30/30 22/22/22
f 25/25/25 22/22/22 21/21/21
f 31/31/31 32/32/32 22/22/22
f 31/31/31 22/22/22 30/30/30
f 31/31/31 30/30/30 29/29/29
f 31/31/31 29/29/29 33/33/33
f 31/31/31 33/33/33 5/5/5
f 31/31/31 5/5/5 4/4/4
f 31/31/31 4/4/4 3/3/3
f 31/31/31 3/3/3 32/32/32
f 34/34/34 35/35/35 24/24/24
f 34/34/34 24/24/24 23/23/23
f 34/34/34 23/23/23 22/22/22
f 34/34/34 22/22/22 32/32/32
f 34/34/34 32/32/32 3/3/3
f 34/34/34 3/3/3 13/13/13
f 34/34/34 13/13/13 12/12/12
f 34/34/34 12/12/12 35/35/35
f 36/36/36 37/37/37 38/38/38
f 36/36/36 38/38/38 39/39/39
f 36/36/36 39/39/39 40/40/40
f 36/36/36 40/40/40 41/41/41
f 36/36/36 41/41/41 20/20/20
f 36/36/36 20/20/20 19/19/19
f 36/36/36 19/19/19 18/18/18
f 36/36/36 18/18/18 37/37/37
f 42/42/42 41/41/41 40/40/40
f 42/42/42 40/40/40 43/43/43
f 42/42/42 43/43/43 44/44/44
f 42/42/42 44/44/44 45/45/45
f 42/42/42 45/45/45 27/27/27
f 42/42/42 27/27/27 26/26/26
f 42/42/42 26/26/26 20/20/20
f 42/42/42 20/20/20 41/41/41
f 46/46/46 47/47/47 48/48/48
f 46/46/46 48/48/48 49/49/49
f 46/46/46 49/49/49 50/50/50
f 46/46/46 50/50/50 51/51/51
f 46/46/46 51/51/51 52/52/52
f 46/46/46 52/52/52 53/53/53
f 46/46/46 53/53/53 54/54/54
f 46/46/46 54/54/54 47/47/47
f 55/55/55 56/56/56 57/57/57
f 55/55/55 57/57/57 58/58/58
f 55/55/55 58/58/58 48/48/48
f 55/55/55 48/48/48 47/47/47
f 55/55/55 47/47/47 54/54/54
f 55/55/55 54/54/54 59/59/59
f 55/55/55 59/59/59 60/60/60
f 55/55/55 60/60/60 56/56/56
f 61/61/61 62/62/62 63/63/63
f 61/61/61 63/63/63 64/64/64
f 61/61/61 64/64/64 65/65/65
f 61/61/61 65/65/65 66/66/66
f 61/61/61 66/66/66 67/67/67
f 61/61/61 67/67/67 68/68/68
f 61/61/61 68/68/68 69/69/69
f 61/61/61 69/69/69 62/62/62
f 70/70/70 66/66/66 65/65/65
f 70/70/70 65/65/65 71/71/71
f 70/70/70 71/71/71 72/72/72
f 70/70/70 72/72/72 73/73/73
f 70/70/70 73/73/73 74/74/74
f 70/70/70 74/74/74 75/75/75
f 70/70/70 75/75/75 67/67/67
f 70/70/70 67/67/67 66/66/66
f 76/76/76 77/77/77 54/54/54
f 76/76/76 54/54/54 53/53/53
f 76/76/76 53/53/53 52/52/52
f 76/76/76 52/52/52 78/78/78
f 76/76/76 78/78/78 72/72/72
f 76/76/76 72/72/72 71/71/71
f 76/76/76 71/71/71 65/65/65
f 76/76/76 65/65/65 77/77/77
f 79/79/79 80/80/80 60/60/60
f 79/79/79 60/60/60 59/59/59
f 79/79/79 59/59/59 54/54/54
f 79/79/79 54/54/54 77/77/77
f 79/79/79 77/77/77 65/65/65
f 79/79/79 65/65/65 64/64/64
f 79/79/79 64/64/64 63/63/63
f 79/79/79 63/63/63 80/80/80
f 81/81/81 82/82/82 69/69/69
f 81/81/81 69/69/69 68/68/68
f 81/81/81 68/68/68 67/67/67
f 81/81/81 67/67/67 83/83/83
f 81/81/81 83/83/83 84/84/84
f 81/81/81 84/84/84 85/85/85
f 81/81/81 85/85/85 86/86/86
f 81/81/81 86/86/86 82/82/82
f 87/87/87 83/83/83 67/67/67
f 87/87/87 67/67/67 75/75/75
f 87/87/87 75/75/75 74/74/74
f 87/87/87 74/74/74 88/88/88
f 87/87/87 88/88/88 89/89/89
f 87/87/87 89/89/89 90/90/90
f 87/87/87 90/90/90 84/84/84
f 87/87/87 84/84/84 83/83/83
f 91/91/91 92/92/92 38/38/38
f 91/91/91 38/38/38 37/37/37
f 91/91/91 37/37/37 18/18/18
f 91/91/91 18/18/18 93/93/93
f 91/91/91 93/93/93 69/69/69
f 91/91/91 69/69/69 82/82/82
f 91/91/91 82/82/82 94/94/94
f 91/91/91 94/94/94 92/92/92
f 95/95/95 96/96/96 44/44/44
f 95/95/95 44/44/44 43/43/43
f 95/95/95 43/43/43 40/40/40
f 95/95/95 40/40/40 97/97/97
f 95/95/95 97/97/97 84/84/84
f 95/95/95 84/84/84 90/90/90
f 95/95/95 90/90/90 98/98/98
f 95/95/95 98/98/98 96/96/96
f 99/99/99 100/100/100 7/7/7
f 99/99/99 7/7/7 6/6/6
f 99/99/99 6/6/6 5/5/5
f 99/99/99 5/5/5 101/101/101
f 99/99/99 101/101/101 52/52/52
f 99/99/99 52/52/52 51/51/51
f 99/99/99 51/51/51 102/102/102
f 99/99/99 102/102/102 100/100/100
f 103/103/103 104/104/104 15/15/15
f 103/103/103 15/15/15 14/14/14
f 103/103/103 14/14/14 9/9/9
f 103/103/103 9/9/9 105/105/105
f 103/103/103 105/105/105 48/48/48
f 103/103/103 48/48/48 58/58/58
f 103/103/103 58/58/58 106/106/106
f 103/103/103 106/106/106 104/104/104
f 107/107/107 108/108/108 12/12/12
f 107/107/107 12/12/12 11/11/11
f 107/107/107 11/11/11 15/15/15
f 107/107/107 15/15/15 104/104/104
f 107/107/107 104/104/104 106/106/106
f 107/107/107 106/106/106 56/56/56
f 107/107/107 56/56/56 60/60/60
f 107/107/107 60/60/60 108/108/108
f 109/109/109 97/97/97 40/40/40
f 109/109/109 40/40/40 39/39/39
f 109/109/109 39/39/39 38/38/38
f 109/109/109 38/38/38 92/92/92
f 109/109/109 92/92/92 94/94/94
f 109/109/109 94/94/94 85/85/85
f 109/109/109 85/85/85 84/84/84
f 109/109/109 84/84/84 97/97/97
f 110/110/110 111/111/111 27/27/27
f 110/110/110 27/27/27 45/45/45
f 110/110/110 45/45/45 44/44/44
f 110/110/110 44/44/44 96/96/96
f 110/110/110 96/96/96 98/98/98
f 110/110/110 98/98/98 88/88/88
f 110/110/110 88/88/88 74/74/74
f 110/110/110 74/74/74 111/111/111
f 112/112/112 105/105/105 9/9/9
f 112/112/112 9/9/9 8/8/8
f 112/112/112 8/8/8 7/7/7
f 112/112/112 7/7/7 100/100/100
f 112/112/112 100/100/100 102/102/102
f 112/112/112 102/102/102 49/49/49
f 112/112/112 49/49/49 48/48/48
f 112/112/112 48/48/48 105/105/105
f 113/113/113 101/101/101 5/5/5
f 113/113/113 5/5/5 33/33/33
f 113/113/113 33/33/33 29/29/29
f 113/113/113 29/29/29 114/114/114
f 113/113/113 114/114/114 72/72/72
f 113/113/113 72/72/72 78/78/78
f 113/113/113 78/78/78 52/52/52
f 113/113/113 52/52/52 101/101/101
f 115/115/115 116/116/116 24/24/24
f 115/115/115 24/24/24 35/35/35
f 115/115/115 35/35/35 12/12/12
f 115/115/115 12/12/12 108/108/108
f 115/115/115 108/108/108 60/60/60
f 115/115/115 60/60/60 80/80/80
f 115/115/115 80/80/80 63/63/63
f 115/115/115 63/63/63 116/116/116
f 117/117/117 93/93/93 18/18/18
f 117/117/117 18/18/18 17/17/17
f 117/117/117 17/17/17 24/24/24
f 117/117/117 24/24/24 116/116/116
f 117/117/117 116/116/116 63/63/63
f 117/117/117 63/63/63 62/62/62
f 117/117/117 62/62/62 69/69/69
f 117/117/117 69/69/69 93/93/93
f 118/118/118 114/114/114 29/29/29
f 118/118/118 29/29/29 28/28/28
f 118/118/118 28/28/28 27/27/27
f 118/118/118 27/27/27 111/111/111
f 118/118/118 111/111/111 74/74/74
f 118/118/118 74/74/74 73/73/73
f 118/118/118 73/73/73 72/72/72
f 118/118/118 72/72/72 114/114/114
