v -2.373819 0.707099 -1.156835
v -2.375006 0.707762 -1.155067
v -2.373227 0.70571 -1.153867
v -2.37212 0.705142 -1.156012
v -2.371047 0.704761 -1.157559
v -2.372555 0.706518 -1.158019
v -2.373798 0.707561 -1.157956
v -2.375134 0.708428 -1.15735
v -2.376385 0.709196 -1.155952
v -2.375148 0.708252 -1.152896
v -2.374886 0.708538 -1.151111
v -2.373694 0.707057 -1.149713
v -2.373631 0.706452 -1.151535
v -2.376284 0.709426 -1.153941
v -2.375686 0.709198 -1.152362
v -2.369337 0.69902 -1.147966
v -2.369676 0.699594 -1.14627
v -2.368513 0.696697 -1.145563
v -2.368226 0.696185 -1.147067
v -2.367726 0.695553 -1.149039
v -2.368759 0.698308 -1.150194
v -2.36998 0.700955 -1.15138
v -2.370567 0.701711 -1.149047
v -2.370892 0.702329 -1.147268
v -2.367857 0.697737 -1.152353
v -2.366918 0.695051 -1.150946
v -2.36622 0.694709 -1.152361
v -2.367083 0.697346 -1.153956
v -2.368179 0.699977 -1.155308
v -2.369019 0.700369 -1.153636
v -2.37048 0.702868 -1.1549
v -2.371511 0.703432 -1.152621
v -2.369545 0.702515 -1.156582
v -2.372051 0.70423 -1.150245
v -2.372297 0.704902 -1.148424
v -2.3671 0.693237 -1.146414
v -2.367266 0.693638 -1.14528
v -2.366575 0.691814 -1.145417
v -2.366276 0.690972 -1.14602
v -2.366092 0.690619 -1.147044
v -2.366763 0.692751 -1.147894
v -2.366123 0.69239 -1.149309
v -2.365606 0.690391 -1.148004
v -2.365371 0.69077 -1.148986
v -2.365554 0.692153 -1.150356
v -2.373985 0.706942 -1.15688
v -2.375183 0.707611 -1.155083
v -2.376516 0.709081 -1.155962
v -2.375256 0.708308 -1.157384
v -2.373886 0.707471 -1.157987
v -2.372673 0.706397 -1.158067
v -2.371171 0.704647 -1.157607
v -2.372293 0.704992 -1.156057
v -2.37341 0.705566 -1.153886
v -2.375333 0.708111 -1.152882
v -2.375029 0.708439 -1.151086
v -2.37579 0.709122 -1.152346
v -2.376422 0.709319 -1.153927
v -2.373821 0.706317 -1.151528
v -2.373841 0.706961 -1.149694
v -2.369547 0.698917 -1.147984
v -2.369836 0.69952 -1.146274
v -2.371047 0.702248 -1.147267
v -2.370771 0.701598 -1.149059
v -2.370178 0.700835 -1.151412
v -2.368963 0.698199 -1.150231
v -2.367934 0.695452 -1.14908
v -2.36844 0.69609 -1.147088
v -2.368675 0.696629 -1.145569
v -2.368054 0.697623 -1.152408
v -2.369209 0.700244 -1.153688
v -2.368318 0.699881 -1.155357
v -2.367227 0.697258 -1.154007
v -2.366366 0.694627 -1.152414
v -2.367118 0.694944 -1.151005
v -2.370662 0.70273 -1.154949
v -2.371701 0.703299 -1.152646
v -2.369676 0.702409 -1.15663
v -2.372248 0.704105 -1.150247
v -2.372448 0.704813 -1.148414
v -2.367314 0.693145 -1.146436
v -2.36743 0.693573 -1.145285
v -2.366971 0.692653 -1.147936
v -2.366248 0.690546 -1.147076
v -2.366437 0.690904 -1.146035
v -2.366696 0.691765 -1.145424
v -2.366324 0.692287 -1.149371
v -2.3657 0.692073 -1.150412
v -2.365481 0.690711 -1.149025
v -2.365757 0.690314 -1.148051
v -2.367395 0.693744 -1.144902
v -2.366395 0.691263 -1.14519
v -2.368681 0.696838 -1.145062
v -2.366696 0.691765 -1.145424
v -2.365501 0.689691 -1.14759
v -2.365188 0.690216 -1.148766
v -2.365938 0.689876 -1.146775
v -2.365481 0.690711 -1.149025
v -2.372185 0.70627 -1.158438
v -2.373764 0.707613 -1.158234
v -2.370743 0.704583 -1.158099
v -2.373886 0.707471 -1.157987
v -2.376724 0.709769 -1.154282
v -2.375806 0.709384 -1.152182
v -2.376902 0.709622 -1.156251
v -2.37579 0.709122 -1.152346
v -2.374863 0.708591 -1.150502
v -2.373781 0.707218 -1.149094
v -2.366072 0.690187 -1.145895
v -2.365428 0.692038 -1.150732
v -2.366051 0.694558 -1.152858
v -2.375626 0.708817 -1.157537
v -2.36929 0.70235 -1.157167
v -2.36796 0.699803 -1.155889
v -2.372447 0.705087 -1.14781
v -2.37107 0.7025 -1.146672
v -2.36986 0.699753 -1.145704
v -2.366888 0.697176 -1.154515
vn 0.6566 0.7114 0.2505
vn 0.728 0.6841 0.0454
vn 0.7633 0.6423 0.0696
vn 0.7017 0.6656 0.2539
vn 0.7195 0.6457 0.2555
vn 0.6605 0.7102 0.2435
vn 0.616 0.7525 0.2331
vn 0.6161 0.7674 0.1771
vn 0.6676 0.7445 0.0074
vn 0.79 0.5958 -0.1448
vn 0.789 0.5988 -0.1373
vn 0.833 0.5473 -0.0808
vn 0.8209 0.5622 -0.0995
vn 0.7252 0.6729 -0.1459
vn 0.754 0.6328 -0.176
vn 0.9098 0.4094 0.0681
vn 0.9043 0.4136 0.1055
vn 0.9144 0.3864 0.1201
vn 0.9228 0.3782 0.073
vn 0.8962 0.4034 0.1843
vn 0.8818 0.4404 0.1687
vn 0.848 0.5121 0.1363
vn 0.8827 0.4692 0.0269
vn 0.8841 0.4636 0.0588
vn 0.8428 0.4675 0.2666
vn 0.8509 0.4405 0.2859
vn 0.8721 0.4231 0.2457
vn 0.8601 0.4519 0.2366
vn 0.8256 0.5143 0.232
vn 0.8075 0.5344 0.2496
vn 0.7546 0.6087 0.2448
vn 0.8036 0.5868 0.0994
vn 0.7746 0.585 0.2403
vn 0.8493 0.5266 -0.0359
vn 0.8591 0.5117 -0.0099
vn 0.9323 0.3576 0.0542
vn 0.9258 0.3628 0.1063
vn 0.9375 0.338 0.0827
vn 0.9523 0.3001 0.0541
vn 0.918 0.3352 0.2116
vn 0.9025 0.3858 0.1916
vn 0.8447 0.4336 0.3138
vn 0.8515 0.3875 0.3533
vn 0.8618 0.4036 0.3073
vn 0.8696 0.4114 0.2729
vn -0.6572 -0.6979 -0.2846
vn -0.7379 -0.6728 -0.0521
vn -0.7747 -0.6274 -0.0778
vn -0.6518 -0.6542 -0.3836
vn -0.5984 -0.6329 -0.4912
vn -0.6082 -0.6414 -0.4676
vn -0.6495 -0.6403 -0.41
vn -0.6956 -0.6665 -0.2681
vn -0.7632 -0.6423 -0.0696
vn -0.8074 -0.5676 0.1605
vn -0.8613 -0.422 0.2828
vn -0.8654 -0.4015 0.2998
vn -0.8516 -0.4809 0.2084
vn -0.8241 -0.5551 0.1127
vn -0.8623 -0.4558 0.2207
vn -0.9126 -0.4054 -0.0526
vn -0.9252 -0.3753 0.0556
vn -0.9054 -0.4156 0.0864
vn -0.8854 -0.4646 -0.0129
vn -0.8481 -0.512 -0.1364
vn -0.8819 -0.4402 -0.1688
vn -0.8963 -0.4033 -0.1844
vn -0.9253 -0.3753 -0.0542
vn -0.928 -0.3641 0.0779
vn -0.8357 -0.4721 -0.2805
vn -0.8011 -0.5377 -0.2629
vn -0.7533 -0.5474 -0.3643
vn -0.7801 -0.5011 -0.3746
vn -0.7679 -0.503 -0.3965
vn -0.8419 -0.4476 -0.3013
vn -0.7483 -0.6111 -0.2579
vn -0.8036 -0.5868 -0.0994
vn -0.7032 -0.6044 -0.3743
vn -0.852 -0.5212 0.0492
vn -0.8798 -0.4513 0.1491
vn -0.9301 -0.3666 -0.0231
vn -0.9169 -0.373 0.1416
vn -0.8987 -0.3965 -0.1872
vn -0.8807 -0.443 -0.1675
vn -0.9127 -0.4023 0.0713
vn -0.9059 -0.3827 0.1813
vn -0.8268 -0.4562 -0.3289
vn -0.7246 -0.5398 -0.4284
vn -0.6949 -0.5657 -0.444
vn -0.7655 -0.5299 -0.3648
vn 0.021 0.0006 0.9998
vn 0.2241 -0.3477 0.9104
vn -0.0747 0.1237 0.9895
vn -0.9059 -0.3827 0.1813
vn 0.413 -0.8993 0.1434
vn 0.6365 -0.7056 -0.3115
vn 0.2051 -0.9186 0.3376
vn -0.6949 -0.5657 -0.444
vn 0.3351 0.2005 -0.9206
vn 0.0985 0.4196 -0.9023
vn 0.4407 0.0192 -0.8974
vn -0.5984 -0.6329 -0.4912
vn -0.6194 0.7785 0.1017
vn -0.3588 0.816 0.4532
vn -0.6613 0.6299 -0.4073
vn -0.8654 -0.4015 0.2998
vn -0.2133 0.6759 0.7055
vn -0.1444 0.5265 0.8378
vn 0.2675 -0.773 0.5752
vn 0.5795 -0.484 -0.6557
vn 0.5166 -0.3892 -0.7626
vn -0.3166 0.5159 -0.796
vn 0.4802 -0.1204 -0.8688
vn 0.4854 -0.2053 -0.8498
vn -0.1194 0.3994 0.909
vn -0.1186 0.3184 0.9405
vn -0.1174 0.2358 0.9647
vn 0.4865 -0.2878 -0.8249
vt 0.839504 0.118056
vt 0.856743 0.205307
vt 0.741230 0.205307
vt 0.734555 0.106726
vt 0.724541 0.032791
vt 0.813647 0.052618
vt 0.868992 0.081539
vt 0.913398 0.129584
vt 0.940923 0.205307
vt 0.839504 0.292557
vt 0.813647 0.357995
vt 0.724541 0.377822
vt 0.734555 0.303887
vt 0.913398 0.281029
vt 0.868992 0.329074
vt 0.369475 0.299954
vt 0.368286 0.370940
vt 0.245840 0.351447
vt 0.246397 0.288815
vt 0.246768 0.205307
vt 0.370268 0.205307
vt 0.494283 0.205307
vt 0.492822 0.304944
vt 0.490632 0.379672
vt 0.369475 0.110659
vt 0.246397 0.121798
vt 0.245841 0.059166
vt 0.368286 0.039673
vt 0.490632 0.030941
vt 0.492822 0.105669
vt 0.616755 0.103478
vt 0.619174 0.205307
vt 0.613127 0.027106
vt 0.616755 0.307135
vt 0.613126 0.383507
vt 0.123273 0.268175
vt 0.123047 0.315326
vt 0.054743 0.283353
vt 0.030912 0.249131
vt 0.030973 0.205306
vt 0.123423 0.205306
vt 0.123273 0.142438
vt 0.030912 0.161481
vt 0.054744 0.127260
vt 0.123047 0.095287
vt 0.839504 0.118056
vt 0.856743 0.205307
vt 0.968983 0.205307
vt 0.938030 0.133427
vt 0.876123 0.061548
vt 0.805028 0.030806
vt 0.721203 0.008146
vt 0.734555 0.106726
vt 0.741230 0.205307
vt 0.839504 0.292557
vt 0.805028 0.379807
vt 0.876123 0.349065
vt 0.938030 0.277186
vt 0.734555 0.303887
vt 0.721203 0.402467
vt 0.369475 0.299954
vt 0.367890 0.394602
vt 0.489902 0.404581
vt 0.492822 0.304944
vt 0.494283 0.205307
vt 0.370268 0.205307
vt 0.246768 0.205307
vt 0.246397 0.288815
vt 0.245655 0.372324
vt 0.369475 0.110659
vt 0.492822 0.105669
vt 0.489902 0.006032
vt 0.367890 0.016011
vt 0.245655 0.038289
vt 0.246397 0.121798
vt 0.616755 0.103478
vt 0.619174 0.205307
vt 0.611917 0.001649
vt 0.616755 0.307135
vt 0.611917 0.408964
vt 0.123273 0.268175
vt 0.122972 0.331043
vt 0.123423 0.205306
vt 0.000156 0.205306
vt 0.000125 0.242784
vt 0.000064 0.280261
vt 0.123273 0.142438
vt 0.122972 0.079570
vt 0.000064 0.130352
vt 0.000125 0.167829
vt 0.122972 0.331043
vt 0.030806 0.283587
vt 0.245655 0.372324
vt 0.030806 0.283587
vt 0.000125 0.167829
vt 0.030806 0.127026
vt 0.000156 0.205306
vt 0.030806 0.127026
vt 0.805028 0.030806
vt 0.873826 0.071832
vt 0.721203 0.008146
vt 0.873826 0.071832
vt 0.938030 0.277186
vt 0.873826 0.338781
vt 0.968983 0.205307
vt 0.873826 0.338781
vt 0.805028 0.379807
vt 0.721203 0.402467
vt 0.000125 0.242784
vt 0.122972 0.079570
vt 0.245655 0.038289
vt 0.938030 0.133427
vt 0.611917 0.001649
vt 0.489902 0.006032
vt 0.611917 0.408964
vt 0.489902 0.404581
vt 0.367890 0.394602
vt 0.367890 0.016011
f 1/1/1 2/2/2 3/3/3
f 1/1/1 3/3/3 4/4/4
f 1/1/1 4/4/4 5/5/5
f 1/1/1 5/5/5 6/6/6
f 1/1/1 6/6/6 7/7/7
f 1/1/1 7/7/7 8/8/8
f 1/1/1 8/8/8 9/9/9
f 1/1/1 9/9/9 2/2/2
f 10/10/10 11/11/11 12/12/12
f 10/10/10 12/12/12 13/13/13
f 10/10/10 13/13/13 3/3/3
f 10/10/10 3/3/3 2/2/2
f 10/10/10 2/2/2 9/9/9
f 10/10/10 9/9/9 14/14/14
f 10/10/10 14/14/14 15/15/15
f 10/10/10 15/15/15 11/11/11
f 16/16/16 17/17/17 18/18/18
f 16/16/16 18/18/18 19/19/19
f 16/16/16 19/19/19 20/20/20
f 16/16/16 20/20/20 21/21/21
f 16/16/16 21/21/21 22/22/22
f 16/16/16 22/22/22 23/23/23
f 16/16/16 23/23/23 24/24/24
f 16/16/16 24/24/24 17/17/17
f 25/25/25 21/21/21 20/20/20
f 25/25/25 20/20/20 26/26/26
f 25/25/25 26/26/26 27/27/27
f 25/25/25 27/27/27 28/28/28
f 25/25/25 28/28/28 29/29/29
f 25/25/25 29/29/29 30/30/30
f 25/25/25 30/30/30 22/22/22
f 25/25/25 22/22/22 21/21/21
f 31/31/31 32/32/32 22/22/22
f 31/31/31 22/22/22 30/30/30
f 31/31/31 30/30/30 29/29/29
f 31/31/31 29/29/29 33/33/33
f 31/31/31 33/33/33 5/5/5
f 31/31/31 5/5/5 4/4/4
f 31/31/31 4/4/4 3/3/3
f 31/31/31 3/3/3 32/32/32
f 34/34/34 35/35/35 24/24/24
f 34/34/34 24/24/24 23/23/23
f 34/34/34 23/23/23 22/22/22
f 34/34/34 22/22/22 32/32/32
f 34/34/34 32/32/32 3/3/3
f 34/34/34 3/3/3 13/13/13
f 34/34/34 13/13/13 12/12/12
f 34/34/34 12/12/12 35/35/35
f 36/36/36 37/37/37 38/38/38
f 36/36/36 38/38/38 39/39/39
f 36/36/36 39/39/39 40/40/40
f 36/36/36 40/40/40 41/41/41
f 36/36/36 41/41/41 20/20/20
f 36/36/36 20/20/20 19/19/19
f 36/36/36 19/19/19 18/18/18
f 36/36/36 18/18/18 37/37/37
f 42/42/42 41/41/41 40/40/40
f 42/42/42 40/40/40 43/43/43
f 42/42/42 43/43/43 44/44/44
f 42/42/42 44/44/44 45/45/45
f 42/42/42 45/45/45 27/27/27
f 42/42/42 27/27/27 26/26/26
f 42/42/42 26/26/26 20/20/20
f 42/42/42 20/20/20 41/41/41
f 46/46/46 47/47/47 48/48/48
f 46/46/46 48/48/48 49/49/49
f 46/46/46 49/49/49 50/50/50
f 46/46/46 50/50/50 51/51/51
f 46/46/46 51/51/51 52/52/52
f 46/46/46 52/52/52 53/53/53
f 46/46/46 53/53/53 54/54/54
f 46/46/46 54/54/54 47/47/47
f 55/55/55 56/56/56 57/57/57
f 55/55/55 57/57/57 58/58/58
f 55/55/55 58/58/58 48/48/48
f 55/55/55 48/48/48 47/47/47
f 55/55/55 47/47/47 54/54/54
f 55/55/55 54/54/54 59/59/59
f 55/55/55 59/59/59 60/60/60
f 55/55/55 60/60/60 56/56/56
f 61/61/61 62/62/62 63/63/63
f 61/61/61 63/63/63 64/64/64
f 61/61/61 64/64/64 65/65/65
f 61/61/61 65/65/65 66/66/66
f 61/61/61 66/66/66 67/67/67
f 61/61/61 67/67/67 68/68/68
f 61/61/61 68/68/68 69/69/69
f 61/61/61 69/69/69 62/62/62
f 70/70/70 66/66/66 65/65/65
f 70/70/70 65/65/65 71/71/71
f 70/70/70 71/71/71 72/72/72
f 70/70/70 72/72/72 73/73/73
f 70/70/70 73/73/73 74/74/74
f 70/70/70 74/74/74 75/75/75
f 70/70/70 75/75/75 67/67/67
f 70/70/70 67/67/67 66/66/66
f 76/76/76 77/77/77 54/54/54
f 76/76/76 54/54/54 53/53/53
f 76/76/76 53/53/53 52/52/52
f 76/76/76 52/52/52 78/78/78
f 76/76/76 78/78/78 72/72/72
f 76/76/76 72/72/72 71/71/71
f 76/76/76 71/71/71 65/65/65
f 76/76/76 65/65/65 77/77/77
f 79/79/79 80/80/80 60/60/60
f 79/79/79 60/60/60 59/59/59
f 79/79/79 59/59/59 54/54/54
f 79/79/79 54/54/54 77/77/77
f 79/79/79 77/77/77 65/65/65
f 79/79/79 65/65/65 64/64/64
f 79/79/79 64/64/64 63/63/63
f 79/79/79 63/63/63 80/80/80
f 81/81/81 82/82/82 69/69/69
f 81/81/81 69/69/69 68/68/68
f 81/81/81 68/68/68 67/67/67
f 81/81/81 67/67/67 83/83/83
f 81/81/81 83/83/83 84/84/84
f 81/81/81 84/84/84 85/85/85
f 81/81/81 85/85/85 86/86/86
f 81/81/81 86/86/86 82/82/82
f 87/87/87 83/83/83 67/67/67
f 87/87/87 67/67/67 75/75/75
f 87/87/87 75/75/75 74/74/74
f 87/87/87 74/74/74 88/88/88
f 87/87/87 88/88/88 89/89/89
f 87/87/87 89/89/89 90/90/90
f 87/87/87 90/90/90 84/84/84
f 87/87/87 84/84/84 83/83/83
f 91/91/91 92/92/92 38/38/38
f 91/91/91 38/38/38 37/37/37
f 91/91/91 37/37/37 18/18/18
f 91/91/91 18/18/18 93/93/93
f 91/91/91 93/93/93 69/69/69
f 91/91/91 69/69/69 82/82/82
f 91/91/91 82/82/82 94/94/94
f 91/91/91 94/94/94 92/92/92
f 95/95/95 96/96/96 44/44/44
f 95/95/95 44/44/44 43/43/43
f 95/95/95 43/43/43 40/40/40
f 95/95/95 40/40/40 97/97/97
f 95/95/95 97/97/97 84/84/84
f 95/95/95 84/84/84 90/90/90
f 95/95/95 90/90/90 98/98/98
f 95/95/95 98/98/98 96/96/96
f 99/99/99 100/100/100 7/7/7
f 99/99/99 7/7/7 6/6/6
f 99/99/99 6/6/6 5/5/5
f 99/99/99 5/5/5 101/101/101
f 99/99/99 101/101/101 52/52/52
f 99/99/99 52/52/52 51/51/51
f 99/99/99 51/51/51 102/102/102
f 99/99/99 102/102/102 100/100/100
f 103/103/103 104/104/104 15/15/15
f 103/103/103 15/15/15 14/14/14
f 103/103/103 14/14/14 9/9/9
f 103/103/103 9/9/9 105/105/105
f 103/103/103 105/105/105 48/48/48
f 103/103/103 48/48/48 58/58/58
f 103/103/103 58/58/58 106/106/106
f 103/103/103 106/106/106 104/104/104
f 107/107/107 108/108/108 12/12/12
f 107/107/107 12/12/12 11/11/11
f 107/107/107 11/11/11 15/15/15
f 107/107/107 15/15/15 104/104/104
f 107/107/107 104/104/104 106/106/106
f 107/107/107 106/106/106 56/56/56
f 107/107/107 56/56/56 60/60/60
f 107/107/107 60/60/60 108/108/108
f 109/109/109 97/97/97 40/40/40
f 109/109/109 40/40/40 39/39/39
f 109/109/109 39/39/39 38/38/38
f 109/109/109 38/38/38 92/92/92
f 109/109/109 92/92/92 94/94/94
f 109/109/109 94/94/94 85/85/85
f 109/109/109 85/85/85 84/84/84
f 109/109/109 84/84/84 97/97/97
f 110/110/110 111/111/111 27/27/27
f 110/110/110 27/27/27 45/45/45
f 110/110/110 45/45/45 44/44/44
f 110/110/110 44/44/44 96/96/96
f 110/110/110 96/96/96 98/98/98
f 110/110/110 98/98/98 88/88/88
f 110/110/110 88/88/88 74/74/74
f 110/110/110 74/74/74 111/111/111
f 112/112/112 105/105/105 9/9/9
f 112/112/112 9/9/9 8/8/8
f 112/112/112 8/8/8 7/7/7
f 112/112/112 7/7/7 100/100/100
f 112/112/112 100/100/100 102/102/102
f 112/112/112 102/102/102 49/49/49
f 112/112/112 49/49/49 48/48/48
f 112/112/112 48/48/48 105/105/105
f 113/113/113 101/101/101 5/5/5
f 113/113/113 5/5/5 33/33/33
f 113/113/113 33/33/33 29/29/29
f 113/113/113 29/29/29 114/114/114
f 113/113/113 114/114/114 72/72/72
f 113/113/113 72/72/72 78/78/78
f 113/113/113 78/78/78 52/52/52
f 113/113/113 52/52/52 101/101/101
f 115/115/115 116/116/116 24/24/24
f 115/115/115 24/24/24 35/35/35
f 115/115/115 35/35/35 12/12/12
f 115/115/115 12/12/12 108/108/108
f 115/115/115 108/108/108 60/60/60
f 115/115/115 60/60/60 80/80/80
f 115/115/115 80/80/80 63/63/63
f 115/115/115 63/63/63 116/116/116
f 117/117/117 93/93/93 18/18/18
f 117/117/117 18/18/18 17/17/17
f 117/117/117 17/17/17 24/24/24
f 117/117/117 24/24/24 116/116/116
f 117/117/117 116/116/116 63/63/63
f 117/117/117 63/63/63 62/62/62
f 117/117/117 62/62/62 69/69/69
f 117/117/117 69/69/69 93/93/93
f 118/118/118 114/114/114 29/29/29
f 118/118/118 29/29/29 28/28/28
f 118/118/118 28/28/28 27/27/27
f 118/118/118 27/27/27 111/111/111
f 118/118/118 111/111/111 74/74/74
f 118/118/118 74/74/74 73/73/73
f 118/118/118 73/73/73 72/72/72
f 118/118/118 72/72/72 114/114/114
