v -2.34247 0.790823 -1.1595
v -2.34126 0.790924 -1.161294
v -2.343551 0.789432 -1.162213
v -2.344642 0.78943 -1.160066
v -2.345676 0.789535 -1.158514
v -2.343754 0.790763 -1.158276
v -2.342306 0.79136 -1.158464
v -2.340847 0.791717 -1.15916
v -2.339531 0.791932 -1.160609
v -2.341087 0.79113 -1.163444
v -2.341329 0.791302 -1.165193
v -2.342922 0.790148 -1.166373
v -2.343071 0.78978 -1.164548
v -2.33965 0.791984 -1.162574
v -2.340342 0.791797 -1.164066
v -2.34934 0.783827 -1.167159
v -2.348939 0.784099 -1.168862
v -2.350878 0.781695 -1.169227
v -2.351222 0.781448 -1.167717
v -2.351777 0.781195 -1.165739
v -2.349979 0.783547 -1.164925
v -2.348035 0.785748 -1.164072
v -2.347381 0.786057 -1.166413
v -2.346984 0.786365 -1.1682
v -2.35088 0.783484 -1.162767
v -2.352583 0.781145 -1.163833
v -2.353264 0.781164 -1.16242
v -2.351637 0.783499 -1.161166
v -2.349806 0.785737 -1.160149
v -2.348992 0.785698 -1.161818
v -2.346864 0.787701 -1.160878
v -2.345851 0.787708 -1.163154
v -2.347756 0.787805 -1.159202
v -2.34523 0.788065 -1.16554
v -2.344893 0.788442 -1.167373
v -2.353139 0.778991 -1.168025
v -2.352922 0.779206 -1.169165
v -2.354078 0.777735 -1.168833
v -2.354569 0.777102 -1.168158
v -2.354794 0.776926 -1.167129
v -2.353524 0.778779 -1.16654
v -2.354156 0.778765 -1.165126
v -2.355266 0.776947 -1.166172
v -2.355331 0.777456 -1.165258
v -2.354703 0.77881 -1.164081
v -2.342359 0.790634 -1.159442
v -2.341138 0.790735 -1.161266
v -2.339442 0.791789 -1.160589
v -2.340767 0.791574 -1.159117
v -2.342248 0.791255 -1.158426
v -2.343677 0.790622 -1.158218
v -2.345592 0.789398 -1.158458
v -2.344523 0.789246 -1.160008
v -2.343422 0.789248 -1.162182
v -2.340956 0.790946 -1.163446
v -2.341226 0.791167 -1.16521
v -2.340268 0.791696 -1.164075
v -2.339554 0.791844 -1.162578
v -2.342933 0.7896 -1.164544
v -2.342814 0.790016 -1.166383
v -2.349175 0.783673 -1.167134
v -2.348812 0.783985 -1.168853
v -2.346863 0.786245 -1.168196
v -2.347224 0.785894 -1.166393
v -2.347884 0.785583 -1.164032
v -2.349819 0.783391 -1.164881
v -2.351611 0.781045 -1.165692
v -2.35105 0.7813 -1.16769
v -2.350747 0.781586 -1.169217
v -2.350728 0.783327 -1.162704
v -2.348848 0.785532 -1.161758
v -2.349702 0.785613 -1.160094
v -2.351526 0.783381 -1.161109
v -2.353149 0.781051 -1.162362
v -2.352425 0.780994 -1.163768
v -2.346733 0.787525 -1.16082
v -2.345711 0.787533 -1.163119
v -2.347662 0.787673 -1.159147
v -2.345083 0.787893 -1.165528
v -2.344779 0.788315 -1.167375
v -2.352965 0.778847 -1.167998
v -2.352788 0.779099 -1.169155
v -2.353356 0.778633 -1.166492
v -2.354668 0.776816 -1.167094
v -2.354439 0.776994 -1.168139
v -2.35398 0.777656 -1.168823
v -2.353996 0.778617 -1.165058
v -2.354588 0.778699 -1.164021
v -2.355244 0.777374 -1.165216
v -2.355146 0.776837 -1.16612
v -2.352789 0.779231 -1.169543
v -2.354413 0.777258 -1.168991
v -2.350705 0.78173 -1.169728
v -2.35398 0.777656 -1.168823
v -2.355583 0.776292 -1.166497
v -2.355668 0.776978 -1.16541
v -2.355161 0.77626 -1.16731
v -2.355244 0.777374 -1.165216
v -2.344149 0.790681 -1.157839
v -2.34231 0.791445 -1.1582
v -2.345984 0.789509 -1.15797
v -2.342248 0.791255 -1.158426
v -2.339128 0.792206 -1.162287
v -2.340186 0.791917 -1.164261
v -2.338915 0.792204 -1.160372
v -2.340268 0.791696 -1.164075
v -2.341363 0.7913 -1.165787
v -2.342824 0.790213 -1.166988
v -2.354988 0.776424 -1.168194
v -2.354836 0.778775 -1.163704
v -2.353441 0.781121 -1.161921
v -2.340271 0.791952 -1.159028
v -2.348013 0.787781 -1.158617
v -2.350032 0.785695 -1.159567
v -2.344728 0.788512 -1.167987
v -2.346797 0.786415 -1.168796
v -2.348748 0.784139 -1.169428
v -2.35184 0.783451 -1.160605
vn -0.4292 0.8467 -0.3144
vn -0.4957 0.8619 -0.1065
vn -0.5429 0.8303 -0.1255
vn -0.4858 0.8163 -0.3122
vn -0.5088 0.8026 -0.3114
vn -0.433 0.8473 -0.3073
vn -0.3776 0.8753 -0.3022
vn -0.3706 0.895 -0.248
vn -0.4184 0.905 -0.0761
vn -0.572 0.8149 0.0931
vn -0.5706 0.8168 0.0854
vn -0.6304 0.7754 0.0353
vn -0.6135 0.788 0.0521
vn -0.4872 0.8691 0.0849
vn -0.5253 0.8424 0.1197
vn -0.7511 0.653 -0.0968
vn -0.7464 0.6517 -0.1346
vn -0.7648 0.6275 -0.1461
vn -0.7729 0.6268 -0.0981
vn -0.7454 0.6319 -0.212
vn -0.7201 0.6643 -0.2005
vn -0.6652 0.7254 -0.1765
vn -0.7057 0.7057 -0.0627
vn -0.7102 0.6977 -0.0938
vn -0.6794 0.669 -0.3014
vn -0.6961 0.6439 -0.3176
vn -0.7195 0.6375 -0.2754
vn -0.6992 0.6622 -0.2696
vn -0.6477 0.7116 -0.2722
vn -0.6253 0.7236 -0.2923
vn -0.5527 0.7789 -0.2963
vn -0.599 0.7868 -0.1486
vn -0.5785 0.7628 -0.2889
vn -0.6541 0.7563 -0.0069
vn -0.6689 0.7427 -0.0309
vn -0.7872 0.6118 -0.0772
vn -0.7819 0.6097 -0.1296
vn -0.7993 0.5919 -0.1034
vn -0.8234 0.5631 -0.0706
vn -0.7877 0.5709 -0.2315
vn -0.7569 0.6163 -0.2172
vn -0.6934 0.6327 -0.3447
vn -0.7151 0.5873 -0.3789
vn -0.7183 0.6098 -0.3347
vn -0.7219 0.623 -0.3012
vn 0.4354 -0.8307 0.3468
vn 0.5088 -0.8535 0.1118
vn 0.5585 -0.8189 0.1319
vn 0.4478 -0.7779 0.4407
vn 0.4082 -0.7314 0.5463
vn 0.4138 -0.7447 0.5236
vn 0.4508 -0.7616 0.4656
vn 0.4804 -0.814 0.3265
vn 0.5428 -0.8304 0.1255
vn 0.5962 -0.795 -0.1119
vn 0.6848 -0.6845 -0.2499
vn 0.6939 -0.6679 -0.269
vn 0.6615 -0.7305 -0.1695
vn 0.618 -0.7834 -0.0661
vn 0.6786 -0.7108 -0.1846
vn 0.7543 -0.6515 0.0809
vn 0.7701 -0.6371 -0.0301
vn 0.7379 -0.6725 -0.056
vn 0.7091 -0.7034 0.0482
vn 0.6653 -0.7254 0.1766
vn 0.7202 -0.6641 0.2006
vn 0.7455 -0.6319 0.212
vn 0.7754 -0.6265 0.0791
vn 0.775 -0.6296 -0.0534
vn 0.672 -0.6698 0.3159
vn 0.6188 -0.7235 0.3059
vn 0.5751 -0.7088 0.4085
vn 0.6148 -0.6717 0.4133
vn 0.6037 -0.6677 0.4354
vn 0.6861 -0.6464 0.3338
vn 0.5466 -0.778 0.3096
vn 0.599 -0.7868 0.1486
vn 0.5109 -0.747 0.4253
vn 0.6576 -0.7533 -0.007
vn 0.7 -0.7049 -0.1141
vn 0.781 -0.6228 0.0471
vn 0.7588 -0.6409 -0.1156
vn 0.75 -0.6258 0.2141
vn 0.7182 -0.6665 0.1997
vn 0.7496 -0.6605 -0.0426
vn 0.7436 -0.6507 -0.154
vn 0.6705 -0.6474 0.3624
vn 0.553 -0.6867 0.4718
vn 0.5177 -0.7009 0.4906
vn 0.5919 -0.6957 0.4069
vn -0.0667 -0.0904 -0.9937
vn -0.359 -0.3518 -0.8645
vn 0.0613 -0.0009 -0.9981
vn 0.7436 -0.6507 -0.154
vn -0.6655 -0.7453 -0.0407
vn -0.8007 -0.45 0.3954
vn -0.4817 -0.8443 -0.2345
vn 0.5177 -0.7009 0.4906
vn -0.2181 0.3793 0.8992
vn 0.0719 0.5155 0.8538
vn -0.373 0.2364 0.8972
vn 0.4082 -0.7314 0.5463
vn 0.8155 0.5451 -0.1941
vn 0.5616 0.6243 -0.543
vn 0.8357 0.4409 0.3272
vn 0.6939 -0.6679 -0.269
vn 0.369 0.5098 -0.7771
vn 0.2535 0.3757 -0.8914
vn -0.5098 -0.7108 -0.4846
vn -0.6648 -0.2237 0.7128
vn -0.5718 -0.1421 0.8079
vn 0.4911 0.4731 0.7314
vn -0.4533 0.1128 0.8842
vn -0.4841 0.0316 0.8744
vn 0.189 0.2557 -0.9481
vn 0.1628 0.1756 -0.9709
vn 0.1363 0.0953 -0.9861
vn -0.5105 -0.049 0.8585
vt 0.839504 0.118056
vt 0.856743 0.205307
vt 0.741230 0.205307
vt 0.734555 0.106726
vt 0.724541 0.032791
vt 0.813647 0.052618
vt 0.868992 0.081539
vt 0.913398 0.129584
vt 0.940923 0.205307
vt 0.839504 0.292557
vt 0.813647 0.357995
vt 0.724541 0.377822
vt 0.734555 0.303887
vt 0.913398 0.281029
vt 0.868992 0.329074
vt 0.369475 0.299954
vt 0.368286 0.370940
vt 0.245840 0.351447
vt 0.246397 0.288815
vt 0.246768 0.205307
vt 0.370268 0.205307
vt 0.494283 0.205307
vt 0.492822 0.304944
vt 0.490632 0.379672
vt 0.369475 0.110659
vt 0.246397 0.121798
vt 0.245841 0.059166
vt 0.368286 0.039673
vt 0.490632 0.030941
vt 0.492822 0.105669
vt 0.616755 0.103478
vt 0.619174 0.205307
vt 0.613127 0.027106
vt 0.616755 0.307135
vt 0.613126 0.383507
vt 0.123273 0.268175
vt 0.123047 0.315326
vt 0.054743 0.283353
vt 0.030912 0.249131
vt 0.030973 0.205306
vt 0.123423 0.205306
vt 0.123273 0.142438
vt 0.030912 0.161481
vt 0.054744 0.127260
vt 0.123047 0.095287
vt 0.839504 0.118056
vt 0.856743 0.205307
vt 0.968983 0.205307
vt 0.938030 0.133427
vt 0.876123 0.061548
vt 0.805028 0.030806
vt 0.721203 0.008146
vt 0.734555 0.106726
vt 0.741230 0.205307
vt 0.839504 0.292557
vt 0.805028 0.379807
vt 0.876123 0.349065
vt 0.938030 0.277186
vt 0.734555 0.303887
vt 0.721203 0.402467
vt 0.369475 0.299954
vt 0.367890 0.394602
vt 0.489902 0.404581
vt 0.492822 0.304944
vt 0.494283 0.205307
vt 0.370268 0.205307
vt 0.246768 0.205307
vt 0.246397 0.288815
vt 0.245655 0.372324
vt 0.369475 0.110659
vt 0.492822 0.105669
vt 0.489902 0.006032
vt 0.367890 0.016011
vt 0.245655 0.038289
vt 0.246397 0.121798
vt 0.616755 0.103478
vt 0.619174 0.205307
vt 0.611917 0.001649
vt 0.616755 0.307135
vt 0.611917 0.408964
vt 0.123273 0.268175
vt 0.122972 0.331043
vt 0.123423 0.205306
vt 0.000156 0.205306
vt 0.000125 0.242784
vt 0.000064 0.280261
vt 0.123273 0.142438
vt 0.122972 0.079570
vt 0.000064 0.130352
vt 0.000125 0.167829
vt 0.122972 0.331043
vt 0.030806 0.283587
vt 0.245655 0.372324
vt 0.030806 0.283587
vt 0.000125 0.167829
vt 0.030806 0.127026
vt 0.000156 0.205306
vt 0.030806 0.127026
vt 0.805028 0.030806
vt 0.873826 0.071832
vt 0.721203 0.008146
vt 0.873826 0.071832
vt 0.938030 0.277186
vt 0.873826 0.338781
vt 0.968983 0.205307
vt 0.873826 0.338781
vt 0.805028 0.379807
vt 0.721203 0.402467
vt 0.000125 0.242784
vt 0.122972 0.079570
vt 0.245655 0.038289
vt 0.938030 0.133427
vt 0.611917 0.001649
vt 0.489902 0.006032
vt 0.611917 0.408964
vt 0.489902 0.404581
vt 0.367890 0.394602
vt 0.367890 0.016011
f 1/1/1 2/2/2 3/3/3
f 1/1/1 3/3/3 4/4/4
f 1/1/1 4/4/4 5/5/5
f 1/1/1 5/5/5 6/6/6
f 1/1/1 6/6/6 7/7/7
f 1/1/1 7/7/7 8/8/8
f 1/1/1 8/8/8 9/9/9
f 1/1/1 9/9/9 2/2/2
f 10/10/10 11/11/11 12/12/12
f 10/10/10 12/12/12 13/13/13
f 10/10/10 13/13/13 3/3/3
f 10/10/10 3/3/3 2/2/2
f 10/10/10 2/2/2 9/9/9
f 10/10/10 9/9/9 14/14/14
f 10/10/10 14/14/14 15/15/15
f 10/10/10 15/15/15 11/11/11
f 16/16/16 17/17/17 18/18/18
f 16/16/16 18/18/18 19/19/19
f 16/16/16 19/19/19 20/20/20
f 16/16/16 20/20/20 21/21/21
f 16/16/16 21/21/21 22/22/22
f 16/16/16 22/22/22 23/23/23
f 16/16/16 23/23/23 24/24/24
f 16/16/16 24/24/24 17/17/17
f 25/25/25 21/21/21 20/20/20
f 25/25/25 20/20/20 26/26/26
f 25/25/25 26/26/26 27/27/27
f 25/25/25 27/27/27 28/28/28
f 25/25/25 28/28/28 29/29/29
f 25/25/25 29/29/29 30/30/30
f 25/25/25 30/30/30 22/22/22
f 25/25/25 22/22/22 21/21/21
f 31/31/31 32/32/32 22/22/22
f 31/31/31 22/22/22 30/30/30
f 31/31/31 30/30/30 29/29/29
f 31/31/31 29/29/29 33/33/33
f 31/31/31 33/33/33 5/5/5
f 31/31/31 5/5/5 4/4/4
f 31/31/31 4/4/4 3/3/3
f 31/31/31 3/3/3 32/32/32
f 34/34/34 35/35/35 24/24/24
f 34/34/34 24/24/24 23/23/23
f 34/34/34 23/23/23 22/22/22
f 34/34/34 22/22/22 32/32/32
f 34/34/34 32/32/32 3/3/3
f 34/34/34 3/3/3 13/13/13
f 34/34/34 13/13/13 12/12/12
f 34/34/34 12/12/12 35/35/35
f 36/36/36 37/37/37 38/38/38
f 36/36/36 38/38/38 39/39/39
f 36/36/36 39/39/39 40/40/40
f 36/36/36 40/40/40 41/41/41
f 36/36/36 41/41/41 20/20/20
f 36/36/36 20/20/20 19/19/19
f 36/36/36 19/19/19 18/18/18
f 36/36/36 18/18/18 37/37/37
f 42/42/42 41/41/41 40/40/40
f 42/42/42 40/40/40 43/43/43
f 42/42/42 43/43/43 44/44/44
f 42/42/42 44/44/44 45/45/45
f 42/42/42 45/45/45 27/27/27
f 42/42/42 27/27/27 26/26/26
f 42/42/42 26/26/26 20/20/20
f 42/42/42 20/20/20 41/41/41
f 46/46/46 47/47/47 48/48/48
f 46/46/46 48/48/48 49/49/49
f 46/46/46 49/49/49 50/50/50
f 46/46/46 50/50/50 51/51/51
f 46/46/46 51/51/51 52/52/52
f 46/46/46 52/52/52 53/53/53
f 46/46/46 53/53/53 54/54/54
f 46/46/46 54/54/54 47/47/47
f 55/55/55 56/56/56 57/57/57
f 55/55/55 57/57/57 58/58/58
f 55/55/55 58/58/58 48/48/48
f 55/55/55 48/48/48 47/47/47
f 55/55/55 47/47/47 54/54/54
f 55/55/55 54/54/54 59/59/59
f 55/55/55 59/59/59 60/60/60
f 55/55/55 60/60/60 56/56/56
f 61/61/61 62/62/62 63/63/63
f 61/61/61 63/63/63 64/64/64
f 61/61/61 64/64/64 65/65/65
f 61/61/61 65/65/65 66/66/66
f 61/61/61 66/66/66 67/67/67
f 61/61/61 67/67/67 68/68/68
f 61/61/61 68/68/68 69/69/69
f 61/61/61 69/69/69 62/62/62
f 70/70/70 66/66/66 65/65/65
f 70/70/70 65/65/65 71/71/71
f 70/70/70 71/71/71 72/72/72
f 70/70/70 72/72/72 73/73/73
f 70/70/70 73/73/73 74/74/74
f 70/70/70 74/74/74 75/75/75
f 70/70/70 75/75/75 67/67/67
f 70/70/70 67/67/67 66/66/66
f 76/76/76 77/77/77 54/54/54
f 76/76/76 54/54/54 53/53/53
f 76/76/76 53/53/53 52/52/52
f 76/76/76 52/52/52 78/78/78
f 76/76/76 78/78/78 72/72/72
f 76/76/76 72/72/72 71/71/71
f 76/76/76 71/71/71 65/65/65
f 76/76/76 65/65/65 77/77/77
f 79/79/79 80/80/80 60/60/60
f 79/79/79 60/60/60 59/59/59
f 79/79/79 59/59/59 54/54/54
f 79/79/79 54/54/54 77/77/77
f 79/79/79 77/77/77 65/65/65
f 79/79/79 65/65/65 64/64/64
f 79/79/79 64/64/64 63/63/63
f 79/79/79 63/63/63 80/80/80
f 81/81/81 82/82/82 69/69/69
f 81/81/81 69/69/69 68/68/68
f 81/81/81 68/68/68 67/67/67
f 81/81/81 67/67/67 83/83/83
f 81/81/81 83/83/83 84/84/84
f 81/81/81 84/84/84 85/85/85
f 81/81/81 85/85/85 86/86/86
f 81/81/81 86/86/86 82/82/82
f 87/87/87 83/83/83 67/67/67
f 87/87/87 67/67/67 75/75/75
f 87/87/87 75/75/75 74/74/74
f 87/87/87 74/74/74 88/88/88
f 87/87/87 88/88/88 89/89/89
f 87/87/87 89/89/89 90/90/90
f 87/87/87 90/90/90 84/84/84
f 87/87/87 84/84/84 83/83/83
f 91/91/91 92/92/92 38/38/38
f 91/91/91 38/38/38 37/37/37
f 91/91/91 37/37/37 18/18/18
f 91/91/91 18/18/18 93/93/93
f 91/91/91 93/93/93 69/69/69
f 91/91/91 69/69/69 82/82/82
f 91/91/91 82/82/82 94/94/94
f 91/91/91 94/94/94 92/92/92
f 95/95/95 96/96/96 44/44/44
f 95/95/95 44/44/44 43/43/43
f 95/95/95 43/43/43 40/40/40
f 95/95/95 40/40/40 97/97/97
f 95/95/95 97/97/97 84/84/84
f 95/95/95 84/84/84 90/90/90
f 95/95/95 90/90/90 98/98/98
f 95/95/95 98/98/98 96/96/96
f 99/99/99 100/100/100 7/7/7
f 99/99/99 7/7/7 6/6/6
f 99/99/99 6/6/6 5/5/5
f 99/99/99 5/5/5 101/101/101
f 99/99/99 101/101/101 52/52/52
f 99/99/99 52/52/52 51/51/51
f 99/99/99 51/51/51 102/102/102
f 99/99/99 102/102/102 100/100/100
f 103/103/103 104/104/104 15/15/15
f 103/103/103 15/15/15 14/14/14
f 103/103/103 14/14/14 9/9/9
f 103/103/103 9/9/9 105/105/105
f 103/103/103 105/105/105 48/48/48
f 103/103/103 48/48/48 58/58/58
f 103/103/103 58/58/58 106/106/106
f 103/103/103 106/106/106 104/104/104
f 107/107/107 108/108/108 12/12/12
f 107/107/107 12/12/12 11/11/11
f 107/107/107 11/11/11 15/15/15
f 107/107/107 15/15/15 104/104/104
f 107/107/107 104/104/104 106/106/106
f 107/107/107 106/106/106 56/56/56
f 107/107/107 56/56/56 60/60/60
f 107/107/107 60/60/60 108/108/108
f 109/109/109 97/97/97 40/40/40
f 109/109/109 40/40/40 39/39/39
f 109/109/109 39/39/39 38/38/38
f 109/109/109 38/38/38 92/92/92
f 109/109/109 92/92/92 94/94/94
f 109/109/109 94/94/94 85/85/85
f 109/109/109 85/85/85 84/84/84
f 109/109/109 84/84/84 97/97/97
f 110/110/110 111/111/111 27/27/27
f 110/110/110 27/27/27 45/45/45
f 110/110/110 45/45/45 44/44/44
f 110/110/110 44/44/44 96/96/96
f 110/110/110 96/96/96 98/98/98
f 110/110/110 98/98/98 88/88/88
f 110/110/110 88/88/88 74/74/74
f 110/110/110 74/74/74 111/111/111
f 112/112/112 105/105/105 9/9/9
f 112/112/112 9/9/9 8/8/8
f 112/112/112 8/8/8 7/7/7
f 112/112/112 7/7/7 100/100/100
f 112/112/112 100/100/100 102/102/102
f 112/112/112 102/102/102 49/49/49
f 112/112/112 49/49/49 48/48/48
f 112/112/112 48/48/48 105/105/105
f 113/113/113 101/101/101 5/5/5
f 113/113/113 5/5/5 33/33/33
f 113/113/113 33/33/33 29/29/29
f 113/113/113 29/29/29 114/114/114
f 113/113/113 114/114/114 72/72/72
f 113/113/113 72/72/72 78/78/78
f 113/113/113 78/78/78 52/52/52
f 113/113/113 52/52/52 101/101/101
f 115/115/115 116/116/116 24/24/24
f 115/115/115 24/24/24 35/35/35
f 115/115/115 35/35/35 12/12/12
f 115/115/115 12/12/12 108/108/108
f 115/115/115 108/108/108 60/60/60
f 115/115/115 60/60/60 80/80/80
f 115/115/115 80/80/80 63/63/63
f 115/115/115 63/63/63 116/116/116
f 117/117/117 93/93/93 18/18/18
f 117/117/117 18/18/18 17/17/17
f 117/117/117 17/17/17 24/24/24
f 117/117/117 24/24/24 116/116/116
f 117/117/117 116/116/116 63/63/63
f 117/117/117 63/63/63 62/62/62
f 117/117/117 62/62/62 69/69/69
f 117/117/117 69/69/69 93/93/93
f 118/118/118 114/114/114 29/29/29
f 118/118/118 29/29/29 28/28/28
f 118/118/118 28/28/28 27/27/27
f 118/118/118 27/27/27 111/111/111
f 118/118/118 111/111/111 74/74/74
f 118/118/118 74/74/74 73/73/73
f 118/118/118 73/73/73 72/72/72
f 118/118/118 72/72/72 114/114/114
