v -2.38194 0.708932 -1.090906
v -2.380548 0.708953 -1.088943
v -2.37846 0.708094 -1.091214
v -2.380279 0.7081 -1.093177
v -2.381528 0.708285 -1.094822
v -2.382727 0.709051 -1.092709
v -2.383181 0.709326 -1.091039
v -2.383064 0.709408 -1.089206
v -2.38209 0.709477 -1.087249
v -2.378443 0.709412 -1.087872
v -2.376594 0.709892 -1.087388
v -2.37456 0.70924 -1.088777
v -2.376304 0.708645 -1.089728
v -2.380037 0.709824 -1.086579
v -2.378214 0.710007 -1.086729
v -2.370084 0.704306 -1.096293
v -2.368535 0.704714 -1.095153
v -2.366944 0.702712 -1.097475
v -2.368321 0.70234 -1.098475
v -2.370103 0.701956 -1.099876
v -2.372094 0.703883 -1.097886
v -2.374144 0.705602 -1.095795
v -2.372037 0.706066 -1.094138
v -2.370406 0.706526 -1.092961
v -2.373979 0.703772 -1.099672
v -2.371765 0.701867 -1.101463
v -2.37298 0.701884 -1.102711
v -2.375359 0.703779 -1.101074
v -2.377545 0.705547 -1.099154
v -2.376111 0.705508 -1.097672
v -2.378273 0.706955 -1.09547
v -2.376295 0.706991 -1.093535
v -2.379701 0.707083 -1.09702
v -2.374139 0.707522 -1.091883
v -2.372457 0.708077 -1.090735
v -2.366786 0.700267 -1.100808
v -2.365738 0.70059 -1.10009
v -2.365346 0.699283 -1.101701
v -2.365727 0.698648 -1.102599
v -2.366668 0.698384 -1.103271
v -2.368131 0.699948 -1.101832
v -2.369356 0.699915 -1.103038
v -2.367489 0.698407 -1.104127
v -2.368516 0.698848 -1.10445
v -2.370245 0.699972 -1.104001
v -2.381998 0.708693 -1.090855
v -2.38058 0.708715 -1.088869
v -2.382112 0.709297 -1.087196
v -2.383106 0.709228 -1.089171
v -2.383218 0.709193 -1.091018
v -2.382783 0.708872 -1.092683
v -2.381586 0.708108 -1.094787
v -2.38034 0.707864 -1.093116
v -2.378498 0.707858 -1.091133
v -2.378448 0.70918 -1.087775
v -2.376585 0.709722 -1.087304
v -2.378209 0.70988 -1.086672
v -2.380037 0.709649 -1.086509
v -2.376319 0.708415 -1.089627
v -2.37456 0.709072 -1.088691
v -2.370136 0.704093 -1.096166
v -2.368564 0.704557 -1.095051
v -2.370428 0.706364 -1.092865
v -2.372078 0.705848 -1.094019
v -2.374203 0.70538 -1.095691
v -2.372162 0.703667 -1.097773
v -2.370178 0.701746 -1.099757
v -2.368378 0.702132 -1.098341
v -2.366978 0.702558 -1.097368
v -2.374064 0.703555 -1.099574
v -2.376188 0.705284 -1.097585
v -2.377611 0.705379 -1.099097
v -2.37543 0.703615 -1.101008
v -2.373056 0.701725 -1.102641
v -2.371856 0.701655 -1.101359
v -2.378342 0.706724 -1.095396
v -2.376344 0.706762 -1.093443
v -2.379762 0.70691 -1.096974
v -2.374167 0.707296 -1.091774
v -2.372467 0.707911 -1.090644
v -2.366844 0.700063 -1.100672
v -2.365772 0.700438 -1.099981
v -2.368207 0.699739 -1.101711
v -2.366725 0.698228 -1.10318
v -2.365771 0.698495 -1.102495
v -2.365374 0.69917 -1.101621
v -2.369451 0.699705 -1.102933
v -2.370324 0.699814 -1.10393
v -2.368572 0.698732 -1.104396
v -2.367561 0.69825 -1.104048
v -2.365402 0.70063 -1.0998
v -2.36496 0.698883 -1.102077
v -2.366498 0.702768 -1.097093
v -2.365374 0.69917 -1.101621
v -2.366898 0.697834 -1.104455
v -2.368135 0.698447 -1.104832
v -2.366205 0.697794 -1.103711
v -2.368572 0.698732 -1.104396
v -2.383017 0.709011 -1.093301
v -2.383469 0.709383 -1.091131
v -2.381973 0.708268 -1.095357
v -2.383218 0.709193 -1.091018
v -2.380568 0.709883 -1.086118
v -2.378095 0.710119 -1.086468
v -2.382613 0.709571 -1.086661
v -2.378209 0.70988 -1.086672
v -2.37597 0.709977 -1.087187
v -2.373976 0.709365 -1.088419
v -2.365394 0.69804 -1.103149
v -2.370578 0.699921 -1.104292
v -2.37342 0.701819 -1.103098
v -2.383457 0.709487 -1.088625
v -2.380206 0.707049 -1.097518
v -2.378054 0.705486 -1.099624
v -2.371898 0.708189 -1.09031
v -2.369871 0.706608 -1.092524
v -2.368029 0.704781 -1.094726
v -2.375852 0.703708 -1.101513
vn 0.2641 0.9565 -0.1234
vn 0.0899 0.9625 -0.2558
vn 0.1289 0.9458 -0.298
vn 0.2863 0.9408 -0.1817
vn 0.2956 0.9329 -0.2055
vn 0.2586 0.9573 -0.1292
vn 0.2305 0.9701 -0.0752
vn 0.1742 0.981 -0.0846
vn 0.0284 0.9817 -0.188
vn -0.0612 0.912 -0.4057
vn -0.0549 0.9143 -0.4013
vn 0.0188 0.895 -0.4457
vn -0.0046 0.9009 -0.434
vn -0.0915 0.9446 -0.315
vn -0.1062 0.924 -0.3674
vn 0.204 0.8219 -0.5318
vn 0.2378 0.8239 -0.5143
vn 0.259 0.8065 -0.5315
vn 0.2174 0.8021 -0.5562
vn 0.313 0.8139 -0.4894
vn 0.2879 0.8376 -0.4642
vn 0.2361 0.8804 -0.4112
vn 0.1475 0.8576 -0.4927
vn 0.1793 0.8547 -0.4872
vn 0.3674 0.8443 -0.3901
vn 0.3926 0.8261 -0.4042
vn 0.3622 0.8207 -0.4418
vn 0.3456 0.8387 -0.4208
vn 0.3218 0.8742 -0.3636
vn 0.3308 0.8827 -0.3337
vn 0.3003 0.9189 -0.2555
vn 0.1769 0.9202 -0.3493
vn 0.3049 0.9088 -0.2848
vn 0.0693 0.8873 -0.456
vn 0.099 0.8805 -0.4635
vn 0.2055 0.7886 -0.5795
vn 0.2528 0.7916 -0.5563
vn 0.2375 0.7755 -0.5849
vn 0.2205 0.7498 -0.6238
vn 0.3565 0.7678 -0.5323
vn 0.3246 0.8023 -0.5009
vn 0.419 0.8179 -0.3942
vn 0.4666 0.7834 -0.4104
vn 0.4222 0.8009 -0.4246
vn 0.3897 0.8104 -0.4374
vn -0.2991 -0.9465 0.1205
vn -0.1007 -0.9583 0.2675
vn -0.142 -0.9393 0.3122
vn -0.4004 -0.9099 0.108
vn -0.4945 -0.8681 0.0427
vn -0.4729 -0.8795 0.0535
vn -0.4277 -0.8978 0.105
vn -0.2981 -0.9389 0.1721
vn -0.1288 -0.9458 0.298
vn 0.067 -0.8963 0.4383
vn 0.1447 -0.7949 0.5893
vn 0.1563 -0.7789 0.6074
vn 0.0867 -0.8431 0.5307
vn 0.0152 -0.8959 0.444
vn 0.0913 -0.8266 0.5553
vn -0.1906 -0.8193 0.5407
vn -0.0957 -0.7961 0.5976
vn -0.0544 -0.8193 0.5708
vn -0.1356 -0.8545 0.5014
vn -0.2362 -0.8803 0.4113
vn -0.288 -0.8375 0.4643
vn -0.3131 -0.8139 0.4895
vn -0.2006 -0.8001 0.5653
vn -0.0771 -0.7873 0.6118
vn -0.3782 -0.8451 0.3779
vn -0.3413 -0.8827 0.3229
vn -0.4252 -0.8701 0.249
vn -0.4497 -0.8446 0.2904
vn -0.4674 -0.8408 0.2732
vn -0.4039 -0.828 0.3888
vn -0.3109 -0.9182 0.2454
vn -0.1769 -0.9202 0.3493
vn -0.4126 -0.8935 0.1772
vn -0.0581 -0.8836 0.4646
vn 0.018 -0.8344 0.5509
vn -0.1735 -0.7941 0.5825
vn -0.0121 -0.7869 0.6169
vn -0.3175 -0.8094 0.4939
vn -0.2861 -0.8393 0.4623
vn -0.0728 -0.8122 0.5788
vn 0.0303 -0.788 0.6149
vn -0.4252 -0.8286 0.3641
vn -0.481 -0.8512 0.2101
vn -0.4842 -0.8586 0.1684
vn -0.4318 -0.8614 0.2674
vn 0.9597 0.0472 0.2769
vn 0.9853 -0.1486 -0.0844
vn 0.905 0.1032 0.4126
vn 0.0303 -0.788 0.6149
vn 0.3973 -0.5521 -0.733
vn -0.0206 -0.2871 -0.9577
vn 0.5375 -0.6686 -0.5139
vn -0.4842 -0.8586 0.1684
vn -0.837 0.3112 -0.45
vn -0.9148 0.3774 -0.1436
vn -0.7572 0.211 -0.6181
vn -0.4945 -0.8681 0.0427
vn -0.1892 0.351 0.9171
vn 0.2003 0.5302 0.8238
vn -0.6584 0.1837 0.7299
vn 0.1563 -0.7789 0.6074
vn 0.5009 0.4945 0.7103
vn 0.6704 0.4068 0.6204
vn 0.7524 -0.5033 -0.4249
vn -0.4029 -0.1391 -0.9046
vn -0.5372 -0.0943 -0.8382
vn -0.9282 0.2496 0.2758
vn -0.6952 0.1129 -0.7099
vn -0.6603 0.0434 -0.7497
vn 0.7674 0.3135 0.5592
vn 0.8126 0.2455 0.5285
vn 0.851 0.1762 0.4946
vn -0.6214 -0.0258 -0.7831
vt 0.839504 0.118056
vt 0.856743 0.205307
vt 0.741230 0.205307
vt 0.734555 0.106726
vt 0.724541 0.032791
vt 0.813647 0.052618
vt 0.868992 0.081539
vt 0.913398 0.129584
vt 0.940923 0.205307
vt 0.839504 0.292557
vt 0.813647 0.357995
vt 0.724541 0.377822
vt 0.734555 0.303887
vt 0.913398 0.281029
vt 0.868992 0.329074
vt 0.369475 0.299954
vt 0.368286 0.370940
vt 0.245840 0.351447
vt 0.246397 0.288815
vt 0.246768 0.205307
vt 0.370268 0.205307
vt 0.494283 0.205307
vt 0.492822 0.304944
vt 0.490632 0.379672
vt 0.369475 0.110659
vt 0.246397 0.121798
vt 0.245841 0.059166
vt 0.368286 0.039673
vt 0.490632 0.030941
vt 0.492822 0.105669
vt 0.616755 0.103478
vt 0.619174 0.205307
vt 0.613127 0.027106
vt 0.616755 0.307135
vt 0.613126 0.383507
vt 0.123273 0.268175
vt 0.123047 0.315326
vt 0.054743 0.283353
vt 0.030912 0.249131
vt 0.030973 0.205306
vt 0.123423 0.205306
vt 0.123273 0.142438
vt 0.030912 0.161481
vt 0.054744 0.127260
vt 0.123047 0.095287
vt 0.839504 0.118056
vt 0.856743 0.205307
vt 0.968983 0.205307
vt 0.938030 0.133427
vt 0.876123 0.061548
vt 0.805028 0.030806
vt 0.721203 0.008146
vt 0.734555 0.106726
vt 0.741230 0.205307
vt 0.839504 0.292557
vt 0.805028 0.379807
vt 0.876123 0.349065
vt 0.938030 0.277186
vt 0.734555 0.303887
vt 0.721203 0.402467
vt 0.369475 0.299954
vt 0.367890 0.394602
vt 0.489902 0.404581
vt 0.492822 0.304944
vt 0.494283 0.205307
vt 0.370268 0.205307
vt 0.246768 0.205307
vt 0.246397 0.288815
vt 0.245655 0.372324
vt 0.369475 0.110659
vt 0.492822 0.105669
vt 0.489902 0.006032
vt 0.367890 0.016011
vt 0.245655 0.038289
vt 0.246397 0.121798
vt 0.616755 0.103478
vt 0.619174 0.205307
vt 0.611917 0.001649
vt 0.616755 0.307135
vt 0.611917 0.408964
vt 0.123273 0.268175
vt 0.122972 0.331043
vt 0.123423 0.205306
vt 0.000156 0.205306
vt 0.000125 0.242784
vt 0.000064 0.280261
vt 0.123273 0.142438
vt 0.122972 0.079570
vt 0.000064 0.130352
vt 0.000125 0.167829
vt 0.122972 0.331043
vt 0.030806 0.283587
vt 0.245655 0.372324
vt 0.030806 0.283587
vt 0.000125 0.167829
vt 0.030806 0.127026
vt 0.000156 0.205306
vt 0.030806 0.127026
vt 0.805028 0.030806
vt 0.873826 0.071832
vt 0.721203 0.008146
vt 0.873826 0.071832
vt 0.938030 0.277186
vt 0.873826 0.338781
vt 0.968983 0.205307
vt 0.873826 0.338781
vt 0.805028 0.379807
vt 0.721203 0.402467
vt 0.000125 0.242784
vt 0.122972 0.079570
vt 0.245655 0.038289
vt 0.938030 0.133427
vt 0.611917 0.001649
vt 0.489902 0.006032
vt 0.611917 0.408964
vt 0.489902 0.404581
vt 0.367890 0.394602
vt 0.367890 0.016011
f 1/1/1 2/2/2 3/3/3
f 1/1/1 3/3/3 4/4/4
f 1/1/1 4/4/4 5/5/5
f 1/1/1 5/5/5 6/6/6
f 1/1/1 6/6/6 7/7/7
f 1/1/1 7/7/7 8/8/8
f 1/1/1 8/8/8 9/9/9
f 1/1/1 9/9/9 2/2/2
f 10/10/10 11/11/11 12/12/12
f 10/10/10 12/12/12 13/13/13
f 10/10/10 13/13/13 3/3/3
f 10/10/10 3/3/3 2/2/2
f 10/10/10 2/2/2 9/9/9
f 10/10/10 9/9/9 14/14/14
f 10/10/10 14/14/14 15/15/15
f 10/10/10 15/15/15 11/11/11
f 16/16/16 17/17/17 18/18/18
f 16/16/16 18/18/18 19/19/19
f 16/16/16 19/19/19 20/20/20
f 16/16/16 20/20/20 21/21/21
f 16/16/16 21/21/21 22/22/22
f 16/16/16 22/22/22 23/23/23
f 16/16/16 23/23/23 24/24/24
f 16/16/16 24/24/24 17/17/17
f 25/25/25 21/21/21 20/20/20
f 25/25/25 20/20/20 26/26/26
f 25/25/25 26/26/26 27/27/27
f 25/25/25 27/27/27 28/28/28
f 25/25/25 28/28/28 29/29/29
f 25/25/25 29/29/29 30/30/30
f 25/25/25 30/30/30 22/22/22
f 25/25/25 22/22/22 21/21/21
f 31/31/31 32/32/32 22/22/22
f 31/31/31 22/22/22 30/30/30
f 31/31/31 30/30/30 29/29/29
f 31/31/31 29/29/29 33/33/33
f 31/31/31 33/33/33 5/5/5
f 31/31/31 5/5/5 4/4/4
f 31/31/31 4/4/4 3/3/3
f 31/31/31 3/3/3 32/32/32
f 34/34/34 35/35/35 24/24/24
f 34/34/34 24/24/24 23/23/23
f 34/34/34 23/23/23 22/22/22
f 34/34/34 22/22/22 32/32/32
f 34/34/34 32/32/32 3/3/3
f 34/34/34 3/3/3 13/13/13
f 34/34/34 13/13/13 12/12/12
f 34/34/34 12/12/12 35/35/35
f 36/36/36 37/37/37 38/38/38
f 36/36/36 38/38/38 39/39/39
f 36/36/36 39/39/39 40/40/40
f 36/36/36 40/40/40 41/41/41
f 36/36/36 41/41/41 20/20/20
f 36/36/36 20/20/20 19/19/19
f 36/36/36 19/19/19 18/18/18
f 36/36/36 18/18/18 37/37/37
f 42/42/42 41/41/41 40/40/40
f 42/42/42 40/40/40 43/43/43
f 42/42/42 43/43/43 44/44/44
f 42/42/42 44/44/44 45/45/45
f 42/42/42 45/45/45 27/27/27
f 42/42/42 27/27/27 26/26/26
f 42/42/42 26/26/26 20/20/20
f 42/42/42 20/20/20 41/41/41
f 46/46/46 47/47/47 48/48/48
f 46/46/46 48/48/48 49/49/49
f 46/46/46 49/49/49 50/50/50
f 46/46/46 50/50/50 51/51/51
f 46/46/46 51/51/51 52/52/52
f 46/46/46 52/52/52 53/53/53
f 46/46/46 53/53/53 54/54/54
f 46/46/46 54/54/54 47/47/47
f 55/55/55 56/56/56 57/57/57
f 55/55/55 57/57/57 58/58/58
f 55/55/55 58/58/58 48/48/48
f 55/55/55 48/48/48 47/47/47
f 55/55/55 47/47/47 54/54/54
f 55/55/55 54/54/54 59/59/59
f 55/55/55 59/59/59 60/60/60
f 55/55/55 60/60/60 56/56/56
f 61/61/61 62/62/62 63/63/63
f 61/61/61 63/63/63 64/64/64
f 61/61/61 64/64/64 65/65/65
f 61/61/61 65/65/65 66/66/66
f 61/61/61 66/66/66 67/67/67
f 61/61/61 67/67/67 68/68/68
f 61/61/61 68/68/68 69/69/69
f 61/61/61 69/69/69 62/62/62
f 70/70/70 66/66/66 65/65/65
f 70/70/70 65/65/65 71/71/71
f 70/70/70 71/71/71 72/72/72
f 70/70/70 72/72/72 73/73/73
f 70/70/70 73/73/73 74/74/74
f 70/70/70 74/74/74 75/75/75
f 70/70/70 75/75/75 67/67/67
f 70/70/70 67/67/67 66/66/66
f 76/76/76 77/77/77 54/54/54
f 76/76/76 54/54/54 53/53/53
f 76/76/76 53/53/53 52/52/52
f 76/76/76 52/52/52 78/78/78
f 76/76/76 78/78/78 72/72/72
f 76/76/76 72/72/72 71/71/71
f 76/76/76 71/71/71 65/65/65
f 76/76/76 65/65/65 77/77/77
f 79/79/79 80/80/80 60/60/60
f 79/79/79 60/60/60 59/59/59
f 79/79/79 59/59/59 54/54/54
f 79/79/79 54/54/54 77/77/77
f 79/79/79 77/77/77 65/65/65
f 79/79/79 65/65/65 64/64/64
f 79/79/79 64/64/64 63/63/63
f 79/79/79 63/63/63 80/80/80
f 81/81/81 82/82/82 69/69/69
f 81/81/81 69/69/69 68/68/68
f 81/81/81 68/68/68 67/67/67
f 81/81/81 67/67/67 83/83/83
f 81/81/81 83/83/83 84/84/84
f 81/81/81 84/84/84 85/85/85
f 81/81/81 85/85/85 86/86/86
f 81/81/81 86/86/86 82/82/82
f 87/87/87 83/83/83 67/67/67
f 87/87/87 67/67/67 75/75/75
f 87/87/87 75/75/75 74/74/74
f 87/87/87 74/74/74 88/88/88
f 87/87/87 88/88/88 89/89/89
f 87/87/87 89/89/89 90/90/90
f 87/87/87 90/90/90 84/84/84
f 87/87/87 84/84/84 83/83/83
f 91/91/91 92/92/92 38/38/38
f 91/91/91 38/38/38 37/37/37
f 91/91/91 37/37/37 18/18/18
f 91/91/91 18/18/18 93/93/93
f 91/91/91 93/93/93 69/69/69
f 91/91/91 69/69/69 82/82/82
f 91/91/91 82/82/82 94/94/94
f 91/91/91 94/94/94 92/92/92
f 95/95/95 96/96/96 44/44/44
f 95/95/95 44/44/44 43/43/43
f 95/95/95 43/43/43 40/40/40
f 95/95/95 40/40/40 97/97/97
f 95/95/95 97/97/97 84/84/84
f 95/95/95 84/84/84 90/90/90
f 95/95/95 90/90/90 98/98/98
f 95/95/95 98/98/98 96/96/96
f 99/99/99 100/100/100 7/7/7
f 99/99/99 7/7/7 6/6/6
f 99/99/99 6/6/6 5/5/5
f 99/99/99 5/5/5 101/101/101
f 99/99/99 101/101/101 52/52/52
f 99/99/99 52/52/52 51/51/51
f 99/99/99 51/51/51 102/102/102
f 99/99/99 102/102/102 100/100/100
f 103/103/103 104/104/104 15/15/15
f 103/103/103 15/15/15 14/14/14
f 103/103/103 14/14/14 9/9/9
f 103/103/103 9/9/9 105/105/105
f 103/103/103 105/105/105 48/48/48
f 103/103/103 48/48/48 58/58/58
f 103/103/103 58/58/58 106/106/106
f 103/103/103 106/106/106 104/104/104
f 107/107/107 108/108/108 12/12/12
f 107/107/107 12/12/12 11/11/11
f 107/107/107 11/11/11 15/15/15
f 107/107/107 15/15/15 104/104/104
f 107/107/107 104/104/104 106/106/106
f 107/107/107 106/106/106 56/56/56
f 107/107/107 56/56/56 60/60/60
f 107/107/107 60/60/60 108/108/108
f 109/109/109 97/97/97 40/40/40
f 109/109/109 40/40/40 39/39/39
f 109/109/109 39/39/39 38/38/38
f 109/109/109 38/38/38 92/92/92
f 109/109/109 92/92/92 94/94/94
f 109/109/109 94/94/94 85/85/85
f 109/109/109 85/85/85 84/84/84
f 109/109/109 84/84/84 97/97/97
f 110/110/110 111/111/111 27/27/27
f 110/110/110 27/27/27 45/45/45
f 110/110/110 45/45/45 44/44/44
f 110/110/110 44/44/44 96/96/96
f 110/110/110 96/96/96 98/98/98
f 110/110/110 98/98/98 88/88/88
f 110/110/110 88/88/88 74/74/74
f 110/110/110 74/74/74 111/111/111
f 112/112/112 105/105/105 9/9/9
f 112/112/112 9/9/9 8/8/8
f 112/112/112 8/8/8 7/7/7
f 112/112/112 7/7/7 100/100/100
f 112/112/112 100/100/100 102/102/102
f 112/112/112 102/102/102 49/49/49
f 112/112/112 49/49/49 48/48/48
f 112/112/112 48/48/48 105/105/105
f 113/113/113 101/101/101 5/5/5
f 113/113/113 5/5/5 33/33/33
f 113/113/113 33/33/33 29/29/29
f 113/113/113 29/29/29 114/114/114
f 113/113/113 114/114/114 72/72/72
f 113/113/113 72/72/72 78/78/78
f 113/113/113 78/78/78 52/52/52
f 113/113/113 52/52/52 101/101/101
f 115/115/115 116/116/116 24/24/24
f 115/115/115 24/24/24 35/35/35
f 115/115/115 35/35/35 12/12/12
f 115/115/115 12/12/12 108/108/108
f 115/115/115 108/108/108 60/60/60
f 115/115/115 60/60/60 80/80/80
f 115/115/115 80/80/80 63/63/63
f 115/115/115 63/63/63 116/116/116
f 117/117/117 93/93/93 18/18/18
f 117/117/117 18/18/18 17/17/17
f 117/117/117 17/17/17 24/24/24
f 117/117/117 24/24/24 116/116/116
f 117/117/117 116/116/116 63/63/63
f 117/117/117 63/63/63 62/62/62
f 117/117/117 62/62/62 69/69/69
f 117/117/117 69/69/69 93/93/93
f 118/118/118 114/114/114 29/29/29
f 118/118/118 29/29/29 28/28/28
f 118/118/118 28/28/28 27/27/27
f 118/118/118 27/27/27 111/111/111
f 118/118/118 111/111/111 74/74/74
f 118/118/118 74/74/74 73/73/73
f 118/118/118 73/73/73 72/72/72
f 118/118/118 72/72/72 114/114/114
