v -2.346856 0.714985 -1.107223
v -2.347484 0.715793 -1.109095
v -2.349821 0.714422 -1.108242
v -2.348834 0.71361 -1.106244
v -2.348249 0.713092 -1.10458
v -2.346699 0.714387 -1.105589
v -2.345871 0.715177 -1.10664
v -2.345467 0.715905 -1.108041
v -2.345749 0.716721 -1.109777
v -2.348983 0.716682 -1.110325
v -2.35043 0.717362 -1.11103
v -2.352487 0.716471 -1.110761
v -2.351252 0.715538 -1.10977
v -2.347309 0.717373 -1.110727
v -2.348893 0.717586 -1.111046
v -2.358057 0.710087 -1.108021
v -2.359067 0.710925 -1.109169
v -2.360936 0.708579 -1.108551
v -2.360035 0.707832 -1.107544
v -2.358903 0.706907 -1.106123
v -2.356785 0.709047 -1.106406
v -2.354578 0.711052 -1.106823
v -2.355917 0.712154 -1.108499
v -2.356987 0.713051 -1.109679
v -2.355688 0.708198 -1.104566
v -2.35794 0.706162 -1.104489
v -2.357265 0.705652 -1.103197
v -2.354916 0.707615 -1.103115
v -2.352645 0.709589 -1.103347
v -2.353439 0.710178 -1.104885
v -2.351091 0.711995 -1.105454
v -2.352221 0.712842 -1.10746
v -2.350327 0.711453 -1.103834
v -2.353606 0.714 -1.109121
v -2.354733 0.714967 -1.11026
v -2.361857 0.705423 -1.106927
v -2.362557 0.706007 -1.107647
v -2.363259 0.704401 -1.106993
v -2.363153 0.703543 -1.106431
v -2.362534 0.703028 -1.105754
v -2.360992 0.704712 -1.105891
v -2.360293 0.704176 -1.104646
v -2.362081 0.702688 -1.104869
v -2.361331 0.702864 -1.104182
v -2.359815 0.703821 -1.103648
v -2.34678 0.714806 -1.107332
v -2.347424 0.715624 -1.109228
v -2.345706 0.716593 -1.109876
v -2.345412 0.715768 -1.108121
v -2.345827 0.715074 -1.106694
v -2.346635 0.714248 -1.105657
v -2.348181 0.712958 -1.104654
v -2.348753 0.713436 -1.106358
v -2.349754 0.714258 -1.108378
v -2.348939 0.716528 -1.110481
v -2.350406 0.717255 -1.111156
v -2.348874 0.717504 -1.111137
v -2.347279 0.717257 -1.110843
v -2.351199 0.715387 -1.109925
v -2.352455 0.716365 -1.110887
v -2.357967 0.709957 -1.10818
v -2.359005 0.710832 -1.109295
v -2.356933 0.712953 -1.109805
v -2.355837 0.712017 -1.108657
v -2.354487 0.710905 -1.106965
v -2.356685 0.708908 -1.10655
v -2.358796 0.706775 -1.106269
v -2.359938 0.707709 -1.107705
v -2.36087 0.708491 -1.108678
v -2.355578 0.708052 -1.104695
v -2.353337 0.710023 -1.105011
v -2.352564 0.709469 -1.103433
v -2.354829 0.707501 -1.103204
v -2.357172 0.705543 -1.103286
v -2.357823 0.706022 -1.104619
v -2.351001 0.71183 -1.105575
v -2.352142 0.712686 -1.107599
v -2.350253 0.711326 -1.103914
v -2.35354 0.713855 -1.109278
v -2.35469 0.714865 -1.110386
v -2.361759 0.705302 -1.107088
v -2.362489 0.705922 -1.107775
v -2.360882 0.704582 -1.106038
v -2.362452 0.702931 -1.105864
v -2.36308 0.703453 -1.106553
v -2.363208 0.704336 -1.107087
v -2.360173 0.704038 -1.104776
v -2.35972 0.703714 -1.103737
v -2.361263 0.702785 -1.10425
v -2.361991 0.702585 -1.104965
v -2.362762 0.706165 -1.107945
v -2.363667 0.703968 -1.106956
v -2.361208 0.70879 -1.108945
v -2.363208 0.704336 -1.107087
v -2.362637 0.702146 -1.104985
v -2.361735 0.702428 -1.104139
v -2.363011 0.702424 -1.105758
v -2.361263 0.702785 -1.10425
v -2.346617 0.714125 -1.105071
v -2.345657 0.715171 -1.106471
v -2.348022 0.712859 -1.104056
v -2.345827 0.715074 -1.106694
v -2.346738 0.717551 -1.110912
v -2.348926 0.717777 -1.111238
v -2.345152 0.716973 -1.110049
v -2.348874 0.717504 -1.111137
v -2.350904 0.717543 -1.111323
v -2.352886 0.716737 -1.111149
v -2.363552 0.702876 -1.10632
v -2.359613 0.703654 -1.103353
v -2.356998 0.705432 -1.102804
v -2.34498 0.71615 -1.108349
v -2.350038 0.711216 -1.103327
v -2.352343 0.709338 -1.10287
v -2.355092 0.715245 -1.110698
v -2.357321 0.713308 -1.11013
v -2.359378 0.711163 -1.10961
v -2.354619 0.707369 -1.10267
vn -0.3479 0.8425 0.4112
vn -0.2244 0.782 0.5814
vn -0.2735 0.7526 0.599
vn -0.3861 0.8063 0.4481
vn -0.4019 0.7902 0.4626
vn -0.3445 0.8404 0.4182
vn -0.3018 0.8719 0.3856
vn -0.2521 0.8739 0.4155
vn -0.1462 0.8223 0.5499
vn -0.1247 0.6645 0.7368
vn -0.1294 0.6688 0.732
vn -0.212 0.6388 0.7396
vn -0.1865 0.6471 0.7392
vn -0.0698 0.7285 0.6814
vn -0.0708 0.6876 0.7226
vn -0.4099 0.5509 0.7269
vn -0.4366 0.5623 0.7022
vn -0.4611 0.541 0.7034
vn -0.429 0.524 0.7358
vn -0.4995 0.5687 0.6534
vn -0.4694 0.5986 0.6491
vn -0.4064 0.6552 0.6368
vn -0.3464 0.5951 0.7251
vn -0.3746 0.597 0.7094
vn -0.522 0.6403 0.5634
vn -0.5492 0.6199 0.5604
vn -0.5319 0.5975 0.6
vn -0.5105 0.6213 0.5944
vn -0.4723 0.6749 0.5669
vn -0.4722 0.6954 0.5417
vn -0.4211 0.7577 0.4985
vn -0.3334 0.7121 0.6179
vn -0.434 0.7369 0.5182
vn -0.2626 0.6313 0.7297
vn -0.2927 0.6243 0.7243
vn -0.4242 0.5014 0.7541
vn -0.4621 0.5168 0.7206
vn -0.4556 0.4895 0.7435
vn -0.4499 0.4492 0.7719
vn -0.5513 0.5125 0.6583
vn -0.5134 0.5543 0.6551
vn -0.5707 0.6183 0.5404
vn -0.6187 0.5838 0.5256
vn -0.5822 0.5906 0.5587
vn -0.556 0.5918 0.5836
vn 0.3797 -0.8371 -0.3938
vn 0.238 -0.7742 -0.5865
vn 0.29 -0.7419 -0.6045
vn 0.4693 -0.8162 -0.3369
vn 0.5357 -0.8111 -0.2347
vn 0.5192 -0.8156 -0.2553
vn 0.4936 -0.8083 -0.3209
vn 0.3942 -0.8093 -0.4354
vn 0.2734 -0.7526 -0.599
vn 0.1284 -0.6367 -0.7603
vn 0.0955 -0.4777 -0.8733
vn 0.0892 -0.4549 -0.886
vn 0.1353 -0.5495 -0.8245
vn 0.1792 -0.6378 -0.749
vn 0.1375 -0.5242 -0.8404
vn 0.3999 -0.544 -0.7376
vn 0.3261 -0.493 -0.8065
vn 0.28 -0.522 -0.8057
vn 0.3376 -0.588 -0.735
vn 0.4065 -0.6551 -0.6369
vn 0.4695 -0.5984 -0.6491
vn 0.4996 -0.5686 -0.6535
vn 0.4158 -0.5173 -0.7479
vn 0.3124 -0.4779 -0.8209
vn 0.5285 -0.6467 -0.5499
vn 0.4787 -0.7005 -0.5292
vn 0.5345 -0.7249 -0.4346
vn 0.569 -0.6868 -0.4523
vn 0.5802 -0.6915 -0.4303
vn 0.5553 -0.6286 -0.5445
vn 0.4279 -0.7619 -0.4863
vn 0.3334 -0.7121 -0.6179
vn 0.5016 -0.7742 -0.386
vn 0.2545 -0.6236 -0.7391
vn 0.2061 -0.5385 -0.817
vn 0.3951 -0.5029 -0.7687
vn 0.2525 -0.4706 -0.8454
vn 0.505 -0.5631 -0.6541
vn 0.4672 -0.6006 -0.6488
vn 0.2996 -0.5136 -0.804
vn 0.2119 -0.4694 -0.8572
vn 0.5678 -0.6407 -0.5168
vn 0.5741 -0.7272 -0.3763
vn 0.5647 -0.7509 -0.3425
vn 0.546 -0.7099 -0.4449
vn -0.8264 0.2246 -0.5163
vn -0.9514 -0.0989 -0.2918
vn -0.736 0.326 -0.5934
vn 0.2119 -0.4694 -0.8572
vn -0.571 -0.7699 0.285
vn -0.2611 -0.649 0.7145
vn -0.6285 -0.7778 0.0057
vn 0.5647 -0.7509 -0.3425
vn 0.634 0.0416 0.7722
vn 0.7993 0.2196 0.5593
vn 0.5121 -0.1115 0.8516
vn 0.5357 -0.8111 -0.2347
vn 0.4434 0.6756 -0.5889
vn 0.0341 0.83 -0.5566
vn 0.8404 0.4135 -0.3504
vn 0.0892 -0.4549 -0.886
vn -0.2836 0.7737 -0.5665
vn -0.4673 0.6697 -0.5771
vn -0.8148 -0.5754 -0.0704
vn 0.1085 -0.5205 0.8469
vn 0.2534 -0.4627 0.8495
vn 0.9507 0.271 0.1508
vn 0.4309 -0.2333 0.8717
vn 0.3899 -0.3102 0.867
vn -0.5729 0.5669 -0.592
vn -0.6212 0.4956 -0.607
vn -0.6638 0.4216 -0.6177
vn 0.3467 -0.384 0.8557
vt 0.839504 0.118056
vt 0.856743 0.205307
vt 0.741230 0.205307
vt 0.734555 0.106726
vt 0.724541 0.032791
vt 0.813647 0.052618
vt 0.868992 0.081539
vt 0.913398 0.129584
vt 0.940923 0.205307
vt 0.839504 0.292557
vt 0.813647 0.357995
vt 0.724541 0.377822
vt 0.734555 0.303887
vt 0.913398 0.281029
vt 0.868992 0.329074
vt 0.369475 0.299954
vt 0.368286 0.370940
vt 0.245840 0.351447
vt 0.246397 0.288815
vt 0.246768 0.205307
vt 0.370268 0.205307
vt 0.494283 0.205307
vt 0.492822 0.304944
vt 0.490632 0.379672
vt 0.369475 0.110659
vt 0.246397 0.121798
vt 0.245841 0.059166
vt 0.368286 0.039673
vt 0.490632 0.030941
vt 0.492822 0.105669
vt 0.616755 0.103478
vt 0.619174 0.205307
vt 0.613127 0.027106
vt 0.616755 0.307135
vt 0.613126 0.383507
vt 0.123273 0.268175
vt 0.123047 0.315326
vt 0.054743 0.283353
vt 0.030912 0.249131
vt 0.030973 0.205306
vt 0.123423 0.205306
vt 0.123273 0.142438
vt 0.030912 0.161481
vt 0.054744 0.127260
vt 0.123047 0.095287
vt 0.839504 0.118056
vt 0.856743 0.205307
vt 0.968983 0.205307
vt 0.938030 0.133427
vt 0.876123 0.061548
vt 0.805028 0.030806
vt 0.721203 0.008146
vt 0.734555 0.106726
vt 0.741230 0.205307
vt 0.839504 0.292557
vt 0.805028 0.379807
vt 0.876123 0.349065
vt 0.938030 0.277186
vt 0.734555 0.303887
vt 0.721203 0.402467
vt 0.369475 0.299954
vt 0.367890 0.394602
vt 0.489902 0.404581
vt 0.492822 0.304944
vt 0.494283 0.205307
vt 0.370268 0.205307
vt 0.246768 0.205307
vt 0.246397 0.288815
vt 0.245655 0.372324
vt 0.369475 0.110659
vt 0.492822 0.105669
vt 0.489902 0.006032
vt 0.367890 0.016011
vt 0.245655 0.038289
vt 0.246397 0.121798
vt 0.616755 0.103478
vt 0.619174 0.205307
vt 0.611917 0.001649
vt 0.616755 0.307135
vt 0.611917 0.408964
vt 0.123273 0.268175
vt 0.122972 0.331043
vt 0.123423 0.205306
vt 0.000156 0.205306
vt 0.000125 0.242784
vt 0.000064 0.280261
vt 0.123273 0.142438
vt 0.122972 0.079570
vt 0.000064 0.130352
vt 0.000125 0.167829
vt 0.122972 0.331043
vt 0.030806 0.283587
vt 0.245655 0.372324
vt 0.030806 0.283587
vt 0.000125 0.167829
vt 0.030806 0.127026
vt 0.000156 0.205306
vt 0.030806 0.127026
vt 0.805028 0.030806
vt 0.873826 0.071832
vt 0.721203 0.008146
vt 0.873826 0.071832
vt 0.938030 0.277186
vt 0.873826 0.338781
vt 0.968983 0.205307
vt 0.873826 0.338781
vt 0.805028 0.379807
vt 0.721203 0.402467
vt 0.000125 0.242784
vt 0.122972 0.079570
vt 0.245655 0.038289
vt 0.938030 0.133427
vt 0.611917 0.001649
vt 0.489902 0.006032
vt 0.611917 0.408964
vt 0.489902 0.404581
vt 0.367890 0.394602
vt 0.367890 0.016011
f 1/1/1 2/2/2 3/3/3
f 1/1/1 3/3/3 4/4/4
f 1/1/1 4/4/4 5/5/5
f 1/1/1 5/5/5 6/6/6
f 1/1/1 6/6/6 7/7/7
f 1/1/1 7/7/7 8/8/8
f 1/1/1 8/8/8 9/9/9
f 1/1/1 9/9/9 2/2/2
f 10/10/10 11/11/11 12/12/12
f 10/10/10 12/12/12 13/13/13
f 10/10/10 13/13/13 3/3/3
f 10/10/10 3/3/3 2/2/2
f 10/10/10 2/2/2 9/9/9
f 10/10/10 9/9/9 14/14/14
f 10/10/10 14/14/14 15/15/15
f 10/10/10 15/15/15 11/11/11
f 16/16/16 17/17/17 18/18/18
f 16/16/16 18/18/18 19/19/19
f 16/16/16 19/19/19 20/20/20
f 16/16/16 20/20/20 21/21/21
f 16/16/16 21/21/21 22/22/22
f 16/16/16 22/22/22 23/23/23
f 16/16/16 23/23/23 24/24/24
f 16/16/16 24/24/24 17/17/17
f 25/25/25 21/21/21 20/20/20
f 25/25/25 20/20/20 26/26/26
f 25/25/25 26/26/26 27/27/27
f 25/25/25 27/27/27 28/28/28
f 25/25/25 28/28/28 29/29/29
f 25/25/25 29/29/29 30/30/30
f 25/25/25 30/30/30 22/22/22
f 25/25/25 22/22/22 21/21/21
f 31/31/31 32/32/32 22/22/22
f 31/31/31 22/22/22 30/30/30
f 31/31/31 30/30/30 29/29/29
f 31/31/31 29/29/29 33/33/33
f 31/31/31 33/33/33 5/5/5
f 31/31/31 5/5/5 4/4/4
f 31/31/31 4/4/4 3/3/3
f 31/31/31 3/3/3 32/32/32
f 34/34/34 35/35/35 24/24/24
f 34/34/34 24/24/24 23/23/23
f 34/34/34 23/23/23 22/22/22
f 34/34/34 22/22/22 32/32/32
f 34/34/34 32/32/32 3/3/3
f 34/34/34 3/3/3 13/13/13
f 34/34/34 13/13/13 12/12/12
f 34/34/34 12/12/12 35/35/35
f 36/36/36 37/37/37 38/38/38
f 36/36/36 38/38/38 39/39/39
f 36/36/36 39/39/39 40/40/40
f 36/36/36 40/40/40 41/41/41
f 36/36/36 41/41/41 20/20/20
f 36/36/36 20/20/20 19/19/19
f 36/36/36 19/19/19 18/18/18
f 36/36/36 18/18/18 37/37/37
f 42/42/42 41/41/41 40/40/40
f 42/42/42 40/40/40 43/43/43
f 42/42/42 43/43/43 44/44/44
f 42/42/42 44/44/44 45/45/45
f 42/42/42 45/45/45 27/27/27
f 42/42/42 27/27/27 26/26/26
f 42/42/42 26/26/26 20/20/20
f 42/42/42 20/20/20 41/41/41
f 46/46/46 47/47/47 48/48/48
f 46/46/46 48/48/48 49/49/49
f 46/46/46 49/49/49 50/50/50
f 46/46/46 50/50/50 51/51/51
f 46/46/46 51/51/51 52/52/52
f 46/46/46 52/52/52 53/53/53
f 46/46/46 53/53/53 54/54/54
f 46/46/46 54/54/54 47/47/47
f 55/55/55 56/56/56 57/57/57
f 55/55/55 57/57/57 58/58/58
f 55/55/55 58/58/58 48/48/48
f 55/55/55 48/48/48 47/47/47
f 55/55/55 47/47/47 54/54/54
f 55/55/55 54/54/54 59/59/59
f 55/55/55 59/59/59 60/60/60
f 55/55/55 60/60/60 56/56/56
f 61/61/61 62/62/62 63/63/63
f 61/61/61 63/63/63 64/64/64
f 61/61/61 64/64/64 65/65/65
f 61/61/61 65/65/65 66/66/66
f 61/61/61 66/66/66 67/67/67
f 61/61/61 67/67/67 68/68/68
f 61/61/61 68/68/68 69/69/69
f 61/61/61 69/69/69 62/62/62
f 70/70/70 66/66/66 65/65/65
f 70/70/70 65/65/65 71/71/71
f 70/70/70 71/71/71 72/72/72
f 70/70/70 72/72/72 73/73/73
f 70/70/70 73/73/73 74/74/74
f 70/70/70 74/74/74 75/75/75
f 70/70/70 75/75/75 67/67/67
f 70/70/70 67/67/67 66/66/66
f 76/76/76 77/77/77 54/54/54
f 76/76/76 54/54/54 53/53/53
f 76/76/76 53/53/53 52/52/52
f 76/76/76 52/52/52 78/78/78
f 76/76/76 78/78/78 72/72/72
f 76/76/76 72/72/72 71/71/71
f 76/76/76 71/71/71 65/65/65
f 76/76/76 65/65/65 77/77/77
f 79/79/79 80/80/80 60/60/60
f 79/79/79 60/60/60 59/59/59
f 79/79/79 59/59/59 54/54/54
f 79/79/79 54/54/54 77/77/77
f 79/79/79 77/77/77 65/65/65
f 79/79/79 65/65/65 64/64/64
f 79/79/79 64/64/64 63/63/63
f 79/79/79 63/63/63 80/80/80
f 81/81/81 82/82/82 69/69/69
f 81/81/81 69/69/69 68/68/68
f 81/81/81 68/68/68 67/67/67
f 81/81/81 67/67/67 83/83/83
f 81/81/81 83/83/83 84/84/84
f 81/81/81 84/84/84 85/85/85
f 81/81/81 85/85/85 86/86/86
f 81/81/81 86/86/86 82/82/82
f 87/87/87 83/83/83 67/67/67
f 87/87/87 67/67/67 75/75/75
f 87/87/87 75/75/75 74/74/74
f 87/87/87 74/74/74 88/88/88
f 87/87/87 88/88/88 89/89/89
f 87/87/87 89/89/89 90/90/90
f 87/87/87 90/90/90 84/84/84
f 87/87/87 84/84/84 83/83/83
f 91/91/91 92/92/92 38/38/38
f 91/91/91 38/38/38 37/37/37
f 91/91/91 37/37/37 18/18/18
f 91/91/91 18/18/18 93/93/93
f 91/91/91 93/93/93 69/69/69
f 91/91/91 69/69/69 82/82/82
f 91/91/91 82/82/82 94/94/94
f 91/91/91 94/94/94 92/92/92
f 95/95/95 96/96/96 44/44/44
f 95/95/95 44/44/44 43/43/43
f 95/95/95 43/43/43 40/40/40
f 95/95/95 40/40/40 97/97/97
f 95/95/95 97/97/97 84/84/84
f 95/95/95 84/84/84 90/90/90
f 95/95/95 90/90/90 98/98/98
f 95/95/95 98/98/98 96/96/96
f 99/99/99 100/100/100 7/7/7
f 99/99/99 7/7/7 6/6/6
f 99/99/99 6/6/6 5/5/5
f 99/99/99 5/5/5 101/101/101
f 99/99/99 101/101/101 52/52/52
f 99/99/99 52/52/52 51/51/51
f 99/99/99 51/51/51 102/102/102
f 99/99/99 102/102/102 100/100/100
f 103/103/103 104/104/104 15/15/15
f 103/103/103 15/15/15 14/14/14
f 103/103/103 14/14/14 9/9/9
f 103/103/103 9/9/9 105/105/105
f 103/103/103 105/105/105 48/48/48
f 103/103/103 48/48/48 58/58/58
f 103/103/103 58/58/58 106/106/106
f 103/103/103 106/106/106 104/104/104
f 107/107/107 108/108/108 12/12/12
f 107/107/107 12/12/12 11/11/11
f 107/107/107 11/11/11 15/15/15
f 107/107/107 15/15/15 104/104/104
f 107/107/107 104/104/104 106/106/106
f 107/107/107 106/106/106 56/56/56
f 107/107/107 56/56/56 60/60/60
f 107/107/107 60/60/60 108/108/108
f 109/109/109 97/97/97 40/40/40
f 109/109/109 40/40/40 39/39/39
f 109/109/109 39/39/39 38/38/38
f 109/109/109 38/38/38 92/92/92
f 109/109/109 92/92/92 94/94/94
f 109/109/109 94/94/94 85/85/85
f 109/109/109 85/85/85 84/84/84
f 109/109/109 84/84/84 97/97/97
f 110/110/110 111/111/111 27/27/27
f 110/110/110 27/27/27 45/45/45
f 110/110/110 45/45/45 44/44/44
f 110/110/110 44/44/44 96/96/96
f 110/110/110 96/96/96 98/98/98
f 110/110/110 98/98/98 88/88/88
f 110/110/110 88/88/88 74/74/74
f 110/110/110 74/74/74 111/111/111
f 112/112/112 105/105/105 9/9/9
f 112/112/112 9/9/9 8/8/8
f 112/112/112 8/8/8 7/7/7
f 112/112/112 7/7/7 100/100/100
f 112/112/112 100/100/100 102/102/102
f 112/112/112 102/102/102 49/49/49
f 112/112/112 49/49/49 48/48/48
f 112/112/112 48/48/48 105/105/105
f 113/113/113 101/101/101 5/5/5
f 113/113/113 5/5/5 33/33/33
f 113/113/113 33/33/33 29/29/29
f 113/113/113 29/29/29 114/114/114
f 113/113/113 114/114/114 72/72/72
f 113/113/113 72/72/72 78/78/78
f 113/113/113 78/78/78 52/52/52
f 113/113/113 52/52/52 101/101/101
f 115/115/115 116/116/116 24/24/24
f 115/115/115 24/24/24 35/35/35
f 115/115/115 35/35/35 12/12/12
f 115/115/115 12/12/12 108/108/108
f 115/115/115 108/108/108 60/60/60
f 115/115/115 60/60/60 80/80/80
f 115/115/115 80/80/80 63/63/63
f 115/115/115 63/63/63 116/116/116
f 117/117/117 93/93/93 18/18/18
f 117/117/117 18/18/18 17/17/17
f 117/117/117 17/17/17 24/24/24
f 117/117/117 24/24/24 116/116/116
f 117/117/117 116/116/116 63/63/63
f 117/117/117 63/63/63 62/62/62
f 117/117/117 62/62/62 69/69/69
f 117/117/117 69/69/69 93/93/93
f 118/118/118 114/114/114 29/29/29
f 118/118/118 29/29/29 28/28/28
f 118/118/118 28/28/28 27/27/27
f 118/118/118 27/27/27 111/111/111
f 118/118/118 111/111/111 74/74/74
f 118/118/118 74/74/74 73/73/73
f 118/118/118 73/73/73 72/72/72
f 118/118/118 72/72/72 114/114/114
