v -2.371765 0.729268 -1.078059
v -2.374077 0.729937 -1.078051
v -2.374074 0.727572 -1.07589
v -2.37147 0.72703 -1.076185
v -2.369431 0.726658 -1.076147
v -2.369939 0.728649 -1.077652
v -2.370749 0.729829 -1.078663
v -2.372101 0.730793 -1.079453
v -2.374118 0.731599 -1.079711
v -2.376136 0.730345 -1.076874
v -2.377604 0.730538 -1.075574
v -2.378138 0.728804 -1.073786
v -2.376437 0.728254 -1.074838
v -2.375884 0.731725 -1.078428
v -2.376957 0.731359 -1.07698
v -2.376983 0.719838 -1.069409
v -2.37873 0.720374 -1.068682
v -2.378623 0.717158 -1.067427
v -2.377083 0.71668 -1.068084
v -2.37499 0.716089 -1.068831
v -2.374612 0.719172 -1.07024
v -2.374313 0.72215 -1.071846
v -2.376786 0.722858 -1.070957
v -2.378601 0.723436 -1.070166
v -2.372115 0.718638 -1.070728
v -2.372778 0.715619 -1.069251
v -2.37108 0.715299 -1.069472
v -2.370201 0.718273 -1.070994
v -2.369679 0.721237 -1.072585
v -2.371694 0.721603 -1.072338
v -2.371463 0.724438 -1.074217
v -2.374143 0.724963 -1.073775
v -2.369383 0.72411 -1.07438
v -2.376629 0.725711 -1.072816
v -2.378437 0.726341 -1.071925
v -2.376947 0.713413 -1.066898
v -2.37808 0.713788 -1.066356
v -2.377511 0.711798 -1.065944
v -2.37677 0.710912 -1.066087
v -2.375727 0.710582 -1.066545
v -2.375398 0.712959 -1.067494
v -2.373734 0.712622 -1.067769
v -2.374568 0.710369 -1.066684
v -2.37355 0.710822 -1.067018
v -2.372447 0.7124 -1.067884
v -2.371818 0.729109 -1.078247
v -2.374164 0.729784 -1.078231
v -2.374182 0.731482 -1.079844
v -2.372139 0.730671 -1.079592
v -2.37077 0.729739 -1.078767
v -2.369962 0.728527 -1.077796
v -2.369457 0.726543 -1.076295
v -2.371527 0.72688 -1.076379
v -2.37416 0.727427 -1.076077
v -2.376255 0.730202 -1.077044
v -2.377709 0.730436 -1.075695
v -2.37703 0.731281 -1.07707
v -2.375974 0.731616 -1.078552
v -2.376553 0.728118 -1.075016
v -2.378238 0.728707 -1.073914
v -2.377087 0.719738 -1.069616
v -2.378819 0.720303 -1.068834
v -2.378691 0.723355 -1.070312
v -2.376893 0.722746 -1.071157
v -2.374398 0.722032 -1.072052
v -2.374696 0.719067 -1.070454
v -2.375073 0.715993 -1.06905
v -2.377186 0.716589 -1.068296
v -2.378711 0.717093 -1.067582
v -2.372178 0.718528 -1.070947
v -2.371757 0.72148 -1.072549
v -2.369714 0.721143 -1.072746
v -2.370238 0.718188 -1.07116
v -2.371115 0.715221 -1.069642
v -2.37284 0.715518 -1.069475
v -2.371523 0.724301 -1.074419
v -2.374229 0.724831 -1.073972
v -2.369415 0.724005 -1.074535
v -2.37674 0.725586 -1.073005
v -2.378532 0.726252 -1.072063
v -2.377051 0.713327 -1.067111
v -2.37817 0.713726 -1.066512
v -2.375481 0.712866 -1.067714
v -2.375789 0.710513 -1.06671
v -2.376849 0.710847 -1.066246
v -2.377574 0.711751 -1.066061
v -2.373794 0.712524 -1.067994
v -2.37248 0.712324 -1.068055
v -2.373577 0.710766 -1.067144
v -2.374612 0.710296 -1.066853
v -2.3785 0.713886 -1.066244
v -2.377597 0.711183 -1.065689
v -2.379178 0.717289 -1.067276
v -2.377574 0.711751 -1.066061
v -2.374866 0.709586 -1.066397
v -2.373629 0.710205 -1.066764
v -2.375864 0.70976 -1.066302
v -2.373577 0.710766 -1.067144
v -2.369337 0.728388 -1.077581
v -2.370478 0.729899 -1.078791
v -2.368759 0.726482 -1.076201
v -2.37077 0.729739 -1.078767
v -2.37584 0.732136 -1.079
v -2.377194 0.731554 -1.07697
v -2.37416 0.732101 -1.080323
v -2.37703 0.731281 -1.07707
v -2.378144 0.730558 -1.075193
v -2.378752 0.728945 -1.073491
v -2.376746 0.710049 -1.065887
v -2.37203 0.712292 -1.067998
v -2.370528 0.715157 -1.069622
v -2.372229 0.731246 -1.079979
v -2.368701 0.723953 -1.074504
v -2.369021 0.721073 -1.072739
v -2.379084 0.726512 -1.071689
v -2.379248 0.723593 -1.069966
v -2.379354 0.720522 -1.068506
v -2.369577 0.718113 -1.071157
vn 0.1325 0.6664 0.7337
vn 0.3439 0.647 0.6805
vn 0.3438 0.6023 0.7204
vn 0.1551 0.6186 0.7703
vn 0.1639 0.5978 0.7847
vn 0.1405 0.6653 0.7331
vn 0.1243 0.7101 0.693
vn 0.1711 0.7282 0.6636
vn 0.3417 0.712 0.6134
vn 0.5391 0.5663 0.6234
vn 0.5324 0.5688 0.6269
vn 0.5098 0.5126 0.6909
vn 0.5186 0.529 0.6717
vn 0.5032 0.6463 0.5736
vn 0.5451 0.6065 0.5788
vn 0.4295 0.3635 0.8267
vn 0.395 0.3659 0.8426
vn 0.3888 0.3376 0.8572
vn 0.4331 0.3316 0.8381
vn 0.3247 0.3519 0.8779
vn 0.3293 0.3902 0.8598
vn 0.3366 0.465 0.8188
vn 0.448 0.4266 0.7857
vn 0.4222 0.4193 0.8037
vn 0.2254 0.4139 0.882
vn 0.2141 0.3855 0.8975
vn 0.2597 0.3694 0.8922
vn 0.2603 0.3991 0.8792
vn 0.2441 0.4631 0.852
vn 0.219 0.483 0.8477
vn 0.1927 0.5599 0.8058
vn 0.3418 0.5436 0.7666
vn 0.2078 0.5355 0.8185
vn 0.4814 0.4887 0.7276
vn 0.4653 0.4722 0.7487
vn 0.4545 0.3115 0.8345
vn 0.407 0.3142 0.8576
vn 0.4336 0.2902 0.8531
vn 0.4666 0.2532 0.8474
vn 0.3151 0.2814 0.9064
vn 0.3224 0.3336 0.8858
vn 0.1875 0.3774 0.9069
vn 0.159 0.3292 0.9308
vn 0.2027 0.3471 0.9156
vn 0.2358 0.3564 0.904
vn -0.1046 -0.6511 -0.7517
vn -0.344 -0.6349 -0.6917
vn -0.3434 -0.5866 -0.7334
vn -0.0196 -0.6023 -0.798
vn 0.0992 -0.5777 -0.8102
vn 0.0744 -0.587 -0.8061
vn 0.0038 -0.5872 -0.8094
vn -0.14 -0.619 -0.7728
vn -0.3438 -0.6024 -0.7203
vn -0.5624 -0.5382 -0.6277
vn -0.6973 -0.3967 -0.5969
vn -0.7141 -0.3774 -0.5896
vn -0.6283 -0.4525 -0.6328
vn -0.5316 -0.5225 -0.6666
vn -0.6449 -0.4274 -0.6335
vn -0.4441 -0.3602 -0.8203
vn -0.5424 -0.3354 -0.7703
vn -0.5565 -0.3781 -0.7397
vn -0.4614 -0.4226 -0.7801
vn -0.3366 -0.4649 -0.8188
vn -0.3293 -0.3901 -0.8599
vn -0.3247 -0.3518 -0.8779
vn -0.4503 -0.3295 -0.8298
vn -0.5629 -0.3254 -0.7598
vn -0.2097 -0.418 -0.8839
vn -0.2044 -0.4859 -0.8498
vn -0.093 -0.4924 -0.8654
vn -0.1 -0.4444 -0.8902
vn -0.075 -0.4456 -0.8921
vn -0.1962 -0.3921 -0.8987
vn -0.1784 -0.5618 -0.8078
vn -0.3418 -0.5436 -0.7666
vn -0.0562 -0.551 -0.8326
vn -0.4942 -0.484 -0.7222
vn -0.5945 -0.4183 -0.6867
vn -0.4791 -0.3224 -0.8163
vn -0.6101 -0.3382 -0.7165
vn -0.3238 -0.3448 -0.881
vn -0.3296 -0.3929 -0.8585
vn -0.5483 -0.3637 -0.7531
vn -0.6372 -0.3505 -0.6863
vn -0.1646 -0.3999 -0.9016
vn -0.0239 -0.4826 -0.8755
vn 0.0058 -0.5089 -0.8608
vn -0.0997 -0.4743 -0.8747
vn -0.8271 -0.054 0.5593
vn -0.6347 -0.4054 0.6578
vn -0.8731 0.0738 0.4818
vn -0.6372 -0.3505 -0.6863
vn 0.1225 -0.9235 0.3634
vn 0.6225 -0.7155 0.3169
vn -0.1529 -0.9438 0.2928
vn 0.0058 -0.5089 -0.8608
vn 0.9503 0.2345 -0.2047
vn 0.8015 0.4629 -0.3785
vn 0.9921 0.0478 -0.1159
vn 0.0992 -0.5777 -0.8102
vn -0.4384 0.7991 -0.4114
vn -0.5918 0.8061 -0.0002
vn -0.031 0.6801 -0.7324
vn -0.7141 -0.3774 -0.5896
vn -0.7213 0.6464 0.2487
vn -0.792 0.4871 0.3679
vn -0.3211 -0.8142 0.4836
vn 0.8754 -0.4733 0.0976
vn 0.9289 -0.3702 -0.0068
vn 0.4849 0.5716 -0.6619
vn 0.9925 -0.095 -0.0764
vn 0.9811 -0.1815 -0.0673
vn -0.8355 0.3553 0.419
vn -0.86 0.2726 0.4314
vn -0.8779 0.1887 0.4401
vn 0.9624 -0.265 -0.0587
vt 0.839504 0.118056
vt 0.856743 0.205307
vt 0.741230 0.205307
vt 0.734555 0.106726
vt 0.724541 0.032791
vt 0.813647 0.052618
vt 0.868992 0.081539
vt 0.913398 0.129584
vt 0.940923 0.205307
vt 0.839504 0.292557
vt 0.813647 0.357995
vt 0.724541 0.377822
vt 0.734555 0.303887
vt 0.913398 0.281029
vt 0.868992 0.329074
vt 0.369475 0.299954
vt 0.368286 0.370940
vt 0.245840 0.351447
vt 0.246397 0.288815
vt 0.246768 0.205307
vt 0.370268 0.205307
vt 0.494283 0.205307
vt 0.492822 0.304944
vt 0.490632 0.379672
vt 0.369475 0.110659
vt 0.246397 0.121798
vt 0.245841 0.059166
vt 0.368286 0.039673
vt 0.490632 0.030941
vt 0.492822 0.105669
vt 0.616755 0.103478
vt 0.619174 0.205307
vt 0.613127 0.027106
vt 0.616755 0.307135
vt 0.613126 0.383507
vt 0.123273 0.268175
vt 0.123047 0.315326
vt 0.054743 0.283353
vt 0.030912 0.249131
vt 0.030973 0.205306
vt 0.123423 0.205306
vt 0.123273 0.142438
vt 0.030912 0.161481
vt 0.054744 0.127260
vt 0.123047 0.095287
vt 0.839504 0.118056
vt 0.856743 0.205307
vt 0.968983 0.205307
vt 0.938030 0.133427
vt 0.876123 0.061548
vt 0.805028 0.030806
vt 0.721203 0.008146
vt 0.734555 0.106726
vt 0.741230 0.205307
vt 0.839504 0.292557
vt 0.805028 0.379807
vt 0.876123 0.349065
vt 0.938030 0.277186
vt 0.734555 0.303887
vt 0.721203 0.402467
vt 0.369475 0.299954
vt 0.367890 0.394602
vt 0.489902 0.404581
vt 0.492822 0.304944
vt 0.494283 0.205307
vt 0.370268 0.205307
vt 0.246768 0.205307
vt 0.246397 0.288815
vt 0.245655 0.372324
vt 0.369475 0.110659
vt 0.492822 0.105669
vt 0.489902 0.006032
vt 0.367890 0.016011
vt 0.245655 0.038289
vt 0.246397 0.121798
vt 0.616755 0.103478
vt 0.619174 0.205307
vt 0.611917 0.001649
vt 0.616755 0.307135
vt 0.611917 0.408964
vt 0.123273 0.268175
vt 0.122972 0.331043
vt 0.123423 0.205306
vt 0.000156 0.205306
vt 0.000125 0.242784
vt 0.000064 0.280261
vt 0.123273 0.142438
vt 0.122972 0.079570
vt 0.000064 0.130352
vt 0.000125 0.167829
vt 0.122972 0.331043
vt 0.030806 0.283587
vt 0.245655 0.372324
vt 0.030806 0.283587
vt 0.000125 0.167829
vt 0.030806 0.127026
vt 0.000156 0.205306
vt 0.030806 0.127026
vt 0.805028 0.030806
vt 0.873826 0.071832
vt 0.721203 0.008146
vt 0.873826 0.071832
vt 0.938030 0.277186
vt 0.873826 0.338781
vt 0.968983 0.205307
vt 0.873826 0.338781
vt 0.805028 0.379807
vt 0.721203 0.402467
vt 0.000125 0.242784
vt 0.122972 0.079570
vt 0.245655 0.038289
vt 0.938030 0.133427
vt 0.611917 0.001649
vt 0.489902 0.006032
vt 0.611917 0.408964
vt 0.489902 0.404581
vt 0.367890 0.394602
vt 0.367890 0.016011
f 1/1/1 2/2/2 3/3/3
f 1/1/1 3/3/3 4/4/4
f 1/1/1 4/4/4 5/5/5
f 1/1/1 5/5/5 6/6/6
f 1/1/1 6/6/6 7/7/7
f 1/1/1 7/7/7 8/8/8
f 1/1/1 8/8/8 9/9/9
f 1/1/1 9/9/9 2/2/2
f 10/10/10 11/11/11 12/12/12
f 10/10/10 12/12/12 13/13/13
f 10/10/10 13/13/13 3/3/3
f 10/10/10 3/3/3 2/2/2
f 10/10/10 2/2/2 9/9/9
f 10/10/10 9/9/9 14/14/14
f 10/10/10 14/14/14 15/15/15
f 10/10/10 15/15/15 11/11/11
f 16/16/16 17/17/17 18/18/18
f 16/16/16 18/18/18 19/19/19
f 16/16/16 19/19/19 20/20/20
f 16/16/16 20/20/20 21/21/21
f 16/16/16 21/21/21 22/22/22
f 16/16/16 22/22/22 23/23/23
f 16/16/16 23/23/23 24/24/24
f 16/16/16 24/24/24 17/17/17
f 25/25/25 21/21/21 20/20/20
f 25/25/25 20/20/20 26/26/26
f 25/25/25 26/26/26 27/27/27
f 25/25/25 27/27/27 28/28/28
f 25/25/25 28/28/28 29/29/29
f 25/25/25 29/29/29 30/30/30
f 25/25/25 30/30/30 22/22/22
f 25/25/25 22/22/22 21/21/21
f 31/31/31 32/32/32 22/22/22
f 31/31/31 22/22/22 30/30/30
f 31/31/31 30/30/30 29/29/29
f 31/31/31 29/29/29 33/33/33
f 31/31/31 33/33/33 5/5/5
f 31/31/31 5/5/5 4/4/4
f 31/31/31 4/4/4 3/3/3
f 31/31/31 3/3/3 32/32/32
f 34/34/34 35/35/35 24/24/24
f 34/34/34 24/24/24 23/23/23
f 34/34/34 23/23/23 22/22/22
f 34/34/34 22/22/22 32/32/32
f 34/34/34 32/32/32 3/3/3
f 34/34/34 3/3/3 13/13/13
f 34/34/34 13/13/13 12/12/12
f 34/34/34 12/12/12 35/35/35
f 36/36/36 37/37/37 38/38/38
f 36/36/36 38/38/38 39/39/39
f 36/36/36 39/39/39 40/40/40
f 36/36/36 40/40/40 41/41/41
f 36/36/36 41/41/41 20/20/20
f 36/36/36 20/20/20 19/19/19
f 36/36/36 19/19/19 18/18/18
f 36/36/36 18/18/18 37/37/37
f 42/42/42 41/41/41 40/40/40
f 42/42/42 40/40/40 43/43/43
f 42/42/42 43/43/43 44/44/44
f 42/42/42 44/44/44 45/45/45
f 42/42/42 45/45/45 27/27/27
f 42/42/42 27/27/27 26/26/26
f 42/42/42 26/26/26 20/20/20
f 42/42/42 20/20/20 41/41/41
f 46/46/46 47/47/47 48/48/48
f 46/46/46 48/48/48 49/49/49
f 46/46/46 49/49/49 50/50/50
f 46/46/46 50/50/50 51/51/51
f 46/46/46 51/51/51 52/52/52
f 46/46/46 52/52/52 53/53/53
f 46/46/46 53/53/53 54/54/54
f 46/46/46 54/54/54 47/47/47
f 55/55/55 56/56/56 57/57/57
f 55/55/55 57/57/57 58/58/58
f 55/55/55 58/58/58 48/48/48
f 55/55/55 48/48/48 47/47/47
f 55/55/55 47/47/47 54/54/54
f 55/55/55 54/54/54 59/59/59
f 55/55/55 59/59/59 60/60/60
f 55/55/55 60/60/60 56/56/56
f 61/61/61 62/62/62 63/63/63
f 61/61/61 63/63/63 64/64/64
f 61/61/61 64/64/64 65/65/65
f 61/61/61 65/65/65 66/66/66
f 61/61/61 66/66/66 67/67/67
f 61/61/61 67/67/67 68/68/68
f 61/61/61 68/68/68 69/69/69
f 61/61/61 69/69/69 62/62/62
f 70/70/70 66/66/66 65/65/65
f 70/70/70 65/65/65 71/71/71
f 70/70/70 71/71/71 72/72/72
f 70/70/70 72/72/72 73/73/73
f 70/70/70 73/73/73 74/74/74
f 70/70/70 74/74/74 75/75/75
f 70/70/70 75/75/75 67/67/67
f 70/70/70 67/67/67 66/66/66
f 76/76/76 77/77/77 54/54/54
f 76/76/76 54/54/54 53/53/53
f 76/76/76 53/53/53 52/52/52
f 76/76/76 52/52/52 78/78/78
f 76/76/76 78/78/78 72/72/72
f 76/76/76 72/72/72 71/71/71
f 76/76/76 71/71/71 65/65/65
f 76/76/76 65/65/65 77/77/77
f 79/79/79 80/80/80 60/60/60
f 79/79/79 60/60/60 59/59/59
f 79/79/79 59/59/59 54/54/54
f 79/79/79 54/54/54 77/77/77
f 79/79/79 77/77/77 65/65/65
f 79/79/79 65/65/65 64/64/64
f 79/79/79 64/64/64 63/63/63
f 79/79/79 63/63/63 80/80/80
f 81/81/81 82/82/82 69/69/69
f 81/81/81 69/69/69 68/68/68
f 81/81/81 68/68/68 67/67/67
f 81/81/81 67/67/67 83/83/83
f 81/81/81 83/83/83 84/84/84
f 81/81/81 84/84/84 85/85/85
f 81/81/81 85/85/85 86/86/86
f 81/81/81 86/86/86 82/82/82
f 87/87/87 83/83/83 67/67/67
f 87/87/87 67/67/67 75/75/75
f 87/87/87 75/75/75 74/74/74
f 87/87/87 74/74/74 88/88/88
f 87/87/87 88/88/88 89/89/89
f 87/87/87 89/89/89 90/90/90
f 87/87/87 90/90/90 84/84/84
f 87/87/87 84/84/84 83/83/83
f 91/91/91 92/92/92 38/38/38
f 91/91/91 38/38/38 37/37/37
f 91/91/91 37/37/37 18/18/18
f 91/91/91 18/18/18 93/93/93
f 91/91/91 93/93/93 69/69/69
f 91/91/91 69/69/69 82/82/82
f 91/91/91 82/82/82 94/94/94
f 91/91/91 94/94/94 92/92/92
f 95/95/95 96/96/96 44/44/44
f 95/95/95 44/44/44 43/43/43
f 95/95/95 43/43/43 40/40/40
f 95/95/95 40/40/40 97/97/97
f 95/95/95 97/97/97 84/84/84
f 95/95/95 84/84/84 90/90/90
f 95/95/95 90/90/90 98/98/98
f 95/95/95 98/98/98 96/96/96
f 99/99/99 100/100/100 7/7/7
f 99/99/99 7/7/7 6/6/6
f 99/99/99 6/6/6 5/5/5
f 99/99/99 5/5/5 101/101/101
f 99/99/99 101/101/101 52/52/52
f 99/99/99 52/52/52 51/51/51
f 99/99/99 51/51/51 102/102/102
f 99/99/99 102/102/102 100/100/100
f 103/103/103 104/104/104 15/15/15
f 103/103/103 15/15/15 14/14/14
f 103/103/103 14/14/14 9/9/9
f 103/103/103 9/9/9 105/105/105
f 103/103/103 105/105/105 48/48/48
f 103/103/103 48/48/48 58/58/58
f 103/103/103 58/58/58 106/106/106
f 103/103/103 106/106/106 104/104/104
f 107/107/107 108/108/108 12/12/12
f 107/107/107 12/12/12 11/11/11
f 107/107/107 11/11/11 15/15/15
f 107/107/107 15/15/15 104/104/104
f 107/107/107 104/104/104 106/106/106
f 107/107/107 106/106/106 56/56/56
f 107/107/107 56/56/56 60/60/60
f 107/107/107 60/60/60 108/108/108
f 109/109/109 97/97/97 40/40/40
f 109/109/109 40/40/40 39/39/39
f 109/109/109 39/39/39 38/38/38
f 109/109/109 38/38/38 92/92/92
f 109/109/109 92/92/92 94/94/94
f 109/109/109 94/94/94 85/85/85
f 109/109/109 85/85/85 84/84/84
f 109/109/109 84/84/84 97/97/97
f 110/110/110 111/111/111 27/27/27
f 110/110/110 27/27/27 45/45/45
f 110/110/110 45/45/45 44/44/44
f 110/110/110 44/44/44 96/96/96
f 110/110/110 96/96/96 98/98/98
f 110/110/110 98/98/98 88/88/88
f 110/110/110 88/88/88 74/74/74
f 110/110/110 74/74/74 111/111/111
f 112/112/112 105/105/105 9/9/9
f 112/112/112 9/9/9 8/8/8
f 112/112/112 8/8/8 7/7/7
f 112/112/112 7/7/7 100/100/100
f 112/112/112 100/100/100 102/102/102
f 112/112/112 102/102/102 49/49/49
f 112/112/112 49/49/49 48/48/48
f 112/112/112 48/48/48 105/105/105
f 113/113/113 101/101/101 5/5/5
f 113/113/113 5/5/5 33/33/33
f 113/113/113 33/33/33 29/29/29
f 113/113/113 29/29/29 114/114/114
f 113/113/113 114/114/114 72/72/72
f 113/113/113 72/72/72 78/78/78
f 113/113/113 78/78/78 52/52/52
f 113/113/113 52/52/52 101/101/101
f 115/115/115 116/116/116 24/24/24
f 115/115/115 24/24/24 35/35/35
f 115/115/115 35/35/35 12/12/12
f 115/115/115 12/12/12 108/108/108
f 115/115/115 108/108/108 60/60/60
f 115/115/115 60/60/60 80/80/80
f 115/115/115 80/80/80 63/63/63
f 115/115/115 63/63/63 116/116/116
f 117/117/117 93/93/93 18/18/18
f 117/117/117 18/18/18 17/17/17
f 117/117/117 17/17/17 24/24/24
f 117/117/117 24/24/24 116/116/116
f 117/117/117 116/116/116 63/63/63
f 117/117/117 63/63/63 62/62/62
f 117/117/117 62/62/62 69/69/69
f 117/117/117 69/69/69 93/93/93
f 118/118/118 114/114/114 29/29/29
f 118/118/118 29/29/29 28/28/28
f 118/118/118 28/28/28 27/27/27
f 118/118/118 27/27/27 111/111/111
f 118/118/118 111/111/111 74/74/74
f 118/118/118 74/74/74 73/73/73
f 118/118/118 73/73/73 72/72/72
f 118/118/118 72/72/72 114/114/114
