v -2.393812 0.747769 -1.094178
v -2.393893 0.748481 -1.09574
v -2.395333 0.746715 -1.095958
v -2.395047 0.746075 -1.09418
v -2.395017 0.745597 -1.092778
v -2.39404 0.747123 -1.092947
v -2.393385 0.748085 -1.093409
v -2.39289 0.748942 -1.094273
v -2.392781 0.749733 -1.095616
v -2.394791 0.748932 -1.097136
v -2.395756 0.749162 -1.098135
v -2.396967 0.747914 -1.098671
v -2.39616 0.747396 -1.097542
v -2.393737 0.749949 -1.096833
v -2.394775 0.749737 -1.09761
v -2.399682 0.741272 -1.098741
v -2.400259 0.7418 -1.099909
v -2.401014 0.739463 -1.100156
v -2.400494 0.738995 -1.099127
v -2.399894 0.738393 -1.097721
v -2.399014 0.740592 -1.097148
v -2.39799 0.742733 -1.096645
v -2.398703 0.743451 -1.098304
v -2.399328 0.744013 -1.099515
v -2.398592 0.739977 -1.095447
v -2.39953 0.73785 -1.096214
v -2.399325 0.737456 -1.095051
v -2.398349 0.739531 -1.094137
v -2.397331 0.741639 -1.093477
v -2.397563 0.742096 -1.094858
v -2.396339 0.744156 -1.094421
v -2.396731 0.744787 -1.096254
v -2.396167 0.743715 -1.092989
v -2.397496 0.745531 -1.097918
v -2.398195 0.746124 -1.099117
v -2.401197 0.736623 -1.09936
v -2.401622 0.736981 -1.100114
v -2.40182 0.735499 -1.099915
v -2.401665 0.734803 -1.099487
v -2.401304 0.734483 -1.098792
v -2.400722 0.736168 -1.098322
v -2.400478 0.735768 -1.097185
v -2.401173 0.734218 -1.097998
v -2.400933 0.734446 -1.097235
v -2.400361 0.735482 -1.096301
v -2.393672 0.747671 -1.094234
v -2.39376 0.748391 -1.09582
v -2.392683 0.749663 -1.095676
v -2.392787 0.748866 -1.094314
v -2.393307 0.748028 -1.093435
v -2.393932 0.747046 -1.092978
v -2.394907 0.745526 -1.092811
v -2.394904 0.745983 -1.094238
v -2.395195 0.746631 -1.096037
v -2.394666 0.748851 -1.097237
v -2.395667 0.749107 -1.098221
v -2.394709 0.749694 -1.097671
v -2.393646 0.749887 -1.09691
v -2.396029 0.747321 -1.09764
v -2.396873 0.747862 -1.098754
v -2.399532 0.741222 -1.098829
v -2.400149 0.741765 -1.099981
v -2.399223 0.743972 -1.09959
v -2.398558 0.743392 -1.098394
v -2.397839 0.742669 -1.09672
v -2.398858 0.740536 -1.097221
v -2.399735 0.738344 -1.097793
v -2.400341 0.738951 -1.099213
v -2.400902 0.739434 -1.100227
v -2.398433 0.739915 -1.095506
v -2.397408 0.742026 -1.094918
v -2.397213 0.741584 -1.093514
v -2.398227 0.739482 -1.094174
v -2.399201 0.737413 -1.095086
v -2.399367 0.737795 -1.096271
v -2.39619 0.744075 -1.094481
v -2.396587 0.744712 -1.096331
v -2.396053 0.743652 -1.093025
v -2.397359 0.745463 -1.098012
v -2.398095 0.746077 -1.099195
v -2.401044 0.736582 -1.099446
v -2.40151 0.736954 -1.100185
v -2.400563 0.736121 -1.098393
v -2.401184 0.734448 -1.098845
v -2.401551 0.734773 -1.099553
v -2.401736 0.735478 -1.099967
v -2.400314 0.735716 -1.097241
v -2.400236 0.73544 -1.096335
v -2.400841 0.734415 -1.097262
v -2.40105 0.734178 -1.098038
v -2.401715 0.737089 -1.100398
v -2.401978 0.735063 -1.100038
v -2.401138 0.739607 -1.100532
v -2.401736 0.735478 -1.099967
v -2.401349 0.733683 -1.098286
v -2.401089 0.734007 -1.097352
v -2.401444 0.733906 -1.098972
v -2.400841 0.734415 -1.097262
v -2.394067 0.746872 -1.092548
v -2.393292 0.748112 -1.093212
v -2.394958 0.745406 -1.092323
v -2.393307 0.748028 -1.093435
v -2.393346 0.75026 -1.096767
v -2.394796 0.749899 -1.097757
v -2.392367 0.750119 -1.095601
v -2.394709 0.749694 -1.097671
v -2.396039 0.749216 -1.098509
v -2.397196 0.748064 -1.099086
v -2.40177 0.734184 -1.099559
v -2.400266 0.735368 -1.09602
v -2.399201 0.737305 -1.094677
v -2.392537 0.749299 -1.094323
v -2.396059 0.743539 -1.092525
v -2.3972 0.741461 -1.093031
v -2.398384 0.746302 -1.099553
v -2.39949 0.744183 -1.099953
v -2.400403 0.741961 -1.100332
v -2.398213 0.73936 -1.093715
vn -0.7681 0.5922 0.2435
vn -0.708 0.5454 0.4487
vn -0.7451 0.4988 0.4426
vn -0.8011 0.5393 0.2594
vn -0.8141 0.5165 0.2653
vn -0.7672 0.5901 0.2513
vn -0.7303 0.6391 0.241
vn -0.7009 0.6519 0.2894
vn -0.6448 0.6143 0.4548
vn -0.6407 0.4408 0.6286
vn -0.6445 0.4439 0.6225
vn -0.7057 0.3876 0.593
vn -0.6872 0.4039 0.6038
vn -0.5968 0.5284 0.6038
vn -0.5984 0.4825 0.6395
vn -0.8344 0.2438 0.4942
vn -0.8515 0.2502 0.4608
vn -0.8645 0.2222 0.4507
vn -0.8439 0.211 0.4933
vn -0.8878 0.2445 0.3898
vn -0.8719 0.2828 0.3996
vn -0.8353 0.3581 0.4171
vn -0.7968 0.306 0.521
vn -0.8151 0.3013 0.4948
vn -0.8984 0.3199 0.3008
vn -0.9125 0.2926 0.2858
vn -0.905 0.2703 0.3284
vn -0.8937 0.3004 0.3331
vn -0.8709 0.3676 0.3261
vn -0.8686 0.3912 0.3041
vn -0.8321 0.4736 0.2886
vn -0.7877 0.4382 0.4329
vn -0.8429 0.4465 0.3002
vn -0.7416 0.3661 0.5621
vn -0.7621 0.3506 0.5442
vn -0.8385 0.1884 0.5112
vn -0.863 0.1965 0.4653
vn -0.8562 0.1692 0.4881
vn -0.8475 0.1284 0.515
vn -0.9124 0.1744 0.3703
vn -0.8947 0.2262 0.385
vn -0.9221 0.2878 0.2585
vn -0.9439 0.2429 0.2236
vn -0.9286 0.2554 0.2692
vn -0.9167 0.2604 0.303
vn 0.7861 -0.5799 -0.214
vn 0.7184 -0.5328 -0.4472
vn 0.7571 -0.4827 -0.4402
vn 0.8315 -0.5416 -0.1235
vn 0.8456 -0.5338 -0.0026
vn 0.8415 -0.5395 -0.0285
vn 0.8427 -0.5292 -0.0985
vn 0.8042 -0.5417 -0.2445
vn 0.745 -0.4989 -0.4426
vn 0.6426 -0.4094 -0.6476
vn 0.5996 -0.2521 -0.7595
vn 0.5907 -0.2308 -0.7731
vn 0.6408 -0.3149 -0.7002
vn 0.6814 -0.3959 -0.6155
vn 0.6395 -0.2876 -0.713
vn 0.8275 -0.2388 -0.508
vn 0.7733 -0.2031 -0.6006
vn 0.745 -0.2451 -0.6203
vn 0.7906 -0.3004 -0.5336
vn 0.8354 -0.358 -0.4171
vn 0.872 -0.2826 -0.3996
vn 0.8879 -0.2443 -0.3898
vn 0.835 -0.207 -0.5098
vn 0.7617 -0.1909 -0.6191
vn 0.901 -0.3261 -0.286
vn 0.8712 -0.3961 -0.29
vn 0.8903 -0.4177 -0.1813
vn 0.912 -0.3678 -0.1815
vn 0.9146 -0.3726 -0.1569
vn 0.9146 -0.3016 -0.2691
vn 0.8346 -0.4775 -0.2747
vn 0.7877 -0.4382 -0.4329
vn 0.8621 -0.483 -0.1529
vn 0.7356 -0.3599 -0.5739
vn 0.6934 -0.2826 -0.6628
vn 0.8203 -0.1966 -0.537
vn 0.718 -0.1993 -0.6668
vn 0.8906 -0.2373 -0.388
vn 0.8708 -0.2854 -0.4003
vn 0.7577 -0.2315 -0.6101
vn 0.6879 -0.2095 -0.6949
vn 0.9189 -0.3137 -0.2391
vn 0.9016 -0.4178 -0.1115
vn 0.8893 -0.4491 -0.0857
vn 0.8983 -0.3984 -0.1852
vn -0.5781 0.0324 -0.8153
vn -0.65 -0.3501 -0.6744
vn -0.5098 0.17 -0.8433
vn 0.6879 -0.2095 -0.6949
vn -0.304 -0.9526 -0.0084
vn -0.2562 -0.8175 0.5157
vn -0.2402 -0.9278 -0.2855
vn 0.8893 -0.4491 -0.0857
vn 0.2166 0.1045 0.9706
vn 0.3725 0.3633 0.854
vn 0.1402 -0.0916 0.9858
vn 0.8456 -0.5338 -0.0026
vn 0.3505 0.8788 -0.3237
vn -0.0645 0.8823 -0.4663
vn 0.6894 0.7222 0.0554
vn 0.5907 -0.2308 -0.7731
vn -0.3078 0.7273 -0.6134
vn -0.4191 0.5729 -0.7044
vn -0.4427 -0.7878 -0.4282
vn -0.0449 -0.6017 0.7974
vn 0.0549 -0.5011 0.8636
vn 0.64 0.5351 0.5514
vn 0.1098 -0.2343 0.9659
vn 0.1059 -0.3182 0.9421
vn -0.4631 0.4464 -0.7656
vn -0.4712 0.3673 -0.8018
vn -0.4754 0.2865 -0.8318
vn 0.1016 -0.3986 0.9115
vt 0.839504 0.118056
vt 0.856743 0.205307
vt 0.741230 0.205307
vt 0.734555 0.106726
vt 0.724541 0.032791
vt 0.813647 0.052618
vt 0.868992 0.081539
vt 0.913398 0.129584
vt 0.940923 0.205307
vt 0.839504 0.292557
vt 0.813647 0.357995
vt 0.724541 0.377822
vt 0.734555 0.303887
vt 0.913398 0.281029
vt 0.868992 0.329074
vt 0.369475 0.299954
vt 0.368286 0.370940
vt 0.245840 0.351447
vt 0.246397 0.288815
vt 0.246768 0.205307
vt 0.370268 0.205307
vt 0.494283 0.205307
vt 0.492822 0.304944
vt 0.490632 0.379672
vt 0.369475 0.110659
vt 0.246397 0.121798
vt 0.245841 0.059166
vt 0.368286 0.039673
vt 0.490632 0.030941
vt 0.492822 0.105669
vt 0.616755 0.103478
vt 0.619174 0.205307
vt 0.613127 0.027106
vt 0.616755 0.307135
vt 0.613126 0.383507
vt 0.123273 0.268175
vt 0.123047 0.315326
vt 0.054743 0.283353
vt 0.030912 0.249131
vt 0.030973 0.205306
vt 0.123423 0.205306
vt 0.123273 0.142438
vt 0.030912 0.161481
vt 0.054744 0.127260
vt 0.123047 0.095287
vt 0.839504 0.118056
vt 0.856743 0.205307
vt 0.968983 0.205307
vt 0.938030 0.133427
vt 0.876123 0.061548
vt 0.805028 0.030806
vt 0.721203 0.008146
vt 0.734555 0.106726
vt 0.741230 0.205307
vt 0.839504 0.292557
vt 0.805028 0.379807
vt 0.876123 0.349065
vt 0.938030 0.277186
vt 0.734555 0.303887
vt 0.721203 0.402467
vt 0.369475 0.299954
vt 0.367890 0.394602
vt 0.489902 0.404581
vt 0.492822 0.304944
vt 0.494283 0.205307
vt 0.370268 0.205307
vt 0.246768 0.205307
vt 0.246397 0.288815
vt 0.245655 0.372324
vt 0.369475 0.110659
vt 0.492822 0.105669
vt 0.489902 0.006032
vt 0.367890 0.016011
vt 0.245655 0.038289
vt 0.246397 0.121798
vt 0.616755 0.103478
vt 0.619174 0.205307
vt 0.611917 0.001649
vt 0.616755 0.307135
vt 0.611917 0.408964
vt 0.123273 0.268175
vt 0.122972 0.331043
vt 0.123423 0.205306
vt 0.000156 0.205306
vt 0.000125 0.242784
vt 0.000064 0.280261
vt 0.123273 0.142438
vt 0.122972 0.079570
vt 0.000064 0.130352
vt 0.000125 0.167829
vt 0.122972 0.331043
vt 0.030806 0.283587
vt 0.245655 0.372324
vt 0.030806 0.283587
vt 0.000125 0.167829
vt 0.030806 0.127026
vt 0.000156 0.205306
vt 0.030806 0.127026
vt 0.805028 0.030806
vt 0.873826 0.071832
vt 0.721203 0.008146
vt 0.873826 0.071832
vt 0.938030 0.277186
vt 0.873826 0.338781
vt 0.968983 0.205307
vt 0.873826 0.338781
vt 0.805028 0.379807
vt 0.721203 0.402467
vt 0.000125 0.242784
vt 0.122972 0.079570
vt 0.245655 0.038289
vt 0.938030 0.133427
vt 0.611917 0.001649
vt 0.489902 0.006032
vt 0.611917 0.408964
vt 0.489902 0.404581
vt 0.367890 0.394602
vt 0.367890 0.016011
f 1/1/1 2/2/2 3/3/3
f 1/1/1 3/3/3 4/4/4
f 1/1/1 4/4/4 5/5/5
f 1/1/1 5/5/5 6/6/6
f 1/1/1 6/6/6 7/7/7
f 1/1/1 7/7/7 8/8/8
f 1/1/1 8/8/8 9/9/9
f 1/1/1 9/9/9 2/2/2
f 10/10/10 11/11/11 12/12/12
f 10/10/10 12/12/12 13/13/13
f 10/10/10 13/13/13 3/3/3
f 10/10/10 3/3/3 2/2/2
f 10/10/10 2/2/2 9/9/9
f 10/10/10 9/9/9 14/14/14
f 10/10/10 14/14/14 15/15/15
f 10/10/10 15/15/15 11/11/11
f 16/16/16 17/17/17 18/18/18
f 16/16/16 18/18/18 19/19/19
f 16/16/16 19/19/19 20/20/20
f 16/16/16 20/20/20 21/21/21
f 16/16/16 21/21/21 22/22/22
f 16/16/16 22/22/22 23/23/23
f 16/16/16 23/23/23 24/24/24
f 16/16/16 24/24/24 17/17/17
f 25/25/25 21/21/21 20/20/20
f 25/25/25 20/20/20 26/26/26
f 25/25/25 26/26/26 27/27/27
f 25/25/25 27/27/27 28/28/28
f 25/25/25 28/28/28 29/29/29
f 25/25/25 29/29/29 30/30/30
f 25/25/25 30/30/30 22/22/22
f 25/25/25 22/22/22 21/21/21
f 31/31/31 32/32/32 22/22/22
f 31/31/31 22/22/22 30/30/30
f 31/31/31 30/30/30 29/29/29
f 31/31/31 29/29/29 33/33/33
f 31/31/31 33/33/33 5/5/5
f 31/31/31 5/5/5 4/4/4
f 31/31/31 4/4/4 3/3/3
f 31/31/31 3/3/3 32/32/32
f 34/34/34 35/35/35 24/24/24
f 34/34/34 24/24/24 23/23/23
f 34/34/34 23/23/23 22/22/22
f 34/34/34 22/22/22 32/32/32
f 34/34/34 32/32/32 3/3/3
f 34/34/34 3/3/3 13/13/13
f 34/34/34 13/13/13 12/12/12
f 34/34/34 12/12/12 35/35/35
f 36/36/36 37/37/37 38/38/38
f 36/36/36 38/38/38 39/39/39
f 36/36/36 39/39/39 40/40/40
f 36/36/36 40/40/40 41/41/41
f 36/36/36 41/41/41 20/20/20
f 36/36/36 20/20/20 19/19/19
f 36/36/36 19/19/19 18/18/18
f 36/36/36 18/18/18 37/37/37
f 42/42/42 41/41/41 40/40/40
f 42/42/42 40/40/40 43/43/43
f 42/42/42 43/43/43 44/44/44
f 42/42/42 44/44/44 45/45/45
f 42/42/42 45/45/45 27/27/27
f 42/42/42 27/27/27 26/26/26
f 42/42/42 26/26/26 20/20/20
f 42/42/42 20/20/20 41/41/41
f 46/46/46 47/47/47 48/48/48
f 46/46/46 48/48/48 49/49/49
f 46/46/46 49/49/49 50/50/50
f 46/46/46 50/50/50 51/51/51
f 46/46/46 51/51/51 52/52/52
f 46/46/46 52/52/52 53/53/53
f 46/46/46 53/53/53 54/54/54
f 46/46/46 54/54/54 47/47/47
f 55/55/55 56/56/56 57/57/57
f 55/55/55 57/57/57 58/58/58
f 55/55/55 58/58/58 48/48/48
f 55/55/55 48/48/48 47/47/47
f 55/55/55 47/47/47 54/54/54
f 55/55/55 54/54/54 59/59/59
f 55/55/55 59/59/59 60/60/60
f 55/55/55 60/60/60 56/56/56
f 61/61/61 62/62/62 63/63/63
f 61/61/61 63/63/63 64/64/64
f 61/61/61 64/64/64 65/65/65
f 61/61/61 65/65/65 66/66/66
f 61/61/61 66/66/66 67/67/67
f 61/61/61 67/67/67 68/68/68
f 61/61/61 68/68/68 69/69/69
f 61/61/61 69/69/69 62/62/62
f 70/70/70 66/66/66 65/65/65
f 70/70/70 65/65/65 71/71/71
f 70/70/70 71/71/71 72/72/72
f 70/70/70 72/72/72 73/73/73
f 70/70/70 73/73/73 74/74/74
f 70/70/70 74/74/74 75/75/75
f 70/70/70 75/75/75 67/67/67
f 70/70/70 67/67/67 66/66/66
f 76/76/76 77/77/77 54/54/54
f 76/76/76 54/54/54 53/53/53
f 76/76/76 53/53/53 52/52/52
f 76/76/76 52/52/52 78/78/78
f 76/76/76 78/78/78 72/72/72
f 76/76/76 72/72/72 71/71/71
f 76/76/76 71/71/71 65/65/65
f 76/76/76 65/65/65 77/77/77
f 79/79/79 80/80/80 60/60/60
f 79/79/79 60/60/60 59/59/59
f 79/79/79 59/59/59 54/54/54
f 79/79/79 54/54/54 77/77/77
f 79/79/79 77/77/77 65/65/65
f 79/79/79 65/65/65 64/64/64
f 79/79/79 64/64/64 63/63/63
f 79/79/79 63/63/63 80/80/80
f 81/81/81 82/82/82 69/69/69
f 81/81/81 69/69/69 68/68/68
f 81/81/81 68/68/68 67/67/67
f 81/81/81 67/67/67 83/83/83
f 81/81/81 83/83/83 84/84/84
f 81/81/81 84/84/84 85/85/85
f 81/81/81 85/85/85 86/86/86
f 81/81/81 86/86/86 82/82/82
f 87/87/87 83/83/83 67/67/67
f 87/87/87 67/67/67 75/75/75
f 87/87/87 75/75/75 74/74/74
f 87/87/87 74/74/74 88/88/88
f 87/87/87 88/88/88 89/89/89
f 87/87/87 89/89/89 90/90/90
f 87/87/87 90/90/90 84/84/84
f 87/87/87 84/84/84 83/83/83
f 91/91/91 92/92/92 38/38/38
f 91/91/91 38/38/38 37/37/37
f 91/91/91 37/37/37 18/18/18
f 91/91/91 18/18/18 93/93/93
f 91/91/91 93/93/93 69/69/69
f 91/91/91 69/69/69 82/82/82
f 91/91/91 82/82/82 94/94/94
f 91/91/91 94/94/94 92/92/92
f 95/95/95 96/96/96 44/44/44
f 95/95/95 44/44/44 43/43/43
f 95/95/95 43/43/43 40/40/40
f 95/95/95 40/40/40 97/97/97
f 95/95/95 97/97/97 84/84/84
f 95/95/95 84/84/84 90/90/90
f 95/95/95 90/90/90 98/98/98
f 95/95/95 98/98/98 96/96/96
f 99/99/99 100/100/100 7/7/7
f 99/99/99 7/7/7 6/6/6
f 99/99/99 6/6/6 5/5/5
f 99/99/99 5/5/5 101/101/101
f 99/99/99 101/101/101 52/52/52
f 99/99/99 52/52/52 51/51/51
f 99/99/99 51/51/51 102/102/102
f 99/99/99 102/102/102 100/100/100
f 103/103/103 104/104/104 15/15/15
f 103/103/103 15/15/15 14/14/14
f 103/103/103 14/14/14 9/9/9
f 103/103/103 9/9/9 105/105/105
f 103/103/103 105/105/105 48/48/48
f 103/103/103 48/48/48 58/58/58
f 103/103/103 58/58/58 106/106/106
f 103/103/103 106/106/106 104/104/104
f 107/107/107 108/108/108 12/12/12
f 107/107/107 12/12/12 11/11/11
f 107/107/107 11/11/11 15/15/15
f 107/107/107 15/15/15 104/104/104
f 107/107/107 104/104/104 106/106/106
f 107/107/107 106/106/106 56/56/56
f 107/107/107 56/56/56 60/60/60
f 107/107/107 60/60/60 108/108/108
f 109/109/109 97/97/97 40/40/40
f 109/109/109 40/40/40 39/39/39
f 109/109/109 39/39/39 38/38/38
f 109/109/109 38/38/38 92/92/92
f 109/109/109 92/92/92 94/94/94
f 109/109/109 94/94/94 85/85/85
f 109/109/109 85/85/85 84/84/84
f 109/109/109 84/84/84 97/97/97
f 110/110/110 111/111/111 27/27/27
f 110/110/110 27/27/27 45/45/45
f 110/110/110 45/45/45 44/44/44
f 110/110/110 44/44/44 96/96/96
f 110/110/110 96/96/96 98/98/98
f 110/110/110 98/98/98 88/88/88
f 110/110/110 88/88/88 74/74/74
f 110/110/110 74/74/74 111/111/111
f 112/112/112 105/105/105 9/9/9
f 112/112/112 9/9/9 8/8/8
f 112/112/112 8/8/8 7/7/7
f 112/112/112 7/7/7 100/100/100
f 112/112/112 100/100/100 102/102/102
f 112/112/112 102/102/102 49/49/49
f 112/112/112 49/49/49 48/48/48
f 112/112/112 48/48/48 105/105/105
f 113/113/113 101/101/101 5/5/5
f 113/113/113 5/5/5 33/33/33
f 113/113/113 33/33/33 29/29/29
f 113/113/113 29/29/29 114/114/114
f 113/113/113 114/114/114 72/72/72
f 113/113/113 72/72/72 78/78/78
f 113/113/113 78/78/78 52/52/52
f 113/113/113 52/52/52 101/101/101
f 115/115/115 116/116/116 24/24/24
f 115/115/115 24/24/24 35/35/35
f 115/115/115 35/35/35 12/12/12
f 115/115/115 12/12/12 108/108/108
f 115/115/115 108/108/108 60/60/60
f 115/115/115 60/60/60 80/80/80
f 115/115/115 80/80/80 63/63/63
f 115/115/115 63/63/63 116/116/116
f 117/117/117 93/93/93 18/18/18
f 117/117/117 18/18/18 17/17/17
f 117/117/117 17/17/17 24/24/24
f 117/117/117 24/24/24 116/116/116
f 117/117/117 116/116/116 63/63/63
f 117/117/117 63/63/63 62/62/62
f 117/117/117 62/62/62 69/69/69
f 117/117/117 69/69/69 93/93/93
f 118/118/118 114/114/114 29/29/29
f 118/118/118 29/29/29 28/28/28
f 118/118/118 28/28/28 27/27/27
f 118/118/118 27/27/27 111/111/111
f 118/118/118 111/111/111 74/74/74
f 118/118/118 74/74/74 73/73/73
f 118/118/118 73/73/73 72/72/72
f 118/118/118 72/72/72 114/114/114
