v -2.440027 0.770109 -1.101811
v -2.441055 0.77046 -1.102847
v -2.441623 0.768619 -1.102315
v -2.440373 0.768408 -1.101231
v -2.439523 0.768217 -1.100274
v -2.439386 0.769692 -1.100848
v -2.439451 0.770583 -1.101479
v -2.439791 0.77129 -1.102315
v -2.440607 0.771782 -1.103292
v -2.442467 0.770418 -1.103353
v -2.443667 0.770234 -1.103552
v -2.444386 0.768833 -1.103346
v -2.443147 0.768759 -1.102983
v -2.441904 0.771558 -1.10365
v -2.442917 0.771021 -1.103669
v -2.444366 0.762671 -1.10221
v -2.445474 0.762804 -1.102719
v -2.445445 0.760654 -1.102579
v -2.44446 0.760538 -1.102136
v -2.443197 0.760383 -1.101475
v -2.442943 0.762495 -1.101454
v -2.442612 0.764585 -1.101558
v -2.444108 0.764772 -1.102337
v -2.44528 0.764915 -1.102849
v -2.441648 0.762327 -1.100493
v -2.442056 0.760234 -1.100618
v -2.441233 0.760122 -1.099918
v -2.440711 0.762202 -1.09971
v -2.440298 0.764285 -1.099702
v -2.441265 0.764413 -1.100541
v -2.440813 0.766475 -1.100797
v -2.442158 0.766644 -1.101866
v -2.439865 0.766352 -1.099891
v -2.443698 0.76684 -1.102619
v -2.444921 0.766992 -1.103085
v -2.444379 0.758373 -1.102014
v -2.445135 0.75846 -1.102315
v -2.444754 0.757215 -1.102121
v -2.444245 0.756737 -1.101921
v -2.443571 0.756658 -1.101628
v -2.443423 0.758258 -1.101543
v -2.442585 0.758146 -1.100881
v -2.443016 0.756582 -1.101145
v -2.442542 0.756935 -1.100724
v -2.441989 0.758062 -1.100327
v -2.439935 0.770054 -1.101926
v -2.440981 0.770406 -1.102975
v -2.440552 0.77174 -1.103387
v -2.439722 0.771247 -1.1024
v -2.439396 0.770551 -1.101539
v -2.439309 0.769651 -1.100927
v -2.439447 0.76818 -1.100356
v -2.440281 0.768359 -1.101349
v -2.441548 0.768572 -1.102445
v -2.442413 0.770368 -1.103491
v -2.443635 0.770198 -1.10366
v -2.442892 0.770993 -1.103747
v -2.441864 0.771518 -1.103753
v -2.443088 0.768715 -1.103122
v -2.444351 0.768801 -1.103454
v -2.444296 0.762654 -1.10235
v -2.445428 0.762792 -1.102827
v -2.445236 0.764897 -1.102957
v -2.444041 0.764747 -1.102477
v -2.442532 0.764558 -1.101691
v -2.442861 0.762477 -1.101587
v -2.443114 0.760371 -1.101608
v -2.444389 0.760527 -1.102277
v -2.445399 0.760647 -1.102687
v -2.441554 0.762307 -1.100618
v -2.441173 0.764384 -1.100665
v -2.440223 0.764262 -1.099791
v -2.440636 0.762186 -1.0998
v -2.441157 0.76011 -1.100008
v -2.441962 0.76022 -1.100744
v -2.440721 0.766435 -1.100918
v -2.44208 0.766606 -1.101997
v -2.439789 0.766322 -1.099977
v -2.443635 0.766804 -1.102759
v -2.44488 0.766967 -1.103193
v -2.444309 0.758365 -1.102155
v -2.445089 0.758455 -1.102424
v -2.443339 0.758248 -1.101676
v -2.443509 0.756651 -1.101728
v -2.444193 0.756731 -1.102027
v -2.444718 0.757211 -1.102201
v -2.44249 0.758135 -1.101006
v -2.441912 0.758053 -1.100417
v -2.442486 0.756929 -1.100791
v -2.442944 0.756573 -1.101238
v -2.445368 0.758487 -1.102464
v -2.444798 0.756799 -1.10214
v -2.445755 0.76069 -1.102775
v -2.444718 0.757211 -1.102201
v -2.443128 0.756057 -1.101274
v -2.442582 0.756519 -1.10074
v -2.443593 0.756121 -1.101701
v -2.442486 0.756929 -1.100791
v -2.439136 0.769535 -1.100561
v -2.439298 0.770656 -1.101388
v -2.439205 0.768137 -1.09999
v -2.439396 0.770551 -1.101539
v -2.441699 0.771919 -1.103795
v -2.443049 0.77113 -1.103757
v -2.440433 0.772204 -1.103482
v -2.442892 0.770993 -1.103747
v -2.444055 0.770157 -1.103668
v -2.444786 0.768843 -1.103516
v -2.444178 0.756189 -1.101938
v -2.441755 0.75803 -1.100182
v -2.440923 0.760079 -1.099723
v -2.439682 0.771664 -1.102521
v -2.439513 0.766298 -1.099626
v -2.439941 0.764232 -1.099461
v -2.445312 0.767032 -1.103289
v -2.445652 0.764955 -1.103069
v -2.445825 0.762843 -1.102937
v -2.440365 0.762153 -1.099488
vn -0.6328 0.3858 0.6713
vn -0.4555 0.3913 0.7996
vn -0.4723 0.3359 0.8149
vn -0.6319 0.3293 0.7017
vn -0.6311 0.3051 0.7132
vn -0.6272 0.3852 0.6769
vn -0.6207 0.4404 0.6487
vn -0.5746 0.4687 0.6708
vn -0.4262 0.4751 0.7698
vn -0.2688 0.3399 0.9012
vn -0.2763 0.341 0.8985
vn -0.3213 0.2658 0.9089
vn -0.3064 0.2881 0.9073
vn -0.2774 0.431 0.8586
vn -0.2438 0.3928 0.8867
vn -0.4292 0.0779 0.8998
vn -0.4632 0.0738 0.8832
vn -0.4697 0.0421 0.8818
vn -0.4264 0.044 0.9034
vn -0.5292 0.0468 0.8472
vn -0.5238 0.0891 0.8471
vn -0.5101 0.1735 0.8424
vn -0.4052 0.1515 0.9015
vn -0.4325 0.1378 0.891
vn -0.612 0.101 0.7843
vn -0.6225 0.0689 0.7796
vn -0.5854 0.0567 0.8087
vn -0.5838 0.0891 0.807
vn -0.5921 0.1579 0.7902
vn -0.6103 0.1775 0.772
vn -0.6177 0.2631 0.7411
vn -0.4907 0.2651 0.83
vn -0.6107 0.2363 0.7557
vn -0.3592 0.2304 0.9044
vn -0.38 0.2072 0.9015
vn -0.4048 0.027 0.914
vn -0.4523 0.0204 0.8916
vn -0.4256 0.0 0.9049
vn -0.3904 -0.0318 0.9201
vn -0.5365 -0.0293 0.8433
vn -0.5314 0.0269 0.8466
vn -0.6438 0.0572 0.763
vn -0.6659 0.003 0.746
vn -0.6321 0.0262 0.7744
vn -0.6054 0.0398 0.7949
vn 0.6592 -0.3646 -0.6576
vn 0.4602 -0.3763 -0.8041
vn 0.4775 -0.3169 -0.8195
vn 0.733 -0.3007 -0.6102
vn 0.81 -0.27 -0.5206
vn 0.7939 -0.281 -0.5391
vn 0.7518 -0.2821 -0.596
vn 0.6434 -0.3283 -0.6915
vn 0.4722 -0.336 -0.8149
vn 0.2495 -0.3127 -0.9165
vn 0.1029 -0.1938 -0.9756
vn 0.0817 -0.1783 -0.9806
vn 0.1879 -0.2321 -0.9543
vn 0.2928 -0.2839 -0.913
vn 0.1708 -0.2087 -0.9629
vn 0.4145 -0.0773 -0.9068
vn 0.3093 -0.0734 -0.9481
vn 0.29 -0.1243 -0.9489
vn 0.3916 -0.15 -0.9078
vn 0.5102 -0.1734 -0.8424
vn 0.5239 -0.0889 -0.8471
vn 0.5292 -0.0467 -0.8472
vn 0.409 -0.0454 -0.9114
vn 0.286 -0.0681 -0.9558
vn 0.6244 -0.1039 -0.7742
vn 0.6218 -0.1791 -0.7624
vn 0.705 -0.1767 -0.6868
vn 0.7054 -0.1235 -0.6979
vn 0.7228 -0.1233 -0.6799
vn 0.6365 -0.0741 -0.7677
vn 0.6287 -0.2639 -0.7314
vn 0.4907 -0.2651 -0.83
vn 0.7207 -0.2419 -0.6496
vn 0.346 -0.2281 -0.9101
vn 0.2387 -0.1809 -0.9541
vn 0.379 -0.0439 -0.9243
vn 0.2286 -0.0959 -0.9688
vn 0.5301 -0.039 -0.847
vn 0.5234 -0.0922 -0.847
vn 0.3011 -0.1061 -0.9477
vn 0.193 -0.1184 -0.974
vn 0.6607 -0.0795 -0.7464
vn 0.7532 -0.1624 -0.6373
vn 0.7686 -0.1914 -0.6103
vn 0.7027 -0.1569 -0.6939
vn -0.9123 -0.2611 -0.3153
vn -0.7646 -0.6206 -0.1738
vn -0.9204 -0.1163 -0.3731
vn 0.193 -0.1184 -0.974
vn 0.069 -0.988 0.1377
vn 0.36 -0.7629 0.5369
vn -0.0485 -0.9913 -0.1225
vn 0.7686 -0.1914 -0.6103
vn 0.6827 0.3163 0.6586
vn 0.6517 0.5856 0.4821
vn 0.6963 0.1115 0.7089
vn 0.81 -0.27 -0.5206
vn -0.199 0.878 -0.4353
vn -0.5958 0.7426 -0.3058
vn 0.3233 0.8848 -0.3355
vn 0.0817 -0.1783 -0.9806
vn -0.8144 0.5046 -0.2866
vn -0.9012 0.3128 -0.2999
vn -0.3285 -0.9377 -0.1134
vn 0.612 -0.4544 0.6473
vn 0.693 -0.3205 0.6457
vn 0.6275 0.7738 0.0862
vn 0.7074 -0.0364 0.7058
vn 0.7177 -0.1206 0.6858
vn -0.9292 0.1707 -0.3279
vn -0.9306 0.0882 -0.3552
vn -0.9249 0.0056 -0.38
vn 0.7228 -0.2027 0.6606
vt 0.839504 0.118056
vt 0.856743 0.205307
vt 0.741230 0.205307
vt 0.734555 0.106726
vt 0.724541 0.032791
vt 0.813647 0.052618
vt 0.868992 0.081539
vt 0.913398 0.129584
vt 0.940923 0.205307
vt 0.839504 0.292557
vt 0.813647 0.357995
vt 0.724541 0.377822
vt 0.734555 0.303887
vt 0.913398 0.281029
vt 0.868992 0.329074
vt 0.369475 0.299954
vt 0.368286 0.370940
vt 0.245840 0.351447
vt 0.246397 0.288815
vt 0.246768 0.205307
vt 0.370268 0.205307
vt 0.494283 0.205307
vt 0.492822 0.304944
vt 0.490632 0.379672
vt 0.369475 0.110659
vt 0.246397 0.121798
vt 0.245841 0.059166
vt 0.368286 0.039673
vt 0.490632 0.030941
vt 0.492822 0.105669
vt 0.616755 0.103478
vt 0.619174 0.205307
vt 0.613127 0.027106
vt 0.616755 0.307135
vt 0.613126 0.383507
vt 0.123273 0.268175
vt 0.123047 0.315326
vt 0.054743 0.283353
vt 0.030912 0.249131
vt 0.030973 0.205306
vt 0.123423 0.205306
vt 0.123273 0.142438
vt 0.030912 0.161481
vt 0.054744 0.127260
vt 0.123047 0.095287
vt 0.839504 0.118056
vt 0.856743 0.205307
vt 0.968983 0.205307
vt 0.938030 0.133427
vt 0.876123 0.061548
vt 0.805028 0.030806
vt 0.721203 0.008146
vt 0.734555 0.106726
vt 0.741230 0.205307
vt 0.839504 0.292557
vt 0.805028 0.379807
vt 0.876123 0.349065
vt 0.938030 0.277186
vt 0.734555 0.303887
vt 0.721203 0.402467
vt 0.369475 0.299954
vt 0.367890 0.394602
vt 0.489902 0.404581
vt 0.492822 0.304944
vt 0.494283 0.205307
vt 0.370268 0.205307
vt 0.246768 0.205307
vt 0.246397 0.288815
vt 0.245655 0.372324
vt 0.369475 0.110659
vt 0.492822 0.105669
vt 0.489902 0.006032
vt 0.367890 0.016011
vt 0.245655 0.038289
vt 0.246397 0.121798
vt 0.616755 0.103478
vt 0.619174 0.205307
vt 0.611917 0.001649
vt 0.616755 0.307135
vt 0.611917 0.408964
vt 0.123273 0.268175
vt 0.122972 0.331043
vt 0.123423 0.205306
vt 0.000156 0.205306
vt 0.000125 0.242784
vt 0.000064 0.280261
vt 0.123273 0.142438
vt 0.122972 0.079570
vt 0.000064 0.130352
vt 0.000125 0.167829
vt 0.122972 0.331043
vt 0.030806 0.283587
vt 0.245655 0.372324
vt 0.030806 0.283587
vt 0.000125 0.167829
vt 0.030806 0.127026
vt 0.000156 0.205306
vt 0.030806 0.127026
vt 0.805028 0.030806
vt 0.873826 0.071832
vt 0.721203 0.008146
vt 0.873826 0.071832
vt 0.938030 0.277186
vt 0.873826 0.338781
vt 0.968983 0.205307
vt 0.873826 0.338781
vt 0.805028 0.379807
vt 0.721203 0.402467
vt 0.000125 0.242784
vt 0.122972 0.079570
vt 0.245655 0.038289
vt 0.938030 0.133427
vt 0.611917 0.001649
vt 0.489902 0.006032
vt 0.611917 0.408964
vt 0.489902 0.404581
vt 0.367890 0.394602
vt 0.367890 0.016011
f 1/1/1 2/2/2 3/3/3
f 1/1/1 3/3/3 4/4/4
f 1/1/1 4/4/4 5/5/5
f 1/1/1 5/5/5 6/6/6
f 1/1/1 6/6/6 7/7/7
f 1/1/1 7/7/7 8/8/8
f 1/1/1 8/8/8 9/9/9
f 1/1/1 9/9/9 2/2/2
f 10/10/10 11/11/11 12/12/12
f 10/10/10 12/12/12 13/13/13
f 10/10/10 13/13/13 3/3/3
f 10/10/10 3/3/3 2/2/2
f 10/10/10 2/2/2 9/9/9
f 10/10/10 9/9/9 14/14/14
f 10/10/10 14/14/14 15/15/15
f 10/10/10 15/15/15 11/11/11
f 16/16/16 17/17/17 18/18/18
f 16/16/16 18/18/18 19/19/19
f 16/16/16 19/19/19 20/20/20
f 16/16/16 20/20/20 21/21/21
f 16/16/16 21/21/21 22/22/22
f 16/16/16 22/22/22 23/23/23
f 16/16/16 23/23/23 24/24/24
f 16/16/16 24/24/24 17/17/17
f 25/25/25 21/21/21 20/20/20
f 25/25/25 20/20/20 26/26/26
f 25/25/25 26/26/26 27/27/27
f 25/25/25 27/27/27 28/28/28
f 25/25/25 28/28/28 29/29/29
f 25/25/25 29/29/29 30/30/30
f 25/25/25 30/30/30 22/22/22
f 25/25/25 22/22/22 21/21/21
f 31/31/31 32/32/32 22/22/22
f 31/31/31 22/22/22 30/30/30
f 31/31/31 30/30/30 29/29/29
f 31/31/31 29/29/29 33/33/33
f 31/31/31 33/33/33 5/5/5
f 31/31/31 5/5/5 4/4/4
f 31/31/31 4/4/4 3/3/3
f 31/31/31 3/3/3 32/32/32
f 34/34/34 35/35/35 24/24/24
f 34/34/34 24/24/24 23/23/23
f 34/34/34 23/23/23 22/22/22
f 34/34/34 22/22/22 32/32/32
f 34/34/34 32/32/32 3/3/3
f 34/34/34 3/3/3 13/13/13
f 34/34/34 13/13/13 12/12/12
f 34/34/34 12/12/12 35/35/35
f 36/36/36 37/37/37 38/38/38
f 36/36/36 38/38/38 39/39/39
f 36/36/36 39/39/39 40/40/40
f 36/36/36 40/40/40 41/41/41
f 36/36/36 41/41/41 20/20/20
f 36/36/36 20/20/20 19/19/19
f 36/36/36 19/19/19 18/18/18
f 36/36/36 18/18/18 37/37/37
f 42/42/42 41/41/41 40/40/40
f 42/42/42 40/40/40 43/43/43
f 42/42/42 43/43/43 44/44/44
f 42/42/42 44/44/44 45/45/45
f 42/42/42 45/45/45 27/27/27
f 42/42/42 27/27/27 26/26/26
f 42/42/42 26/26/26 20/20/20
f 42/42/42 20/20/20 41/41/41
f 46/46/46 47/47/47 48/48/48
f 46/46/46 48/48/48 49/49/49
f 46/46/46 49/49/49 50/50/50
f 46/46/46 50/50/50 51/51/51
f 46/46/46 51/51/51 52/52/52
f 46/46/46 52/52/52 53/53/53
f 46/46/46 53/53/53 54/54/54
f 46/46/46 54/54/54 47/47/47
f 55/55/55 56/56/56 57/57/57
f 55/55/55 57/57/57 58/58/58
f 55/55/55 58/58/58 48/48/48
f 55/55/55 48/48/48 47/47/47
f 55/55/55 47/47/47 54/54/54
f 55/55/55 54/54/54 59/59/59
f 55/55/55 59/59/59 60/60/60
f 55/55/55 60/60/60 56/56/56
f 61/61/61 62/62/62 63/63/63
f 61/61/61 63/63/63 64/64/64
f 61/61/61 64/64/64 65/65/65
f 61/61/61 65/65/65 66/66/66
f 61/61/61 66/66/66 67/67/67
f 61/61/61 67/67/67 68/68/68
f 61/61/61 68/68/68 69/69/69
f 61/61/61 69/69/69 62/62/62
f 70/70/70 66/66/66 65/65/65
f 70/70/70 65/65/65 71/71/71
f 70/70/70 71/71/71 72/72/72
f 70/70/70 72/72/72 73/73/73
f 70/70/70 73/73/73 74/74/74
f 70/70/70 74/74/74 75/75/75
f 70/70/70 75/75/75 67/67/67
f 70/70/70 67/67/67 66/66/66
f 76/76/76 77/77/77 54/54/54
f 76/76/76 54/54/54 53/53/53
f 76/76/76 53/53/53 52/52/52
f 76/76/76 52/52/52 78/78/78
f 76/76/76 78/78/78 72/72/72
f 76/76/76 72/72/72 71/71/71
f 76/76/76 71/71/71 65/65/65
f 76/76/76 65/65/65 77/77/77
f 79/79/79 80/80/80 60/60/60
f 79/79/79 60/60/60 59/59/59
f 79/79/79 59/59/59 54/54/54
f 79/79/79 54/54/54 77/77/77
f 79/79/79 77/77/77 65/65/65
f 79/79/79 65/65/65 64/64/64
f 79/79/79 64/64/64 63/63/63
f 79/79/79 63/63/63 80/80/80
f 81/81/81 82/82/82 69/69/69
f 81/81/81 69/69/69 68/68/68
f 81/81/81 68/68/68 67/67/67
f 81/81/81 67/67/67 83/83/83
f 81/81/81 83/83/83 84/84/84
f 81/81/81 84/84/84 85/85/85
f 81/81/81 85/85/85 86/86/86
f 81/81/81 86/86/86 82/82/82
f 87/87/87 83/83/83 67/67/67
f 87/87/87 67/67/67 75/75/75
f 87/87/87 75/75/75 74/74/74
f 87/87/87 74/74/74 88/88/88
f 87/87/87 88/88/88 89/89/89
f 87/87/87 89/89/89 90/90/90
f 87/87/87 90/90/90 84/84/84
f 87/87/87 84/84/84 83/83/83
f 91/91/91 92/92/92 38/38/38
f 91/91/91 38/38/38 37/37/37
f 91/91/91 37/37/37 18/18/18
f 91/91/91 18/18/18 93/93/93
f 91/91/91 93/93/93 69/69/69
f 91/91/91 69/69/69 82/82/82
f 91/91/91 82/82/82 94/94/94
f 91/91/91 94/94/94 92/92/92
f 95/95/95 96/96/96 44/44/44
f 95/95/95 44/44/44 43/43/43
f 95/95/95 43/43/43 40/40/40
f 95/95/95 40/40/40 97/97/97
f 95/95/95 97/97/97 84/84/84
f 95/95/95 84/84/84 90/90/90
f 95/95/95 90/90/90 98/98/98
f 95/95/95 98/98/98 96/96/96
f 99/99/99 100/100/100 7/7/7
f 99/99/99 7/7/7 6/6/6
f 99/99/99 6/6/6 5/5/5
f 99/99/99 5/5/5 101/101/101
f 99/99/99 101/101/101 52/52/52
f 99/99/99 52/52/52 51/51/51
f 99/99/99 51/51/51 102/102/102
f 99/99/99 102/102/102 100/100/100
f 103/103/103 104/104/104 15/15/15
f 103/103/103 15/15/15 14/14/14
f 103/103/103 14/14/14 9/9/9
f 103/103/103 9/9/9 105/105/105
f 103/103/103 105/105/105 48/48/48
f 103/103/103 48/48/48 58/58/58
f 103/103/103 58/58/58 106/106/106
f 103/103/103 106/106/106 104/104/104
f 107/107/107 108/108/108 12/12/12
f 107/107/107 12/12/12 11/11/11
f 107/107/107 11/11/11 15/15/15
f 107/107/107 15/15/15 104/104/104
f 107/107/107 104/104/104 106/106/106
f 107/107/107 106/106/106 56/56/56
f 107/107/107 56/56/56 60/60/60
f 107/107/107 60/60/60 108/108/108
f 109/109/109 97/97/97 40/40/40
f 109/109/109 40/40/40 39/39/39
f 109/109/109 39/39/39 38/38/38
f 109/109/109 38/38/38 92/92/92
f 109/109/109 92/92/92 94/94/94
f 109/109/109 94/94/94 85/85/85
f 109/109/109 85/85/85 84/84/84
f 109/109/109 84/84/84 97/97/97
f 110/110/110 111/111/111 27/27/27
f 110/110/110 27/27/27 45/45/45
f 110/110/110 45/45/45 44/44/44
f 110/110/110 44/44/44 96/96/96
f 110/110/110 96/96/96 98/98/98
f 110/110/110 98/98/98 88/88/88
f 110/110/110 88/88/88 74/74/74
f 110/110/110 74/74/74 111/111/111
f 112/112/112 105/105/105 9/9/9
f 112/112/112 9/9/9 8/8/8
f 112/112/112 8/8/8 7/7/7
f 112/112/112 7/7/7 100/100/100
f 112/112/112 100/100/100 102/102/102
f 112/112/112 102/102/102 49/49/49
f 112/112/112 49/49/49 48/48/48
f 112/112/112 48/48/48 105/105/105
f 113/113/113 101/101/101 5/5/5
f 113/113/113 5/5/5 33/33/33
f 113/113/113 33/33/33 29/29/29
f 113/113/113 29/29/29 114/114/114
f 113/113/113 114/114/114 72/72/72
f 113/113/113 72/72/72 78/78/78
f 113/113/113 78/78/78 52/52/52
f 113/113/113 52/52/52 101/101/101
f 115/115/115 116/116/116 24/24/24
f 115/115/115 24/24/24 35/35/35
f 115/115/115 35/35/35 12/12/12
f 115/115/115 12/12/12 108/108/108
f 115/115/115 108/108/108 60/60/60
f 115/115/115 60/60/60 80/80/80
f 115/115/115 80/80/80 63/63/63
f 115/115/115 63/63/63 116/116/116
f 117/117/117 93/93/93 18/18/18
f 117/117/117 18/18/18 17/17/17
f 117/117/117 17/17/17 24/24/24
f 117/117/117 24/24/24 116/116/116
f 117/117/117 116/116/116 63/63/63
f 117/117/117 63/63/63 62/62/62
f 117/117/117 62/62/62 69/69/69
f 117/117/117 69/69/69 93/93/93
f 118/118/118 114/114/114 29/29/29
f 118/118/118 29/29/29 28/28/28
f 118/118/118 28/28/28 27/27/27
f 118/118/118 27/27/27 111/111/111
f 118/118/118 111/111/111 74/74/74
f 118/118/118 74/74/74 73/73/73
f 118/118/118 73/73/73 72/72/72
f 118/118/118 72/72/72 114/114/114
