v -2.326595 0.763133 -1.250765
v -2.327846 0.764799 -1.249383
v -2.325836 0.763413 -1.247121
v -2.324689 0.761632 -1.24892
v -2.323553 0.760366 -1.250242
v -2.325235 0.761868 -1.251626
v -2.32661 0.762958 -1.252112
v -2.328069 0.764182 -1.25197
v -2.329404 0.765746 -1.251005
v -2.327912 0.766487 -1.24754
v -2.327544 0.76775 -1.245972
v -2.326176 0.767049 -1.243818
v -2.326185 0.765444 -1.245255
v -2.329209 0.767085 -1.249179
v -2.32848 0.767722 -1.247533
v -2.321344 0.760061 -1.237761
v -2.321649 0.761574 -1.236423
v -2.320361 0.759112 -1.234153
v -2.320106 0.757769 -1.235338
v -2.319633 0.75604 -1.236917
v -2.320795 0.758112 -1.239546
v -2.322171 0.760066 -1.242141
v -2.322725 0.762118 -1.240278
v -2.32301 0.763719 -1.238884
v -2.319878 0.756326 -1.241352
v -2.31881 0.754465 -1.238513
v -2.318088 0.753323 -1.239717
v -2.319079 0.755029 -1.242714
v -2.320322 0.756872 -1.245465
v -2.321191 0.75821 -1.244035
v -2.322841 0.759985 -1.246617
v -2.323898 0.761834 -1.244686
v -2.321864 0.758676 -1.248081
v -2.324398 0.76395 -1.242806
v -2.324592 0.765624 -1.241402
v -2.318862 0.755227 -1.233091
v -2.318998 0.756254 -1.232207
v -2.318256 0.754381 -1.231343
v -2.317956 0.753217 -1.231469
v -2.317796 0.752298 -1.232273
v -2.31855 0.75392 -1.234269
v -2.317894 0.752762 -1.235461
v -2.317293 0.751527 -1.233093
v -2.317063 0.751341 -1.234265
v -2.317301 0.751931 -1.236363
v -2.326785 0.76296 -1.250717
v -2.328047 0.764649 -1.249309
v -2.329553 0.765632 -1.250947
v -2.328209 0.764049 -1.251933
v -2.326711 0.762856 -1.252091
v -2.325371 0.761727 -1.251603
v -2.323695 0.760232 -1.250221
v -2.324886 0.761466 -1.248876
v -2.326043 0.763268 -1.247055
v -2.328121 0.766365 -1.247444
v -2.327705 0.767673 -1.245888
v -2.328597 0.76766 -1.247473
v -2.329364 0.766993 -1.249103
v -2.326401 0.765323 -1.245169
v -2.326341 0.766971 -1.243743
v -2.321581 0.759958 -1.237716
v -2.321829 0.761505 -1.236381
v -2.323186 0.763645 -1.238833
v -2.322956 0.762007 -1.240221
v -2.322396 0.759938 -1.2421
v -2.321026 0.757992 -1.239516
v -2.319869 0.755926 -1.236895
v -2.320348 0.757671 -1.2353
v -2.320544 0.759048 -1.234116
v -2.320102 0.75619 -1.241337
v -2.321408 0.758066 -1.24401
v -2.320481 0.756756 -1.245455
v -2.319244 0.75492 -1.242711
v -2.318255 0.753218 -1.23972
v -2.319038 0.754335 -1.238506
v -2.323049 0.75983 -1.246582
v -2.324114 0.761697 -1.244632
v -2.322015 0.758551 -1.248065
v -2.32462 0.763833 -1.242733
v -2.324762 0.765548 -1.241339
v -2.319104 0.755133 -1.233055
v -2.319182 0.756193 -1.232172
v -2.318787 0.753808 -1.23425
v -2.317974 0.752214 -1.232259
v -2.318139 0.753147 -1.231441
v -2.318392 0.754333 -1.231319
v -2.318123 0.752633 -1.235458
v -2.317468 0.751827 -1.236369
v -2.317188 0.751266 -1.234267
v -2.317465 0.75143 -1.233091
v -2.319126 0.756571 -1.231895
v -2.318053 0.753965 -1.230821
v -2.320528 0.759533 -1.23374
v -2.318392 0.754333 -1.231319
v -2.317169 0.751072 -1.232303
v -2.316858 0.750919 -1.233748
v -2.317624 0.75172 -1.231602
v -2.317188 0.751266 -1.234267
v -2.324841 0.761381 -1.251906
v -2.326581 0.762853 -1.252413
v -2.323236 0.759883 -1.250676
v -2.326711 0.762856 -1.252091
v -2.32971 0.767243 -1.249691
v -2.328605 0.768007 -1.247459
v -2.329989 0.766011 -1.251519
v -2.328597 0.76766 -1.247473
v -2.327494 0.76814 -1.245409
v -2.326247 0.767552 -1.243304
v -2.317735 0.752516 -1.230915
v -2.317177 0.751606 -1.236668
v -2.317921 0.752894 -1.240122
v -2.328622 0.764472 -1.252355
v -2.321605 0.758182 -1.248564
v -2.320102 0.756373 -1.245939
v -2.324733 0.766151 -1.240905
v -2.323184 0.764222 -1.238394
v -2.321831 0.76205 -1.235956
v -2.318885 0.754547 -1.243169
vn 0.6742 0.7227 -0.1519
vn 0.738 0.5953 -0.3179
vn 0.7736 0.5699 -0.2769
vn 0.7188 0.6835 -0.1272
vn 0.7364 0.6664 -0.1163
vn 0.6779 0.7181 -0.1573
vn 0.6335 0.7509 -0.1863
vn 0.632 0.7361 -0.2424
vn 0.6771 0.6305 -0.3794
vn 0.7921 0.4223 -0.4406
vn 0.7915 0.4286 -0.4355
vn 0.8368 0.4108 -0.3619
vn 0.8242 0.4149 -0.3853
vn 0.7283 0.4906 -0.4783
vn 0.7557 0.4399 -0.4852
vn 0.9169 0.363 -0.1661
vn 0.9128 0.3853 -0.1355
vn 0.9231 0.3686 -0.1096
vn 0.9297 0.3379 -0.1467
vn 0.9073 0.4158 -0.062
vn 0.8928 0.4404 -0.0936
vn 0.8589 0.4876 -0.1565
vn 0.8891 0.3952 -0.2309
vn 0.8916 0.406 -0.2004
vn 0.8577 0.5137 -0.0212
vn 0.8661 0.4997 0.0088
vn 0.8856 0.464 -0.018
vn 0.8737 0.4848 -0.0399
vn 0.84 0.5375 -0.074
vn 0.8227 0.5643 -0.0682
vn 0.7707 0.628 -0.108
vn 0.8142 0.5354 -0.2245
vn 0.7902 0.6046 -0.1007
vn 0.8544 0.4147 -0.3131
vn 0.8648 0.4144 -0.2835
vn 0.9382 0.3104 -0.1529
vn 0.9336 0.3408 -0.1103
vn 0.9442 0.3072 -0.1187
vn 0.9575 0.2599 -0.125
vn 0.9292 0.3695 -0.0049
vn 0.9136 0.4039 -0.047
vn 0.8608 0.5076 0.0366
vn 0.8683 0.4872 0.0934
vn 0.8771 0.478 0.0454
vn 0.8839 0.4675 0.0114
vn -0.6759 -0.7278 0.1156
vn -0.748 -0.5885 0.3067
vn -0.7851 -0.5607 0.2629
vn -0.6734 -0.7392 0.0078
vn -0.6236 -0.7757 -0.0973
vn -0.6325 -0.7711 -0.0725
vn -0.6718 -0.7404 -0.0221
vn -0.7132 -0.6914 0.1152
vn -0.7735 -0.57 0.277
vn -0.8087 -0.3897 0.4406
vn -0.8564 -0.2009 0.4756
vn -0.8596 -0.1746 0.4803
vn -0.85 -0.2893 0.4402
vn -0.8268 -0.4021 0.3933
vn -0.86 -0.2611 0.4385
vn -0.9191 -0.3516 0.1776
vn -0.9275 -0.2715 0.2568
vn -0.9072 -0.2917 0.303
vn -0.8914 -0.384 0.2408
vn -0.859 -0.4875 0.1563
vn -0.8929 -0.4404 0.0934
vn -0.9074 -0.4157 0.0619
vn -0.9315 -0.3259 0.1616
vn -0.9294 -0.2506 0.2707
vn -0.8511 -0.5248 0.0112
vn -0.8168 -0.574 0.0582
vn -0.7728 -0.6341 -0.0261
vn -0.7992 -0.5983 -0.0573
vn -0.7879 -0.611 -0.0757
vn -0.8578 -0.5137 -0.0188
vn -0.7649 -0.6367 0.0978
vn -0.8142 -0.5354 0.2245
vn -0.7238 -0.6899 -0.0076
vn -0.8565 -0.4034 0.3221
vn -0.8799 -0.2923 0.3746
vn -0.935 -0.3028 0.1844
vn -0.9162 -0.2271 0.3302
vn -0.9098 -0.4111 0.0561
vn -0.8918 -0.4422 0.0958
vn -0.9148 -0.2874 0.2836
vn -0.9038 -0.216 0.3693
vn -0.8438 -0.5353 -0.0389
vn -0.7462 -0.6601 -0.086
vn -0.7174 -0.6912 -0.0874
vn -0.7848 -0.6188 -0.035
vn 0.0564 0.4956 0.8667
vn 0.2517 0.1435 0.9571
vn -0.0383 0.6002 0.7989
vn -0.9038 -0.216 0.3693
vn 0.4057 -0.7209 0.5618
vn 0.6161 -0.785 0.0642
vn 0.2046 -0.6353 0.7447
vn -0.7174 -0.6912 -0.0874
vn 0.3055 -0.2926 -0.9061
vn 0.0724 -0.0865 -0.9936
vn 0.4089 -0.4411 -0.7988
vn -0.6236 -0.7757 -0.0973
vn -0.6049 0.7442 -0.2831
vn -0.3319 0.9433 -0.0039
vn -0.667 0.3642 -0.6499
vn -0.8596 -0.1746 0.4803
vn -0.1796 0.9428 0.2808
vn -0.1084 0.877 0.468
vn 0.2772 -0.3934 0.8766
vn 0.5498 -0.7618 -0.3426
vn 0.4842 -0.7307 -0.4811
vn -0.3374 0.0616 -0.9393
vn 0.4477 -0.5493 -0.7055
vn 0.4526 -0.614 -0.6466
vn -0.0823 0.8011 0.5927
vn -0.0813 0.7461 0.6608
vn -0.0803 0.6863 0.7228
vn 0.4534 -0.673 -0.5843
vt 0.839504 0.118056
vt 0.856743 0.205307
vt 0.741230 0.205307
vt 0.734555 0.106726
vt 0.724541 0.032791
vt 0.813647 0.052618
vt 0.868992 0.081539
vt 0.913398 0.129584
vt 0.940923 0.205307
vt 0.839504 0.292557
vt 0.813647 0.357995
vt 0.724541 0.377822
vt 0.734555 0.303887
vt 0.913398 0.281029
vt 0.868992 0.329074
vt 0.369475 0.299954
vt 0.368286 0.370940
vt 0.245840 0.351447
vt 0.246397 0.288815
vt 0.246768 0.205307
vt 0.370268 0.205307
vt 0.494283 0.205307
vt 0.492822 0.304944
vt 0.490632 0.379672
vt 0.369475 0.110659
vt 0.246397 0.121798
vt 0.245841 0.059166
vt 0.368286 0.039673
vt 0.490632 0.030941
vt 0.492822 0.105669
vt 0.616755 0.103478
vt 0.619174 0.205307
vt 0.613127 0.027106
vt 0.616755 0.307135
vt 0.613126 0.383507
vt 0.123273 0.268175
vt 0.123047 0.315326
vt 0.054743 0.283353
vt 0.030912 0.249131
vt 0.030973 0.205306
vt 0.123423 0.205306
vt 0.123273 0.142438
vt 0.030912 0.161481
vt 0.054744 0.127260
vt 0.123047 0.095287
vt 0.839504 0.118056
vt 0.856743 0.205307
vt 0.968983 0.205307
vt 0.938030 0.133427
vt 0.876123 0.061548
vt 0.805028 0.030806
vt 0.721203 0.008146
vt 0.734555 0.106726
vt 0.741230 0.205307
vt 0.839504 0.292557
vt 0.805028 0.379807
vt 0.876123 0.349065
vt 0.938030 0.277186
vt 0.734555 0.303887
vt 0.721203 0.402467
vt 0.369475 0.299954
vt 0.367890 0.394602
vt 0.489902 0.404581
vt 0.492822 0.304944
vt 0.494283 0.205307
vt 0.370268 0.205307
vt 0.246768 0.205307
vt 0.246397 0.288815
vt 0.245655 0.372324
vt 0.369475 0.110659
vt 0.492822 0.105669
vt 0.489902 0.006032
vt 0.367890 0.016011
vt 0.245655 0.038289
vt 0.246397 0.121798
vt 0.616755 0.103478
vt 0.619174 0.205307
vt 0.611917 0.001649
vt 0.616755 0.307135
vt 0.611917 0.408964
vt 0.123273 0.268175
vt 0.122972 0.331043
vt 0.123423 0.205306
vt 0.000156 0.205306
vt 0.000125 0.242784
vt 0.000064 0.280261
vt 0.123273 0.142438
vt 0.122972 0.079570
vt 0.000064 0.130352
vt 0.000125 0.167829
vt 0.122972 0.331043
vt 0.030806 0.283587
vt 0.245655 0.372324
vt 0.030806 0.283587
vt 0.000125 0.167829
vt 0.030806 0.127026
vt 0.000156 0.205306
vt 0.030806 0.127026
vt 0.805028 0.030806
vt 0.873826 0.071832
vt 0.721203 0.008146
vt 0.873826 0.071832
vt 0.938030 0.277186
vt 0.873826 0.338781
vt 0.968983 0.205307
vt 0.873826 0.338781
vt 0.805028 0.379807
vt 0.721203 0.402467
vt 0.000125 0.242784
vt 0.122972 0.079570
vt 0.245655 0.038289
vt 0.938030 0.133427
vt 0.611917 0.001649
vt 0.489902 0.006032
vt 0.611917 0.408964
vt 0.489902 0.404581
vt 0.367890 0.394602
vt 0.367890 0.016011
f 1/1/1 2/2/2 3/3/3
f 1/1/1 3/3/3 4/4/4
f 1/1/1 4/4/4 5/5/5
f 1/1/1 5/5/5 6/6/6
f 1/1/1 6/6/6 7/7/7
f 1/1/1 7/7/7 8/8/8
f 1/1/1 8/8/8 9/9/9
f 1/1/1 9/9/9 2/2/2
f 10/10/10 11/11/11 12/12/12
f 10/10/10 12/12/12 13/13/13
f 10/10/10 13/13/13 3/3/3
f 10/10/10 3/3/3 2/2/2
f 10/10/10 2/2/2 9/9/9
f 10/10/10 9/9/9 14/14/14
f 10/10/10 14/14/14 15/15/15
f 10/10/10 15/15/15 11/11/11
f 16/16/16 17/17/17 18/18/18
f 16/16/16 18/18/18 19/19/19
f 16/16/16 19/19/19 20/20/20
f 16/16/16 20/20/20 21/21/21
f 16/16/16 21/21/21 22/22/22
f 16/16/16 22/22/22 23/23/23
f 16/16/16 23/23/23 24/24/24
f 16/16/16 24/24/24 17/17/17
f 25/25/25 21/21/21 20/20/20
f 25/25/25 20/20/20 26/26/26
f 25/25/25 26/26/26 27/27/27
f 25/25/25 27/27/27 28/28/28
f 25/25/25 28/28/28 29/29/29
f 25/25/25 29/29/29 30/30/30
f 25/25/25 30/30/30 22/22/22
f 25/25/25 22/22/22 21/21/21
f 31/31/31 32/32/32 22/22/22
f 31/31/31 22/22/22 30/30/30
f 31/31/31 30/30/30 29/29/29
f 31/31/31 29/29/29 33/33/33
f 31/31/31 33/33/33 5/5/5
f 31/31/31 5/5/5 4/4/4
f 31/31/31 4/4/4 3/3/3
f 31/31/31 3/3/3 32/32/32
f 34/34/34 35/35/35 24/24/24
f 34/34/34 24/24/24 23/23/23
f 34/34/34 23/23/23 22/22/22
f 34/34/34 22/22/22 32/32/32
f 34/34/34 32/32/32 3/3/3
f 34/34/34 3/3/3 13/13/13
f 34/34/34 13/13/13 12/12/12
f 34/34/34 12/12/12 35/35/35
f 36/36/36 37/37/37 38/38/38
f 36/36/36 38/38/38 39/39/39
f 36/36/36 39/39/39 40/40/40
f 36/36/36 40/40/40 41/41/41
f 36/36/36 41/41/41 20/20/20
f 36/36/36 20/20/20 19/19/19
f 36/36/36 19/19/19 18/18/18
f 36/36/36 18/18/18 37/37/37
f 42/42/42 41/41/41 40/40/40
f 42/42/42 40/40/40 43/43/43
f 42/42/42 43/43/43 44/44/44
f 42/42/42 44/44/44 45/45/45
f 42/42/42 45/45/45 27/27/27
f 42/42/42 27/27/27 26/26/26
f 42/42/42 26/26/26 20/20/20
f 42/42/42 20/20/20 41/41/41
f 46/46/46 47/47/47 48/48/48
f 46/46/46 48/48/48 49/49/49
f 46/46/46 49/49/49 50/50/50
f 46/46/46 50/50/50 51/51/51
f 46/46/46 51/51/51 52/52/52
f 46/46/46 52/52/52 53/53/53
f 46/46/46 53/53/53 54/54/54
f 46/46/46 54/54/54 47/47/47
f 55/55/55 56/56/56 57/57/57
f 55/55/55 57/57/57 58/58/58
f 55/55/55 58/58/58 48/48/48
f 55/55/55 48/48/48 47/47/47
f 55/55/55 47/47/47 54/54/54
f 55/55/55 54/54/54 59/59/59
f 55/55/55 59/59/59 60/60/60
f 55/55/55 60/60/60 56/56/56
f 61/61/61 62/62/62 63/63/63
f 61/61/61 63/63/63 64/64/64
f 61/61/61 64/64/64 65/65/65
f 61/61/61 65/65/65 66/66/66
f 61/61/61 66/66/66 67/67/67
f 61/61/61 67/67/67 68/68/68
f 61/61/61 68/68/68 69/69/69
f 61/61/61 69/69/69 62/62/62
f 70/70/70 66/66/66 65/65/65
f 70/70/70 65/65/65 71/71/71
f 70/70/70 71/71/71 72/72/72
f 70/70/70 72/72/72 73/73/73
f 70/70/70 73/73/73 74/74/74
f 70/70/70 74/74/74 75/75/75
f 70/70/70 75/75/75 67/67/67
f 70/70/70 67/67/67 66/66/66
f 76/76/76 77/77/77 54/54/54
f 76/76/76 54/54/54 53/53/53
f 76/76/76 53/53/53 52/52/52
f 76/76/76 52/52/52 78/78/78
f 76/76/76 78/78/78 72/72/72
f 76/76/76 72/72/72 71/71/71
f 76/76/76 71/71/71 65/65/65
f 76/76/76 65/65/65 77/77/77
f 79/79/79 80/80/80 60/60/60
f 79/79/79 60/60/60 59/59/59
f 79/79/79 59/59/59 54/54/54
f 79/79/79 54/54/54 77/77/77
f 79/79/79 77/77/77 65/65/65
f 79/79/79 65/65/65 64/64/64
f 79/79/79 64/64/64 63/63/63
f 79/79/79 63/63/63 80/80/80
f 81/81/81 82/82/82 69/69/69
f 81/81/81 69/69/69 68/68/68
f 81/81/81 68/68/68 67/67/67
f 81/81/81 67/67/67 83/83/83
f 81/81/81 83/83/83 84/84/84
f 81/81/81 84/84/84 85/85/85
f 81/81/81 85/85/85 86/86/86
f 81/81/81 86/86/86 82/82/82
f 87/87/87 83/83/83 67/67/67
f 87/87/87 67/67/67 75/75/75
f 87/87/87 75/75/75 74/74/74
f 87/87/87 74/74/74 88/88/88
f 87/87/87 88/88/88 89/89/89
f 87/87/87 89/89/89 90/90/90
f 87/87/87 90/90/90 84/84/84
f 87/87/87 84/84/84 83/83/83
f 91/91/91 92/92/92 38/38/38
f 91/91/91 38/38/38 37/37/37
f 91/91/91 37/37/37 18/18/18
f 91/91/91 18/18/18 93/93/93
f 91/91/91 93/93/93 69/69/69
f 91/91/91 69/69/69 82/82/82
f 91/91/91 82/82/82 94/94/94
f 91/91/91 94/94/94 92/92/92
f 95/95/95 96/96/96 44/44/44
f 95/95/95 44/44/44 43/43/43
f 95/95/95 43/43/43 40/40/40
f 95/95/95 40/40/40 97/97/97
f 95/95/95 97/97/97 84/84/84
f 95/95/95 84/84/84 90/90/90
f 95/95/95 90/90/90 98/98/98
f 95/95/95 98/98/98 96/96/96
f 99/99/99 100/100/100 7/7/7
f 99/99/99 7/7/7 6/6/6
f 99/99/99 6/6/6 5/5/5
f 99/99/99 5/5/5 101/101/101
f 99/99/99 101/101/101 52/52/52
f 99/99/99 52/52/52 51/51/51
f 99/99/99 51/51/51 102/102/102
f 99/99/99 102/102/102 100/100/100
f 103/103/103 104/104/104 15/15/15
f 103/103/103 15/15/15 14/14/14
f 103/103/103 14/14/14 9/9/9
f 103/103/103 9/9/9 105/105/105
f 103/103/103 105/105/105 48/48/48
f 103/103/103 48/48/48 58/58/58
f 103/103/103 58/58/58 106/106/106
f 103/103/103 106/106/106 104/104/104
f 107/107/107 108/108/108 12/12/12
f 107/107/107 12/12/12 11/11/11
f 107/107/107 11/11/11 15/15/15
f 107/107/107 15/15/15 104/104/104
f 107/107/107 104/104/104 106/106/106
f 107/107/107 106/106/106 56/56/56
f 107/107/107 56/56/56 60/60/60
f 107/107/107 60/60/60 108/108/108
f 109/109/109 97/97/97 40/40/40
f 109/109/109 40/40/40 39/39/39
f 109/109/109 39/39/39 38/38/38
f 109/109/109 38/38/38 92/92/92
f 109/109/109 92/92/92 94/94/94
f 109/109/109 94/94/94 85/85/85
f 109/109/109 85/85/85 84/84/84
f 109/109/109 84/84/84 97/97/97
f 110/110/110 111/111/111 27/27/27
f 110/110/110 27/27/27 45/45/45
f 110/110/110 45/45/45 44/44/44
f 110/110/110 44/44/44 96/96/96
f 110/110/110 96/96/96 98/98/98
f 110/110/110 98/98/98 88/88/88
f 110/110/110 88/88/88 74/74/74
f 110/110/110 74/74/74 111/111/111
f 112/112/112 105/105/105 9/9/9
f 112/112/112 9/9/9 8/8/8
f 112/112/112 8/8/8 7/7/7
f 112/112/112 7/7/7 100/100/100
f 112/112/112 100/100/100 102/102/102
f 112/112/112 102/102/102 49/49/49
f 112/112/112 49/49/49 48/48/48
f 112/112/112 48/48/48 105/105/105
f 113/113/113 101/101/101 5/5/5
f 113/113/113 5/5/5 33/33/33
f 113/113/113 33/33/33 29/29/29
f 113/113/113 29/29/29 114/114/114
f 113/113/113 114/114/114 72/72/72
f 113/113/113 72/72/72 78/78/78
f 113/113/113 78/78/78 52/52/52
f 113/113/113 52/52/52 101/101/101
f 115/115/115 116/116/116 24/24/24
f 115/115/115 24/24/24 35/35/35
f 115/115/115 35/35/35 12/12/12
f 115/115/115 12/12/12 108/108/108
f 115/115/115 108/108/108 60/60/60
f 115/115/115 60/60/60 80/80/80
f 115/115/115 80/80/80 63/63/63
f 115/115/115 63/63/63 116/116/116
f 117/117/117 93/93/93 18/18/18
f 117/117/117 18/18/18 17/17/17
f 117/117/117 17/17/17 24/24/24
f 117/117/117 24/24/24 116/116/116
f 117/117/117 116/116/116 63/63/63
f 117/117/117 63/63/63 62/62/62
f 117/117/117 62/62/62 69/69/69
f 117/117/117 69/69/69 93/93/93
f 118/118/118 114/114/114 29/29/29
f 118/118/118 29/29/29 28/28/28
f 118/118/118 28/28/28 27/27/27
f 118/118/118 27/27/27 111/111/111
f 118/118/118 111/111/111 74/74/74
f 118/118/118 74/74/74 73/73/73
f 118/118/118 73/73/73 72/72/72
f 118/118/118 72/72/72 114/114/114
