v -2.410812 0.805417 -1.147787
v -2.408832 0.805817 -1.147496
v -2.408751 0.804152 -1.149642
v -2.410998 0.803838 -1.149702
v -2.412729 0.803673 -1.149964
v -2.412342 0.805084 -1.148375
v -2.411696 0.805869 -1.14729
v -2.410584 0.806467 -1.146374
v -2.408871 0.806964 -1.145867
v -2.406965 0.806183 -1.148235
v -2.405595 0.806427 -1.149161
v -2.405065 0.805198 -1.150857
v -2.406625 0.804708 -1.150211
v -2.407255 0.80713 -1.146762
v -2.406232 0.806956 -1.147926
v -2.406086 0.798425 -1.155922
v -2.404518 0.798856 -1.156296
v -2.404656 0.79636 -1.157824
v -2.406041 0.795975 -1.157482
v -2.407905 0.79552 -1.157129
v -2.408196 0.797916 -1.155535
v -2.408445 0.80019 -1.153785
v -2.406242 0.800736 -1.154205
v -2.404609 0.801206 -1.15462
v -2.410371 0.797573 -1.155423
v -2.40983 0.795221 -1.157041
v -2.411296 0.795039 -1.157051
v -2.412025 0.797362 -1.155421
v -2.412462 0.799643 -1.153705
v -2.410724 0.799844 -1.153683
v -2.41095 0.801957 -1.151721
v -2.408626 0.802273 -1.151779
v -2.412733 0.801803 -1.151814
v -2.406403 0.802862 -1.152251
v -2.404763 0.803389 -1.152742
v -2.406213 0.79343 -1.158964
v -2.405188 0.793741 -1.15926
v -2.405732 0.79218 -1.159947
v -2.406416 0.791472 -1.160024
v -2.407354 0.791204 -1.159782
v -2.407597 0.793073 -1.158669
v -2.409041 0.792867 -1.158634
v -2.408353 0.791086 -1.159798
v -2.409218 0.791486 -1.159541
v -2.410146 0.792754 -1.158683
v -2.410794 0.805254 -1.14765
v -2.408785 0.805658 -1.147361
v -2.408835 0.806844 -1.145768
v -2.410573 0.806343 -1.146274
v -2.411693 0.805777 -1.147215
v -2.412343 0.804961 -1.148271
v -2.412727 0.803554 -1.149856
v -2.410977 0.803681 -1.149558
v -2.408704 0.803999 -1.1495
v -2.40689 0.806032 -1.148105
v -2.405524 0.806318 -1.149065
v -2.406183 0.806874 -1.147857
v -2.407196 0.807015 -1.146667
v -2.406553 0.804562 -1.150073
v -2.404998 0.805093 -1.150756
v -2.406024 0.798306 -1.155756
v -2.404462 0.798768 -1.156173
v -2.404551 0.801112 -1.154503
v -2.406178 0.800608 -1.154046
v -2.408399 0.800057 -1.153623
v -2.408151 0.797792 -1.155365
v -2.407861 0.795403 -1.156955
v -2.405979 0.795862 -1.15731
v -2.404601 0.796278 -1.157697
v -2.410345 0.797446 -1.155252
v -2.410698 0.799708 -1.15352
v -2.412452 0.799539 -1.153583
v -2.412015 0.797265 -1.155293
v -2.411287 0.794947 -1.156919
v -2.409805 0.7951 -1.156865
v -2.410927 0.801809 -1.151568
v -2.408579 0.802129 -1.151628
v -2.412726 0.801691 -1.151698
v -2.406335 0.802723 -1.152103
v -2.404701 0.803289 -1.152633
v -2.40615 0.79332 -1.15879
v -2.405131 0.793661 -1.159132
v -2.407553 0.792958 -1.158493
v -2.407322 0.791118 -1.159649
v -2.406368 0.79139 -1.159894
v -2.405692 0.79212 -1.159852
v -2.409018 0.792749 -1.158456
v -2.410139 0.792664 -1.158549
v -2.40921 0.79142 -1.159442
v -2.408337 0.790998 -1.159665
v -2.404818 0.793809 -1.159303
v -2.405667 0.791697 -1.160243
v -2.404168 0.796453 -1.157882
v -2.405692 0.79212 -1.159852
v -2.408117 0.790453 -1.160127
v -2.40916 0.791002 -1.159836
v -2.407259 0.790543 -1.160094
v -2.40921 0.79142 -1.159442
v -2.412855 0.804918 -1.148525
v -2.411932 0.805928 -1.147197
v -2.413308 0.803565 -1.150003
v -2.411693 0.805777 -1.147215
v -2.407325 0.807394 -1.146229
v -2.406021 0.807105 -1.147885
v -2.408868 0.807293 -1.14528
v -2.406183 0.806874 -1.147857
v -2.405103 0.806461 -1.149427
v -2.404512 0.805316 -1.151028
v -2.406461 0.790783 -1.16032
v -2.410513 0.792676 -1.15864
v -2.411783 0.794937 -1.156996
v -2.410504 0.806762 -1.145859
v -2.413326 0.801702 -1.151793
v -2.413039 0.799529 -1.153658
v -2.404187 0.803521 -1.152857
v -2.404037 0.801321 -1.154707
v -2.403969 0.798961 -1.156366
v -2.412575 0.797248 -1.155364
vn -0.0063 0.7882 -0.6154
vn -0.2232 0.7772 -0.5882
vn -0.2212 0.74 -0.6351
vn -0.0275 0.7491 -0.6619
vn -0.0359 0.7318 -0.6806
vn -0.0144 0.7877 -0.6159
vn 0.0 0.8237 -0.567
vn -0.0486 0.8403 -0.5399
vn -0.2246 0.8298 -0.5108
vn -0.4283 0.7041 -0.5663
vn -0.421 0.7069 -0.5684
vn -0.3949 0.6603 -0.6388
vn -0.4048 0.674 -0.618
vn -0.3932 0.7716 -0.4999
vn -0.4367 0.7367 -0.5163
vn -0.309 0.5301 -0.7896
vn -0.273 0.5323 -0.8013
vn -0.2668 0.5064 -0.82
vn -0.3134 0.5008 -0.8068
vn -0.2 0.5188 -0.8312
vn -0.2042 0.5538 -0.8072
vn -0.2115 0.621 -0.7547
vn -0.3281 0.5867 -0.7403
vn -0.301 0.5803 -0.7567
vn -0.0972 0.5723 -0.8143
vn -0.0861 0.5461 -0.8333
vn -0.1328 0.5331 -0.8355
vn -0.1331 0.5601 -0.8176
vn -0.1161 0.6172 -0.7782
vn -0.0905 0.634 -0.768
vn -0.0644 0.7004 -0.7108
vn -0.2177 0.6899 -0.6904
vn -0.0796 0.6798 -0.729
vn -0.364 0.6407 -0.676
vn -0.3467 0.6266 -0.698
vn -0.3361 0.4823 -0.809
vn -0.2863 0.485 -0.8263
vn -0.3147 0.4628 -0.8287
vn -0.3503 0.4282 -0.833
vn -0.1916 0.4534 -0.8704
vn -0.198 0.5019 -0.8419
vn -0.0591 0.5375 -0.8412
vn -0.0311 0.4918 -0.8701
vn -0.0753 0.5105 -0.8565
vn -0.1087 0.5204 -0.8469
vn -0.0223 -0.7738 0.633
vn 0.2227 -0.7673 0.6013
vn 0.2204 -0.7268 0.6504
vn -0.109 -0.7269 0.678
vn -0.2268 -0.695 0.6823
vn -0.2024 -0.7055 0.6792
vn -0.1325 -0.712 0.6895
vn 0.0122 -0.7486 0.6629
vn 0.2213 -0.7401 0.635
vn 0.4526 -0.6793 0.5777
vn 0.5987 -0.5462 0.5859
vn 0.6174 -0.527 0.5839
vn 0.5228 -0.601 0.6045
vn 0.4186 -0.6677 0.6155
vn 0.5407 -0.578 0.6112
vn 0.3244 -0.527 0.7855
vn 0.4292 -0.5021 0.7508
vn 0.4441 -0.5401 0.7148
vn 0.3423 -0.5829 0.7369
vn 0.2115 -0.6209 0.7548
vn 0.2042 -0.5536 0.8073
vn 0.2 -0.5186 0.8312
vn 0.3314 -0.4989 0.8008
vn 0.4513 -0.4921 0.7444
vn 0.0812 -0.5754 0.8138
vn 0.0755 -0.636 0.7679
vn -0.0369 -0.6359 0.7708
vn -0.0299 -0.5935 0.8043
vn -0.055 -0.593 0.8033
vn 0.0677 -0.5513 0.8315
vn 0.0498 -0.7014 0.711
vn 0.2177 -0.6899 0.6904
vn -0.0733 -0.6851 0.7247
vn 0.3775 -0.6362 0.6728
vn 0.4852 -0.5738 0.6597
vn 0.362 -0.492 0.7918
vn 0.5021 -0.5014 0.7046
vn 0.1992 -0.5122 0.8354
vn 0.2045 -0.5563 0.8054
vn 0.4351 -0.5276 0.7296
vn 0.5317 -0.5107 0.6756
vn 0.0356 -0.5569 0.8298
vn -0.106 -0.6225 0.7754
vn -0.1355 -0.6435 0.7533
vn -0.0303 -0.6202 0.7838
vn 0.8807 -0.0263 -0.4729
vn 0.679 -0.3399 -0.6507
vn 0.9253 0.0826 -0.3701
vn 0.5317 -0.5107 0.6756
vn -0.1367 -0.8369 -0.5299
vn -0.6259 -0.5997 -0.4985
vn 0.1269 -0.8907 -0.4364
vn -0.1355 -0.6435 0.7533
vn -0.9513 0.2725 0.1442
vn -0.8092 0.4563 0.3699
vn -0.994 0.1068 0.0202
vn -0.2268 -0.695 0.6823
vn 0.4375 0.681 0.5872
vn 0.6368 0.7442 0.2017
vn -0.0103 0.5433 0.8395
vn 0.6174 -0.527 0.5839
vn 0.7837 0.6184 -0.0571
vn 0.8576 0.4759 -0.1949
vn 0.3226 -0.7454 -0.5833
vn -0.8863 -0.3782 -0.2674
vn -0.9449 -0.2897 -0.1524
vn -0.521 0.4901 0.6988
vn -0.9987 -0.0265 -0.0429
vn -0.9917 -0.1102 -0.0653
vn 0.8983 0.3517 -0.2635
vn 0.9187 0.2706 -0.2875
vn 0.9323 0.1881 -0.3089
vn -0.9775 -0.1922 -0.0864
vt 0.839504 0.118056
vt 0.856743 0.205307
vt 0.741230 0.205307
vt 0.734555 0.106726
vt 0.724541 0.032791
vt 0.813647 0.052618
vt 0.868992 0.081539
vt 0.913398 0.129584
vt 0.940923 0.205307
vt 0.839504 0.292557
vt 0.813647 0.357995
vt 0.724541 0.377822
vt 0.734555 0.303887
vt 0.913398 0.281029
vt 0.868992 0.329074
vt 0.369475 0.299954
vt 0.368286 0.370940
vt 0.245840 0.351447
vt 0.246397 0.288815
vt 0.246768 0.205307
vt 0.370268 0.205307
vt 0.494283 0.205307
vt 0.492822 0.304944
vt 0.490632 0.379672
vt 0.369475 0.110659
vt 0.246397 0.121798
vt 0.245841 0.059166
vt 0.368286 0.039673
vt 0.490632 0.030941
vt 0.492822 0.105669
vt 0.616755 0.103478
vt 0.619174 0.205307
vt 0.613127 0.027106
vt 0.616755 0.307135
vt 0.613126 0.383507
vt 0.123273 0.268175
vt 0.123047 0.315326
vt 0.054743 0.283353
vt 0.030912 0.249131
vt 0.030973 0.205306
vt 0.123423 0.205306
vt 0.123273 0.142438
vt 0.030912 0.161481
vt 0.054744 0.127260
vt 0.123047 0.095287
vt 0.839504 0.118056
vt 0.856743 0.205307
vt 0.968983 0.205307
vt 0.938030 0.133427
vt 0.876123 0.061548
vt 0.805028 0.030806
vt 0.721203 0.008146
vt 0.734555 0.106726
vt 0.741230 0.205307
vt 0.839504 0.292557
vt 0.805028 0.379807
vt 0.876123 0.349065
vt 0.938030 0.277186
vt 0.734555 0.303887
vt 0.721203 0.402467
vt 0.369475 0.299954
vt 0.367890 0.394602
vt 0.489902 0.404581
vt 0.492822 0.304944
vt 0.494283 0.205307
vt 0.370268 0.205307
vt 0.246768 0.205307
vt 0.246397 0.288815
vt 0.245655 0.372324
vt 0.369475 0.110659
vt 0.492822 0.105669
vt 0.489902 0.006032
vt 0.367890 0.016011
vt 0.245655 0.038289
vt 0.246397 0.121798
vt 0.616755 0.103478
vt 0.619174 0.205307
vt 0.611917 0.001649
vt 0.616755 0.307135
vt 0.611917 0.408964
vt 0.123273 0.268175
vt 0.122972 0.331043
vt 0.123423 0.205306
vt 0.000156 0.205306
vt 0.000125 0.242784
vt 0.000064 0.280261
vt 0.123273 0.142438
vt 0.122972 0.079570
vt 0.000064 0.130352
vt 0.000125 0.167829
vt 0.122972 0.331043
vt 0.030806 0.283587
vt 0.245655 0.372324
vt 0.030806 0.283587
vt 0.000125 0.167829
vt 0.030806 0.127026
vt 0.000156 0.205306
vt 0.030806 0.127026
vt 0.805028 0.030806
vt 0.873826 0.071832
vt 0.721203 0.008146
vt 0.873826 0.071832
vt 0.938030 0.277186
vt 0.873826 0.338781
vt 0.968983 0.205307
vt 0.873826 0.338781
vt 0.805028 0.379807
vt 0.721203 0.402467
vt 0.000125 0.242784
vt 0.122972 0.079570
vt 0.245655 0.038289
vt 0.938030 0.133427
vt 0.611917 0.001649
vt 0.489902 0.006032
vt 0.611917 0.408964
vt 0.489902 0.404581
vt 0.367890 0.394602
vt 0.367890 0.016011
f 1/1/1 2/2/2 3/3/3
f 1/1/1 3/3/3 4/4/4
f 1/1/1 4/4/4 5/5/5
f 1/1/1 5/5/5 6/6/6
f 1/1/1 6/6/6 7/7/7
f 1/1/1 7/7/7 8/8/8
f 1/1/1 8/8/8 9/9/9
f 1/1/1 9/9/9 2/2/2
f 10/10/10 11/11/11 12/12/12
f 10/10/10 12/12/12 13/13/13
f 10/10/10 13/13/13 3/3/3
f 10/10/10 3/3/3 2/2/2
f 10/10/10 2/2/2 9/9/9
f 10/10/10 9/9/9 14/14/14
f 10/10/10 14/14/14 15/15/15
f 10/10/10 15/15/15 11/11/11
f 16/16/16 17/17/17 18/18/18
f 16/16/16 18/18/18 19/19/19
f 16/16/16 19/19/19 20/20/20
f 16/16/16 20/20/20 21/21/21
f 16/16/16 21/21/21 22/22/22
f 16/16/16 22/22/22 23/23/23
f 16/16/16 23/23/23 24/24/24
f 16/16/16 24/24/24 17/17/17
f 25/25/25 21/21/21 20/20/20
f 25/25/25 20/20/20 26/26/26
f 25/25/25 26/26/26 27/27/27
f 25/25/25 27/27/27 28/28/28
f 25/25/25 28/28/28 29/29/29
f 25/25/25 29/29/29 30/30/30
f 25/25/25 30/30/30 22/22/22
f 25/25/25 22/22/22 21/21/21
f 31/31/31 32/32/32 22/22/22
f 31/31/31 22/22/22 30/30/30
f 31/31/31 30/30/30 29/29/29
f 31/31/31 29/29/29 33/33/33
f 31/31/31 33/33/33 5/5/5
f 31/31/31 5/5/5 4/4/4
f 31/31/31 4/4/4 3/3/3
f 31/31/31 3/3/3 32/32/32
f 34/34/34 35/35/35 24/24/24
f 34/34/34 24/24/24 23/23/23
f 34/34/34 23/23/23 22/22/22
f 34/34/34 22/22/22 32/32/32
f 34/34/34 32/32/32 3/3/3
f 34/34/34 3/3/3 13/13/13
f 34/34/34 13/13/13 12/12/12
f 34/34/34 12/12/12 35/35/35
f 36/36/36 37/37/37 38/38/38
f 36/36/36 38/38/38 39/39/39
f 36/36/36 39/39/39 40/40/40
f 36/36/36 40/40/40 41/41/41
f 36/36/36 41/41/41 20/20/20
f 36/36/36 20/20/20 19/19/19
f 36/36/36 19/19/19 18/18/18
f 36/36/36 18/18/18 37/37/37
f 42/42/42 41/41/41 40/40/40
f 42/42/42 40/40/40 43/43/43
f 42/42/42 43/43/43 44/44/44
f 42/42/42 44/44/44 45/45/45
f 42/42/42 45/45/45 27/27/27
f 42/42/42 27/27/27 26/26/26
f 42/42/42 26/26/26 20/20/20
f 42/42/42 20/20/20 41/41/41
f 46/46/46 47/47/47 48/48/48
f 46/46/46 48/48/48 49/49/49
f 46/46/46 49/49/49 50/50/50
f 46/46/46 50/50/50 51/51/51
f 46/46/46 51/51/51 52/52/52
f 46/46/46 52/52/52 53/53/53
f 46/46/46 53/53/53 54/54/54
f 46/46/46 54/54/54 47/47/47
f 55/55/55 56/56/56 57/57/57
f 55/55/55 57/57/57 58/58/58
f 55/55/55 58/58/58 48/48/48
f 55/55/55 48/48/48 47/47/47
f 55/55/55 47/47/47 54/54/54
f 55/55/55 54/54/54 59/59/59
f 55/55/55 59/59/59 60/60/60
f 55/55/55 60/60/60 56/56/56
f 61/61/61 62/62/62 63/63/63
f 61/61/61 63/63/63 64/64/64
f 61/61/61 64/64/64 65/65/65
f 61/61/61 65/65/65 66/66/66
f 61/61/61 66/66/66 67/67/67
f 61/61/61 67/67/67 68/68/68
f 61/61/61 68/68/68 69/69/69
f 61/61/61 69/69/69 62/62/62
f 70/70/70 66/66/66 65/65/65
f 70/70/70 65/65/65 71/71/71
f 70/70/70 71/71/71 72/72/72
f 70/70/70 72/72/72 73/73/73
f 70/70/70 73/73/73 74/74/74
f 70/70/70 74/74/74 75/75/75
f 70/70/70 75/75/75 67/67/67
f 70/70/70 67/67/67 66/66/66
f 76/76/76 77/77/77 54/54/54
f 76/76/76 54/54/54 53/53/53
f 76/76/76 53/53/53 52/52/52
f 76/76/76 52/52/52 78/78/78
f 76/76/76 78/78/78 72/72/72
f 76/76/76 72/72/72 71/71/71
f 76/76/76 71/71/71 65/65/65
f 76/76/76 65/65/65 77/77/77
f 79/79/79 80/80/80 60/60/60
f 79/79/79 60/60/60 59/59/59
f 79/79/79 59/59/59 54/54/54
f 79/79/79 54/54/54 77/77/77
f 79/79/79 77/77/77 65/65/65
f 79/79/79 65/65/65 64/64/64
f 79/79/79 64/64/64 63/63/63
f 79/79/79 63/63/63 80/80/80
f 81/81/81 82/82/82 69/69/69
f 81/81/81 69/69/69 68/68/68
f 81/81/81 68/68/68 67/67/67
f 81/81/81 67/67/67 83/83/83
f 81/81/81 83/83/83 84/84/84
f 81/81/81 84/84/84 85/85/85
f 81/81/81 85/85/85 86/86/86
f 81/81/81 86/86/86 82/82/82
f 87/87/87 83/83/83 67/67/67
f 87/87/87 67/67/67 75/75/75
f 87/87/87 75/75/75 74/74/74
f 87/87/87 74/74/74 88/88/88
f 87/87/87 88/88/88 89/89/89
f 87/87/87 89/89/89 90/90/90
f 87/87/87 90/90/90 84/84/84
f 87/87/87 84/84/84 83/83/83
f 91/91/91 92/92/92 38/38/38
f 91/91/91 38/38/38 37/37/37
f 91/91/91 37/37/37 18/18/18
f 91/91/91 18/18/18 93/93/93
f 91/91/91 93/93/93 69/69/69
f 91/91/91 69/69/69 82/82/82
f 91/91/91 82/82/82 94/94/94
f 91/91/91 94/94/94 92/92/92
f 95/95/95 96/96/96 44/44/44
f 95/95/95 44/44/44 43/43/43
f 95/95/95 43/43/43 40/40/40
f 95/95/95 40/40/40 97/97/97
f 95/95/95 97/97/97 84/84/84
f 95/95/95 84/84/84 90/90/90
f 95/95/95 90/90/90 98/98/98
f 95/95/95 98/98/98 96/96/96
f 99/99/99 100/100/100 7/7/7
f 99/99/99 7/7/7 6/6/6
f 99/99/99 6/6/6 5/5/5
f 99/99/99 5/5/5 101/101/101
f 99/99/99 101/101/101 52/52/52
f 99/99/99 52/52/52 51/51/51
f 99/99/99 51/51/51 102/102/102
f 99/99/99 102/102/102 100/100/100
f 103/103/103 104/104/104 15/15/15
f 103/103/103 15/15/15 14/14/14
f 103/103/103 14/14/14 9/9/9
f 103/103/103 9/9/9 105/105/105
f 103/103/103 105/105/105 48/48/48
f 103/103/103 48/48/48 58/58/58
f 103/103/103 58/58/58 106/106/106
f 103/103/103 106/106/106 104/104/104
f 107/107/107 108/108/108 12/12/12
f 107/107/107 12/12/12 11/11/11
f 107/107/107 11/11/11 15/15/15
f 107/107/107 15/15/15 104/104/104
f 107/107/107 104/104/104 106/106/106
f 107/107/107 106/106/106 56/56/56
f 107/107/107 56/56/56 60/60/60
f 107/107/107 60/60/60 108/108/108
f 109/109/109 97/97/97 40/40/40
f 109/109/109 40/40/40 39/39/39
f 109/109/109 39/39/39 38/38/38
f 109/109/109 38/38/38 92/92/92
f 109/109/109 92/92/92 94/94/94
f 109/109/109 94/94/94 85/85/85
f 109/109/109 85/85/85 84/84/84
f 109/109/109 84/84/84 97/97/97
f 110/110/110 111/111/111 27/27/27
f 110/110/110 27/27/27 45/45/45
f 110/110/110 45/45/45 44/44/44
f 110/110/110 44/44/44 96/96/96
f 110/110/110 96/96/96 98/98/98
f 110/110/110 98/98/98 88/88/88
f 110/110/110 88/88/88 74/74/74
f 110/110/110 74/74/74 111/111/111
f 112/112/112 105/105/105 9/9/9
f 112/112/112 9/9/9 8/8/8
f 112/112/112 8/8/8 7/7/7
f 112/112/112 7/7/7 100/100/100
f 112/112/112 100/100/100 102/102/102
f 112/112/112 102/102/102 49/49/49
f 112/112/112 49/49/49 48/48/48
f 112/112/112 48/48/48 105/105/105
f 113/113/113 101/101/101 5/5/5
f 113/113/113 5/5/5 33/33/33
f 113/113/113 33/33/33 29/29/29
f 113/113/113 29/29/29 114/114/114
f 113/113/113 114/114/114 72/72/72
f 113/113/113 72/72/72 78/78/78
f 113/113/113 78/78/78 52/52/52
f 113/113/113 52/52/52 101/101/101
f 115/115/115 116/116/116 24/24/24
f 115/115/115 24/24/24 35/35/35
f 115/115/115 35/35/35 12/12/12
f 115/115/115 12/12/12 108/108/108
f 115/115/115 108/108/108 60/60/60
f 115/115/115 60/60/60 80/80/80
f 115/115/115 80/80/80 63/63/63
f 115/115/115 63/63/63 116/116/116
f 117/117/117 93/93/93 18/18/18
f 117/117/117 18/18/18 17/17/17
f 117/117/117 17/17/17 24/24/24
f 117/117/117 24/24/24 116/116/116
f 117/117/117 116/116/116 63/63/63
f 117/117/117 63/63/63 62/62/62
f 117/117/117 62/62/62 69/69/69
f 117/117/117 69/69/69 93/93/93
f 118/118/118 114/114/114 29/29/29
f 118/118/118 29/29/29 28/28/28
f 118/118/118 28/28/28 27/27/27
f 118/118/118 27/27/27 111/111/111
f 118/118/118 111/111/111 74/74/74
f 118/118/118 74/74/74 73/73/73
f 118/118/118 73/73/73 72/72/72
f 118/118/118 72/72/72 114/114/114
