v -2.405512 0.743798 -1.113822
v -2.407796 0.74377 -1.113514
v -2.406875 0.741587 -1.111563
v -2.404396 0.741815 -1.112172
v -2.402434 0.742039 -1.112392
v -2.40363 0.743734 -1.113676
v -2.404817 0.744599 -1.114491
v -2.406409 0.745113 -1.115041
v -2.408496 0.745295 -1.115014
v -2.409634 0.743565 -1.112136
v -2.410859 0.743325 -1.11072
v -2.410646 0.741574 -1.109034
v -2.40908 0.74155 -1.110257
v -2.409977 0.744911 -1.113582
v -2.410671 0.744267 -1.112096
v -2.40659 0.733642 -1.105397
v -2.408235 0.733644 -1.104478
v -2.4071 0.730715 -1.103438
v -2.40565 0.730709 -1.104263
v -2.403678 0.730753 -1.105245
v -2.404356 0.733695 -1.106494
v -2.405101 0.73652 -1.107926
v -2.407432 0.736477 -1.106762
v -2.409142 0.736498 -1.105772
v -2.402 0.733902 -1.107275
v -2.401591 0.730939 -1.105924
v -2.399986 0.731118 -1.106347
v -2.400192 0.734099 -1.107768
v -2.400729 0.736974 -1.109213
v -2.402631 0.736748 -1.108725
v -2.403432 0.739425 -1.110416
v -2.405959 0.73916 -1.109658
v -2.401472 0.739703 -1.110829
v -2.408304 0.73915 -1.108423
v -2.41001 0.73922 -1.107337
v -2.404483 0.727743 -1.103293
v -2.405548 0.727768 -1.102629
v -2.404433 0.726099 -1.10239
v -2.403534 0.725493 -1.102651
v -2.402553 0.725483 -1.103223
v -2.403024 0.72776 -1.104061
v -2.401453 0.727915 -1.104532
v -2.401459 0.72561 -1.1035
v -2.400698 0.72631 -1.103918
v -2.400236 0.728069 -1.104802
v -2.40554 0.743639 -1.114001
v -2.407856 0.743607 -1.113681
v -2.40854 0.745171 -1.115138
v -2.406428 0.744992 -1.115173
v -2.404824 0.744511 -1.114591
v -2.403636 0.743617 -1.113815
v -2.402446 0.741927 -1.112535
v -2.40443 0.741663 -1.112356
v -2.406937 0.741431 -1.111737
v -2.409724 0.743402 -1.11229
v -2.410942 0.743204 -1.110827
v -2.410728 0.744177 -1.112177
v -2.410045 0.744787 -1.113694
v -2.40917 0.741394 -1.110418
v -2.410727 0.741458 -1.109148
v -2.406684 0.733523 -1.105586
v -2.408315 0.733555 -1.104615
v -2.409222 0.7364 -1.105903
v -2.407524 0.736346 -1.106943
v -2.405172 0.73639 -1.108118
v -2.40443 0.733577 -1.106692
v -2.403754 0.730644 -1.105447
v -2.405746 0.730599 -1.104457
v -2.407182 0.730632 -1.103577
v -2.402054 0.733785 -1.10748
v -2.40268 0.73662 -1.108924
v -2.400756 0.736879 -1.109366
v -2.400223 0.734013 -1.107925
v -2.400018 0.731038 -1.106507
v -2.401647 0.730831 -1.106133
v -2.403475 0.739284 -1.110607
v -2.406025 0.739017 -1.109841
v -2.401491 0.739599 -1.110977
v -2.408395 0.739006 -1.108595
v -2.410089 0.739112 -1.10746
v -2.404581 0.727636 -1.103487
v -2.405632 0.727688 -1.102769
v -2.403102 0.727654 -1.104264
v -2.402611 0.725404 -1.103376
v -2.403609 0.725413 -1.102796
v -2.404493 0.726039 -1.102496
v -2.401509 0.72781 -1.104743
v -2.400267 0.727991 -1.104964
v -2.400724 0.726252 -1.104037
v -2.401499 0.725532 -1.103659
v -2.405943 0.727741 -1.102469
v -2.404311 0.725509 -1.102164
v -2.407622 0.73068 -1.103223
v -2.404493 0.726039 -1.102496
v -2.401478 0.724807 -1.103226
v -2.400569 0.72572 -1.103694
v -2.402422 0.724689 -1.103012
v -2.400724 0.726252 -1.104037
v -2.403002 0.743661 -1.113691
v -2.404606 0.744739 -1.114641
v -2.401782 0.742064 -1.11253
v -2.404824 0.744511 -1.114591
v -2.410122 0.745304 -1.114113
v -2.410939 0.744381 -1.112051
v -2.408749 0.745748 -1.115569
v -2.410728 0.744177 -1.112177
v -2.411308 0.743191 -1.110294
v -2.411206 0.741531 -1.108675
v -2.403252 0.724707 -1.102501
v -2.399842 0.728086 -1.104964
v -2.399463 0.731142 -1.10656
v -2.406716 0.745497 -1.115506
v -2.400824 0.739749 -1.111034
v -2.400105 0.737007 -1.109444
v -2.410616 0.739195 -1.107029
v -2.40975 0.736461 -1.105499
v -2.408821 0.733605 -1.104232
v -2.399601 0.734127 -1.108003
vn 0.0309 0.6708 0.741
vn 0.2301 0.7138 0.6615
vn 0.2479 0.6707 0.6991
vn 0.0707 0.6312 0.7723
vn 0.0868 0.6138 0.7847
vn 0.0385 0.6721 0.7394
vn 0.0051 0.7105 0.7036
vn 0.0406 0.7415 0.6697
vn 0.2007 0.7758 0.5981
vn 0.431 0.6935 0.5773
vn 0.4244 0.6939 0.5817
vn 0.4275 0.633 0.6454
vn 0.4285 0.6515 0.626
vn 0.3674 0.7601 0.536
vn 0.4194 0.734 0.5342
vn 0.4115 0.4662 0.7831
vn 0.3801 0.4583 0.8034
vn 0.3842 0.4293 0.8173
vn 0.4256 0.4365 0.7926
vn 0.3221 0.4243 0.8463
vn 0.3131 0.4624 0.8295
vn 0.2933 0.5365 0.7913
vn 0.4057 0.5322 0.7431
vn 0.3856 0.5174 0.7639
vn 0.2105 0.4548 0.8653
vn 0.21 0.4243 0.8808
vn 0.2572 0.4221 0.8692
vn 0.2476 0.4508 0.8576
vn 0.2104 0.5076 0.8355
vn 0.1802 0.5194 0.8353
vn 0.1278 0.5857 0.8004
vn 0.2689 0.6135 0.7424
vn 0.1509 0.5667 0.81
vn 0.412 0.6017 0.6842
vn 0.4043 0.581 0.7064
vn 0.4511 0.4236 0.7855
vn 0.4083 0.4122 0.8144
vn 0.44 0.397 0.8054
vn 0.481 0.3713 0.7942
vn 0.3368 0.3538 0.8726
vn 0.3261 0.4061 0.8536
vn 0.1883 0.4087 0.893
vn 0.1781 0.354 0.9181
vn 0.2126 0.384 0.8985
vn 0.2398 0.4026 0.8834
vn -0.0112 -0.6478 -0.7617
vn -0.2351 -0.7021 -0.6721
vn -0.2538 -0.6554 -0.7113
vn 0.0498 -0.5763 -0.8157
vn 0.1539 -0.5183 -0.8412
vn 0.1335 -0.5344 -0.8346
vn 0.0661 -0.5549 -0.8293
vn -0.0566 -0.6272 -0.7768
vn -0.2479 -0.6708 -0.699
vn -0.4617 -0.6733 -0.5774
vn -0.6263 -0.5772 -0.5239
vn -0.6469 -0.5634 -0.5138
vn -0.5496 -0.6102 -0.5706
vn -0.4421 -0.649 -0.6191
vn -0.5726 -0.5911 -0.5681
vn -0.4255 -0.4672 -0.775
vn -0.5193 -0.4723 -0.7121
vn -0.5166 -0.5175 -0.6821
vn -0.4188 -0.5322 -0.7357
vn -0.2933 -0.5363 -0.7914
vn -0.3131 -0.4623 -0.8296
vn -0.3221 -0.4242 -0.8463
vn -0.4414 -0.4396 -0.7822
vn -0.5402 -0.4687 -0.6988
vn -0.1948 -0.4542 -0.8693
vn -0.1658 -0.5179 -0.8392
vn -0.0603 -0.4918 -0.8686
vn -0.0839 -0.4476 -0.8903
vn -0.0601 -0.4416 -0.8952
vn -0.1913 -0.4254 -0.8845
vn -0.1139 -0.5833 -0.8042
vn -0.2689 -0.6135 -0.7424
vn -0.0043 -0.5374 -0.8433
vn -0.4248 -0.601 -0.677
vn -0.5343 -0.5673 -0.6266
vn -0.4691 -0.4412 -0.765
vn -0.5758 -0.4949 -0.6507
vn -0.3236 -0.4172 -0.8492
vn -0.3124 -0.4651 -0.8283
vn -0.5145 -0.5013 -0.6957
vn -0.5941 -0.5148 -0.618
vn -0.1594 -0.4237 -0.8917
vn 0.0012 -0.4624 -0.8867
vn 0.039 -0.479 -0.8769
vn -0.0729 -0.4762 -0.8763
vn -0.697 -0.2953 0.6535
vn -0.4002 -0.5773 0.7117
vn -0.7872 -0.186 0.588
vn -0.5941 -0.5148 -0.618
vn 0.4278 -0.8513 0.3038
vn 0.8369 -0.5072 0.2058
vn 0.1628 -0.9499 0.2669
vn 0.039 -0.479 -0.8769
vn 0.8084 0.5011 -0.3089
vn 0.5794 0.6778 -0.4526
vn 0.9132 0.3334 -0.2342
vn 0.1539 -0.5183 -0.8412
vn -0.6984 0.641 -0.3181
vn -0.7923 0.6004 0.1082
vn -0.3197 0.6475 -0.6918
vn -0.6469 -0.5634 -0.5138
vn -0.8372 0.4075 0.3647
vn -0.8432 0.2342 0.4839
vn -0.0087 -0.8759 0.4823
vn 0.9791 -0.2009 -0.0316
vn 0.9868 -0.0857 -0.1373
vn 0.2108 0.6925 -0.69
vn 0.9595 0.1966 -0.2016
vn 0.9745 0.1107 -0.1953
vn -0.8402 0.0955 0.5338
vn -0.8379 0.0084 0.5456
vn -0.8299 -0.0772 0.5525
vn 0.9818 0.0252 -0.1881
vt 0.839504 0.118056
vt 0.856743 0.205307
vt 0.741230 0.205307
vt 0.734555 0.106726
vt 0.724541 0.032791
vt 0.813647 0.052618
vt 0.868992 0.081539
vt 0.913398 0.129584
vt 0.940923 0.205307
vt 0.839504 0.292557
vt 0.813647 0.357995
vt 0.724541 0.377822
vt 0.734555 0.303887
vt 0.913398 0.281029
vt 0.868992 0.329074
vt 0.369475 0.299954
vt 0.368286 0.370940
vt 0.245840 0.351447
vt 0.246397 0.288815
vt 0.246768 0.205307
vt 0.370268 0.205307
vt 0.494283 0.205307
vt 0.492822 0.304944
vt 0.490632 0.379672
vt 0.369475 0.110659
vt 0.246397 0.121798
vt 0.245841 0.059166
vt 0.368286 0.039673
vt 0.490632 0.030941
vt 0.492822 0.105669
vt 0.616755 0.103478
vt 0.619174 0.205307
vt 0.613127 0.027106
vt 0.616755 0.307135
vt 0.613126 0.383507
vt 0.123273 0.268175
vt 0.123047 0.315326
vt 0.054743 0.283353
vt 0.030912 0.249131
vt 0.030973 0.205306
vt 0.123423 0.205306
vt 0.123273 0.142438
vt 0.030912 0.161481
vt 0.054744 0.127260
vt 0.123047 0.095287
vt 0.839504 0.118056
vt 0.856743 0.205307
vt 0.968983 0.205307
vt 0.938030 0.133427
vt 0.876123 0.061548
vt 0.805028 0.030806
vt 0.721203 0.008146
vt 0.734555 0.106726
vt 0.741230 0.205307
vt 0.839504 0.292557
vt 0.805028 0.379807
vt 0.876123 0.349065
vt 0.938030 0.277186
vt 0.734555 0.303887
vt 0.721203 0.402467
vt 0.369475 0.299954
vt 0.367890 0.394602
vt 0.489902 0.404581
vt 0.492822 0.304944
vt 0.494283 0.205307
vt 0.370268 0.205307
vt 0.246768 0.205307
vt 0.246397 0.288815
vt 0.245655 0.372324
vt 0.369475 0.110659
vt 0.492822 0.105669
vt 0.489902 0.006032
vt 0.367890 0.016011
vt 0.245655 0.038289
vt 0.246397 0.121798
vt 0.616755 0.103478
vt 0.619174 0.205307
vt 0.611917 0.001649
vt 0.616755 0.307135
vt 0.611917 0.408964
vt 0.123273 0.268175
vt 0.122972 0.331043
vt 0.123423 0.205306
vt 0.000156 0.205306
vt 0.000125 0.242784
vt 0.000064 0.280261
vt 0.123273 0.142438
vt 0.122972 0.079570
vt 0.000064 0.130352
vt 0.000125 0.167829
vt 0.122972 0.331043
vt 0.030806 0.283587
vt 0.245655 0.372324
vt 0.030806 0.283587
vt 0.000125 0.167829
vt 0.030806 0.127026
vt 0.000156 0.205306
vt 0.030806 0.127026
vt 0.805028 0.030806
vt 0.873826 0.071832
vt 0.721203 0.008146
vt 0.873826 0.071832
vt 0.938030 0.277186
vt 0.873826 0.338781
vt 0.968983 0.205307
vt 0.873826 0.338781
vt 0.805028 0.379807
vt 0.721203 0.402467
vt 0.000125 0.242784
vt 0.122972 0.079570
vt 0.245655 0.038289
vt 0.938030 0.133427
vt 0.611917 0.001649
vt 0.489902 0.006032
vt 0.611917 0.408964
vt 0.489902 0.404581
vt 0.367890 0.394602
vt 0.367890 0.016011
f 1/1/1 2/2/2 3/3/3
f 1/1/1 3/3/3 4/4/4
f 1/1/1 4/4/4 5/5/5
f 1/1/1 5/5/5 6/6/6
f 1/1/1 6/6/6 7/7/7
f 1/1/1 7/7/7 8/8/8
f 1/1/1 8/8/8 9/9/9
f 1/1/1 9/9/9 2/2/2
f 10/10/10 11/11/11 12/12/12
f 10/10/10 12/12/12 13/13/13
f 10/10/10 13/13/13 3/3/3
f 10/10/10 3/3/3 2/2/2
f 10/10/10 2/2/2 9/9/9
f 10/10/10 9/9/9 14/14/14
f 10/10/10 14/14/14 15/15/15
f 10/10/10 15/15/15 11/11/11
f 16/16/16 17/17/17 18/18/18
f 16/16/16 18/18/18 19/19/19
f 16/16/16 19/19/19 20/20/20
f 16/16/16 20/20/20 21/21/21
f 16/16/16 21/21/21 22/22/22
f 16/16/16 22/22/22 23/23/23
f 16/16/16 23/23/23 24/24/24
f 16/16/16 24/24/24 17/17/17
f 25/25/25 21/21/21 20/20/20
f 25/25/25 20/20/20 26/26/26
f 25/25/25 26/26/26 27/27/27
f 25/25/25 27/27/27 28/28/28
f 25/25/25 28/28/28 29/29/29
f 25/25/25 29/29/29 30/30/30
f 25/25/25 30/30/30 22/22/22
f 25/25/25 22/22/22 21/21/21
f 31/31/31 32/32/32 22/22/22
f 31/31/31 22/22/22 30/30/30
f 31/31/31 30/30/30 29/29/29
f 31/31/31 29/29/29 33/33/33
f 31/31/31 33/33/33 5/5/5
f 31/31/31 5/5/5 4/4/4
f 31/31/31 4/4/4 3/3/3
f 31/31/31 3/3/3 32/32/32
f 34/34/34 35/35/35 24/24/24
f 34/34/34 24/24/24 23/23/23
f 34/34/34 23/23/23 22/22/22
f 34/34/34 22/22/22 32/32/32
f 34/34/34 32/32/32 3/3/3
f 34/34/34 3/3/3 13/13/13
f 34/34/34 13/13/13 12/12/12
f 34/34/34 12/12/12 35/35/35
f 36/36/36 37/37/37 38/38/38
f 36/36/36 38/38/38 39/39/39
f 36/36/36 39/39/39 40/40/40
f 36/36/36 40/40/40 41/41/41
f 36/36/36 41/41/41 20/20/20
f 36/36/36 20/20/20 19/19/19
f 36/36/36 19/19/19 18/18/18
f 36/36/36 18/18/18 37/37/37
f 42/42/42 41/41/41 40/40/40
f 42/42/42 40/40/40 43/43/43
f 42/42/42 43/43/43 44/44/44
f 42/42/42 44/44/44 45/45/45
f 42/42/42 45/45/45 27/27/27
f 42/42/42 27/27/27 26/26/26
f 42/42/42 26/26/26 20/20/20
f 42/42/42 20/20/20 41/41/41
f 46/46/46 47/47/47 48/48/48
f 46/46/46 48/48/48 49/49/49
f 46/46/46 49/49/49 50/50/50
f 46/46/46 50/50/50 51/51/51
f 46/46/46 51/51/51 52/52/52
f 46/46/46 52/52/52 53/53/53
f 46/46/46 53/53/53 54/54/54
f 46/46/46 54/54/54 47/47/47
f 55/55/55 56/56/56 57/57/57
f 55/55/55 57/57/57 58/58/58
f 55/55/55 58/58/58 48/48/48
f 55/55/55 48/48/48 47/47/47
f 55/55/55 47/47/47 54/54/54
f 55/55/55 54/54/54 59/59/59
f 55/55/55 59/59/59 60/60/60
f 55/55/55 60/60/60 56/56/56
f 61/61/61 62/62/62 63/63/63
f 61/61/61 63/63/63 64/64/64
f 61/61/61 64/64/64 65/65/65
f 61/61/61 65/65/65 66/66/66
f 61/61/61 66/66/66 67/67/67
f 61/61/61 67/67/67 68/68/68
f 61/61/61 68/68/68 69/69/69
f 61/61/61 69/69/69 62/62/62
f 70/70/70 66/66/66 65/65/65
f 70/70/70 65/65/65 71/71/71
f 70/70/70 71/71/71 72/72/72
f 70/70/70 72/72/72 73/73/73
f 70/70/70 73/73/73 74/74/74
f 70/70/70 74/74/74 75/75/75
f 70/70/70 75/75/75 67/67/67
f 70/70/70 67/67/67 66/66/66
f 76/76/76 77/77/77 54/54/54
f 76/76/76 54/54/54 53/53/53
f 76/76/76 53/53/53 52/52/52
f 76/76/76 52/52/52 78/78/78
f 76/76/76 78/78/78 72/72/72
f 76/76/76 72/72/72 71/71/71
f 76/76/76 71/71/71 65/65/65
f 76/76/76 65/65/65 77/77/77
f 79/79/79 80/80/80 60/60/60
f 79/79/79 60/60/60 59/59/59
f 79/79/79 59/59/59 54/54/54
f 79/79/79 54/54/54 77/77/77
f 79/79/79 77/77/77 65/65/65
f 79/79/79 65/65/65 64/64/64
f 79/79/79 64/64/64 63/63/63
f 79/79/79 63/63/63 80/80/80
f 81/81/81 82/82/82 69/69/69
f 81/81/81 69/69/69 68/68/68
f 81/81/81 68/68/68 67/67/67
f 81/81/81 67/67/67 83/83/83
f 81/81/81 83/83/83 84/84/84
f 81/81/81 84/84/84 85/85/85
f 81/81/81 85/85/85 86/86/86
f 81/81/81 86/86/86 82/82/82
f 87/87/87 83/83/83 67/67/67
f 87/87/87 67/67/67 75/75/75
f 87/87/87 75/75/75 74/74/74
f 87/87/87 74/74/74 88/88/88
f 87/87/87 88/88/88 89/89/89
f 87/87/87 89/89/89 90/90/90
f 87/87/87 90/90/90 84/84/84
f 87/87/87 84/84/84 83/83/83
f 91/91/91 92/92/92 38/38/38
f 91/91/91 38/38/38 37/37/37
f 91/91/91 37/37/37 18/18/18
f 91/91/91 18/18/18 93/93/93
f 91/91/91 93/93/93 69/69/69
f 91/91/91 69/69/69 82/82/82
f 91/91/91 82/82/82 94/94/94
f 91/91/91 94/94/94 92/92/92
f 95/95/95 96/96/96 44/44/44
f 95/95/95 44/44/44 43/43/43
f 95/95/95 43/43/43 40/40/40
f 95/95/95 40/40/40 97/97/97
f 95/95/95 97/97/97 84/84/84
f 95/95/95 84/84/84 90/90/90
f 95/95/95 90/90/90 98/98/98
f 95/95/95 98/98/98 96/96/96
f 99/99/99 100/100/100 7/7/7
f 99/99/99 7/7/7 6/6/6
f 99/99/99 6/6/6 5/5/5
f 99/99/99 5/5/5 101/101/101
f 99/99/99 101/101/101 52/52/52
f 99/99/99 52/52/52 51/51/51
f 99/99/99 51/51/51 102/102/102
f 99/99/99 102/102/102 100/100/100
f 103/103/103 104/104/104 15/15/15
f 103/103/103 15/15/15 14/14/14
f 103/103/103 14/14/14 9/9/9
f 103/103/103 9/9/9 105/105/105
f 103/103/103 105/105/105 48/48/48
f 103/103/103 48/48/48 58/58/58
f 103/103/103 58/58/58 106/106/106
f 103/103/103 106/106/106 104/104/104
f 107/107/107 108/108/108 12/12/12
f 107/107/107 12/12/12 11/11/11
f 107/107/107 11/11/11 15/15/15
f 107/107/107 15/15/15 104/104/104
f 107/107/107 104/104/104 106/106/106
f 107/107/107 106/106/106 56/56/56
f 107/107/107 56/56/56 60/60/60
f 107/107/107 60/60/60 108/108/108
f 109/109/109 97/97/97 40/40/40
f 109/109/109 40/40/40 39/39/39
f 109/109/109 39/39/39 38/38/38
f 109/109/109 38/38/38 92/92/92
f 109/109/109 92/92/92 94/94/94
f 109/109/109 94/94/94 85/85/85
f 109/109/109 85/85/85 84/84/84
f 109/109/109 84/84/84 97/97/97
f 110/110/110 111/111/111 27/27/27
f 110/110/110 27/27/27 45/45/45
f 110/110/110 45/45/45 44/44/44
f 110/110/110 44/44/44 96/96/96
f 110/110/110 96/96/96 98/98/98
f 110/110/110 98/98/98 88/88/88
f 110/110/110 88/88/88 74/74/74
f 110/110/110 74/74/74 111/111/111
f 112/112/112 105/105/105 9/9/9
f 112/112/112 9/9/9 8/8/8
f 112/112/112 8/8/8 7/7/7
f 112/112/112 7/7/7 100/100/100
f 112/112/112 100/100/100 102/102/102
f 112/112/112 102/102/102 49/49/49
f 112/112/112 49/49/49 48/48/48
f 112/112/112 48/48/48 105/105/105
f 113/113/113 101/101/101 5/5/5
f 113/113/113 5/5/5 33/33/33
f 113/113/113 33/33/33 29/29/29
f 113/113/113 29/29/29 114/114/114
f 113/113/113 114/114/114 72/72/72
f 113/113/113 72/72/72 78/78/78
f 113/113/113 78/78/78 52/52/52
f 113/113/113 52/52/52 101/101/101
f 115/115/115 116/116/116 24/24/24
f 115/115/115 24/24/24 35/35/35
f 115/115/115 35/35/35 12/12/12
f 115/115/115 12/12/12 108/108/108
f 115/115/115 108/108/108 60/60/60
f 115/115/115 60/60/60 80/80/80
f 115/115/115 80/80/80 63/63/63
f 115/115/115 63/63/63 116/116/116
f 117/117/117 93/93/93 18/18/18
f 117/117/117 18/18/18 17/17/17
f 117/117/117 17/17/17 24/24/24
f 117/117/117 24/24/24 116/116/116
f 117/117/117 116/116/116 63/63/63
f 117/117/117 63/63/63 62/62/62
f 117/117/117 62/62/62 69/69/69
f 117/117/117 69/69/69 93/93/93
f 118/118/118 114/114/114 29/29/29
f 118/118/118 29/29/29 28/28/28
f 118/118/118 28/28/28 27/27/27
f 118/118/118 27/27/27 111/111/111
f 118/118/118 111/111/111 74/74/74
f 118/118/118 74/74/74 73/73/73
f 118/118/118 73/73/73 72/72/72
f 118/118/118 72/72/72 114/114/114
