v -2.356082 0.718586 -1.055893
v -2.355841 0.720076 -1.057606
v -2.358564 0.718871 -1.058212
v -2.35851 0.717272 -1.056242
v -2.358688 0.716144 -1.054641
v -2.35667 0.717466 -1.054517
v -2.355364 0.718423 -1.054895
v -2.354323 0.719501 -1.055787
v -2.353802 0.720895 -1.057232
v -2.356725 0.72162 -1.059036
v -2.357797 0.722787 -1.060028
v -2.359968 0.722188 -1.060901
v -2.359241 0.72072 -1.059814
v -2.354879 0.722127 -1.058507
v -2.356277 0.722732 -1.059358
v -2.366927 0.715956 -1.062771
v -2.367371 0.717332 -1.063949
v -2.369586 0.715125 -1.064928
v -2.369181 0.713903 -1.063892
v -2.368741 0.712334 -1.062442
v -2.36644 0.714187 -1.061124
v -2.364 0.715927 -1.059943
v -2.364522 0.717789 -1.061651
v -2.365008 0.719246 -1.062863
v -2.366211 0.712577 -1.059271
v -2.368548 0.710915 -1.060798
v -2.368477 0.709889 -1.059504
v -2.366117 0.711412 -1.057817
v -2.363697 0.713054 -1.056448
v -2.363774 0.714255 -1.05799
v -2.36114 0.715824 -1.056961
v -2.361329 0.717488 -1.058982
v -2.361125 0.714652 -1.055337
v -2.3619 0.71941 -1.060676
v -2.362457 0.720937 -1.061846
v -2.371353 0.711622 -1.064875
v -2.371694 0.712558 -1.06562
v -2.372746 0.71087 -1.065847
v -2.372931 0.709815 -1.065579
v -2.372647 0.708979 -1.064883
v -2.370995 0.710434 -1.063815
v -2.370881 0.709392 -1.062565
v -2.372607 0.708287 -1.063997
v -2.372164 0.708121 -1.062999
v -2.370866 0.708648 -1.06157
v -2.35597 0.718423 -1.056027
v -2.355733 0.719935 -1.057764
v -2.353724 0.720788 -1.057352
v -2.354242 0.719376 -1.055887
v -2.355303 0.718327 -1.054962
v -2.356584 0.717334 -1.054604
v -2.358596 0.716018 -1.054729
v -2.35839 0.717115 -1.056377
v -2.358448 0.718734 -1.058369
v -2.356622 0.721503 -1.059217
v -2.357723 0.722712 -1.060174
v -2.356223 0.722672 -1.059464
v -2.354806 0.722039 -1.058645
v -2.359129 0.720604 -1.05999
v -2.359887 0.722113 -1.061043
v -2.366777 0.715855 -1.062928
v -2.367261 0.717264 -1.064075
v -2.364906 0.719175 -1.062992
v -2.364383 0.717683 -1.061814
v -2.363857 0.715804 -1.060091
v -2.366286 0.714071 -1.061267
v -2.36858 0.712224 -1.062582
v -2.369024 0.713807 -1.064047
v -2.36947 0.715061 -1.065051
v -2.366055 0.712447 -1.059398
v -2.363628 0.714117 -1.058122
v -2.363586 0.712943 -1.056538
v -2.365999 0.711308 -1.057905
v -2.368353 0.709788 -1.059589
v -2.368385 0.71079 -1.060921
v -2.361008 0.715677 -1.057094
v -2.3612 0.717358 -1.059135
v -2.361025 0.714534 -1.055427
v -2.361775 0.719298 -1.060845
v -2.362365 0.720863 -1.061982
v -2.371193 0.71153 -1.065029
v -2.371577 0.712497 -1.065742
v -2.370831 0.710326 -1.063953
v -2.372524 0.708898 -1.064986
v -2.372811 0.709747 -1.065695
v -2.372659 0.710823 -1.065936
v -2.370714 0.709269 -1.062687
v -2.37074 0.708548 -1.061652
v -2.372071 0.708049 -1.063063
v -2.372482 0.708194 -1.064087
v -2.371756 0.712844 -1.065924
v -2.373183 0.710497 -1.066123
v -2.36967 0.715506 -1.065329
v -2.372659 0.710823 -1.065936
v -2.373127 0.707877 -1.064514
v -2.3726 0.707743 -1.06327
v -2.373143 0.708458 -1.065284
v -2.372071 0.708049 -1.063063
v -2.356827 0.717032 -1.054094
v -2.355229 0.718327 -1.054654
v -2.358706 0.71571 -1.054144
v -2.355303 0.718327 -1.054962
v -2.354233 0.722256 -1.058392
v -2.356216 0.722988 -1.059483
v -2.353089 0.72112 -1.057161
v -2.356223 0.722672 -1.059464
v -2.358122 0.723145 -1.060426
v -2.360176 0.722647 -1.061329
v -2.373404 0.709183 -1.065866
v -2.370805 0.708353 -1.061272
v -2.368398 0.709501 -1.059109
v -2.353702 0.71975 -1.055796
v -2.361075 0.714207 -1.054833
v -2.363622 0.712603 -1.055972
v -2.362602 0.721415 -1.062299
v -2.365126 0.719702 -1.063326
v -2.367471 0.717762 -1.064399
v -2.366033 0.710976 -1.05737
vn -0.4437 0.7418 0.5027
vn -0.403 0.6159 0.6769
vn -0.4563 0.5917 0.6645
vn -0.4953 0.704 0.509
vn -0.5164 0.6875 0.5105
vn -0.4437 0.7373 0.5094
vn -0.3899 0.7687 0.507
vn -0.3565 0.7537 0.5521
vn -0.3168 0.6491 0.6915
vn -0.3807 0.4443 0.811
vn -0.3829 0.4505 0.8065
vn -0.4628 0.4344 0.7727
vn -0.4389 0.438 0.7845
vn -0.305 0.5106 0.8039
vn -0.3246 0.4606 0.8261
vn -0.6425 0.3893 0.66
vn -0.6563 0.4115 0.6323
vn -0.6801 0.3954 0.6173
vn -0.6648 0.3647 0.6518
vn -0.6936 0.4422 0.5687
vn -0.6629 0.4663 0.5857
vn -0.5977 0.5123 0.6167
vn -0.5817 0.4205 0.6962
vn -0.601 0.4315 0.6727
vn -0.6742 0.5387 0.5052
vn -0.6988 0.5249 0.4859
vn -0.7001 0.4899 0.5195
vn -0.6772 0.5102 0.5302
vn -0.6286 0.5619 0.5377
vn -0.6172 0.5881 0.5227
vn -0.55 0.6501 0.5241
vn -0.5206 0.5585 0.6457
vn -0.5708 0.6273 0.5297
vn -0.5053 0.4389 0.743
vn -0.5309 0.4389 0.7248
vn -0.6689 0.3375 0.6623
vn -0.6891 0.368 0.6242
vn -0.6937 0.3348 0.6377
vn -0.702 0.2877 0.6514
vn -0.7456 0.3967 0.5354
vn -0.7076 0.4304 0.5603
vn -0.7103 0.5328 0.4599
vn -0.7497 0.5128 0.4181
vn -0.7295 0.5037 0.4627
vn -0.7156 0.4933 0.4945
vn 0.4659 -0.7471 -0.4741
vn 0.4178 -0.6095 -0.6738
vn 0.4741 -0.583 -0.6598
vn 0.5259 -0.7587 -0.3845
vn 0.5451 -0.7939 -0.2694
vn 0.5381 -0.7896 -0.2949
vn 0.5418 -0.7599 -0.3591
vn 0.4975 -0.7118 -0.4959
vn 0.4563 -0.5917 -0.6646
vn 0.395 -0.4122 -0.821
vn 0.4185 -0.2249 -0.8799
vn 0.419 -0.1987 -0.886
vn 0.4314 -0.3131 -0.8461
vn 0.4368 -0.4252 -0.7927
vn 0.4412 -0.2852 -0.8509
vn 0.638 -0.3781 -0.6708
vn 0.6011 -0.2979 -0.7415
vn 0.5573 -0.3175 -0.7672
vn 0.578 -0.4095 -0.7058
vn 0.5978 -0.5122 -0.6167
vn 0.663 -0.4662 -0.5857
vn 0.6937 -0.4421 -0.5686
vn 0.658 -0.3527 -0.6652
vn 0.5952 -0.2772 -0.7542
vn 0.6743 -0.5496 -0.4931
vn 0.6178 -0.5976 -0.511
vn 0.6292 -0.6566 -0.4158
vn 0.6697 -0.6217 -0.4061
vn 0.6708 -0.6342 -0.3844
vn 0.6974 -0.5387 -0.4726
vn 0.5511 -0.6587 -0.5123
vn 0.5206 -0.5585 -0.6457
vn 0.5771 -0.711 -0.4018
vn 0.5021 -0.4275 -0.7517
vn 0.4937 -0.3171 -0.8097
vn 0.6483 -0.3298 -0.6862
vn 0.5507 -0.2531 -0.7954
vn 0.6991 -0.4376 -0.5654
vn 0.6608 -0.4679 -0.5868
vn 0.5749 -0.3135 -0.7557
vn 0.5183 -0.2416 -0.8203
vn 0.697 -0.56 -0.4478
vn 0.6415 -0.682 -0.3511
vn 0.618 -0.7122 -0.3329
vn 0.6445 -0.6416 -0.4158
vn -0.5338 0.4997 -0.6821
vn -0.7547 0.1534 -0.6379
vn -0.415 0.6012 -0.6829
vn 0.5183 -0.2416 -0.8203
vn -0.6743 -0.7067 -0.214
vn -0.56 -0.7664 0.3145
vn -0.6133 -0.6269 -0.4805
vn 0.618 -0.7122 -0.3329
vn 0.2673 -0.2858 0.9203
vn 0.5131 -0.0869 0.8539
vn 0.1164 -0.4313 0.8946
vn 0.5451 -0.7939 -0.2694
vn 0.6766 0.7249 -0.1292
vn 0.2973 0.933 -0.2025
vn 0.9293 0.3416 0.1403
vn 0.419 -0.1987 -0.886
vn 0.008 0.9378 -0.3471
vn -0.1599 0.8745 -0.4578
vn -0.7428 -0.383 -0.5491
vn -0.2699 -0.7462 0.6085
vn -0.1358 -0.7176 0.6831
vn 0.8196 0.049 0.5707
vn 0.0284 -0.5378 0.8426
vn -0.0105 -0.6016 0.7987
vn -0.2551 0.7999 -0.5432
vn -0.2967 0.745 -0.5973
vn -0.3347 0.6857 -0.6464
vn -0.0492 -0.6608 0.7489
vt 0.839504 0.118056
vt 0.856743 0.205307
vt 0.741230 0.205307
vt 0.734555 0.106726
vt 0.724541 0.032791
vt 0.813647 0.052618
vt 0.868992 0.081539
vt 0.913398 0.129584
vt 0.940923 0.205307
vt 0.839504 0.292557
vt 0.813647 0.357995
vt 0.724541 0.377822
vt 0.734555 0.303887
vt 0.913398 0.281029
vt 0.868992 0.329074
vt 0.369475 0.299954
vt 0.368286 0.370940
vt 0.245840 0.351447
vt 0.246397 0.288815
vt 0.246768 0.205307
vt 0.370268 0.205307
vt 0.494283 0.205307
vt 0.492822 0.304944
vt 0.490632 0.379672
vt 0.369475 0.110659
vt 0.246397 0.121798
vt 0.245841 0.059166
vt 0.368286 0.039673
vt 0.490632 0.030941
vt 0.492822 0.105669
vt 0.616755 0.103478
vt 0.619174 0.205307
vt 0.613127 0.027106
vt 0.616755 0.307135
vt 0.613126 0.383507
vt 0.123273 0.268175
vt 0.123047 0.315326
vt 0.054743 0.283353
vt 0.030912 0.249131
vt 0.030973 0.205306
vt 0.123423 0.205306
vt 0.123273 0.142438
vt 0.030912 0.161481
vt 0.054744 0.127260
vt 0.123047 0.095287
vt 0.839504 0.118056
vt 0.856743 0.205307
vt 0.968983 0.205307
vt 0.938030 0.133427
vt 0.876123 0.061548
vt 0.805028 0.030806
vt 0.721203 0.008146
vt 0.734555 0.106726
vt 0.741230 0.205307
vt 0.839504 0.292557
vt 0.805028 0.379807
vt 0.876123 0.349065
vt 0.938030 0.277186
vt 0.734555 0.303887
vt 0.721203 0.402467
vt 0.369475 0.299954
vt 0.367890 0.394602
vt 0.489902 0.404581
vt 0.492822 0.304944
vt 0.494283 0.205307
vt 0.370268 0.205307
vt 0.246768 0.205307
vt 0.246397 0.288815
vt 0.245655 0.372324
vt 0.369475 0.110659
vt 0.492822 0.105669
vt 0.489902 0.006032
vt 0.367890 0.016011
vt 0.245655 0.038289
vt 0.246397 0.121798
vt 0.616755 0.103478
vt 0.619174 0.205307
vt 0.611917 0.001649
vt 0.616755 0.307135
vt 0.611917 0.408964
vt 0.123273 0.268175
vt 0.122972 0.331043
vt 0.123423 0.205306
vt 0.000156 0.205306
vt 0.000125 0.242784
vt 0.000064 0.280261
vt 0.123273 0.142438
vt 0.122972 0.079570
vt 0.000064 0.130352
vt 0.000125 0.167829
vt 0.122972 0.331043
vt 0.030806 0.283587
vt 0.245655 0.372324
vt 0.030806 0.283587
vt 0.000125 0.167829
vt 0.030806 0.127026
vt 0.000156 0.205306
vt 0.030806 0.127026
vt 0.805028 0.030806
vt 0.873826 0.071832
vt 0.721203 0.008146
vt 0.873826 0.071832
vt 0.938030 0.277186
vt 0.873826 0.338781
vt 0.968983 0.205307
vt 0.873826 0.338781
vt 0.805028 0.379807
vt 0.721203 0.402467
vt 0.000125 0.242784
vt 0.122972 0.079570
vt 0.245655 0.038289
vt 0.938030 0.133427
vt 0.611917 0.001649
vt 0.489902 0.006032
vt 0.611917 0.408964
vt 0.489902 0.404581
vt 0.367890 0.394602
vt 0.367890 0.016011
f 1/1/1 2/2/2 3/3/3
f 1/1/1 3/3/3 4/4/4
f 1/1/1 4/4/4 5/5/5
f 1/1/1 5/5/5 6/6/6
f 1/1/1 6/6/6 7/7/7
f 1/1/1 7/7/7 8/8/8
f 1/1/1 8/8/8 9/9/9
f 1/1/1 9/9/9 2/2/2
f 10/10/10 11/11/11 12/12/12
f 10/10/10 12/12/12 13/13/13
f 10/10/10 13/13/13 3/3/3
f 10/10/10 3/3/3 2/2/2
f 10/10/10 2/2/2 9/9/9
f 10/10/10 9/9/9 14/14/14
f 10/10/10 14/14/14 15/15/15
f 10/10/10 15/15/15 11/11/11
f 16/16/16 17/17/17 18/18/18
f 16/16/16 18/18/18 19/19/19
f 16/16/16 19/19/19 20/20/20
f 16/16/16 20/20/20 21/21/21
f 16/16/16 21/21/21 22/22/22
f 16/16/16 22/22/22 23/23/23
f 16/16/16 23/23/23 24/24/24
f 16/16/16 24/24/24 17/17/17
f 25/25/25 21/21/21 20/20/20
f 25/25/25 20/20/20 26/26/26
f 25/25/25 26/26/26 27/27/27
f 25/25/25 27/27/27 28/28/28
f 25/25/25 28/28/28 29/29/29
f 25/25/25 29/29/29 30/30/30
f 25/25/25 30/30/30 22/22/22
f 25/25/25 22/22/22 21/21/21
f 31/31/31 32/32/32 22/22/22
f 31/31/31 22/22/22 30/30/30
f 31/31/31 30/30/30 29/29/29
f 31/31/31 29/29/29 33/33/33
f 31/31/31 33/33/33 5/5/5
f 31/31/31 5/5/5 4/4/4
f 31/31/31 4/4/4 3/3/3
f 31/31/31 3/3/3 32/32/32
f 34/34/34 35/35/35 24/24/24
f 34/34/34 24/24/24 23/23/23
f 34/34/34 23/23/23 22/22/22
f 34/34/34 22/22/22 32/32/32
f 34/34/34 32/32/32 3/3/3
f 34/34/34 3/3/3 13/13/13
f 34/34/34 13/13/13 12/12/12
f 34/34/34 12/12/12 35/35/35
f 36/36/36 37/37/37 38/38/38
f 36/36/36 38/38/38 39/39/39
f 36/36/36 39/39/39 40/40/40
f 36/36/36 40/40/40 41/41/41
f 36/36/36 41/41/41 20/20/20
f 36/36/36 20/20/20 19/19/19
f 36/36/36 19/19/19 18/18/18
f 36/36/36 18/18/18 37/37/37
f 42/42/42 41/41/41 40/40/40
f 42/42/42 40/40/40 43/43/43
f 42/42/42 43/43/43 44/44/44
f 42/42/42 44/44/44 45/45/45
f 42/42/42 45/45/45 27/27/27
f 42/42/42 27/27/27 26/26/26
f 42/42/42 26/26/26 20/20/20
f 42/42/42 20/20/20 41/41/41
f 46/46/46 47/47/47 48/48/48
f 46/46/46 48/48/48 49/49/49
f 46/46/46 49/49/49 50/50/50
f 46/46/46 50/50/50 51/51/51
f 46/46/46 51/51/51 52/52/52
f 46/46/46 52/52/52 53/53/53
f 46/46/46 53/53/53 54/54/54
f 46/46/46 54/54/54 47/47/47
f 55/55/55 56/56/56 57/57/57
f 55/55/55 57/57/57 58/58/58
f 55/55/55 58/58/58 48/48/48
f 55/55/55 48/48/48 47/47/47
f 55/55/55 47/47/47 54/54/54
f 55/55/55 54/54/54 59/59/59
f 55/55/55 59/59/59 60/60/60
f 55/55/55 60/60/60 56/56/56
f 61/61/61 62/62/62 63/63/63
f 61/61/61 63/63/63 64/64/64
f 61/61/61 64/64/64 65/65/65
f 61/61/61 65/65/65 66/66/66
f 61/61/61 66/66/66 67/67/67
f 61/61/61 67/67/67 68/68/68
f 61/61/61 68/68/68 69/69/69
f 61/61/61 69/69/69 62/62/62
f 70/70/70 66/66/66 65/65/65
f 70/70/70 65/65/65 71/71/71
f 70/70/70 71/71/71 72/72/72
f 70/70/70 72/72/72 73/73/73
f 70/70/70 73/73/73 74/74/74
f 70/70/70 74/74/74 75/75/75
f 70/70/70 75/75/75 67/67/67
f 70/70/70 67/67/67 66/66/66
f 76/76/76 77/77/77 54/54/54
f 76/76/76 54/54/54 53/53/53
f 76/76/76 53/53/53 52/52/52
f 76/76/76 52/52/52 78/78/78
f 76/76/76 78/78/78 72/72/72
f 76/76/76 72/72/72 71/71/71
f 76/76/76 71/71/71 65/65/65
f 76/76/76 65/65/65 77/77/77
f 79/79/79 80/80/80 60/60/60
f 79/79/79 60/60/60 59/59/59
f 79/79/79 59/59/59 54/54/54
f 79/79/79 54/54/54 77/77/77
f 79/79/79 77/77/77 65/65/65
f 79/79/79 65/65/65 64/64/64
f 79/79/79 64/64/64 63/63/63
f 79/79/79 63/63/63 80/80/80
f 81/81/81 82/82/82 69/69/69
f 81/81/81 69/69/69 68/68/68
f 81/81/81 68/68/68 67/67/67
f 81/81/81 67/67/67 83/83/83
f 81/81/81 83/83/83 84/84/84
f 81/81/81 84/84/84 85/85/85
f 81/81/81 85/85/85 86/86/86
f 81/81/81 86/86/86 82/82/82
f 87/87/87 83/83/83 67/67/67
f 87/87/87 67/67/67 75/75/75
f 87/87/87 75/75/75 74/74/74
f 87/87/87 74/74/74 88/88/88
f 87/87/87 88/88/88 89/89/89
f 87/87/87 89/89/89 90/90/90
f 87/87/87 90/90/90 84/84/84
f 87/87/87 84/84/84 83/83/83
f 91/91/91 92/92/92 38/38/38
f 91/91/91 38/38/38 37/37/37
f 91/91/91 37/37/37 18/18/18
f 91/91/91 18/18/18 93/93/93
f 91/91/91 93/93/93 69/69/69
f 91/91/91 69/69/69 82/82/82
f 91/91/91 82/82/82 94/94/94
f 91/91/91 94/94/94 92/92/92
f 95/95/95 96/96/96 44/44/44
f 95/95/95 44/44/44 43/43/43
f 95/95/95 43/43/43 40/40/40
f 95/95/95 40/40/40 97/97/97
f 95/95/95 97/97/97 84/84/84
f 95/95/95 84/84/84 90/90/90
f 95/95/95 90/90/90 98/98/98
f 95/95/95 98/98/98 96/96/96
f 99/99/99 100/100/100 7/7/7
f 99/99/99 7/7/7 6/6/6
f 99/99/99 6/6/6 5/5/5
f 99/99/99 5/5/5 101/101/101
f 99/99/99 101/101/101 52/52/52
f 99/99/99 52/52/52 51/51/51
f 99/99/99 51/51/51 102/102/102
f 99/99/99 102/102/102 100/100/100
f 103/103/103 104/104/104 15/15/15
f 103/103/103 15/15/15 14/14/14
f 103/103/103 14/14/14 9/9/9
f 103/103/103 9/9/9 105/105/105
f 103/103/103 105/105/105 48/48/48
f 103/103/103 48/48/48 58/58/58
f 103/103/103 58/58/58 106/106/106
f 103/103/103 106/106/106 104/104/104
f 107/107/107 108/108/108 12/12/12
f 107/107/107 12/12/12 11/11/11
f 107/107/107 11/11/11 15/15/15
f 107/107/107 15/15/15 104/104/104
f 107/107/107 104/104/104 106/106/106
f 107/107/107 106/106/106 56/56/56
f 107/107/107 56/56/56 60/60/60
f 107/107/107 60/60/60 108/108/108
f 109/109/109 97/97/97 40/40/40
f 109/109/109 40/40/40 39/39/39
f 109/109/109 39/39/39 38/38/38
f 109/109/109 38/38/38 92/92/92
f 109/109/109 92/92/92 94/94/94
f 109/109/109 94/94/94 85/85/85
f 109/109/109 85/85/85 84/84/84
f 109/109/109 84/84/84 97/97/97
f 110/110/110 111/111/111 27/27/27
f 110/110/110 27/27/27 45/45/45
f 110/110/110 45/45/45 44/44/44
f 110/110/110 44/44/44 96/96/96
f 110/110/110 96/96/96 98/98/98
f 110/110/110 98/98/98 88/88/88
f 110/110/110 88/88/88 74/74/74
f 110/110/110 74/74/74 111/111/111
f 112/112/112 105/105/105 9/9/9
f 112/112/112 9/9/9 8/8/8
f 112/112/112 8/8/8 7/7/7
f 112/112/112 7/7/7 100/100/100
f 112/112/112 100/100/100 102/102/102
f 112/112/112 102/102/102 49/49/49
f 112/112/112 49/49/49 48/48/48
f 112/112/112 48/48/48 105/105/105
f 113/113/113 101/101/101 5/5/5
f 113/113/113 5/5/5 33/33/33
f 113/113/113 33/33/33 29/29/29
f 113/113/113 29/29/29 114/114/114
f 113/113/113 114/114/114 72/72/72
f 113/113/113 72/72/72 78/78/78
f 113/113/113 78/78/78 52/52/52
f 113/113/113 52/52/52 101/101/101
f 115/115/115 116/116/116 24/24/24
f 115/115/115 24/24/24 35/35/35
f 115/115/115 35/35/35 12/12/12
f 115/115/115 12/12/12 108/108/108
f 115/115/115 108/108/108 60/60/60
f 115/115/115 60/60/60 80/80/80
f 115/115/115 80/80/80 63/63/63
f 115/115/115 63/63/63 116/116/116
f 117/117/117 93/93/93 18/18/18
f 117/117/117 18/18/18 17/17/17
f 117/117/117 17/17/17 24/24/24
f 117/117/117 24/24/24 116/116/116
f 117/117/117 116/116/116 63/63/63
f 117/117/117 63/63/63 62/62/62
f 117/117/117 62/62/62 69/69/69
f 117/117/117 69/69/69 93/93/93
f 118/118/118 114/114/114 29/29/29
f 118/118/118 29/29/29 28/28/28
f 118/118/118 28/28/28 27/27/27
f 118/118/118 27/27/27 111/111/111
f 118/118/118 111/111/111 74/74/74
f 118/118/118 74/74/74 73/73/73
f 118/118/118 73/73/73 72/72/72
f 118/118/118 72/72/72 114/114/114
