v -2.425348 0.672464 -1.093966
v -2.426657 0.671678 -1.092005
v -2.423774 0.670115 -1.091561
v -2.422631 0.671124 -1.093866
v -2.421544 0.672008 -1.095486
v -2.423935 0.673088 -1.095293
v -2.425667 0.67341 -1.094877
v -2.42735 0.673277 -1.094007
v -2.428813 0.672727 -1.092377
v -2.426791 0.67104 -1.089607
v -2.426467 0.67059 -1.087648
v -2.42442 0.669171 -1.086802
v -2.424272 0.669506 -1.088912
v -2.428599 0.672045 -1.090234
v -2.427717 0.671387 -1.088686
v -2.416074 0.663198 -1.088319
v -2.416498 0.662765 -1.08638
v -2.413891 0.660384 -1.086892
v -2.413528 0.660759 -1.088614
v -2.412946 0.661345 -1.090841
v -2.415404 0.663868 -1.090831
v -2.418005 0.66622 -1.090924
v -2.418693 0.665537 -1.088286
v -2.419114 0.665111 -1.086242
v -2.414467 0.664784 -1.093174
v -2.412107 0.662162 -1.092907
v -2.4114 0.662842 -1.094416
v -2.413682 0.665544 -1.094886
v -2.416168 0.668017 -1.09514
v -2.417011 0.667196 -1.093364
v -2.419793 0.669339 -1.09363
v -2.420843 0.668299 -1.091184
v -2.418872 0.670245 -1.095387
v -2.421499 0.667655 -1.088478
v -2.421862 0.667295 -1.086358
v -2.410939 0.658341 -1.089209
v -2.411171 0.658095 -1.087898
v -2.409635 0.656847 -1.088812
v -2.409004 0.656513 -1.089779
v -2.408766 0.65676 -1.090955
v -2.410535 0.658752 -1.09089
v -2.409879 0.659388 -1.092413
v -2.408277 0.65723 -1.091974
v -2.408327 0.658137 -1.092762
v -2.409311 0.65993 -1.093516
v -2.425445 0.672266 -1.094103
v -2.426766 0.671467 -1.092111
v -2.428892 0.672567 -1.092455
v -2.427419 0.673128 -1.094111
v -2.425717 0.673303 -1.094961
v -2.424002 0.672947 -1.095411
v -2.42162 0.671869 -1.095601
v -2.422739 0.67093 -1.094001
v -2.423892 0.66991 -1.091668
v -2.42691 0.670821 -1.089678
v -2.426561 0.670422 -1.087685
v -2.427784 0.671263 -1.088717
v -2.428686 0.671878 -1.090285
v -2.424399 0.669292 -1.088989
v -2.42452 0.669008 -1.086844
v -2.416239 0.663016 -1.088408
v -2.416624 0.662625 -1.086436
v -2.419232 0.664963 -1.086295
v -2.418846 0.665345 -1.088373
v -2.418151 0.666034 -1.091033
v -2.415562 0.663692 -1.090941
v -2.413111 0.661176 -1.090951
v -2.4137 0.660584 -1.088703
v -2.414023 0.660249 -1.086948
v -2.414617 0.664615 -1.093304
v -2.41715 0.667018 -1.093495
v -2.416268 0.667889 -1.095248
v -2.41379 0.665421 -1.094994
v -2.411515 0.662724 -1.094524
v -2.412265 0.662 -1.093038
v -2.419916 0.669152 -1.093763
v -2.420974 0.668102 -1.091292
v -2.41896 0.67011 -1.095499
v -2.421638 0.667452 -1.08856
v -2.421971 0.66714 -1.086406
v -2.411115 0.658168 -1.089297
v -2.411305 0.657962 -1.087952
v -2.410704 0.658585 -1.091
v -2.408893 0.656635 -1.091038
v -2.409136 0.656383 -1.089843
v -2.409734 0.656749 -1.088854
v -2.410039 0.659229 -1.092546
v -2.409426 0.659816 -1.093626
v -2.408414 0.658051 -1.092841
v -2.408397 0.657112 -1.092075
v -2.411308 0.657953 -1.087482
v -2.409169 0.656332 -1.088821
v -2.414072 0.660198 -1.086341
v -2.409734 0.656749 -1.088854
v -2.407796 0.656459 -1.091873
v -2.407859 0.657625 -1.092779
v -2.408233 0.65604 -1.091013
v -2.408414 0.658051 -1.092841
v -2.423493 0.673234 -1.095791
v -2.425688 0.673602 -1.09513
v -2.421214 0.672242 -1.09608
v -2.425717 0.673303 -1.094961
v -2.42924 0.672305 -1.090465
v -2.427906 0.671414 -1.088431
v -2.429567 0.673006 -1.092535
v -2.427784 0.671263 -1.088717
v -2.426401 0.670365 -1.087008
v -2.424515 0.668986 -1.086114
v -2.408417 0.655846 -1.089997
v -2.409172 0.660061 -1.093935
v -2.411215 0.663017 -1.094969
v -2.428047 0.673482 -1.094067
v -2.418603 0.670488 -1.096025
v -2.41593 0.668235 -1.095782
v -2.422032 0.667105 -1.08567
v -2.419308 0.664902 -1.085582
v -2.416696 0.662558 -1.085756
v -2.413467 0.665743 -1.095507
vn 0.3168 0.745 0.5871
vn 0.3724 0.8387 0.3973
vn 0.4243 0.8099 0.4051
vn 0.377 0.7257 0.5754
vn 0.4017 0.7165 0.5702
vn 0.3202 0.7486 0.5806
vn 0.2611 0.7682 0.5845
vn 0.2494 0.8037 0.5401
vn 0.2887 0.8777 0.3823
vn 0.4468 0.8732 0.1944
vn 0.4454 0.8722 0.2023
vn 0.5123 0.8257 0.2362
vn 0.4932 0.8404 0.2244
vn 0.3556 0.9085 0.2195
vn 0.3957 0.9009 0.1782
vn 0.6543 0.685 0.3205
vn 0.6513 0.6704 0.3555
vn 0.6733 0.6467 0.3584
vn 0.6797 0.6633 0.3132
vn 0.6561 0.6259 0.4217
vn 0.6259 0.6561 0.4216
vn 0.5621 0.713 0.419
vn 0.6006 0.7388 0.3057
vn 0.6074 0.7215 0.3323
vn 0.589 0.6205 0.5177
vn 0.6096 0.5942 0.5246
vn 0.632 0.606 0.483
vn 0.6082 0.6278 0.4856
vn 0.5504 0.6654 0.5042
vn 0.5274 0.6665 0.5269
vn 0.4479 0.706 0.5485
vn 0.4869 0.7698 0.4127
vn 0.4754 0.6973 0.5364
vn 0.5402 0.7971 0.2697
vn 0.5577 0.7785 0.2879
vn 0.6951 0.6585 0.2886
vn 0.6921 0.6382 0.337
vn 0.7108 0.6331 0.3064
vn 0.7374 0.6207 0.2663
vn 0.7072 0.5687 0.42
vn 0.6699 0.6113 0.4215
vn 0.6097 0.5743 0.5463
vn 0.639 0.5237 0.5633
vn 0.6371 0.5601 0.5295
vn 0.6374 0.5842 0.5024
vn -0.3265 -0.7201 -0.6122
vn -0.3868 -0.8311 -0.3996
vn -0.4415 -0.7994 -0.4073
vn -0.3497 -0.6413 -0.6829
vn -0.3213 -0.5568 -0.766
vn -0.3241 -0.5776 -0.7492
vn -0.3561 -0.6181 -0.7008
vn -0.3726 -0.718 -0.5879
vn -0.4242 -0.8099 -0.4051
vn -0.4728 -0.8645 -0.1702
vn -0.5709 -0.821 -0.0039
vn -0.5813 -0.8134 0.0195
vn -0.5444 -0.8334 -0.0949
vn -0.4978 -0.8415 -0.2098
vn -0.5635 -0.8227 -0.0744
vn -0.657 -0.6894 -0.3051
vn -0.6704 -0.7156 -0.1959
vn -0.6326 -0.7525 -0.1831
vn -0.6037 -0.7421 -0.2914
vn -0.5622 -0.7129 -0.4191
vn -0.6261 -0.6559 -0.4216
vn -0.6562 -0.6258 -0.4217
vn -0.6813 -0.6698 -0.2952
vn -0.6754 -0.7172 -0.1714
vn -0.582 -0.6154 -0.5314
vn -0.5215 -0.661 -0.5396
vn -0.4844 -0.6063 -0.6307
vn -0.5289 -0.576 -0.6232
vn -0.5195 -0.5633 -0.6425
vn -0.6001 -0.5896 -0.5406
vn -0.4425 -0.6999 -0.5606
vn -0.4869 -0.7698 -0.4127
vn -0.4161 -0.6269 -0.6587
vn -0.5435 -0.7995 -0.2557
vn -0.5882 -0.7967 -0.1389
vn -0.6861 -0.6779 -0.2639
vn -0.6553 -0.7463 -0.1165
vn -0.6615 -0.6201 -0.4216
vn -0.6238 -0.6581 -0.4216
vn -0.6462 -0.7386 -0.1918
vn -0.6373 -0.766 -0.0836
vn -0.5856 -0.5786 -0.5677
vn -0.468 -0.5613 -0.6825
vn -0.4318 -0.563 -0.7046
vn -0.5028 -0.5971 -0.625
vn 0.1175 -0.408 0.9054
vn 0.4387 -0.5654 0.6984
vn -0.0219 -0.345 0.9383
vn -0.6373 -0.766 -0.0836
vn 0.7656 -0.6092 -0.2067
vn 0.8403 -0.1687 -0.5152
vn 0.6051 -0.7939 -0.0593
vn -0.4318 -0.563 -0.7046
vn 0.127 0.687 -0.7154
vn -0.1772 0.7559 -0.6302
vn 0.3009 0.576 -0.7601
vn -0.3213 -0.5568 -0.766
vn -0.8764 0.3227 0.3574
vn -0.6228 0.3163 0.7156
vn -0.9019 0.3977 -0.1685
vn -0.5813 -0.8134 0.0195
vn -0.4078 0.1596 0.899
vn -0.2698 0.013 0.9628
vn 0.6236 -0.7495 0.2222
vn 0.6615 0.129 -0.7387
vn 0.5542 0.2234 -0.8018
vn -0.581 0.614 -0.5342
vn 0.3979 0.4685 -0.7887
vn 0.4403 0.3943 -0.8066
vn -0.1863 -0.1084 0.9765
vn -0.1482 -0.1865 0.9712
vn -0.11 -0.2626 0.9586
vn 0.4785 0.318 -0.8184
vt 0.839504 0.118056
vt 0.856743 0.205307
vt 0.741230 0.205307
vt 0.734555 0.106726
vt 0.724541 0.032791
vt 0.813647 0.052618
vt 0.868992 0.081539
vt 0.913398 0.129584
vt 0.940923 0.205307
vt 0.839504 0.292557
vt 0.813647 0.357995
vt 0.724541 0.377822
vt 0.734555 0.303887
vt 0.913398 0.281029
vt 0.868992 0.329074
vt 0.369475 0.299954
vt 0.368286 0.370940
vt 0.245840 0.351447
vt 0.246397 0.288815
vt 0.246768 0.205307
vt 0.370268 0.205307
vt 0.494283 0.205307
vt 0.492822 0.304944
vt 0.490632 0.379672
vt 0.369475 0.110659
vt 0.246397 0.121798
vt 0.245841 0.059166
vt 0.368286 0.039673
vt 0.490632 0.030941
vt 0.492822 0.105669
vt 0.616755 0.103478
vt 0.619174 0.205307
vt 0.613127 0.027106
vt 0.616755 0.307135
vt 0.613126 0.383507
vt 0.123273 0.268175
vt 0.123047 0.315326
vt 0.054743 0.283353
vt 0.030912 0.249131
vt 0.030973 0.205306
vt 0.123423 0.205306
vt 0.123273 0.142438
vt 0.030912 0.161481
vt 0.054744 0.127260
vt 0.123047 0.095287
vt 0.839504 0.118056
vt 0.856743 0.205307
vt 0.968983 0.205307
vt 0.938030 0.133427
vt 0.876123 0.061548
vt 0.805028 0.030806
vt 0.721203 0.008146
vt 0.734555 0.106726
vt 0.741230 0.205307
vt 0.839504 0.292557
vt 0.805028 0.379807
vt 0.876123 0.349065
vt 0.938030 0.277186
vt 0.734555 0.303887
vt 0.721203 0.402467
vt 0.369475 0.299954
vt 0.367890 0.394602
vt 0.489902 0.404581
vt 0.492822 0.304944
vt 0.494283 0.205307
vt 0.370268 0.205307
vt 0.246768 0.205307
vt 0.246397 0.288815
vt 0.245655 0.372324
vt 0.369475 0.110659
vt 0.492822 0.105669
vt 0.489902 0.006032
vt 0.367890 0.016011
vt 0.245655 0.038289
vt 0.246397 0.121798
vt 0.616755 0.103478
vt 0.619174 0.205307
vt 0.611917 0.001649
vt 0.616755 0.307135
vt 0.611917 0.408964
vt 0.123273 0.268175
vt 0.122972 0.331043
vt 0.123423 0.205306
vt 0.000156 0.205306
vt 0.000125 0.242784
vt 0.000064 0.280261
vt 0.123273 0.142438
vt 0.122972 0.079570
vt 0.000064 0.130352
vt 0.000125 0.167829
vt 0.122972 0.331043
vt 0.030806 0.283587
vt 0.245655 0.372324
vt 0.030806 0.283587
vt 0.000125 0.167829
vt 0.030806 0.127026
vt 0.000156 0.205306
vt 0.030806 0.127026
vt 0.805028 0.030806
vt 0.873826 0.071832
vt 0.721203 0.008146
vt 0.873826 0.071832
vt 0.938030 0.277186
vt 0.873826 0.338781
vt 0.968983 0.205307
vt 0.873826 0.338781
vt 0.805028 0.379807
vt 0.721203 0.402467
vt 0.000125 0.242784
vt 0.122972 0.079570
vt 0.245655 0.038289
vt 0.938030 0.133427
vt 0.611917 0.001649
vt 0.489902 0.006032
vt 0.611917 0.408964
vt 0.489902 0.404581
vt 0.367890 0.394602
vt 0.367890 0.016011
f 1/1/1 2/2/2 3/3/3
f 1/1/1 3/3/3 4/4/4
f 1/1/1 4/4/4 5/5/5
f 1/1/1 5/5/5 6/6/6
f 1/1/1 6/6/6 7/7/7
f 1/1/1 7/7/7 8/8/8
f 1/1/1 8/8/8 9/9/9
f 1/1/1 9/9/9 2/2/2
f 10/10/10 11/11/11 12/12/12
f 10/10/10 12/12/12 13/13/13
f 10/10/10 13/13/13 3/3/3
f 10/10/10 3/3/3 2/2/2
f 10/10/10 2/2/2 9/9/9
f 10/10/10 9/9/9 14/14/14
f 10/10/10 14/14/14 15/15/15
f 10/10/10 15/15/15 11/11/11
f 16/16/16 17/17/17 18/18/18
f 16/16/16 18/18/18 19/19/19
f 16/16/16 19/19/19 20/20/20
f 16/16/16 20/20/20 21/21/21
f 16/16/16 21/21/21 22/22/22
f 16/16/16 22/22/22 23/23/23
f 16/16/16 23/23/23 24/24/24
f 16/16/16 24/24/24 17/17/17
f 25/25/25 21/21/21 20/20/20
f 25/25/25 20/20/20 26/26/26
f 25/25/25 26/26/26 27/27/27
f 25/25/25 27/27/27 28/28/28
f 25/25/25 28/28/28 29/29/29
f 25/25/25 29/29/29 30/30/30
f 25/25/25 30/30/30 22/22/22
f 25/25/25 22/22/22 21/21/21
f 31/31/31 32/32/32 22/22/22
f 31/31/31 22/22/22 30/30/30
f 31/31/31 30/30/30 29/29/29
f 31/31/31 29/29/29 33/33/33
f 31/31/31 33/33/33 5/5/5
f 31/31/31 5/5/5 4/4/4
f 31/31/31 4/4/4 3/3/3
f 31/31/31 3/3/3 32/32/32
f 34/34/34 35/35/35 24/24/24
f 34/34/34 24/24/24 23/23/23
f 34/34/34 23/23/23 22/22/22
f 34/34/34 22/22/22 32/32/32
f 34/34/34 32/32/32 3/3/3
f 34/34/34 3/3/3 13/13/13
f 34/34/34 13/13/13 12/12/12
f 34/34/34 12/12/12 35/35/35
f 36/36/36 37/37/37 38/38/38
f 36/36/36 38/38/38 39/39/39
f 36/36/36 39/39/39 40/40/40
f 36/36/36 40/40/40 41/41/41
f 36/36/36 41/41/41 20/20/20
f 36/36/36 20/20/20 19/19/19
f 36/36/36 19/19/19 18/18/18
f 36/36/36 18/18/18 37/37/37
f 42/42/42 41/41/41 40/40/40
f 42/42/42 40/40/40 43/43/43
f 42/42/42 43/43/43 44/44/44
f 42/42/42 44/44/44 45/45/45
f 42/42/42 45/45/45 27/27/27
f 42/42/42 27/27/27 26/26/26
f 42/42/42 26/26/26 20/20/20
f 42/42/42 20/20/20 41/41/41
f 46/46/46 47/47/47 48/48/48
f 46/46/46 48/48/48 49/49/49
f 46/46/46 49/49/49 50/50/50
f 46/46/46 50/50/50 51/51/51
f 46/46/46 51/51/51 52/52/52
f 46/46/46 52/52/52 53/53/53
f 46/46/46 53/53/53 54/54/54
f 46/46/46 54/54/54 47/47/47
f 55/55/55 56/56/56 57/57/57
f 55/55/55 57/57/57 58/58/58
f 55/55/55 58/58/58 48/48/48
f 55/55/55 48/48/48 47/47/47
f 55/55/55 47/47/47 54/54/54
f 55/55/55 54/54/54 59/59/59
f 55/55/55 59/59/59 60/60/60
f 55/55/55 60/60/60 56/56/56
f 61/61/61 62/62/62 63/63/63
f 61/61/61 63/63/63 64/64/64
f 61/61/61 64/64/64 65/65/65
f 61/61/61 65/65/65 66/66/66
f 61/61/61 66/66/66 67/67/67
f 61/61/61 67/67/67 68/68/68
f 61/61/61 68/68/68 69/69/69
f 61/61/61 69/69/69 62/62/62
f 70/70/70 66/66/66 65/65/65
f 70/70/70 65/65/65 71/71/71
f 70/70/70 71/71/71 72/72/72
f 70/70/70 72/72/72 73/73/73
f 70/70/70 73/73/73 74/74/74
f 70/70/70 74/74/74 75/75/75
f 70/70/70 75/75/75 67/67/67
f 70/70/70 67/67/67 66/66/66
f 76/76/76 77/77/77 54/54/54
f 76/76/76 54/54/54 53/53/53
f 76/76/76 53/53/53 52/52/52
f 76/76/76 52/52/52 78/78/78
f 76/76/76 78/78/78 72/72/72
f 76/76/76 72/72/72 71/71/71
f 76/76/76 71/71/71 65/65/65
f 76/76/76 65/65/65 77/77/77
f 79/79/79 80/80/80 60/60/60
f 79/79/79 60/60/60 59/59/59
f 79/79/79 59/59/59 54/54/54
f 79/79/79 54/54/54 77/77/77
f 79/79/79 77/77/77 65/65/65
f 79/79/79 65/65/65 64/64/64
f 79/79/79 64/64/64 63/63/63
f 79/79/79 63/63/63 80/80/80
f 81/81/81 82/82/82 69/69/69
f 81/81/81 69/69/69 68/68/68
f 81/81/81 68/68/68 67/67/67
f 81/81/81 67/67/67 83/83/83
f 81/81/81 83/83/83 84/84/84
f 81/81/81 84/84/84 85/85/85
f 81/81/81 85/85/85 86/86/86
f 81/81/81 86/86/86 82/82/82
f 87/87/87 83/83/83 67/67/67
f 87/87/87 67/67/67 75/75/75
f 87/87/87 75/75/75 74/74/74
f 87/87/87 74/74/74 88/88/88
f 87/87/87 88/88/88 89/89/89
f 87/87/87 89/89/89 90/90/90
f 87/87/87 90/90/90 84/84/84
f 87/87/87 84/84/84 83/83/83
f 91/91/91 92/92/92 38/38/38
f 91/91/91 38/38/38 37/37/37
f 91/91/91 37/37/37 18/18/18
f 91/91/91 18/18/18 93/93/93
f 91/91/91 93/93/93 69/69/69
f 91/91/91 69/69/69 82/82/82
f 91/91/91 82/82/82 94/94/94
f 91/91/91 94/94/94 92/92/92
f 95/95/95 96/96/96 44/44/44
f 95/95/95 44/44/44 43/43/43
f 95/95/95 43/43/43 40/40/40
f 95/95/95 40/40/40 97/97/97
f 95/95/95 97/97/97 84/84/84
f 95/95/95 84/84/84 90/90/90
f 95/95/95 90/90/90 98/98/98
f 95/95/95 98/98/98 96/96/96
f 99/99/99 100/100/100 7/7/7
f 99/99/99 7/7/7 6/6/6
f 99/99/99 6/6/6 5/5/5
f 99/99/99 5/5/5 101/101/101
f 99/99/99 101/101/101 52/52/52
f 99/99/99 52/52/52 51/51/51
f 99/99/99 51/51/51 102/102/102
f 99/99/99 102/102/102 100/100/100
f 103/103/103 104/104/104 15/15/15
f 103/103/103 15/15/15 14/14/14
f 103/103/103 14/14/14 9/9/9
f 103/103/103 9/9/9 105/105/105
f 103/103/103 105/105/105 48/48/48
f 103/103/103 48/48/48 58/58/58
f 103/103/103 58/58/58 106/106/106
f 103/103/103 106/106/106 104/104/104
f 107/107/107 108/108/108 12/12/12
f 107/107/107 12/12/12 11/11/11
f 107/107/107 11/11/11 15/15/15
f 107/107/107 15/15/15 104/104/104
f 107/107/107 104/104/104 106/106/106
f 107/107/107 106/106/106 56/56/56
f 107/107/107 56/56/56 60/60/60
f 107/107/107 60/60/60 108/108/108
f 109/109/109 97/97/97 40/40/40
f 109/109/109 40/40/40 39/39/39
f 109/109/109 39/39/39 38/38/38
f 109/109/109 38/38/38 92/92/92
f 109/109/109 92/92/92 94/94/94
f 109/109/109 94/94/94 85/85/85
f 109/109/109 85/85/85 84/84/84
f 109/109/109 84/84/84 97/97/97
f 110/110/110 111/111/111 27/27/27
f 110/110/110 27/27/27 45/45/45
f 110/110/110 45/45/45 44/44/44
f 110/110/110 44/44/44 96/96/96
f 110/110/110 96/96/96 98/98/98
f 110/110/110 98/98/98 88/88/88
f 110/110/110 88/88/88 74/74/74
f 110/110/110 74/74/74 111/111/111
f 112/112/112 105/105/105 9/9/9
f 112/112/112 9/9/9 8/8/8
f 112/112/112 8/8/8 7/7/7
f 112/112/112 7/7/7 100/100/100
f 112/112/112 100/100/100 102/102/102
f 112/112/112 102/102/102 49/49/49
f 112/112/112 49/49/49 48/48/48
f 112/112/112 48/48/48 105/105/105
f 113/113/113 101/101/101 5/5/5
f 113/113/113 5/5/5 33/33/33
f 113/113/113 33/33/33 29/29/29
f 113/113/113 29/29/29 114/114/114
f 113/113/113 114/114/114 72/72/72
f 113/113/113 72/72/72 78/78/78
f 113/113/113 78/78/78 52/52/52
f 113/113/113 52/52/52 101/101/101
f 115/115/115 116/116/116 24/24/24
f 115/115/115 24/24/24 35/35/35
f 115/115/115 35/35/35 12/12/12
f 115/115/115 12/12/12 108/108/108
f 115/115/115 108/108/108 60/60/60
f 115/115/115 60/60/60 80/80/80
f 115/115/115 80/80/80 63/63/63
f 115/115/115 63/63/63 116/116/116
f 117/117/117 93/93/93 18/18/18
f 117/117/117 18/18/18 17/17/17
f 117/117/117 17/17/17 24/24/24
f 117/117/117 24/24/24 116/116/116
f 117/117/117 116/116/116 63/63/63
f 117/117/117 63/63/63 62/62/62
f 117/117/117 62/62/62 69/69/69
f 117/117/117 69/69/69 93/93/93
f 118/118/118 114/114/114 29/29/29
f 118/118/118 29/29/29 28/28/28
f 118/118/118 28/28/28 27/27/27
f 118/118/118 27/27/27 111/111/111
f 118/118/118 111/111/111 74/74/74
f 118/118/118 74/74/74 73/73/73
f 118/118/118 73/73/73 72/72/72
f 118/118/118 72/72/72 114/114/114
