v -2.42681 0.665291 -1.073577
v -2.425468 0.664738 -1.071221
v -2.422822 0.664221 -1.07373
v -2.42465 0.66483 -1.076128
v -2.425863 0.665525 -1.07806
v -2.427476 0.665924 -1.075649
v -2.428197 0.66584 -1.073769
v -2.428294 0.665465 -1.071691
v -2.427427 0.664991 -1.069378
v -2.423184 0.664857 -1.069664
v -2.421117 0.665163 -1.068786
v -2.418639 0.664661 -1.070264
v -2.42053 0.664337 -1.071681
v -2.425156 0.665089 -1.068303
v -2.423048 0.665224 -1.068211
v -2.412733 0.660753 -1.079386
v -2.411094 0.660831 -1.07783
v -2.409047 0.659076 -1.080746
v -2.410505 0.658992 -1.082117
v -2.412376 0.659021 -1.083985
v -2.41484 0.660799 -1.081505
v -2.417391 0.662323 -1.078972
v -2.415179 0.6623 -1.07676
v -2.413451 0.662422 -1.07514
v -2.41677 0.661236 -1.083744
v -2.414076 0.65942 -1.08597
v -2.415304 0.659825 -1.0875
v -2.418168 0.661678 -1.085466
v -2.420852 0.663308 -1.083128
v -2.419403 0.662806 -1.081319
v -2.422106 0.664003 -1.078744
v -2.420091 0.66344 -1.076347
v -2.423536 0.664622 -1.080606
v -2.41782 0.66349 -1.074119
v -2.416025 0.663723 -1.0725
v -2.408523 0.657165 -1.08507
v -2.407406 0.657283 -1.084065
v -2.406797 0.6562 -1.08615
v -2.407139 0.655737 -1.087358
v -2.408136 0.655667 -1.088285
v -2.40994 0.657144 -1.08645
v -2.411188 0.657484 -1.087947
v -2.408965 0.655956 -1.089328
v -2.410083 0.656593 -1.089696
v -2.412079 0.657843 -1.089108
v -2.42689 0.665013 -1.073588
v -2.425521 0.664454 -1.071203
v -2.427464 0.664778 -1.069367
v -2.428352 0.665256 -1.071704
v -2.428247 0.665688 -1.073784
v -2.427549 0.66572 -1.075672
v -2.425939 0.665322 -1.078073
v -2.424736 0.664554 -1.076128
v -2.422883 0.663939 -1.073705
v -2.42321 0.664573 -1.069616
v -2.421123 0.664951 -1.068735
v -2.423054 0.665066 -1.068179
v -2.42517 0.664876 -1.068269
v -2.420567 0.664055 -1.071628
v -2.418655 0.66445 -1.070212
v -2.412814 0.660486 -1.079305
v -2.411146 0.660631 -1.07776
v -2.413494 0.662218 -1.075077
v -2.415249 0.662028 -1.076689
v -2.41748 0.662051 -1.07892
v -2.414939 0.660533 -1.081442
v -2.412483 0.65876 -1.083915
v -2.410594 0.65873 -1.082028
v -2.409105 0.658879 -1.08067
v -2.416887 0.660973 -1.083701
v -2.419509 0.662538 -1.081287
v -2.42094 0.663109 -1.083114
v -2.418264 0.661483 -1.085443
v -2.415406 0.659633 -1.087471
v -2.4142 0.659161 -1.085919
v -2.422201 0.66373 -1.078729
v -2.420165 0.663162 -1.076309
v -2.423618 0.66442 -1.080606
v -2.417873 0.663212 -1.074058
v -2.416055 0.663515 -1.072443
v -2.408614 0.656905 -1.084978
v -2.407464 0.657088 -1.083986
v -2.410049 0.656885 -1.086377
v -2.408219 0.655473 -1.08823
v -2.407207 0.655542 -1.087287
v -2.406843 0.656056 -1.086093
v -2.411316 0.657228 -1.087894
v -2.412184 0.657653 -1.089079
v -2.410158 0.656452 -1.089671
v -2.409062 0.655764 -1.08929
v -2.407057 0.657236 -1.083692
v -2.406321 0.655823 -1.086627
v -2.408584 0.659016 -1.080254
v -2.406843 0.656056 -1.086093
v -2.408267 0.655362 -1.089772
v -2.409612 0.656217 -1.090179
v -2.407572 0.655088 -1.088872
v -2.410158 0.656452 -1.089671
v -2.427733 0.666046 -1.076353
v -2.428513 0.665943 -1.07389
v -2.426303 0.665667 -1.078713
v -2.428247 0.665688 -1.073784
v -2.425818 0.665071 -1.067835
v -2.422942 0.665277 -1.067878
v -2.428096 0.664981 -1.068759
v -2.423054 0.665066 -1.068179
v -2.420428 0.665171 -1.068467
v -2.418014 0.664675 -1.069766
v -2.406708 0.655175 -1.088088
v -2.412424 0.657878 -1.089485
v -2.415761 0.659875 -1.087999
v -2.428814 0.66543 -1.071069
v -2.424051 0.664739 -1.081229
v -2.421376 0.663388 -1.083727
v -2.415438 0.663708 -1.071933
v -2.412892 0.662372 -1.07457
v -2.410568 0.660768 -1.077278
v -2.418679 0.661739 -1.086032
vn 0.303 0.9454 0.1202
vn 0.1447 0.9892 -0.0244
vn 0.1877 0.98 -0.0652
vn 0.331 0.9416 0.0624
vn 0.3427 0.9386 0.0385
vn 0.2983 0.9476 0.1141
vn 0.2647 0.9498 0.1666
vn 0.2101 0.9654 0.1543
vn 0.0768 0.9962 0.0394
vn 0.0096 0.9805 -0.1963
vn 0.0156 0.9814 -0.191
vn 0.0931 0.9685 -0.2308
vn 0.0688 0.9729 -0.2206
vn -0.0294 0.9941 -0.1043
vn -0.0389 0.9861 -0.1611
vn 0.2846 0.9065 -0.3118
vn 0.3162 0.903 -0.291
vn 0.3387 0.8885 -0.3094
vn 0.3 0.8918 -0.3385
vn 0.3879 0.8838 -0.2614
vn 0.3609 0.9026 -0.2343
vn 0.3048 0.9355 -0.1786
vn 0.2252 0.9357 -0.2716
vn 0.256 0.93 -0.2638
vn 0.4319 0.8889 -0.1529
vn 0.458 0.8729 -0.1681
vn 0.4319 0.8774 -0.2088
vn 0.4134 0.8913 -0.186
vn 0.3845 0.9146 -0.1251
vn 0.3904 0.9159 -0.0933
vn 0.3525 0.9357 -0.0126
vn 0.2402 0.9638 -0.1157
vn 0.36 0.9319 -0.0428
vn 0.1442 0.9606 -0.2373
vn 0.1743 0.9542 -0.2432
vn 0.2904 0.8844 -0.3653
vn 0.3349 0.8798 -0.3374
vn 0.3224 0.8712 -0.3703
vn 0.3091 0.8554 -0.4155
vn 0.4346 0.8459 -0.3089
vn 0.4004 0.8744 -0.274
vn 0.483 0.8614 -0.1575
vn 0.531 0.8289 -0.176
vn 0.4891 0.8512 -0.1906
vn 0.4584 0.865 -0.2041
vn -0.3373 -0.9331 -0.1243
vn -0.1566 -0.987 0.0356
vn -0.2021 -0.9762 0.079
vn -0.4356 -0.8894 -0.1386
vn -0.5207 -0.8294 -0.2022
vn -0.5005 -0.8441 -0.1921
vn -0.4619 -0.8755 -0.1416
vn -0.3417 -0.937 -0.0725
vn -0.1876 -0.9801 0.0651
vn -0.0071 -0.9727 0.232
vn 0.0563 -0.9108 0.4089
vn 0.0663 -0.8998 0.4313
vn 0.0038 -0.942 0.3355
vn -0.0591 -0.9708 0.2324
vn 0.0061 -0.9315 0.3635
vn -0.2722 -0.9066 0.3224
vn -0.1835 -0.9013 0.3923
vn -0.1401 -0.9203 0.3653
vn -0.2142 -0.9352 0.282
vn -0.3049 -0.9355 0.1787
vn -0.361 -0.9026 0.2344
vn -0.388 -0.8838 0.2615
vn -0.2842 -0.8928 0.3494
vn -0.1663 -0.8968 0.4099
vn -0.4413 -0.8864 0.1398
vn -0.3996 -0.913 0.0818
vn -0.4745 -0.8802 0.0045
vn -0.5027 -0.8631 0.0478
vn -0.5183 -0.8547 0.03
vn -0.4676 -0.8708 0.1516
vn -0.3618 -0.9322 0.0018
vn -0.2402 -0.9638 0.1157
vn -0.4547 -0.8879 -0.0691
vn -0.134 -0.9595 0.2477
vn -0.0664 -0.9344 0.35
vn -0.2591 -0.8921 0.3702
vn -0.1023 -0.9009 0.4217
vn -0.3928 -0.8802 0.2663
vn -0.359 -0.9039 0.2323
vn -0.1592 -0.9141 0.3728
vn -0.0601 -0.9038 0.4237
vn -0.486 -0.8649 0.1253
vn -0.5251 -0.8503 -0.0346
vn -0.5239 -0.8482 -0.077
vn -0.4828 -0.8754 0.0235
vn 0.9242 -0.0642 0.3764
vn 0.9839 -0.1781 -0.0161
vn 0.8565 -0.0366 0.5148
vn -0.0601 -0.9038 0.4237
vn 0.4598 -0.3983 -0.7937
vn 0.0773 -0.0696 -0.9946
vn 0.5714 -0.5674 -0.5929
vn -0.5239 -0.8482 -0.077
vn -0.773 0.445 -0.4521
vn -0.8823 0.4468 -0.1481
vn -0.6781 0.38 -0.6291
vn -0.5207 -0.8294 -0.2022
vn -0.2791 0.1516 0.9482
vn 0.1231 0.3263 0.9372
vn -0.7295 0.0537 0.6818
vn 0.0663 -0.8998 0.4313
vn 0.4331 0.3006 0.8497
vn 0.609 0.226 0.7603
vn 0.7798 -0.4368 -0.4483
vn -0.3039 0.0827 -0.9491
vn -0.4435 0.1191 -0.8883
vn -0.9455 0.2315 0.2289
vn -0.6093 0.3013 -0.7335
vn -0.5724 0.2405 -0.7839
vn 0.7095 0.1435 0.6899
vn 0.7559 0.0815 0.6495
vn 0.7959 0.0194 0.6051
vn -0.532 0.1785 -0.8277
vt 0.839504 0.118056
vt 0.856743 0.205307
vt 0.741230 0.205307
vt 0.734555 0.106726
vt 0.724541 0.032791
vt 0.813647 0.052618
vt 0.868992 0.081539
vt 0.913398 0.129584
vt 0.940923 0.205307
vt 0.839504 0.292557
vt 0.813647 0.357995
vt 0.724541 0.377822
vt 0.734555 0.303887
vt 0.913398 0.281029
vt 0.868992 0.329074
vt 0.369475 0.299954
vt 0.368286 0.370940
vt 0.245840 0.351447
vt 0.246397 0.288815
vt 0.246768 0.205307
vt 0.370268 0.205307
vt 0.494283 0.205307
vt 0.492822 0.304944
vt 0.490632 0.379672
vt 0.369475 0.110659
vt 0.246397 0.121798
vt 0.245841 0.059166
vt 0.368286 0.039673
vt 0.490632 0.030941
vt 0.492822 0.105669
vt 0.616755 0.103478
vt 0.619174 0.205307
vt 0.613127 0.027106
vt 0.616755 0.307135
vt 0.613126 0.383507
vt 0.123273 0.268175
vt 0.123047 0.315326
vt 0.054743 0.283353
vt 0.030912 0.249131
vt 0.030973 0.205306
vt 0.123423 0.205306
vt 0.123273 0.142438
vt 0.030912 0.161481
vt 0.054744 0.127260
vt 0.123047 0.095287
vt 0.839504 0.118056
vt 0.856743 0.205307
vt 0.968983 0.205307
vt 0.938030 0.133427
vt 0.876123 0.061548
vt 0.805028 0.030806
vt 0.721203 0.008146
vt 0.734555 0.106726
vt 0.741230 0.205307
vt 0.839504 0.292557
vt 0.805028 0.379807
vt 0.876123 0.349065
vt 0.938030 0.277186
vt 0.734555 0.303887
vt 0.721203 0.402467
vt 0.369475 0.299954
vt 0.367890 0.394602
vt 0.489902 0.404581
vt 0.492822 0.304944
vt 0.494283 0.205307
vt 0.370268 0.205307
vt 0.246768 0.205307
vt 0.246397 0.288815
vt 0.245655 0.372324
vt 0.369475 0.110659
vt 0.492822 0.105669
vt 0.489902 0.006032
vt 0.367890 0.016011
vt 0.245655 0.038289
vt 0.246397 0.121798
vt 0.616755 0.103478
vt 0.619174 0.205307
vt 0.611917 0.001649
vt 0.616755 0.307135
vt 0.611917 0.408964
vt 0.123273 0.268175
vt 0.122972 0.331043
vt 0.123423 0.205306
vt 0.000156 0.205306
vt 0.000125 0.242784
vt 0.000064 0.280261
vt 0.123273 0.142438
vt 0.122972 0.079570
vt 0.000064 0.130352
vt 0.000125 0.167829
vt 0.122972 0.331043
vt 0.030806 0.283587
vt 0.245655 0.372324
vt 0.030806 0.283587
vt 0.000125 0.167829
vt 0.030806 0.127026
vt 0.000156 0.205306
vt 0.030806 0.127026
vt 0.805028 0.030806
vt 0.873826 0.071832
vt 0.721203 0.008146
vt 0.873826 0.071832
vt 0.938030 0.277186
vt 0.873826 0.338781
vt 0.968983 0.205307
vt 0.873826 0.338781
vt 0.805028 0.379807
vt 0.721203 0.402467
vt 0.000125 0.242784
vt 0.122972 0.079570
vt 0.245655 0.038289
vt 0.938030 0.133427
vt 0.611917 0.001649
vt 0.489902 0.006032
vt 0.611917 0.408964
vt 0.489902 0.404581
vt 0.367890 0.394602
vt 0.367890 0.016011
f 1/1/1 2/2/2 3/3/3
f 1/1/1 3/3/3 4/4/4
f 1/1/1 4/4/4 5/5/5
f 1/1/1 5/5/5 6/6/6
f 1/1/1 6/6/6 7/7/7
f 1/1/1 7/7/7 8/8/8
f 1/1/1 8/8/8 9/9/9
f 1/1/1 9/9/9 2/2/2
f 10/10/10 11/11/11 12/12/12
f 10/10/10 12/12/12 13/13/13
f 10/10/10 13/13/13 3/3/3
f 10/10/10 3/3/3 2/2/2
f 10/10/10 2/2/2 9/9/9
f 10/10/10 9/9/9 14/14/14
f 10/10/10 14/14/14 15/15/15
f 10/10/10 15/15/15 11/11/11
f 16/16/16 17/17/17 18/18/18
f 16/16/16 18/18/18 19/19/19
f 16/16/16 19/19/19 20/20/20
f 16/16/16 20/20/20 21/21/21
f 16/16/16 21/21/21 22/22/22
f 16/16/16 22/22/22 23/23/23
f 16/16/16 23/23/23 24/24/24
f 16/16/16 24/24/24 17/17/17
f 25/25/25 21/21/21 20/20/20
f 25/25/25 20/20/20 26/26/26
f 25/25/25 26/26/26 27/27/27
f 25/25/25 27/27/27 28/28/28
f 25/25/25 28/28/28 29/29/29
f 25/25/25 29/29/29 30/30/30
f 25/25/25 30/30/30 22/22/22
f 25/25/25 22/22/22 21/21/21
f 31/31/31 32/32/32 22/22/22
f 31/31/31 22/22/22 30/30/30
f 31/31/31 30/30/30 29/29/29
f 31/31/31 29/29/29 33/33/33
f 31/31/31 33/33/33 5/5/5
f 31/31/31 5/5/5 4/4/4
f 31/31/31 4/4/4 3/3/3
f 31/31/31 3/3/3 32/32/32
f 34/34/34 35/35/35 24/24/24
f 34/34/34 24/24/24 23/23/23
f 34/34/34 23/23/23 22/22/22
f 34/34/34 22/22/22 32/32/32
f 34/34/34 32/32/32 3/3/3
f 34/34/34 3/3/3 13/13/13
f 34/34/34 13/13/13 12/12/12
f 34/34/34 12/12/12 35/35/35
f 36/36/36 37/37/37 38/38/38
f 36/36/36 38/38/38 39/39/39
f 36/36/36 39/39/39 40/40/40
f 36/36/36 40/40/40 41/41/41
f 36/36/36 41/41/41 20/20/20
f 36/36/36 20/20/20 19/19/19
f 36/36/36 19/19/19 18/18/18
f 36/36/36 18/18/18 37/37/37
f 42/42/42 41/41/41 40/40/40
f 42/42/42 40/40/40 43/43/43
f 42/42/42 43/43/43 44/44/44
f 42/42/42 44/44/44 45/45/45
f 42/42/42 45/45/45 27/27/27
f 42/42/42 27/27/27 26/26/26
f 42/42/42 26/26/26 20/20/20
f 42/42/42 20/20/20 41/41/41
f 46/46/46 47/47/47 48/48/48
f 46/46/46 48/48/48 49/49/49
f 46/46/46 49/49/49 50/50/50
f 46/46/46 50/50/50 51/51/51
f 46/46/46 51/51/51 52/52/52
f 46/46/46 52/52/52 53/53/53
f 46/46/46 53/53/53 54/54/54
f 46/46/46 54/54/54 47/47/47
f 55/55/55 56/56/56 57/57/57
f 55/55/55 57/57/57 58/58/58
f 55/55/55 58/58/58 48/48/48
f 55/55/55 48/48/48 47/47/47
f 55/55/55 47/47/47 54/54/54
f 55/55/55 54/54/54 59/59/59
f 55/55/55 59/59/59 60/60/60
f 55/55/55 60/60/60 56/56/56
f 61/61/61 62/62/62 63/63/63
f 61/61/61 63/63/63 64/64/64
f 61/61/61 64/64/64 65/65/65
f 61/61/61 65/65/65 66/66/66
f 61/61/61 66/66/66 67/67/67
f 61/61/61 67/67/67 68/68/68
f 61/61/61 68/68/68 69/69/69
f 61/61/61 69/69/69 62/62/62
f 70/70/70 66/66/66 65/65/65
f 70/70/70 65/65/65 71/71/71
f 70/70/70 71/71/71 72/72/72
f 70/70/70 72/72/72 73/73/73
f 70/70/70 73/73/73 74/74/74
f 70/70/70 74/74/74 75/75/75
f 70/70/70 75/75/75 67/67/67
f 70/70/70 67/67/67 66/66/66
f 76/76/76 77/77/77 54/54/54
f 76/76/76 54/54/54 53/53/53
f 76/76/76 53/53/53 52/52/52
f 76/76/76 52/52/52 78/78/78
f 76/76/76 78/78/78 72/72/72
f 76/76/76 72/72/72 71/71/71
f 76/76/76 71/71/71 65/65/65
f 76/76/76 65/65/65 77/77/77
f 79/79/79 80/80/80 60/60/60
f 79/79/79 60/60/60 59/59/59
f 79/79/79 59/59/59 54/54/54
f 79/79/79 54/54/54 77/77/77
f 79/79/79 77/77/77 65/65/65
f 79/79/79 65/65/65 64/64/64
f 79/79/79 64/64/64 63/63/63
f 79/79/79 63/63/63 80/80/80
f 81/81/81 82/82/82 69/69/69
f 81/81/81 69/69/69 68/68/68
f 81/81/81 68/68/68 67/67/67
f 81/81/81 67/67/67 83/83/83
f 81/81/81 83/83/83 84/84/84
f 81/81/81 84/84/84 85/85/85
f 81/81/81 85/85/85 86/86/86
f 81/81/81 86/86/86 82/82/82
f 87/87/87 83/83/83 67/67/67
f 87/87/87 67/67/67 75/75/75
f 87/87/87 75/75/75 74/74/74
f 87/87/87 74/74/74 88/88/88
f 87/87/87 88/88/88 89/89/89
f 87/87/87 89/89/89 90/90/90
f 87/87/87 90/90/90 84/84/84
f 87/87/87 84/84/84 83/83/83
f 91/91/91 92/92/92 38/38/38
f 91/91/91 38/38/38 37/37/37
f 91/91/91 37/37/37 18/18/18
f 91/91/91 18/18/18 93/93/93
f 91/91/91 93/93/93 69/69/69
f 91/91/91 69/69/69 82/82/82
f 91/91/91 82/82/82 94/94/94
f 91/91/91 94/94/94 92/92/92
f 95/95/95 96/96/96 44/44/44
f 95/95/95 44/44/44 43/43/43
f 95/95/95 43/43/43 40/40/40
f 95/95/95 40/40/40 97/97/97
f 95/95/95 97/97/97 84/84/84
f 95/95/95 84/84/84 90/90/90
f 95/95/95 90/90/90 98/98/98
f 95/95/95 98/98/98 96/96/96
f 99/99/99 100/100/100 7/7/7
f 99/99/99 7/7/7 6/6/6
f 99/99/99 6/6/6 5/5/5
f 99/99/99 5/5/5 101/101/101
f 99/99/99 101/101/101 52/52/52
f 99/99/99 52/52/52 51/51/51
f 99/99/99 51/51/51 102/102/102
f 99/99/99 102/102/102 100/100/100
f 103/103/103 104/104/104 15/15/15
f 103/103/103 15/15/15 14/14/14
f 103/103/103 14/14/14 9/9/9
f 103/103/103 9/9/9 105/105/105
f 103/103/103 105/105/105 48/48/48
f 103/103/103 48/48/48 58/58/58
f 103/103/103 58/58/58 106/106/106
f 103/103/103 106/106/106 104/104/104
f 107/107/107 108/108/108 12/12/12
f 107/107/107 12/12/12 11/11/11
f 107/107/107 11/11/11 15/15/15
f 107/107/107 15/15/15 104/104/104
f 107/107/107 104/104/104 106/106/106
f 107/107/107 106/106/106 56/56/56
f 107/107/107 56/56/56 60/60/60
f 107/107/107 60/60/60 108/108/108
f 109/109/109 97/97/97 40/40/40
f 109/109/109 40/40/40 39/39/39
f 109/109/109 39/39/39 38/38/38
f 109/109/109 38/38/38 92/92/92
f 109/109/109 92/92/92 94/94/94
f 109/109/109 94/94/94 85/85/85
f 109/109/109 85/85/85 84/84/84
f 109/109/109 84/84/84 97/97/97
f 110/110/110 111/111/111 27/27/27
f 110/110/110 27/27/27 45/45/45
f 110/110/110 45/45/45 44/44/44
f 110/110/110 44/44/44 96/96/96
f 110/110/110 96/96/96 98/98/98
f 110/110/110 98/98/98 88/88/88
f 110/110/110 88/88/88 74/74/74
f 110/110/110 74/74/74 111/111/111
f 112/112/112 105/105/105 9/9/9
f 112/112/112 9/9/9 8/8/8
f 112/112/112 8/8/8 7/7/7
f 112/112/112 7/7/7 100/100/100
f 112/112/112 100/100/100 102/102/102
f 112/112/112 102/102/102 49/49/49
f 112/112/112 49/49/49 48/48/48
f 112/112/112 48/48/48 105/105/105
f 113/113/113 101/101/101 5/5/5
f 113/113/113 5/5/5 33/33/33
f 113/113/113 33/33/33 29/29/29
f 113/113/113 29/29/29 114/114/114
f 113/113/113 114/114/114 72/72/72
f 113/113/113 72/72/72 78/78/78
f 113/113/113 78/78/78 52/52/52
f 113/113/113 52/52/52 101/101/101
f 115/115/115 116/116/116 24/24/24
f 115/115/115 24/24/24 35/35/35
f 115/115/115 35/35/35 12/12/12
f 115/115/115 12/12/12 108/108/108
f 115/115/115 108/108/108 60/60/60
f 115/115/115 60/60/60 80/80/80
f 115/115/115 80/80/80 63/63/63
f 115/115/115 63/63/63 116/116/116
f 117/117/117 93/93/93 18/18/18
f 117/117/117 18/18/18 17/17/17
f 117/117/117 17/17/17 24/24/24
f 117/117/117 24/24/24 116/116/116
f 117/117/117 116/116/116 63/63/63
f 117/117/117 63/63/63 62/62/62
f 117/117/117 62/62/62 69/69/69
f 117/117/117 69/69/69 93/93/93
f 118/118/118 114/114/114 29/29/29
f 118/118/118 29/29/29 28/28/28
f 118/118/118 28/28/28 27/27/27
f 118/118/118 27/27/27 111/111/111
f 118/118/118 111/111/111 74/74/74
f 118/118/118 74/74/74 73/73/73
f 118/118/118 73/73/73 72/72/72
f 118/118/118 72/72/72 114/114/114
