v -2.394863 0.785731 -1.208959
v -2.392941 0.786151 -1.210037
v -2.394214 0.784129 -1.211829
v -2.396222 0.783829 -1.21038
v -2.397915 0.783663 -1.209461
v -2.396584 0.785346 -1.208443
v -2.395333 0.786291 -1.207983
v -2.393775 0.787006 -1.20796
v -2.39195 0.787558 -1.208682
v -2.391793 0.786441 -1.211942
v -2.3912 0.786592 -1.213675
v -2.391798 0.785079 -1.215404
v -2.392733 0.784637 -1.21377
v -2.391118 0.787621 -1.210542
v -2.390973 0.7873 -1.21222
v -2.395767 0.777219 -1.218588
v -2.394645 0.777621 -1.219982
v -2.395676 0.77475 -1.221015
v -2.396658 0.774391 -1.219773
v -2.398054 0.773967 -1.218202
v -2.397354 0.776744 -1.21682
v -2.396512 0.779401 -1.21532
v -2.394865 0.779911 -1.21718
v -2.393714 0.78035 -1.218657
v -2.399186 0.776428 -1.215266
v -2.399682 0.773691 -1.216835
v -2.400975 0.773524 -1.215867
v -2.400636 0.776234 -1.214161
v -2.399981 0.7789 -1.212568
v -2.398442 0.779083 -1.213705
v -2.397434 0.781582 -1.212019
v -2.395434 0.781871 -1.213623
v -2.39906 0.781445 -1.210918
v -2.393806 0.782422 -1.215546
v -2.392701 0.782917 -1.217098
v -2.397687 0.771471 -1.220738
v -2.396988 0.771761 -1.221698
v -2.397861 0.770001 -1.221808
v -2.398488 0.769234 -1.221365
v -2.399147 0.768984 -1.220514
v -2.398701 0.771138 -1.219541
v -2.399943 0.770949 -1.218546
v -2.400034 0.768876 -1.219863
v -2.400643 0.769357 -1.219105
v -2.400945 0.770845 -1.217854
v -2.394752 0.785565 -1.208836
v -2.392805 0.785988 -1.209936
v -2.39185 0.787434 -1.208608
v -2.393695 0.786879 -1.207869
v -2.395278 0.786198 -1.207911
v -2.396513 0.785221 -1.208341
v -2.397837 0.783543 -1.209357
v -2.396104 0.78367 -1.210254
v -2.394074 0.783973 -1.211722
v -2.391635 0.786286 -1.211864
v -2.391071 0.786481 -1.213628
v -2.390881 0.787215 -1.212183
v -2.391 0.787503 -1.210487
v -2.392574 0.784488 -1.213684
v -2.391669 0.784971 -1.21535
v -2.395598 0.777102 -1.218473
v -2.394512 0.777535 -1.219903
v -2.393583 0.780257 -1.218584
v -2.394699 0.779784 -1.217072
v -2.396361 0.779269 -1.215196
v -2.3972 0.776623 -1.21669
v -2.397897 0.773854 -1.218067
v -2.396487 0.774282 -1.219653
v -2.395541 0.774671 -1.220933
v -2.399047 0.776304 -1.215122
v -2.398307 0.778948 -1.213567
v -2.399889 0.778797 -1.212457
v -2.40054 0.77614 -1.214046
v -2.400877 0.773435 -1.215749
v -2.39954 0.773575 -1.216686
v -2.397308 0.781435 -1.211888
v -2.395289 0.781726 -1.213508
v -2.398975 0.781334 -1.210811
v -2.393643 0.782283 -1.215448
v -2.392571 0.782816 -1.217034
v -2.397514 0.771365 -1.220618
v -2.396852 0.771684 -1.221616
v -2.398543 0.771029 -1.219405
v -2.399028 0.768902 -1.220411
v -2.398357 0.769155 -1.221275
v -2.397761 0.769943 -1.221745
v -2.399802 0.770836 -1.218395
v -2.400848 0.770759 -1.217733
v -2.400568 0.769294 -1.219017
v -2.399929 0.768792 -1.219749
v -2.396693 0.771824 -1.221984
v -2.397979 0.769444 -1.222068
v -2.395287 0.774835 -1.221394
v -2.397761 0.769943 -1.221745
v -2.400017 0.768148 -1.220251
v -2.400767 0.768799 -1.21936
v -2.399243 0.76823 -1.220792
v -2.400568 0.769294 -1.219017
v -2.397129 0.785162 -1.208223
v -2.395483 0.78637 -1.207751
v -2.398447 0.783555 -1.209106
v -2.395278 0.786198 -1.207911
v -2.390841 0.787961 -1.210052
v -2.390765 0.787462 -1.212335
v -2.391576 0.787972 -1.208198
v -2.390881 0.787215 -1.212183
v -2.390943 0.786594 -1.214234
v -2.391427 0.785179 -1.215927
v -2.398696 0.768454 -1.221534
v -2.401238 0.770772 -1.217568
v -2.401364 0.773429 -1.21549
v -2.393378 0.787374 -1.207587
v -2.399567 0.78135 -1.210502
v -2.400455 0.778793 -1.212138
v -2.392273 0.783038 -1.217589
v -2.39327 0.780456 -1.219118
v -2.394211 0.777717 -1.220413
v -2.401079 0.776127 -1.21374
vn -0.3984 0.7338 -0.5503
vn -0.5559 0.7296 -0.3983
vn -0.581 0.6886 -0.4339
vn -0.4418 0.6913 -0.5716
vn -0.4592 0.6727 -0.5802
vn -0.4053 0.7333 -0.5459
vn -0.3657 0.773 -0.5184
vn -0.3892 0.7928 -0.469
vn -0.5126 0.7885 -0.3398
vn -0.7049 0.6628 -0.2526
vn -0.7005 0.665 -0.2589
vn -0.7197 0.6124 -0.327
vn -0.7158 0.628 -0.3055
vn -0.6395 0.7348 -0.2258
vn -0.683 0.6995 -0.2102
vn -0.7364 0.4683 -0.4882
vn -0.7145 0.4688 -0.5194
vn -0.7199 0.4412 -0.5358
vn -0.7491 0.4378 -0.4971
vn -0.6734 0.4512 -0.5856
vn -0.6636 0.4882 -0.5667
vn -0.6404 0.5597 -0.5258
vn -0.7243 0.5292 -0.442
vn -0.712 0.521 -0.4708
vn -0.5826 0.5038 -0.6377
vn -0.5841 0.476 -0.6574
vn -0.6225 0.4639 -0.6303
vn -0.613 0.4922 -0.618
vn -0.5778 0.552 -0.6012
vn -0.5517 0.5691 -0.6096
vn -0.499 0.6395 -0.5848
vn -0.6094 0.6339 -0.4762
vn -0.5213 0.6177 -0.5887
vn -0.7165 0.5891 -0.3735
vn -0.7152 0.5728 -0.4003
vn -0.768 0.4196 -0.4838
vn -0.7386 0.4198 -0.5274
vn -0.7621 0.3981 -0.5106
vn -0.792 0.364 -0.4902
vn -0.6878 0.3827 -0.6167
vn -0.6775 0.4335 -0.5941
vn -0.5669 0.4662 -0.6792
vn -0.5603 0.4176 -0.7153
vn -0.588 0.4383 -0.6797
vn -0.6095 0.4497 -0.6529
vn 0.3854 -0.7174 0.5803
vn 0.5629 -0.7186 0.4082
vn 0.589 -0.6741 0.4457
vn 0.341 -0.665 0.6644
vn 0.2481 -0.6306 0.7354
vn 0.2663 -0.6419 0.7191
vn 0.3288 -0.6488 0.6862
vn 0.4301 -0.6906 0.5815
vn 0.5809 -0.6887 0.4339
vn 0.7303 -0.6375 0.2452
vn 0.848 -0.507 0.154
vn 0.8612 -0.4886 0.1398
vn 0.8 -0.5588 0.2185
vn 0.7252 -0.6222 0.2947
vn 0.8176 -0.5356 0.2114
vn 0.7462 -0.4658 0.4755
vn 0.8087 -0.4462 0.3833
vn 0.8005 -0.4873 0.3487
vn 0.7335 -0.526 0.4305
vn 0.6405 -0.5596 0.5259
vn 0.6637 -0.4881 0.5668
vn 0.6734 -0.4511 0.5856
vn 0.76 -0.4367 0.4813
vn 0.8222 -0.4372 0.3643
vn 0.5696 -0.5067 0.6471
vn 0.5398 -0.5708 0.6187
vn 0.4513 -0.5682 0.6881
vn 0.4753 -0.5233 0.7073
vn 0.4546 -0.5223 0.7215
vn 0.5685 -0.481 0.6674
vn 0.4874 -0.6403 0.5937
vn 0.6094 -0.6339 0.4762
vn 0.3963 -0.6203 0.6769
vn 0.7253 -0.5852 0.3625
vn 0.8018 -0.5263 0.2829
vn 0.7789 -0.4311 0.4554
vn 0.8397 -0.4507 0.3028
vn 0.675 -0.4443 0.5889
vn 0.6628 -0.4908 0.5654
vn 0.8017 -0.4734 0.3649
vn 0.8465 -0.463 0.2627
vn 0.5419 -0.486 0.6856
vn 0.398 -0.553 0.7319
vn 0.3619 -0.5752 0.7336
vn 0.4637 -0.5516 0.6933
vn 0.4252 -0.0841 -0.9012
vn 0.168 -0.4075 -0.8976
vn 0.5187 0.0317 -0.8544
vn 0.8465 -0.463 0.2627
vn -0.3983 -0.8753 -0.2741
vn -0.7792 -0.6263 0.023
vn -0.1291 -0.9267 -0.3529
vn 0.3619 -0.5752 0.7336
vn -0.6863 0.303 0.6611
vn -0.4448 0.5018 0.7418
vn -0.7887 0.1288 0.6011
vn 0.2481 -0.6306 0.7354
vn 0.6781 0.7187 0.1535
vn 0.6057 0.7453 -0.2785
vn 0.4739 0.6119 0.6333
vn 0.8612 -0.4886 0.1398
vn 0.5738 0.5953 -0.5624
vn 0.556 0.4406 -0.7048
vn -0.0638 -0.7981 -0.599
vn -0.8577 -0.3806 0.3456
vn -0.8391 -0.2816 0.4654
vn -0.018 0.5577 0.8298
vn -0.8258 -0.0094 0.5638
vn -0.8309 -0.095 0.5483
vn 0.5518 0.3099 -0.7742
vn 0.5566 0.2265 -0.7993
vn 0.5574 0.1422 -0.8179
vn -0.8293 -0.1786 0.5295
vt 0.839504 0.118056
vt 0.856743 0.205307
vt 0.741230 0.205307
vt 0.734555 0.106726
vt 0.724541 0.032791
vt 0.813647 0.052618
vt 0.868992 0.081539
vt 0.913398 0.129584
vt 0.940923 0.205307
vt 0.839504 0.292557
vt 0.813647 0.357995
vt 0.724541 0.377822
vt 0.734555 0.303887
vt 0.913398 0.281029
vt 0.868992 0.329074
vt 0.369475 0.299954
vt 0.368286 0.370940
vt 0.245840 0.351447
vt 0.246397 0.288815
vt 0.246768 0.205307
vt 0.370268 0.205307
vt 0.494283 0.205307
vt 0.492822 0.304944
vt 0.490632 0.379672
vt 0.369475 0.110659
vt 0.246397 0.121798
vt 0.245841 0.059166
vt 0.368286 0.039673
vt 0.490632 0.030941
vt 0.492822 0.105669
vt 0.616755 0.103478
vt 0.619174 0.205307
vt 0.613127 0.027106
vt 0.616755 0.307135
vt 0.613126 0.383507
vt 0.123273 0.268175
vt 0.123047 0.315326
vt 0.054743 0.283353
vt 0.030912 0.249131
vt 0.030973 0.205306
vt 0.123423 0.205306
vt 0.123273 0.142438
vt 0.030912 0.161481
vt 0.054744 0.127260
vt 0.123047 0.095287
vt 0.839504 0.118056
vt 0.856743 0.205307
vt 0.968983 0.205307
vt 0.938030 0.133427
vt 0.876123 0.061548
vt 0.805028 0.030806
vt 0.721203 0.008146
vt 0.734555 0.106726
vt 0.741230 0.205307
vt 0.839504 0.292557
vt 0.805028 0.379807
vt 0.876123 0.349065
vt 0.938030 0.277186
vt 0.734555 0.303887
vt 0.721203 0.402467
vt 0.369475 0.299954
vt 0.367890 0.394602
vt 0.489902 0.404581
vt 0.492822 0.304944
vt 0.494283 0.205307
vt 0.370268 0.205307
vt 0.246768 0.205307
vt 0.246397 0.288815
vt 0.245655 0.372324
vt 0.369475 0.110659
vt 0.492822 0.105669
vt 0.489902 0.006032
vt 0.367890 0.016011
vt 0.245655 0.038289
vt 0.246397 0.121798
vt 0.616755 0.103478
vt 0.619174 0.205307
vt 0.611917 0.001649
vt 0.616755 0.307135
vt 0.611917 0.408964
vt 0.123273 0.268175
vt 0.122972 0.331043
vt 0.123423 0.205306
vt 0.000156 0.205306
vt 0.000125 0.242784
vt 0.000064 0.280261
vt 0.123273 0.142438
vt 0.122972 0.079570
vt 0.000064 0.130352
vt 0.000125 0.167829
vt 0.122972 0.331043
vt 0.030806 0.283587
vt 0.245655 0.372324
vt 0.030806 0.283587
vt 0.000125 0.167829
vt 0.030806 0.127026
vt 0.000156 0.205306
vt 0.030806 0.127026
vt 0.805028 0.030806
vt 0.873826 0.071832
vt 0.721203 0.008146
vt 0.873826 0.071832
vt 0.938030 0.277186
vt 0.873826 0.338781
vt 0.968983 0.205307
vt 0.873826 0.338781
vt 0.805028 0.379807
vt 0.721203 0.402467
vt 0.000125 0.242784
vt 0.122972 0.079570
vt 0.245655 0.038289
vt 0.938030 0.133427
vt 0.611917 0.001649
vt 0.489902 0.006032
vt 0.611917 0.408964
vt 0.489902 0.404581
vt 0.367890 0.394602
vt 0.367890 0.016011
f 1/1/1 2/2/2 3/3/3
f 1/1/1 3/3/3 4/4/4
f 1/1/1 4/4/4 5/5/5
f 1/1/1 5/5/5 6/6/6
f 1/1/1 6/6/6 7/7/7
f 1/1/1 7/7/7 8/8/8
f 1/1/1 8/8/8 9/9/9
f 1/1/1 9/9/9 2/2/2
f 10/10/10 11/11/11 12/12/12
f 10/10/10 12/12/12 13/13/13
f 10/10/10 13/13/13 3/3/3
f 10/10/10 3/3/3 2/2/2
f 10/10/10 2/2/2 9/9/9
f 10/10/10 9/9/9 14/14/14
f 10/10/10 14/14/14 15/15/15
f 10/10/10 15/15/15 11/11/11
f 16/16/16 17/17/17 18/18/18
f 16/16/16 18/18/18 19/19/19
f 16/16/16 19/19/19 20/20/20
f 16/16/16 20/20/20 21/21/21
f 16/16/16 21/21/21 22/22/22
f 16/16/16 22/22/22 23/23/23
f 16/16/16 23/23/23 24/24/24
f 16/16/16 24/24/24 17/17/17
f 25/25/25 21/21/21 20/20/20
f 25/25/25 20/20/20 26/26/26
f 25/25/25 26/26/26 27/27/27
f 25/25/25 27/27/27 28/28/28
f 25/25/25 28/28/28 29/29/29
f 25/25/25 29/29/29 30/30/30
f 25/25/25 30/30/30 22/22/22
f 25/25/25 22/22/22 21/21/21
f 31/31/31 32/32/32 22/22/22
f 31/31/31 22/22/22 30/30/30
f 31/31/31 30/30/30 29/29/29
f 31/31/31 29/29/29 33/33/33
f 31/31/31 33/33/33 5/5/5
f 31/31/31 5/5/5 4/4/4
f 31/31/31 4/4/4 3/3/3
f 31/31/31 3/3/3 32/32/32
f 34/34/34 35/35/35 24/24/24
f 34/34/34 24/24/24 23/23/23
f 34/34/34 23/23/23 22/22/22
f 34/34/34 22/22/22 32/32/32
f 34/34/34 32/32/32 3/3/3
f 34/34/34 3/3/3 13/13/13
f 34/34/34 13/13/13 12/12/12
f 34/34/34 12/12/12 35/35/35
f 36/36/36 37/37/37 38/38/38
f 36/36/36 38/38/38 39/39/39
f 36/36/36 39/39/39 40/40/40
f 36/36/36 40/40/40 41/41/41
f 36/36/36 41/41/41 20/20/20
f 36/36/36 20/20/20 19/19/19
f 36/36/36 19/19/19 18/18/18
f 36/36/36 18/18/18 37/37/37
f 42/42/42 41/41/41 40/40/40
f 42/42/42 40/40/40 43/43/43
f 42/42/42 43/43/43 44/44/44
f 42/42/42 44/44/44 45/45/45
f 42/42/42 45/45/45 27/27/27
f 42/42/42 27/27/27 26/26/26
f 42/42/42 26/26/26 20/20/20
f 42/42/42 20/20/20 41/41/41
f 46/46/46 47/47/47 48/48/48
f 46/46/46 48/48/48 49/49/49
f 46/46/46 49/49/49 50/50/50
f 46/46/46 50/50/50 51/51/51
f 46/46/46 51/51/51 52/52/52
f 46/46/46 52/52/52 53/53/53
f 46/46/46 53/53/53 54/54/54
f 46/46/46 54/54/54 47/47/47
f 55/55/55 56/56/56 57/57/57
f 55/55/55 57/57/57 58/58/58
f 55/55/55 58/58/58 48/48/48
f 55/55/55 48/48/48 47/47/47
f 55/55/55 47/47/47 54/54/54
f 55/55/55 54/54/54 59/59/59
f 55/55/55 59/59/59 60/60/60
f 55/55/55 60/60/60 56/56/56
f 61/61/61 62/62/62 63/63/63
f 61/61/61 63/63/63 64/64/64
f 61/61/61 64/64/64 65/65/65
f 61/61/61 65/65/65 66/66/66
f 61/61/61 66/66/66 67/67/67
f 61/61/61 67/67/67 68/68/68
f 61/61/61 68/68/68 69/69/69
f 61/61/61 69/69/69 62/62/62
f 70/70/70 66/66/66 65/65/65
f 70/70/70 65/65/65 71/71/71
f 70/70/70 71/71/71 72/72/72
f 70/70/70 72/72/72 73/73/73
f 70/70/70 73/73/73 74/74/74
f 70/70/70 74/74/74 75/75/75
f 70/70/70 75/75/75 67/67/67
f 70/70/70 67/67/67 66/66/66
f 76/76/76 77/77/77 54/54/54
f 76/76/76 54/54/54 53/53/53
f 76/76/76 53/53/53 52/52/52
f 76/76/76 52/52/52 78/78/78
f 76/76/76 78/78/78 72/72/72
f 76/76/76 72/72/72 71/71/71
f 76/76/76 71/71/71 65/65/65
f 76/76/76 65/65/65 77/77/77
f 79/79/79 80/80/80 60/60/60
f 79/79/79 60/60/60 59/59/59
f 79/79/79 59/59/59 54/54/54
f 79/79/79 54/54/54 77/77/77
f 79/79/79 77/77/77 65/65/65
f 79/79/79 65/65/65 64/64/64
f 79/79/79 64/64/64 63/63/63
f 79/79/79 63/63/63 80/80/80
f 81/81/81 82/82/82 69/69/69
f 81/81/81 69/69/69 68/68/68
f 81/81/81 68/68/68 67/67/67
f 81/81/81 67/67/67 83/83/83
f 81/81/81 83/83/83 84/84/84
f 81/81/81 84/84/84 85/85/85
f 81/81/81 85/85/85 86/86/86
f 81/81/81 86/86/86 82/82/82
f 87/87/87 83/83/83 67/67/67
f 87/87/87 67/67/67 75/75/75
f 87/87/87 75/75/75 74/74/74
f 87/87/87 74/74/74 88/88/88
f 87/87/87 88/88/88 89/89/89
f 87/87/87 89/89/89 90/90/90
f 87/87/87 90/90/90 84/84/84
f 87/87/87 84/84/84 83/83/83
f 91/91/91 92/92/92 38/38/38
f 91/91/91 38/38/38 37/37/37
f 91/91/91 37/37/37 18/18/18
f 91/91/91 18/18/18 93/93/93
f 91/91/91 93/93/93 69/69/69
f 91/91/91 69/69/69 82/82/82
f 91/91/91 82/82/82 94/94/94
f 91/91/91 94/94/94 92/92/92
f 95/95/95 96/96/96 44/44/44
f 95/95/95 44/44/44 43/43/43
f 95/95/95 43/43/43 40/40/40
f 95/95/95 40/40/40 97/97/97
f 95/95/95 97/97/97 84/84/84
f 95/95/95 84/84/84 90/90/90
f 95/95/95 90/90/90 98/98/98
f 95/95/95 98/98/98 96/96/96
f 99/99/99 100/100/100 7/7/7
f 99/99/99 7/7/7 6/6/6
f 99/99/99 6/6/6 5/5/5
f 99/99/99 5/5/5 101/101/101
f 99/99/99 101/101/101 52/52/52
f 99/99/99 52/52/52 51/51/51
f 99/99/99 51/51/51 102/102/102
f 99/99/99 102/102/102 100/100/100
f 103/103/103 104/104/104 15/15/15
f 103/103/103 15/15/15 14/14/14
f 103/103/103 14/14/14 9/9/9
f 103/103/103 9/9/9 105/105/105
f 103/103/103 105/105/105 48/48/48
f 103/103/103 48/48/48 58/58/58
f 103/103/103 58/58/58 106/106/106
f 103/103/103 106/106/106 104/104/104
f 107/107/107 108/108/108 12/12/12
f 107/107/107 12/12/12 11/11/11
f 107/107/107 11/11/11 15/15/15
f 107/107/107 15/15/15 104/104/104
f 107/107/107 104/104/104 106/106/106
f 107/107/107 106/106/106 56/56/56
f 107/107/107 56/56/56 60/60/60
f 107/107/107 60/60/60 108/108/108
f 109/109/109 97/97/97 40/40/40
f 109/109/109 40/40/40 39/39/39
f 109/109/109 39/39/39 38/38/38
f 109/109/109 38/38/38 92/92/92
f 109/109/109 92/92/92 94/94/94
f 109/109/109 94/94/94 85/85/85
f 109/109/109 85/85/85 84/84/84
f 109/109/109 84/84/84 97/97/97
f 110/110/110 111/111/111 27/27/27
f 110/110/110 27/27/27 45/45/45
f 110/110/110 45/45/45 44/44/44
f 110/110/110 44/44/44 96/96/96
f 110/110/110 96/96/96 98/98/98
f 110/110/110 98/98/98 88/88/88
f 110/110/110 88/88/88 74/74/74
f 110/110/110 74/74/74 111/111/111
f 112/112/112 105/105/105 9/9/9
f 112/112/112 9/9/9 8/8/8
f 112/112/112 8/8/8 7/7/7
f 112/112/112 7/7/7 100/100/100
f 112/112/112 100/100/100 102/102/102
f 112/112/112 102/102/102 49/49/49
f 112/112/112 49/49/49 48/48/48
f 112/112/112 48/48/48 105/105/105
f 113/113/113 101/101/101 5/5/5
f 113/113/113 5/5/5 33/33/33
f 113/113/113 33/33/33 29/29/29
f 113/113/113 29/29/29 114/114/114
f 113/113/113 114/114/114 72/72/72
f 113/113/113 72/72/72 78/78/78
f 113/113/113 78/78/78 52/52/52
f 113/113/113 52/52/52 101/101/101
f 115/115/115 116/116/116 24/24/24
f 115/115/115 24/24/24 35/35/35
f 115/115/115 35/35/35 12/12/12
f 115/115/115 12/12/12 108/108/108
f 115/115/115 108/108/108 60/60/60
f 115/115/115 60/60/60 80/80/80
f 115/115/115 80/80/80 63/63/63
f 115/115/115 63/63/63 116/116/116
f 117/117/117 93/93/93 18/18/18
f 117/117/117 18/18/18 17/17/17
f 117/117/117 17/17/17 24/24/24
f 117/117/117 24/24/24 116/116/116
f 117/117/117 116/116/116 63/63/63
f 117/117/117 63/63/63 62/62/62
f 117/117/117 62/62/62 69/69/69
f 117/117/117 69/69/69 93/93/93
f 118/118/118 114/114/114 29/29/29
f 118/118/118 29/29/29 28/28/28
f 118/118/118 28/28/28 27/27/27
f 118/118/118 27/27/27 111/111/111
f 118/118/118 111/111/111 74/74/74
f 118/118/118 74/74/74 73/73/73
f 118/118/118 73/73/73 72/72/72
f 118/118/118 72/72/72 114/114/114
