v -2.435025 0.733092 -1.062176
v -2.432972 0.734162 -1.06152
v -2.432582 0.733889 -1.064688
v -2.434921 0.732649 -1.065075
v -2.436792 0.731889 -1.065546
v -2.436664 0.732453 -1.063066
v -2.436088 0.732839 -1.061456
v -2.434956 0.733353 -1.060101
v -2.433196 0.734271 -1.059183
v -2.431209 0.735746 -1.061935
v -2.429971 0.737107 -1.062642
v -2.429188 0.737176 -1.065065
v -2.430583 0.735665 -1.0648
v -2.431653 0.735649 -1.059892
v -2.430667 0.736608 -1.061113
v -2.42844 0.733356 -1.074323
v -2.426966 0.734658 -1.074347
v -2.42637 0.73316 -1.077402
v -2.427668 0.731997 -1.077372
v -2.429459 0.730556 -1.077402
v -2.430471 0.731736 -1.074366
v -2.431361 0.732731 -1.071244
v -2.429249 0.734445 -1.071206
v -2.427726 0.735836 -1.071245
v -2.43269 0.730401 -1.074593
v -2.431426 0.729384 -1.07761
v -2.432957 0.72858 -1.077819
v -2.434413 0.72948 -1.074819
v -2.435517 0.730419 -1.071738
v -2.433695 0.731354 -1.071488
v -2.434458 0.732086 -1.068247
v -2.432055 0.733431 -1.067973
v -2.436359 0.731217 -1.068542
v -2.429947 0.735223 -1.067961
v -2.428454 0.736714 -1.068041
v -2.427081 0.730411 -1.080411
v -2.426138 0.73132 -1.080462
v -2.426219 0.730027 -1.082128
v -2.426693 0.729114 -1.082672
v -2.427568 0.728314 -1.082645
v -2.428398 0.729304 -1.080412
v -2.429886 0.72846 -1.080588
v -2.428615 0.727777 -1.082794
v -2.429678 0.727622 -1.082347
v -2.431057 0.7279 -1.080773
v -2.434916 0.73287 -1.062134
v -2.432833 0.733957 -1.061476
v -2.433091 0.734118 -1.059154
v -2.434875 0.733185 -1.060073
v -2.436034 0.732711 -1.061435
v -2.436598 0.732278 -1.063035
v -2.436723 0.731718 -1.065507
v -2.434809 0.732429 -1.065022
v -2.432444 0.733686 -1.064634
v -2.431042 0.735563 -1.061889
v -2.429833 0.736982 -1.062606
v -2.430568 0.736512 -1.061089
v -2.431526 0.735513 -1.059861
v -2.430421 0.73548 -1.064744
v -2.429055 0.737049 -1.065022
v -2.428294 0.733176 -1.074223
v -2.426847 0.73453 -1.074272
v -2.427604 0.735706 -1.071179
v -2.429098 0.734262 -1.071119
v -2.43123 0.732534 -1.071157
v -2.430343 0.731542 -1.074266
v -2.429333 0.730365 -1.077293
v -2.427524 0.731821 -1.077262
v -2.426254 0.733034 -1.07732
v -2.432581 0.730195 -1.074494
v -2.433583 0.731144 -1.071403
v -2.435443 0.730256 -1.071676
v -2.434341 0.72932 -1.074746
v -2.432887 0.728422 -1.07774
v -2.43132 0.729181 -1.077502
v -2.434346 0.731871 -1.068179
v -2.43192 0.73323 -1.067904
v -2.436287 0.731049 -1.068492
v -2.42979 0.735039 -1.06789
v -2.428326 0.736585 -1.067987
v -2.426938 0.730236 -1.080297
v -2.426021 0.731197 -1.080377
v -2.428273 0.729115 -1.080299
v -2.427475 0.728172 -1.082561
v -2.426585 0.728984 -1.082587
v -2.426135 0.729934 -1.082065
v -2.429782 0.728258 -1.080477
v -2.430989 0.727743 -1.080691
v -2.429625 0.727507 -1.082286
v -2.428538 0.727626 -1.082711
v -2.42577 0.73157 -1.080441
v -2.426004 0.729778 -1.082713
v -2.425884 0.733493 -1.077376
v -2.426135 0.729934 -1.082065
v -2.428157 0.727482 -1.083492
v -2.429469 0.727368 -1.082933
v -2.42725 0.727921 -1.083352
v -2.429625 0.727507 -1.082286
v -2.437185 0.732161 -1.063348
v -2.436354 0.732737 -1.061341
v -2.437388 0.731558 -1.065686
v -2.436034 0.732711 -1.061435
v -2.431744 0.735557 -1.059198
v -2.43049 0.736814 -1.060969
v -2.433224 0.734239 -1.058392
v -2.430568 0.736512 -1.061089
v -2.429494 0.737508 -1.062861
v -2.428662 0.737626 -1.065133
v -2.426515 0.728624 -1.083388
v -2.43142 0.727642 -1.080799
v -2.433439 0.72824 -1.077854
v -2.434897 0.733364 -1.059397
v -2.436964 0.730851 -1.068618
v -2.436093 0.730034 -1.071794
v -2.427897 0.737155 -1.068044
v -2.427162 0.736244 -1.071228
v -2.42642 0.735037 -1.074322
v -2.434957 0.729101 -1.074862
vn -0.3681 0.9209 -0.1278
vn -0.5614 0.8186 -0.1213
vn -0.5538 0.8129 -0.1803
vn -0.3812 0.905 -0.1887
vn -0.3857 0.8974 -0.214
vn -0.3754 0.9178 -0.1288
vn -0.3674 0.9276 -0.0678
vn -0.4143 0.9093 -0.0386
vn -0.5695 0.8215 -0.0281
vn -0.7233 0.674 -0.1503
vn -0.7177 0.6798 -0.1505
vn -0.6878 0.6874 -0.2331
vn -0.6987 0.6843 -0.2088
vn -0.7041 0.7078 -0.0571
vn -0.7349 0.672 -0.0912
vn -0.5857 0.6904 -0.4245
vn -0.5547 0.7113 -0.4316
vn -0.543 0.7022 -0.4605
vn -0.5822 0.6742 -0.4544
vn -0.4869 0.7423 -0.4603
vn -0.4993 0.7566 -0.4222
vn -0.5214 0.7812 -0.3432
vn -0.6156 0.7038 -0.3544
vn -0.5907 0.7169 -0.3702
vn -0.4075 0.8144 -0.4132
vn -0.3909 0.8072 -0.4423
vn -0.4302 0.7806 -0.4534
vn -0.4371 0.7931 -0.4242
vn -0.4351 0.8251 -0.3603
vn -0.4157 0.8429 -0.3417
vn -0.4059 0.8769 -0.2575
vn -0.5414 0.8017 -0.2532
vn -0.4155 0.864 -0.2843
vn -0.658 0.7016 -0.2734
vn -0.6403 0.7077 -0.2986
vn -0.5972 0.6521 -0.4669
vn -0.5546 0.6812 -0.4778
vn -0.5737 0.6543 -0.4927
vn -0.5954 0.616 -0.5158
vn -0.4624 0.7131 -0.5269
vn -0.4808 0.735 -0.478
vn -0.3641 0.8142 -0.4521
vn -0.3268 0.8028 -0.4988
vn -0.372 0.7946 -0.4798
vn -0.405 0.7853 -0.4683
vn 0.3392 -0.9289 0.1487
vn 0.5595 -0.8173 0.1375
vn 0.5507 -0.8103 0.2003
vn 0.2493 -0.9461 0.2068
vn 0.1299 -0.9667 0.2204
vn 0.1557 -0.9644 0.2137
vn 0.2242 -0.9487 0.223
vn 0.367 -0.9108 0.1889
vn 0.5538 -0.8129 0.1802
vn 0.7389 -0.651 0.174
vn 0.8296 -0.496 0.2564
vn 0.8401 -0.4729 0.2655
vn 0.7809 -0.5764 0.2406
vn 0.709 -0.673 0.2106
vn 0.7906 -0.5548 0.2589
vn 0.5983 -0.6802 0.4234
vn 0.6818 -0.6047 0.4117
vn 0.7034 -0.6116 0.3622
vn 0.627 -0.6939 0.3541
vn 0.5214 -0.7812 0.3434
vn 0.4993 -0.7565 0.4224
vn 0.4869 -0.7422 0.4605
vn 0.5974 -0.6629 0.4512
vn 0.6979 -0.5856 0.4124
vn 0.3937 -0.8225 0.4105
vn 0.4025 -0.85 0.3399
vn 0.2986 -0.893 0.3366
vn 0.2954 -0.8734 0.3872
vn 0.2718 -0.8818 0.3854
vn 0.3755 -0.8172 0.4371
vn 0.3927 -0.8832 0.2563
vn 0.5414 -0.8017 0.2532
vn 0.2749 -0.9228 0.2701
vn 0.6685 -0.6914 0.2737
vn 0.745 -0.5959 0.2998
vn 0.622 -0.6417 0.4486
vn 0.7424 -0.5544 0.3762
vn 0.4845 -0.7395 0.4673
vn 0.5001 -0.7576 0.4194
vn 0.6928 -0.6124 0.3808
vn 0.7687 -0.5365 0.3481
vn 0.3474 -0.8327 0.4312
vn 0.2305 -0.9103 0.3437
vn 0.2072 -0.927 0.3125
vn 0.3012 -0.8846 0.356
vn 0.7556 0.5377 -0.374
vn 0.6503 0.3022 -0.6969
vn 0.7748 0.5896 -0.2282
vn 0.7687 -0.5365 0.3481
vn 0.0825 -0.4515 -0.8884
vn -0.4472 -0.4609 -0.7665
vn 0.3591 -0.4423 -0.8218
vn 0.2072 -0.927 0.3125
vn -0.9544 -0.2083 0.2137
vn -0.8528 -0.1216 0.5078
vn -0.9555 -0.2942 0.0207
vn 0.1299 -0.9667 0.2204
vn 0.2579 0.4117 0.8741
vn 0.3641 0.7244 0.5854
vn -0.0728 0.0133 0.9973
vn 0.8401 -0.4729 0.2655
vn 0.5057 0.8065 0.3061
vn 0.6026 0.7891 0.1195
vn 0.469 -0.1831 -0.864
vn -0.7311 -0.496 -0.4684
vn -0.7986 -0.5046 -0.3279
vn -0.5486 -0.1489 0.8227
vn -0.9234 -0.37 -0.1017
vn -0.8914 -0.4226 -0.1634
vn 0.6728 0.7397 -0.0008
vn 0.7162 0.6951 -0.0617
vn 0.754 0.6455 -0.1213
vn -0.8528 -0.472 -0.2233
vt 0.839504 0.118056
vt 0.856743 0.205307
vt 0.741230 0.205307
vt 0.734555 0.106726
vt 0.724541 0.032791
vt 0.813647 0.052618
vt 0.868992 0.081539
vt 0.913398 0.129584
vt 0.940923 0.205307
vt 0.839504 0.292557
vt 0.813647 0.357995
vt 0.724541 0.377822
vt 0.734555 0.303887
vt 0.913398 0.281029
vt 0.868992 0.329074
vt 0.369475 0.299954
vt 0.368286 0.370940
vt 0.245840 0.351447
vt 0.246397 0.288815
vt 0.246768 0.205307
vt 0.370268 0.205307
vt 0.494283 0.205307
vt 0.492822 0.304944
vt 0.490632 0.379672
vt 0.369475 0.110659
vt 0.246397 0.121798
vt 0.245841 0.059166
vt 0.368286 0.039673
vt 0.490632 0.030941
vt 0.492822 0.105669
vt 0.616755 0.103478
vt 0.619174 0.205307
vt 0.613127 0.027106
vt 0.616755 0.307135
vt 0.613126 0.383507
vt 0.123273 0.268175
vt 0.123047 0.315326
vt 0.054743 0.283353
vt 0.030912 0.249131
vt 0.030973 0.205306
vt 0.123423 0.205306
vt 0.123273 0.142438
vt 0.030912 0.161481
vt 0.054744 0.127260
vt 0.123047 0.095287
vt 0.839504 0.118056
vt 0.856743 0.205307
vt 0.968983 0.205307
vt 0.938030 0.133427
vt 0.876123 0.061548
vt 0.805028 0.030806
vt 0.721203 0.008146
vt 0.734555 0.106726
vt 0.741230 0.205307
vt 0.839504 0.292557
vt 0.805028 0.379807
vt 0.876123 0.349065
vt 0.938030 0.277186
vt 0.734555 0.303887
vt 0.721203 0.402467
vt 0.369475 0.299954
vt 0.367890 0.394602
vt 0.489902 0.404581
vt 0.492822 0.304944
vt 0.494283 0.205307
vt 0.370268 0.205307
vt 0.246768 0.205307
vt 0.246397 0.288815
vt 0.245655 0.372324
vt 0.369475 0.110659
vt 0.492822 0.105669
vt 0.489902 0.006032
vt 0.367890 0.016011
vt 0.245655 0.038289
vt 0.246397 0.121798
vt 0.616755 0.103478
vt 0.619174 0.205307
vt 0.611917 0.001649
vt 0.616755 0.307135
vt 0.611917 0.408964
vt 0.123273 0.268175
vt 0.122972 0.331043
vt 0.123423 0.205306
vt 0.000156 0.205306
vt 0.000125 0.242784
vt 0.000064 0.280261
vt 0.123273 0.142438
vt 0.122972 0.079570
vt 0.000064 0.130352
vt 0.000125 0.167829
vt 0.122972 0.331043
vt 0.030806 0.283587
vt 0.245655 0.372324
vt 0.030806 0.283587
vt 0.000125 0.167829
vt 0.030806 0.127026
vt 0.000156 0.205306
vt 0.030806 0.127026
vt 0.805028 0.030806
vt 0.873826 0.071832
vt 0.721203 0.008146
vt 0.873826 0.071832
vt 0.938030 0.277186
vt 0.873826 0.338781
vt 0.968983 0.205307
vt 0.873826 0.338781
vt 0.805028 0.379807
vt 0.721203 0.402467
vt 0.000125 0.242784
vt 0.122972 0.079570
vt 0.245655 0.038289
vt 0.938030 0.133427
vt 0.611917 0.001649
vt 0.489902 0.006032
vt 0.611917 0.408964
vt 0.489902 0.404581
vt 0.367890 0.394602
vt 0.367890 0.016011
f 1/1/1 2/2/2 3/3/3
f 1/1/1 3/3/3 4/4/4
f 1/1/1 4/4/4 5/5/5
f 1/1/1 5/5/5 6/6/6
f 1/1/1 6/6/6 7/7/7
f 1/1/1 7/7/7 8/8/8
f 1/1/1 8/8/8 9/9/9
f 1/1/1 9/9/9 2/2/2
f 10/10/10 11/11/11 12/12/12
f 10/10/10 12/12/12 13/13/13
f 10/10/10 13/13/13 3/3/3
f 10/10/10 3/3/3 2/2/2
f 10/10/10 2/2/2 9/9/9
f 10/10/10 9/9/9 14/14/14
f 10/10/10 14/14/14 15/15/15
f 10/10/10 15/15/15 11/11/11
f 16/16/16 17/17/17 18/18/18
f 16/16/16 18/18/18 19/19/19
f 16/16/16 19/19/19 20/20/20
f 16/16/16 20/20/20 21/21/21
f 16/16/16 21/21/21 22/22/22
f 16/16/16 22/22/22 23/23/23
f 16/16/16 23/23/23 24/24/24
f 16/16/16 24/24/24 17/17/17
f 25/25/25 21/21/21 20/20/20
f 25/25/25 20/20/20 26/26/26
f 25/25/25 26/26/26 27/27/27
f 25/25/25 27/27/27 28/28/28
f 25/25/25 28/28/28 29/29/29
f 25/25/25 29/29/29 30/30/30
f 25/25/25 30/30/30 22/22/22
f 25/25/25 22/22/22 21/21/21
f 31/31/31 32/32/32 22/22/22
f 31/31/31 22/22/22 30/30/30
f 31/31/31 30/30/30 29/29/29
f 31/31/31 29/29/29 33/33/33
f 31/31/31 33/33/33 5/5/5
f 31/31/31 5/5/5 4/4/4
f 31/31/31 4/4/4 3/3/3
f 31/31/31 3/3/3 32/32/32
f 34/34/34 35/35/35 24/24/24
f 34/34/34 24/24/24 23/23/23
f 34/34/34 23/23/23 22/22/22
f 34/34/34 22/22/22 32/32/32
f 34/34/34 32/32/32 3/3/3
f 34/34/34 3/3/3 13/13/13
f 34/34/34 13/13/13 12/12/12
f 34/34/34 12/12/12 35/35/35
f 36/36/36 37/37/37 38/38/38
f 36/36/36 38/38/38 39/39/39
f 36/36/36 39/39/39 40/40/40
f 36/36/36 40/40/40 41/41/41
f 36/36/36 41/41/41 20/20/20
f 36/36/36 20/20/20 19/19/19
f 36/36/36 19/19/19 18/18/18
f 36/36/36 18/18/18 37/37/37
f 42/42/42 41/41/41 40/40/40
f 42/42/42 40/40/40 43/43/43
f 42/42/42 43/43/43 44/44/44
f 42/42/42 44/44/44 45/45/45
f 42/42/42 45/45/45 27/27/27
f 42/42/42 27/27/27 26/26/26
f 42/42/42 26/26/26 20/20/20
f 42/42/42 20/20/20 41/41/41
f 46/46/46 47/47/47 48/48/48
f 46/46/46 48/48/48 49/49/49
f 46/46/46 49/49/49 50/50/50
f 46/46/46 50/50/50 51/51/51
f 46/46/46 51/51/51 52/52/52
f 46/46/46 52/52/52 53/53/53
f 46/46/46 53/53/53 54/54/54
f 46/46/46 54/54/54 47/47/47
f 55/55/55 56/56/56 57/57/57
f 55/55/55 57/57/57 58/58/58
f 55/55/55 58/58/58 48/48/48
f 55/55/55 48/48/48 47/47/47
f 55/55/55 47/47/47 54/54/54
f 55/55/55 54/54/54 59/59/59
f 55/55/55 59/59/59 60/60/60
f 55/55/55 60/60/60 56/56/56
f 61/61/61 62/62/62 63/63/63
f 61/61/61 63/63/63 64/64/64
f 61/61/61 64/64/64 65/65/65
f 61/61/61 65/65/65 66/66/66
f 61/61/61 66/66/66 67/67/67
f 61/61/61 67/67/67 68/68/68
f 61/61/61 68/68/68 69/69/69
f 61/61/61 69/69/69 62/62/62
f 70/70/70 66/66/66 65/65/65
f 70/70/70 65/65/65 71/71/71
f 70/70/70 71/71/71 72/72/72
f 70/70/70 72/72/72 73/73/73
f 70/70/70 73/73/73 74/74/74
f 70/70/70 74/74/74 75/75/75
f 70/70/70 75/75/75 67/67/67
f 70/70/70 67/67/67 66/66/66
f 76/76/76 77/77/77 54/54/54
f 76/76/76 54/54/54 53/53/53
f 76/76/76 53/53/53 52/52/52
f 76/76/76 52/52/52 78/78/78
f 76/76/76 78/78/78 72/72/72
f 76/76/76 72/72/72 71/71/71
f 76/76/76 71/71/71 65/65/65
f 76/76/76 65/65/65 77/77/77
f 79/79/79 80/80/80 60/60/60
f 79/79/79 60/60/60 59/59/59
f 79/79/79 59/59/59 54/54/54
f 79/79/79 54/54/54 77/77/77
f 79/79/79 77/77/77 65/65/65
f 79/79/79 65/65/65 64/64/64
f 79/79/79 64/64/64 63/63/63
f 79/79/79 63/63/63 80/80/80
f 81/81/81 82/82/82 69/69/69
f 81/81/81 69/69/69 68/68/68
f 81/81/81 68/68/68 67/67/67
f 81/81/81 67/67/67 83/83/83
f 81/81/81 83/83/83 84/84/84
f 81/81/81 84/84/84 85/85/85
f 81/81/81 85/85/85 86/86/86
f 81/81/81 86/86/86 82/82/82
f 87/87/87 83/83/83 67/67/67
f 87/87/87 67/67/67 75/75/75
f 87/87/87 75/75/75 74/74/74
f 87/87/87 74/74/74 88/88/88
f 87/87/87 88/88/88 89/89/89
f 87/87/87 89/89/89 90/90/90
f 87/87/87 90/90/90 84/84/84
f 87/87/87 84/84/84 83/83/83
f 91/91/91 92/92/92 38/38/38
f 91/91/91 38/38/38 37/37/37
f 91/91/91 37/37/37 18/18/18
f 91/91/91 18/18/18 93/93/93
f 91/91/91 93/93/93 69/69/69
f 91/91/91 69/69/69 82/82/82
f 91/91/91 82/82/82 94/94/94
f 91/91/91 94/94/94 92/92/92
f 95/95/95 96/96/96 44/44/44
f 95/95/95 44/44/44 43/43/43
f 95/95/95 43/43/43 40/40/40
f 95/95/95 40/40/40 97/97/97
f 95/95/95 97/97/97 84/84/84
f 95/95/95 84/84/84 90/90/90
f 95/95/95 90/90/90 98/98/98
f 95/95/95 98/98/98 96/96/96
f 99/99/99 100/100/100 7/7/7
f 99/99/99 7/7/7 6/6/6
f 99/99/99 6/6/6 5/5/5
f 99/99/99 5/5/5 101/101/101
f 99/99/99 101/101/101 52/52/52
f 99/99/99 52/52/52 51/51/51
f 99/99/99 51/51/51 102/102/102
f 99/99/99 102/102/102 100/100/100
f 103/103/103 104/104/104 15/15/15
f 103/103/103 15/15/15 14/14/14
f 103/103/103 14/14/14 9/9/9
f 103/103/103 9/9/9 105/105/105
f 103/103/103 105/105/105 48/48/48
f 103/103/103 48/48/48 58/58/58
f 103/103/103 58/58/58 106/106/106
f 103/103/103 106/106/106 104/104/104
f 107/107/107 108/108/108 12/12/12
f 107/107/107 12/12/12 11/11/11
f 107/107/107 11/11/11 15/15/15
f 107/107/107 15/15/15 104/104/104
f 107/107/107 104/104/104 106/106/106
f 107/107/107 106/106/106 56/56/56
f 107/107/107 56/56/56 60/60/60
f 107/107/107 60/60/60 108/108/108
f 109/109/109 97/97/97 40/40/40
f 109/109/109 40/40/40 39/39/39
f 109/109/109 39/39/39 38/38/38
f 109/109/109 38/38/38 92/92/92
f 109/109/109 92/92/92 94/94/94
f 109/109/109 94/94/94 85/85/85
f 109/109/109 85/85/85 84/84/84
f 109/109/109 84/84/84 97/97/97
f 110/110/110 111/111/111 27/27/27
f 110/110/110 27/27/27 45/45/45
f 110/110/110 45/45/45 44/44/44
f 110/110/110 44/44/44 96/96/96
f 110/110/110 96/96/96 98/98/98
f 110/110/110 98/98/98 88/88/88
f 110/110/110 88/88/88 74/74/74
f 110/110/110 74/74/74 111/111/111
f 112/112/112 105/105/105 9/9/9
f 112/112/112 9/9/9 8/8/8
f 112/112/112 8/8/8 7/7/7
f 112/112/112 7/7/7 100/100/100
f 112/112/112 100/100/100 102/102/102
f 112/112/112 102/102/102 49/49/49
f 112/112/112 49/49/49 48/48/48
f 112/112/112 48/48/48 105/105/105
f 113/113/113 101/101/101 5/5/5
f 113/113/113 5/5/5 33/33/33
f 113/113/113 33/33/33 29/29/29
f 113/113/113 29/29/29 114/114/114
f 113/113/113 114/114/114 72/72/72
f 113/113/113 72/72/72 78/78/78
f 113/113/113 78/78/78 52/52/52
f 113/113/113 52/52/52 101/101/101
f 115/115/115 116/116/116 24/24/24
f 115/115/115 24/24/24 35/35/35
f 115/115/115 35/35/35 12/12/12
f 115/115/115 12/12/12 108/108/108
f 115/115/115 108/108/108 60/60/60
f 115/115/115 60/60/60 80/80/80
f 115/115/115 80/80/80 63/63/63
f 115/115/115 63/63/63 116/116/116
f 117/117/117 93/93/93 18/18/18
f 117/117/117 18/18/18 17/17/17
f 117/117/117 17/17/17 24/24/24
f 117/117/117 24/24/24 116/116/116
f 117/117/117 116/116/116 63/63/63
f 117/117/117 63/63/63 62/62/62
f 117/117/117 62/62/62 69/69/69
f 117/117/117 69/69/69 93/93/93
f 118/118/118 114/114/114 29/29/29
f 118/118/118 29/29/29 28/28/28
f 118/118/118 28/28/28 27/27/27
f 118/118/118 27/27/27 111/111/111
f 118/118/118 111/111/111 74/74/74
f 118/118/118 74/74/74 73/73/73
f 118/118/118 73/73/73 72/72/72
f 118/118/118 72/72/72 114/114/114
