v -2.378491 0.718592 -1.103353
v -2.378604 0.718557 -1.101463
v -2.3766 0.717088 -1.101886
v -2.376724 0.717246 -1.103981
v -2.37662 0.717444 -1.105597
v -2.378069 0.718605 -1.104845
v -2.379026 0.719162 -1.104022
v -2.379787 0.719462 -1.10283
v -2.380122 0.719563 -1.101145
v -2.377773 0.71854 -1.099763
v -2.376809 0.718515 -1.098549
v -2.375189 0.717342 -1.098444
v -2.375907 0.717188 -1.099901
v -2.379165 0.719418 -1.099723
v -2.378005 0.719089 -1.098924
v -2.370534 0.711536 -1.1011
v -2.370065 0.711627 -1.099628
v -2.368643 0.709432 -1.100365
v -2.369068 0.709346 -1.101665
v -2.369541 0.709292 -1.10341
v -2.371058 0.711479 -1.103075
v -2.372714 0.713544 -1.102714
v -2.372153 0.713616 -1.10065
v -2.371641 0.713731 -1.099115
v -2.371334 0.711593 -1.105098
v -2.369776 0.709397 -1.105201
v -2.369884 0.709521 -1.106561
v -2.371468 0.711727 -1.106633
v -2.373108 0.713836 -1.106443
v -2.37299 0.713676 -1.104832
v -2.374838 0.715584 -1.104467
v -2.374599 0.715415 -1.10231
v -2.374896 0.715797 -1.106113
v -2.373989 0.715523 -1.100223
v -2.373407 0.715691 -1.098677
v -2.367692 0.707112 -1.102439
v -2.367337 0.7072 -1.101475
v -2.366734 0.70591 -1.102328
v -2.366712 0.705405 -1.103091
v -2.367009 0.705341 -1.103973
v -2.368073 0.707053 -1.103736
v -2.36822 0.70715 -1.105078
v -2.367074 0.705431 -1.1049
v -2.367385 0.705957 -1.105582
v -2.368263 0.707266 -1.106101
v -2.378615 0.718437 -1.103358
v -2.378723 0.7184 -1.101442
v -2.380209 0.719444 -1.10113
v -2.379878 0.719345 -1.102836
v -2.379094 0.719076 -1.104032
v -2.378164 0.718492 -1.104862
v -2.376719 0.717333 -1.10561
v -2.376854 0.717096 -1.103982
v -2.376726 0.716936 -1.101863
v -2.377886 0.718385 -1.099714
v -2.37689 0.718401 -1.098499
v -2.378065 0.719003 -1.09889
v -2.379247 0.7193 -1.099685
v -2.376027 0.717037 -1.099854
v -2.375275 0.71723 -1.098397
v -2.370682 0.711411 -1.101054
v -2.370174 0.711534 -1.099585
v -2.371744 0.713631 -1.099072
v -2.372293 0.713483 -1.100605
v -2.372859 0.71341 -1.102687
v -2.37121 0.711354 -1.103047
v -2.369698 0.709173 -1.10338
v -2.369221 0.709228 -1.101618
v -2.368755 0.709343 -1.100321
v -2.371489 0.711468 -1.105086
v -2.373137 0.713543 -1.104824
v -2.37322 0.713737 -1.106445
v -2.371585 0.711634 -1.106634
v -2.370004 0.709433 -1.106561
v -2.369936 0.709279 -1.105188
v -2.374977 0.715442 -1.104463
v -2.374734 0.715272 -1.102285
v -2.375001 0.715692 -1.106121
v -2.374119 0.715381 -1.100178
v -2.373502 0.715585 -1.098632
v -2.367846 0.706996 -1.102391
v -2.36745 0.707113 -1.101429
v -2.368231 0.706937 -1.103706
v -2.367128 0.705254 -1.103951
v -2.366827 0.705318 -1.103054
v -2.366818 0.705846 -1.102297
v -2.368382 0.707034 -1.105066
v -2.368386 0.70718 -1.106102
v -2.367475 0.705893 -1.10558
v -2.367195 0.705345 -1.104892
v -2.367269 0.707191 -1.101131
v -2.366451 0.705468 -1.102388
v -2.368551 0.709422 -1.09991
v -2.366818 0.705846 -1.102297
v -2.366746 0.70482 -1.104837
v -2.367103 0.705514 -1.105647
v -2.366708 0.704731 -1.104042
v -2.367475 0.705893 -1.10558
v -2.377971 0.71856 -1.105353
v -2.379132 0.719259 -1.104217
v -2.37663 0.717461 -1.106144
v -2.379094 0.719076 -1.104032
v -2.379665 0.719657 -1.099692
v -2.378027 0.719181 -1.098701
v -2.380666 0.719845 -1.101032
v -2.378065 0.719003 -1.09889
v -2.376523 0.718457 -1.098119
v -2.374987 0.717344 -1.097935
v -2.366436 0.704798 -1.103292
v -2.368333 0.707267 -1.106445
v -2.369973 0.709523 -1.107016
v -2.380259 0.7197 -1.102659
v -2.374962 0.715822 -1.106668
v -2.373197 0.713845 -1.106983
v -2.373255 0.7157 -1.098139
v -2.371516 0.713725 -1.098582
v -2.369957 0.711616 -1.099117
v -2.371565 0.711731 -1.107147
vn 0.6053 0.7882 0.1109
vn 0.5594 0.8228 -0.1002
vn 0.6066 0.7873 -0.1102
vn 0.6501 0.7558 0.078
vn 0.6681 0.7412 0.0647
vn 0.605 0.7895 0.1029
vn 0.5574 0.8202 0.1286
vn 0.526 0.846 0.0871
vn 0.4817 0.8723 -0.084
vn 0.5202 0.7943 -0.3136
vn 0.5231 0.7953 -0.3063
vn 0.5958 0.7463 -0.2965
vn 0.5741 0.7612 -0.3015
vn 0.4566 0.8509 -0.2597
vn 0.4694 0.8264 -0.3108
vn 0.7548 0.6051 -0.2533
vn 0.7696 0.5999 -0.2187
vn 0.7889 0.5739 -0.2198
vn 0.7718 0.5779 -0.2652
vn 0.8058 0.572 -0.1531
vn 0.7812 0.6065 -0.1477
vn 0.7277 0.6723 -0.1361
vn 0.7035 0.6631 -0.2557
vn 0.7222 0.6516 -0.232
vn 0.7974 0.602 -0.0402
vn 0.8175 0.5747 -0.0365
vn 0.8158 0.5719 -0.0851
vn 0.7977 0.5979 -0.078
vn 0.7594 0.6489 -0.046
vn 0.7513 0.6597 -0.0166
vn 0.696 0.7174 0.0277
vn 0.6624 0.7391 -0.122
vn 0.7131 0.701 0.007
vn 0.6357 0.7217 -0.2737
vn 0.6592 0.7049 -0.2618
vn 0.7721 0.5647 -0.2915
vn 0.7938 0.5571 -0.2438
vn 0.7939 0.5415 -0.2764
vn 0.7953 0.5155 -0.3189
vn 0.8462 0.5076 -0.1621
vn 0.8168 0.5555 -0.1556
vn 0.8278 0.5608 -0.0127
vn 0.8595 0.5111 0.0023
vn 0.8421 0.5382 -0.0356
vn 0.8295 0.5546 -0.0652
vn -0.6254 -0.7686 -0.1343
vn -0.5726 -0.8133 0.103
vn -0.6221 -0.7747 0.1134
vn -0.6784 -0.7055 -0.205
vn -0.693 -0.6498 -0.3123
vn -0.6876 -0.6652 -0.2909
vn -0.6919 -0.6865 -0.2235
vn -0.6524 -0.7522 -0.0928
vn -0.6065 -0.7874 0.1102
vn -0.5298 -0.7754 0.3436
vn -0.5264 -0.6766 0.5149
vn -0.523 -0.6618 0.5371
vn -0.5511 -0.7146 0.4308
vn -0.5705 -0.758 0.3161
vn -0.5564 -0.6961 0.4537
vn -0.7493 -0.6052 0.2686
vn -0.7057 -0.6023 0.373
vn -0.6684 -0.6415 0.3764
vn -0.6988 -0.6623 0.2701
vn -0.7278 -0.6721 0.1361
vn -0.7813 -0.6063 0.1477
vn -0.8058 -0.5719 0.1531
vn -0.7642 -0.5796 0.2827
vn -0.6976 -0.5969 0.3962
vn -0.7983 -0.6017 0.0239
vn -0.7526 -0.6585 0.0016
vn -0.7653 -0.6346 -0.1075
vn -0.7983 -0.5956 -0.0889
vn -0.7996 -0.5897 -0.1133
vn -0.8173 -0.5759 0.0174
vn -0.6974 -0.7154 -0.0421
vn -0.6624 -0.7391 0.122
vn -0.7221 -0.6736 -0.1573
vn -0.6315 -0.7201 0.2877
vn -0.6096 -0.6816 0.4046
vn -0.7526 -0.5791 0.3132
vn -0.6535 -0.6156 0.4404
vn -0.8101 -0.5656 0.1541
vn -0.7794 -0.6089 0.1473
vn -0.684 -0.6277 0.3716
vn -0.6219 -0.6303 0.4647
vn -0.8184 -0.5745 -0.0152
vn -0.7761 -0.6069 -0.1716
vn -0.7564 -0.6206 -0.2066
vn -0.7777 -0.6212 -0.0967
vn 0.5483 -0.1996 0.8121
vn 0.7105 -0.4591 0.5333
vn 0.4488 -0.1054 0.8873
vn -0.6219 -0.6303 0.4647
vn 0.5236 -0.7736 -0.3569
vn 0.4479 -0.44 -0.7783
vn 0.4538 -0.8851 -0.1034
vn -0.7564 -0.6206 -0.2066
vn -0.2294 0.464 -0.8556
vn -0.4432 0.607 -0.6596
vn -0.1082 0.3148 -0.9429
vn -0.693 -0.6498 -0.3123
vn -0.5529 0.5563 0.6203
vn -0.1517 0.5864 0.7956
vn -0.8422 0.5098 0.1755
vn -0.523 -0.6618 0.5371
vn 0.1202 0.4391 0.8903
vn 0.2647 0.2883 0.9202
vn 0.616 -0.7805 0.1063
vn 0.1923 -0.174 -0.9658
vn 0.0717 -0.0784 -0.9943
vn -0.7459 0.5701 -0.3442
vn -0.0443 0.1872 -0.9813
vn -0.0205 0.1045 -0.9943
vn 0.3377 0.1603 0.9275
vn 0.3644 0.0771 0.928
vn 0.3877 -0.0059 0.9218
vn 0.0025 0.0218 -0.9998
vt 0.839504 0.118056
vt 0.856743 0.205307
vt 0.741230 0.205307
vt 0.734555 0.106726
vt 0.724541 0.032791
vt 0.813647 0.052618
vt 0.868992 0.081539
vt 0.913398 0.129584
vt 0.940923 0.205307
vt 0.839504 0.292557
vt 0.813647 0.357995
vt 0.724541 0.377822
vt 0.734555 0.303887
vt 0.913398 0.281029
vt 0.868992 0.329074
vt 0.369475 0.299954
vt 0.368286 0.370940
vt 0.245840 0.351447
vt 0.246397 0.288815
vt 0.246768 0.205307
vt 0.370268 0.205307
vt 0.494283 0.205307
vt 0.492822 0.304944
vt 0.490632 0.379672
vt 0.369475 0.110659
vt 0.246397 0.121798
vt 0.245841 0.059166
vt 0.368286 0.039673
vt 0.490632 0.030941
vt 0.492822 0.105669
vt 0.616755 0.103478
vt 0.619174 0.205307
vt 0.613127 0.027106
vt 0.616755 0.307135
vt 0.613126 0.383507
vt 0.123273 0.268175
vt 0.123047 0.315326
vt 0.054743 0.283353
vt 0.030912 0.249131
vt 0.030973 0.205306
vt 0.123423 0.205306
vt 0.123273 0.142438
vt 0.030912 0.161481
vt 0.054744 0.127260
vt 0.123047 0.095287
vt 0.839504 0.118056
vt 0.856743 0.205307
vt 0.968983 0.205307
vt 0.938030 0.133427
vt 0.876123 0.061548
vt 0.805028 0.030806
vt 0.721203 0.008146
vt 0.734555 0.106726
vt 0.741230 0.205307
vt 0.839504 0.292557
vt 0.805028 0.379807
vt 0.876123 0.349065
vt 0.938030 0.277186
vt 0.734555 0.303887
vt 0.721203 0.402467
vt 0.369475 0.299954
vt 0.367890 0.394602
vt 0.489902 0.404581
vt 0.492822 0.304944
vt 0.494283 0.205307
vt 0.370268 0.205307
vt 0.246768 0.205307
vt 0.246397 0.288815
vt 0.245655 0.372324
vt 0.369475 0.110659
vt 0.492822 0.105669
vt 0.489902 0.006032
vt 0.367890 0.016011
vt 0.245655 0.038289
vt 0.246397 0.121798
vt 0.616755 0.103478
vt 0.619174 0.205307
vt 0.611917 0.001649
vt 0.616755 0.307135
vt 0.611917 0.408964
vt 0.123273 0.268175
vt 0.122972 0.331043
vt 0.123423 0.205306
vt 0.000156 0.205306
vt 0.000125 0.242784
vt 0.000064 0.280261
vt 0.123273 0.142438
vt 0.122972 0.079570
vt 0.000064 0.130352
vt 0.000125 0.167829
vt 0.122972 0.331043
vt 0.030806 0.283587
vt 0.245655 0.372324
vt 0.030806 0.283587
vt 0.000125 0.167829
vt 0.030806 0.127026
vt 0.000156 0.205306
vt 0.030806 0.127026
vt 0.805028 0.030806
vt 0.873826 0.071832
vt 0.721203 0.008146
vt 0.873826 0.071832
vt 0.938030 0.277186
vt 0.873826 0.338781
vt 0.968983 0.205307
vt 0.873826 0.338781
vt 0.805028 0.379807
vt 0.721203 0.402467
vt 0.000125 0.242784
vt 0.122972 0.079570
vt 0.245655 0.038289
vt 0.938030 0.133427
vt 0.611917 0.001649
vt 0.489902 0.006032
vt 0.611917 0.408964
vt 0.489902 0.404581
vt 0.367890 0.394602
vt 0.367890 0.016011
f 1/1/1 2/2/2 3/3/3
f 1/1/1 3/3/3 4/4/4
f 1/1/1 4/4/4 5/5/5
f 1/1/1 5/5/5 6/6/6
f 1/1/1 6/6/6 7/7/7
f 1/1/1 7/7/7 8/8/8
f 1/1/1 8/8/8 9/9/9
f 1/1/1 9/9/9 2/2/2
f 10/10/10 11/11/11 12/12/12
f 10/10/10 12/12/12 13/13/13
f 10/10/10 13/13/13 3/3/3
f 10/10/10 3/3/3 2/2/2
f 10/10/10 2/2/2 9/9/9
f 10/10/10 9/9/9 14/14/14
f 10/10/10 14/14/14 15/15/15
f 10/10/10 15/15/15 11/11/11
f 16/16/16 17/17/17 18/18/18
f 16/16/16 18/18/18 19/19/19
f 16/16/16 19/19/19 20/20/20
f 16/16/16 20/20/20 21/21/21
f 16/16/16 21/21/21 22/22/22
f 16/16/16 22/22/22 23/23/23
f 16/16/16 23/23/23 24/24/24
f 16/16/16 24/24/24 17/17/17
f 25/25/25 21/21/21 20/20/20
f 25/25/25 20/20/20 26/26/26
f 25/25/25 26/26/26 27/27/27
f 25/25/25 27/27/27 28/28/28
f 25/25/25 28/28/28 29/29/29
f 25/25/25 29/29/29 30/30/30
f 25/25/25 30/30/30 22/22/22
f 25/25/25 22/22/22 21/21/21
f 31/31/31 32/32/32 22/22/22
f 31/31/31 22/22/22 30/30/30
f 31/31/31 30/30/30 29/29/29
f 31/31/31 29/29/29 33/33/33
f 31/31/31 33/33/33 5/5/5
f 31/31/31 5/5/5 4/4/4
f 31/31/31 4/4/4 3/3/3
f 31/31/31 3/3/3 32/32/32
f 34/34/34 35/35/35 24/24/24
f 34/34/34 24/24/24 23/23/23
f 34/34/34 23/23/23 22/22/22
f 34/34/34 22/22/22 32/32/32
f 34/34/34 32/32/32 3/3/3
f 34/34/34 3/3/3 13/13/13
f 34/34/34 13/13/13 12/12/12
f 34/34/34 12/12/12 35/35/35
f 36/36/36 37/37/37 38/38/38
f 36/36/36 38/38/38 39/39/39
f 36/36/36 39/39/39 40/40/40
f 36/36/36 40/40/40 41/41/41
f 36/36/36 41/41/41 20/20/20
f 36/36/36 20/20/20 19/19/19
f 36/36/36 19/19/19 18/18/18
f 36/36/36 18/18/18 37/37/37
f 42/42/42 41/41/41 40/40/40
f 42/42/42 40/40/40 43/43/43
f 42/42/42 43/43/43 44/44/44
f 42/42/42 44/44/44 45/45/45
f 42/42/42 45/45/45 27/27/27
f 42/42/42 27/27/27 26/26/26
f 42/42/42 26/26/26 20/20/20
f 42/42/42 20/20/20 41/41/41
f 46/46/46 47/47/47 48/48/48
f 46/46/46 48/48/48 49/49/49
f 46/46/46 49/49/49 50/50/50
f 46/46/46 50/50/50 51/51/51
f 46/46/46 51/51/51 52/52/52
f 46/46/46 52/52/52 53/53/53
f 46/46/46 53/53/53 54/54/54
f 46/46/46 54/54/54 47/47/47
f 55/55/55 56/56/56 57/57/57
f 55/55/55 57/57/57 58/58/58
f 55/55/55 58/58/58 48/48/48
f 55/55/55 48/48/48 47/47/47
f 55/55/55 47/47/47 54/54/54
f 55/55/55 54/54/54 59/59/59
f 55/55/55 59/59/59 60/60/60
f 55/55/55 60/60/60 56/56/56
f 61/61/61 62/62/62 63/63/63
f 61/61/61 63/63/63 64/64/64
f 61/61/61 64/64/64 65/65/65
f 61/61/61 65/65/65 66/66/66
f 61/61/61 66/66/66 67/67/67
f 61/61/61 67/67/67 68/68/68
f 61/61/61 68/68/68 69/69/69
f 61/61/61 69/69/69 62/62/62
f 70/70/70 66/66/66 65/65/65
f 70/70/70 65/65/65 71/71/71
f 70/70/70 71/71/71 72/72/72
f 70/70/70 72/72/72 73/73/73
f 70/70/70 73/73/73 74/74/74
f 70/70/70 74/74/74 75/75/75
f 70/70/70 75/75/75 67/67/67
f 70/70/70 67/67/67 66/66/66
f 76/76/76 77/77/77 54/54/54
f 76/76/76 54/54/54 53/53/53
f 76/76/76 53/53/53 52/52/52
f 76/76/76 52/52/52 78/78/78
f 76/76/76 78/78/78 72/72/72
f 76/76/76 72/72/72 71/71/71
f 76/76/76 71/71/71 65/65/65
f 76/76/76 65/65/65 77/77/77
f 79/79/79 80/80/80 60/60/60
f 79/79/79 60/60/60 59/59/59
f 79/79/79 59/59/59 54/54/54
f 79/79/79 54/54/54 77/77/77
f 79/79/79 77/77/77 65/65/65
f 79/79/79 65/65/65 64/64/64
f 79/79/79 64/64/64 63/63/63
f 79/79/79 63/63/63 80/80/80
f 81/81/81 82/82/82 69/69/69
f 81/81/81 69/69/69 68/68/68
f 81/81/81 68/68/68 67/67/67
f 81/81/81 67/67/67 83/83/83
f 81/81/81 83/83/83 84/84/84
f 81/81/81 84/84/84 85/85/85
f 81/81/81 85/85/85 86/86/86
f 81/81/81 86/86/86 82/82/82
f 87/87/87 83/83/83 67/67/67
f 87/87/87 67/67/67 75/75/75
f 87/87/87 75/75/75 74/74/74
f 87/87/87 74/74/74 88/88/88
f 87/87/87 88/88/88 89/89/89
f 87/87/87 89/89/89 90/90/90
f 87/87/87 90/90/90 84/84/84
f 87/87/87 84/84/84 83/83/83
f 91/91/91 92/92/92 38/38/38
f 91/91/91 38/38/38 37/37/37
f 91/91/91 37/37/37 18/18/18
f 91/91/91 18/18/18 93/93/93
f 91/91/91 93/93/93 69/69/69
f 91/91/91 69/69/69 82/82/82
f 91/91/91 82/82/82 94/94/94
f 91/91/91 94/94/94 92/92/92
f 95/95/95 96/96/96 44/44/44
f 95/95/95 44/44/44 43/43/43
f 95/95/95 43/43/43 40/40/40
f 95/95/95 40/40/40 97/97/97
f 95/95/95 97/97/97 84/84/84
f 95/95/95 84/84/84 90/90/90
f 95/95/95 90/90/90 98/98/98
f 95/95/95 98/98/98 96/96/96
f 99/99/99 100/100/100 7/7/7
f 99/99/99 7/7/7 6/6/6
f 99/99/99 6/6/6 5/5/5
f 99/99/99 5/5/5 101/101/101
f 99/99/99 101/101/101 52/52/52
f 99/99/99 52/52/52 51/51/51
f 99/99/99 51/51/51 102/102/102
f 99/99/99 102/102/102 100/100/100
f 103/103/103 104/104/104 15/15/15
f 103/103/103 15/15/15 14/14/14
f 103/103/103 14/14/14 9/9/9
f 103/103/103 9/9/9 105/105/105
f 103/103/103 105/105/105 48/48/48
f 103/103/103 48/48/48 58/58/58
f 103/103/103 58/58/58 106/106/106
f 103/103/103 106/106/106 104/104/104
f 107/107/107 108/108/108 12/12/12
f 107/107/107 12/12/12 11/11/11
f 107/107/107 11/11/11 15/15/15
f 107/107/107 15/15/15 104/104/104
f 107/107/107 104/104/104 106/106/106
f 107/107/107 106/106/106 56/56/56
f 107/107/107 56/56/56 60/60/60
f 107/107/107 60/60/60 108/108/108
f 109/109/109 97/97/97 40/40/40
f 109/109/109 40/40/40 39/39/39
f 109/109/109 39/39/39 38/38/38
f 109/109/109 38/38/38 92/92/92
f 109/109/109 92/92/92 94/94/94
f 109/109/109 94/94/94 85/85/85
f 109/109/109 85/85/85 84/84/84
f 109/109/109 84/84/84 97/97/97
f 110/110/110 111/111/111 27/27/27
f 110/110/110 27/27/27 45/45/45
f 110/110/110 45/45/45 44/44/44
f 110/110/110 44/44/44 96/96/96
f 110/110/110 96/96/96 98/98/98
f 110/110/110 98/98/98 88/88/88
f 110/110/110 88/88/88 74/74/74
f 110/110/110 74/74/74 111/111/111
f 112/112/112 105/105/105 9/9/9
f 112/112/112 9/9/9 8/8/8
f 112/112/112 8/8/8 7/7/7
f 112/112/112 7/7/7 100/100/100
f 112/112/112 100/100/100 102/102/102
f 112/112/112 102/102/102 49/49/49
f 112/112/112 49/49/49 48/48/48
f 112/112/112 48/48/48 105/105/105
f 113/113/113 101/101/101 5/5/5
f 113/113/113 5/5/5 33/33/33
f 113/113/113 33/33/33 29/29/29
f 113/113/113 29/29/29 114/114/114
f 113/113/113 114/114/114 72/72/72
f 113/113/113 72/72/72 78/78/78
f 113/113/113 78/78/78 52/52/52
f 113/113/113 52/52/52 101/101/101
f 115/115/115 116/116/116 24/24/24
f 115/115/115 24/24/24 35/35/35
f 115/115/115 35/35/35 12/12/12
f 115/115/115 12/12/12 108/108/108
f 115/115/115 108/108/108 60/60/60
f 115/115/115 60/60/60 80/80/80
f 115/115/115 80/80/80 63/63/63
f 115/115/115 63/63/63 116/116/116
f 117/117/117 93/93/93 18/18/18
f 117/117/117 18/18/18 17/17/17
f 117/117/117 17/17/17 24/24/24
f 117/117/117 24/24/24 116/116/116
f 117/117/117 116/116/116 63/63/63
f 117/117/117 63/63/63 62/62/62
f 117/117/117 62/62/62 69/69/69
f 117/117/117 69/69/69 93/93/93
f 118/118/118 114/114/114 29/29/29
f 118/118/118 29/29/29 28/28/28
f 118/118/118 28/28/28 27/27/27
f 118/118/118 27/27/27 111/111/111
f 118/118/118 111/111/111 74/74/74
f 118/118/118 74/74/74 73/73/73
f 118/118/118 73/73/73 72/72/72
f 118/118/118 72/72/72 114/114/114
