v -2.439994 0.771786 -1.110713
v -2.441789 0.771813 -1.111639
v -2.442069 0.769732 -1.109959
v -2.439987 0.769896 -1.109135
v -2.438472 0.770044 -1.108291
v -2.438715 0.771658 -1.109672
v -2.439173 0.772512 -1.110778
v -2.440049 0.773054 -1.111927
v -2.441564 0.773279 -1.112939
v -2.443795 0.77159 -1.111591
v -2.445382 0.771314 -1.111212
v -2.446045 0.769653 -1.110041
v -2.444308 0.769673 -1.110133
v -2.443339 0.772884 -1.112688
v -2.444572 0.772233 -1.112026
v -2.444826 0.762329 -1.10605
v -2.446468 0.762315 -1.106217
v -2.446126 0.759646 -1.10514
v -2.44467 0.759656 -1.105004
v -2.442763 0.759704 -1.104714
v -2.442672 0.762386 -1.10571
v -2.442535 0.764981 -1.10688
v -2.444793 0.764932 -1.107218
v -2.446518 0.764931 -1.107366
v -2.440592 0.762548 -1.105071
v -2.440927 0.759849 -1.104139
v -2.439565 0.759985 -1.103624
v -2.43905 0.762699 -1.104503
v -2.438758 0.765332 -1.105573
v -2.440365 0.765161 -1.106195
v -2.440137 0.767649 -1.107589
v -2.442327 0.767442 -1.108335
v -2.438526 0.767858 -1.106881
v -2.44463 0.767416 -1.108627
v -2.4464 0.767451 -1.1087
v -2.44427 0.756958 -1.103965
v -2.445369 0.756964 -1.104022
v -2.44466 0.755454 -1.103427
v -2.443874 0.754915 -1.103212
v -2.442882 0.754918 -1.10313
v -2.442838 0.756983 -1.103781
v -2.441476 0.757102 -1.103319
v -2.441959 0.755014 -1.102769
v -2.441215 0.755632 -1.102631
v -2.440469 0.757217 -1.10289
v -2.439922 0.771662 -1.110868
v -2.441745 0.771686 -1.111801
v -2.441531 0.773181 -1.113059
v -2.439993 0.772959 -1.112041
v -2.439126 0.772443 -1.110861
v -2.438647 0.771567 -1.109783
v -2.438407 0.769958 -1.108408
v -2.439917 0.769778 -1.109295
v -2.442024 0.769612 -1.110127
v -2.44378 0.771463 -1.111759
v -2.445385 0.771219 -1.11134
v -2.444571 0.772162 -1.112119
v -2.44333 0.772786 -1.112812
v -2.444288 0.769552 -1.110306
v -2.446044 0.769563 -1.110173
v -2.444796 0.762243 -1.106241
v -2.446455 0.76225 -1.106362
v -2.446507 0.764858 -1.107507
v -2.444766 0.764835 -1.107405
v -2.442488 0.764885 -1.107062
v -2.442624 0.7623 -1.105898
v -2.442715 0.759626 -1.104905
v -2.444641 0.759577 -1.105199
v -2.446113 0.759587 -1.105287
v -2.440526 0.762463 -1.105255
v -2.440298 0.765065 -1.106372
v -2.438699 0.765262 -1.105703
v -2.438992 0.762636 -1.104637
v -2.439507 0.759928 -1.103761
v -2.44086 0.759772 -1.104326
v -2.440069 0.767541 -1.107758
v -2.44228 0.767333 -1.10851
v -2.438464 0.767779 -1.107004
v -2.444606 0.767307 -1.108807
v -2.446394 0.767369 -1.108836
v -2.444241 0.756882 -1.104161
v -2.445357 0.756907 -1.104171
v -2.44279 0.756908 -1.103974
v -2.442846 0.754862 -1.103274
v -2.443853 0.754859 -1.103359
v -2.444649 0.755412 -1.103537
v -2.441408 0.757028 -1.103506
v -2.440409 0.757163 -1.103027
v -2.441173 0.755591 -1.102733
v -2.441908 0.75496 -1.102909
v -2.445732 0.756941 -1.104108
v -2.444676 0.754918 -1.103251
v -2.446608 0.759616 -1.105251
v -2.444649 0.755412 -1.103537
v -2.442097 0.754294 -1.102648
v -2.441225 0.755096 -1.102454
v -2.442881 0.754205 -1.102977
v -2.441173 0.755591 -1.102733
v -2.438255 0.771576 -1.109373
v -2.438948 0.77264 -1.110769
v -2.437935 0.770056 -1.108061
v -2.439126 0.772443 -1.110861
v -2.443183 0.773272 -1.113108
v -2.444789 0.772338 -1.112118
v -2.441475 0.773723 -1.113425
v -2.444571 0.772162 -1.112119
v -2.445915 0.77118 -1.111143
v -2.446627 0.769607 -1.11007
v -2.443733 0.75421 -1.103026
v -2.440105 0.757232 -1.102807
v -2.439083 0.760005 -1.103512
v -2.440042 0.773434 -1.112382
v -2.437959 0.767893 -1.106698
v -2.438194 0.765358 -1.105423
v -2.44699 0.767426 -1.108785
v -2.44709 0.764898 -1.107478
v -2.447011 0.762282 -1.106337
v -2.438508 0.762721 -1.104372
vn -0.4115 0.603 0.6833
vn -0.2035 0.6453 0.7364
vn -0.2096 0.5985 0.7732
vn -0.396 0.5595 0.728
vn -0.3896 0.5405 0.7457
vn -0.4044 0.6042 0.6866
vn -0.412 0.6468 0.6417
vn -0.364 0.6793 0.6371
vn -0.1925 0.7137 0.6735
vn 0.0098 0.6248 0.7807
vn 0.0016 0.6253 0.7803
vn -0.031 0.559 0.8285
vn -0.0193 0.579 0.8151
vn -0.0199 0.6971 0.7167
vn 0.024 0.6694 0.7425
vn -0.1198 0.3816 0.9165
vn -0.1569 0.3732 0.9143
vn -0.161 0.343 0.9254
vn -0.1131 0.3507 0.9296
vn -0.2284 0.3378 0.9131
vn -0.2269 0.3776 0.8977
vn -0.2227 0.4553 0.862
vn -0.1028 0.451 0.8866
vn -0.1309 0.4353 0.8907
vn -0.3313 0.3707 0.8676
vn -0.3401 0.3391 0.8771
vn -0.2946 0.3361 0.8946
vn -0.2964 0.366 0.8821
vn -0.3154 0.4258 0.848
vn -0.3402 0.4387 0.8317
vn -0.3644 0.5096 0.7794
vn -0.2161 0.5372 0.8153
vn -0.3507 0.489 0.7986
vn -0.0652 0.5251 0.8485
vn -0.0839 0.5028 0.8603
vn -0.0879 0.3375 0.9372
vn -0.1393 0.3253 0.9353
vn -0.108 0.3098 0.9446
vn -0.0674 0.2836 0.9565
vn -0.2301 0.2648 0.9364
vn -0.229 0.3189 0.9197
vn -0.3646 0.3233 0.8732
vn -0.3862 0.2671 0.8829
vn -0.3471 0.2974 0.8894
vn -0.3165 0.3162 0.8943
vn 0.4391 -0.5792 -0.6868
vn 0.2052 -0.6326 -0.7467
vn 0.2114 -0.5823 -0.785
vn 0.5186 -0.5056 -0.6895
vn 0.6176 -0.4494 -0.6454
vn 0.5975 -0.4653 -0.6531
vn 0.5393 -0.4837 -0.6893
vn 0.4101 -0.5557 -0.7232
vn 0.2096 -0.5986 -0.7731
vn -0.0352 -0.6037 -0.7964
vn -0.2025 -0.5067 -0.838
vn -0.2254 -0.493 -0.8403
vn -0.1123 -0.5382 -0.8353
vn 0.0043 -0.5766 -0.817
vn -0.133 -0.5186 -0.8446
vn 0.1036 -0.3829 -0.9179
vn -0.0091 -0.3899 -0.9208
vn -0.0233 -0.4375 -0.8989
vn 0.0879 -0.4512 -0.8881
vn 0.2227 -0.4552 -0.8621
vn 0.227 -0.3774 -0.8978
vn 0.2285 -0.3377 -0.9131
vn 0.0942 -0.3541 -0.9304
vn -0.034 -0.3866 -0.9216
vn 0.3465 -0.3703 -0.8618
vn 0.3543 -0.4375 -0.8265
vn 0.4571 -0.4127 -0.7879
vn 0.4493 -0.3661 -0.8149
vn 0.4715 -0.3605 -0.8047
vn 0.3576 -0.3405 -0.8696
vn 0.378 -0.5075 -0.7743
vn 0.2162 -0.5371 -0.8153
vn 0.4893 -0.4624 -0.7393
vn 0.0507 -0.5244 -0.8499
vn -0.0685 -0.4913 -0.8683
vn 0.0617 -0.3562 -0.9323
vn -0.0901 -0.4156 -0.9051
vn 0.2287 -0.3304 -0.9157
vn 0.2268 -0.3804 -0.8965
vn -0.014 -0.4202 -0.9073
vn -0.1234 -0.4375 -0.8907
vn 0.3877 -0.3393 -0.857
vn 0.5172 -0.3842 -0.7647
vn 0.5429 -0.4031 -0.7367
vn 0.4507 -0.3963 -0.7998
vn -0.9397 -0.3247 0.1077
vn -0.7248 -0.6208 0.2986
vn -0.9783 -0.2065 0.0127
vn -0.1234 -0.4375 -0.8907
vn 0.1926 -0.8896 0.4142
vn 0.5777 -0.5538 0.5996
vn -0.0016 -0.9746 0.2237
vn 0.5429 -0.4031 -0.7367
vn 0.83 0.4956 0.2561
vn 0.7213 0.6922 0.0244
vn 0.8764 0.3185 0.3612
vn 0.6176 -0.4494 -0.6454
vn -0.4024 0.6913 -0.6001
vn -0.7228 0.6176 -0.3099
vn 0.1218 0.7156 -0.6877
vn -0.2254 -0.493 -0.8403
vn -0.9025 0.4057 -0.1443
vn -0.9726 0.2228 -0.066
vn -0.267 -0.9131 0.3079
vn 0.8248 -0.2332 0.5151
vn 0.8892 -0.1099 0.4441
vn 0.5547 0.7407 -0.3789
vn 0.8983 0.1777 0.4019
vn 0.9085 0.0916 0.4076
vn -0.9961 0.08 -0.036
vn -0.9994 -0.0072 -0.0333
vn -0.9951 -0.0934 -0.0308
vn 0.9121 0.0056 0.4098
vt 0.839504 0.118056
vt 0.856743 0.205307
vt 0.741230 0.205307
vt 0.734555 0.106726
vt 0.724541 0.032791
vt 0.813647 0.052618
vt 0.868992 0.081539
vt 0.913398 0.129584
vt 0.940923 0.205307
vt 0.839504 0.292557
vt 0.813647 0.357995
vt 0.724541 0.377822
vt 0.734555 0.303887
vt 0.913398 0.281029
vt 0.868992 0.329074
vt 0.369475 0.299954
vt 0.368286 0.370940
vt 0.245840 0.351447
vt 0.246397 0.288815
vt 0.246768 0.205307
vt 0.370268 0.205307
vt 0.494283 0.205307
vt 0.492822 0.304944
vt 0.490632 0.379672
vt 0.369475 0.110659
vt 0.246397 0.121798
vt 0.245841 0.059166
vt 0.368286 0.039673
vt 0.490632 0.030941
vt 0.492822 0.105669
vt 0.616755 0.103478
vt 0.619174 0.205307
vt 0.613127 0.027106
vt 0.616755 0.307135
vt 0.613126 0.383507
vt 0.123273 0.268175
vt 0.123047 0.315326
vt 0.054743 0.283353
vt 0.030912 0.249131
vt 0.030973 0.205306
vt 0.123423 0.205306
vt 0.123273 0.142438
vt 0.030912 0.161481
vt 0.054744 0.127260
vt 0.123047 0.095287
vt 0.839504 0.118056
vt 0.856743 0.205307
vt 0.968983 0.205307
vt 0.938030 0.133427
vt 0.876123 0.061548
vt 0.805028 0.030806
vt 0.721203 0.008146
vt 0.734555 0.106726
vt 0.741230 0.205307
vt 0.839504 0.292557
vt 0.805028 0.379807
vt 0.876123 0.349065
vt 0.938030 0.277186
vt 0.734555 0.303887
vt 0.721203 0.402467
vt 0.369475 0.299954
vt 0.367890 0.394602
vt 0.489902 0.404581
vt 0.492822 0.304944
vt 0.494283 0.205307
vt 0.370268 0.205307
vt 0.246768 0.205307
vt 0.246397 0.288815
vt 0.245655 0.372324
vt 0.369475 0.110659
vt 0.492822 0.105669
vt 0.489902 0.006032
vt 0.367890 0.016011
vt 0.245655 0.038289
vt 0.246397 0.121798
vt 0.616755 0.103478
vt 0.619174 0.205307
vt 0.611917 0.001649
vt 0.616755 0.307135
vt 0.611917 0.408964
vt 0.123273 0.268175
vt 0.122972 0.331043
vt 0.123423 0.205306
vt 0.000156 0.205306
vt 0.000125 0.242784
vt 0.000064 0.280261
vt 0.123273 0.142438
vt 0.122972 0.079570
vt 0.000064 0.130352
vt 0.000125 0.167829
vt 0.122972 0.331043
vt 0.030806 0.283587
vt 0.245655 0.372324
vt 0.030806 0.283587
vt 0.000125 0.167829
vt 0.030806 0.127026
vt 0.000156 0.205306
vt 0.030806 0.127026
vt 0.805028 0.030806
vt 0.873826 0.071832
vt 0.721203 0.008146
vt 0.873826 0.071832
vt 0.938030 0.277186
vt 0.873826 0.338781
vt 0.968983 0.205307
vt 0.873826 0.338781
vt 0.805028 0.379807
vt 0.721203 0.402467
vt 0.000125 0.242784
vt 0.122972 0.079570
vt 0.245655 0.038289
vt 0.938030 0.133427
vt 0.611917 0.001649
vt 0.489902 0.006032
vt 0.611917 0.408964
vt 0.489902 0.404581
vt 0.367890 0.394602
vt 0.367890 0.016011
f 1/1/1 2/2/2 3/3/3
f 1/1/1 3/3/3 4/4/4
f 1/1/1 4/4/4 5/5/5
f 1/1/1 5/5/5 6/6/6
f 1/1/1 6/6/6 7/7/7
f 1/1/1 7/7/7 8/8/8
f 1/1/1 8/8/8 9/9/9
f 1/1/1 9/9/9 2/2/2
f 10/10/10 11/11/11 12/12/12
f 10/10/10 12/12/12 13/13/13
f 10/10/10 13/13/13 3/3/3
f 10/10/10 3/3/3 2/2/2
f 10/10/10 2/2/2 9/9/9
f 10/10/10 9/9/9 14/14/14
f 10/10/10 14/14/14 15/15/15
f 10/10/10 15/15/15 11/11/11
f 16/16/16 17/17/17 18/18/18
f 16/16/16 18/18/18 19/19/19
f 16/16/16 19/19/19 20/20/20
f 16/16/16 20/20/20 21/21/21
f 16/16/16 21/21/21 22/22/22
f 16/16/16 22/22/22 23/23/23
f 16/16/16 23/23/23 24/24/24
f 16/16/16 24/24/24 17/17/17
f 25/25/25 21/21/21 20/20/20
f 25/25/25 20/20/20 26/26/26
f 25/25/25 26/26/26 27/27/27
f 25/25/25 27/27/27 28/28/28
f 25/25/25 28/28/28 29/29/29
f 25/25/25 29/29/29 30/30/30
f 25/25/25 30/30/30 22/22/22
f 25/25/25 22/22/22 21/21/21
f 31/31/31 32/32/32 22/22/22
f 31/31/31 22/22/22 30/30/30
f 31/31/31 30/30/30 29/29/29
f 31/31/31 29/29/29 33/33/33
f 31/31/31 33/33/33 5/5/5
f 31/31/31 5/5/5 4/4/4
f 31/31/31 4/4/4 3/3/3
f 31/31/31 3/3/3 32/32/32
f 34/34/34 35/35/35 24/24/24
f 34/34/34 24/24/24 23/23/23
f 34/34/34 23/23/23 22/22/22
f 34/34/34 22/22/22 32/32/32
f 34/34/34 32/32/32 3/3/3
f 34/34/34 3/3/3 13/13/13
f 34/34/34 13/13/13 12/12/12
f 34/34/34 12/12/12 35/35/35
f 36/36/36 37/37/37 38/38/38
f 36/36/36 38/38/38 39/39/39
f 36/36/36 39/39/39 40/40/40
f 36/36/36 40/40/40 41/41/41
f 36/36/36 41/41/41 20/20/20
f 36/36/36 20/20/20 19/19/19
f 36/36/36 19/19/19 18/18/18
f 36/36/36 18/18/18 37/37/37
f 42/42/42 41/41/41 40/40/40
f 42/42/42 40/40/40 43/43/43
f 42/42/42 43/43/43 44/44/44
f 42/42/42 44/44/44 45/45/45
f 42/42/42 45/45/45 27/27/27
f 42/42/42 27/27/27 26/26/26
f 42/42/42 26/26/26 20/20/20
f 42/42/42 20/20/20 41/41/41
f 46/46/46 47/47/47 48/48/48
f 46/46/46 48/48/48 49/49/49
f 46/46/46 49/49/49 50/50/50
f 46/46/46 50/50/50 51/51/51
f 46/46/46 51/51/51 52/52/52
f 46/46/46 52/52/52 53/53/53
f 46/46/46 53/53/53 54/54/54
f 46/46/46 54/54/54 47/47/47
f 55/55/55 56/56/56 57/57/57
f 55/55/55 57/57/57 58/58/58
f 55/55/55 58/58/58 48/48/48
f 55/55/55 48/48/48 47/47/47
f 55/55/55 47/47/47 54/54/54
f 55/55/55 54/54/54 59/59/59
f 55/55/55 59/59/59 60/60/60
f 55/55/55 60/60/60 56/56/56
f 61/61/61 62/62/62 63/63/63
f 61/61/61 63/63/63 64/64/64
f 61/61/61 64/64/64 65/65/65
f 61/61/61 65/65/65 66/66/66
f 61/61/61 66/66/66 67/67/67
f 61/61/61 67/67/67 68/68/68
f 61/61/61 68/68/68 69/69/69
f 61/61/61 69/69/69 62/62/62
f 70/70/70 66/66/66 65/65/65
f 70/70/70 65/65/65 71/71/71
f 70/70/70 71/71/71 72/72/72
f 70/70/70 72/72/72 73/73/73
f 70/70/70 73/73/73 74/74/74
f 70/70/70 74/74/74 75/75/75
f 70/70/70 75/75/75 67/67/67
f 70/70/70 67/67/67 66/66/66
f 76/76/76 77/77/77 54/54/54
f 76/76/76 54/54/54 53/53/53
f 76/76/76 53/53/53 52/52/52
f 76/76/76 52/52/52 78/78/78
f 76/76/76 78/78/78 72/72/72
f 76/76/76 72/72/72 71/71/71
f 76/76/76 71/71/71 65/65/65
f 76/76/76 65/65/65 77/77/77
f 79/79/79 80/80/80 60/60/60
f 79/79/79 60/60/60 59/59/59
f 79/79/79 59/59/59 54/54/54
f 79/79/79 54/54/54 77/77/77
f 79/79/79 77/77/77 65/65/65
f 79/79/79 65/65/65 64/64/64
f 79/79/79 64/64/64 63/63/63
f 79/79/79 63/63/63 80/80/80
f 81/81/81 82/82/82 69/69/69
f 81/81/81 69/69/69 68/68/68
f 81/81/81 68/68/68 67/67/67
f 81/81/81 67/67/67 83/83/83
f 81/81/81 83/83/83 84/84/84
f 81/81/81 84/84/84 85/85/85
f 81/81/81 85/85/85 86/86/86
f 81/81/81 86/86/86 82/82/82
f 87/87/87 83/83/83 67/67/67
f 87/87/87 67/67/67 75/75/75
f 87/87/87 75/75/75 74/74/74
f 87/87/87 74/74/74 88/88/88
f 87/87/87 88/88/88 89/89/89
f 87/87/87 89/89/89 90/90/90
f 87/87/87 90/90/90 84/84/84
f 87/87/87 84/84/84 83/83/83
f 91/91/91 92/92/92 38/38/38
f 91/91/91 38/38/38 37/37/37
f 91/91/91 37/37/37 18/18/18
f 91/91/91 18/18/18 93/93/93
f 91/91/91 93/93/93 69/69/69
f 91/91/91 69/69/69 82/82/82
f 91/91/91 82/82/82 94/94/94
f 91/91/91 94/94/94 92/92/92
f 95/95/95 96/96/96 44/44/44
f 95/95/95 44/44/44 43/43/43
f 95/95/95 43/43/43 40/40/40
f 95/95/95 40/40/40 97/97/97
f 95/95/95 97/97/97 84/84/84
f 95/95/95 84/84/84 90/90/90
f 95/95/95 90/90/90 98/98/98
f 95/95/95 98/98/98 96/96/96
f 99/99/99 100/100/100 7/7/7
f 99/99/99 7/7/7 6/6/6
f 99/99/99 6/6/6 5/5/5
f 99/99/99 5/5/5 101/101/101
f 99/99/99 101/101/101 52/52/52
f 99/99/99 52/52/52 51/51/51
f 99/99/99 51/51/51 102/102/102
f 99/99/99 102/102/102 100/100/100
f 103/103/103 104/104/104 15/15/15
f 103/103/103 15/15/15 14/14/14
f 103/103/103 14/14/14 9/9/9
f 103/103/103 9/9/9 105/105/105
f 103/103/103 105/105/105 48/48/48
f 103/103/103 48/48/48 58/58/58
f 103/103/103 58/58/58 106/106/106
f 103/103/103 106/106/106 104/104/104
f 107/107/107 108/108/108 12/12/12
f 107/107/107 12/12/12 11/11/11
f 107/107/107 11/11/11 15/15/15
f 107/107/107 15/15/15 104/104/104
f 107/107/107 104/104/104 106/106/106
f 107/107/107 106/106/106 56/56/56
f 107/107/107 56/56/56 60/60/60
f 107/107/107 60/60/60 108/108/108
f 109/109/109 97/97/97 40/40/40
f 109/109/109 40/40/40 39/39/39
f 109/109/109 39/39/39 38/38/38
f 109/109/109 38/38/38 92/92/92
f 109/109/109 92/92/92 94/94/94
f 109/109/109 94/94/94 85/85/85
f 109/109/109 85/85/85 84/84/84
f 109/109/109 84/84/84 97/97/97
f 110/110/110 111/111/111 27/27/27
f 110/110/110 27/27/27 45/45/45
f 110/110/110 45/45/45 44/44/44
f 110/110/110 44/44/44 96/96/96
f 110/110/110 96/96/96 98/98/98
f 110/110/110 98/98/98 88/88/88
f 110/110/110 88/88/88 74/74/74
f 110/110/110 74/74/74 111/111/111
f 112/112/112 105/105/105 9/9/9
f 112/112/112 9/9/9 8/8/8
f 112/112/112 8/8/8 7/7/7
f 112/112/112 7/7/7 100/100/100
f 112/112/112 100/100/100 102/102/102
f 112/112/112 102/102/102 49/49/49
f 112/112/112 49/49/49 48/48/48
f 112/112/112 48/48/48 105/105/105
f 113/113/113 101/101/101 5/5/5
f 113/113/113 5/5/5 33/33/33
f 113/113/113 33/33/33 29/29/29
f 113/113/113 29/29/29 114/114/114
f 113/113/113 114/114/114 72/72/72
f 113/113/113 72/72/72 78/78/78
f 113/113/113 78/78/78 52/52/52
f 113/113/113 52/52/52 101/101/101
f 115/115/115 116/116/116 24/24/24
f 115/115/115 24/24/24 35/35/35
f 115/115/115 35/35/35 12/12/12
f 115/115/115 12/12/12 108/108/108
f 115/115/115 108/108/108 60/60/60
f 115/115/115 60/60/60 80/80/80
f 115/115/115 80/80/80 63/63/63
f 115/115/115 63/63/63 116/116/116
f 117/117/117 93/93/93 18/18/18
f 117/117/117 18/18/18 17/17/17
f 117/117/117 17/17/17 24/24/24
f 117/117/117 24/24/24 116/116/116
f 117/117/117 116/116/116 63/63/63
f 117/117/117 63/63/63 62/62/62
f 117/117/117 62/62/62 69/69/69
f 117/117/117 69/69/69 93/93/93
f 118/118/118 114/114/114 29/29/29
f 118/118/118 29/29/29 28/28/28
f 118/118/118 28/28/28 27/27/27
f 118/118/118 27/27/27 111/111/111
f 118/118/118 111/111/111 74/74/74
f 118/118/118 74/74/74 73/73/73
f 118/118/118 73/73/73 72/72/72
f 118/118/118 72/72/72 114/114/114
