v -2.314789 0.768368 -1.216406
v -2.312517 0.768403 -1.216459
v -2.313147 0.766242 -1.218481
v -2.315649 0.766396 -1.218154
v -2.3176 0.766564 -1.218152
v -2.316615 0.768256 -1.216755
v -2.315565 0.769134 -1.215823
v -2.314079 0.769678 -1.215107
v -2.312037 0.769913 -1.214905
v -2.310561 0.76826 -1.217608
v -2.3092 0.768067 -1.218863
v -2.309177 0.766348 -1.220547
v -2.310844 0.766273 -1.21952
v -2.31042 0.769585 -1.216148
v -2.30956 0.76898 -1.217531
v -2.312538 0.758451 -1.224591
v -2.310826 0.758504 -1.225312
v -2.311745 0.755595 -1.22647
v -2.313256 0.755545 -1.225819
v -2.315296 0.755529 -1.225073
v -2.314848 0.758436 -1.22376
v -2.314351 0.761229 -1.222262
v -2.311939 0.761257 -1.223149
v -2.310156 0.76133 -1.223932
v -2.317246 0.758571 -1.223252
v -2.31742 0.755651 -1.224635
v -2.319042 0.755782 -1.224395
v -2.319076 0.758715 -1.222966
v -2.318786 0.761551 -1.221478
v -2.316864 0.761383 -1.221748
v -2.316336 0.76403 -1.219992
v -2.313771 0.763841 -1.220459
v -2.318309 0.764248 -1.2198
v -2.311338 0.763902 -1.221413
v -2.309551 0.764024 -1.22229
v -2.314213 0.752598 -1.226911
v -2.313097 0.752656 -1.227445
v -2.314118 0.750983 -1.227809
v -2.315011 0.75036 -1.227655
v -2.316034 0.75032 -1.227201
v -2.315725 0.75257 -1.226318
v -2.31732 0.752677 -1.226027
v -2.31714 0.750414 -1.227049
v -2.317949 0.75108 -1.226719
v -2.318546 0.752795 -1.225895
v -2.314777 0.768211 -1.216228
v -2.312473 0.768243 -1.216289
v -2.312004 0.769791 -1.214779
v -2.314072 0.769558 -1.214976
v -2.315566 0.769046 -1.215724
v -2.316622 0.76814 -1.216619
v -2.317601 0.766453 -1.218011
v -2.315631 0.766246 -1.217971
v -2.313101 0.766089 -1.218305
v -2.310486 0.768101 -1.217449
v -2.309128 0.767949 -1.21875
v -2.309511 0.768892 -1.217446
v -2.310362 0.769463 -1.216031
v -2.310769 0.766122 -1.219353
v -2.309108 0.766236 -1.220427
v -2.312464 0.758335 -1.224396
v -2.31076 0.758417 -1.225169
v -2.310091 0.761235 -1.223795
v -2.311865 0.761129 -1.222961
v -2.314299 0.761101 -1.222067
v -2.314794 0.75832 -1.223559
v -2.31524 0.755421 -1.224867
v -2.31318 0.755437 -1.22562
v -2.311678 0.755515 -1.226324
v -2.317212 0.758456 -1.223046
v -2.316834 0.761256 -1.221549
v -2.318774 0.761457 -1.221325
v -2.319061 0.758629 -1.222809
v -2.319026 0.755702 -1.224234
v -2.317384 0.755544 -1.224424
v -2.316312 0.76389 -1.2198
v -2.313722 0.7637 -1.220274
v -2.318303 0.764145 -1.219653
v -2.311265 0.763761 -1.221236
v -2.309484 0.763919 -1.222161
v -2.314135 0.752493 -1.226711
v -2.313028 0.752578 -1.227299
v -2.315669 0.752466 -1.226111
v -2.315992 0.750242 -1.227046
v -2.314951 0.750282 -1.227505
v -2.31407 0.750925 -1.2277
v -2.317286 0.752574 -1.225815
v -2.318532 0.752718 -1.225734
v -2.317936 0.751023 -1.2266
v -2.317115 0.750337 -1.226889
v -2.312692 0.75264 -1.227559
v -2.314197 0.7504 -1.228047
v -2.31121 0.755576 -1.226623
v -2.31407 0.750925 -1.2277
v -2.317069 0.749625 -1.227319
v -2.318035 0.750498 -1.226955
v -2.316118 0.749535 -1.227426
v -2.317936 0.751023 -1.2266
v -2.31723 0.768168 -1.21681
v -2.315792 0.769265 -1.215698
v -2.318255 0.76657 -1.218088
v -2.315566 0.769046 -1.215724
v -2.310346 0.769972 -1.21561
v -2.309295 0.769099 -1.217546
v -2.311862 0.770361 -1.214332
v -2.309511 0.768892 -1.217446
v -2.308711 0.76795 -1.219233
v -2.308588 0.766323 -1.220837
v -2.31525 0.749579 -1.227836
v -2.318951 0.7528 -1.225779
v -2.319578 0.75579 -1.224243
v -2.31384 0.770061 -1.214617
v -2.318967 0.764275 -1.21967
v -2.319424 0.761565 -1.221319
v -2.308923 0.764018 -1.222526
v -2.30953 0.761312 -1.224133
v -2.310224 0.758483 -1.225489
v -2.319682 0.758724 -1.2228
vn 0.0329 0.6754 -0.7367
vn -0.175 0.7124 -0.6795
vn -0.1874 0.6692 -0.719
vn -0.0021 0.6351 -0.7724
vn -0.0164 0.6173 -0.7865
vn 0.0248 0.6765 -0.736
vn 0.0532 0.7156 -0.6965
vn 0.0134 0.7454 -0.6665
vn -0.1545 0.7748 -0.6129
vn -0.3835 0.6861 -0.6182
vn -0.3762 0.6869 -0.6218
vn -0.3706 0.6264 -0.6858
vn -0.3744 0.6446 -0.6666
vn -0.3266 0.7541 -0.5698
vn -0.3776 0.7267 -0.5739
vn -0.3349 0.461 -0.8217
vn -0.3013 0.4542 -0.8384
vn -0.3031 0.4252 -0.8528
vn -0.3471 0.4311 -0.8329
vn -0.238 0.4221 -0.8748
vn -0.2319 0.4603 -0.8569
vn -0.2185 0.5346 -0.8164
vn -0.3354 0.5269 -0.7809
vn -0.3128 0.5129 -0.7994
vn -0.1259 0.4557 -0.8812
vn -0.1229 0.4254 -0.8966
vn -0.171 0.4219 -0.8904
vn -0.1634 0.4507 -0.8776
vn -0.1304 0.5082 -0.8513
vn -0.1009 0.5209 -0.8476
vn -0.0545 0.5882 -0.8068
vn -0.2018 0.6119 -0.7648
vn -0.0757 0.5687 -0.819
vn -0.3502 0.5958 -0.7228
vn -0.3394 0.5754 -0.7441
vn -0.3728 0.4174 -0.8287
vn -0.327 0.4075 -0.8527
vn -0.3589 0.3913 -0.8473
vn -0.4002 0.3644 -0.8408
vn -0.2477 0.3515 -0.9028
vn -0.2407 0.4038 -0.8826
vn -0.0995 0.4104 -0.9064
vn -0.0852 0.3563 -0.9304
vn -0.1223 0.3852 -0.9147
vn -0.1515 0.4029 -0.9026
vn -0.0554 -0.6532 0.7551
vn 0.1785 -0.7008 0.6907
vn 0.1914 -0.654 0.7319
vn -0.1238 -0.5838 0.8024
vn -0.2317 -0.5288 0.8165
vn -0.2103 -0.5443 0.8121
vn -0.142 -0.563 0.8141
vn -0.0125 -0.6314 0.7753
vn 0.1873 -0.6693 0.719
vn 0.4133 -0.6652 0.6218
vn 0.58 -0.5644 0.5874
vn 0.6012 -0.5501 0.5796
vn 0.4995 -0.5998 0.625
vn 0.3885 -0.6417 0.6612
vn 0.5221 -0.58 0.6252
vn 0.3498 -0.4617 0.8151
vn 0.4501 -0.4637 0.7631
vn 0.4519 -0.5088 0.7327
vn 0.3493 -0.5265 0.775
vn 0.2185 -0.5344 0.8165
vn 0.2319 -0.4602 0.857
vn 0.238 -0.422 0.8748
vn 0.3641 -0.4337 0.8242
vn 0.4723 -0.4595 0.7521
vn 0.1097 -0.4555 0.8834
vn 0.086 -0.5198 0.8499
vn -0.0227 -0.4967 0.8676
vn -0.0029 -0.4522 0.8919
vn -0.0273 -0.4468 0.8942
vn 0.1038 -0.427 0.8983
vn 0.0402 -0.5863 0.8091
vn 0.2018 -0.6119 0.7647
vn -0.0742 -0.5436 0.836
vn 0.3636 -0.5946 0.7171
vn 0.4769 -0.5577 0.6793
vn 0.3935 -0.4344 0.8102
vn 0.5136 -0.4844 0.7082
vn 0.239 -0.4149 0.8779
vn 0.2315 -0.4629 0.8556
vn 0.448 -0.4926 0.746
vn 0.536 -0.5035 0.6776
vn 0.0714 -0.4262 0.9018
vn -0.0866 -0.4691 0.8789
vn -0.1224 -0.4867 0.8649
vn -0.0113 -0.4809 0.8767
vn 0.7728 -0.2713 -0.5737
vn 0.4924 -0.5605 -0.6658
vn 0.8521 -0.1601 -0.4982
vn 0.536 -0.5035 0.6776
vn -0.3682 -0.86 -0.3533
vn -0.7946 -0.528 -0.2997
vn -0.1059 -0.9518 -0.2877
vn -0.1224 -0.4867 0.8649
vn -0.8513 0.4764 0.2197
vn -0.6444 0.6583 0.389
vn -0.9422 0.3072 0.1335
vn -0.2317 -0.5288 0.8165
vn 0.6412 0.6568 0.3966
vn 0.7828 0.622 -0.0167
vn 0.2233 0.6503 0.726
vn 0.6012 -0.5501 0.5796
vn 0.861 0.4329 -0.267
vn 0.8849 0.2602 -0.3863
vn 0.0867 -0.8715 -0.4827
vn -0.9707 -0.2271 -0.0779
vn -0.9932 -0.1132 0.0265
vn -0.3046 0.6811 0.6658
vn -0.9809 0.1695 0.0951
vn -0.9927 0.0833 0.0866
vn 0.8911 0.1215 -0.4371
vn 0.8927 0.035 -0.4493
vn 0.8877 -0.0507 -0.4575
vn -0.9969 -0.0023 0.0782
vt 0.839504 0.118056
vt 0.856743 0.205307
vt 0.741230 0.205307
vt 0.734555 0.106726
vt 0.724541 0.032791
vt 0.813647 0.052618
vt 0.868992 0.081539
vt 0.913398 0.129584
vt 0.940923 0.205307
vt 0.839504 0.292557
vt 0.813647 0.357995
vt 0.724541 0.377822
vt 0.734555 0.303887
vt 0.913398 0.281029
vt 0.868992 0.329074
vt 0.369475 0.299954
vt 0.368286 0.370940
vt 0.245840 0.351447
vt 0.246397 0.288815
vt 0.246768 0.205307
vt 0.370268 0.205307
vt 0.494283 0.205307
vt 0.492822 0.304944
vt 0.490632 0.379672
vt 0.369475 0.110659
vt 0.246397 0.121798
vt 0.245841 0.059166
vt 0.368286 0.039673
vt 0.490632 0.030941
vt 0.492822 0.105669
vt 0.616755 0.103478
vt 0.619174 0.205307
vt 0.613127 0.027106
vt 0.616755 0.307135
vt 0.613126 0.383507
vt 0.123273 0.268175
vt 0.123047 0.315326
vt 0.054743 0.283353
vt 0.030912 0.249131
vt 0.030973 0.205306
vt 0.123423 0.205306
vt 0.123273 0.142438
vt 0.030912 0.161481
vt 0.054744 0.127260
vt 0.123047 0.095287
vt 0.839504 0.118056
vt 0.856743 0.205307
vt 0.968983 0.205307
vt 0.938030 0.133427
vt 0.876123 0.061548
vt 0.805028 0.030806
vt 0.721203 0.008146
vt 0.734555 0.106726
vt 0.741230 0.205307
vt 0.839504 0.292557
vt 0.805028 0.379807
vt 0.876123 0.349065
vt 0.938030 0.277186
vt 0.734555 0.303887
vt 0.721203 0.402467
vt 0.369475 0.299954
vt 0.367890 0.394602
vt 0.489902 0.404581
vt 0.492822 0.304944
vt 0.494283 0.205307
vt 0.370268 0.205307
vt 0.246768 0.205307
vt 0.246397 0.288815
vt 0.245655 0.372324
vt 0.369475 0.110659
vt 0.492822 0.105669
vt 0.489902 0.006032
vt 0.367890 0.016011
vt 0.245655 0.038289
vt 0.246397 0.121798
vt 0.616755 0.103478
vt 0.619174 0.205307
vt 0.611917 0.001649
vt 0.616755 0.307135
vt 0.611917 0.408964
vt 0.123273 0.268175
vt 0.122972 0.331043
vt 0.123423 0.205306
vt 0.000156 0.205306
vt 0.000125 0.242784
vt 0.000064 0.280261
vt 0.123273 0.142438
vt 0.122972 0.079570
vt 0.000064 0.130352
vt 0.000125 0.167829
vt 0.122972 0.331043
vt 0.030806 0.283587
vt 0.245655 0.372324
vt 0.030806 0.283587
vt 0.000125 0.167829
vt 0.030806 0.127026
vt 0.000156 0.205306
vt 0.030806 0.127026
vt 0.805028 0.030806
vt 0.873826 0.071832
vt 0.721203 0.008146
vt 0.873826 0.071832
vt 0.938030 0.277186
vt 0.873826 0.338781
vt 0.968983 0.205307
vt 0.873826 0.338781
vt 0.805028 0.379807
vt 0.721203 0.402467
vt 0.000125 0.242784
vt 0.122972 0.079570
vt 0.245655 0.038289
vt 0.938030 0.133427
vt 0.611917 0.001649
vt 0.489902 0.006032
vt 0.611917 0.408964
vt 0.489902 0.404581
vt 0.367890 0.394602
vt 0.367890 0.016011
f 1/1/1 2/2/2 3/3/3
f 1/1/1 3/3/3 4/4/4
f 1/1/1 4/4/4 5/5/5
f 1/1/1 5/5/5 6/6/6
f 1/1/1 6/6/6 7/7/7
f 1/1/1 7/7/7 8/8/8
f 1/1/1 8/8/8 9/9/9
f 1/1/1 9/9/9 2/2/2
f 10/10/10 11/11/11 12/12/12
f 10/10/10 12/12/12 13/13/13
f 10/10/10 13/13/13 3/3/3
f 10/10/10 3/3/3 2/2/2
f 10/10/10 2/2/2 9/9/9
f 10/10/10 9/9/9 14/14/14
f 10/10/10 14/14/14 15/15/15
f 10/10/10 15/15/15 11/11/11
f 16/16/16 17/17/17 18/18/18
f 16/16/16 18/18/18 19/19/19
f 16/16/16 19/19/19 20/20/20
f 16/16/16 20/20/20 21/21/21
f 16/16/16 21/21/21 22/22/22
f 16/16/16 22/22/22 23/23/23
f 16/16/16 23/23/23 24/24/24
f 16/16/16 24/24/24 17/17/17
f 25/25/25 21/21/21 20/20/20
f 25/25/25 20/20/20 26/26/26
f 25/25/25 26/26/26 27/27/27
f 25/25/25 27/27/27 28/28/28
f 25/25/25 28/28/28 29/29/29
f 25/25/25 29/29/29 30/30/30
f 25/25/25 30/30/30 22/22/22
f 25/25/25 22/22/22 21/21/21
f 31/31/31 32/32/32 22/22/22
f 31/31/31 22/22/22 30/30/30
f 31/31/31 30/30/30 29/29/29
f 31/31/31 29/29/29 33/33/33
f 31/31/31 33/33/33 5/5/5
f 31/31/31 5/5/5 4/4/4
f 31/31/31 4/4/4 3/3/3
f 31/31/31 3/3/3 32/32/32
f 34/34/34 35/35/35 24/24/24
f 34/34/34 24/24/24 23/23/23
f 34/34/34 23/23/23 22/22/22
f 34/34/34 22/22/22 32/32/32
f 34/34/34 32/32/32 3/3/3
f 34/34/34 3/3/3 13/13/13
f 34/34/34 13/13/13 12/12/12
f 34/34/34 12/12/12 35/35/35
f 36/36/36 37/37/37 38/38/38
f 36/36/36 38/38/38 39/39/39
f 36/36/36 39/39/39 40/40/40
f 36/36/36 40/40/40 41/41/41
f 36/36/36 41/41/41 20/20/20
f 36/36/36 20/20/20 19/19/19
f 36/36/36 19/19/19 18/18/18
f 36/36/36 18/18/18 37/37/37
f 42/42/42 41/41/41 40/40/40
f 42/42/42 40/40/40 43/43/43
f 42/42/42 43/43/43 44/44/44
f 42/42/42 44/44/44 45/45/45
f 42/42/42 45/45/45 27/27/27
f 42/42/42 27/27/27 26/26/26
f 42/42/42 26/26/26 20/20/20
f 42/42/42 20/20/20 41/41/41
f 46/46/46 47/47/47 48/48/48
f 46/46/46 48/48/48 49/49/49
f 46/46/46 49/49/49 50/50/50
f 46/46/46 50/50/50 51/51/51
f 46/46/46 51/51/51 52/52/52
f 46/46/46 52/52/52 53/53/53
f 46/46/46 53/53/53 54/54/54
f 46/46/46 54/54/54 47/47/47
f 55/55/55 56/56/56 57/57/57
f 55/55/55 57/57/57 58/58/58
f 55/55/55 58/58/58 48/48/48
f 55/55/55 48/48/48 47/47/47
f 55/55/55 47/47/47 54/54/54
f 55/55/55 54/54/54 59/59/59
f 55/55/55 59/59/59 60/60/60
f 55/55/55 60/60/60 56/56/56
f 61/61/61 62/62/62 63/63/63
f 61/61/61 63/63/63 64/64/64
f 61/61/61 64/64/64 65/65/65
f 61/61/61 65/65/65 66/66/66
f 61/61/61 66/66/66 67/67/67
f 61/61/61 67/67/67 68/68/68
f 61/61/61 68/68/68 69/69/69
f 61/61/61 69/69/69 62/62/62
f 70/70/70 66/66/66 65/65/65
f 70/70/70 65/65/65 71/71/71
f 70/70/70 71/71/71 72/72/72
f 70/70/70 72/72/72 73/73/73
f 70/70/70 73/73/73 74/74/74
f 70/70/70 74/74/74 75/75/75
f 70/70/70 75/75/75 67/67/67
f 70/70/70 67/67/67 66/66/66
f 76/76/76 77/77/77 54/54/54
f 76/76/76 54/54/54 53/53/53
f 76/76/76 53/53/53 52/52/52
f 76/76/76 52/52/52 78/78/78
f 76/76/76 78/78/78 72/72/72
f 76/76/76 72/72/72 71/71/71
f 76/76/76 71/71/71 65/65/65
f 76/76/76 65/65/65 77/77/77
f 79/79/79 80/80/80 60/60/60
f 79/79/79 60/60/60 59/59/59
f 79/79/79 59/59/59 54/54/54
f 79/79/79 54/54/54 77/77/77
f 79/79/79 77/77/77 65/65/65
f 79/79/79 65/65/65 64/64/64
f 79/79/79 64/64/64 63/63/63
f 79/79/79 63/63/63 80/80/80
f 81/81/81 82/82/82 69/69/69
f 81/81/81 69/69/69 68/68/68
f 81/81/81 68/68/68 67/67/67
f 81/81/81 67/67/67 83/83/83
f 81/81/81 83/83/83 84/84/84
f 81/81/81 84/84/84 85/85/85
f 81/81/81 85/85/85 86/86/86
f 81/81/81 86/86/86 82/82/82
f 87/87/87 83/83/83 67/67/67
f 87/87/87 67/67/67 75/75/75
f 87/87/87 75/75/75 74/74/74
f 87/87/87 74/74/74 88/88/88
f 87/87/87 88/88/88 89/89/89
f 87/87/87 89/89/89 90/90/90
f 87/87/87 90/90/90 84/84/84
f 87/87/87 84/84/84 83/83/83
f 91/91/91 92/92/92 38/38/38
f 91/91/91 38/38/38 37/37/37
f 91/91/91 37/37/37 18/18/18
f 91/91/91 18/18/18 93/93/93
f 91/91/91 93/93/93 69/69/69
f 91/91/91 69/69/69 82/82/82
f 91/91/91 82/82/82 94/94/94
f 91/91/91 94/94/94 92/92/92
f 95/95/95 96/96/96 44/44/44
f 95/95/95 44/44/44 43/43/43
f 95/95/95 43/43/43 40/40/40
f 95/95/95 40/40/40 97/97/97
f 95/95/95 97/97/97 84/84/84
f 95/95/95 84/84/84 90/90/90
f 95/95/95 90/90/90 98/98/98
f 95/95/95 98/98/98 96/96/96
f 99/99/99 100/100/100 7/7/7
f 99/99/99 7/7/7 6/6/6
f 99/99/99 6/6/6 5/5/5
f 99/99/99 5/5/5 101/101/101
f 99/99/99 101/101/101 52/52/52
f 99/99/99 52/52/52 51/51/51
f 99/99/99 51/51/51 102/102/102
f 99/99/99 102/102/102 100/100/100
f 103/103/103 104/104/104 15/15/15
f 103/103/103 15/15/15 14/14/14
f 103/103/103 14/14/14 9/9/9
f 103/103/103 9/9/9 105/105/105
f 103/103/103 105/105/105 48/48/48
f 103/103/103 48/48/48 58/58/58
f 103/103/103 58/58/58 106/106/106
f 103/103/103 106/106/106 104/104/104
f 107/107/107 108/108/108 12/12/12
f 107/107/107 12/12/12 11/11/11
f 107/107/107 11/11/11 15/15/15
f 107/107/107 15/15/15 104/104/104
f 107/107/107 104/104/104 106/106/106
f 107/107/107 106/106/106 56/56/56
f 107/107/107 56/56/56 60/60/60
f 107/107/107 60/60/60 108/108/108
f 109/109/109 97/97/97 40/40/40
f 109/109/109 40/40/40 39/39/39
f 109/109/109 39/39/39 38/38/38
f 109/109/109 38/38/38 92/92/92
f 109/109/109 92/92/92 94/94/94
f 109/109/109 94/94/94 85/85/85
f 109/109/109 85/85/85 84/84/84
f 109/109/109 84/84/84 97/97/97
f 110/110/110 111/111/111 27/27/27
f 110/110/110 27/27/27 45/45/45
f 110/110/110 45/45/45 44/44/44
f 110/110/110 44/44/44 96/96/96
f 110/110/110 96/96/96 98/98/98
f 110/110/110 98/98/98 88/88/88
f 110/110/110 88/88/88 74/74/74
f 110/110/110 74/74/74 111/111/111
f 112/112/112 105/105/105 9/9/9
f 112/112/112 9/9/9 8/8/8
f 112/112/112 8/8/8 7/7/7
f 112/112/112 7/7/7 100/100/100
f 112/112/112 100/100/100 102/102/102
f 112/112/112 102/102/102 49/49/49
f 112/112/112 49/49/49 48/48/48
f 112/112/112 48/48/48 105/105/105
f 113/113/113 101/101/101 5/5/5
f 113/113/113 5/5/5 33/33/33
f 113/113/113 33/33/33 29/29/29
f 113/113/113 29/29/29 114/114/114
f 113/113/113 114/114/114 72/72/72
f 113/113/113 72/72/72 78/78/78
f 113/113/113 78/78/78 52/52/52
f 113/113/113 52/52/52 101/101/101
f 115/115/115 116/116/116 24/24/24
f 115/115/115 24/24/24 35/35/35
f 115/115/115 35/35/35 12/12/12
f 115/115/115 12/12/12 108/108/108
f 115/115/115 108/108/108 60/60/60
f 115/115/115 60/60/60 80/80/80
f 115/115/115 80/80/80 63/63/63
f 115/115/115 63/63/63 116/116/116
f 117/117/117 93/93/93 18/18/18
f 117/117/117 18/18/18 17/17/17
f 117/117/117 17/17/17 24/24/24
f 117/117/117 24/24/24 116/116/116
f 117/117/117 116/116/116 63/63/63
f 117/117/117 63/63/63 62/62/62
f 117/117/117 62/62/62 69/69/69
f 117/117/117 69/69/69 93/93/93
f 118/118/118 114/114/114 29/29/29
f 118/118/118 29/29/29 28/28/28
f 118/118/118 28/28/28 27/27/27
f 118/118/118 27/27/27 111/111/111
f 118/118/118 111/111/111 74/74/74
f 118/118/118 74/74/74 73/73/73
f 118/118/118 73/73/73 72/72/72
f 118/118/118 72/72/72 114/114/114
