v -2.374662 0.69385 -1.120678
v -2.371922 0.694014 -1.119487
v -2.371107 0.693072 -1.123272
v -2.374303 0.69291 -1.124186
v -2.376702 0.693017 -1.125125
v -2.376668 0.693909 -1.122086
v -2.376093 0.694242 -1.12001
v -2.374794 0.694382 -1.118134
v -2.372504 0.694572 -1.116678
v -2.369031 0.694762 -1.119693
v -2.366793 0.695507 -1.120357
v -2.365483 0.694833 -1.123162
v -2.367903 0.693945 -1.123065
v -2.36992 0.695171 -1.11728
v -2.368096 0.695536 -1.11861
v -2.365216 0.688934 -1.134169
v -2.362868 0.689578 -1.133945
v -2.362529 0.687178 -1.137492
v -2.364608 0.686595 -1.137677
v -2.367374 0.68596 -1.138029
v -2.368345 0.68823 -1.134579
v -2.369298 0.69024 -1.130989
v -2.366028 0.691003 -1.130573
v -2.363574 0.691717 -1.13036
v -2.371488 0.687919 -1.135267
v -2.370153 0.685697 -1.138648
v -2.372248 0.685606 -1.139193
v -2.373856 0.6878 -1.135868
v -2.375068 0.689857 -1.132371
v -2.372588 0.689942 -1.131721
v -2.373569 0.691606 -1.127947
v -2.370226 0.691834 -1.127163
v -2.376093 0.691632 -1.128672
v -2.366913 0.692683 -1.126782
v -2.364428 0.693519 -1.126631
v -2.364331 0.684104 -1.141203
v -2.362779 0.684596 -1.141106
v -2.363306 0.682979 -1.143105
v -2.364243 0.682148 -1.143831
v -2.365654 0.681737 -1.143948
v -2.366394 0.683588 -1.141433
v -2.36847 0.683434 -1.141927
v -2.367079 0.681689 -1.144328
v -2.368409 0.682153 -1.143998
v -2.370037 0.683422 -1.142376
v -2.374673 0.69355 -1.120593
v -2.37189 0.693717 -1.119394
v -2.372479 0.694348 -1.116613
v -2.374803 0.694155 -1.118075
v -2.37611 0.694075 -1.119967
v -2.376698 0.693683 -1.122026
v -2.376728 0.692794 -1.125055
v -2.374311 0.692612 -1.124088
v -2.371078 0.692778 -1.123167
v -2.368958 0.694474 -1.119593
v -2.366717 0.695298 -1.120279
v -2.368044 0.69538 -1.118555
v -2.369861 0.694955 -1.11721
v -2.367836 0.69366 -1.122954
v -2.365415 0.694625 -1.123075
v -2.365174 0.688668 -1.134007
v -2.362822 0.689382 -1.133821
v -2.363523 0.691516 -1.130247
v -2.365979 0.69073 -1.130426
v -2.369278 0.689961 -1.130847
v -2.368328 0.687959 -1.134421
v -2.36736 0.685695 -1.13786
v -2.364567 0.686335 -1.137504
v -2.362485 0.686987 -1.13736
v -2.371499 0.687645 -1.135114
v -2.372597 0.689659 -1.131584
v -2.375089 0.689645 -1.132272
v -2.373878 0.687593 -1.135756
v -2.372272 0.685403 -1.139073
v -2.370167 0.685429 -1.138484
v -2.373577 0.691315 -1.12783
v -2.370201 0.691547 -1.12704
v -2.376115 0.691413 -1.128587
v -2.366855 0.692403 -1.126653
v -2.364369 0.693314 -1.126532
v -2.36429 0.683848 -1.141026
v -2.362734 0.684407 -1.140972
v -2.366382 0.683325 -1.14126
v -2.365645 0.681541 -1.143818
v -2.364211 0.681956 -1.143698
v -2.363276 0.682838 -1.143006
v -2.368487 0.683168 -1.14176
v -2.370064 0.683221 -1.142254
v -2.368426 0.682005 -1.143907
v -2.367093 0.681489 -1.144202
v -2.362239 0.684677 -1.141014
v -2.363109 0.682506 -1.143765
v -2.361814 0.687288 -1.137371
v -2.363276 0.682838 -1.143006
v -2.366621 0.681018 -1.145072
v -2.368222 0.681679 -1.14466
v -2.365404 0.681033 -1.144728
v -2.368426 0.682005 -1.143907
v -2.377355 0.693828 -1.122529
v -2.376463 0.694288 -1.11992
v -2.377517 0.692954 -1.125408
v -2.37611 0.694075 -1.119967
v -2.370189 0.695211 -1.116446
v -2.36781 0.695689 -1.118406
v -2.372686 0.694658 -1.115714
v -2.368044 0.69538 -1.118555
v -2.366008 0.695664 -1.120543
v -2.364642 0.695037 -1.123155
v -2.364199 0.68141 -1.144648
v -2.370575 0.683328 -1.142473
v -2.37296 0.685485 -1.139322
v -2.374842 0.694458 -1.11726
v -2.376948 0.691543 -1.128877
v -2.375907 0.689734 -1.132545
v -2.36357 0.693708 -1.126536
v -2.36273 0.691867 -1.130238
v -2.362061 0.689706 -1.133815
v -2.374658 0.687668 -1.136019
vn 0.1046 0.9694 -0.222
vn -0.1129 0.963 -0.2448
vn -0.1007 0.9481 -0.3015
vn 0.0942 0.9543 -0.2837
vn 0.0903 0.9467 -0.3091
vn 0.0968 0.9697 -0.2242
vn 0.1001 0.9815 -0.1631
vn 0.0466 0.9888 -0.1417
vn -0.1314 0.9792 -0.1546
vn -0.3166 0.9012 -0.2957
vn -0.3092 0.904 -0.2953
vn -0.2681 0.8887 -0.3718
vn -0.2824 0.8933 -0.3496
vn -0.2975 0.9331 -0.202
vn -0.3359 0.9109 -0.2395
vn -0.1504 0.8261 -0.543
vn -0.1126 0.8306 -0.5454
vn -0.1024 0.8142 -0.5715
vn -0.1505 0.8069 -0.5712
vn -0.035 0.8255 -0.5633
vn -0.0447 0.8479 -0.5283
vn -0.064 0.8881 -0.4552
vn -0.1804 0.8588 -0.4794
vn -0.1503 0.8579 -0.4913
vn 0.061 0.8604 -0.506
vn 0.0764 0.8436 -0.5315
vn 0.0313 0.8358 -0.5481
vn 0.0269 0.8531 -0.521
vn 0.0342 0.8878 -0.459
vn 0.0568 0.8972 -0.4379
vn 0.0692 0.9324 -0.3546
vn -0.0848 0.9248 -0.3707
vn 0.0586 0.9222 -0.3822
vn -0.2299 0.8841 -0.4069
vn -0.208 0.8791 -0.4289
vn -0.1719 0.7924 -0.5852
vn -0.1197 0.7986 -0.5898
vn -0.1466 0.7812 -0.6067
vn -0.1798 0.754 -0.6318
vn -0.0173 0.7816 -0.6236
vn -0.0304 0.8144 -0.5794
vn 0.1046 0.8372 -0.5368
vn 0.1388 0.8056 -0.5759
vn 0.0925 0.8199 -0.5649
vn 0.0576 0.8273 -0.5588
vn -0.1366 -0.9616 0.238
vn 0.1096 -0.9592 0.2605
vn 0.0964 -0.9423 0.3205
vn -0.2317 -0.9315 0.2805
vn -0.3483 -0.8963 0.2743
vn -0.3235 -0.9063 0.272
vn -0.2572 -0.921 0.2923
vn -0.1094 -0.9532 0.2817
vn 0.1007 -0.9481 0.3014
vn 0.3376 -0.8849 0.321
vn 0.4761 -0.7769 0.4119
vn 0.4944 -0.76 0.4218
vn 0.3991 -0.8294 0.3909
vn 0.2963 -0.8876 0.3527
vn 0.4148 -0.8123 0.4099
vn 0.1663 -0.8226 0.5437
vn 0.2753 -0.7929 0.5435
vn 0.2981 -0.8138 0.4988
vn 0.1949 -0.8549 0.4808
vn 0.064 -0.888 0.4554
vn 0.0447 -0.8477 0.5285
vn 0.0349 -0.8254 0.5634
vn 0.1693 -0.8038 0.5702
vn 0.298 -0.7828 0.5462
vn -0.0765 -0.862 0.5011
vn -0.0714 -0.898 0.4342
vn -0.182 -0.8915 0.4147
vn -0.183 -0.8671 0.4633
vn -0.2073 -0.8645 0.4578
vn -0.0938 -0.8464 0.5242
vn -0.0835 -0.9325 0.3514
vn 0.0847 -0.9248 0.3707
vn -0.2072 -0.9149 0.3463
vn 0.2437 -0.8795 0.4086
vn 0.3504 -0.8247 0.4439
vn 0.201 -0.7959 0.571
vn 0.3562 -0.7783 0.5171
vn 0.0332 -0.8212 0.5696
vn 0.0454 -0.8494 0.5258
vn 0.286 -0.8078 0.5154
vn 0.3913 -0.7768 0.4933
vn -0.1248 -0.8486 0.5141
vn -0.2509 -0.8765 0.4109
vn -0.2748 -0.8846 0.3768
vn -0.1786 -0.883 0.434
vn 0.9595 0.11 -0.2593
vn 0.805 -0.0894 -0.5865
vn 0.9798 0.1638 -0.1142
vn 0.3913 -0.7768 0.4933
vn -0.0083 -0.5356 -0.8444
vn -0.4972 -0.2998 -0.8142
vn 0.2318 -0.6407 -0.7319
vn -0.2748 -0.8846 0.3768
vn -0.9658 0.2531 0.0552
vn -0.8773 0.3184 0.3591
vn -0.9789 0.156 -0.1318
vn -0.3483 -0.8963 0.2743
vn 0.2932 0.3502 0.8896
vn 0.5665 0.5521 0.6118
vn -0.1941 0.1518 0.9691
vn 0.4944 -0.76 0.4218
vn 0.7662 0.5334 0.3584
vn 0.8695 0.4552 0.1919
vn 0.4509 -0.4614 -0.764
vn -0.8041 -0.1754 -0.5679
vn -0.8869 -0.1381 -0.4407
vn -0.6635 0.1954 0.7222
vn -0.9677 0.0607 -0.2444
vn -0.9546 -0.0069 -0.2979
vn 0.926 0.3672 0.0871
vn 0.9527 0.3017 0.036
vn 0.972 0.2346 -0.0142
vn -0.9345 -0.0739 -0.3481
vt 0.839504 0.118056
vt 0.856743 0.205307
vt 0.741230 0.205307
vt 0.734555 0.106726
vt 0.724541 0.032791
vt 0.813647 0.052618
vt 0.868992 0.081539
vt 0.913398 0.129584
vt 0.940923 0.205307
vt 0.839504 0.292557
vt 0.813647 0.357995
vt 0.724541 0.377822
vt 0.734555 0.303887
vt 0.913398 0.281029
vt 0.868992 0.329074
vt 0.369475 0.299954
vt 0.368286 0.370940
vt 0.245840 0.351447
vt 0.246397 0.288815
vt 0.246768 0.205307
vt 0.370268 0.205307
vt 0.494283 0.205307
vt 0.492822 0.304944
vt 0.490632 0.379672
vt 0.369475 0.110659
vt 0.246397 0.121798
vt 0.245841 0.059166
vt 0.368286 0.039673
vt 0.490632 0.030941
vt 0.492822 0.105669
vt 0.616755 0.103478
vt 0.619174 0.205307
vt 0.613127 0.027106
vt 0.616755 0.307135
vt 0.613126 0.383507
vt 0.123273 0.268175
vt 0.123047 0.315326
vt 0.054743 0.283353
vt 0.030912 0.249131
vt 0.030973 0.205306
vt 0.123423 0.205306
vt 0.123273 0.142438
vt 0.030912 0.161481
vt 0.054744 0.127260
vt 0.123047 0.095287
vt 0.839504 0.118056
vt 0.856743 0.205307
vt 0.968983 0.205307
vt 0.938030 0.133427
vt 0.876123 0.061548
vt 0.805028 0.030806
vt 0.721203 0.008146
vt 0.734555 0.106726
vt 0.741230 0.205307
vt 0.839504 0.292557
vt 0.805028 0.379807
vt 0.876123 0.349065
vt 0.938030 0.277186
vt 0.734555 0.303887
vt 0.721203 0.402467
vt 0.369475 0.299954
vt 0.367890 0.394602
vt 0.489902 0.404581
vt 0.492822 0.304944
vt 0.494283 0.205307
vt 0.370268 0.205307
vt 0.246768 0.205307
vt 0.246397 0.288815
vt 0.245655 0.372324
vt 0.369475 0.110659
vt 0.492822 0.105669
vt 0.489902 0.006032
vt 0.367890 0.016011
vt 0.245655 0.038289
vt 0.246397 0.121798
vt 0.616755 0.103478
vt 0.619174 0.205307
vt 0.611917 0.001649
vt 0.616755 0.307135
vt 0.611917 0.408964
vt 0.123273 0.268175
vt 0.122972 0.331043
vt 0.123423 0.205306
vt 0.000156 0.205306
vt 0.000125 0.242784
vt 0.000064 0.280261
vt 0.123273 0.142438
vt 0.122972 0.079570
vt 0.000064 0.130352
vt 0.000125 0.167829
vt 0.122972 0.331043
vt 0.030806 0.283587
vt 0.245655 0.372324
vt 0.030806 0.283587
vt 0.000125 0.167829
vt 0.030806 0.127026
vt 0.000156 0.205306
vt 0.030806 0.127026
vt 0.805028 0.030806
vt 0.873826 0.071832
vt 0.721203 0.008146
vt 0.873826 0.071832
vt 0.938030 0.277186
vt 0.873826 0.338781
vt 0.968983 0.205307
vt 0.873826 0.338781
vt 0.805028 0.379807
vt 0.721203 0.402467
vt 0.000125 0.242784
vt 0.122972 0.079570
vt 0.245655 0.038289
vt 0.938030 0.133427
vt 0.611917 0.001649
vt 0.489902 0.006032
vt 0.611917 0.408964
vt 0.489902 0.404581
vt 0.367890 0.394602
vt 0.367890 0.016011
f 1/1/1 2/2/2 3/3/3
f 1/1/1 3/3/3 4/4/4
f 1/1/1 4/4/4 5/5/5
f 1/1/1 5/5/5 6/6/6
f 1/1/1 6/6/6 7/7/7
f 1/1/1 7/7/7 8/8/8
f 1/1/1 8/8/8 9/9/9
f 1/1/1 9/9/9 2/2/2
f 10/10/10 11/11/11 12/12/12
f 10/10/10 12/12/12 13/13/13
f 10/10/10 13/13/13 3/3/3
f 10/10/10 3/3/3 2/2/2
f 10/10/10 2/2/2 9/9/9
f 10/10/10 9/9/9 14/14/14
f 10/10/10 14/14/14 15/15/15
f 10/10/10 15/15/15 11/11/11
f 16/16/16 17/17/17 18/18/18
f 16/16/16 18/18/18 19/19/19
f 16/16/16 19/19/19 20/20/20
f 16/16/16 20/20/20 21/21/21
f 16/16/16 21/21/21 22/22/22
f 16/16/16 22/22/22 23/23/23
f 16/16/16 23/23/23 24/24/24
f 16/16/16 24/24/24 17/17/17
f 25/25/25 21/21/21 20/20/20
f 25/25/25 20/20/20 26/26/26
f 25/25/25 26/26/26 27/27/27
f 25/25/25 27/27/27 28/28/28
f 25/25/25 28/28/28 29/29/29
f 25/25/25 29/29/29 30/30/30
f 25/25/25 30/30/30 22/22/22
f 25/25/25 22/22/22 21/21/21
f 31/31/31 32/32/32 22/22/22
f 31/31/31 22/22/22 30/30/30
f 31/31/31 30/30/30 29/29/29
f 31/31/31 29/29/29 33/33/33
f 31/31/31 33/33/33 5/5/5
f 31/31/31 5/5/5 4/4/4
f 31/31/31 4/4/4 3/3/3
f 31/31/31 3/3/3 32/32/32
f 34/34/34 35/35/35 24/24/24
f 34/34/34 24/24/24 23/23/23
f 34/34/34 23/23/23 22/22/22
f 34/34/34 22/22/22 32/32/32
f 34/34/34 32/32/32 3/3/3
f 34/34/34 3/3/3 13/13/13
f 34/34/34 13/13/13 12/12/12
f 34/34/34 12/12/12 35/35/35
f 36/36/36 37/37/37 38/38/38
f 36/36/36 38/38/38 39/39/39
f 36/36/36 39/39/39 40/40/40
f 36/36/36 40/40/40 41/41/41
f 36/36/36 41/41/41 20/20/20
f 36/36/36 20/20/20 19/19/19
f 36/36/36 19/19/19 18/18/18
f 36/36/36 18/18/18 37/37/37
f 42/42/42 41/41/41 40/40/40
f 42/42/42 40/40/40 43/43/43
f 42/42/42 43/43/43 44/44/44
f 42/42/42 44/44/44 45/45/45
f 42/42/42 45/45/45 27/27/27
f 42/42/42 27/27/27 26/26/26
f 42/42/42 26/26/26 20/20/20
f 42/42/42 20/20/20 41/41/41
f 46/46/46 47/47/47 48/48/48
f 46/46/46 48/48/48 49/49/49
f 46/46/46 49/49/49 50/50/50
f 46/46/46 50/50/50 51/51/51
f 46/46/46 51/51/51 52/52/52
f 46/46/46 52/52/52 53/53/53
f 46/46/46 53/53/53 54/54/54
f 46/46/46 54/54/54 47/47/47
f 55/55/55 56/56/56 57/57/57
f 55/55/55 57/57/57 58/58/58
f 55/55/55 58/58/58 48/48/48
f 55/55/55 48/48/48 47/47/47
f 55/55/55 47/47/47 54/54/54
f 55/55/55 54/54/54 59/59/59
f 55/55/55 59/59/59 60/60/60
f 55/55/55 60/60/60 56/56/56
f 61/61/61 62/62/62 63/63/63
f 61/61/61 63/63/63 64/64/64
f 61/61/61 64/64/64 65/65/65
f 61/61/61 65/65/65 66/66/66
f 61/61/61 66/66/66 67/67/67
f 61/61/61 67/67/67 68/68/68
f 61/61/61 68/68/68 69/69/69
f 61/61/61 69/69/69 62/62/62
f 70/70/70 66/66/66 65/65/65
f 70/70/70 65/65/65 71/71/71
f 70/70/70 71/71/71 72/72/72
f 70/70/70 72/72/72 73/73/73
f 70/70/70 73/73/73 74/74/74
f 70/70/70 74/74/74 75/75/75
f 70/70/70 75/75/75 67/67/67
f 70/70/70 67/67/67 66/66/66
f 76/76/76 77/77/77 54/54/54
f 76/76/76 54/54/54 53/53/53
f 76/76/76 53/53/53 52/52/52
f 76/76/76 52/52/52 78/78/78
f 76/76/76 78/78/78 72/72/72
f 76/76/76 72/72/72 71/71/71
f 76/76/76 71/71/71 65/65/65
f 76/76/76 65/65/65 77/77/77
f 79/79/79 80/80/80 60/60/60
f 79/79/79 60/60/60 59/59/59
f 79/79/79 59/59/59 54/54/54
f 79/79/79 54/54/54 77/77/77
f 79/79/79 77/77/77 65/65/65
f 79/79/79 65/65/65 64/64/64
f 79/79/79 64/64/64 63/63/63
f 79/79/79 63/63/63 80/80/80
f 81/81/81 82/82/82 69/69/69
f 81/81/81 69/69/69 68/68/68
f 81/81/81 68/68/68 67/67/67
f 81/81/81 67/67/67 83/83/83
f 81/81/81 83/83/83 84/84/84
f 81/81/81 84/84/84 85/85/85
f 81/81/81 85/85/85 86/86/86
f 81/81/81 86/86/86 82/82/82
f 87/87/87 83/83/83 67/67/67
f 87/87/87 67/67/67 75/75/75
f 87/87/87 75/75/75 74/74/74
f 87/87/87 74/74/74 88/88/88
f 87/87/87 88/88/88 89/89/89
f 87/87/87 89/89/89 90/90/90
f 87/87/87 90/90/90 84/84/84
f 87/87/87 84/84/84 83/83/83
f 91/91/91 92/92/92 38/38/38
f 91/91/91 38/38/38 37/37/37
f 91/91/91 37/37/37 18/18/18
f 91/91/91 18/18/18 93/93/93
f 91/91/91 93/93/93 69/69/69
f 91/91/91 69/69/69 82/82/82
f 91/91/91 82/82/82 94/94/94
f 91/91/91 94/94/94 92/92/92
f 95/95/95 96/96/96 44/44/44
f 95/95/95 44/44/44 43/43/43
f 95/95/95 43/43/43 40/40/40
f 95/95/95 40/40/40 97/97/97
f 95/95/95 97/97/97 84/84/84
f 95/95/95 84/84/84 90/90/90
f 95/95/95 90/90/90 98/98/98
f 95/95/95 98/98/98 96/96/96
f 99/99/99 100/100/100 7/7/7
f 99/99/99 7/7/7 6/6/6
f 99/99/99 6/6/6 5/5/5
f 99/99/99 5/5/5 101/101/101
f 99/99/99 101/101/101 52/52/52
f 99/99/99 52/52/52 51/51/51
f 99/99/99 51/51/51 102/102/102
f 99/99/99 102/102/102 100/100/100
f 103/103/103 104/104/104 15/15/15
f 103/103/103 15/15/15 14/14/14
f 103/103/103 14/14/14 9/9/9
f 103/103/103 9/9/9 105/105/105
f 103/103/103 105/105/105 48/48/48
f 103/103/103 48/48/48 58/58/58
f 103/103/103 58/58/58 106/106/106
f 103/103/103 106/106/106 104/104/104
f 107/107/107 108/108/108 12/12/12
f 107/107/107 12/12/12 11/11/11
f 107/107/107 11/11/11 15/15/15
f 107/107/107 15/15/15 104/104/104
f 107/107/107 104/104/104 106/106/106
f 107/107/107 106/106/106 56/56/56
f 107/107/107 56/56/56 60/60/60
f 107/107/107 60/60/60 108/108/108
f 109/109/109 97/97/97 40/40/40
f 109/109/109 40/40/40 39/39/39
f 109/109/109 39/39/39 38/38/38
f 109/109/109 38/38/38 92/92/92
f 109/109/109 92/92/92 94/94/94
f 109/109/109 94/94/94 85/85/85
f 109/109/109 85/85/85 84/84/84
f 109/109/109 84/84/84 97/97/97
f 110/110/110 111/111/111 27/27/27
f 110/110/110 27/27/27 45/45/45
f 110/110/110 45/45/45 44/44/44
f 110/110/110 44/44/44 96/96/96
f 110/110/110 96/96/96 98/98/98
f 110/110/110 98/98/98 88/88/88
f 110/110/110 88/88/88 74/74/74
f 110/110/110 74/74/74 111/111/111
f 112/112/112 105/105/105 9/9/9
f 112/112/112 9/9/9 8/8/8
f 112/112/112 8/8/8 7/7/7
f 112/112/112 7/7/7 100/100/100
f 112/112/112 100/100/100 102/102/102
f 112/112/112 102/102/102 49/49/49
f 112/112/112 49/49/49 48/48/48
f 112/112/112 48/48/48 105/105/105
f 113/113/113 101/101/101 5/5/5
f 113/113/113 5/5/5 33/33/33
f 113/113/113 33/33/33 29/29/29
f 113/113/113 29/29/29 114/114/114
f 113/113/113 114/114/114 72/72/72
f 113/113/113 72/72/72 78/78/78
f 113/113/113 78/78/78 52/52/52
f 113/113/113 52/52/52 101/101/101
f 115/115/115 116/116/116 24/24/24
f 115/115/115 24/24/24 35/35/35
f 115/115/115 35/35/35 12/12/12
f 115/115/115 12/12/12 108/108/108
f 115/115/115 108/108/108 60/60/60
f 115/115/115 60/60/60 80/80/80
f 115/115/115 80/80/80 63/63/63
f 115/115/115 63/63/63 116/116/116
f 117/117/117 93/93/93 18/18/18
f 117/117/117 18/18/18 17/17/17
f 117/117/117 17/17/17 24/24/24
f 117/117/117 24/24/24 116/116/116
f 117/117/117 116/116/116 63/63/63
f 117/117/117 63/63/63 62/62/62
f 117/117/117 62/62/62 69/69/69
f 117/117/117 69/69/69 93/93/93
f 118/118/118 114/114/114 29/29/29
f 118/118/118 29/29/29 28/28/28
f 118/118/118 28/28/28 27/27/27
f 118/118/118 27/27/27 111/111/111
f 118/118/118 111/111/111 74/74/74
f 118/118/118 74/74/74 73/73/73
f 118/118/118 73/73/73 72/72/72
f 118/118/118 72/72/72 114/114/114
