v -2.409311 0.791567 -1.223461
v -2.40835 0.792246 -1.222735
v -2.407357 0.790904 -1.223508
v -2.40856 0.79026 -1.224215
v -2.409413 0.789783 -1.224895
v -2.409914 0.790976 -1.224214
v -2.410028 0.791752 -1.223583
v -2.409804 0.792476 -1.222848
v -2.409081 0.793195 -1.222114
v -2.407065 0.792735 -1.222602
v -2.405976 0.793024 -1.222708
v -2.404939 0.792109 -1.223184
v -2.406008 0.791587 -1.223239
v -2.40786 0.793487 -1.222105
v -2.406839 0.79341 -1.222364
v -2.403023 0.786906 -1.224774
v -2.402047 0.78743 -1.224555
v -2.401335 0.785607 -1.224877
v -2.402201 0.785142 -1.225063
v -2.403333 0.784543 -1.225386
v -2.4043 0.786229 -1.225147
v -2.405292 0.787868 -1.224783
v -2.403954 0.788582 -1.224405
v -2.402929 0.789137 -1.224195
v -2.405525 0.785606 -1.22573
v -2.404413 0.783992 -1.225908
v -2.405211 0.783592 -1.226359
v -2.40643 0.785151 -1.226231
v -2.407514 0.786754 -1.225948
v -2.406571 0.787221 -1.225405
v -2.407615 0.788792 -1.224881
v -2.406324 0.789435 -1.224213
v -2.408561 0.788336 -1.225488
v -2.40496 0.790173 -1.223866
v -2.403908 0.790755 -1.223709
v -2.401521 0.783288 -1.22536
v -2.400866 0.783642 -1.225252
v -2.400776 0.782451 -1.225458
v -2.401067 0.781859 -1.225568
v -2.401658 0.781542 -1.225687
v -2.402372 0.782835 -1.225577
v -2.403172 0.78243 -1.225991
v -2.402198 0.781271 -1.226
v -2.402812 0.781393 -1.226236
v -2.40376 0.782137 -1.226358
v -2.409338 0.791487 -1.223343
v -2.40836 0.792173 -1.22261
v -2.409088 0.79314 -1.222022
v -2.409824 0.792414 -1.222762
v -2.410047 0.791705 -1.22352
v -2.409943 0.790913 -1.22413
v -2.409442 0.789723 -1.224808
v -2.408589 0.790185 -1.224094
v -2.407371 0.790836 -1.223381
v -2.407058 0.792672 -1.222472
v -2.405962 0.792982 -1.222608
v -2.40683 0.793377 -1.222291
v -2.407852 0.793439 -1.222008
v -2.406006 0.791528 -1.223107
v -2.40493 0.792069 -1.223083
v -2.40304 0.786866 -1.224636
v -2.402054 0.787403 -1.22445
v -2.402932 0.789105 -1.224091
v -2.403966 0.788535 -1.224268
v -2.405315 0.787816 -1.22465
v -2.404328 0.786183 -1.225012
v -2.403363 0.784502 -1.22525
v -2.402221 0.785107 -1.224923
v -2.401344 0.785583 -1.224771
v -2.405563 0.785554 -1.2256
v -2.406605 0.787163 -1.225277
v -2.407546 0.786707 -1.225855
v -2.406464 0.78511 -1.226135
v -2.405248 0.783554 -1.226263
v -2.404455 0.783946 -1.225777
v -2.407646 0.788726 -1.224757
v -2.406343 0.789375 -1.224083
v -2.408591 0.788283 -1.225398
v -2.404965 0.790119 -1.223732
v -2.403905 0.790719 -1.223607
v -2.401541 0.783255 -1.225219
v -2.400875 0.78362 -1.225145
v -2.402404 0.782797 -1.225441
v -2.401682 0.781513 -1.225584
v -2.401082 0.781835 -1.225463
v -2.400785 0.782434 -1.225379
v -2.403215 0.782385 -1.225859
v -2.403798 0.782101 -1.226262
v -2.402838 0.781367 -1.226164
v -2.402231 0.781238 -1.225902
v -2.40065 0.783751 -1.225168
v -2.400587 0.782116 -1.22549
v -2.401049 0.785752 -1.224768
v -2.400785 0.782434 -1.225379
v -2.401888 0.78087 -1.22596
v -2.402627 0.781056 -1.226269
v -2.40143 0.781098 -1.225677
v -2.402838 0.781367 -1.226164
v -2.410131 0.79075 -1.224429
v -2.410201 0.791757 -1.223624
v -2.409712 0.789596 -1.225084
v -2.410047 0.791705 -1.22352
v -2.408121 0.793716 -1.221897
v -2.406749 0.793551 -1.222304
v -2.409327 0.793487 -1.221867
v -2.40683 0.793377 -1.222291
v -2.405605 0.793103 -1.222699
v -2.404577 0.792266 -1.223121
v -2.400922 0.781372 -1.22559
v -2.403975 0.782023 -1.226439
v -2.405494 0.783441 -1.226467
v -2.409977 0.792751 -1.222606
v -2.40889 0.78816 -1.22565
v -2.407843 0.786576 -1.226088
v -2.403555 0.790934 -1.223611
v -2.402588 0.789309 -1.224079
v -2.401724 0.787593 -1.224435
v -2.406748 0.784981 -1.226355
vn 0.2331 0.6062 -0.7603
vn 0.0409 0.5396 -0.8409
vn 0.0732 0.4956 -0.8654
vn 0.2463 0.5539 -0.7953
vn 0.2521 0.5314 -0.8087
vn 0.2268 0.6033 -0.7645
vn 0.2072 0.6512 -0.73
vn 0.1501 0.6585 -0.7374
vn -0.0097 0.6044 -0.7966
vn -0.1307 0.4171 -0.8994
vn -0.1237 0.4212 -0.8985
vn -0.0574 0.3706 -0.927
vn -0.0789 0.3848 -0.9196
vn -0.1472 0.5041 -0.851
vn -0.1695 0.4556 -0.8739
vn 0.1133 0.2419 -0.9637
vn 0.1492 0.2517 -0.9562
vn 0.1678 0.2254 -0.9597
vn 0.123 0.2097 -0.97
vn 0.2274 0.2537 -0.9401
vn 0.2062 0.2903 -0.9344
vn 0.1626 0.3621 -0.9178
vn 0.0631 0.2996 -0.952
vn 0.0951 0.298 -0.9498
vn 0.2959 0.3368 -0.8939
vn 0.3189 0.3115 -0.8951
vn 0.2833 0.2855 -0.9155
vn 0.2698 0.3144 -0.9101
vn 0.2546 0.3809 -0.8889
vn 0.268 0.4061 -0.8736
vn 0.2493 0.4876 -0.8367
vn 0.1131 0.4382 -0.8917
vn 0.2495 0.4602 -0.852
vn -0.009 0.3533 -0.9355
vn 0.0192 0.3404 -0.9401
vn 0.1077 0.1854 -0.9767
vn 0.158 0.1985 -0.9673
vn 0.1387 0.169 -0.9758
vn 0.1163 0.1256 -0.9852
vn 0.2646 0.1869 -0.9461
vn 0.2373 0.2364 -0.9422
vn 0.3467 0.3095 -0.8854
vn 0.3916 0.2687 -0.88
vn 0.3454 0.2763 -0.8968
vn 0.3113 0.2781 -0.9087
vn -0.2684 -0.5974 0.7557
vn -0.0498 -0.5277 0.8479
vn -0.0841 -0.4802 0.8731
vn -0.3709 -0.5687 0.7342
vn -0.4741 -0.5718 0.6695
vn -0.4508 -0.5755 0.6824
vn -0.3983 -0.5593 0.727
vn -0.2596 -0.5577 0.7884
vn -0.0731 -0.4957 0.8654
vn 0.1412 -0.3844 0.9123
vn 0.24 -0.2165 0.9463
vn 0.2539 -0.1937 0.9476
vn 0.1741 -0.2857 0.9424
vn 0.0909 -0.3756 0.9223
vn 0.1822 -0.2575 0.9489
vn -0.0987 -0.2353 0.9669
vn 0.0035 -0.1894 0.9819
vn 0.0405 -0.2282 0.9727
vn -0.0499 -0.2927 0.9549
vn -0.1627 -0.3619 0.9179
vn -0.2064 -0.2901 0.9344
vn -0.2275 -0.2536 0.9402
vn -0.1051 -0.2038 0.9733
vn 0.0243 -0.1751 0.9843
vn -0.3085 -0.3444 0.8867
vn -0.28 -0.4123 0.8669
vn -0.3742 -0.4438 0.8142
vn -0.3924 -0.3952 0.8306
vn -0.4126 -0.402 0.8173
vn -0.3324 -0.3221 0.8864
vn -0.2612 -0.4928 0.83
vn -0.1131 -0.4382 0.8917
vn -0.3724 -0.5099 0.7754
vn 0.0214 -0.3458 0.938
vn 0.1091 -0.2594 0.9596
vn -0.0759 -0.1905 0.9787
vn 0.0893 -0.1774 0.9801
vn -0.2313 -0.247 0.941
vn -0.2048 -0.2929 0.9339
vn 0.0232 -0.2159 0.9761
vn 0.1306 -0.1837 0.9742
vn -0.3572 -0.3368 0.8712
vn -0.4355 -0.45 0.7796
vn -0.4448 -0.4827 0.7544
vn -0.378 -0.4245 0.8227
vn 0.99 0.1285 0.0575
vn 0.9623 -0.2598 -0.0804
vn 0.9561 0.2644 0.1263
vn 0.1306 -0.1837 0.9742
vn 0.2874 -0.9326 -0.218
vn -0.1621 -0.8447 -0.51
vn 0.4602 -0.8878 0.0045
vn -0.4448 -0.4827 0.7544
vn -0.8983 0.0127 -0.4391
vn -0.9296 0.2722 -0.2484
vn -0.8439 -0.18 -0.5053
vn -0.4741 -0.5718 0.6695
vn -0.052 0.8849 0.4628
vn 0.3181 0.9202 0.2281
vn -0.5422 0.6807 0.4925
vn 0.2539 -0.1937 0.9476
vn 0.598 0.7903 0.1329
vn 0.7525 0.6501 0.1053
vn 0.684 -0.7265 -0.0663
vn -0.5336 -0.6634 -0.5245
vn -0.6566 -0.5737 -0.4895
vn -0.878 0.4555 0.1466
vn -0.7956 -0.3195 -0.5146
vn -0.7667 -0.4007 -0.5016
vn 0.8399 0.5312 0.1108
vn 0.8807 0.456 0.1281
vn 0.9143 0.3782 0.1447
vn -0.7325 -0.4781 -0.4846
vt 0.839504 0.118056
vt 0.856743 0.205307
vt 0.741230 0.205307
vt 0.734555 0.106726
vt 0.724541 0.032791
vt 0.813647 0.052618
vt 0.868992 0.081539
vt 0.913398 0.129584
vt 0.940923 0.205307
vt 0.839504 0.292557
vt 0.813647 0.357995
vt 0.724541 0.377822
vt 0.734555 0.303887
vt 0.913398 0.281029
vt 0.868992 0.329074
vt 0.369475 0.299954
vt 0.368286 0.370940
vt 0.245840 0.351447
vt 0.246397 0.288815
vt 0.246768 0.205307
vt 0.370268 0.205307
vt 0.494283 0.205307
vt 0.492822 0.304944
vt 0.490632 0.379672
vt 0.369475 0.110659
vt 0.246397 0.121798
vt 0.245841 0.059166
vt 0.368286 0.039673
vt 0.490632 0.030941
vt 0.492822 0.105669
vt 0.616755 0.103478
vt 0.619174 0.205307
vt 0.613127 0.027106
vt 0.616755 0.307135
vt 0.613126 0.383507
vt 0.123273 0.268175
vt 0.123047 0.315326
vt 0.054743 0.283353
vt 0.030912 0.249131
vt 0.030973 0.205306
vt 0.123423 0.205306
vt 0.123273 0.142438
vt 0.030912 0.161481
vt 0.054744 0.127260
vt 0.123047 0.095287
vt 0.839504 0.118056
vt 0.856743 0.205307
vt 0.968983 0.205307
vt 0.938030 0.133427
vt 0.876123 0.061548
vt 0.805028 0.030806
vt 0.721203 0.008146
vt 0.734555 0.106726
vt 0.741230 0.205307
vt 0.839504 0.292557
vt 0.805028 0.379807
vt 0.876123 0.349065
vt 0.938030 0.277186
vt 0.734555 0.303887
vt 0.721203 0.402467
vt 0.369475 0.299954
vt 0.367890 0.394602
vt 0.489902 0.404581
vt 0.492822 0.304944
vt 0.494283 0.205307
vt 0.370268 0.205307
vt 0.246768 0.205307
vt 0.246397 0.288815
vt 0.245655 0.372324
vt 0.369475 0.110659
vt 0.492822 0.105669
vt 0.489902 0.006032
vt 0.367890 0.016011
vt 0.245655 0.038289
vt 0.246397 0.121798
vt 0.616755 0.103478
vt 0.619174 0.205307
vt 0.611917 0.001649
vt 0.616755 0.307135
vt 0.611917 0.408964
vt 0.123273 0.268175
vt 0.122972 0.331043
vt 0.123423 0.205306
vt 0.000156 0.205306
vt 0.000125 0.242784
vt 0.000064 0.280261
vt 0.123273 0.142438
vt 0.122972 0.079570
vt 0.000064 0.130352
vt 0.000125 0.167829
vt 0.122972 0.331043
vt 0.030806 0.283587
vt 0.245655 0.372324
vt 0.030806 0.283587
vt 0.000125 0.167829
vt 0.030806 0.127026
vt 0.000156 0.205306
vt 0.030806 0.127026
vt 0.805028 0.030806
vt 0.873826 0.071832
vt 0.721203 0.008146
vt 0.873826 0.071832
vt 0.938030 0.277186
vt 0.873826 0.338781
vt 0.968983 0.205307
vt 0.873826 0.338781
vt 0.805028 0.379807
vt 0.721203 0.402467
vt 0.000125 0.242784
vt 0.122972 0.079570
vt 0.245655 0.038289
vt 0.938030 0.133427
vt 0.611917 0.001649
vt 0.489902 0.006032
vt 0.611917 0.408964
vt 0.489902 0.404581
vt 0.367890 0.394602
vt 0.367890 0.016011
f 1/1/1 2/2/2 3/3/3
f 1/1/1 3/3/3 4/4/4
f 1/1/1 4/4/4 5/5/5
f 1/1/1 5/5/5 6/6/6
f 1/1/1 6/6/6 7/7/7
f 1/1/1 7/7/7 8/8/8
f 1/1/1 8/8/8 9/9/9
f 1/1/1 9/9/9 2/2/2
f 10/10/10 11/11/11 12/12/12
f 10/10/10 12/12/12 13/13/13
f 10/10/10 13/13/13 3/3/3
f 10/10/10 3/3/3 2/2/2
f 10/10/10 2/2/2 9/9/9
f 10/10/10 9/9/9 14/14/14
f 10/10/10 14/14/14 15/15/15
f 10/10/10 15/15/15 11/11/11
f 16/16/16 17/17/17 18/18/18
f 16/16/16 18/18/18 19/19/19
f 16/16/16 19/19/19 20/20/20
f 16/16/16 20/20/20 21/21/21
f 16/16/16 21/21/21 22/22/22
f 16/16/16 22/22/22 23/23/23
f 16/16/16 23/23/23 24/24/24
f 16/16/16 24/24/24 17/17/17
f 25/25/25 21/21/21 20/20/20
f 25/25/25 20/20/20 26/26/26
f 25/25/25 26/26/26 27/27/27
f 25/25/25 27/27/27 28/28/28
f 25/25/25 28/28/28 29/29/29
f 25/25/25 29/29/29 30/30/30
f 25/25/25 30/30/30 22/22/22
f 25/25/25 22/22/22 21/21/21
f 31/31/31 32/32/32 22/22/22
f 31/31/31 22/22/22 30/30/30
f 31/31/31 30/30/30 29/29/29
f 31/31/31 29/29/29 33/33/33
f 31/31/31 33/33/33 5/5/5
f 31/31/31 5/5/5 4/4/4
f 31/31/31 4/4/4 3/3/3
f 31/31/31 3/3/3 32/32/32
f 34/34/34 35/35/35 24/24/24
f 34/34/34 24/24/24 23/23/23
f 34/34/34 23/23/23 22/22/22
f 34/34/34 22/22/22 32/32/32
f 34/34/34 32/32/32 3/3/3
f 34/34/34 3/3/3 13/13/13
f 34/34/34 13/13/13 12/12/12
f 34/34/34 12/12/12 35/35/35
f 36/36/36 37/37/37 38/38/38
f 36/36/36 38/38/38 39/39/39
f 36/36/36 39/39/39 40/40/40
f 36/36/36 40/40/40 41/41/41
f 36/36/36 41/41/41 20/20/20
f 36/36/36 20/20/20 19/19/19
f 36/36/36 19/19/19 18/18/18
f 36/36/36 18/18/18 37/37/37
f 42/42/42 41/41/41 40/40/40
f 42/42/42 40/40/40 43/43/43
f 42/42/42 43/43/43 44/44/44
f 42/42/42 44/44/44 45/45/45
f 42/42/42 45/45/45 27/27/27
f 42/42/42 27/27/27 26/26/26
f 42/42/42 26/26/26 20/20/20
f 42/42/42 20/20/20 41/41/41
f 46/46/46 47/47/47 48/48/48
f 46/46/46 48/48/48 49/49/49
f 46/46/46 49/49/49 50/50/50
f 46/46/46 50/50/50 51/51/51
f 46/46/46 51/51/51 52/52/52
f 46/46/46 52/52/52 53/53/53
f 46/46/46 53/53/53 54/54/54
f 46/46/46 54/54/54 47/47/47
f 55/55/55 56/56/56 57/57/57
f 55/55/55 57/57/57 58/58/58
f 55/55/55 58/58/58 48/48/48
f 55/55/55 48/48/48 47/47/47
f 55/55/55 47/47/47 54/54/54
f 55/55/55 54/54/54 59/59/59
f 55/55/55 59/59/59 60/60/60
f 55/55/55 60/60/60 56/56/56
f 61/61/61 62/62/62 63/63/63
f 61/61/61 63/63/63 64/64/64
f 61/61/61 64/64/64 65/65/65
f 61/61/61 65/65/65 66/66/66
f 61/61/61 66/66/66 67/67/67
f 61/61/61 67/67/67 68/68/68
f 61/61/61 68/68/68 69/69/69
f 61/61/61 69/69/69 62/62/62
f 70/70/70 66/66/66 65/65/65
f 70/70/70 65/65/65 71/71/71
f 70/70/70 71/71/71 72/72/72
f 70/70/70 72/72/72 73/73/73
f 70/70/70 73/73/73 74/74/74
f 70/70/70 74/74/74 75/75/75
f 70/70/70 75/75/75 67/67/67
f 70/70/70 67/67/67 66/66/66
f 76/76/76 77/77/77 54/54/54
f 76/76/76 54/54/54 53/53/53
f 76/76/76 53/53/53 52/52/52
f 76/76/76 52/52/52 78/78/78
f 76/76/76 78/78/78 72/72/72
f 76/76/76 72/72/72 71/71/71
f 76/76/76 71/71/71 65/65/65
f 76/76/76 65/65/65 77/77/77
f 79/79/79 80/80/80 60/60/60
f 79/79/79 60/60/60 59/59/59
f 79/79/79 59/59/59 54/54/54
f 79/79/79 54/54/54 77/77/77
f 79/79/79 77/77/77 65/65/65
f 79/79/79 65/65/65 64/64/64
f 79/79/79 64/64/64 63/63/63
f 79/79/79 63/63/63 80/80/80
f 81/81/81 82/82/82 69/69/69
f 81/81/81 69/69/69 68/68/68
f 81/81/81 68/68/68 67/67/67
f 81/81/81 67/67/67 83/83/83
f 81/81/81 83/83/83 84/84/84
f 81/81/81 84/84/84 85/85/85
f 81/81/81 85/85/85 86/86/86
f 81/81/81 86/86/86 82/82/82
f 87/87/87 83/83/83 67/67/67
f 87/87/87 67/67/67 75/75/75
f 87/87/87 75/75/75 74/74/74
f 87/87/87 74/74/74 88/88/88
f 87/87/87 88/88/88 89/89/89
f 87/87/87 89/89/89 90/90/90
f 87/87/87 90/90/90 84/84/84
f 87/87/87 84/84/84 83/83/83
f 91/91/91 92/92/92 38/38/38
f 91/91/91 38/38/38 37/37/37
f 91/91/91 37/37/37 18/18/18
f 91/91/91 18/18/18 93/93/93
f 91/91/91 93/93/93 69/69/69
f 91/91/91 69/69/69 82/82/82
f 91/91/91 82/82/82 94/94/94
f 91/91/91 94/94/94 92/92/92
f 95/95/95 96/96/96 44/44/44
f 95/95/95 44/44/44 43/43/43
f 95/95/95 43/43/43 40/40/40
f 95/95/95 40/40/40 97/97/97
f 95/95/95 97/97/97 84/84/84
f 95/95/95 84/84/84 90/90/90
f 95/95/95 90/90/90 98/98/98
f 95/95/95 98/98/98 96/96/96
f 99/99/99 100/100/100 7/7/7
f 99/99/99 7/7/7 6/6/6
f 99/99/99 6/6/6 5/5/5
f 99/99/99 5/5/5 101/101/101
f 99/99/99 101/101/101 52/52/52
f 99/99/99 52/52/52 51/51/51
f 99/99/99 51/51/51 102/102/102
f 99/99/99 102/102/102 100/100/100
f 103/103/103 104/104/104 15/15/15
f 103/103/103 15/15/15 14/14/14
f 103/103/103 14/14/14 9/9/9
f 103/103/103 9/9/9 105/105/105
f 103/103/103 105/105/105 48/48/48
f 103/103/103 48/48/48 58/58/58
f 103/103/103 58/58/58 106/106/106
f 103/103/103 106/106/106 104/104/104
f 107/107/107 108/108/108 12/12/12
f 107/107/107 12/12/12 11/11/11
f 107/107/107 11/11/11 15/15/15
f 107/107/107 15/15/15 104/104/104
f 107/107/107 104/104/104 106/106/106
f 107/107/107 106/106/106 56/56/56
f 107/107/107 56/56/56 60/60/60
f 107/107/107 60/60/60 108/108/108
f 109/109/109 97/97/97 40/40/40
f 109/109/109 40/40/40 39/39/39
f 109/109/109 39/39/39 38/38/38
f 109/109/109 38/38/38 92/92/92
f 109/109/109 92/92/92 94/94/94
f 109/109/109 94/94/94 85/85/85
f 109/109/109 85/85/85 84/84/84
f 109/109/109 84/84/84 97/97/97
f 110/110/110 111/111/111 27/27/27
f 110/110/110 27/27/27 45/45/45
f 110/110/110 45/45/45 44/44/44
f 110/110/110 44/44/44 96/96/96
f 110/110/110 96/96/96 98/98/98
f 110/110/110 98/98/98 88/88/88
f 110/110/110 88/88/88 74/74/74
f 110/110/110 74/74/74 111/111/111
f 112/112/112 105/105/105 9/9/9
f 112/112/112 9/9/9 8/8/8
f 112/112/112 8/8/8 7/7/7
f 112/112/112 7/7/7 100/100/100
f 112/112/112 100/100/100 102/102/102
f 112/112/112 102/102/102 49/49/49
f 112/112/112 49/49/49 48/48/48
f 112/112/112 48/48/48 105/105/105
f 113/113/113 101/101/101 5/5/5
f 113/113/113 5/5/5 33/33/33
f 113/113/113 33/33/33 29/29/29
f 113/113/113 29/29/29 114/114/114
f 113/113/113 114/114/114 72/72/72
f 113/113/113 72/72/72 78/78/78
f 113/113/113 78/78/78 52/52/52
f 113/113/113 52/52/52 101/101/101
f 115/115/115 116/116/116 24/24/24
f 115/115/115 24/24/24 35/35/35
f 115/115/115 35/35/35 12/12/12
f 115/115/115 12/12/12 108/108/108
f 115/115/115 108/108/108 60/60/60
f 115/115/115 60/60/60 80/80/80
f 115/115/115 80/80/80 63/63/63
f 115/115/115 63/63/63 116/116/116
f 117/117/117 93/93/93 18/18/18
f 117/117/117 18/18/18 17/17/17
f 117/117/117 17/17/17 24/24/24
f 117/117/117 24/24/24 116/116/116
f 117/117/117 116/116/116 63/63/63
f 117/117/117 63/63/63 62/62/62
f 117/117/117 62/62/62 69/69/69
f 117/117/117 69/69/69 93/93/93
f 118/118/118 114/114/114 29/29/29
f 118/118/118 29/29/29 28/28/28
f 118/118/118 28/28/28 27/27/27
f 118/118/118 27/27/27 111/111/111
f 118/118/118 111/111/111 74/74/74
f 118/118/118 74/74/74 73/73/73
f 118/118/118 73/73/73 72/72/72
f 118/118/118 72/72/72 114/114/114
