v -2.434489 0.744505 -1.129799
v -2.432253 0.745572 -1.130163
v -2.432428 0.743466 -1.13274
v -2.43491 0.742439 -1.132007
v -2.436922 0.741725 -1.131694
v -2.436336 0.743626 -1.129943
v -2.435451 0.744822 -1.128889
v -2.43404 0.745918 -1.128204
v -2.43206 0.74704 -1.128217
v -2.430502 0.746495 -1.131696
v -2.429344 0.747117 -1.13327
v -2.428979 0.74569 -1.135473
v -2.430379 0.744701 -1.134163
v -2.430589 0.747641 -1.129846
v -2.429788 0.747649 -1.131584
v -2.429929 0.736983 -1.141174
v -2.428407 0.737922 -1.142169
v -2.428366 0.734806 -1.143959
v -2.429704 0.733971 -1.143066
v -2.431563 0.732916 -1.14199
v -2.432038 0.735794 -1.139969
v -2.432374 0.738551 -1.137784
v -2.430182 0.739808 -1.13906
v -2.428612 0.740809 -1.140126
v -2.434369 0.734766 -1.139061
v -2.43363 0.73201 -1.141198
v -2.435247 0.73137 -1.140685
v -2.436186 0.734038 -1.138467
v -2.43675 0.736746 -1.136254
v -2.434827 0.737489 -1.13685
v -2.435015 0.740073 -1.134428
v -2.432487 0.741117 -1.135328
v -2.437027 0.73937 -1.133897
v -2.430302 0.742426 -1.13667
v -2.428768 0.743493 -1.137827
v -2.429671 0.730789 -1.14479
v -2.428703 0.731435 -1.145501
v -2.429102 0.729372 -1.14614
v -2.429697 0.728327 -1.145997
v -2.430599 0.727754 -1.14538
v -2.431034 0.729985 -1.143953
v -2.432601 0.729326 -1.143395
v -2.431705 0.727324 -1.145042
v -2.432715 0.727568 -1.144421
v -2.433841 0.728869 -1.143056
v -2.434372 0.744326 -1.129648
v -2.432105 0.745406 -1.130025
v -2.431949 0.746913 -1.128117
v -2.433954 0.745781 -1.128093
v -2.435394 0.744719 -1.128803
v -2.436265 0.743486 -1.129824
v -2.436845 0.741592 -1.13157
v -2.434789 0.742268 -1.131849
v -2.43228 0.743307 -1.132595
v -2.430325 0.746346 -1.131573
v -2.429198 0.747015 -1.133186
v -2.429683 0.74757 -1.131521
v -2.430455 0.747528 -1.129758
v -2.430204 0.744557 -1.134031
v -2.428836 0.745591 -1.135381
v -2.429763 0.73687 -1.141003
v -2.428273 0.737842 -1.142046
v -2.428476 0.740722 -1.140012
v -2.430014 0.739684 -1.1389
v -2.432226 0.738417 -1.137614
v -2.431891 0.735672 -1.139789
v -2.431417 0.732802 -1.141803
v -2.429539 0.733866 -1.142889
v -2.428233 0.734733 -1.143832
v -2.434241 0.734634 -1.138872
v -2.434699 0.737345 -1.13667
v -2.436665 0.736634 -1.136115
v -2.436101 0.733934 -1.138322
v -2.435162 0.731273 -1.140535
v -2.433504 0.731887 -1.141002
v -2.43489 0.739916 -1.13426
v -2.432338 0.740969 -1.13517
v -2.436946 0.739247 -1.133766
v -2.430131 0.742292 -1.136524
v -2.42863 0.743399 -1.137723
v -2.429506 0.730689 -1.144611
v -2.428569 0.731365 -1.145373
v -2.430888 0.729874 -1.143764
v -2.43049 0.727671 -1.145238
v -2.429572 0.728252 -1.145864
v -2.429006 0.729319 -1.146044
v -2.432477 0.729205 -1.143197
v -2.433759 0.728774 -1.142904
v -2.432652 0.727499 -1.144309
v -2.431613 0.727234 -1.144893
v -2.428318 0.73162 -1.145683
v -2.428991 0.728796 -1.14652
v -2.427859 0.735053 -1.144201
v -2.429006 0.729319 -1.146044
v -2.431365 0.726617 -1.145524
v -2.43261 0.726989 -1.144797
v -2.430405 0.726973 -1.145793
v -2.432652 0.727499 -1.144309
v -2.436924 0.74327 -1.129937
v -2.435704 0.74483 -1.128693
v -2.437562 0.741426 -1.131533
v -2.435394 0.744719 -1.128803
v -2.430559 0.747972 -1.129191
v -2.429578 0.747889 -1.131608
v -2.431946 0.747472 -1.127525
v -2.429683 0.74757 -1.131521
v -2.42889 0.747281 -1.13376
v -2.428446 0.745978 -1.135871
v -2.42965 0.727473 -1.146341
v -2.43422 0.728674 -1.142874
v -2.43575 0.731113 -1.140446
v -2.433853 0.746328 -1.127624
v -2.437665 0.73908 -1.13366
v -2.437356 0.736447 -1.135992
v -2.428193 0.743808 -1.138167
v -2.428026 0.741105 -1.140432
v -2.427838 0.738201 -1.142447
v -2.436756 0.733748 -1.138203
vn -0.3739 0.7285 -0.574
vn -0.5643 0.6685 -0.4845
vn -0.567 0.6302 -0.5304
vn -0.3974 0.683 -0.6128
vn -0.4064 0.6632 -0.6285
vn -0.3813 0.7262 -0.572
vn -0.3626 0.7671 -0.5291
vn -0.4039 0.7733 -0.4887
vn -0.5559 0.7234 -0.4093
vn -0.7303 0.5505 -0.4044
vn -0.7249 0.5546 -0.4086
vn -0.7096 0.5118 -0.4842
vn -0.7161 0.5239 -0.4611
vn -0.6948 0.6282 -0.3501
vn -0.7315 0.583 -0.3535
vn -0.6423 0.3971 -0.6556
vn -0.6127 0.407 -0.6774
vn -0.6063 0.3823 -0.6973
vn -0.6441 0.3667 -0.6712
vn -0.5506 0.4093 -0.7275
vn -0.556 0.4437 -0.7028
vn -0.5638 0.5102 -0.6495
vn -0.6594 0.4503 -0.602
vn -0.6374 0.4496 -0.6257
vn -0.4633 0.4865 -0.7407
vn -0.4522 0.4626 -0.7626
vn -0.4931 0.4388 -0.7512
vn -0.4946 0.466 -0.7336
vn -0.4813 0.5276 -0.7
vn -0.4586 0.5505 -0.6975
vn -0.434 0.6243 -0.6495
vn -0.5676 0.5792 -0.5851
vn -0.4483 0.5997 -0.6628
vn -0.6871 0.4979 -0.5291
vn -0.674 0.487 -0.5554
vn -0.6614 0.3433 -0.6668
vn -0.621 0.3566 -0.698
vn -0.6427 0.3282 -0.6922
vn -0.6685 0.2861 -0.6865
vn -0.5383 0.3458 -0.7685
vn -0.5476 0.393 -0.7387
vn -0.4274 0.4601 -0.7782
vn -0.3988 0.4208 -0.8148
vn -0.4401 0.4294 -0.7886
vn -0.4708 0.4316 -0.7694
vn 0.3489 -0.7203 0.5995
vn 0.5652 -0.6581 0.4973
vn 0.5675 -0.6167 0.5455
vn 0.2702 -0.6926 0.6688
vn 0.1548 -0.6892 0.7078
vn 0.1791 -0.6938 0.6975
vn 0.2482 -0.6831 0.6868
vn 0.3834 -0.6861 0.6182
vn 0.567 -0.6302 0.5304
vn 0.7501 -0.52 0.4086
vn 0.8557 -0.3559 0.3755
vn 0.8678 -0.3334 0.3684
vn 0.8039 -0.4264 0.4147
vn 0.7268 -0.5147 0.4548
vn 0.8169 -0.3992 0.4163
vn 0.6546 -0.3906 0.6472
vn 0.7356 -0.3439 0.5836
vn 0.7482 -0.3793 0.5443
vn 0.6706 -0.4434 0.5946
vn 0.5638 -0.5101 0.6496
vn 0.556 -0.4435 0.703
vn 0.5506 -0.4093 0.7276
vn 0.6587 -0.3609 0.6602
vn 0.7518 -0.3294 0.5711
vn 0.4491 -0.4932 0.745
vn 0.4453 -0.556 0.7018
vn 0.3419 -0.5822 0.7376
vn 0.3478 -0.5375 0.7682
vn 0.3241 -0.5429 0.7747
vn 0.4359 -0.4722 0.7662
vn 0.4208 -0.6288 0.6539
vn 0.5676 -0.5792 0.5851
vn 0.3067 -0.641 0.7036
vn 0.6977 -0.4905 0.5221
vn 0.7785 -0.4055 0.479
vn 0.6828 -0.3475 0.6427
vn 0.7897 -0.3286 0.5181
vn 0.5495 -0.403 0.7319
vn 0.5564 -0.4461 0.701
vn 0.7411 -0.3684 0.5613
vn 0.8109 -0.3323 0.4816
vn 0.407 -0.4852 0.7739
vn 0.2758 -0.5852 0.7625
vn 0.2472 -0.6137 0.7498
vn 0.3479 -0.5647 0.7484
vn 0.6856 0.155 -0.7112
vn 0.5231 -0.2074 -0.8266
vn 0.7303 0.2763 -0.6247
vn 0.8109 -0.3323 0.4816
vn -0.0782 -0.8743 -0.479
vn -0.5791 -0.7572 -0.3021
vn 0.2064 -0.8592 -0.4682
vn 0.2472 -0.6137 0.7498
vn -0.9052 0.0495 0.4221
vn -0.753 0.2733 0.5985
vn -0.9408 -0.1282 0.3137
vn 0.1548 -0.6892 0.7078
vn 0.4107 0.7967 0.4433
vn 0.4688 0.8831 0.0169
vn 0.1017 0.5721 0.8138
vn 0.8678 -0.3334 0.3684
vn 0.5605 0.781 -0.2753
vn 0.6235 0.6524 -0.4307
vn 0.3106 -0.6801 -0.6641
vn -0.8072 -0.5902 -0.0008
vn -0.8493 -0.5122 0.1274
vn -0.3989 0.3927 0.8286
vn -0.9313 -0.2623 0.2526
vn -0.9111 -0.3437 0.2275
vn 0.6713 0.5371 -0.5106
vn 0.7029 0.4621 -0.5407
vn 0.7292 0.384 -0.5663
vn -0.8841 -0.4217 0.2014
vt 0.839504 0.118056
vt 0.856743 0.205307
vt 0.741230 0.205307
vt 0.734555 0.106726
vt 0.724541 0.032791
vt 0.813647 0.052618
vt 0.868992 0.081539
vt 0.913398 0.129584
vt 0.940923 0.205307
vt 0.839504 0.292557
vt 0.813647 0.357995
vt 0.724541 0.377822
vt 0.734555 0.303887
vt 0.913398 0.281029
vt 0.868992 0.329074
vt 0.369475 0.299954
vt 0.368286 0.370940
vt 0.245840 0.351447
vt 0.246397 0.288815
vt 0.246768 0.205307
vt 0.370268 0.205307
vt 0.494283 0.205307
vt 0.492822 0.304944
vt 0.490632 0.379672
vt 0.369475 0.110659
vt 0.246397 0.121798
vt 0.245841 0.059166
vt 0.368286 0.039673
vt 0.490632 0.030941
vt 0.492822 0.105669
vt 0.616755 0.103478
vt 0.619174 0.205307
vt 0.613127 0.027106
vt 0.616755 0.307135
vt 0.613126 0.383507
vt 0.123273 0.268175
vt 0.123047 0.315326
vt 0.054743 0.283353
vt 0.030912 0.249131
vt 0.030973 0.205306
vt 0.123423 0.205306
vt 0.123273 0.142438
vt 0.030912 0.161481
vt 0.054744 0.127260
vt 0.123047 0.095287
vt 0.839504 0.118056
vt 0.856743 0.205307
vt 0.968983 0.205307
vt 0.938030 0.133427
vt 0.876123 0.061548
vt 0.805028 0.030806
vt 0.721203 0.008146
vt 0.734555 0.106726
vt 0.741230 0.205307
vt 0.839504 0.292557
vt 0.805028 0.379807
vt 0.876123 0.349065
vt 0.938030 0.277186
vt 0.734555 0.303887
vt 0.721203 0.402467
vt 0.369475 0.299954
vt 0.367890 0.394602
vt 0.489902 0.404581
vt 0.492822 0.304944
vt 0.494283 0.205307
vt 0.370268 0.205307
vt 0.246768 0.205307
vt 0.246397 0.288815
vt 0.245655 0.372324
vt 0.369475 0.110659
vt 0.492822 0.105669
vt 0.489902 0.006032
vt 0.367890 0.016011
vt 0.245655 0.038289
vt 0.246397 0.121798
vt 0.616755 0.103478
vt 0.619174 0.205307
vt 0.611917 0.001649
vt 0.616755 0.307135
vt 0.611917 0.408964
vt 0.123273 0.268175
vt 0.122972 0.331043
vt 0.123423 0.205306
vt 0.000156 0.205306
vt 0.000125 0.242784
vt 0.000064 0.280261
vt 0.123273 0.142438
vt 0.122972 0.079570
vt 0.000064 0.130352
vt 0.000125 0.167829
vt 0.122972 0.331043
vt 0.030806 0.283587
vt 0.245655 0.372324
vt 0.030806 0.283587
vt 0.000125 0.167829
vt 0.030806 0.127026
vt 0.000156 0.205306
vt 0.030806 0.127026
vt 0.805028 0.030806
vt 0.873826 0.071832
vt 0.721203 0.008146
vt 0.873826 0.071832
vt 0.938030 0.277186
vt 0.873826 0.338781
vt 0.968983 0.205307
vt 0.873826 0.338781
vt 0.805028 0.379807
vt 0.721203 0.402467
vt 0.000125 0.242784
vt 0.122972 0.079570
vt 0.245655 0.038289
vt 0.938030 0.133427
vt 0.611917 0.001649
vt 0.489902 0.006032
vt 0.611917 0.408964
vt 0.489902 0.404581
vt 0.367890 0.394602
vt 0.367890 0.016011
f 1/1/1 2/2/2 3/3/3
f 1/1/1 3/3/3 4/4/4
f 1/1/1 4/4/4 5/5/5
f 1/1/1 5/5/5 6/6/6
f 1/1/1 6/6/6 7/7/7
f 1/1/1 7/7/7 8/8/8
f 1/1/1 8/8/8 9/9/9
f 1/1/1 9/9/9 2/2/2
f 10/10/10 11/11/11 12/12/12
f 10/10/10 12/12/12 13/13/13
f 10/10/10 13/13/13 3/3/3
f 10/10/10 3/3/3 2/2/2
f 10/10/10 2/2/2 9/9/9
f 10/10/10 9/9/9 14/14/14
f 10/10/10 14/14/14 15/15/15
f 10/10/10 15/15/15 11/11/11
f 16/16/16 17/17/17 18/18/18
f 16/16/16 18/18/18 19/19/19
f 16/16/16 19/19/19 20/20/20
f 16/16/16 20/20/20 21/21/21
f 16/16/16 21/21/21 22/22/22
f 16/16/16 22/22/22 23/23/23
f 16/16/16 23/23/23 24/24/24
f 16/16/16 24/24/24 17/17/17
f 25/25/25 21/21/21 20/20/20
f 25/25/25 20/20/20 26/26/26
f 25/25/25 26/26/26 27/27/27
f 25/25/25 27/27/27 28/28/28
f 25/25/25 28/28/28 29/29/29
f 25/25/25 29/29/29 30/30/30
f 25/25/25 30/30/30 22/22/22
f 25/25/25 22/22/22 21/21/21
f 31/31/31 32/32/32 22/22/22
f 31/31/31 22/22/22 30/30/30
f 31/31/31 30/30/30 29/29/29
f 31/31/31 29/29/29 33/33/33
f 31/31/31 33/33/33 5/5/5
f 31/31/31 5/5/5 4/4/4
f 31/31/31 4/4/4 3/3/3
f 31/31/31 3/3/3 32/32/32
f 34/34/34 35/35/35 24/24/24
f 34/34/34 24/24/24 23/23/23
f 34/34/34 23/23/23 22/22/22
f 34/34/34 22/22/22 32/32/32
f 34/34/34 32/32/32 3/3/3
f 34/34/34 3/3/3 13/13/13
f 34/34/34 13/13/13 12/12/12
f 34/34/34 12/12/12 35/35/35
f 36/36/36 37/37/37 38/38/38
f 36/36/36 38/38/38 39/39/39
f 36/36/36 39/39/39 40/40/40
f 36/36/36 40/40/40 41/41/41
f 36/36/36 41/41/41 20/20/20
f 36/36/36 20/20/20 19/19/19
f 36/36/36 19/19/19 18/18/18
f 36/36/36 18/18/18 37/37/37
f 42/42/42 41/41/41 40/40/40
f 42/42/42 40/40/40 43/43/43
f 42/42/42 43/43/43 44/44/44
f 42/42/42 44/44/44 45/45/45
f 42/42/42 45/45/45 27/27/27
f 42/42/42 27/27/27 26/26/26
f 42/42/42 26/26/26 20/20/20
f 42/42/42 20/20/20 41/41/41
f 46/46/46 47/47/47 48/48/48
f 46/46/46 48/48/48 49/49/49
f 46/46/46 49/49/49 50/50/50
f 46/46/46 50/50/50 51/51/51
f 46/46/46 51/51/51 52/52/52
f 46/46/46 52/52/52 53/53/53
f 46/46/46 53/53/53 54/54/54
f 46/46/46 54/54/54 47/47/47
f 55/55/55 56/56/56 57/57/57
f 55/55/55 57/57/57 58/58/58
f 55/55/55 58/58/58 48/48/48
f 55/55/55 48/48/48 47/47/47
f 55/55/55 47/47/47 54/54/54
f 55/55/55 54/54/54 59/59/59
f 55/55/55 59/59/59 60/60/60
f 55/55/55 60/60/60 56/56/56
f 61/61/61 62/62/62 63/63/63
f 61/61/61 63/63/63 64/64/64
f 61/61/61 64/64/64 65/65/65
f 61/61/61 65/65/65 66/66/66
f 61/61/61 66/66/66 67/67/67
f 61/61/61 67/67/67 68/68/68
f 61/61/61 68/68/68 69/69/69
f 61/61/61 69/69/69 62/62/62
f 70/70/70 66/66/66 65/65/65
f 70/70/70 65/65/65 71/71/71
f 70/70/70 71/71/71 72/72/72
f 70/70/70 72/72/72 73/73/73
f 70/70/70 73/73/73 74/74/74
f 70/70/70 74/74/74 75/75/75
f 70/70/70 75/75/75 67/67/67
f 70/70/70 67/67/67 66/66/66
f 76/76/76 77/77/77 54/54/54
f 76/76/76 54/54/54 53/53/53
f 76/76/76 53/53/53 52/52/52
f 76/76/76 52/52/52 78/78/78
f 76/76/76 78/78/78 72/72/72
f 76/76/76 72/72/72 71/71/71
f 76/76/76 71/71/71 65/65/65
f 76/76/76 65/65/65 77/77/77
f 79/79/79 80/80/80 60/60/60
f 79/79/79 60/60/60 59/59/59
f 79/79/79 59/59/59 54/54/54
f 79/79/79 54/54/54 77/77/77
f 79/79/79 77/77/77 65/65/65
f 79/79/79 65/65/65 64/64/64
f 79/79/79 64/64/64 63/63/63
f 79/79/79 63/63/63 80/80/80
f 81/81/81 82/82/82 69/69/69
f 81/81/81 69/69/69 68/68/68
f 81/81/81 68/68/68 67/67/67
f 81/81/81 67/67/67 83/83/83
f 81/81/81 83/83/83 84/84/84
f 81/81/81 84/84/84 85/85/85
f 81/81/81 85/85/85 86/86/86
f 81/81/81 86/86/86 82/82/82
f 87/87/87 83/83/83 67/67/67
f 87/87/87 67/67/67 75/75/75
f 87/87/87 75/75/75 74/74/74
f 87/87/87 74/74/74 88/88/88
f 87/87/87 88/88/88 89/89/89
f 87/87/87 89/89/89 90/90/90
f 87/87/87 90/90/90 84/84/84
f 87/87/87 84/84/84 83/83/83
f 91/91/91 92/92/92 38/38/38
f 91/91/91 38/38/38 37/37/37
f 91/91/91 37/37/37 18/18/18
f 91/91/91 18/18/18 93/93/93
f 91/91/91 93/93/93 69/69/69
f 91/91/91 69/69/69 82/82/82
f 91/91/91 82/82/82 94/94/94
f 91/91/91 94/94/94 92/92/92
f 95/95/95 96/96/96 44/44/44
f 95/95/95 44/44/44 43/43/43
f 95/95/95 43/43/43 40/40/40
f 95/95/95 40/40/40 97/97/97
f 95/95/95 97/97/97 84/84/84
f 95/95/95 84/84/84 90/90/90
f 95/95/95 90/90/90 98/98/98
f 95/95/95 98/98/98 96/96/96
f 99/99/99 100/100/100 7/7/7
f 99/99/99 7/7/7 6/6/6
f 99/99/99 6/6/6 5/5/5
f 99/99/99 5/5/5 101/101/101
f 99/99/99 101/101/101 52/52/52
f 99/99/99 52/52/52 51/51/51
f 99/99/99 51/51/51 102/102/102
f 99/99/99 102/102/102 100/100/100
f 103/103/103 104/104/104 15/15/15
f 103/103/103 15/15/15 14/14/14
f 103/103/103 14/14/14 9/9/9
f 103/103/103 9/9/9 105/105/105
f 103/103/103 105/105/105 48/48/48
f 103/103/103 48/48/48 58/58/58
f 103/103/103 58/58/58 106/106/106
f 103/103/103 106/106/106 104/104/104
f 107/107/107 108/108/108 12/12/12
f 107/107/107 12/12/12 11/11/11
f 107/107/107 11/11/11 15/15/15
f 107/107/107 15/15/15 104/104/104
f 107/107/107 104/104/104 106/106/106
f 107/107/107 106/106/106 56/56/56
f 107/107/107 56/56/56 60/60/60
f 107/107/107 60/60/60 108/108/108
f 109/109/109 97/97/97 40/40/40
f 109/109/109 40/40/40 39/39/39
f 109/109/109 39/39/39 38/38/38
f 109/109/109 38/38/38 92/92/92
f 109/109/109 92/92/92 94/94/94
f 109/109/109 94/94/94 85/85/85
f 109/109/109 85/85/85 84/84/84
f 109/109/109 84/84/84 97/97/97
f 110/110/110 111/111/111 27/27/27
f 110/110/110 27/27/27 45/45/45
f 110/110/110 45/45/45 44/44/44
f 110/110/110 44/44/44 96/96/96
f 110/110/110 96/96/96 98/98/98
f 110/110/110 98/98/98 88/88/88
f 110/110/110 88/88/88 74/74/74
f 110/110/110 74/74/74 111/111/111
f 112/112/112 105/105/105 9/9/9
f 112/112/112 9/9/9 8/8/8
f 112/112/112 8/8/8 7/7/7
f 112/112/112 7/7/7 100/100/100
f 112/112/112 100/100/100 102/102/102
f 112/112/112 102/102/102 49/49/49
f 112/112/112 49/49/49 48/48/48
f 112/112/112 48/48/48 105/105/105
f 113/113/113 101/101/101 5/5/5
f 113/113/113 5/5/5 33/33/33
f 113/113/113 33/33/33 29/29/29
f 113/113/113 29/29/29 114/114/114
f 113/113/113 114/114/114 72/72/72
f 113/113/113 72/72/72 78/78/78
f 113/113/113 78/78/78 52/52/52
f 113/113/113 52/52/52 101/101/101
f 115/115/115 116/116/116 24/24/24
f 115/115/115 24/24/24 35/35/35
f 115/115/115 35/35/35 12/12/12
f 115/115/115 12/12/12 108/108/108
f 115/115/115 108/108/108 60/60/60
f 115/115/115 60/60/60 80/80/80
f 115/115/115 80/80/80 63/63/63
f 115/115/115 63/63/63 116/116/116
f 117/117/117 93/93/93 18/18/18
f 117/117/117 18/18/18 17/17/17
f 117/117/117 17/17/17 24/24/24
f 117/117/117 24/24/24 116/116/116
f 117/117/117 116/116/116 63/63/63
f 117/117/117 63/63/63 62/62/62
f 117/117/117 62/62/62 69/69/69
f 117/117/117 69/69/69 93/93/93
f 118/118/118 114/114/114 29/29/29
f 118/118/118 29/29/29 28/28/28
f 118/118/118 28/28/28 27/27/27
f 118/118/118 27/27/27 111/111/111
f 118/118/118 111/111/111 74/74/74
f 118/118/118 74/74/74 73/73/73
f 118/118/118 73/73/73 72/72/72
f 118/118/118 72/72/72 114/114/114
