v -2.380262 0.700754 -1.138288
v -2.379669 0.700511 -1.136133
v -2.377503 0.698996 -1.137535
v -2.378446 0.699385 -1.139817
v -2.378952 0.699792 -1.141641
v -2.380354 0.700959 -1.140115
v -2.381145 0.701448 -1.138768
v -2.381564 0.701614 -1.13711
v -2.381305 0.701532 -1.135086
v -2.378088 0.700392 -1.13454
v -2.376543 0.700323 -1.133542
v -2.374623 0.69907 -1.134175
v -2.375976 0.698974 -1.135557
v -2.379683 0.701301 -1.133866
v -2.378059 0.700933 -1.133445
v -2.370105 0.692898 -1.139606
v -2.369025 0.692897 -1.138121
v -2.367595 0.690508 -1.139749
v -2.368562 0.690501 -1.141058
v -2.369753 0.690573 -1.142843
v -2.371442 0.692986 -1.141631
v -2.373271 0.69524 -1.140353
v -2.37186 0.695165 -1.138241
v -2.370708 0.695189 -1.136697
v -2.372525 0.693302 -1.14378
v -2.370702 0.690858 -1.144749
v -2.371346 0.691133 -1.146217
v -2.373265 0.693604 -1.145434
v -2.375143 0.695929 -1.144347
v -2.374391 0.695587 -1.142607
v -2.376427 0.697639 -1.141271
v -2.375331 0.697241 -1.138965
v -2.377127 0.698053 -1.143068
v -2.373858 0.697211 -1.136841
v -2.372626 0.697303 -1.135304
v -2.367195 0.688065 -1.142716
v -2.366435 0.688101 -1.141756
v -2.366016 0.686719 -1.143098
v -2.366255 0.686203 -1.144024
v -2.366921 0.686191 -1.144909
v -2.368113 0.688094 -1.144034
v -2.368793 0.688331 -1.14547
v -2.36735 0.686385 -1.145911
v -2.367985 0.687047 -1.146494
v -2.369236 0.688568 -1.146586
v -2.380395 0.700562 -1.138267
v -2.379787 0.700314 -1.136084
v -2.381391 0.701383 -1.13505
v -2.381662 0.701469 -1.137098
v -2.381222 0.701342 -1.138764
v -2.380461 0.700818 -1.140113
v -2.379063 0.699654 -1.141633
v -2.378584 0.699197 -1.139789
v -2.377628 0.698804 -1.137482
v -2.378189 0.700194 -1.134462
v -2.37661 0.700176 -1.13347
v -2.378109 0.700823 -1.133396
v -2.379755 0.701151 -1.133809
v -2.376085 0.698781 -1.135479
v -2.374697 0.698926 -1.134104
v -2.370248 0.692733 -1.139515
v -2.369126 0.692773 -1.138044
v -2.370802 0.695059 -1.136623
v -2.371993 0.694991 -1.138154
v -2.373416 0.695067 -1.140285
v -2.371595 0.692822 -1.141558
v -2.369912 0.690416 -1.142767
v -2.36871 0.690343 -1.140963
v -2.3677 0.690389 -1.139669
v -2.372689 0.69314 -1.143725
v -2.374547 0.695417 -1.142559
v -2.375265 0.695803 -1.144321
v -2.373392 0.693484 -1.145402
v -2.371477 0.691018 -1.146183
v -2.370871 0.690703 -1.14469
v -2.376573 0.697459 -1.141233
v -2.375465 0.697058 -1.138904
v -2.377243 0.69792 -1.14305
v -2.373979 0.697027 -1.136759
v -2.37271 0.697165 -1.135232
v -2.367344 0.687909 -1.142618
v -2.366541 0.687984 -1.141674
v -2.368273 0.687939 -1.143956
v -2.367042 0.686075 -1.14485
v -2.366367 0.686087 -1.14395
v -2.366095 0.686633 -1.143039
v -2.368964 0.688179 -1.145411
v -2.369369 0.688456 -1.146553
v -2.368083 0.686964 -1.146466
v -2.367479 0.686272 -1.145868
v -2.366227 0.688061 -1.141398
v -2.365698 0.686228 -1.143325
v -2.367318 0.690457 -1.139276
v -2.366095 0.686633 -1.143039
v -2.366926 0.685687 -1.146039
v -2.367671 0.686557 -1.146728
v -2.366578 0.685505 -1.145174
v -2.368083 0.686964 -1.146466
v -2.380435 0.700965 -1.140726
v -2.381343 0.701574 -1.138934
v -2.379172 0.699866 -1.142249
v -2.381222 0.701342 -1.138764
v -2.380245 0.701537 -1.133616
v -2.378004 0.701017 -1.133175
v -2.381888 0.701806 -1.134721
v -2.378109 0.700823 -1.133396
v -2.376055 0.700235 -1.133174
v -2.374203 0.699038 -1.13368
v -2.365991 0.685531 -1.144427
v -2.369444 0.688598 -1.146946
v -2.371619 0.691174 -1.146694
v -2.382041 0.701836 -1.136713
v -2.377414 0.698133 -1.143661
v -2.375449 0.695987 -1.144917
v -2.372251 0.697272 -1.134757
v -2.370364 0.695139 -1.136147
v -2.368708 0.692842 -1.137589
v -2.373569 0.693652 -1.145973
vn 0.5747 0.8183 -0.0029
vn 0.4623 0.8674 -0.1842
vn 0.5053 0.8365 -0.2121
vn 0.608 0.7922 -0.0514
vn 0.6214 0.7802 -0.0713
vn 0.5719 0.8202 -0.0104
vn 0.5337 0.845 0.0321
vn 0.4897 0.8719 0.0055
vn 0.3919 0.9094 -0.1393
vn 0.3582 0.8544 -0.3763
vn 0.3633 0.855 -0.37
vn 0.4373 0.8109 -0.3889
vn 0.4145 0.8245 -0.3851
vn 0.3128 0.9014 -0.2994
vn 0.3096 0.8824 -0.3542
vn 0.6076 0.6786 -0.4127
vn 0.6329 0.6716 -0.3853
vn 0.6519 0.6472 -0.3951
vn 0.621 0.6539 -0.4321
vn 0.6893 0.6409 -0.3377
vn 0.6663 0.6729 -0.3213
vn 0.6165 0.7333 -0.2866
vn 0.5557 0.7326 -0.3929
vn 0.5815 0.7205 -0.3776
vn 0.7162 0.6605 -0.2253
vn 0.7376 0.6344 -0.2311
vn 0.7206 0.6357 -0.2767
vn 0.7046 0.6596 -0.2616
vn 0.6764 0.7048 -0.2141
vn 0.6776 0.7123 -0.1826
vn 0.6371 0.7618 -0.1174
vn 0.5564 0.7937 -0.2459
vn 0.6472 0.7485 -0.144
vn 0.4834 0.7874 -0.3825
vn 0.5102 0.7714 -0.3803
vn 0.6135 0.643 -0.4584
vn 0.6495 0.6331 -0.4212
vn 0.6398 0.6203 -0.4537
vn 0.6288 0.5982 -0.4968
vn 0.7274 0.5805 -0.3657
vn 0.6996 0.6255 -0.3453
vn 0.7556 0.6193 -0.2134
vn 0.7925 0.5709 -0.2144
vn 0.7627 0.5999 -0.2417
vn 0.7406 0.6179 -0.264
vn -0.6021 -0.7983 -0.0107
vn -0.4743 -0.8592 0.192
vn -0.5195 -0.8253 0.2215
vn -0.6775 -0.7335 -0.0541
vn -0.7282 -0.6699 -0.145
vn -0.7155 -0.6867 -0.1281
vn -0.6971 -0.7139 -0.0654
vn -0.615 -0.7876 0.0386
vn -0.5052 -0.8365 0.212
vn -0.3584 -0.8389 0.4095
vn -0.3048 -0.7551 0.5804
vn -0.2951 -0.7422 0.6017
vn -0.3533 -0.7876 0.5047
vn -0.4065 -0.8223 0.3981
vn -0.3518 -0.7714 0.5301
vn -0.5975 -0.6796 0.4256
vn -0.5231 -0.6823 0.5106
vn -0.4849 -0.7189 0.498
vn -0.5468 -0.7327 0.405
vn -0.6166 -0.7332 0.2867
vn -0.6664 -0.6727 0.3214
vn -0.6894 -0.6409 0.3377
vn -0.6082 -0.6565 0.4462
vn -0.5081 -0.6785 0.5304
vn -0.7223 -0.6588 0.2103
vn -0.6837 -0.7099 0.169
vn -0.7317 -0.6778 0.0724
vn -0.7587 -0.643 0.1045
vn -0.7679 -0.6352 0.0826
vn -0.7435 -0.634 0.2128
vn -0.6431 -0.7586 0.1045
vn -0.5564 -0.7937 0.2459
vn -0.7051 -0.7091 0.0078
vn -0.4749 -0.7866 0.3944
vn -0.4185 -0.7568 0.502
vn -0.5875 -0.6577 0.4714
vn -0.4514 -0.6977 0.5563
vn -0.6934 -0.6349 0.3407
vn -0.6646 -0.6751 0.3201
vn -0.5018 -0.7059 0.4999
vn -0.4132 -0.7118 0.5679
vn -0.755 -0.6298 0.1825
vn -0.7634 -0.6456 0.0183
vn -0.7555 -0.6547 -0.0223
vn -0.7407 -0.666 0.088
vn 0.7873 -0.2276 0.573
vn 0.8628 -0.4485 0.233
vn 0.7131 -0.1479 0.6852
vn -0.4132 -0.7118 0.5679
vn 0.414 -0.6995 -0.5824
vn 0.1933 -0.337 -0.9214
vn 0.4343 -0.837 -0.3329
vn -0.7555 -0.6547 -0.0223
vn -0.5105 0.5173 -0.6869
vn -0.6562 0.6269 -0.42
vn -0.4175 0.3857 -0.8227
vn -0.7282 -0.6699 -0.145
vn -0.3491 0.459 0.8169
vn 0.0854 0.5033 0.8599
vn -0.7626 0.4295 0.4836
vn -0.2951 -0.7422 0.6017
vn 0.3791 0.3693 0.8484
vn 0.5319 0.2277 0.8156
vn 0.6507 -0.739 -0.1744
vn -0.119 -0.0765 -0.9899
vn -0.2465 0.0123 -0.9691
vn -0.8404 0.541 -0.0308
vn -0.364 0.2671 -0.8922
vn -0.342 0.1876 -0.9208
vn 0.6093 0.1049 0.7859
vn 0.6382 0.0242 0.7694
vn 0.6616 -0.0558 0.7477
vn -0.3182 0.1076 -0.9419
vt 0.839504 0.118056
vt 0.856743 0.205307
vt 0.741230 0.205307
vt 0.734555 0.106726
vt 0.724541 0.032791
vt 0.813647 0.052618
vt 0.868992 0.081539
vt 0.913398 0.129584
vt 0.940923 0.205307
vt 0.839504 0.292557
vt 0.813647 0.357995
vt 0.724541 0.377822
vt 0.734555 0.303887
vt 0.913398 0.281029
vt 0.868992 0.329074
vt 0.369475 0.299954
vt 0.368286 0.370940
vt 0.245840 0.351447
vt 0.246397 0.288815
vt 0.246768 0.205307
vt 0.370268 0.205307
vt 0.494283 0.205307
vt 0.492822 0.304944
vt 0.490632 0.379672
vt 0.369475 0.110659
vt 0.246397 0.121798
vt 0.245841 0.059166
vt 0.368286 0.039673
vt 0.490632 0.030941
vt 0.492822 0.105669
vt 0.616755 0.103478
vt 0.619174 0.205307
vt 0.613127 0.027106
vt 0.616755 0.307135
vt 0.613126 0.383507
vt 0.123273 0.268175
vt 0.123047 0.315326
vt 0.054743 0.283353
vt 0.030912 0.249131
vt 0.030973 0.205306
vt 0.123423 0.205306
vt 0.123273 0.142438
vt 0.030912 0.161481
vt 0.054744 0.127260
vt 0.123047 0.095287
vt 0.839504 0.118056
vt 0.856743 0.205307
vt 0.968983 0.205307
vt 0.938030 0.133427
vt 0.876123 0.061548
vt 0.805028 0.030806
vt 0.721203 0.008146
vt 0.734555 0.106726
vt 0.741230 0.205307
vt 0.839504 0.292557
vt 0.805028 0.379807
vt 0.876123 0.349065
vt 0.938030 0.277186
vt 0.734555 0.303887
vt 0.721203 0.402467
vt 0.369475 0.299954
vt 0.367890 0.394602
vt 0.489902 0.404581
vt 0.492822 0.304944
vt 0.494283 0.205307
vt 0.370268 0.205307
vt 0.246768 0.205307
vt 0.246397 0.288815
vt 0.245655 0.372324
vt 0.369475 0.110659
vt 0.492822 0.105669
vt 0.489902 0.006032
vt 0.367890 0.016011
vt 0.245655 0.038289
vt 0.246397 0.121798
vt 0.616755 0.103478
vt 0.619174 0.205307
vt 0.611917 0.001649
vt 0.616755 0.307135
vt 0.611917 0.408964
vt 0.123273 0.268175
vt 0.122972 0.331043
vt 0.123423 0.205306
vt 0.000156 0.205306
vt 0.000125 0.242784
vt 0.000064 0.280261
vt 0.123273 0.142438
vt 0.122972 0.079570
vt 0.000064 0.130352
vt 0.000125 0.167829
vt 0.122972 0.331043
vt 0.030806 0.283587
vt 0.245655 0.372324
vt 0.030806 0.283587
vt 0.000125 0.167829
vt 0.030806 0.127026
vt 0.000156 0.205306
vt 0.030806 0.127026
vt 0.805028 0.030806
vt 0.873826 0.071832
vt 0.721203 0.008146
vt 0.873826 0.071832
vt 0.938030 0.277186
vt 0.873826 0.338781
vt 0.968983 0.205307
vt 0.873826 0.338781
vt 0.805028 0.379807
vt 0.721203 0.402467
vt 0.000125 0.242784
vt 0.122972 0.079570
vt 0.245655 0.038289
vt 0.938030 0.133427
vt 0.611917 0.001649
vt 0.489902 0.006032
vt 0.611917 0.408964
vt 0.489902 0.404581
vt 0.367890 0.394602
vt 0.367890 0.016011
f 1/1/1 2/2/2 3/3/3
f 1/1/1 3/3/3 4/4/4
f 1/1/1 4/4/4 5/5/5
f 1/1/1 5/5/5 6/6/6
f 1/1/1 6/6/6 7/7/7
f 1/1/1 7/7/7 8/8/8
f 1/1/1 8/8/8 9/9/9
f 1/1/1 9/9/9 2/2/2
f 10/10/10 11/11/11 12/12/12
f 10/10/10 12/12/12 13/13/13
f 10/10/10 13/13/13 3/3/3
f 10/10/10 3/3/3 2/2/2
f 10/10/10 2/2/2 9/9/9
f 10/10/10 9/9/9 14/14/14
f 10/10/10 14/14/14 15/15/15
f 10/10/10 15/15/15 11/11/11
f 16/16/16 17/17/17 18/18/18
f 16/16/16 18/18/18 19/19/19
f 16/16/16 19/19/19 20/20/20
f 16/16/16 20/20/20 21/21/21
f 16/16/16 21/21/21 22/22/22
f 16/16/16 22/22/22 23/23/23
f 16/16/16 23/23/23 24/24/24
f 16/16/16 24/24/24 17/17/17
f 25/25/25 21/21/21 20/20/20
f 25/25/25 20/20/20 26/26/26
f 25/25/25 26/26/26 27/27/27
f 25/25/25 27/27/27 28/28/28
f 25/25/25 28/28/28 29/29/29
f 25/25/25 29/29/29 30/30/30
f 25/25/25 30/30/30 22/22/22
f 25/25/25 22/22/22 21/21/21
f 31/31/31 32/32/32 22/22/22
f 31/31/31 22/22/22 30/30/30
f 31/31/31 30/30/30 29/29/29
f 31/31/31 29/29/29 33/33/33
f 31/31/31 33/33/33 5/5/5
f 31/31/31 5/5/5 4/4/4
f 31/31/31 4/4/4 3/3/3
f 31/31/31 3/3/3 32/32/32
f 34/34/34 35/35/35 24/24/24
f 34/34/34 24/24/24 23/23/23
f 34/34/34 23/23/23 22/22/22
f 34/34/34 22/22/22 32/32/32
f 34/34/34 32/32/32 3/3/3
f 34/34/34 3/3/3 13/13/13
f 34/34/34 13/13/13 12/12/12
f 34/34/34 12/12/12 35/35/35
f 36/36/36 37/37/37 38/38/38
f 36/36/36 38/38/38 39/39/39
f 36/36/36 39/39/39 40/40/40
f 36/36/36 40/40/40 41/41/41
f 36/36/36 41/41/41 20/20/20
f 36/36/36 20/20/20 19/19/19
f 36/36/36 19/19/19 18/18/18
f 36/36/36 18/18/18 37/37/37
f 42/42/42 41/41/41 40/40/40
f 42/42/42 40/40/40 43/43/43
f 42/42/42 43/43/43 44/44/44
f 42/42/42 44/44/44 45/45/45
f 42/42/42 45/45/45 27/27/27
f 42/42/42 27/27/27 26/26/26
f 42/42/42 26/26/26 20/20/20
f 42/42/42 20/20/20 41/41/41
f 46/46/46 47/47/47 48/48/48
f 46/46/46 48/48/48 49/49/49
f 46/46/46 49/49/49 50/50/50
f 46/46/46 50/50/50 51/51/51
f 46/46/46 51/51/51 52/52/52
f 46/46/46 52/52/52 53/53/53
f 46/46/46 53/53/53 54/54/54
f 46/46/46 54/54/54 47/47/47
f 55/55/55 56/56/56 57/57/57
f 55/55/55 57/57/57 58/58/58
f 55/55/55 58/58/58 48/48/48
f 55/55/55 48/48/48 47/47/47
f 55/55/55 47/47/47 54/54/54
f 55/55/55 54/54/54 59/59/59
f 55/55/55 59/59/59 60/60/60
f 55/55/55 60/60/60 56/56/56
f 61/61/61 62/62/62 63/63/63
f 61/61/61 63/63/63 64/64/64
f 61/61/61 64/64/64 65/65/65
f 61/61/61 65/65/65 66/66/66
f 61/61/61 66/66/66 67/67/67
f 61/61/61 67/67/67 68/68/68
f 61/61/61 68/68/68 69/69/69
f 61/61/61 69/69/69 62/62/62
f 70/70/70 66/66/66 65/65/65
f 70/70/70 65/65/65 71/71/71
f 70/70/70 71/71/71 72/72/72
f 70/70/70 72/72/72 73/73/73
f 70/70/70 73/73/73 74/74/74
f 70/70/70 74/74/74 75/75/75
f 70/70/70 75/75/75 67/67/67
f 70/70/70 67/67/67 66/66/66
f 76/76/76 77/77/77 54/54/54
f 76/76/76 54/54/54 53/53/53
f 76/76/76 53/53/53 52/52/52
f 76/76/76 52/52/52 78/78/78
f 76/76/76 78/78/78 72/72/72
f 76/76/76 72/72/72 71/71/71
f 76/76/76 71/71/71 65/65/65
f 76/76/76 65/65/65 77/77/77
f 79/79/79 80/80/80 60/60/60
f 79/79/79 60/60/60 59/59/59
f 79/79/79 59/59/59 54/54/54
f 79/79/79 54/54/54 77/77/77
f 79/79/79 77/77/77 65/65/65
f 79/79/79 65/65/65 64/64/64
f 79/79/79 64/64/64 63/63/63
f 79/79/79 63/63/63 80/80/80
f 81/81/81 82/82/82 69/69/69
f 81/81/81 69/69/69 68/68/68
f 81/81/81 68/68/68 67/67/67
f 81/81/81 67/67/67 83/83/83
f 81/81/81 83/83/83 84/84/84
f 81/81/81 84/84/84 85/85/85
f 81/81/81 85/85/85 86/86/86
f 81/81/81 86/86/86 82/82/82
f 87/87/87 83/83/83 67/67/67
f 87/87/87 67/67/67 75/75/75
f 87/87/87 75/75/75 74/74/74
f 87/87/87 74/74/74 88/88/88
f 87/87/87 88/88/88 89/89/89
f 87/87/87 89/89/89 90/90/90
f 87/87/87 90/90/90 84/84/84
f 87/87/87 84/84/84 83/83/83
f 91/91/91 92/92/92 38/38/38
f 91/91/91 38/38/38 37/37/37
f 91/91/91 37/37/37 18/18/18
f 91/91/91 18/18/18 93/93/93
f 91/91/91 93/93/93 69/69/69
f 91/91/91 69/69/69 82/82/82
f 91/91/91 82/82/82 94/94/94
f 91/91/91 94/94/94 92/92/92
f 95/95/95 96/96/96 44/44/44
f 95/95/95 44/44/44 43/43/43
f 95/95/95 43/43/43 40/40/40
f 95/95/95 40/40/40 97/97/97
f 95/95/95 97/97/97 84/84/84
f 95/95/95 84/84/84 90/90/90
f 95/95/95 90/90/90 98/98/98
f 95/95/95 98/98/98 96/96/96
f 99/99/99 100/100/100 7/7/7
f 99/99/99 7/7/7 6/6/6
f 99/99/99 6/6/6 5/5/5
f 99/99/99 5/5/5 101/101/101
f 99/99/99 101/101/101 52/52/52
f 99/99/99 52/52/52 51/51/51
f 99/99/99 51/51/51 102/102/102
f 99/99/99 102/102/102 100/100/100
f 103/103/103 104/104/104 15/15/15
f 103/103/103 15/15/15 14/14/14
f 103/103/103 14/14/14 9/9/9
f 103/103/103 9/9/9 105/105/105
f 103/103/103 105/105/105 48/48/48
f 103/103/103 48/48/48 58/58/58
f 103/103/103 58/58/58 106/106/106
f 103/103/103 106/106/106 104/104/104
f 107/107/107 108/108/108 12/12/12
f 107/107/107 12/12/12 11/11/11
f 107/107/107 11/11/11 15/15/15
f 107/107/107 15/15/15 104/104/104
f 107/107/107 104/104/104 106/106/106
f 107/107/107 106/106/106 56/56/56
f 107/107/107 56/56/56 60/60/60
f 107/107/107 60/60/60 108/108/108
f 109/109/109 97/97/97 40/40/40
f 109/109/109 40/40/40 39/39/39
f 109/109/109 39/39/39 38/38/38
f 109/109/109 38/38/38 92/92/92
f 109/109/109 92/92/92 94/94/94
f 109/109/109 94/94/94 85/85/85
f 109/109/109 85/85/85 84/84/84
f 109/109/109 84/84/84 97/97/97
f 110/110/110 111/111/111 27/27/27
f 110/110/110 27/27/27 45/45/45
f 110/110/110 45/45/45 44/44/44
f 110/110/110 44/44/44 96/96/96
f 110/110/110 96/96/96 98/98/98
f 110/110/110 98/98/98 88/88/88
f 110/110/110 88/88/88 74/74/74
f 110/110/110 74/74/74 111/111/111
f 112/112/112 105/105/105 9/9/9
f 112/112/112 9/9/9 8/8/8
f 112/112/112 8/8/8 7/7/7
f 112/112/112 7/7/7 100/100/100
f 112/112/112 100/100/100 102/102/102
f 112/112/112 102/102/102 49/49/49
f 112/112/112 49/49/49 48/48/48
f 112/112/112 48/48/48 105/105/105
f 113/113/113 101/101/101 5/5/5
f 113/113/113 5/5/5 33/33/33
f 113/113/113 33/33/33 29/29/29
f 113/113/113 29/29/29 114/114/114
f 113/113/113 114/114/114 72/72/72
f 113/113/113 72/72/72 78/78/78
f 113/113/113 78/78/78 52/52/52
f 113/113/113 52/52/52 101/101/101
f 115/115/115 116/116/116 24/24/24
f 115/115/115 24/24/24 35/35/35
f 115/115/115 35/35/35 12/12/12
f 115/115/115 12/12/12 108/108/108
f 115/115/115 108/108/108 60/60/60
f 115/115/115 60/60/60 80/80/80
f 115/115/115 80/80/80 63/63/63
f 115/115/115 63/63/63 116/116/116
f 117/117/117 93/93/93 18/18/18
f 117/117/117 18/18/18 17/17/17
f 117/117/117 17/17/17 24/24/24
f 117/117/117 24/24/24 116/116/116
f 117/117/117 116/116/116 63/63/63
f 117/117/117 63/63/63 62/62/62
f 117/117/117 62/62/62 69/69/69
f 117/117/117 69/69/69 93/93/93
f 118/118/118 114/114/114 29/29/29
f 118/118/118 29/29/29 28/28/28
f 118/118/118 28/28/28 27/27/27
f 118/118/118 27/27/27 111/111/111
f 118/118/118 111/111/111 74/74/74
f 118/118/118 74/74/74 73/73/73
f 118/118/118 73/73/73 72/72/72
f 118/118/118 72/72/72 114/114/114
