v -2.345292 0.714674 -1.145012
v -2.345693 0.715324 -1.147597
v -2.348392 0.713039 -1.14699
v -2.347599 0.712498 -1.144151
v -2.347263 0.712173 -1.141876
v -2.34544 0.714125 -1.142879
v -2.344337 0.715243 -1.144056
v -2.343621 0.716134 -1.14577
v -2.34365 0.716906 -1.148094
v -2.347352 0.715877 -1.149648
v -2.349052 0.716233 -1.151009
v -2.351367 0.714568 -1.151112
v -2.34994 0.713864 -1.14942
v -2.345404 0.717174 -1.149783
v -2.347263 0.716951 -1.150641
v -2.357198 0.705358 -1.148334
v -2.358282 0.705996 -1.150143
v -2.360096 0.70263 -1.149549
v -2.359123 0.70206 -1.147957
v -2.357951 0.701373 -1.145768
v -2.355887 0.704587 -1.145852
v -2.353641 0.707649 -1.146056
v -2.355029 0.708472 -1.148641
v -2.356191 0.709163 -1.150514
v -2.354905 0.704019 -1.143171
v -2.357094 0.700876 -1.143391
v -2.356541 0.700555 -1.141548
v -2.354263 0.70365 -1.141096
v -2.351987 0.706709 -1.141051
v -2.35263 0.707072 -1.14324
v -2.35012 0.709931 -1.143564
v -2.351092 0.710473 -1.146456
v -2.34955 0.709625 -1.141289
v -2.352554 0.711352 -1.149043
v -2.353816 0.712116 -1.150892
v -2.360862 0.698629 -1.147341
v -2.361638 0.699083 -1.148502
v -2.362256 0.696964 -1.147655
v -2.362073 0.69599 -1.146809
v -2.361401 0.695595 -1.145734
v -2.359951 0.698095 -1.14573
v -2.359348 0.697746 -1.143934
v -2.361036 0.695384 -1.144475
v -2.36039 0.695875 -1.143454
v -2.358984 0.697534 -1.142527
v -2.345121 0.714467 -1.145097
v -2.345536 0.715123 -1.147718
v -2.343535 0.716753 -1.148185
v -2.343496 0.715975 -1.145831
v -2.344241 0.715126 -1.144094
v -2.345306 0.713967 -1.142924
v -2.347124 0.712021 -1.141928
v -2.347421 0.712298 -1.144243
v -2.348228 0.712846 -1.147113
v -2.347212 0.715687 -1.149803
v -2.348957 0.716098 -1.151142
v -2.347191 0.716848 -1.150735
v -2.345304 0.717031 -1.1499
v -2.34979 0.713681 -1.149574
v -2.351262 0.714437 -1.151242
v -2.357009 0.705211 -1.148485
v -2.358146 0.705889 -1.150266
v -2.356063 0.709047 -1.150638
v -2.35485 0.708313 -1.148791
v -2.353451 0.707483 -1.146183
v -2.355687 0.704433 -1.145981
v -2.357744 0.701229 -1.145898
v -2.358927 0.701922 -1.148108
v -2.359954 0.70253 -1.149673
v -2.354695 0.703861 -1.143277
v -2.35243 0.7069 -1.143343
v -2.351833 0.706578 -1.141116
v -2.354102 0.703528 -1.141164
v -2.356375 0.700441 -1.141616
v -2.356878 0.700727 -1.143497
v -2.349931 0.709745 -1.143661
v -2.350915 0.710293 -1.146581
v -2.349403 0.709484 -1.141348
v -2.35239 0.71118 -1.149195
v -2.3537 0.711992 -1.151019
v -2.360665 0.698496 -1.147494
v -2.361496 0.698987 -1.148628
v -2.359742 0.697955 -1.145859
v -2.361243 0.69549 -1.145831
v -2.361925 0.69589 -1.146925
v -2.362149 0.696892 -1.147746
v -2.359129 0.6976 -1.144039
v -2.358815 0.697422 -1.142593
v -2.360266 0.695793 -1.143506
v -2.360871 0.695275 -1.144552
v -2.361835 0.699192 -1.148948
v -2.362643 0.696319 -1.147656
v -2.360358 0.702776 -1.150137
v -2.362149 0.696892 -1.147746
v -2.361525 0.694549 -1.144689
v -2.360773 0.695227 -1.143447
v -2.361814 0.694716 -1.145779
v -2.360266 0.695793 -1.143506
v -2.345428 0.713871 -1.142184
v -2.34413 0.715312 -1.14379
v -2.347088 0.711997 -1.141137
v -2.344241 0.715126 -1.144094
v -2.344711 0.717543 -1.14988
v -2.347295 0.717159 -1.150913
v -2.342919 0.717365 -1.1483
v -2.347191 0.716848 -1.150735
v -2.349579 0.716294 -1.151526
v -2.351797 0.714746 -1.151737
v -2.362411 0.695066 -1.146684
v -2.358786 0.697413 -1.142085
v -2.356282 0.700397 -1.140961
v -2.343009 0.716549 -1.146049
v -2.349293 0.70946 -1.140553
v -2.351703 0.706529 -1.140347
v -2.354187 0.712316 -1.151567
v -2.356523 0.709343 -1.151196
v -2.358584 0.706161 -1.150803
v -2.353977 0.703472 -1.140432
vn -0.6025 0.7663 0.2229
vn -0.5134 0.7472 0.4219
vn -0.5581 0.7086 0.4317
vn -0.6401 0.7248 0.2547
vn -0.6553 0.7065 0.2672
vn -0.6007 0.7655 0.2307
vn -0.5588 0.8037 0.2046
vn -0.5191 0.8191 0.2442
vn -0.44 0.8022 0.4035
vn -0.4315 0.6664 0.608
vn -0.4358 0.6693 0.6017
vn -0.5098 0.6216 0.5947
vn -0.4872 0.6355 0.5989
vn -0.3795 0.7374 0.5587
vn -0.3818 0.7002 0.6032
vn -0.6763 0.4901 0.5498
vn -0.6981 0.4935 0.5188
vn -0.7171 0.4673 0.5171
vn -0.6909 0.4602 0.5575
vn -0.7475 0.482 0.4571
vn -0.7241 0.5176 0.4559
vn -0.673 0.5861 0.451
vn -0.6247 0.5475 0.5567
vn -0.6481 0.5418 0.5351
vn -0.7622 0.5403 0.3565
vn -0.7831 0.514 0.3501
vn -0.7714 0.499 0.3948
vn -0.7548 0.5265 0.3912
vn -0.7231 0.5855 0.3664
vn -0.7211 0.6037 0.3398
vn -0.6753 0.673 0.3017
vn -0.611 0.6568 0.4418
vn -0.6879 0.6512 0.3204
vn -0.5538 0.6021 0.5751
vn -0.5796 0.588 0.5642
vn -0.686 0.4407 0.5789
vn -0.7171 0.4448 0.5366
vn -0.7107 0.4213 0.5633
vn -0.7038 0.3853 0.5968
vn -0.7862 0.4158 0.4571
vn -0.758 0.4649 0.4574
vn -0.7983 0.5062 0.3261
vn -0.8332 0.4608 0.3055
vn -0.8079 0.478 0.3446
vn -0.7892 0.4868 0.3743
vn 0.6274 -0.7526 -0.1998
vn 0.5259 -0.7369 -0.4247
vn 0.5728 -0.695 -0.4346
vn 0.6948 -0.7078 -0.1276
vn 0.7322 -0.6809 -0.0148
vn 0.7224 -0.6905 -0.0378
vn 0.7122 -0.6936 -0.1079
vn 0.6454 -0.725 -0.2402
vn 0.558 -0.7087 -0.4317
vn 0.4349 -0.6402 -0.6333
vn 0.3977 -0.5009 -0.7687
vn 0.39 -0.481 -0.7851
vn 0.4386 -0.5582 -0.7042
vn 0.4807 -0.6288 -0.6112
vn 0.4394 -0.5342 -0.7222
vn 0.6678 -0.4865 -0.5632
vn 0.6037 -0.4585 -0.6521
vn 0.5658 -0.4971 -0.6579
vn 0.6173 -0.5432 -0.569
vn 0.6731 -0.586 -0.451
vn 0.7242 -0.5174 -0.4559
vn 0.7476 -0.4819 -0.4571
vn 0.6799 -0.4577 -0.5729
vn 0.591 -0.4479 -0.6709
vn 0.7665 -0.5441 -0.3413
vn 0.7254 -0.6064 -0.3256
vn 0.7608 -0.6109 -0.2189
vn 0.7899 -0.5671 -0.2331
vn 0.7963 -0.5677 -0.2088
vn 0.7868 -0.52 -0.3323
vn 0.6796 -0.6747 -0.2878
vn 0.611 -0.6568 -0.4418
vn 0.7283 -0.663 -0.1732
vn 0.5468 -0.5971 -0.5869
vn 0.5018 -0.5308 -0.6829
vn 0.6623 -0.4498 -0.5992
vn 0.5383 -0.4563 -0.7085
vn 0.7517 -0.4753 -0.4572
vn 0.7223 -0.52 -0.4558
vn 0.5823 -0.4843 -0.6529
vn 0.5022 -0.4652 -0.7289
vn 0.7946 -0.527 -0.3014
vn 0.785 -0.6002 -0.1534
vn 0.7729 -0.6231 -0.1199
vn 0.771 -0.5945 -0.2281
vn -0.7077 -0.0056 -0.7064
vn -0.8128 -0.3327 -0.4782
vn -0.6243 0.1086 -0.7736
vn 0.5022 -0.4652 -0.7289
vn -0.4505 -0.8591 0.2429
vn -0.284 -0.6419 0.7122
vn -0.4365 -0.8988 -0.039
vn 0.7729 -0.6231 -0.1199
vn 0.4087 0.2373 0.8813
vn 0.5797 0.4342 0.6895
vn 0.3061 0.0663 0.9497
vn 0.7322 -0.6809 -0.0148
vn 0.4213 0.7179 -0.5542
vn -0.0067 0.7764 -0.6302
vn 0.7955 0.5699 -0.2057
vn 0.39 -0.481 -0.7851
vn -0.2945 0.648 -0.7023
vn -0.4447 0.5045 -0.7401
vn -0.637 -0.7502 -0.177
vn 0.0087 -0.4236 0.9058
vn 0.1337 -0.3341 0.933
vn 0.8101 0.491 0.3205
vn 0.2494 -0.0692 0.9659
vn 0.2274 -0.1536 0.9616
vn -0.5197 0.3798 -0.7652
vn -0.5471 0.2987 -0.7819
vn -0.5698 0.2162 -0.7928
vn 0.2045 -0.2358 0.95
vt 0.839504 0.118056
vt 0.856743 0.205307
vt 0.741230 0.205307
vt 0.734555 0.106726
vt 0.724541 0.032791
vt 0.813647 0.052618
vt 0.868992 0.081539
vt 0.913398 0.129584
vt 0.940923 0.205307
vt 0.839504 0.292557
vt 0.813647 0.357995
vt 0.724541 0.377822
vt 0.734555 0.303887
vt 0.913398 0.281029
vt 0.868992 0.329074
vt 0.369475 0.299954
vt 0.368286 0.370940
vt 0.245840 0.351447
vt 0.246397 0.288815
vt 0.246768 0.205307
vt 0.370268 0.205307
vt 0.494283 0.205307
vt 0.492822 0.304944
vt 0.490632 0.379672
vt 0.369475 0.110659
vt 0.246397 0.121798
vt 0.245841 0.059166
vt 0.368286 0.039673
vt 0.490632 0.030941
vt 0.492822 0.105669
vt 0.616755 0.103478
vt 0.619174 0.205307
vt 0.613127 0.027106
vt 0.616755 0.307135
vt 0.613126 0.383507
vt 0.123273 0.268175
vt 0.123047 0.315326
vt 0.054743 0.283353
vt 0.030912 0.249131
vt 0.030973 0.205306
vt 0.123423 0.205306
vt 0.123273 0.142438
vt 0.030912 0.161481
vt 0.054744 0.127260
vt 0.123047 0.095287
vt 0.839504 0.118056
vt 0.856743 0.205307
vt 0.968983 0.205307
vt 0.938030 0.133427
vt 0.876123 0.061548
vt 0.805028 0.030806
vt 0.721203 0.008146
vt 0.734555 0.106726
vt 0.741230 0.205307
vt 0.839504 0.292557
vt 0.805028 0.379807
vt 0.876123 0.349065
vt 0.938030 0.277186
vt 0.734555 0.303887
vt 0.721203 0.402467
vt 0.369475 0.299954
vt 0.367890 0.394602
vt 0.489902 0.404581
vt 0.492822 0.304944
vt 0.494283 0.205307
vt 0.370268 0.205307
vt 0.246768 0.205307
vt 0.246397 0.288815
vt 0.245655 0.372324
vt 0.369475 0.110659
vt 0.492822 0.105669
vt 0.489902 0.006032
vt 0.367890 0.016011
vt 0.245655 0.038289
vt 0.246397 0.121798
vt 0.616755 0.103478
vt 0.619174 0.205307
vt 0.611917 0.001649
vt 0.616755 0.307135
vt 0.611917 0.408964
vt 0.123273 0.268175
vt 0.122972 0.331043
vt 0.123423 0.205306
vt 0.000156 0.205306
vt 0.000125 0.242784
vt 0.000064 0.280261
vt 0.123273 0.142438
vt 0.122972 0.079570
vt 0.000064 0.130352
vt 0.000125 0.167829
vt 0.122972 0.331043
vt 0.030806 0.283587
vt 0.245655 0.372324
vt 0.030806 0.283587
vt 0.000125 0.167829
vt 0.030806 0.127026
vt 0.000156 0.205306
vt 0.030806 0.127026
vt 0.805028 0.030806
vt 0.873826 0.071832
vt 0.721203 0.008146
vt 0.873826 0.071832
vt 0.938030 0.277186
vt 0.873826 0.338781
vt 0.968983 0.205307
vt 0.873826 0.338781
vt 0.805028 0.379807
vt 0.721203 0.402467
vt 0.000125 0.242784
vt 0.122972 0.079570
vt 0.245655 0.038289
vt 0.938030 0.133427
vt 0.611917 0.001649
vt 0.489902 0.006032
vt 0.611917 0.408964
vt 0.489902 0.404581
vt 0.367890 0.394602
vt 0.367890 0.016011
f 1/1/1 2/2/2 3/3/3
f 1/1/1 3/3/3 4/4/4
f 1/1/1 4/4/4 5/5/5
f 1/1/1 5/5/5 6/6/6
f 1/1/1 6/6/6 7/7/7
f 1/1/1 7/7/7 8/8/8
f 1/1/1 8/8/8 9/9/9
f 1/1/1 9/9/9 2/2/2
f 10/10/10 11/11/11 12/12/12
f 10/10/10 12/12/12 13/13/13
f 10/10/10 13/13/13 3/3/3
f 10/10/10 3/3/3 2/2/2
f 10/10/10 2/2/2 9/9/9
f 10/10/10 9/9/9 14/14/14
f 10/10/10 14/14/14 15/15/15
f 10/10/10 15/15/15 11/11/11
f 16/16/16 17/17/17 18/18/18
f 16/16/16 18/18/18 19/19/19
f 16/16/16 19/19/19 20/20/20
f 16/16/16 20/20/20 21/21/21
f 16/16/16 21/21/21 22/22/22
f 16/16/16 22/22/22 23/23/23
f 16/16/16 23/23/23 24/24/24
f 16/16/16 24/24/24 17/17/17
f 25/25/25 21/21/21 20/20/20
f 25/25/25 20/20/20 26/26/26
f 25/25/25 26/26/26 27/27/27
f 25/25/25 27/27/27 28/28/28
f 25/25/25 28/28/28 29/29/29
f 25/25/25 29/29/29 30/30/30
f 25/25/25 30/30/30 22/22/22
f 25/25/25 22/22/22 21/21/21
f 31/31/31 32/32/32 22/22/22
f 31/31/31 22/22/22 30/30/30
f 31/31/31 30/30/30 29/29/29
f 31/31/31 29/29/29 33/33/33
f 31/31/31 33/33/33 5/5/5
f 31/31/31 5/5/5 4/4/4
f 31/31/31 4/4/4 3/3/3
f 31/31/31 3/3/3 32/32/32
f 34/34/34 35/35/35 24/24/24
f 34/34/34 24/24/24 23/23/23
f 34/34/34 23/23/23 22/22/22
f 34/34/34 22/22/22 32/32/32
f 34/34/34 32/32/32 3/3/3
f 34/34/34 3/3/3 13/13/13
f 34/34/34 13/13/13 12/12/12
f 34/34/34 12/12/12 35/35/35
f 36/36/36 37/37/37 38/38/38
f 36/36/36 38/38/38 39/39/39
f 36/36/36 39/39/39 40/40/40
f 36/36/36 40/40/40 41/41/41
f 36/36/36 41/41/41 20/20/20
f 36/36/36 20/20/20 19/19/19
f 36/36/36 19/19/19 18/18/18
f 36/36/36 18/18/18 37/37/37
f 42/42/42 41/41/41 40/40/40
f 42/42/42 40/40/40 43/43/43
f 42/42/42 43/43/43 44/44/44
f 42/42/42 44/44/44 45/45/45
f 42/42/42 45/45/45 27/27/27
f 42/42/42 27/27/27 26/26/26
f 42/42/42 26/26/26 20/20/20
f 42/42/42 20/20/20 41/41/41
f 46/46/46 47/47/47 48/48/48
f 46/46/46 48/48/48 49/49/49
f 46/46/46 49/49/49 50/50/50
f 46/46/46 50/50/50 51/51/51
f 46/46/46 51/51/51 52/52/52
f 46/46/46 52/52/52 53/53/53
f 46/46/46 53/53/53 54/54/54
f 46/46/46 54/54/54 47/47/47
f 55/55/55 56/56/56 57/57/57
f 55/55/55 57/57/57 58/58/58
f 55/55/55 58/58/58 48/48/48
f 55/55/55 48/48/48 47/47/47
f 55/55/55 47/47/47 54/54/54
f 55/55/55 54/54/54 59/59/59
f 55/55/55 59/59/59 60/60/60
f 55/55/55 60/60/60 56/56/56
f 61/61/61 62/62/62 63/63/63
f 61/61/61 63/63/63 64/64/64
f 61/61/61 64/64/64 65/65/65
f 61/61/61 65/65/65 66/66/66
f 61/61/61 66/66/66 67/67/67
f 61/61/61 67/67/67 68/68/68
f 61/61/61 68/68/68 69/69/69
f 61/61/61 69/69/69 62/62/62
f 70/70/70 66/66/66 65/65/65
f 70/70/70 65/65/65 71/71/71
f 70/70/70 71/71/71 72/72/72
f 70/70/70 72/72/72 73/73/73
f 70/70/70 73/73/73 74/74/74
f 70/70/70 74/74/74 75/75/75
f 70/70/70 75/75/75 67/67/67
f 70/70/70 67/67/67 66/66/66
f 76/76/76 77/77/77 54/54/54
f 76/76/76 54/54/54 53/53/53
f 76/76/76 53/53/53 52/52/52
f 76/76/76 52/52/52 78/78/78
f 76/76/76 78/78/78 72/72/72
f 76/76/76 72/72/72 71/71/71
f 76/76/76 71/71/71 65/65/65
f 76/76/76 65/65/65 77/77/77
f 79/79/79 80/80/80 60/60/60
f 79/79/79 60/60/60 59/59/59
f 79/79/79 59/59/59 54/54/54
f 79/79/79 54/54/54 77/77/77
f 79/79/79 77/77/77 65/65/65
f 79/79/79 65/65/65 64/64/64
f 79/79/79 64/64/64 63/63/63
f 79/79/79 63/63/63 80/80/80
f 81/81/81 82/82/82 69/69/69
f 81/81/81 69/69/69 68/68/68
f 81/81/81 68/68/68 67/67/67
f 81/81/81 67/67/67 83/83/83
f 81/81/81 83/83/83 84/84/84
f 81/81/81 84/84/84 85/85/85
f 81/81/81 85/85/85 86/86/86
f 81/81/81 86/86/86 82/82/82
f 87/87/87 83/83/83 67/67/67
f 87/87/87 67/67/67 75/75/75
f 87/87/87 75/75/75 74/74/74
f 87/87/87 74/74/74 88/88/88
f 87/87/87 88/88/88 89/89/89
f 87/87/87 89/89/89 90/90/90
f 87/87/87 90/90/90 84/84/84
f 87/87/87 84/84/84 83/83/83
f 91/91/91 92/92/92 38/38/38
f 91/91/91 38/38/38 37/37/37
f 91/91/91 37/37/37 18/18/18
f 91/91/91 18/18/18 93/93/93
f 91/91/91 93/93/93 69/69/69
f 91/91/91 69/69/69 82/82/82
f 91/91/91 82/82/82 94/94/94
f 91/91/91 94/94/94 92/92/92
f 95/95/95 96/96/96 44/44/44
f 95/95/95 44/44/44 43/43/43
f 95/95/95 43/43/43 40/40/40
f 95/95/95 40/40/40 97/97/97
f 95/95/95 97/97/97 84/84/84
f 95/95/95 84/84/84 90/90/90
f 95/95/95 90/90/90 98/98/98
f 95/95/95 98/98/98 96/96/96
f 99/99/99 100/100/100 7/7/7
f 99/99/99 7/7/7 6/6/6
f 99/99/99 6/6/6 5/5/5
f 99/99/99 5/5/5 101/101/101
f 99/99/99 101/101/101 52/52/52
f 99/99/99 52/52/52 51/51/51
f 99/99/99 51/51/51 102/102/102
f 99/99/99 102/102/102 100/100/100
f 103/103/103 104/104/104 15/15/15
f 103/103/103 15/15/15 14/14/14
f 103/103/103 14/14/14 9/9/9
f 103/103/103 9/9/9 105/105/105
f 103/103/103 105/105/105 48/48/48
f 103/103/103 48/48/48 58/58/58
f 103/103/103 58/58/58 106/106/106
f 103/103/103 106/106/106 104/104/104
f 107/107/107 108/108/108 12/12/12
f 107/107/107 12/12/12 11/11/11
f 107/107/107 11/11/11 15/15/15
f 107/107/107 15/15/15 104/104/104
f 107/107/107 104/104/104 106/106/106
f 107/107/107 106/106/106 56/56/56
f 107/107/107 56/56/56 60/60/60
f 107/107/107 60/60/60 108/108/108
f 109/109/109 97/97/97 40/40/40
f 109/109/109 40/40/40 39/39/39
f 109/109/109 39/39/39 38/38/38
f 109/109/109 38/38/38 92/92/92
f 109/109/109 92/92/92 94/94/94
f 109/109/109 94/94/94 85/85/85
f 109/109/109 85/85/85 84/84/84
f 109/109/109 84/84/84 97/97/97
f 110/110/110 111/111/111 27/27/27
f 110/110/110 27/27/27 45/45/45
f 110/110/110 45/45/45 44/44/44
f 110/110/110 44/44/44 96/96/96
f 110/110/110 96/96/96 98/98/98
f 110/110/110 98/98/98 88/88/88
f 110/110/110 88/88/88 74/74/74
f 110/110/110 74/74/74 111/111/111
f 112/112/112 105/105/105 9/9/9
f 112/112/112 9/9/9 8/8/8
f 112/112/112 8/8/8 7/7/7
f 112/112/112 7/7/7 100/100/100
f 112/112/112 100/100/100 102/102/102
f 112/112/112 102/102/102 49/49/49
f 112/112/112 49/49/49 48/48/48
f 112/112/112 48/48/48 105/105/105
f 113/113/113 101/101/101 5/5/5
f 113/113/113 5/5/5 33/33/33
f 113/113/113 33/33/33 29/29/29
f 113/113/113 29/29/29 114/114/114
f 113/113/113 114/114/114 72/72/72
f 113/113/113 72/72/72 78/78/78
f 113/113/113 78/78/78 52/52/52
f 113/113/113 52/52/52 101/101/101
f 115/115/115 116/116/116 24/24/24
f 115/115/115 24/24/24 35/35/35
f 115/115/115 35/35/35 12/12/12
f 115/115/115 12/12/12 108/108/108
f 115/115/115 108/108/108 60/60/60
f 115/115/115 60/60/60 80/80/80
f 115/115/115 80/80/80 63/63/63
f 115/115/115 63/63/63 116/116/116
f 117/117/117 93/93/93 18/18/18
f 117/117/117 18/18/18 17/17/17
f 117/117/117 17/17/17 24/24/24
f 117/117/117 24/24/24 116/116/116
f 117/117/117 116/116/116 63/63/63
f 117/117/117 63/63/63 62/62/62
f 117/117/117 62/62/62 69/69/69
f 117/117/117 69/69/69 93/93/93
f 118/118/118 114/114/114 29/29/29
f 118/118/118 29/29/29 28/28/28
f 118/118/118 28/28/28 27/27/27
f 118/118/118 27/27/27 111/111/111
f 118/118/118 111/111/111 74/74/74
f 118/118/118 74/74/74 73/73/73
f 118/118/118 73/73/73 72/72/72
f 118/118/118 72/72/72 114/114/114
