v -2.415356 0.741912 -1.149057
v -2.415724 0.742331 -1.15127
v -2.417972 0.740391 -1.150626
v -2.417271 0.74008 -1.148206
v -2.416965 0.739919 -1.14627
v -2.415457 0.741547 -1.147226
v -2.414549 0.742451 -1.148284
v -2.413968 0.743133 -1.149781
v -2.414021 0.743674 -1.151783
v -2.417152 0.742677 -1.153017
v -2.418607 0.74289 -1.154171
v -2.420543 0.741445 -1.154159
v -2.419312 0.740951 -1.152707
v -2.415523 0.743795 -1.153209
v -2.4171 0.743539 -1.153908
v -2.425327 0.73371 -1.151322
v -2.426268 0.734147 -1.152873
v -2.42775 0.731305 -1.152195
v -2.426906 0.730913 -1.15083
v -2.425888 0.730453 -1.148957
v -2.424187 0.733195 -1.149198
v -2.422331 0.735805 -1.149535
v -2.423538 0.736358 -1.151748
v -2.424546 0.736836 -1.153355
v -2.423327 0.732857 -1.146913
v -2.425137 0.730159 -1.14693
v -2.42465 0.729984 -1.145361
v -2.422763 0.732653 -1.145146
v -2.42088 0.735273 -1.145272
v -2.421446 0.735466 -1.147135
v -2.419364 0.737903 -1.147566
v -2.420217 0.73821 -1.150029
v -2.41886 0.737762 -1.145633
v -2.421487 0.738808 -1.152247
v -2.42258 0.739348 -1.153836
v -2.428324 0.728018 -1.150132
v -2.428997 0.728335 -1.151129
v -2.429483 0.726576 -1.150306
v -2.429307 0.725795 -1.149546
v -2.428724 0.725522 -1.148624
v -2.427533 0.727656 -1.148751
v -2.427004 0.727455 -1.147221
v -2.428403 0.725409 -1.147552
v -2.427855 0.725882 -1.146718
v -2.426682 0.727348 -1.146025
v -2.415209 0.741735 -1.149121
v -2.41559 0.742158 -1.151365
v -2.413923 0.743542 -1.151853
v -2.413861 0.742998 -1.149827
v -2.414466 0.742352 -1.148312
v -2.415342 0.741413 -1.147259
v -2.416845 0.739791 -1.146308
v -2.417119 0.73991 -1.148276
v -2.417831 0.740224 -1.150722
v -2.417032 0.742512 -1.15314
v -2.418525 0.742771 -1.154277
v -2.417038 0.743448 -1.153983
v -2.415437 0.74367 -1.153302
v -2.419184 0.740791 -1.152829
v -2.420454 0.741329 -1.154263
v -2.425166 0.733581 -1.151444
v -2.426152 0.734053 -1.152974
v -2.424437 0.736735 -1.153456
v -2.423385 0.736219 -1.151869
v -2.422168 0.735662 -1.149637
v -2.424017 0.733062 -1.149301
v -2.425711 0.730328 -1.149061
v -2.426739 0.730792 -1.150953
v -2.42763 0.731217 -1.152297
v -2.423148 0.732721 -1.146996
v -2.421275 0.735319 -1.147216
v -2.420748 0.735162 -1.145323
v -2.422625 0.73255 -1.145199
v -2.424508 0.729886 -1.145415
v -2.424953 0.730031 -1.147015
v -2.419203 0.737744 -1.147642
v -2.420065 0.738054 -1.150128
v -2.418734 0.737641 -1.145678
v -2.421347 0.738658 -1.152368
v -2.422481 0.739239 -1.153938
v -2.428156 0.7279 -1.150256
v -2.428876 0.728249 -1.151232
v -2.427355 0.727534 -1.148856
v -2.428591 0.725431 -1.148702
v -2.429182 0.725707 -1.14964
v -2.429392 0.726512 -1.15038
v -2.426818 0.72733 -1.147305
v -2.426538 0.727253 -1.146077
v -2.42775 0.725812 -1.146759
v -2.428262 0.725316 -1.147614
v -2.429168 0.728403 -1.151509
v -2.429801 0.726025 -1.150273
v -2.427979 0.731397 -1.152698
v -2.429392 0.726512 -1.15038
v -2.428807 0.724686 -1.147689
v -2.42817 0.725329 -1.146678
v -2.429062 0.724771 -1.148616
v -2.42775 0.725812 -1.146759
v -2.415439 0.741366 -1.146627
v -2.414372 0.742525 -1.148064
v -2.416809 0.739808 -1.145639
v -2.414466 0.742352 -1.148312
v -2.414943 0.744112 -1.153314
v -2.417133 0.743702 -1.154148
v -2.41341 0.744062 -1.151985
v -2.417038 0.743448 -1.153983
v -2.419058 0.742909 -1.154606
v -2.420915 0.741559 -1.154692
v -2.429579 0.725015 -1.149393
v -2.426509 0.72727 -1.145647
v -2.424424 0.729881 -1.14486
v -2.413458 0.743479 -1.150042
v -2.418635 0.737661 -1.145006
v -2.420632 0.735159 -1.144672
v -2.422902 0.73948 -1.154413
v -2.424835 0.736951 -1.153938
v -2.426531 0.734251 -1.153437
v -2.422513 0.732539 -1.144579
vn -0.6135 0.7676 0.1853
vn -0.5224 0.7613 0.3841
vn -0.5663 0.7225 0.3966
vn -0.6501 0.7273 0.2197
vn -0.6648 0.7096 0.2334
vn -0.6115 0.7672 0.1931
vn -0.5706 0.8045 0.1646
vn -0.531 0.8227 0.2028
vn -0.45 0.8163 0.362
vn -0.4374 0.6925 0.5737
vn -0.4419 0.6949 0.5673
vn -0.515 0.6457 0.5637
vn -0.4926 0.6602 0.5669
vn -0.3871 0.7613 0.5201
vn -0.3884 0.7266 0.5666
vn -0.6797 0.5091 0.5279
vn -0.7018 0.5103 0.497
vn -0.7204 0.4837 0.497
vn -0.6937 0.4794 0.5374
vn -0.7515 0.4946 0.4365
vn -0.7287 0.5304 0.4331
vn -0.6789 0.5995 0.4239
vn -0.629 0.5677 0.5311
vn -0.6525 0.5603 0.5101
vn -0.7682 0.5469 0.333
vn -0.7886 0.5199 0.3282
vn -0.7763 0.5076 0.3737
vn -0.7602 0.5352 0.3684
vn -0.7297 0.5932 0.34
vn -0.7283 0.6099 0.3123
vn -0.684 0.6777 0.2699
vn -0.6182 0.6705 0.4101
vn -0.6961 0.6568 0.29
vn -0.5589 0.6244 0.5457
vn -0.5845 0.6093 0.5358
vn -0.6883 0.4612 0.5599
vn -0.7197 0.4625 0.5177
vn -0.7126 0.4409 0.5457
vn -0.7049 0.4068 0.581
vn -0.7891 0.4279 0.4407
vn -0.7618 0.4773 0.4378
vn -0.8039 0.5105 0.3049
vn -0.8383 0.4635 0.2872
vn -0.8128 0.4833 0.3251
vn -0.794 0.4941 0.3541
vn 0.6384 -0.7522 -0.1633
vn 0.5346 -0.7509 -0.3877
vn 0.5807 -0.7087 -0.4005
vn 0.7056 -0.7022 -0.0944
vn 0.7436 -0.6684 0.0163
vn 0.7337 -0.6794 -0.0061
vn 0.7231 -0.6866 -0.0756
vn 0.6556 -0.7266 -0.2054
vn 0.5662 -0.7226 -0.3966
vn 0.4401 -0.6676 -0.6005
vn 0.3993 -0.5368 -0.7432
vn 0.3912 -0.518 -0.7606
vn 0.4419 -0.5897 -0.676
vn 0.4859 -0.6543 -0.5794
vn 0.442 -0.5668 -0.6952
vn 0.6711 -0.5064 -0.5415
vn 0.6057 -0.4845 -0.6311
vn 0.5684 -0.524 -0.6343
vn 0.6214 -0.5642 -0.5436
vn 0.679 -0.5994 -0.4239
vn 0.7288 -0.5303 -0.4331
vn 0.7516 -0.4944 -0.4365
vn 0.6825 -0.4779 -0.5529
vn 0.5926 -0.4752 -0.6503
vn 0.7726 -0.5497 -0.3176
vn 0.7327 -0.6117 -0.2981
vn 0.7692 -0.6096 -0.1916
vn 0.7974 -0.5662 -0.2085
vn 0.804 -0.5653 -0.1843
vn 0.7926 -0.5249 -0.3101
vn 0.6885 -0.6785 -0.256
vn 0.6182 -0.6705 -0.4101
vn 0.738 -0.6595 -0.1427
vn 0.5517 -0.6202 -0.5577
vn 0.5047 -0.5602 -0.6568
vn 0.6645 -0.4718 -0.5794
vn 0.5398 -0.4866 -0.6869
vn 0.7556 -0.4878 -0.4371
vn 0.727 -0.5329 -0.4329
vn 0.5846 -0.5108 -0.6303
vn 0.5036 -0.4973 -0.7064
vn 0.8008 -0.5299 -0.279
vn 0.7937 -0.5948 -0.1271
vn 0.7823 -0.616 -0.0922
vn 0.779 -0.5936 -0.2018
vn -0.7138 -0.0571 -0.698
vn -0.8113 -0.3725 -0.4506
vn -0.633 0.0541 -0.7722
vn 0.5036 -0.4973 -0.7064
vn -0.4336 -0.8514 0.295
vn -0.2665 -0.605 0.7503
vn -0.4217 -0.9066 0.0156
vn 0.7823 -0.616 -0.0922
vn 0.4126 0.2936 0.8623
vn 0.5783 0.4818 0.6583
vn 0.3134 0.125 0.9413
vn 0.7436 -0.6684 0.0163
vn 0.404 0.6925 -0.5977
vn -0.0259 0.7393 -0.6728
vn 0.7837 0.5706 -0.2451
vn 0.3912 -0.518 -0.7606
vn -0.3119 0.6023 -0.7348
vn -0.4595 0.4547 -0.763
vn -0.626 -0.7691 -0.1285
vn 0.024 -0.3716 0.9281
vn 0.1479 -0.2787 0.9489
vn 0.8043 0.5217 0.2843
vn 0.2592 -0.0103 0.9658
vn 0.2387 -0.095 0.9664
vn -0.5327 0.3275 -0.7804
vn -0.5591 0.2448 -0.7921
vn -0.5804 0.1617 -0.7981
vn 0.217 -0.1783 0.9597
vt 0.839504 0.118056
vt 0.856743 0.205307
vt 0.741230 0.205307
vt 0.734555 0.106726
vt 0.724541 0.032791
vt 0.813647 0.052618
vt 0.868992 0.081539
vt 0.913398 0.129584
vt 0.940923 0.205307
vt 0.839504 0.292557
vt 0.813647 0.357995
vt 0.724541 0.377822
vt 0.734555 0.303887
vt 0.913398 0.281029
vt 0.868992 0.329074
vt 0.369475 0.299954
vt 0.368286 0.370940
vt 0.245840 0.351447
vt 0.246397 0.288815
vt 0.246768 0.205307
vt 0.370268 0.205307
vt 0.494283 0.205307
vt 0.492822 0.304944
vt 0.490632 0.379672
vt 0.369475 0.110659
vt 0.246397 0.121798
vt 0.245841 0.059166
vt 0.368286 0.039673
vt 0.490632 0.030941
vt 0.492822 0.105669
vt 0.616755 0.103478
vt 0.619174 0.205307
vt 0.613127 0.027106
vt 0.616755 0.307135
vt 0.613126 0.383507
vt 0.123273 0.268175
vt 0.123047 0.315326
vt 0.054743 0.283353
vt 0.030912 0.249131
vt 0.030973 0.205306
vt 0.123423 0.205306
vt 0.123273 0.142438
vt 0.030912 0.161481
vt 0.054744 0.127260
vt 0.123047 0.095287
vt 0.839504 0.118056
vt 0.856743 0.205307
vt 0.968983 0.205307
vt 0.938030 0.133427
vt 0.876123 0.061548
vt 0.805028 0.030806
vt 0.721203 0.008146
vt 0.734555 0.106726
vt 0.741230 0.205307
vt 0.839504 0.292557
vt 0.805028 0.379807
vt 0.876123 0.349065
vt 0.938030 0.277186
vt 0.734555 0.303887
vt 0.721203 0.402467
vt 0.369475 0.299954
vt 0.367890 0.394602
vt 0.489902 0.404581
vt 0.492822 0.304944
vt 0.494283 0.205307
vt 0.370268 0.205307
vt 0.246768 0.205307
vt 0.246397 0.288815
vt 0.245655 0.372324
vt 0.369475 0.110659
vt 0.492822 0.105669
vt 0.489902 0.006032
vt 0.367890 0.016011
vt 0.245655 0.038289
vt 0.246397 0.121798
vt 0.616755 0.103478
vt 0.619174 0.205307
vt 0.611917 0.001649
vt 0.616755 0.307135
vt 0.611917 0.408964
vt 0.123273 0.268175
vt 0.122972 0.331043
vt 0.123423 0.205306
vt 0.000156 0.205306
vt 0.000125 0.242784
vt 0.000064 0.280261
vt 0.123273 0.142438
vt 0.122972 0.079570
vt 0.000064 0.130352
vt 0.000125 0.167829
vt 0.122972 0.331043
vt 0.030806 0.283587
vt 0.245655 0.372324
vt 0.030806 0.283587
vt 0.000125 0.167829
vt 0.030806 0.127026
vt 0.000156 0.205306
vt 0.030806 0.127026
vt 0.805028 0.030806
vt 0.873826 0.071832
vt 0.721203 0.008146
vt 0.873826 0.071832
vt 0.938030 0.277186
vt 0.873826 0.338781
vt 0.968983 0.205307
vt 0.873826 0.338781
vt 0.805028 0.379807
vt 0.721203 0.402467
vt 0.000125 0.242784
vt 0.122972 0.079570
vt 0.245655 0.038289
vt 0.938030 0.133427
vt 0.611917 0.001649
vt 0.489902 0.006032
vt 0.611917 0.408964
vt 0.489902 0.404581
vt 0.367890 0.394602
vt 0.367890 0.016011
f 1/1/1 2/2/2 3/3/3
f 1/1/1 3/3/3 4/4/4
f 1/1/1 4/4/4 5/5/5
f 1/1/1 5/5/5 6/6/6
f 1/1/1 6/6/6 7/7/7
f 1/1/1 7/7/7 8/8/8
f 1/1/1 8/8/8 9/9/9
f 1/1/1 9/9/9 2/2/2
f 10/10/10 11/11/11 12/12/12
f 10/10/10 12/12/12 13/13/13
f 10/10/10 13/13/13 3/3/3
f 10/10/10 3/3/3 2/2/2
f 10/10/10 2/2/2 9/9/9
f 10/10/10 9/9/9 14/14/14
f 10/10/10 14/14/14 15/15/15
f 10/10/10 15/15/15 11/11/11
f 16/16/16 17/17/17 18/18/18
f 16/16/16 18/18/18 19/19/19
f 16/16/16 19/19/19 20/20/20
f 16/16/16 20/20/20 21/21/21
f 16/16/16 21/21/21 22/22/22
f 16/16/16 22/22/22 23/23/23
f 16/16/16 23/23/23 24/24/24
f 16/16/16 24/24/24 17/17/17
f 25/25/25 21/21/21 20/20/20
f 25/25/25 20/20/20 26/26/26
f 25/25/25 26/26/26 27/27/27
f 25/25/25 27/27/27 28/28/28
f 25/25/25 28/28/28 29/29/29
f 25/25/25 29/29/29 30/30/30
f 25/25/25 30/30/30 22/22/22
f 25/25/25 22/22/22 21/21/21
f 31/31/31 32/32/32 22/22/22
f 31/31/31 22/22/22 30/30/30
f 31/31/31 30/30/30 29/29/29
f 31/31/31 29/29/29 33/33/33
f 31/31/31 33/33/33 5/5/5
f 31/31/31 5/5/5 4/4/4
f 31/31/31 4/4/4 3/3/3
f 31/31/31 3/3/3 32/32/32
f 34/34/34 35/35/35 24/24/24
f 34/34/34 24/24/24 23/23/23
f 34/34/34 23/23/23 22/22/22
f 34/34/34 22/22/22 32/32/32
f 34/34/34 32/32/32 3/3/3
f 34/34/34 3/3/3 13/13/13
f 34/34/34 13/13/13 12/12/12
f 34/34/34 12/12/12 35/35/35
f 36/36/36 37/37/37 38/38/38
f 36/36/36 38/38/38 39/39/39
f 36/36/36 39/39/39 40/40/40
f 36/36/36 40/40/40 41/41/41
f 36/36/36 41/41/41 20/20/20
f 36/36/36 20/20/20 19/19/19
f 36/36/36 19/19/19 18/18/18
f 36/36/36 18/18/18 37/37/37
f 42/42/42 41/41/41 40/40/40
f 42/42/42 40/40/40 43/43/43
f 42/42/42 43/43/43 44/44/44
f 42/42/42 44/44/44 45/45/45
f 42/42/42 45/45/45 27/27/27
f 42/42/42 27/27/27 26/26/26
f 42/42/42 26/26/26 20/20/20
f 42/42/42 20/20/20 41/41/41
f 46/46/46 47/47/47 48/48/48
f 46/46/46 48/48/48 49/49/49
f 46/46/46 49/49/49 50/50/50
f 46/46/46 50/50/50 51/51/51
f 46/46/46 51/51/51 52/52/52
f 46/46/46 52/52/52 53/53/53
f 46/46/46 53/53/53 54/54/54
f 46/46/46 54/54/54 47/47/47
f 55/55/55 56/56/56 57/57/57
f 55/55/55 57/57/57 58/58/58
f 55/55/55 58/58/58 48/48/48
f 55/55/55 48/48/48 47/47/47
f 55/55/55 47/47/47 54/54/54
f 55/55/55 54/54/54 59/59/59
f 55/55/55 59/59/59 60/60/60
f 55/55/55 60/60/60 56/56/56
f 61/61/61 62/62/62 63/63/63
f 61/61/61 63/63/63 64/64/64
f 61/61/61 64/64/64 65/65/65
f 61/61/61 65/65/65 66/66/66
f 61/61/61 66/66/66 67/67/67
f 61/61/61 67/67/67 68/68/68
f 61/61/61 68/68/68 69/69/69
f 61/61/61 69/69/69 62/62/62
f 70/70/70 66/66/66 65/65/65
f 70/70/70 65/65/65 71/71/71
f 70/70/70 71/71/71 72/72/72
f 70/70/70 72/72/72 73/73/73
f 70/70/70 73/73/73 74/74/74
f 70/70/70 74/74/74 75/75/75
f 70/70/70 75/75/75 67/67/67
f 70/70/70 67/67/67 66/66/66
f 76/76/76 77/77/77 54/54/54
f 76/76/76 54/54/54 53/53/53
f 76/76/76 53/53/53 52/52/52
f 76/76/76 52/52/52 78/78/78
f 76/76/76 78/78/78 72/72/72
f 76/76/76 72/72/72 71/71/71
f 76/76/76 71/71/71 65/65/65
f 76/76/76 65/65/65 77/77/77
f 79/79/79 80/80/80 60/60/60
f 79/79/79 60/60/60 59/59/59
f 79/79/79 59/59/59 54/54/54
f 79/79/79 54/54/54 77/77/77
f 79/79/79 77/77/77 65/65/65
f 79/79/79 65/65/65 64/64/64
f 79/79/79 64/64/64 63/63/63
f 79/79/79 63/63/63 80/80/80
f 81/81/81 82/82/82 69/69/69
f 81/81/81 69/69/69 68/68/68
f 81/81/81 68/68/68 67/67/67
f 81/81/81 67/67/67 83/83/83
f 81/81/81 83/83/83 84/84/84
f 81/81/81 84/84/84 85/85/85
f 81/81/81 85/85/85 86/86/86
f 81/81/81 86/86/86 82/82/82
f 87/87/87 83/83/83 67/67/67
f 87/87/87 67/67/67 75/75/75
f 87/87/87 75/75/75 74/74/74
f 87/87/87 74/74/74 88/88/88
f 87/87/87 88/88/88 89/89/89
f 87/87/87 89/89/89 90/90/90
f 87/87/87 90/90/90 84/84/84
f 87/87/87 84/84/84 83/83/83
f 91/91/91 92/92/92 38/38/38
f 91/91/91 38/38/38 37/37/37
f 91/91/91 37/37/37 18/18/18
f 91/91/91 18/18/18 93/93/93
f 91/91/91 93/93/93 69/69/69
f 91/91/91 69/69/69 82/82/82
f 91/91/91 82/82/82 94/94/94
f 91/91/91 94/94/94 92/92/92
f 95/95/95 96/96/96 44/44/44
f 95/95/95 44/44/44 43/43/43
f 95/95/95 43/43/43 40/40/40
f 95/95/95 40/40/40 97/97/97
f 95/95/95 97/97/97 84/84/84
f 95/95/95 84/84/84 90/90/90
f 95/95/95 90/90/90 98/98/98
f 95/95/95 98/98/98 96/96/96
f 99/99/99 100/100/100 7/7/7
f 99/99/99 7/7/7 6/6/6
f 99/99/99 6/6/6 5/5/5
f 99/99/99 5/5/5 101/101/101
f 99/99/99 101/101/101 52/52/52
f 99/99/99 52/52/52 51/51/51
f 99/99/99 51/51/51 102/102/102
f 99/99/99 102/102/102 100/100/100
f 103/103/103 104/104/104 15/15/15
f 103/103/103 15/15/15 14/14/14
f 103/103/103 14/14/14 9/9/9
f 103/103/103 9/9/9 105/105/105
f 103/103/103 105/105/105 48/48/48
f 103/103/103 48/48/48 58/58/58
f 103/103/103 58/58/58 106/106/106
f 103/103/103 106/106/106 104/104/104
f 107/107/107 108/108/108 12/12/12
f 107/107/107 12/12/12 11/11/11
f 107/107/107 11/11/11 15/15/15
f 107/107/107 15/15/15 104/104/104
f 107/107/107 104/104/104 106/106/106
f 107/107/107 106/106/106 56/56/56
f 107/107/107 56/56/56 60/60/60
f 107/107/107 60/60/60 108/108/108
f 109/109/109 97/97/97 40/40/40
f 109/109/109 40/40/40 39/39/39
f 109/109/109 39/39/39 38/38/38
f 109/109/109 38/38/38 92/92/92
f 109/109/109 92/92/92 94/94/94
f 109/109/109 94/94/94 85/85/85
f 109/109/109 85/85/85 84/84/84
f 109/109/109 84/84/84 97/97/97
f 110/110/110 111/111/111 27/27/27
f 110/110/110 27/27/27 45/45/45
f 110/110/110 45/45/45 44/44/44
f 110/110/110 44/44/44 96/96/96
f 110/110/110 96/96/96 98/98/98
f 110/110/110 98/98/98 88/88/88
f 110/110/110 88/88/88 74/74/74
f 110/110/110 74/74/74 111/111/111
f 112/112/112 105/105/105 9/9/9
f 112/112/112 9/9/9 8/8/8
f 112/112/112 8/8/8 7/7/7
f 112/112/112 7/7/7 100/100/100
f 112/112/112 100/100/100 102/102/102
f 112/112/112 102/102/102 49/49/49
f 112/112/112 49/49/49 48/48/48
f 112/112/112 48/48/48 105/105/105
f 113/113/113 101/101/101 5/5/5
f 113/113/113 5/5/5 33/33/33
f 113/113/113 33/33/33 29/29/29
f 113/113/113 29/29/29 114/114/114
f 113/113/113 114/114/114 72/72/72
f 113/113/113 72/72/72 78/78/78
f 113/113/113 78/78/78 52/52/52
f 113/113/113 52/52/52 101/101/101
f 115/115/115 116/116/116 24/24/24
f 115/115/115 24/24/24 35/35/35
f 115/115/115 35/35/35 12/12/12
f 115/115/115 12/12/12 108/108/108
f 115/115/115 108/108/108 60/60/60
f 115/115/115 60/60/60 80/80/80
f 115/115/115 80/80/80 63/63/63
f 115/115/115 63/63/63 116/116/116
f 117/117/117 93/93/93 18/18/18
f 117/117/117 18/18/18 17/17/17
f 117/117/117 17/17/17 24/24/24
f 117/117/117 24/24/24 116/116/116
f 117/117/117 116/116/116 63/63/63
f 117/117/117 63/63/63 62/62/62
f 117/117/117 62/62/62 69/69/69
f 117/117/117 69/69/69 93/93/93
f 118/118/118 114/114/114 29/29/29
f 118/118/118 29/29/29 28/28/28
f 118/118/118 28/28/28 27/27/27
f 118/118/118 27/27/27 111/111/111
f 118/118/118 111/111/111 74/74/74
f 118/118/118 74/74/74 73/73/73
f 118/118/118 73/73/73 72/72/72
f 118/118/118 72/72/72 114/114/114
