v -2.41643 0.776155 -1.241997
v -2.418252 0.776997 -1.24038
v -2.415664 0.776325 -1.238228
v -2.413909 0.775378 -1.240287
v -2.412364 0.774851 -1.241794
v -2.414653 0.775672 -1.243031
v -2.416433 0.776142 -1.243399
v -2.41832 0.776626 -1.243107
v -2.420198 0.777385 -1.241929
v -2.418955 0.778322 -1.238283
v -2.419081 0.779473 -1.236517
v -2.417394 0.779169 -1.234394
v -2.416779 0.777842 -1.236066
v -2.420506 0.778502 -1.239892
v -2.420019 0.77922 -1.238124
v -2.409561 0.774088 -1.229045
v -2.410435 0.775205 -1.227487
v -2.408056 0.773218 -1.225465
v -2.407295 0.772219 -1.226845
v -2.406181 0.771004 -1.228676
v -2.408291 0.772724 -1.231114
v -2.410548 0.774238 -1.233532
v -2.411863 0.775686 -1.231371
v -2.412754 0.776887 -1.229744
v -2.406749 0.771674 -1.233181
v -2.404808 0.770084 -1.230503
v -2.403698 0.769478 -1.231875
v -2.405508 0.770975 -1.234734
v -2.4076 0.772462 -1.237326
v -2.408921 0.773161 -1.235698
v -2.411357 0.774388 -1.238127
v -2.413051 0.775422 -1.235925
v -2.409949 0.773768 -1.239785
v -2.414342 0.77695 -1.233737
v -2.415179 0.778257 -1.232092
v -2.404923 0.770143 -1.224858
v -2.405452 0.770934 -1.223825
v -2.403906 0.769419 -1.223171
v -2.403128 0.768484 -1.223444
v -2.40262 0.767794 -1.224382
v -2.404123 0.769202 -1.226225
v -2.403067 0.76855 -1.227588
v -2.401857 0.767392 -1.225314
v -2.401618 0.767455 -1.226536
v -2.402197 0.768141 -1.228612
v -2.41653 0.775906 -1.241971
v -2.418372 0.776762 -1.240324
v -2.420285 0.777209 -1.241885
v -2.418391 0.776438 -1.243086
v -2.416482 0.776 -1.24339
v -2.414718 0.77548 -1.243026
v -2.412438 0.774662 -1.24179
v -2.41402 0.775133 -1.240265
v -2.415792 0.776092 -1.23818
v -2.419093 0.778106 -1.238201
v -2.419194 0.779322 -1.236442
v -2.420099 0.779105 -1.23807
v -2.420607 0.77834 -1.239827
v -2.416923 0.777626 -1.235994
v -2.41751 0.779016 -1.234328
v -2.409736 0.773884 -1.229013
v -2.410571 0.775057 -1.227453
v -2.412884 0.776736 -1.229702
v -2.412028 0.775477 -1.231327
v -2.410701 0.774016 -1.233507
v -2.408454 0.772508 -1.231099
v -2.406351 0.770793 -1.228668
v -2.407476 0.772019 -1.22682
v -2.408197 0.773075 -1.225437
v -2.406899 0.771449 -1.233184
v -2.409061 0.772929 -1.235692
v -2.407698 0.772284 -1.237331
v -2.405614 0.770802 -1.234746
v -2.403809 0.769308 -1.231892
v -2.404965 0.769864 -1.230513
v -2.411482 0.774149 -1.238112
v -2.413192 0.775194 -1.235887
v -2.410035 0.773584 -1.239785
v -2.414496 0.776737 -1.233678
v -2.415302 0.778105 -1.232038
v -2.405108 0.769946 -1.224834
v -2.405596 0.770793 -1.223797
v -2.404295 0.768993 -1.22622
v -2.40275 0.767637 -1.224378
v -2.403267 0.768337 -1.223425
v -2.404011 0.769313 -1.223153
v -2.403226 0.76833 -1.227602
v -2.402309 0.767972 -1.228632
v -2.401703 0.767331 -1.226549
v -2.401975 0.767227 -1.225326
v -2.405693 0.771137 -1.223466
v -2.403511 0.769061 -1.222687
v -2.408374 0.773489 -1.22499
v -2.404011 0.769313 -1.223153
v -2.401505 0.766933 -1.224562
v -2.401218 0.767093 -1.226059
v -2.402177 0.767255 -1.223766
v -2.401703 0.767331 -1.226549
v -2.414087 0.775424 -1.243376
v -2.416376 0.776091 -1.24372
v -2.411879 0.77459 -1.242297
v -2.416482 0.776 -1.24339
v -2.421067 0.77849 -1.240399
v -2.420256 0.779421 -1.238013
v -2.420885 0.777436 -1.242426
v -2.420099 0.779105 -1.23807
v -2.419175 0.779792 -1.235892
v -2.417653 0.779545 -1.233805
v -2.402592 0.767865 -1.222964
v -2.401955 0.767928 -1.228964
v -2.403376 0.769199 -1.232342
v -2.418981 0.776699 -1.243468
v -2.409516 0.773478 -1.24034
v -2.407202 0.772149 -1.237872
v -2.415515 0.778627 -1.231517
v -2.41311 0.777221 -1.229181
v -2.410788 0.775513 -1.226951
v -2.40514 0.770664 -1.235259
vn 0.3012 0.9517 -0.0599
vn 0.4046 0.8824 -0.2399
vn 0.4494 0.8701 -0.2022
vn 0.3592 0.9324 -0.04
vn 0.3829 0.9232 -0.0313
vn 0.3062 0.9496 -0.0659
vn 0.2509 0.9637 -0.091
vn 0.253 0.956 -0.1485
vn 0.3317 0.8954 -0.297
vn 0.5204 0.7635 -0.3824
vn 0.5175 0.7683 -0.3767
vn 0.5694 0.7631 -0.3056
vn 0.5552 0.7641 -0.3283
vn 0.4321 0.8022 -0.412
vn 0.4778 0.7689 -0.4248
vn 0.6713 0.7319 -0.1166
vn 0.6597 0.7468 -0.0837
vn 0.6772 0.7333 -0.0599
vn 0.6944 0.7126 -0.1003
vn 0.6454 0.7638 -0.0069
vn 0.6205 0.7834 -0.0353
vn 0.567 0.8185 -0.0922
vn 0.6296 0.7564 -0.1771
vn 0.6287 0.7639 -0.1456
vn 0.5613 0.8264 0.0452
vn 0.5763 0.8139 0.0733
vn 0.6075 0.7931 0.0425
vn 0.5871 0.8092 0.0232
vn 0.5327 0.8463 -0.0044
vn 0.5061 0.8624 0.0045
vn 0.4304 0.9022 -0.0275
vn 0.5032 0.8503 -0.1541
vn 0.4582 0.8885 -0.023
vn 0.586 0.7686 -0.2565
vn 0.597 0.7694 -0.2271
vn 0.7133 0.6921 -0.1098
vn 0.6983 0.7129 -0.0637
vn 0.7216 0.6881 -0.0762
vn 0.7533 0.6518 -0.0882
vn 0.6873 0.7249 0.0442
vn 0.6568 0.754 0.0065
vn 0.5694 0.8157 0.1018
vn 0.5875 0.794 0.1559
vn 0.5972 0.7949 0.1071
vn 0.6061 0.7921 0.0721
vn -0.3023 -0.9529 0.0233
vn -0.4171 -0.8794 0.2296
vn -0.4642 -0.8652 0.1892
vn -0.3003 -0.95 -0.085
vn -0.2448 -0.95 -0.1935
vn -0.2537 -0.9525 -0.1684
vn -0.2997 -0.9471 -0.1149
vn -0.3514 -0.9358 0.0272
vn -0.4494 -0.8701 0.2023
vn -0.5491 -0.741 0.3864
vn -0.6699 -0.5952 0.4437
vn -0.6834 -0.5735 0.4516
vn -0.6285 -0.6683 0.3979
vn -0.5626 -0.7545 0.3379
vn -0.6496 -0.6467 0.3996
vn -0.6776 -0.724 0.1294
vn -0.7152 -0.6641 0.2178
vn -0.686 -0.6791 0.2613
vn -0.6358 -0.7485 0.1883
vn -0.5671 -0.8184 0.0921
vn -0.6206 -0.7833 0.0352
vn -0.6455 -0.7637 0.0068
vn -0.7003 -0.7042 0.1166
vn -0.7249 -0.6478 0.2341
vn -0.5512 -0.8325 -0.0565
vn -0.4972 -0.8675 -0.0155
vn -0.436 -0.8936 -0.1064
vn -0.4765 -0.869 -0.1332
vn -0.4618 -0.8737 -0.1529
vn -0.5633 -0.8219 -0.085
vn -0.4219 -0.9065 0.0163
vn -0.5032 -0.8503 0.1541
vn -0.3674 -0.9252 -0.0946
vn -0.5923 -0.7602 0.2668
vn -0.6575 -0.6762 0.3323
vn -0.7121 -0.6876 0.142
vn -0.7199 -0.6277 0.296
vn -0.6499 -0.76 0.0016
vn -0.6186 -0.7848 0.0374
vn -0.6956 -0.6762 0.2424
vn -0.7115 -0.617 0.3362
vn -0.5425 -0.8331 -0.1075
vn -0.4039 -0.899 -0.169
vn -0.3648 -0.9146 -0.174
vn -0.4538 -0.8838 -0.1133
vn -0.1166 0.3732 0.9204
vn 0.2127 0.1285 0.9686
vn -0.249 0.4349 0.8654
vn -0.7115 -0.617 0.3362
vn 0.6968 -0.5404 0.4716
vn 0.8906 -0.454 -0.0283
vn 0.487 -0.5687 0.6628
vn -0.3648 -0.9146 -0.174
vn 0.3567 -0.0329 -0.9336
vn 0.0551 0.0638 -0.9964
vn 0.5183 -0.1351 -0.8444
vn -0.2448 -0.95 -0.1935
vn -0.874 0.4454 -0.1943
vn -0.6967 0.709 0.1089
vn -0.7876 0.1182 -0.6048
vn -0.6834 -0.5735 0.4516
vn -0.5447 0.7411 0.3925
vn -0.4437 0.6908 0.5708
vn 0.4574 -0.3348 0.8238
vn 0.8017 -0.4151 -0.4301
vn 0.7228 -0.3993 -0.564
vn -0.3759 0.0183 -0.9265
vn 0.6032 -0.2264 -0.7647
vn 0.6372 -0.2889 -0.7144
vn -0.3825 0.6196 0.6853
vn -0.3555 0.5632 0.7459
vn -0.3265 0.503 0.8002
vn 0.6657 -0.3489 -0.6596
vt 0.839504 0.118056
vt 0.856743 0.205307
vt 0.741230 0.205307
vt 0.734555 0.106726
vt 0.724541 0.032791
vt 0.813647 0.052618
vt 0.868992 0.081539
vt 0.913398 0.129584
vt 0.940923 0.205307
vt 0.839504 0.292557
vt 0.813647 0.357995
vt 0.724541 0.377822
vt 0.734555 0.303887
vt 0.913398 0.281029
vt 0.868992 0.329074
vt 0.369475 0.299954
vt 0.368286 0.370940
vt 0.245840 0.351447
vt 0.246397 0.288815
vt 0.246768 0.205307
vt 0.370268 0.205307
vt 0.494283 0.205307
vt 0.492822 0.304944
vt 0.490632 0.379672
vt 0.369475 0.110659
vt 0.246397 0.121798
vt 0.245841 0.059166
vt 0.368286 0.039673
vt 0.490632 0.030941
vt 0.492822 0.105669
vt 0.616755 0.103478
vt 0.619174 0.205307
vt 0.613127 0.027106
vt 0.616755 0.307135
vt 0.613126 0.383507
vt 0.123273 0.268175
vt 0.123047 0.315326
vt 0.054743 0.283353
vt 0.030912 0.249131
vt 0.030973 0.205306
vt 0.123423 0.205306
vt 0.123273 0.142438
vt 0.030912 0.161481
vt 0.054744 0.127260
vt 0.123047 0.095287
vt 0.839504 0.118056
vt 0.856743 0.205307
vt 0.968983 0.205307
vt 0.938030 0.133427
vt 0.876123 0.061548
vt 0.805028 0.030806
vt 0.721203 0.008146
vt 0.734555 0.106726
vt 0.741230 0.205307
vt 0.839504 0.292557
vt 0.805028 0.379807
vt 0.876123 0.349065
vt 0.938030 0.277186
vt 0.734555 0.303887
vt 0.721203 0.402467
vt 0.369475 0.299954
vt 0.367890 0.394602
vt 0.489902 0.404581
vt 0.492822 0.304944
vt 0.494283 0.205307
vt 0.370268 0.205307
vt 0.246768 0.205307
vt 0.246397 0.288815
vt 0.245655 0.372324
vt 0.369475 0.110659
vt 0.492822 0.105669
vt 0.489902 0.006032
vt 0.367890 0.016011
vt 0.245655 0.038289
vt 0.246397 0.121798
vt 0.616755 0.103478
vt 0.619174 0.205307
vt 0.611917 0.001649
vt 0.616755 0.307135
vt 0.611917 0.408964
vt 0.123273 0.268175
vt 0.122972 0.331043
vt 0.123423 0.205306
vt 0.000156 0.205306
vt 0.000125 0.242784
vt 0.000064 0.280261
vt 0.123273 0.142438
vt 0.122972 0.079570
vt 0.000064 0.130352
vt 0.000125 0.167829
vt 0.122972 0.331043
vt 0.030806 0.283587
vt 0.245655 0.372324
vt 0.030806 0.283587
vt 0.000125 0.167829
vt 0.030806 0.127026
vt 0.000156 0.205306
vt 0.030806 0.127026
vt 0.805028 0.030806
vt 0.873826 0.071832
vt 0.721203 0.008146
vt 0.873826 0.071832
vt 0.938030 0.277186
vt 0.873826 0.338781
vt 0.968983 0.205307
vt 0.873826 0.338781
vt 0.805028 0.379807
vt 0.721203 0.402467
vt 0.000125 0.242784
vt 0.122972 0.079570
vt 0.245655 0.038289
vt 0.938030 0.133427
vt 0.611917 0.001649
vt 0.489902 0.006032
vt 0.611917 0.408964
vt 0.489902 0.404581
vt 0.367890 0.394602
vt 0.367890 0.016011
f 1/1/1 2/2/2 3/3/3
f 1/1/1 3/3/3 4/4/4
f 1/1/1 4/4/4 5/5/5
f 1/1/1 5/5/5 6/6/6
f 1/1/1 6/6/6 7/7/7
f 1/1/1 7/7/7 8/8/8
f 1/1/1 8/8/8 9/9/9
f 1/1/1 9/9/9 2/2/2
f 10/10/10 11/11/11 12/12/12
f 10/10/10 12/12/12 13/13/13
f 10/10/10 13/13/13 3/3/3
f 10/10/10 3/3/3 2/2/2
f 10/10/10 2/2/2 9/9/9
f 10/10/10 9/9/9 14/14/14
f 10/10/10 14/14/14 15/15/15
f 10/10/10 15/15/15 11/11/11
f 16/16/16 17/17/17 18/18/18
f 16/16/16 18/18/18 19/19/19
f 16/16/16 19/19/19 20/20/20
f 16/16/16 20/20/20 21/21/21
f 16/16/16 21/21/21 22/22/22
f 16/16/16 22/22/22 23/23/23
f 16/16/16 23/23/23 24/24/24
f 16/16/16 24/24/24 17/17/17
f 25/25/25 21/21/21 20/20/20
f 25/25/25 20/20/20 26/26/26
f 25/25/25 26/26/26 27/27/27
f 25/25/25 27/27/27 28/28/28
f 25/25/25 28/28/28 29/29/29
f 25/25/25 29/29/29 30/30/30
f 25/25/25 30/30/30 22/22/22
f 25/25/25 22/22/22 21/21/21
f 31/31/31 32/32/32 22/22/22
f 31/31/31 22/22/22 30/30/30
f 31/31/31 30/30/30 29/29/29
f 31/31/31 29/29/29 33/33/33
f 31/31/31 33/33/33 5/5/5
f 31/31/31 5/5/5 4/4/4
f 31/31/31 4/4/4 3/3/3
f 31/31/31 3/3/3 32/32/32
f 34/34/34 35/35/35 24/24/24
f 34/34/34 24/24/24 23/23/23
f 34/34/34 23/23/23 22/22/22
f 34/34/34 22/22/22 32/32/32
f 34/34/34 32/32/32 3/3/3
f 34/34/34 3/3/3 13/13/13
f 34/34/34 13/13/13 12/12/12
f 34/34/34 12/12/12 35/35/35
f 36/36/36 37/37/37 38/38/38
f 36/36/36 38/38/38 39/39/39
f 36/36/36 39/39/39 40/40/40
f 36/36/36 40/40/40 41/41/41
f 36/36/36 41/41/41 20/20/20
f 36/36/36 20/20/20 19/19/19
f 36/36/36 19/19/19 18/18/18
f 36/36/36 18/18/18 37/37/37
f 42/42/42 41/41/41 40/40/40
f 42/42/42 40/40/40 43/43/43
f 42/42/42 43/43/43 44/44/44
f 42/42/42 44/44/44 45/45/45
f 42/42/42 45/45/45 27/27/27
f 42/42/42 27/27/27 26/26/26
f 42/42/42 26/26/26 20/20/20
f 42/42/42 20/20/20 41/41/41
f 46/46/46 47/47/47 48/48/48
f 46/46/46 48/48/48 49/49/49
f 46/46/46 49/49/49 50/50/50
f 46/46/46 50/50/50 51/51/51
f 46/46/46 51/51/51 52/52/52
f 46/46/46 52/52/52 53/53/53
f 46/46/46 53/53/53 54/54/54
f 46/46/46 54/54/54 47/47/47
f 55/55/55 56/56/56 57/57/57
f 55/55/55 57/57/57 58/58/58
f 55/55/55 58/58/58 48/48/48
f 55/55/55 48/48/48 47/47/47
f 55/55/55 47/47/47 54/54/54
f 55/55/55 54/54/54 59/59/59
f 55/55/55 59/59/59 60/60/60
f 55/55/55 60/60/60 56/56/56
f 61/61/61 62/62/62 63/63/63
f 61/61/61 63/63/63 64/64/64
f 61/61/61 64/64/64 65/65/65
f 61/61/61 65/65/65 66/66/66
f 61/61/61 66/66/66 67/67/67
f 61/61/61 67/67/67 68/68/68
f 61/61/61 68/68/68 69/69/69
f 61/61/61 69/69/69 62/62/62
f 70/70/70 66/66/66 65/65/65
f 70/70/70 65/65/65 71/71/71
f 70/70/70 71/71/71 72/72/72
f 70/70/70 72/72/72 73/73/73
f 70/70/70 73/73/73 74/74/74
f 70/70/70 74/74/74 75/75/75
f 70/70/70 75/75/75 67/67/67
f 70/70/70 67/67/67 66/66/66
f 76/76/76 77/77/77 54/54/54
f 76/76/76 54/54/54 53/53/53
f 76/76/76 53/53/53 52/52/52
f 76/76/76 52/52/52 78/78/78
f 76/76/76 78/78/78 72/72/72
f 76/76/76 72/72/72 71/71/71
f 76/76/76 71/71/71 65/65/65
f 76/76/76 65/65/65 77/77/77
f 79/79/79 80/80/80 60/60/60
f 79/79/79 60/60/60 59/59/59
f 79/79/79 59/59/59 54/54/54
f 79/79/79 54/54/54 77/77/77
f 79/79/79 77/77/77 65/65/65
f 79/79/79 65/65/65 64/64/64
f 79/79/79 64/64/64 63/63/63
f 79/79/79 63/63/63 80/80/80
f 81/81/81 82/82/82 69/69/69
f 81/81/81 69/69/69 68/68/68
f 81/81/81 68/68/68 67/67/67
f 81/81/81 67/67/67 83/83/83
f 81/81/81 83/83/83 84/84/84
f 81/81/81 84/84/84 85/85/85
f 81/81/81 85/85/85 86/86/86
f 81/81/81 86/86/86 82/82/82
f 87/87/87 83/83/83 67/67/67
f 87/87/87 67/67/67 75/75/75
f 87/87/87 75/75/75 74/74/74
f 87/87/87 74/74/74 88/88/88
f 87/87/87 88/88/88 89/89/89
f 87/87/87 89/89/89 90/90/90
f 87/87/87 90/90/90 84/84/84
f 87/87/87 84/84/84 83/83/83
f 91/91/91 92/92/92 38/38/38
f 91/91/91 38/38/38 37/37/37
f 91/91/91 37/37/37 18/18/18
f 91/91/91 18/18/18 93/93/93
f 91/91/91 93/93/93 69/69/69
f 91/91/91 69/69/69 82/82/82
f 91/91/91 82/82/82 94/94/94
f 91/91/91 94/94/94 92/92/92
f 95/95/95 96/96/96 44/44/44
f 95/95/95 44/44/44 43/43/43
f 95/95/95 43/43/43 40/40/40
f 95/95/95 40/40/40 97/97/97
f 95/95/95 97/97/97 84/84/84
f 95/95/95 84/84/84 90/90/90
f 95/95/95 90/90/90 98/98/98
f 95/95/95 98/98/98 96/96/96
f 99/99/99 100/100/100 7/7/7
f 99/99/99 7/7/7 6/6/6
f 99/99/99 6/6/6 5/5/5
f 99/99/99 5/5/5 101/101/101
f 99/99/99 101/101/101 52/52/52
f 99/99/99 52/52/52 51/51/51
f 99/99/99 51/51/51 102/102/102
f 99/99/99 102/102/102 100/100/100
f 103/103/103 104/104/104 15/15/15
f 103/103/103 15/15/15 14/14/14
f 103/103/103 14/14/14 9/9/9
f 103/103/103 9/9/9 105/105/105
f 103/103/103 105/105/105 48/48/48
f 103/103/103 48/48/48 58/58/58
f 103/103/103 58/58/58 106/106/106
f 103/103/103 106/106/106 104/104/104
f 107/107/107 108/108/108 12/12/12
f 107/107/107 12/12/12 11/11/11
f 107/107/107 11/11/11 15/15/15
f 107/107/107 15/15/15 104/104/104
f 107/107/107 104/104/104 106/106/106
f 107/107/107 106/106/106 56/56/56
f 107/107/107 56/56/56 60/60/60
f 107/107/107 60/60/60 108/108/108
f 109/109/109 97/97/97 40/40/40
f 109/109/109 40/40/40 39/39/39
f 109/109/109 39/39/39 38/38/38
f 109/109/109 38/38/38 92/92/92
f 109/109/109 92/92/92 94/94/94
f 109/109/109 94/94/94 85/85/85
f 109/109/109 85/85/85 84/84/84
f 109/109/109 84/84/84 97/97/97
f 110/110/110 111/111/111 27/27/27
f 110/110/110 27/27/27 45/45/45
f 110/110/110 45/45/45 44/44/44
f 110/110/110 44/44/44 96/96/96
f 110/110/110 96/96/96 98/98/98
f 110/110/110 98/98/98 88/88/88
f 110/110/110 88/88/88 74/74/74
f 110/110/110 74/74/74 111/111/111
f 112/112/112 105/105/105 9/9/9
f 112/112/112 9/9/9 8/8/8
f 112/112/112 8/8/8 7/7/7
f 112/112/112 7/7/7 100/100/100
f 112/112/112 100/100/100 102/102/102
f 112/112/112 102/102/102 49/49/49
f 112/112/112 49/49/49 48/48/48
f 112/112/112 48/48/48 105/105/105
f 113/113/113 101/101/101 5/5/5
f 113/113/113 5/5/5 33/33/33
f 113/113/113 33/33/33 29/29/29
f 113/113/113 29/29/29 114/114/114
f 113/113/113 114/114/114 72/72/72
f 113/113/113 72/72/72 78/78/78
f 113/113/113 78/78/78 52/52/52
f 113/113/113 52/52/52 101/101/101
f 115/115/115 116/116/116 24/24/24
f 115/115/115 24/24/24 35/35/35
f 115/115/115 35/35/35 12/12/12
f 115/115/115 12/12/12 108/108/108
f 115/115/115 108/108/108 60/60/60
f 115/115/115 60/60/60 80/80/80
f 115/115/115 80/80/80 63/63/63
f 115/115/115 63/63/63 116/116/116
f 117/117/117 93/93/93 18/18/18
f 117/117/117 18/18/18 17/17/17
f 117/117/117 17/17/17 24/24/24
f 117/117/117 24/24/24 116/116/116
f 117/117/117 116/116/116 63/63/63
f 117/117/117 63/63/63 62/62/62
f 117/117/117 62/62/62 69/69/69
f 117/117/117 69/69/69 93/93/93
f 118/118/118 114/114/114 29/29/29
f 118/118/118 29/29/29 28/28/28
f 118/118/118 28/28/28 27/27/27
f 118/118/118 27/27/27 111/111/111
f 118/118/118 111/111/111 74/74/74
f 118/118/118 74/74/74 73/73/73
f 118/118/118 73/73/73 72/72/72
f 118/118/118 72/72/72 114/114/114
