v -2.318347 0.750454 -1.258288
v -2.321324 0.751111 -1.258356
v -2.320592 0.751002 -1.254365
v -2.317321 0.750188 -1.254725
v -2.314718 0.749841 -1.254822
v -2.315909 0.750232 -1.257795
v -2.31727 0.750369 -1.259545
v -2.319235 0.750532 -1.260786
v -2.321911 0.751059 -1.261274
v -2.32374 0.752598 -1.257241
v -2.325368 0.753992 -1.255959
v -2.325463 0.754112 -1.252735
v -2.32345 0.752625 -1.253535
v -2.323903 0.752387 -1.259879
v -2.324929 0.753414 -1.258057
v -2.32194 0.750191 -1.241153
v -2.324066 0.751372 -1.240612
v -2.323242 0.749686 -1.236659
v -2.321368 0.748625 -1.237146
v -2.318807 0.747369 -1.237735
v -2.319035 0.748785 -1.241811
v -2.319383 0.74993 -1.245944
v -2.322409 0.751428 -1.245252
v -2.324615 0.752706 -1.244677
v -2.315933 0.747803 -1.24232
v -2.316057 0.746514 -1.238177
v -2.313934 0.745986 -1.238466
v -2.313542 0.747189 -1.242656
v -2.313606 0.74833 -1.246815
v -2.316126 0.748931 -1.246472
v -2.316585 0.749703 -1.250697
v -2.319923 0.750639 -1.250178
v -2.313975 0.749211 -1.251016
v -2.322959 0.752237 -1.249459
v -2.325146 0.753651 -1.248847
v -2.320512 0.746832 -1.233213
v -2.321883 0.747685 -1.232825
v -2.32081 0.746296 -1.230808
v -2.319783 0.745368 -1.230302
v -2.318517 0.744632 -1.230638
v -2.318622 0.745848 -1.23367
v -2.316548 0.745256 -1.233983
v -2.317067 0.744288 -1.230829
v -2.315923 0.744353 -1.231757
v -2.314933 0.744922 -1.234175
v -2.318423 0.750144 -1.258295
v -2.321441 0.750814 -1.258354
v -2.321998 0.750837 -1.261268
v -2.319288 0.750299 -1.260787
v -2.317301 0.750195 -1.259549
v -2.315945 0.749995 -1.257805
v -2.314761 0.749606 -1.25484
v -2.317404 0.749881 -1.254744
v -2.320711 0.750707 -1.254376
v -2.323897 0.75232 -1.257232
v -2.325505 0.753795 -1.255949
v -2.325026 0.753266 -1.258049
v -2.324022 0.752181 -1.259867
v -2.323605 0.752346 -1.253539
v -2.325596 0.753913 -1.252736
v -2.322092 0.749917 -1.241219
v -2.324193 0.751173 -1.240658
v -2.324742 0.752505 -1.24471
v -2.322561 0.751151 -1.245299
v -2.319508 0.749641 -1.245996
v -2.319163 0.7485 -1.241881
v -2.318935 0.747087 -1.237817
v -2.321522 0.748355 -1.237223
v -2.32337 0.749489 -1.236714
v -2.316034 0.747509 -1.242395
v -2.316224 0.748632 -1.24653
v -2.313665 0.748102 -1.246861
v -2.313604 0.746964 -1.242714
v -2.313996 0.745763 -1.238534
v -2.316159 0.746223 -1.238265
v -2.316675 0.749399 -1.250734
v -2.320046 0.750346 -1.250209
v -2.314026 0.748978 -1.251047
v -2.323113 0.751958 -1.249484
v -2.325276 0.75345 -1.248863
v -2.320668 0.746564 -1.233295
v -2.322014 0.747491 -1.232883
v -2.318751 0.745567 -1.233758
v -2.318613 0.744422 -1.230704
v -2.319901 0.745167 -1.230363
v -2.320903 0.746151 -1.230852
v -2.316648 0.744966 -1.234075
v -2.314993 0.7447 -1.234247
v -2.315971 0.74419 -1.23181
v -2.31714 0.74407 -1.230899
v -2.322401 0.747885 -1.232721
v -2.320783 0.745991 -1.230014
v -2.323926 0.749953 -1.23652
v -2.320903 0.746151 -1.230852
v -2.317272 0.743868 -1.229809
v -2.315886 0.744044 -1.230965
v -2.318524 0.744134 -1.229656
v -2.315971 0.74419 -1.23181
v -2.315108 0.750052 -1.257636
v -2.316965 0.750307 -1.25978
v -2.313866 0.74962 -1.254863
v -2.317301 0.750195 -1.259549
v -2.32401 0.752226 -1.260752
v -2.325252 0.753602 -1.258171
v -2.322145 0.750943 -1.262243
v -2.325026 0.753266 -1.258049
v -2.325975 0.754372 -1.255526
v -2.326197 0.754521 -1.252469
v -2.319592 0.744791 -1.229359
v -2.314418 0.744711 -1.234272
v -2.313251 0.74571 -1.238593
v -2.319554 0.750454 -1.261618
v -2.313124 0.748942 -1.251137
v -2.312789 0.748028 -1.24695
v -2.325936 0.754035 -1.248649
v -2.32541 0.753044 -1.2445
v -2.324834 0.751678 -1.240452
v -2.31277 0.746883 -1.242794
vn 0.1561 0.9877 0.0013
vn 0.3588 0.9315 -0.059
vn 0.3693 0.9293 -0.0001
vn 0.1889 0.9804 0.0561
vn 0.2019 0.9762 0.0792
vn 0.164 0.9864 0.0002
vn 0.1372 0.989 -0.0559
vn 0.1771 0.9794 -0.097
vn 0.3398 0.9283 -0.1505
vn 0.5521 0.8303 -0.0755
vn 0.5456 0.8347 -0.0738
vn 0.5389 0.8422 0.0138
vn 0.543 0.8396 -0.0126
vn 0.5005 0.8508 -0.1598
vn 0.547 0.8261 -0.1355
vn 0.496 0.8383 0.2264
vn 0.4641 0.8521 0.2418
vn 0.4634 0.843 0.273
vn 0.5049 0.8242 0.2563
vn 0.4015 0.8693 0.2884
vn 0.3991 0.8827 0.248
vn 0.3919 0.905 0.1656
vn 0.5013 0.8521 0.1504
vn 0.4792 0.8605 0.1726
vn 0.2972 0.9173 0.265
vn 0.2916 0.909 0.2977
vn 0.3375 0.8931 0.2973
vn 0.3329 0.9043 0.2673
vn 0.3059 0.9294 0.2062
vn 0.2782 0.9408 0.1937
vn 0.2376 0.9644 0.1153
vn 0.3807 0.9218 0.0733
vn 0.2572 0.9564 0.1385
vn 0.5188 0.8527 0.0607
vn 0.5079 0.8567 0.0898
vn 0.5277 0.8073 0.2642
vn 0.4841 0.8267 0.2866
vn 0.5124 0.8062 0.2957
vn 0.5483 0.7758 0.3122
vn 0.4041 0.841 0.3596
vn 0.4024 0.8623 0.3072
vn 0.2676 0.9106 0.3147
vn 0.2485 0.895 0.3704
vn 0.2875 0.8956 0.3393
vn 0.3172 0.8931 0.3189
vn -0.133 -0.9907 -0.0296
vn -0.3619 -0.9312 0.0428
vn -0.3727 -0.9277 -0.0198
vn -0.0613 -0.9919 -0.1108
vn 0.0509 -0.9861 -0.158
vn 0.0282 -0.9891 -0.1441
vn -0.0418 -0.9901 -0.1336
vn -0.1744 -0.9828 -0.0604
vn -0.3693 -0.9293 0.0002
vn -0.5788 -0.8134 0.0569
vn -0.7234 -0.6904 0.0018
vn -0.7411 -0.6713 -0.0042
vn -0.6542 -0.7563 0.0042
vn -0.5558 -0.8312 0.0137
vn -0.6736 -0.739 -0.0109
vn -0.5099 -0.8311 -0.2219
vn -0.6024 -0.7757 -0.1877
vn -0.6072 -0.7831 -0.1341
vn -0.5141 -0.845 -0.147
vn -0.3919 -0.9049 -0.1658
vn -0.3991 -0.8827 -0.2482
vn -0.4015 -0.8692 -0.2885
vn -0.5209 -0.8165 -0.249
vn -0.6222 -0.7609 -0.1841
vn -0.2816 -0.9218 -0.2662
vn -0.2637 -0.9445 -0.1956
vn -0.1558 -0.9626 -0.2217
vn -0.1715 -0.947 -0.2714
vn -0.1471 -0.9497 -0.2763
vn -0.2734 -0.9149 -0.2971
vn -0.2236 -0.9675 -0.1179
vn -0.3807 -0.9218 -0.0734
vn -0.1082 -0.9804 -0.1644
vn -0.5312 -0.8452 -0.0581
vn -0.6324 -0.7721 -0.0626
vn -0.5482 -0.8012 -0.2397
vn -0.6611 -0.7376 -0.1371
vn -0.4019 -0.8666 -0.2958
vn -0.3988 -0.8836 -0.2451
vn -0.6025 -0.7829 -0.1549
vn -0.6822 -0.7238 -0.103
vn -0.2418 -0.923 -0.2992
vn -0.0903 -0.9645 -0.248
vn -0.0559 -0.9728 -0.2246
vn -0.1656 -0.9566 -0.2397
vn -0.729 0.3823 0.5677
vn -0.4848 0.2046 0.8503
vn -0.7997 0.4161 0.4328
vn -0.6822 -0.7238 -0.103
vn 0.2774 -0.3818 0.8816
vn 0.7389 -0.2816 0.6121
vn -0.0016 -0.4405 0.8977
vn -0.0559 -0.9728 -0.2246
vn 0.8792 -0.0046 -0.4764
vn 0.6824 0.0319 -0.7303
vn 0.9541 -0.0712 -0.2908
vn 0.0509 -0.9861 -0.158
vn -0.5807 0.2676 -0.7689
vn -0.675 0.5713 -0.4668
vn -0.2114 -0.0546 -0.9759
vn -0.7411 -0.6713 -0.0042
vn -0.7492 0.6427 -0.1603
vn -0.7836 0.6195 0.0467
vn -0.1547 -0.21 0.9654
vn 0.9291 -0.2766 0.2453
vn 0.9552 -0.2814 0.0915
vn 0.3188 -0.09 -0.9435
vn 0.9764 -0.142 -0.1627
vn 0.9763 -0.1951 -0.0934
vn -0.804 0.5658 0.1829
vn -0.8168 0.5178 0.2544
vn -0.8235 0.4661 0.3233
vn 0.9688 -0.2464 -0.0247
vt 0.839504 0.118056
vt 0.856743 0.205307
vt 0.741230 0.205307
vt 0.734555 0.106726
vt 0.724541 0.032791
vt 0.813647 0.052618
vt 0.868992 0.081539
vt 0.913398 0.129584
vt 0.940923 0.205307
vt 0.839504 0.292557
vt 0.813647 0.357995
vt 0.724541 0.377822
vt 0.734555 0.303887
vt 0.913398 0.281029
vt 0.868992 0.329074
vt 0.369475 0.299954
vt 0.368286 0.370940
vt 0.245840 0.351447
vt 0.246397 0.288815
vt 0.246768 0.205307
vt 0.370268 0.205307
vt 0.494283 0.205307
vt 0.492822 0.304944
vt 0.490632 0.379672
vt 0.369475 0.110659
vt 0.246397 0.121798
vt 0.245841 0.059166
vt 0.368286 0.039673
vt 0.490632 0.030941
vt 0.492822 0.105669
vt 0.616755 0.103478
vt 0.619174 0.205307
vt 0.613127 0.027106
vt 0.616755 0.307135
vt 0.613126 0.383507
vt 0.123273 0.268175
vt 0.123047 0.315326
vt 0.054743 0.283353
vt 0.030912 0.249131
vt 0.030973 0.205306
vt 0.123423 0.205306
vt 0.123273 0.142438
vt 0.030912 0.161481
vt 0.054744 0.127260
vt 0.123047 0.095287
vt 0.839504 0.118056
vt 0.856743 0.205307
vt 0.968983 0.205307
vt 0.938030 0.133427
vt 0.876123 0.061548
vt 0.805028 0.030806
vt 0.721203 0.008146
vt 0.734555 0.106726
vt 0.741230 0.205307
vt 0.839504 0.292557
vt 0.805028 0.379807
vt 0.876123 0.349065
vt 0.938030 0.277186
vt 0.734555 0.303887
vt 0.721203 0.402467
vt 0.369475 0.299954
vt 0.367890 0.394602
vt 0.489902 0.404581
vt 0.492822 0.304944
vt 0.494283 0.205307
vt 0.370268 0.205307
vt 0.246768 0.205307
vt 0.246397 0.288815
vt 0.245655 0.372324
vt 0.369475 0.110659
vt 0.492822 0.105669
vt 0.489902 0.006032
vt 0.367890 0.016011
vt 0.245655 0.038289
vt 0.246397 0.121798
vt 0.616755 0.103478
vt 0.619174 0.205307
vt 0.611917 0.001649
vt 0.616755 0.307135
vt 0.611917 0.408964
vt 0.123273 0.268175
vt 0.122972 0.331043
vt 0.123423 0.205306
vt 0.000156 0.205306
vt 0.000125 0.242784
vt 0.000064 0.280261
vt 0.123273 0.142438
vt 0.122972 0.079570
vt 0.000064 0.130352
vt 0.000125 0.167829
vt 0.122972 0.331043
vt 0.030806 0.283587
vt 0.245655 0.372324
vt 0.030806 0.283587
vt 0.000125 0.167829
vt 0.030806 0.127026
vt 0.000156 0.205306
vt 0.030806 0.127026
vt 0.805028 0.030806
vt 0.873826 0.071832
vt 0.721203 0.008146
vt 0.873826 0.071832
vt 0.938030 0.277186
vt 0.873826 0.338781
vt 0.968983 0.205307
vt 0.873826 0.338781
vt 0.805028 0.379807
vt 0.721203 0.402467
vt 0.000125 0.242784
vt 0.122972 0.079570
vt 0.245655 0.038289
vt 0.938030 0.133427
vt 0.611917 0.001649
vt 0.489902 0.006032
vt 0.611917 0.408964
vt 0.489902 0.404581
vt 0.367890 0.394602
vt 0.367890 0.016011
f 1/1/1 2/2/2 3/3/3
f 1/1/1 3/3/3 4/4/4
f 1/1/1 4/4/4 5/5/5
f 1/1/1 5/5/5 6/6/6
f 1/1/1 6/6/6 7/7/7
f 1/1/1 7/7/7 8/8/8
f 1/1/1 8/8/8 9/9/9
f 1/1/1 9/9/9 2/2/2
f 10/10/10 11/11/11 12/12/12
f 10/10/10 12/12/12 13/13/13
f 10/10/10 13/13/13 3/3/3
f 10/10/10 3/3/3 2/2/2
f 10/10/10 2/2/2 9/9/9
f 10/10/10 9/9/9 14/14/14
f 10/10/10 14/14/14 15/15/15
f 10/10/10 15/15/15 11/11/11
f 16/16/16 17/17/17 18/18/18
f 16/16/16 18/18/18 19/19/19
f 16/16/16 19/19/19 20/20/20
f 16/16/16 20/20/20 21/21/21
f 16/16/16 21/21/21 22/22/22
f 16/16/16 22/22/22 23/23/23
f 16/16/16 23/23/23 24/24/24
f 16/16/16 24/24/24 17/17/17
f 25/25/25 21/21/21 20/20/20
f 25/25/25 20/20/20 26/26/26
f 25/25/25 26/26/26 27/27/27
f 25/25/25 27/27/27 28/28/28
f 25/25/25 28/28/28 29/29/29
f 25/25/25 29/29/29 30/30/30
f 25/25/25 30/30/30 22/22/22
f 25/25/25 22/22/22 21/21/21
f 31/31/31 32/32/32 22/22/22
f 31/31/31 22/22/22 30/30/30
f 31/31/31 30/30/30 29/29/29
f 31/31/31 29/29/29 33/33/33
f 31/31/31 33/33/33 5/5/5
f 31/31/31 5/5/5 4/4/4
f 31/31/31 4/4/4 3/3/3
f 31/31/31 3/3/3 32/32/32
f 34/34/34 35/35/35 24/24/24
f 34/34/34 24/24/24 23/23/23
f 34/34/34 23/23/23 22/22/22
f 34/34/34 22/22/22 32/32/32
f 34/34/34 32/32/32 3/3/3
f 34/34/34 3/3/3 13/13/13
f 34/34/34 13/13/13 12/12/12
f 34/34/34 12/12/12 35/35/35
f 36/36/36 37/37/37 38/38/38
f 36/36/36 38/38/38 39/39/39
f 36/36/36 39/39/39 40/40/40
f 36/36/36 40/40/40 41/41/41
f 36/36/36 41/41/41 20/20/20
f 36/36/36 20/20/20 19/19/19
f 36/36/36 19/19/19 18/18/18
f 36/36/36 18/18/18 37/37/37
f 42/42/42 41/41/41 40/40/40
f 42/42/42 40/40/40 43/43/43
f 42/42/42 43/43/43 44/44/44
f 42/42/42 44/44/44 45/45/45
f 42/42/42 45/45/45 27/27/27
f 42/42/42 27/27/27 26/26/26
f 42/42/42 26/26/26 20/20/20
f 42/42/42 20/20/20 41/41/41
f 46/46/46 47/47/47 48/48/48
f 46/46/46 48/48/48 49/49/49
f 46/46/46 49/49/49 50/50/50
f 46/46/46 50/50/50 51/51/51
f 46/46/46 51/51/51 52/52/52
f 46/46/46 52/52/52 53/53/53
f 46/46/46 53/53/53 54/54/54
f 46/46/46 54/54/54 47/47/47
f 55/55/55 56/56/56 57/57/57
f 55/55/55 57/57/57 58/58/58
f 55/55/55 58/58/58 48/48/48
f 55/55/55 48/48/48 47/47/47
f 55/55/55 47/47/47 54/54/54
f 55/55/55 54/54/54 59/59/59
f 55/55/55 59/59/59 60/60/60
f 55/55/55 60/60/60 56/56/56
f 61/61/61 62/62/62 63/63/63
f 61/61/61 63/63/63 64/64/64
f 61/61/61 64/64/64 65/65/65
f 61/61/61 65/65/65 66/66/66
f 61/61/61 66/66/66 67/67/67
f 61/61/61 67/67/67 68/68/68
f 61/61/61 68/68/68 69/69/69
f 61/61/61 69/69/69 62/62/62
f 70/70/70 66/66/66 65/65/65
f 70/70/70 65/65/65 71/71/71
f 70/70/70 71/71/71 72/72/72
f 70/70/70 72/72/72 73/73/73
f 70/70/70 73/73/73 74/74/74
f 70/70/70 74/74/74 75/75/75
f 70/70/70 75/75/75 67/67/67
f 70/70/70 67/67/67 66/66/66
f 76/76/76 77/77/77 54/54/54
f 76/76/76 54/54/54 53/53/53
f 76/76/76 53/53/53 52/52/52
f 76/76/76 52/52/52 78/78/78
f 76/76/76 78/78/78 72/72/72
f 76/76/76 72/72/72 71/71/71
f 76/76/76 71/71/71 65/65/65
f 76/76/76 65/65/65 77/77/77
f 79/79/79 80/80/80 60/60/60
f 79/79/79 60/60/60 59/59/59
f 79/79/79 59/59/59 54/54/54
f 79/79/79 54/54/54 77/77/77
f 79/79/79 77/77/77 65/65/65
f 79/79/79 65/65/65 64/64/64
f 79/79/79 64/64/64 63/63/63
f 79/79/79 63/63/63 80/80/80
f 81/81/81 82/82/82 69/69/69
f 81/81/81 69/69/69 68/68/68
f 81/81/81 68/68/68 67/67/67
f 81/81/81 67/67/67 83/83/83
f 81/81/81 83/83/83 84/84/84
f 81/81/81 84/84/84 85/85/85
f 81/81/81 85/85/85 86/86/86
f 81/81/81 86/86/86 82/82/82
f 87/87/87 83/83/83 67/67/67
f 87/87/87 67/67/67 75/75/75
f 87/87/87 75/75/75 74/74/74
f 87/87/87 74/74/74 88/88/88
f 87/87/87 88/88/88 89/89/89
f 87/87/87 89/89/89 90/90/90
f 87/87/87 90/90/90 84/84/84
f 87/87/87 84/84/84 83/83/83
f 91/91/91 92/92/92 38/38/38
f 91/91/91 38/38/38 37/37/37
f 91/91/91 37/37/37 18/18/18
f 91/91/91 18/18/18 93/93/93
f 91/91/91 93/93/93 69/69/69
f 91/91/91 69/69/69 82/82/82
f 91/91/91 82/82/82 94/94/94
f 91/91/91 94/94/94 92/92/92
f 95/95/95 96/96/96 44/44/44
f 95/95/95 44/44/44 43/43/43
f 95/95/95 43/43/43 40/40/40
f 95/95/95 40/40/40 97/97/97
f 95/95/95 97/97/97 84/84/84
f 95/95/95 84/84/84 90/90/90
f 95/95/95 90/90/90 98/98/98
f 95/95/95 98/98/98 96/96/96
f 99/99/99 100/100/100 7/7/7
f 99/99/99 7/7/7 6/6/6
f 99/99/99 6/6/6 5/5/5
f 99/99/99 5/5/5 101/101/101
f 99/99/99 101/101/101 52/52/52
f 99/99/99 52/52/52 51/51/51
f 99/99/99 51/51/51 102/102/102
f 99/99/99 102/102/102 100/100/100
f 103/103/103 104/104/104 15/15/15
f 103/103/103 15/15/15 14/14/14
f 103/103/103 14/14/14 9/9/9
f 103/103/103 9/9/9 105/105/105
f 103/103/103 105/105/105 48/48/48
f 103/103/103 48/48/48 58/58/58
f 103/103/103 58/58/58 106/106/106
f 103/103/103 106/106/106 104/104/104
f 107/107/107 108/108/108 12/12/12
f 107/107/107 12/12/12 11/11/11
f 107/107/107 11/11/11 15/15/15
f 107/107/107 15/15/15 104/104/104
f 107/107/107 104/104/104 106/106/106
f 107/107/107 106/106/106 56/56/56
f 107/107/107 56/56/56 60/60/60
f 107/107/107 60/60/60 108/108/108
f 109/109/109 97/97/97 40/40/40
f 109/109/109 40/40/40 39/39/39
f 109/109/109 39/39/39 38/38/38
f 109/109/109 38/38/38 92/92/92
f 109/109/109 92/92/92 94/94/94
f 109/109/109 94/94/94 85/85/85
f 109/109/109 85/85/85 84/84/84
f 109/109/109 84/84/84 97/97/97
f 110/110/110 111/111/111 27/27/27
f 110/110/110 27/27/27 45/45/45
f 110/110/110 45/45/45 44/44/44
f 110/110/110 44/44/44 96/96/96
f 110/110/110 96/96/96 98/98/98
f 110/110/110 98/98/98 88/88/88
f 110/110/110 88/88/88 74/74/74
f 110/110/110 74/74/74 111/111/111
f 112/112/112 105/105/105 9/9/9
f 112/112/112 9/9/9 8/8/8
f 112/112/112 8/8/8 7/7/7
f 112/112/112 7/7/7 100/100/100
f 112/112/112 100/100/100 102/102/102
f 112/112/112 102/102/102 49/49/49
f 112/112/112 49/49/49 48/48/48
f 112/112/112 48/48/48 105/105/105
f 113/113/113 101/101/101 5/5/5
f 113/113/113 5/5/5 33/33/33
f 113/113/113 33/33/33 29/29/29
f 113/113/113 29/29/29 114/114/114
f 113/113/113 114/114/114 72/72/72
f 113/113/113 72/72/72 78/78/78
f 113/113/113 78/78/78 52/52/52
f 113/113/113 52/52/52 101/101/101
f 115/115/115 116/116/116 24/24/24
f 115/115/115 24/24/24 35/35/35
f 115/115/115 35/35/35 12/12/12
f 115/115/115 12/12/12 108/108/108
f 115/115/115 108/108/108 60/60/60
f 115/115/115 60/60/60 80/80/80
f 115/115/115 80/80/80 63/63/63
f 115/115/115 63/63/63 116/116/116
f 117/117/117 93/93/93 18/18/18
f 117/117/117 18/18/18 17/17/17
f 117/117/117 17/17/17 24/24/24
f 117/117/117 24/24/24 116/116/116
f 117/117/117 116/116/116 63/63/63
f 117/117/117 63/63/63 62/62/62
f 117/117/117 62/62/62 69/69/69
f 117/117/117 69/69/69 93/93/93
f 118/118/118 114/114/114 29/29/29
f 118/118/118 29/29/29 28/28/28
f 118/118/118 28/28/28 27/27/27
f 118/118/118 27/27/27 111/111/111
f 118/118/118 111/111/111 74/74/74
f 118/118/118 74/74/74 73/73/73
f 118/118/118 73/73/73 72/72/72
f 118/118/118 72/72/72 114/114/114
