v -2.370953 0.560004 -1.13614
v -2.36945 0.559884 -1.136681
v -2.369412 0.560251 -1.13547
v -2.370401 0.560454 -1.134706
v -2.371666 0.560431 -1.134659
v -2.372456 0.560124 -1.135599
v -2.372494 0.559756 -1.136811
v -2.371505 0.559554 -1.137575
v -2.37024 0.559576 -1.137622
v -2.382995 0.642116 -1.169752
v -2.383022 0.641816 -1.17097
v -2.378944 0.624897 -1.16319
v -2.378926 0.625257 -1.161993
v -2.378169 0.625548 -1.161074
v -2.382226 0.642322 -1.168803
v -2.386282 0.659097 -1.176532
v -2.387065 0.658975 -1.177512
v -2.387099 0.658736 -1.17875
v -2.37569 0.592691 -1.148796
v -2.375719 0.592327 -1.15
v -2.374917 0.59299 -1.147866
v -2.374736 0.592119 -1.150768
v -2.373485 0.592131 -1.150824
v -2.377967 0.624683 -1.163961
v -2.37673 0.624687 -1.164026
v -2.372712 0.592431 -1.149894
v -2.372683 0.592795 -1.14869
v -2.375973 0.624977 -1.163107
v -2.375954 0.625338 -1.161909
v -2.373667 0.593003 -1.147922
v -2.376932 0.625552 -1.161139
v -2.382039 0.641591 -1.171734
v -2.38079 0.641535 -1.171775
v -2.386111 0.658499 -1.179507
v -2.384851 0.658383 -1.179524
v -2.38002 0.641743 -1.170826
v -2.379994 0.642044 -1.169608
v -2.384067 0.658509 -1.178545
v -2.384033 0.658751 -1.177307
v -2.380977 0.642268 -1.168845
v -2.385021 0.658984 -1.17655
v -2.397012 0.708005 -1.201069
v -2.397058 0.707696 -1.202303
v -2.394424 0.691329 -1.194737
v -2.394376 0.69159 -1.193488
v -2.393572 0.691728 -1.192489
v -2.396212 0.708216 -1.200093
v -2.398451 0.724774 -1.207546
v -2.399241 0.724463 -1.208487
v -2.399281 0.724093 -1.209698
v -2.396068 0.707465 -1.203058
v -2.394795 0.707406 -1.203075
v -2.392159 0.690958 -1.195485
v -2.393434 0.691077 -1.195486
v -2.398291 0.723892 -1.210463
v -2.397025 0.723918 -1.210509
v -2.393994 0.707618 -1.202099
v -2.393947 0.707927 -1.200865
v -2.391303 0.69136 -1.193238
v -2.391353 0.691097 -1.194486
v -2.396234 0.724229 -1.209569
v -2.396195 0.724599 -1.208358
v -2.394938 0.708158 -1.200111
v -2.392295 0.69161 -1.192489
v -2.397184 0.7248 -1.207593
v -2.400496 0.743502 -1.214462
v -2.400534 0.743133 -1.215673
v -2.399705 0.743811 -1.213521
v -2.40096 0.762849 -1.219495
v -2.40175 0.762541 -1.220436
v -2.401788 0.762174 -1.221647
v -2.399545 0.742932 -1.216437
v -2.398279 0.742956 -1.216484
v -2.400799 0.761971 -1.222411
v -2.399534 0.761993 -1.222458
v -2.397489 0.743265 -1.215543
v -2.39745 0.743634 -1.214332
v -2.398744 0.762301 -1.221518
v -2.398705 0.762668 -1.220307
v -2.398439 0.743835 -1.213568
v -2.399694 0.762871 -1.219542
v -2.390924 0.675261 -1.185582
v -2.390967 0.675018 -1.186829
v -2.390128 0.675378 -1.184586
v -2.389978 0.674768 -1.18758
v -2.388708 0.674638 -1.187583
v -2.38791 0.674758 -1.186587
v -2.387866 0.675003 -1.18534
v -2.388857 0.67525 -1.184589
vn 0.0277 -0.9568 0.2895
vn 0.7522 -0.6559 -0.0625
vn 0.7492 -0.434 0.5003
vn 0.2994 -0.3511 0.8872
vn -0.299 -0.3664 0.8811
vn -0.6878 -0.5635 0.4576
vn -0.6732 -0.7328 -0.0986
vn -0.232 -0.8581 -0.4581
vn 0.3591 -0.8021 -0.4771
vn -0.9302 -0.0576 0.3626
vn -0.876 -0.3591 -0.3218
vn -0.8891 -0.3021 -0.3437
vn -0.9335 -0.0027 0.3585
vn -0.3997 0.3095 0.8628
vn -0.4162 0.2957 0.8599
vn -0.4149 0.3093 0.8556
vn -0.9307 -0.048 0.3627
vn -0.8766 -0.3615 -0.3175
vn -0.9389 0.045 0.3411
vn -0.9004 -0.237 -0.3647
vn -0.4187 0.3052 0.8552
vn -0.3472 -0.3816 -0.8566
vn 0.419 -0.3049 -0.8553
vn -0.3401 -0.4214 -0.8407
vn 0.4343 -0.2911 -0.8524
vn 0.9389 -0.0444 -0.3413
vn 0.9004 0.2382 0.3641
vn 0.9386 0.0107 -0.3447
vn 0.8918 0.296 0.3422
vn 0.3467 0.3825 0.8564
vn 0.3575 0.4212 0.8335
vn -0.3466 -0.4595 -0.8177
vn 0.416 -0.2952 -0.86
vn -0.3472 -0.4716 -0.8105
vn 0.4155 -0.3093 -0.8553
vn 0.9301 0.0576 -0.3626
vn 0.876 0.3597 0.3211
vn 0.9318 0.0523 -0.3591
vn 0.8733 0.3635 0.3243
vn 0.3458 0.4604 0.8175
vn 0.3436 0.4693 0.8134
vn -0.9357 0.0219 0.3521
vn -0.894 -0.2881 -0.3431
vn -0.8877 -0.3196 -0.3314
vn -0.9348 -0.0063 0.3552
vn -0.4237 0.3191 0.8477
vn -0.4228 0.3225 0.8469
vn -0.434 0.2814 0.8558
vn -0.9407 0.0334 0.3376
vn -0.8968 -0.2319 -0.3766
vn -0.3406 -0.4314 -0.8354
vn 0.4162 -0.3264 -0.8487
vn 0.4102 -0.3287 -0.8507
vn -0.3449 -0.4528 -0.8222
vn -0.3427 -0.3628 -0.8666
vn 0.4071 -0.29 -0.8661
vn 0.9344 -0.0244 -0.3554
vn 0.8937 0.2887 0.3433
vn 0.8866 0.3226 0.3314
vn 0.9325 0.0016 -0.3612
vn 0.9317 -0.0454 -0.3603
vn 0.9065 0.2265 0.3562
vn 0.3376 0.4309 0.8369
vn 0.3389 0.4524 0.8249
vn 0.3396 0.3645 0.867
vn -0.9369 0.0469 0.3462
vn -0.9056 -0.1801 -0.3839
vn -0.4196 0.2465 0.8736
vn -0.4288 0.2446 0.8696
vn -0.9385 0.0455 0.3423
vn -0.9063 -0.1797 -0.3825
vn -0.3437 -0.3017 -0.8893
vn 0.4196 -0.2465 -0.8736
vn -0.3494 -0.3014 -0.8871
vn 0.4102 -0.2483 -0.8775
vn 0.9369 -0.0469 -0.3463
vn 0.9056 0.1802 0.3838
vn 0.9355 -0.0482 -0.3501
vn 0.905 0.1805 0.3851
vn 0.3437 0.3017 0.8892
vn 0.3384 0.302 0.8912
vn -0.9328 -0.0337 0.3587
vn -0.8787 -0.3533 -0.321
vn -0.419 0.3202 0.8496
vn -0.3452 -0.4744 -0.8098
vn 0.4115 -0.3263 -0.8509
vn 0.9316 0.0308 -0.3621
vn 0.878 0.3544 0.3217
vn 0.3423 0.4733 0.8116
vt 0.000000 0.000000
vt 0.000000 0.000000
vt 0.000000 0.000000
vt 0.000000 0.000000
vt 0.000000 0.000000
vt 0.000000 0.000000
vt 0.000000 0.000000
vt 0.000000 0.000000
vt 0.000000 0.000000
vt 0.000000 0.000000
vt 0.000000 0.000000
vt 0.000000 0.000000
vt 0.000000 0.000000
vt 0.000000 0.000000
vt 0.000000 0.000000
vt 0.000000 0.000000
vt 0.000000 0.000000
vt 0.000000 0.000000
vt 0.000000 0.000000
vt 0.000000 0.000000
vt 0.000000 0.000000
vt 0.000000 0.000000
vt 0.000000 0.000000
vt 0.000000 0.000000
vt 0.000000 0.000000
vt 0.000000 0.000000
vt 0.000000 0.000000
vt 0.000000 0.000000
vt 0.000000 0.000000
vt 0.000000 0.000000
vt 0.000000 0.000000
vt 0.000000 0.000000
vt 0.000000 0.000000
vt 0.000000 0.000000
vt 0.000000 0.000000
vt 0.000000 0.000000
vt 0.000000 0.000000
vt 0.000000 0.000000
vt 0.000000 0.000000
vt 0.000000 0.000000
vt 0.000000 0.000000
vt 0.000000 0.000000
vt 0.000000 0.000000
vt 0.000000 0.000000
vt 0.000000 0.000000
vt 0.000000 0.000000
vt 0.000000 0.000000
vt 0.000000 0.000000
vt 0.000000 0.000000
vt 0.000000 0.000000
vt 0.000000 0.000000
vt 0.000000 0.000000
vt 0.000000 0.000000
vt 0.000000 0.000000
vt 0.000000 0.000000
vt 0.000000 0.000000
vt 0.000000 0.000000
vt 0.000000 0.000000
vt 0.000000 0.000000
vt 0.000000 0.000000
vt 0.000000 0.000000
vt 0.000000 0.000000
vt 0.000000 0.000000
vt 0.000000 0.000000
vt 0.000000 0.000000
vt 0.000000 0.000000
vt 0.000000 0.000000
vt 0.000000 0.000000
vt 0.000000 0.000000
vt 0.000000 0.000000
vt 0.000000 0.000000
vt 0.000000 0.000000
vt 0.000000 0.000000
vt 0.000000 0.000000
vt 0.000000 0.000000
vt 0.000000 0.000000
vt 0.000000 0.000000
vt 0.000000 0.000000
vt 0.000000 0.000000
vt 0.000000 0.000000
vt 0.000000 0.000000
vt 0.000000 0.000000
vt 0.000000 0.000000
vt 0.000000 0.000000
vt 0.000000 0.000000
vt 0.000000 0.000000
vt 0.000000 0.000000
vt 0.000000 0.000000
vt 0.000000 0.000000
f 1/1/1 2/2/2 3/3/3
f 1/1/1 3/3/3 4/4/4
f 1/1/1 4/4/4 5/5/5
f 1/1/1 5/5/5 6/6/6
f 1/1/1 6/6/6 7/7/7
f 1/1/1 7/7/7 8/8/8
f 1/1/1 8/8/8 9/9/9
f 1/1/1 9/9/9 2/2/2
f 10/10/10 11/11/11 12/12/12
f 10/10/10 12/12/12 13/13/13
f 10/10/10 13/13/13 14/14/14
f 10/10/10 14/14/14 15/15/15
f 10/10/10 15/15/15 16/16/16
f 10/10/10 16/16/16 17/17/17
f 10/10/10 17/17/17 18/18/18
f 10/10/10 18/18/18 11/11/11
f 19/19/19 20/20/20 7/7/7
f 19/19/19 7/7/7 6/6/6
f 19/19/19 6/6/6 5/5/5
f 19/19/19 5/5/5 21/21/21
f 19/19/19 21/21/21 14/14/14
f 19/19/19 14/14/14 13/13/13
f 19/19/19 13/13/13 12/12/12
f 19/19/19 12/12/12 20/20/20
f 22/22/22 23/23/23 9/9/9
f 22/22/22 9/9/9 8/8/8
f 22/22/22 8/8/8 7/7/7
f 22/22/22 7/7/7 20/20/20
f 22/22/22 20/20/20 12/12/12
f 22/22/22 12/12/12 24/24/24
f 22/22/22 24/24/24 25/25/25
f 22/22/22 25/25/25 23/23/23
f 26/26/26 27/27/27 3/3/3
f 26/26/26 3/3/3 2/2/2
f 26/26/26 2/2/2 9/9/9
f 26/26/26 9/9/9 23/23/23
f 26/26/26 23/23/23 25/25/25
f 26/26/26 25/25/25 28/28/28
f 26/26/26 28/28/28 29/29/29
f 26/26/26 29/29/29 27/27/27
f 30/30/30 21/21/21 5/5/5
f 30/30/30 5/5/5 4/4/4
f 30/30/30 4/4/4 3/3/3
f 30/30/30 3/3/3 27/27/27
f 30/30/30 27/27/27 29/29/29
f 30/30/30 29/29/29 31/31/31
f 30/30/30 31/31/31 14/14/14
f 30/30/30 14/14/14 21/21/21
f 32/32/32 33/33/33 25/25/25
f 32/32/32 25/25/25 24/24/24
f 32/32/32 24/24/24 12/12/12
f 32/32/32 12/12/12 11/11/11
f 32/32/32 11/11/11 18/18/18
f 32/32/32 18/18/18 34/34/34
f 32/32/32 34/34/34 35/35/35
f 32/32/32 35/35/35 33/33/33
f 36/36/36 37/37/37 29/29/29
f 36/36/36 29/29/29 28/28/28
f 36/36/36 28/28/28 25/25/25
f 36/36/36 25/25/25 33/33/33
f 36/36/36 33/33/33 35/35/35
f 36/36/36 35/35/35 38/38/38
f 36/36/36 38/38/38 39/39/39
f 36/36/36 39/39/39 37/37/37
f 40/40/40 15/15/15 14/14/14
f 40/40/40 14/14/14 31/31/31
f 40/40/40 31/31/31 29/29/29
f 40/40/40 29/29/29 37/37/37
f 40/40/40 37/37/37 39/39/39
f 40/40/40 39/39/39 41/41/41
f 40/40/40 41/41/41 16/16/16
f 40/40/40 16/16/16 15/15/15
f 42/42/42 43/43/43 44/44/44
f 42/42/42 44/44/44 45/45/45
f 42/42/42 45/45/45 46/46/46
f 42/42/42 46/46/46 47/47/47
f 42/42/42 47/47/47 48/48/48
f 42/42/42 48/48/48 49/49/49
f 42/42/42 49/49/49 50/50/50
f 42/42/42 50/50/50 43/43/43
f 51/51/51 52/52/52 53/53/53
f 51/51/51 53/53/53 54/54/54
f 51/51/51 54/54/54 44/44/44
f 51/51/51 44/44/44 43/43/43
f 51/51/51 43/43/43 50/50/50
f 51/51/51 50/50/50 55/55/55
f 51/51/51 55/55/55 56/56/56
f 51/51/51 56/56/56 52/52/52
f 57/57/57 58/58/58 59/59/59
f 57/57/57 59/59/59 60/60/60
f 57/57/57 60/60/60 53/53/53
f 57/57/57 53/53/53 52/52/52
f 57/57/57 52/52/52 56/56/56
f 57/57/57 56/56/56 61/61/61
f 57/57/57 61/61/61 62/62/62
f 57/57/57 62/62/62 58/58/58
f 63/63/63 47/47/47 46/46/46
f 63/63/63 46/46/46 64/64/64
f 63/63/63 64/64/64 59/59/59
f 63/63/63 59/59/59 58/58/58
f 63/63/63 58/58/58 62/62/62
f 63/63/63 62/62/62 65/65/65
f 63/63/63 65/65/65 48/48/48
f 63/63/63 48/48/48 47/47/47
f 66/66/66 67/67/67 50/50/50
f 66/66/66 50/50/50 49/49/49
f 66/66/66 49/49/49 48/48/48
f 66/66/66 48/48/48 68/68/68
f 66/66/66 68/68/68 69/69/69
f 66/66/66 69/69/69 70/70/70
f 66/66/66 70/70/70 71/71/71
f 66/66/66 71/71/71 67/67/67
f 72/72/72 73/73/73 56/56/56
f 72/72/72 56/56/56 55/55/55
f 72/72/72 55/55/55 50/50/50
f 72/72/72 50/50/50 67/67/67
f 72/72/72 67/67/67 71/71/71
f 72/72/72 71/71/71 74/74/74
f 72/72/72 74/74/74 75/75/75
f 72/72/72 75/75/75 73/73/73
f 76/76/76 77/77/77 62/62/62
f 76/76/76 62/62/62 61/61/61
f 76/76/76 61/61/61 56/56/56
f 76/76/76 56/56/56 73/73/73
f 76/76/76 73/73/73 75/75/75
f 76/76/76 75/75/75 78/78/78
f 76/76/76 78/78/78 79/79/79
f 76/76/76 79/79/79 77/77/77
f 80/80/80 68/68/68 48/48/48
f 80/80/80 48/48/48 65/65/65
f 80/80/80 65/65/65 62/62/62
f 80/80/80 62/62/62 77/77/77
f 80/80/80 77/77/77 79/79/79
f 80/80/80 79/79/79 81/81/81
f 80/80/80 81/81/81 69/69/69
f 80/80/80 69/69/69 68/68/68
f 82/82/82 83/83/83 18/18/18
f 82/82/82 18/18/18 17/17/17
f 82/82/82 17/17/17 16/16/16
f 82/82/82 16/16/16 84/84/84
f 82/82/82 84/84/84 46/46/46
f 82/82/82 46/46/46 45/45/45
f 82/82/82 45/45/45 44/44/44
f 82/82/82 44/44/44 83/83/83
f 85/85/85 86/86/86 35/35/35
f 85/85/85 35/35/35 34/34/34
f 85/85/85 34/34/34 18/18/18
f 85/85/85 18/18/18 83/83/83
f 85/85/85 83/83/83 44/44/44
f 85/85/85 44/44/44 54/54/54
f 85/85/85 54/54/54 53/53/53
f 85/85/85 53/53/53 86/86/86
f 87/87/87 88/88/88 39/39/39
f 87/87/87 39/39/39 38/38/38
f 87/87/87 38/38/38 35/35/35
f 87/87/87 35/35/35 86/86/86
f 87/87/87 86/86/86 53/53/53
f 87/87/87 53/53/53 60/60/60
f 87/87/87 60/60/60 59/59/59
f 87/87/87 59/59/59 88/88/88
f 89/89/89 84/84/84 16/16/16
f 89/89/89 16/16/16 41/41/41
f 89/89/89 41/41/41 39/39/39
f 89/89/89 39/39/39 88/88/88
f 89/89/89 88/88/88 59/59/59
f 89/89/89 59/59/59 64/64/64
f 89/89/89 64/64/64 46/46/46
f 89/89/89 46/46/46 84/84/84
