v -2.445806 0.754242 -1.085558
v -2.443879 0.75468 -1.085097
v -2.443643 0.753752 -1.087623
v -2.445843 0.753305 -1.087848
v -2.447542 0.753098 -1.088203
v -2.447288 0.753988 -1.086265
v -2.446722 0.754455 -1.084983
v -2.445678 0.75483 -1.083899
v -2.444026 0.755277 -1.083214
v -2.442052 0.755386 -1.085628
v -2.440705 0.755994 -1.086387
v -2.440064 0.755378 -1.088342
v -2.441576 0.754606 -1.087927
v -2.44243 0.755821 -1.083959
v -2.441391 0.75608 -1.085081
v -2.440478 0.750407 -1.095186
v -2.438956 0.751042 -1.09536
v -2.438876 0.749128 -1.097554
v -2.440219 0.748558 -1.09739
v -2.442032 0.747884 -1.097252
v -2.44253 0.749653 -1.09504
v -2.442978 0.751263 -1.092715
v -2.440837 0.752069 -1.092878
v -2.439252 0.752758 -1.093078
v -2.444658 0.749133 -1.095109
v -2.443916 0.747431 -1.097321
v -2.445354 0.747153 -1.097434
v -2.44628 0.748809 -1.095225
v -2.446914 0.750422 -1.092936
v -2.445209 0.750736 -1.092797
v -2.445624 0.752132 -1.090319
v -2.443346 0.752621 -1.090202
v -2.447376 0.751881 -1.090511
v -2.441187 0.753484 -1.090401
v -2.439601 0.754251 -1.090655
v -2.440169 0.74658 -1.099554
v -2.439176 0.747039 -1.099709
v -2.439582 0.745728 -1.100841
v -2.440201 0.74503 -1.101146
v -2.441111 0.744635 -1.101028
v -2.441514 0.746052 -1.099427
v -2.442928 0.745739 -1.099503
v -2.442091 0.744454 -1.101112
v -2.442983 0.744691 -1.100778
v -2.444013 0.745565 -1.09962
v -2.445776 0.754048 -1.085476
v -2.44382 0.754494 -1.085015
v -2.443982 0.755136 -1.083155
v -2.445657 0.754684 -1.083841
v -2.446713 0.754346 -1.084938
v -2.44728 0.75384 -1.086204
v -2.447531 0.752954 -1.088136
v -2.445811 0.753116 -1.087757
v -2.443585 0.753569 -1.087533
v -2.441966 0.75521 -1.085546
v -2.440627 0.755869 -1.086327
v -2.441337 0.755985 -1.085038
v -2.442364 0.755689 -1.083902
v -2.441494 0.754432 -1.087837
v -2.43999 0.755253 -1.088275
v -2.440408 0.750249 -1.095061
v -2.438895 0.750927 -1.095268
v -2.439188 0.752639 -1.092993
v -2.440763 0.751905 -1.092764
v -2.442924 0.751093 -1.0926
v -2.442478 0.749489 -1.094914
v -2.441981 0.747725 -1.09712
v -2.44015 0.748405 -1.097258
v -2.438815 0.749017 -1.097456
v -2.444624 0.748964 -1.094983
v -2.445174 0.75056 -1.092682
v -2.446898 0.750288 -1.09285
v -2.446264 0.748681 -1.095131
v -2.445338 0.747028 -1.097335
v -2.443883 0.747267 -1.097189
v -2.44559 0.751949 -1.090216
v -2.44329 0.752444 -1.0901
v -2.447362 0.751741 -1.090435
v -2.44111 0.753315 -1.090299
v -2.439532 0.754128 -1.09058
v -2.440099 0.74643 -1.09942
v -2.439114 0.74693 -1.09961
v -2.441463 0.745895 -1.099292
v -2.441074 0.744517 -1.100926
v -2.440148 0.744918 -1.101046
v -2.439538 0.745646 -1.100767
v -2.442897 0.745577 -1.099369
v -2.444 0.74544 -1.099519
v -2.442971 0.744599 -1.100703
v -2.442069 0.744332 -1.10101
v -2.438815 0.747145 -1.099717
v -2.439475 0.745364 -1.101263
v -2.438399 0.749269 -1.097565
v -2.439538 0.745646 -1.100767
v -2.441803 0.743971 -1.101603
v -2.442883 0.744326 -1.1012
v -2.44096 0.74411 -1.101516
v -2.442971 0.744599 -1.100703
v -2.447782 0.753837 -1.086474
v -2.446962 0.754465 -1.084884
v -2.448106 0.752964 -1.088292
v -2.446713 0.754346 -1.084938
v -2.442526 0.755907 -1.083378
v -2.441195 0.756223 -1.084991
v -2.444055 0.755413 -1.08256
v -2.441337 0.755985 -1.085038
v -2.440218 0.756143 -1.086614
v -2.439524 0.755581 -1.088451
v -2.440187 0.744464 -1.101632
v -2.444371 0.745451 -1.099614
v -2.445828 0.747004 -1.097428
v -2.445627 0.754961 -1.083321
v -2.447956 0.751735 -1.090541
v -2.447477 0.750258 -1.092944
v -2.439039 0.754453 -1.090707
v -2.438694 0.752936 -1.093107
v -2.438419 0.751204 -1.095377
v -2.446816 0.748644 -1.095222
vn -0.0647 0.9335 -0.3525
vn -0.2802 0.8988 -0.3371
vn -0.2748 0.8776 -0.3928
vn -0.0822 0.9087 -0.4092
vn -0.0889 0.8973 -0.4324
vn -0.0726 0.9327 -0.3533
vn -0.0618 0.9533 -0.2955
vn -0.1119 0.9573 -0.2664
vn -0.2867 0.9254 -0.2477
vn -0.4789 0.8073 -0.3448
vn -0.4719 0.8109 -0.346
vn -0.4413 0.7898 -0.4259
vn -0.4524 0.7959 -0.4023
vn -0.4502 0.8542 -0.2602
vn -0.4905 0.8226 -0.2877
vn -0.3436 0.7176 -0.6057
vn -0.3077 0.7259 -0.6151
vn -0.2994 0.7073 -0.6403
vn -0.3453 0.6947 -0.631
vn -0.2337 0.7275 -0.6451
vn -0.2409 0.7533 -0.6119
vn -0.2542 0.8009 -0.5421
vn -0.3678 0.7553 -0.5425
vn -0.34 0.7562 -0.5591
vn -0.1357 0.781 -0.6096
vn -0.1223 0.7627 -0.6351
vn -0.1679 0.7475 -0.6427
vn -0.1704 0.7678 -0.6176
vn -0.1587 0.8115 -0.5624
vn -0.1346 0.8263 -0.5468
vn -0.1145 0.8743 -0.4716
vn -0.2667 0.8467 -0.4604
vn -0.1278 0.8591 -0.4956
vn -0.4086 0.7847 -0.4662
vn -0.3899 0.7792 -0.4907
vn -0.3665 0.676 -0.6393
vn -0.317 0.6875 -0.6533
vn -0.3435 0.665 -0.6631
vn -0.3761 0.6307 -0.6788
vn -0.2196 0.6778 -0.7017
vn -0.2301 0.7149 -0.6603
vn -0.0947 0.7589 -0.6443
vn -0.0627 0.7261 -0.6847
vn -0.1085 0.7365 -0.6677
vn -0.1427 0.7406 -0.6566
vn 0.0348 -0.9273 0.3725
vn 0.2788 -0.8933 0.3525
vn 0.2728 -0.8697 0.4114
vn -0.0558 -0.9027 0.4266
vn -0.1757 -0.8825 0.4361
vn -0.1505 -0.8897 0.4309
vn -0.0805 -0.8937 0.4413
vn 0.0669 -0.9098 0.4096
vn 0.2748 -0.8776 0.3927
vn 0.501 -0.7852 0.364
vn 0.6356 -0.6501 0.4163
vn 0.6527 -0.6301 0.4207
vn 0.5642 -0.7136 0.4151
vn 0.4658 -0.7881 0.4023
vn 0.5802 -0.6923 0.4291
vn 0.3588 -0.7123 0.6032
vn 0.4615 -0.6704 0.581
vn 0.4798 -0.6947 0.5359
vn 0.3816 -0.7495 0.5408
vn 0.2542 -0.8009 0.5422
vn 0.2409 -0.7532 0.6121
vn 0.2337 -0.7274 0.6452
vn 0.3633 -0.6896 0.6264
vn 0.4828 -0.6573 0.5786
vn 0.1201 -0.785 0.6077
vn 0.1198 -0.8294 0.5457
vn 0.0077 -0.8386 0.5446
vn 0.0108 -0.8078 0.5894
vn -0.0142 -0.8088 0.5879
vn 0.1045 -0.7685 0.6312
vn 0.1001 -0.8765 0.4709
vn 0.2666 -0.8467 0.4604
vn -0.0241 -0.8743 0.4848
vn 0.4218 -0.7784 0.465
vn 0.524 -0.7071 0.4747
vn 0.3933 -0.678 0.621
vn 0.5346 -0.6503 0.5396
vn 0.2323 -0.7226 0.6511
vn 0.2414 -0.7551 0.6095
vn 0.4697 -0.6878 0.5534
vn 0.5652 -0.6482 0.5103
vn 0.0729 -0.7757 0.6269
vn -0.0623 -0.8324 0.5507
vn -0.0898 -0.8479 0.5224
vn 0.0128 -0.827 0.562
vn 0.8843 0.1829 -0.4295
vn 0.7108 -0.0771 -0.6991
vn 0.9189 0.2588 -0.2976
vn 0.5652 -0.6482 0.5103
vn -0.0641 -0.6476 -0.7593
vn -0.5696 -0.4682 -0.6755
vn 0.2027 -0.707 -0.6775
vn -0.0898 -0.8479 0.5224
vn -0.9714 0.1451 0.1877
vn -0.8472 0.2624 0.4619
vn -0.9996 0.0215 0.0188
vn -0.1757 -0.8825 0.4361
vn 0.3748 0.5046 0.7777
vn 0.5721 0.6951 0.4353
vn -0.0625 0.2645 0.9623
vn 0.6527 -0.6301 0.4207
vn 0.7312 0.6641 0.156
vn 0.8177 0.5754 -0.0152
vn 0.3884 -0.5096 -0.7677
vn -0.8497 -0.3462 -0.3977
vn -0.9166 -0.3007 -0.2635
vn -0.5658 0.2177 0.7953
vn -0.9928 -0.0868 -0.0819
vn -0.9787 -0.1598 -0.1287
vn 0.8691 0.4806 -0.1166
vn 0.8964 0.4119 -0.1633
vn 0.9168 0.3409 -0.2079
vn -0.9576 -0.2303 -0.1728
vt 0.839504 0.118056
vt 0.856743 0.205307
vt 0.741230 0.205307
vt 0.734555 0.106726
vt 0.724541 0.032791
vt 0.813647 0.052618
vt 0.868992 0.081539
vt 0.913398 0.129584
vt 0.940923 0.205307
vt 0.839504 0.292557
vt 0.813647 0.357995
vt 0.724541 0.377822
vt 0.734555 0.303887
vt 0.913398 0.281029
vt 0.868992 0.329074
vt 0.369475 0.299954
vt 0.368286 0.370940
vt 0.245840 0.351447
vt 0.246397 0.288815
vt 0.246768 0.205307
vt 0.370268 0.205307
vt 0.494283 0.205307
vt 0.492822 0.304944
vt 0.490632 0.379672
vt 0.369475 0.110659
vt 0.246397 0.121798
vt 0.245841 0.059166
vt 0.368286 0.039673
vt 0.490632 0.030941
vt 0.492822 0.105669
vt 0.616755 0.103478
vt 0.619174 0.205307
vt 0.613127 0.027106
vt 0.616755 0.307135
vt 0.613126 0.383507
vt 0.123273 0.268175
vt 0.123047 0.315326
vt 0.054743 0.283353
vt 0.030912 0.249131
vt 0.030973 0.205306
vt 0.123423 0.205306
vt 0.123273 0.142438
vt 0.030912 0.161481
vt 0.054744 0.127260
vt 0.123047 0.095287
vt 0.839504 0.118056
vt 0.856743 0.205307
vt 0.968983 0.205307
vt 0.938030 0.133427
vt 0.876123 0.061548
vt 0.805028 0.030806
vt 0.721203 0.008146
vt 0.734555 0.106726
vt 0.741230 0.205307
vt 0.839504 0.292557
vt 0.805028 0.379807
vt 0.876123 0.349065
vt 0.938030 0.277186
vt 0.734555 0.303887
vt 0.721203 0.402467
vt 0.369475 0.299954
vt 0.367890 0.394602
vt 0.489902 0.404581
vt 0.492822 0.304944
vt 0.494283 0.205307
vt 0.370268 0.205307
vt 0.246768 0.205307
vt 0.246397 0.288815
vt 0.245655 0.372324
vt 0.369475 0.110659
vt 0.492822 0.105669
vt 0.489902 0.006032
vt 0.367890 0.016011
vt 0.245655 0.038289
vt 0.246397 0.121798
vt 0.616755 0.103478
vt 0.619174 0.205307
vt 0.611917 0.001649
vt 0.616755 0.307135
vt 0.611917 0.408964
vt 0.123273 0.268175
vt 0.122972 0.331043
vt 0.123423 0.205306
vt 0.000156 0.205306
vt 0.000125 0.242784
vt 0.000064 0.280261
vt 0.123273 0.142438
vt 0.122972 0.079570
vt 0.000064 0.130352
vt 0.000125 0.167829
vt 0.122972 0.331043
vt 0.030806 0.283587
vt 0.245655 0.372324
vt 0.030806 0.283587
vt 0.000125 0.167829
vt 0.030806 0.127026
vt 0.000156 0.205306
vt 0.030806 0.127026
vt 0.805028 0.030806
vt 0.873826 0.071832
vt 0.721203 0.008146
vt 0.873826 0.071832
vt 0.938030 0.277186
vt 0.873826 0.338781
vt 0.968983 0.205307
vt 0.873826 0.338781
vt 0.805028 0.379807
vt 0.721203 0.402467
vt 0.000125 0.242784
vt 0.122972 0.079570
vt 0.245655 0.038289
vt 0.938030 0.133427
vt 0.611917 0.001649
vt 0.489902 0.006032
vt 0.611917 0.408964
vt 0.489902 0.404581
vt 0.367890 0.394602
vt 0.367890 0.016011
f 1/1/1 2/2/2 3/3/3
f 1/1/1 3/3/3 4/4/4
f 1/1/1 4/4/4 5/5/5
f 1/1/1 5/5/5 6/6/6
f 1/1/1 6/6/6 7/7/7
f 1/1/1 7/7/7 8/8/8
f 1/1/1 8/8/8 9/9/9
f 1/1/1 9/9/9 2/2/2
f 10/10/10 11/11/11 12/12/12
f 10/10/10 12/12/12 13/13/13
f 10/10/10 13/13/13 3/3/3
f 10/10/10 3/3/3 2/2/2
f 10/10/10 2/2/2 9/9/9
f 10/10/10 9/9/9 14/14/14
f 10/10/10 14/14/14 15/15/15
f 10/10/10 15/15/15 11/11/11
f 16/16/16 17/17/17 18/18/18
f 16/16/16 18/18/18 19/19/19
f 16/16/16 19/19/19 20/20/20
f 16/16/16 20/20/20 21/21/21
f 16/16/16 21/21/21 22/22/22
f 16/16/16 22/22/22 23/23/23
f 16/16/16 23/23/23 24/24/24
f 16/16/16 24/24/24 17/17/17
f 25/25/25 21/21/21 20/20/20
f 25/25/25 20/20/20 26/26/26
f 25/25/25 26/26/26 27/27/27
f 25/25/25 27/27/27 28/28/28
f 25/25/25 28/28/28 29/29/29
f 25/25/25 29/29/29 30/30/30
f 25/25/25 30/30/30 22/22/22
f 25/25/25 22/22/22 21/21/21
f 31/31/31 32/32/32 22/22/22
f 31/31/31 22/22/22 30/30/30
f 31/31/31 30/30/30 29/29/29
f 31/31/31 29/29/29 33/33/33
f 31/31/31 33/33/33 5/5/5
f 31/31/31 5/5/5 4/4/4
f 31/31/31 4/4/4 3/3/3
f 31/31/31 3/3/3 32/32/32
f 34/34/34 35/35/35 24/24/24
f 34/34/34 24/24/24 23/23/23
f 34/34/34 23/23/23 22/22/22
f 34/34/34 22/22/22 32/32/32
f 34/34/34 32/32/32 3/3/3
f 34/34/34 3/3/3 13/13/13
f 34/34/34 13/13/13 12/12/12
f 34/34/34 12/12/12 35/35/35
f 36/36/36 37/37/37 38/38/38
f 36/36/36 38/38/38 39/39/39
f 36/36/36 39/39/39 40/40/40
f 36/36/36 40/40/40 41/41/41
f 36/36/36 41/41/41 20/20/20
f 36/36/36 20/20/20 19/19/19
f 36/36/36 19/19/19 18/18/18
f 36/36/36 18/18/18 37/37/37
f 42/42/42 41/41/41 40/40/40
f 42/42/42 40/40/40 43/43/43
f 42/42/42 43/43/43 44/44/44
f 42/42/42 44/44/44 45/45/45
f 42/42/42 45/45/45 27/27/27
f 42/42/42 27/27/27 26/26/26
f 42/42/42 26/26/26 20/20/20
f 42/42/42 20/20/20 41/41/41
f 46/46/46 47/47/47 48/48/48
f 46/46/46 48/48/48 49/49/49
f 46/46/46 49/49/49 50/50/50
f 46/46/46 50/50/50 51/51/51
f 46/46/46 51/51/51 52/52/52
f 46/46/46 52/52/52 53/53/53
f 46/46/46 53/53/53 54/54/54
f 46/46/46 54/54/54 47/47/47
f 55/55/55 56/56/56 57/57/57
f 55/55/55 57/57/57 58/58/58
f 55/55/55 58/58/58 48/48/48
f 55/55/55 48/48/48 47/47/47
f 55/55/55 47/47/47 54/54/54
f 55/55/55 54/54/54 59/59/59
f 55/55/55 59/59/59 60/60/60
f 55/55/55 60/60/60 56/56/56
f 61/61/61 62/62/62 63/63/63
f 61/61/61 63/63/63 64/64/64
f 61/61/61 64/64/64 65/65/65
f 61/61/61 65/65/65 66/66/66
f 61/61/61 66/66/66 67/67/67
f 61/61/61 67/67/67 68/68/68
f 61/61/61 68/68/68 69/69/69
f 61/61/61 69/69/69 62/62/62
f 70/70/70 66/66/66 65/65/65
f 70/70/70 65/65/65 71/71/71
f 70/70/70 71/71/71 72/72/72
f 70/70/70 72/72/72 73/73/73
f 70/70/70 73/73/73 74/74/74
f 70/70/70 74/74/74 75/75/75
f 70/70/70 75/75/75 67/67/67
f 70/70/70 67/67/67 66/66/66
f 76/76/76 77/77/77 54/54/54
f 76/76/76 54/54/54 53/53/53
f 76/76/76 53/53/53 52/52/52
f 76/76/76 52/52/52 78/78/78
f 76/76/76 78/78/78 72/72/72
f 76/76/76 72/72/72 71/71/71
f 76/76/76 71/71/71 65/65/65
f 76/76/76 65/65/65 77/77/77
f 79/79/79 80/80/80 60/60/60
f 79/79/79 60/60/60 59/59/59
f 79/79/79 59/59/59 54/54/54
f 79/79/79 54/54/54 77/77/77
f 79/79/79 77/77/77 65/65/65
f 79/79/79 65/65/65 64/64/64
f 79/79/79 64/64/64 63/63/63
f 79/79/79 63/63/63 80/80/80
f 81/81/81 82/82/82 69/69/69
f 81/81/81 69/69/69 68/68/68
f 81/81/81 68/68/68 67/67/67
f 81/81/81 67/67/67 83/83/83
f 81/81/81 83/83/83 84/84/84
f 81/81/81 84/84/84 85/85/85
f 81/81/81 85/85/85 86/86/86
f 81/81/81 86/86/86 82/82/82
f 87/87/87 83/83/83 67/67/67
f 87/87/87 67/67/67 75/75/75
f 87/87/87 75/75/75 74/74/74
f 87/87/87 74/74/74 88/88/88
f 87/87/87 88/88/88 89/89/89
f 87/87/87 89/89/89 90/90/90
f 87/87/87 90/90/90 84/84/84
f 87/87/87 84/84/84 83/83/83
f 91/91/91 92/92/92 38/38/38
f 91/91/91 38/38/38 37/37/37
f 91/91/91 37/37/37 18/18/18
f 91/91/91 18/18/18 93/93/93
f 91/91/91 93/93/93 69/69/69
f 91/91/91 69/69/69 82/82/82
f 91/91/91 82/82/82 94/94/94
f 91/91/91 94/94/94 92/92/92
f 95/95/95 96/96/96 44/44/44
f 95/95/95 44/44/44 43/43/43
f 95/95/95 43/43/43 40/40/40
f 95/95/95 40/40/40 97/97/97
f 95/95/95 97/97/97 84/84/84
f 95/95/95 84/84/84 90/90/90
f 95/95/95 90/90/90 98/98/98
f 95/95/95 98/98/98 96/96/96
f 99/99/99 100/100/100 7/7/7
f 99/99/99 7/7/7 6/6/6
f 99/99/99 6/6/6 5/5/5
f 99/99/99 5/5/5 101/101/101
f 99/99/99 101/101/101 52/52/52
f 99/99/99 52/52/52 51/51/51
f 99/99/99 51/51/51 102/102/102
f 99/99/99 102/102/102 100/100/100
f 103/103/103 104/104/104 15/15/15
f 103/103/103 15/15/15 14/14/14
f 103/103/103 14/14/14 9/9/9
f 103/103/103 9/9/9 105/105/105
f 103/103/103 105/105/105 48/48/48
f 103/103/103 48/48/48 58/58/58
f 103/103/103 58/58/58 106/106/106
f 103/103/103 106/106/106 104/104/104
f 107/107/107 108/108/108 12/12/12
f 107/107/107 12/12/12 11/11/11
f 107/107/107 11/11/11 15/15/15
f 107/107/107 15/15/15 104/104/104
f 107/107/107 104/104/104 106/106/106
f 107/107/107 106/106/106 56/56/56
f 107/107/107 56/56/56 60/60/60
f 107/107/107 60/60/60 108/108/108
f 109/109/109 97/97/97 40/40/40
f 109/109/109 40/40/40 39/39/39
f 109/109/109 39/39/39 38/38/38
f 109/109/109 38/38/38 92/92/92
f 109/109/109 92/92/92 94/94/94
f 109/109/109 94/94/94 85/85/85
f 109/109/109 85/85/85 84/84/84
f 109/109/109 84/84/84 97/97/97
f 110/110/110 111/111/111 27/27/27
f 110/110/110 27/27/27 45/45/45
f 110/110/110 45/45/45 44/44/44
f 110/110/110 44/44/44 96/96/96
f 110/110/110 96/96/96 98/98/98
f 110/110/110 98/98/98 88/88/88
f 110/110/110 88/88/88 74/74/74
f 110/110/110 74/74/74 111/111/111
f 112/112/112 105/105/105 9/9/9
f 112/112/112 9/9/9 8/8/8
f 112/112/112 8/8/8 7/7/7
f 112/112/112 7/7/7 100/100/100
f 112/112/112 100/100/100 102/102/102
f 112/112/112 102/102/102 49/49/49
f 112/112/112 49/49/49 48/48/48
f 112/112/112 48/48/48 105/105/105
f 113/113/113 101/101/101 5/5/5
f 113/113/113 5/5/5 33/33/33
f 113/113/113 33/33/33 29/29/29
f 113/113/113 29/29/29 114/114/114
f 113/113/113 114/114/114 72/72/72
f 113/113/113 72/72/72 78/78/78
f 113/113/113 78/78/78 52/52/52
f 113/113/113 52/52/52 101/101/101
f 115/115/115 116/116/116 24/24/24
f 115/115/115 24/24/24 35/35/35
f 115/115/115 35/35/35 12/12/12
f 115/115/115 12/12/12 108/108/108
f 115/115/115 108/108/108 60/60/60
f 115/115/115 60/60/60 80/80/80
f 115/115/115 80/80/80 63/63/63
f 115/115/115 63/63/63 116/116/116
f 117/117/117 93/93/93 18/18/18
f 117/117/117 18/18/18 17/17/17
f 117/117/117 17/17/17 24/24/24
f 117/117/117 24/24/24 116/116/116
f 117/117/117 116/116/116 63/63/63
f 117/117/117 63/63/63 62/62/62
f 117/117/117 62/62/62 69/69/69
f 117/117/117 69/69/69 93/93/93
f 118/118/118 114/114/114 29/29/29
f 118/118/118 29/29/29 28/28/28
f 118/118/118 28/28/28 27/27/27
f 118/118/118 27/27/27 111/111/111
f 118/118/118 111/111/111 74/74/74
f 118/118/118 74/74/74 73/73/73
f 118/118/118 73/73/73 72/72/72
f 118/118/118 72/72/72 114/114/114
