v -2.455156 0.738428 -1.155805
v -2.455953 0.739057 -1.153257
v -2.452512 0.737962 -1.152711
v -2.452011 0.737299 -1.155646
v -2.451387 0.736984 -1.157904
v -2.454072 0.738078 -1.157742
v -2.455873 0.738651 -1.157094
v -2.457436 0.739129 -1.155782
v -2.458515 0.739746 -1.153621
v -2.45542 0.740102 -1.150777
v -2.454536 0.741014 -1.148923
v -2.451914 0.740319 -1.147887
v -2.452312 0.739201 -1.149931
v -2.457665 0.740577 -1.151429
v -2.456249 0.741028 -1.149952
v -2.442366 0.734002 -1.147741
v -2.442286 0.73492 -1.145698
v -2.439224 0.732469 -1.145352
v -2.439308 0.731645 -1.147157
v -2.439314 0.730667 -1.149589
v -2.44236 0.732906 -1.150494
v -2.445553 0.734927 -1.151335
v -2.445546 0.736096 -1.148462
v -2.44544 0.737091 -1.146335
v -2.442072 0.732138 -1.153341
v -2.439048 0.729996 -1.152109
v -2.438768 0.72958 -1.15403
v -2.44177 0.731654 -1.155509
v -2.4449 0.733674 -1.156598
v -2.445238 0.734146 -1.15432
v -2.448628 0.735869 -1.15512
v -2.448991 0.736599 -1.152072
v -2.448218 0.735484 -1.15746
v -2.448941 0.737847 -1.149176
v -2.448766 0.738951 -1.147044
v -2.436279 0.729105 -1.146851
v -2.436174 0.729767 -1.145516
v -2.434541 0.72805 -1.145929
v -2.43404 0.727106 -1.146716
v -2.434107 0.726534 -1.147939
v -2.436315 0.72834 -1.148656
v -2.436085 0.727875 -1.150547
v -2.433907 0.726263 -1.149248
v -2.434301 0.726533 -1.150486
v -2.435833 0.72761 -1.151996
v -2.455258 0.738163 -1.155764
v -2.456058 0.738802 -1.153177
v -2.45859 0.739553 -1.153561
v -2.457509 0.738928 -1.155753
v -2.455927 0.738502 -1.15708
v -2.454147 0.737876 -1.157731
v -2.451472 0.736786 -1.157889
v -2.452125 0.737039 -1.155603
v -2.452627 0.737711 -1.152634
v -2.455527 0.739862 -1.150661
v -2.454616 0.740843 -1.148818
v -2.456306 0.740899 -1.149879
v -2.457741 0.740397 -1.15134
v -2.452429 0.738964 -1.149821
v -2.452003 0.740149 -1.147788
v -2.442531 0.733783 -1.14765
v -2.44241 0.734761 -1.145618
v -2.445553 0.736927 -1.14625
v -2.445697 0.73587 -1.148366
v -2.445703 0.734692 -1.151264
v -2.442524 0.732679 -1.150427
v -2.439487 0.730445 -1.149524
v -2.439482 0.731432 -1.147068
v -2.439355 0.732314 -1.145273
v -2.442234 0.731903 -1.153298
v -2.445386 0.733903 -1.154275
v -2.44501 0.733489 -1.156578
v -2.44189 0.731475 -1.15549
v -2.438895 0.729405 -1.154012
v -2.439219 0.729768 -1.152069
v -2.448759 0.735617 -1.155075
v -2.449123 0.736355 -1.151998
v -2.448314 0.735291 -1.157441
v -2.449074 0.737615 -1.149073
v -2.448866 0.738783 -1.146953
v -2.436456 0.728896 -1.146762
v -2.436307 0.729615 -1.145436
v -2.436492 0.728121 -1.148593
v -2.43424 0.726371 -1.147892
v -2.434174 0.72695 -1.146648
v -2.434639 0.727936 -1.145874
v -2.436259 0.727648 -1.15051
v -2.435962 0.727437 -1.151981
v -2.434397 0.726406 -1.150472
v -2.434038 0.726093 -1.149222
v -2.436198 0.729922 -1.145032
v -2.433959 0.727588 -1.14574
v -2.439254 0.732676 -1.144713
v -2.434639 0.727936 -1.145874
v -2.433239 0.72565 -1.148804
v -2.433719 0.726068 -1.150306
v -2.43343 0.72586 -1.147679
v -2.434397 0.726406 -1.150472
v -2.453744 0.737871 -1.158387
v -2.455987 0.738651 -1.157425
v -2.451217 0.73679 -1.158654
v -2.455927 0.738502 -1.15708
v -2.458446 0.740656 -1.151607
v -2.456393 0.741223 -1.149699
v -2.459402 0.73989 -1.153715
v -2.456306 0.740899 -1.149879
v -2.454277 0.741244 -1.148255
v -2.451821 0.740617 -1.147158
v -2.433353 0.72637 -1.14664
v -2.435807 0.727444 -1.152476
v -2.438731 0.729363 -1.154665
v -2.458228 0.739273 -1.155761
v -2.448124 0.735269 -1.158235
v -2.444836 0.733434 -1.157352
v -2.448752 0.739245 -1.14629
v -2.445455 0.737351 -1.145585
v -2.442314 0.735157 -1.144978
v -2.441723 0.731412 -1.156226
vn 0.3155 0.9463 -0.0699
vn 0.314 0.9056 -0.2849
vn 0.3702 0.8871 -0.2758
vn 0.3741 0.9236 -0.0835
vn 0.3982 0.913 -0.0886
vn 0.3169 0.9452 -0.0779
vn 0.2578 0.9636 -0.0708
vn 0.2313 0.9651 -0.1226
vn 0.2241 0.9281 -0.2972
vn 0.3371 0.8097 -0.4803
vn 0.3377 0.8136 -0.4733
vn 0.4166 0.7968 -0.4377
vn 0.3934 0.8015 -0.4503
vn 0.2491 0.8535 -0.4576
vn 0.2801 0.8222 -0.4955
vn 0.5934 0.735 -0.3281
vn 0.6002 0.7446 -0.292
vn 0.6257 0.7273 -0.2817
vn 0.6196 0.7131 -0.3278
vn 0.6259 0.7492 -0.2165
vn 0.5922 0.7734 -0.2263
vn 0.5212 0.8176 -0.2448
vn 0.5301 0.7692 -0.3569
vn 0.545 0.7715 -0.3282
vn 0.5825 0.8036 -0.1222
vn 0.608 0.7867 -0.1068
vn 0.6189 0.7707 -0.1515
vn 0.5931 0.7898 -0.156
vn 0.5355 0.8313 -0.1485
vn 0.5179 0.8461 -0.1257
vn 0.4397 0.8912 -0.1113
vn 0.4385 0.8594 -0.263
vn 0.4651 0.8767 -0.1227
vn 0.4551 0.7942 -0.4027
vn 0.4787 0.7902 -0.3825
vn 0.6299 0.6943 -0.348
vn 0.6407 0.7076 -0.2979
vn 0.653 0.6849 -0.3233
vn 0.6718 0.6506 -0.354
vn 0.6837 0.7024 -0.1979
vn 0.6413 0.7374 -0.2117
vn 0.6157 0.784 -0.0786
vn 0.6555 0.7539 -0.0437
vn 0.6407 0.7624 -0.0904
vn 0.6316 0.7651 -0.1252
vn -0.3341 -0.9417 0.0387
vn -0.3296 -0.9008 0.2825
vn -0.389 -0.88 0.2724
vn -0.3838 -0.9218 -0.0554
vn -0.3872 -0.905 -0.1762
vn -0.3832 -0.9113 -0.1505
vn -0.3974 -0.914 -0.0811
vn -0.3737 -0.925 0.0682
vn -0.3701 -0.8871 0.2758
vn -0.3584 -0.788 0.5006
vn -0.4242 -0.6519 0.6285
vn -0.4305 -0.6315 0.6448
vn -0.4162 -0.7171 0.559
vn -0.3945 -0.7935 0.4635
vn -0.4318 -0.6961 0.5735
vn -0.592 -0.7291 0.3433
vn -0.5776 -0.6838 0.4459
vn -0.5325 -0.7056 0.4673
vn -0.5295 -0.7631 0.3706
vn -0.5213 -0.8175 0.2447
vn -0.5923 -0.7733 0.2262
vn -0.626 -0.7492 0.2164
vn -0.6164 -0.7074 0.3459
vn -0.5769 -0.6702 0.4669
vn -0.5795 -0.8079 0.1067
vn -0.5158 -0.8494 0.1112
vn -0.508 -0.8614 -0.0005
vn -0.5541 -0.8325 -0.0006
vn -0.551 -0.8341 -0.0254
vn -0.6029 -0.7928 0.0894
vn -0.4381 -0.8936 0.097
vn -0.4384 -0.8594 0.263
vn -0.4449 -0.8951 -0.0279
vn -0.4549 -0.7876 0.4157
vn -0.4735 -0.7143 0.5153
vn -0.6131 -0.6948 0.3758
vn -0.5413 -0.6602 0.5206
vn -0.632 -0.7446 0.2146
vn -0.5897 -0.775 0.227
vn -0.5497 -0.6998 0.4561
vn -0.5139 -0.6561 0.5526
vn -0.5964 -0.8006 0.0583
vn -0.5102 -0.8571 -0.0708
vn -0.4798 -0.8721 -0.0962
vn -0.5259 -0.8505 0.0034
vn 0.3698 0.2228 0.902
vn 0.6597 -0.029 0.751
vn 0.2329 0.294 0.927
vn -0.5139 -0.6561 0.5526
vn 0.7887 -0.6148 -0.0034
vn 0.7266 -0.4516 -0.5178
vn 0.6941 -0.6714 0.2596
vn -0.4798 -0.8721 -0.0962
vn -0.1372 0.1126 -0.9841
vn -0.4228 0.2208 -0.8789
vn 0.0382 -0.004 -0.9992
vn -0.3872 -0.905 -0.1762
vn -0.8187 0.479 0.3167
vn -0.4965 0.6893 0.5275
vn -0.9675 0.22 -0.1242
vn -0.4305 -0.6315 0.6448
vn -0.2257 0.6742 0.7032
vn -0.0564 0.5954 0.8014
vn 0.7652 -0.4657 0.4444
vn 0.4602 -0.3489 -0.8164
vn 0.3284 -0.3113 -0.8917
vn -0.7697 0.1684 -0.6157
vn 0.1428 -0.1076 -0.9839
vn 0.1914 -0.1778 -0.9653
vn 0.0457 0.5066 0.861
vn 0.0935 0.4408 0.8927
vn 0.1395 0.3725 0.9174
vn 0.2372 -0.2458 -0.9398
vt 0.839504 0.118056
vt 0.856743 0.205307
vt 0.741230 0.205307
vt 0.734555 0.106726
vt 0.724541 0.032791
vt 0.813647 0.052618
vt 0.868992 0.081539
vt 0.913398 0.129584
vt 0.940923 0.205307
vt 0.839504 0.292557
vt 0.813647 0.357995
vt 0.724541 0.377822
vt 0.734555 0.303887
vt 0.913398 0.281029
vt 0.868992 0.329074
vt 0.369475 0.299954
vt 0.368286 0.370940
vt 0.245840 0.351447
vt 0.246397 0.288815
vt 0.246768 0.205307
vt 0.370268 0.205307
vt 0.494283 0.205307
vt 0.492822 0.304944
vt 0.490632 0.379672
vt 0.369475 0.110659
vt 0.246397 0.121798
vt 0.245841 0.059166
vt 0.368286 0.039673
vt 0.490632 0.030941
vt 0.492822 0.105669
vt 0.616755 0.103478
vt 0.619174 0.205307
vt 0.613127 0.027106
vt 0.616755 0.307135
vt 0.613126 0.383507
vt 0.123273 0.268175
vt 0.123047 0.315326
vt 0.054743 0.283353
vt 0.030912 0.249131
vt 0.030973 0.205306
vt 0.123423 0.205306
vt 0.123273 0.142438
vt 0.030912 0.161481
vt 0.054744 0.127260
vt 0.123047 0.095287
vt 0.839504 0.118056
vt 0.856743 0.205307
vt 0.968983 0.205307
vt 0.938030 0.133427
vt 0.876123 0.061548
vt 0.805028 0.030806
vt 0.721203 0.008146
vt 0.734555 0.106726
vt 0.741230 0.205307
vt 0.839504 0.292557
vt 0.805028 0.379807
vt 0.876123 0.349065
vt 0.938030 0.277186
vt 0.734555 0.303887
vt 0.721203 0.402467
vt 0.369475 0.299954
vt 0.367890 0.394602
vt 0.489902 0.404581
vt 0.492822 0.304944
vt 0.494283 0.205307
vt 0.370268 0.205307
vt 0.246768 0.205307
vt 0.246397 0.288815
vt 0.245655 0.372324
vt 0.369475 0.110659
vt 0.492822 0.105669
vt 0.489902 0.006032
vt 0.367890 0.016011
vt 0.245655 0.038289
vt 0.246397 0.121798
vt 0.616755 0.103478
vt 0.619174 0.205307
vt 0.611917 0.001649
vt 0.616755 0.307135
vt 0.611917 0.408964
vt 0.123273 0.268175
vt 0.122972 0.331043
vt 0.123423 0.205306
vt 0.000156 0.205306
vt 0.000125 0.242784
vt 0.000064 0.280261
vt 0.123273 0.142438
vt 0.122972 0.079570
vt 0.000064 0.130352
vt 0.000125 0.167829
vt 0.122972 0.331043
vt 0.030806 0.283587
vt 0.245655 0.372324
vt 0.030806 0.283587
vt 0.000125 0.167829
vt 0.030806 0.127026
vt 0.000156 0.205306
vt 0.030806 0.127026
vt 0.805028 0.030806
vt 0.873826 0.071832
vt 0.721203 0.008146
vt 0.873826 0.071832
vt 0.938030 0.277186
vt 0.873826 0.338781
vt 0.968983 0.205307
vt 0.873826 0.338781
vt 0.805028 0.379807
vt 0.721203 0.402467
vt 0.000125 0.242784
vt 0.122972 0.079570
vt 0.245655 0.038289
vt 0.938030 0.133427
vt 0.611917 0.001649
vt 0.489902 0.006032
vt 0.611917 0.408964
vt 0.489902 0.404581
vt 0.367890 0.394602
vt 0.367890 0.016011
f 1/1/1 2/2/2 3/3/3
f 1/1/1 3/3/3 4/4/4
f 1/1/1 4/4/4 5/5/5
f 1/1/1 5/5/5 6/6/6
f 1/1/1 6/6/6 7/7/7
f 1/1/1 7/7/7 8/8/8
f 1/1/1 8/8/8 9/9/9
f 1/1/1 9/9/9 2/2/2
f 10/10/10 11/11/11 12/12/12
f 10/10/10 12/12/12 13/13/13
f 10/10/10 13/13/13 3/3/3
f 10/10/10 3/3/3 2/2/2
f 10/10/10 2/2/2 9/9/9
f 10/10/10 9/9/9 14/14/14
f 10/10/10 14/14/14 15/15/15
f 10/10/10 15/15/15 11/11/11
f 16/16/16 17/17/17 18/18/18
f 16/16/16 18/18/18 19/19/19
f 16/16/16 19/19/19 20/20/20
f 16/16/16 20/20/20 21/21/21
f 16/16/16 21/21/21 22/22/22
f 16/16/16 22/22/22 23/23/23
f 16/16/16 23/23/23 24/24/24
f 16/16/16 24/24/24 17/17/17
f 25/25/25 21/21/21 20/20/20
f 25/25/25 20/20/20 26/26/26
f 25/25/25 26/26/26 27/27/27
f 25/25/25 27/27/27 28/28/28
f 25/25/25 28/28/28 29/29/29
f 25/25/25 29/29/29 30/30/30
f 25/25/25 30/30/30 22/22/22
f 25/25/25 22/22/22 21/21/21
f 31/31/31 32/32/32 22/22/22
f 31/31/31 22/22/22 30/30/30
f 31/31/31 30/30/30 29/29/29
f 31/31/31 29/29/29 33/33/33
f 31/31/31 33/33/33 5/5/5
f 31/31/31 5/5/5 4/4/4
f 31/31/31 4/4/4 3/3/3
f 31/31/31 3/3/3 32/32/32
f 34/34/34 35/35/35 24/24/24
f 34/34/34 24/24/24 23/23/23
f 34/34/34 23/23/23 22/22/22
f 34/34/34 22/22/22 32/32/32
f 34/34/34 32/32/32 3/3/3
f 34/34/34 3/3/3 13/13/13
f 34/34/34 13/13/13 12/12/12
f 34/34/34 12/12/12 35/35/35
f 36/36/36 37/37/37 38/38/38
f 36/36/36 38/38/38 39/39/39
f 36/36/36 39/39/39 40/40/40
f 36/36/36 40/40/40 41/41/41
f 36/36/36 41/41/41 20/20/20
f 36/36/36 20/20/20 19/19/19
f 36/36/36 19/19/19 18/18/18
f 36/36/36 18/18/18 37/37/37
f 42/42/42 41/41/41 40/40/40
f 42/42/42 40/40/40 43/43/43
f 42/42/42 43/43/43 44/44/44
f 42/42/42 44/44/44 45/45/45
f 42/42/42 45/45/45 27/27/27
f 42/42/42 27/27/27 26/26/26
f 42/42/42 26/26/26 20/20/20
f 42/42/42 20/20/20 41/41/41
f 46/46/46 47/47/47 48/48/48
f 46/46/46 48/48/48 49/49/49
f 46/46/46 49/49/49 50/50/50
f 46/46/46 50/50/50 51/51/51
f 46/46/46 51/51/51 52/52/52
f 46/46/46 52/52/52 53/53/53
f 46/46/46 53/53/53 54/54/54
f 46/46/46 54/54/54 47/47/47
f 55/55/55 56/56/56 57/57/57
f 55/55/55 57/57/57 58/58/58
f 55/55/55 58/58/58 48/48/48
f 55/55/55 48/48/48 47/47/47
f 55/55/55 47/47/47 54/54/54
f 55/55/55 54/54/54 59/59/59
f 55/55/55 59/59/59 60/60/60
f 55/55/55 60/60/60 56/56/56
f 61/61/61 62/62/62 63/63/63
f 61/61/61 63/63/63 64/64/64
f 61/61/61 64/64/64 65/65/65
f 61/61/61 65/65/65 66/66/66
f 61/61/61 66/66/66 67/67/67
f 61/61/61 67/67/67 68/68/68
f 61/61/61 68/68/68 69/69/69
f 61/61/61 69/69/69 62/62/62
f 70/70/70 66/66/66 65/65/65
f 70/70/70 65/65/65 71/71/71
f 70/70/70 71/71/71 72/72/72
f 70/70/70 72/72/72 73/73/73
f 70/70/70 73/73/73 74/74/74
f 70/70/70 74/74/74 75/75/75
f 70/70/70 75/75/75 67/67/67
f 70/70/70 67/67/67 66/66/66
f 76/76/76 77/77/77 54/54/54
f 76/76/76 54/54/54 53/53/53
f 76/76/76 53/53/53 52/52/52
f 76/76/76 52/52/52 78/78/78
f 76/76/76 78/78/78 72/72/72
f 76/76/76 72/72/72 71/71/71
f 76/76/76 71/71/71 65/65/65
f 76/76/76 65/65/65 77/77/77
f 79/79/79 80/80/80 60/60/60
f 79/79/79 60/60/60 59/59/59
f 79/79/79 59/59/59 54/54/54
f 79/79/79 54/54/54 77/77/77
f 79/79/79 77/77/77 65/65/65
f 79/79/79 65/65/65 64/64/64
f 79/79/79 64/64/64 63/63/63
f 79/79/79 63/63/63 80/80/80
f 81/81/81 82/82/82 69/69/69
f 81/81/81 69/69/69 68/68/68
f 81/81/81 68/68/68 67/67/67
f 81/81/81 67/67/67 83/83/83
f 81/81/81 83/83/83 84/84/84
f 81/81/81 84/84/84 85/85/85
f 81/81/81 85/85/85 86/86/86
f 81/81/81 86/86/86 82/82/82
f 87/87/87 83/83/83 67/67/67
f 87/87/87 67/67/67 75/75/75
f 87/87/87 75/75/75 74/74/74
f 87/87/87 74/74/74 88/88/88
f 87/87/87 88/88/88 89/89/89
f 87/87/87 89/89/89 90/90/90
f 87/87/87 90/90/90 84/84/84
f 87/87/87 84/84/84 83/83/83
f 91/91/91 92/92/92 38/38/38
f 91/91/91 38/38/38 37/37/37
f 91/91/91 37/37/37 18/18/18
f 91/91/91 18/18/18 93/93/93
f 91/91/91 93/93/93 69/69/69
f 91/91/91 69/69/69 82/82/82
f 91/91/91 82/82/82 94/94/94
f 91/91/91 94/94/94 92/92/92
f 95/95/95 96/96/96 44/44/44
f 95/95/95 44/44/44 43/43/43
f 95/95/95 43/43/43 40/40/40
f 95/95/95 40/40/40 97/97/97
f 95/95/95 97/97/97 84/84/84
f 95/95/95 84/84/84 90/90/90
f 95/95/95 90/90/90 98/98/98
f 95/95/95 98/98/98 96/96/96
f 99/99/99 100/100/100 7/7/7
f 99/99/99 7/7/7 6/6/6
f 99/99/99 6/6/6 5/5/5
f 99/99/99 5/5/5 101/101/101
f 99/99/99 101/101/101 52/52/52
f 99/99/99 52/52/52 51/51/51
f 99/99/99 51/51/51 102/102/102
f 99/99/99 102/102/102 100/100/100
f 103/103/103 104/104/104 15/15/15
f 103/103/103 15/15/15 14/14/14
f 103/103/103 14/14/14 9/9/9
f 103/103/103 9/9/9 105/105/105
f 103/103/103 105/105/105 48/48/48
f 103/103/103 48/48/48 58/58/58
f 103/103/103 58/58/58 106/106/106
f 103/103/103 106/106/106 104/104/104
f 107/107/107 108/108/108 12/12/12
f 107/107/107 12/12/12 11/11/11
f 107/107/107 11/11/11 15/15/15
f 107/107/107 15/15/15 104/104/104
f 107/107/107 104/104/104 106/106/106
f 107/107/107 106/106/106 56/56/56
f 107/107/107 56/56/56 60/60/60
f 107/107/107 60/60/60 108/108/108
f 109/109/109 97/97/97 40/40/40
f 109/109/109 40/40/40 39/39/39
f 109/109/109 39/39/39 38/38/38
f 109/109/109 38/38/38 92/92/92
f 109/109/109 92/92/92 94/94/94
f 109/109/109 94/94/94 85/85/85
f 109/109/109 85/85/85 84/84/84
f 109/109/109 84/84/84 97/97/97
f 110/110/110 111/111/111 27/27/27
f 110/110/110 27/27/27 45/45/45
f 110/110/110 45/45/45 44/44/44
f 110/110/110 44/44/44 96/96/96
f 110/110/110 96/96/96 98/98/98
f 110/110/110 98/98/98 88/88/88
f 110/110/110 88/88/88 74/74/74
f 110/110/110 74/74/74 111/111/111
f 112/112/112 105/105/105 9/9/9
f 112/112/112 9/9/9 8/8/8
f 112/112/112 8/8/8 7/7/7
f 112/112/112 7/7/7 100/100/100
f 112/112/112 100/100/100 102/102/102
f 112/112/112 102/102/102 49/49/49
f 112/112/112 49/49/49 48/48/48
f 112/112/112 48/48/48 105/105/105
f 113/113/113 101/101/101 5/5/5
f 113/113/113 5/5/5 33/33/33
f 113/113/113 33/33/33 29/29/29
f 113/113/113 29/29/29 114/114/114
f 113/113/113 114/114/114 72/72/72
f 113/113/113 72/72/72 78/78/78
f 113/113/113 78/78/78 52/52/52
f 113/113/113 52/52/52 101/101/101
f 115/115/115 116/116/116 24/24/24
f 115/115/115 24/24/24 35/35/35
f 115/115/115 35/35/35 12/12/12
f 115/115/115 12/12/12 108/108/108
f 115/115/115 108/108/108 60/60/60
f 115/115/115 60/60/60 80/80/80
f 115/115/115 80/80/80 63/63/63
f 115/115/115 63/63/63 116/116/116
f 117/117/117 93/93/93 18/18/18
f 117/117/117 18/18/18 17/17/17
f 117/117/117 17/17/17 24/24/24
f 117/117/117 24/24/24 116/116/116
f 117/117/117 116/116/116 63/63/63
f 117/117/117 63/63/63 62/62/62
f 117/117/117 62/62/62 69/69/69
f 117/117/117 69/69/69 93/93/93
f 118/118/118 114/114/114 29/29/29
f 118/118/118 29/29/29 28/28/28
f 118/118/118 28/28/28 27/27/27
f 118/118/118 27/27/27 111/111/111
f 118/118/118 111/111/111 74/74/74
f 118/118/118 74/74/74 73/73/73
f 118/118/118 73/73/73 72/72/72
f 118/118/118 72/72/72 114/114/114
