v -2.41617 0.679253 -1.062513
v -2.41367 0.679558 -1.061553
v -2.413035 0.67844 -1.064902
v -2.415936 0.678147 -1.065598
v -2.418128 0.678113 -1.066365
v -2.418022 0.679148 -1.063709
v -2.417446 0.679622 -1.061894
v -2.416219 0.679923 -1.060267
v -2.414117 0.680262 -1.059056
v -2.411097 0.680283 -1.061895
v -2.409125 0.680954 -1.062626
v -2.40802 0.680164 -1.065135
v -2.410169 0.679317 -1.064896
v -2.411828 0.680815 -1.059732
v -2.41024 0.681084 -1.061016
v -2.40798 0.674027 -1.074563
v -2.405877 0.674679 -1.074493
v -2.405623 0.67226 -1.077502
v -2.407483 0.671672 -1.077551
v -2.409966 0.671009 -1.077721
v -2.410788 0.673288 -1.074768
v -2.411583 0.675346 -1.071669
v -2.408649 0.676142 -1.071468
v -2.406453 0.676858 -1.071417
v -2.41363 0.672881 -1.075251
v -2.412479 0.670658 -1.078159
v -2.414379 0.670483 -1.078568
v -2.415776 0.67267 -1.075698
v -2.416809 0.674757 -1.072678
v -2.414559 0.674943 -1.072188
v -2.415363 0.676704 -1.068897
v -2.412336 0.67705 -1.068328
v -2.417658 0.67661 -1.069461
v -2.409366 0.677921 -1.068166
v -2.407148 0.678743 -1.068181
v -2.407282 0.669172 -1.080532
v -2.405896 0.669658 -1.080537
v -2.406392 0.66804 -1.082187
v -2.407235 0.667216 -1.082742
v -2.408498 0.666805 -1.082766
v -2.409132 0.668642 -1.080627
v -2.411011 0.668415 -1.080986
v -2.409791 0.666697 -1.083053
v -2.41099 0.667107 -1.082747
v -2.412435 0.668331 -1.081333
v -2.416169 0.678989 -1.062413
v -2.41363 0.6793 -1.061448
v -2.414087 0.680067 -1.058982
v -2.41622 0.679725 -1.060197
v -2.417455 0.679474 -1.061841
v -2.418041 0.678949 -1.063637
v -2.418142 0.677917 -1.066285
v -2.415932 0.677887 -1.065487
v -2.412997 0.678185 -1.064787
v -2.411019 0.680035 -1.061786
v -2.409048 0.680775 -1.062542
v -2.410188 0.680949 -1.060957
v -2.411767 0.680628 -1.059654
v -2.410098 0.679071 -1.064777
v -2.40795 0.679986 -1.065043
v -2.407929 0.673803 -1.074399
v -2.405826 0.674514 -1.074369
v -2.406398 0.676688 -1.071303
v -2.408592 0.67591 -1.071317
v -2.411553 0.675107 -1.071521
v -2.410761 0.673058 -1.074606
v -2.409941 0.670785 -1.07755
v -2.407434 0.671454 -1.077377
v -2.405574 0.6721 -1.077371
v -2.413627 0.672646 -1.075092
v -2.414554 0.6747 -1.072043
v -2.416818 0.674573 -1.072572
v -2.415787 0.672492 -1.075582
v -2.414392 0.67031 -1.078444
v -2.412479 0.67043 -1.077992
v -2.415358 0.676452 -1.068769
v -2.412302 0.676802 -1.068196
v -2.417669 0.67642 -1.069368
v -2.409302 0.677681 -1.068032
v -2.407086 0.678568 -1.068079
v -2.407232 0.668957 -1.080354
v -2.405846 0.669501 -1.080403
v -2.409108 0.66842 -1.080452
v -2.408481 0.666639 -1.082635
v -2.407197 0.667055 -1.082609
v -2.406358 0.667922 -1.082088
v -2.411013 0.668189 -1.080815
v -2.41245 0.66816 -1.081207
v -2.410997 0.666981 -1.082653
v -2.409794 0.666528 -1.082925
v -2.405409 0.669751 -1.080479
v -2.406224 0.66757 -1.08275
v -2.404979 0.672386 -1.077427
v -2.406358 0.667922 -1.082088
v -2.409385 0.666049 -1.083686
v -2.41083 0.666635 -1.083311
v -2.408279 0.666119 -1.083421
v -2.410997 0.666981 -1.082653
v -2.418652 0.679025 -1.064077
v -2.417777 0.679661 -1.061804
v -2.418869 0.678014 -1.066586
v -2.417455 0.679474 -1.061841
v -2.412045 0.680909 -1.058977
v -2.409981 0.681243 -1.060854
v -2.414252 0.68041 -1.058192
v -2.410188 0.680949 -1.060957
v -2.408429 0.6811 -1.062832
v -2.407269 0.680368 -1.065173
v -2.407203 0.666493 -1.08342
v -2.41292 0.668227 -1.081393
v -2.415021 0.670348 -1.07865
v -2.416236 0.680058 -1.059488
v -2.418431 0.676494 -1.069608
v -2.417566 0.674613 -1.072795
v -2.406379 0.67894 -1.068141
v -2.405694 0.677022 -1.071349
v -2.405151 0.674824 -1.074414
v -2.416499 0.67252 -1.075796
vn 0.0673 0.9492 -0.3074
vn -0.1506 0.935 -0.3211
vn -0.14 0.9156 -0.3768
vn 0.0551 0.9286 -0.367
vn 0.0505 0.9187 -0.3916
vn 0.0595 0.9491 -0.3093
vn 0.0646 0.9662 -0.2496
vn 0.0117 0.9738 -0.2268
vn -0.1663 0.9584 -0.232
vn -0.3541 0.8636 -0.3587
vn -0.3466 0.8667 -0.3587
vn -0.308 0.846 -0.4352
vn -0.3216 0.8521 -0.4129
vn -0.3325 0.904 -0.2688
vn -0.3716 0.8776 -0.3027
vn -0.1947 0.7721 -0.6049
vn -0.1572 0.7772 -0.6092
vn -0.1474 0.759 -0.6342
vn -0.1953 0.7505 -0.6314
vn -0.0802 0.7728 -0.6295
vn -0.0893 0.7978 -0.5962
vn -0.1071 0.8436 -0.5261
vn -0.2234 0.8093 -0.5433
vn -0.1937 0.8082 -0.5561
vn 0.0168 0.815 -0.5791
vn 0.0317 0.7966 -0.6037
vn -0.0136 0.7861 -0.6178
vn -0.0177 0.8056 -0.5922
vn -0.0092 0.8456 -0.5337
vn 0.0139 0.8574 -0.5144
vn 0.0283 0.9001 -0.4348
vn -0.1259 0.887 -0.4443
vn 0.0169 0.8871 -0.4611
vn -0.2709 0.8393 -0.4713
vn -0.2498 0.833 -0.4935
vn -0.2167 0.7343 -0.6433
vn -0.1649 0.7414 -0.6504
vn -0.1919 0.722 -0.6647
vn -0.2252 0.6918 -0.686
vn -0.0634 0.7243 -0.6865
vn -0.0758 0.7605 -0.6448
vn 0.0599 0.7904 -0.6096
vn 0.0935 0.7565 -0.6472
vn 0.0472 0.7706 -0.6356
vn 0.0124 0.7774 -0.6288
vn -0.0989 -0.9409 0.3238
vn 0.1477 -0.93 0.3366
vn 0.1362 -0.9083 0.3955
vn -0.1933 -0.9098 0.3673
vn -0.311 -0.8784 0.3627
vn -0.286 -0.8878 0.3603
vn -0.2186 -0.8991 0.3792
vn -0.0704 -0.9281 0.3656
vn 0.14 -0.9157 0.3767
vn 0.3754 -0.8446 0.3816
vn 0.5138 -0.7256 0.4576
vn 0.532 -0.7074 0.4653
vn 0.4377 -0.7817 0.4441
vn 0.3354 -0.8457 0.415
vn 0.4536 -0.7627 0.461
vn 0.2105 -0.7681 0.6047
vn 0.3186 -0.7356 0.5978
vn 0.3403 -0.7597 0.5541
vn 0.2378 -0.8049 0.5437
vn 0.1071 -0.8435 0.5263
vn 0.0893 -0.7977 0.5964
vn 0.0801 -0.7727 0.6296
vn 0.214 -0.747 0.6294
vn 0.3411 -0.7246 0.5988
vn -0.0324 -0.8174 0.5751
vn -0.0286 -0.8589 0.5112
vn -0.14 -0.8571 0.4957
vn -0.1399 -0.8286 0.542
vn -0.1645 -0.8272 0.5372
vn -0.0493 -0.8004 0.5973
vn -0.0426 -0.9008 0.4322
vn 0.1259 -0.887 0.4443
vn -0.1669 -0.887 0.4305
vn 0.2847 -0.8343 0.4721
vn 0.3909 -0.7738 0.4984
vn 0.2454 -0.7382 0.6284
vn 0.398 -0.721 0.5671
vn 0.0784 -0.768 0.6355
vn 0.0899 -0.7996 0.5938
vn 0.3287 -0.7526 0.5705
vn 0.4322 -0.7207 0.542
vn -0.0806 -0.8043 0.5887
vn -0.2094 -0.8444 0.4931
vn -0.2342 -0.856 0.4609
vn -0.1362 -0.8469 0.514
vn 0.9457 0.1131 -0.3046
vn 0.7859 -0.1172 -0.6072
vn 0.9697 0.1798 -0.1654
vn 0.4322 -0.7207 0.542
vn -0.0229 -0.6063 -0.7949
vn -0.5177 -0.3816 -0.7657
vn 0.2242 -0.6947 -0.6834
vn -0.2342 -0.856 0.4609
vn -0.9703 0.231 0.071
vn -0.8727 0.3245 0.3647
vn -0.9873 0.1178 -0.1065
vn -0.311 -0.8784 0.3627
vn 0.3145 0.4331 0.8447
vn 0.5717 0.6174 0.5403
vn -0.1633 0.2294 0.9595
vn 0.532 -0.7074 0.4653
vn 0.7624 0.5825 0.2818
vn 0.8618 0.4931 0.1186
vn 0.4368 -0.513 -0.7389
vn -0.8185 -0.2451 -0.5195
vn -0.8977 -0.1992 -0.3929
vn -0.6424 0.2389 0.7282
vn -0.9774 0.0136 -0.2109
vn -0.9642 -0.058 -0.2588
vn 0.9171 0.3982 0.0199
vn 0.9439 0.3292 -0.0266
vn 0.9634 0.2583 -0.0719
vn -0.9439 -0.1286 -0.3041
vt 0.839504 0.118056
vt 0.856743 0.205307
vt 0.741230 0.205307
vt 0.734555 0.106726
vt 0.724541 0.032791
vt 0.813647 0.052618
vt 0.868992 0.081539
vt 0.913398 0.129584
vt 0.940923 0.205307
vt 0.839504 0.292557
vt 0.813647 0.357995
vt 0.724541 0.377822
vt 0.734555 0.303887
vt 0.913398 0.281029
vt 0.868992 0.329074
vt 0.369475 0.299954
vt 0.368286 0.370940
vt 0.245840 0.351447
vt 0.246397 0.288815
vt 0.246768 0.205307
vt 0.370268 0.205307
vt 0.494283 0.205307
vt 0.492822 0.304944
vt 0.490632 0.379672
vt 0.369475 0.110659
vt 0.246397 0.121798
vt 0.245841 0.059166
vt 0.368286 0.039673
vt 0.490632 0.030941
vt 0.492822 0.105669
vt 0.616755 0.103478
vt 0.619174 0.205307
vt 0.613127 0.027106
vt 0.616755 0.307135
vt 0.613126 0.383507
vt 0.123273 0.268175
vt 0.123047 0.315326
vt 0.054743 0.283353
vt 0.030912 0.249131
vt 0.030973 0.205306
vt 0.123423 0.205306
vt 0.123273 0.142438
vt 0.030912 0.161481
vt 0.054744 0.127260
vt 0.123047 0.095287
vt 0.839504 0.118056
vt 0.856743 0.205307
vt 0.968983 0.205307
vt 0.938030 0.133427
vt 0.876123 0.061548
vt 0.805028 0.030806
vt 0.721203 0.008146
vt 0.734555 0.106726
vt 0.741230 0.205307
vt 0.839504 0.292557
vt 0.805028 0.379807
vt 0.876123 0.349065
vt 0.938030 0.277186
vt 0.734555 0.303887
vt 0.721203 0.402467
vt 0.369475 0.299954
vt 0.367890 0.394602
vt 0.489902 0.404581
vt 0.492822 0.304944
vt 0.494283 0.205307
vt 0.370268 0.205307
vt 0.246768 0.205307
vt 0.246397 0.288815
vt 0.245655 0.372324
vt 0.369475 0.110659
vt 0.492822 0.105669
vt 0.489902 0.006032
vt 0.367890 0.016011
vt 0.245655 0.038289
vt 0.246397 0.121798
vt 0.616755 0.103478
vt 0.619174 0.205307
vt 0.611917 0.001649
vt 0.616755 0.307135
vt 0.611917 0.408964
vt 0.123273 0.268175
vt 0.122972 0.331043
vt 0.123423 0.205306
vt 0.000156 0.205306
vt 0.000125 0.242784
vt 0.000064 0.280261
vt 0.123273 0.142438
vt 0.122972 0.079570
vt 0.000064 0.130352
vt 0.000125 0.167829
vt 0.122972 0.331043
vt 0.030806 0.283587
vt 0.245655 0.372324
vt 0.030806 0.283587
vt 0.000125 0.167829
vt 0.030806 0.127026
vt 0.000156 0.205306
vt 0.030806 0.127026
vt 0.805028 0.030806
vt 0.873826 0.071832
vt 0.721203 0.008146
vt 0.873826 0.071832
vt 0.938030 0.277186
vt 0.873826 0.338781
vt 0.968983 0.205307
vt 0.873826 0.338781
vt 0.805028 0.379807
vt 0.721203 0.402467
vt 0.000125 0.242784
vt 0.122972 0.079570
vt 0.245655 0.038289
vt 0.938030 0.133427
vt 0.611917 0.001649
vt 0.489902 0.006032
vt 0.611917 0.408964
vt 0.489902 0.404581
vt 0.367890 0.394602
vt 0.367890 0.016011
f 1/1/1 2/2/2 3/3/3
f 1/1/1 3/3/3 4/4/4
f 1/1/1 4/4/4 5/5/5
f 1/1/1 5/5/5 6/6/6
f 1/1/1 6/6/6 7/7/7
f 1/1/1 7/7/7 8/8/8
f 1/1/1 8/8/8 9/9/9
f 1/1/1 9/9/9 2/2/2
f 10/10/10 11/11/11 12/12/12
f 10/10/10 12/12/12 13/13/13
f 10/10/10 13/13/13 3/3/3
f 10/10/10 3/3/3 2/2/2
f 10/10/10 2/2/2 9/9/9
f 10/10/10 9/9/9 14/14/14
f 10/10/10 14/14/14 15/15/15
f 10/10/10 15/15/15 11/11/11
f 16/16/16 17/17/17 18/18/18
f 16/16/16 18/18/18 19/19/19
f 16/16/16 19/19/19 20/20/20
f 16/16/16 20/20/20 21/21/21
f 16/16/16 21/21/21 22/22/22
f 16/16/16 22/22/22 23/23/23
f 16/16/16 23/23/23 24/24/24
f 16/16/16 24/24/24 17/17/17
f 25/25/25 21/21/21 20/20/20
f 25/25/25 20/20/20 26/26/26
f 25/25/25 26/26/26 27/27/27
f 25/25/25 27/27/27 28/28/28
f 25/25/25 28/28/28 29/29/29
f 25/25/25 29/29/29 30/30/30
f 25/25/25 30/30/30 22/22/22
f 25/25/25 22/22/22 21/21/21
f 31/31/31 32/32/32 22/22/22
f 31/31/31 22/22/22 30/30/30
f 31/31/31 30/30/30 29/29/29
f 31/31/31 29/29/29 33/33/33
f 31/31/31 33/33/33 5/5/5
f 31/31/31 5/5/5 4/4/4
f 31/31/31 4/4/4 3/3/3
f 31/31/31 3/3/3 32/32/32
f 34/34/34 35/35/35 24/24/24
f 34/34/34 24/24/24 23/23/23
f 34/34/34 23/23/23 22/22/22
f 34/34/34 22/22/22 32/32/32
f 34/34/34 32/32/32 3/3/3
f 34/34/34 3/3/3 13/13/13
f 34/34/34 13/13/13 12/12/12
f 34/34/34 12/12/12 35/35/35
f 36/36/36 37/37/37 38/38/38
f 36/36/36 38/38/38 39/39/39
f 36/36/36 39/39/39 40/40/40
f 36/36/36 40/40/40 41/41/41
f 36/36/36 41/41/41 20/20/20
f 36/36/36 20/20/20 19/19/19
f 36/36/36 19/19/19 18/18/18
f 36/36/36 18/18/18 37/37/37
f 42/42/42 41/41/41 40/40/40
f 42/42/42 40/40/40 43/43/43
f 42/42/42 43/43/43 44/44/44
f 42/42/42 44/44/44 45/45/45
f 42/42/42 45/45/45 27/27/27
f 42/42/42 27/27/27 26/26/26
f 42/42/42 26/26/26 20/20/20
f 42/42/42 20/20/20 41/41/41
f 46/46/46 47/47/47 48/48/48
f 46/46/46 48/48/48 49/49/49
f 46/46/46 49/49/49 50/50/50
f 46/46/46 50/50/50 51/51/51
f 46/46/46 51/51/51 52/52/52
f 46/46/46 52/52/52 53/53/53
f 46/46/46 53/53/53 54/54/54
f 46/46/46 54/54/54 47/47/47
f 55/55/55 56/56/56 57/57/57
f 55/55/55 57/57/57 58/58/58
f 55/55/55 58/58/58 48/48/48
f 55/55/55 48/48/48 47/47/47
f 55/55/55 47/47/47 54/54/54
f 55/55/55 54/54/54 59/59/59
f 55/55/55 59/59/59 60/60/60
f 55/55/55 60/60/60 56/56/56
f 61/61/61 62/62/62 63/63/63
f 61/61/61 63/63/63 64/64/64
f 61/61/61 64/64/64 65/65/65
f 61/61/61 65/65/65 66/66/66
f 61/61/61 66/66/66 67/67/67
f 61/61/61 67/67/67 68/68/68
f 61/61/61 68/68/68 69/69/69
f 61/61/61 69/69/69 62/62/62
f 70/70/70 66/66/66 65/65/65
f 70/70/70 65/65/65 71/71/71
f 70/70/70 71/71/71 72/72/72
f 70/70/70 72/72/72 73/73/73
f 70/70/70 73/73/73 74/74/74
f 70/70/70 74/74/74 75/75/75
f 70/70/70 75/75/75 67/67/67
f 70/70/70 67/67/67 66/66/66
f 76/76/76 77/77/77 54/54/54
f 76/76/76 54/54/54 53/53/53
f 76/76/76 53/53/53 52/52/52
f 76/76/76 52/52/52 78/78/78
f 76/76/76 78/78/78 72/72/72
f 76/76/76 72/72/72 71/71/71
f 76/76/76 71/71/71 65/65/65
f 76/76/76 65/65/65 77/77/77
f 79/79/79 80/80/80 60/60/60
f 79/79/79 60/60/60 59/59/59
f 79/79/79 59/59/59 54/54/54
f 79/79/79 54/54/54 77/77/77
f 79/79/79 77/77/77 65/65/65
f 79/79/79 65/65/65 64/64/64
f 79/79/79 64/64/64 63/63/63
f 79/79/79 63/63/63 80/80/80
f 81/81/81 82/82/82 69/69/69
f 81/81/81 69/69/69 68/68/68
f 81/81/81 68/68/68 67/67/67
f 81/81/81 67/67/67 83/83/83
f 81/81/81 83/83/83 84/84/84
f 81/81/81 84/84/84 85/85/85
f 81/81/81 85/85/85 86/86/86
f 81/81/81 86/86/86 82/82/82
f 87/87/87 83/83/83 67/67/67
f 87/87/87 67/67/67 75/75/75
f 87/87/87 75/75/75 74/74/74
f 87/87/87 74/74/74 88/88/88
f 87/87/87 88/88/88 89/89/89
f 87/87/87 89/89/89 90/90/90
f 87/87/87 90/90/90 84/84/84
f 87/87/87 84/84/84 83/83/83
f 91/91/91 92/92/92 38/38/38
f 91/91/91 38/38/38 37/37/37
f 91/91/91 37/37/37 18/18/18
f 91/91/91 18/18/18 93/93/93
f 91/91/91 93/93/93 69/69/69
f 91/91/91 69/69/69 82/82/82
f 91/91/91 82/82/82 94/94/94
f 91/91/91 94/94/94 92/92/92
f 95/95/95 96/96/96 44/44/44
f 95/95/95 44/44/44 43/43/43
f 95/95/95 43/43/43 40/40/40
f 95/95/95 40/40/40 97/97/97
f 95/95/95 97/97/97 84/84/84
f 95/95/95 84/84/84 90/90/90
f 95/95/95 90/90/90 98/98/98
f 95/95/95 98/98/98 96/96/96
f 99/99/99 100/100/100 7/7/7
f 99/99/99 7/7/7 6/6/6
f 99/99/99 6/6/6 5/5/5
f 99/99/99 5/5/5 101/101/101
f 99/99/99 101/101/101 52/52/52
f 99/99/99 52/52/52 51/51/51
f 99/99/99 51/51/51 102/102/102
f 99/99/99 102/102/102 100/100/100
f 103/103/103 104/104/104 15/15/15
f 103/103/103 15/15/15 14/14/14
f 103/103/103 14/14/14 9/9/9
f 103/103/103 9/9/9 105/105/105
f 103/103/103 105/105/105 48/48/48
f 103/103/103 48/48/48 58/58/58
f 103/103/103 58/58/58 106/106/106
f 103/103/103 106/106/106 104/104/104
f 107/107/107 108/108/108 12/12/12
f 107/107/107 12/12/12 11/11/11
f 107/107/107 11/11/11 15/15/15
f 107/107/107 15/15/15 104/104/104
f 107/107/107 104/104/104 106/106/106
f 107/107/107 106/106/106 56/56/56
f 107/107/107 56/56/56 60/60/60
f 107/107/107 60/60/60 108/108/108
f 109/109/109 97/97/97 40/40/40
f 109/109/109 40/40/40 39/39/39
f 109/109/109 39/39/39 38/38/38
f 109/109/109 38/38/38 92/92/92
f 109/109/109 92/92/92 94/94/94
f 109/109/109 94/94/94 85/85/85
f 109/109/109 85/85/85 84/84/84
f 109/109/109 84/84/84 97/97/97
f 110/110/110 111/111/111 27/27/27
f 110/110/110 27/27/27 45/45/45
f 110/110/110 45/45/45 44/44/44
f 110/110/110 44/44/44 96/96/96
f 110/110/110 96/96/96 98/98/98
f 110/110/110 98/98/98 88/88/88
f 110/110/110 88/88/88 74/74/74
f 110/110/110 74/74/74 111/111/111
f 112/112/112 105/105/105 9/9/9
f 112/112/112 9/9/9 8/8/8
f 112/112/112 8/8/8 7/7/7
f 112/112/112 7/7/7 100/100/100
f 112/112/112 100/100/100 102/102/102
f 112/112/112 102/102/102 49/49/49
f 112/112/112 49/49/49 48/48/48
f 112/112/112 48/48/48 105/105/105
f 113/113/113 101/101/101 5/5/5
f 113/113/113 5/5/5 33/33/33
f 113/113/113 33/33/33 29/29/29
f 113/113/113 29/29/29 114/114/114
f 113/113/113 114/114/114 72/72/72
f 113/113/113 72/72/72 78/78/78
f 113/113/113 78/78/78 52/52/52
f 113/113/113 52/52/52 101/101/101
f 115/115/115 116/116/116 24/24/24
f 115/115/115 24/24/24 35/35/35
f 115/115/115 35/35/35 12/12/12
f 115/115/115 12/12/12 108/108/108
f 115/115/115 108/108/108 60/60/60
f 115/115/115 60/60/60 80/80/80
f 115/115/115 80/80/80 63/63/63
f 115/115/115 63/63/63 116/116/116
f 117/117/117 93/93/93 18/18/18
f 117/117/117 18/18/18 17/17/17
f 117/117/117 17/17/17 24/24/24
f 117/117/117 24/24/24 116/116/116
f 117/117/117 116/116/116 63/63/63
f 117/117/117 63/63/63 62/62/62
f 117/117/117 62/62/62 69/69/69
f 117/117/117 69/69/69 93/93/93
f 118/118/118 114/114/114 29/29/29
f 118/118/118 29/29/29 28/28/28
f 118/118/118 28/28/28 27/27/27
f 118/118/118 27/27/27 111/111/111
f 118/118/118 111/111/111 74/74/74
f 118/118/118 74/74/74 73/73/73
f 118/118/118 73/73/73 72/72/72
f 118/118/118 72/72/72 114/114/114
