v -2.427125 0.672492 -1.078316
v -2.426866 0.671535 -1.076183
v -2.424144 0.670801 -1.077546
v -2.424762 0.67191 -1.079833
v -2.425022 0.672917 -1.081573
v -2.426928 0.673348 -1.080031
v -2.42806 0.673249 -1.078749
v -2.428812 0.672762 -1.077191
v -2.428898 0.671973 -1.075206
v -2.425525 0.671007 -1.074323
v -2.424123 0.670743 -1.073029
v -2.421835 0.669958 -1.073619
v -2.422944 0.670223 -1.075296
v -2.427428 0.671477 -1.073735
v -2.425789 0.67114 -1.073079
v -2.415169 0.666404 -1.07989
v -2.414339 0.665978 -1.078209
v -2.412167 0.664395 -1.080253
v -2.412913 0.664761 -1.081739
v -2.413815 0.665354 -1.083711
v -2.416179 0.667084 -1.08212
v -2.418669 0.66862 -1.080551
v -2.417601 0.667929 -1.078216
v -2.416713 0.667514 -1.076454
v -2.416951 0.668058 -1.084336
v -2.414488 0.666224 -1.085671
v -2.414927 0.666958 -1.087143
v -2.41746 0.668876 -1.085999
v -2.419977 0.670545 -1.084603
v -2.419465 0.669659 -1.082866
v -2.422138 0.670954 -1.081357
v -2.421368 0.669844 -1.079015
v -2.422602 0.671937 -1.083112
v -2.420248 0.669199 -1.076639
v -2.419288 0.668861 -1.074843
v -2.410792 0.663136 -1.083841
v -2.410199 0.662904 -1.082729
v -2.409285 0.662091 -1.08439
v -2.40927 0.661899 -1.085511
v -2.409785 0.662138 -1.086522
v -2.411492 0.663546 -1.085313
v -2.411968 0.664228 -1.086775
v -2.410075 0.662647 -1.087522
v -2.410734 0.663436 -1.088008
v -2.41226 0.664818 -1.087874
v -2.42723 0.672283 -1.07839
v -2.426959 0.671312 -1.076228
v -2.428965 0.671805 -1.075242
v -2.428888 0.672605 -1.07725
v -2.42812 0.673136 -1.078798
v -2.427012 0.673198 -1.080101
v -2.425111 0.672767 -1.081636
v -2.424874 0.671702 -1.0799
v -2.424246 0.670581 -1.077587
v -2.425606 0.670776 -1.074338
v -2.424177 0.670566 -1.073025
v -2.425829 0.671009 -1.07308
v -2.427484 0.671302 -1.073746
v -2.423035 0.669994 -1.07531
v -2.421898 0.669784 -1.073616
v -2.415301 0.666195 -1.07989
v -2.414433 0.665819 -1.0782
v -2.416798 0.667349 -1.076448
v -2.417721 0.667713 -1.078221
v -2.418797 0.66841 -1.080577
v -2.416319 0.666881 -1.08214
v -2.413962 0.665155 -1.083726
v -2.413052 0.664557 -1.081735
v -2.412266 0.664239 -1.08024
v -2.417098 0.667863 -1.084374
v -2.419601 0.669458 -1.082913
v -2.420083 0.670399 -1.084648
v -2.417573 0.668734 -1.086038
v -2.415046 0.666819 -1.087178
v -2.414642 0.666033 -1.085705
v -2.422262 0.670749 -1.081414
v -2.421483 0.669629 -1.079049
v -2.422699 0.671789 -1.083166
v -2.420353 0.668977 -1.076649
v -2.419362 0.668691 -1.074839
v -2.410933 0.662933 -1.083833
v -2.4103 0.662749 -1.082713
v -2.411642 0.66335 -1.085327
v -2.409897 0.66199 -1.086531
v -2.409375 0.661746 -1.085504
v -2.409361 0.661976 -1.084381
v -2.412125 0.66404 -1.086809
v -2.412382 0.664682 -1.08791
v -2.410823 0.663334 -1.088031
v -2.410194 0.662506 -1.087548
v -2.410045 0.662757 -1.082349
v -2.408834 0.661729 -1.084701
v -2.411962 0.664203 -1.07975
v -2.409361 0.661976 -1.084381
v -2.409497 0.662057 -1.087782
v -2.410286 0.663077 -1.088325
v -2.409266 0.661603 -1.086928
v -2.410823 0.663334 -1.088031
v -2.426901 0.673568 -1.080637
v -2.428254 0.673411 -1.078913
v -2.425149 0.673187 -1.082184
v -2.42812 0.673136 -1.078798
v -2.428086 0.671556 -1.073544
v -2.425796 0.671129 -1.072778
v -2.429604 0.672044 -1.074896
v -2.425829 0.671009 -1.07308
v -2.423678 0.670576 -1.072592
v -2.421492 0.669792 -1.073056
v -2.408809 0.661418 -1.086064
v -2.412412 0.664955 -1.088259
v -2.415128 0.667142 -1.087651
v -2.429408 0.672783 -1.076843
v -2.4228 0.6722 -1.083724
v -2.420196 0.670776 -1.085204
v -2.419 0.668672 -1.074239
v -2.416453 0.667302 -1.075862
v -2.414103 0.665765 -1.077643
v -2.41768 0.669086 -1.086573
vn 0.4182 0.8226 0.3852
vn 0.3317 0.9199 0.2092
vn 0.3836 0.9052 0.183
vn 0.4632 0.8186 0.3395
vn 0.4817 0.8156 0.3204
vn 0.4162 0.8267 0.3784
vn 0.3677 0.8311 0.4171
vn 0.325 0.8608 0.3916
vn 0.2485 0.9362 0.2486
vn 0.2659 0.964 0.0052
vn 0.2696 0.9629 0.0123
vn 0.3522 0.9359 -0.0029
vn 0.3271 0.9449 -0.0002
vn 0.2006 0.9763 0.0812
vn 0.2102 0.9774 0.024
vn 0.5441 0.8384 -0.03
vn 0.5652 0.8249 -0.0013
vn 0.5895 0.8076 -0.0141
vn 0.5648 0.8235 -0.0528
vn 0.617 0.7856 0.045
vn 0.5864 0.8073 0.0653
vn 0.5219 0.8464 0.1057
vn 0.4812 0.8766 -0.0057
vn 0.5057 0.8626 0.0101
vn 0.6206 0.7675 0.1607
vn 0.6467 0.7474 0.1517
vn 0.6378 0.7627 0.1065
vn 0.6156 0.7781 0.1245
vn 0.5724 0.8007 0.1765
vn 0.567 0.797 0.2082
vn 0.5079 0.8162 0.2752
vn 0.4462 0.8823 0.1494
vn 0.5246 0.8141 0.2488
vn 0.3999 0.9165 0.0055
vn 0.4283 0.9036 0.0082
vn 0.5638 0.8218 -0.0822
vn 0.5939 0.8034 -0.0431
vn 0.5922 0.8019 -0.0792
vn 0.5928 0.795 -0.1285
vn 0.6691 0.7431 0.0083
vn 0.631 0.7749 0.0354
vn 0.6637 0.729 0.1672
vn 0.7081 0.688 0.1589
vn 0.6788 0.7215 0.1365
vn 0.6581 0.7438 0.1169
vn -0.4458 -0.802 -0.3974
vn -0.3461 -0.9162 -0.2021
vn -0.4008 -0.8995 -0.174
vn -0.5226 -0.7343 -0.4333
vn -0.567 -0.6486 -0.5077
vn -0.5549 -0.6687 -0.4948
vn -0.5431 -0.714 -0.4418
vn -0.4686 -0.8105 -0.3513
vn -0.3834 -0.9052 -0.1831
vn -0.2745 -0.9611 0.0302
vn -0.2659 -0.937 0.2263
vn -0.2624 -0.9314 0.2524
vn -0.2946 -0.9459 0.1357
vn -0.322 -0.9466 0.0146
vn -0.3002 -0.9396 0.1645
vn -0.5364 -0.8428 0.0437
vn -0.4784 -0.8673 0.1375
vn -0.4328 -0.8931 0.1225
vn -0.4747 -0.8799 0.0189
vn -0.522 -0.8464 -0.1057
vn -0.5866 -0.8072 -0.0652
vn -0.6171 -0.7855 -0.0449
vn -0.5543 -0.8295 0.0677
vn -0.4678 -0.8692 0.1603
vn -0.6242 -0.7613 -0.1753
vn -0.5709 -0.7906 -0.2213
vn -0.6064 -0.732 -0.3106
vn -0.644 -0.7135 -0.2759
vn -0.6505 -0.6995 -0.2956
vn -0.6494 -0.7412 -0.1697
vn -0.5121 -0.8094 -0.2875
vn -0.4462 -0.8824 -0.1494
vn -0.5641 -0.7359 -0.3744
vn -0.3938 -0.9191 0.0076
vn -0.3626 -0.923 0.1286
vn -0.5383 -0.8374 0.0951
vn -0.4139 -0.8902 0.1904
vn -0.6226 -0.7815 -0.0412
vn -0.5842 -0.8089 -0.0667
vn -0.4517 -0.8834 0.1246
vn -0.3764 -0.9035 0.2049
vn -0.6561 -0.728 -0.1988
vn -0.6334 -0.6865 -0.3572
vn -0.6171 -0.68 -0.3958
vn -0.6197 -0.7275 -0.2945
vn 0.7046 -0.3304 0.6279
vn 0.8741 -0.4102 0.2602
vn 0.5999 -0.303 0.7405
vn -0.3764 -0.9035 0.2049
vn 0.6216 -0.407 -0.6692
vn 0.4035 0.0261 -0.9146
vn 0.6218 -0.6194 -0.4792
vn -0.6171 -0.68 -0.3958
vn -0.4664 0.6688 -0.579
vn -0.6721 0.6628 -0.3301
vn -0.3301 0.6031 -0.7261
vn -0.567 -0.6486 -0.5077
vn -0.5571 0.1075 0.8234
vn -0.1502 0.1783 0.9724
vn -0.8962 0.1534 0.4162
vn -0.2624 -0.9314 0.2524
vn 0.1595 0.0876 0.9833
vn 0.3378 -0.0172 0.941
vn 0.7877 -0.561 -0.2548
vn 0.0673 0.2611 -0.963
vn -0.075 0.3234 -0.9432
vn -0.9027 0.4284 -0.0392
vn -0.2457 0.5221 -0.8167
vn -0.206 0.4601 -0.8636
vn 0.4387 -0.1133 0.8914
vn 0.4833 -0.1798 0.8567
vn 0.5235 -0.2444 0.8162
vn -0.1656 0.3953 -0.9035
vt 0.839504 0.118056
vt 0.856743 0.205307
vt 0.741230 0.205307
vt 0.734555 0.106726
vt 0.724541 0.032791
vt 0.813647 0.052618
vt 0.868992 0.081539
vt 0.913398 0.129584
vt 0.940923 0.205307
vt 0.839504 0.292557
vt 0.813647 0.357995
vt 0.724541 0.377822
vt 0.734555 0.303887
vt 0.913398 0.281029
vt 0.868992 0.329074
vt 0.369475 0.299954
vt 0.368286 0.370940
vt 0.245840 0.351447
vt 0.246397 0.288815
vt 0.246768 0.205307
vt 0.370268 0.205307
vt 0.494283 0.205307
vt 0.492822 0.304944
vt 0.490632 0.379672
vt 0.369475 0.110659
vt 0.246397 0.121798
vt 0.245841 0.059166
vt 0.368286 0.039673
vt 0.490632 0.030941
vt 0.492822 0.105669
vt 0.616755 0.103478
vt 0.619174 0.205307
vt 0.613127 0.027106
vt 0.616755 0.307135
vt 0.613126 0.383507
vt 0.123273 0.268175
vt 0.123047 0.315326
vt 0.054743 0.283353
vt 0.030912 0.249131
vt 0.030973 0.205306
vt 0.123423 0.205306
vt 0.123273 0.142438
vt 0.030912 0.161481
vt 0.054744 0.127260
vt 0.123047 0.095287
vt 0.839504 0.118056
vt 0.856743 0.205307
vt 0.968983 0.205307
vt 0.938030 0.133427
vt 0.876123 0.061548
vt 0.805028 0.030806
vt 0.721203 0.008146
vt 0.734555 0.106726
vt 0.741230 0.205307
vt 0.839504 0.292557
vt 0.805028 0.379807
vt 0.876123 0.349065
vt 0.938030 0.277186
vt 0.734555 0.303887
vt 0.721203 0.402467
vt 0.369475 0.299954
vt 0.367890 0.394602
vt 0.489902 0.404581
vt 0.492822 0.304944
vt 0.494283 0.205307
vt 0.370268 0.205307
vt 0.246768 0.205307
vt 0.246397 0.288815
vt 0.245655 0.372324
vt 0.369475 0.110659
vt 0.492822 0.105669
vt 0.489902 0.006032
vt 0.367890 0.016011
vt 0.245655 0.038289
vt 0.246397 0.121798
vt 0.616755 0.103478
vt 0.619174 0.205307
vt 0.611917 0.001649
vt 0.616755 0.307135
vt 0.611917 0.408964
vt 0.123273 0.268175
vt 0.122972 0.331043
vt 0.123423 0.205306
vt 0.000156 0.205306
vt 0.000125 0.242784
vt 0.000064 0.280261
vt 0.123273 0.142438
vt 0.122972 0.079570
vt 0.000064 0.130352
vt 0.000125 0.167829
vt 0.122972 0.331043
vt 0.030806 0.283587
vt 0.245655 0.372324
vt 0.030806 0.283587
vt 0.000125 0.167829
vt 0.030806 0.127026
vt 0.000156 0.205306
vt 0.030806 0.127026
vt 0.805028 0.030806
vt 0.873826 0.071832
vt 0.721203 0.008146
vt 0.873826 0.071832
vt 0.938030 0.277186
vt 0.873826 0.338781
vt 0.968983 0.205307
vt 0.873826 0.338781
vt 0.805028 0.379807
vt 0.721203 0.402467
vt 0.000125 0.242784
vt 0.122972 0.079570
vt 0.245655 0.038289
vt 0.938030 0.133427
vt 0.611917 0.001649
vt 0.489902 0.006032
vt 0.611917 0.408964
vt 0.489902 0.404581
vt 0.367890 0.394602
vt 0.367890 0.016011
f 1/1/1 2/2/2 3/3/3
f 1/1/1 3/3/3 4/4/4
f 1/1/1 4/4/4 5/5/5
f 1/1/1 5/5/5 6/6/6
f 1/1/1 6/6/6 7/7/7
f 1/1/1 7/7/7 8/8/8
f 1/1/1 8/8/8 9/9/9
f 1/1/1 9/9/9 2/2/2
f 10/10/10 11/11/11 12/12/12
f 10/10/10 12/12/12 13/13/13
f 10/10/10 13/13/13 3/3/3
f 10/10/10 3/3/3 2/2/2
f 10/10/10 2/2/2 9/9/9
f 10/10/10 9/9/9 14/14/14
f 10/10/10 14/14/14 15/15/15
f 10/10/10 15/15/15 11/11/11
f 16/16/16 17/17/17 18/18/18
f 16/16/16 18/18/18 19/19/19
f 16/16/16 19/19/19 20/20/20
f 16/16/16 20/20/20 21/21/21
f 16/16/16 21/21/21 22/22/22
f 16/16/16 22/22/22 23/23/23
f 16/16/16 23/23/23 24/24/24
f 16/16/16 24/24/24 17/17/17
f 25/25/25 21/21/21 20/20/20
f 25/25/25 20/20/20 26/26/26
f 25/25/25 26/26/26 27/27/27
f 25/25/25 27/27/27 28/28/28
f 25/25/25 28/28/28 29/29/29
f 25/25/25 29/29/29 30/30/30
f 25/25/25 30/30/30 22/22/22
f 25/25/25 22/22/22 21/21/21
f 31/31/31 32/32/32 22/22/22
f 31/31/31 22/22/22 30/30/30
f 31/31/31 30/30/30 29/29/29
f 31/31/31 29/29/29 33/33/33
f 31/31/31 33/33/33 5/5/5
f 31/31/31 5/5/5 4/4/4
f 31/31/31 4/4/4 3/3/3
f 31/31/31 3/3/3 32/32/32
f 34/34/34 35/35/35 24/24/24
f 34/34/34 24/24/24 23/23/23
f 34/34/34 23/23/23 22/22/22
f 34/34/34 22/22/22 32/32/32
f 34/34/34 32/32/32 3/3/3
f 34/34/34 3/3/3 13/13/13
f 34/34/34 13/13/13 12/12/12
f 34/34/34 12/12/12 35/35/35
f 36/36/36 37/37/37 38/38/38
f 36/36/36 38/38/38 39/39/39
f 36/36/36 39/39/39 40/40/40
f 36/36/36 40/40/40 41/41/41
f 36/36/36 41/41/41 20/20/20
f 36/36/36 20/20/20 19/19/19
f 36/36/36 19/19/19 18/18/18
f 36/36/36 18/18/18 37/37/37
f 42/42/42 41/41/41 40/40/40
f 42/42/42 40/40/40 43/43/43
f 42/42/42 43/43/43 44/44/44
f 42/42/42 44/44/44 45/45/45
f 42/42/42 45/45/45 27/27/27
f 42/42/42 27/27/27 26/26/26
f 42/42/42 26/26/26 20/20/20
f 42/42/42 20/20/20 41/41/41
f 46/46/46 47/47/47 48/48/48
f 46/46/46 48/48/48 49/49/49
f 46/46/46 49/49/49 50/50/50
f 46/46/46 50/50/50 51/51/51
f 46/46/46 51/51/51 52/52/52
f 46/46/46 52/52/52 53/53/53
f 46/46/46 53/53/53 54/54/54
f 46/46/46 54/54/54 47/47/47
f 55/55/55 56/56/56 57/57/57
f 55/55/55 57/57/57 58/58/58
f 55/55/55 58/58/58 48/48/48
f 55/55/55 48/48/48 47/47/47
f 55/55/55 47/47/47 54/54/54
f 55/55/55 54/54/54 59/59/59
f 55/55/55 59/59/59 60/60/60
f 55/55/55 60/60/60 56/56/56
f 61/61/61 62/62/62 63/63/63
f 61/61/61 63/63/63 64/64/64
f 61/61/61 64/64/64 65/65/65
f 61/61/61 65/65/65 66/66/66
f 61/61/61 66/66/66 67/67/67
f 61/61/61 67/67/67 68/68/68
f 61/61/61 68/68/68 69/69/69
f 61/61/61 69/69/69 62/62/62
f 70/70/70 66/66/66 65/65/65
f 70/70/70 65/65/65 71/71/71
f 70/70/70 71/71/71 72/72/72
f 70/70/70 72/72/72 73/73/73
f 70/70/70 73/73/73 74/74/74
f 70/70/70 74/74/74 75/75/75
f 70/70/70 75/75/75 67/67/67
f 70/70/70 67/67/67 66/66/66
f 76/76/76 77/77/77 54/54/54
f 76/76/76 54/54/54 53/53/53
f 76/76/76 53/53/53 52/52/52
f 76/76/76 52/52/52 78/78/78
f 76/76/76 78/78/78 72/72/72
f 76/76/76 72/72/72 71/71/71
f 76/76/76 71/71/71 65/65/65
f 76/76/76 65/65/65 77/77/77
f 79/79/79 80/80/80 60/60/60
f 79/79/79 60/60/60 59/59/59
f 79/79/79 59/59/59 54/54/54
f 79/79/79 54/54/54 77/77/77
f 79/79/79 77/77/77 65/65/65
f 79/79/79 65/65/65 64/64/64
f 79/79/79 64/64/64 63/63/63
f 79/79/79 63/63/63 80/80/80
f 81/81/81 82/82/82 69/69/69
f 81/81/81 69/69/69 68/68/68
f 81/81/81 68/68/68 67/67/67
f 81/81/81 67/67/67 83/83/83
f 81/81/81 83/83/83 84/84/84
f 81/81/81 84/84/84 85/85/85
f 81/81/81 85/85/85 86/86/86
f 81/81/81 86/86/86 82/82/82
f 87/87/87 83/83/83 67/67/67
f 87/87/87 67/67/67 75/75/75
f 87/87/87 75/75/75 74/74/74
f 87/87/87 74/74/74 88/88/88
f 87/87/87 88/88/88 89/89/89
f 87/87/87 89/89/89 90/90/90
f 87/87/87 90/90/90 84/84/84
f 87/87/87 84/84/84 83/83/83
f 91/91/91 92/92/92 38/38/38
f 91/91/91 38/38/38 37/37/37
f 91/91/91 37/37/37 18/18/18
f 91/91/91 18/18/18 93/93/93
f 91/91/91 93/93/93 69/69/69
f 91/91/91 69/69/69 82/82/82
f 91/91/91 82/82/82 94/94/94
f 91/91/91 94/94/94 92/92/92
f 95/95/95 96/96/96 44/44/44
f 95/95/95 44/44/44 43/43/43
f 95/95/95 43/43/43 40/40/40
f 95/95/95 40/40/40 97/97/97
f 95/95/95 97/97/97 84/84/84
f 95/95/95 84/84/84 90/90/90
f 95/95/95 90/90/90 98/98/98
f 95/95/95 98/98/98 96/96/96
f 99/99/99 100/100/100 7/7/7
f 99/99/99 7/7/7 6/6/6
f 99/99/99 6/6/6 5/5/5
f 99/99/99 5/5/5 101/101/101
f 99/99/99 101/101/101 52/52/52
f 99/99/99 52/52/52 51/51/51
f 99/99/99 51/51/51 102/102/102
f 99/99/99 102/102/102 100/100/100
f 103/103/103 104/104/104 15/15/15
f 103/103/103 15/15/15 14/14/14
f 103/103/103 14/14/14 9/9/9
f 103/103/103 9/9/9 105/105/105
f 103/103/103 105/105/105 48/48/48
f 103/103/103 48/48/48 58/58/58
f 103/103/103 58/58/58 106/106/106
f 103/103/103 106/106/106 104/104/104
f 107/107/107 108/108/108 12/12/12
f 107/107/107 12/12/12 11/11/11
f 107/107/107 11/11/11 15/15/15
f 107/107/107 15/15/15 104/104/104
f 107/107/107 104/104/104 106/106/106
f 107/107/107 106/106/106 56/56/56
f 107/107/107 56/56/56 60/60/60
f 107/107/107 60/60/60 108/108/108
f 109/109/109 97/97/97 40/40/40
f 109/109/109 40/40/40 39/39/39
f 109/109/109 39/39/39 38/38/38
f 109/109/109 38/38/38 92/92/92
f 109/109/109 92/92/92 94/94/94
f 109/109/109 94/94/94 85/85/85
f 109/109/109 85/85/85 84/84/84
f 109/109/109 84/84/84 97/97/97
f 110/110/110 111/111/111 27/27/27
f 110/110/110 27/27/27 45/45/45
f 110/110/110 45/45/45 44/44/44
f 110/110/110 44/44/44 96/96/96
f 110/110/110 96/96/96 98/98/98
f 110/110/110 98/98/98 88/88/88
f 110/110/110 88/88/88 74/74/74
f 110/110/110 74/74/74 111/111/111
f 112/112/112 105/105/105 9/9/9
f 112/112/112 9/9/9 8/8/8
f 112/112/112 8/8/8 7/7/7
f 112/112/112 7/7/7 100/100/100
f 112/112/112 100/100/100 102/102/102
f 112/112/112 102/102/102 49/49/49
f 112/112/112 49/49/49 48/48/48
f 112/112/112 48/48/48 105/105/105
f 113/113/113 101/101/101 5/5/5
f 113/113/113 5/5/5 33/33/33
f 113/113/113 33/33/33 29/29/29
f 113/113/113 29/29/29 114/114/114
f 113/113/113 114/114/114 72/72/72
f 113/113/113 72/72/72 78/78/78
f 113/113/113 78/78/78 52/52/52
f 113/113/113 52/52/52 101/101/101
f 115/115/115 116/116/116 24/24/24
f 115/115/115 24/24/24 35/35/35
f 115/115/115 35/35/35 12/12/12
f 115/115/115 12/12/12 108/108/108
f 115/115/115 108/108/108 60/60/60
f 115/115/115 60/60/60 80/80/80
f 115/115/115 80/80/80 63/63/63
f 115/115/115 63/63/63 116/116/116
f 117/117/117 93/93/93 18/18/18
f 117/117/117 18/18/18 17/17/17
f 117/117/117 17/17/17 24/24/24
f 117/117/117 24/24/24 116/116/116
f 117/117/117 116/116/116 63/63/63
f 117/117/117 63/63/63 62/62/62
f 117/117/117 62/62/62 69/69/69
f 117/117/117 69/69/69 93/93/93
f 118/118/118 114/114/114 29/29/29
f 118/118/118 29/29/29 28/28/28
f 118/118/118 28/28/28 27/27/27
f 118/118/118 27/27/27 111/111/111
f 118/118/118 111/111/111 74/74/74
f 118/118/118 74/74/74 73/73/73
f 118/118/118 73/73/73 72/72/72
f 118/118/118 72/72/72 114/114/114
