v -2.407179 0.792108 -1.221028
v -2.406126 0.792391 -1.220043
v -2.405334 0.79092 -1.221061
v -2.40663 0.790734 -1.22204
v -2.407529 0.790616 -1.222923
v -2.407841 0.791822 -1.221992
v -2.407852 0.792512 -1.221174
v -2.407543 0.793038 -1.220231
v -2.406725 0.793425 -1.219249
v -2.404705 0.792511 -1.219688
v -2.403502 0.79253 -1.219641
v -2.4026 0.79142 -1.220252
v -2.403818 0.791193 -1.220516
v -2.405401 0.793387 -1.219071
v -2.404338 0.793085 -1.21927
v -2.401707 0.785962 -1.222906
v -2.400606 0.786184 -1.222479
v -2.400283 0.784214 -1.223162
v -2.401261 0.784016 -1.223531
v -2.402525 0.78378 -1.224096
v -2.403132 0.785697 -1.223552
v -2.403793 0.787548 -1.22289
v -2.402297 0.787833 -1.222226
v -2.401137 0.788075 -1.221798
v -2.404462 0.785512 -1.224399
v -2.403697 0.783619 -1.224852
v -2.404553 0.783518 -1.225476
v -2.405434 0.785396 -1.225095
v -2.406187 0.787251 -1.224534
v -2.405179 0.787363 -1.223787
v -2.405932 0.789128 -1.22298
v -2.404541 0.789297 -1.222035
v -2.406932 0.789042 -1.22379
v -2.403008 0.789605 -1.221395
v -2.401807 0.789878 -1.221013
v -2.400982 0.782018 -1.224197
v -2.400237 0.782177 -1.223951
v -2.400412 0.780991 -1.224424
v -2.400841 0.780494 -1.224695
v -2.401509 0.780356 -1.224939
v -2.401936 0.781834 -1.224596
v -2.4028 0.781722 -1.225183
v -2.402087 0.780291 -1.225371
v -2.402654 0.780626 -1.225639
v -2.403425 0.781657 -1.225679
v -2.407242 0.792011 -1.220927
v -2.406171 0.792296 -1.219931
v -2.406758 0.793352 -1.219166
v -2.40759 0.792964 -1.220157
v -2.407891 0.792458 -1.221121
v -2.407897 0.791749 -1.221922
v -2.407585 0.790547 -1.222849
v -2.406694 0.790642 -1.221934
v -2.405381 0.79083 -1.220946
v -2.404731 0.792421 -1.219566
v -2.403512 0.792465 -1.219546
v -2.404348 0.793036 -1.219201
v -2.405419 0.793318 -1.218981
v -2.403849 0.791106 -1.220392
v -2.402615 0.791357 -1.220156
v -2.401753 0.785899 -1.222772
v -2.400635 0.786138 -1.222376
v -2.401162 0.788024 -1.221697
v -2.402339 0.787762 -1.222095
v -2.403848 0.787475 -1.222766
v -2.40319 0.785631 -1.223425
v -2.402585 0.78372 -1.223967
v -2.401309 0.783959 -1.223396
v -2.400313 0.784172 -1.223058
v -2.404532 0.785446 -1.224279
v -2.405246 0.787288 -1.223671
v -2.406244 0.787195 -1.224451
v -2.405492 0.785345 -1.225009
v -2.404612 0.783471 -1.225388
v -2.403769 0.783557 -1.224729
v -2.405998 0.789044 -1.222869
v -2.404593 0.789215 -1.221915
v -2.406988 0.788979 -1.223711
v -2.403045 0.789526 -1.221268
v -2.401827 0.78982 -1.220915
v -2.40103 0.781963 -1.224061
v -2.400266 0.782137 -1.223846
v -2.401997 0.781776 -1.224467
v -2.401555 0.780314 -1.224842
v -2.400877 0.780453 -1.224593
v -2.400435 0.780961 -1.224347
v -2.402874 0.781663 -1.225061
v -2.403486 0.781612 -1.225591
v -2.402698 0.780592 -1.225573
v -2.402143 0.780247 -1.225279
v -2.4 0.782213 -1.223821
v -2.400296 0.780609 -1.224517
v -2.399969 0.784262 -1.222992
v -2.400435 0.780961 -1.224347
v -2.401874 0.779794 -1.225393
v -2.402543 0.780242 -1.225734
v -2.401387 0.779845 -1.225011
v -2.402698 0.780592 -1.225573
v -2.408089 0.791695 -1.222284
v -2.408022 0.792571 -1.22123
v -2.407856 0.790546 -1.223186
v -2.407891 0.792458 -1.221121
v -2.405641 0.793648 -1.218825
v -2.40422 0.793192 -1.219169
v -2.406939 0.793737 -1.218948
v -2.404348 0.793036 -1.219201
v -2.403103 0.792508 -1.219582
v -2.402199 0.791468 -1.220121
v -2.40081 0.779968 -1.224816
v -2.403662 0.781615 -1.225806
v -2.404866 0.783463 -1.225646
v -2.407685 0.793315 -1.219933
v -2.407291 0.788985 -1.224026
v -2.40655 0.787189 -1.224747
v -2.401414 0.789944 -1.220841
v -2.40076 0.788134 -1.22161
v -2.40025 0.786238 -1.222291
v -2.405785 0.785335 -1.22529
vn 0.4638 0.657 -0.5943
vn 0.2734 0.6574 -0.7022
vn 0.2973 0.612 -0.7328
vn 0.4688 0.6104 -0.6384
vn 0.4707 0.5902 -0.6558
vn 0.4574 0.6568 -0.5995
vn 0.4451 0.701 -0.5572
vn 0.3927 0.7237 -0.5675
vn 0.2339 0.7236 -0.6493
vn 0.0868 0.5955 -0.7986
vn 0.0943 0.5974 -0.7964
vn 0.1502 0.5378 -0.8296
vn 0.1319 0.5555 -0.821
vn 0.0849 0.6734 -0.7343
vn 0.055 0.6372 -0.7687
vn 0.2895 0.379 -0.8789
vn 0.3256 0.378 -0.8666
vn 0.3378 0.3489 -0.8741
vn 0.2922 0.3472 -0.8911
vn 0.3994 0.357 -0.8444
vn 0.3867 0.396 -0.8328
vn 0.3592 0.4722 -0.805
vn 0.2531 0.4444 -0.8593
vn 0.2835 0.4344 -0.8549
vn 0.4787 0.4099 -0.7764
vn 0.4952 0.3803 -0.7811
vn 0.4572 0.3684 -0.8094
vn 0.4504 0.3983 -0.799
vn 0.4486 0.4613 -0.7655
vn 0.4653 0.4791 -0.7443
vn 0.4615 0.5543 -0.6926
vn 0.3258 0.5522 -0.7674
vn 0.4574 0.5311 -0.7132
vn 0.1939 0.5107 -0.8376
vn 0.2187 0.4922 -0.8425
vn 0.2728 0.3292 -0.904
vn 0.3232 0.3272 -0.8879
vn 0.2989 0.3058 -0.9039
vn 0.2682 0.2721 -0.9241
vn 0.4203 0.2852 -0.8614
vn 0.4051 0.3384 -0.8493
vn 0.5202 0.3696 -0.7699
vn 0.5533 0.3185 -0.7697
vn 0.5126 0.3406 -0.7881
vn 0.4816 0.3531 -0.8021
vn -0.495 -0.6388 0.5889
vn -0.28 -0.6452 0.7108
vn -0.3053 -0.596 0.7427
vn -0.5842 -0.5819 0.5658
vn -0.676 -0.5468 0.4939
vn -0.6562 -0.5582 0.5076
vn -0.6077 -0.5643 0.5588
vn -0.4816 -0.6094 0.6298
vn -0.2973 -0.6121 0.7328
vn -0.0708 -0.5696 0.8189
vn 0.0591 -0.4414 0.8954
vn 0.0776 -0.4235 0.9026
vn -0.02 -0.4897 0.8716
vn -0.1185 -0.5502 0.8266
vn -0.0064 -0.4662 0.8846
vn -0.2744 -0.3772 0.8845
vn -0.167 -0.3623 0.917
vn -0.1392 -0.4068 0.9028
vn -0.2392 -0.4418 0.8646
vn -0.3593 -0.4721 0.805
vn -0.3868 -0.3959 0.8328
vn -0.3994 -0.3569 0.8444
vn -0.274 -0.3469 0.897
vn -0.1443 -0.3544 0.9239
vn -0.4917 -0.4126 0.7668
vn -0.4775 -0.4806 0.7355
vn -0.5689 -0.4769 0.67
vn -0.5771 -0.4292 0.6948
vn -0.5964 -0.4281 0.6789
vn -0.5096 -0.3853 0.7693
vn -0.4734 -0.5549 0.684
vn -0.3258 -0.5522 0.7674
vn -0.5776 -0.5328 0.6184
vn -0.1806 -0.5072 0.8426
vn -0.0787 -0.4514 0.8888
vn -0.2434 -0.3427 0.9074
vn -0.0818 -0.3723 0.9245
vn -0.4017 -0.3497 0.8463
vn -0.3858 -0.3988 0.8319
vn -0.1534 -0.3914 0.9073
vn -0.0425 -0.3877 0.9208
vn -0.5349 -0.3902 0.7494
vn -0.6247 -0.461 0.6302
vn -0.6382 -0.485 0.5978
vn -0.5691 -0.4592 0.682
vn 0.9768 -0.1399 0.1622
vn 0.8778 -0.4757 -0.0566
vn 0.9668 -0.0149 0.2551
vn -0.0425 -0.3877 0.9208
vn 0.0875 -0.9181 -0.3866
vn -0.2879 -0.6658 -0.6883
vn 0.2365 -0.9605 -0.1466
vn -0.6382 -0.485 0.5978
vn -0.8067 0.3215 -0.4957
vn -0.8011 0.5398 -0.2583
vn -0.7906 0.137 -0.5968
vn -0.676 -0.5468 0.4939
vn 0.0966 0.7678 0.6334
vn 0.4908 0.751 0.4416
vn -0.4277 0.6928 0.5806
vn 0.0776 -0.4235 0.9026
vn 0.7432 0.5741 0.3435
vn 0.8631 0.4068 0.2993
vn 0.4994 -0.8508 -0.1636
vn -0.6014 -0.3974 -0.693
vn -0.7037 -0.2873 -0.6498
vn -0.7595 0.628 0.1694
vn -0.7751 -0.006 -0.6318
vn -0.7677 -0.093 -0.634
vn 0.9189 0.2708 0.2867
vn 0.9387 0.1853 0.2907
vn 0.9508 0.0999 0.2932
vn -0.755 -0.1782 -0.631
vt 0.839504 0.118056
vt 0.856743 0.205307
vt 0.741230 0.205307
vt 0.734555 0.106726
vt 0.724541 0.032791
vt 0.813647 0.052618
vt 0.868992 0.081539
vt 0.913398 0.129584
vt 0.940923 0.205307
vt 0.839504 0.292557
vt 0.813647 0.357995
vt 0.724541 0.377822
vt 0.734555 0.303887
vt 0.913398 0.281029
vt 0.868992 0.329074
vt 0.369475 0.299954
vt 0.368286 0.370940
vt 0.245840 0.351447
vt 0.246397 0.288815
vt 0.246768 0.205307
vt 0.370268 0.205307
vt 0.494283 0.205307
vt 0.492822 0.304944
vt 0.490632 0.379672
vt 0.369475 0.110659
vt 0.246397 0.121798
vt 0.245841 0.059166
vt 0.368286 0.039673
vt 0.490632 0.030941
vt 0.492822 0.105669
vt 0.616755 0.103478
vt 0.619174 0.205307
vt 0.613127 0.027106
vt 0.616755 0.307135
vt 0.613126 0.383507
vt 0.123273 0.268175
vt 0.123047 0.315326
vt 0.054743 0.283353
vt 0.030912 0.249131
vt 0.030973 0.205306
vt 0.123423 0.205306
vt 0.123273 0.142438
vt 0.030912 0.161481
vt 0.054744 0.127260
vt 0.123047 0.095287
vt 0.839504 0.118056
vt 0.856743 0.205307
vt 0.968983 0.205307
vt 0.938030 0.133427
vt 0.876123 0.061548
vt 0.805028 0.030806
vt 0.721203 0.008146
vt 0.734555 0.106726
vt 0.741230 0.205307
vt 0.839504 0.292557
vt 0.805028 0.379807
vt 0.876123 0.349065
vt 0.938030 0.277186
vt 0.734555 0.303887
vt 0.721203 0.402467
vt 0.369475 0.299954
vt 0.367890 0.394602
vt 0.489902 0.404581
vt 0.492822 0.304944
vt 0.494283 0.205307
vt 0.370268 0.205307
vt 0.246768 0.205307
vt 0.246397 0.288815
vt 0.245655 0.372324
vt 0.369475 0.110659
vt 0.492822 0.105669
vt 0.489902 0.006032
vt 0.367890 0.016011
vt 0.245655 0.038289
vt 0.246397 0.121798
vt 0.616755 0.103478
vt 0.619174 0.205307
vt 0.611917 0.001649
vt 0.616755 0.307135
vt 0.611917 0.408964
vt 0.123273 0.268175
vt 0.122972 0.331043
vt 0.123423 0.205306
vt 0.000156 0.205306
vt 0.000125 0.242784
vt 0.000064 0.280261
vt 0.123273 0.142438
vt 0.122972 0.079570
vt 0.000064 0.130352
vt 0.000125 0.167829
vt 0.122972 0.331043
vt 0.030806 0.283587
vt 0.245655 0.372324
vt 0.030806 0.283587
vt 0.000125 0.167829
vt 0.030806 0.127026
vt 0.000156 0.205306
vt 0.030806 0.127026
vt 0.805028 0.030806
vt 0.873826 0.071832
vt 0.721203 0.008146
vt 0.873826 0.071832
vt 0.938030 0.277186
vt 0.873826 0.338781
vt 0.968983 0.205307
vt 0.873826 0.338781
vt 0.805028 0.379807
vt 0.721203 0.402467
vt 0.000125 0.242784
vt 0.122972 0.079570
vt 0.245655 0.038289
vt 0.938030 0.133427
vt 0.611917 0.001649
vt 0.489902 0.006032
vt 0.611917 0.408964
vt 0.489902 0.404581
vt 0.367890 0.394602
vt 0.367890 0.016011
f 1/1/1 2/2/2 3/3/3
f 1/1/1 3/3/3 4/4/4
f 1/1/1 4/4/4 5/5/5
f 1/1/1 5/5/5 6/6/6
f 1/1/1 6/6/6 7/7/7
f 1/1/1 7/7/7 8/8/8
f 1/1/1 8/8/8 9/9/9
f 1/1/1 9/9/9 2/2/2
f 10/10/10 11/11/11 12/12/12
f 10/10/10 12/12/12 13/13/13
f 10/10/10 13/13/13 3/3/3
f 10/10/10 3/3/3 2/2/2
f 10/10/10 2/2/2 9/9/9
f 10/10/10 9/9/9 14/14/14
f 10/10/10 14/14/14 15/15/15
f 10/10/10 15/15/15 11/11/11
f 16/16/16 17/17/17 18/18/18
f 16/16/16 18/18/18 19/19/19
f 16/16/16 19/19/19 20/20/20
f 16/16/16 20/20/20 21/21/21
f 16/16/16 21/21/21 22/22/22
f 16/16/16 22/22/22 23/23/23
f 16/16/16 23/23/23 24/24/24
f 16/16/16 24/24/24 17/17/17
f 25/25/25 21/21/21 20/20/20
f 25/25/25 20/20/20 26/26/26
f 25/25/25 26/26/26 27/27/27
f 25/25/25 27/27/27 28/28/28
f 25/25/25 28/28/28 29/29/29
f 25/25/25 29/29/29 30/30/30
f 25/25/25 30/30/30 22/22/22
f 25/25/25 22/22/22 21/21/21
f 31/31/31 32/32/32 22/22/22
f 31/31/31 22/22/22 30/30/30
f 31/31/31 30/30/30 29/29/29
f 31/31/31 29/29/29 33/33/33
f 31/31/31 33/33/33 5/5/5
f 31/31/31 5/5/5 4/4/4
f 31/31/31 4/4/4 3/3/3
f 31/31/31 3/3/3 32/32/32
f 34/34/34 35/35/35 24/24/24
f 34/34/34 24/24/24 23/23/23
f 34/34/34 23/23/23 22/22/22
f 34/34/34 22/22/22 32/32/32
f 34/34/34 32/32/32 3/3/3
f 34/34/34 3/3/3 13/13/13
f 34/34/34 13/13/13 12/12/12
f 34/34/34 12/12/12 35/35/35
f 36/36/36 37/37/37 38/38/38
f 36/36/36 38/38/38 39/39/39
f 36/36/36 39/39/39 40/40/40
f 36/36/36 40/40/40 41/41/41
f 36/36/36 41/41/41 20/20/20
f 36/36/36 20/20/20 19/19/19
f 36/36/36 19/19/19 18/18/18
f 36/36/36 18/18/18 37/37/37
f 42/42/42 41/41/41 40/40/40
f 42/42/42 40/40/40 43/43/43
f 42/42/42 43/43/43 44/44/44
f 42/42/42 44/44/44 45/45/45
f 42/42/42 45/45/45 27/27/27
f 42/42/42 27/27/27 26/26/26
f 42/42/42 26/26/26 20/20/20
f 42/42/42 20/20/20 41/41/41
f 46/46/46 47/47/47 48/48/48
f 46/46/46 48/48/48 49/49/49
f 46/46/46 49/49/49 50/50/50
f 46/46/46 50/50/50 51/51/51
f 46/46/46 51/51/51 52/52/52
f 46/46/46 52/52/52 53/53/53
f 46/46/46 53/53/53 54/54/54
f 46/46/46 54/54/54 47/47/47
f 55/55/55 56/56/56 57/57/57
f 55/55/55 57/57/57 58/58/58
f 55/55/55 58/58/58 48/48/48
f 55/55/55 48/48/48 47/47/47
f 55/55/55 47/47/47 54/54/54
f 55/55/55 54/54/54 59/59/59
f 55/55/55 59/59/59 60/60/60
f 55/55/55 60/60/60 56/56/56
f 61/61/61 62/62/62 63/63/63
f 61/61/61 63/63/63 64/64/64
f 61/61/61 64/64/64 65/65/65
f 61/61/61 65/65/65 66/66/66
f 61/61/61 66/66/66 67/67/67
f 61/61/61 67/67/67 68/68/68
f 61/61/61 68/68/68 69/69/69
f 61/61/61 69/69/69 62/62/62
f 70/70/70 66/66/66 65/65/65
f 70/70/70 65/65/65 71/71/71
f 70/70/70 71/71/71 72/72/72
f 70/70/70 72/72/72 73/73/73
f 70/70/70 73/73/73 74/74/74
f 70/70/70 74/74/74 75/75/75
f 70/70/70 75/75/75 67/67/67
f 70/70/70 67/67/67 66/66/66
f 76/76/76 77/77/77 54/54/54
f 76/76/76 54/54/54 53/53/53
f 76/76/76 53/53/53 52/52/52
f 76/76/76 52/52/52 78/78/78
f 76/76/76 78/78/78 72/72/72
f 76/76/76 72/72/72 71/71/71
f 76/76/76 71/71/71 65/65/65
f 76/76/76 65/65/65 77/77/77
f 79/79/79 80/80/80 60/60/60
f 79/79/79 60/60/60 59/59/59
f 79/79/79 59/59/59 54/54/54
f 79/79/79 54/54/54 77/77/77
f 79/79/79 77/77/77 65/65/65
f 79/79/79 65/65/65 64/64/64
f 79/79/79 64/64/64 63/63/63
f 79/79/79 63/63/63 80/80/80
f 81/81/81 82/82/82 69/69/69
f 81/81/81 69/69/69 68/68/68
f 81/81/81 68/68/68 67/67/67
f 81/81/81 67/67/67 83/83/83
f 81/81/81 83/83/83 84/84/84
f 81/81/81 84/84/84 85/85/85
f 81/81/81 85/85/85 86/86/86
f 81/81/81 86/86/86 82/82/82
f 87/87/87 83/83/83 67/67/67
f 87/87/87 67/67/67 75/75/75
f 87/87/87 75/75/75 74/74/74
f 87/87/87 74/74/74 88/88/88
f 87/87/87 88/88/88 89/89/89
f 87/87/87 89/89/89 90/90/90
f 87/87/87 90/90/90 84/84/84
f 87/87/87 84/84/84 83/83/83
f 91/91/91 92/92/92 38/38/38
f 91/91/91 38/38/38 37/37/37
f 91/91/91 37/37/37 18/18/18
f 91/91/91 18/18/18 93/93/93
f 91/91/91 93/93/93 69/69/69
f 91/91/91 69/69/69 82/82/82
f 91/91/91 82/82/82 94/94/94
f 91/91/91 94/94/94 92/92/92
f 95/95/95 96/96/96 44/44/44
f 95/95/95 44/44/44 43/43/43
f 95/95/95 43/43/43 40/40/40
f 95/95/95 40/40/40 97/97/97
f 95/95/95 97/97/97 84/84/84
f 95/95/95 84/84/84 90/90/90
f 95/95/95 90/90/90 98/98/98
f 95/95/95 98/98/98 96/96/96
f 99/99/99 100/100/100 7/7/7
f 99/99/99 7/7/7 6/6/6
f 99/99/99 6/6/6 5/5/5
f 99/99/99 5/5/5 101/101/101
f 99/99/99 101/101/101 52/52/52
f 99/99/99 52/52/52 51/51/51
f 99/99/99 51/51/51 102/102/102
f 99/99/99 102/102/102 100/100/100
f 103/103/103 104/104/104 15/15/15
f 103/103/103 15/15/15 14/14/14
f 103/103/103 14/14/14 9/9/9
f 103/103/103 9/9/9 105/105/105
f 103/103/103 105/105/105 48/48/48
f 103/103/103 48/48/48 58/58/58
f 103/103/103 58/58/58 106/106/106
f 103/103/103 106/106/106 104/104/104
f 107/107/107 108/108/108 12/12/12
f 107/107/107 12/12/12 11/11/11
f 107/107/107 11/11/11 15/15/15
f 107/107/107 15/15/15 104/104/104
f 107/107/107 104/104/104 106/106/106
f 107/107/107 106/106/106 56/56/56
f 107/107/107 56/56/56 60/60/60
f 107/107/107 60/60/60 108/108/108
f 109/109/109 97/97/97 40/40/40
f 109/109/109 40/40/40 39/39/39
f 109/109/109 39/39/39 38/38/38
f 109/109/109 38/38/38 92/92/92
f 109/109/109 92/92/92 94/94/94
f 109/109/109 94/94/94 85/85/85
f 109/109/109 85/85/85 84/84/84
f 109/109/109 84/84/84 97/97/97
f 110/110/110 111/111/111 27/27/27
f 110/110/110 27/27/27 45/45/45
f 110/110/110 45/45/45 44/44/44
f 110/110/110 44/44/44 96/96/96
f 110/110/110 96/96/96 98/98/98
f 110/110/110 98/98/98 88/88/88
f 110/110/110 88/88/88 74/74/74
f 110/110/110 74/74/74 111/111/111
f 112/112/112 105/105/105 9/9/9
f 112/112/112 9/9/9 8/8/8
f 112/112/112 8/8/8 7/7/7
f 112/112/112 7/7/7 100/100/100
f 112/112/112 100/100/100 102/102/102
f 112/112/112 102/102/102 49/49/49
f 112/112/112 49/49/49 48/48/48
f 112/112/112 48/48/48 105/105/105
f 113/113/113 101/101/101 5/5/5
f 113/113/113 5/5/5 33/33/33
f 113/113/113 33/33/33 29/29/29
f 113/113/113 29/29/29 114/114/114
f 113/113/113 114/114/114 72/72/72
f 113/113/113 72/72/72 78/78/78
f 113/113/113 78/78/78 52/52/52
f 113/113/113 52/52/52 101/101/101
f 115/115/115 116/116/116 24/24/24
f 115/115/115 24/24/24 35/35/35
f 115/115/115 35/35/35 12/12/12
f 115/115/115 12/12/12 108/108/108
f 115/115/115 108/108/108 60/60/60
f 115/115/115 60/60/60 80/80/80
f 115/115/115 80/80/80 63/63/63
f 115/115/115 63/63/63 116/116/116
f 117/117/117 93/93/93 18/18/18
f 117/117/117 18/18/18 17/17/17
f 117/117/117 17/17/17 24/24/24
f 117/117/117 24/24/24 116/116/116
f 117/117/117 116/116/116 63/63/63
f 117/117/117 63/63/63 62/62/62
f 117/117/117 62/62/62 69/69/69
f 117/117/117 69/69/69 93/93/93
f 118/118/118 114/114/114 29/29/29
f 118/118/118 29/29/29 28/28/28
f 118/118/118 28/28/28 27/27/27
f 118/118/118 27/27/27 111/111/111
f 118/118/118 111/111/111 74/74/74
f 118/118/118 74/74/74 73/73/73
f 118/118/118 73/73/73 72/72/72
f 118/118/118 72/72/72 114/114/114
