v -2.4039 0.743389 -1.174785
v -2.401686 0.744209 -1.176396
v -2.403363 0.741634 -1.178638
v -2.405641 0.740931 -1.176537
v -2.407615 0.740469 -1.175139
v -2.40595 0.742676 -1.173911
v -2.404398 0.743978 -1.173437
v -2.402503 0.745053 -1.173579
v -2.40037 0.746005 -1.174715
v -2.400563 0.744838 -1.178947
v -2.400098 0.745217 -1.181209
v -2.400968 0.743357 -1.183429
v -2.401849 0.742578 -1.181266
v -2.399615 0.746307 -1.177181
v -2.399659 0.746036 -1.179347
v -2.40567 0.733188 -1.187517
v -2.404513 0.733919 -1.189409
v -2.405683 0.730242 -1.1908
v -2.406692 0.72959 -1.189117
v -2.408165 0.728789 -1.186962
v -2.40735 0.732286 -1.18509
v -2.406323 0.735639 -1.183099
v -2.404587 0.736598 -1.185649
v -2.403409 0.737386 -1.187647
v -2.409386 0.731574 -1.182883
v -2.409978 0.728163 -1.185019
v -2.411441 0.727741 -1.183619
v -2.411024 0.731091 -1.181289
v -2.41022 0.734427 -1.179153
v -2.408474 0.73491 -1.180802
v -2.407196 0.738067 -1.178614
v -2.404952 0.738766 -1.18091
v -2.409061 0.737637 -1.176995
v -2.403252 0.73978 -1.183533
v -2.402149 0.740639 -1.185614
v -2.407844 0.725847 -1.190427
v -2.407141 0.726359 -1.191718
v -2.40808 0.724041 -1.191874
v -2.408725 0.722969 -1.191286
v -2.409398 0.722519 -1.190134
v -2.408903 0.725229 -1.188793
v -2.410296 0.724781 -1.187368
v -2.410405 0.722239 -1.18919
v -2.411104 0.722727 -1.188103
v -2.411442 0.724491 -1.186355
v -2.403723 0.743182 -1.174661
v -2.401483 0.744011 -1.176302
v -2.400219 0.745853 -1.174647
v -2.402374 0.744895 -1.173487
v -2.404308 0.74386 -1.173362
v -2.405832 0.742518 -1.173803
v -2.407489 0.740319 -1.175029
v -2.405457 0.740734 -1.176408
v -2.403156 0.741444 -1.178537
v -2.400337 0.744653 -1.178885
v -2.399918 0.745087 -1.181179
v -2.399529 0.745936 -1.179322
v -2.399446 0.746166 -1.177139
v -2.40162 0.7424 -1.181193
v -2.400786 0.74323 -1.183389
v -2.405428 0.73305 -1.187406
v -2.404324 0.733819 -1.189336
v -2.403223 0.737277 -1.187582
v -2.404349 0.736447 -1.185548
v -2.406101 0.73548 -1.182976
v -2.407123 0.732141 -1.184958
v -2.407935 0.728654 -1.186824
v -2.406447 0.729462 -1.189
v -2.405491 0.73015 -1.190723
v -2.409176 0.731422 -1.182732
v -2.40827 0.734744 -1.180658
v -2.410076 0.7343 -1.179035
v -2.410875 0.730974 -1.181167
v -2.41129 0.727631 -1.183491
v -2.409765 0.728021 -1.184862
v -2.407001 0.737884 -1.178479
v -2.404737 0.738591 -1.180799
v -2.408926 0.737497 -1.176881
v -2.403018 0.739614 -1.183446
v -2.401965 0.74052 -1.185561
v -2.407596 0.725723 -1.190309
v -2.406948 0.726271 -1.191641
v -2.408672 0.725098 -1.188654
v -2.409225 0.722421 -1.19003
v -2.408538 0.722877 -1.191199
v -2.407939 0.723975 -1.191814
v -2.410083 0.724643 -1.187208
v -2.411291 0.724384 -1.186224
v -2.41099 0.722649 -1.188009
v -2.410246 0.722135 -1.189069
v -2.40682 0.726492 -1.192117
v -2.408214 0.72334 -1.192231
v -2.40526 0.730419 -1.19133
v -2.407939 0.723975 -1.191814
v -2.410371 0.721346 -1.189744
v -2.411243 0.722025 -1.188453
v -2.409486 0.721573 -1.190535
v -2.41099 0.722649 -1.188009
v -2.406585 0.742367 -1.173568
v -2.404558 0.744044 -1.173115
v -2.40822 0.740248 -1.174621
v -2.404308 0.74386 -1.173362
v -2.399224 0.746734 -1.176574
v -2.399431 0.746271 -1.179509
v -2.399865 0.746535 -1.174125
v -2.399529 0.745936 -1.179322
v -2.399861 0.745287 -1.181953
v -2.400591 0.743562 -1.184136
v -2.408935 0.721969 -1.191534
v -2.411759 0.724346 -1.185957
v -2.411864 0.727551 -1.183093
v -2.401981 0.745536 -1.173136
v -2.409625 0.737431 -1.176402
v -2.41074 0.734209 -1.178549
v -2.401698 0.740874 -1.186287
v -2.402932 0.737601 -1.188286
v -2.404041 0.734119 -1.19001
v -2.411505 0.730877 -1.180702
vn -0.5191 0.7261 -0.4509
vn -0.656 0.6999 -0.2822
vn -0.6819 0.659 -0.3173
vn -0.5612 0.6814 -0.4698
vn -0.5779 0.6618 -0.4775
vn -0.5251 0.7249 -0.4457
vn -0.486 0.7662 -0.4204
vn -0.5048 0.7811 -0.3674
vn -0.6108 0.759 -0.2254
vn -0.7805 0.6126 -0.1249
vn -0.7769 0.6157 -0.1315
vn -0.8002 0.5653 -0.2001
vn -0.7949 0.5799 -0.1783
vn -0.7182 0.6884 -0.1013
vn -0.7565 0.6487 -0.083
vn -0.8249 0.4294 -0.3675
vn -0.8071 0.4335 -0.4008
vn -0.8122 0.4066 -0.4183
vn -0.8361 0.3985 -0.3768
vn -0.773 0.4234 -0.4724
vn -0.764 0.4599 -0.4524
vn -0.7418 0.5308 -0.4099
vn -0.8121 0.4885 -0.3191
vn -0.8029 0.4829 -0.3496
vn -0.6937 0.4864 -0.5312
vn -0.6954 0.4596 -0.5524
vn -0.7291 0.4428 -0.5218
vn -0.7205 0.4711 -0.5088
vn -0.6883 0.5327 -0.4924
vn -0.6649 0.5524 -0.5027
vn -0.6152 0.6256 -0.4796
vn -0.7109 0.6045 -0.3595
vn -0.636 0.6023 -0.4823
vn -0.8008 0.545 -0.2481
vn -0.8016 0.5304 -0.2759
vn -0.8518 0.3781 -0.3626
vn -0.828 0.3832 -0.4093
vn -0.8475 0.3586 -0.3914
vn -0.8719 0.3209 -0.3698
vn -0.7857 0.3556 -0.5061
vn -0.7768 0.4058 -0.4815
vn -0.6802 0.4526 -0.5766
vn -0.6741 0.407 -0.6164
vn -0.699 0.4232 -0.5764
vn -0.7179 0.4311 -0.5466
vn 0.5085 -0.7127 0.4832
vn 0.6634 -0.689 0.292
vn 0.6902 -0.6445 0.329
vn 0.4707 -0.669 0.5751
vn 0.3847 -0.6468 0.6585
vn 0.4016 -0.6555 0.6395
vn 0.4599 -0.6552 0.5993
vn 0.5507 -0.6821 0.481
vn 0.6819 -0.659 0.3172
vn 0.8027 -0.5849 0.1162
vn 0.8978 -0.44 0.0207
vn 0.9077 -0.4197 0.0063
vn 0.8622 -0.499 0.0869
vn 0.8025 -0.5728 0.167
vn 0.8769 -0.4741 0.0792
vn 0.8329 -0.4254 0.3539
vn 0.882 -0.3953 0.2566
vn 0.8729 -0.4351 0.2206
vn 0.8196 -0.4839 0.3068
vn 0.7418 -0.5307 0.41
vn 0.7641 -0.4598 0.4525
vn 0.7731 -0.4232 0.4725
vn 0.8449 -0.3956 0.36
vn 0.8924 -0.3842 0.2366
vn 0.6822 -0.4909 0.5419
vn 0.6543 -0.5557 0.5129
vn 0.5749 -0.5646 0.5922
vn 0.5975 -0.5188 0.6113
vn 0.5787 -0.5204 0.6279
vn 0.6815 -0.4665 0.5637
vn 0.6049 -0.6279 0.4897
vn 0.7109 -0.6045 0.3595
vn 0.5232 -0.6205 0.5842
vn 0.8079 -0.5397 0.2365
vn 0.8693 -0.4701 0.1526
vn 0.8601 -0.387 0.3323
vn 0.9032 -0.3927 0.1729
vn 0.7745 -0.4165 0.476
vn 0.7633 -0.4624 0.4511
vn 0.8749 -0.4221 0.2373
vn 0.906 -0.4021 0.1316
vn 0.6579 -0.4749 0.5846
vn 0.5264 -0.5564 0.6428
vn 0.4927 -0.5817 0.6471
vn 0.5866 -0.5473 0.597
vn 0.3181 0.0032 -0.948
vn 0.0894 -0.3414 -0.9356
vn 0.4069 0.1238 -0.905
vn 0.906 -0.4021 0.1316
vn -0.3578 -0.8898 -0.2832
vn -0.7185 -0.6918 0.0719
vn -0.0968 -0.9133 -0.3956
vn 0.4927 -0.5817 0.6471
vn -0.6224 0.2058 0.7551
vn -0.3892 0.4197 0.8199
vn -0.7176 0.0266 0.6959
vn 0.3847 -0.6468 0.6585
vn 0.6327 0.7649 0.1205
vn 0.5069 0.8091 -0.2973
vn 0.4972 0.6142 0.6127
vn 0.9077 -0.4197 0.0063
vn 0.4526 0.6727 -0.5853
vn 0.4295 0.5251 -0.7347
vn -0.0727 -0.7661 -0.6386
vn -0.7766 -0.4718 0.4173
vn -0.7514 -0.3786 0.5404
vn 0.039 0.5071 0.861
vn -0.7479 -0.1117 0.6543
vn -0.7479 -0.1963 0.6341
vn 0.4272 0.3985 -0.8116
vn 0.4355 0.3174 -0.8423
vn 0.4409 0.2348 -0.8663
vn -0.7421 -0.2787 0.6096
vt 0.839504 0.118056
vt 0.856743 0.205307
vt 0.741230 0.205307
vt 0.734555 0.106726
vt 0.724541 0.032791
vt 0.813647 0.052618
vt 0.868992 0.081539
vt 0.913398 0.129584
vt 0.940923 0.205307
vt 0.839504 0.292557
vt 0.813647 0.357995
vt 0.724541 0.377822
vt 0.734555 0.303887
vt 0.913398 0.281029
vt 0.868992 0.329074
vt 0.369475 0.299954
vt 0.368286 0.370940
vt 0.245840 0.351447
vt 0.246397 0.288815
vt 0.246768 0.205307
vt 0.370268 0.205307
vt 0.494283 0.205307
vt 0.492822 0.304944
vt 0.490632 0.379672
vt 0.369475 0.110659
vt 0.246397 0.121798
vt 0.245841 0.059166
vt 0.368286 0.039673
vt 0.490632 0.030941
vt 0.492822 0.105669
vt 0.616755 0.103478
vt 0.619174 0.205307
vt 0.613127 0.027106
vt 0.616755 0.307135
vt 0.613126 0.383507
vt 0.123273 0.268175
vt 0.123047 0.315326
vt 0.054743 0.283353
vt 0.030912 0.249131
vt 0.030973 0.205306
vt 0.123423 0.205306
vt 0.123273 0.142438
vt 0.030912 0.161481
vt 0.054744 0.127260
vt 0.123047 0.095287
vt 0.839504 0.118056
vt 0.856743 0.205307
vt 0.968983 0.205307
vt 0.938030 0.133427
vt 0.876123 0.061548
vt 0.805028 0.030806
vt 0.721203 0.008146
vt 0.734555 0.106726
vt 0.741230 0.205307
vt 0.839504 0.292557
vt 0.805028 0.379807
vt 0.876123 0.349065
vt 0.938030 0.277186
vt 0.734555 0.303887
vt 0.721203 0.402467
vt 0.369475 0.299954
vt 0.367890 0.394602
vt 0.489902 0.404581
vt 0.492822 0.304944
vt 0.494283 0.205307
vt 0.370268 0.205307
vt 0.246768 0.205307
vt 0.246397 0.288815
vt 0.245655 0.372324
vt 0.369475 0.110659
vt 0.492822 0.105669
vt 0.489902 0.006032
vt 0.367890 0.016011
vt 0.245655 0.038289
vt 0.246397 0.121798
vt 0.616755 0.103478
vt 0.619174 0.205307
vt 0.611917 0.001649
vt 0.616755 0.307135
vt 0.611917 0.408964
vt 0.123273 0.268175
vt 0.122972 0.331043
vt 0.123423 0.205306
vt 0.000156 0.205306
vt 0.000125 0.242784
vt 0.000064 0.280261
vt 0.123273 0.142438
vt 0.122972 0.079570
vt 0.000064 0.130352
vt 0.000125 0.167829
vt 0.122972 0.331043
vt 0.030806 0.283587
vt 0.245655 0.372324
vt 0.030806 0.283587
vt 0.000125 0.167829
vt 0.030806 0.127026
vt 0.000156 0.205306
vt 0.030806 0.127026
vt 0.805028 0.030806
vt 0.873826 0.071832
vt 0.721203 0.008146
vt 0.873826 0.071832
vt 0.938030 0.277186
vt 0.873826 0.338781
vt 0.968983 0.205307
vt 0.873826 0.338781
vt 0.805028 0.379807
vt 0.721203 0.402467
vt 0.000125 0.242784
vt 0.122972 0.079570
vt 0.245655 0.038289
vt 0.938030 0.133427
vt 0.611917 0.001649
vt 0.489902 0.006032
vt 0.611917 0.408964
vt 0.489902 0.404581
vt 0.367890 0.394602
vt 0.367890 0.016011
f 1/1/1 2/2/2 3/3/3
f 1/1/1 3/3/3 4/4/4
f 1/1/1 4/4/4 5/5/5
f 1/1/1 5/5/5 6/6/6
f 1/1/1 6/6/6 7/7/7
f 1/1/1 7/7/7 8/8/8
f 1/1/1 8/8/8 9/9/9
f 1/1/1 9/9/9 2/2/2
f 10/10/10 11/11/11 12/12/12
f 10/10/10 12/12/12 13/13/13
f 10/10/10 13/13/13 3/3/3
f 10/10/10 3/3/3 2/2/2
f 10/10/10 2/2/2 9/9/9
f 10/10/10 9/9/9 14/14/14
f 10/10/10 14/14/14 15/15/15
f 10/10/10 15/15/15 11/11/11
f 16/16/16 17/17/17 18/18/18
f 16/16/16 18/18/18 19/19/19
f 16/16/16 19/19/19 20/20/20
f 16/16/16 20/20/20 21/21/21
f 16/16/16 21/21/21 22/22/22
f 16/16/16 22/22/22 23/23/23
f 16/16/16 23/23/23 24/24/24
f 16/16/16 24/24/24 17/17/17
f 25/25/25 21/21/21 20/20/20
f 25/25/25 20/20/20 26/26/26
f 25/25/25 26/26/26 27/27/27
f 25/25/25 27/27/27 28/28/28
f 25/25/25 28/28/28 29/29/29
f 25/25/25 29/29/29 30/30/30
f 25/25/25 30/30/30 22/22/22
f 25/25/25 22/22/22 21/21/21
f 31/31/31 32/32/32 22/22/22
f 31/31/31 22/22/22 30/30/30
f 31/31/31 30/30/30 29/29/29
f 31/31/31 29/29/29 33/33/33
f 31/31/31 33/33/33 5/5/5
f 31/31/31 5/5/5 4/4/4
f 31/31/31 4/4/4 3/3/3
f 31/31/31 3/3/3 32/32/32
f 34/34/34 35/35/35 24/24/24
f 34/34/34 24/24/24 23/23/23
f 34/34/34 23/23/23 22/22/22
f 34/34/34 22/22/22 32/32/32
f 34/34/34 32/32/32 3/3/3
f 34/34/34 3/3/3 13/13/13
f 34/34/34 13/13/13 12/12/12
f 34/34/34 12/12/12 35/35/35
f 36/36/36 37/37/37 38/38/38
f 36/36/36 38/38/38 39/39/39
f 36/36/36 39/39/39 40/40/40
f 36/36/36 40/40/40 41/41/41
f 36/36/36 41/41/41 20/20/20
f 36/36/36 20/20/20 19/19/19
f 36/36/36 19/19/19 18/18/18
f 36/36/36 18/18/18 37/37/37
f 42/42/42 41/41/41 40/40/40
f 42/42/42 40/40/40 43/43/43
f 42/42/42 43/43/43 44/44/44
f 42/42/42 44/44/44 45/45/45
f 42/42/42 45/45/45 27/27/27
f 42/42/42 27/27/27 26/26/26
f 42/42/42 26/26/26 20/20/20
f 42/42/42 20/20/20 41/41/41
f 46/46/46 47/47/47 48/48/48
f 46/46/46 48/48/48 49/49/49
f 46/46/46 49/49/49 50/50/50
f 46/46/46 50/50/50 51/51/51
f 46/46/46 51/51/51 52/52/52
f 46/46/46 52/52/52 53/53/53
f 46/46/46 53/53/53 54/54/54
f 46/46/46 54/54/54 47/47/47
f 55/55/55 56/56/56 57/57/57
f 55/55/55 57/57/57 58/58/58
f 55/55/55 58/58/58 48/48/48
f 55/55/55 48/48/48 47/47/47
f 55/55/55 47/47/47 54/54/54
f 55/55/55 54/54/54 59/59/59
f 55/55/55 59/59/59 60/60/60
f 55/55/55 60/60/60 56/56/56
f 61/61/61 62/62/62 63/63/63
f 61/61/61 63/63/63 64/64/64
f 61/61/61 64/64/64 65/65/65
f 61/61/61 65/65/65 66/66/66
f 61/61/61 66/66/66 67/67/67
f 61/61/61 67/67/67 68/68/68
f 61/61/61 68/68/68 69/69/69
f 61/61/61 69/69/69 62/62/62
f 70/70/70 66/66/66 65/65/65
f 70/70/70 65/65/65 71/71/71
f 70/70/70 71/71/71 72/72/72
f 70/70/70 72/72/72 73/73/73
f 70/70/70 73/73/73 74/74/74
f 70/70/70 74/74/74 75/75/75
f 70/70/70 75/75/75 67/67/67
f 70/70/70 67/67/67 66/66/66
f 76/76/76 77/77/77 54/54/54
f 76/76/76 54/54/54 53/53/53
f 76/76/76 53/53/53 52/52/52
f 76/76/76 52/52/52 78/78/78
f 76/76/76 78/78/78 72/72/72
f 76/76/76 72/72/72 71/71/71
f 76/76/76 71/71/71 65/65/65
f 76/76/76 65/65/65 77/77/77
f 79/79/79 80/80/80 60/60/60
f 79/79/79 60/60/60 59/59/59
f 79/79/79 59/59/59 54/54/54
f 79/79/79 54/54/54 77/77/77
f 79/79/79 77/77/77 65/65/65
f 79/79/79 65/65/65 64/64/64
f 79/79/79 64/64/64 63/63/63
f 79/79/79 63/63/63 80/80/80
f 81/81/81 82/82/82 69/69/69
f 81/81/81 69/69/69 68/68/68
f 81/81/81 68/68/68 67/67/67
f 81/81/81 67/67/67 83/83/83
f 81/81/81 83/83/83 84/84/84
f 81/81/81 84/84/84 85/85/85
f 81/81/81 85/85/85 86/86/86
f 81/81/81 86/86/86 82/82/82
f 87/87/87 83/83/83 67/67/67
f 87/87/87 67/67/67 75/75/75
f 87/87/87 75/75/75 74/74/74
f 87/87/87 74/74/74 88/88/88
f 87/87/87 88/88/88 89/89/89
f 87/87/87 89/89/89 90/90/90
f 87/87/87 90/90/90 84/84/84
f 87/87/87 84/84/84 83/83/83
f 91/91/91 92/92/92 38/38/38
f 91/91/91 38/38/38 37/37/37
f 91/91/91 37/37/37 18/18/18
f 91/91/91 18/18/18 93/93/93
f 91/91/91 93/93/93 69/69/69
f 91/91/91 69/69/69 82/82/82
f 91/91/91 82/82/82 94/94/94
f 91/91/91 94/94/94 92/92/92
f 95/95/95 96/96/96 44/44/44
f 95/95/95 44/44/44 43/43/43
f 95/95/95 43/43/43 40/40/40
f 95/95/95 40/40/40 97/97/97
f 95/95/95 97/97/97 84/84/84
f 95/95/95 84/84/84 90/90/90
f 95/95/95 90/90/90 98/98/98
f 95/95/95 98/98/98 96/96/96
f 99/99/99 100/100/100 7/7/7
f 99/99/99 7/7/7 6/6/6
f 99/99/99 6/6/6 5/5/5
f 99/99/99 5/5/5 101/101/101
f 99/99/99 101/101/101 52/52/52
f 99/99/99 52/52/52 51/51/51
f 99/99/99 51/51/51 102/102/102
f 99/99/99 102/102/102 100/100/100
f 103/103/103 104/104/104 15/15/15
f 103/103/103 15/15/15 14/14/14
f 103/103/103 14/14/14 9/9/9
f 103/103/103 9/9/9 105/105/105
f 103/103/103 105/105/105 48/48/48
f 103/103/103 48/48/48 58/58/58
f 103/103/103 58/58/58 106/106/106
f 103/103/103 106/106/106 104/104/104
f 107/107/107 108/108/108 12/12/12
f 107/107/107 12/12/12 11/11/11
f 107/107/107 11/11/11 15/15/15
f 107/107/107 15/15/15 104/104/104
f 107/107/107 104/104/104 106/106/106
f 107/107/107 106/106/106 56/56/56
f 107/107/107 56/56/56 60/60/60
f 107/107/107 60/60/60 108/108/108
f 109/109/109 97/97/97 40/40/40
f 109/109/109 40/40/40 39/39/39
f 109/109/109 39/39/39 38/38/38
f 109/109/109 38/38/38 92/92/92
f 109/109/109 92/92/92 94/94/94
f 109/109/109 94/94/94 85/85/85
f 109/109/109 85/85/85 84/84/84
f 109/109/109 84/84/84 97/97/97
f 110/110/110 111/111/111 27/27/27
f 110/110/110 27/27/27 45/45/45
f 110/110/110 45/45/45 44/44/44
f 110/110/110 44/44/44 96/96/96
f 110/110/110 96/96/96 98/98/98
f 110/110/110 98/98/98 88/88/88
f 110/110/110 88/88/88 74/74/74
f 110/110/110 74/74/74 111/111/111
f 112/112/112 105/105/105 9/9/9
f 112/112/112 9/9/9 8/8/8
f 112/112/112 8/8/8 7/7/7
f 112/112/112 7/7/7 100/100/100
f 112/112/112 100/100/100 102/102/102
f 112/112/112 102/102/102 49/49/49
f 112/112/112 49/49/49 48/48/48
f 112/112/112 48/48/48 105/105/105
f 113/113/113 101/101/101 5/5/5
f 113/113/113 5/5/5 33/33/33
f 113/113/113 33/33/33 29/29/29
f 113/113/113 29/29/29 114/114/114
f 113/113/113 114/114/114 72/72/72
f 113/113/113 72/72/72 78/78/78
f 113/113/113 78/78/78 52/52/52
f 113/113/113 52/52/52 101/101/101
f 115/115/115 116/116/116 24/24/24
f 115/115/115 24/24/24 35/35/35
f 115/115/115 35/35/35 12/12/12
f 115/115/115 12/12/12 108/108/108
f 115/115/115 108/108/108 60/60/60
f 115/115/115 60/60/60 80/80/80
f 115/115/115 80/80/80 63/63/63
f 115/115/115 63/63/63 116/116/116
f 117/117/117 93/93/93 18/18/18
f 117/117/117 18/18/18 17/17/17
f 117/117/117 17/17/17 24/24/24
f 117/117/117 24/24/24 116/116/116
f 117/117/117 116/116/116 63/63/63
f 117/117/117 63/63/63 62/62/62
f 117/117/117 62/62/62 69/69/69
f 117/117/117 69/69/69 93/93/93
f 118/118/118 114/114/114 29/29/29
f 118/118/118 29/29/29 28/28/28
f 118/118/118 28/28/28 27/27/27
f 118/118/118 27/27/27 111/111/111
f 118/118/118 111/111/111 74/74/74
f 118/118/118 74/74/74 73/73/73
f 118/118/118 73/73/73 72/72/72
f 118/118/118 72/72/72 114/114/114
