v -2.355205 0.704322 -1.08679
v -2.353197 0.70461 -1.087726
v -2.354891 0.704022 -1.090098
v -2.356967 0.7037 -1.088773
v -2.358676 0.703633 -1.087888
v -2.356982 0.704252 -1.086358
v -2.355545 0.704507 -1.085639
v -2.353858 0.70467 -1.085434
v -2.351923 0.704943 -1.085986
v -2.351918 0.705363 -1.089396
v -2.351218 0.706078 -1.090928
v -2.352128 0.705708 -1.093079
v -2.353232 0.704884 -1.091734
v -2.351013 0.705571 -1.08769
v -2.350877 0.705986 -1.08934
v -2.357985 0.701508 -1.098996
v -2.356728 0.702141 -1.100159
v -2.358475 0.700434 -1.102237
v -2.35958 0.699863 -1.101203
v -2.361113 0.69921 -1.099869
v -2.359727 0.70078 -1.097493
v -2.358245 0.702155 -1.095074
v -2.356432 0.702937 -1.09665
v -2.355131 0.703629 -1.097873
v -2.361645 0.700348 -1.096094
v -2.362816 0.698837 -1.098636
v -2.364147 0.698636 -1.097739
v -2.363141 0.700109 -1.095074
v -2.36184 0.701504 -1.092554
v -2.36026 0.701723 -1.093614
v -2.358677 0.702837 -1.09111
v -2.356604 0.70322 -1.092579
v -2.360323 0.702698 -1.090055
v -2.354792 0.704068 -1.09419
v -2.353515 0.704855 -1.095453
v -2.361342 0.698084 -1.103241
v -2.360543 0.698552 -1.10403
v -2.361871 0.697345 -1.104817
v -2.36271 0.696675 -1.104701
v -2.363455 0.696277 -1.103995
v -2.362467 0.697565 -1.102233
v -2.363757 0.697318 -1.101326
v -2.364366 0.69615 -1.103389
v -2.364849 0.696401 -1.102455
v -2.364778 0.69721 -1.100672
v -2.355153 0.704096 -1.086761
v -2.353119 0.70439 -1.087716
v -2.351867 0.704777 -1.085982
v -2.353822 0.7045 -1.085414
v -2.355523 0.70438 -1.085619
v -2.356955 0.704081 -1.086326
v -2.358642 0.703464 -1.087852
v -2.356907 0.703477 -1.088737
v -2.354809 0.703804 -1.090081
v -2.351817 0.705153 -1.089406
v -2.35113 0.705927 -1.090945
v -2.350816 0.705872 -1.089351
v -2.350938 0.705414 -1.0877
v -2.353128 0.704675 -1.091734
v -2.352039 0.705556 -1.093087
v -2.357864 0.701311 -1.098956
v -2.356629 0.701996 -1.100136
v -2.355037 0.703482 -1.097858
v -2.356316 0.702735 -1.096621
v -2.358146 0.701947 -1.095032
v -2.359621 0.700577 -1.097441
v -2.361003 0.699012 -1.099809
v -2.359454 0.69967 -1.101156
v -2.358373 0.700292 -1.102208
v -2.361556 0.700141 -1.096029
v -2.360178 0.701511 -1.093559
v -2.361787 0.701343 -1.092506
v -2.363082 0.699952 -1.09502
v -2.364085 0.698482 -1.097679
v -2.362722 0.698634 -1.098564
v -2.358605 0.702619 -1.091066
v -2.356513 0.703006 -1.092549
v -2.36028 0.702532 -1.090014
v -2.354682 0.703862 -1.094176
v -2.353424 0.704705 -1.09545
v -2.361213 0.697893 -1.103193
v -2.360438 0.698413 -1.104001
v -2.362355 0.697368 -1.102171
v -2.363371 0.696129 -1.103948
v -2.362613 0.696533 -1.104665
v -2.361795 0.697241 -1.104793
v -2.363663 0.697117 -1.10125
v -2.364717 0.697057 -1.100609
v -2.364801 0.696288 -1.10241
v -2.364295 0.695999 -1.103331
v -2.360228 0.698647 -1.104282
v -2.362129 0.697017 -1.10528
v -2.35806 0.700562 -1.10257
v -2.361795 0.697241 -1.104793
v -2.364537 0.695694 -1.104051
v -2.365113 0.696071 -1.102914
v -2.363747 0.695782 -1.104561
v -2.364801 0.696288 -1.10241
v -2.357565 0.704152 -1.086198
v -2.355677 0.704515 -1.085386
v -2.359233 0.703535 -1.087575
v -2.355523 0.70438 -1.085619
v -2.350678 0.70557 -1.087126
v -2.350627 0.706115 -1.08939
v -2.351474 0.70498 -1.085405
v -2.350816 0.705872 -1.089351
v -2.350943 0.706251 -1.091448
v -2.351718 0.705916 -1.093533
v -2.363123 0.696142 -1.105172
v -2.365093 0.697106 -1.100425
v -2.364565 0.698501 -1.097413
v -2.353393 0.70471 -1.084973
v -2.360855 0.702577 -1.089684
v -2.362345 0.701358 -1.092178
v -2.353047 0.705051 -1.095875
v -2.354654 0.703796 -1.098275
v -2.356263 0.702289 -1.100538
v -2.363615 0.699959 -1.094709
vn -0.1411 0.9792 -0.1457
vn -0.301 0.9536 0.0015
vn -0.3349 0.9411 -0.0462
vn -0.1936 0.9644 -0.1798
vn -0.2151 0.9571 -0.1942
vn -0.1479 0.9788 -0.1413
vn -0.1003 0.9896 -0.1026
vn -0.1197 0.9916 -0.0479
vn -0.2459 0.9663 0.076
vn -0.4705 0.8748 0.1154
vn -0.4652 0.8783 0.1103
vn -0.4953 0.8683 0.0279
vn -0.4881 0.8711 0.0536
vn -0.3885 0.9065 0.1652
vn -0.441 0.8817 0.1675
vn -0.5439 0.8201 -0.1779
vn -0.5211 0.8279 -0.2074
vn -0.5332 0.813 -0.2336
vn -0.5643 0.8014 -0.198
vn -0.4833 0.8302 -0.2777
vn -0.4643 0.8509 -0.2456
vn -0.4238 0.8877 -0.1797
vn -0.5173 0.8486 -0.111
vn -0.5064 0.8506 -0.1414
vn -0.3786 0.8725 -0.309
vn -0.3869 0.8576 -0.3386
vn -0.4287 0.8462 -0.3165
vn -0.4121 0.8624 -0.2939
vn -0.3621 0.8963 -0.2557
vn -0.3318 0.9074 -0.258
vn -0.2625 0.9419 -0.2095
vn -0.3755 0.9208 -0.1056
vn -0.2898 0.9313 -0.2206
vn -0.4963 0.8678 -0.0241
vn -0.4983 0.8652 -0.0553
vn -0.5883 0.7854 -0.1923
vn -0.5577 0.7964 -0.2339
vn -0.5873 0.7771 -0.2263
vn -0.6268 0.7474 -0.2203
vn -0.5151 0.7893 -0.3342
vn -0.4919 0.82 -0.2926
vn -0.3721 0.8539 -0.3637
vn -0.3778 0.8262 -0.4179
vn -0.4004 0.8362 -0.3746
vn -0.4191 0.8403 -0.3439
vn 0.1317 -0.9746 0.1808
vn 0.3105 -0.9505 0.0116
vn 0.346 -0.9361 0.0623
vn 0.0999 -0.9541 0.2824
vn 0.0171 -0.9295 0.3684
vn 0.0321 -0.9371 0.3475
vn 0.0916 -0.9463 0.3102
vn 0.1821 -0.9648 0.1899
vn 0.3349 -0.9411 0.0461
vn 0.5025 -0.8571 -0.1131
vn 0.6572 -0.739 -0.148
vn 0.6758 -0.7208 -0.1539
vn 0.5929 -0.7979 -0.1086
vn 0.4993 -0.8642 -0.0615
vn 0.617 -0.7797 -0.1064
vn 0.5547 -0.8151 0.1668
vn 0.625 -0.7757 0.0875
vn 0.6072 -0.7935 0.0392
vn 0.5276 -0.8434 0.1013
vn 0.4239 -0.8877 0.1798
vn 0.4645 -0.8508 0.2457
vn 0.4833 -0.8302 0.2778
vn 0.5759 -0.7967 0.1835
vn 0.6416 -0.7635 0.073
vn 0.3648 -0.8753 0.3173
vn 0.3194 -0.9094 0.2664
vn 0.2318 -0.9125 0.3369
vn 0.2666 -0.8892 0.3716
vn 0.2464 -0.8888 0.3864
vn 0.37 -0.8619 0.3467
vn 0.2506 -0.9431 0.2181
vn 0.3755 -0.9208 0.1056
vn 0.1648 -0.9367 0.3088
vn 0.5065 -0.8621 0.0153
vn 0.6007 -0.7986 -0.0368
vn 0.5969 -0.7859 0.161
vn 0.6575 -0.7533 0.0107
vn 0.4867 -0.8263 0.2836
vn 0.463 -0.8523 0.2433
vn 0.6114 -0.789 0.0598
vn 0.6626 -0.7483 -0.031
vn 0.3422 -0.8667 0.363
vn 0.1829 -0.9037 0.387
vn 0.142 -0.9132 0.3818
vn 0.2482 -0.9041 0.3478
vn 0.4308 0.2014 -0.8796
vn 0.092 -0.0043 -0.9957
vn 0.5511 0.2542 -0.7948
vn 0.6626 -0.7483 -0.031
vn -0.617 -0.517 -0.5932
vn -0.9259 -0.3272 -0.1889
vn -0.37 -0.6023 -0.7074
vn 0.142 -0.9132 0.3818
vn -0.6046 0.1637 0.7795
vn -0.3205 0.2306 0.9187
vn -0.7495 0.0697 0.6583
vn 0.0171 -0.9295 0.3684
vn 0.8468 0.357 0.3943
vn 0.8084 0.5881 0.0235
vn 0.5949 0.1138 0.7956
vn 0.6758 -0.7208 -0.1539
vn 0.7496 0.5929 -0.2941
vn 0.6956 0.5277 -0.4874
vn -0.258 -0.4033 -0.8779
vn -0.9481 -0.2355 0.2135
vn -0.9084 -0.2084 0.3623
vn 0.0986 0.12 0.9879
vn -0.8225 -0.0217 0.5683
vn -0.8511 -0.0868 0.5177
vn 0.6579 0.4474 -0.6058
vn 0.64 0.3858 -0.6645
vn 0.6178 0.3218 -0.7174
vn -0.8728 -0.1508 0.4641
vt 0.839504 0.118056
vt 0.856743 0.205307
vt 0.741230 0.205307
vt 0.734555 0.106726
vt 0.724541 0.032791
vt 0.813647 0.052618
vt 0.868992 0.081539
vt 0.913398 0.129584
vt 0.940923 0.205307
vt 0.839504 0.292557
vt 0.813647 0.357995
vt 0.724541 0.377822
vt 0.734555 0.303887
vt 0.913398 0.281029
vt 0.868992 0.329074
vt 0.369475 0.299954
vt 0.368286 0.370940
vt 0.245840 0.351447
vt 0.246397 0.288815
vt 0.246768 0.205307
vt 0.370268 0.205307
vt 0.494283 0.205307
vt 0.492822 0.304944
vt 0.490632 0.379672
vt 0.369475 0.110659
vt 0.246397 0.121798
vt 0.245841 0.059166
vt 0.368286 0.039673
vt 0.490632 0.030941
vt 0.492822 0.105669
vt 0.616755 0.103478
vt 0.619174 0.205307
vt 0.613127 0.027106
vt 0.616755 0.307135
vt 0.613126 0.383507
vt 0.123273 0.268175
vt 0.123047 0.315326
vt 0.054743 0.283353
vt 0.030912 0.249131
vt 0.030973 0.205306
vt 0.123423 0.205306
vt 0.123273 0.142438
vt 0.030912 0.161481
vt 0.054744 0.127260
vt 0.123047 0.095287
vt 0.839504 0.118056
vt 0.856743 0.205307
vt 0.968983 0.205307
vt 0.938030 0.133427
vt 0.876123 0.061548
vt 0.805028 0.030806
vt 0.721203 0.008146
vt 0.734555 0.106726
vt 0.741230 0.205307
vt 0.839504 0.292557
vt 0.805028 0.379807
vt 0.876123 0.349065
vt 0.938030 0.277186
vt 0.734555 0.303887
vt 0.721203 0.402467
vt 0.369475 0.299954
vt 0.367890 0.394602
vt 0.489902 0.404581
vt 0.492822 0.304944
vt 0.494283 0.205307
vt 0.370268 0.205307
vt 0.246768 0.205307
vt 0.246397 0.288815
vt 0.245655 0.372324
vt 0.369475 0.110659
vt 0.492822 0.105669
vt 0.489902 0.006032
vt 0.367890 0.016011
vt 0.245655 0.038289
vt 0.246397 0.121798
vt 0.616755 0.103478
vt 0.619174 0.205307
vt 0.611917 0.001649
vt 0.616755 0.307135
vt 0.611917 0.408964
vt 0.123273 0.268175
vt 0.122972 0.331043
vt 0.123423 0.205306
vt 0.000156 0.205306
vt 0.000125 0.242784
vt 0.000064 0.280261
vt 0.123273 0.142438
vt 0.122972 0.079570
vt 0.000064 0.130352
vt 0.000125 0.167829
vt 0.122972 0.331043
vt 0.030806 0.283587
vt 0.245655 0.372324
vt 0.030806 0.283587
vt 0.000125 0.167829
vt 0.030806 0.127026
vt 0.000156 0.205306
vt 0.030806 0.127026
vt 0.805028 0.030806
vt 0.873826 0.071832
vt 0.721203 0.008146
vt 0.873826 0.071832
vt 0.938030 0.277186
vt 0.873826 0.338781
vt 0.968983 0.205307
vt 0.873826 0.338781
vt 0.805028 0.379807
vt 0.721203 0.402467
vt 0.000125 0.242784
vt 0.122972 0.079570
vt 0.245655 0.038289
vt 0.938030 0.133427
vt 0.611917 0.001649
vt 0.489902 0.006032
vt 0.611917 0.408964
vt 0.489902 0.404581
vt 0.367890 0.394602
vt 0.367890 0.016011
f 1/1/1 2/2/2 3/3/3
f 1/1/1 3/3/3 4/4/4
f 1/1/1 4/4/4 5/5/5
f 1/1/1 5/5/5 6/6/6
f 1/1/1 6/6/6 7/7/7
f 1/1/1 7/7/7 8/8/8
f 1/1/1 8/8/8 9/9/9
f 1/1/1 9/9/9 2/2/2
f 10/10/10 11/11/11 12/12/12
f 10/10/10 12/12/12 13/13/13
f 10/10/10 13/13/13 3/3/3
f 10/10/10 3/3/3 2/2/2
f 10/10/10 2/2/2 9/9/9
f 10/10/10 9/9/9 14/14/14
f 10/10/10 14/14/14 15/15/15
f 10/10/10 15/15/15 11/11/11
f 16/16/16 17/17/17 18/18/18
f 16/16/16 18/18/18 19/19/19
f 16/16/16 19/19/19 20/20/20
f 16/16/16 20/20/20 21/21/21
f 16/16/16 21/21/21 22/22/22
f 16/16/16 22/22/22 23/23/23
f 16/16/16 23/23/23 24/24/24
f 16/16/16 24/24/24 17/17/17
f 25/25/25 21/21/21 20/20/20
f 25/25/25 20/20/20 26/26/26
f 25/25/25 26/26/26 27/27/27
f 25/25/25 27/27/27 28/28/28
f 25/25/25 28/28/28 29/29/29
f 25/25/25 29/29/29 30/30/30
f 25/25/25 30/30/30 22/22/22
f 25/25/25 22/22/22 21/21/21
f 31/31/31 32/32/32 22/22/22
f 31/31/31 22/22/22 30/30/30
f 31/31/31 30/30/30 29/29/29
f 31/31/31 29/29/29 33/33/33
f 31/31/31 33/33/33 5/5/5
f 31/31/31 5/5/5 4/4/4
f 31/31/31 4/4/4 3/3/3
f 31/31/31 3/3/3 32/32/32
f 34/34/34 35/35/35 24/24/24
f 34/34/34 24/24/24 23/23/23
f 34/34/34 23/23/23 22/22/22
f 34/34/34 22/22/22 32/32/32
f 34/34/34 32/32/32 3/3/3
f 34/34/34 3/3/3 13/13/13
f 34/34/34 13/13/13 12/12/12
f 34/34/34 12/12/12 35/35/35
f 36/36/36 37/37/37 38/38/38
f 36/36/36 38/38/38 39/39/39
f 36/36/36 39/39/39 40/40/40
f 36/36/36 40/40/40 41/41/41
f 36/36/36 41/41/41 20/20/20
f 36/36/36 20/20/20 19/19/19
f 36/36/36 19/19/19 18/18/18
f 36/36/36 18/18/18 37/37/37
f 42/42/42 41/41/41 40/40/40
f 42/42/42 40/40/40 43/43/43
f 42/42/42 43/43/43 44/44/44
f 42/42/42 44/44/44 45/45/45
f 42/42/42 45/45/45 27/27/27
f 42/42/42 27/27/27 26/26/26
f 42/42/42 26/26/26 20/20/20
f 42/42/42 20/20/20 41/41/41
f 46/46/46 47/47/47 48/48/48
f 46/46/46 48/48/48 49/49/49
f 46/46/46 49/49/49 50/50/50
f 46/46/46 50/50/50 51/51/51
f 46/46/46 51/51/51 52/52/52
f 46/46/46 52/52/52 53/53/53
f 46/46/46 53/53/53 54/54/54
f 46/46/46 54/54/54 47/47/47
f 55/55/55 56/56/56 57/57/57
f 55/55/55 57/57/57 58/58/58
f 55/55/55 58/58/58 48/48/48
f 55/55/55 48/48/48 47/47/47
f 55/55/55 47/47/47 54/54/54
f 55/55/55 54/54/54 59/59/59
f 55/55/55 59/59/59 60/60/60
f 55/55/55 60/60/60 56/56/56
f 61/61/61 62/62/62 63/63/63
f 61/61/61 63/63/63 64/64/64
f 61/61/61 64/64/64 65/65/65
f 61/61/61 65/65/65 66/66/66
f 61/61/61 66/66/66 67/67/67
f 61/61/61 67/67/67 68/68/68
f 61/61/61 68/68/68 69/69/69
f 61/61/61 69/69/69 62/62/62
f 70/70/70 66/66/66 65/65/65
f 70/70/70 65/65/65 71/71/71
f 70/70/70 71/71/71 72/72/72
f 70/70/70 72/72/72 73/73/73
f 70/70/70 73/73/73 74/74/74
f 70/70/70 74/74/74 75/75/75
f 70/70/70 75/75/75 67/67/67
f 70/70/70 67/67/67 66/66/66
f 76/76/76 77/77/77 54/54/54
f 76/76/76 54/54/54 53/53/53
f 76/76/76 53/53/53 52/52/52
f 76/76/76 52/52/52 78/78/78
f 76/76/76 78/78/78 72/72/72
f 76/76/76 72/72/72 71/71/71
f 76/76/76 71/71/71 65/65/65
f 76/76/76 65/65/65 77/77/77
f 79/79/79 80/80/80 60/60/60
f 79/79/79 60/60/60 59/59/59
f 79/79/79 59/59/59 54/54/54
f 79/79/79 54/54/54 77/77/77
f 79/79/79 77/77/77 65/65/65
f 79/79/79 65/65/65 64/64/64
f 79/79/79 64/64/64 63/63/63
f 79/79/79 63/63/63 80/80/80
f 81/81/81 82/82/82 69/69/69
f 81/81/81 69/69/69 68/68/68
f 81/81/81 68/68/68 67/67/67
f 81/81/81 67/67/67 83/83/83
f 81/81/81 83/83/83 84/84/84
f 81/81/81 84/84/84 85/85/85
f 81/81/81 85/85/85 86/86/86
f 81/81/81 86/86/86 82/82/82
f 87/87/87 83/83/83 67/67/67
f 87/87/87 67/67/67 75/75/75
f 87/87/87 75/75/75 74/74/74
f 87/87/87 74/74/74 88/88/88
f 87/87/87 88/88/88 89/89/89
f 87/87/87 89/89/89 90/90/90
f 87/87/87 90/90/90 84/84/84
f 87/87/87 84/84/84 83/83/83
f 91/91/91 92/92/92 38/38/38
f 91/91/91 38/38/38 37/37/37
f 91/91/91 37/37/37 18/18/18
f 91/91/91 18/18/18 93/93/93
f 91/91/91 93/93/93 69/69/69
f 91/91/91 69/69/69 82/82/82
f 91/91/91 82/82/82 94/94/94
f 91/91/91 94/94/94 92/92/92
f 95/95/95 96/96/96 44/44/44
f 95/95/95 44/44/44 43/43/43
f 95/95/95 43/43/43 40/40/40
f 95/95/95 40/40/40 97/97/97
f 95/95/95 97/97/97 84/84/84
f 95/95/95 84/84/84 90/90/90
f 95/95/95 90/90/90 98/98/98
f 95/95/95 98/98/98 96/96/96
f 99/99/99 100/100/100 7/7/7
f 99/99/99 7/7/7 6/6/6
f 99/99/99 6/6/6 5/5/5
f 99/99/99 5/5/5 101/101/101
f 99/99/99 101/101/101 52/52/52
f 99/99/99 52/52/52 51/51/51
f 99/99/99 51/51/51 102/102/102
f 99/99/99 102/102/102 100/100/100
f 103/103/103 104/104/104 15/15/15
f 103/103/103 15/15/15 14/14/14
f 103/103/103 14/14/14 9/9/9
f 103/103/103 9/9/9 105/105/105
f 103/103/103 105/105/105 48/48/48
f 103/103/103 48/48/48 58/58/58
f 103/103/103 58/58/58 106/106/106
f 103/103/103 106/106/106 104/104/104
f 107/107/107 108/108/108 12/12/12
f 107/107/107 12/12/12 11/11/11
f 107/107/107 11/11/11 15/15/15
f 107/107/107 15/15/15 104/104/104
f 107/107/107 104/104/104 106/106/106
f 107/107/107 106/106/106 56/56/56
f 107/107/107 56/56/56 60/60/60
f 107/107/107 60/60/60 108/108/108
f 109/109/109 97/97/97 40/40/40
f 109/109/109 40/40/40 39/39/39
f 109/109/109 39/39/39 38/38/38
f 109/109/109 38/38/38 92/92/92
f 109/109/109 92/92/92 94/94/94
f 109/109/109 94/94/94 85/85/85
f 109/109/109 85/85/85 84/84/84
f 109/109/109 84/84/84 97/97/97
f 110/110/110 111/111/111 27/27/27
f 110/110/110 27/27/27 45/45/45
f 110/110/110 45/45/45 44/44/44
f 110/110/110 44/44/44 96/96/96
f 110/110/110 96/96/96 98/98/98
f 110/110/110 98/98/98 88/88/88
f 110/110/110 88/88/88 74/74/74
f 110/110/110 74/74/74 111/111/111
f 112/112/112 105/105/105 9/9/9
f 112/112/112 9/9/9 8/8/8
f 112/112/112 8/8/8 7/7/7
f 112/112/112 7/7/7 100/100/100
f 112/112/112 100/100/100 102/102/102
f 112/112/112 102/102/102 49/49/49
f 112/112/112 49/49/49 48/48/48
f 112/112/112 48/48/48 105/105/105
f 113/113/113 101/101/101 5/5/5
f 113/113/113 5/5/5 33/33/33
f 113/113/113 33/33/33 29/29/29
f 113/113/113 29/29/29 114/114/114
f 113/113/113 114/114/114 72/72/72
f 113/113/113 72/72/72 78/78/78
f 113/113/113 78/78/78 52/52/52
f 113/113/113 52/52/52 101/101/101
f 115/115/115 116/116/116 24/24/24
f 115/115/115 24/24/24 35/35/35
f 115/115/115 35/35/35 12/12/12
f 115/115/115 12/12/12 108/108/108
f 115/115/115 108/108/108 60/60/60
f 115/115/115 60/60/60 80/80/80
f 115/115/115 80/80/80 63/63/63
f 115/115/115 63/63/63 116/116/116
f 117/117/117 93/93/93 18/18/18
f 117/117/117 18/18/18 17/17/17
f 117/117/117 17/17/17 24/24/24
f 117/117/117 24/24/24 116/116/116
f 117/117/117 116/116/116 63/63/63
f 117/117/117 63/63/63 62/62/62
f 117/117/117 62/62/62 69/69/69
f 117/117/117 69/69/69 93/93/93
f 118/118/118 114/114/114 29/29/29
f 118/118/118 29/29/29 28/28/28
f 118/118/118 28/28/28 27/27/27
f 118/118/118 27/27/27 111/111/111
f 118/118/118 111/111/111 74/74/74
f 118/118/118 74/74/74 73/73/73
f 118/118/118 73/73/73 72/72/72
f 118/118/118 72/72/72 114/114/114
