v -2.467131 0.746848 -1.097569
v -2.466673 0.746763 -1.094672
v -2.46304 0.746411 -1.096063
v -2.463965 0.746465 -1.099191
v -2.46448 0.746766 -1.101648
v -2.46705 0.747164 -1.09995
v -2.46848 0.747157 -1.098362
v -2.469342 0.746976 -1.0963
v -2.469341 0.746887 -1.093635
v -2.465063 0.747454 -1.092319
v -2.463422 0.748228 -1.090742
v -2.460359 0.747974 -1.091188
v -2.461614 0.747154 -1.093224
v -2.467551 0.747501 -1.091756
v -2.465542 0.748018 -1.090906
v -2.450536 0.743938 -1.097288
v -2.449551 0.744475 -1.095168
v -2.446194 0.742686 -1.096976
v -2.447074 0.742196 -1.098846
v -2.448177 0.741697 -1.101375
v -2.451774 0.743388 -1.100153
v -2.455446 0.744807 -1.09887
v -2.454145 0.74541 -1.095878
v -2.453104 0.746015 -1.09367
v -2.45284 0.743263 -1.103135
v -2.449111 0.741598 -1.104016
v -2.449764 0.741639 -1.106037
v -2.453588 0.743292 -1.105413
v -2.457326 0.744777 -1.104387
v -2.456555 0.744704 -1.101995
v -2.460352 0.745761 -1.100673
v -2.45925 0.745787 -1.097484
v -2.461098 0.745952 -1.10313
v -2.457907 0.746477 -1.094467
v -2.456813 0.747209 -1.092254
v -2.443756 0.740317 -1.100702
v -2.443072 0.740744 -1.099323
v -2.441529 0.739495 -1.10096
v -2.441334 0.738822 -1.102194
v -2.441938 0.738474 -1.103461
v -2.4446 0.739898 -1.102576
v -2.445277 0.739871 -1.104561
v -2.442376 0.738516 -1.104838
v -2.443403 0.738945 -1.105718
v -2.445738 0.739962 -1.106089
v -2.467171 0.746544 -1.097564
v -2.466697 0.746461 -1.094627
v -2.469355 0.74666 -1.093603
v -2.469368 0.746748 -1.0963
v -2.468505 0.746988 -1.09837
v -2.467088 0.746937 -1.099966
v -2.464525 0.746539 -1.101656
v -2.464015 0.746162 -1.099177
v -2.463076 0.74611 -1.096014
v -2.465072 0.747159 -1.092235
v -2.463421 0.748012 -1.09066
v -2.465542 0.747857 -1.09085
v -2.467553 0.74728 -1.091693
v -2.461637 0.74686 -1.09314
v -2.460369 0.747758 -1.091108
v -2.450615 0.743655 -1.097195
v -2.449605 0.744265 -1.095086
v -2.453145 0.745802 -1.09359
v -2.454208 0.745122 -1.095789
v -2.45552 0.744515 -1.098807
v -2.451863 0.743101 -1.100085
v -2.448277 0.741414 -1.101303
v -2.447164 0.741917 -1.098748
v -2.446256 0.74248 -1.096891
v -2.452939 0.742974 -1.103092
v -2.456639 0.74441 -1.101959
v -2.457394 0.744556 -1.104374
v -2.453666 0.743075 -1.105394
v -2.449851 0.741426 -1.106015
v -2.449221 0.741314 -1.10397
v -2.460418 0.745462 -1.100648
v -2.459303 0.74549 -1.097429
v -2.461154 0.745728 -1.103127
v -2.457948 0.746186 -1.094381
v -2.456838 0.746993 -1.092175
v -2.44385 0.74004 -1.100602
v -2.443136 0.740539 -1.099234
v -2.444704 0.739617 -1.102503
v -2.442016 0.738263 -1.103406
v -2.441403 0.738615 -1.102118
v -2.441577 0.739343 -1.100898
v -2.445391 0.739588 -1.104515
v -2.445829 0.73975 -1.106068
v -2.443469 0.738788 -1.105699
v -2.442462 0.738305 -1.104805
v -2.442871 0.740796 -1.09882
v -2.44083 0.739134 -1.101189
v -2.445927 0.742758 -1.096312
v -2.441577 0.739343 -1.100898
v -2.441447 0.737971 -1.104916
v -2.442708 0.738583 -1.105955
v -2.441085 0.737906 -1.103731
v -2.443469 0.738788 -1.105699
v -2.467041 0.747169 -1.100755
v -2.468755 0.747196 -1.098616
v -2.464674 0.746766 -1.102474
v -2.468505 0.746988 -1.09837
v -2.46838 0.747419 -1.09154
v -2.465576 0.748128 -1.090548
v -2.470236 0.746828 -1.093276
v -2.465542 0.747857 -1.09085
v -2.462873 0.748391 -1.090176
v -2.459943 0.748152 -1.09047
v -2.440557 0.738232 -1.102657
v -2.445933 0.739898 -1.106592
v -2.450022 0.741558 -1.106704
v -2.47009 0.746918 -1.095878
v -2.461373 0.745917 -1.103951
v -2.457615 0.744703 -1.105182
v -2.456458 0.747358 -1.091478
v -2.452774 0.746122 -1.092896
v -2.449245 0.744561 -1.094422
v -2.453873 0.743205 -1.106167
vn 0.126 0.9895 0.0701
vn 0.0284 0.9916 -0.1257
vn 0.084 0.9856 -0.1469
vn 0.1736 0.9844 0.0271
vn 0.1935 0.981 0.0095
vn 0.1236 0.9904 0.0624
vn 0.0731 0.9924 0.0988
vn 0.0255 0.9975 0.0659
vn -0.0587 0.994 -0.0917
vn -0.0318 0.9433 -0.3305
vn -0.0284 0.9457 -0.3236
vn 0.0593 0.9416 -0.3312
vn 0.0325 0.9431 -0.331
vn -0.1034 0.9597 -0.2613
vn -0.0902 0.9445 -0.3158
vn 0.2729 0.9039 -0.3294
vn 0.2948 0.9077 -0.2985
vn 0.324 0.8954 -0.3054
vn 0.2987 0.8892 -0.3464
vn 0.3522 0.9038 -0.2432
vn 0.3151 0.9206 -0.2305
vn 0.2391 0.9493 -0.2038
vn 0.1999 0.9269 -0.3176
vn 0.2261 0.9272 -0.2987
vn 0.3521 0.9271 -0.1283
vn 0.3837 0.9142 -0.1307
vn 0.3741 0.9101 -0.1782
vn 0.3471 0.923 -0.1658
vn 0.2952 0.9474 -0.1233
vn 0.2888 0.9529 -0.092
vn 0.2218 0.9745 -0.0338
vn 0.1531 0.973 -0.1727
vn 0.2403 0.9689 -0.0584
vn 0.1097 0.9416 -0.3182
vn 0.1404 0.9396 -0.312
vn 0.3005 0.8776 -0.3734
vn 0.3318 0.8833 -0.3312
vn 0.3334 0.8694 -0.3646
vn 0.3396 0.8471 -0.4087
vn 0.4172 0.8694 -0.2648
vn 0.3694 0.8953 -0.249
vn 0.4041 0.908 -0.1104
vn 0.459 0.8821 -0.1057
vn 0.423 0.8957 -0.1372
vn 0.3982 0.9027 -0.1626
vn -0.1575 -0.9836 -0.0877
vn -0.0437 -0.9903 0.1316
vn -0.1028 -0.9827 0.154
vn -0.2478 -0.9583 -0.1421
vn -0.3098 -0.92 -0.2399
vn -0.2934 -0.93 -0.2213
vn -0.2728 -0.9493 -0.1563
vn -0.1803 -0.9828 -0.0409
vn -0.0839 -0.9856 0.1469
vn 0.0201 -0.9315 0.3631
vn 0.0062 -0.8422 0.5391
vn 0.0059 -0.8274 0.5615
vn -0.0115 -0.889 0.4577
vn -0.0283 -0.9382 0.345
vn -0.0209 -0.8755 0.4828
vn -0.2653 -0.9009 0.3435
vn -0.2099 -0.874 0.4383
vn -0.1578 -0.8881 0.4315
vn -0.1936 -0.9236 0.3309
vn -0.2392 -0.9493 0.2039
vn -0.3153 -0.9205 0.2306
vn -0.3523 -0.9037 0.2432
vn -0.288 -0.8865 0.3622
vn -0.2011 -0.8648 0.4599
vn -0.3563 -0.9275 0.1126
vn -0.2934 -0.9528 0.0777
vn -0.3377 -0.9409 -0.025
vn -0.3817 -0.9243 0.0024
vn -0.3905 -0.9203 -0.0207
vn -0.3867 -0.9154 0.1118
vn -0.2268 -0.9737 0.02
vn -0.153 -0.973 0.1727
vn -0.2915 -0.9528 -0.0849
vn -0.1042 -0.9378 0.3312
vn -0.0826 -0.8915 0.4453
vn -0.2726 -0.8795 0.3901
vn -0.1459 -0.8572 0.4939
vn -0.359 -0.9004 0.2455
vn -0.3125 -0.9218 0.2296
vn -0.1788 -0.8845 0.4309
vn -0.1073 -0.8528 0.511
vn -0.3947 -0.9153 0.0802
vn -0.3734 -0.9239 -0.0835
vn -0.3569 -0.926 -0.1225
vn -0.3529 -0.9355 -0.011
vn 0.7208 0.1274 0.6813
vn 0.9338 -0.0149 0.3573
vn 0.6045 0.1574 0.7809
vn -0.1073 -0.8528 0.511
vn 0.7628 -0.3973 -0.5101
vn 0.4461 -0.158 -0.8809
vn 0.8114 -0.5239 -0.2592
vn -0.3569 -0.926 -0.1225
vn -0.5976 0.2633 -0.7573
vn -0.8108 0.2783 -0.5149
vn -0.4373 0.1968 -0.8775
vn -0.3098 -0.92 -0.2399
vn -0.6248 0.2006 0.7546
vn -0.2697 0.4371 0.858
vn -0.9305 0.0033 0.3661
vn 0.0059 -0.8274 0.5615
vn 0.0514 0.4536 0.8897
vn 0.2553 0.3999 0.8803
vn 0.9351 -0.3468 -0.0731
vn 0.0599 -0.0662 -0.996
vn -0.0953 -0.0473 -0.9943
vn -0.9832 0.0954 -0.1552
vn -0.3261 0.1201 -0.9377
vn -0.2663 0.0613 -0.9619
vn 0.3835 0.3281 0.8632
vn 0.4482 0.2708 0.8519
vn 0.5087 0.2117 0.8344
vn -0.2058 0.0025 -0.9786
vt 0.839504 0.118056
vt 0.856743 0.205307
vt 0.741230 0.205307
vt 0.734555 0.106726
vt 0.724541 0.032791
vt 0.813647 0.052618
vt 0.868992 0.081539
vt 0.913398 0.129584
vt 0.940923 0.205307
vt 0.839504 0.292557
vt 0.813647 0.357995
vt 0.724541 0.377822
vt 0.734555 0.303887
vt 0.913398 0.281029
vt 0.868992 0.329074
vt 0.369475 0.299954
vt 0.368286 0.370940
vt 0.245840 0.351447
vt 0.246397 0.288815
vt 0.246768 0.205307
vt 0.370268 0.205307
vt 0.494283 0.205307
vt 0.492822 0.304944
vt 0.490632 0.379672
vt 0.369475 0.110659
vt 0.246397 0.121798
vt 0.245841 0.059166
vt 0.368286 0.039673
vt 0.490632 0.030941
vt 0.492822 0.105669
vt 0.616755 0.103478
vt 0.619174 0.205307
vt 0.613127 0.027106
vt 0.616755 0.307135
vt 0.613126 0.383507
vt 0.123273 0.268175
vt 0.123047 0.315326
vt 0.054743 0.283353
vt 0.030912 0.249131
vt 0.030973 0.205306
vt 0.123423 0.205306
vt 0.123273 0.142438
vt 0.030912 0.161481
vt 0.054744 0.127260
vt 0.123047 0.095287
vt 0.839504 0.118056
vt 0.856743 0.205307
vt 0.968983 0.205307
vt 0.938030 0.133427
vt 0.876123 0.061548
vt 0.805028 0.030806
vt 0.721203 0.008146
vt 0.734555 0.106726
vt 0.741230 0.205307
vt 0.839504 0.292557
vt 0.805028 0.379807
vt 0.876123 0.349065
vt 0.938030 0.277186
vt 0.734555 0.303887
vt 0.721203 0.402467
vt 0.369475 0.299954
vt 0.367890 0.394602
vt 0.489902 0.404581
vt 0.492822 0.304944
vt 0.494283 0.205307
vt 0.370268 0.205307
vt 0.246768 0.205307
vt 0.246397 0.288815
vt 0.245655 0.372324
vt 0.369475 0.110659
vt 0.492822 0.105669
vt 0.489902 0.006032
vt 0.367890 0.016011
vt 0.245655 0.038289
vt 0.246397 0.121798
vt 0.616755 0.103478
vt 0.619174 0.205307
vt 0.611917 0.001649
vt 0.616755 0.307135
vt 0.611917 0.408964
vt 0.123273 0.268175
vt 0.122972 0.331043
vt 0.123423 0.205306
vt 0.000156 0.205306
vt 0.000125 0.242784
vt 0.000064 0.280261
vt 0.123273 0.142438
vt 0.122972 0.079570
vt 0.000064 0.130352
vt 0.000125 0.167829
vt 0.122972 0.331043
vt 0.030806 0.283587
vt 0.245655 0.372324
vt 0.030806 0.283587
vt 0.000125 0.167829
vt 0.030806 0.127026
vt 0.000156 0.205306
vt 0.030806 0.127026
vt 0.805028 0.030806
vt 0.873826 0.071832
vt 0.721203 0.008146
vt 0.873826 0.071832
vt 0.938030 0.277186
vt 0.873826 0.338781
vt 0.968983 0.205307
vt 0.873826 0.338781
vt 0.805028 0.379807
vt 0.721203 0.402467
vt 0.000125 0.242784
vt 0.122972 0.079570
vt 0.245655 0.038289
vt 0.938030 0.133427
vt 0.611917 0.001649
vt 0.489902 0.006032
vt 0.611917 0.408964
vt 0.489902 0.404581
vt 0.367890 0.394602
vt 0.367890 0.016011
f 1/1/1 2/2/2 3/3/3
f 1/1/1 3/3/3 4/4/4
f 1/1/1 4/4/4 5/5/5
f 1/1/1 5/5/5 6/6/6
f 1/1/1 6/6/6 7/7/7
f 1/1/1 7/7/7 8/8/8
f 1/1/1 8/8/8 9/9/9
f 1/1/1 9/9/9 2/2/2
f 10/10/10 11/11/11 12/12/12
f 10/10/10 12/12/12 13/13/13
f 10/10/10 13/13/13 3/3/3
f 10/10/10 3/3/3 2/2/2
f 10/10/10 2/2/2 9/9/9
f 10/10/10 9/9/9 14/14/14
f 10/10/10 14/14/14 15/15/15
f 10/10/10 15/15/15 11/11/11
f 16/16/16 17/17/17 18/18/18
f 16/16/16 18/18/18 19/19/19
f 16/16/16 19/19/19 20/20/20
f 16/16/16 20/20/20 21/21/21
f 16/16/16 21/21/21 22/22/22
f 16/16/16 22/22/22 23/23/23
f 16/16/16 23/23/23 24/24/24
f 16/16/16 24/24/24 17/17/17
f 25/25/25 21/21/21 20/20/20
f 25/25/25 20/20/20 26/26/26
f 25/25/25 26/26/26 27/27/27
f 25/25/25 27/27/27 28/28/28
f 25/25/25 28/28/28 29/29/29
f 25/25/25 29/29/29 30/30/30
f 25/25/25 30/30/30 22/22/22
f 25/25/25 22/22/22 21/21/21
f 31/31/31 32/32/32 22/22/22
f 31/31/31 22/22/22 30/30/30
f 31/31/31 30/30/30 29/29/29
f 31/31/31 29/29/29 33/33/33
f 31/31/31 33/33/33 5/5/5
f 31/31/31 5/5/5 4/4/4
f 31/31/31 4/4/4 3/3/3
f 31/31/31 3/3/3 32/32/32
f 34/34/34 35/35/35 24/24/24
f 34/34/34 24/24/24 23/23/23
f 34/34/34 23/23/23 22/22/22
f 34/34/34 22/22/22 32/32/32
f 34/34/34 32/32/32 3/3/3
f 34/34/34 3/3/3 13/13/13
f 34/34/34 13/13/13 12/12/12
f 34/34/34 12/12/12 35/35/35
f 36/36/36 37/37/37 38/38/38
f 36/36/36 38/38/38 39/39/39
f 36/36/36 39/39/39 40/40/40
f 36/36/36 40/40/40 41/41/41
f 36/36/36 41/41/41 20/20/20
f 36/36/36 20/20/20 19/19/19
f 36/36/36 19/19/19 18/18/18
f 36/36/36 18/18/18 37/37/37
f 42/42/42 41/41/41 40/40/40
f 42/42/42 40/40/40 43/43/43
f 42/42/42 43/43/43 44/44/44
f 42/42/42 44/44/44 45/45/45
f 42/42/42 45/45/45 27/27/27
f 42/42/42 27/27/27 26/26/26
f 42/42/42 26/26/26 20/20/20
f 42/42/42 20/20/20 41/41/41
f 46/46/46 47/47/47 48/48/48
f 46/46/46 48/48/48 49/49/49
f 46/46/46 49/49/49 50/50/50
f 46/46/46 50/50/50 51/51/51
f 46/46/46 51/51/51 52/52/52
f 46/46/46 52/52/52 53/53/53
f 46/46/46 53/53/53 54/54/54
f 46/46/46 54/54/54 47/47/47
f 55/55/55 56/56/56 57/57/57
f 55/55/55 57/57/57 58/58/58
f 55/55/55 58/58/58 48/48/48
f 55/55/55 48/48/48 47/47/47
f 55/55/55 47/47/47 54/54/54
f 55/55/55 54/54/54 59/59/59
f 55/55/55 59/59/59 60/60/60
f 55/55/55 60/60/60 56/56/56
f 61/61/61 62/62/62 63/63/63
f 61/61/61 63/63/63 64/64/64
f 61/61/61 64/64/64 65/65/65
f 61/61/61 65/65/65 66/66/66
f 61/61/61 66/66/66 67/67/67
f 61/61/61 67/67/67 68/68/68
f 61/61/61 68/68/68 69/69/69
f 61/61/61 69/69/69 62/62/62
f 70/70/70 66/66/66 65/65/65
f 70/70/70 65/65/65 71/71/71
f 70/70/70 71/71/71 72/72/72
f 70/70/70 72/72/72 73/73/73
f 70/70/70 73/73/73 74/74/74
f 70/70/70 74/74/74 75/75/75
f 70/70/70 75/75/75 67/67/67
f 70/70/70 67/67/67 66/66/66
f 76/76/76 77/77/77 54/54/54
f 76/76/76 54/54/54 53/53/53
f 76/76/76 53/53/53 52/52/52
f 76/76/76 52/52/52 78/78/78
f 76/76/76 78/78/78 72/72/72
f 76/76/76 72/72/72 71/71/71
f 76/76/76 71/71/71 65/65/65
f 76/76/76 65/65/65 77/77/77
f 79/79/79 80/80/80 60/60/60
f 79/79/79 60/60/60 59/59/59
f 79/79/79 59/59/59 54/54/54
f 79/79/79 54/54/54 77/77/77
f 79/79/79 77/77/77 65/65/65
f 79/79/79 65/65/65 64/64/64
f 79/79/79 64/64/64 63/63/63
f 79/79/79 63/63/63 80/80/80
f 81/81/81 82/82/82 69/69/69
f 81/81/81 69/69/69 68/68/68
f 81/81/81 68/68/68 67/67/67
f 81/81/81 67/67/67 83/83/83
f 81/81/81 83/83/83 84/84/84
f 81/81/81 84/84/84 85/85/85
f 81/81/81 85/85/85 86/86/86
f 81/81/81 86/86/86 82/82/82
f 87/87/87 83/83/83 67/67/67
f 87/87/87 67/67/67 75/75/75
f 87/87/87 75/75/75 74/74/74
f 87/87/87 74/74/74 88/88/88
f 87/87/87 88/88/88 89/89/89
f 87/87/87 89/89/89 90/90/90
f 87/87/87 90/90/90 84/84/84
f 87/87/87 84/84/84 83/83/83
f 91/91/91 92/92/92 38/38/38
f 91/91/91 38/38/38 37/37/37
f 91/91/91 37/37/37 18/18/18
f 91/91/91 18/18/18 93/93/93
f 91/91/91 93/93/93 69/69/69
f 91/91/91 69/69/69 82/82/82
f 91/91/91 82/82/82 94/94/94
f 91/91/91 94/94/94 92/92/92
f 95/95/95 96/96/96 44/44/44
f 95/95/95 44/44/44 43/43/43
f 95/95/95 43/43/43 40/40/40
f 95/95/95 40/40/40 97/97/97
f 95/95/95 97/97/97 84/84/84
f 95/95/95 84/84/84 90/90/90
f 95/95/95 90/90/90 98/98/98
f 95/95/95 98/98/98 96/96/96
f 99/99/99 100/100/100 7/7/7
f 99/99/99 7/7/7 6/6/6
f 99/99/99 6/6/6 5/5/5
f 99/99/99 5/5/5 101/101/101
f 99/99/99 101/101/101 52/52/52
f 99/99/99 52/52/52 51/51/51
f 99/99/99 51/51/51 102/102/102
f 99/99/99 102/102/102 100/100/100
f 103/103/103 104/104/104 15/15/15
f 103/103/103 15/15/15 14/14/14
f 103/103/103 14/14/14 9/9/9
f 103/103/103 9/9/9 105/105/105
f 103/103/103 105/105/105 48/48/48
f 103/103/103 48/48/48 58/58/58
f 103/103/103 58/58/58 106/106/106
f 103/103/103 106/106/106 104/104/104
f 107/107/107 108/108/108 12/12/12
f 107/107/107 12/12/12 11/11/11
f 107/107/107 11/11/11 15/15/15
f 107/107/107 15/15/15 104/104/104
f 107/107/107 104/104/104 106/106/106
f 107/107/107 106/106/106 56/56/56
f 107/107/107 56/56/56 60/60/60
f 107/107/107 60/60/60 108/108/108
f 109/109/109 97/97/97 40/40/40
f 109/109/109 40/40/40 39/39/39
f 109/109/109 39/39/39 38/38/38
f 109/109/109 38/38/38 92/92/92
f 109/109/109 92/92/92 94/94/94
f 109/109/109 94/94/94 85/85/85
f 109/109/109 85/85/85 84/84/84
f 109/109/109 84/84/84 97/97/97
f 110/110/110 111/111/111 27/27/27
f 110/110/110 27/27/27 45/45/45
f 110/110/110 45/45/45 44/44/44
f 110/110/110 44/44/44 96/96/96
f 110/110/110 96/96/96 98/98/98
f 110/110/110 98/98/98 88/88/88
f 110/110/110 88/88/88 74/74/74
f 110/110/110 74/74/74 111/111/111
f 112/112/112 105/105/105 9/9/9
f 112/112/112 9/9/9 8/8/8
f 112/112/112 8/8/8 7/7/7
f 112/112/112 7/7/7 100/100/100
f 112/112/112 100/100/100 102/102/102
f 112/112/112 102/102/102 49/49/49
f 112/112/112 49/49/49 48/48/48
f 112/112/112 48/48/48 105/105/105
f 113/113/113 101/101/101 5/5/5
f 113/113/113 5/5/5 33/33/33
f 113/113/113 33/33/33 29/29/29
f 113/113/113 29/29/29 114/114/114
f 113/113/113 114/114/114 72/72/72
f 113/113/113 72/72/72 78/78/78
f 113/113/113 78/78/78 52/52/52
f 113/113/113 52/52/52 101/101/101
f 115/115/115 116/116/116 24/24/24
f 115/115/115 24/24/24 35/35/35
f 115/115/115 35/35/35 12/12/12
f 115/115/115 12/12/12 108/108/108
f 115/115/115 108/108/108 60/60/60
f 115/115/115 60/60/60 80/80/80
f 115/115/115 80/80/80 63/63/63
f 115/115/115 63/63/63 116/116/116
f 117/117/117 93/93/93 18/18/18
f 117/117/117 18/18/18 17/17/17
f 117/117/117 17/17/17 24/24/24
f 117/117/117 24/24/24 116/116/116
f 117/117/117 116/116/116 63/63/63
f 117/117/117 63/63/63 62/62/62
f 117/117/117 62/62/62 69/69/69
f 117/117/117 69/69/69 93/93/93
f 118/118/118 114/114/114 29/29/29
f 118/118/118 29/29/29 28/28/28
f 118/118/118 28/28/28 27/27/27
f 118/118/118 27/27/27 111/111/111
f 118/118/118 111/111/111 74/74/74
f 118/118/118 74/74/74 73/73/73
f 118/118/118 73/73/73 72/72/72
f 118/118/118 72/72/72 114/114/114
