v -2.359689 0.726693 -1.104773
v -2.361041 0.727166 -1.105306
v -2.361498 0.725311 -1.104603
v -2.359908 0.724963 -1.104114
v -2.358741 0.724667 -1.103577
v -2.358731 0.726182 -1.104147
v -2.358979 0.727119 -1.104695
v -2.359582 0.727899 -1.105322
v -2.360701 0.728499 -1.105887
v -2.362564 0.727243 -1.105194
v -2.363774 0.727146 -1.104886
v -2.36447 0.725762 -1.104416
v -2.363176 0.725587 -1.104592
v -2.362071 0.728375 -1.105687
v -2.363063 0.7279 -1.105293
v -2.36448 0.719453 -1.103456
v -2.365707 0.719686 -1.103469
v -2.365796 0.717495 -1.103382
v -2.364709 0.71729 -1.10338
v -2.363276 0.717017 -1.103289
v -2.362862 0.719144 -1.103344
v -2.36243 0.721248 -1.103547
v -2.364124 0.721575 -1.10365
v -2.365411 0.721822 -1.103641
v -2.361278 0.718841 -1.102988
v -2.361877 0.716749 -1.102966
v -2.360834 0.716547 -1.102656
v -2.360097 0.718614 -1.102648
v -2.359542 0.720701 -1.102782
v -2.360774 0.720935 -1.10316
v -2.360294 0.723009 -1.103556
v -2.361968 0.723321 -1.103992
v -2.359051 0.722779 -1.103107
v -2.363693 0.723659 -1.104053
v -2.365007 0.723918 -1.103979
v -2.364758 0.715081 -1.103331
v -2.365576 0.715235 -1.103297
v -2.365243 0.713936 -1.103292
v -2.364727 0.713407 -1.103323
v -2.363987 0.713267 -1.10333
v -2.363685 0.714878 -1.103289
v -2.362645 0.714677 -1.103021
v -2.363279 0.71313 -1.103111
v -2.362637 0.713437 -1.10291
v -2.36187 0.714526 -1.102754
v -2.359655 0.726636 -1.104918
v -2.361029 0.727113 -1.105456
v -2.360693 0.728457 -1.105999
v -2.359556 0.727854 -1.10543
v -2.358956 0.727086 -1.104774
v -2.358696 0.726138 -1.104254
v -2.358707 0.724628 -1.103686
v -2.359875 0.724912 -1.104262
v -2.361485 0.725264 -1.104755
v -2.362574 0.727194 -1.105346
v -2.363792 0.727112 -1.105
v -2.363074 0.727873 -1.105377
v -2.36208 0.728337 -1.1058
v -2.363182 0.725544 -1.104746
v -2.364484 0.725733 -1.104532
v -2.364474 0.719438 -1.103616
v -2.36571 0.719676 -1.10359
v -2.365416 0.721806 -1.10376
v -2.364121 0.72155 -1.103809
v -2.362412 0.72122 -1.103705
v -2.362842 0.719125 -1.103502
v -2.363255 0.717005 -1.103448
v -2.364702 0.717281 -1.103541
v -2.365798 0.71749 -1.103503
v -2.361244 0.71882 -1.103143
v -2.360742 0.720905 -1.103314
v -2.35951 0.720677 -1.102895
v -2.360065 0.718597 -1.102763
v -2.360801 0.716534 -1.102771
v -2.361842 0.716734 -1.103122
v -2.360262 0.722969 -1.103707
v -2.361953 0.723283 -1.104147
v -2.359018 0.722748 -1.103218
v -2.363694 0.723625 -1.10421
v -2.365016 0.723894 -1.104096
v -2.364752 0.715074 -1.103491
v -2.365579 0.715231 -1.103417
v -2.363664 0.714868 -1.103448
v -2.363971 0.71326 -1.10345
v -2.364723 0.713402 -1.103444
v -2.365243 0.713933 -1.103381
v -2.362608 0.714665 -1.103177
v -2.361836 0.714516 -1.102869
v -2.362614 0.71343 -1.102996
v -2.363251 0.713121 -1.103228
v -2.365852 0.715284 -1.103339
v -2.365325 0.713517 -1.103298
v -2.366161 0.717562 -1.103436
v -2.365243 0.713933 -1.103381
v -2.363478 0.71261 -1.103193
v -2.362714 0.713018 -1.102915
v -2.36408 0.712727 -1.103397
v -2.362614 0.71343 -1.102996
v -2.358394 0.725992 -1.103986
v -2.358794 0.727179 -1.104672
v -2.358335 0.724551 -1.103446
v -2.358956 0.727086 -1.104774
v -2.361911 0.728735 -1.105901
v -2.363213 0.728023 -1.105319
v -2.360584 0.728924 -1.10613
v -2.363074 0.727873 -1.105377
v -2.364188 0.727099 -1.104834
v -2.36491 0.725808 -1.104409
v -2.364715 0.712847 -1.103374
v -2.361595 0.714471 -1.102716
v -2.36047 0.716474 -1.102603
v -2.359535 0.728281 -1.105553
v -2.35862 0.722688 -1.103006
v -2.359115 0.720612 -1.102706
v -2.365451 0.723994 -1.104006
v -2.365844 0.721898 -1.103691
v -2.366119 0.71976 -1.103527
v -2.359687 0.718531 -1.102586
vn -0.2751 0.3966 0.8758
vn -0.0614 0.3844 0.9211
vn -0.0748 0.3296 0.9412
vn -0.2665 0.3386 0.9024
vn -0.2631 0.3139 0.9123
vn -0.2677 0.3953 0.8787
vn -0.2688 0.4511 0.851
vn -0.216 0.475 0.8531
vn -0.04 0.4672 0.8832
vn 0.1459 0.3161 0.9374
vn 0.1379 0.3178 0.938
vn 0.0952 0.2455 0.9647
vn 0.1099 0.2667 0.9575
vn 0.1279 0.4093 0.9033
vn 0.1669 0.3677 0.9148
vn -0.0217 0.0657 0.9976
vn -0.0597 0.0646 0.9961
vn -0.0689 0.0335 0.997
vn -0.0203 0.0316 0.9993
vn -0.1365 0.0437 0.9897
vn -0.1283 0.0855 0.988
vn -0.1111 0.1689 0.9793
vn 0.0067 0.1374 0.9905
vn -0.0236 0.1259 0.9917
vn -0.233 0.1061 0.9666
vn -0.247 0.0749 0.9661
vn -0.2025 0.059 0.9775
vn -0.1993 0.0913 0.9756
vn -0.208 0.1612 0.9648
vn -0.2305 0.1827 0.9557
vn -0.2429 0.27 0.9317
vn -0.0911 0.2595 0.9614
vn -0.2326 0.2422 0.9419
vn 0.0559 0.2128 0.9755
vn 0.034 0.1912 0.981
vn 0.0022 0.0127 0.9999
vn -0.0504 0.0103 0.9987
vn -0.0221 -0.0123 0.9997
vn 0.0132 -0.0472 0.9988
vn -0.1507 -0.0316 0.9881
vn -0.1403 0.024 0.9898
vn -0.2741 0.0655 0.9594
vn -0.3052 0.0136 0.9521
vn -0.2613 0.0333 0.9647
vn -0.2277 0.0441 0.9727
vn 0.3064 -0.3776 -0.8738
vn 0.0651 -0.3694 -0.927
vn 0.0792 -0.3107 -0.9472
vn 0.398 -0.321 -0.8594
vn 0.5066 -0.2996 -0.8084
vn 0.4836 -0.3088 -0.819
vn 0.4221 -0.3044 -0.8539
vn 0.2812 -0.3389 -0.8978
vn 0.0748 -0.3297 -0.9411
vn -0.1675 -0.2871 -0.9431
vn -0.3155 -0.156 -0.936
vn -0.3356 -0.139 -0.9317
vn -0.2324 -0.2008 -0.9516
vn -0.1243 -0.2614 -0.9572
vn -0.2495 -0.176 -0.9522
vn 0.0056 -0.0638 -0.9979
vn -0.1067 -0.0511 -0.993
vn -0.1286 -0.1004 -0.9866
vn -0.0215 -0.1346 -0.9906
vn 0.1111 -0.1688 -0.9793
vn 0.1283 -0.0853 -0.988
vn 0.1365 -0.0436 -0.9897
vn 0.0012 -0.0313 -0.9995
vn -0.1305 -0.0438 -0.9904
vn 0.2482 -0.1101 -0.9624
vn 0.2447 -0.1855 -0.9517
vn 0.3512 -0.1921 -0.9163
vn 0.3515 -0.1386 -0.9258
vn 0.3746 -0.1404 -0.9165
vn 0.2642 -0.0816 -0.961
vn 0.2568 -0.2719 -0.9274
vn 0.0912 -0.2595 -0.9614
vn 0.3753 -0.2597 -0.8897
vn -0.0702 -0.2094 -0.9753
vn -0.1818 -0.1533 -0.9713
vn -0.0312 -0.0274 -0.9991
vn -0.1905 -0.0672 -0.9794
vn 0.138 -0.036 -0.9898
vn 0.1277 -0.0885 -0.9879
vn -0.1166 -0.083 -0.9897
vn -0.2268 -0.087 -0.97
vn 0.2944 -0.0896 -0.9514
vn 0.4164 -0.1832 -0.8905
vn 0.4391 -0.2142 -0.8725
vn 0.3478 -0.1718 -0.9217
vn -0.9795 -0.1856 0.0784
vn -0.8164 -0.5594 0.1429
vn -0.9988 -0.0379 0.0309
vn -0.2268 -0.087 -0.97
vn 0.0405 -0.9957 0.0835
vn 0.485 -0.8084 0.3335
vn -0.1716 -0.9794 -0.1065
vn 0.4391 -0.2142 -0.8725
vn 0.9133 0.2397 0.3292
vn 0.8352 0.5181 0.1846
vn 0.9298 0.0328 0.3665
vn 0.5066 -0.2996 -0.8084
vn -0.2876 0.908 -0.3045
vn -0.6079 0.7935 -0.0267
vn 0.2296 0.8755 -0.4252
vn -0.3356 -0.139 -0.9317
vn -0.8177 0.5706 0.0758
vn -0.9174 0.386 0.0961
vn -0.419 -0.9078 0.0164
vn 0.7833 -0.5227 0.3364
vn 0.8669 -0.3948 0.3042
vn 0.6681 0.7256 -0.1645
vn 0.9271 -0.1146 0.3568
vn 0.9216 -0.1988 0.3334
vn -0.9657 0.2469 0.0798
vn -0.9847 0.1655 0.0544
vn -0.996 0.0842 0.0284
vn 0.9094 -0.28 0.3075
vt 0.839504 0.118056
vt 0.856743 0.205307
vt 0.741230 0.205307
vt 0.734555 0.106726
vt 0.724541 0.032791
vt 0.813647 0.052618
vt 0.868992 0.081539
vt 0.913398 0.129584
vt 0.940923 0.205307
vt 0.839504 0.292557
vt 0.813647 0.357995
vt 0.724541 0.377822
vt 0.734555 0.303887
vt 0.913398 0.281029
vt 0.868992 0.329074
vt 0.369475 0.299954
vt 0.368286 0.370940
vt 0.245840 0.351447
vt 0.246397 0.288815
vt 0.246768 0.205307
vt 0.370268 0.205307
vt 0.494283 0.205307
vt 0.492822 0.304944
vt 0.490632 0.379672
vt 0.369475 0.110659
vt 0.246397 0.121798
vt 0.245841 0.059166
vt 0.368286 0.039673
vt 0.490632 0.030941
vt 0.492822 0.105669
vt 0.616755 0.103478
vt 0.619174 0.205307
vt 0.613127 0.027106
vt 0.616755 0.307135
vt 0.613126 0.383507
vt 0.123273 0.268175
vt 0.123047 0.315326
vt 0.054743 0.283353
vt 0.030912 0.249131
vt 0.030973 0.205306
vt 0.123423 0.205306
vt 0.123273 0.142438
vt 0.030912 0.161481
vt 0.054744 0.127260
vt 0.123047 0.095287
vt 0.839504 0.118056
vt 0.856743 0.205307
vt 0.968983 0.205307
vt 0.938030 0.133427
vt 0.876123 0.061548
vt 0.805028 0.030806
vt 0.721203 0.008146
vt 0.734555 0.106726
vt 0.741230 0.205307
vt 0.839504 0.292557
vt 0.805028 0.379807
vt 0.876123 0.349065
vt 0.938030 0.277186
vt 0.734555 0.303887
vt 0.721203 0.402467
vt 0.369475 0.299954
vt 0.367890 0.394602
vt 0.489902 0.404581
vt 0.492822 0.304944
vt 0.494283 0.205307
vt 0.370268 0.205307
vt 0.246768 0.205307
vt 0.246397 0.288815
vt 0.245655 0.372324
vt 0.369475 0.110659
vt 0.492822 0.105669
vt 0.489902 0.006032
vt 0.367890 0.016011
vt 0.245655 0.038289
vt 0.246397 0.121798
vt 0.616755 0.103478
vt 0.619174 0.205307
vt 0.611917 0.001649
vt 0.616755 0.307135
vt 0.611917 0.408964
vt 0.123273 0.268175
vt 0.122972 0.331043
vt 0.123423 0.205306
vt 0.000156 0.205306
vt 0.000125 0.242784
vt 0.000064 0.280261
vt 0.123273 0.142438
vt 0.122972 0.079570
vt 0.000064 0.130352
vt 0.000125 0.167829
vt 0.122972 0.331043
vt 0.030806 0.283587
vt 0.245655 0.372324
vt 0.030806 0.283587
vt 0.000125 0.167829
vt 0.030806 0.127026
vt 0.000156 0.205306
vt 0.030806 0.127026
vt 0.805028 0.030806
vt 0.873826 0.071832
vt 0.721203 0.008146
vt 0.873826 0.071832
vt 0.938030 0.277186
vt 0.873826 0.338781
vt 0.968983 0.205307
vt 0.873826 0.338781
vt 0.805028 0.379807
vt 0.721203 0.402467
vt 0.000125 0.242784
vt 0.122972 0.079570
vt 0.245655 0.038289
vt 0.938030 0.133427
vt 0.611917 0.001649
vt 0.489902 0.006032
vt 0.611917 0.408964
vt 0.489902 0.404581
vt 0.367890 0.394602
vt 0.367890 0.016011
f 1/1/1 2/2/2 3/3/3
f 1/1/1 3/3/3 4/4/4
f 1/1/1 4/4/4 5/5/5
f 1/1/1 5/5/5 6/6/6
f 1/1/1 6/6/6 7/7/7
f 1/1/1 7/7/7 8/8/8
f 1/1/1 8/8/8 9/9/9
f 1/1/1 9/9/9 2/2/2
f 10/10/10 11/11/11 12/12/12
f 10/10/10 12/12/12 13/13/13
f 10/10/10 13/13/13 3/3/3
f 10/10/10 3/3/3 2/2/2
f 10/10/10 2/2/2 9/9/9
f 10/10/10 9/9/9 14/14/14
f 10/10/10 14/14/14 15/15/15
f 10/10/10 15/15/15 11/11/11
f 16/16/16 17/17/17 18/18/18
f 16/16/16 18/18/18 19/19/19
f 16/16/16 19/19/19 20/20/20
f 16/16/16 20/20/20 21/21/21
f 16/16/16 21/21/21 22/22/22
f 16/16/16 22/22/22 23/23/23
f 16/16/16 23/23/23 24/24/24
f 16/16/16 24/24/24 17/17/17
f 25/25/25 21/21/21 20/20/20
f 25/25/25 20/20/20 26/26/26
f 25/25/25 26/26/26 27/27/27
f 25/25/25 27/27/27 28/28/28
f 25/25/25 28/28/28 29/29/29
f 25/25/25 29/29/29 30/30/30
f 25/25/25 30/30/30 22/22/22
f 25/25/25 22/22/22 21/21/21
f 31/31/31 32/32/32 22/22/22
f 31/31/31 22/22/22 30/30/30
f 31/31/31 30/30/30 29/29/29
f 31/31/31 29/29/29 33/33/33
f 31/31/31 33/33/33 5/5/5
f 31/31/31 5/5/5 4/4/4
f 31/31/31 4/4/4 3/3/3
f 31/31/31 3/3/3 32/32/32
f 34/34/34 35/35/35 24/24/24
f 34/34/34 24/24/24 23/23/23
f 34/34/34 23/23/23 22/22/22
f 34/34/34 22/22/22 32/32/32
f 34/34/34 32/32/32 3/3/3
f 34/34/34 3/3/3 13/13/13
f 34/34/34 13/13/13 12/12/12
f 34/34/34 12/12/12 35/35/35
f 36/36/36 37/37/37 38/38/38
f 36/36/36 38/38/38 39/39/39
f 36/36/36 39/39/39 40/40/40
f 36/36/36 40/40/40 41/41/41
f 36/36/36 41/41/41 20/20/20
f 36/36/36 20/20/20 19/19/19
f 36/36/36 19/19/19 18/18/18
f 36/36/36 18/18/18 37/37/37
f 42/42/42 41/41/41 40/40/40
f 42/42/42 40/40/40 43/43/43
f 42/42/42 43/43/43 44/44/44
f 42/42/42 44/44/44 45/45/45
f 42/42/42 45/45/45 27/27/27
f 42/42/42 27/27/27 26/26/26
f 42/42/42 26/26/26 20/20/20
f 42/42/42 20/20/20 41/41/41
f 46/46/46 47/47/47 48/48/48
f 46/46/46 48/48/48 49/49/49
f 46/46/46 49/49/49 50/50/50
f 46/46/46 50/50/50 51/51/51
f 46/46/46 51/51/51 52/52/52
f 46/46/46 52/52/52 53/53/53
f 46/46/46 53/53/53 54/54/54
f 46/46/46 54/54/54 47/47/47
f 55/55/55 56/56/56 57/57/57
f 55/55/55 57/57/57 58/58/58
f 55/55/55 58/58/58 48/48/48
f 55/55/55 48/48/48 47/47/47
f 55/55/55 47/47/47 54/54/54
f 55/55/55 54/54/54 59/59/59
f 55/55/55 59/59/59 60/60/60
f 55/55/55 60/60/60 56/56/56
f 61/61/61 62/62/62 63/63/63
f 61/61/61 63/63/63 64/64/64
f 61/61/61 64/64/64 65/65/65
f 61/61/61 65/65/65 66/66/66
f 61/61/61 66/66/66 67/67/67
f 61/61/61 67/67/67 68/68/68
f 61/61/61 68/68/68 69/69/69
f 61/61/61 69/69/69 62/62/62
f 70/70/70 66/66/66 65/65/65
f 70/70/70 65/65/65 71/71/71
f 70/70/70 71/71/71 72/72/72
f 70/70/70 72/72/72 73/73/73
f 70/70/70 73/73/73 74/74/74
f 70/70/70 74/74/74 75/75/75
f 70/70/70 75/75/75 67/67/67
f 70/70/70 67/67/67 66/66/66
f 76/76/76 77/77/77 54/54/54
f 76/76/76 54/54/54 53/53/53
f 76/76/76 53/53/53 52/52/52
f 76/76/76 52/52/52 78/78/78
f 76/76/76 78/78/78 72/72/72
f 76/76/76 72/72/72 71/71/71
f 76/76/76 71/71/71 65/65/65
f 76/76/76 65/65/65 77/77/77
f 79/79/79 80/80/80 60/60/60
f 79/79/79 60/60/60 59/59/59
f 79/79/79 59/59/59 54/54/54
f 79/79/79 54/54/54 77/77/77
f 79/79/79 77/77/77 65/65/65
f 79/79/79 65/65/65 64/64/64
f 79/79/79 64/64/64 63/63/63
f 79/79/79 63/63/63 80/80/80
f 81/81/81 82/82/82 69/69/69
f 81/81/81 69/69/69 68/68/68
f 81/81/81 68/68/68 67/67/67
f 81/81/81 67/67/67 83/83/83
f 81/81/81 83/83/83 84/84/84
f 81/81/81 84/84/84 85/85/85
f 81/81/81 85/85/85 86/86/86
f 81/81/81 86/86/86 82/82/82
f 87/87/87 83/83/83 67/67/67
f 87/87/87 67/67/67 75/75/75
f 87/87/87 75/75/75 74/74/74
f 87/87/87 74/74/74 88/88/88
f 87/87/87 88/88/88 89/89/89
f 87/87/87 89/89/89 90/90/90
f 87/87/87 90/90/90 84/84/84
f 87/87/87 84/84/84 83/83/83
f 91/91/91 92/92/92 38/38/38
f 91/91/91 38/38/38 37/37/37
f 91/91/91 37/37/37 18/18/18
f 91/91/91 18/18/18 93/93/93
f 91/91/91 93/93/93 69/69/69
f 91/91/91 69/69/69 82/82/82
f 91/91/91 82/82/82 94/94/94
f 91/91/91 94/94/94 92/92/92
f 95/95/95 96/96/96 44/44/44
f 95/95/95 44/44/44 43/43/43
f 95/95/95 43/43/43 40/40/40
f 95/95/95 40/40/40 97/97/97
f 95/95/95 97/97/97 84/84/84
f 95/95/95 84/84/84 90/90/90
f 95/95/95 90/90/90 98/98/98
f 95/95/95 98/98/98 96/96/96
f 99/99/99 100/100/100 7/7/7
f 99/99/99 7/7/7 6/6/6
f 99/99/99 6/6/6 5/5/5
f 99/99/99 5/5/5 101/101/101
f 99/99/99 101/101/101 52/52/52
f 99/99/99 52/52/52 51/51/51
f 99/99/99 51/51/51 102/102/102
f 99/99/99 102/102/102 100/100/100
f 103/103/103 104/104/104 15/15/15
f 103/103/103 15/15/15 14/14/14
f 103/103/103 14/14/14 9/9/9
f 103/103/103 9/9/9 105/105/105
f 103/103/103 105/105/105 48/48/48
f 103/103/103 48/48/48 58/58/58
f 103/103/103 58/58/58 106/106/106
f 103/103/103 106/106/106 104/104/104
f 107/107/107 108/108/108 12/12/12
f 107/107/107 12/12/12 11/11/11
f 107/107/107 11/11/11 15/15/15
f 107/107/107 15/15/15 104/104/104
f 107/107/107 104/104/104 106/106/106
f 107/107/107 106/106/106 56/56/56
f 107/107/107 56/56/56 60/60/60
f 107/107/107 60/60/60 108/108/108
f 109/109/109 97/97/97 40/40/40
f 109/109/109 40/40/40 39/39/39
f 109/109/109 39/39/39 38/38/38
f 109/109/109 38/38/38 92/92/92
f 109/109/109 92/92/92 94/94/94
f 109/109/109 94/94/94 85/85/85
f 109/109/109 85/85/85 84/84/84
f 109/109/109 84/84/84 97/97/97
f 110/110/110 111/111/111 27/27/27
f 110/110/110 27/27/27 45/45/45
f 110/110/110 45/45/45 44/44/44
f 110/110/110 44/44/44 96/96/96
f 110/110/110 96/96/96 98/98/98
f 110/110/110 98/98/98 88/88/88
f 110/110/110 88/88/88 74/74/74
f 110/110/110 74/74/74 111/111/111
f 112/112/112 105/105/105 9/9/9
f 112/112/112 9/9/9 8/8/8
f 112/112/112 8/8/8 7/7/7
f 112/112/112 7/7/7 100/100/100
f 112/112/112 100/100/100 102/102/102
f 112/112/112 102/102/102 49/49/49
f 112/112/112 49/49/49 48/48/48
f 112/112/112 48/48/48 105/105/105
f 113/113/113 101/101/101 5/5/5
f 113/113/113 5/5/5 33/33/33
f 113/113/113 33/33/33 29/29/29
f 113/113/113 29/29/29 114/114/114
f 113/113/113 114/114/114 72/72/72
f 113/113/113 72/72/72 78/78/78
f 113/113/113 78/78/78 52/52/52
f 113/113/113 52/52/52 101/101/101
f 115/115/115 116/116/116 24/24/24
f 115/115/115 24/24/24 35/35/35
f 115/115/115 35/35/35 12/12/12
f 115/115/115 12/12/12 108/108/108
f 115/115/115 108/108/108 60/60/60
f 115/115/115 60/60/60 80/80/80
f 115/115/115 80/80/80 63/63/63
f 115/115/115 63/63/63 116/116/116
f 117/117/117 93/93/93 18/18/18
f 117/117/117 18/18/18 17/17/17
f 117/117/117 17/17/17 24/24/24
f 117/117/117 24/24/24 116/116/116
f 117/117/117 116/116/116 63/63/63
f 117/117/117 63/63/63 62/62/62
f 117/117/117 62/62/62 69/69/69
f 117/117/117 69/69/69 93/93/93
f 118/118/118 114/114/114 29/29/29
f 118/118/118 29/29/29 28/28/28
f 118/118/118 28/28/28 27/27/27
f 118/118/118 27/27/27 111/111/111
f 118/118/118 111/111/111 74/74/74
f 118/118/118 74/74/74 73/73/73
f 118/118/118 73/73/73 72/72/72
f 118/118/118 72/72/72 114/114/114
