v -2.426887 0.667913 -1.082547
v -2.426917 0.666849 -1.080342
v -2.424012 0.665918 -1.081489
v -2.424325 0.66717 -1.083886
v -2.424335 0.668276 -1.085683
v -2.426439 0.668828 -1.084274
v -2.427753 0.668779 -1.08307
v -2.428731 0.668292 -1.081552
v -2.42909 0.667431 -1.079531
v -2.42577 0.666158 -1.078292
v -2.42448 0.665749 -1.076813
v -2.42211 0.664778 -1.077207
v -2.423056 0.665175 -1.079051
v -2.427765 0.666772 -1.07787
v -2.426167 0.666285 -1.077028
v -2.414805 0.660745 -1.083106
v -2.414157 0.660201 -1.081292
v -2.411808 0.658445 -1.083228
v -2.412392 0.658916 -1.084833
v -2.41307 0.659645 -1.086951
v -2.415559 0.661578 -1.085499
v -2.41819 0.66332 -1.08409
v -2.417387 0.662467 -1.081582
v -2.416689 0.661928 -1.079678
v -2.416049 0.6627 -1.087843
v -2.413492 0.660645 -1.089023
v -2.413736 0.661475 -1.09057
v -2.416337 0.663626 -1.089593
v -2.418968 0.665512 -1.088361
v -2.418689 0.664513 -1.086537
v -2.42152 0.66602 -1.085217
v -2.421055 0.664754 -1.082746
v -2.42174 0.667116 -1.087051
v -2.4202 0.663944 -1.080189
v -2.419426 0.663479 -1.078239
v -2.410092 0.657122 -1.086836
v -2.409616 0.656811 -1.08563
v -2.408551 0.655938 -1.087278
v -2.408429 0.655765 -1.088443
v -2.408835 0.656075 -1.089536
v -2.410628 0.657635 -1.088421
v -2.410913 0.658413 -1.089963
v -2.408991 0.656649 -1.090585
v -2.409563 0.657529 -1.091133
v -2.411055 0.659074 -1.091113
v -2.427002 0.667706 -1.082642
v -2.427025 0.666626 -1.080406
v -2.429167 0.667263 -1.079581
v -2.428815 0.668136 -1.081626
v -2.427817 0.668667 -1.083131
v -2.426528 0.668681 -1.08436
v -2.424431 0.668129 -1.085762
v -2.424448 0.666964 -1.083974
v -2.424128 0.665698 -1.081549
v -2.425869 0.665923 -1.078324
v -2.424549 0.665569 -1.07682
v -2.426217 0.666152 -1.077038
v -2.427835 0.666595 -1.077893
v -2.423164 0.664945 -1.079082
v -2.422187 0.664602 -1.077216
v -2.414955 0.660537 -1.083127
v -2.414267 0.660042 -1.081297
v -2.416789 0.661764 -1.079686
v -2.417526 0.662253 -1.081607
v -2.418334 0.663113 -1.084137
v -2.415716 0.661378 -1.085541
v -2.413234 0.659451 -1.086988
v -2.412551 0.658714 -1.08485
v -2.411923 0.65829 -1.08323
v -2.41621 0.662509 -1.087905
v -2.418839 0.664316 -1.086606
v -2.419083 0.66537 -1.088423
v -2.41646 0.663488 -1.08965
v -2.413864 0.661341 -1.090623
v -2.413661 0.66046 -1.08908
v -2.421656 0.665817 -1.085296
v -2.421185 0.66454 -1.0828
v -2.421844 0.666971 -1.087122
v -2.420323 0.663722 -1.080218
v -2.419515 0.663309 -1.078248
v -2.410253 0.656922 -1.08685
v -2.409732 0.656657 -1.085629
v -2.410795 0.657443 -1.088457
v -2.408961 0.655931 -1.089562
v -2.408549 0.655614 -1.088452
v -2.408638 0.655825 -1.08728
v -2.411085 0.65823 -1.09002
v -2.411186 0.658942 -1.091166
v -2.40966 0.657431 -1.09117
v -2.409121 0.656513 -1.090629
v -2.409508 0.656638 -1.085225
v -2.408077 0.655537 -1.087564
v -2.411664 0.658218 -1.082691
v -2.408638 0.655825 -1.08728
v -2.408408 0.656001 -1.090813
v -2.409091 0.657131 -1.091426
v -2.408293 0.655491 -1.089919
v -2.40966 0.657431 -1.09117
v -2.42633 0.669069 -1.084892
v -2.427924 0.668965 -1.083255
v -2.424381 0.668581 -1.08632
v -2.427817 0.668667 -1.083131
v -2.42846 0.666898 -1.077739
v -2.426208 0.666267 -1.076718
v -2.429847 0.66755 -1.079283
v -2.426217 0.666152 -1.077038
v -2.424079 0.665532 -1.076319
v -2.421828 0.664567 -1.076593
v -2.407928 0.655245 -1.088982
v -2.411161 0.659237 -1.091522
v -2.413874 0.661693 -1.091112
v -2.429383 0.668349 -1.081254
v -2.42186 0.667419 -1.087697
v -2.419113 0.665783 -1.088999
v -2.419207 0.663248 -1.07759
v -2.4165 0.661675 -1.079044
v -2.41399 0.659948 -1.080688
v -2.416488 0.663875 -1.090204
vn 0.4316 0.7816 0.4502
vn 0.3706 0.8888 0.2695
vn 0.4238 0.8711 0.2482
vn 0.4807 0.7755 0.4093
vn 0.5009 0.7716 0.3919
vn 0.4307 0.786 0.4435
vn 0.3789 0.7929 0.4772
vn 0.3411 0.8262 0.4483
vn 0.2851 0.9101 0.3007
vn 0.3294 0.9422 0.0613
vn 0.3323 0.9407 0.0686
vn 0.414 0.9082 0.0611
vn 0.3894 0.919 0.0615
vn 0.2577 0.9573 0.1306
vn 0.2731 0.9591 0.0746
vn 0.6006 0.7979 0.0506
vn 0.6176 0.7823 0.0808
vn 0.6419 0.7636 0.0701
vn 0.6224 0.7821 0.0296
vn 0.6615 0.7384 0.131
vn 0.6306 0.7617 0.1488
vn 0.565 0.8043 0.1836
vn 0.5383 0.8399 0.0696
vn 0.5599 0.8239 0.0874
vn 0.6518 0.7174 0.2459
vn 0.6774 0.6957 0.2391
vn 0.6743 0.7126 0.1937
vn 0.6514 0.7291 0.2098
vn 0.6047 0.7536 0.2578
vn 0.5958 0.7495 0.2886
vn 0.5316 0.7713 0.3499
vn 0.4879 0.8446 0.2205
vn 0.5507 0.7687 0.3251
vn 0.4591 0.8853 0.0737
vn 0.4861 0.8703 0.079
vn 0.6243 0.7811 0.0002
vn 0.6489 0.7597 0.0416
vn 0.6508 0.7592 0.0054
vn 0.6561 0.7534 -0.0436
vn 0.7141 0.693 0.0985
vn 0.6756 0.727 0.1226
vn 0.6913 0.6758 0.2556
vn 0.7333 0.632 0.2506
vn 0.7089 0.668 0.2265
vn 0.6919 0.692 0.2055
vn -0.4563 -0.7588 -0.4646
vn -0.3854 -0.8842 -0.2637
vn -0.4415 -0.8643 -0.2408
vn -0.5241 -0.6851 -0.5059
vn -0.5546 -0.5948 -0.5819
vn -0.5454 -0.6159 -0.5685
vn -0.5423 -0.6632 -0.5158
vn -0.4844 -0.7667 -0.4214
vn -0.4237 -0.8711 -0.2483
vn -0.3414 -0.9395 -0.0268
vn -0.3515 -0.9206 0.1699
vn -0.3504 -0.9158 0.1962
vn -0.3712 -0.9254 0.0764
vn -0.386 -0.9213 -0.0467
vn -0.3793 -0.9193 0.1047
vn -0.5946 -0.8032 -0.0364
vn -0.5483 -0.8339 0.0621
vn -0.5034 -0.8625 0.0509
vn -0.5333 -0.8441 -0.0559
vn -0.5651 -0.8043 -0.1835
vn -0.6307 -0.7616 -0.1487
vn -0.6616 -0.7383 -0.131
vn -0.6139 -0.7892 -0.0139
vn -0.5404 -0.837 0.0857
vn -0.6535 -0.7106 -0.2606
vn -0.5979 -0.7425 -0.3019
vn -0.6199 -0.6795 -0.3924
vn -0.6595 -0.6592 -0.3612
vn -0.663 -0.6444 -0.3811
vn -0.6777 -0.6889 -0.257
vn -0.534 -0.7639 -0.3623
vn -0.4879 -0.8446 -0.2205
vn -0.5716 -0.685 -0.4516
vn -0.4546 -0.8886 -0.0601
vn -0.4364 -0.8975 0.0632
vn -0.6014 -0.7988 0.0147
vn -0.4915 -0.8625 0.1205
vn -0.6671 -0.7339 -0.1277
vn -0.6283 -0.7633 -0.15
vn -0.5217 -0.8515 0.0515
vn -0.4567 -0.8788 0.1384
vn -0.6804 -0.6746 -0.2862
vn -0.6387 -0.631 -0.4402
vn -0.6182 -0.6249 -0.4768
vn -0.6344 -0.6745 -0.3777
vn 0.6115 -0.3942 0.6861
vn 0.8123 -0.4775 0.3349
vn 0.4978 -0.3619 0.7881
vn -0.4567 -0.8788 0.1384
vn 0.658 -0.4346 -0.6149
vn 0.4966 0.0188 -0.8678
vn 0.6239 -0.6511 -0.4323
vn -0.6182 -0.6249 -0.4768
vn -0.3572 0.7135 -0.6028
vn -0.5875 0.7164 -0.3763
vn -0.2113 0.6414 -0.7375
vn -0.5546 -0.5948 -0.5819
vn -0.6303 0.1278 0.7657
vn -0.2374 0.1663 0.9571
vn -0.9218 0.2075 0.3274
vn -0.3504 -0.9158 0.1962
vn 0.0628 0.0534 0.9966
vn 0.2369 -0.063 0.9695
vn 0.7692 -0.6098 -0.1906
vn 0.1841 0.278 -0.9428
vn 0.0454 0.3494 -0.9359
vn -0.8624 0.4924 -0.1178
vn -0.1239 0.5568 -0.8213
vn -0.0838 0.4934 -0.8657
vn 0.3353 -0.1648 0.9275
vn 0.3788 -0.2336 0.8955
vn 0.4185 -0.2999 0.8572
vn -0.0437 0.4268 -0.9033
vt 0.839504 0.118056
vt 0.856743 0.205307
vt 0.741230 0.205307
vt 0.734555 0.106726
vt 0.724541 0.032791
vt 0.813647 0.052618
vt 0.868992 0.081539
vt 0.913398 0.129584
vt 0.940923 0.205307
vt 0.839504 0.292557
vt 0.813647 0.357995
vt 0.724541 0.377822
vt 0.734555 0.303887
vt 0.913398 0.281029
vt 0.868992 0.329074
vt 0.369475 0.299954
vt 0.368286 0.370940
vt 0.245840 0.351447
vt 0.246397 0.288815
vt 0.246768 0.205307
vt 0.370268 0.205307
vt 0.494283 0.205307
vt 0.492822 0.304944
vt 0.490632 0.379672
vt 0.369475 0.110659
vt 0.246397 0.121798
vt 0.245841 0.059166
vt 0.368286 0.039673
vt 0.490632 0.030941
vt 0.492822 0.105669
vt 0.616755 0.103478
vt 0.619174 0.205307
vt 0.613127 0.027106
vt 0.616755 0.307135
vt 0.613126 0.383507
vt 0.123273 0.268175
vt 0.123047 0.315326
vt 0.054743 0.283353
vt 0.030912 0.249131
vt 0.030973 0.205306
vt 0.123423 0.205306
vt 0.123273 0.142438
vt 0.030912 0.161481
vt 0.054744 0.127260
vt 0.123047 0.095287
vt 0.839504 0.118056
vt 0.856743 0.205307
vt 0.968983 0.205307
vt 0.938030 0.133427
vt 0.876123 0.061548
vt 0.805028 0.030806
vt 0.721203 0.008146
vt 0.734555 0.106726
vt 0.741230 0.205307
vt 0.839504 0.292557
vt 0.805028 0.379807
vt 0.876123 0.349065
vt 0.938030 0.277186
vt 0.734555 0.303887
vt 0.721203 0.402467
vt 0.369475 0.299954
vt 0.367890 0.394602
vt 0.489902 0.404581
vt 0.492822 0.304944
vt 0.494283 0.205307
vt 0.370268 0.205307
vt 0.246768 0.205307
vt 0.246397 0.288815
vt 0.245655 0.372324
vt 0.369475 0.110659
vt 0.492822 0.105669
vt 0.489902 0.006032
vt 0.367890 0.016011
vt 0.245655 0.038289
vt 0.246397 0.121798
vt 0.616755 0.103478
vt 0.619174 0.205307
vt 0.611917 0.001649
vt 0.616755 0.307135
vt 0.611917 0.408964
vt 0.123273 0.268175
vt 0.122972 0.331043
vt 0.123423 0.205306
vt 0.000156 0.205306
vt 0.000125 0.242784
vt 0.000064 0.280261
vt 0.123273 0.142438
vt 0.122972 0.079570
vt 0.000064 0.130352
vt 0.000125 0.167829
vt 0.122972 0.331043
vt 0.030806 0.283587
vt 0.245655 0.372324
vt 0.030806 0.283587
vt 0.000125 0.167829
vt 0.030806 0.127026
vt 0.000156 0.205306
vt 0.030806 0.127026
vt 0.805028 0.030806
vt 0.873826 0.071832
vt 0.721203 0.008146
vt 0.873826 0.071832
vt 0.938030 0.277186
vt 0.873826 0.338781
vt 0.968983 0.205307
vt 0.873826 0.338781
vt 0.805028 0.379807
vt 0.721203 0.402467
vt 0.000125 0.242784
vt 0.122972 0.079570
vt 0.245655 0.038289
vt 0.938030 0.133427
vt 0.611917 0.001649
vt 0.489902 0.006032
vt 0.611917 0.408964
vt 0.489902 0.404581
vt 0.367890 0.394602
vt 0.367890 0.016011
f 1/1/1 2/2/2 3/3/3
f 1/1/1 3/3/3 4/4/4
f 1/1/1 4/4/4 5/5/5
f 1/1/1 5/5/5 6/6/6
f 1/1/1 6/6/6 7/7/7
f 1/1/1 7/7/7 8/8/8
f 1/1/1 8/8/8 9/9/9
f 1/1/1 9/9/9 2/2/2
f 10/10/10 11/11/11 12/12/12
f 10/10/10 12/12/12 13/13/13
f 10/10/10 13/13/13 3/3/3
f 10/10/10 3/3/3 2/2/2
f 10/10/10 2/2/2 9/9/9
f 10/10/10 9/9/9 14/14/14
f 10/10/10 14/14/14 15/15/15
f 10/10/10 15/15/15 11/11/11
f 16/16/16 17/17/17 18/18/18
f 16/16/16 18/18/18 19/19/19
f 16/16/16 19/19/19 20/20/20
f 16/16/16 20/20/20 21/21/21
f 16/16/16 21/21/21 22/22/22
f 16/16/16 22/22/22 23/23/23
f 16/16/16 23/23/23 24/24/24
f 16/16/16 24/24/24 17/17/17
f 25/25/25 21/21/21 20/20/20
f 25/25/25 20/20/20 26/26/26
f 25/25/25 26/26/26 27/27/27
f 25/25/25 27/27/27 28/28/28
f 25/25/25 28/28/28 29/29/29
f 25/25/25 29/29/29 30/30/30
f 25/25/25 30/30/30 22/22/22
f 25/25/25 22/22/22 21/21/21
f 31/31/31 32/32/32 22/22/22
f 31/31/31 22/22/22 30/30/30
f 31/31/31 30/30/30 29/29/29
f 31/31/31 29/29/29 33/33/33
f 31/31/31 33/33/33 5/5/5
f 31/31/31 5/5/5 4/4/4
f 31/31/31 4/4/4 3/3/3
f 31/31/31 3/3/3 32/32/32
f 34/34/34 35/35/35 24/24/24
f 34/34/34 24/24/24 23/23/23
f 34/34/34 23/23/23 22/22/22
f 34/34/34 22/22/22 32/32/32
f 34/34/34 32/32/32 3/3/3
f 34/34/34 3/3/3 13/13/13
f 34/34/34 13/13/13 12/12/12
f 34/34/34 12/12/12 35/35/35
f 36/36/36 37/37/37 38/38/38
f 36/36/36 38/38/38 39/39/39
f 36/36/36 39/39/39 40/40/40
f 36/36/36 40/40/40 41/41/41
f 36/36/36 41/41/41 20/20/20
f 36/36/36 20/20/20 19/19/19
f 36/36/36 19/19/19 18/18/18
f 36/36/36 18/18/18 37/37/37
f 42/42/42 41/41/41 40/40/40
f 42/42/42 40/40/40 43/43/43
f 42/42/42 43/43/43 44/44/44
f 42/42/42 44/44/44 45/45/45
f 42/42/42 45/45/45 27/27/27
f 42/42/42 27/27/27 26/26/26
f 42/42/42 26/26/26 20/20/20
f 42/42/42 20/20/20 41/41/41
f 46/46/46 47/47/47 48/48/48
f 46/46/46 48/48/48 49/49/49
f 46/46/46 49/49/49 50/50/50
f 46/46/46 50/50/50 51/51/51
f 46/46/46 51/51/51 52/52/52
f 46/46/46 52/52/52 53/53/53
f 46/46/46 53/53/53 54/54/54
f 46/46/46 54/54/54 47/47/47
f 55/55/55 56/56/56 57/57/57
f 55/55/55 57/57/57 58/58/58
f 55/55/55 58/58/58 48/48/48
f 55/55/55 48/48/48 47/47/47
f 55/55/55 47/47/47 54/54/54
f 55/55/55 54/54/54 59/59/59
f 55/55/55 59/59/59 60/60/60
f 55/55/55 60/60/60 56/56/56
f 61/61/61 62/62/62 63/63/63
f 61/61/61 63/63/63 64/64/64
f 61/61/61 64/64/64 65/65/65
f 61/61/61 65/65/65 66/66/66
f 61/61/61 66/66/66 67/67/67
f 61/61/61 67/67/67 68/68/68
f 61/61/61 68/68/68 69/69/69
f 61/61/61 69/69/69 62/62/62
f 70/70/70 66/66/66 65/65/65
f 70/70/70 65/65/65 71/71/71
f 70/70/70 71/71/71 72/72/72
f 70/70/70 72/72/72 73/73/73
f 70/70/70 73/73/73 74/74/74
f 70/70/70 74/74/74 75/75/75
f 70/70/70 75/75/75 67/67/67
f 70/70/70 67/67/67 66/66/66
f 76/76/76 77/77/77 54/54/54
f 76/76/76 54/54/54 53/53/53
f 76/76/76 53/53/53 52/52/52
f 76/76/76 52/52/52 78/78/78
f 76/76/76 78/78/78 72/72/72
f 76/76/76 72/72/72 71/71/71
f 76/76/76 71/71/71 65/65/65
f 76/76/76 65/65/65 77/77/77
f 79/79/79 80/80/80 60/60/60
f 79/79/79 60/60/60 59/59/59
f 79/79/79 59/59/59 54/54/54
f 79/79/79 54/54/54 77/77/77
f 79/79/79 77/77/77 65/65/65
f 79/79/79 65/65/65 64/64/64
f 79/79/79 64/64/64 63/63/63
f 79/79/79 63/63/63 80/80/80
f 81/81/81 82/82/82 69/69/69
f 81/81/81 69/69/69 68/68/68
f 81/81/81 68/68/68 67/67/67
f 81/81/81 67/67/67 83/83/83
f 81/81/81 83/83/83 84/84/84
f 81/81/81 84/84/84 85/85/85
f 81/81/81 85/85/85 86/86/86
f 81/81/81 86/86/86 82/82/82
f 87/87/87 83/83/83 67/67/67
f 87/87/87 67/67/67 75/75/75
f 87/87/87 75/75/75 74/74/74
f 87/87/87 74/74/74 88/88/88
f 87/87/87 88/88/88 89/89/89
f 87/87/87 89/89/89 90/90/90
f 87/87/87 90/90/90 84/84/84
f 87/87/87 84/84/84 83/83/83
f 91/91/91 92/92/92 38/38/38
f 91/91/91 38/38/38 37/37/37
f 91/91/91 37/37/37 18/18/18
f 91/91/91 18/18/18 93/93/93
f 91/91/91 93/93/93 69/69/69
f 91/91/91 69/69/69 82/82/82
f 91/91/91 82/82/82 94/94/94
f 91/91/91 94/94/94 92/92/92
f 95/95/95 96/96/96 44/44/44
f 95/95/95 44/44/44 43/43/43
f 95/95/95 43/43/43 40/40/40
f 95/95/95 40/40/40 97/97/97
f 95/95/95 97/97/97 84/84/84
f 95/95/95 84/84/84 90/90/90
f 95/95/95 90/90/90 98/98/98
f 95/95/95 98/98/98 96/96/96
f 99/99/99 100/100/100 7/7/7
f 99/99/99 7/7/7 6/6/6
f 99/99/99 6/6/6 5/5/5
f 99/99/99 5/5/5 101/101/101
f 99/99/99 101/101/101 52/52/52
f 99/99/99 52/52/52 51/51/51
f 99/99/99 51/51/51 102/102/102
f 99/99/99 102/102/102 100/100/100
f 103/103/103 104/104/104 15/15/15
f 103/103/103 15/15/15 14/14/14
f 103/103/103 14/14/14 9/9/9
f 103/103/103 9/9/9 105/105/105
f 103/103/103 105/105/105 48/48/48
f 103/103/103 48/48/48 58/58/58
f 103/103/103 58/58/58 106/106/106
f 103/103/103 106/106/106 104/104/104
f 107/107/107 108/108/108 12/12/12
f 107/107/107 12/12/12 11/11/11
f 107/107/107 11/11/11 15/15/15
f 107/107/107 15/15/15 104/104/104
f 107/107/107 104/104/104 106/106/106
f 107/107/107 106/106/106 56/56/56
f 107/107/107 56/56/56 60/60/60
f 107/107/107 60/60/60 108/108/108
f 109/109/109 97/97/97 40/40/40
f 109/109/109 40/40/40 39/39/39
f 109/109/109 39/39/39 38/38/38
f 109/109/109 38/38/38 92/92/92
f 109/109/109 92/92/92 94/94/94
f 109/109/109 94/94/94 85/85/85
f 109/109/109 85/85/85 84/84/84
f 109/109/109 84/84/84 97/97/97
f 110/110/110 111/111/111 27/27/27
f 110/110/110 27/27/27 45/45/45
f 110/110/110 45/45/45 44/44/44
f 110/110/110 44/44/44 96/96/96
f 110/110/110 96/96/96 98/98/98
f 110/110/110 98/98/98 88/88/88
f 110/110/110 88/88/88 74/74/74
f 110/110/110 74/74/74 111/111/111
f 112/112/112 105/105/105 9/9/9
f 112/112/112 9/9/9 8/8/8
f 112/112/112 8/8/8 7/7/7
f 112/112/112 7/7/7 100/100/100
f 112/112/112 100/100/100 102/102/102
f 112/112/112 102/102/102 49/49/49
f 112/112/112 49/49/49 48/48/48
f 112/112/112 48/48/48 105/105/105
f 113/113/113 101/101/101 5/5/5
f 113/113/113 5/5/5 33/33/33
f 113/113/113 33/33/33 29/29/29
f 113/113/113 29/29/29 114/114/114
f 113/113/113 114/114/114 72/72/72
f 113/113/113 72/72/72 78/78/78
f 113/113/113 78/78/78 52/52/52
f 113/113/113 52/52/52 101/101/101
f 115/115/115 116/116/116 24/24/24
f 115/115/115 24/24/24 35/35/35
f 115/115/115 35/35/35 12/12/12
f 115/115/115 12/12/12 108/108/108
f 115/115/115 108/108/108 60/60/60
f 115/115/115 60/60/60 80/80/80
f 115/115/115 80/80/80 63/63/63
f 115/115/115 63/63/63 116/116/116
f 117/117/117 93/93/93 18/18/18
f 117/117/117 18/18/18 17/17/17
f 117/117/117 17/17/17 24/24/24
f 117/117/117 24/24/24 116/116/116
f 117/117/117 116/116/116 63/63/63
f 117/117/117 63/63/63 62/62/62
f 117/117/117 62/62/62 69/69/69
f 117/117/117 69/69/69 93/93/93
f 118/118/118 114/114/114 29/29/29
f 118/118/118 29/29/29 28/28/28
f 118/118/118 28/28/28 27/27/27
f 118/118/118 27/27/27 111/111/111
f 118/118/118 111/111/111 74/74/74
f 118/118/118 74/74/74 73/73/73
f 118/118/118 73/73/73 72/72/72
f 118/118/118 72/72/72 114/114/114
