v -2.414698 0.736111 -1.213911
v -2.417148 0.735983 -1.213831
v -2.416326 0.734867 -1.210873
v -2.413641 0.735071 -1.211312
v -2.411554 0.735392 -1.21143
v -2.41273 0.736312 -1.213555
v -2.413916 0.73665 -1.214849
v -2.415548 0.736727 -1.21577
v -2.417762 0.736695 -1.216035
v -2.419261 0.736215 -1.212605
v -2.420732 0.736495 -1.211265
v -2.420644 0.735599 -1.208828
v -2.418827 0.735189 -1.209828
v -2.419497 0.736817 -1.214639
v -2.420397 0.736797 -1.212994
v -2.416447 0.730062 -1.201302
v -2.418306 0.730306 -1.20059
v -2.417097 0.728087 -1.198135
v -2.415456 0.727861 -1.198777
v -2.413246 0.727668 -1.199537
v -2.413944 0.729853 -1.202151
v -2.414684 0.731836 -1.204893
v -2.417298 0.732075 -1.203993
v -2.419236 0.732362 -1.203228
v -2.411366 0.729946 -1.202757
v -2.410963 0.727758 -1.200063
v -2.409223 0.727907 -1.200389
v -2.409403 0.730102 -1.203138
v -2.409923 0.73215 -1.205894
v -2.411983 0.731954 -1.205514
v -2.412738 0.733674 -1.20844
v -2.415492 0.733496 -1.207847
v -2.410629 0.733959 -1.208767
v -2.418132 0.733797 -1.206896
v -2.42008 0.734174 -1.206062
v -2.414202 0.725578 -1.196369
v -2.415417 0.725789 -1.195853
v -2.414187 0.724414 -1.194745
v -2.413172 0.72381 -1.194626
v -2.41206 0.723646 -1.19507
v -2.412562 0.725401 -1.196965
v -2.410849 0.725501 -1.197329
v -2.410874 0.723757 -1.195284
v -2.410052 0.724319 -1.195929
v -2.409537 0.725655 -1.197536
v -2.414695 0.735875 -1.214012
v -2.417179 0.735745 -1.213923
v -2.417785 0.736515 -1.216101
v -2.415543 0.736549 -1.215842
v -2.413906 0.736519 -1.214905
v -2.412711 0.736137 -1.213635
v -2.411541 0.735219 -1.211515
v -2.413644 0.734838 -1.211421
v -2.41636 0.734633 -1.210973
v -2.419327 0.73598 -1.212686
v -2.420798 0.736322 -1.21132
v -2.420441 0.736668 -1.213035
v -2.419547 0.736641 -1.214696
v -2.418891 0.734958 -1.20992
v -2.420708 0.735429 -1.208892
v -2.416514 0.729853 -1.201437
v -2.418367 0.73015 -1.200688
v -2.419297 0.732201 -1.203316
v -2.417363 0.731859 -1.204116
v -2.414726 0.731618 -1.205023
v -2.41399 0.729643 -1.202293
v -2.413294 0.727463 -1.199687
v -2.415526 0.727658 -1.19892
v -2.41716 0.727936 -1.198239
v -2.411389 0.729736 -1.202904
v -2.412001 0.731736 -1.20565
v -2.409925 0.731987 -1.205999
v -2.409409 0.729945 -1.203251
v -2.409231 0.727755 -1.200508
v -2.410988 0.727554 -1.200218
v -2.41275 0.733448 -1.208562
v -2.415529 0.733269 -1.207961
v -2.410624 0.733791 -1.208862
v -2.418196 0.733572 -1.207003
v -2.420142 0.734008 -1.206138
v -2.414274 0.725377 -1.196515
v -2.415483 0.72564 -1.195958
v -2.41261 0.725199 -1.197118
v -2.412096 0.723494 -1.195185
v -2.413227 0.72366 -1.194735
v -2.414232 0.724303 -1.194824
v -2.410873 0.7253 -1.197488
v -2.409544 0.725505 -1.197658
v -2.41006 0.724208 -1.196019
v -2.410892 0.723606 -1.195403
v -2.415854 0.725794 -1.195727
v -2.414058 0.723963 -1.194246
v -2.417675 0.728095 -1.197967
v -2.414232 0.724303 -1.194824
v -2.410891 0.723109 -1.194655
v -2.409916 0.723869 -1.195431
v -2.411908 0.722993 -1.19449
v -2.41006 0.724208 -1.196019
v -2.412062 0.736302 -1.213472
v -2.413681 0.736739 -1.215036
v -2.410849 0.735423 -1.211508
v -2.413906 0.736519 -1.214905
v -2.419598 0.736939 -1.215341
v -2.420692 0.736899 -1.213029
v -2.417977 0.736852 -1.216798
v -2.420441 0.736668 -1.213035
v -2.421256 0.736512 -1.210841
v -2.421282 0.735661 -1.208522
v -2.412854 0.723154 -1.194093
v -2.4091 0.72564 -1.19766
v -2.408644 0.727889 -1.200552
v -2.415828 0.736853 -1.21642
v -2.409921 0.733979 -1.208919
v -2.409235 0.732143 -1.206068
v -2.42076 0.734227 -1.205816
v -2.419912 0.732387 -1.203012
v -2.418955 0.730318 -1.200395
v -2.408749 0.730085 -1.203316
vn -0.0962 0.921 0.3775
vn 0.1092 0.9456 0.3063
vn 0.1242 0.9245 0.3603
vn -0.0587 0.9026 0.4265
vn -0.0434 0.8936 0.4466
vn -0.0883 0.9222 0.3764
vn -0.1189 0.9383 0.3246
vn -0.0809 0.9554 0.284
vn 0.0851 0.9718 0.2199
vn 0.3201 0.9114 0.2585
vn 0.3127 0.9131 0.2615
vn 0.3107 0.8856 0.3453
vn 0.3134 0.8941 0.32
vn 0.2589 0.9477 0.1867
vn 0.3119 0.9285 0.2012
vn 0.2855 0.7921 0.5394
vn 0.2524 0.7905 0.558
vn 0.2561 0.7707 0.5835
vn 0.2998 0.7708 0.5621
vn 0.191 0.7723 0.6058
vn 0.1823 0.7987 0.5734
vn 0.1639 0.8472 0.5053
vn 0.2817 0.834 0.4744
vn 0.26 0.8276 0.4975
vn 0.0766 0.7969 0.5992
vn 0.0756 0.7759 0.6262
vn 0.1239 0.7738 0.6211
vn 0.1144 0.7936 0.5975
vn 0.0776 0.8317 0.5497
vn 0.0472 0.8394 0.5415
vn -0.0034 0.879 0.4767
vn 0.1423 0.8935 0.4259
vn 0.019 0.8683 0.4957
vn 0.2921 0.8723 0.3921
vn 0.2826 0.8622 0.4203
vn 0.3265 0.7587 0.5637
vn 0.281 0.7565 0.5905
vn 0.3141 0.7421 0.5921
vn 0.3576 0.7181 0.597
vn 0.2057 0.7214 0.6612
vn 0.195 0.7595 0.6206
vn 0.0533 0.7649 0.6419
vn 0.0427 0.7254 0.687
vn 0.0778 0.7475 0.6596
vn 0.1058 0.7606 0.6406
vn 0.1172 -0.9071 -0.4042
vn -0.1134 -0.9402 -0.3213
vn -0.1292 -0.9166 -0.3784
vn 0.1809 -0.8596 -0.4779
vn 0.2845 -0.8079 -0.5161
vn 0.2643 -0.8215 -0.5052
vn 0.1977 -0.8445 -0.4977
vn 0.0731 -0.8994 -0.4309
vn -0.1242 -0.9246 -0.3602
vn -0.3513 -0.8964 -0.2701
vn -0.5257 -0.8036 -0.279
vn -0.5481 -0.7889 -0.2778
vn -0.4423 -0.8453 -0.2995
vn -0.3278 -0.8903 -0.3162
vn -0.4664 -0.8293 -0.3077
vn -0.3005 -0.791 -0.5329
vn -0.4011 -0.7782 -0.4832
vn -0.4001 -0.8059 -0.4364
vn -0.2956 -0.8322 -0.469
vn -0.164 -0.8471 -0.5054
vn -0.1824 -0.7986 -0.5736
vn -0.191 -0.7723 -0.6059
vn -0.3166 -0.7707 -0.5529
vn -0.4237 -0.7714 -0.4748
vn -0.0605 -0.7965 -0.6016
vn -0.0325 -0.8383 -0.5443
vn 0.0744 -0.8167 -0.5722
vn 0.0517 -0.7885 -0.6128
vn 0.0756 -0.7828 -0.6176
vn -0.0565 -0.7767 -0.6273
vn 0.0176 -0.8772 -0.4798
vn -0.1422 -0.8935 -0.4259
vn 0.1289 -0.8416 -0.5245
vn -0.3056 -0.8698 -0.3872
vn -0.4221 -0.829 -0.3668
vn -0.3461 -0.7676 -0.5394
vn -0.4637 -0.7781 -0.4237
vn -0.1926 -0.7673 -0.6117
vn -0.1817 -0.8005 -0.5711
vn -0.397 -0.7967 -0.4555
vn -0.485 -0.784 -0.3875
vn -0.0242 -0.775 -0.6315
vn 0.1362 -0.7919 -0.5952
vn 0.1732 -0.7991 -0.5756
vn 0.0621 -0.8073 -0.5869
vn -0.759 -0.0577 0.6485
vn -0.4592 -0.2575 0.8502
vn -0.8454 0.0042 0.5341
vn -0.485 -0.784 -0.3875
vn 0.4267 -0.5956 0.6805
vn 0.8275 -0.2871 0.4825
vn 0.1739 -0.7262 0.6651
vn 0.1732 -0.7991 -0.5756
vn 0.8157 0.4 -0.4179
vn 0.5985 0.4758 -0.6445
vn 0.9181 0.291 -0.2689
vn 0.2845 -0.8079 -0.5161
vn -0.6829 0.3735 -0.6277
vn -0.8283 0.508 -0.2363
vn -0.2605 0.2584 -0.9302
vn -0.5481 -0.7889 -0.2778
vn -0.8956 0.4389 0.072
vn -0.9082 0.3328 0.2537
vn -0.027 -0.5853 0.8103
vn 0.9839 -0.0974 0.1498
vn 0.9993 -0.0376 0.006
vn 0.2626 0.352 -0.8984
vn 0.9665 0.1865 -0.1765
vn 0.9847 0.1132 -0.1321
vn -0.9046 0.229 0.3594
vn -0.8997 0.1561 0.4075
vn -0.8885 0.083 0.4512
vn 0.9953 0.0398 -0.0876
vt 0.839504 0.118056
vt 0.856743 0.205307
vt 0.741230 0.205307
vt 0.734555 0.106726
vt 0.724541 0.032791
vt 0.813647 0.052618
vt 0.868992 0.081539
vt 0.913398 0.129584
vt 0.940923 0.205307
vt 0.839504 0.292557
vt 0.813647 0.357995
vt 0.724541 0.377822
vt 0.734555 0.303887
vt 0.913398 0.281029
vt 0.868992 0.329074
vt 0.369475 0.299954
vt 0.368286 0.370940
vt 0.245840 0.351447
vt 0.246397 0.288815
vt 0.246768 0.205307
vt 0.370268 0.205307
vt 0.494283 0.205307
vt 0.492822 0.304944
vt 0.490632 0.379672
vt 0.369475 0.110659
vt 0.246397 0.121798
vt 0.245841 0.059166
vt 0.368286 0.039673
vt 0.490632 0.030941
vt 0.492822 0.105669
vt 0.616755 0.103478
vt 0.619174 0.205307
vt 0.613127 0.027106
vt 0.616755 0.307135
vt 0.613126 0.383507
vt 0.123273 0.268175
vt 0.123047 0.315326
vt 0.054743 0.283353
vt 0.030912 0.249131
vt 0.030973 0.205306
vt 0.123423 0.205306
vt 0.123273 0.142438
vt 0.030912 0.161481
vt 0.054744 0.127260
vt 0.123047 0.095287
vt 0.839504 0.118056
vt 0.856743 0.205307
vt 0.968983 0.205307
vt 0.938030 0.133427
vt 0.876123 0.061548
vt 0.805028 0.030806
vt 0.721203 0.008146
vt 0.734555 0.106726
vt 0.741230 0.205307
vt 0.839504 0.292557
vt 0.805028 0.379807
vt 0.876123 0.349065
vt 0.938030 0.277186
vt 0.734555 0.303887
vt 0.721203 0.402467
vt 0.369475 0.299954
vt 0.367890 0.394602
vt 0.489902 0.404581
vt 0.492822 0.304944
vt 0.494283 0.205307
vt 0.370268 0.205307
vt 0.246768 0.205307
vt 0.246397 0.288815
vt 0.245655 0.372324
vt 0.369475 0.110659
vt 0.492822 0.105669
vt 0.489902 0.006032
vt 0.367890 0.016011
vt 0.245655 0.038289
vt 0.246397 0.121798
vt 0.616755 0.103478
vt 0.619174 0.205307
vt 0.611917 0.001649
vt 0.616755 0.307135
vt 0.611917 0.408964
vt 0.123273 0.268175
vt 0.122972 0.331043
vt 0.123423 0.205306
vt 0.000156 0.205306
vt 0.000125 0.242784
vt 0.000064 0.280261
vt 0.123273 0.142438
vt 0.122972 0.079570
vt 0.000064 0.130352
vt 0.000125 0.167829
vt 0.122972 0.331043
vt 0.030806 0.283587
vt 0.245655 0.372324
vt 0.030806 0.283587
vt 0.000125 0.167829
vt 0.030806 0.127026
vt 0.000156 0.205306
vt 0.030806 0.127026
vt 0.805028 0.030806
vt 0.873826 0.071832
vt 0.721203 0.008146
vt 0.873826 0.071832
vt 0.938030 0.277186
vt 0.873826 0.338781
vt 0.968983 0.205307
vt 0.873826 0.338781
vt 0.805028 0.379807
vt 0.721203 0.402467
vt 0.000125 0.242784
vt 0.122972 0.079570
vt 0.245655 0.038289
vt 0.938030 0.133427
vt 0.611917 0.001649
vt 0.489902 0.006032
vt 0.611917 0.408964
vt 0.489902 0.404581
vt 0.367890 0.394602
vt 0.367890 0.016011
f 1/1/1 2/2/2 3/3/3
f 1/1/1 3/3/3 4/4/4
f 1/1/1 4/4/4 5/5/5
f 1/1/1 5/5/5 6/6/6
f 1/1/1 6/6/6 7/7/7
f 1/1/1 7/7/7 8/8/8
f 1/1/1 8/8/8 9/9/9
f 1/1/1 9/9/9 2/2/2
f 10/10/10 11/11/11 12/12/12
f 10/10/10 12/12/12 13/13/13
f 10/10/10 13/13/13 3/3/3
f 10/10/10 3/3/3 2/2/2
f 10/10/10 2/2/2 9/9/9
f 10/10/10 9/9/9 14/14/14
f 10/10/10 14/14/14 15/15/15
f 10/10/10 15/15/15 11/11/11
f 16/16/16 17/17/17 18/18/18
f 16/16/16 18/18/18 19/19/19
f 16/16/16 19/19/19 20/20/20
f 16/16/16 20/20/20 21/21/21
f 16/16/16 21/21/21 22/22/22
f 16/16/16 22/22/22 23/23/23
f 16/16/16 23/23/23 24/24/24
f 16/16/16 24/24/24 17/17/17
f 25/25/25 21/21/21 20/20/20
f 25/25/25 20/20/20 26/26/26
f 25/25/25 26/26/26 27/27/27
f 25/25/25 27/27/27 28/28/28
f 25/25/25 28/28/28 29/29/29
f 25/25/25 29/29/29 30/30/30
f 25/25/25 30/30/30 22/22/22
f 25/25/25 22/22/22 21/21/21
f 31/31/31 32/32/32 22/22/22
f 31/31/31 22/22/22 30/30/30
f 31/31/31 30/30/30 29/29/29
f 31/31/31 29/29/29 33/33/33
f 31/31/31 33/33/33 5/5/5
f 31/31/31 5/5/5 4/4/4
f 31/31/31 4/4/4 3/3/3
f 31/31/31 3/3/3 32/32/32
f 34/34/34 35/35/35 24/24/24
f 34/34/34 24/24/24 23/23/23
f 34/34/34 23/23/23 22/22/22
f 34/34/34 22/22/22 32/32/32
f 34/34/34 32/32/32 3/3/3
f 34/34/34 3/3/3 13/13/13
f 34/34/34 13/13/13 12/12/12
f 34/34/34 12/12/12 35/35/35
f 36/36/36 37/37/37 38/38/38
f 36/36/36 38/38/38 39/39/39
f 36/36/36 39/39/39 40/40/40
f 36/36/36 40/40/40 41/41/41
f 36/36/36 41/41/41 20/20/20
f 36/36/36 20/20/20 19/19/19
f 36/36/36 19/19/19 18/18/18
f 36/36/36 18/18/18 37/37/37
f 42/42/42 41/41/41 40/40/40
f 42/42/42 40/40/40 43/43/43
f 42/42/42 43/43/43 44/44/44
f 42/42/42 44/44/44 45/45/45
f 42/42/42 45/45/45 27/27/27
f 42/42/42 27/27/27 26/26/26
f 42/42/42 26/26/26 20/20/20
f 42/42/42 20/20/20 41/41/41
f 46/46/46 47/47/47 48/48/48
f 46/46/46 48/48/48 49/49/49
f 46/46/46 49/49/49 50/50/50
f 46/46/46 50/50/50 51/51/51
f 46/46/46 51/51/51 52/52/52
f 46/46/46 52/52/52 53/53/53
f 46/46/46 53/53/53 54/54/54
f 46/46/46 54/54/54 47/47/47
f 55/55/55 56/56/56 57/57/57
f 55/55/55 57/57/57 58/58/58
f 55/55/55 58/58/58 48/48/48
f 55/55/55 48/48/48 47/47/47
f 55/55/55 47/47/47 54/54/54
f 55/55/55 54/54/54 59/59/59
f 55/55/55 59/59/59 60/60/60
f 55/55/55 60/60/60 56/56/56
f 61/61/61 62/62/62 63/63/63
f 61/61/61 63/63/63 64/64/64
f 61/61/61 64/64/64 65/65/65
f 61/61/61 65/65/65 66/66/66
f 61/61/61 66/66/66 67/67/67
f 61/61/61 67/67/67 68/68/68
f 61/61/61 68/68/68 69/69/69
f 61/61/61 69/69/69 62/62/62
f 70/70/70 66/66/66 65/65/65
f 70/70/70 65/65/65 71/71/71
f 70/70/70 71/71/71 72/72/72
f 70/70/70 72/72/72 73/73/73
f 70/70/70 73/73/73 74/74/74
f 70/70/70 74/74/74 75/75/75
f 70/70/70 75/75/75 67/67/67
f 70/70/70 67/67/67 66/66/66
f 76/76/76 77/77/77 54/54/54
f 76/76/76 54/54/54 53/53/53
f 76/76/76 53/53/53 52/52/52
f 76/76/76 52/52/52 78/78/78
f 76/76/76 78/78/78 72/72/72
f 76/76/76 72/72/72 71/71/71
f 76/76/76 71/71/71 65/65/65
f 76/76/76 65/65/65 77/77/77
f 79/79/79 80/80/80 60/60/60
f 79/79/79 60/60/60 59/59/59
f 79/79/79 59/59/59 54/54/54
f 79/79/79 54/54/54 77/77/77
f 79/79/79 77/77/77 65/65/65
f 79/79/79 65/65/65 64/64/64
f 79/79/79 64/64/64 63/63/63
f 79/79/79 63/63/63 80/80/80
f 81/81/81 82/82/82 69/69/69
f 81/81/81 69/69/69 68/68/68
f 81/81/81 68/68/68 67/67/67
f 81/81/81 67/67/67 83/83/83
f 81/81/81 83/83/83 84/84/84
f 81/81/81 84/84/84 85/85/85
f 81/81/81 85/85/85 86/86/86
f 81/81/81 86/86/86 82/82/82
f 87/87/87 83/83/83 67/67/67
f 87/87/87 67/67/67 75/75/75
f 87/87/87 75/75/75 74/74/74
f 87/87/87 74/74/74 88/88/88
f 87/87/87 88/88/88 89/89/89
f 87/87/87 89/89/89 90/90/90
f 87/87/87 90/90/90 84/84/84
f 87/87/87 84/84/84 83/83/83
f 91/91/91 92/92/92 38/38/38
f 91/91/91 38/38/38 37/37/37
f 91/91/91 37/37/37 18/18/18
f 91/91/91 18/18/18 93/93/93
f 91/91/91 93/93/93 69/69/69
f 91/91/91 69/69/69 82/82/82
f 91/91/91 82/82/82 94/94/94
f 91/91/91 94/94/94 92/92/92
f 95/95/95 96/96/96 44/44/44
f 95/95/95 44/44/44 43/43/43
f 95/95/95 43/43/43 40/40/40
f 95/95/95 40/40/40 97/97/97
f 95/95/95 97/97/97 84/84/84
f 95/95/95 84/84/84 90/90/90
f 95/95/95 90/90/90 98/98/98
f 95/95/95 98/98/98 96/96/96
f 99/99/99 100/100/100 7/7/7
f 99/99/99 7/7/7 6/6/6
f 99/99/99 6/6/6 5/5/5
f 99/99/99 5/5/5 101/101/101
f 99/99/99 101/101/101 52/52/52
f 99/99/99 52/52/52 51/51/51
f 99/99/99 51/51/51 102/102/102
f 99/99/99 102/102/102 100/100/100
f 103/103/103 104/104/104 15/15/15
f 103/103/103 15/15/15 14/14/14
f 103/103/103 14/14/14 9/9/9
f 103/103/103 9/9/9 105/105/105
f 103/103/103 105/105/105 48/48/48
f 103/103/103 48/48/48 58/58/58
f 103/103/103 58/58/58 106/106/106
f 103/103/103 106/106/106 104/104/104
f 107/107/107 108/108/108 12/12/12
f 107/107/107 12/12/12 11/11/11
f 107/107/107 11/11/11 15/15/15
f 107/107/107 15/15/15 104/104/104
f 107/107/107 104/104/104 106/106/106
f 107/107/107 106/106/106 56/56/56
f 107/107/107 56/56/56 60/60/60
f 107/107/107 60/60/60 108/108/108
f 109/109/109 97/97/97 40/40/40
f 109/109/109 40/40/40 39/39/39
f 109/109/109 39/39/39 38/38/38
f 109/109/109 38/38/38 92/92/92
f 109/109/109 92/92/92 94/94/94
f 109/109/109 94/94/94 85/85/85
f 109/109/109 85/85/85 84/84/84
f 109/109/109 84/84/84 97/97/97
f 110/110/110 111/111/111 27/27/27
f 110/110/110 27/27/27 45/45/45
f 110/110/110 45/45/45 44/44/44
f 110/110/110 44/44/44 96/96/96
f 110/110/110 96/96/96 98/98/98
f 110/110/110 98/98/98 88/88/88
f 110/110/110 88/88/88 74/74/74
f 110/110/110 74/74/74 111/111/111
f 112/112/112 105/105/105 9/9/9
f 112/112/112 9/9/9 8/8/8
f 112/112/112 8/8/8 7/7/7
f 112/112/112 7/7/7 100/100/100
f 112/112/112 100/100/100 102/102/102
f 112/112/112 102/102/102 49/49/49
f 112/112/112 49/49/49 48/48/48
f 112/112/112 48/48/48 105/105/105
f 113/113/113 101/101/101 5/5/5
f 113/113/113 5/5/5 33/33/33
f 113/113/113 33/33/33 29/29/29
f 113/113/113 29/29/29 114/114/114
f 113/113/113 114/114/114 72/72/72
f 113/113/113 72/72/72 78/78/78
f 113/113/113 78/78/78 52/52/52
f 113/113/113 52/52/52 101/101/101
f 115/115/115 116/116/116 24/24/24
f 115/115/115 24/24/24 35/35/35
f 115/115/115 35/35/35 12/12/12
f 115/115/115 12/12/12 108/108/108
f 115/115/115 108/108/108 60/60/60
f 115/115/115 60/60/60 80/80/80
f 115/115/115 80/80/80 63/63/63
f 115/115/115 63/63/63 116/116/116
f 117/117/117 93/93/93 18/18/18
f 117/117/117 18/18/18 17/17/17
f 117/117/117 17/17/17 24/24/24
f 117/117/117 24/24/24 116/116/116
f 117/117/117 116/116/116 63/63/63
f 117/117/117 63/63/63 62/62/62
f 117/117/117 62/62/62 69/69/69
f 117/117/117 69/69/69 93/93/93
f 118/118/118 114/114/114 29/29/29
f 118/118/118 29/29/29 28/28/28
f 118/118/118 28/28/28 27/27/27
f 118/118/118 27/27/27 111/111/111
f 118/118/118 111/111/111 74/74/74
f 118/118/118 74/74/74 73/73/73
f 118/118/118 73/73/73 72/72/72
f 118/118/118 72/72/72 114/114/114
