v -2.419713 0.735609 -1.097068
v -2.41953 0.735509 -1.094982
v -2.41708 0.734467 -1.095819
v -2.417579 0.734642 -1.09809
v -2.417772 0.734911 -1.099866
v -2.4195 0.735763 -1.098765
v -2.420535 0.736093 -1.097693
v -2.421239 0.736193 -1.096257
v -2.421359 0.736182 -1.094356
v -2.418376 0.73568 -1.093241
v -2.417154 0.735887 -1.092053
v -2.415107 0.735051 -1.092241
v -2.416059 0.734722 -1.09374
v -2.420081 0.736254 -1.092944
v -2.418635 0.736193 -1.092257
v -2.409054 0.730089 -1.096152
v -2.40835 0.730284 -1.094602
v -2.40638 0.728314 -1.095739
v -2.407012 0.728132 -1.097106
v -2.407773 0.72798 -1.098953
v -2.409905 0.729924 -1.098244
v -2.412149 0.7317 -1.097492
v -2.411249 0.731889 -1.095308
v -2.410495 0.73212 -1.093693
v -2.410544 0.73001 -1.100414
v -2.40833 0.728063 -1.100875
v -2.408688 0.728192 -1.102344
v -2.41096 0.730147 -1.102071
v -2.413225 0.731976 -1.101506
v -2.412807 0.731807 -1.099766
v -2.415215 0.733363 -1.09899
v -2.414581 0.733205 -1.09667
v -2.415588 0.733606 -1.100775
v -2.413634 0.733446 -1.094466
v -2.412817 0.733752 -1.092847
v -2.405087 0.726109 -1.098279
v -2.404582 0.726279 -1.097269
v -2.403737 0.725068 -1.098364
v -2.403701 0.724544 -1.099231
v -2.404139 0.724412 -1.100158
v -2.405679 0.725968 -1.099648
v -2.40607 0.726057 -1.101092
v -2.404375 0.724509 -1.101159
v -2.404949 0.725004 -1.101832
v -2.406306 0.726189 -1.102201
v -2.419806 0.735411 -1.097064
v -2.419613 0.735308 -1.09495
v -2.421418 0.736031 -1.094332
v -2.421306 0.736043 -1.096257
v -2.420588 0.735983 -1.097698
v -2.419574 0.735616 -1.098777
v -2.41785 0.734766 -1.099871
v -2.417679 0.734447 -1.09808
v -2.417171 0.73427 -1.095784
v -2.418448 0.735482 -1.09318
v -2.417202 0.735741 -1.091993
v -2.418671 0.736084 -1.092216
v -2.420132 0.736105 -1.092898
v -2.416141 0.734528 -1.093679
v -2.415163 0.734908 -1.092182
v -2.409172 0.729914 -1.096087
v -2.408434 0.730154 -1.094545
v -2.410571 0.731985 -1.093637
v -2.411356 0.731708 -1.095245
v -2.412264 0.731517 -1.097448
v -2.41003 0.729749 -1.098197
v -2.407905 0.72781 -1.098904
v -2.407137 0.727964 -1.097039
v -2.406469 0.728188 -1.095679
v -2.410675 0.729835 -1.100386
v -2.412928 0.731625 -1.099743
v -2.413319 0.73184 -1.101498
v -2.411061 0.730016 -1.102059
v -2.408794 0.728066 -1.102331
v -2.408467 0.727893 -1.100845
v -2.415325 0.733173 -1.098973
v -2.414683 0.733015 -1.096631
v -2.415674 0.733466 -1.100773
v -2.413728 0.733258 -1.094405
v -2.412883 0.733613 -1.09279
v -2.405213 0.725942 -1.098209
v -2.404672 0.726155 -1.097207
v -2.405813 0.7258 -1.099598
v -2.404239 0.724287 -1.10012
v -2.403796 0.72442 -1.099178
v -2.403805 0.724976 -1.09832
v -2.40621 0.725889 -1.101062
v -2.406414 0.726064 -1.102189
v -2.405028 0.724911 -1.10182
v -2.40448 0.724384 -1.101137
v -2.404453 0.726281 -1.096902
v -2.40333 0.724668 -1.098495
v -2.406208 0.728319 -1.095255
v -2.403805 0.724976 -1.09832
v -2.403857 0.723937 -1.101171
v -2.404544 0.724604 -1.10197
v -2.40367 0.723838 -1.100311
v -2.405028 0.724911 -1.10182
v -2.419462 0.735749 -1.099339
v -2.420704 0.736174 -1.097885
v -2.417872 0.734936 -1.100463
v -2.420588 0.735983 -1.097698
v -2.420671 0.736379 -1.092825
v -2.418648 0.736282 -1.092004
v -2.421994 0.736339 -1.094137
v -2.418671 0.736084 -1.092216
v -2.416767 0.735891 -1.091627
v -2.414813 0.735098 -1.091712
v -2.403281 0.723968 -1.099525
v -2.406433 0.726177 -1.102568
v -2.408855 0.728179 -1.10283
v -2.421776 0.736321 -1.095987
v -2.415751 0.733625 -1.101372
v -2.413407 0.731972 -1.102084
v -2.412573 0.733793 -1.092279
v -2.410276 0.732137 -1.093128
v -2.408152 0.730292 -1.094058
v -2.411144 0.730134 -1.10262
vn 0.413 0.9081 0.0683
vn 0.3311 0.9342 -0.1329
vn 0.3834 0.9112 -0.1508
vn 0.4591 0.8879 0.0282
vn 0.478 0.8782 0.0118
vn 0.4113 0.9095 0.0605
vn 0.3619 0.9275 0.0938
vn 0.32 0.9456 0.0581
vn 0.247 0.9634 -0.1041
vn 0.2702 0.9006 -0.3404
vn 0.2737 0.9022 -0.3334
vn 0.3565 0.8719 -0.3358
vn 0.3314 0.8812 -0.3371
vn 0.2032 0.9395 -0.2756
vn 0.2141 0.9196 -0.3292
vn 0.5485 0.772 -0.3211
vn 0.5689 0.7699 -0.2891
vn 0.5934 0.7493 -0.294
vn 0.5696 0.7499 -0.3364
vn 0.6194 0.7505 -0.2303
vn 0.5885 0.7779 -0.22
vn 0.5232 0.8288 -0.1981
vn 0.4853 0.8161 -0.3139
vn 0.5093 0.809 -0.2934
vn 0.6203 0.7757 -0.1159
vn 0.6465 0.7539 -0.1163
vn 0.6387 0.7517 -0.1642
vn 0.6163 0.7724 -0.1536
vn 0.5719 0.8123 -0.1144
vn 0.5657 0.8203 -0.0836
vn 0.5052 0.8625 -0.0296
vn 0.4468 0.8779 -0.1723
vn 0.5225 0.8509 -0.0531
vn 0.4039 0.8571 -0.3198
vn 0.4321 0.8462 -0.3118
vn 0.5693 0.7375 -0.3631
vn 0.5986 0.7346 -0.3193
vn 0.5978 0.72 -0.3524
vn 0.5993 0.6959 -0.3958
vn 0.6722 0.6977 -0.2478
vn 0.6336 0.7371 -0.2351
vn 0.6631 0.7425 -0.0949
vn 0.7073 0.7016 -0.0866
vn 0.6788 0.7244 -0.1202
vn 0.6586 0.7379 -0.1471
vn -0.4403 -0.8935 -0.0878
vn -0.3456 -0.9282 0.1379
vn -0.4008 -0.9026 0.1567
vn -0.516 -0.8437 -0.1477
vn -0.5583 -0.7913 -0.2493
vn -0.5465 -0.8054 -0.2295
vn -0.5361 -0.8282 -0.1633
vn -0.4642 -0.8847 -0.0424
vn -0.3833 -0.9112 0.1508
vn -0.2795 -0.8851 0.3722
vn -0.2753 -0.7911 0.5462
vn -0.2724 -0.7763 0.5684
vn -0.302 -0.8326 0.4643
vn -0.3266 -0.8774 0.3513
vn -0.3082 -0.8162 0.4888
vn -0.5412 -0.771 0.3356
vn -0.4854 -0.7594 0.4332
vn -0.4396 -0.7887 0.4296
vn -0.479 -0.8144 0.3275
vn -0.5233 -0.8287 0.1982
vn -0.5887 -0.7778 0.2201
vn -0.6195 -0.7504 0.2304
vn -0.5594 -0.7501 0.3527
vn -0.4755 -0.7527 0.4552
vn -0.6235 -0.7754 0.0999
vn -0.5693 -0.8192 0.069
vn -0.6025 -0.7973 -0.0362
vn -0.6408 -0.7676 -0.0115
vn -0.6467 -0.7619 -0.0352
vn -0.6488 -0.7547 0.0973
vn -0.5091 -0.8605 0.0156
vn -0.4468 -0.8779 0.1723
vn -0.5588 -0.824 -0.0931
vn -0.3981 -0.8547 0.3331
vn -0.3697 -0.8141 0.4478
vn -0.5441 -0.7472 0.3814
vn -0.4224 -0.761 0.4923
vn -0.625 -0.7453 0.2322
vn -0.5863 -0.7798 0.2193
vn -0.4585 -0.779 0.4277
vn -0.3853 -0.768 0.5116
vn -0.6547 -0.753 0.0652
vn -0.6282 -0.772 -0.0968
vn -0.6111 -0.78 -0.1347
vn -0.6161 -0.7873 -0.0232
vn 0.6883 -0.076 0.7214
vn 0.8659 -0.2836 0.4119
vn 0.5809 -0.0094 0.8139
vn -0.3853 -0.768 0.5116
vn 0.6348 -0.6202 -0.4608
vn 0.4245 -0.3073 -0.8517
vn 0.6294 -0.7492 -0.2062
vn -0.6111 -0.78 -0.1347
vn -0.4501 0.4097 -0.7934
vn -0.6613 0.4943 -0.5641
vn -0.3108 0.2953 -0.9034
vn -0.5583 -0.7913 -0.2493
vn -0.5752 0.3979 0.7147
vn -0.1718 0.52 0.8367
vn -0.9048 0.2909 0.3109
vn -0.2724 -0.7763 0.5684
vn 0.1375 0.4407 0.887
vn 0.3161 0.3283 0.89
vn 0.7907 -0.612 -0.0144
vn 0.0904 -0.1075 -0.9901
vn -0.0518 -0.043 -0.9977
vn -0.8996 0.3809 -0.2137
vn -0.2246 0.1873 -0.9563
vn -0.184 0.1127 -0.9764
vn 0.4177 0.2211 0.8813
vn 0.463 0.1466 0.8741
vn 0.5035 0.0723 0.861
vn -0.1429 0.0381 -0.989
vt 0.839504 0.118056
vt 0.856743 0.205307
vt 0.741230 0.205307
vt 0.734555 0.106726
vt 0.724541 0.032791
vt 0.813647 0.052618
vt 0.868992 0.081539
vt 0.913398 0.129584
vt 0.940923 0.205307
vt 0.839504 0.292557
vt 0.813647 0.357995
vt 0.724541 0.377822
vt 0.734555 0.303887
vt 0.913398 0.281029
vt 0.868992 0.329074
vt 0.369475 0.299954
vt 0.368286 0.370940
vt 0.245840 0.351447
vt 0.246397 0.288815
vt 0.246768 0.205307
vt 0.370268 0.205307
vt 0.494283 0.205307
vt 0.492822 0.304944
vt 0.490632 0.379672
vt 0.369475 0.110659
vt 0.246397 0.121798
vt 0.245841 0.059166
vt 0.368286 0.039673
vt 0.490632 0.030941
vt 0.492822 0.105669
vt 0.616755 0.103478
vt 0.619174 0.205307
vt 0.613127 0.027106
vt 0.616755 0.307135
vt 0.613126 0.383507
vt 0.123273 0.268175
vt 0.123047 0.315326
vt 0.054743 0.283353
vt 0.030912 0.249131
vt 0.030973 0.205306
vt 0.123423 0.205306
vt 0.123273 0.142438
vt 0.030912 0.161481
vt 0.054744 0.127260
vt 0.123047 0.095287
vt 0.839504 0.118056
vt 0.856743 0.205307
vt 0.968983 0.205307
vt 0.938030 0.133427
vt 0.876123 0.061548
vt 0.805028 0.030806
vt 0.721203 0.008146
vt 0.734555 0.106726
vt 0.741230 0.205307
vt 0.839504 0.292557
vt 0.805028 0.379807
vt 0.876123 0.349065
vt 0.938030 0.277186
vt 0.734555 0.303887
vt 0.721203 0.402467
vt 0.369475 0.299954
vt 0.367890 0.394602
vt 0.489902 0.404581
vt 0.492822 0.304944
vt 0.494283 0.205307
vt 0.370268 0.205307
vt 0.246768 0.205307
vt 0.246397 0.288815
vt 0.245655 0.372324
vt 0.369475 0.110659
vt 0.492822 0.105669
vt 0.489902 0.006032
vt 0.367890 0.016011
vt 0.245655 0.038289
vt 0.246397 0.121798
vt 0.616755 0.103478
vt 0.619174 0.205307
vt 0.611917 0.001649
vt 0.616755 0.307135
vt 0.611917 0.408964
vt 0.123273 0.268175
vt 0.122972 0.331043
vt 0.123423 0.205306
vt 0.000156 0.205306
vt 0.000125 0.242784
vt 0.000064 0.280261
vt 0.123273 0.142438
vt 0.122972 0.079570
vt 0.000064 0.130352
vt 0.000125 0.167829
vt 0.122972 0.331043
vt 0.030806 0.283587
vt 0.245655 0.372324
vt 0.030806 0.283587
vt 0.000125 0.167829
vt 0.030806 0.127026
vt 0.000156 0.205306
vt 0.030806 0.127026
vt 0.805028 0.030806
vt 0.873826 0.071832
vt 0.721203 0.008146
vt 0.873826 0.071832
vt 0.938030 0.277186
vt 0.873826 0.338781
vt 0.968983 0.205307
vt 0.873826 0.338781
vt 0.805028 0.379807
vt 0.721203 0.402467
vt 0.000125 0.242784
vt 0.122972 0.079570
vt 0.245655 0.038289
vt 0.938030 0.133427
vt 0.611917 0.001649
vt 0.489902 0.006032
vt 0.611917 0.408964
vt 0.489902 0.404581
vt 0.367890 0.394602
vt 0.367890 0.016011
f 1/1/1 2/2/2 3/3/3
f 1/1/1 3/3/3 4/4/4
f 1/1/1 4/4/4 5/5/5
f 1/1/1 5/5/5 6/6/6
f 1/1/1 6/6/6 7/7/7
f 1/1/1 7/7/7 8/8/8
f 1/1/1 8/8/8 9/9/9
f 1/1/1 9/9/9 2/2/2
f 10/10/10 11/11/11 12/12/12
f 10/10/10 12/12/12 13/13/13
f 10/10/10 13/13/13 3/3/3
f 10/10/10 3/3/3 2/2/2
f 10/10/10 2/2/2 9/9/9
f 10/10/10 9/9/9 14/14/14
f 10/10/10 14/14/14 15/15/15
f 10/10/10 15/15/15 11/11/11
f 16/16/16 17/17/17 18/18/18
f 16/16/16 18/18/18 19/19/19
f 16/16/16 19/19/19 20/20/20
f 16/16/16 20/20/20 21/21/21
f 16/16/16 21/21/21 22/22/22
f 16/16/16 22/22/22 23/23/23
f 16/16/16 23/23/23 24/24/24
f 16/16/16 24/24/24 17/17/17
f 25/25/25 21/21/21 20/20/20
f 25/25/25 20/20/20 26/26/26
f 25/25/25 26/26/26 27/27/27
f 25/25/25 27/27/27 28/28/28
f 25/25/25 28/28/28 29/29/29
f 25/25/25 29/29/29 30/30/30
f 25/25/25 30/30/30 22/22/22
f 25/25/25 22/22/22 21/21/21
f 31/31/31 32/32/32 22/22/22
f 31/31/31 22/22/22 30/30/30
f 31/31/31 30/30/30 29/29/29
f 31/31/31 29/29/29 33/33/33
f 31/31/31 33/33/33 5/5/5
f 31/31/31 5/5/5 4/4/4
f 31/31/31 4/4/4 3/3/3
f 31/31/31 3/3/3 32/32/32
f 34/34/34 35/35/35 24/24/24
f 34/34/34 24/24/24 23/23/23
f 34/34/34 23/23/23 22/22/22
f 34/34/34 22/22/22 32/32/32
f 34/34/34 32/32/32 3/3/3
f 34/34/34 3/3/3 13/13/13
f 34/34/34 13/13/13 12/12/12
f 34/34/34 12/12/12 35/35/35
f 36/36/36 37/37/37 38/38/38
f 36/36/36 38/38/38 39/39/39
f 36/36/36 39/39/39 40/40/40
f 36/36/36 40/40/40 41/41/41
f 36/36/36 41/41/41 20/20/20
f 36/36/36 20/20/20 19/19/19
f 36/36/36 19/19/19 18/18/18
f 36/36/36 18/18/18 37/37/37
f 42/42/42 41/41/41 40/40/40
f 42/42/42 40/40/40 43/43/43
f 42/42/42 43/43/43 44/44/44
f 42/42/42 44/44/44 45/45/45
f 42/42/42 45/45/45 27/27/27
f 42/42/42 27/27/27 26/26/26
f 42/42/42 26/26/26 20/20/20
f 42/42/42 20/20/20 41/41/41
f 46/46/46 47/47/47 48/48/48
f 46/46/46 48/48/48 49/49/49
f 46/46/46 49/49/49 50/50/50
f 46/46/46 50/50/50 51/51/51
f 46/46/46 51/51/51 52/52/52
f 46/46/46 52/52/52 53/53/53
f 46/46/46 53/53/53 54/54/54
f 46/46/46 54/54/54 47/47/47
f 55/55/55 56/56/56 57/57/57
f 55/55/55 57/57/57 58/58/58
f 55/55/55 58/58/58 48/48/48
f 55/55/55 48/48/48 47/47/47
f 55/55/55 47/47/47 54/54/54
f 55/55/55 54/54/54 59/59/59
f 55/55/55 59/59/59 60/60/60
f 55/55/55 60/60/60 56/56/56
f 61/61/61 62/62/62 63/63/63
f 61/61/61 63/63/63 64/64/64
f 61/61/61 64/64/64 65/65/65
f 61/61/61 65/65/65 66/66/66
f 61/61/61 66/66/66 67/67/67
f 61/61/61 67/67/67 68/68/68
f 61/61/61 68/68/68 69/69/69
f 61/61/61 69/69/69 62/62/62
f 70/70/70 66/66/66 65/65/65
f 70/70/70 65/65/65 71/71/71
f 70/70/70 71/71/71 72/72/72
f 70/70/70 72/72/72 73/73/73
f 70/70/70 73/73/73 74/74/74
f 70/70/70 74/74/74 75/75/75
f 70/70/70 75/75/75 67/67/67
f 70/70/70 67/67/67 66/66/66
f 76/76/76 77/77/77 54/54/54
f 76/76/76 54/54/54 53/53/53
f 76/76/76 53/53/53 52/52/52
f 76/76/76 52/52/52 78/78/78
f 76/76/76 78/78/78 72/72/72
f 76/76/76 72/72/72 71/71/71
f 76/76/76 71/71/71 65/65/65
f 76/76/76 65/65/65 77/77/77
f 79/79/79 80/80/80 60/60/60
f 79/79/79 60/60/60 59/59/59
f 79/79/79 59/59/59 54/54/54
f 79/79/79 54/54/54 77/77/77
f 79/79/79 77/77/77 65/65/65
f 79/79/79 65/65/65 64/64/64
f 79/79/79 64/64/64 63/63/63
f 79/79/79 63/63/63 80/80/80
f 81/81/81 82/82/82 69/69/69
f 81/81/81 69/69/69 68/68/68
f 81/81/81 68/68/68 67/67/67
f 81/81/81 67/67/67 83/83/83
f 81/81/81 83/83/83 84/84/84
f 81/81/81 84/84/84 85/85/85
f 81/81/81 85/85/85 86/86/86
f 81/81/81 86/86/86 82/82/82
f 87/87/87 83/83/83 67/67/67
f 87/87/87 67/67/67 75/75/75
f 87/87/87 75/75/75 74/74/74
f 87/87/87 74/74/74 88/88/88
f 87/87/87 88/88/88 89/89/89
f 87/87/87 89/89/89 90/90/90
f 87/87/87 90/90/90 84/84/84
f 87/87/87 84/84/84 83/83/83
f 91/91/91 92/92/92 38/38/38
f 91/91/91 38/38/38 37/37/37
f 91/91/91 37/37/37 18/18/18
f 91/91/91 18/18/18 93/93/93
f 91/91/91 93/93/93 69/69/69
f 91/91/91 69/69/69 82/82/82
f 91/91/91 82/82/82 94/94/94
f 91/91/91 94/94/94 92/92/92
f 95/95/95 96/96/96 44/44/44
f 95/95/95 44/44/44 43/43/43
f 95/95/95 43/43/43 40/40/40
f 95/95/95 40/40/40 97/97/97
f 95/95/95 97/97/97 84/84/84
f 95/95/95 84/84/84 90/90/90
f 95/95/95 90/90/90 98/98/98
f 95/95/95 98/98/98 96/96/96
f 99/99/99 100/100/100 7/7/7
f 99/99/99 7/7/7 6/6/6
f 99/99/99 6/6/6 5/5/5
f 99/99/99 5/5/5 101/101/101
f 99/99/99 101/101/101 52/52/52
f 99/99/99 52/52/52 51/51/51
f 99/99/99 51/51/51 102/102/102
f 99/99/99 102/102/102 100/100/100
f 103/103/103 104/104/104 15/15/15
f 103/103/103 15/15/15 14/14/14
f 103/103/103 14/14/14 9/9/9
f 103/103/103 9/9/9 105/105/105
f 103/103/103 105/105/105 48/48/48
f 103/103/103 48/48/48 58/58/58
f 103/103/103 58/58/58 106/106/106
f 103/103/103 106/106/106 104/104/104
f 107/107/107 108/108/108 12/12/12
f 107/107/107 12/12/12 11/11/11
f 107/107/107 11/11/11 15/15/15
f 107/107/107 15/15/15 104/104/104
f 107/107/107 104/104/104 106/106/106
f 107/107/107 106/106/106 56/56/56
f 107/107/107 56/56/56 60/60/60
f 107/107/107 60/60/60 108/108/108
f 109/109/109 97/97/97 40/40/40
f 109/109/109 40/40/40 39/39/39
f 109/109/109 39/39/39 38/38/38
f 109/109/109 38/38/38 92/92/92
f 109/109/109 92/92/92 94/94/94
f 109/109/109 94/94/94 85/85/85
f 109/109/109 85/85/85 84/84/84
f 109/109/109 84/84/84 97/97/97
f 110/110/110 111/111/111 27/27/27
f 110/110/110 27/27/27 45/45/45
f 110/110/110 45/45/45 44/44/44
f 110/110/110 44/44/44 96/96/96
f 110/110/110 96/96/96 98/98/98
f 110/110/110 98/98/98 88/88/88
f 110/110/110 88/88/88 74/74/74
f 110/110/110 74/74/74 111/111/111
f 112/112/112 105/105/105 9/9/9
f 112/112/112 9/9/9 8/8/8
f 112/112/112 8/8/8 7/7/7
f 112/112/112 7/7/7 100/100/100
f 112/112/112 100/100/100 102/102/102
f 112/112/112 102/102/102 49/49/49
f 112/112/112 49/49/49 48/48/48
f 112/112/112 48/48/48 105/105/105
f 113/113/113 101/101/101 5/5/5
f 113/113/113 5/5/5 33/33/33
f 113/113/113 33/33/33 29/29/29
f 113/113/113 29/29/29 114/114/114
f 113/113/113 114/114/114 72/72/72
f 113/113/113 72/72/72 78/78/78
f 113/113/113 78/78/78 52/52/52
f 113/113/113 52/52/52 101/101/101
f 115/115/115 116/116/116 24/24/24
f 115/115/115 24/24/24 35/35/35
f 115/115/115 35/35/35 12/12/12
f 115/115/115 12/12/12 108/108/108
f 115/115/115 108/108/108 60/60/60
f 115/115/115 60/60/60 80/80/80
f 115/115/115 80/80/80 63/63/63
f 115/115/115 63/63/63 116/116/116
f 117/117/117 93/93/93 18/18/18
f 117/117/117 18/18/18 17/17/17
f 117/117/117 17/17/17 24/24/24
f 117/117/117 24/24/24 116/116/116
f 117/117/117 116/116/116 63/63/63
f 117/117/117 63/63/63 62/62/62
f 117/117/117 62/62/62 69/69/69
f 117/117/117 69/69/69 93/93/93
f 118/118/118 114/114/114 29/29/29
f 118/118/118 29/29/29 28/28/28
f 118/118/118 28/28/28 27/27/27
f 118/118/118 27/27/27 111/111/111
f 118/118/118 111/111/111 74/74/74
f 118/118/118 74/74/74 73/73/73
f 118/118/118 73/73/73 72/72/72
f 118/118/118 72/72/72 114/114/114
