v -2.40961 0.741889 -1.178197
v -2.40782 0.742782 -1.179271
v -2.408632 0.740571 -1.181164
v -2.410532 0.739762 -1.179711
v -2.412154 0.739178 -1.178788
v -2.411215 0.741098 -1.177691
v -2.410191 0.742296 -1.177187
v -2.408817 0.743353 -1.177136
v -2.40715 0.744341 -1.177844
v -2.406771 0.743405 -1.181186
v -2.406236 0.743757 -1.182932
v -2.406499 0.742198 -1.184742
v -2.407305 0.741485 -1.183108
v -2.40636 0.744665 -1.179723
v -2.40616 0.744449 -1.181432
v -2.408658 0.733675 -1.18828
v -2.407656 0.734381 -1.189673
v -2.40803 0.731359 -1.190834
v -2.408905 0.730732 -1.189592
v -2.410171 0.729936 -1.18802
v -2.410099 0.732777 -1.186511
v -2.409857 0.735528 -1.184886
v -2.408366 0.736478 -1.186747
v -2.407345 0.73723 -1.188223
v -2.411819 0.731987 -1.184951
v -2.411701 0.729239 -1.186649
v -2.412929 0.728742 -1.185676
v -2.413195 0.731423 -1.183841
v -2.413139 0.734136 -1.182122
v -2.411673 0.734712 -1.183265
v -2.411232 0.737337 -1.18146
v -2.40934 0.738139 -1.18307
v -2.412794 0.736789 -1.180351
v -2.407876 0.739129 -1.184992
v -2.406914 0.739929 -1.186542
v -2.409265 0.727659 -1.190686
v -2.408651 0.728142 -1.191646
v -2.409113 0.726213 -1.191827
v -2.409553 0.725298 -1.191411
v -2.410138 0.724868 -1.190559
v -2.410178 0.727054 -1.189489
v -2.411351 0.726545 -1.18849
v -2.410982 0.724534 -1.189905
v -2.411685 0.724839 -1.189119
v -2.41231 0.726188 -1.187794
v -2.409461 0.741746 -1.17808
v -2.407648 0.742649 -1.179175
v -2.407022 0.744239 -1.177774
v -2.408708 0.743243 -1.177049
v -2.410115 0.742213 -1.177118
v -2.411115 0.740987 -1.177592
v -2.41205 0.739073 -1.178687
v -2.410378 0.739628 -1.17959
v -2.408458 0.740445 -1.181063
v -2.406579 0.743285 -1.181114
v -2.406084 0.743674 -1.18289
v -2.406049 0.744384 -1.181399
v -2.406217 0.744574 -1.179672
v -2.407114 0.741371 -1.183027
v -2.406347 0.742118 -1.184692
v -2.408463 0.733594 -1.188168
v -2.407504 0.734324 -1.189597
v -2.407193 0.737165 -1.188153
v -2.408173 0.736385 -1.186643
v -2.409677 0.735427 -1.184766
v -2.409917 0.732688 -1.186384
v -2.409989 0.729855 -1.187888
v -2.40871 0.730659 -1.189475
v -2.407877 0.731308 -1.190754
v -2.411652 0.731891 -1.18481
v -2.411509 0.734604 -1.183131
v -2.413024 0.734052 -1.182014
v -2.413077 0.731347 -1.183729
v -2.412811 0.728673 -1.18556
v -2.411533 0.729151 -1.186503
v -2.411072 0.737215 -1.181332
v -2.409163 0.738025 -1.182959
v -2.412683 0.736694 -1.180247
v -2.407684 0.739024 -1.1849
v -2.406762 0.739856 -1.186482
v -2.409069 0.72759 -1.190569
v -2.408498 0.728094 -1.191566
v -2.409997 0.726976 -1.189356
v -2.410002 0.72481 -1.190459
v -2.409405 0.725246 -1.191323
v -2.409001 0.726177 -1.191766
v -2.411185 0.72646 -1.188341
v -2.412193 0.726121 -1.187675
v -2.411596 0.724791 -1.189033
v -2.410858 0.72447 -1.189793
v -2.408377 0.728282 -1.191932
v -2.409106 0.725648 -1.192113
v -2.407669 0.731546 -1.191214
v -2.409001 0.726177 -1.191766
v -2.410804 0.723835 -1.190327
v -2.411683 0.724271 -1.1894
v -2.410064 0.724113 -1.190872
v -2.411596 0.724791 -1.189033
v -2.411708 0.740784 -1.177476
v -2.410355 0.74233 -1.17695
v -2.412651 0.738935 -1.178433
v -2.410115 0.742213 -1.177118
v -2.406159 0.745044 -1.179213
v -2.405993 0.744659 -1.181542
v -2.40687 0.744815 -1.177338
v -2.406049 0.744384 -1.181399
v -2.405988 0.743839 -1.183498
v -2.406161 0.742401 -1.185267
v -2.409583 0.724488 -1.191613
v -2.412579 0.726038 -1.187508
v -2.413287 0.728545 -1.185298
v -2.408505 0.743792 -1.176744
v -2.413268 0.736563 -1.179934
v -2.413578 0.733906 -1.181692
v -2.406524 0.740165 -1.187034
v -2.406936 0.737453 -1.188685
v -2.407253 0.734592 -1.190105
v -2.413603 0.731201 -1.18342
vn -0.5581 0.6463 -0.5203
vn -0.7091 0.601 -0.3686
vn -0.7247 0.5568 -0.4059
vn -0.591 0.5962 -0.5434
vn -0.6037 0.5745 -0.5527
vn -0.5644 0.6443 -0.516
vn -0.5347 0.6906 -0.4869
vn -0.5616 0.7027 -0.4367
vn -0.6798 0.6657 -0.3078
vn -0.8379 0.4969 -0.2257
vn -0.8341 0.5004 -0.2319
vn -0.8418 0.4473 -0.302
vn -0.8412 0.4625 -0.2799
vn -0.7899 0.581 -0.1961
vn -0.8242 0.5363 -0.1818
vn -0.8272 0.3095 -0.4689
vn -0.8062 0.3161 -0.5
vn -0.8054 0.2888 -0.5175
vn -0.8329 0.2774 -0.479
vn -0.7629 0.3109 -0.5669
vn -0.7615 0.3483 -0.5466
vn -0.7546 0.4216 -0.5028
vn -0.8286 0.3698 -0.4202
vn -0.8151 0.3655 -0.4493
vn -0.6867 0.3846 -0.6169
vn -0.6821 0.3578 -0.6377
vn -0.7166 0.3363 -0.611
vn -0.7135 0.3657 -0.5976
vn -0.6925 0.4311 -0.5784
vn -0.671 0.4539 -0.5862
vn -0.6352 0.5333 -0.5586
vn -0.7405 0.4989 -0.4503
vn -0.6521 0.5073 -0.5634
vn -0.8339 0.4272 -0.3494
vn -0.8293 0.4126 -0.3768
vn -0.8471 0.2549 -0.4663
vn -0.8188 0.2634 -0.5101
vn -0.8367 0.2363 -0.4941
vn -0.858 0.1955 -0.475
vn -0.7618 0.242 -0.6008
vn -0.7631 0.293 -0.5761
vn -0.6634 0.353 -0.6598
vn -0.6463 0.3087 -0.6979
vn -0.6778 0.321 -0.6615
vn -0.7009 0.3262 -0.6342
vn 0.5419 -0.6345 0.551
vn 0.7136 -0.5891 0.379
vn 0.7295 -0.5412 0.4182
vn 0.4878 -0.5968 0.637
vn 0.3901 -0.5869 0.7094
vn 0.4103 -0.5931 0.6928
vn 0.4723 -0.5846 0.6597
vn 0.5795 -0.5984 0.5533
vn 0.7247 -0.5569 0.4058
vn 0.857 -0.4662 0.2193
vn 0.9415 -0.3095 0.1333
vn 0.95 -0.2882 0.1198
vn 0.9068 -0.3733 0.1958
vn 0.849 -0.4545 0.2694
vn 0.9188 -0.3462 0.1895
vn 0.8361 -0.3044 0.4563
vn 0.8917 -0.2676 0.3649
vn 0.8927 -0.3082 0.3287
vn 0.8368 -0.3641 0.4089
vn 0.7546 -0.4215 0.5029
vn 0.7615 -0.3482 0.5466
vn 0.7629 -0.3108 0.5669
vn 0.843 -0.2732 0.4633
vn 0.9028 -0.2551 0.3462
vn 0.6748 -0.3906 0.6262
vn 0.6598 -0.4586 0.5952
vn 0.5736 -0.4786 0.6647
vn 0.5871 -0.4303 0.6856
vn 0.5669 -0.4346 0.6998
vn 0.6681 -0.3666 0.6474
vn 0.6241 -0.537 0.5675
vn 0.7405 -0.4989 0.4503
vn 0.5316 -0.5412 0.6515
vn 0.8415 -0.4209 0.3386
vn 0.9021 -0.3434 0.2614
vn 0.86 -0.2626 0.4375
vn 0.9222 -0.2621 0.2843
vn 0.763 -0.3039 0.5705
vn 0.7614 -0.351 0.5451
vn 0.8908 -0.295 0.3455
vn 0.9312 -0.2709 0.2438
vn 0.6435 -0.3782 0.6655
vn 0.5189 -0.4773 0.7092
vn 0.4887 -0.5069 0.71
vn 0.5821 -0.4599 0.6706
vn 0.4248 0.0486 -0.9039
vn 0.247 -0.3238 -0.9133
vn 0.4904 0.181 -0.8525
vn 0.9312 -0.2709 0.2438
vn -0.1937 -0.9311 -0.3092
vn -0.6185 -0.7857 -0.0017
vn 0.0792 -0.9174 -0.3898
vn 0.4887 -0.5069 0.71
vn -0.7304 0.1157 0.6731
vn -0.5389 0.3601 0.7615
vn -0.7919 -0.0749 0.606
vn 0.3901 -0.5869 0.7094
vn 0.5009 0.8461 0.1822
vn 0.4212 0.8722 -0.2485
vn 0.3298 0.6777 0.6572
vn 0.95 -0.2882 0.1198
vn 0.4205 0.73 -0.5387
vn 0.4363 0.5808 -0.6872
vn 0.1113 -0.7682 -0.6304
vn -0.7469 -0.5772 0.3301
vn -0.7501 -0.4814 0.4535
vn -0.1351 0.5065 0.8516
vn -0.7973 -0.2159 0.5636
vn -0.7832 -0.3 0.5447
vn 0.4607 0.4551 -0.762
vn 0.4838 0.3759 -0.7903
vn 0.5037 0.2954 -0.8118
vn -0.7631 -0.3808 0.522
vt 0.839504 0.118056
vt 0.856743 0.205307
vt 0.741230 0.205307
vt 0.734555 0.106726
vt 0.724541 0.032791
vt 0.813647 0.052618
vt 0.868992 0.081539
vt 0.913398 0.129584
vt 0.940923 0.205307
vt 0.839504 0.292557
vt 0.813647 0.357995
vt 0.724541 0.377822
vt 0.734555 0.303887
vt 0.913398 0.281029
vt 0.868992 0.329074
vt 0.369475 0.299954
vt 0.368286 0.370940
vt 0.245840 0.351447
vt 0.246397 0.288815
vt 0.246768 0.205307
vt 0.370268 0.205307
vt 0.494283 0.205307
vt 0.492822 0.304944
vt 0.490632 0.379672
vt 0.369475 0.110659
vt 0.246397 0.121798
vt 0.245841 0.059166
vt 0.368286 0.039673
vt 0.490632 0.030941
vt 0.492822 0.105669
vt 0.616755 0.103478
vt 0.619174 0.205307
vt 0.613127 0.027106
vt 0.616755 0.307135
vt 0.613126 0.383507
vt 0.123273 0.268175
vt 0.123047 0.315326
vt 0.054743 0.283353
vt 0.030912 0.249131
vt 0.030973 0.205306
vt 0.123423 0.205306
vt 0.123273 0.142438
vt 0.030912 0.161481
vt 0.054744 0.127260
vt 0.123047 0.095287
vt 0.839504 0.118056
vt 0.856743 0.205307
vt 0.968983 0.205307
vt 0.938030 0.133427
vt 0.876123 0.061548
vt 0.805028 0.030806
vt 0.721203 0.008146
vt 0.734555 0.106726
vt 0.741230 0.205307
vt 0.839504 0.292557
vt 0.805028 0.379807
vt 0.876123 0.349065
vt 0.938030 0.277186
vt 0.734555 0.303887
vt 0.721203 0.402467
vt 0.369475 0.299954
vt 0.367890 0.394602
vt 0.489902 0.404581
vt 0.492822 0.304944
vt 0.494283 0.205307
vt 0.370268 0.205307
vt 0.246768 0.205307
vt 0.246397 0.288815
vt 0.245655 0.372324
vt 0.369475 0.110659
vt 0.492822 0.105669
vt 0.489902 0.006032
vt 0.367890 0.016011
vt 0.245655 0.038289
vt 0.246397 0.121798
vt 0.616755 0.103478
vt 0.619174 0.205307
vt 0.611917 0.001649
vt 0.616755 0.307135
vt 0.611917 0.408964
vt 0.123273 0.268175
vt 0.122972 0.331043
vt 0.123423 0.205306
vt 0.000156 0.205306
vt 0.000125 0.242784
vt 0.000064 0.280261
vt 0.123273 0.142438
vt 0.122972 0.079570
vt 0.000064 0.130352
vt 0.000125 0.167829
vt 0.122972 0.331043
vt 0.030806 0.283587
vt 0.245655 0.372324
vt 0.030806 0.283587
vt 0.000125 0.167829
vt 0.030806 0.127026
vt 0.000156 0.205306
vt 0.030806 0.127026
vt 0.805028 0.030806
vt 0.873826 0.071832
vt 0.721203 0.008146
vt 0.873826 0.071832
vt 0.938030 0.277186
vt 0.873826 0.338781
vt 0.968983 0.205307
vt 0.873826 0.338781
vt 0.805028 0.379807
vt 0.721203 0.402467
vt 0.000125 0.242784
vt 0.122972 0.079570
vt 0.245655 0.038289
vt 0.938030 0.133427
vt 0.611917 0.001649
vt 0.489902 0.006032
vt 0.611917 0.408964
vt 0.489902 0.404581
vt 0.367890 0.394602
vt 0.367890 0.016011
f 1/1/1 2/2/2 3/3/3
f 1/1/1 3/3/3 4/4/4
f 1/1/1 4/4/4 5/5/5
f 1/1/1 5/5/5 6/6/6
f 1/1/1 6/6/6 7/7/7
f 1/1/1 7/7/7 8/8/8
f 1/1/1 8/8/8 9/9/9
f 1/1/1 9/9/9 2/2/2
f 10/10/10 11/11/11 12/12/12
f 10/10/10 12/12/12 13/13/13
f 10/10/10 13/13/13 3/3/3
f 10/10/10 3/3/3 2/2/2
f 10/10/10 2/2/2 9/9/9
f 10/10/10 9/9/9 14/14/14
f 10/10/10 14/14/14 15/15/15
f 10/10/10 15/15/15 11/11/11
f 16/16/16 17/17/17 18/18/18
f 16/16/16 18/18/18 19/19/19
f 16/16/16 19/19/19 20/20/20
f 16/16/16 20/20/20 21/21/21
f 16/16/16 21/21/21 22/22/22
f 16/16/16 22/22/22 23/23/23
f 16/16/16 23/23/23 24/24/24
f 16/16/16 24/24/24 17/17/17
f 25/25/25 21/21/21 20/20/20
f 25/25/25 20/20/20 26/26/26
f 25/25/25 26/26/26 27/27/27
f 25/25/25 27/27/27 28/28/28
f 25/25/25 28/28/28 29/29/29
f 25/25/25 29/29/29 30/30/30
f 25/25/25 30/30/30 22/22/22
f 25/25/25 22/22/22 21/21/21
f 31/31/31 32/32/32 22/22/22
f 31/31/31 22/22/22 30/30/30
f 31/31/31 30/30/30 29/29/29
f 31/31/31 29/29/29 33/33/33
f 31/31/31 33/33/33 5/5/5
f 31/31/31 5/5/5 4/4/4
f 31/31/31 4/4/4 3/3/3
f 31/31/31 3/3/3 32/32/32
f 34/34/34 35/35/35 24/24/24
f 34/34/34 24/24/24 23/23/23
f 34/34/34 23/23/23 22/22/22
f 34/34/34 22/22/22 32/32/32
f 34/34/34 32/32/32 3/3/3
f 34/34/34 3/3/3 13/13/13
f 34/34/34 13/13/13 12/12/12
f 34/34/34 12/12/12 35/35/35
f 36/36/36 37/37/37 38/38/38
f 36/36/36 38/38/38 39/39/39
f 36/36/36 39/39/39 40/40/40
f 36/36/36 40/40/40 41/41/41
f 36/36/36 41/41/41 20/20/20
f 36/36/36 20/20/20 19/19/19
f 36/36/36 19/19/19 18/18/18
f 36/36/36 18/18/18 37/37/37
f 42/42/42 41/41/41 40/40/40
f 42/42/42 40/40/40 43/43/43
f 42/42/42 43/43/43 44/44/44
f 42/42/42 44/44/44 45/45/45
f 42/42/42 45/45/45 27/27/27
f 42/42/42 27/27/27 26/26/26
f 42/42/42 26/26/26 20/20/20
f 42/42/42 20/20/20 41/41/41
f 46/46/46 47/47/47 48/48/48
f 46/46/46 48/48/48 49/49/49
f 46/46/46 49/49/49 50/50/50
f 46/46/46 50/50/50 51/51/51
f 46/46/46 51/51/51 52/52/52
f 46/46/46 52/52/52 53/53/53
f 46/46/46 53/53/53 54/54/54
f 46/46/46 54/54/54 47/47/47
f 55/55/55 56/56/56 57/57/57
f 55/55/55 57/57/57 58/58/58
f 55/55/55 58/58/58 48/48/48
f 55/55/55 48/48/48 47/47/47
f 55/55/55 47/47/47 54/54/54
f 55/55/55 54/54/54 59/59/59
f 55/55/55 59/59/59 60/60/60
f 55/55/55 60/60/60 56/56/56
f 61/61/61 62/62/62 63/63/63
f 61/61/61 63/63/63 64/64/64
f 61/61/61 64/64/64 65/65/65
f 61/61/61 65/65/65 66/66/66
f 61/61/61 66/66/66 67/67/67
f 61/61/61 67/67/67 68/68/68
f 61/61/61 68/68/68 69/69/69
f 61/61/61 69/69/69 62/62/62
f 70/70/70 66/66/66 65/65/65
f 70/70/70 65/65/65 71/71/71
f 70/70/70 71/71/71 72/72/72
f 70/70/70 72/72/72 73/73/73
f 70/70/70 73/73/73 74/74/74
f 70/70/70 74/74/74 75/75/75
f 70/70/70 75/75/75 67/67/67
f 70/70/70 67/67/67 66/66/66
f 76/76/76 77/77/77 54/54/54
f 76/76/76 54/54/54 53/53/53
f 76/76/76 53/53/53 52/52/52
f 76/76/76 52/52/52 78/78/78
f 76/76/76 78/78/78 72/72/72
f 76/76/76 72/72/72 71/71/71
f 76/76/76 71/71/71 65/65/65
f 76/76/76 65/65/65 77/77/77
f 79/79/79 80/80/80 60/60/60
f 79/79/79 60/60/60 59/59/59
f 79/79/79 59/59/59 54/54/54
f 79/79/79 54/54/54 77/77/77
f 79/79/79 77/77/77 65/65/65
f 79/79/79 65/65/65 64/64/64
f 79/79/79 64/64/64 63/63/63
f 79/79/79 63/63/63 80/80/80
f 81/81/81 82/82/82 69/69/69
f 81/81/81 69/69/69 68/68/68
f 81/81/81 68/68/68 67/67/67
f 81/81/81 67/67/67 83/83/83
f 81/81/81 83/83/83 84/84/84
f 81/81/81 84/84/84 85/85/85
f 81/81/81 85/85/85 86/86/86
f 81/81/81 86/86/86 82/82/82
f 87/87/87 83/83/83 67/67/67
f 87/87/87 67/67/67 75/75/75
f 87/87/87 75/75/75 74/74/74
f 87/87/87 74/74/74 88/88/88
f 87/87/87 88/88/88 89/89/89
f 87/87/87 89/89/89 90/90/90
f 87/87/87 90/90/90 84/84/84
f 87/87/87 84/84/84 83/83/83
f 91/91/91 92/92/92 38/38/38
f 91/91/91 38/38/38 37/37/37
f 91/91/91 37/37/37 18/18/18
f 91/91/91 18/18/18 93/93/93
f 91/91/91 93/93/93 69/69/69
f 91/91/91 69/69/69 82/82/82
f 91/91/91 82/82/82 94/94/94
f 91/91/91 94/94/94 92/92/92
f 95/95/95 96/96/96 44/44/44
f 95/95/95 44/44/44 43/43/43
f 95/95/95 43/43/43 40/40/40
f 95/95/95 40/40/40 97/97/97
f 95/95/95 97/97/97 84/84/84
f 95/95/95 84/84/84 90/90/90
f 95/95/95 90/90/90 98/98/98
f 95/95/95 98/98/98 96/96/96
f 99/99/99 100/100/100 7/7/7
f 99/99/99 7/7/7 6/6/6
f 99/99/99 6/6/6 5/5/5
f 99/99/99 5/5/5 101/101/101
f 99/99/99 101/101/101 52/52/52
f 99/99/99 52/52/52 51/51/51
f 99/99/99 51/51/51 102/102/102
f 99/99/99 102/102/102 100/100/100
f 103/103/103 104/104/104 15/15/15
f 103/103/103 15/15/15 14/14/14
f 103/103/103 14/14/14 9/9/9
f 103/103/103 9/9/9 105/105/105
f 103/103/103 105/105/105 48/48/48
f 103/103/103 48/48/48 58/58/58
f 103/103/103 58/58/58 106/106/106
f 103/103/103 106/106/106 104/104/104
f 107/107/107 108/108/108 12/12/12
f 107/107/107 12/12/12 11/11/11
f 107/107/107 11/11/11 15/15/15
f 107/107/107 15/15/15 104/104/104
f 107/107/107 104/104/104 106/106/106
f 107/107/107 106/106/106 56/56/56
f 107/107/107 56/56/56 60/60/60
f 107/107/107 60/60/60 108/108/108
f 109/109/109 97/97/97 40/40/40
f 109/109/109 40/40/40 39/39/39
f 109/109/109 39/39/39 38/38/38
f 109/109/109 38/38/38 92/92/92
f 109/109/109 92/92/92 94/94/94
f 109/109/109 94/94/94 85/85/85
f 109/109/109 85/85/85 84/84/84
f 109/109/109 84/84/84 97/97/97
f 110/110/110 111/111/111 27/27/27
f 110/110/110 27/27/27 45/45/45
f 110/110/110 45/45/45 44/44/44
f 110/110/110 44/44/44 96/96/96
f 110/110/110 96/96/96 98/98/98
f 110/110/110 98/98/98 88/88/88
f 110/110/110 88/88/88 74/74/74
f 110/110/110 74/74/74 111/111/111
f 112/112/112 105/105/105 9/9/9
f 112/112/112 9/9/9 8/8/8
f 112/112/112 8/8/8 7/7/7
f 112/112/112 7/7/7 100/100/100
f 112/112/112 100/100/100 102/102/102
f 112/112/112 102/102/102 49/49/49
f 112/112/112 49/49/49 48/48/48
f 112/112/112 48/48/48 105/105/105
f 113/113/113 101/101/101 5/5/5
f 113/113/113 5/5/5 33/33/33
f 113/113/113 33/33/33 29/29/29
f 113/113/113 29/29/29 114/114/114
f 113/113/113 114/114/114 72/72/72
f 113/113/113 72/72/72 78/78/78
f 113/113/113 78/78/78 52/52/52
f 113/113/113 52/52/52 101/101/101
f 115/115/115 116/116/116 24/24/24
f 115/115/115 24/24/24 35/35/35
f 115/115/115 35/35/35 12/12/12
f 115/115/115 12/12/12 108/108/108
f 115/115/115 108/108/108 60/60/60
f 115/115/115 60/60/60 80/80/80
f 115/115/115 80/80/80 63/63/63
f 115/115/115 63/63/63 116/116/116
f 117/117/117 93/93/93 18/18/18
f 117/117/117 18/18/18 17/17/17
f 117/117/117 17/17/17 24/24/24
f 117/117/117 24/24/24 116/116/116
f 117/117/117 116/116/116 63/63/63
f 117/117/117 63/63/63 62/62/62
f 117/117/117 62/62/62 69/69/69
f 117/117/117 69/69/69 93/93/93
f 118/118/118 114/114/114 29/29/29
f 118/118/118 29/29/29 28/28/28
f 118/118/118 28/28/28 27/27/27
f 118/118/118 27/27/27 111/111/111
f 118/118/118 111/111/111 74/74/74
f 118/118/118 74/74/74 73/73/73
f 118/118/118 73/73/73 72/72/72
f 118/118/118 72/72/72 114/114/114
