v -2.38135 0.735847 -1.064061
v -2.382938 0.735663 -1.062891
v -2.381599 0.733461 -1.062328
v -2.379974 0.733885 -1.063754
v -2.378576 0.734198 -1.064685
v -2.379882 0.735838 -1.064754
v -2.381047 0.736686 -1.064664
v -2.382432 0.737169 -1.064289
v -2.383973 0.737229 -1.06336
v -2.383763 0.735117 -1.061173
v -2.384114 0.734557 -1.059691
v -2.383384 0.732743 -1.058932
v -2.382716 0.733055 -1.060473
v -2.38452 0.736537 -1.061789
v -2.384474 0.735649 -1.060564
v -2.379411 0.725527 -1.059672
v -2.380265 0.725261 -1.058323
v -2.379195 0.722648 -1.058662
v -2.378448 0.722882 -1.059865
v -2.377371 0.723214 -1.061386
v -2.378183 0.725902 -1.061385
v -2.379131 0.728531 -1.061512
v -2.380402 0.728145 -1.059708
v -2.381274 0.727876 -1.058276
v -2.376723 0.72634 -1.062888
v -2.376072 0.723602 -1.062708
v -2.37503 0.723908 -1.063645
v -2.375556 0.726686 -1.063957
v -2.376349 0.729367 -1.06417
v -2.377591 0.728996 -1.063072
v -2.378697 0.731556 -1.063393
v -2.380299 0.731067 -1.061848
v -2.377377 0.731956 -1.064451
v -2.38155 0.730692 -1.05998
v -2.382376 0.730443 -1.05847
v -2.377385 0.720255 -1.060277
v -2.377909 0.720087 -1.059348
v -2.377094 0.718694 -1.059992
v -2.376571 0.718284 -1.060683
v -2.376072 0.718442 -1.061508
v -2.376607 0.720496 -1.061435
v -2.375612 0.720792 -1.062399
v -2.375356 0.718652 -1.062137
v -2.374907 0.719356 -1.062609
v -2.374799 0.721028 -1.063069
v -2.381456 0.735753 -1.064212
v -2.383064 0.735562 -1.063021
v -2.384066 0.737151 -1.063457
v -2.382509 0.737096 -1.064402
v -2.3811 0.736635 -1.064753
v -2.379952 0.735772 -1.064877
v -2.378652 0.734136 -1.064806
v -2.380086 0.733797 -1.063905
v -2.381728 0.733368 -1.06246
v -2.383905 0.735012 -1.061281
v -2.384229 0.734477 -1.059759
v -2.384556 0.735589 -1.060617
v -2.384626 0.736456 -1.061868
v -2.382861 0.732957 -1.060585
v -2.3835 0.732669 -1.059005
v -2.379568 0.725466 -1.059795
v -2.380388 0.725213 -1.058407
v -2.381395 0.72782 -1.058358
v -2.380555 0.728073 -1.059829
v -2.379272 0.728462 -1.061648
v -2.378329 0.725845 -1.061522
v -2.37752 0.723164 -1.061523
v -2.378608 0.722829 -1.059987
v -2.37932 0.722606 -1.058747
v -2.376857 0.726286 -1.063038
v -2.377719 0.728931 -1.063221
v -2.376439 0.72932 -1.064289
v -2.375651 0.726647 -1.064076
v -2.375126 0.723875 -1.063765
v -2.376208 0.723555 -1.062859
v -2.378818 0.731479 -1.063543
v -2.380435 0.730985 -1.061982
v -2.37746 0.731901 -1.064571
v -2.381699 0.730607 -1.060096
v -2.382494 0.730378 -1.058548
v -2.377547 0.720204 -1.060398
v -2.378036 0.720047 -1.059431
v -2.376757 0.72045 -1.061572
v -2.376184 0.718407 -1.06161
v -2.376693 0.718247 -1.060773
v -2.377187 0.718665 -1.060056
v -2.375748 0.720749 -1.06255
v -2.374895 0.720998 -1.063189
v -2.37498 0.719333 -1.062696
v -2.375458 0.71862 -1.062251
v -2.378141 0.720013 -1.059073
v -2.376952 0.718159 -1.060004
v -2.3795 0.722551 -1.058298
v -2.377187 0.718665 -1.060056
v -2.375315 0.717925 -1.062101
v -2.374761 0.718822 -1.062626
v -2.375943 0.717741 -1.061577
v -2.37498 0.719333 -1.062696
v -2.379422 0.735807 -1.065042
v -2.38094 0.736844 -1.064831
v -2.378142 0.734276 -1.06505
v -2.3811 0.736635 -1.064753
v -2.38482 0.736974 -1.062029
v -2.384648 0.735722 -1.060395
v -2.384359 0.737716 -1.063559
v -2.384556 0.735589 -1.060617
v -2.384284 0.734335 -1.059224
v -2.38366 0.732606 -1.058449
v -2.376354 0.717611 -1.060859
v -2.374569 0.721094 -1.063347
v -2.374724 0.723996 -1.064012
v -2.382826 0.737577 -1.064415
v -2.376972 0.732066 -1.064859
v -2.375973 0.72947 -1.06459
v -2.382705 0.730331 -1.057999
v -2.38162 0.727761 -1.057834
v -2.380606 0.725151 -1.057909
v -2.375208 0.726784 -1.064367
vn 0.4393 0.4607 0.7711
vn 0.5787 0.5319 0.6182
vn 0.6087 0.4815 0.6305
vn 0.4859 0.4164 0.7684
vn 0.5045 0.3971 0.7667
vn 0.4454 0.4627 0.7665
vn 0.4022 0.5072 0.7621
vn 0.4196 0.5475 0.724
vn 0.5278 0.6066 0.5945
vn 0.7119 0.5433 0.445
vn 0.7081 0.5423 0.4521
vn 0.7364 0.4673 0.4891
vn 0.7296 0.4901 0.4768
vn 0.6423 0.6149 0.4575
vn 0.6845 0.5927 0.4244
vn 0.7747 0.2703 0.5716
vn 0.7564 0.2561 0.6019
vn 0.7643 0.2247 0.6044
vn 0.7891 0.2399 0.5654
vn 0.7235 0.2096 0.6577
vn 0.7108 0.2503 0.6573
vn 0.6813 0.3306 0.653
vn 0.7559 0.344 0.5569
vn 0.7471 0.3236 0.5806
vn 0.6378 0.2289 0.7353
vn 0.6423 0.1955 0.7411
vn 0.6778 0.1986 0.7079
vn 0.6662 0.2288 0.7098
vn 0.6278 0.2875 0.7233
vn 0.6024 0.2976 0.7406
vn 0.5455 0.3679 0.753
vn 0.6431 0.4163 0.6428
vn 0.5685 0.3482 0.7453
vn 0.739 0.4265 0.5214
vn 0.7411 0.4005 0.5388
vn 0.8068 0.2305 0.5439
vn 0.7825 0.2101 0.5861
vn 0.8045 0.1992 0.5595
vn 0.8328 0.1791 0.5238
vn 0.743 0.1356 0.6553
vn 0.729 0.1903 0.6574
vn 0.6278 0.1763 0.7581
vn 0.6265 0.1167 0.7706
vn 0.6497 0.1522 0.7447
vn 0.6677 0.1753 0.7234
vn -0.4302 -0.4324 -0.7924
vn -0.5871 -0.5182 -0.6218
vn -0.6184 -0.464 -0.6342
vn -0.397 -0.3465 -0.8499
vn -0.3135 -0.2791 -0.9077
vn -0.3294 -0.2973 -0.8961
vn -0.3876 -0.3217 -0.8638
vn -0.4753 -0.4107 -0.778
vn -0.6086 -0.4816 -0.6305
vn -0.7371 -0.5251 -0.4253
vn -0.8468 -0.4539 -0.277
vn -0.8589 -0.4441 -0.2551
vn -0.8051 -0.4701 -0.3615
vn -0.7379 -0.4901 -0.4639
vn -0.8224 -0.4534 -0.3435
vn -0.7831 -0.2741 -0.5581
vn -0.8352 -0.2995 -0.4611
vn -0.8222 -0.3507 -0.4483
vn -0.7638 -0.3466 -0.5444
vn -0.6814 -0.3304 -0.6531
vn -0.7108 -0.2501 -0.6574
vn -0.7235 -0.2095 -0.6577
vn -0.7982 -0.2463 -0.5497
vn -0.8469 -0.3004 -0.4388
vn -0.626 -0.2265 -0.7462
vn -0.5915 -0.2944 -0.7506
vn -0.5115 -0.2566 -0.82
vn -0.5387 -0.2097 -0.816
vn -0.5196 -0.2014 -0.8303
vn -0.6278 -0.1948 -0.7536
vn -0.5349 -0.3641 -0.7624
vn -0.643 -0.4163 -0.6428
vn -0.4542 -0.3045 -0.8372
vn -0.7466 -0.4282 -0.509
vn -0.8151 -0.4137 -0.4055
vn -0.8142 -0.2535 -0.5222
vn -0.8569 -0.3397 -0.3877
vn -0.7257 -0.202 -0.6577
vn -0.7098 -0.2532 -0.6573
vn -0.8255 -0.3315 -0.4567
vn -0.8588 -0.3681 -0.3563
vn -0.6033 -0.1898 -0.7746
vn -0.4638 -0.2207 -0.858
vn -0.4276 -0.2374 -0.8722
vn -0.5249 -0.2403 -0.8165
vn -0.3187 -0.4848 0.8144
vn -0.0551 -0.7584 0.6494
vn -0.4199 -0.3667 0.8302
vn -0.8588 -0.3681 -0.3563
vn 0.4484 -0.8791 -0.1616
vn 0.7868 -0.5026 -0.3581
vn 0.191 -0.9776 -0.0877
vn -0.4276 -0.2374 -0.8722
vn 0.5994 0.6006 -0.5291
vn 0.3453 0.7973 -0.495
vn 0.7123 0.4252 -0.5584
vn -0.3135 -0.2791 -0.9077
vn -0.7089 0.6669 0.2295
vn -0.5893 0.5144 0.623
vn -0.5572 0.7863 -0.2668
vn -0.8589 -0.4441 -0.2551
vn -0.5216 0.2612 0.8122
vn -0.4837 0.0625 0.873
vn 0.1509 -0.9692 0.1944
vn 0.8226 -0.1392 -0.5513
vn 0.7882 -0.001 -0.6153
vn -0.0895 0.8545 -0.5116
vn 0.757 0.287 -0.587
vn 0.7659 0.2029 -0.61
vn -0.4688 -0.0837 0.8793
vn -0.4687 -0.1701 0.8668
vn -0.4652 -0.2546 0.8478
vn 0.7686 0.119 -0.6285
vt 0.839504 0.118056
vt 0.856743 0.205307
vt 0.741230 0.205307
vt 0.734555 0.106726
vt 0.724541 0.032791
vt 0.813647 0.052618
vt 0.868992 0.081539
vt 0.913398 0.129584
vt 0.940923 0.205307
vt 0.839504 0.292557
vt 0.813647 0.357995
vt 0.724541 0.377822
vt 0.734555 0.303887
vt 0.913398 0.281029
vt 0.868992 0.329074
vt 0.369475 0.299954
vt 0.368286 0.370940
vt 0.245840 0.351447
vt 0.246397 0.288815
vt 0.246768 0.205307
vt 0.370268 0.205307
vt 0.494283 0.205307
vt 0.492822 0.304944
vt 0.490632 0.379672
vt 0.369475 0.110659
vt 0.246397 0.121798
vt 0.245841 0.059166
vt 0.368286 0.039673
vt 0.490632 0.030941
vt 0.492822 0.105669
vt 0.616755 0.103478
vt 0.619174 0.205307
vt 0.613127 0.027106
vt 0.616755 0.307135
vt 0.613126 0.383507
vt 0.123273 0.268175
vt 0.123047 0.315326
vt 0.054743 0.283353
vt 0.030912 0.249131
vt 0.030973 0.205306
vt 0.123423 0.205306
vt 0.123273 0.142438
vt 0.030912 0.161481
vt 0.054744 0.127260
vt 0.123047 0.095287
vt 0.839504 0.118056
vt 0.856743 0.205307
vt 0.968983 0.205307
vt 0.938030 0.133427
vt 0.876123 0.061548
vt 0.805028 0.030806
vt 0.721203 0.008146
vt 0.734555 0.106726
vt 0.741230 0.205307
vt 0.839504 0.292557
vt 0.805028 0.379807
vt 0.876123 0.349065
vt 0.938030 0.277186
vt 0.734555 0.303887
vt 0.721203 0.402467
vt 0.369475 0.299954
vt 0.367890 0.394602
vt 0.489902 0.404581
vt 0.492822 0.304944
vt 0.494283 0.205307
vt 0.370268 0.205307
vt 0.246768 0.205307
vt 0.246397 0.288815
vt 0.245655 0.372324
vt 0.369475 0.110659
vt 0.492822 0.105669
vt 0.489902 0.006032
vt 0.367890 0.016011
vt 0.245655 0.038289
vt 0.246397 0.121798
vt 0.616755 0.103478
vt 0.619174 0.205307
vt 0.611917 0.001649
vt 0.616755 0.307135
vt 0.611917 0.408964
vt 0.123273 0.268175
vt 0.122972 0.331043
vt 0.123423 0.205306
vt 0.000156 0.205306
vt 0.000125 0.242784
vt 0.000064 0.280261
vt 0.123273 0.142438
vt 0.122972 0.079570
vt 0.000064 0.130352
vt 0.000125 0.167829
vt 0.122972 0.331043
vt 0.030806 0.283587
vt 0.245655 0.372324
vt 0.030806 0.283587
vt 0.000125 0.167829
vt 0.030806 0.127026
vt 0.000156 0.205306
vt 0.030806 0.127026
vt 0.805028 0.030806
vt 0.873826 0.071832
vt 0.721203 0.008146
vt 0.873826 0.071832
vt 0.938030 0.277186
vt 0.873826 0.338781
vt 0.968983 0.205307
vt 0.873826 0.338781
vt 0.805028 0.379807
vt 0.721203 0.402467
vt 0.000125 0.242784
vt 0.122972 0.079570
vt 0.245655 0.038289
vt 0.938030 0.133427
vt 0.611917 0.001649
vt 0.489902 0.006032
vt 0.611917 0.408964
vt 0.489902 0.404581
vt 0.367890 0.394602
vt 0.367890 0.016011
f 1/1/1 2/2/2 3/3/3
f 1/1/1 3/3/3 4/4/4
f 1/1/1 4/4/4 5/5/5
f 1/1/1 5/5/5 6/6/6
f 1/1/1 6/6/6 7/7/7
f 1/1/1 7/7/7 8/8/8
f 1/1/1 8/8/8 9/9/9
f 1/1/1 9/9/9 2/2/2
f 10/10/10 11/11/11 12/12/12
f 10/10/10 12/12/12 13/13/13
f 10/10/10 13/13/13 3/3/3
f 10/10/10 3/3/3 2/2/2
f 10/10/10 2/2/2 9/9/9
f 10/10/10 9/9/9 14/14/14
f 10/10/10 14/14/14 15/15/15
f 10/10/10 15/15/15 11/11/11
f 16/16/16 17/17/17 18/18/18
f 16/16/16 18/18/18 19/19/19
f 16/16/16 19/19/19 20/20/20
f 16/16/16 20/20/20 21/21/21
f 16/16/16 21/21/21 22/22/22
f 16/16/16 22/22/22 23/23/23
f 16/16/16 23/23/23 24/24/24
f 16/16/16 24/24/24 17/17/17
f 25/25/25 21/21/21 20/20/20
f 25/25/25 20/20/20 26/26/26
f 25/25/25 26/26/26 27/27/27
f 25/25/25 27/27/27 28/28/28
f 25/25/25 28/28/28 29/29/29
f 25/25/25 29/29/29 30/30/30
f 25/25/25 30/30/30 22/22/22
f 25/25/25 22/22/22 21/21/21
f 31/31/31 32/32/32 22/22/22
f 31/31/31 22/22/22 30/30/30
f 31/31/31 30/30/30 29/29/29
f 31/31/31 29/29/29 33/33/33
f 31/31/31 33/33/33 5/5/5
f 31/31/31 5/5/5 4/4/4
f 31/31/31 4/4/4 3/3/3
f 31/31/31 3/3/3 32/32/32
f 34/34/34 35/35/35 24/24/24
f 34/34/34 24/24/24 23/23/23
f 34/34/34 23/23/23 22/22/22
f 34/34/34 22/22/22 32/32/32
f 34/34/34 32/32/32 3/3/3
f 34/34/34 3/3/3 13/13/13
f 34/34/34 13/13/13 12/12/12
f 34/34/34 12/12/12 35/35/35
f 36/36/36 37/37/37 38/38/38
f 36/36/36 38/38/38 39/39/39
f 36/36/36 39/39/39 40/40/40
f 36/36/36 40/40/40 41/41/41
f 36/36/36 41/41/41 20/20/20
f 36/36/36 20/20/20 19/19/19
f 36/36/36 19/19/19 18/18/18
f 36/36/36 18/18/18 37/37/37
f 42/42/42 41/41/41 40/40/40
f 42/42/42 40/40/40 43/43/43
f 42/42/42 43/43/43 44/44/44
f 42/42/42 44/44/44 45/45/45
f 42/42/42 45/45/45 27/27/27
f 42/42/42 27/27/27 26/26/26
f 42/42/42 26/26/26 20/20/20
f 42/42/42 20/20/20 41/41/41
f 46/46/46 47/47/47 48/48/48
f 46/46/46 48/48/48 49/49/49
f 46/46/46 49/49/49 50/50/50
f 46/46/46 50/50/50 51/51/51
f 46/46/46 51/51/51 52/52/52
f 46/46/46 52/52/52 53/53/53
f 46/46/46 53/53/53 54/54/54
f 46/46/46 54/54/54 47/47/47
f 55/55/55 56/56/56 57/57/57
f 55/55/55 57/57/57 58/58/58
f 55/55/55 58/58/58 48/48/48
f 55/55/55 48/48/48 47/47/47
f 55/55/55 47/47/47 54/54/54
f 55/55/55 54/54/54 59/59/59
f 55/55/55 59/59/59 60/60/60
f 55/55/55 60/60/60 56/56/56
f 61/61/61 62/62/62 63/63/63
f 61/61/61 63/63/63 64/64/64
f 61/61/61 64/64/64 65/65/65
f 61/61/61 65/65/65 66/66/66
f 61/61/61 66/66/66 67/67/67
f 61/61/61 67/67/67 68/68/68
f 61/61/61 68/68/68 69/69/69
f 61/61/61 69/69/69 62/62/62
f 70/70/70 66/66/66 65/65/65
f 70/70/70 65/65/65 71/71/71
f 70/70/70 71/71/71 72/72/72
f 70/70/70 72/72/72 73/73/73
f 70/70/70 73/73/73 74/74/74
f 70/70/70 74/74/74 75/75/75
f 70/70/70 75/75/75 67/67/67
f 70/70/70 67/67/67 66/66/66
f 76/76/76 77/77/77 54/54/54
f 76/76/76 54/54/54 53/53/53
f 76/76/76 53/53/53 52/52/52
f 76/76/76 52/52/52 78/78/78
f 76/76/76 78/78/78 72/72/72
f 76/76/76 72/72/72 71/71/71
f 76/76/76 71/71/71 65/65/65
f 76/76/76 65/65/65 77/77/77
f 79/79/79 80/80/80 60/60/60
f 79/79/79 60/60/60 59/59/59
f 79/79/79 59/59/59 54/54/54
f 79/79/79 54/54/54 77/77/77
f 79/79/79 77/77/77 65/65/65
f 79/79/79 65/65/65 64/64/64
f 79/79/79 64/64/64 63/63/63
f 79/79/79 63/63/63 80/80/80
f 81/81/81 82/82/82 69/69/69
f 81/81/81 69/69/69 68/68/68
f 81/81/81 68/68/68 67/67/67
f 81/81/81 67/67/67 83/83/83
f 81/81/81 83/83/83 84/84/84
f 81/81/81 84/84/84 85/85/85
f 81/81/81 85/85/85 86/86/86
f 81/81/81 86/86/86 82/82/82
f 87/87/87 83/83/83 67/67/67
f 87/87/87 67/67/67 75/75/75
f 87/87/87 75/75/75 74/74/74
f 87/87/87 74/74/74 88/88/88
f 87/87/87 88/88/88 89/89/89
f 87/87/87 89/89/89 90/90/90
f 87/87/87 90/90/90 84/84/84
f 87/87/87 84/84/84 83/83/83
f 91/91/91 92/92/92 38/38/38
f 91/91/91 38/38/38 37/37/37
f 91/91/91 37/37/37 18/18/18
f 91/91/91 18/18/18 93/93/93
f 91/91/91 93/93/93 69/69/69
f 91/91/91 69/69/69 82/82/82
f 91/91/91 82/82/82 94/94/94
f 91/91/91 94/94/94 92/92/92
f 95/95/95 96/96/96 44/44/44
f 95/95/95 44/44/44 43/43/43
f 95/95/95 43/43/43 40/40/40
f 95/95/95 40/40/40 97/97/97
f 95/95/95 97/97/97 84/84/84
f 95/95/95 84/84/84 90/90/90
f 95/95/95 90/90/90 98/98/98
f 95/95/95 98/98/98 96/96/96
f 99/99/99 100/100/100 7/7/7
f 99/99/99 7/7/7 6/6/6
f 99/99/99 6/6/6 5/5/5
f 99/99/99 5/5/5 101/101/101
f 99/99/99 101/101/101 52/52/52
f 99/99/99 52/52/52 51/51/51
f 99/99/99 51/51/51 102/102/102
f 99/99/99 102/102/102 100/100/100
f 103/103/103 104/104/104 15/15/15
f 103/103/103 15/15/15 14/14/14
f 103/103/103 14/14/14 9/9/9
f 103/103/103 9/9/9 105/105/105
f 103/103/103 105/105/105 48/48/48
f 103/103/103 48/48/48 58/58/58
f 103/103/103 58/58/58 106/106/106
f 103/103/103 106/106/106 104/104/104
f 107/107/107 108/108/108 12/12/12
f 107/107/107 12/12/12 11/11/11
f 107/107/107 11/11/11 15/15/15
f 107/107/107 15/15/15 104/104/104
f 107/107/107 104/104/104 106/106/106
f 107/107/107 106/106/106 56/56/56
f 107/107/107 56/56/56 60/60/60
f 107/107/107 60/60/60 108/108/108
f 109/109/109 97/97/97 40/40/40
f 109/109/109 40/40/40 39/39/39
f 109/109/109 39/39/39 38/38/38
f 109/109/109 38/38/38 92/92/92
f 109/109/109 92/92/92 94/94/94
f 109/109/109 94/94/94 85/85/85
f 109/109/109 85/85/85 84/84/84
f 109/109/109 84/84/84 97/97/97
f 110/110/110 111/111/111 27/27/27
f 110/110/110 27/27/27 45/45/45
f 110/110/110 45/45/45 44/44/44
f 110/110/110 44/44/44 96/96/96
f 110/110/110 96/96/96 98/98/98
f 110/110/110 98/98/98 88/88/88
f 110/110/110 88/88/88 74/74/74
f 110/110/110 74/74/74 111/111/111
f 112/112/112 105/105/105 9/9/9
f 112/112/112 9/9/9 8/8/8
f 112/112/112 8/8/8 7/7/7
f 112/112/112 7/7/7 100/100/100
f 112/112/112 100/100/100 102/102/102
f 112/112/112 102/102/102 49/49/49
f 112/112/112 49/49/49 48/48/48
f 112/112/112 48/48/48 105/105/105
f 113/113/113 101/101/101 5/5/5
f 113/113/113 5/5/5 33/33/33
f 113/113/113 33/33/33 29/29/29
f 113/113/113 29/29/29 114/114/114
f 113/113/113 114/114/114 72/72/72
f 113/113/113 72/72/72 78/78/78
f 113/113/113 78/78/78 52/52/52
f 113/113/113 52/52/52 101/101/101
f 115/115/115 116/116/116 24/24/24
f 115/115/115 24/24/24 35/35/35
f 115/115/115 35/35/35 12/12/12
f 115/115/115 12/12/12 108/108/108
f 115/115/115 108/108/108 60/60/60
f 115/115/115 60/60/60 80/80/80
f 115/115/115 80/80/80 63/63/63
f 115/115/115 63/63/63 116/116/116
f 117/117/117 93/93/93 18/18/18
f 117/117/117 18/18/18 17/17/17
f 117/117/117 17/17/17 24/24/24
f 117/117/117 24/24/24 116/116/116
f 117/117/117 116/116/116 63/63/63
f 117/117/117 63/63/63 62/62/62
f 117/117/117 62/62/62 69/69/69
f 117/117/117 69/69/69 93/93/93
f 118/118/118 114/114/114 29/29/29
f 118/118/118 29/29/29 28/28/28
f 118/118/118 28/28/28 27/27/27
f 118/118/118 27/27/27 111/111/111
f 118/118/118 111/111/111 74/74/74
f 118/118/118 74/74/74 73/73/73
f 118/118/118 73/73/73 72/72/72
f 118/118/118 72/72/72 114/114/114
