v -2.380083 0.773147 -1.223041
v -2.379945 0.772877 -1.225154
v -2.382679 0.772267 -1.22467
v -2.382521 0.772583 -1.222323
v -2.382574 0.772991 -1.22053
v -2.380545 0.773491 -1.22139
v -2.379291 0.773571 -1.222306
v -2.378345 0.773434 -1.223628
v -2.377921 0.773228 -1.22551
v -2.380783 0.773054 -1.22711
v -2.381772 0.773328 -1.228526
v -2.383968 0.772806 -1.228636
v -2.383317 0.772477 -1.226947
v -2.378951 0.773354 -1.22715
v -2.380285 0.773439 -1.228085
v -2.391399 0.769075 -1.225432
v -2.391817 0.769229 -1.227119
v -2.39427 0.767645 -1.226188
v -2.393891 0.767499 -1.224697
v -2.393458 0.767408 -1.222706
v -2.390917 0.768982 -1.223179
v -2.388285 0.770366 -1.223663
v -2.388797 0.770483 -1.226019
v -2.389248 0.770673 -1.227782
v -2.390619 0.769178 -1.2209
v -2.393202 0.76759 -1.22069
v -2.393062 0.767805 -1.219166
v -2.390451 0.769409 -1.219179
v -2.38782 0.770862 -1.219476
v -2.387981 0.77059 -1.221279
v -2.385218 0.771728 -1.221744
v -2.385499 0.771445 -1.224167
v -2.385096 0.772085 -1.219909
v -2.386045 0.771618 -1.226554
v -2.386546 0.771894 -1.228338
v -2.396315 0.765858 -1.223719
v -2.396626 0.766009 -1.22483
v -2.397835 0.765019 -1.223798
v -2.398093 0.76458 -1.2229
v -2.397829 0.76447 -1.221887
v -2.39597 0.765759 -1.222236
v -2.3958 0.765926 -1.220729
v -2.397741 0.764626 -1.22085
v -2.3972 0.765102 -1.220111
v -2.395724 0.766128 -1.219586
v -2.380023 0.772933 -1.223015
v -2.379889 0.772661 -1.225159
v -2.377882 0.773065 -1.225513
v -2.378303 0.773274 -1.223607
v -2.379258 0.773453 -1.222284
v -2.380497 0.773333 -1.221355
v -2.382519 0.772834 -1.2205
v -2.382452 0.772371 -1.222302
v -2.382614 0.772053 -1.224676
v -2.380733 0.77284 -1.227145
v -2.381737 0.773169 -1.228567
v -2.38026 0.773321 -1.228112
v -2.378917 0.773193 -1.227177
v -2.383257 0.772265 -1.226981
v -2.383925 0.772648 -1.228675
v -2.391299 0.768877 -1.225464
v -2.391744 0.769081 -1.227153
v -2.389184 0.770521 -1.227816
v -2.388709 0.770279 -1.22605
v -2.388193 0.770162 -1.223674
v -2.390813 0.768783 -1.223192
v -2.393346 0.767214 -1.222721
v -2.393784 0.767305 -1.224731
v -2.394192 0.7675 -1.226224
v -2.390513 0.768981 -1.220894
v -2.387886 0.770388 -1.221269
v -2.387747 0.770711 -1.219459
v -2.39037 0.769262 -1.219164
v -2.392975 0.767661 -1.219152
v -2.393088 0.767397 -1.220685
v -2.385136 0.77152 -1.221729
v -2.385421 0.771236 -1.224175
v -2.385033 0.771931 -1.219886
v -2.385972 0.77141 -1.226586
v -2.386493 0.771738 -1.228374
v -2.396205 0.765666 -1.223756
v -2.396546 0.765865 -1.224867
v -2.395856 0.765566 -1.222251
v -2.397743 0.764326 -1.221899
v -2.39801 0.764436 -1.222928
v -2.397774 0.764912 -1.223823
v -2.395683 0.765735 -1.220723
v -2.395635 0.765986 -1.219571
v -2.397135 0.764997 -1.220102
v -2.397652 0.764483 -1.220845
v -2.396695 0.765995 -1.225219
v -2.398323 0.764689 -1.22371
v -2.394362 0.76763 -1.226703
v -2.397774 0.764912 -1.223823
v -2.398348 0.76413 -1.220888
v -2.397688 0.764773 -1.220016
v -2.398411 0.763977 -1.221776
v -2.397135 0.764997 -1.220102
v -2.380677 0.773536 -1.220821
v -2.379142 0.773645 -1.22209
v -2.382567 0.773058 -1.219916
v -2.379258 0.773453 -1.222284
v -2.378326 0.773382 -1.227176
v -2.380218 0.773503 -1.228342
v -2.37723 0.773272 -1.22563
v -2.38026 0.773321 -1.228112
v -2.382087 0.77335 -1.229019
v -2.384167 0.772846 -1.229219
v -2.398649 0.76409 -1.222639
v -2.395659 0.766132 -1.219196
v -2.392977 0.767813 -1.21865
v -2.377748 0.773458 -1.223814
v -2.385027 0.772136 -1.219285
v -2.387733 0.770886 -1.218865
v -2.38669 0.771917 -1.228951
v -2.389371 0.770669 -1.228387
v -2.391925 0.769214 -1.227698
v -2.390359 0.769421 -1.218597
vn -0.2498 0.9478 -0.1983
vn -0.1977 0.9802 0.0117
vn -0.2551 0.9666 0.0219
vn -0.3042 0.9381 -0.1654
vn -0.3268 0.9328 -0.1519
vn -0.2492 0.9495 -0.1905
vn -0.1929 0.9571 -0.216
vn -0.1547 0.9724 -0.1749
vn -0.1066 0.9943 -0.0042
vn -0.1764 0.9575 0.2283
vn -0.1785 0.9589 0.2205
vn -0.2643 0.941 0.211
vn -0.2386 0.9468 0.2159
vn -0.0948 0.9803 0.1734
vn -0.1169 0.9672 0.2255
vn -0.4648 0.8688 0.1705
vn -0.4799 0.8668 0.1357
vn -0.5077 0.8504 0.1379
vn -0.4913 0.8514 0.1834
vn -0.523 0.8494 0.0707
vn -0.4869 0.8711 0.0639
vn -0.4118 0.9098 0.0501
vn -0.3951 0.9025 0.1712
vn -0.4165 0.8971 0.1474
vn -0.5017 0.8639 -0.0436
vn -0.5308 0.8462 -0.0463
vn -0.5311 0.8473 0.0023
vn -0.5043 0.8635 -0.0056
vn -0.4486 0.8928 -0.0394
vn -0.4364 0.8971 -0.0691
vn -0.3624 0.9249 -0.1147
vn -0.3255 0.9449 0.0345
vn -0.3847 0.9182 -0.0938
vn -0.3103 0.9318 0.1882
vn -0.3383 0.9244 0.1762
vn -0.4972 0.8417 0.2106
vn -0.5191 0.8391 0.1627
vn -0.5258 0.8276 0.1963
vn -0.538 0.8079 0.2405
vn -0.5854 0.8065 0.0823
vn -0.5397 0.8386 0.0737
vn -0.5453 0.8353 -0.0694
vn -0.5936 0.8005 -0.0823
vn -0.5675 0.8221 -0.0459
vn -0.55 0.835 -0.0169
vn 0.2756 -0.9355 0.2213
vn 0.2136 -0.9768 -0.0145
vn 0.2744 -0.9613 -0.0253
vn 0.3475 -0.8918 0.2895
vn 0.381 -0.8368 0.3931
vn 0.3706 -0.8507 0.3728
vn 0.3673 -0.8778 0.3074
vn 0.3075 -0.9344 0.18
vn 0.255 -0.9667 -0.0219
vn 0.193 -0.9464 -0.259
vn 0.2311 -0.8692 -0.437
vn 0.2341 -0.8563 -0.4602
vn 0.2376 -0.9064 -0.3492
vn 0.2368 -0.9437 -0.2309
vn 0.2502 -0.8933 -0.3733
vn 0.4601 -0.8681 -0.1861
vn 0.423 -0.8576 -0.2924
vn 0.3733 -0.8796 -0.2947
vn 0.3914 -0.9012 -0.1858
vn 0.4119 -0.9098 -0.0502
vn 0.487 -0.871 -0.064
vn 0.5231 -0.8493 -0.0707
vn 0.484 -0.8516 -0.2012
vn 0.4178 -0.8517 -0.3162
vn 0.5024 -0.8625 0.0599
vn 0.4378 -0.8951 0.084
vn 0.457 -0.8686 0.1916
vn 0.5028 -0.8471 0.1718
vn 0.5058 -0.8401 0.1958
vn 0.5298 -0.8455 0.0654
vn 0.3642 -0.9223 0.129
vn 0.3255 -0.9449 -0.0345
vn 0.4012 -0.8834 0.242
vn 0.3072 -0.9299 -0.2024
vn 0.304 -0.8963 -0.3228
vn 0.474 -0.8493 -0.2322
vn 0.3706 -0.8558 -0.361
vn 0.5296 -0.8452 -0.0718
vn 0.4843 -0.8726 -0.0634
vn 0.3929 -0.8726 -0.2902
vn 0.3364 -0.8591 -0.3858
vn 0.5308 -0.8418 0.0978
vn 0.4764 -0.8417 0.2539
vn 0.4525 -0.8437 0.2888
vn 0.4739 -0.8619 0.1805
vn -0.5688 -0.0425 -0.8213
vn -0.8235 -0.1936 -0.5333
vn -0.4393 -0.0009 -0.8983
vn 0.3364 -0.8591 -0.3858
vn -0.7888 -0.478 0.3864
vn -0.5965 -0.1637 0.7857
vn -0.7635 -0.6291 0.1455
vn 0.4525 -0.8437 0.2888
vn 0.377 0.4123 0.8293
vn 0.6327 0.4441 0.6343
vn 0.2061 0.3296 0.9213
vn 0.381 -0.8368 0.3931
vn 0.7364 0.2439 -0.631
vn 0.3811 0.4107 -0.8283
vn 0.9769 0.1284 -0.1706
vn 0.2341 -0.8563 -0.4602
vn 0.0752 0.3724 -0.925
vn -0.116 0.287 -0.9509
vn -0.8689 -0.4885 -0.0794
vn -0.2614 -0.0017 0.9652
vn -0.1139 0.042 0.9926
vn 0.9028 0.2661 0.3378
vn 0.097 0.2404 0.9658
vn 0.0427 0.1745 0.9837
vn -0.2332 0.1966 -0.9523
vn -0.2899 0.1305 -0.9481
vn -0.3432 0.0641 -0.937
vn -0.0111 0.1079 0.9941
vt 0.839504 0.118056
vt 0.856743 0.205307
vt 0.741230 0.205307
vt 0.734555 0.106726
vt 0.724541 0.032791
vt 0.813647 0.052618
vt 0.868992 0.081539
vt 0.913398 0.129584
vt 0.940923 0.205307
vt 0.839504 0.292557
vt 0.813647 0.357995
vt 0.724541 0.377822
vt 0.734555 0.303887
vt 0.913398 0.281029
vt 0.868992 0.329074
vt 0.369475 0.299954
vt 0.368286 0.370940
vt 0.245840 0.351447
vt 0.246397 0.288815
vt 0.246768 0.205307
vt 0.370268 0.205307
vt 0.494283 0.205307
vt 0.492822 0.304944
vt 0.490632 0.379672
vt 0.369475 0.110659
vt 0.246397 0.121798
vt 0.245841 0.059166
vt 0.368286 0.039673
vt 0.490632 0.030941
vt 0.492822 0.105669
vt 0.616755 0.103478
vt 0.619174 0.205307
vt 0.613127 0.027106
vt 0.616755 0.307135
vt 0.613126 0.383507
vt 0.123273 0.268175
vt 0.123047 0.315326
vt 0.054743 0.283353
vt 0.030912 0.249131
vt 0.030973 0.205306
vt 0.123423 0.205306
vt 0.123273 0.142438
vt 0.030912 0.161481
vt 0.054744 0.127260
vt 0.123047 0.095287
vt 0.839504 0.118056
vt 0.856743 0.205307
vt 0.968983 0.205307
vt 0.938030 0.133427
vt 0.876123 0.061548
vt 0.805028 0.030806
vt 0.721203 0.008146
vt 0.734555 0.106726
vt 0.741230 0.205307
vt 0.839504 0.292557
vt 0.805028 0.379807
vt 0.876123 0.349065
vt 0.938030 0.277186
vt 0.734555 0.303887
vt 0.721203 0.402467
vt 0.369475 0.299954
vt 0.367890 0.394602
vt 0.489902 0.404581
vt 0.492822 0.304944
vt 0.494283 0.205307
vt 0.370268 0.205307
vt 0.246768 0.205307
vt 0.246397 0.288815
vt 0.245655 0.372324
vt 0.369475 0.110659
vt 0.492822 0.105669
vt 0.489902 0.006032
vt 0.367890 0.016011
vt 0.245655 0.038289
vt 0.246397 0.121798
vt 0.616755 0.103478
vt 0.619174 0.205307
vt 0.611917 0.001649
vt 0.616755 0.307135
vt 0.611917 0.408964
vt 0.123273 0.268175
vt 0.122972 0.331043
vt 0.123423 0.205306
vt 0.000156 0.205306
vt 0.000125 0.242784
vt 0.000064 0.280261
vt 0.123273 0.142438
vt 0.122972 0.079570
vt 0.000064 0.130352
vt 0.000125 0.167829
vt 0.122972 0.331043
vt 0.030806 0.283587
vt 0.245655 0.372324
vt 0.030806 0.283587
vt 0.000125 0.167829
vt 0.030806 0.127026
vt 0.000156 0.205306
vt 0.030806 0.127026
vt 0.805028 0.030806
vt 0.873826 0.071832
vt 0.721203 0.008146
vt 0.873826 0.071832
vt 0.938030 0.277186
vt 0.873826 0.338781
vt 0.968983 0.205307
vt 0.873826 0.338781
vt 0.805028 0.379807
vt 0.721203 0.402467
vt 0.000125 0.242784
vt 0.122972 0.079570
vt 0.245655 0.038289
vt 0.938030 0.133427
vt 0.611917 0.001649
vt 0.489902 0.006032
vt 0.611917 0.408964
vt 0.489902 0.404581
vt 0.367890 0.394602
vt 0.367890 0.016011
f 1/1/1 2/2/2 3/3/3
f 1/1/1 3/3/3 4/4/4
f 1/1/1 4/4/4 5/5/5
f 1/1/1 5/5/5 6/6/6
f 1/1/1 6/6/6 7/7/7
f 1/1/1 7/7/7 8/8/8
f 1/1/1 8/8/8 9/9/9
f 1/1/1 9/9/9 2/2/2
f 10/10/10 11/11/11 12/12/12
f 10/10/10 12/12/12 13/13/13
f 10/10/10 13/13/13 3/3/3
f 10/10/10 3/3/3 2/2/2
f 10/10/10 2/2/2 9/9/9
f 10/10/10 9/9/9 14/14/14
f 10/10/10 14/14/14 15/15/15
f 10/10/10 15/15/15 11/11/11
f 16/16/16 17/17/17 18/18/18
f 16/16/16 18/18/18 19/19/19
f 16/16/16 19/19/19 20/20/20
f 16/16/16 20/20/20 21/21/21
f 16/16/16 21/21/21 22/22/22
f 16/16/16 22/22/22 23/23/23
f 16/16/16 23/23/23 24/24/24
f 16/16/16 24/24/24 17/17/17
f 25/25/25 21/21/21 20/20/20
f 25/25/25 20/20/20 26/26/26
f 25/25/25 26/26/26 27/27/27
f 25/25/25 27/27/27 28/28/28
f 25/25/25 28/28/28 29/29/29
f 25/25/25 29/29/29 30/30/30
f 25/25/25 30/30/30 22/22/22
f 25/25/25 22/22/22 21/21/21
f 31/31/31 32/32/32 22/22/22
f 31/31/31 22/22/22 30/30/30
f 31/31/31 30/30/30 29/29/29
f 31/31/31 29/29/29 33/33/33
f 31/31/31 33/33/33 5/5/5
f 31/31/31 5/5/5 4/4/4
f 31/31/31 4/4/4 3/3/3
f 31/31/31 3/3/3 32/32/32
f 34/34/34 35/35/35 24/24/24
f 34/34/34 24/24/24 23/23/23
f 34/34/34 23/23/23 22/22/22
f 34/34/34 22/22/22 32/32/32
f 34/34/34 32/32/32 3/3/3
f 34/34/34 3/3/3 13/13/13
f 34/34/34 13/13/13 12/12/12
f 34/34/34 12/12/12 35/35/35
f 36/36/36 37/37/37 38/38/38
f 36/36/36 38/38/38 39/39/39
f 36/36/36 39/39/39 40/40/40
f 36/36/36 40/40/40 41/41/41
f 36/36/36 41/41/41 20/20/20
f 36/36/36 20/20/20 19/19/19
f 36/36/36 19/19/19 18/18/18
f 36/36/36 18/18/18 37/37/37
f 42/42/42 41/41/41 40/40/40
f 42/42/42 40/40/40 43/43/43
f 42/42/42 43/43/43 44/44/44
f 42/42/42 44/44/44 45/45/45
f 42/42/42 45/45/45 27/27/27
f 42/42/42 27/27/27 26/26/26
f 42/42/42 26/26/26 20/20/20
f 42/42/42 20/20/20 41/41/41
f 46/46/46 47/47/47 48/48/48
f 46/46/46 48/48/48 49/49/49
f 46/46/46 49/49/49 50/50/50
f 46/46/46 50/50/50 51/51/51
f 46/46/46 51/51/51 52/52/52
f 46/46/46 52/52/52 53/53/53
f 46/46/46 53/53/53 54/54/54
f 46/46/46 54/54/54 47/47/47
f 55/55/55 56/56/56 57/57/57
f 55/55/55 57/57/57 58/58/58
f 55/55/55 58/58/58 48/48/48
f 55/55/55 48/48/48 47/47/47
f 55/55/55 47/47/47 54/54/54
f 55/55/55 54/54/54 59/59/59
f 55/55/55 59/59/59 60/60/60
f 55/55/55 60/60/60 56/56/56
f 61/61/61 62/62/62 63/63/63
f 61/61/61 63/63/63 64/64/64
f 61/61/61 64/64/64 65/65/65
f 61/61/61 65/65/65 66/66/66
f 61/61/61 66/66/66 67/67/67
f 61/61/61 67/67/67 68/68/68
f 61/61/61 68/68/68 69/69/69
f 61/61/61 69/69/69 62/62/62
f 70/70/70 66/66/66 65/65/65
f 70/70/70 65/65/65 71/71/71
f 70/70/70 71/71/71 72/72/72
f 70/70/70 72/72/72 73/73/73
f 70/70/70 73/73/73 74/74/74
f 70/70/70 74/74/74 75/75/75
f 70/70/70 75/75/75 67/67/67
f 70/70/70 67/67/67 66/66/66
f 76/76/76 77/77/77 54/54/54
f 76/76/76 54/54/54 53/53/53
f 76/76/76 53/53/53 52/52/52
f 76/76/76 52/52/52 78/78/78
f 76/76/76 78/78/78 72/72/72
f 76/76/76 72/72/72 71/71/71
f 76/76/76 71/71/71 65/65/65
f 76/76/76 65/65/65 77/77/77
f 79/79/79 80/80/80 60/60/60
f 79/79/79 60/60/60 59/59/59
f 79/79/79 59/59/59 54/54/54
f 79/79/79 54/54/54 77/77/77
f 79/79/79 77/77/77 65/65/65
f 79/79/79 65/65/65 64/64/64
f 79/79/79 64/64/64 63/63/63
f 79/79/79 63/63/63 80/80/80
f 81/81/81 82/82/82 69/69/69
f 81/81/81 69/69/69 68/68/68
f 81/81/81 68/68/68 67/67/67
f 81/81/81 67/67/67 83/83/83
f 81/81/81 83/83/83 84/84/84
f 81/81/81 84/84/84 85/85/85
f 81/81/81 85/85/85 86/86/86
f 81/81/81 86/86/86 82/82/82
f 87/87/87 83/83/83 67/67/67
f 87/87/87 67/67/67 75/75/75
f 87/87/87 75/75/75 74/74/74
f 87/87/87 74/74/74 88/88/88
f 87/87/87 88/88/88 89/89/89
f 87/87/87 89/89/89 90/90/90
f 87/87/87 90/90/90 84/84/84
f 87/87/87 84/84/84 83/83/83
f 91/91/91 92/92/92 38/38/38
f 91/91/91 38/38/38 37/37/37
f 91/91/91 37/37/37 18/18/18
f 91/91/91 18/18/18 93/93/93
f 91/91/91 93/93/93 69/69/69
f 91/91/91 69/69/69 82/82/82
f 91/91/91 82/82/82 94/94/94
f 91/91/91 94/94/94 92/92/92
f 95/95/95 96/96/96 44/44/44
f 95/95/95 44/44/44 43/43/43
f 95/95/95 43/43/43 40/40/40
f 95/95/95 40/40/40 97/97/97
f 95/95/95 97/97/97 84/84/84
f 95/95/95 84/84/84 90/90/90
f 95/95/95 90/90/90 98/98/98
f 95/95/95 98/98/98 96/96/96
f 99/99/99 100/100/100 7/7/7
f 99/99/99 7/7/7 6/6/6
f 99/99/99 6/6/6 5/5/5
f 99/99/99 5/5/5 101/101/101
f 99/99/99 101/101/101 52/52/52
f 99/99/99 52/52/52 51/51/51
f 99/99/99 51/51/51 102/102/102
f 99/99/99 102/102/102 100/100/100
f 103/103/103 104/104/104 15/15/15
f 103/103/103 15/15/15 14/14/14
f 103/103/103 14/14/14 9/9/9
f 103/103/103 9/9/9 105/105/105
f 103/103/103 105/105/105 48/48/48
f 103/103/103 48/48/48 58/58/58
f 103/103/103 58/58/58 106/106/106
f 103/103/103 106/106/106 104/104/104
f 107/107/107 108/108/108 12/12/12
f 107/107/107 12/12/12 11/11/11
f 107/107/107 11/11/11 15/15/15
f 107/107/107 15/15/15 104/104/104
f 107/107/107 104/104/104 106/106/106
f 107/107/107 106/106/106 56/56/56
f 107/107/107 56/56/56 60/60/60
f 107/107/107 60/60/60 108/108/108
f 109/109/109 97/97/97 40/40/40
f 109/109/109 40/40/40 39/39/39
f 109/109/109 39/39/39 38/38/38
f 109/109/109 38/38/38 92/92/92
f 109/109/109 92/92/92 94/94/94
f 109/109/109 94/94/94 85/85/85
f 109/109/109 85/85/85 84/84/84
f 109/109/109 84/84/84 97/97/97
f 110/110/110 111/111/111 27/27/27
f 110/110/110 27/27/27 45/45/45
f 110/110/110 45/45/45 44/44/44
f 110/110/110 44/44/44 96/96/96
f 110/110/110 96/96/96 98/98/98
f 110/110/110 98/98/98 88/88/88
f 110/110/110 88/88/88 74/74/74
f 110/110/110 74/74/74 111/111/111
f 112/112/112 105/105/105 9/9/9
f 112/112/112 9/9/9 8/8/8
f 112/112/112 8/8/8 7/7/7
f 112/112/112 7/7/7 100/100/100
f 112/112/112 100/100/100 102/102/102
f 112/112/112 102/102/102 49/49/49
f 112/112/112 49/49/49 48/48/48
f 112/112/112 48/48/48 105/105/105
f 113/113/113 101/101/101 5/5/5
f 113/113/113 5/5/5 33/33/33
f 113/113/113 33/33/33 29/29/29
f 113/113/113 29/29/29 114/114/114
f 113/113/113 114/114/114 72/72/72
f 113/113/113 72/72/72 78/78/78
f 113/113/113 78/78/78 52/52/52
f 113/113/113 52/52/52 101/101/101
f 115/115/115 116/116/116 24/24/24
f 115/115/115 24/24/24 35/35/35
f 115/115/115 35/35/35 12/12/12
f 115/115/115 12/12/12 108/108/108
f 115/115/115 108/108/108 60/60/60
f 115/115/115 60/60/60 80/80/80
f 115/115/115 80/80/80 63/63/63
f 115/115/115 63/63/63 116/116/116
f 117/117/117 93/93/93 18/18/18
f 117/117/117 18/18/18 17/17/17
f 117/117/117 17/17/17 24/24/24
f 117/117/117 24/24/24 116/116/116
f 117/117/117 116/116/116 63/63/63
f 117/117/117 63/63/63 62/62/62
f 117/117/117 62/62/62 69/69/69
f 117/117/117 69/69/69 93/93/93
f 118/118/118 114/114/114 29/29/29
f 118/118/118 29/29/29 28/28/28
f 118/118/118 28/28/28 27/27/27
f 118/118/118 27/27/27 111/111/111
f 118/118/118 111/111/111 74/74/74
f 118/118/118 74/74/74 73/73/73
f 118/118/118 73/73/73 72/72/72
f 118/118/118 72/72/72 114/114/114
