v -2.423582 0.672275 -1.098661
v -2.42533 0.671504 -1.097138
v -2.422706 0.669984 -1.095961
v -2.421028 0.670972 -1.097854
v -2.419581 0.671839 -1.099113
v -2.421901 0.672889 -1.099556
v -2.423652 0.673199 -1.099613
v -2.425473 0.673064 -1.099224
v -2.427281 0.672523 -1.098055
v -2.426077 0.670886 -1.094896
v -2.426276 0.670453 -1.092952
v -2.42455 0.669072 -1.091612
v -2.423863 0.669394 -1.093575
v -2.427632 0.671862 -1.095965
v -2.427195 0.671226 -1.094265
v -2.416223 0.663238 -1.090852
v -2.417126 0.662818 -1.089122
v -2.414513 0.660489 -1.088919
v -2.413723 0.660852 -1.090459
v -2.412596 0.661422 -1.092422
v -2.414938 0.663889 -1.093063
v -2.417388 0.666187 -1.093839
v -2.418722 0.665524 -1.091513
v -2.419651 0.665111 -1.089682
v -2.413445 0.664785 -1.095046
v -2.411267 0.66222 -1.094167
v -2.410208 0.662886 -1.095417
v -2.412259 0.665528 -1.09647
v -2.41456 0.667946 -1.097368
v -2.415817 0.667142 -1.095899
v -2.418392 0.669232 -1.096885
v -2.420018 0.668215 -1.094833
v -2.417067 0.670121 -1.098316
v -2.42134 0.667591 -1.092434
v -2.422233 0.667243 -1.090517
v -2.411106 0.658486 -1.090339
v -2.411665 0.658248 -1.089154
v -2.409967 0.657025 -1.089615
v -2.409117 0.656697 -1.090367
v -2.408587 0.656936 -1.091421
v -2.410288 0.658885 -1.091829
v -2.409273 0.659507 -1.093106
v -2.40786 0.657396 -1.092263
v -2.407706 0.658284 -1.093027
v -2.40845 0.660038 -1.094007
v -2.423639 0.67208 -1.098815
v -2.425405 0.671295 -1.097265
v -2.427335 0.672365 -1.098149
v -2.425511 0.672916 -1.099339
v -2.423677 0.673093 -1.099704
v -2.421934 0.67275 -1.099684
v -2.419622 0.671702 -1.099241
v -2.421095 0.67078 -1.098009
v -2.42279 0.669781 -1.096091
v -2.42617 0.67067 -1.094993
v -2.426355 0.670288 -1.09301
v -2.42725 0.671104 -1.094311
v -2.4277 0.671697 -1.096035
v -2.423963 0.669183 -1.09368
v -2.424633 0.668911 -1.091676
v -2.416355 0.663057 -1.090978
v -2.417231 0.662679 -1.089207
v -2.419748 0.664965 -1.089763
v -2.418844 0.665333 -1.091634
v -2.417498 0.666003 -1.093979
v -2.415059 0.663714 -1.093207
v -2.412723 0.661254 -1.092568
v -2.413863 0.660678 -1.090587
v -2.414623 0.660355 -1.089005
v -2.413553 0.664617 -1.095208
v -2.415913 0.666965 -1.096059
v -2.414625 0.667818 -1.097496
v -2.412334 0.665406 -1.096599
v -2.410288 0.662769 -1.095549
v -2.411382 0.66206 -1.094331
v -2.418473 0.669047 -1.097041
v -2.420115 0.668021 -1.094968
v -2.41712 0.669987 -1.098444
v -2.421451 0.66739 -1.092547
v -2.422323 0.66709 -1.09059
v -2.411249 0.658314 -1.090466
v -2.411777 0.658117 -1.089239
v -2.410419 0.65872 -1.091976
v -2.408685 0.656812 -1.091532
v -2.409224 0.656568 -1.090461
v -2.410049 0.656929 -1.089681
v -2.40939 0.65935 -1.093272
v -2.408531 0.659925 -1.094141
v -2.407768 0.658199 -1.093124
v -2.407948 0.657279 -1.092388
v -2.411902 0.65811 -1.088795
v -2.409521 0.656522 -1.089501
v -2.414826 0.660308 -1.088442
v -2.410049 0.656929 -1.089681
v -2.407428 0.656641 -1.092038
v -2.407257 0.657783 -1.092919
v -2.408064 0.656231 -1.091334
v -2.407768 0.658199 -1.093124
v -2.421353 0.673034 -1.099914
v -2.423607 0.673387 -1.099858
v -2.419115 0.672069 -1.099592
v -2.423677 0.673093 -1.099704
v -2.42818 0.672114 -1.096352
v -2.42744 0.671253 -1.094073
v -2.427955 0.672792 -1.098402
v -2.42725 0.671104 -1.094311
v -2.426379 0.670235 -1.092327
v -2.424818 0.668893 -1.090983
v -2.408501 0.656043 -1.090418
v -2.40821 0.660166 -1.094369
v -2.409889 0.663057 -1.095894
v -2.426119 0.673261 -1.099463
v -2.416647 0.670358 -1.098852
v -2.414168 0.668158 -1.097917
v -2.422572 0.667059 -1.089908
v -2.420005 0.664908 -1.089106
v -2.417475 0.662615 -1.088581
v -2.411896 0.665722 -1.097004
vn 0.1477 0.749 0.6458
vn 0.2511 0.8422 0.477
vn 0.2992 0.8137 0.4983
vn 0.2089 0.7301 0.6506
vn 0.2341 0.7209 0.6522
vn 0.1526 0.7526 0.6406
vn 0.0946 0.7718 0.6287
vn 0.0949 0.8072 0.5826
vn 0.1742 0.8807 0.4404
vn 0.3762 0.8763 0.3008
vn 0.373 0.8751 0.3082
vn 0.4286 0.8292 0.3587
vn 0.4133 0.8438 0.3422
vn 0.2815 0.9112 0.3007
vn 0.3312 0.9036 0.2716
vn 0.5438 0.6896 0.4782
vn 0.5318 0.6751 0.5113
vn 0.5523 0.6516 0.52
vn 0.5704 0.668 0.4779
vn 0.5191 0.6309 0.5766
vn 0.4899 0.6609 0.5684
vn 0.4288 0.7176 0.5488
vn 0.4957 0.7431 0.4494
vn 0.4954 0.726 0.477
vn 0.4291 0.6257 0.6514
vn 0.4472 0.5995 0.6637
vn 0.4798 0.6111 0.6295
vn 0.456 0.6329 0.6256
vn 0.3953 0.6702 0.6281
vn 0.367 0.6714 0.6438
vn 0.2844 0.7106 0.6435
vn 0.3577 0.774 0.5224
vn 0.3143 0.7019 0.6391
vn 0.4468 0.801 0.3985
vn 0.459 0.7825 0.4207
vn 0.5917 0.6632 0.4582
vn 0.5761 0.6431 0.5045
vn 0.6022 0.6379 0.48
vn 0.6385 0.6256 0.4482
vn 0.569 0.5741 0.5887
vn 0.5324 0.6164 0.5801
vn 0.4416 0.5796 0.6848
vn 0.4656 0.5294 0.7092
vn 0.4725 0.5656 0.6759
vn 0.4799 0.5895 0.6497
vn -0.1505 -0.7243 -0.6728
vn -0.2644 -0.8347 -0.483
vn -0.3153 -0.8033 -0.5052
vn -0.1546 -0.6459 -0.7476
vn -0.1055 -0.5616 -0.8206
vn -0.1126 -0.5823 -0.8051
vn -0.1561 -0.6228 -0.7666
vn -0.2014 -0.7223 -0.6616
vn -0.2991 -0.8137 -0.4983
vn -0.4078 -0.8676 -0.2843
vn -0.5466 -0.8238 -0.1502
vn -0.5629 -0.8162 -0.1303
vn -0.4969 -0.8365 -0.2309
vn -0.4215 -0.8449 -0.3292
vn -0.5207 -0.8259 -0.2161
vn -0.5505 -0.694 -0.464
vn -0.5922 -0.7198 -0.3622
vn -0.5589 -0.7565 -0.3395
vn -0.5025 -0.7463 -0.4364
vn -0.4289 -0.7175 -0.5488
vn -0.4901 -0.6608 -0.5684
vn -0.5192 -0.6308 -0.5766
vn -0.5766 -0.6745 -0.461
vn -0.6035 -0.7213 -0.3398
vn -0.4187 -0.6206 -0.663
vn -0.358 -0.6659 -0.6546
vn -0.2984 -0.6114 -0.7329
vn -0.3435 -0.5813 -0.7376
vn -0.3292 -0.5686 -0.7538
vn -0.4338 -0.5949 -0.6767
vn -0.2761 -0.7044 -0.6538
vn -0.3577 -0.774 -0.5225
vn -0.2251 -0.6317 -0.7418
vn -0.4537 -0.8033 -0.3858
vn -0.5277 -0.8002 -0.285
vn -0.5895 -0.6824 -0.4321
vn -0.5985 -0.75 -0.2815
vn -0.5244 -0.6252 -0.578
vn -0.4878 -0.6631 -0.5677
vn -0.5698 -0.7426 -0.3518
vn -0.5898 -0.7695 -0.2449
vn -0.4127 -0.5839 -0.699
vn -0.2689 -0.5666 -0.7788
vn -0.2282 -0.5683 -0.7905
vn -0.3177 -0.6023 -0.7323
vn -0.1246 -0.4035 0.9064
vn 0.2404 -0.5602 0.7927
vn -0.2677 -0.3411 0.9011
vn -0.5898 -0.7695 -0.2449
vn 0.7952 -0.6063 0.0063
vn 0.9472 -0.1666 -0.274
vn 0.6024 -0.7909 0.1071
vn -0.2282 -0.5683 -0.7905
vn 0.3088 0.6847 -0.6601
vn -0.0074 0.7525 -0.6586
vn 0.4886 0.5743 -0.6568
vn -0.1055 -0.5616 -0.8206
vn -0.9409 0.3197 0.1119
vn -0.7906 0.3162 0.5243
vn -0.8269 0.3925 -0.4026
vn -0.5629 -0.8162 -0.1303
vn -0.6313 0.1615 0.7585
vn -0.5145 0.0159 0.8573
vn 0.5457 -0.7454 0.3828
vn 0.8329 0.1289 -0.5382
vn 0.7456 0.2226 -0.6281
vn -0.4218 0.6088 -0.6719
vn 0.5903 0.4672 -0.6582
vn 0.6362 0.393 -0.6638
vn -0.4372 -0.105 0.8932
vn -0.3987 -0.1833 0.8986
vn -0.3581 -0.2593 0.8969
vn 0.6764 0.3169 -0.6649
vt 0.839504 0.118056
vt 0.856743 0.205307
vt 0.741230 0.205307
vt 0.734555 0.106726
vt 0.724541 0.032791
vt 0.813647 0.052618
vt 0.868992 0.081539
vt 0.913398 0.129584
vt 0.940923 0.205307
vt 0.839504 0.292557
vt 0.813647 0.357995
vt 0.724541 0.377822
vt 0.734555 0.303887
vt 0.913398 0.281029
vt 0.868992 0.329074
vt 0.369475 0.299954
vt 0.368286 0.370940
vt 0.245840 0.351447
vt 0.246397 0.288815
vt 0.246768 0.205307
vt 0.370268 0.205307
vt 0.494283 0.205307
vt 0.492822 0.304944
vt 0.490632 0.379672
vt 0.369475 0.110659
vt 0.246397 0.121798
vt 0.245841 0.059166
vt 0.368286 0.039673
vt 0.490632 0.030941
vt 0.492822 0.105669
vt 0.616755 0.103478
vt 0.619174 0.205307
vt 0.613127 0.027106
vt 0.616755 0.307135
vt 0.613126 0.383507
vt 0.123273 0.268175
vt 0.123047 0.315326
vt 0.054743 0.283353
vt 0.030912 0.249131
vt 0.030973 0.205306
vt 0.123423 0.205306
vt 0.123273 0.142438
vt 0.030912 0.161481
vt 0.054744 0.127260
vt 0.123047 0.095287
vt 0.839504 0.118056
vt 0.856743 0.205307
vt 0.968983 0.205307
vt 0.938030 0.133427
vt 0.876123 0.061548
vt 0.805028 0.030806
vt 0.721203 0.008146
vt 0.734555 0.106726
vt 0.741230 0.205307
vt 0.839504 0.292557
vt 0.805028 0.379807
vt 0.876123 0.349065
vt 0.938030 0.277186
vt 0.734555 0.303887
vt 0.721203 0.402467
vt 0.369475 0.299954
vt 0.367890 0.394602
vt 0.489902 0.404581
vt 0.492822 0.304944
vt 0.494283 0.205307
vt 0.370268 0.205307
vt 0.246768 0.205307
vt 0.246397 0.288815
vt 0.245655 0.372324
vt 0.369475 0.110659
vt 0.492822 0.105669
vt 0.489902 0.006032
vt 0.367890 0.016011
vt 0.245655 0.038289
vt 0.246397 0.121798
vt 0.616755 0.103478
vt 0.619174 0.205307
vt 0.611917 0.001649
vt 0.616755 0.307135
vt 0.611917 0.408964
vt 0.123273 0.268175
vt 0.122972 0.331043
vt 0.123423 0.205306
vt 0.000156 0.205306
vt 0.000125 0.242784
vt 0.000064 0.280261
vt 0.123273 0.142438
vt 0.122972 0.079570
vt 0.000064 0.130352
vt 0.000125 0.167829
vt 0.122972 0.331043
vt 0.030806 0.283587
vt 0.245655 0.372324
vt 0.030806 0.283587
vt 0.000125 0.167829
vt 0.030806 0.127026
vt 0.000156 0.205306
vt 0.030806 0.127026
vt 0.805028 0.030806
vt 0.873826 0.071832
vt 0.721203 0.008146
vt 0.873826 0.071832
vt 0.938030 0.277186
vt 0.873826 0.338781
vt 0.968983 0.205307
vt 0.873826 0.338781
vt 0.805028 0.379807
vt 0.721203 0.402467
vt 0.000125 0.242784
vt 0.122972 0.079570
vt 0.245655 0.038289
vt 0.938030 0.133427
vt 0.611917 0.001649
vt 0.489902 0.006032
vt 0.611917 0.408964
vt 0.489902 0.404581
vt 0.367890 0.394602
vt 0.367890 0.016011
f 1/1/1 2/2/2 3/3/3
f 1/1/1 3/3/3 4/4/4
f 1/1/1 4/4/4 5/5/5
f 1/1/1 5/5/5 6/6/6
f 1/1/1 6/6/6 7/7/7
f 1/1/1 7/7/7 8/8/8
f 1/1/1 8/8/8 9/9/9
f 1/1/1 9/9/9 2/2/2
f 10/10/10 11/11/11 12/12/12
f 10/10/10 12/12/12 13/13/13
f 10/10/10 13/13/13 3/3/3
f 10/10/10 3/3/3 2/2/2
f 10/10/10 2/2/2 9/9/9
f 10/10/10 9/9/9 14/14/14
f 10/10/10 14/14/14 15/15/15
f 10/10/10 15/15/15 11/11/11
f 16/16/16 17/17/17 18/18/18
f 16/16/16 18/18/18 19/19/19
f 16/16/16 19/19/19 20/20/20
f 16/16/16 20/20/20 21/21/21
f 16/16/16 21/21/21 22/22/22
f 16/16/16 22/22/22 23/23/23
f 16/16/16 23/23/23 24/24/24
f 16/16/16 24/24/24 17/17/17
f 25/25/25 21/21/21 20/20/20
f 25/25/25 20/20/20 26/26/26
f 25/25/25 26/26/26 27/27/27
f 25/25/25 27/27/27 28/28/28
f 25/25/25 28/28/28 29/29/29
f 25/25/25 29/29/29 30/30/30
f 25/25/25 30/30/30 22/22/22
f 25/25/25 22/22/22 21/21/21
f 31/31/31 32/32/32 22/22/22
f 31/31/31 22/22/22 30/30/30
f 31/31/31 30/30/30 29/29/29
f 31/31/31 29/29/29 33/33/33
f 31/31/31 33/33/33 5/5/5
f 31/31/31 5/5/5 4/4/4
f 31/31/31 4/4/4 3/3/3
f 31/31/31 3/3/3 32/32/32
f 34/34/34 35/35/35 24/24/24
f 34/34/34 24/24/24 23/23/23
f 34/34/34 23/23/23 22/22/22
f 34/34/34 22/22/22 32/32/32
f 34/34/34 32/32/32 3/3/3
f 34/34/34 3/3/3 13/13/13
f 34/34/34 13/13/13 12/12/12
f 34/34/34 12/12/12 35/35/35
f 36/36/36 37/37/37 38/38/38
f 36/36/36 38/38/38 39/39/39
f 36/36/36 39/39/39 40/40/40
f 36/36/36 40/40/40 41/41/41
f 36/36/36 41/41/41 20/20/20
f 36/36/36 20/20/20 19/19/19
f 36/36/36 19/19/19 18/18/18
f 36/36/36 18/18/18 37/37/37
f 42/42/42 41/41/41 40/40/40
f 42/42/42 40/40/40 43/43/43
f 42/42/42 43/43/43 44/44/44
f 42/42/42 44/44/44 45/45/45
f 42/42/42 45/45/45 27/27/27
f 42/42/42 27/27/27 26/26/26
f 42/42/42 26/26/26 20/20/20
f 42/42/42 20/20/20 41/41/41
f 46/46/46 47/47/47 48/48/48
f 46/46/46 48/48/48 49/49/49
f 46/46/46 49/49/49 50/50/50
f 46/46/46 50/50/50 51/51/51
f 46/46/46 51/51/51 52/52/52
f 46/46/46 52/52/52 53/53/53
f 46/46/46 53/53/53 54/54/54
f 46/46/46 54/54/54 47/47/47
f 55/55/55 56/56/56 57/57/57
f 55/55/55 57/57/57 58/58/58
f 55/55/55 58/58/58 48/48/48
f 55/55/55 48/48/48 47/47/47
f 55/55/55 47/47/47 54/54/54
f 55/55/55 54/54/54 59/59/59
f 55/55/55 59/59/59 60/60/60
f 55/55/55 60/60/60 56/56/56
f 61/61/61 62/62/62 63/63/63
f 61/61/61 63/63/63 64/64/64
f 61/61/61 64/64/64 65/65/65
f 61/61/61 65/65/65 66/66/66
f 61/61/61 66/66/66 67/67/67
f 61/61/61 67/67/67 68/68/68
f 61/61/61 68/68/68 69/69/69
f 61/61/61 69/69/69 62/62/62
f 70/70/70 66/66/66 65/65/65
f 70/70/70 65/65/65 71/71/71
f 70/70/70 71/71/71 72/72/72
f 70/70/70 72/72/72 73/73/73
f 70/70/70 73/73/73 74/74/74
f 70/70/70 74/74/74 75/75/75
f 70/70/70 75/75/75 67/67/67
f 70/70/70 67/67/67 66/66/66
f 76/76/76 77/77/77 54/54/54
f 76/76/76 54/54/54 53/53/53
f 76/76/76 53/53/53 52/52/52
f 76/76/76 52/52/52 78/78/78
f 76/76/76 78/78/78 72/72/72
f 76/76/76 72/72/72 71/71/71
f 76/76/76 71/71/71 65/65/65
f 76/76/76 65/65/65 77/77/77
f 79/79/79 80/80/80 60/60/60
f 79/79/79 60/60/60 59/59/59
f 79/79/79 59/59/59 54/54/54
f 79/79/79 54/54/54 77/77/77
f 79/79/79 77/77/77 65/65/65
f 79/79/79 65/65/65 64/64/64
f 79/79/79 64/64/64 63/63/63
f 79/79/79 63/63/63 80/80/80
f 81/81/81 82/82/82 69/69/69
f 81/81/81 69/69/69 68/68/68
f 81/81/81 68/68/68 67/67/67
f 81/81/81 67/67/67 83/83/83
f 81/81/81 83/83/83 84/84/84
f 81/81/81 84/84/84 85/85/85
f 81/81/81 85/85/85 86/86/86
f 81/81/81 86/86/86 82/82/82
f 87/87/87 83/83/83 67/67/67
f 87/87/87 67/67/67 75/75/75
f 87/87/87 75/75/75 74/74/74
f 87/87/87 74/74/74 88/88/88
f 87/87/87 88/88/88 89/89/89
f 87/87/87 89/89/89 90/90/90
f 87/87/87 90/90/90 84/84/84
f 87/87/87 84/84/84 83/83/83
f 91/91/91 92/92/92 38/38/38
f 91/91/91 38/38/38 37/37/37
f 91/91/91 37/37/37 18/18/18
f 91/91/91 18/18/18 93/93/93
f 91/91/91 93/93/93 69/69/69
f 91/91/91 69/69/69 82/82/82
f 91/91/91 82/82/82 94/94/94
f 91/91/91 94/94/94 92/92/92
f 95/95/95 96/96/96 44/44/44
f 95/95/95 44/44/44 43/43/43
f 95/95/95 43/43/43 40/40/40
f 95/95/95 40/40/40 97/97/97
f 95/95/95 97/97/97 84/84/84
f 95/95/95 84/84/84 90/90/90
f 95/95/95 90/90/90 98/98/98
f 95/95/95 98/98/98 96/96/96
f 99/99/99 100/100/100 7/7/7
f 99/99/99 7/7/7 6/6/6
f 99/99/99 6/6/6 5/5/5
f 99/99/99 5/5/5 101/101/101
f 99/99/99 101/101/101 52/52/52
f 99/99/99 52/52/52 51/51/51
f 99/99/99 51/51/51 102/102/102
f 99/99/99 102/102/102 100/100/100
f 103/103/103 104/104/104 15/15/15
f 103/103/103 15/15/15 14/14/14
f 103/103/103 14/14/14 9/9/9
f 103/103/103 9/9/9 105/105/105
f 103/103/103 105/105/105 48/48/48
f 103/103/103 48/48/48 58/58/58
f 103/103/103 58/58/58 106/106/106
f 103/103/103 106/106/106 104/104/104
f 107/107/107 108/108/108 12/12/12
f 107/107/107 12/12/12 11/11/11
f 107/107/107 11/11/11 15/15/15
f 107/107/107 15/15/15 104/104/104
f 107/107/107 104/104/104 106/106/106
f 107/107/107 106/106/106 56/56/56
f 107/107/107 56/56/56 60/60/60
f 107/107/107 60/60/60 108/108/108
f 109/109/109 97/97/97 40/40/40
f 109/109/109 40/40/40 39/39/39
f 109/109/109 39/39/39 38/38/38
f 109/109/109 38/38/38 92/92/92
f 109/109/109 92/92/92 94/94/94
f 109/109/109 94/94/94 85/85/85
f 109/109/109 85/85/85 84/84/84
f 109/109/109 84/84/84 97/97/97
f 110/110/110 111/111/111 27/27/27
f 110/110/110 27/27/27 45/45/45
f 110/110/110 45/45/45 44/44/44
f 110/110/110 44/44/44 96/96/96
f 110/110/110 96/96/96 98/98/98
f 110/110/110 98/98/98 88/88/88
f 110/110/110 88/88/88 74/74/74
f 110/110/110 74/74/74 111/111/111
f 112/112/112 105/105/105 9/9/9
f 112/112/112 9/9/9 8/8/8
f 112/112/112 8/8/8 7/7/7
f 112/112/112 7/7/7 100/100/100
f 112/112/112 100/100/100 102/102/102
f 112/112/112 102/102/102 49/49/49
f 112/112/112 49/49/49 48/48/48
f 112/112/112 48/48/48 105/105/105
f 113/113/113 101/101/101 5/5/5
f 113/113/113 5/5/5 33/33/33
f 113/113/113 33/33/33 29/29/29
f 113/113/113 29/29/29 114/114/114
f 113/113/113 114/114/114 72/72/72
f 113/113/113 72/72/72 78/78/78
f 113/113/113 78/78/78 52/52/52
f 113/113/113 52/52/52 101/101/101
f 115/115/115 116/116/116 24/24/24
f 115/115/115 24/24/24 35/35/35
f 115/115/115 35/35/35 12/12/12
f 115/115/115 12/12/12 108/108/108
f 115/115/115 108/108/108 60/60/60
f 115/115/115 60/60/60 80/80/80
f 115/115/115 80/80/80 63/63/63
f 115/115/115 63/63/63 116/116/116
f 117/117/117 93/93/93 18/18/18
f 117/117/117 18/18/18 17/17/17
f 117/117/117 17/17/17 24/24/24
f 117/117/117 24/24/24 116/116/116
f 117/117/117 116/116/116 63/63/63
f 117/117/117 63/63/63 62/62/62
f 117/117/117 62/62/62 69/69/69
f 117/117/117 69/69/69 93/93/93
f 118/118/118 114/114/114 29/29/29
f 118/118/118 29/29/29 28/28/28
f 118/118/118 28/28/28 27/27/27
f 118/118/118 27/27/27 111/111/111
f 118/118/118 111/111/111 74/74/74
f 118/118/118 74/74/74 73/73/73
f 118/118/118 73/73/73 72/72/72
f 118/118/118 72/72/72 114/114/114
