v -2.451559 0.744243 -1.154925
v -2.452327 0.744646 -1.15275
v -2.449505 0.743435 -1.152212
v -2.44897 0.743052 -1.154731
v -2.448343 0.742906 -1.156643
v -2.45056 0.744011 -1.156546
v -2.452085 0.744576 -1.156035
v -2.453451 0.744996 -1.154957
v -2.45444 0.745437 -1.153125
v -2.451936 0.745313 -1.15054
v -2.451221 0.745888 -1.148855
v -2.449094 0.745039 -1.147907
v -2.449399 0.744269 -1.149747
v -2.453777 0.745922 -1.151161
v -2.452621 0.746097 -1.149807
v -2.441409 0.739 -1.147827
v -2.441387 0.739624 -1.146018
v -2.438967 0.737305 -1.145771
v -2.438998 0.736744 -1.147371
v -2.43894 0.736093 -1.149511
v -2.441332 0.738272 -1.150248
v -2.443867 0.740271 -1.150954
v -2.443934 0.741052 -1.148425
v -2.443889 0.741733 -1.146538
v -2.440989 0.737808 -1.152711
v -2.438627 0.73569 -1.151689
v -2.438316 0.735457 -1.15334
v -2.440651 0.737535 -1.154575
v -2.44312 0.739548 -1.155489
v -2.443495 0.739805 -1.153534
v -2.446219 0.741563 -1.154237
v -2.446638 0.741985 -1.151611
v -2.445773 0.741378 -1.156235
v -2.446665 0.742828 -1.149054
v -2.446554 0.743596 -1.147151
v -2.436609 0.734355 -1.147167
v -2.436546 0.734811 -1.145977
v -2.43525 0.733271 -1.146384
v -2.434846 0.732493 -1.147102
v -2.434877 0.732102 -1.148187
v -2.436596 0.733841 -1.148759
v -2.436332 0.733568 -1.15039
v -2.434657 0.731954 -1.14931
v -2.434908 0.732301 -1.150358
v -2.43606 0.733432 -1.151629
v -2.451665 0.744022 -1.154915
v -2.452437 0.744432 -1.152707
v -2.454519 0.745275 -1.153092
v -2.453527 0.744829 -1.154951
v -2.452142 0.744453 -1.156038
v -2.450637 0.743844 -1.156556
v -2.448428 0.742743 -1.15665
v -2.449086 0.742837 -1.15472
v -2.449624 0.743225 -1.152171
v -2.452048 0.745109 -1.150464
v -2.451306 0.745741 -1.148783
v -2.452682 0.745986 -1.149757
v -2.453858 0.745768 -1.151102
v -2.44952 0.744067 -1.149677
v -2.449186 0.744893 -1.14784
v -2.441568 0.73882 -1.147775
v -2.441507 0.739492 -1.145968
v -2.444 0.741595 -1.146484
v -2.444082 0.740864 -1.148368
v -2.444013 0.740077 -1.15092
v -2.44149 0.738086 -1.150216
v -2.439105 0.735913 -1.149481
v -2.439164 0.73657 -1.14732
v -2.439092 0.737177 -1.145723
v -2.441144 0.737617 -1.1527
v -2.443639 0.739606 -1.153522
v -2.443226 0.739397 -1.155491
v -2.440766 0.73739 -1.154578
v -2.438436 0.735317 -1.153344
v -2.438789 0.735505 -1.151681
v -2.446348 0.741355 -1.154225
v -2.44677 0.741782 -1.151573
v -2.445869 0.741221 -1.156239
v -2.446799 0.742633 -1.148991
v -2.446656 0.743454 -1.147091
v -2.436778 0.734184 -1.147115
v -2.436673 0.734686 -1.145927
v -2.436764 0.733663 -1.148731
v -2.435003 0.73197 -1.148166
v -2.434973 0.732365 -1.147062
v -2.435344 0.733177 -1.146351
v -2.436497 0.733386 -1.150384
v -2.436182 0.733293 -1.151635
v -2.434999 0.732199 -1.15036
v -2.434781 0.731817 -1.149307
v -2.436581 0.734909 -1.145556
v -2.434797 0.732825 -1.146233
v -2.439012 0.737436 -1.145214
v -2.435344 0.733177 -1.146351
v -2.434153 0.731355 -1.148949
v -2.434454 0.731853 -1.150214
v -2.43436 0.731464 -1.147987
v -2.434999 0.732199 -1.15036
v -2.450261 0.743859 -1.157094
v -2.452165 0.744609 -1.156322
v -2.448171 0.742785 -1.157287
v -2.452142 0.744453 -1.156038
v -2.454426 0.746057 -1.151342
v -2.452745 0.746254 -1.149583
v -2.455178 0.745628 -1.153235
v -2.452682 0.745986 -1.149757
v -2.451021 0.746016 -1.148258
v -2.449034 0.745232 -1.147261
v -2.434316 0.731815 -1.147062
v -2.436023 0.733324 -1.152047
v -2.438265 0.735317 -1.153894
v -2.454114 0.745172 -1.154965
v -2.445667 0.741246 -1.156905
v -2.443041 0.739394 -1.156144
v -2.446563 0.743789 -1.146487
v -2.443924 0.741899 -1.145882
v -2.441433 0.739774 -1.14539
v -2.440589 0.737379 -1.1552
vn 0.3916 0.9195 0.0329
vn 0.4002 0.8976 -0.1847
vn 0.4541 0.8737 -0.1742
vn 0.449 0.8932 0.0205
vn 0.4725 0.8812 0.0158
vn 0.3934 0.919 0.0251
vn 0.3355 0.9415 0.0305
vn 0.3126 0.9496 -0.0222
vn 0.3132 0.9284 -0.1997
vn 0.4277 0.8172 -0.3863
vn 0.4281 0.8205 -0.3789
vn 0.5032 0.7941 -0.3408
vn 0.4812 0.8018 -0.3542
vn 0.3421 0.866 -0.3646
vn 0.3729 0.8356 -0.4034
vn 0.6676 0.7088 -0.2279
vn 0.673 0.7147 -0.1906
vn 0.6963 0.6946 -0.1805
vn 0.692 0.6849 -0.2281
vn 0.6942 0.7107 -0.1138
vn 0.6631 0.7383 -0.1232
vn 0.597 0.7896 -0.1414
vn 0.609 0.7505 -0.2567
vn 0.6223 0.749 -0.2273
vn 0.6495 0.7602 -0.0174
vn 0.6726 0.74 -0.0023
vn 0.6849 0.727 -0.0475
vn 0.661 0.7486 -0.0517
vn 0.6064 0.7939 -0.0436
vn 0.5887 0.8081 -0.0207
vn 0.5135 0.858 -0.0065
vn 0.5191 0.8395 -0.1603
vn 0.5383 0.8425 -0.0177
vn 0.5391 0.7854 -0.3041
vn 0.5612 0.7777 -0.2832
vn 0.702 0.6671 -0.2493
vn 0.7106 0.6752 -0.1977
vn 0.7227 0.6537 -0.2243
vn 0.7409 0.6205 -0.257
vn 0.7469 0.6579 -0.0964
vn 0.7084 0.6973 -0.1093
vn 0.6784 0.7342 0.0259
vn 0.7133 0.6982 0.0602
vn 0.702 0.712 0.0138
vn 0.6954 0.7183 -0.0211
vn -0.4078 -0.9108 -0.0645
vn -0.4152 -0.8914 0.1819
vn -0.472 -0.8649 0.1705
vn -0.4501 -0.8787 -0.1592
vn -0.4447 -0.8515 -0.2778
vn -0.4427 -0.8603 -0.2526
vn -0.4614 -0.8678 -0.1846
vn -0.4478 -0.8934 -0.0359
vn -0.454 -0.8738 0.1742
vn -0.4485 -0.7955 0.4074
vn -0.5111 -0.6662 0.5431
vn -0.5168 -0.6467 0.5609
vn -0.5041 -0.7254 0.4687
vn -0.4825 -0.7948 0.3679
vn -0.5189 -0.7046 0.4841
vn -0.6667 -0.7044 0.2435
vn -0.6551 -0.6694 0.3504
vn -0.6134 -0.6966 0.3722
vn -0.6088 -0.7456 0.271
vn -0.5971 -0.7896 0.1414
vn -0.6632 -0.7382 0.1231
vn -0.6943 -0.7106 0.1137
vn -0.6894 -0.681 0.2467
vn -0.6547 -0.6577 0.3725
vn -0.6459 -0.7634 0.0018
vn -0.586 -0.8103 0.006
vn -0.5722 -0.8132 -0.1057
vn -0.6158 -0.7807 -0.1058
vn -0.6114 -0.7804 -0.1305
vn -0.6669 -0.745 -0.0153
vn -0.5112 -0.8594 -0.0079
vn -0.5191 -0.8395 0.1603
vn -0.5105 -0.8496 -0.1326
vn -0.5392 -0.7799 0.3177
vn -0.5582 -0.7142 0.4223
vn -0.687 -0.6714 0.2778
vn -0.6218 -0.6553 0.4288
vn -0.6998 -0.7055 0.112
vn -0.6609 -0.7402 0.1238
vn -0.6294 -0.6883 0.3606
vn -0.5962 -0.6562 0.4625
vn -0.6591 -0.7506 -0.0465
vn -0.5697 -0.8029 -0.1755
vn -0.539 -0.8181 -0.2004
vn -0.5895 -0.8013 -0.1018
vn 0.3297 0.1139 0.9372
vn 0.6083 -0.1483 0.7797
vn 0.1975 0.1933 0.961
vn -0.5962 -0.6562 0.4625
vn 0.7374 -0.6752 -0.0159
vn 0.72 -0.4639 -0.5161
vn 0.6227 -0.746 0.2359
vn -0.539 -0.8181 -0.2004
vn -0.0674 0.2073 -0.976
vn -0.3496 0.3295 -0.877
vn 0.0989 0.0783 -0.992
vn -0.4447 -0.8515 -0.2778
vn -0.7971 0.5161 0.3135
vn -0.4731 0.6801 0.56
vn -0.9381 0.309 -0.1562
vn -0.5168 -0.6467 0.5609
vn -0.2155 0.6279 0.7479
vn -0.0591 0.5272 0.8477
vn 0.6979 -0.5637 0.4418
vn 0.4812 -0.3146 -0.8182
vn 0.3578 -0.2602 -0.8968
vn -0.715 0.2835 -0.639
vn 0.1939 -0.0343 -0.9804
vn 0.2357 -0.1097 -0.9656
vn 0.032 0.4255 0.9044
vn 0.0725 0.3537 0.9325
vn 0.1114 0.2798 0.9536
vn 0.275 -0.1834 -0.9438
vt 0.839504 0.118056
vt 0.856743 0.205307
vt 0.741230 0.205307
vt 0.734555 0.106726
vt 0.724541 0.032791
vt 0.813647 0.052618
vt 0.868992 0.081539
vt 0.913398 0.129584
vt 0.940923 0.205307
vt 0.839504 0.292557
vt 0.813647 0.357995
vt 0.724541 0.377822
vt 0.734555 0.303887
vt 0.913398 0.281029
vt 0.868992 0.329074
vt 0.369475 0.299954
vt 0.368286 0.370940
vt 0.245840 0.351447
vt 0.246397 0.288815
vt 0.246768 0.205307
vt 0.370268 0.205307
vt 0.494283 0.205307
vt 0.492822 0.304944
vt 0.490632 0.379672
vt 0.369475 0.110659
vt 0.246397 0.121798
vt 0.245841 0.059166
vt 0.368286 0.039673
vt 0.490632 0.030941
vt 0.492822 0.105669
vt 0.616755 0.103478
vt 0.619174 0.205307
vt 0.613127 0.027106
vt 0.616755 0.307135
vt 0.613126 0.383507
vt 0.123273 0.268175
vt 0.123047 0.315326
vt 0.054743 0.283353
vt 0.030912 0.249131
vt 0.030973 0.205306
vt 0.123423 0.205306
vt 0.123273 0.142438
vt 0.030912 0.161481
vt 0.054744 0.127260
vt 0.123047 0.095287
vt 0.839504 0.118056
vt 0.856743 0.205307
vt 0.968983 0.205307
vt 0.938030 0.133427
vt 0.876123 0.061548
vt 0.805028 0.030806
vt 0.721203 0.008146
vt 0.734555 0.106726
vt 0.741230 0.205307
vt 0.839504 0.292557
vt 0.805028 0.379807
vt 0.876123 0.349065
vt 0.938030 0.277186
vt 0.734555 0.303887
vt 0.721203 0.402467
vt 0.369475 0.299954
vt 0.367890 0.394602
vt 0.489902 0.404581
vt 0.492822 0.304944
vt 0.494283 0.205307
vt 0.370268 0.205307
vt 0.246768 0.205307
vt 0.246397 0.288815
vt 0.245655 0.372324
vt 0.369475 0.110659
vt 0.492822 0.105669
vt 0.489902 0.006032
vt 0.367890 0.016011
vt 0.245655 0.038289
vt 0.246397 0.121798
vt 0.616755 0.103478
vt 0.619174 0.205307
vt 0.611917 0.001649
vt 0.616755 0.307135
vt 0.611917 0.408964
vt 0.123273 0.268175
vt 0.122972 0.331043
vt 0.123423 0.205306
vt 0.000156 0.205306
vt 0.000125 0.242784
vt 0.000064 0.280261
vt 0.123273 0.142438
vt 0.122972 0.079570
vt 0.000064 0.130352
vt 0.000125 0.167829
vt 0.122972 0.331043
vt 0.030806 0.283587
vt 0.245655 0.372324
vt 0.030806 0.283587
vt 0.000125 0.167829
vt 0.030806 0.127026
vt 0.000156 0.205306
vt 0.030806 0.127026
vt 0.805028 0.030806
vt 0.873826 0.071832
vt 0.721203 0.008146
vt 0.873826 0.071832
vt 0.938030 0.277186
vt 0.873826 0.338781
vt 0.968983 0.205307
vt 0.873826 0.338781
vt 0.805028 0.379807
vt 0.721203 0.402467
vt 0.000125 0.242784
vt 0.122972 0.079570
vt 0.245655 0.038289
vt 0.938030 0.133427
vt 0.611917 0.001649
vt 0.489902 0.006032
vt 0.611917 0.408964
vt 0.489902 0.404581
vt 0.367890 0.394602
vt 0.367890 0.016011
f 1/1/1 2/2/2 3/3/3
f 1/1/1 3/3/3 4/4/4
f 1/1/1 4/4/4 5/5/5
f 1/1/1 5/5/5 6/6/6
f 1/1/1 6/6/6 7/7/7
f 1/1/1 7/7/7 8/8/8
f 1/1/1 8/8/8 9/9/9
f 1/1/1 9/9/9 2/2/2
f 10/10/10 11/11/11 12/12/12
f 10/10/10 12/12/12 13/13/13
f 10/10/10 13/13/13 3/3/3
f 10/10/10 3/3/3 2/2/2
f 10/10/10 2/2/2 9/9/9
f 10/10/10 9/9/9 14/14/14
f 10/10/10 14/14/14 15/15/15
f 10/10/10 15/15/15 11/11/11
f 16/16/16 17/17/17 18/18/18
f 16/16/16 18/18/18 19/19/19
f 16/16/16 19/19/19 20/20/20
f 16/16/16 20/20/20 21/21/21
f 16/16/16 21/21/21 22/22/22
f 16/16/16 22/22/22 23/23/23
f 16/16/16 23/23/23 24/24/24
f 16/16/16 24/24/24 17/17/17
f 25/25/25 21/21/21 20/20/20
f 25/25/25 20/20/20 26/26/26
f 25/25/25 26/26/26 27/27/27
f 25/25/25 27/27/27 28/28/28
f 25/25/25 28/28/28 29/29/29
f 25/25/25 29/29/29 30/30/30
f 25/25/25 30/30/30 22/22/22
f 25/25/25 22/22/22 21/21/21
f 31/31/31 32/32/32 22/22/22
f 31/31/31 22/22/22 30/30/30
f 31/31/31 30/30/30 29/29/29
f 31/31/31 29/29/29 33/33/33
f 31/31/31 33/33/33 5/5/5
f 31/31/31 5/5/5 4/4/4
f 31/31/31 4/4/4 3/3/3
f 31/31/31 3/3/3 32/32/32
f 34/34/34 35/35/35 24/24/24
f 34/34/34 24/24/24 23/23/23
f 34/34/34 23/23/23 22/22/22
f 34/34/34 22/22/22 32/32/32
f 34/34/34 32/32/32 3/3/3
f 34/34/34 3/3/3 13/13/13
f 34/34/34 13/13/13 12/12/12
f 34/34/34 12/12/12 35/35/35
f 36/36/36 37/37/37 38/38/38
f 36/36/36 38/38/38 39/39/39
f 36/36/36 39/39/39 40/40/40
f 36/36/36 40/40/40 41/41/41
f 36/36/36 41/41/41 20/20/20
f 36/36/36 20/20/20 19/19/19
f 36/36/36 19/19/19 18/18/18
f 36/36/36 18/18/18 37/37/37
f 42/42/42 41/41/41 40/40/40
f 42/42/42 40/40/40 43/43/43
f 42/42/42 43/43/43 44/44/44
f 42/42/42 44/44/44 45/45/45
f 42/42/42 45/45/45 27/27/27
f 42/42/42 27/27/27 26/26/26
f 42/42/42 26/26/26 20/20/20
f 42/42/42 20/20/20 41/41/41
f 46/46/46 47/47/47 48/48/48
f 46/46/46 48/48/48 49/49/49
f 46/46/46 49/49/49 50/50/50
f 46/46/46 50/50/50 51/51/51
f 46/46/46 51/51/51 52/52/52
f 46/46/46 52/52/52 53/53/53
f 46/46/46 53/53/53 54/54/54
f 46/46/46 54/54/54 47/47/47
f 55/55/55 56/56/56 57/57/57
f 55/55/55 57/57/57 58/58/58
f 55/55/55 58/58/58 48/48/48
f 55/55/55 48/48/48 47/47/47
f 55/55/55 47/47/47 54/54/54
f 55/55/55 54/54/54 59/59/59
f 55/55/55 59/59/59 60/60/60
f 55/55/55 60/60/60 56/56/56
f 61/61/61 62/62/62 63/63/63
f 61/61/61 63/63/63 64/64/64
f 61/61/61 64/64/64 65/65/65
f 61/61/61 65/65/65 66/66/66
f 61/61/61 66/66/66 67/67/67
f 61/61/61 67/67/67 68/68/68
f 61/61/61 68/68/68 69/69/69
f 61/61/61 69/69/69 62/62/62
f 70/70/70 66/66/66 65/65/65
f 70/70/70 65/65/65 71/71/71
f 70/70/70 71/71/71 72/72/72
f 70/70/70 72/72/72 73/73/73
f 70/70/70 73/73/73 74/74/74
f 70/70/70 74/74/74 75/75/75
f 70/70/70 75/75/75 67/67/67
f 70/70/70 67/67/67 66/66/66
f 76/76/76 77/77/77 54/54/54
f 76/76/76 54/54/54 53/53/53
f 76/76/76 53/53/53 52/52/52
f 76/76/76 52/52/52 78/78/78
f 76/76/76 78/78/78 72/72/72
f 76/76/76 72/72/72 71/71/71
f 76/76/76 71/71/71 65/65/65
f 76/76/76 65/65/65 77/77/77
f 79/79/79 80/80/80 60/60/60
f 79/79/79 60/60/60 59/59/59
f 79/79/79 59/59/59 54/54/54
f 79/79/79 54/54/54 77/77/77
f 79/79/79 77/77/77 65/65/65
f 79/79/79 65/65/65 64/64/64
f 79/79/79 64/64/64 63/63/63
f 79/79/79 63/63/63 80/80/80
f 81/81/81 82/82/82 69/69/69
f 81/81/81 69/69/69 68/68/68
f 81/81/81 68/68/68 67/67/67
f 81/81/81 67/67/67 83/83/83
f 81/81/81 83/83/83 84/84/84
f 81/81/81 84/84/84 85/85/85
f 81/81/81 85/85/85 86/86/86
f 81/81/81 86/86/86 82/82/82
f 87/87/87 83/83/83 67/67/67
f 87/87/87 67/67/67 75/75/75
f 87/87/87 75/75/75 74/74/74
f 87/87/87 74/74/74 88/88/88
f 87/87/87 88/88/88 89/89/89
f 87/87/87 89/89/89 90/90/90
f 87/87/87 90/90/90 84/84/84
f 87/87/87 84/84/84 83/83/83
f 91/91/91 92/92/92 38/38/38
f 91/91/91 38/38/38 37/37/37
f 91/91/91 37/37/37 18/18/18
f 91/91/91 18/18/18 93/93/93
f 91/91/91 93/93/93 69/69/69
f 91/91/91 69/69/69 82/82/82
f 91/91/91 82/82/82 94/94/94
f 91/91/91 94/94/94 92/92/92
f 95/95/95 96/96/96 44/44/44
f 95/95/95 44/44/44 43/43/43
f 95/95/95 43/43/43 40/40/40
f 95/95/95 40/40/40 97/97/97
f 95/95/95 97/97/97 84/84/84
f 95/95/95 84/84/84 90/90/90
f 95/95/95 90/90/90 98/98/98
f 95/95/95 98/98/98 96/96/96
f 99/99/99 100/100/100 7/7/7
f 99/99/99 7/7/7 6/6/6
f 99/99/99 6/6/6 5/5/5
f 99/99/99 5/5/5 101/101/101
f 99/99/99 101/101/101 52/52/52
f 99/99/99 52/52/52 51/51/51
f 99/99/99 51/51/51 102/102/102
f 99/99/99 102/102/102 100/100/100
f 103/103/103 104/104/104 15/15/15
f 103/103/103 15/15/15 14/14/14
f 103/103/103 14/14/14 9/9/9
f 103/103/103 9/9/9 105/105/105
f 103/103/103 105/105/105 48/48/48
f 103/103/103 48/48/48 58/58/58
f 103/103/103 58/58/58 106/106/106
f 103/103/103 106/106/106 104/104/104
f 107/107/107 108/108/108 12/12/12
f 107/107/107 12/12/12 11/11/11
f 107/107/107 11/11/11 15/15/15
f 107/107/107 15/15/15 104/104/104
f 107/107/107 104/104/104 106/106/106
f 107/107/107 106/106/106 56/56/56
f 107/107/107 56/56/56 60/60/60
f 107/107/107 60/60/60 108/108/108
f 109/109/109 97/97/97 40/40/40
f 109/109/109 40/40/40 39/39/39
f 109/109/109 39/39/39 38/38/38
f 109/109/109 38/38/38 92/92/92
f 109/109/109 92/92/92 94/94/94
f 109/109/109 94/94/94 85/85/85
f 109/109/109 85/85/85 84/84/84
f 109/109/109 84/84/84 97/97/97
f 110/110/110 111/111/111 27/27/27
f 110/110/110 27/27/27 45/45/45
f 110/110/110 45/45/45 44/44/44
f 110/110/110 44/44/44 96/96/96
f 110/110/110 96/96/96 98/98/98
f 110/110/110 98/98/98 88/88/88
f 110/110/110 88/88/88 74/74/74
f 110/110/110 74/74/74 111/111/111
f 112/112/112 105/105/105 9/9/9
f 112/112/112 9/9/9 8/8/8
f 112/112/112 8/8/8 7/7/7
f 112/112/112 7/7/7 100/100/100
f 112/112/112 100/100/100 102/102/102
f 112/112/112 102/102/102 49/49/49
f 112/112/112 49/49/49 48/48/48
f 112/112/112 48/48/48 105/105/105
f 113/113/113 101/101/101 5/5/5
f 113/113/113 5/5/5 33/33/33
f 113/113/113 33/33/33 29/29/29
f 113/113/113 29/29/29 114/114/114
f 113/113/113 114/114/114 72/72/72
f 113/113/113 72/72/72 78/78/78
f 113/113/113 78/78/78 52/52/52
f 113/113/113 52/52/52 101/101/101
f 115/115/115 116/116/116 24/24/24
f 115/115/115 24/24/24 35/35/35
f 115/115/115 35/35/35 12/12/12
f 115/115/115 12/12/12 108/108/108
f 115/115/115 108/108/108 60/60/60
f 115/115/115 60/60/60 80/80/80
f 115/115/115 80/80/80 63/63/63
f 115/115/115 63/63/63 116/116/116
f 117/117/117 93/93/93 18/18/18
f 117/117/117 18/18/18 17/17/17
f 117/117/117 17/17/17 24/24/24
f 117/117/117 24/24/24 116/116/116
f 117/117/117 116/116/116 63/63/63
f 117/117/117 63/63/63 62/62/62
f 117/117/117 62/62/62 69/69/69
f 117/117/117 69/69/69 93/93/93
f 118/118/118 114/114/114 29/29/29
f 118/118/118 29/29/29 28/28/28
f 118/118/118 28/28/28 27/27/27
f 118/118/118 27/27/27 111/111/111
f 118/118/118 111/111/111 74/74/74
f 118/118/118 74/74/74 73/73/73
f 118/118/118 73/73/73 72/72/72
f 118/118/118 72/72/72 114/114/114
