v -2.41565 0.7396 -1.175175
v -2.413321 0.740467 -1.175202
v -2.413269 0.738318 -1.177717
v -2.415892 0.737522 -1.177368
v -2.417965 0.736985 -1.177363
v -2.417506 0.738873 -1.17559
v -2.416704 0.740018 -1.17444
v -2.415341 0.741012 -1.173568
v -2.413311 0.741964 -1.173291
v -2.411297 0.741194 -1.176447
v -2.409871 0.741669 -1.17782
v -2.409292 0.74016 -1.179896
v -2.410944 0.739334 -1.178813
v -2.411572 0.742392 -1.174669
v -2.410521 0.742282 -1.176246
v -2.410062 0.731448 -1.185474
v -2.408344 0.732225 -1.186228
v -2.408286 0.729084 -1.187919
v -2.409801 0.728392 -1.187238
v -2.411871 0.72753 -1.186455
v -2.412408 0.730477 -1.184602
v -2.412846 0.733297 -1.182563
v -2.410402 0.734327 -1.183493
v -2.40862 0.73516 -1.18431
v -2.414911 0.729672 -1.184058
v -2.414089 0.726822 -1.185986
v -2.4158 0.726333 -1.185725
v -2.416839 0.729114 -1.183747
v -2.417507 0.731906 -1.181715
v -2.415474 0.73247 -1.182012
v -2.415817 0.735116 -1.179714
v -2.413121 0.73592 -1.18022
v -2.417924 0.734596 -1.179496
v -2.410671 0.737 -1.181217
v -2.408905 0.737898 -1.18213
v -2.409766 0.72519 -1.188865
v -2.408657 0.725729 -1.189422
v -2.40912 0.723701 -1.190074
v -2.40981 0.722719 -1.190008
v -2.410834 0.722243 -1.189534
v -2.411294 0.724529 -1.188244
v -2.412966 0.724018 -1.18793
v -2.412003 0.721916 -1.189368
v -2.413065 0.722257 -1.188921
v -2.414268 0.723675 -1.187784
v -2.415574 0.739419 -1.175006
v -2.413212 0.740296 -1.175041
v -2.413229 0.741833 -1.173173
v -2.415286 0.740873 -1.173444
v -2.416671 0.739914 -1.174346
v -2.417466 0.738733 -1.17546
v -2.417921 0.736851 -1.177227
v -2.415813 0.737349 -1.177191
v -2.413159 0.738154 -1.177548
v -2.411155 0.741037 -1.176296
v -2.409749 0.741558 -1.177713
v -2.410435 0.742197 -1.176167
v -2.411465 0.742272 -1.174559
v -2.410806 0.739182 -1.178653
v -2.409174 0.740054 -1.179782
v -2.409936 0.731328 -1.185279
v -2.408239 0.73214 -1.186085
v -2.408512 0.735067 -1.184175
v -2.410273 0.734196 -1.183308
v -2.412738 0.733158 -1.18237
v -2.412303 0.730349 -1.1844
v -2.411766 0.727411 -1.186247
v -2.409676 0.728281 -1.187037
v -2.408182 0.729006 -1.187773
v -2.414827 0.729538 -1.183851
v -2.415389 0.732323 -1.181813
v -2.417455 0.731792 -1.181564
v -2.416787 0.72901 -1.183589
v -2.415749 0.726235 -1.185563
v -2.414006 0.726696 -1.185773
v -2.415735 0.734955 -1.179527
v -2.413013 0.735767 -1.180039
v -2.417875 0.734472 -1.179353
v -2.410537 0.736858 -1.181045
v -2.408793 0.737797 -1.182005
v -2.409641 0.725083 -1.188662
v -2.408552 0.725654 -1.189275
v -2.41119 0.724413 -1.188033
v -2.410756 0.722156 -1.189376
v -2.409715 0.72264 -1.189856
v -2.409045 0.723644 -1.189963
v -2.412886 0.723894 -1.187715
v -2.414219 0.723579 -1.18762
v -2.413026 0.722187 -1.1888
v -2.411943 0.721824 -1.189205
v -2.408238 0.725877 -1.189543
v -2.409 0.723111 -1.190418
v -2.407733 0.729281 -1.188082
v -2.409045 0.723644 -1.189963
v -2.411655 0.721175 -1.189774
v -2.412953 0.721664 -1.189264
v -2.410646 0.721443 -1.189894
v -2.413026 0.722187 -1.1888
v -2.418111 0.738568 -1.17567
v -2.416981 0.740053 -1.174288
v -2.41864 0.736745 -1.1773
v -2.416671 0.739914 -1.174346
v -2.411616 0.742737 -1.174028
v -2.410291 0.742502 -1.176242
v -2.413271 0.742404 -1.172603
v -2.410435 0.742197 -1.176167
v -2.409338 0.74178 -1.178231
v -2.408686 0.74039 -1.180207
v -2.409782 0.721861 -1.190321
v -2.414683 0.723517 -1.187661
v -2.416351 0.726126 -1.185565
v -2.415214 0.74142 -1.172977
v -2.418607 0.734367 -1.179359
v -2.418164 0.731667 -1.181548
v -2.408264 0.738154 -1.182379
v -2.407976 0.735397 -1.184524
v -2.407722 0.732447 -1.186416
v -2.417461 0.728881 -1.183572
vn -0.2176 0.7377 -0.639
vn -0.424 0.6959 -0.5795
vn -0.4228 0.6565 -0.6246
vn -0.2386 0.6931 -0.6802
vn -0.2466 0.6736 -0.6967
vn -0.2255 0.7362 -0.6381
vn -0.2103 0.7768 -0.5935
vn -0.2567 0.7875 -0.5602
vn -0.423 0.7524 -0.505
vn -0.6098 0.5942 -0.5245
vn -0.6033 0.5979 -0.5278
vn -0.5803 0.5514 -0.5993
vn -0.5892 0.5647 -0.5778
vn -0.577 0.6701 -0.4669
vn -0.6162 0.6282 -0.4751
vn -0.4968 0.4264 -0.7558
vn -0.4636 0.4333 -0.7728
vn -0.4561 0.4075 -0.7911
vn -0.4989 0.3959 -0.771
vn -0.3944 0.4291 -0.8126
vn -0.4007 0.4645 -0.7897
vn -0.4111 0.5331 -0.7395
vn -0.5176 0.4825 -0.7066
vn -0.4924 0.4793 -0.7265
vn -0.3 0.4985 -0.8133
vn -0.2876 0.4732 -0.8326
vn -0.3316 0.4531 -0.8274
vn -0.3336 0.4809 -0.8108
vn -0.3206 0.5422 -0.7766
vn -0.2968 0.5633 -0.7711
vn -0.2738 0.6364 -0.7211
vn -0.4191 0.6041 -0.6777
vn -0.2879 0.6126 -0.736
vn -0.5522 0.5344 -0.6398
vn -0.5361 0.5218 -0.6635
vn -0.5185 0.374 -0.7689
vn -0.4727 0.383 -0.7936
vn -0.4973 0.3566 -0.7909
vn -0.5271 0.317 -0.7884
vn -0.3813 0.3635 -0.85
vn -0.3912 0.4121 -0.8228
vn -0.261 0.4683 -0.8441
vn -0.2305 0.4255 -0.8751
vn -0.2745 0.4382 -0.8559
vn -0.3075 0.4436 -0.8418
vn 0.1897 -0.7268 0.6601
vn 0.4238 -0.6853 0.5922
vn 0.422 -0.6427 0.6394
vn 0.104 -0.6908 0.7154
vn -0.0155 -0.677 0.7358
vn 0.0096 -0.6839 0.7295
vn 0.0802 -0.6789 0.7298
vn 0.2237 -0.6949 0.6834
vn 0.4228 -0.6566 0.6246
vn 0.6312 -0.5652 0.5311
vn 0.7539 -0.4113 0.5122
vn 0.7689 -0.3898 0.5067
vn 0.6911 -0.4758 0.5441
vn 0.6014 -0.5566 0.5731
vn 0.7059 -0.4498 0.5471
vn 0.5109 -0.4212 0.7494
vn 0.6044 -0.3831 0.6984
vn 0.62 -0.4206 0.6623
vn 0.5304 -0.4768 0.7009
vn 0.4111 -0.5329 0.7396
vn 0.4006 -0.4644 0.7898
vn 0.3944 -0.429 0.8126
vn 0.5154 -0.3915 0.7623
vn 0.6236 -0.3703 0.6884
vn 0.2848 -0.504 0.8153
vn 0.2825 -0.5676 0.7733
vn 0.1729 -0.5843 0.7929
vn 0.1777 -0.5393 0.8231
vn 0.153 -0.5426 0.8259
vn 0.2703 -0.4813 0.8338
vn 0.2597 -0.6396 0.7234
vn 0.4191 -0.6041 0.6777
vn 0.1386 -0.6412 0.7547
vn 0.5643 -0.5281 0.6345
vn 0.6578 -0.4511 0.6031
vn 0.5429 -0.3806 0.7486
vn 0.6692 -0.3742 0.642
vn 0.3931 -0.4225 0.8166
vn 0.4011 -0.467 0.788
vn 0.6112 -0.4087 0.6777
vn 0.6955 -0.3807 0.6093
vn 0.2395 -0.4917 0.8372
vn 0.1039 -0.5811 0.8071
vn 0.0752 -0.6077 0.7906
vn 0.1786 -0.5671 0.804
vn 0.7985 0.0773 -0.597
vn 0.626 -0.2744 -0.7299
vn 0.8392 0.1977 -0.5065
vn 0.6955 -0.3807 0.6093
vn -0.0758 -0.8798 -0.4693
vn -0.5861 -0.7178 -0.3758
vn 0.204 -0.8871 -0.414
vn 0.0752 -0.6077 0.7906
vn -0.9525 0.1345 0.2731
vn -0.8113 0.3511 0.4675
vn -0.9856 -0.0433 0.1633
vn -0.0155 -0.677 0.7358
vn 0.4016 0.775 0.4878
vn 0.5325 0.8431 0.0747
vn 0.021 0.5871 0.8092
vn 0.7689 -0.3898 0.5067
vn 0.6599 0.7248 -0.1978
vn 0.7353 0.587 -0.3388
vn 0.3517 -0.7233 -0.5942
vn -0.8436 -0.524 -0.1174
vn -0.8986 -0.4386 0.0011
vn -0.4889 0.4488 0.748
vn -0.9779 -0.1795 0.1069
vn -0.961 -0.2623 0.0874
vn 0.7851 0.4661 -0.4078
vn 0.8146 0.3875 -0.4315
vn 0.838 0.3068 -0.4512
vn -0.937 -0.3427 0.0674
vt 0.839504 0.118056
vt 0.856743 0.205307
vt 0.741230 0.205307
vt 0.734555 0.106726
vt 0.724541 0.032791
vt 0.813647 0.052618
vt 0.868992 0.081539
vt 0.913398 0.129584
vt 0.940923 0.205307
vt 0.839504 0.292557
vt 0.813647 0.357995
vt 0.724541 0.377822
vt 0.734555 0.303887
vt 0.913398 0.281029
vt 0.868992 0.329074
vt 0.369475 0.299954
vt 0.368286 0.370940
vt 0.245840 0.351447
vt 0.246397 0.288815
vt 0.246768 0.205307
vt 0.370268 0.205307
vt 0.494283 0.205307
vt 0.492822 0.304944
vt 0.490632 0.379672
vt 0.369475 0.110659
vt 0.246397 0.121798
vt 0.245841 0.059166
vt 0.368286 0.039673
vt 0.490632 0.030941
vt 0.492822 0.105669
vt 0.616755 0.103478
vt 0.619174 0.205307
vt 0.613127 0.027106
vt 0.616755 0.307135
vt 0.613126 0.383507
vt 0.123273 0.268175
vt 0.123047 0.315326
vt 0.054743 0.283353
vt 0.030912 0.249131
vt 0.030973 0.205306
vt 0.123423 0.205306
vt 0.123273 0.142438
vt 0.030912 0.161481
vt 0.054744 0.127260
vt 0.123047 0.095287
vt 0.839504 0.118056
vt 0.856743 0.205307
vt 0.968983 0.205307
vt 0.938030 0.133427
vt 0.876123 0.061548
vt 0.805028 0.030806
vt 0.721203 0.008146
vt 0.734555 0.106726
vt 0.741230 0.205307
vt 0.839504 0.292557
vt 0.805028 0.379807
vt 0.876123 0.349065
vt 0.938030 0.277186
vt 0.734555 0.303887
vt 0.721203 0.402467
vt 0.369475 0.299954
vt 0.367890 0.394602
vt 0.489902 0.404581
vt 0.492822 0.304944
vt 0.494283 0.205307
vt 0.370268 0.205307
vt 0.246768 0.205307
vt 0.246397 0.288815
vt 0.245655 0.372324
vt 0.369475 0.110659
vt 0.492822 0.105669
vt 0.489902 0.006032
vt 0.367890 0.016011
vt 0.245655 0.038289
vt 0.246397 0.121798
vt 0.616755 0.103478
vt 0.619174 0.205307
vt 0.611917 0.001649
vt 0.616755 0.307135
vt 0.611917 0.408964
vt 0.123273 0.268175
vt 0.122972 0.331043
vt 0.123423 0.205306
vt 0.000156 0.205306
vt 0.000125 0.242784
vt 0.000064 0.280261
vt 0.123273 0.142438
vt 0.122972 0.079570
vt 0.000064 0.130352
vt 0.000125 0.167829
vt 0.122972 0.331043
vt 0.030806 0.283587
vt 0.245655 0.372324
vt 0.030806 0.283587
vt 0.000125 0.167829
vt 0.030806 0.127026
vt 0.000156 0.205306
vt 0.030806 0.127026
vt 0.805028 0.030806
vt 0.873826 0.071832
vt 0.721203 0.008146
vt 0.873826 0.071832
vt 0.938030 0.277186
vt 0.873826 0.338781
vt 0.968983 0.205307
vt 0.873826 0.338781
vt 0.805028 0.379807
vt 0.721203 0.402467
vt 0.000125 0.242784
vt 0.122972 0.079570
vt 0.245655 0.038289
vt 0.938030 0.133427
vt 0.611917 0.001649
vt 0.489902 0.006032
vt 0.611917 0.408964
vt 0.489902 0.404581
vt 0.367890 0.394602
vt 0.367890 0.016011
f 1/1/1 2/2/2 3/3/3
f 1/1/1 3/3/3 4/4/4
f 1/1/1 4/4/4 5/5/5
f 1/1/1 5/5/5 6/6/6
f 1/1/1 6/6/6 7/7/7
f 1/1/1 7/7/7 8/8/8
f 1/1/1 8/8/8 9/9/9
f 1/1/1 9/9/9 2/2/2
f 10/10/10 11/11/11 12/12/12
f 10/10/10 12/12/12 13/13/13
f 10/10/10 13/13/13 3/3/3
f 10/10/10 3/3/3 2/2/2
f 10/10/10 2/2/2 9/9/9
f 10/10/10 9/9/9 14/14/14
f 10/10/10 14/14/14 15/15/15
f 10/10/10 15/15/15 11/11/11
f 16/16/16 17/17/17 18/18/18
f 16/16/16 18/18/18 19/19/19
f 16/16/16 19/19/19 20/20/20
f 16/16/16 20/20/20 21/21/21
f 16/16/16 21/21/21 22/22/22
f 16/16/16 22/22/22 23/23/23
f 16/16/16 23/23/23 24/24/24
f 16/16/16 24/24/24 17/17/17
f 25/25/25 21/21/21 20/20/20
f 25/25/25 20/20/20 26/26/26
f 25/25/25 26/26/26 27/27/27
f 25/25/25 27/27/27 28/28/28
f 25/25/25 28/28/28 29/29/29
f 25/25/25 29/29/29 30/30/30
f 25/25/25 30/30/30 22/22/22
f 25/25/25 22/22/22 21/21/21
f 31/31/31 32/32/32 22/22/22
f 31/31/31 22/22/22 30/30/30
f 31/31/31 30/30/30 29/29/29
f 31/31/31 29/29/29 33/33/33
f 31/31/31 33/33/33 5/5/5
f 31/31/31 5/5/5 4/4/4
f 31/31/31 4/4/4 3/3/3
f 31/31/31 3/3/3 32/32/32
f 34/34/34 35/35/35 24/24/24
f 34/34/34 24/24/24 23/23/23
f 34/34/34 23/23/23 22/22/22
f 34/34/34 22/22/22 32/32/32
f 34/34/34 32/32/32 3/3/3
f 34/34/34 3/3/3 13/13/13
f 34/34/34 13/13/13 12/12/12
f 34/34/34 12/12/12 35/35/35
f 36/36/36 37/37/37 38/38/38
f 36/36/36 38/38/38 39/39/39
f 36/36/36 39/39/39 40/40/40
f 36/36/36 40/40/40 41/41/41
f 36/36/36 41/41/41 20/20/20
f 36/36/36 20/20/20 19/19/19
f 36/36/36 19/19/19 18/18/18
f 36/36/36 18/18/18 37/37/37
f 42/42/42 41/41/41 40/40/40
f 42/42/42 40/40/40 43/43/43
f 42/42/42 43/43/43 44/44/44
f 42/42/42 44/44/44 45/45/45
f 42/42/42 45/45/45 27/27/27
f 42/42/42 27/27/27 26/26/26
f 42/42/42 26/26/26 20/20/20
f 42/42/42 20/20/20 41/41/41
f 46/46/46 47/47/47 48/48/48
f 46/46/46 48/48/48 49/49/49
f 46/46/46 49/49/49 50/50/50
f 46/46/46 50/50/50 51/51/51
f 46/46/46 51/51/51 52/52/52
f 46/46/46 52/52/52 53/53/53
f 46/46/46 53/53/53 54/54/54
f 46/46/46 54/54/54 47/47/47
f 55/55/55 56/56/56 57/57/57
f 55/55/55 57/57/57 58/58/58
f 55/55/55 58/58/58 48/48/48
f 55/55/55 48/48/48 47/47/47
f 55/55/55 47/47/47 54/54/54
f 55/55/55 54/54/54 59/59/59
f 55/55/55 59/59/59 60/60/60
f 55/55/55 60/60/60 56/56/56
f 61/61/61 62/62/62 63/63/63
f 61/61/61 63/63/63 64/64/64
f 61/61/61 64/64/64 65/65/65
f 61/61/61 65/65/65 66/66/66
f 61/61/61 66/66/66 67/67/67
f 61/61/61 67/67/67 68/68/68
f 61/61/61 68/68/68 69/69/69
f 61/61/61 69/69/69 62/62/62
f 70/70/70 66/66/66 65/65/65
f 70/70/70 65/65/65 71/71/71
f 70/70/70 71/71/71 72/72/72
f 70/70/70 72/72/72 73/73/73
f 70/70/70 73/73/73 74/74/74
f 70/70/70 74/74/74 75/75/75
f 70/70/70 75/75/75 67/67/67
f 70/70/70 67/67/67 66/66/66
f 76/76/76 77/77/77 54/54/54
f 76/76/76 54/54/54 53/53/53
f 76/76/76 53/53/53 52/52/52
f 76/76/76 52/52/52 78/78/78
f 76/76/76 78/78/78 72/72/72
f 76/76/76 72/72/72 71/71/71
f 76/76/76 71/71/71 65/65/65
f 76/76/76 65/65/65 77/77/77
f 79/79/79 80/80/80 60/60/60
f 79/79/79 60/60/60 59/59/59
f 79/79/79 59/59/59 54/54/54
f 79/79/79 54/54/54 77/77/77
f 79/79/79 77/77/77 65/65/65
f 79/79/79 65/65/65 64/64/64
f 79/79/79 64/64/64 63/63/63
f 79/79/79 63/63/63 80/80/80
f 81/81/81 82/82/82 69/69/69
f 81/81/81 69/69/69 68/68/68
f 81/81/81 68/68/68 67/67/67
f 81/81/81 67/67/67 83/83/83
f 81/81/81 83/83/83 84/84/84
f 81/81/81 84/84/84 85/85/85
f 81/81/81 85/85/85 86/86/86
f 81/81/81 86/86/86 82/82/82
f 87/87/87 83/83/83 67/67/67
f 87/87/87 67/67/67 75/75/75
f 87/87/87 75/75/75 74/74/74
f 87/87/87 74/74/74 88/88/88
f 87/87/87 88/88/88 89/89/89
f 87/87/87 89/89/89 90/90/90
f 87/87/87 90/90/90 84/84/84
f 87/87/87 84/84/84 83/83/83
f 91/91/91 92/92/92 38/38/38
f 91/91/91 38/38/38 37/37/37
f 91/91/91 37/37/37 18/18/18
f 91/91/91 18/18/18 93/93/93
f 91/91/91 93/93/93 69/69/69
f 91/91/91 69/69/69 82/82/82
f 91/91/91 82/82/82 94/94/94
f 91/91/91 94/94/94 92/92/92
f 95/95/95 96/96/96 44/44/44
f 95/95/95 44/44/44 43/43/43
f 95/95/95 43/43/43 40/40/40
f 95/95/95 40/40/40 97/97/97
f 95/95/95 97/97/97 84/84/84
f 95/95/95 84/84/84 90/90/90
f 95/95/95 90/90/90 98/98/98
f 95/95/95 98/98/98 96/96/96
f 99/99/99 100/100/100 7/7/7
f 99/99/99 7/7/7 6/6/6
f 99/99/99 6/6/6 5/5/5
f 99/99/99 5/5/5 101/101/101
f 99/99/99 101/101/101 52/52/52
f 99/99/99 52/52/52 51/51/51
f 99/99/99 51/51/51 102/102/102
f 99/99/99 102/102/102 100/100/100
f 103/103/103 104/104/104 15/15/15
f 103/103/103 15/15/15 14/14/14
f 103/103/103 14/14/14 9/9/9
f 103/103/103 9/9/9 105/105/105
f 103/103/103 105/105/105 48/48/48
f 103/103/103 48/48/48 58/58/58
f 103/103/103 58/58/58 106/106/106
f 103/103/103 106/106/106 104/104/104
f 107/107/107 108/108/108 12/12/12
f 107/107/107 12/12/12 11/11/11
f 107/107/107 11/11/11 15/15/15
f 107/107/107 15/15/15 104/104/104
f 107/107/107 104/104/104 106/106/106
f 107/107/107 106/106/106 56/56/56
f 107/107/107 56/56/56 60/60/60
f 107/107/107 60/60/60 108/108/108
f 109/109/109 97/97/97 40/40/40
f 109/109/109 40/40/40 39/39/39
f 109/109/109 39/39/39 38/38/38
f 109/109/109 38/38/38 92/92/92
f 109/109/109 92/92/92 94/94/94
f 109/109/109 94/94/94 85/85/85
f 109/109/109 85/85/85 84/84/84
f 109/109/109 84/84/84 97/97/97
f 110/110/110 111/111/111 27/27/27
f 110/110/110 27/27/27 45/45/45
f 110/110/110 45/45/45 44/44/44
f 110/110/110 44/44/44 96/96/96
f 110/110/110 96/96/96 98/98/98
f 110/110/110 98/98/98 88/88/88
f 110/110/110 88/88/88 74/74/74
f 110/110/110 74/74/74 111/111/111
f 112/112/112 105/105/105 9/9/9
f 112/112/112 9/9/9 8/8/8
f 112/112/112 8/8/8 7/7/7
f 112/112/112 7/7/7 100/100/100
f 112/112/112 100/100/100 102/102/102
f 112/112/112 102/102/102 49/49/49
f 112/112/112 49/49/49 48/48/48
f 112/112/112 48/48/48 105/105/105
f 113/113/113 101/101/101 5/5/5
f 113/113/113 5/5/5 33/33/33
f 113/113/113 33/33/33 29/29/29
f 113/113/113 29/29/29 114/114/114
f 113/113/113 114/114/114 72/72/72
f 113/113/113 72/72/72 78/78/78
f 113/113/113 78/78/78 52/52/52
f 113/113/113 52/52/52 101/101/101
f 115/115/115 116/116/116 24/24/24
f 115/115/115 24/24/24 35/35/35
f 115/115/115 35/35/35 12/12/12
f 115/115/115 12/12/12 108/108/108
f 115/115/115 108/108/108 60/60/60
f 115/115/115 60/60/60 80/80/80
f 115/115/115 80/80/80 63/63/63
f 115/115/115 63/63/63 116/116/116
f 117/117/117 93/93/93 18/18/18
f 117/117/117 18/18/18 17/17/17
f 117/117/117 17/17/17 24/24/24
f 117/117/117 24/24/24 116/116/116
f 117/117/117 116/116/116 63/63/63
f 117/117/117 63/63/63 62/62/62
f 117/117/117 62/62/62 69/69/69
f 117/117/117 69/69/69 93/93/93
f 118/118/118 114/114/114 29/29/29
f 118/118/118 29/29/29 28/28/28
f 118/118/118 28/28/28 27/27/27
f 118/118/118 27/27/27 111/111/111
f 118/118/118 111/111/111 74/74/74
f 118/118/118 74/74/74 73/73/73
f 118/118/118 73/73/73 72/72/72
f 118/118/118 72/72/72 114/114/114
