v -2.408247 0.558452 -1.144376
v -2.408174 0.558974 -1.142864
v -2.409342 0.559184 -1.143305
v -2.40978 0.558906 -1.14446
v -2.409451 0.5584 -1.145573
v -2.408319 0.557929 -1.145888
v -2.407151 0.557719 -1.145448
v -2.406713 0.557997 -1.144293
v -2.407042 0.558503 -1.143179
v -2.372577 0.633205 -1.178388
v -2.371406 0.633063 -1.177962
v -2.380043 0.618164 -1.169786
v -2.381193 0.618362 -1.170237
v -2.382294 0.618808 -1.169938
v -2.373711 0.633575 -1.178053
v -2.365129 0.648342 -1.186167
v -2.363961 0.648048 -1.18654
v -2.362768 0.647961 -1.186139
v -2.394756 0.588145 -1.158063
v -2.393597 0.587942 -1.157617
v -2.395873 0.588604 -1.157756
v -2.393154 0.588213 -1.156464
v -2.39347 0.588706 -1.155357
v -2.379596 0.618429 -1.168635
v -2.379899 0.618908 -1.167535
v -2.394587 0.589164 -1.15505
v -2.395746 0.589368 -1.155496
v -2.381001 0.619354 -1.167235
v -2.38215 0.619552 -1.167686
v -2.396189 0.589096 -1.156649
v -2.382597 0.619287 -1.168838
v -2.370966 0.633318 -1.176804
v -2.371296 0.633744 -1.175676
v -2.362337 0.648206 -1.184973
v -2.362693 0.64858 -1.183817
v -2.372431 0.634116 -1.17534
v -2.373601 0.63426 -1.175767
v -2.36386 0.648878 -1.183445
v -2.365052 0.648967 -1.183847
v -2.374041 0.634003 -1.176925
v -2.365484 0.648719 -1.185012
v -2.338516 0.692048 -1.20832
v -2.337324 0.691893 -1.207903
v -2.34533 0.676978 -1.201153
v -2.346537 0.67709 -1.201553
v -2.34773 0.677404 -1.201174
v -2.339685 0.692431 -1.207967
v -2.331903 0.707656 -1.214475
v -2.330771 0.707181 -1.21479
v -2.329602 0.706969 -1.214349
v -2.336896 0.692143 -1.206738
v -2.337255 0.692574 -1.205593
v -2.345286 0.677585 -1.198816
v -2.344908 0.67721 -1.199981
v -2.329165 0.707249 -1.213194
v -2.329494 0.707758 -1.212082
v -2.338425 0.692958 -1.20524
v -2.339617 0.693114 -1.205656
v -2.347685 0.678014 -1.198835
v -2.346478 0.677901 -1.198436
v -2.330626 0.708233 -1.211767
v -2.331795 0.708445 -1.212208
v -2.340045 0.692862 -1.206822
v -2.348108 0.67778 -1.200008
v -2.332232 0.708165 -1.213362
v -2.324693 0.724883 -1.221821
v -2.323524 0.724672 -1.22138
v -2.325825 0.725357 -1.221506
v -2.319747 0.743057 -1.228537
v -2.318615 0.742586 -1.228852
v -2.317446 0.742376 -1.228412
v -2.323087 0.724952 -1.220226
v -2.323416 0.725459 -1.219113
v -2.317008 0.742654 -1.227257
v -2.317338 0.74316 -1.226143
v -2.324548 0.725932 -1.218797
v -2.325716 0.726143 -1.219238
v -2.31847 0.743631 -1.225828
v -2.319638 0.743841 -1.226268
v -2.326154 0.725864 -1.220393
v -2.320076 0.743563 -1.227423
v -2.355111 0.662482 -1.194194
v -2.353907 0.662389 -1.193797
v -2.356298 0.662774 -1.193812
v -2.353482 0.662622 -1.192627
v -2.353855 0.662985 -1.191461
v -2.355042 0.66328 -1.191079
v -2.356246 0.663375 -1.191476
v -2.356671 0.663139 -1.192647
vn -0.2847 -0.9017 0.3252
vn -0.1626 -0.3097 0.9368
vn -0.6994 -0.1732 0.6934
vn -0.936 -0.3128 0.1611
vn -0.7533 -0.553 -0.3559
vn -0.2339 -0.8315 -0.5038
vn 0.2932 -0.9163 -0.2729
vn 0.5062 -0.8218 0.2613
vn 0.3496 -0.5443 0.7625
vn -0.0714 -0.4479 -0.8912
vn 0.5663 -0.6239 -0.5385
vn 0.5911 -0.574 -0.5666
vn -0.0666 -0.3983 -0.9148
vn -0.7062 0.0315 -0.7073
vn -0.6985 0.0129 -0.7154
vn -0.6948 0.0264 -0.7187
vn -0.0714 -0.4392 -0.8955
vn 0.5624 -0.6268 -0.5393
vn -0.0484 -0.3544 -0.9338
vn 0.6146 -0.516 -0.5966
vn -0.6933 0.0213 -0.7203
vn 0.921 -0.3814 0.0793
vn 0.6932 -0.0209 0.7204
vn 0.9037 -0.4171 0.097
vn 0.686 -0.0028 0.7276
vn 0.0486 0.355 0.9336
vn -0.6139 0.5172 0.5962
vn 0.0519 0.4059 0.9124
vn -0.5906 0.5696 0.5716
vn -0.9207 0.3821 -0.08
vn -0.9019 0.4244 -0.0797
vn 0.8836 -0.4573 0.1002
vn 0.6986 -0.0125 0.7153
vn 0.8769 -0.4695 0.1025
vn 0.6943 -0.0262 0.7192
vn 0.0715 0.4479 0.8912
vn -0.5658 0.6246 0.5383
vn 0.0676 0.4433 0.8938
vn -0.5679 0.6266 0.5336
vn -0.8832 0.4578 -0.1011
vn -0.8786 0.4657 -0.1054
vn -0.0599 -0.3757 -0.9248
vn 0.5921 -0.563 -0.5766
vn 0.5789 -0.5909 -0.5618
vn -0.0631 -0.4016 -0.9136
vn -0.6845 0.033 -0.7282
vn -0.6841 0.0365 -0.7285
vn -0.6893 -0.0065 -0.7244
vn -0.0445 -0.3653 -0.9298
vn 0.6249 -0.5086 -0.5923
vn 0.8987 -0.4271 0.0991
vn 0.6878 -0.0425 0.7247
vn 0.6914 -0.0467 0.7209
vn 0.8874 -0.45 0.1003
vn 0.9291 -0.3613 0.0785
vn 0.7071 -0.0103 0.707
vn 0.0634 0.3734 0.9255
vn -0.5922 0.5634 0.576
vn -0.5786 0.5933 0.5596
vn 0.0695 0.3972 0.9151
vn 0.0688 0.3536 0.9328
vn -0.6083 0.5097 0.6084
vn -0.8993 0.4253 -0.102
vn -0.8882 0.447 -0.106
vn -0.9287 0.3617 -0.082
vn -0.0538 -0.3525 -0.9342
vn 0.6344 -0.4635 -0.6186
vn -0.7105 -0.0351 -0.7028
vn -0.704 -0.0398 -0.709
vn -0.0496 -0.3539 -0.9339
vn 0.6333 -0.4636 -0.6197
vn 0.9511 -0.3029 0.0595
vn 0.7105 0.0352 0.7027
vn 0.9508 -0.3051 0.0538
vn 0.7171 0.0304 0.6963
vn 0.0539 0.3526 0.9342
vn -0.6344 0.4635 0.6185
vn 0.058 0.3513 0.9344
vn -0.6354 0.4635 0.6175
vn -0.9511 0.3029 -0.0595
vn -0.9514 0.3009 -0.0649
vn -0.067 -0.4265 -0.902
vn 0.5664 -0.6197 -0.5433
vn -0.6878 0.0356 -0.725
vn 0.8756 -0.4714 0.1052
vn 0.6913 -0.0438 0.7212
vn 0.0706 0.4237 0.903
vn -0.5669 0.6204 0.542
vn -0.8766 0.4691 -0.1077
vt 0.000000 0.000000
vt 0.000000 0.000000
vt 0.000000 0.000000
vt 0.000000 0.000000
vt 0.000000 0.000000
vt 0.000000 0.000000
vt 0.000000 0.000000
vt 0.000000 0.000000
vt 0.000000 0.000000
vt 0.000000 0.000000
vt 0.000000 0.000000
vt 0.000000 0.000000
vt 0.000000 0.000000
vt 0.000000 0.000000
vt 0.000000 0.000000
vt 0.000000 0.000000
vt 0.000000 0.000000
vt 0.000000 0.000000
vt 0.000000 0.000000
vt 0.000000 0.000000
vt 0.000000 0.000000
vt 0.000000 0.000000
vt 0.000000 0.000000
vt 0.000000 0.000000
vt 0.000000 0.000000
vt 0.000000 0.000000
vt 0.000000 0.000000
vt 0.000000 0.000000
vt 0.000000 0.000000
vt 0.000000 0.000000
vt 0.000000 0.000000
vt 0.000000 0.000000
vt 0.000000 0.000000
vt 0.000000 0.000000
vt 0.000000 0.000000
vt 0.000000 0.000000
vt 0.000000 0.000000
vt 0.000000 0.000000
vt 0.000000 0.000000
vt 0.000000 0.000000
vt 0.000000 0.000000
vt 0.000000 0.000000
vt 0.000000 0.000000
vt 0.000000 0.000000
vt 0.000000 0.000000
vt 0.000000 0.000000
vt 0.000000 0.000000
vt 0.000000 0.000000
vt 0.000000 0.000000
vt 0.000000 0.000000
vt 0.000000 0.000000
vt 0.000000 0.000000
vt 0.000000 0.000000
vt 0.000000 0.000000
vt 0.000000 0.000000
vt 0.000000 0.000000
vt 0.000000 0.000000
vt 0.000000 0.000000
vt 0.000000 0.000000
vt 0.000000 0.000000
vt 0.000000 0.000000
vt 0.000000 0.000000
vt 0.000000 0.000000
vt 0.000000 0.000000
vt 0.000000 0.000000
vt 0.000000 0.000000
vt 0.000000 0.000000
vt 0.000000 0.000000
vt 0.000000 0.000000
vt 0.000000 0.000000
vt 0.000000 0.000000
vt 0.000000 0.000000
vt 0.000000 0.000000
vt 0.000000 0.000000
vt 0.000000 0.000000
vt 0.000000 0.000000
vt 0.000000 0.000000
vt 0.000000 0.000000
vt 0.000000 0.000000
vt 0.000000 0.000000
vt 0.000000 0.000000
vt 0.000000 0.000000
vt 0.000000 0.000000
vt 0.000000 0.000000
vt 0.000000 0.000000
vt 0.000000 0.000000
vt 0.000000 0.000000
vt 0.000000 0.000000
vt 0.000000 0.000000
f 1/1/1 2/2/2 3/3/3
f 1/1/1 3/3/3 4/4/4
f 1/1/1 4/4/4 5/5/5
f 1/1/1 5/5/5 6/6/6
f 1/1/1 6/6/6 7/7/7
f 1/1/1 7/7/7 8/8/8
f 1/1/1 8/8/8 9/9/9
f 1/1/1 9/9/9 2/2/2
f 10/10/10 11/11/11 12/12/12
f 10/10/10 12/12/12 13/13/13
f 10/10/10 13/13/13 14/14/14
f 10/10/10 14/14/14 15/15/15
f 10/10/10 15/15/15 16/16/16
f 10/10/10 16/16/16 17/17/17
f 10/10/10 17/17/17 18/18/18
f 10/10/10 18/18/18 11/11/11
f 19/19/19 20/20/20 7/7/7
f 19/19/19 7/7/7 6/6/6
f 19/19/19 6/6/6 5/5/5
f 19/19/19 5/5/5 21/21/21
f 19/19/19 21/21/21 14/14/14
f 19/19/19 14/14/14 13/13/13
f 19/19/19 13/13/13 12/12/12
f 19/19/19 12/12/12 20/20/20
f 22/22/22 23/23/23 9/9/9
f 22/22/22 9/9/9 8/8/8
f 22/22/22 8/8/8 7/7/7
f 22/22/22 7/7/7 20/20/20
f 22/22/22 20/20/20 12/12/12
f 22/22/22 12/12/12 24/24/24
f 22/22/22 24/24/24 25/25/25
f 22/22/22 25/25/25 23/23/23
f 26/26/26 27/27/27 3/3/3
f 26/26/26 3/3/3 2/2/2
f 26/26/26 2/2/2 9/9/9
f 26/26/26 9/9/9 23/23/23
f 26/26/26 23/23/23 25/25/25
f 26/26/26 25/25/25 28/28/28
f 26/26/26 28/28/28 29/29/29
f 26/26/26 29/29/29 27/27/27
f 30/30/30 21/21/21 5/5/5
f 30/30/30 5/5/5 4/4/4
f 30/30/30 4/4/4 3/3/3
f 30/30/30 3/3/3 27/27/27
f 30/30/30 27/27/27 29/29/29
f 30/30/30 29/29/29 31/31/31
f 30/30/30 31/31/31 14/14/14
f 30/30/30 14/14/14 21/21/21
f 32/32/32 33/33/33 25/25/25
f 32/32/32 25/25/25 24/24/24
f 32/32/32 24/24/24 12/12/12
f 32/32/32 12/12/12 11/11/11
f 32/32/32 11/11/11 18/18/18
f 32/32/32 18/18/18 34/34/34
f 32/32/32 34/34/34 35/35/35
f 32/32/32 35/35/35 33/33/33
f 36/36/36 37/37/37 29/29/29
f 36/36/36 29/29/29 28/28/28
f 36/36/36 28/28/28 25/25/25
f 36/36/36 25/25/25 33/33/33
f 36/36/36 33/33/33 35/35/35
f 36/36/36 35/35/35 38/38/38
f 36/36/36 38/38/38 39/39/39
f 36/36/36 39/39/39 37/37/37
f 40/40/40 15/15/15 14/14/14
f 40/40/40 14/14/14 31/31/31
f 40/40/40 31/31/31 29/29/29
f 40/40/40 29/29/29 37/37/37
f 40/40/40 37/37/37 39/39/39
f 40/40/40 39/39/39 41/41/41
f 40/40/40 41/41/41 16/16/16
f 40/40/40 16/16/16 15/15/15
f 42/42/42 43/43/43 44/44/44
f 42/42/42 44/44/44 45/45/45
f 42/42/42 45/45/45 46/46/46
f 42/42/42 46/46/46 47/47/47
f 42/42/42 47/47/47 48/48/48
f 42/42/42 48/48/48 49/49/49
f 42/42/42 49/49/49 50/50/50
f 42/42/42 50/50/50 43/43/43
f 51/51/51 52/52/52 53/53/53
f 51/51/51 53/53/53 54/54/54
f 51/51/51 54/54/54 44/44/44
f 51/51/51 44/44/44 43/43/43
f 51/51/51 43/43/43 50/50/50
f 51/51/51 50/50/50 55/55/55
f 51/51/51 55/55/55 56/56/56
f 51/51/51 56/56/56 52/52/52
f 57/57/57 58/58/58 59/59/59
f 57/57/57 59/59/59 60/60/60
f 57/57/57 60/60/60 53/53/53
f 57/57/57 53/53/53 52/52/52
f 57/57/57 52/52/52 56/56/56
f 57/57/57 56/56/56 61/61/61
f 57/57/57 61/61/61 62/62/62
f 57/57/57 62/62/62 58/58/58
f 63/63/63 47/47/47 46/46/46
f 63/63/63 46/46/46 64/64/64
f 63/63/63 64/64/64 59/59/59
f 63/63/63 59/59/59 58/58/58
f 63/63/63 58/58/58 62/62/62
f 63/63/63 62/62/62 65/65/65
f 63/63/63 65/65/65 48/48/48
f 63/63/63 48/48/48 47/47/47
f 66/66/66 67/67/67 50/50/50
f 66/66/66 50/50/50 49/49/49
f 66/66/66 49/49/49 48/48/48
f 66/66/66 48/48/48 68/68/68
f 66/66/66 68/68/68 69/69/69
f 66/66/66 69/69/69 70/70/70
f 66/66/66 70/70/70 71/71/71
f 66/66/66 71/71/71 67/67/67
f 72/72/72 73/73/73 56/56/56
f 72/72/72 56/56/56 55/55/55
f 72/72/72 55/55/55 50/50/50
f 72/72/72 50/50/50 67/67/67
f 72/72/72 67/67/67 71/71/71
f 72/72/72 71/71/71 74/74/74
f 72/72/72 74/74/74 75/75/75
f 72/72/72 75/75/75 73/73/73
f 76/76/76 77/77/77 62/62/62
f 76/76/76 62/62/62 61/61/61
f 76/76/76 61/61/61 56/56/56
f 76/76/76 56/56/56 73/73/73
f 76/76/76 73/73/73 75/75/75
f 76/76/76 75/75/75 78/78/78
f 76/76/76 78/78/78 79/79/79
f 76/76/76 79/79/79 77/77/77
f 80/80/80 68/68/68 48/48/48
f 80/80/80 48/48/48 65/65/65
f 80/80/80 65/65/65 62/62/62
f 80/80/80 62/62/62 77/77/77
f 80/80/80 77/77/77 79/79/79
f 80/80/80 79/79/79 81/81/81
f 80/80/80 81/81/81 69/69/69
f 80/80/80 69/69/69 68/68/68
f 82/82/82 83/83/83 18/18/18
f 82/82/82 18/18/18 17/17/17
f 82/82/82 17/17/17 16/16/16
f 82/82/82 16/16/16 84/84/84
f 82/82/82 84/84/84 46/46/46
f 82/82/82 46/46/46 45/45/45
f 82/82/82 45/45/45 44/44/44
f 82/82/82 44/44/44 83/83/83
f 85/85/85 86/86/86 35/35/35
f 85/85/85 35/35/35 34/34/34
f 85/85/85 34/34/34 18/18/18
f 85/85/85 18/18/18 83/83/83
f 85/85/85 83/83/83 44/44/44
f 85/85/85 44/44/44 54/54/54
f 85/85/85 54/54/54 53/53/53
f 85/85/85 53/53/53 86/86/86
f 87/87/87 88/88/88 39/39/39
f 87/87/87 39/39/39 38/38/38
f 87/87/87 38/38/38 35/35/35
f 87/87/87 35/35/35 86/86/86
f 87/87/87 86/86/86 53/53/53
f 87/87/87 53/53/53 60/60/60
f 87/87/87 60/60/60 59/59/59
f 87/87/87 59/59/59 88/88/88
f 89/89/89 84/84/84 16/16/16
f 89/89/89 16/16/16 41/41/41
f 89/89/89 41/41/41 39/39/39
f 89/89/89 39/39/39 88/88/88
f 89/89/89 88/88/88 59/59/59
f 89/89/89 59/59/59 64/64/64
f 89/89/89 64/64/64 46/46/46
f 89/89/89 46/46/46 84/84/84
