v -2.445 0.766339 -1.11773
v -2.447215 0.766349 -1.11755
v -2.446437 0.764569 -1.115319
v -2.444019 0.764705 -1.115805
v -2.442119 0.764894 -1.115946
v -2.443197 0.766308 -1.117484
v -2.444294 0.767003 -1.11845
v -2.445796 0.767403 -1.119133
v -2.447805 0.767571 -1.119243
v -2.449055 0.766353 -1.116305
v -2.450308 0.766333 -1.114986
v -2.450197 0.764922 -1.113108
v -2.448627 0.764721 -1.114186
v -2.449306 0.767415 -1.1179
v -2.450053 0.767023 -1.116427
v -2.446512 0.757938 -1.108245
v -2.448142 0.758072 -1.107457
v -2.447114 0.755446 -1.105967
v -2.445676 0.755322 -1.106676
v -2.443727 0.755225 -1.107513
v -2.444304 0.757834 -1.10918
v -2.444937 0.760303 -1.111006
v -2.447241 0.760427 -1.110013
v -2.448938 0.760589 -1.109164
v -2.441996 0.757922 -1.109832
v -2.441683 0.755308 -1.108079
v -2.440116 0.755422 -1.108425
v -2.44023 0.758044 -1.110237
v -2.440661 0.76056 -1.112072
v -2.442517 0.76041 -1.111673
v -2.443191 0.7627 -1.113725
v -2.445663 0.762551 -1.113095
v -2.441282 0.76291 -1.114058
v -2.447984 0.762717 -1.112041
v -2.449681 0.76294 -1.111107
v -2.444614 0.75265 -1.105246
v -2.445674 0.75277 -1.104674
v -2.444619 0.751221 -1.104137
v -2.443743 0.750609 -1.104247
v -2.442769 0.750518 -1.104739
v -2.443171 0.752557 -1.105903
v -2.441633 0.75264 -1.106293
v -2.441701 0.750602 -1.104964
v -2.440945 0.751209 -1.105428
v -2.440448 0.752751 -1.10651
v -2.445019 0.766161 -1.117877
v -2.447264 0.766168 -1.117688
v -2.447841 0.767433 -1.119344
v -2.445807 0.767267 -1.119242
v -2.444296 0.766904 -1.118533
v -2.443195 0.766176 -1.117599
v -2.442123 0.764766 -1.116065
v -2.444043 0.764532 -1.115958
v -2.446489 0.764395 -1.115464
v -2.449134 0.766175 -1.116431
v -2.450382 0.766201 -1.115074
v -2.450104 0.766924 -1.116493
v -2.449365 0.76728 -1.117991
v -2.448705 0.764548 -1.11432
v -2.450269 0.764794 -1.113203
v -2.446592 0.757796 -1.108412
v -2.448212 0.757966 -1.107578
v -2.449007 0.760475 -1.109278
v -2.44732 0.760275 -1.110171
v -2.444996 0.76015 -1.111172
v -2.444366 0.757691 -1.109354
v -2.443791 0.75509 -1.107693
v -2.445759 0.755187 -1.106848
v -2.447186 0.755346 -1.106092
v -2.442038 0.75778 -1.110012
v -2.442555 0.760258 -1.111845
v -2.440679 0.760446 -1.112204
v -2.440251 0.757938 -1.110375
v -2.440139 0.755321 -1.108567
v -2.441726 0.755173 -1.108265
v -2.443223 0.762537 -1.113887
v -2.445718 0.762386 -1.11325
v -2.441293 0.762789 -1.114184
v -2.448062 0.762554 -1.112187
v -2.449752 0.762818 -1.111212
v -2.444699 0.752519 -1.105419
v -2.445747 0.752672 -1.104799
v -2.443235 0.752425 -1.106084
v -2.442817 0.750419 -1.104875
v -2.443807 0.750511 -1.104377
v -2.444671 0.751149 -1.104231
v -2.441677 0.752508 -1.106481
v -2.44047 0.752653 -1.106654
v -2.440963 0.751136 -1.105534
v -2.441732 0.750504 -1.105106
v -2.446062 0.752766 -1.104538
v -2.444516 0.750695 -1.103827
v -2.447628 0.755443 -1.105785
v -2.444671 0.751149 -1.104231
v -2.441737 0.749879 -1.104584
v -2.440834 0.750682 -1.10512
v -2.442656 0.749795 -1.104411
v -2.440963 0.751136 -1.105534
v -2.442592 0.76624 -1.117455
v -2.444082 0.767115 -1.118603
v -2.441484 0.7649 -1.116047
v -2.444296 0.766904 -1.118533
v -2.449416 0.767708 -1.118472
v -2.450313 0.767137 -1.116414
v -2.448018 0.767917 -1.119851
v -2.450104 0.766924 -1.116493
v -2.450763 0.766268 -1.114584
v -2.450755 0.764932 -1.11279
v -2.443481 0.749885 -1.103971
v -2.44006 0.752745 -1.106647
v -2.439602 0.755415 -1.108605
v -2.446065 0.767697 -1.119649
v -2.440648 0.762927 -1.114226
v -2.440048 0.760559 -1.112264
v -2.450281 0.76296 -1.110842
v -2.449536 0.760592 -1.108931
v -2.448719 0.758069 -1.107247
v -2.439649 0.758038 -1.110434
vn -0.0064 0.7786 0.6274
vn 0.1971 0.8096 0.5529
vn 0.2127 0.773 0.5977
vn 0.0316 0.7447 0.6666
vn 0.0471 0.7295 0.6824
vn 0.0016 0.7798 0.626
vn -0.0298 0.8119 0.583
vn 0.0075 0.8374 0.5465
vn 0.1713 0.8609 0.479
vn 0.4022 0.7772 0.4838
vn 0.3952 0.7785 0.4877
vn 0.3946 0.7283 0.5603
vn 0.3969 0.7434 0.5383
vn 0.3411 0.8363 0.4292
vn 0.3929 0.8105 0.4343
vn 0.3707 0.5849 0.7214
vn 0.3383 0.5802 0.7408
vn 0.3416 0.5538 0.7593
vn 0.3841 0.5572 0.7362
vn 0.2779 0.5531 0.7854
vn 0.2699 0.5881 0.7624
vn 0.2524 0.6551 0.7121
vn 0.3673 0.6438 0.6712
vn 0.3461 0.6325 0.6929
vn 0.1656 0.5857 0.7935
vn 0.1642 0.558 0.8134
vn 0.2119 0.5543 0.8049
vn 0.203 0.5806 0.7884
vn 0.1672 0.633 0.7558
vn 0.1372 0.6446 0.7521
vn 0.087 0.7043 0.7045
vn 0.2311 0.7235 0.6505
vn 0.1094 0.6872 0.7182
vn 0.3771 0.7033 0.6026
vn 0.368 0.6863 0.6273
vn 0.4098 0.5434 0.7326
vn 0.3656 0.5366 0.7605
vn 0.3975 0.5202 0.7558
vn 0.4391 0.4932 0.7509
vn 0.291 0.4876 0.8231
vn 0.2814 0.5362 0.7957
vn 0.1417 0.5444 0.8267
vn 0.13 0.4944 0.8594
vn 0.1656 0.5211 0.8373
vn 0.1936 0.5372 0.8209
vn 0.0272 -0.7592 -0.6503
vn -0.2015 -0.7998 -0.5654
vn -0.2178 -0.7599 -0.6124
vn 0.0912 -0.6967 -0.7115
vn 0.1967 -0.6428 -0.7403
vn 0.176 -0.6578 -0.7323
vn 0.1082 -0.6776 -0.7274
vn -0.0172 -0.7413 -0.6709
vn -0.2127 -0.7731 -0.5976
vn -0.4326 -0.7576 -0.4888
vn -0.5994 -0.6552 -0.4598
vn -0.6204 -0.6401 -0.453
vn -0.5205 -0.6945 -0.4966
vn -0.4108 -0.7399 -0.5327
vn -0.5435 -0.6754 -0.4984
vn -0.3851 -0.5848 -0.7139
vn -0.4822 -0.5804 -0.6561
vn -0.4813 -0.6203 -0.6193
vn -0.3808 -0.6428 -0.6646
vn -0.2525 -0.655 -0.7122
vn -0.2699 -0.5879 -0.7625
vn -0.2779 -0.553 -0.7855
vn -0.4005 -0.5587 -0.7262
vn -0.5038 -0.5749 -0.6447
vn -0.1496 -0.5856 -0.7967
vn -0.1225 -0.6437 -0.7554
vn -0.0156 -0.6219 -0.7829
vn -0.0377 -0.5819 -0.8123
vn -0.0137 -0.5766 -0.8169
vn -0.1452 -0.5596 -0.8159
vn -0.0728 -0.7026 -0.7078
vn -0.2311 -0.7235 -0.6505
vn 0.0388 -0.6628 -0.7478
vn -0.3902 -0.7015 -0.5963
vn -0.5021 -0.6609 -0.5577
vn -0.4291 -0.5577 -0.7105
vn -0.5418 -0.5935 -0.5951
vn -0.2793 -0.5465 -0.7895
vn -0.2694 -0.5905 -0.7607
vn -0.4783 -0.6063 -0.6352
vn -0.5619 -0.608 -0.5608
vn -0.1131 -0.5588 -0.8215
vn 0.0469 -0.5955 -0.802
vn 0.084 -0.6102 -0.7878
vn -0.0278 -0.6079 -0.7935
vn -0.7319 -0.1929 0.6535
vn -0.4402 -0.4605 0.7708
vn -0.8182 -0.0953 0.567
vn -0.5619 -0.608 -0.5608
vn 0.4079 -0.7912 0.4557
vn 0.8232 -0.4642 0.3268
vn 0.1447 -0.8956 0.4206
vn 0.084 -0.6102 -0.7878
vn 0.8258 0.45 -0.3398
vn 0.6055 0.6011 -0.5215
vn 0.9257 0.2968 -0.2345
vn 0.1967 -0.6428 -0.7403
vn -0.6779 0.5801 -0.4516
vn -0.7949 0.6059 -0.0297
vn -0.2795 0.5296 -0.8008
vn -0.6204 -0.6401 -0.453
vn -0.8541 0.4556 0.2506
vn -0.8671 0.303 0.3953
vn -0.0376 -0.7898 0.6122
vn 0.9787 -0.1986 0.0525
vn 0.9924 -0.1013 -0.0693
vn 0.25 0.5768 -0.7776
vn 0.9695 0.1675 -0.1787
vn 0.9839 0.0835 -0.1579
vn -0.8673 0.174 0.4664
vn -0.866 0.0901 0.4917
vn -0.8586 0.0067 0.5126
vn 0.9906 0.0001 -0.137
vt 0.839504 0.118056
vt 0.856743 0.205307
vt 0.741230 0.205307
vt 0.734555 0.106726
vt 0.724541 0.032791
vt 0.813647 0.052618
vt 0.868992 0.081539
vt 0.913398 0.129584
vt 0.940923 0.205307
vt 0.839504 0.292557
vt 0.813647 0.357995
vt 0.724541 0.377822
vt 0.734555 0.303887
vt 0.913398 0.281029
vt 0.868992 0.329074
vt 0.369475 0.299954
vt 0.368286 0.370940
vt 0.245840 0.351447
vt 0.246397 0.288815
vt 0.246768 0.205307
vt 0.370268 0.205307
vt 0.494283 0.205307
vt 0.492822 0.304944
vt 0.490632 0.379672
vt 0.369475 0.110659
vt 0.246397 0.121798
vt 0.245841 0.059166
vt 0.368286 0.039673
vt 0.490632 0.030941
vt 0.492822 0.105669
vt 0.616755 0.103478
vt 0.619174 0.205307
vt 0.613127 0.027106
vt 0.616755 0.307135
vt 0.613126 0.383507
vt 0.123273 0.268175
vt 0.123047 0.315326
vt 0.054743 0.283353
vt 0.030912 0.249131
vt 0.030973 0.205306
vt 0.123423 0.205306
vt 0.123273 0.142438
vt 0.030912 0.161481
vt 0.054744 0.127260
vt 0.123047 0.095287
vt 0.839504 0.118056
vt 0.856743 0.205307
vt 0.968983 0.205307
vt 0.938030 0.133427
vt 0.876123 0.061548
vt 0.805028 0.030806
vt 0.721203 0.008146
vt 0.734555 0.106726
vt 0.741230 0.205307
vt 0.839504 0.292557
vt 0.805028 0.379807
vt 0.876123 0.349065
vt 0.938030 0.277186
vt 0.734555 0.303887
vt 0.721203 0.402467
vt 0.369475 0.299954
vt 0.367890 0.394602
vt 0.489902 0.404581
vt 0.492822 0.304944
vt 0.494283 0.205307
vt 0.370268 0.205307
vt 0.246768 0.205307
vt 0.246397 0.288815
vt 0.245655 0.372324
vt 0.369475 0.110659
vt 0.492822 0.105669
vt 0.489902 0.006032
vt 0.367890 0.016011
vt 0.245655 0.038289
vt 0.246397 0.121798
vt 0.616755 0.103478
vt 0.619174 0.205307
vt 0.611917 0.001649
vt 0.616755 0.307135
vt 0.611917 0.408964
vt 0.123273 0.268175
vt 0.122972 0.331043
vt 0.123423 0.205306
vt 0.000156 0.205306
vt 0.000125 0.242784
vt 0.000064 0.280261
vt 0.123273 0.142438
vt 0.122972 0.079570
vt 0.000064 0.130352
vt 0.000125 0.167829
vt 0.122972 0.331043
vt 0.030806 0.283587
vt 0.245655 0.372324
vt 0.030806 0.283587
vt 0.000125 0.167829
vt 0.030806 0.127026
vt 0.000156 0.205306
vt 0.030806 0.127026
vt 0.805028 0.030806
vt 0.873826 0.071832
vt 0.721203 0.008146
vt 0.873826 0.071832
vt 0.938030 0.277186
vt 0.873826 0.338781
vt 0.968983 0.205307
vt 0.873826 0.338781
vt 0.805028 0.379807
vt 0.721203 0.402467
vt 0.000125 0.242784
vt 0.122972 0.079570
vt 0.245655 0.038289
vt 0.938030 0.133427
vt 0.611917 0.001649
vt 0.489902 0.006032
vt 0.611917 0.408964
vt 0.489902 0.404581
vt 0.367890 0.394602
vt 0.367890 0.016011
f 1/1/1 2/2/2 3/3/3
f 1/1/1 3/3/3 4/4/4
f 1/1/1 4/4/4 5/5/5
f 1/1/1 5/5/5 6/6/6
f 1/1/1 6/6/6 7/7/7
f 1/1/1 7/7/7 8/8/8
f 1/1/1 8/8/8 9/9/9
f 1/1/1 9/9/9 2/2/2
f 10/10/10 11/11/11 12/12/12
f 10/10/10 12/12/12 13/13/13
f 10/10/10 13/13/13 3/3/3
f 10/10/10 3/3/3 2/2/2
f 10/10/10 2/2/2 9/9/9
f 10/10/10 9/9/9 14/14/14
f 10/10/10 14/14/14 15/15/15
f 10/10/10 15/15/15 11/11/11
f 16/16/16 17/17/17 18/18/18
f 16/16/16 18/18/18 19/19/19
f 16/16/16 19/19/19 20/20/20
f 16/16/16 20/20/20 21/21/21
f 16/16/16 21/21/21 22/22/22
f 16/16/16 22/22/22 23/23/23
f 16/16/16 23/23/23 24/24/24
f 16/16/16 24/24/24 17/17/17
f 25/25/25 21/21/21 20/20/20
f 25/25/25 20/20/20 26/26/26
f 25/25/25 26/26/26 27/27/27
f 25/25/25 27/27/27 28/28/28
f 25/25/25 28/28/28 29/29/29
f 25/25/25 29/29/29 30/30/30
f 25/25/25 30/30/30 22/22/22
f 25/25/25 22/22/22 21/21/21
f 31/31/31 32/32/32 22/22/22
f 31/31/31 22/22/22 30/30/30
f 31/31/31 30/30/30 29/29/29
f 31/31/31 29/29/29 33/33/33
f 31/31/31 33/33/33 5/5/5
f 31/31/31 5/5/5 4/4/4
f 31/31/31 4/4/4 3/3/3
f 31/31/31 3/3/3 32/32/32
f 34/34/34 35/35/35 24/24/24
f 34/34/34 24/24/24 23/23/23
f 34/34/34 23/23/23 22/22/22
f 34/34/34 22/22/22 32/32/32
f 34/34/34 32/32/32 3/3/3
f 34/34/34 3/3/3 13/13/13
f 34/34/34 13/13/13 12/12/12
f 34/34/34 12/12/12 35/35/35
f 36/36/36 37/37/37 38/38/38
f 36/36/36 38/38/38 39/39/39
f 36/36/36 39/39/39 40/40/40
f 36/36/36 40/40/40 41/41/41
f 36/36/36 41/41/41 20/20/20
f 36/36/36 20/20/20 19/19/19
f 36/36/36 19/19/19 18/18/18
f 36/36/36 18/18/18 37/37/37
f 42/42/42 41/41/41 40/40/40
f 42/42/42 40/40/40 43/43/43
f 42/42/42 43/43/43 44/44/44
f 42/42/42 44/44/44 45/45/45
f 42/42/42 45/45/45 27/27/27
f 42/42/42 27/27/27 26/26/26
f 42/42/42 26/26/26 20/20/20
f 42/42/42 20/20/20 41/41/41
f 46/46/46 47/47/47 48/48/48
f 46/46/46 48/48/48 49/49/49
f 46/46/46 49/49/49 50/50/50
f 46/46/46 50/50/50 51/51/51
f 46/46/46 51/51/51 52/52/52
f 46/46/46 52/52/52 53/53/53
f 46/46/46 53/53/53 54/54/54
f 46/46/46 54/54/54 47/47/47
f 55/55/55 56/56/56 57/57/57
f 55/55/55 57/57/57 58/58/58
f 55/55/55 58/58/58 48/48/48
f 55/55/55 48/48/48 47/47/47
f 55/55/55 47/47/47 54/54/54
f 55/55/55 54/54/54 59/59/59
f 55/55/55 59/59/59 60/60/60
f 55/55/55 60/60/60 56/56/56
f 61/61/61 62/62/62 63/63/63
f 61/61/61 63/63/63 64/64/64
f 61/61/61 64/64/64 65/65/65
f 61/61/61 65/65/65 66/66/66
f 61/61/61 66/66/66 67/67/67
f 61/61/61 67/67/67 68/68/68
f 61/61/61 68/68/68 69/69/69
f 61/61/61 69/69/69 62/62/62
f 70/70/70 66/66/66 65/65/65
f 70/70/70 65/65/65 71/71/71
f 70/70/70 71/71/71 72/72/72
f 70/70/70 72/72/72 73/73/73
f 70/70/70 73/73/73 74/74/74
f 70/70/70 74/74/74 75/75/75
f 70/70/70 75/75/75 67/67/67
f 70/70/70 67/67/67 66/66/66
f 76/76/76 77/77/77 54/54/54
f 76/76/76 54/54/54 53/53/53
f 76/76/76 53/53/53 52/52/52
f 76/76/76 52/52/52 78/78/78
f 76/76/76 78/78/78 72/72/72
f 76/76/76 72/72/72 71/71/71
f 76/76/76 71/71/71 65/65/65
f 76/76/76 65/65/65 77/77/77
f 79/79/79 80/80/80 60/60/60
f 79/79/79 60/60/60 59/59/59
f 79/79/79 59/59/59 54/54/54
f 79/79/79 54/54/54 77/77/77
f 79/79/79 77/77/77 65/65/65
f 79/79/79 65/65/65 64/64/64
f 79/79/79 64/64/64 63/63/63
f 79/79/79 63/63/63 80/80/80
f 81/81/81 82/82/82 69/69/69
f 81/81/81 69/69/69 68/68/68
f 81/81/81 68/68/68 67/67/67
f 81/81/81 67/67/67 83/83/83
f 81/81/81 83/83/83 84/84/84
f 81/81/81 84/84/84 85/85/85
f 81/81/81 85/85/85 86/86/86
f 81/81/81 86/86/86 82/82/82
f 87/87/87 83/83/83 67/67/67
f 87/87/87 67/67/67 75/75/75
f 87/87/87 75/75/75 74/74/74
f 87/87/87 74/74/74 88/88/88
f 87/87/87 88/88/88 89/89/89
f 87/87/87 89/89/89 90/90/90
f 87/87/87 90/90/90 84/84/84
f 87/87/87 84/84/84 83/83/83
f 91/91/91 92/92/92 38/38/38
f 91/91/91 38/38/38 37/37/37
f 91/91/91 37/37/37 18/18/18
f 91/91/91 18/18/18 93/93/93
f 91/91/91 93/93/93 69/69/69
f 91/91/91 69/69/69 82/82/82
f 91/91/91 82/82/82 94/94/94
f 91/91/91 94/94/94 92/92/92
f 95/95/95 96/96/96 44/44/44
f 95/95/95 44/44/44 43/43/43
f 95/95/95 43/43/43 40/40/40
f 95/95/95 40/40/40 97/97/97
f 95/95/95 97/97/97 84/84/84
f 95/95/95 84/84/84 90/90/90
f 95/95/95 90/90/90 98/98/98
f 95/95/95 98/98/98 96/96/96
f 99/99/99 100/100/100 7/7/7
f 99/99/99 7/7/7 6/6/6
f 99/99/99 6/6/6 5/5/5
f 99/99/99 5/5/5 101/101/101
f 99/99/99 101/101/101 52/52/52
f 99/99/99 52/52/52 51/51/51
f 99/99/99 51/51/51 102/102/102
f 99/99/99 102/102/102 100/100/100
f 103/103/103 104/104/104 15/15/15
f 103/103/103 15/15/15 14/14/14
f 103/103/103 14/14/14 9/9/9
f 103/103/103 9/9/9 105/105/105
f 103/103/103 105/105/105 48/48/48
f 103/103/103 48/48/48 58/58/58
f 103/103/103 58/58/58 106/106/106
f 103/103/103 106/106/106 104/104/104
f 107/107/107 108/108/108 12/12/12
f 107/107/107 12/12/12 11/11/11
f 107/107/107 11/11/11 15/15/15
f 107/107/107 15/15/15 104/104/104
f 107/107/107 104/104/104 106/106/106
f 107/107/107 106/106/106 56/56/56
f 107/107/107 56/56/56 60/60/60
f 107/107/107 60/60/60 108/108/108
f 109/109/109 97/97/97 40/40/40
f 109/109/109 40/40/40 39/39/39
f 109/109/109 39/39/39 38/38/38
f 109/109/109 38/38/38 92/92/92
f 109/109/109 92/92/92 94/94/94
f 109/109/109 94/94/94 85/85/85
f 109/109/109 85/85/85 84/84/84
f 109/109/109 84/84/84 97/97/97
f 110/110/110 111/111/111 27/27/27
f 110/110/110 27/27/27 45/45/45
f 110/110/110 45/45/45 44/44/44
f 110/110/110 44/44/44 96/96/96
f 110/110/110 96/96/96 98/98/98
f 110/110/110 98/98/98 88/88/88
f 110/110/110 88/88/88 74/74/74
f 110/110/110 74/74/74 111/111/111
f 112/112/112 105/105/105 9/9/9
f 112/112/112 9/9/9 8/8/8
f 112/112/112 8/8/8 7/7/7
f 112/112/112 7/7/7 100/100/100
f 112/112/112 100/100/100 102/102/102
f 112/112/112 102/102/102 49/49/49
f 112/112/112 49/49/49 48/48/48
f 112/112/112 48/48/48 105/105/105
f 113/113/113 101/101/101 5/5/5
f 113/113/113 5/5/5 33/33/33
f 113/113/113 33/33/33 29/29/29
f 113/113/113 29/29/29 114/114/114
f 113/113/113 114/114/114 72/72/72
f 113/113/113 72/72/72 78/78/78
f 113/113/113 78/78/78 52/52/52
f 113/113/113 52/52/52 101/101/101
f 115/115/115 116/116/116 24/24/24
f 115/115/115 24/24/24 35/35/35
f 115/115/115 35/35/35 12/12/12
f 115/115/115 12/12/12 108/108/108
f 115/115/115 108/108/108 60/60/60
f 115/115/115 60/60/60 80/80/80
f 115/115/115 80/80/80 63/63/63
f 115/115/115 63/63/63 116/116/116
f 117/117/117 93/93/93 18/18/18
f 117/117/117 18/18/18 17/17/17
f 117/117/117 17/17/17 24/24/24
f 117/117/117 24/24/24 116/116/116
f 117/117/117 116/116/116 63/63/63
f 117/117/117 63/63/63 62/62/62
f 117/117/117 62/62/62 69/69/69
f 117/117/117 69/69/69 93/93/93
f 118/118/118 114/114/114 29/29/29
f 118/118/118 29/29/29 28/28/28
f 118/118/118 28/28/28 27/27/27
f 118/118/118 27/27/27 111/111/111
f 118/118/118 111/111/111 74/74/74
f 118/118/118 74/74/74 73/73/73
f 118/118/118 73/73/73 72/72/72
f 118/118/118 72/72/72 114/114/114
