v -2.410103 0.750019 -1.185498
v -2.408427 0.750324 -1.186401
v -2.409333 0.748278 -1.187657
v -2.411106 0.748125 -1.186462
v -2.412589 0.748025 -1.185723
v -2.411581 0.749673 -1.185068
v -2.410578 0.75061 -1.184776
v -2.409281 0.751306 -1.184807
v -2.407712 0.75177 -1.185433
v -2.40737 0.750352 -1.188012
v -2.406789 0.750256 -1.189477
v -2.407146 0.748688 -1.190731
v -2.408 0.748504 -1.189319
v -2.406916 0.751594 -1.186983
v -2.406698 0.751083 -1.188346
v -2.410004 0.741352 -1.192381
v -2.408999 0.741549 -1.193578
v -2.40969 0.738913 -1.194055
v -2.410571 0.738738 -1.192988
v -2.411818 0.738534 -1.191648
v -2.411422 0.741123 -1.190875
v -2.410903 0.743637 -1.189977
v -2.409432 0.743886 -1.191565
v -2.408399 0.744103 -1.192836
v -2.413047 0.740982 -1.189582
v -2.413262 0.73841 -1.190512
v -2.414406 0.738339 -1.189717
v -2.414331 0.740899 -1.188673
v -2.413977 0.743424 -1.187705
v -2.412615 0.743498 -1.188637
v -2.411955 0.745915 -1.187553
v -2.410182 0.746036 -1.188877
v -2.413392 0.74587 -1.186662
v -2.408726 0.746309 -1.190524
v -2.407732 0.74656 -1.191869
v -2.411261 0.736071 -1.193401
v -2.410633 0.736213 -1.19423
v -2.411287 0.734661 -1.194088
v -2.411806 0.734043 -1.193622
v -2.412398 0.733921 -1.192889
v -2.412169 0.73591 -1.192377
v -2.41327 0.735826 -1.191553
v -2.413182 0.733876 -1.192356
v -2.413763 0.734359 -1.19181
v -2.414155 0.735784 -1.19099
v -2.410005 0.749904 -1.185366
v -2.408308 0.75021 -1.186286
v -2.407624 0.751682 -1.185348
v -2.40921 0.751217 -1.184708
v -2.41053 0.750545 -1.184699
v -2.411519 0.749586 -1.18496
v -2.412522 0.747943 -1.185614
v -2.411002 0.748017 -1.186327
v -2.409211 0.74817 -1.187538
v -2.407231 0.750242 -1.187917
v -2.406676 0.750176 -1.189416
v -2.406616 0.751022 -1.188299
v -2.406812 0.751509 -1.186914
v -2.40786 0.748399 -1.189218
v -2.407032 0.748612 -1.190665
v -2.409859 0.74128 -1.19226
v -2.408884 0.741496 -1.193493
v -2.408286 0.744043 -1.192756
v -2.409288 0.743804 -1.191449
v -2.410773 0.743553 -1.189847
v -2.41129 0.741049 -1.190741
v -2.411684 0.738467 -1.191511
v -2.410425 0.738673 -1.192864
v -2.409574 0.738866 -1.193969
v -2.412928 0.740906 -1.189436
v -2.412499 0.743412 -1.188494
v -2.413898 0.743359 -1.187592
v -2.414249 0.740842 -1.188558
v -2.414323 0.738287 -1.1896
v -2.413142 0.738342 -1.190364
v -2.411846 0.745818 -1.187414
v -2.410056 0.745939 -1.188752
v -2.413318 0.745797 -1.186551
v -2.408584 0.746215 -1.190415
v -2.407619 0.746491 -1.191795
v -2.411114 0.736009 -1.193276
v -2.410516 0.736168 -1.194144
v -2.412034 0.735846 -1.192239
v -2.412297 0.733874 -1.192786
v -2.411695 0.733998 -1.193529
v -2.411202 0.734628 -1.194023
v -2.41315 0.735761 -1.191403
v -2.414073 0.735735 -1.190871
v -2.4137 0.734323 -1.191724
v -2.413093 0.733827 -1.192243
v -2.41037 0.736241 -1.194469
v -2.411349 0.734145 -1.194229
v -2.409344 0.738951 -1.194374
v -2.411202 0.734628 -1.194023
v -2.413114 0.733204 -1.192573
v -2.41383 0.733843 -1.191946
v -2.412429 0.733237 -1.193014
v -2.4137 0.734323 -1.191724
v -2.412049 0.749519 -1.184875
v -2.410721 0.750702 -1.184597
v -2.413056 0.747955 -1.185427
v -2.41053 0.750545 -1.184699
v -2.406718 0.75197 -1.18661
v -2.406523 0.751214 -1.18846
v -2.407435 0.752212 -1.185072
v -2.406616 0.751022 -1.188299
v -2.406543 0.75019 -1.18994
v -2.406809 0.748716 -1.191174
v -2.411938 0.733348 -1.193655
v -2.414415 0.735748 -1.190748
v -2.414752 0.738292 -1.189398
v -2.408976 0.751695 -1.184532
v -2.41384 0.745822 -1.186314
v -2.414397 0.74337 -1.187343
v -2.407349 0.746613 -1.192287
v -2.408003 0.744149 -1.193226
v -2.408612 0.741591 -1.193941
v -2.414724 0.740846 -1.188317
vn -0.41 0.5994 -0.6874
vn -0.575 0.6111 -0.544
vn -0.5957 0.5629 -0.5729
vn -0.4497 0.5512 -0.7028
vn -0.4653 0.5302 -0.7087
vn -0.417 0.5994 -0.6832
vn -0.3815 0.6457 -0.6614
vn -0.4087 0.6721 -0.6174
vn -0.5385 0.682 -0.4949
vn -0.7275 0.5607 -0.3954
vn -0.7229 0.5621 -0.4018
vn -0.7354 0.4973 -0.4602
vn -0.7334 0.5166 -0.4418
vn -0.6678 0.6406 -0.3789
vn -0.71 0.6057 -0.3592
vn -0.7349 0.3267 -0.5943
vn -0.7114 0.3233 -0.624
vn -0.7143 0.2931 -0.6355
vn -0.7453 0.2944 -0.5982
vn -0.6658 0.2974 -0.6843
vn -0.6592 0.3376 -0.6719
vn -0.6425 0.4165 -0.6432
vn -0.7288 0.3954 -0.559
vn -0.7145 0.3831 -0.5853
vn -0.5755 0.3461 -0.7409
vn -0.5744 0.3152 -0.7554
vn -0.6135 0.3054 -0.7283
vn -0.6063 0.336 -0.7208
vn -0.5756 0.4 -0.7132
vn -0.55 0.4172 -0.7234
vn -0.5029 0.4941 -0.7092
vn -0.6185 0.5 -0.6061
vn -0.5237 0.4706 -0.7101
vn -0.7283 0.4666 -0.5018
vn -0.7246 0.4462 -0.5252
vn -0.7638 0.2776 -0.5827
vn -0.7322 0.2721 -0.6243
vn -0.7552 0.2521 -0.605
vn -0.7841 0.2201 -0.5803
vn -0.6746 0.2235 -0.7035
vn -0.6685 0.2782 -0.6897
vn -0.5554 0.3029 -0.7744
vn -0.5439 0.2495 -0.8011
vn -0.575 0.2742 -0.7708
vn -0.5985 0.2886 -0.7473
vn 0.3945 -0.579 0.7135
vn 0.5808 -0.5981 0.5521
vn 0.6022 -0.5462 0.5822
vn 0.3428 -0.516 0.785
vn 0.2444 -0.4762 0.8447
vn 0.264 -0.4887 0.8315
vn 0.3283 -0.4971 0.8032
vn 0.4374 -0.5494 0.7119
vn 0.5956 -0.563 0.5729
vn 0.7518 -0.5354 0.3848
vn 0.8663 -0.4155 0.2772
vn 0.8792 -0.3988 0.2605
vn 0.818 -0.4581 0.3476
vn 0.7431 -0.5122 0.4306
vn 0.8347 -0.4353 0.3373
vn 0.7452 -0.3258 0.5818
vn 0.8114 -0.3182 0.4903
vn 0.8074 -0.3652 0.4633
vn 0.7384 -0.3936 0.5475
vn 0.6425 -0.4164 0.6432
vn 0.6593 -0.3374 0.6719
vn 0.6658 -0.2972 0.6843
vn 0.7569 -0.2952 0.583
vn 0.8255 -0.3119 0.4704
vn 0.5623 -0.3481 0.7501
vn 0.5378 -0.418 0.7321
vn 0.4457 -0.4094 0.7961
vn 0.466 -0.3603 0.8081
vn 0.4446 -0.3583 0.8209
vn 0.5586 -0.3194 0.7654
vn 0.4909 -0.4941 0.7176
vn 0.6185 -0.5 0.6061
vn 0.3945 -0.4661 0.7919
vn 0.7375 -0.464 0.4907
vn 0.8145 -0.4149 0.4054
vn 0.7769 -0.293 0.5572
vn 0.8469 -0.3347 0.4132
vn 0.6669 -0.2898 0.6865
vn 0.6588 -0.3404 0.6709
vn 0.8069 -0.3486 0.4768
vn 0.8565 -0.3532 0.3763
vn 0.5313 -0.3231 0.7831
vn 0.3894 -0.3904 0.8343
vn 0.3545 -0.4143 0.8383
vn 0.4568 -0.3913 0.7989
vn 0.4772 -0.2102 -0.8533
vn 0.2401 -0.5442 -0.8038
vn 0.5612 -0.0817 -0.8236
vn 0.8565 -0.3532 0.3763
vn -0.3311 -0.9341 -0.1331
vn -0.7416 -0.6634 0.0992
vn -0.0555 -0.9803 -0.1896
vn 0.3545 -0.4143 0.8383
vn -0.7372 0.3667 0.5675
vn -0.5117 0.5921 0.6225
vn -0.8262 0.178 0.5345
vn 0.2444 -0.4762 0.8447
vn 0.626 0.7779 0.0539
vn 0.576 0.7242 -0.3791
vn 0.4022 0.7423 0.5359
vn 0.8792 -0.3988 0.2605
vn 0.5679 0.5257 -0.6334
vn 0.5666 0.3477 -0.747
vn 0.0154 -0.892 -0.4516
vn -0.8516 -0.3711 0.3701
vn -0.8452 -0.2525 0.471
vn -0.0952 0.6902 0.7173
vn -0.8531 0.0333 0.5207
vn -0.8524 -0.0542 0.5201
vn 0.5739 0.2073 -0.7923
vn 0.585 0.122 -0.8018
vn 0.5916 0.0356 -0.8054
vn -0.8449 -0.1398 0.5163
vt 0.839504 0.118056
vt 0.856743 0.205307
vt 0.741230 0.205307
vt 0.734555 0.106726
vt 0.724541 0.032791
vt 0.813647 0.052618
vt 0.868992 0.081539
vt 0.913398 0.129584
vt 0.940923 0.205307
vt 0.839504 0.292557
vt 0.813647 0.357995
vt 0.724541 0.377822
vt 0.734555 0.303887
vt 0.913398 0.281029
vt 0.868992 0.329074
vt 0.369475 0.299954
vt 0.368286 0.370940
vt 0.245840 0.351447
vt 0.246397 0.288815
vt 0.246768 0.205307
vt 0.370268 0.205307
vt 0.494283 0.205307
vt 0.492822 0.304944
vt 0.490632 0.379672
vt 0.369475 0.110659
vt 0.246397 0.121798
vt 0.245841 0.059166
vt 0.368286 0.039673
vt 0.490632 0.030941
vt 0.492822 0.105669
vt 0.616755 0.103478
vt 0.619174 0.205307
vt 0.613127 0.027106
vt 0.616755 0.307135
vt 0.613126 0.383507
vt 0.123273 0.268175
vt 0.123047 0.315326
vt 0.054743 0.283353
vt 0.030912 0.249131
vt 0.030973 0.205306
vt 0.123423 0.205306
vt 0.123273 0.142438
vt 0.030912 0.161481
vt 0.054744 0.127260
vt 0.123047 0.095287
vt 0.839504 0.118056
vt 0.856743 0.205307
vt 0.968983 0.205307
vt 0.938030 0.133427
vt 0.876123 0.061548
vt 0.805028 0.030806
vt 0.721203 0.008146
vt 0.734555 0.106726
vt 0.741230 0.205307
vt 0.839504 0.292557
vt 0.805028 0.379807
vt 0.876123 0.349065
vt 0.938030 0.277186
vt 0.734555 0.303887
vt 0.721203 0.402467
vt 0.369475 0.299954
vt 0.367890 0.394602
vt 0.489902 0.404581
vt 0.492822 0.304944
vt 0.494283 0.205307
vt 0.370268 0.205307
vt 0.246768 0.205307
vt 0.246397 0.288815
vt 0.245655 0.372324
vt 0.369475 0.110659
vt 0.492822 0.105669
vt 0.489902 0.006032
vt 0.367890 0.016011
vt 0.245655 0.038289
vt 0.246397 0.121798
vt 0.616755 0.103478
vt 0.619174 0.205307
vt 0.611917 0.001649
vt 0.616755 0.307135
vt 0.611917 0.408964
vt 0.123273 0.268175
vt 0.122972 0.331043
vt 0.123423 0.205306
vt 0.000156 0.205306
vt 0.000125 0.242784
vt 0.000064 0.280261
vt 0.123273 0.142438
vt 0.122972 0.079570
vt 0.000064 0.130352
vt 0.000125 0.167829
vt 0.122972 0.331043
vt 0.030806 0.283587
vt 0.245655 0.372324
vt 0.030806 0.283587
vt 0.000125 0.167829
vt 0.030806 0.127026
vt 0.000156 0.205306
vt 0.030806 0.127026
vt 0.805028 0.030806
vt 0.873826 0.071832
vt 0.721203 0.008146
vt 0.873826 0.071832
vt 0.938030 0.277186
vt 0.873826 0.338781
vt 0.968983 0.205307
vt 0.873826 0.338781
vt 0.805028 0.379807
vt 0.721203 0.402467
vt 0.000125 0.242784
vt 0.122972 0.079570
vt 0.245655 0.038289
vt 0.938030 0.133427
vt 0.611917 0.001649
vt 0.489902 0.006032
vt 0.611917 0.408964
vt 0.489902 0.404581
vt 0.367890 0.394602
vt 0.367890 0.016011
f 1/1/1 2/2/2 3/3/3
f 1/1/1 3/3/3 4/4/4
f 1/1/1 4/4/4 5/5/5
f 1/1/1 5/5/5 6/6/6
f 1/1/1 6/6/6 7/7/7
f 1/1/1 7/7/7 8/8/8
f 1/1/1 8/8/8 9/9/9
f 1/1/1 9/9/9 2/2/2
f 10/10/10 11/11/11 12/12/12
f 10/10/10 12/12/12 13/13/13
f 10/10/10 13/13/13 3/3/3
f 10/10/10 3/3/3 2/2/2
f 10/10/10 2/2/2 9/9/9
f 10/10/10 9/9/9 14/14/14
f 10/10/10 14/14/14 15/15/15
f 10/10/10 15/15/15 11/11/11
f 16/16/16 17/17/17 18/18/18
f 16/16/16 18/18/18 19/19/19
f 16/16/16 19/19/19 20/20/20
f 16/16/16 20/20/20 21/21/21
f 16/16/16 21/21/21 22/22/22
f 16/16/16 22/22/22 23/23/23
f 16/16/16 23/23/23 24/24/24
f 16/16/16 24/24/24 17/17/17
f 25/25/25 21/21/21 20/20/20
f 25/25/25 20/20/20 26/26/26
f 25/25/25 26/26/26 27/27/27
f 25/25/25 27/27/27 28/28/28
f 25/25/25 28/28/28 29/29/29
f 25/25/25 29/29/29 30/30/30
f 25/25/25 30/30/30 22/22/22
f 25/25/25 22/22/22 21/21/21
f 31/31/31 32/32/32 22/22/22
f 31/31/31 22/22/22 30/30/30
f 31/31/31 30/30/30 29/29/29
f 31/31/31 29/29/29 33/33/33
f 31/31/31 33/33/33 5/5/5
f 31/31/31 5/5/5 4/4/4
f 31/31/31 4/4/4 3/3/3
f 31/31/31 3/3/3 32/32/32
f 34/34/34 35/35/35 24/24/24
f 34/34/34 24/24/24 23/23/23
f 34/34/34 23/23/23 22/22/22
f 34/34/34 22/22/22 32/32/32
f 34/34/34 32/32/32 3/3/3
f 34/34/34 3/3/3 13/13/13
f 34/34/34 13/13/13 12/12/12
f 34/34/34 12/12/12 35/35/35
f 36/36/36 37/37/37 38/38/38
f 36/36/36 38/38/38 39/39/39
f 36/36/36 39/39/39 40/40/40
f 36/36/36 40/40/40 41/41/41
f 36/36/36 41/41/41 20/20/20
f 36/36/36 20/20/20 19/19/19
f 36/36/36 19/19/19 18/18/18
f 36/36/36 18/18/18 37/37/37
f 42/42/42 41/41/41 40/40/40
f 42/42/42 40/40/40 43/43/43
f 42/42/42 43/43/43 44/44/44
f 42/42/42 44/44/44 45/45/45
f 42/42/42 45/45/45 27/27/27
f 42/42/42 27/27/27 26/26/26
f 42/42/42 26/26/26 20/20/20
f 42/42/42 20/20/20 41/41/41
f 46/46/46 47/47/47 48/48/48
f 46/46/46 48/48/48 49/49/49
f 46/46/46 49/49/49 50/50/50
f 46/46/46 50/50/50 51/51/51
f 46/46/46 51/51/51 52/52/52
f 46/46/46 52/52/52 53/53/53
f 46/46/46 53/53/53 54/54/54
f 46/46/46 54/54/54 47/47/47
f 55/55/55 56/56/56 57/57/57
f 55/55/55 57/57/57 58/58/58
f 55/55/55 58/58/58 48/48/48
f 55/55/55 48/48/48 47/47/47
f 55/55/55 47/47/47 54/54/54
f 55/55/55 54/54/54 59/59/59
f 55/55/55 59/59/59 60/60/60
f 55/55/55 60/60/60 56/56/56
f 61/61/61 62/62/62 63/63/63
f 61/61/61 63/63/63 64/64/64
f 61/61/61 64/64/64 65/65/65
f 61/61/61 65/65/65 66/66/66
f 61/61/61 66/66/66 67/67/67
f 61/61/61 67/67/67 68/68/68
f 61/61/61 68/68/68 69/69/69
f 61/61/61 69/69/69 62/62/62
f 70/70/70 66/66/66 65/65/65
f 70/70/70 65/65/65 71/71/71
f 70/70/70 71/71/71 72/72/72
f 70/70/70 72/72/72 73/73/73
f 70/70/70 73/73/73 74/74/74
f 70/70/70 74/74/74 75/75/75
f 70/70/70 75/75/75 67/67/67
f 70/70/70 67/67/67 66/66/66
f 76/76/76 77/77/77 54/54/54
f 76/76/76 54/54/54 53/53/53
f 76/76/76 53/53/53 52/52/52
f 76/76/76 52/52/52 78/78/78
f 76/76/76 78/78/78 72/72/72
f 76/76/76 72/72/72 71/71/71
f 76/76/76 71/71/71 65/65/65
f 76/76/76 65/65/65 77/77/77
f 79/79/79 80/80/80 60/60/60
f 79/79/79 60/60/60 59/59/59
f 79/79/79 59/59/59 54/54/54
f 79/79/79 54/54/54 77/77/77
f 79/79/79 77/77/77 65/65/65
f 79/79/79 65/65/65 64/64/64
f 79/79/79 64/64/64 63/63/63
f 79/79/79 63/63/63 80/80/80
f 81/81/81 82/82/82 69/69/69
f 81/81/81 69/69/69 68/68/68
f 81/81/81 68/68/68 67/67/67
f 81/81/81 67/67/67 83/83/83
f 81/81/81 83/83/83 84/84/84
f 81/81/81 84/84/84 85/85/85
f 81/81/81 85/85/85 86/86/86
f 81/81/81 86/86/86 82/82/82
f 87/87/87 83/83/83 67/67/67
f 87/87/87 67/67/67 75/75/75
f 87/87/87 75/75/75 74/74/74
f 87/87/87 74/74/74 88/88/88
f 87/87/87 88/88/88 89/89/89
f 87/87/87 89/89/89 90/90/90
f 87/87/87 90/90/90 84/84/84
f 87/87/87 84/84/84 83/83/83
f 91/91/91 92/92/92 38/38/38
f 91/91/91 38/38/38 37/37/37
f 91/91/91 37/37/37 18/18/18
f 91/91/91 18/18/18 93/93/93
f 91/91/91 93/93/93 69/69/69
f 91/91/91 69/69/69 82/82/82
f 91/91/91 82/82/82 94/94/94
f 91/91/91 94/94/94 92/92/92
f 95/95/95 96/96/96 44/44/44
f 95/95/95 44/44/44 43/43/43
f 95/95/95 43/43/43 40/40/40
f 95/95/95 40/40/40 97/97/97
f 95/95/95 97/97/97 84/84/84
f 95/95/95 84/84/84 90/90/90
f 95/95/95 90/90/90 98/98/98
f 95/95/95 98/98/98 96/96/96
f 99/99/99 100/100/100 7/7/7
f 99/99/99 7/7/7 6/6/6
f 99/99/99 6/6/6 5/5/5
f 99/99/99 5/5/5 101/101/101
f 99/99/99 101/101/101 52/52/52
f 99/99/99 52/52/52 51/51/51
f 99/99/99 51/51/51 102/102/102
f 99/99/99 102/102/102 100/100/100
f 103/103/103 104/104/104 15/15/15
f 103/103/103 15/15/15 14/14/14
f 103/103/103 14/14/14 9/9/9
f 103/103/103 9/9/9 105/105/105
f 103/103/103 105/105/105 48/48/48
f 103/103/103 48/48/48 58/58/58
f 103/103/103 58/58/58 106/106/106
f 103/103/103 106/106/106 104/104/104
f 107/107/107 108/108/108 12/12/12
f 107/107/107 12/12/12 11/11/11
f 107/107/107 11/11/11 15/15/15
f 107/107/107 15/15/15 104/104/104
f 107/107/107 104/104/104 106/106/106
f 107/107/107 106/106/106 56/56/56
f 107/107/107 56/56/56 60/60/60
f 107/107/107 60/60/60 108/108/108
f 109/109/109 97/97/97 40/40/40
f 109/109/109 40/40/40 39/39/39
f 109/109/109 39/39/39 38/38/38
f 109/109/109 38/38/38 92/92/92
f 109/109/109 92/92/92 94/94/94
f 109/109/109 94/94/94 85/85/85
f 109/109/109 85/85/85 84/84/84
f 109/109/109 84/84/84 97/97/97
f 110/110/110 111/111/111 27/27/27
f 110/110/110 27/27/27 45/45/45
f 110/110/110 45/45/45 44/44/44
f 110/110/110 44/44/44 96/96/96
f 110/110/110 96/96/96 98/98/98
f 110/110/110 98/98/98 88/88/88
f 110/110/110 88/88/88 74/74/74
f 110/110/110 74/74/74 111/111/111
f 112/112/112 105/105/105 9/9/9
f 112/112/112 9/9/9 8/8/8
f 112/112/112 8/8/8 7/7/7
f 112/112/112 7/7/7 100/100/100
f 112/112/112 100/100/100 102/102/102
f 112/112/112 102/102/102 49/49/49
f 112/112/112 49/49/49 48/48/48
f 112/112/112 48/48/48 105/105/105
f 113/113/113 101/101/101 5/5/5
f 113/113/113 5/5/5 33/33/33
f 113/113/113 33/33/33 29/29/29
f 113/113/113 29/29/29 114/114/114
f 113/113/113 114/114/114 72/72/72
f 113/113/113 72/72/72 78/78/78
f 113/113/113 78/78/78 52/52/52
f 113/113/113 52/52/52 101/101/101
f 115/115/115 116/116/116 24/24/24
f 115/115/115 24/24/24 35/35/35
f 115/115/115 35/35/35 12/12/12
f 115/115/115 12/12/12 108/108/108
f 115/115/115 108/108/108 60/60/60
f 115/115/115 60/60/60 80/80/80
f 115/115/115 80/80/80 63/63/63
f 115/115/115 63/63/63 116/116/116
f 117/117/117 93/93/93 18/18/18
f 117/117/117 18/18/18 17/17/17
f 117/117/117 17/17/17 24/24/24
f 117/117/117 24/24/24 116/116/116
f 117/117/117 116/116/116 63/63/63
f 117/117/117 63/63/63 62/62/62
f 117/117/117 62/62/62 69/69/69
f 117/117/117 69/69/69 93/93/93
f 118/118/118 114/114/114 29/29/29
f 118/118/118 29/29/29 28/28/28
f 118/118/118 28/28/28 27/27/27
f 118/118/118 27/27/27 111/111/111
f 118/118/118 111/111/111 74/74/74
f 118/118/118 74/74/74 73/73/73
f 118/118/118 73/73/73 72/72/72
f 118/118/118 72/72/72 114/114/114
