v -2.358723 0.69359 -1.193935
v -2.358036 0.693272 -1.196122
v -2.360796 0.691902 -1.196126
v -2.361244 0.692357 -1.193633
v -2.361807 0.692832 -1.191779
v -2.359658 0.693881 -1.192312
v -2.358184 0.694276 -1.193028
v -2.356879 0.694346 -1.19422
v -2.355967 0.694181 -1.196108
v -2.358505 0.693162 -1.198386
v -2.359275 0.693131 -1.200118
v -2.361372 0.69198 -1.200648
v -2.360996 0.691871 -1.198692
v -2.35669 0.693976 -1.198073
v -2.357874 0.693669 -1.19935
v -2.368759 0.686147 -1.198471
v -2.368851 0.686136 -1.200361
v -2.37117 0.683837 -1.199746
v -2.371077 0.683838 -1.198073
v -2.371054 0.68393 -1.195863
v -2.368746 0.686258 -1.195974
v -2.366292 0.688412 -1.19606
v -2.366319 0.688314 -1.198675
v -2.366437 0.68833 -1.200655
v -2.369003 0.686623 -1.193514
v -2.371292 0.68426 -1.193689
v -2.371546 0.684575 -1.192063
v -2.369277 0.68697 -1.191674
v -2.366883 0.689203 -1.191569
v -2.366574 0.688812 -1.193489
v -2.363924 0.690744 -1.193507
v -2.363595 0.690288 -1.196108
v -2.364304 0.691215 -1.191568
v -2.363666 0.690238 -1.198768
v -2.363852 0.690329 -1.200789
v -2.373361 0.68149 -1.197397
v -2.373471 0.681524 -1.198652
v -2.374687 0.680191 -1.197722
v -2.37504 0.679691 -1.196785
v -2.374968 0.679683 -1.195647
v -2.373313 0.681531 -1.195743
v -2.373521 0.681804 -1.194125
v -2.37515 0.679907 -1.194543
v -2.374885 0.680579 -1.193688
v -2.373752 0.682076 -1.192915
v -2.358611 0.693384 -1.193876
v -2.357922 0.693061 -1.196096
v -2.355884 0.694021 -1.196089
v -2.356798 0.69419 -1.194174
v -2.358124 0.694163 -1.192987
v -2.359575 0.69373 -1.192251
v -2.361717 0.692684 -1.191723
v -2.361122 0.692155 -1.193577
v -2.360673 0.691696 -1.1961
v -2.358389 0.69295 -1.198394
v -2.359189 0.692972 -1.200141
v -2.357812 0.69355 -1.199363
v -2.356607 0.693815 -1.198081
v -2.360872 0.691663 -1.198696
v -2.361279 0.691825 -1.200666
v -2.368598 0.685965 -1.198467
v -2.36873 0.685999 -1.200369
v -2.366324 0.688187 -1.200665
v -2.366168 0.688123 -1.198672
v -2.366141 0.688223 -1.196035
v -2.368585 0.686078 -1.195948
v -2.370886 0.683756 -1.195838
v -2.370908 0.683663 -1.198069
v -2.371043 0.683706 -1.199754
v -2.368843 0.686446 -1.193467
v -2.366425 0.688626 -1.193441
v -2.366773 0.689065 -1.191522
v -2.369158 0.686839 -1.191629
v -2.371422 0.684449 -1.192018
v -2.371125 0.684089 -1.193642
v -2.363789 0.690549 -1.193455
v -2.363459 0.690089 -1.196082
v -2.364204 0.691071 -1.191517
v -2.363529 0.690038 -1.198769
v -2.363749 0.690179 -1.200802
v -2.373189 0.681317 -1.197395
v -2.373342 0.681394 -1.198663
v -2.373142 0.681359 -1.195718
v -2.374839 0.679555 -1.195628
v -2.374911 0.679562 -1.196785
v -2.374592 0.680095 -1.197727
v -2.373352 0.681636 -1.194077
v -2.373626 0.681951 -1.192868
v -2.374791 0.680486 -1.193656
v -2.375023 0.679781 -1.194507
v -2.37345 0.681478 -1.199078
v -2.375124 0.679715 -1.197702
v -2.371144 0.683778 -1.20031
v -2.374592 0.680095 -1.197727
v -2.375636 0.679218 -1.194666
v -2.375322 0.680104 -1.19366
v -2.375462 0.67901 -1.195606
v -2.374791 0.680486 -1.193656
v -2.359933 0.693912 -1.19174
v -2.358099 0.694402 -1.192774
v -2.361955 0.692925 -1.191133
v -2.358124 0.694163 -1.192987
v -2.356049 0.694175 -1.197972
v -2.357764 0.693745 -1.199614
v -2.355241 0.694412 -1.196095
v -2.357812 0.69355 -1.199363
v -2.359493 0.69305 -1.20071
v -2.361456 0.691947 -1.201311
v -2.375542 0.679034 -1.196581
v -2.373773 0.682111 -1.192489
v -2.371576 0.684625 -1.191499
v -2.35623 0.694528 -1.194294
v -2.364387 0.691308 -1.190896
v -2.366937 0.689272 -1.190906
v -2.363868 0.690292 -1.201471
v -2.366427 0.688272 -1.201322
v -2.368828 0.686072 -1.200996
v -2.369316 0.687028 -1.191039
vn -0.4236 0.8474 -0.32
vn -0.4254 0.8986 -0.1072
vn -0.4788 0.8714 -0.1072
vn -0.4796 0.8255 -0.2975
vn -0.5025 0.8151 -0.2882
vn -0.4251 0.8496 -0.3123
vn -0.3683 0.8703 -0.327
vn -0.3442 0.8959 -0.2808
vn -0.3392 0.9347 -0.1064
vn -0.4446 0.8889 0.1106
vn -0.4454 0.8894 0.1026
vn -0.5205 0.8502 0.0781
vn -0.4985 0.8625 0.0874
vn -0.3614 0.9297 0.0709
vn -0.39 0.9131 0.1186
vn -0.6849 0.7286 0.0057
vn -0.6915 0.7217 -0.0311
vn -0.7145 0.6988 -0.033
vn -0.7085 0.7056 0.0147
vn -0.7147 0.692 -0.1015
vn -0.6843 0.7219 -0.1029
vn -0.6196 0.7778 -0.1051
vn -0.627 0.7788 0.0171
vn -0.641 0.7674 -0.0097
vn -0.6743 0.7078 -0.2103
vn -0.6971 0.6832 -0.2171
vn -0.7078 0.6857 -0.1697
vn -0.6846 0.7079 -0.1737
vn -0.6318 0.7493 -0.1983
vn -0.6152 0.7555 -0.2253
vn -0.5422 0.7997 -0.258
vn -0.5429 0.833 -0.1066
vn -0.5661 0.7882 -0.2413
vn -0.5571 0.829 0.0476
vn -0.5794 0.8144 0.0312
vn -0.7173 0.6955 0.041
vn -0.7277 0.6858 -0.0098
vn -0.7382 0.6742 0.0227
vn -0.7542 0.6533 0.065
vn -0.766 0.6352 -0.0985
vn -0.7286 0.6775 -0.1008
vn -0.7035 0.6683 -0.2416
vn -0.7381 0.6222 -0.2607
vn -0.7262 0.6507 -0.2217
vn -0.7187 0.6685 -0.1911
vn 0.4403 -0.8284 0.3463
vn 0.4403 -0.8914 0.1072
vn 0.4965 -0.8614 0.1071
vn 0.4839 -0.7659 0.4234
vn 0.4809 -0.701 0.5266
vn 0.4786 -0.7177 0.5058
vn 0.4956 -0.7468 0.4435
vn 0.4788 -0.8206 0.3121
vn 0.4787 -0.8714 0.1072
vn 0.464 -0.8749 -0.1383
vn 0.5186 -0.7963 -0.3114
vn 0.5232 -0.7837 -0.3348
vn 0.5156 -0.8277 -0.2214
vn 0.4992 -0.8604 -0.1026
vn 0.5292 -0.8128 -0.2434
vn 0.6835 -0.7296 -0.0219
vn 0.6677 -0.7322 -0.1339
vn 0.6264 -0.7661 -0.144
vn 0.6262 -0.7789 -0.0321
vn 0.6196 -0.7778 0.1051
vn 0.6844 -0.7218 0.1029
vn 0.7148 -0.6919 0.1015
vn 0.7053 -0.7081 -0.0335
vn 0.6664 -0.7285 -0.1587
vn 0.6713 -0.7058 0.2262
vn 0.6129 -0.7528 0.24
vn 0.6024 -0.7189 0.3468
vn 0.6448 -0.6872 0.3345
vn 0.6411 -0.6789 0.3579
vn 0.6921 -0.6822 0.2356
vn 0.5403 -0.7962 0.2721
vn 0.5429 -0.833 0.1066
vn 0.5426 -0.7458 0.3865
vn 0.5567 -0.8284 -0.0623
vn 0.5705 -0.8005 -0.1834
vn 0.7017 -0.7094 -0.0659
vn 0.6319 -0.7457 -0.2113
vn 0.7202 -0.6863 0.1012
vn 0.6821 -0.724 0.1029
vn 0.6424 -0.7542 -0.1363
vn 0.6054 -0.7583 -0.2418
vn 0.6854 -0.6774 0.2671
vn 0.6015 -0.6861 0.4092
vn 0.572 -0.6929 0.4389
vn 0.6191 -0.7085 0.3387
vn -0.3591 -0.2104 -0.9092
vn -0.6239 -0.4118 -0.6642
vn -0.2304 -0.1404 -0.9629
vn 0.6054 -0.7583 -0.2418
vn -0.7132 -0.6487 0.2653
vn -0.6889 -0.2829 0.6673
vn -0.6032 -0.7962 0.0468
vn 0.572 -0.6929 0.4389
vn 0.0868 0.5201 0.8497
vn 0.3618 0.6091 0.7058
vn -0.0744 0.3999 0.9135
vn 0.4809 -0.701 0.5266
vn 0.7701 0.4017 -0.4955
vn 0.4344 0.4675 -0.7699
vn 0.9309 0.3652 0.0105
vn 0.5232 -0.7837 -0.3348
vn 0.1734 0.3499 -0.9206
vn 0.0177 0.2182 -0.9757
vn -0.6902 -0.6941 -0.2045
vn -0.4472 -0.037 0.8936
vn -0.3239 0.0431 0.9451
vn 0.7223 0.4956 0.4824
vn -0.1659 0.2874 0.9433
vn -0.2054 0.2105 0.9557
vn -0.0712 0.1014 -0.9923
vn -0.11 0.0232 -0.9937
vn -0.1472 -0.0545 -0.9876
vn -0.2425 0.1328 0.961
vt 0.839504 0.118056
vt 0.856743 0.205307
vt 0.741230 0.205307
vt 0.734555 0.106726
vt 0.724541 0.032791
vt 0.813647 0.052618
vt 0.868992 0.081539
vt 0.913398 0.129584
vt 0.940923 0.205307
vt 0.839504 0.292557
vt 0.813647 0.357995
vt 0.724541 0.377822
vt 0.734555 0.303887
vt 0.913398 0.281029
vt 0.868992 0.329074
vt 0.369475 0.299954
vt 0.368286 0.370940
vt 0.245840 0.351447
vt 0.246397 0.288815
vt 0.246768 0.205307
vt 0.370268 0.205307
vt 0.494283 0.205307
vt 0.492822 0.304944
vt 0.490632 0.379672
vt 0.369475 0.110659
vt 0.246397 0.121798
vt 0.245841 0.059166
vt 0.368286 0.039673
vt 0.490632 0.030941
vt 0.492822 0.105669
vt 0.616755 0.103478
vt 0.619174 0.205307
vt 0.613127 0.027106
vt 0.616755 0.307135
vt 0.613126 0.383507
vt 0.123273 0.268175
vt 0.123047 0.315326
vt 0.054743 0.283353
vt 0.030912 0.249131
vt 0.030973 0.205306
vt 0.123423 0.205306
vt 0.123273 0.142438
vt 0.030912 0.161481
vt 0.054744 0.127260
vt 0.123047 0.095287
vt 0.839504 0.118056
vt 0.856743 0.205307
vt 0.968983 0.205307
vt 0.938030 0.133427
vt 0.876123 0.061548
vt 0.805028 0.030806
vt 0.721203 0.008146
vt 0.734555 0.106726
vt 0.741230 0.205307
vt 0.839504 0.292557
vt 0.805028 0.379807
vt 0.876123 0.349065
vt 0.938030 0.277186
vt 0.734555 0.303887
vt 0.721203 0.402467
vt 0.369475 0.299954
vt 0.367890 0.394602
vt 0.489902 0.404581
vt 0.492822 0.304944
vt 0.494283 0.205307
vt 0.370268 0.205307
vt 0.246768 0.205307
vt 0.246397 0.288815
vt 0.245655 0.372324
vt 0.369475 0.110659
vt 0.492822 0.105669
vt 0.489902 0.006032
vt 0.367890 0.016011
vt 0.245655 0.038289
vt 0.246397 0.121798
vt 0.616755 0.103478
vt 0.619174 0.205307
vt 0.611917 0.001649
vt 0.616755 0.307135
vt 0.611917 0.408964
vt 0.123273 0.268175
vt 0.122972 0.331043
vt 0.123423 0.205306
vt 0.000156 0.205306
vt 0.000125 0.242784
vt 0.000064 0.280261
vt 0.123273 0.142438
vt 0.122972 0.079570
vt 0.000064 0.130352
vt 0.000125 0.167829
vt 0.122972 0.331043
vt 0.030806 0.283587
vt 0.245655 0.372324
vt 0.030806 0.283587
vt 0.000125 0.167829
vt 0.030806 0.127026
vt 0.000156 0.205306
vt 0.030806 0.127026
vt 0.805028 0.030806
vt 0.873826 0.071832
vt 0.721203 0.008146
vt 0.873826 0.071832
vt 0.938030 0.277186
vt 0.873826 0.338781
vt 0.968983 0.205307
vt 0.873826 0.338781
vt 0.805028 0.379807
vt 0.721203 0.402467
vt 0.000125 0.242784
vt 0.122972 0.079570
vt 0.245655 0.038289
vt 0.938030 0.133427
vt 0.611917 0.001649
vt 0.489902 0.006032
vt 0.611917 0.408964
vt 0.489902 0.404581
vt 0.367890 0.394602
vt 0.367890 0.016011
f 1/1/1 2/2/2 3/3/3
f 1/1/1 3/3/3 4/4/4
f 1/1/1 4/4/4 5/5/5
f 1/1/1 5/5/5 6/6/6
f 1/1/1 6/6/6 7/7/7
f 1/1/1 7/7/7 8/8/8
f 1/1/1 8/8/8 9/9/9
f 1/1/1 9/9/9 2/2/2
f 10/10/10 11/11/11 12/12/12
f 10/10/10 12/12/12 13/13/13
f 10/10/10 13/13/13 3/3/3
f 10/10/10 3/3/3 2/2/2
f 10/10/10 2/2/2 9/9/9
f 10/10/10 9/9/9 14/14/14
f 10/10/10 14/14/14 15/15/15
f 10/10/10 15/15/15 11/11/11
f 16/16/16 17/17/17 18/18/18
f 16/16/16 18/18/18 19/19/19
f 16/16/16 19/19/19 20/20/20
f 16/16/16 20/20/20 21/21/21
f 16/16/16 21/21/21 22/22/22
f 16/16/16 22/22/22 23/23/23
f 16/16/16 23/23/23 24/24/24
f 16/16/16 24/24/24 17/17/17
f 25/25/25 21/21/21 20/20/20
f 25/25/25 20/20/20 26/26/26
f 25/25/25 26/26/26 27/27/27
f 25/25/25 27/27/27 28/28/28
f 25/25/25 28/28/28 29/29/29
f 25/25/25 29/29/29 30/30/30
f 25/25/25 30/30/30 22/22/22
f 25/25/25 22/22/22 21/21/21
f 31/31/31 32/32/32 22/22/22
f 31/31/31 22/22/22 30/30/30
f 31/31/31 30/30/30 29/29/29
f 31/31/31 29/29/29 33/33/33
f 31/31/31 33/33/33 5/5/5
f 31/31/31 5/5/5 4/4/4
f 31/31/31 4/4/4 3/3/3
f 31/31/31 3/3/3 32/32/32
f 34/34/34 35/35/35 24/24/24
f 34/34/34 24/24/24 23/23/23
f 34/34/34 23/23/23 22/22/22
f 34/34/34 22/22/22 32/32/32
f 34/34/34 32/32/32 3/3/3
f 34/34/34 3/3/3 13/13/13
f 34/34/34 13/13/13 12/12/12
f 34/34/34 12/12/12 35/35/35
f 36/36/36 37/37/37 38/38/38
f 36/36/36 38/38/38 39/39/39
f 36/36/36 39/39/39 40/40/40
f 36/36/36 40/40/40 41/41/41
f 36/36/36 41/41/41 20/20/20
f 36/36/36 20/20/20 19/19/19
f 36/36/36 19/19/19 18/18/18
f 36/36/36 18/18/18 37/37/37
f 42/42/42 41/41/41 40/40/40
f 42/42/42 40/40/40 43/43/43
f 42/42/42 43/43/43 44/44/44
f 42/42/42 44/44/44 45/45/45
f 42/42/42 45/45/45 27/27/27
f 42/42/42 27/27/27 26/26/26
f 42/42/42 26/26/26 20/20/20
f 42/42/42 20/20/20 41/41/41
f 46/46/46 47/47/47 48/48/48
f 46/46/46 48/48/48 49/49/49
f 46/46/46 49/49/49 50/50/50
f 46/46/46 50/50/50 51/51/51
f 46/46/46 51/51/51 52/52/52
f 46/46/46 52/52/52 53/53/53
f 46/46/46 53/53/53 54/54/54
f 46/46/46 54/54/54 47/47/47
f 55/55/55 56/56/56 57/57/57
f 55/55/55 57/57/57 58/58/58
f 55/55/55 58/58/58 48/48/48
f 55/55/55 48/48/48 47/47/47
f 55/55/55 47/47/47 54/54/54
f 55/55/55 54/54/54 59/59/59
f 55/55/55 59/59/59 60/60/60
f 55/55/55 60/60/60 56/56/56
f 61/61/61 62/62/62 63/63/63
f 61/61/61 63/63/63 64/64/64
f 61/61/61 64/64/64 65/65/65
f 61/61/61 65/65/65 66/66/66
f 61/61/61 66/66/66 67/67/67
f 61/61/61 67/67/67 68/68/68
f 61/61/61 68/68/68 69/69/69
f 61/61/61 69/69/69 62/62/62
f 70/70/70 66/66/66 65/65/65
f 70/70/70 65/65/65 71/71/71
f 70/70/70 71/71/71 72/72/72
f 70/70/70 72/72/72 73/73/73
f 70/70/70 73/73/73 74/74/74
f 70/70/70 74/74/74 75/75/75
f 70/70/70 75/75/75 67/67/67
f 70/70/70 67/67/67 66/66/66
f 76/76/76 77/77/77 54/54/54
f 76/76/76 54/54/54 53/53/53
f 76/76/76 53/53/53 52/52/52
f 76/76/76 52/52/52 78/78/78
f 76/76/76 78/78/78 72/72/72
f 76/76/76 72/72/72 71/71/71
f 76/76/76 71/71/71 65/65/65
f 76/76/76 65/65/65 77/77/77
f 79/79/79 80/80/80 60/60/60
f 79/79/79 60/60/60 59/59/59
f 79/79/79 59/59/59 54/54/54
f 79/79/79 54/54/54 77/77/77
f 79/79/79 77/77/77 65/65/65
f 79/79/79 65/65/65 64/64/64
f 79/79/79 64/64/64 63/63/63
f 79/79/79 63/63/63 80/80/80
f 81/81/81 82/82/82 69/69/69
f 81/81/81 69/69/69 68/68/68
f 81/81/81 68/68/68 67/67/67
f 81/81/81 67/67/67 83/83/83
f 81/81/81 83/83/83 84/84/84
f 81/81/81 84/84/84 85/85/85
f 81/81/81 85/85/85 86/86/86
f 81/81/81 86/86/86 82/82/82
f 87/87/87 83/83/83 67/67/67
f 87/87/87 67/67/67 75/75/75
f 87/87/87 75/75/75 74/74/74
f 87/87/87 74/74/74 88/88/88
f 87/87/87 88/88/88 89/89/89
f 87/87/87 89/89/89 90/90/90
f 87/87/87 90/90/90 84/84/84
f 87/87/87 84/84/84 83/83/83
f 91/91/91 92/92/92 38/38/38
f 91/91/91 38/38/38 37/37/37
f 91/91/91 37/37/37 18/18/18
f 91/91/91 18/18/18 93/93/93
f 91/91/91 93/93/93 69/69/69
f 91/91/91 69/69/69 82/82/82
f 91/91/91 82/82/82 94/94/94
f 91/91/91 94/94/94 92/92/92
f 95/95/95 96/96/96 44/44/44
f 95/95/95 44/44/44 43/43/43
f 95/95/95 43/43/43 40/40/40
f 95/95/95 40/40/40 97/97/97
f 95/95/95 97/97/97 84/84/84
f 95/95/95 84/84/84 90/90/90
f 95/95/95 90/90/90 98/98/98
f 95/95/95 98/98/98 96/96/96
f 99/99/99 100/100/100 7/7/7
f 99/99/99 7/7/7 6/6/6
f 99/99/99 6/6/6 5/5/5
f 99/99/99 5/5/5 101/101/101
f 99/99/99 101/101/101 52/52/52
f 99/99/99 52/52/52 51/51/51
f 99/99/99 51/51/51 102/102/102
f 99/99/99 102/102/102 100/100/100
f 103/103/103 104/104/104 15/15/15
f 103/103/103 15/15/15 14/14/14
f 103/103/103 14/14/14 9/9/9
f 103/103/103 9/9/9 105/105/105
f 103/103/103 105/105/105 48/48/48
f 103/103/103 48/48/48 58/58/58
f 103/103/103 58/58/58 106/106/106
f 103/103/103 106/106/106 104/104/104
f 107/107/107 108/108/108 12/12/12
f 107/107/107 12/12/12 11/11/11
f 107/107/107 11/11/11 15/15/15
f 107/107/107 15/15/15 104/104/104
f 107/107/107 104/104/104 106/106/106
f 107/107/107 106/106/106 56/56/56
f 107/107/107 56/56/56 60/60/60
f 107/107/107 60/60/60 108/108/108
f 109/109/109 97/97/97 40/40/40
f 109/109/109 40/40/40 39/39/39
f 109/109/109 39/39/39 38/38/38
f 109/109/109 38/38/38 92/92/92
f 109/109/109 92/92/92 94/94/94
f 109/109/109 94/94/94 85/85/85
f 109/109/109 85/85/85 84/84/84
f 109/109/109 84/84/84 97/97/97
f 110/110/110 111/111/111 27/27/27
f 110/110/110 27/27/27 45/45/45
f 110/110/110 45/45/45 44/44/44
f 110/110/110 44/44/44 96/96/96
f 110/110/110 96/96/96 98/98/98
f 110/110/110 98/98/98 88/88/88
f 110/110/110 88/88/88 74/74/74
f 110/110/110 74/74/74 111/111/111
f 112/112/112 105/105/105 9/9/9
f 112/112/112 9/9/9 8/8/8
f 112/112/112 8/8/8 7/7/7
f 112/112/112 7/7/7 100/100/100
f 112/112/112 100/100/100 102/102/102
f 112/112/112 102/102/102 49/49/49
f 112/112/112 49/49/49 48/48/48
f 112/112/112 48/48/48 105/105/105
f 113/113/113 101/101/101 5/5/5
f 113/113/113 5/5/5 33/33/33
f 113/113/113 33/33/33 29/29/29
f 113/113/113 29/29/29 114/114/114
f 113/113/113 114/114/114 72/72/72
f 113/113/113 72/72/72 78/78/78
f 113/113/113 78/78/78 52/52/52
f 113/113/113 52/52/52 101/101/101
f 115/115/115 116/116/116 24/24/24
f 115/115/115 24/24/24 35/35/35
f 115/115/115 35/35/35 12/12/12
f 115/115/115 12/12/12 108/108/108
f 115/115/115 108/108/108 60/60/60
f 115/115/115 60/60/60 80/80/80
f 115/115/115 80/80/80 63/63/63
f 115/115/115 63/63/63 116/116/116
f 117/117/117 93/93/93 18/18/18
f 117/117/117 18/18/18 17/17/17
f 117/117/117 17/17/17 24/24/24
f 117/117/117 24/24/24 116/116/116
f 117/117/117 116/116/116 63/63/63
f 117/117/117 63/63/63 62/62/62
f 117/117/117 62/62/62 69/69/69
f 117/117/117 69/69/69 93/93/93
f 118/118/118 114/114/114 29/29/29
f 118/118/118 29/29/29 28/28/28
f 118/118/118 28/28/28 27/27/27
f 118/118/118 27/27/27 111/111/111
f 118/118/118 111/111/111 74/74/74
f 118/118/118 74/74/74 73/73/73
f 118/118/118 73/73/73 72/72/72
f 118/118/118 72/72/72 114/114/114
