v -2.390878 0.74467 -1.090306
v -2.390084 0.745439 -1.092161
v -2.392001 0.743514 -1.093099
v -2.392648 0.742812 -1.090896
v -2.393376 0.742331 -1.089252
v -2.391855 0.744016 -1.088985
v -2.390686 0.745043 -1.08921
v -2.389531 0.745937 -1.089978
v -2.388606 0.746784 -1.091487
v -2.390358 0.746055 -1.094212
v -2.390943 0.746444 -1.095835
v -2.392339 0.74509 -1.097033
v -2.392057 0.744386 -1.095334
v -2.389081 0.747135 -1.093359
v -2.389947 0.74701 -1.094757
v -2.396812 0.737387 -1.098398
v -2.39681 0.738055 -1.100031
v -2.39805 0.735289 -1.100673
v -2.398039 0.734693 -1.099228
v -2.398142 0.733949 -1.097307
v -2.396942 0.736548 -1.096226
v -2.395557 0.739042 -1.095157
v -2.395439 0.739931 -1.097427
v -2.395465 0.740647 -1.099134
v -2.397392 0.735845 -1.094048
v -2.398551 0.73333 -1.095382
v -2.398947 0.732899 -1.093933
v -2.397825 0.735354 -1.09241
v -2.396527 0.737821 -1.091161
v -2.396045 0.738318 -1.092878
v -2.394417 0.740668 -1.09179
v -2.393867 0.741373 -1.094106
v -2.394988 0.740207 -1.090043
v -2.393802 0.742304 -1.096406
v -2.393911 0.743075 -1.098134
v -2.399234 0.731874 -1.099829
v -2.399289 0.732337 -1.100909
v -2.399921 0.730558 -1.100769
v -2.400093 0.729701 -1.100197
v -2.400074 0.729292 -1.099215
v -2.399275 0.731304 -1.098395
v -2.399616 0.730856 -1.096958
v -2.400354 0.729004 -1.09823
v -2.400392 0.729303 -1.09723
v -2.399959 0.730553 -1.095875
v -2.390712 0.744517 -1.090305
v -2.389913 0.745295 -1.092189
v -2.38848 0.746673 -1.09151
v -2.389409 0.745819 -1.089977
v -2.390597 0.744956 -1.089202
v -2.391734 0.743898 -1.088969
v -2.393249 0.742219 -1.089238
v -2.392475 0.742666 -1.090894
v -2.391824 0.743376 -1.093124
v -2.390185 0.745923 -1.094269
v -2.390812 0.746352 -1.095892
v -2.389852 0.746939 -1.094796
v -2.388953 0.747034 -1.093404
v -2.391877 0.744259 -1.095386
v -2.392204 0.745 -1.097084
v -2.39661 0.737288 -1.098427
v -2.396658 0.737985 -1.100062
v -2.395318 0.74057 -1.09917
v -2.395243 0.739823 -1.097462
v -2.395362 0.738926 -1.095172
v -2.396741 0.736442 -1.096236
v -2.397938 0.733851 -1.097314
v -2.397832 0.734603 -1.099254
v -2.397895 0.735224 -1.100702
v -2.397194 0.735733 -1.09404
v -2.395854 0.738196 -1.092873
v -2.396386 0.737727 -1.091148
v -2.397679 0.735267 -1.092394
v -2.398798 0.732818 -1.093914
v -2.39835 0.733226 -1.09537
v -2.394235 0.740533 -1.091787
v -2.393682 0.741245 -1.094126
v -2.394855 0.740103 -1.09003
v -2.393614 0.742186 -1.096449
v -2.39377 0.742991 -1.098177
v -2.399026 0.731787 -1.099855
v -2.399133 0.732276 -1.100938
v -2.399069 0.731209 -1.098401
v -2.39992 0.729221 -1.099219
v -2.399936 0.729637 -1.100217
v -2.399805 0.730511 -1.100789
v -2.399414 0.730755 -1.096944
v -2.39981 0.730474 -1.095854
v -2.400281 0.729245 -1.097217
v -2.400203 0.728928 -1.098218
v -2.399238 0.732465 -1.101284
v -2.400135 0.730038 -1.100986
v -2.397984 0.73546 -1.10117
v -2.399805 0.730511 -1.100789
v -2.400533 0.728353 -1.098648
v -2.400608 0.728781 -1.09744
v -2.400272 0.72859 -1.09949
v -2.400281 0.729245 -1.097217
v -2.392128 0.743745 -1.088534
v -2.390666 0.745075 -1.088936
v -2.393563 0.74212 -1.088695
v -2.390597 0.744956 -1.089202
v -2.388599 0.74745 -1.093095
v -2.389867 0.747203 -1.094938
v -2.388058 0.747182 -1.091273
v -2.389852 0.746939 -1.094796
v -2.39108 0.746535 -1.096404
v -2.392374 0.745286 -1.097625
v -2.400309 0.728949 -1.100329
v -2.400008 0.730416 -1.095502
v -2.399014 0.732719 -1.093439
v -2.389029 0.746306 -1.089868
v -2.39512 0.740006 -1.089453
v -2.396625 0.737613 -1.090581
v -2.393884 0.743295 -1.098731
v -2.395408 0.740853 -1.09972
v -2.396741 0.738248 -1.100591
v -2.397905 0.735151 -1.091854
vn -0.6923 0.7183 -0.0691
vn -0.7223 0.6764 0.1436
vn -0.7618 0.6359 0.1239
vn -0.7372 0.6723 -0.0668
vn -0.7551 0.6523 -0.0663
vn -0.6948 0.7165 -0.0617
vn -0.649 0.7586 -0.0571
vn -0.6383 0.7698 -0.0012
vn -0.6558 0.7348 0.1732
vn -0.7462 0.5747 0.3359
vn -0.7468 0.5781 0.3286
vn -0.8009 0.5302 0.2783
vn -0.7854 0.544 0.2952
vn -0.6821 0.6527 0.3295
vn -0.7049 0.61 0.362
vn -0.9053 0.4017 0.138
vn -0.9073 0.4083 0.1006
vn -0.92 0.3822 0.0864
vn -0.9191 0.3706 0.1337
vn -0.9147 0.4036 0.0212
vn -0.8975 0.4396 0.0363
vn -0.858 0.5094 0.0663
vn -0.8707 0.4589 0.1771
vn -0.8782 0.4554 0.1459
vn -0.8782 0.4737 -0.0652
vn -0.89 0.448 -0.0844
vn -0.9029 0.4278 -0.0421
vn -0.8894 0.4559 -0.0334
vn -0.8546 0.5182 -0.0315
vn -0.8403 0.5397 -0.0509
vn -0.7874 0.6142 -0.0515
vn -0.8071 0.582 0.0988
vn -0.8061 0.59 -0.0447
vn -0.8257 0.5123 0.236
vn -0.8402 0.4991 0.2117
vn -0.9247 0.3487 0.1524
vn -0.9285 0.3575 0.1006
vn -0.9354 0.331 0.1242
vn -0.9445 0.291 0.1525
vn -0.9414 0.3371 -0.0058
vn -0.9222 0.3864 0.0142
vn -0.8893 0.4429 -0.1133
vn -0.9036 0.3999 -0.1538
vn -0.9048 0.4124 -0.1058
vn -0.9058 0.4179 -0.07
vn 0.6996 -0.707 0.1032
vn 0.7335 -0.6655 -0.1382
vn 0.7746 -0.6215 -0.1172
vn 0.7136 -0.6701 0.2041
vn 0.6822 -0.6568 0.3213
vn 0.6871 -0.6636 0.2958
vn 0.7165 -0.6581 0.2315
vn 0.734 -0.6742 0.0817
vn 0.7617 -0.6359 -0.124
vn 0.7603 -0.5454 -0.3527
vn 0.7895 -0.3911 -0.4729
vn 0.7901 -0.3698 -0.4889
vn 0.7942 -0.4555 -0.4022
vn 0.7859 -0.5359 -0.3083
vn 0.8024 -0.4291 -0.4146
vn 0.9051 -0.3965 -0.1535
vn 0.8964 -0.359 -0.2598
vn 0.871 -0.3974 -0.2888
vn 0.8707 -0.4532 -0.1911
vn 0.8581 -0.5092 -0.0663
vn 0.8975 -0.4394 -0.0362
vn 0.9147 -0.4035 -0.0212
vn 0.9179 -0.3664 -0.1523
vn 0.8948 -0.3464 -0.2814
vn 0.874 -0.4793 0.0799
vn 0.8365 -0.544 0.0649
vn 0.8095 -0.5611 0.1728
vn 0.8377 -0.5152 0.1808
vn 0.8301 -0.5187 0.2044
vn 0.8842 -0.4562 0.1007
vn 0.7838 -0.6175 0.0653
vn 0.8071 -0.582 -0.0988
vn 0.7622 -0.6192 0.1884
vn 0.8257 -0.506 -0.2492
vn 0.8336 -0.4292 -0.3477
vn 0.9164 -0.3557 -0.1831
vn 0.8715 -0.3512 -0.3421
vn 0.9177 -0.3968 -0.0185
vn 0.8962 -0.442 -0.0374
vn 0.8811 -0.385 -0.2745
vn 0.8529 -0.3583 -0.3796
vn 0.8747 -0.4668 0.1301
vn 0.7938 -0.5581 0.2417
vn 0.7676 -0.5853 0.261
vn 0.8216 -0.5435 0.1722
vn -0.2152 0.0675 -0.9742
vn -0.3974 -0.2887 -0.871
vn -0.1192 0.1906 -0.9744
vn 0.8529 -0.3583 -0.3796
vn -0.4337 -0.8928 -0.1217
vn -0.5643 -0.7323 0.3811
vn -0.2674 -0.8964 -0.3533
vn 0.7676 -0.5853 0.261
vn -0.1492 0.1344 0.9796
vn 0.0793 0.3569 0.9308
vn -0.2576 -0.0467 0.9651
vn 0.6822 -0.6568 0.3213
vn 0.5886 0.791 -0.167
vn 0.2646 0.8489 -0.4574
vn 0.7285 0.6091 0.3134
vn 0.7901 -0.3698 -0.4889
vn 0.0722 0.7241 -0.6859
vn -0.0211 0.5832 -0.8121
vn -0.3746 -0.7362 -0.5636
vn -0.4411 -0.5336 0.7216
vn -0.3581 -0.4451 0.8207
vn 0.4657 0.4654 0.7526
vn -0.3021 -0.1845 0.9352
vn -0.3107 -0.268 0.9119
vn -0.0596 0.4613 -0.8852
vn -0.0663 0.3825 -0.9215
vn -0.0725 0.3015 -0.9507
vn -0.3165 -0.3484 0.8823
vt 0.839504 0.118056
vt 0.856743 0.205307
vt 0.741230 0.205307
vt 0.734555 0.106726
vt 0.724541 0.032791
vt 0.813647 0.052618
vt 0.868992 0.081539
vt 0.913398 0.129584
vt 0.940923 0.205307
vt 0.839504 0.292557
vt 0.813647 0.357995
vt 0.724541 0.377822
vt 0.734555 0.303887
vt 0.913398 0.281029
vt 0.868992 0.329074
vt 0.369475 0.299954
vt 0.368286 0.370940
vt 0.245840 0.351447
vt 0.246397 0.288815
vt 0.246768 0.205307
vt 0.370268 0.205307
vt 0.494283 0.205307
vt 0.492822 0.304944
vt 0.490632 0.379672
vt 0.369475 0.110659
vt 0.246397 0.121798
vt 0.245841 0.059166
vt 0.368286 0.039673
vt 0.490632 0.030941
vt 0.492822 0.105669
vt 0.616755 0.103478
vt 0.619174 0.205307
vt 0.613127 0.027106
vt 0.616755 0.307135
vt 0.613126 0.383507
vt 0.123273 0.268175
vt 0.123047 0.315326
vt 0.054743 0.283353
vt 0.030912 0.249131
vt 0.030973 0.205306
vt 0.123423 0.205306
vt 0.123273 0.142438
vt 0.030912 0.161481
vt 0.054744 0.127260
vt 0.123047 0.095287
vt 0.839504 0.118056
vt 0.856743 0.205307
vt 0.968983 0.205307
vt 0.938030 0.133427
vt 0.876123 0.061548
vt 0.805028 0.030806
vt 0.721203 0.008146
vt 0.734555 0.106726
vt 0.741230 0.205307
vt 0.839504 0.292557
vt 0.805028 0.379807
vt 0.876123 0.349065
vt 0.938030 0.277186
vt 0.734555 0.303887
vt 0.721203 0.402467
vt 0.369475 0.299954
vt 0.367890 0.394602
vt 0.489902 0.404581
vt 0.492822 0.304944
vt 0.494283 0.205307
vt 0.370268 0.205307
vt 0.246768 0.205307
vt 0.246397 0.288815
vt 0.245655 0.372324
vt 0.369475 0.110659
vt 0.492822 0.105669
vt 0.489902 0.006032
vt 0.367890 0.016011
vt 0.245655 0.038289
vt 0.246397 0.121798
vt 0.616755 0.103478
vt 0.619174 0.205307
vt 0.611917 0.001649
vt 0.616755 0.307135
vt 0.611917 0.408964
vt 0.123273 0.268175
vt 0.122972 0.331043
vt 0.123423 0.205306
vt 0.000156 0.205306
vt 0.000125 0.242784
vt 0.000064 0.280261
vt 0.123273 0.142438
vt 0.122972 0.079570
vt 0.000064 0.130352
vt 0.000125 0.167829
vt 0.122972 0.331043
vt 0.030806 0.283587
vt 0.245655 0.372324
vt 0.030806 0.283587
vt 0.000125 0.167829
vt 0.030806 0.127026
vt 0.000156 0.205306
vt 0.030806 0.127026
vt 0.805028 0.030806
vt 0.873826 0.071832
vt 0.721203 0.008146
vt 0.873826 0.071832
vt 0.938030 0.277186
vt 0.873826 0.338781
vt 0.968983 0.205307
vt 0.873826 0.338781
vt 0.805028 0.379807
vt 0.721203 0.402467
vt 0.000125 0.242784
vt 0.122972 0.079570
vt 0.245655 0.038289
vt 0.938030 0.133427
vt 0.611917 0.001649
vt 0.489902 0.006032
vt 0.611917 0.408964
vt 0.489902 0.404581
vt 0.367890 0.394602
vt 0.367890 0.016011
f 1/1/1 2/2/2 3/3/3
f 1/1/1 3/3/3 4/4/4
f 1/1/1 4/4/4 5/5/5
f 1/1/1 5/5/5 6/6/6
f 1/1/1 6/6/6 7/7/7
f 1/1/1 7/7/7 8/8/8
f 1/1/1 8/8/8 9/9/9
f 1/1/1 9/9/9 2/2/2
f 10/10/10 11/11/11 12/12/12
f 10/10/10 12/12/12 13/13/13
f 10/10/10 13/13/13 3/3/3
f 10/10/10 3/3/3 2/2/2
f 10/10/10 2/2/2 9/9/9
f 10/10/10 9/9/9 14/14/14
f 10/10/10 14/14/14 15/15/15
f 10/10/10 15/15/15 11/11/11
f 16/16/16 17/17/17 18/18/18
f 16/16/16 18/18/18 19/19/19
f 16/16/16 19/19/19 20/20/20
f 16/16/16 20/20/20 21/21/21
f 16/16/16 21/21/21 22/22/22
f 16/16/16 22/22/22 23/23/23
f 16/16/16 23/23/23 24/24/24
f 16/16/16 24/24/24 17/17/17
f 25/25/25 21/21/21 20/20/20
f 25/25/25 20/20/20 26/26/26
f 25/25/25 26/26/26 27/27/27
f 25/25/25 27/27/27 28/28/28
f 25/25/25 28/28/28 29/29/29
f 25/25/25 29/29/29 30/30/30
f 25/25/25 30/30/30 22/22/22
f 25/25/25 22/22/22 21/21/21
f 31/31/31 32/32/32 22/22/22
f 31/31/31 22/22/22 30/30/30
f 31/31/31 30/30/30 29/29/29
f 31/31/31 29/29/29 33/33/33
f 31/31/31 33/33/33 5/5/5
f 31/31/31 5/5/5 4/4/4
f 31/31/31 4/4/4 3/3/3
f 31/31/31 3/3/3 32/32/32
f 34/34/34 35/35/35 24/24/24
f 34/34/34 24/24/24 23/23/23
f 34/34/34 23/23/23 22/22/22
f 34/34/34 22/22/22 32/32/32
f 34/34/34 32/32/32 3/3/3
f 34/34/34 3/3/3 13/13/13
f 34/34/34 13/13/13 12/12/12
f 34/34/34 12/12/12 35/35/35
f 36/36/36 37/37/37 38/38/38
f 36/36/36 38/38/38 39/39/39
f 36/36/36 39/39/39 40/40/40
f 36/36/36 40/40/40 41/41/41
f 36/36/36 41/41/41 20/20/20
f 36/36/36 20/20/20 19/19/19
f 36/36/36 19/19/19 18/18/18
f 36/36/36 18/18/18 37/37/37
f 42/42/42 41/41/41 40/40/40
f 42/42/42 40/40/40 43/43/43
f 42/42/42 43/43/43 44/44/44
f 42/42/42 44/44/44 45/45/45
f 42/42/42 45/45/45 27/27/27
f 42/42/42 27/27/27 26/26/26
f 42/42/42 26/26/26 20/20/20
f 42/42/42 20/20/20 41/41/41
f 46/46/46 47/47/47 48/48/48
f 46/46/46 48/48/48 49/49/49
f 46/46/46 49/49/49 50/50/50
f 46/46/46 50/50/50 51/51/51
f 46/46/46 51/51/51 52/52/52
f 46/46/46 52/52/52 53/53/53
f 46/46/46 53/53/53 54/54/54
f 46/46/46 54/54/54 47/47/47
f 55/55/55 56/56/56 57/57/57
f 55/55/55 57/57/57 58/58/58
f 55/55/55 58/58/58 48/48/48
f 55/55/55 48/48/48 47/47/47
f 55/55/55 47/47/47 54/54/54
f 55/55/55 54/54/54 59/59/59
f 55/55/55 59/59/59 60/60/60
f 55/55/55 60/60/60 56/56/56
f 61/61/61 62/62/62 63/63/63
f 61/61/61 63/63/63 64/64/64
f 61/61/61 64/64/64 65/65/65
f 61/61/61 65/65/65 66/66/66
f 61/61/61 66/66/66 67/67/67
f 61/61/61 67/67/67 68/68/68
f 61/61/61 68/68/68 69/69/69
f 61/61/61 69/69/69 62/62/62
f 70/70/70 66/66/66 65/65/65
f 70/70/70 65/65/65 71/71/71
f 70/70/70 71/71/71 72/72/72
f 70/70/70 72/72/72 73/73/73
f 70/70/70 73/73/73 74/74/74
f 70/70/70 74/74/74 75/75/75
f 70/70/70 75/75/75 67/67/67
f 70/70/70 67/67/67 66/66/66
f 76/76/76 77/77/77 54/54/54
f 76/76/76 54/54/54 53/53/53
f 76/76/76 53/53/53 52/52/52
f 76/76/76 52/52/52 78/78/78
f 76/76/76 78/78/78 72/72/72
f 76/76/76 72/72/72 71/71/71
f 76/76/76 71/71/71 65/65/65
f 76/76/76 65/65/65 77/77/77
f 79/79/79 80/80/80 60/60/60
f 79/79/79 60/60/60 59/59/59
f 79/79/79 59/59/59 54/54/54
f 79/79/79 54/54/54 77/77/77
f 79/79/79 77/77/77 65/65/65
f 79/79/79 65/65/65 64/64/64
f 79/79/79 64/64/64 63/63/63
f 79/79/79 63/63/63 80/80/80
f 81/81/81 82/82/82 69/69/69
f 81/81/81 69/69/69 68/68/68
f 81/81/81 68/68/68 67/67/67
f 81/81/81 67/67/67 83/83/83
f 81/81/81 83/83/83 84/84/84
f 81/81/81 84/84/84 85/85/85
f 81/81/81 85/85/85 86/86/86
f 81/81/81 86/86/86 82/82/82
f 87/87/87 83/83/83 67/67/67
f 87/87/87 67/67/67 75/75/75
f 87/87/87 75/75/75 74/74/74
f 87/87/87 74/74/74 88/88/88
f 87/87/87 88/88/88 89/89/89
f 87/87/87 89/89/89 90/90/90
f 87/87/87 90/90/90 84/84/84
f 87/87/87 84/84/84 83/83/83
f 91/91/91 92/92/92 38/38/38
f 91/91/91 38/38/38 37/37/37
f 91/91/91 37/37/37 18/18/18
f 91/91/91 18/18/18 93/93/93
f 91/91/91 93/93/93 69/69/69
f 91/91/91 69/69/69 82/82/82
f 91/91/91 82/82/82 94/94/94
f 91/91/91 94/94/94 92/92/92
f 95/95/95 96/96/96 44/44/44
f 95/95/95 44/44/44 43/43/43
f 95/95/95 43/43/43 40/40/40
f 95/95/95 40/40/40 97/97/97
f 95/95/95 97/97/97 84/84/84
f 95/95/95 84/84/84 90/90/90
f 95/95/95 90/90/90 98/98/98
f 95/95/95 98/98/98 96/96/96
f 99/99/99 100/100/100 7/7/7
f 99/99/99 7/7/7 6/6/6
f 99/99/99 6/6/6 5/5/5
f 99/99/99 5/5/5 101/101/101
f 99/99/99 101/101/101 52/52/52
f 99/99/99 52/52/52 51/51/51
f 99/99/99 51/51/51 102/102/102
f 99/99/99 102/102/102 100/100/100
f 103/103/103 104/104/104 15/15/15
f 103/103/103 15/15/15 14/14/14
f 103/103/103 14/14/14 9/9/9
f 103/103/103 9/9/9 105/105/105
f 103/103/103 105/105/105 48/48/48
f 103/103/103 48/48/48 58/58/58
f 103/103/103 58/58/58 106/106/106
f 103/103/103 106/106/106 104/104/104
f 107/107/107 108/108/108 12/12/12
f 107/107/107 12/12/12 11/11/11
f 107/107/107 11/11/11 15/15/15
f 107/107/107 15/15/15 104/104/104
f 107/107/107 104/104/104 106/106/106
f 107/107/107 106/106/106 56/56/56
f 107/107/107 56/56/56 60/60/60
f 107/107/107 60/60/60 108/108/108
f 109/109/109 97/97/97 40/40/40
f 109/109/109 40/40/40 39/39/39
f 109/109/109 39/39/39 38/38/38
f 109/109/109 38/38/38 92/92/92
f 109/109/109 92/92/92 94/94/94
f 109/109/109 94/94/94 85/85/85
f 109/109/109 85/85/85 84/84/84
f 109/109/109 84/84/84 97/97/97
f 110/110/110 111/111/111 27/27/27
f 110/110/110 27/27/27 45/45/45
f 110/110/110 45/45/45 44/44/44
f 110/110/110 44/44/44 96/96/96
f 110/110/110 96/96/96 98/98/98
f 110/110/110 98/98/98 88/88/88
f 110/110/110 88/88/88 74/74/74
f 110/110/110 74/74/74 111/111/111
f 112/112/112 105/105/105 9/9/9
f 112/112/112 9/9/9 8/8/8
f 112/112/112 8/8/8 7/7/7
f 112/112/112 7/7/7 100/100/100
f 112/112/112 100/100/100 102/102/102
f 112/112/112 102/102/102 49/49/49
f 112/112/112 49/49/49 48/48/48
f 112/112/112 48/48/48 105/105/105
f 113/113/113 101/101/101 5/5/5
f 113/113/113 5/5/5 33/33/33
f 113/113/113 33/33/33 29/29/29
f 113/113/113 29/29/29 114/114/114
f 113/113/113 114/114/114 72/72/72
f 113/113/113 72/72/72 78/78/78
f 113/113/113 78/78/78 52/52/52
f 113/113/113 52/52/52 101/101/101
f 115/115/115 116/116/116 24/24/24
f 115/115/115 24/24/24 35/35/35
f 115/115/115 35/35/35 12/12/12
f 115/115/115 12/12/12 108/108/108
f 115/115/115 108/108/108 60/60/60
f 115/115/115 60/60/60 80/80/80
f 115/115/115 80/80/80 63/63/63
f 115/115/115 63/63/63 116/116/116
f 117/117/117 93/93/93 18/18/18
f 117/117/117 18/18/18 17/17/17
f 117/117/117 17/17/17 24/24/24
f 117/117/117 24/24/24 116/116/116
f 117/117/117 116/116/116 63/63/63
f 117/117/117 63/63/63 62/62/62
f 117/117/117 62/62/62 69/69/69
f 117/117/117 69/69/69 93/93/93
f 118/118/118 114/114/114 29/29/29
f 118/118/118 29/29/29 28/28/28
f 118/118/118 28/28/28 27/27/27
f 118/118/118 27/27/27 111/111/111
f 118/118/118 111/111/111 74/74/74
f 118/118/118 74/74/74 73/73/73
f 118/118/118 73/73/73 72/72/72
f 118/118/118 72/72/72 114/114/114
