v -2.387873 0.746184 -1.099739
v -2.3888 0.747168 -1.101513
v -2.390734 0.744987 -1.100953
v -2.389441 0.744074 -1.099044
v -2.388647 0.743402 -1.097428
v -2.387489 0.745318 -1.098178
v -2.386916 0.746537 -1.099085
v -2.386765 0.747644 -1.100371
v -2.38734 0.74871 -1.101996
v -2.390603 0.747862 -1.102627
v -2.392275 0.748262 -1.103242
v -2.394084 0.746747 -1.103181
v -2.392543 0.745981 -1.102326
v -2.389127 0.749097 -1.102871
v -2.390792 0.748921 -1.103186
v -2.397791 0.738332 -1.101739
v -2.399084 0.739097 -1.102771
v -2.400282 0.736132 -1.102636
v -2.399128 0.735453 -1.101734
v -2.397678 0.734582 -1.100438
v -2.39616 0.737349 -1.100264
v -2.39452 0.740035 -1.100253
v -2.396237 0.741072 -1.10178
v -2.397609 0.741885 -1.102834
v -2.394751 0.736462 -1.098523
v -2.39644 0.7338 -1.09889
v -2.395571 0.733234 -1.097652
v -2.393758 0.735821 -1.097136
v -2.392038 0.738459 -1.09694
v -2.393057 0.739116 -1.098416
v -2.391228 0.741686 -1.098597
v -2.392676 0.742595 -1.100508
v -2.390248 0.741051 -1.097026
v -2.394454 0.74367 -1.10201
v -2.395902 0.744528 -1.103008
v -2.40026 0.732437 -1.101612
v -2.401155 0.732957 -1.102248
v -2.401386 0.731045 -1.101909
v -2.401016 0.730118 -1.1015
v -2.400225 0.729653 -1.100896
v -2.399153 0.731778 -1.100674
v -2.398254 0.731204 -1.099489
v -2.399642 0.729272 -1.100046
v -2.398912 0.729523 -1.099292
v -2.397638 0.730794 -1.098526
v -2.38775 0.746049 -1.099885
v -2.388697 0.747045 -1.101682
v -2.387265 0.748615 -1.102122
v -2.386674 0.747541 -1.100479
v -2.386844 0.746459 -1.099159
v -2.387387 0.745212 -1.098275
v -2.388543 0.743304 -1.09753
v -2.389314 0.743948 -1.099194
v -2.390625 0.744871 -1.101123
v -2.390521 0.747753 -1.102816
v -2.392225 0.748188 -1.103393
v -2.390753 0.748863 -1.103295
v -2.389069 0.749014 -1.103013
v -2.392453 0.745878 -1.102515
v -2.394026 0.746676 -1.103331
v -2.39767 0.73826 -1.101926
v -2.399 0.739047 -1.102917
v -2.397532 0.741828 -1.102981
v -2.396124 0.74099 -1.101968
v -2.394392 0.739944 -1.100427
v -2.396025 0.737269 -1.100438
v -2.397538 0.73451 -1.100612
v -2.399002 0.735389 -1.101921
v -2.400194 0.736088 -1.102783
v -2.394604 0.736375 -1.098683
v -2.392916 0.739017 -1.098574
v -2.391925 0.73838 -1.09705
v -2.393641 0.735752 -1.097248
v -2.395451 0.733171 -1.097764
v -2.396288 0.73372 -1.099049
v -2.391095 0.741572 -1.098751
v -2.392558 0.74249 -1.10068
v -2.390141 0.740962 -1.097133
v -2.394353 0.743576 -1.102198
v -2.395834 0.744464 -1.103156
v -2.400133 0.732378 -1.1018
v -2.401068 0.732917 -1.102395
v -2.399011 0.73171 -1.100848
v -2.400119 0.729602 -1.101026
v -2.400922 0.730074 -1.101641
v -2.401319 0.731014 -1.102017
v -2.398099 0.731126 -1.099647
v -2.397515 0.730732 -1.098637
v -2.398823 0.729479 -1.099376
v -2.399525 0.729214 -1.100163
v -2.401417 0.733113 -1.102527
v -2.401672 0.730495 -1.101963
v -2.400629 0.736339 -1.103004
v -2.401319 0.731014 -1.102017
v -2.400052 0.728603 -1.100283
v -2.399194 0.728971 -1.099342
v -2.400535 0.728922 -1.101028
v -2.398823 0.729479 -1.099376
v -2.387313 0.744981 -1.097698
v -2.386693 0.746559 -1.098908
v -2.388334 0.743134 -1.096932
v -2.386844 0.746459 -1.099159
v -2.38861 0.749471 -1.103015
v -2.390887 0.749138 -1.103346
v -2.386821 0.749181 -1.102214
v -2.390753 0.748863 -1.103295
v -2.392813 0.748364 -1.103516
v -2.394574 0.746972 -1.103535
v -2.401227 0.729325 -1.101526
v -2.397376 0.730629 -1.098252
v -2.395226 0.733017 -1.097288
v -2.386355 0.748084 -1.100629
v -2.389872 0.740799 -1.096548
v -2.391646 0.738204 -1.096495
v -2.396357 0.744787 -1.103408
v -2.398033 0.742132 -1.103252
v -2.399479 0.739331 -1.103181
v -2.393374 0.735576 -1.096722
vn -0.5476 0.6243 0.5571
vn -0.4067 0.5687 0.715
vn -0.4454 0.5243 0.7258
vn -0.5734 0.5727 0.5858
vn -0.5838 0.5506 0.5967
vn -0.5437 0.6218 0.5637
vn -0.5121 0.6693 0.5383
vn -0.4637 0.6792 0.5689
vn -0.3433 0.6339 0.693
vn -0.2736 0.4556 0.847
vn -0.2797 0.4594 0.843
vn -0.3507 0.4071 0.8433
vn -0.3284 0.4221 0.845
vn -0.24 0.5415 0.8057
vn -0.2286 0.4948 0.8384
vn -0.518 0.273 0.8106
vn -0.5476 0.2811 0.7881
vn -0.5653 0.2542 0.7847
vn -0.5288 0.2407 0.8139
vn -0.6115 0.2792 0.7403
vn -0.5907 0.3164 0.7422
vn -0.5457 0.3892 0.7421
vn -0.4688 0.3323 0.8184
vn -0.497 0.3293 0.8029
vn -0.6555 0.3576 0.6651
vn -0.6763 0.3314 0.6578
vn -0.6522 0.3076 0.6928
vn -0.6383 0.337 0.6921
vn -0.617 0.4031 0.6758
vn -0.6231 0.4272 0.6551
vn -0.5923 0.5079 0.6254
vn -0.4914 0.4663 0.7356
vn -0.5985 0.4811 0.6406
vn -0.3977 0.3883 0.8313
vn -0.4249 0.3744 0.8241
vn -0.5174 0.2173 0.8277
vn -0.559 0.228 0.7971
vn -0.5445 0.1998 0.8145
vn -0.5274 0.1577 0.8348
vn -0.6461 0.2112 0.7335
vn -0.6209 0.2615 0.739
vn -0.6973 0.328 0.6374
vn -0.7346 0.2852 0.6156
vn -0.7001 0.2955 0.65
vn -0.6743 0.2989 0.6752
vn 0.5774 -0.6137 -0.5385
vn 0.4175 -0.5567 -0.7182
vn 0.4581 -0.5088 -0.7288
vn 0.6601 -0.5804 -0.4769
vn 0.726 -0.5768 -0.3744
vn 0.7107 -0.5816 -0.3959
vn 0.6818 -0.5692 -0.4594
vn 0.5825 -0.5757 -0.5737
vn 0.4453 -0.5244 -0.7257
vn 0.2689 -0.4241 -0.8648
vn 0.1906 -0.2616 -0.9461
vn 0.1779 -0.2396 -0.9544
vn 0.2499 -0.3279 -0.9111
vn 0.3186 -0.4134 -0.853
vn 0.2447 -0.3003 -0.9219
vn 0.506 -0.2672 -0.8201
vn 0.419 -0.2261 -0.8794
vn 0.3825 -0.2661 -0.8848
vn 0.4581 -0.326 -0.827
vn 0.5458 -0.3891 -0.7421
vn 0.5908 -0.3162 -0.7423
vn 0.6116 -0.2791 -0.7403
vn 0.5138 -0.2358 -0.8249
vn 0.4012 -0.2128 -0.8909
vn 0.664 -0.3643 -0.6529
vn 0.6313 -0.4325 -0.6437
vn 0.6948 -0.4582 -0.5543
vn 0.7171 -0.4095 -0.5639
vn 0.7298 -0.415 -0.5432
vn 0.6851 -0.3411 -0.6436
vn 0.6004 -0.5123 -0.6141
vn 0.4914 -0.4663 -0.7356
vn 0.6781 -0.5227 -0.5166
vn 0.3875 -0.3814 -0.8392
vn 0.3153 -0.2996 -0.9004
vn 0.4894 -0.2239 -0.8428
vn 0.3406 -0.2177 -0.9146
vn 0.6152 -0.2723 -0.7398
vn 0.5892 -0.319 -0.7424
vn 0.3991 -0.2532 -0.8813
vn 0.3006 -0.2255 -0.9267
vn 0.7013 -0.3543 -0.6185
vn 0.7354 -0.4606 -0.4969
vn 0.7339 -0.492 -0.4683
vn 0.7014 -0.4391 -0.5614
vn -0.8736 0.0852 -0.479
vn -0.8992 -0.2962 -0.322
vn -0.8165 0.2196 -0.534
vn 0.3006 -0.2255 -0.9267
vn -0.3323 -0.935 0.1238
vn -0.0516 -0.8171 0.5742
vn -0.3954 -0.9056 -0.1533
vn 0.7339 -0.492 -0.4683
vn 0.6257 0.0668 0.7772
vn 0.7291 0.319 0.6054
vn 0.5526 -0.1253 0.8239
vn 0.726 -0.5768 -0.3744
vn 0.2246 0.8683 -0.4421
vn -0.2101 0.8971 -0.3887
vn 0.6854 0.6836 -0.2505
vn 0.1779 -0.2396 -0.9544
vn -0.5013 0.7594 -0.4147
vn -0.6502 0.6136 -0.448
vn -0.6316 -0.7508 -0.193
vn 0.2737 -0.6209 0.7345
vn 0.3977 -0.5276 0.7506
vn 0.8471 0.4852 0.2166
vn 0.5076 -0.2666 0.8193
vn 0.4885 -0.3493 0.7996
vn -0.7244 0.4909 -0.4839
vn -0.752 0.4136 -0.5131
vn -0.7735 0.3341 -0.5385
vn 0.4666 -0.4285 0.7737
vt 0.839504 0.118056
vt 0.856743 0.205307
vt 0.741230 0.205307
vt 0.734555 0.106726
vt 0.724541 0.032791
vt 0.813647 0.052618
vt 0.868992 0.081539
vt 0.913398 0.129584
vt 0.940923 0.205307
vt 0.839504 0.292557
vt 0.813647 0.357995
vt 0.724541 0.377822
vt 0.734555 0.303887
vt 0.913398 0.281029
vt 0.868992 0.329074
vt 0.369475 0.299954
vt 0.368286 0.370940
vt 0.245840 0.351447
vt 0.246397 0.288815
vt 0.246768 0.205307
vt 0.370268 0.205307
vt 0.494283 0.205307
vt 0.492822 0.304944
vt 0.490632 0.379672
vt 0.369475 0.110659
vt 0.246397 0.121798
vt 0.245841 0.059166
vt 0.368286 0.039673
vt 0.490632 0.030941
vt 0.492822 0.105669
vt 0.616755 0.103478
vt 0.619174 0.205307
vt 0.613127 0.027106
vt 0.616755 0.307135
vt 0.613126 0.383507
vt 0.123273 0.268175
vt 0.123047 0.315326
vt 0.054743 0.283353
vt 0.030912 0.249131
vt 0.030973 0.205306
vt 0.123423 0.205306
vt 0.123273 0.142438
vt 0.030912 0.161481
vt 0.054744 0.127260
vt 0.123047 0.095287
vt 0.839504 0.118056
vt 0.856743 0.205307
vt 0.968983 0.205307
vt 0.938030 0.133427
vt 0.876123 0.061548
vt 0.805028 0.030806
vt 0.721203 0.008146
vt 0.734555 0.106726
vt 0.741230 0.205307
vt 0.839504 0.292557
vt 0.805028 0.379807
vt 0.876123 0.349065
vt 0.938030 0.277186
vt 0.734555 0.303887
vt 0.721203 0.402467
vt 0.369475 0.299954
vt 0.367890 0.394602
vt 0.489902 0.404581
vt 0.492822 0.304944
vt 0.494283 0.205307
vt 0.370268 0.205307
vt 0.246768 0.205307
vt 0.246397 0.288815
vt 0.245655 0.372324
vt 0.369475 0.110659
vt 0.492822 0.105669
vt 0.489902 0.006032
vt 0.367890 0.016011
vt 0.245655 0.038289
vt 0.246397 0.121798
vt 0.616755 0.103478
vt 0.619174 0.205307
vt 0.611917 0.001649
vt 0.616755 0.307135
vt 0.611917 0.408964
vt 0.123273 0.268175
vt 0.122972 0.331043
vt 0.123423 0.205306
vt 0.000156 0.205306
vt 0.000125 0.242784
vt 0.000064 0.280261
vt 0.123273 0.142438
vt 0.122972 0.079570
vt 0.000064 0.130352
vt 0.000125 0.167829
vt 0.122972 0.331043
vt 0.030806 0.283587
vt 0.245655 0.372324
vt 0.030806 0.283587
vt 0.000125 0.167829
vt 0.030806 0.127026
vt 0.000156 0.205306
vt 0.030806 0.127026
vt 0.805028 0.030806
vt 0.873826 0.071832
vt 0.721203 0.008146
vt 0.873826 0.071832
vt 0.938030 0.277186
vt 0.873826 0.338781
vt 0.968983 0.205307
vt 0.873826 0.338781
vt 0.805028 0.379807
vt 0.721203 0.402467
vt 0.000125 0.242784
vt 0.122972 0.079570
vt 0.245655 0.038289
vt 0.938030 0.133427
vt 0.611917 0.001649
vt 0.489902 0.006032
vt 0.611917 0.408964
vt 0.489902 0.404581
vt 0.367890 0.394602
vt 0.367890 0.016011
f 1/1/1 2/2/2 3/3/3
f 1/1/1 3/3/3 4/4/4
f 1/1/1 4/4/4 5/5/5
f 1/1/1 5/5/5 6/6/6
f 1/1/1 6/6/6 7/7/7
f 1/1/1 7/7/7 8/8/8
f 1/1/1 8/8/8 9/9/9
f 1/1/1 9/9/9 2/2/2
f 10/10/10 11/11/11 12/12/12
f 10/10/10 12/12/12 13/13/13
f 10/10/10 13/13/13 3/3/3
f 10/10/10 3/3/3 2/2/2
f 10/10/10 2/2/2 9/9/9
f 10/10/10 9/9/9 14/14/14
f 10/10/10 14/14/14 15/15/15
f 10/10/10 15/15/15 11/11/11
f 16/16/16 17/17/17 18/18/18
f 16/16/16 18/18/18 19/19/19
f 16/16/16 19/19/19 20/20/20
f 16/16/16 20/20/20 21/21/21
f 16/16/16 21/21/21 22/22/22
f 16/16/16 22/22/22 23/23/23
f 16/16/16 23/23/23 24/24/24
f 16/16/16 24/24/24 17/17/17
f 25/25/25 21/21/21 20/20/20
f 25/25/25 20/20/20 26/26/26
f 25/25/25 26/26/26 27/27/27
f 25/25/25 27/27/27 28/28/28
f 25/25/25 28/28/28 29/29/29
f 25/25/25 29/29/29 30/30/30
f 25/25/25 30/30/30 22/22/22
f 25/25/25 22/22/22 21/21/21
f 31/31/31 32/32/32 22/22/22
f 31/31/31 22/22/22 30/30/30
f 31/31/31 30/30/30 29/29/29
f 31/31/31 29/29/29 33/33/33
f 31/31/31 33/33/33 5/5/5
f 31/31/31 5/5/5 4/4/4
f 31/31/31 4/4/4 3/3/3
f 31/31/31 3/3/3 32/32/32
f 34/34/34 35/35/35 24/24/24
f 34/34/34 24/24/24 23/23/23
f 34/34/34 23/23/23 22/22/22
f 34/34/34 22/22/22 32/32/32
f 34/34/34 32/32/32 3/3/3
f 34/34/34 3/3/3 13/13/13
f 34/34/34 13/13/13 12/12/12
f 34/34/34 12/12/12 35/35/35
f 36/36/36 37/37/37 38/38/38
f 36/36/36 38/38/38 39/39/39
f 36/36/36 39/39/39 40/40/40
f 36/36/36 40/40/40 41/41/41
f 36/36/36 41/41/41 20/20/20
f 36/36/36 20/20/20 19/19/19
f 36/36/36 19/19/19 18/18/18
f 36/36/36 18/18/18 37/37/37
f 42/42/42 41/41/41 40/40/40
f 42/42/42 40/40/40 43/43/43
f 42/42/42 43/43/43 44/44/44
f 42/42/42 44/44/44 45/45/45
f 42/42/42 45/45/45 27/27/27
f 42/42/42 27/27/27 26/26/26
f 42/42/42 26/26/26 20/20/20
f 42/42/42 20/20/20 41/41/41
f 46/46/46 47/47/47 48/48/48
f 46/46/46 48/48/48 49/49/49
f 46/46/46 49/49/49 50/50/50
f 46/46/46 50/50/50 51/51/51
f 46/46/46 51/51/51 52/52/52
f 46/46/46 52/52/52 53/53/53
f 46/46/46 53/53/53 54/54/54
f 46/46/46 54/54/54 47/47/47
f 55/55/55 56/56/56 57/57/57
f 55/55/55 57/57/57 58/58/58
f 55/55/55 58/58/58 48/48/48
f 55/55/55 48/48/48 47/47/47
f 55/55/55 47/47/47 54/54/54
f 55/55/55 54/54/54 59/59/59
f 55/55/55 59/59/59 60/60/60
f 55/55/55 60/60/60 56/56/56
f 61/61/61 62/62/62 63/63/63
f 61/61/61 63/63/63 64/64/64
f 61/61/61 64/64/64 65/65/65
f 61/61/61 65/65/65 66/66/66
f 61/61/61 66/66/66 67/67/67
f 61/61/61 67/67/67 68/68/68
f 61/61/61 68/68/68 69/69/69
f 61/61/61 69/69/69 62/62/62
f 70/70/70 66/66/66 65/65/65
f 70/70/70 65/65/65 71/71/71
f 70/70/70 71/71/71 72/72/72
f 70/70/70 72/72/72 73/73/73
f 70/70/70 73/73/73 74/74/74
f 70/70/70 74/74/74 75/75/75
f 70/70/70 75/75/75 67/67/67
f 70/70/70 67/67/67 66/66/66
f 76/76/76 77/77/77 54/54/54
f 76/76/76 54/54/54 53/53/53
f 76/76/76 53/53/53 52/52/52
f 76/76/76 52/52/52 78/78/78
f 76/76/76 78/78/78 72/72/72
f 76/76/76 72/72/72 71/71/71
f 76/76/76 71/71/71 65/65/65
f 76/76/76 65/65/65 77/77/77
f 79/79/79 80/80/80 60/60/60
f 79/79/79 60/60/60 59/59/59
f 79/79/79 59/59/59 54/54/54
f 79/79/79 54/54/54 77/77/77
f 79/79/79 77/77/77 65/65/65
f 79/79/79 65/65/65 64/64/64
f 79/79/79 64/64/64 63/63/63
f 79/79/79 63/63/63 80/80/80
f 81/81/81 82/82/82 69/69/69
f 81/81/81 69/69/69 68/68/68
f 81/81/81 68/68/68 67/67/67
f 81/81/81 67/67/67 83/83/83
f 81/81/81 83/83/83 84/84/84
f 81/81/81 84/84/84 85/85/85
f 81/81/81 85/85/85 86/86/86
f 81/81/81 86/86/86 82/82/82
f 87/87/87 83/83/83 67/67/67
f 87/87/87 67/67/67 75/75/75
f 87/87/87 75/75/75 74/74/74
f 87/87/87 74/74/74 88/88/88
f 87/87/87 88/88/88 89/89/89
f 87/87/87 89/89/89 90/90/90
f 87/87/87 90/90/90 84/84/84
f 87/87/87 84/84/84 83/83/83
f 91/91/91 92/92/92 38/38/38
f 91/91/91 38/38/38 37/37/37
f 91/91/91 37/37/37 18/18/18
f 91/91/91 18/18/18 93/93/93
f 91/91/91 93/93/93 69/69/69
f 91/91/91 69/69/69 82/82/82
f 91/91/91 82/82/82 94/94/94
f 91/91/91 94/94/94 92/92/92
f 95/95/95 96/96/96 44/44/44
f 95/95/95 44/44/44 43/43/43
f 95/95/95 43/43/43 40/40/40
f 95/95/95 40/40/40 97/97/97
f 95/95/95 97/97/97 84/84/84
f 95/95/95 84/84/84 90/90/90
f 95/95/95 90/90/90 98/98/98
f 95/95/95 98/98/98 96/96/96
f 99/99/99 100/100/100 7/7/7
f 99/99/99 7/7/7 6/6/6
f 99/99/99 6/6/6 5/5/5
f 99/99/99 5/5/5 101/101/101
f 99/99/99 101/101/101 52/52/52
f 99/99/99 52/52/52 51/51/51
f 99/99/99 51/51/51 102/102/102
f 99/99/99 102/102/102 100/100/100
f 103/103/103 104/104/104 15/15/15
f 103/103/103 15/15/15 14/14/14
f 103/103/103 14/14/14 9/9/9
f 103/103/103 9/9/9 105/105/105
f 103/103/103 105/105/105 48/48/48
f 103/103/103 48/48/48 58/58/58
f 103/103/103 58/58/58 106/106/106
f 103/103/103 106/106/106 104/104/104
f 107/107/107 108/108/108 12/12/12
f 107/107/107 12/12/12 11/11/11
f 107/107/107 11/11/11 15/15/15
f 107/107/107 15/15/15 104/104/104
f 107/107/107 104/104/104 106/106/106
f 107/107/107 106/106/106 56/56/56
f 107/107/107 56/56/56 60/60/60
f 107/107/107 60/60/60 108/108/108
f 109/109/109 97/97/97 40/40/40
f 109/109/109 40/40/40 39/39/39
f 109/109/109 39/39/39 38/38/38
f 109/109/109 38/38/38 92/92/92
f 109/109/109 92/92/92 94/94/94
f 109/109/109 94/94/94 85/85/85
f 109/109/109 85/85/85 84/84/84
f 109/109/109 84/84/84 97/97/97
f 110/110/110 111/111/111 27/27/27
f 110/110/110 27/27/27 45/45/45
f 110/110/110 45/45/45 44/44/44
f 110/110/110 44/44/44 96/96/96
f 110/110/110 96/96/96 98/98/98
f 110/110/110 98/98/98 88/88/88
f 110/110/110 88/88/88 74/74/74
f 110/110/110 74/74/74 111/111/111
f 112/112/112 105/105/105 9/9/9
f 112/112/112 9/9/9 8/8/8
f 112/112/112 8/8/8 7/7/7
f 112/112/112 7/7/7 100/100/100
f 112/112/112 100/100/100 102/102/102
f 112/112/112 102/102/102 49/49/49
f 112/112/112 49/49/49 48/48/48
f 112/112/112 48/48/48 105/105/105
f 113/113/113 101/101/101 5/5/5
f 113/113/113 5/5/5 33/33/33
f 113/113/113 33/33/33 29/29/29
f 113/113/113 29/29/29 114/114/114
f 113/113/113 114/114/114 72/72/72
f 113/113/113 72/72/72 78/78/78
f 113/113/113 78/78/78 52/52/52
f 113/113/113 52/52/52 101/101/101
f 115/115/115 116/116/116 24/24/24
f 115/115/115 24/24/24 35/35/35
f 115/115/115 35/35/35 12/12/12
f 115/115/115 12/12/12 108/108/108
f 115/115/115 108/108/108 60/60/60
f 115/115/115 60/60/60 80/80/80
f 115/115/115 80/80/80 63/63/63
f 115/115/115 63/63/63 116/116/116
f 117/117/117 93/93/93 18/18/18
f 117/117/117 18/18/18 17/17/17
f 117/117/117 17/17/17 24/24/24
f 117/117/117 24/24/24 116/116/116
f 117/117/117 116/116/116 63/63/63
f 117/117/117 63/63/63 62/62/62
f 117/117/117 62/62/62 69/69/69
f 117/117/117 69/69/69 93/93/93
f 118/118/118 114/114/114 29/29/29
f 118/118/118 29/29/29 28/28/28
f 118/118/118 28/28/28 27/27/27
f 118/118/118 27/27/27 111/111/111
f 118/118/118 111/111/111 74/74/74
f 118/118/118 74/74/74 73/73/73
f 118/118/118 73/73/73 72/72/72
f 118/118/118 72/72/72 114/114/114
