v -2.368633 0.695415 -1.129166
v -2.366783 0.695635 -1.128703
v -2.366619 0.694703 -1.131077
v -2.36873 0.694506 -1.13132
v -2.370343 0.694482 -1.131682
v -2.370042 0.695319 -1.129856
v -2.369481 0.695718 -1.128639
v -2.368478 0.695979 -1.127602
v -2.366888 0.696238 -1.126932
v -2.364985 0.696103 -1.129184
v -2.363644 0.696525 -1.129887
v -2.363075 0.695852 -1.131718
v -2.364583 0.695288 -1.13134
v -2.36532 0.696574 -1.127618
v -2.3643 0.696695 -1.128665
v -2.363875 0.691124 -1.138135
v -2.362375 0.691562 -1.138283
v -2.362465 0.689723 -1.140332
v -2.363789 0.689328 -1.140192
v -2.365565 0.688883 -1.140084
v -2.365885 0.690629 -1.138022
v -2.366174 0.692222 -1.135851
v -2.364075 0.692756 -1.135979
v -2.362511 0.693238 -1.136151
v -2.367938 0.690358 -1.138116
v -2.367382 0.688651 -1.140175
v -2.368761 0.688536 -1.140302
v -2.369495 0.69022 -1.138248
v -2.369958 0.691834 -1.136114
v -2.368325 0.691955 -1.135959
v -2.368608 0.693345 -1.133639
v -2.366417 0.693572 -1.133497
v -2.370278 0.693287 -1.133847
v -2.364296 0.694158 -1.13366
v -2.362721 0.694712 -1.133884
v -2.363914 0.687433 -1.142214
v -2.36293 0.68776 -1.14235
v -2.36343 0.686552 -1.143411
v -2.36408 0.685956 -1.143701
v -2.364979 0.68568 -1.143599
v -2.365235 0.687077 -1.14211
v -2.366595 0.686927 -1.142201
v -2.365917 0.68561 -1.143692
v -2.366736 0.685929 -1.143394
v -2.367632 0.686873 -1.142327
v -2.368626 0.695231 -1.129085
v -2.366749 0.695455 -1.128622
v -2.366862 0.696102 -1.126874
v -2.368474 0.69584 -1.127545
v -2.369484 0.695615 -1.128596
v -2.370051 0.695181 -1.129796
v -2.370349 0.694346 -1.131616
v -2.368721 0.694326 -1.131232
v -2.366585 0.694526 -1.130988
v -2.364923 0.69593 -1.129103
v -2.363584 0.6964 -1.129827
v -2.364259 0.696601 -1.128621
v -2.365272 0.696444 -1.12756
v -2.364526 0.695117 -1.131252
v -2.36302 0.695728 -1.131652
v -2.363827 0.69097 -1.138014
v -2.362331 0.691449 -1.138193
v -2.362465 0.693121 -1.136068
v -2.364025 0.692596 -1.135868
v -2.366143 0.692058 -1.135739
v -2.365854 0.690471 -1.1379
v -2.365536 0.68873 -1.139956
v -2.363742 0.689179 -1.140065
v -2.362421 0.689613 -1.140237
v -2.367925 0.690198 -1.137994
v -2.368312 0.691788 -1.135847
v -2.369958 0.691708 -1.136031
v -2.369494 0.690098 -1.138158
v -2.368761 0.688418 -1.140206
v -2.367371 0.688495 -1.140047
v -2.368597 0.693171 -1.133539
v -2.366385 0.693401 -1.133397
v -2.370281 0.693156 -1.133772
v -2.364242 0.693992 -1.13356
v -2.36267 0.694591 -1.133809
v -2.363866 0.687286 -1.142084
v -2.362885 0.687652 -1.142253
v -2.365206 0.686925 -1.141979
v -2.364957 0.685567 -1.143501
v -2.364043 0.685846 -1.143604
v -2.363399 0.686472 -1.143339
v -2.366585 0.686773 -1.142071
v -2.367634 0.686756 -1.14223
v -2.366735 0.685843 -1.143322
v -2.36591 0.685494 -1.143595
v -2.36258 0.687821 -1.142352
v -2.363361 0.686194 -1.143803
v -2.362002 0.689806 -1.140337
v -2.363399 0.686472 -1.143339
v -2.365688 0.685119 -1.144146
v -2.366674 0.685569 -1.143787
v -2.364883 0.685164 -1.144052
v -2.366735 0.685843 -1.143322
v -2.370519 0.695226 -1.130059
v -2.369707 0.695754 -1.128551
v -2.370887 0.694413 -1.131773
v -2.369484 0.695615 -1.128596
v -2.36541 0.696674 -1.127071
v -2.364101 0.696811 -1.128578
v -2.366912 0.696379 -1.126316
v -2.364259 0.696601 -1.128621
v -2.363168 0.696612 -1.130095
v -2.362545 0.695986 -1.131814
v -2.364119 0.685415 -1.144153
v -2.36798 0.686803 -1.142326
v -2.369223 0.688445 -1.140302
v -2.368424 0.696105 -1.127056
v -2.370839 0.693209 -1.133883
v -2.370505 0.691737 -1.136129
v -2.362171 0.694843 -1.133925
v -2.361968 0.693347 -1.136171
v -2.361854 0.691658 -1.138292
v -2.370015 0.69012 -1.138252
vn 0.0433 0.9297 -0.3658
vn -0.1749 0.9188 -0.3537
vn -0.171 0.8963 -0.409
vn 0.0241 0.9061 -0.4224
vn 0.0165 0.895 -0.4457
vn 0.0352 0.9296 -0.3668
vn 0.0475 0.9498 -0.3092
vn -0.0023 0.9597 -0.281
vn -0.1799 0.9473 -0.2648
vn -0.3822 0.8494 -0.3637
vn -0.3749 0.8523 -0.3648
vn -0.3455 0.8267 -0.444
vn -0.3563 0.8343 -0.4206
vn -0.3498 0.8943 -0.2792
vn -0.393 0.8668 -0.3069
vn -0.2534 0.7417 -0.621
vn -0.2167 0.7459 -0.6297
vn -0.21 0.7261 -0.6547
vn -0.2573 0.7186 -0.646
vn -0.1425 0.7389 -0.6586
vn -0.1474 0.7658 -0.6259
vn -0.1565 0.8157 -0.5569
vn -0.2743 0.7826 -0.5587
vn -0.2464 0.7803 -0.5748
vn -0.0398 0.7819 -0.6221
vn -0.0281 0.7618 -0.6471
vn -0.075 0.7516 -0.6553
vn -0.0757 0.7724 -0.6305
vn -0.0601 0.8154 -0.5757
vn -0.0347 0.8278 -0.5598
vn -0.0108 0.8744 -0.485
vn -0.1652 0.8638 -0.476
vn -0.0252 0.8604 -0.509
vn -0.3129 0.8174 -0.4835
vn -0.2945 0.8096 -0.5077
vn -0.2803 0.7023 -0.6544
vn -0.2296 0.7081 -0.6678
vn -0.2583 0.6884 -0.6777
vn -0.294 0.6576 -0.6935
vn -0.133 0.6871 -0.7143
vn -0.1401 0.7257 -0.6735
vn -0.0009 0.7549 -0.6558
vn 0.0279 0.7183 -0.6952
vn -0.0165 0.7339 -0.679
vn -0.0504 0.7418 -0.6687
vn -0.0727 -0.9199 0.3853
vn 0.1739 -0.913 0.3691
vn 0.1694 -0.888 0.4275
vn -0.1611 -0.8846 0.4375
vn -0.2781 -0.8514 0.4446
vn -0.2536 -0.8615 0.4398
vn -0.1847 -0.8729 0.4515
vn -0.0395 -0.9054 0.4227
vn 0.171 -0.8964 0.4089
vn 0.4063 -0.8296 0.3829
vn 0.5542 -0.709 0.436
vn 0.5732 -0.691 0.4404
vn 0.476 -0.7648 0.4342
vn 0.3703 -0.8282 0.4207
vn 0.4942 -0.7449 0.4482
vn 0.2692 -0.738 0.6187
vn 0.376 -0.708 0.5977
vn 0.3923 -0.7348 0.5533
vn 0.2888 -0.7785 0.5572
vn 0.1564 -0.8156 0.557
vn 0.1474 -0.7657 0.6261
vn 0.1425 -0.7388 0.6587
vn 0.2757 -0.7157 0.6417
vn 0.3988 -0.6973 0.5955
vn 0.0238 -0.7843 0.6199
vn 0.0197 -0.8292 0.5585
vn -0.0927 -0.8262 0.5557
vn -0.0869 -0.7952 0.6001
vn -0.1118 -0.7936 0.598
vn 0.0098 -0.7658 0.643
vn -0.0038 -0.875 0.4841
vn 0.1651 -0.8638 0.476
vn -0.1273 -0.859 0.4958
vn 0.3267 -0.8127 0.4824
vn 0.436 -0.7529 0.4931
vn 0.3069 -0.7075 0.6366
vn 0.4517 -0.6967 0.5573
vn 0.1415 -0.7337 0.6645
vn 0.1477 -0.7677 0.6236
vn 0.3828 -0.7266 0.5705
vn 0.4827 -0.6984 0.5284
vn -0.0222 -0.7696 0.6382
vn -0.1617 -0.8123 0.5604
vn -0.1902 -0.8252 0.5318
vn -0.0866 -0.815 0.5729
vn 0.9056 0.0786 -0.4167
vn 0.7085 -0.1655 -0.686
vn 0.9464 0.1524 -0.2848
vn 0.4827 -0.6984 0.5284
vn -0.1216 -0.648 -0.7518
vn -0.6064 -0.4133 -0.6793
vn 0.1355 -0.7349 -0.6644
vn -0.1902 -0.8252 0.5318
vn -0.9528 0.2526 0.1683
vn -0.821 0.3601 0.4429
vn -0.9914 0.1307 0.0009
vn -0.2781 -0.8514 0.4446
vn 0.4153 0.4721 0.7776
vn 0.6376 0.635 0.4361
vn -0.0491 0.284 0.9575
vn 0.5732 -0.691 0.4404
vn 0.7969 0.5827 0.1594
vn 0.8758 0.4826 -0.0084
vn 0.3425 -0.5604 -0.7541
vn -0.876 -0.2573 -0.4078
vn -0.9396 -0.203 -0.2756
vn -0.5515 0.2901 0.7821
vn -0.995 0.021 -0.0976
vn -0.9883 -0.0535 -0.1429
vn 0.9182 0.3813 -0.1073
vn 0.9386 0.3093 -0.1529
vn 0.9518 0.2359 -0.1958
vn -0.9743 -0.1269 -0.1862
vt 0.839504 0.118056
vt 0.856743 0.205307
vt 0.741230 0.205307
vt 0.734555 0.106726
vt 0.724541 0.032791
vt 0.813647 0.052618
vt 0.868992 0.081539
vt 0.913398 0.129584
vt 0.940923 0.205307
vt 0.839504 0.292557
vt 0.813647 0.357995
vt 0.724541 0.377822
vt 0.734555 0.303887
vt 0.913398 0.281029
vt 0.868992 0.329074
vt 0.369475 0.299954
vt 0.368286 0.370940
vt 0.245840 0.351447
vt 0.246397 0.288815
vt 0.246768 0.205307
vt 0.370268 0.205307
vt 0.494283 0.205307
vt 0.492822 0.304944
vt 0.490632 0.379672
vt 0.369475 0.110659
vt 0.246397 0.121798
vt 0.245841 0.059166
vt 0.368286 0.039673
vt 0.490632 0.030941
vt 0.492822 0.105669
vt 0.616755 0.103478
vt 0.619174 0.205307
vt 0.613127 0.027106
vt 0.616755 0.307135
vt 0.613126 0.383507
vt 0.123273 0.268175
vt 0.123047 0.315326
vt 0.054743 0.283353
vt 0.030912 0.249131
vt 0.030973 0.205306
vt 0.123423 0.205306
vt 0.123273 0.142438
vt 0.030912 0.161481
vt 0.054744 0.127260
vt 0.123047 0.095287
vt 0.839504 0.118056
vt 0.856743 0.205307
vt 0.968983 0.205307
vt 0.938030 0.133427
vt 0.876123 0.061548
vt 0.805028 0.030806
vt 0.721203 0.008146
vt 0.734555 0.106726
vt 0.741230 0.205307
vt 0.839504 0.292557
vt 0.805028 0.379807
vt 0.876123 0.349065
vt 0.938030 0.277186
vt 0.734555 0.303887
vt 0.721203 0.402467
vt 0.369475 0.299954
vt 0.367890 0.394602
vt 0.489902 0.404581
vt 0.492822 0.304944
vt 0.494283 0.205307
vt 0.370268 0.205307
vt 0.246768 0.205307
vt 0.246397 0.288815
vt 0.245655 0.372324
vt 0.369475 0.110659
vt 0.492822 0.105669
vt 0.489902 0.006032
vt 0.367890 0.016011
vt 0.245655 0.038289
vt 0.246397 0.121798
vt 0.616755 0.103478
vt 0.619174 0.205307
vt 0.611917 0.001649
vt 0.616755 0.307135
vt 0.611917 0.408964
vt 0.123273 0.268175
vt 0.122972 0.331043
vt 0.123423 0.205306
vt 0.000156 0.205306
vt 0.000125 0.242784
vt 0.000064 0.280261
vt 0.123273 0.142438
vt 0.122972 0.079570
vt 0.000064 0.130352
vt 0.000125 0.167829
vt 0.122972 0.331043
vt 0.030806 0.283587
vt 0.245655 0.372324
vt 0.030806 0.283587
vt 0.000125 0.167829
vt 0.030806 0.127026
vt 0.000156 0.205306
vt 0.030806 0.127026
vt 0.805028 0.030806
vt 0.873826 0.071832
vt 0.721203 0.008146
vt 0.873826 0.071832
vt 0.938030 0.277186
vt 0.873826 0.338781
vt 0.968983 0.205307
vt 0.873826 0.338781
vt 0.805028 0.379807
vt 0.721203 0.402467
vt 0.000125 0.242784
vt 0.122972 0.079570
vt 0.245655 0.038289
vt 0.938030 0.133427
vt 0.611917 0.001649
vt 0.489902 0.006032
vt 0.611917 0.408964
vt 0.489902 0.404581
vt 0.367890 0.394602
vt 0.367890 0.016011
f 1/1/1 2/2/2 3/3/3
f 1/1/1 3/3/3 4/4/4
f 1/1/1 4/4/4 5/5/5
f 1/1/1 5/5/5 6/6/6
f 1/1/1 6/6/6 7/7/7
f 1/1/1 7/7/7 8/8/8
f 1/1/1 8/8/8 9/9/9
f 1/1/1 9/9/9 2/2/2
f 10/10/10 11/11/11 12/12/12
f 10/10/10 12/12/12 13/13/13
f 10/10/10 13/13/13 3/3/3
f 10/10/10 3/3/3 2/2/2
f 10/10/10 2/2/2 9/9/9
f 10/10/10 9/9/9 14/14/14
f 10/10/10 14/14/14 15/15/15
f 10/10/10 15/15/15 11/11/11
f 16/16/16 17/17/17 18/18/18
f 16/16/16 18/18/18 19/19/19
f 16/16/16 19/19/19 20/20/20
f 16/16/16 20/20/20 21/21/21
f 16/16/16 21/21/21 22/22/22
f 16/16/16 22/22/22 23/23/23
f 16/16/16 23/23/23 24/24/24
f 16/16/16 24/24/24 17/17/17
f 25/25/25 21/21/21 20/20/20
f 25/25/25 20/20/20 26/26/26
f 25/25/25 26/26/26 27/27/27
f 25/25/25 27/27/27 28/28/28
f 25/25/25 28/28/28 29/29/29
f 25/25/25 29/29/29 30/30/30
f 25/25/25 30/30/30 22/22/22
f 25/25/25 22/22/22 21/21/21
f 31/31/31 32/32/32 22/22/22
f 31/31/31 22/22/22 30/30/30
f 31/31/31 30/30/30 29/29/29
f 31/31/31 29/29/29 33/33/33
f 31/31/31 33/33/33 5/5/5
f 31/31/31 5/5/5 4/4/4
f 31/31/31 4/4/4 3/3/3
f 31/31/31 3/3/3 32/32/32
f 34/34/34 35/35/35 24/24/24
f 34/34/34 24/24/24 23/23/23
f 34/34/34 23/23/23 22/22/22
f 34/34/34 22/22/22 32/32/32
f 34/34/34 32/32/32 3/3/3
f 34/34/34 3/3/3 13/13/13
f 34/34/34 13/13/13 12/12/12
f 34/34/34 12/12/12 35/35/35
f 36/36/36 37/37/37 38/38/38
f 36/36/36 38/38/38 39/39/39
f 36/36/36 39/39/39 40/40/40
f 36/36/36 40/40/40 41/41/41
f 36/36/36 41/41/41 20/20/20
f 36/36/36 20/20/20 19/19/19
f 36/36/36 19/19/19 18/18/18
f 36/36/36 18/18/18 37/37/37
f 42/42/42 41/41/41 40/40/40
f 42/42/42 40/40/40 43/43/43
f 42/42/42 43/43/43 44/44/44
f 42/42/42 44/44/44 45/45/45
f 42/42/42 45/45/45 27/27/27
f 42/42/42 27/27/27 26/26/26
f 42/42/42 26/26/26 20/20/20
f 42/42/42 20/20/20 41/41/41
f 46/46/46 47/47/47 48/48/48
f 46/46/46 48/48/48 49/49/49
f 46/46/46 49/49/49 50/50/50
f 46/46/46 50/50/50 51/51/51
f 46/46/46 51/51/51 52/52/52
f 46/46/46 52/52/52 53/53/53
f 46/46/46 53/53/53 54/54/54
f 46/46/46 54/54/54 47/47/47
f 55/55/55 56/56/56 57/57/57
f 55/55/55 57/57/57 58/58/58
f 55/55/55 58/58/58 48/48/48
f 55/55/55 48/48/48 47/47/47
f 55/55/55 47/47/47 54/54/54
f 55/55/55 54/54/54 59/59/59
f 55/55/55 59/59/59 60/60/60
f 55/55/55 60/60/60 56/56/56
f 61/61/61 62/62/62 63/63/63
f 61/61/61 63/63/63 64/64/64
f 61/61/61 64/64/64 65/65/65
f 61/61/61 65/65/65 66/66/66
f 61/61/61 66/66/66 67/67/67
f 61/61/61 67/67/67 68/68/68
f 61/61/61 68/68/68 69/69/69
f 61/61/61 69/69/69 62/62/62
f 70/70/70 66/66/66 65/65/65
f 70/70/70 65/65/65 71/71/71
f 70/70/70 71/71/71 72/72/72
f 70/70/70 72/72/72 73/73/73
f 70/70/70 73/73/73 74/74/74
f 70/70/70 74/74/74 75/75/75
f 70/70/70 75/75/75 67/67/67
f 70/70/70 67/67/67 66/66/66
f 76/76/76 77/77/77 54/54/54
f 76/76/76 54/54/54 53/53/53
f 76/76/76 53/53/53 52/52/52
f 76/76/76 52/52/52 78/78/78
f 76/76/76 78/78/78 72/72/72
f 76/76/76 72/72/72 71/71/71
f 76/76/76 71/71/71 65/65/65
f 76/76/76 65/65/65 77/77/77
f 79/79/79 80/80/80 60/60/60
f 79/79/79 60/60/60 59/59/59
f 79/79/79 59/59/59 54/54/54
f 79/79/79 54/54/54 77/77/77
f 79/79/79 77/77/77 65/65/65
f 79/79/79 65/65/65 64/64/64
f 79/79/79 64/64/64 63/63/63
f 79/79/79 63/63/63 80/80/80
f 81/81/81 82/82/82 69/69/69
f 81/81/81 69/69/69 68/68/68
f 81/81/81 68/68/68 67/67/67
f 81/81/81 67/67/67 83/83/83
f 81/81/81 83/83/83 84/84/84
f 81/81/81 84/84/84 85/85/85
f 81/81/81 85/85/85 86/86/86
f 81/81/81 86/86/86 82/82/82
f 87/87/87 83/83/83 67/67/67
f 87/87/87 67/67/67 75/75/75
f 87/87/87 75/75/75 74/74/74
f 87/87/87 74/74/74 88/88/88
f 87/87/87 88/88/88 89/89/89
f 87/87/87 89/89/89 90/90/90
f 87/87/87 90/90/90 84/84/84
f 87/87/87 84/84/84 83/83/83
f 91/91/91 92/92/92 38/38/38
f 91/91/91 38/38/38 37/37/37
f 91/91/91 37/37/37 18/18/18
f 91/91/91 18/18/18 93/93/93
f 91/91/91 93/93/93 69/69/69
f 91/91/91 69/69/69 82/82/82
f 91/91/91 82/82/82 94/94/94
f 91/91/91 94/94/94 92/92/92
f 95/95/95 96/96/96 44/44/44
f 95/95/95 44/44/44 43/43/43
f 95/95/95 43/43/43 40/40/40
f 95/95/95 40/40/40 97/97/97
f 95/95/95 97/97/97 84/84/84
f 95/95/95 84/84/84 90/90/90
f 95/95/95 90/90/90 98/98/98
f 95/95/95 98/98/98 96/96/96
f 99/99/99 100/100/100 7/7/7
f 99/99/99 7/7/7 6/6/6
f 99/99/99 6/6/6 5/5/5
f 99/99/99 5/5/5 101/101/101
f 99/99/99 101/101/101 52/52/52
f 99/99/99 52/52/52 51/51/51
f 99/99/99 51/51/51 102/102/102
f 99/99/99 102/102/102 100/100/100
f 103/103/103 104/104/104 15/15/15
f 103/103/103 15/15/15 14/14/14
f 103/103/103 14/14/14 9/9/9
f 103/103/103 9/9/9 105/105/105
f 103/103/103 105/105/105 48/48/48
f 103/103/103 48/48/48 58/58/58
f 103/103/103 58/58/58 106/106/106
f 103/103/103 106/106/106 104/104/104
f 107/107/107 108/108/108 12/12/12
f 107/107/107 12/12/12 11/11/11
f 107/107/107 11/11/11 15/15/15
f 107/107/107 15/15/15 104/104/104
f 107/107/107 104/104/104 106/106/106
f 107/107/107 106/106/106 56/56/56
f 107/107/107 56/56/56 60/60/60
f 107/107/107 60/60/60 108/108/108
f 109/109/109 97/97/97 40/40/40
f 109/109/109 40/40/40 39/39/39
f 109/109/109 39/39/39 38/38/38
f 109/109/109 38/38/38 92/92/92
f 109/109/109 92/92/92 94/94/94
f 109/109/109 94/94/94 85/85/85
f 109/109/109 85/85/85 84/84/84
f 109/109/109 84/84/84 97/97/97
f 110/110/110 111/111/111 27/27/27
f 110/110/110 27/27/27 45/45/45
f 110/110/110 45/45/45 44/44/44
f 110/110/110 44/44/44 96/96/96
f 110/110/110 96/96/96 98/98/98
f 110/110/110 98/98/98 88/88/88
f 110/110/110 88/88/88 74/74/74
f 110/110/110 74/74/74 111/111/111
f 112/112/112 105/105/105 9/9/9
f 112/112/112 9/9/9 8/8/8
f 112/112/112 8/8/8 7/7/7
f 112/112/112 7/7/7 100/100/100
f 112/112/112 100/100/100 102/102/102
f 112/112/112 102/102/102 49/49/49
f 112/112/112 49/49/49 48/48/48
f 112/112/112 48/48/48 105/105/105
f 113/113/113 101/101/101 5/5/5
f 113/113/113 5/5/5 33/33/33
f 113/113/113 33/33/33 29/29/29
f 113/113/113 29/29/29 114/114/114
f 113/113/113 114/114/114 72/72/72
f 113/113/113 72/72/72 78/78/78
f 113/113/113 78/78/78 52/52/52
f 113/113/113 52/52/52 101/101/101
f 115/115/115 116/116/116 24/24/24
f 115/115/115 24/24/24 35/35/35
f 115/115/115 35/35/35 12/12/12
f 115/115/115 12/12/12 108/108/108
f 115/115/115 108/108/108 60/60/60
f 115/115/115 60/60/60 80/80/80
f 115/115/115 80/80/80 63/63/63
f 115/115/115 63/63/63 116/116/116
f 117/117/117 93/93/93 18/18/18
f 117/117/117 18/18/18 17/17/17
f 117/117/117 17/17/17 24/24/24
f 117/117/117 24/24/24 116/116/116
f 117/117/117 116/116/116 63/63/63
f 117/117/117 63/63/63 62/62/62
f 117/117/117 62/62/62 69/69/69
f 117/117/117 69/69/69 93/93/93
f 118/118/118 114/114/114 29/29/29
f 118/118/118 29/29/29 28/28/28
f 118/118/118 28/28/28 27/27/27
f 118/118/118 27/27/27 111/111/111
f 118/118/118 111/111/111 74/74/74
f 118/118/118 74/74/74 73/73/73
f 118/118/118 73/73/73 72/72/72
f 118/118/118 72/72/72 114/114/114
