v -2.346442 0.695541 -1.133229
v -2.345204 0.696312 -1.135335
v -2.34808 0.695035 -1.136648
v -2.349135 0.694238 -1.134126
v -2.350181 0.693787 -1.132235
v -2.347826 0.695034 -1.131736
v -2.346109 0.695747 -1.131893
v -2.344447 0.696383 -1.132707
v -2.343041 0.697148 -1.134398
v -2.345218 0.697356 -1.137674
v -2.345679 0.698217 -1.139531
v -2.347742 0.697402 -1.14109
v -2.347744 0.6963 -1.139177
v -2.343387 0.697953 -1.136555
v -2.34437 0.698324 -1.138206
v -2.355729 0.690747 -1.143581
v -2.355423 0.69169 -1.145424
v -2.357877 0.689175 -1.146505
v -2.358135 0.688331 -1.144874
v -2.358591 0.687308 -1.142698
v -2.356258 0.689598 -1.14112
v -2.353758 0.691702 -1.139573
v -2.353221 0.692922 -1.142143
v -2.352926 0.693938 -1.144067
v -2.357093 0.688726 -1.138631
v -2.35934 0.686544 -1.140496
v -2.35999 0.686043 -1.138833
v -2.357812 0.688149 -1.136751
v -2.355425 0.690235 -1.134994
v -2.354647 0.690809 -1.136965
v -2.351932 0.692653 -1.135417
v -2.350982 0.693506 -1.138072
v -2.352797 0.692151 -1.133405
v -2.350485 0.694798 -1.140671
v -2.350262 0.695909 -1.142612
v -2.360561 0.685734 -1.145912
v -2.360414 0.686404 -1.147127
v -2.361821 0.684653 -1.147173
v -2.362363 0.683697 -1.146601
v -2.362527 0.683114 -1.145493
v -2.360867 0.684941 -1.14429
v -2.36146 0.684401 -1.142645
v -2.362979 0.682783 -1.144362
v -2.36293 0.683009 -1.143145
v -2.361991 0.684065 -1.141399
v -2.346317 0.695306 -1.133249
v -2.345068 0.696088 -1.135389
v -2.342942 0.696978 -1.13444
v -2.344357 0.696204 -1.132722
v -2.346044 0.695614 -1.131896
v -2.347737 0.694853 -1.131733
v -2.350083 0.693611 -1.132234
v -2.348999 0.694008 -1.134145
v -2.347935 0.694815 -1.136698
v -2.345074 0.697147 -1.137761
v -2.345567 0.69807 -1.139612
v -2.34429 0.698212 -1.138263
v -2.343282 0.697797 -1.136623
v -2.347592 0.696095 -1.139256
v -2.347624 0.697256 -1.141164
v -2.35554 0.690562 -1.143631
v -2.355279 0.691556 -1.145472
v -2.35279 0.693799 -1.144121
v -2.353042 0.69273 -1.142201
v -2.353586 0.691499 -1.139608
v -2.356074 0.689404 -1.141149
v -2.3584 0.68712 -1.142722
v -2.357939 0.688152 -1.144919
v -2.357728 0.689046 -1.146549
v -2.356915 0.688524 -1.138638
v -2.354481 0.690597 -1.136978
v -2.355304 0.690073 -1.134992
v -2.357682 0.687994 -1.136746
v -2.359855 0.685892 -1.138824
v -2.359156 0.686348 -1.140499
v -2.351782 0.692432 -1.135434
v -2.350824 0.693294 -1.138115
v -2.352689 0.691981 -1.133404
v -2.35032 0.694598 -1.14074
v -2.350135 0.695766 -1.142676
v -2.360361 0.685559 -1.145957
v -2.360262 0.686278 -1.147173
v -2.360673 0.684755 -1.144313
v -2.362382 0.682976 -1.14551
v -2.362213 0.683567 -1.146636
v -2.361709 0.684558 -1.147204
v -2.361274 0.684207 -1.142644
v -2.361855 0.683916 -1.141387
v -2.362828 0.682899 -1.143139
v -2.362839 0.682638 -1.144361
v -2.360296 0.686572 -1.147555
v -2.362259 0.684185 -1.14749
v -2.357724 0.6894 -1.147071
v -2.361709 0.684558 -1.147204
v -2.363423 0.68218 -1.144934
v -2.36337 0.682537 -1.143454
v -2.363016 0.682444 -1.145902
v -2.362828 0.682899 -1.143139
v -2.348249 0.694784 -1.131233
v -2.346081 0.695741 -1.131566
v -2.350487 0.693558 -1.131601
v -2.346044 0.695614 -1.131896
v -2.342731 0.698083 -1.136212
v -2.3442 0.698529 -1.138396
v -2.342277 0.697351 -1.134105
v -2.34429 0.698212 -1.138263
v -2.345782 0.69844 -1.14019
v -2.347688 0.697706 -1.141763
v -2.362897 0.68296 -1.146846
v -2.362109 0.683886 -1.140976
v -2.360147 0.685808 -1.138273
v -2.343742 0.696583 -1.13254
v -2.353038 0.691907 -1.132731
v -2.355631 0.689971 -1.134334
v -2.35013 0.696217 -1.14329
v -2.352767 0.694217 -1.144735
v -2.355256 0.691946 -1.146063
v -2.357995 0.687887 -1.13612
vn -0.415 0.9097 0.0157
vn -0.4618 0.8584 0.2232
vn -0.5119 0.8354 0.2
vn -0.4726 0.8812 0.0138
vn -0.496 0.8682 0.0124
vn -0.4181 0.9081 0.023
vn -0.3611 0.932 0.0313
vn -0.3485 0.9332 0.0879
vn -0.3802 0.8882 0.2579
vn -0.522 0.7511 0.4042
vn -0.5213 0.7552 0.3974
vn -0.5871 0.7333 0.343
vn -0.5682 0.7394 0.3611
vn -0.4359 0.8036 0.4052
vn -0.4719 0.7678 0.4334
vn -0.7249 0.6616 0.1916
vn -0.7237 0.6724 0.1551
vn -0.7442 0.6535 0.1384
vn -0.7481 0.6375 0.1842
vn -0.7306 0.6785 0.0757
vn -0.7028 0.7051 0.0943
vn -0.6432 0.7544 0.1308
vn -0.6742 0.6998 0.2359
vn -0.6819 0.7023 0.2045
vn -0.6712 0.7412 -0.0034
vn -0.6905 0.7229 -0.025
vn -0.7102 0.7038 0.0151
vn -0.6883 0.7249 0.0264
vn -0.635 0.7717 0.0345
vn -0.6139 0.7891 0.0171
vn -0.5394 0.8416 0.0237
vn -0.5719 0.8025 0.17
vn -0.5653 0.8244 0.028
vn -0.6154 0.7291 0.2995
vn -0.633 0.724 0.274
vn -0.761 0.6168 0.2006
vn -0.7606 0.6316 0.1499
vn -0.7763 0.6067 0.1709
vn -0.7985 0.5694 0.1951
vn -0.7772 0.6278 0.0422
vn -0.7432 0.6656 0.067
vn -0.6908 0.7209 -0.0544
vn -0.7178 0.6892 -0.0988
vn -0.7155 0.6968 -0.0497
vn -0.7154 0.6985 -0.0135
vn 0.4249 -0.905 0.0193
vn 0.4758 -0.8524 -0.2169
vn 0.5286 -0.8269 -0.192
vn 0.448 -0.8855 0.1233
vn 0.4203 -0.8746 0.2415
vn 0.4233 -0.88 0.2154
vn 0.4541 -0.8779 0.1517
vn 0.4686 -0.8834 0.0009
vn 0.5118 -0.8354 -0.2001
vn 0.5453 -0.7265 -0.4181
vn 0.6264 -0.5789 -0.522
vn 0.6344 -0.5574 -0.5356
vn 0.6082 -0.648 -0.4584
vn 0.5717 -0.7306 -0.3733
vn 0.6248 -0.6249 -0.468
vn 0.7267 -0.6551 -0.2064
vn 0.7332 -0.6061 -0.3081
vn 0.6972 -0.6308 -0.3406
vn 0.6764 -0.6931 -0.2492
vn 0.6433 -0.7543 -0.1307
vn 0.703 -0.7049 -0.0941
vn 0.7307 -0.6784 -0.0757
vn 0.7487 -0.6312 -0.2023
vn 0.7364 -0.5916 -0.3282
vn 0.6651 -0.7465 0.0175
vn 0.6087 -0.7934 -0.0036
vn 0.5752 -0.8116 0.1022
vn 0.6168 -0.7787 0.1146
vn 0.608 -0.7819 0.1378
vn 0.6819 -0.7303 0.0405
vn 0.5347 -0.845 -0.0102
vn 0.5719 -0.8025 -0.17
vn 0.511 -0.8522 0.1124
vn 0.6178 -0.7218 -0.312
vn 0.6527 -0.6422 -0.4019
vn 0.7516 -0.6175 -0.2318
vn 0.7141 -0.5821 -0.3887
vn 0.7356 -0.6735 -0.0723
vn 0.7008 -0.7069 -0.0956
vn 0.7105 -0.624 -0.3253
vn 0.695 -0.5788 -0.4265
vn 0.6688 -0.7402 0.0687
vn 0.5599 -0.8107 0.1711
vn 0.5259 -0.8296 0.1878
vn 0.5925 -0.7989 0.1033
vn -0.1598 0.2344 -0.9589
vn -0.4513 -0.0494 -0.891
vn -0.0287 0.3185 -0.9475
vn 0.695 -0.5788 -0.4265
vn -0.7011 -0.6821 -0.208
vn -0.7821 -0.5402 0.3106
vn -0.5405 -0.7164 -0.4411
vn 0.5259 -0.8296 0.1878
vn -0.1179 0.0743 0.9902
vn 0.1726 0.2127 0.9617
vn -0.2795 -0.058 0.9584
vn 0.4203 -0.8746 0.2415
vn 0.8197 0.5654 -0.0916
vn 0.5393 0.7566 -0.3697
vn 0.8817 0.2989 0.365
vn 0.6344 -0.5574 -0.5356
vn 0.3219 0.7264 -0.6072
vn 0.1904 0.6379 -0.7461
vn -0.5845 -0.509 -0.6319
vn -0.6077 -0.4293 0.6681
vn -0.5027 -0.3842 0.7744
vn 0.5767 0.2051 0.7908
vn -0.3662 -0.1696 0.9149
vn -0.4015 -0.2428 0.8831
vn 0.1153 0.5436 -0.8314
vn 0.0831 0.4754 -0.8758
vn 0.0514 0.4045 -0.9131
vn -0.4328 -0.3134 0.8452
vt 0.839504 0.118056
vt 0.856743 0.205307
vt 0.741230 0.205307
vt 0.734555 0.106726
vt 0.724541 0.032791
vt 0.813647 0.052618
vt 0.868992 0.081539
vt 0.913398 0.129584
vt 0.940923 0.205307
vt 0.839504 0.292557
vt 0.813647 0.357995
vt 0.724541 0.377822
vt 0.734555 0.303887
vt 0.913398 0.281029
vt 0.868992 0.329074
vt 0.369475 0.299954
vt 0.368286 0.370940
vt 0.245840 0.351447
vt 0.246397 0.288815
vt 0.246768 0.205307
vt 0.370268 0.205307
vt 0.494283 0.205307
vt 0.492822 0.304944
vt 0.490632 0.379672
vt 0.369475 0.110659
vt 0.246397 0.121798
vt 0.245841 0.059166
vt 0.368286 0.039673
vt 0.490632 0.030941
vt 0.492822 0.105669
vt 0.616755 0.103478
vt 0.619174 0.205307
vt 0.613127 0.027106
vt 0.616755 0.307135
vt 0.613126 0.383507
vt 0.123273 0.268175
vt 0.123047 0.315326
vt 0.054743 0.283353
vt 0.030912 0.249131
vt 0.030973 0.205306
vt 0.123423 0.205306
vt 0.123273 0.142438
vt 0.030912 0.161481
vt 0.054744 0.127260
vt 0.123047 0.095287
vt 0.839504 0.118056
vt 0.856743 0.205307
vt 0.968983 0.205307
vt 0.938030 0.133427
vt 0.876123 0.061548
vt 0.805028 0.030806
vt 0.721203 0.008146
vt 0.734555 0.106726
vt 0.741230 0.205307
vt 0.839504 0.292557
vt 0.805028 0.379807
vt 0.876123 0.349065
vt 0.938030 0.277186
vt 0.734555 0.303887
vt 0.721203 0.402467
vt 0.369475 0.299954
vt 0.367890 0.394602
vt 0.489902 0.404581
vt 0.492822 0.304944
vt 0.494283 0.205307
vt 0.370268 0.205307
vt 0.246768 0.205307
vt 0.246397 0.288815
vt 0.245655 0.372324
vt 0.369475 0.110659
vt 0.492822 0.105669
vt 0.489902 0.006032
vt 0.367890 0.016011
vt 0.245655 0.038289
vt 0.246397 0.121798
vt 0.616755 0.103478
vt 0.619174 0.205307
vt 0.611917 0.001649
vt 0.616755 0.307135
vt 0.611917 0.408964
vt 0.123273 0.268175
vt 0.122972 0.331043
vt 0.123423 0.205306
vt 0.000156 0.205306
vt 0.000125 0.242784
vt 0.000064 0.280261
vt 0.123273 0.142438
vt 0.122972 0.079570
vt 0.000064 0.130352
vt 0.000125 0.167829
vt 0.122972 0.331043
vt 0.030806 0.283587
vt 0.245655 0.372324
vt 0.030806 0.283587
vt 0.000125 0.167829
vt 0.030806 0.127026
vt 0.000156 0.205306
vt 0.030806 0.127026
vt 0.805028 0.030806
vt 0.873826 0.071832
vt 0.721203 0.008146
vt 0.873826 0.071832
vt 0.938030 0.277186
vt 0.873826 0.338781
vt 0.968983 0.205307
vt 0.873826 0.338781
vt 0.805028 0.379807
vt 0.721203 0.402467
vt 0.000125 0.242784
vt 0.122972 0.079570
vt 0.245655 0.038289
vt 0.938030 0.133427
vt 0.611917 0.001649
vt 0.489902 0.006032
vt 0.611917 0.408964
vt 0.489902 0.404581
vt 0.367890 0.394602
vt 0.367890 0.016011
f 1/1/1 2/2/2 3/3/3
f 1/1/1 3/3/3 4/4/4
f 1/1/1 4/4/4 5/5/5
f 1/1/1 5/5/5 6/6/6
f 1/1/1 6/6/6 7/7/7
f 1/1/1 7/7/7 8/8/8
f 1/1/1 8/8/8 9/9/9
f 1/1/1 9/9/9 2/2/2
f 10/10/10 11/11/11 12/12/12
f 10/10/10 12/12/12 13/13/13
f 10/10/10 13/13/13 3/3/3
f 10/10/10 3/3/3 2/2/2
f 10/10/10 2/2/2 9/9/9
f 10/10/10 9/9/9 14/14/14
f 10/10/10 14/14/14 15/15/15
f 10/10/10 15/15/15 11/11/11
f 16/16/16 17/17/17 18/18/18
f 16/16/16 18/18/18 19/19/19
f 16/16/16 19/19/19 20/20/20
f 16/16/16 20/20/20 21/21/21
f 16/16/16 21/21/21 22/22/22
f 16/16/16 22/22/22 23/23/23
f 16/16/16 23/23/23 24/24/24
f 16/16/16 24/24/24 17/17/17
f 25/25/25 21/21/21 20/20/20
f 25/25/25 20/20/20 26/26/26
f 25/25/25 26/26/26 27/27/27
f 25/25/25 27/27/27 28/28/28
f 25/25/25 28/28/28 29/29/29
f 25/25/25 29/29/29 30/30/30
f 25/25/25 30/30/30 22/22/22
f 25/25/25 22/22/22 21/21/21
f 31/31/31 32/32/32 22/22/22
f 31/31/31 22/22/22 30/30/30
f 31/31/31 30/30/30 29/29/29
f 31/31/31 29/29/29 33/33/33
f 31/31/31 33/33/33 5/5/5
f 31/31/31 5/5/5 4/4/4
f 31/31/31 4/4/4 3/3/3
f 31/31/31 3/3/3 32/32/32
f 34/34/34 35/35/35 24/24/24
f 34/34/34 24/24/24 23/23/23
f 34/34/34 23/23/23 22/22/22
f 34/34/34 22/22/22 32/32/32
f 34/34/34 32/32/32 3/3/3
f 34/34/34 3/3/3 13/13/13
f 34/34/34 13/13/13 12/12/12
f 34/34/34 12/12/12 35/35/35
f 36/36/36 37/37/37 38/38/38
f 36/36/36 38/38/38 39/39/39
f 36/36/36 39/39/39 40/40/40
f 36/36/36 40/40/40 41/41/41
f 36/36/36 41/41/41 20/20/20
f 36/36/36 20/20/20 19/19/19
f 36/36/36 19/19/19 18/18/18
f 36/36/36 18/18/18 37/37/37
f 42/42/42 41/41/41 40/40/40
f 42/42/42 40/40/40 43/43/43
f 42/42/42 43/43/43 44/44/44
f 42/42/42 44/44/44 45/45/45
f 42/42/42 45/45/45 27/27/27
f 42/42/42 27/27/27 26/26/26
f 42/42/42 26/26/26 20/20/20
f 42/42/42 20/20/20 41/41/41
f 46/46/46 47/47/47 48/48/48
f 46/46/46 48/48/48 49/49/49
f 46/46/46 49/49/49 50/50/50
f 46/46/46 50/50/50 51/51/51
f 46/46/46 51/51/51 52/52/52
f 46/46/46 52/52/52 53/53/53
f 46/46/46 53/53/53 54/54/54
f 46/46/46 54/54/54 47/47/47
f 55/55/55 56/56/56 57/57/57
f 55/55/55 57/57/57 58/58/58
f 55/55/55 58/58/58 48/48/48
f 55/55/55 48/48/48 47/47/47
f 55/55/55 47/47/47 54/54/54
f 55/55/55 54/54/54 59/59/59
f 55/55/55 59/59/59 60/60/60
f 55/55/55 60/60/60 56/56/56
f 61/61/61 62/62/62 63/63/63
f 61/61/61 63/63/63 64/64/64
f 61/61/61 64/64/64 65/65/65
f 61/61/61 65/65/65 66/66/66
f 61/61/61 66/66/66 67/67/67
f 61/61/61 67/67/67 68/68/68
f 61/61/61 68/68/68 69/69/69
f 61/61/61 69/69/69 62/62/62
f 70/70/70 66/66/66 65/65/65
f 70/70/70 65/65/65 71/71/71
f 70/70/70 71/71/71 72/72/72
f 70/70/70 72/72/72 73/73/73
f 70/70/70 73/73/73 74/74/74
f 70/70/70 74/74/74 75/75/75
f 70/70/70 75/75/75 67/67/67
f 70/70/70 67/67/67 66/66/66
f 76/76/76 77/77/77 54/54/54
f 76/76/76 54/54/54 53/53/53
f 76/76/76 53/53/53 52/52/52
f 76/76/76 52/52/52 78/78/78
f 76/76/76 78/78/78 72/72/72
f 76/76/76 72/72/72 71/71/71
f 76/76/76 71/71/71 65/65/65
f 76/76/76 65/65/65 77/77/77
f 79/79/79 80/80/80 60/60/60
f 79/79/79 60/60/60 59/59/59
f 79/79/79 59/59/59 54/54/54
f 79/79/79 54/54/54 77/77/77
f 79/79/79 77/77/77 65/65/65
f 79/79/79 65/65/65 64/64/64
f 79/79/79 64/64/64 63/63/63
f 79/79/79 63/63/63 80/80/80
f 81/81/81 82/82/82 69/69/69
f 81/81/81 69/69/69 68/68/68
f 81/81/81 68/68/68 67/67/67
f 81/81/81 67/67/67 83/83/83
f 81/81/81 83/83/83 84/84/84
f 81/81/81 84/84/84 85/85/85
f 81/81/81 85/85/85 86/86/86
f 81/81/81 86/86/86 82/82/82
f 87/87/87 83/83/83 67/67/67
f 87/87/87 67/67/67 75/75/75
f 87/87/87 75/75/75 74/74/74
f 87/87/87 74/74/74 88/88/88
f 87/87/87 88/88/88 89/89/89
f 87/87/87 89/89/89 90/90/90
f 87/87/87 90/90/90 84/84/84
f 87/87/87 84/84/84 83/83/83
f 91/91/91 92/92/92 38/38/38
f 91/91/91 38/38/38 37/37/37
f 91/91/91 37/37/37 18/18/18
f 91/91/91 18/18/18 93/93/93
f 91/91/91 93/93/93 69/69/69
f 91/91/91 69/69/69 82/82/82
f 91/91/91 82/82/82 94/94/94
f 91/91/91 94/94/94 92/92/92
f 95/95/95 96/96/96 44/44/44
f 95/95/95 44/44/44 43/43/43
f 95/95/95 43/43/43 40/40/40
f 95/95/95 40/40/40 97/97/97
f 95/95/95 97/97/97 84/84/84
f 95/95/95 84/84/84 90/90/90
f 95/95/95 90/90/90 98/98/98
f 95/95/95 98/98/98 96/96/96
f 99/99/99 100/100/100 7/7/7
f 99/99/99 7/7/7 6/6/6
f 99/99/99 6/6/6 5/5/5
f 99/99/99 5/5/5 101/101/101
f 99/99/99 101/101/101 52/52/52
f 99/99/99 52/52/52 51/51/51
f 99/99/99 51/51/51 102/102/102
f 99/99/99 102/102/102 100/100/100
f 103/103/103 104/104/104 15/15/15
f 103/103/103 15/15/15 14/14/14
f 103/103/103 14/14/14 9/9/9
f 103/103/103 9/9/9 105/105/105
f 103/103/103 105/105/105 48/48/48
f 103/103/103 48/48/48 58/58/58
f 103/103/103 58/58/58 106/106/106
f 103/103/103 106/106/106 104/104/104
f 107/107/107 108/108/108 12/12/12
f 107/107/107 12/12/12 11/11/11
f 107/107/107 11/11/11 15/15/15
f 107/107/107 15/15/15 104/104/104
f 107/107/107 104/104/104 106/106/106
f 107/107/107 106/106/106 56/56/56
f 107/107/107 56/56/56 60/60/60
f 107/107/107 60/60/60 108/108/108
f 109/109/109 97/97/97 40/40/40
f 109/109/109 40/40/40 39/39/39
f 109/109/109 39/39/39 38/38/38
f 109/109/109 38/38/38 92/92/92
f 109/109/109 92/92/92 94/94/94
f 109/109/109 94/94/94 85/85/85
f 109/109/109 85/85/85 84/84/84
f 109/109/109 84/84/84 97/97/97
f 110/110/110 111/111/111 27/27/27
f 110/110/110 27/27/27 45/45/45
f 110/110/110 45/45/45 44/44/44
f 110/110/110 44/44/44 96/96/96
f 110/110/110 96/96/96 98/98/98
f 110/110/110 98/98/98 88/88/88
f 110/110/110 88/88/88 74/74/74
f 110/110/110 74/74/74 111/111/111
f 112/112/112 105/105/105 9/9/9
f 112/112/112 9/9/9 8/8/8
f 112/112/112 8/8/8 7/7/7
f 112/112/112 7/7/7 100/100/100
f 112/112/112 100/100/100 102/102/102
f 112/112/112 102/102/102 49/49/49
f 112/112/112 49/49/49 48/48/48
f 112/112/112 48/48/48 105/105/105
f 113/113/113 101/101/101 5/5/5
f 113/113/113 5/5/5 33/33/33
f 113/113/113 33/33/33 29/29/29
f 113/113/113 29/29/29 114/114/114
f 113/113/113 114/114/114 72/72/72
f 113/113/113 72/72/72 78/78/78
f 113/113/113 78/78/78 52/52/52
f 113/113/113 52/52/52 101/101/101
f 115/115/115 116/116/116 24/24/24
f 115/115/115 24/24/24 35/35/35
f 115/115/115 35/35/35 12/12/12
f 115/115/115 12/12/12 108/108/108
f 115/115/115 108/108/108 60/60/60
f 115/115/115 60/60/60 80/80/80
f 115/115/115 80/80/80 63/63/63
f 115/115/115 63/63/63 116/116/116
f 117/117/117 93/93/93 18/18/18
f 117/117/117 18/18/18 17/17/17
f 117/117/117 17/17/17 24/24/24
f 117/117/117 24/24/24 116/116/116
f 117/117/117 116/116/116 63/63/63
f 117/117/117 63/63/63 62/62/62
f 117/117/117 62/62/62 69/69/69
f 117/117/117 69/69/69 93/93/93
f 118/118/118 114/114/114 29/29/29
f 118/118/118 29/29/29 28/28/28
f 118/118/118 28/28/28 27/27/27
f 118/118/118 27/27/27 111/111/111
f 118/118/118 111/111/111 74/74/74
f 118/118/118 74/74/74 73/73/73
f 118/118/118 73/73/73 72/72/72
f 118/118/118 72/72/72 114/114/114
