v -2.412924 0.807174 -1.151284
v -2.411316 0.807374 -1.150605
v -2.410912 0.805877 -1.152356
v -2.412784 0.805777 -1.152902
v -2.414173 0.805761 -1.153504
v -2.414088 0.806988 -1.15211
v -2.413728 0.807643 -1.151072
v -2.412961 0.808099 -1.150069
v -2.411614 0.808409 -1.149271
v -2.409578 0.807522 -1.150808
v -2.408219 0.807598 -1.151275
v -2.407507 0.806454 -1.152556
v -2.408981 0.806173 -1.152361
v -2.410065 0.8084 -1.149657
v -2.408976 0.808138 -1.150396
v -2.407789 0.800577 -1.15693
v -2.406374 0.800815 -1.156896
v -2.406355 0.798641 -1.158173
v -2.407608 0.798427 -1.158193
v -2.409265 0.798191 -1.15831
v -2.409662 0.800314 -1.157072
v -2.410069 0.802334 -1.155694
v -2.408108 0.802621 -1.155559
v -2.406626 0.802885 -1.155545
v -2.411515 0.80019 -1.15746
v -2.410903 0.798084 -1.158662
v -2.412129 0.798041 -1.158995
v -2.412903 0.800135 -1.157825
v -2.413456 0.802175 -1.156516
v -2.412006 0.802215 -1.156113
v -2.412453 0.804101 -1.154553
v -2.41049 0.804192 -1.154087
v -2.413921 0.804103 -1.155024
v -2.408499 0.804513 -1.15399
v -2.40699 0.804824 -1.154039
v -2.407632 0.796215 -1.159439
v -2.406692 0.796394 -1.159461
v -2.407119 0.795078 -1.160138
v -2.407725 0.794522 -1.160347
v -2.408578 0.794371 -1.160352
v -2.408871 0.796024 -1.159499
v -2.410091 0.79596 -1.159789
v -2.40941 0.794346 -1.160587
v -2.410151 0.794763 -1.160569
v -2.411004 0.795946 -1.160074
v -2.412953 0.807037 -1.151165
v -2.41132 0.807238 -1.150481
v -2.411616 0.808306 -1.14918
v -2.412983 0.807995 -1.149982
v -2.41375 0.807567 -1.151008
v -2.414122 0.806885 -1.152023
v -2.414205 0.805662 -1.153412
v -2.412812 0.805646 -1.152777
v -2.410917 0.805746 -1.152226
v -2.409556 0.807391 -1.150682
v -2.40819 0.807502 -1.151179
v -2.408957 0.808065 -1.150326
v -2.410047 0.8083 -1.149564
v -2.408964 0.806046 -1.152229
v -2.407482 0.806361 -1.152456
v -2.407784 0.800475 -1.156776
v -2.406361 0.800739 -1.15678
v -2.406611 0.802804 -1.155434
v -2.4081 0.80251 -1.155411
v -2.410077 0.802221 -1.155549
v -2.409673 0.800209 -1.15692
v -2.409277 0.798093 -1.158154
v -2.407604 0.798331 -1.158036
v -2.406343 0.79857 -1.158055
v -2.411542 0.800084 -1.157311
v -2.412032 0.802101 -1.155971
v -2.413484 0.802089 -1.156411
v -2.412931 0.800056 -1.157714
v -2.412158 0.797965 -1.158882
v -2.410931 0.797985 -1.158509
v -2.41248 0.803978 -1.154419
v -2.410497 0.80407 -1.15395
v -2.41395 0.804011 -1.154926
v -2.408486 0.804393 -1.153851
v -2.406971 0.804736 -1.153933
v -2.407627 0.796122 -1.15928
v -2.406679 0.796325 -1.159341
v -2.408883 0.795929 -1.159341
v -2.408587 0.7943 -1.160234
v -2.407721 0.794452 -1.160228
v -2.407112 0.795027 -1.160049
v -2.41012 0.795862 -1.159635
v -2.411035 0.795872 -1.15996
v -2.410171 0.794709 -1.160484
v -2.409434 0.794274 -1.160471
v -2.406371 0.796424 -1.159414
v -2.407039 0.794651 -1.160365
v -2.40593 0.798681 -1.158114
v -2.407112 0.795027 -1.160049
v -2.409194 0.793776 -1.160801
v -2.410077 0.794335 -1.160797
v -2.408484 0.793788 -1.160584
v -2.410171 0.794709 -1.160484
v -2.414493 0.80688 -1.152347
v -2.41394 0.807715 -1.151047
v -2.414652 0.805711 -1.153664
v -2.41375 0.807567 -1.151008
v -2.410219 0.808648 -1.149232
v -2.408798 0.80825 -1.150316
v -2.411714 0.808708 -1.148786
v -2.408957 0.808065 -1.150326
v -2.407751 0.807581 -1.151388
v -2.407002 0.806507 -1.152576
v -2.407754 0.793926 -1.160596
v -2.411324 0.795909 -1.160119
v -2.412553 0.797993 -1.159056
v -2.412984 0.80836 -1.149626
v -2.414425 0.804062 -1.155138
v -2.413954 0.802123 -1.156605
v -2.406476 0.804889 -1.154008
v -2.406124 0.802937 -1.155491
v -2.405895 0.80086 -1.156833
v -2.413379 0.800082 -1.157897
vn 0.2264 0.7635 -0.6048
vn 0.0099 0.7729 -0.6344
vn 0.0202 0.734 -0.6788
vn 0.2143 0.7248 -0.6547
vn 0.2094 0.7078 -0.6747
vn 0.2188 0.7638 -0.6072
vn 0.2235 0.8 -0.5568
vn 0.1714 0.8217 -0.5435
vn -0.0063 0.828 -0.5607
vn -0.1999 0.7192 -0.6654
vn -0.1921 0.721 -0.6657
vn -0.1534 0.67 -0.7263
vn -0.1669 0.6852 -0.7089
vn -0.1769 0.7854 -0.5932
vn -0.2178 0.754 -0.6196
vn -0.0445 0.5275 -0.8484
vn -0.0065 0.5259 -0.8505
vn 0.0016 0.4989 -0.8666
vn -0.047 0.4982 -0.8658
vn 0.0699 0.505 -0.8603
vn 0.063 0.5411 -0.8386
vn 0.049 0.6105 -0.7905
vn -0.0702 0.5872 -0.8064
vn -0.0404 0.5779 -0.8151
vn 0.1696 0.5497 -0.8179
vn 0.1826 0.522 -0.8332
vn 0.1368 0.5131 -0.8473
vn 0.1346 0.5406 -0.8304
vn 0.1463 0.5973 -0.7885
vn 0.17 0.6122 -0.7722
vn 0.1867 0.6779 -0.711
vn 0.033 0.6818 -0.7307
vn 0.1748 0.6583 -0.7322
vn -0.1161 0.6465 -0.7541
vn -0.095 0.6301 -0.7707
vn -0.0701 0.4816 -0.8735
vn -0.0177 0.4792 -0.8775
vn -0.0466 0.4596 -0.8868
vn -0.0829 0.4282 -0.8998
vn 0.0818 0.4378 -0.8953
vn 0.073 0.4877 -0.8699
vn 0.2098 0.5108 -0.8337
vn 0.2398 0.4618 -0.8539
vn 0.1958 0.4847 -0.8524
vn 0.162 0.4978 -0.852
vn -0.2572 -0.746 0.6142
vn -0.0127 -0.7625 0.6469
vn -0.0237 -0.7202 0.6933
vn -0.3477 -0.69 0.6348
vn -0.4589 -0.6478 0.6081
vn -0.4356 -0.6606 0.6114
vn -0.3718 -0.6727 0.6397
vn -0.2293 -0.723 0.6517
vn -0.0202 -0.7341 0.6787
vn 0.2228 -0.6961 0.6825
vn 0.3739 -0.5763 0.7267
vn 0.3941 -0.5591 0.7294
vn 0.2908 -0.6236 0.7256
vn 0.1815 -0.6803 0.7101
vn 0.3086 -0.6019 0.7365
vn 0.0607 -0.5258 0.8484
vn 0.1727 -0.5116 0.8416
vn 0.1927 -0.5521 0.8112
vn 0.0851 -0.5848 0.8067
vn -0.049 -0.6104 0.7906
vn -0.063 -0.5409 0.8387
vn -0.0699 -0.5048 0.8603
vn 0.0662 -0.4979 0.8647
vn 0.1966 -0.504 0.841
vn -0.1851 -0.5514 0.8134
vn -0.1845 -0.6128 0.7683
vn -0.2934 -0.6027 0.742
vn -0.2913 -0.5599 0.7757
vn -0.315 -0.5572 0.7683
vn -0.2003 -0.5256 0.8268
vn -0.2009 -0.6777 0.7074
vn -0.033 -0.6819 0.7307
vn -0.3214 -0.65 0.6886
vn 0.1303 -0.6432 0.7544
vn 0.2432 -0.5912 0.769
vn 0.0986 -0.4941 0.8638
vn 0.2548 -0.5192 0.8158
vn -0.0711 -0.4982 0.8641
vn -0.0624 -0.5436 0.837
vn 0.1815 -0.5383 0.823
vn 0.2898 -0.532 0.7956
vn -0.2313 -0.5283 0.8169
vn -0.3598 -0.5829 0.7285
vn -0.3845 -0.6019 0.6998
vn -0.289 -0.5872 0.7561
vn 0.9656 -0.1218 -0.2294
vn 0.787 -0.4223 -0.4497
vn 0.9927 -0.014 -0.1197
vn 0.2898 -0.532 0.7956
vn -0.0757 -0.8394 -0.5381
vn -0.5312 -0.5587 -0.6369
vn 0.1495 -0.9132 -0.3791
vn -0.3845 -0.6019 0.6998
vn -0.926 0.3613 -0.109
vn -0.8301 0.5389 0.143
vn -0.9513 0.1962 -0.2378
vn -0.4589 -0.6478 0.6081
vn 0.3352 0.6596 0.6727
vn 0.6319 0.6911 0.3507
vn -0.1735 0.5714 0.8021
vn 0.3941 -0.5591 0.7294
vn 0.8274 0.5437 0.1404
vn 0.9201 0.3907 0.0283
vn 0.3896 -0.7909 -0.4718
vn -0.8198 -0.3074 -0.4831
vn -0.8972 -0.2104 -0.3883
vn -0.6339 0.5588 0.5346
vn -0.9523 0.0612 -0.299
vn -0.9477 -0.0239 -0.3182
vn 0.9651 0.2607 -0.0264
vn 0.9832 0.1772 -0.0435
vn 0.9939 0.0929 -0.0598
vn -0.9363 -0.1079 -0.3342
vt 0.839504 0.118056
vt 0.856743 0.205307
vt 0.741230 0.205307
vt 0.734555 0.106726
vt 0.724541 0.032791
vt 0.813647 0.052618
vt 0.868992 0.081539
vt 0.913398 0.129584
vt 0.940923 0.205307
vt 0.839504 0.292557
vt 0.813647 0.357995
vt 0.724541 0.377822
vt 0.734555 0.303887
vt 0.913398 0.281029
vt 0.868992 0.329074
vt 0.369475 0.299954
vt 0.368286 0.370940
vt 0.245840 0.351447
vt 0.246397 0.288815
vt 0.246768 0.205307
vt 0.370268 0.205307
vt 0.494283 0.205307
vt 0.492822 0.304944
vt 0.490632 0.379672
vt 0.369475 0.110659
vt 0.246397 0.121798
vt 0.245841 0.059166
vt 0.368286 0.039673
vt 0.490632 0.030941
vt 0.492822 0.105669
vt 0.616755 0.103478
vt 0.619174 0.205307
vt 0.613127 0.027106
vt 0.616755 0.307135
vt 0.613126 0.383507
vt 0.123273 0.268175
vt 0.123047 0.315326
vt 0.054743 0.283353
vt 0.030912 0.249131
vt 0.030973 0.205306
vt 0.123423 0.205306
vt 0.123273 0.142438
vt 0.030912 0.161481
vt 0.054744 0.127260
vt 0.123047 0.095287
vt 0.839504 0.118056
vt 0.856743 0.205307
vt 0.968983 0.205307
vt 0.938030 0.133427
vt 0.876123 0.061548
vt 0.805028 0.030806
vt 0.721203 0.008146
vt 0.734555 0.106726
vt 0.741230 0.205307
vt 0.839504 0.292557
vt 0.805028 0.379807
vt 0.876123 0.349065
vt 0.938030 0.277186
vt 0.734555 0.303887
vt 0.721203 0.402467
vt 0.369475 0.299954
vt 0.367890 0.394602
vt 0.489902 0.404581
vt 0.492822 0.304944
vt 0.494283 0.205307
vt 0.370268 0.205307
vt 0.246768 0.205307
vt 0.246397 0.288815
vt 0.245655 0.372324
vt 0.369475 0.110659
vt 0.492822 0.105669
vt 0.489902 0.006032
vt 0.367890 0.016011
vt 0.245655 0.038289
vt 0.246397 0.121798
vt 0.616755 0.103478
vt 0.619174 0.205307
vt 0.611917 0.001649
vt 0.616755 0.307135
vt 0.611917 0.408964
vt 0.123273 0.268175
vt 0.122972 0.331043
vt 0.123423 0.205306
vt 0.000156 0.205306
vt 0.000125 0.242784
vt 0.000064 0.280261
vt 0.123273 0.142438
vt 0.122972 0.079570
vt 0.000064 0.130352
vt 0.000125 0.167829
vt 0.122972 0.331043
vt 0.030806 0.283587
vt 0.245655 0.372324
vt 0.030806 0.283587
vt 0.000125 0.167829
vt 0.030806 0.127026
vt 0.000156 0.205306
vt 0.030806 0.127026
vt 0.805028 0.030806
vt 0.873826 0.071832
vt 0.721203 0.008146
vt 0.873826 0.071832
vt 0.938030 0.277186
vt 0.873826 0.338781
vt 0.968983 0.205307
vt 0.873826 0.338781
vt 0.805028 0.379807
vt 0.721203 0.402467
vt 0.000125 0.242784
vt 0.122972 0.079570
vt 0.245655 0.038289
vt 0.938030 0.133427
vt 0.611917 0.001649
vt 0.489902 0.006032
vt 0.611917 0.408964
vt 0.489902 0.404581
vt 0.367890 0.394602
vt 0.367890 0.016011
f 1/1/1 2/2/2 3/3/3
f 1/1/1 3/3/3 4/4/4
f 1/1/1 4/4/4 5/5/5
f 1/1/1 5/5/5 6/6/6
f 1/1/1 6/6/6 7/7/7
f 1/1/1 7/7/7 8/8/8
f 1/1/1 8/8/8 9/9/9
f 1/1/1 9/9/9 2/2/2
f 10/10/10 11/11/11 12/12/12
f 10/10/10 12/12/12 13/13/13
f 10/10/10 13/13/13 3/3/3
f 10/10/10 3/3/3 2/2/2
f 10/10/10 2/2/2 9/9/9
f 10/10/10 9/9/9 14/14/14
f 10/10/10 14/14/14 15/15/15
f 10/10/10 15/15/15 11/11/11
f 16/16/16 17/17/17 18/18/18
f 16/16/16 18/18/18 19/19/19
f 16/16/16 19/19/19 20/20/20
f 16/16/16 20/20/20 21/21/21
f 16/16/16 21/21/21 22/22/22
f 16/16/16 22/22/22 23/23/23
f 16/16/16 23/23/23 24/24/24
f 16/16/16 24/24/24 17/17/17
f 25/25/25 21/21/21 20/20/20
f 25/25/25 20/20/20 26/26/26
f 25/25/25 26/26/26 27/27/27
f 25/25/25 27/27/27 28/28/28
f 25/25/25 28/28/28 29/29/29
f 25/25/25 29/29/29 30/30/30
f 25/25/25 30/30/30 22/22/22
f 25/25/25 22/22/22 21/21/21
f 31/31/31 32/32/32 22/22/22
f 31/31/31 22/22/22 30/30/30
f 31/31/31 30/30/30 29/29/29
f 31/31/31 29/29/29 33/33/33
f 31/31/31 33/33/33 5/5/5
f 31/31/31 5/5/5 4/4/4
f 31/31/31 4/4/4 3/3/3
f 31/31/31 3/3/3 32/32/32
f 34/34/34 35/35/35 24/24/24
f 34/34/34 24/24/24 23/23/23
f 34/34/34 23/23/23 22/22/22
f 34/34/34 22/22/22 32/32/32
f 34/34/34 32/32/32 3/3/3
f 34/34/34 3/3/3 13/13/13
f 34/34/34 13/13/13 12/12/12
f 34/34/34 12/12/12 35/35/35
f 36/36/36 37/37/37 38/38/38
f 36/36/36 38/38/38 39/39/39
f 36/36/36 39/39/39 40/40/40
f 36/36/36 40/40/40 41/41/41
f 36/36/36 41/41/41 20/20/20
f 36/36/36 20/20/20 19/19/19
f 36/36/36 19/19/19 18/18/18
f 36/36/36 18/18/18 37/37/37
f 42/42/42 41/41/41 40/40/40
f 42/42/42 40/40/40 43/43/43
f 42/42/42 43/43/43 44/44/44
f 42/42/42 44/44/44 45/45/45
f 42/42/42 45/45/45 27/27/27
f 42/42/42 27/27/27 26/26/26
f 42/42/42 26/26/26 20/20/20
f 42/42/42 20/20/20 41/41/41
f 46/46/46 47/47/47 48/48/48
f 46/46/46 48/48/48 49/49/49
f 46/46/46 49/49/49 50/50/50
f 46/46/46 50/50/50 51/51/51
f 46/46/46 51/51/51 52/52/52
f 46/46/46 52/52/52 53/53/53
f 46/46/46 53/53/53 54/54/54
f 46/46/46 54/54/54 47/47/47
f 55/55/55 56/56/56 57/57/57
f 55/55/55 57/57/57 58/58/58
f 55/55/55 58/58/58 48/48/48
f 55/55/55 48/48/48 47/47/47
f 55/55/55 47/47/47 54/54/54
f 55/55/55 54/54/54 59/59/59
f 55/55/55 59/59/59 60/60/60
f 55/55/55 60/60/60 56/56/56
f 61/61/61 62/62/62 63/63/63
f 61/61/61 63/63/63 64/64/64
f 61/61/61 64/64/64 65/65/65
f 61/61/61 65/65/65 66/66/66
f 61/61/61 66/66/66 67/67/67
f 61/61/61 67/67/67 68/68/68
f 61/61/61 68/68/68 69/69/69
f 61/61/61 69/69/69 62/62/62
f 70/70/70 66/66/66 65/65/65
f 70/70/70 65/65/65 71/71/71
f 70/70/70 71/71/71 72/72/72
f 70/70/70 72/72/72 73/73/73
f 70/70/70 73/73/73 74/74/74
f 70/70/70 74/74/74 75/75/75
f 70/70/70 75/75/75 67/67/67
f 70/70/70 67/67/67 66/66/66
f 76/76/76 77/77/77 54/54/54
f 76/76/76 54/54/54 53/53/53
f 76/76/76 53/53/53 52/52/52
f 76/76/76 52/52/52 78/78/78
f 76/76/76 78/78/78 72/72/72
f 76/76/76 72/72/72 71/71/71
f 76/76/76 71/71/71 65/65/65
f 76/76/76 65/65/65 77/77/77
f 79/79/79 80/80/80 60/60/60
f 79/79/79 60/60/60 59/59/59
f 79/79/79 59/59/59 54/54/54
f 79/79/79 54/54/54 77/77/77
f 79/79/79 77/77/77 65/65/65
f 79/79/79 65/65/65 64/64/64
f 79/79/79 64/64/64 63/63/63
f 79/79/79 63/63/63 80/80/80
f 81/81/81 82/82/82 69/69/69
f 81/81/81 69/69/69 68/68/68
f 81/81/81 68/68/68 67/67/67
f 81/81/81 67/67/67 83/83/83
f 81/81/81 83/83/83 84/84/84
f 81/81/81 84/84/84 85/85/85
f 81/81/81 85/85/85 86/86/86
f 81/81/81 86/86/86 82/82/82
f 87/87/87 83/83/83 67/67/67
f 87/87/87 67/67/67 75/75/75
f 87/87/87 75/75/75 74/74/74
f 87/87/87 74/74/74 88/88/88
f 87/87/87 88/88/88 89/89/89
f 87/87/87 89/89/89 90/90/90
f 87/87/87 90/90/90 84/84/84
f 87/87/87 84/84/84 83/83/83
f 91/91/91 92/92/92 38/38/38
f 91/91/91 38/38/38 37/37/37
f 91/91/91 37/37/37 18/18/18
f 91/91/91 18/18/18 93/93/93
f 91/91/91 93/93/93 69/69/69
f 91/91/91 69/69/69 82/82/82
f 91/91/91 82/82/82 94/94/94
f 91/91/91 94/94/94 92/92/92
f 95/95/95 96/96/96 44/44/44
f 95/95/95 44/44/44 43/43/43
f 95/95/95 43/43/43 40/40/40
f 95/95/95 40/40/40 97/97/97
f 95/95/95 97/97/97 84/84/84
f 95/95/95 84/84/84 90/90/90
f 95/95/95 90/90/90 98/98/98
f 95/95/95 98/98/98 96/96/96
f 99/99/99 100/100/100 7/7/7
f 99/99/99 7/7/7 6/6/6
f 99/99/99 6/6/6 5/5/5
f 99/99/99 5/5/5 101/101/101
f 99/99/99 101/101/101 52/52/52
f 99/99/99 52/52/52 51/51/51
f 99/99/99 51/51/51 102/102/102
f 99/99/99 102/102/102 100/100/100
f 103/103/103 104/104/104 15/15/15
f 103/103/103 15/15/15 14/14/14
f 103/103/103 14/14/14 9/9/9
f 103/103/103 9/9/9 105/105/105
f 103/103/103 105/105/105 48/48/48
f 103/103/103 48/48/48 58/58/58
f 103/103/103 58/58/58 106/106/106
f 103/103/103 106/106/106 104/104/104
f 107/107/107 108/108/108 12/12/12
f 107/107/107 12/12/12 11/11/11
f 107/107/107 11/11/11 15/15/15
f 107/107/107 15/15/15 104/104/104
f 107/107/107 104/104/104 106/106/106
f 107/107/107 106/106/106 56/56/56
f 107/107/107 56/56/56 60/60/60
f 107/107/107 60/60/60 108/108/108
f 109/109/109 97/97/97 40/40/40
f 109/109/109 40/40/40 39/39/39
f 109/109/109 39/39/39 38/38/38
f 109/109/109 38/38/38 92/92/92
f 109/109/109 92/92/92 94/94/94
f 109/109/109 94/94/94 85/85/85
f 109/109/109 85/85/85 84/84/84
f 109/109/109 84/84/84 97/97/97
f 110/110/110 111/111/111 27/27/27
f 110/110/110 27/27/27 45/45/45
f 110/110/110 45/45/45 44/44/44
f 110/110/110 44/44/44 96/96/96
f 110/110/110 96/96/96 98/98/98
f 110/110/110 98/98/98 88/88/88
f 110/110/110 88/88/88 74/74/74
f 110/110/110 74/74/74 111/111/111
f 112/112/112 105/105/105 9/9/9
f 112/112/112 9/9/9 8/8/8
f 112/112/112 8/8/8 7/7/7
f 112/112/112 7/7/7 100/100/100
f 112/112/112 100/100/100 102/102/102
f 112/112/112 102/102/102 49/49/49
f 112/112/112 49/49/49 48/48/48
f 112/112/112 48/48/48 105/105/105
f 113/113/113 101/101/101 5/5/5
f 113/113/113 5/5/5 33/33/33
f 113/113/113 33/33/33 29/29/29
f 113/113/113 29/29/29 114/114/114
f 113/113/113 114/114/114 72/72/72
f 113/113/113 72/72/72 78/78/78
f 113/113/113 78/78/78 52/52/52
f 113/113/113 52/52/52 101/101/101
f 115/115/115 116/116/116 24/24/24
f 115/115/115 24/24/24 35/35/35
f 115/115/115 35/35/35 12/12/12
f 115/115/115 12/12/12 108/108/108
f 115/115/115 108/108/108 60/60/60
f 115/115/115 60/60/60 80/80/80
f 115/115/115 80/80/80 63/63/63
f 115/115/115 63/63/63 116/116/116
f 117/117/117 93/93/93 18/18/18
f 117/117/117 18/18/18 17/17/17
f 117/117/117 17/17/17 24/24/24
f 117/117/117 24/24/24 116/116/116
f 117/117/117 116/116/116 63/63/63
f 117/117/117 63/63/63 62/62/62
f 117/117/117 62/62/62 69/69/69
f 117/117/117 69/69/69 93/93/93
f 118/118/118 114/114/114 29/29/29
f 118/118/118 29/29/29 28/28/28
f 118/118/118 28/28/28 27/27/27
f 118/118/118 27/27/27 111/111/111
f 118/118/118 111/111/111 74/74/74
f 118/118/118 74/74/74 73/73/73
f 118/118/118 73/73/73 72/72/72
f 118/118/118 72/72/72 114/114/114
