v -2.440408 0.761894 -1.083005
v -2.43837 0.762776 -1.083524
v -2.439167 0.761477 -1.086149
v -2.441359 0.760567 -1.085256
v -2.443171 0.759994 -1.084755
v -2.442166 0.761264 -1.082964
v -2.441082 0.76204 -1.081975
v -2.439601 0.762775 -1.081422
v -2.437727 0.763645 -1.081577
v -2.43697 0.76381 -1.084997
v -2.436137 0.764624 -1.086457
v -2.436321 0.763812 -1.088723
v -2.437452 0.762745 -1.08752
v -2.436625 0.764433 -1.083146
v -2.436199 0.764761 -1.084803
v -2.438999 0.757397 -1.095225
v -2.437713 0.758344 -1.096185
v -2.438292 0.755971 -1.098365
v -2.43942 0.755126 -1.097506
v -2.441004 0.75408 -1.096436
v -2.440799 0.756221 -1.094023
v -2.440455 0.75821 -1.091516
v -2.438586 0.759456 -1.092782
v -2.437263 0.760471 -1.093801
v -2.442828 0.755263 -1.093006
v -2.442806 0.753239 -1.095545
v -2.444225 0.752664 -1.094927
v -2.444422 0.754605 -1.092299
v -2.44428 0.756559 -1.089735
v -2.442591 0.757224 -1.090461
v -2.442094 0.759001 -1.08781
v -2.439887 0.759958 -1.088852
v -2.443869 0.758391 -1.087116
v -2.438031 0.761266 -1.090164
v -2.436748 0.76236 -1.091242
v -2.440001 0.752682 -1.09964
v -2.439191 0.753344 -1.100309
v -2.439863 0.751683 -1.101199
v -2.440475 0.750767 -1.101171
v -2.441234 0.750185 -1.100582
v -2.441157 0.751878 -1.098819
v -2.442528 0.751274 -1.098176
v -2.442207 0.749802 -1.100168
v -2.442978 0.749947 -1.099394
v -2.443621 0.750875 -1.097743
v -2.440298 0.761697 -1.082931
v -2.438232 0.762591 -1.083464
v -2.437624 0.763505 -1.081535
v -2.439521 0.762625 -1.081368
v -2.441027 0.761927 -1.081931
v -2.442097 0.76111 -1.082901
v -2.443096 0.759846 -1.084687
v -2.441243 0.760375 -1.085175
v -2.439027 0.761296 -1.086081
v -2.436808 0.763642 -1.084953
v -2.436003 0.764507 -1.086432
v -2.436103 0.764672 -1.084784
v -2.436503 0.764306 -1.083116
v -2.43729 0.762579 -1.087465
v -2.436189 0.763695 -1.088688
v -2.438835 0.757251 -1.095129
v -2.437582 0.75824 -1.096119
v -2.437132 0.760361 -1.093743
v -2.438423 0.759302 -1.092698
v -2.440309 0.758045 -1.091422
v -2.440651 0.756065 -1.093917
v -2.440855 0.75393 -1.096323
v -2.439255 0.754986 -1.097403
v -2.43816 0.755872 -1.098293
v -2.442697 0.755098 -1.092892
v -2.442463 0.757051 -1.090357
v -2.444194 0.756425 -1.089652
v -2.444332 0.754478 -1.092208
v -2.444135 0.752541 -1.094831
v -2.442674 0.75308 -1.095423
v -2.441972 0.758818 -1.087718
v -2.439744 0.759785 -1.088772
v -2.443788 0.758249 -1.087041
v -2.437868 0.761105 -1.090095
v -2.436617 0.762247 -1.091196
v -2.439834 0.752545 -1.099535
v -2.439058 0.753247 -1.100237
v -2.441008 0.75173 -1.098704
v -2.441123 0.750074 -1.100495
v -2.44035 0.750665 -1.101093
v -2.439767 0.75161 -1.101143
v -2.442397 0.751117 -1.09805
v -2.443533 0.750753 -1.097644
v -2.44291 0.749858 -1.099322
v -2.44211 0.749684 -1.100073
v -2.43886 0.753523 -1.100502
v -2.439885 0.751249 -1.101663
v -2.437855 0.75621 -1.09862
v -2.439767 0.75161 -1.101143
v -2.442057 0.749259 -1.10079
v -2.443006 0.749509 -1.099855
v -2.441211 0.749571 -1.10113
v -2.44291 0.749858 -1.099322
v -2.442724 0.760984 -1.082921
v -2.441274 0.762021 -1.081756
v -2.443744 0.759736 -1.084556
v -2.441027 0.761927 -1.081931
v -2.436456 0.764584 -1.082517
v -2.435991 0.764966 -1.084816
v -2.437467 0.763872 -1.08091
v -2.436103 0.764672 -1.084784
v -2.435797 0.764845 -1.086934
v -2.435884 0.764117 -1.08911
v -2.440578 0.750083 -1.101647
v -2.443949 0.750686 -1.097553
v -2.44466 0.752417 -1.094678
v -2.439297 0.763001 -1.080871
v -2.444427 0.758124 -1.08685
v -2.444807 0.756278 -1.089455
v -2.43626 0.762676 -1.091582
v -2.436762 0.760762 -1.094116
v -2.437225 0.758615 -1.096477
v -2.444915 0.754328 -1.092021
vn -0.3875 0.8665 -0.3147
vn -0.564 0.8002 -0.2037
vn -0.5793 0.774 -0.2554
vn -0.4227 0.833 -0.3569
vn -0.4366 0.818 -0.3744
vn -0.3946 0.8642 -0.312
vn -0.3639 0.8927 -0.2659
vn -0.3962 0.892 -0.2176
vn -0.5361 0.8353 -0.1217
vn -0.725 0.6784 -0.1192
vn -0.7199 0.683 -0.1235
vn -0.7237 0.658 -0.208
vn -0.7244 0.6648 -0.1821
vn -0.6719 0.7384 -0.0578
vn -0.7132 0.698 -0.0634
vn -0.7018 0.5824 -0.4102
vn -0.6757 0.5952 -0.4348
vn -0.6758 0.5755 -0.4606
vn -0.7099 0.5567 -0.4313
vn -0.6239 0.6049 -0.4948
vn -0.6208 0.6329 -0.4627
vn -0.6113 0.6854 -0.3958
vn -0.7028 0.6226 -0.344
vn -0.6857 0.6261 -0.3712
vn -0.5323 0.6769 -0.5083
vn -0.5281 0.6581 -0.5366
vn -0.5685 0.6353 -0.5227
vn -0.5638 0.6576 -0.4996
vn -0.5379 0.7085 -0.4569
vn -0.5127 0.7286 -0.4541
vn -0.4717 0.7872 -0.3973
vn -0.5956 0.7374 -0.3185
vn -0.4908 0.7674 -0.4125
vn -0.7113 0.6536 -0.2585
vn -0.7044 0.6484 -0.2886
vn -0.7285 0.5342 -0.4288
vn -0.6933 0.5516 -0.4638
vn -0.7167 0.5241 -0.4601
vn -0.7455 0.4837 -0.4584
vn -0.6265 0.552 -0.5502
vn -0.6249 0.5914 -0.5097
vn -0.507 0.6577 -0.5571
vn -0.4901 0.6261 -0.6064
vn -0.5249 0.6312 -0.571
vn -0.551 0.631 -0.546
vn 0.3686 -0.8628 0.3459
vn 0.5685 -0.7933 0.2181
vn 0.5842 -0.7644 0.2727
vn 0.3074 -0.8468 0.434
vn 0.202 -0.8448 0.4954
vn 0.2234 -0.8485 0.4797
vn 0.2903 -0.8403 0.4578
vn 0.4096 -0.8364 0.3643
vn 0.5794 -0.774 0.2553
vn 0.7485 -0.6511 0.1258
vn 0.8641 -0.4915 0.1085
vn 0.8772 -0.4687 0.1042
vn 0.8127 -0.5653 0.1412
vn 0.7347 -0.6551 0.1759
vn 0.8288 -0.5401 0.1459
vn 0.7131 -0.575 0.4011
vn 0.7859 -0.5203 0.3341
vn 0.7871 -0.5463 0.2864
vn 0.7132 -0.615 0.3362
vn 0.6113 -0.6853 0.3959
vn 0.6208 -0.6327 0.4628
vn 0.6238 -0.6049 0.4949
vn 0.7227 -0.5495 0.4191
vn 0.8011 -0.5044 0.3221
vn 0.5185 -0.6835 0.5138
vn 0.4999 -0.7339 0.4598
vn 0.4023 -0.7608 0.5092
vn 0.4186 -0.725 0.5469
vn 0.3961 -0.7302 0.5567
vn 0.5118 -0.6671 0.5413
vn 0.4591 -0.7916 0.4032
vn 0.5956 -0.7374 0.3185
vn 0.3551 -0.8074 0.471
vn 0.7212 -0.6455 0.2513
vn 0.802 -0.5583 0.2122
vn 0.7446 -0.5341 0.4004
vn 0.8286 -0.4938 0.2639
vn 0.6243 -0.5997 0.5006
vn 0.6205 -0.6348 0.4604
vn 0.7845 -0.5391 0.3063
vn 0.8423 -0.4902 0.224
vn 0.4835 -0.6795 0.5517
vn 0.3421 -0.765 0.5457
vn 0.3086 -0.7877 0.5331
vn 0.4121 -0.7467 0.522
vn 0.5582 0.2703 -0.7844
vn 0.3379 -0.0426 -0.9402
vn 0.6315 0.3652 -0.684
vn 0.8423 -0.4902 0.224
vn -0.2615 -0.7302 -0.6312
vn -0.7055 -0.6242 -0.3357
vn 0.0202 -0.7374 -0.6751
vn 0.3086 -0.7877 0.5331
vn -0.8026 0.0102 0.5963
vn -0.5967 0.1761 0.7829
vn -0.8769 -0.1343 0.4615
vn 0.202 -0.8448 0.4954
vn 0.5709 0.6409 0.513
vn 0.5603 0.8205 0.1128
vn 0.3111 0.3573 0.8806
vn 0.8772 -0.4687 0.1042
vn 0.5853 0.7839 -0.2071
vn 0.6042 0.6915 -0.3959
vn 0.1066 -0.525 -0.8444
vn -0.8551 -0.5173 0.0344
vn -0.8644 -0.4686 0.1824
vn -0.1958 0.2137 0.9571
vn -0.8938 -0.2508 0.3717
vn -0.8876 -0.3248 0.3265
vn 0.6238 0.5955 -0.5062
vn 0.6408 0.5274 -0.5579
vn 0.6529 0.4557 -0.605
vn -0.8747 -0.3955 0.28
vt 0.839504 0.118056
vt 0.856743 0.205307
vt 0.741230 0.205307
vt 0.734555 0.106726
vt 0.724541 0.032791
vt 0.813647 0.052618
vt 0.868992 0.081539
vt 0.913398 0.129584
vt 0.940923 0.205307
vt 0.839504 0.292557
vt 0.813647 0.357995
vt 0.724541 0.377822
vt 0.734555 0.303887
vt 0.913398 0.281029
vt 0.868992 0.329074
vt 0.369475 0.299954
vt 0.368286 0.370940
vt 0.245840 0.351447
vt 0.246397 0.288815
vt 0.246768 0.205307
vt 0.370268 0.205307
vt 0.494283 0.205307
vt 0.492822 0.304944
vt 0.490632 0.379672
vt 0.369475 0.110659
vt 0.246397 0.121798
vt 0.245841 0.059166
vt 0.368286 0.039673
vt 0.490632 0.030941
vt 0.492822 0.105669
vt 0.616755 0.103478
vt 0.619174 0.205307
vt 0.613127 0.027106
vt 0.616755 0.307135
vt 0.613126 0.383507
vt 0.123273 0.268175
vt 0.123047 0.315326
vt 0.054743 0.283353
vt 0.030912 0.249131
vt 0.030973 0.205306
vt 0.123423 0.205306
vt 0.123273 0.142438
vt 0.030912 0.161481
vt 0.054744 0.127260
vt 0.123047 0.095287
vt 0.839504 0.118056
vt 0.856743 0.205307
vt 0.968983 0.205307
vt 0.938030 0.133427
vt 0.876123 0.061548
vt 0.805028 0.030806
vt 0.721203 0.008146
vt 0.734555 0.106726
vt 0.741230 0.205307
vt 0.839504 0.292557
vt 0.805028 0.379807
vt 0.876123 0.349065
vt 0.938030 0.277186
vt 0.734555 0.303887
vt 0.721203 0.402467
vt 0.369475 0.299954
vt 0.367890 0.394602
vt 0.489902 0.404581
vt 0.492822 0.304944
vt 0.494283 0.205307
vt 0.370268 0.205307
vt 0.246768 0.205307
vt 0.246397 0.288815
vt 0.245655 0.372324
vt 0.369475 0.110659
vt 0.492822 0.105669
vt 0.489902 0.006032
vt 0.367890 0.016011
vt 0.245655 0.038289
vt 0.246397 0.121798
vt 0.616755 0.103478
vt 0.619174 0.205307
vt 0.611917 0.001649
vt 0.616755 0.307135
vt 0.611917 0.408964
vt 0.123273 0.268175
vt 0.122972 0.331043
vt 0.123423 0.205306
vt 0.000156 0.205306
vt 0.000125 0.242784
vt 0.000064 0.280261
vt 0.123273 0.142438
vt 0.122972 0.079570
vt 0.000064 0.130352
vt 0.000125 0.167829
vt 0.122972 0.331043
vt 0.030806 0.283587
vt 0.245655 0.372324
vt 0.030806 0.283587
vt 0.000125 0.167829
vt 0.030806 0.127026
vt 0.000156 0.205306
vt 0.030806 0.127026
vt 0.805028 0.030806
vt 0.873826 0.071832
vt 0.721203 0.008146
vt 0.873826 0.071832
vt 0.938030 0.277186
vt 0.873826 0.338781
vt 0.968983 0.205307
vt 0.873826 0.338781
vt 0.805028 0.379807
vt 0.721203 0.402467
vt 0.000125 0.242784
vt 0.122972 0.079570
vt 0.245655 0.038289
vt 0.938030 0.133427
vt 0.611917 0.001649
vt 0.489902 0.006032
vt 0.611917 0.408964
vt 0.489902 0.404581
vt 0.367890 0.394602
vt 0.367890 0.016011
f 1/1/1 2/2/2 3/3/3
f 1/1/1 3/3/3 4/4/4
f 1/1/1 4/4/4 5/5/5
f 1/1/1 5/5/5 6/6/6
f 1/1/1 6/6/6 7/7/7
f 1/1/1 7/7/7 8/8/8
f 1/1/1 8/8/8 9/9/9
f 1/1/1 9/9/9 2/2/2
f 10/10/10 11/11/11 12/12/12
f 10/10/10 12/12/12 13/13/13
f 10/10/10 13/13/13 3/3/3
f 10/10/10 3/3/3 2/2/2
f 10/10/10 2/2/2 9/9/9
f 10/10/10 9/9/9 14/14/14
f 10/10/10 14/14/14 15/15/15
f 10/10/10 15/15/15 11/11/11
f 16/16/16 17/17/17 18/18/18
f 16/16/16 18/18/18 19/19/19
f 16/16/16 19/19/19 20/20/20
f 16/16/16 20/20/20 21/21/21
f 16/16/16 21/21/21 22/22/22
f 16/16/16 22/22/22 23/23/23
f 16/16/16 23/23/23 24/24/24
f 16/16/16 24/24/24 17/17/17
f 25/25/25 21/21/21 20/20/20
f 25/25/25 20/20/20 26/26/26
f 25/25/25 26/26/26 27/27/27
f 25/25/25 27/27/27 28/28/28
f 25/25/25 28/28/28 29/29/29
f 25/25/25 29/29/29 30/30/30
f 25/25/25 30/30/30 22/22/22
f 25/25/25 22/22/22 21/21/21
f 31/31/31 32/32/32 22/22/22
f 31/31/31 22/22/22 30/30/30
f 31/31/31 30/30/30 29/29/29
f 31/31/31 29/29/29 33/33/33
f 31/31/31 33/33/33 5/5/5
f 31/31/31 5/5/5 4/4/4
f 31/31/31 4/4/4 3/3/3
f 31/31/31 3/3/3 32/32/32
f 34/34/34 35/35/35 24/24/24
f 34/34/34 24/24/24 23/23/23
f 34/34/34 23/23/23 22/22/22
f 34/34/34 22/22/22 32/32/32
f 34/34/34 32/32/32 3/3/3
f 34/34/34 3/3/3 13/13/13
f 34/34/34 13/13/13 12/12/12
f 34/34/34 12/12/12 35/35/35
f 36/36/36 37/37/37 38/38/38
f 36/36/36 38/38/38 39/39/39
f 36/36/36 39/39/39 40/40/40
f 36/36/36 40/40/40 41/41/41
f 36/36/36 41/41/41 20/20/20
f 36/36/36 20/20/20 19/19/19
f 36/36/36 19/19/19 18/18/18
f 36/36/36 18/18/18 37/37/37
f 42/42/42 41/41/41 40/40/40
f 42/42/42 40/40/40 43/43/43
f 42/42/42 43/43/43 44/44/44
f 42/42/42 44/44/44 45/45/45
f 42/42/42 45/45/45 27/27/27
f 42/42/42 27/27/27 26/26/26
f 42/42/42 26/26/26 20/20/20
f 42/42/42 20/20/20 41/41/41
f 46/46/46 47/47/47 48/48/48
f 46/46/46 48/48/48 49/49/49
f 46/46/46 49/49/49 50/50/50
f 46/46/46 50/50/50 51/51/51
f 46/46/46 51/51/51 52/52/52
f 46/46/46 52/52/52 53/53/53
f 46/46/46 53/53/53 54/54/54
f 46/46/46 54/54/54 47/47/47
f 55/55/55 56/56/56 57/57/57
f 55/55/55 57/57/57 58/58/58
f 55/55/55 58/58/58 48/48/48
f 55/55/55 48/48/48 47/47/47
f 55/55/55 47/47/47 54/54/54
f 55/55/55 54/54/54 59/59/59
f 55/55/55 59/59/59 60/60/60
f 55/55/55 60/60/60 56/56/56
f 61/61/61 62/62/62 63/63/63
f 61/61/61 63/63/63 64/64/64
f 61/61/61 64/64/64 65/65/65
f 61/61/61 65/65/65 66/66/66
f 61/61/61 66/66/66 67/67/67
f 61/61/61 67/67/67 68/68/68
f 61/61/61 68/68/68 69/69/69
f 61/61/61 69/69/69 62/62/62
f 70/70/70 66/66/66 65/65/65
f 70/70/70 65/65/65 71/71/71
f 70/70/70 71/71/71 72/72/72
f 70/70/70 72/72/72 73/73/73
f 70/70/70 73/73/73 74/74/74
f 70/70/70 74/74/74 75/75/75
f 70/70/70 75/75/75 67/67/67
f 70/70/70 67/67/67 66/66/66
f 76/76/76 77/77/77 54/54/54
f 76/76/76 54/54/54 53/53/53
f 76/76/76 53/53/53 52/52/52
f 76/76/76 52/52/52 78/78/78
f 76/76/76 78/78/78 72/72/72
f 76/76/76 72/72/72 71/71/71
f 76/76/76 71/71/71 65/65/65
f 76/76/76 65/65/65 77/77/77
f 79/79/79 80/80/80 60/60/60
f 79/79/79 60/60/60 59/59/59
f 79/79/79 59/59/59 54/54/54
f 79/79/79 54/54/54 77/77/77
f 79/79/79 77/77/77 65/65/65
f 79/79/79 65/65/65 64/64/64
f 79/79/79 64/64/64 63/63/63
f 79/79/79 63/63/63 80/80/80
f 81/81/81 82/82/82 69/69/69
f 81/81/81 69/69/69 68/68/68
f 81/81/81 68/68/68 67/67/67
f 81/81/81 67/67/67 83/83/83
f 81/81/81 83/83/83 84/84/84
f 81/81/81 84/84/84 85/85/85
f 81/81/81 85/85/85 86/86/86
f 81/81/81 86/86/86 82/82/82
f 87/87/87 83/83/83 67/67/67
f 87/87/87 67/67/67 75/75/75
f 87/87/87 75/75/75 74/74/74
f 87/87/87 74/74/74 88/88/88
f 87/87/87 88/88/88 89/89/89
f 87/87/87 89/89/89 90/90/90
f 87/87/87 90/90/90 84/84/84
f 87/87/87 84/84/84 83/83/83
f 91/91/91 92/92/92 38/38/38
f 91/91/91 38/38/38 37/37/37
f 91/91/91 37/37/37 18/18/18
f 91/91/91 18/18/18 93/93/93
f 91/91/91 93/93/93 69/69/69
f 91/91/91 69/69/69 82/82/82
f 91/91/91 82/82/82 94/94/94
f 91/91/91 94/94/94 92/92/92
f 95/95/95 96/96/96 44/44/44
f 95/95/95 44/44/44 43/43/43
f 95/95/95 43/43/43 40/40/40
f 95/95/95 40/40/40 97/97/97
f 95/95/95 97/97/97 84/84/84
f 95/95/95 84/84/84 90/90/90
f 95/95/95 90/90/90 98/98/98
f 95/95/95 98/98/98 96/96/96
f 99/99/99 100/100/100 7/7/7
f 99/99/99 7/7/7 6/6/6
f 99/99/99 6/6/6 5/5/5
f 99/99/99 5/5/5 101/101/101
f 99/99/99 101/101/101 52/52/52
f 99/99/99 52/52/52 51/51/51
f 99/99/99 51/51/51 102/102/102
f 99/99/99 102/102/102 100/100/100
f 103/103/103 104/104/104 15/15/15
f 103/103/103 15/15/15 14/14/14
f 103/103/103 14/14/14 9/9/9
f 103/103/103 9/9/9 105/105/105
f 103/103/103 105/105/105 48/48/48
f 103/103/103 48/48/48 58/58/58
f 103/103/103 58/58/58 106/106/106
f 103/103/103 106/106/106 104/104/104
f 107/107/107 108/108/108 12/12/12
f 107/107/107 12/12/12 11/11/11
f 107/107/107 11/11/11 15/15/15
f 107/107/107 15/15/15 104/104/104
f 107/107/107 104/104/104 106/106/106
f 107/107/107 106/106/106 56/56/56
f 107/107/107 56/56/56 60/60/60
f 107/107/107 60/60/60 108/108/108
f 109/109/109 97/97/97 40/40/40
f 109/109/109 40/40/40 39/39/39
f 109/109/109 39/39/39 38/38/38
f 109/109/109 38/38/38 92/92/92
f 109/109/109 92/92/92 94/94/94
f 109/109/109 94/94/94 85/85/85
f 109/109/109 85/85/85 84/84/84
f 109/109/109 84/84/84 97/97/97
f 110/110/110 111/111/111 27/27/27
f 110/110/110 27/27/27 45/45/45
f 110/110/110 45/45/45 44/44/44
f 110/110/110 44/44/44 96/96/96
f 110/110/110 96/96/96 98/98/98
f 110/110/110 98/98/98 88/88/88
f 110/110/110 88/88/88 74/74/74
f 110/110/110 74/74/74 111/111/111
f 112/112/112 105/105/105 9/9/9
f 112/112/112 9/9/9 8/8/8
f 112/112/112 8/8/8 7/7/7
f 112/112/112 7/7/7 100/100/100
f 112/112/112 100/100/100 102/102/102
f 112/112/112 102/102/102 49/49/49
f 112/112/112 49/49/49 48/48/48
f 112/112/112 48/48/48 105/105/105
f 113/113/113 101/101/101 5/5/5
f 113/113/113 5/5/5 33/33/33
f 113/113/113 33/33/33 29/29/29
f 113/113/113 29/29/29 114/114/114
f 113/113/113 114/114/114 72/72/72
f 113/113/113 72/72/72 78/78/78
f 113/113/113 78/78/78 52/52/52
f 113/113/113 52/52/52 101/101/101
f 115/115/115 116/116/116 24/24/24
f 115/115/115 24/24/24 35/35/35
f 115/115/115 35/35/35 12/12/12
f 115/115/115 12/12/12 108/108/108
f 115/115/115 108/108/108 60/60/60
f 115/115/115 60/60/60 80/80/80
f 115/115/115 80/80/80 63/63/63
f 115/115/115 63/63/63 116/116/116
f 117/117/117 93/93/93 18/18/18
f 117/117/117 18/18/18 17/17/17
f 117/117/117 17/17/17 24/24/24
f 117/117/117 24/24/24 116/116/116
f 117/117/117 116/116/116 63/63/63
f 117/117/117 63/63/63 62/62/62
f 117/117/117 62/62/62 69/69/69
f 117/117/117 69/69/69 93/93/93
f 118/118/118 114/114/114 29/29/29
f 118/118/118 29/29/29 28/28/28
f 118/118/118 28/28/28 27/27/27
f 118/118/118 27/27/27 111/111/111
f 118/118/118 111/111/111 74/74/74
f 118/118/118 74/74/74 73/73/73
f 118/118/118 73/73/73 72/72/72
f 118/118/118 72/72/72 114/114/114
