v -2.368519 0.791505 -1.180604
v -2.369991 0.791927 -1.179155
v -2.368097 0.790504 -1.177649
v -2.366666 0.790133 -1.179468
v -2.365389 0.789954 -1.180748
v -2.367077 0.791202 -1.181505
v -2.368443 0.791881 -1.181685
v -2.369931 0.792402 -1.181355
v -2.371432 0.792889 -1.180267
v -2.370532 0.792445 -1.177184
v -2.370608 0.792851 -1.175507
v -2.369399 0.791827 -1.173935
v -2.368953 0.791201 -1.175581
v -2.371674 0.793216 -1.178395
v -2.371302 0.793216 -1.176827
v -2.363938 0.785525 -1.171125
v -2.36461 0.786054 -1.169629
v -2.363023 0.783694 -1.168594
v -2.36244 0.783219 -1.169922
v -2.36157 0.78266 -1.171651
v -2.362944 0.784899 -1.173076
v -2.364462 0.786994 -1.174545
v -2.365488 0.787664 -1.1725
v -2.366168 0.78824 -1.170928
v -2.361696 0.784478 -1.174933
v -2.360457 0.782293 -1.17329
v -2.359549 0.782071 -1.174497
v -2.360682 0.78422 -1.176302
v -2.36206 0.786321 -1.177909
v -2.363143 0.786569 -1.176484
v -2.364837 0.788471 -1.178046
v -2.366217 0.788861 -1.176091
v -2.363673 0.78828 -1.179471
v -2.367216 0.789582 -1.174003
v -2.367842 0.790228 -1.172386
v -2.360867 0.780801 -1.168939
v -2.361265 0.781184 -1.167933
v -2.360222 0.779661 -1.16783
v -2.359681 0.778929 -1.168289
v -2.359293 0.778599 -1.169195
v -2.360246 0.780362 -1.170241
v -2.359387 0.78011 -1.171453
v -2.358667 0.778455 -1.170012
v -2.358398 0.778809 -1.170929
v -2.358671 0.779973 -1.17234
v -2.368629 0.791321 -1.180655
v -2.370117 0.791748 -1.17918
v -2.371525 0.792753 -1.180285
v -2.370011 0.792262 -1.181393
v -2.368499 0.791777 -1.181718
v -2.367151 0.791062 -1.181556
v -2.36547 0.789819 -1.1808
v -2.366784 0.789954 -1.179521
v -2.368229 0.79033 -1.177679
v -2.370672 0.792276 -1.177184
v -2.370719 0.792729 -1.175494
v -2.371382 0.793124 -1.17682
v -2.371777 0.793088 -1.178391
v -2.369098 0.791035 -1.175588
v -2.369514 0.791708 -1.173929
v -2.364104 0.785382 -1.17116
v -2.364738 0.78595 -1.169646
v -2.366293 0.78813 -1.17094
v -2.365648 0.787513 -1.172528
v -2.364612 0.786838 -1.17459
v -2.363101 0.784751 -1.173127
v -2.361731 0.782519 -1.171707
v -2.36261 0.783083 -1.169961
v -2.363155 0.783595 -1.168615
v -2.361843 0.784326 -1.175001
v -2.363282 0.786408 -1.176547
v -2.362158 0.786199 -1.177965
v -2.360786 0.784104 -1.176361
v -2.359657 0.781961 -1.174559
v -2.360608 0.782148 -1.173363
v -2.364965 0.788301 -1.178103
v -2.366358 0.788695 -1.176128
v -2.363763 0.788151 -1.179523
v -2.367368 0.789423 -1.17402
v -2.367961 0.790112 -1.172389
v -2.361039 0.780668 -1.168979
v -2.361399 0.781087 -1.167953
v -2.360409 0.780223 -1.170298
v -2.359416 0.778495 -1.169238
v -2.359811 0.778829 -1.168319
v -2.36032 0.779589 -1.167848
v -2.359539 0.779967 -1.171528
v -2.358779 0.779864 -1.172405
v -2.358479 0.778729 -1.170975
v -2.358781 0.778348 -1.170069
v -2.361459 0.78127 -1.167604
v -2.35997 0.779207 -1.167553
v -2.363277 0.783809 -1.168159
v -2.36032 0.779589 -1.167848
v -2.358478 0.777856 -1.169557
v -2.358142 0.778354 -1.170658
v -2.35903 0.777965 -1.168866
v -2.358479 0.778729 -1.170975
v -2.366628 0.791039 -1.181831
v -2.368384 0.791923 -1.181944
v -2.364998 0.789834 -1.181201
v -2.368499 0.791777 -1.181718
v -2.3721 0.793416 -1.178796
v -2.371477 0.793368 -1.176689
v -2.371953 0.793149 -1.180645
v -2.371382 0.793124 -1.17682
v -2.370684 0.792933 -1.17494
v -2.3696 0.791984 -1.173381
v -2.359344 0.778261 -1.168086
v -2.358479 0.779878 -1.172667
v -2.359293 0.781948 -1.174928
v -2.370437 0.792639 -1.181622
v -2.363323 0.788159 -1.179971
v -2.361741 0.786184 -1.178411
v -2.368105 0.790392 -1.171846
v -2.366452 0.788384 -1.170408
v -2.364892 0.786185 -1.169136
v -2.360389 0.784082 -1.176786
vn 0.431 0.8592 0.2756
vn 0.5363 0.8397 0.0848
vn 0.5764 0.8087 0.1169
vn 0.4843 0.8259 0.2888
vn 0.5058 0.8108 0.2944
vn 0.4361 0.8586 0.2693
vn 0.3851 0.8885 0.2496
vn 0.3901 0.9003 0.1929
vn 0.4701 0.8819 0.0342
vn 0.6447 0.7594 -0.0875
vn 0.642 0.7624 -0.0806
vn 0.6876 0.7259 -0.0145
vn 0.6754 0.7366 -0.0358
vn 0.5644 0.8189 -0.1035
vn 0.6062 0.7852 -0.1262
vn 0.7709 0.6179 0.1542
vn 0.7592 0.6225 0.1901
vn 0.7729 0.5993 0.2081
vn 0.7899 0.5911 0.1634
vn 0.742 0.6146 0.2677
vn 0.7219 0.6462 0.2473
vn 0.6778 0.7061 0.2048
vn 0.7372 0.6674 0.105
vn 0.7352 0.6638 0.1372
vn 0.6636 0.6681 0.3365
vn 0.6748 0.6448 0.3589
vn 0.705 0.6311 0.3235
vn 0.6883 0.6556 0.3104
vn 0.6416 0.7076 0.2961
vn 0.6169 0.7236 0.3095
vn 0.5496 0.7828 0.2916
vn 0.6234 0.7661 0.1563
vn 0.575 0.7644 0.2917
vn 0.7014 0.7119 0.0338
vn 0.7103 0.7011 0.0619
vn 0.8065 0.5724 0.1479
vn 0.7913 0.5785 0.1979
vn 0.8118 0.5561 0.1783
vn 0.8391 0.5214 0.1551
vn 0.7746 0.555 0.3033
vn 0.7509 0.5994 0.2772
vn 0.6662 0.6379 0.3862
vn 0.6775 0.5968 0.4299
vn 0.6905 0.6126 0.3846
vn 0.7013 0.6205 0.3509
vn -0.4297 -0.8479 -0.3104
vn -0.5476 -0.8315 -0.0937
vn -0.5895 -0.7976 -0.1277
vn -0.4197 -0.8091 -0.4112
vn -0.3573 -0.7811 -0.5121
vn -0.3681 -0.7906 -0.4894
vn -0.4168 -0.7964 -0.4381
vn -0.4761 -0.8259 -0.3019
vn -0.5763 -0.8088 -0.1169
vn -0.6702 -0.7356 0.0983
vn -0.7739 -0.6009 0.1999
vn -0.7849 -0.5813 0.2144
vn -0.7397 -0.6597 0.1326
vn -0.682 -0.7298 0.0479
vn -0.7577 -0.6371 0.1412
vn -0.7769 -0.6139 -0.1396
vn -0.8121 -0.5823 -0.0369
vn -0.7884 -0.6152 -0.0006
vn -0.7431 -0.6628 -0.0919
vn -0.6779 -0.706 -0.2049
vn -0.7221 -0.646 -0.2474
vn -0.7421 -0.6145 -0.2678
vn -0.7958 -0.5878 -0.1454
vn -0.8207 -0.5711 -0.0161
vn -0.6536 -0.6715 -0.3489
vn -0.608 -0.7259 -0.3215
vn -0.5447 -0.729 -0.4145
vn -0.5795 -0.691 -0.4321
vn -0.5642 -0.6909 -0.4519
vn -0.6622 -0.6503 -0.3723
vn -0.5411 -0.7843 -0.3034
vn -0.6234 -0.7661 -0.1563
vn -0.482 -0.7727 -0.4129
vn -0.7072 -0.7067 -0.0214
vn -0.7649 -0.6406 0.0677
vn -0.8069 -0.5791 -0.116
vn -0.8173 -0.5741 0.049
vn -0.7455 -0.6086 -0.2715
vn -0.7205 -0.6485 -0.2458
vn -0.7962 -0.6048 -0.0175
vn -0.8104 -0.5788 0.0906
vn -0.6416 -0.6563 -0.3969
vn -0.5093 -0.7179 -0.4745
vn -0.4725 -0.7367 -0.4838
vn -0.5605 -0.7148 -0.4182
vn -0.1286 0.0551 0.9901
vn 0.1598 -0.2381 0.958
vn -0.2475 0.1512 0.957
vn -0.8104 -0.5788 0.0906
vn 0.5819 -0.7664 0.2719
vn 0.8204 -0.5475 -0.1646
vn 0.3577 -0.8251 0.4372
vn -0.4725 -0.7367 -0.4838
vn 0.4135 0.2288 -0.8813
vn 0.1328 0.3858 -0.913
vn 0.5529 0.0796 -0.8294
vn -0.3573 -0.7811 -0.5121
vn -0.7896 0.6118 -0.0465
vn -0.6 0.728 0.3317
vn -0.7198 0.4322 -0.5432
vn -0.7849 -0.5813 0.2144
vn -0.4655 0.6396 0.6117
vn -0.3849 0.5178 0.764
vn 0.3493 -0.6576 0.6675
vn 0.766 -0.3628 -0.5305
vn 0.6995 -0.2909 -0.6527
vn -0.304 0.3851 -0.8714
vn 0.6186 -0.0447 -0.7844
vn 0.6404 -0.1249 -0.7578
vn -0.3419 0.4038 0.8485
vn -0.3272 0.3269 0.8866
vn -0.3108 0.2484 0.9174
vn 0.6567 -0.2034 -0.7262
vt 0.839504 0.118056
vt 0.856743 0.205307
vt 0.741230 0.205307
vt 0.734555 0.106726
vt 0.724541 0.032791
vt 0.813647 0.052618
vt 0.868992 0.081539
vt 0.913398 0.129584
vt 0.940923 0.205307
vt 0.839504 0.292557
vt 0.813647 0.357995
vt 0.724541 0.377822
vt 0.734555 0.303887
vt 0.913398 0.281029
vt 0.868992 0.329074
vt 0.369475 0.299954
vt 0.368286 0.370940
vt 0.245840 0.351447
vt 0.246397 0.288815
vt 0.246768 0.205307
vt 0.370268 0.205307
vt 0.494283 0.205307
vt 0.492822 0.304944
vt 0.490632 0.379672
vt 0.369475 0.110659
vt 0.246397 0.121798
vt 0.245841 0.059166
vt 0.368286 0.039673
vt 0.490632 0.030941
vt 0.492822 0.105669
vt 0.616755 0.103478
vt 0.619174 0.205307
vt 0.613127 0.027106
vt 0.616755 0.307135
vt 0.613126 0.383507
vt 0.123273 0.268175
vt 0.123047 0.315326
vt 0.054743 0.283353
vt 0.030912 0.249131
vt 0.030973 0.205306
vt 0.123423 0.205306
vt 0.123273 0.142438
vt 0.030912 0.161481
vt 0.054744 0.127260
vt 0.123047 0.095287
vt 0.839504 0.118056
vt 0.856743 0.205307
vt 0.968983 0.205307
vt 0.938030 0.133427
vt 0.876123 0.061548
vt 0.805028 0.030806
vt 0.721203 0.008146
vt 0.734555 0.106726
vt 0.741230 0.205307
vt 0.839504 0.292557
vt 0.805028 0.379807
vt 0.876123 0.349065
vt 0.938030 0.277186
vt 0.734555 0.303887
vt 0.721203 0.402467
vt 0.369475 0.299954
vt 0.367890 0.394602
vt 0.489902 0.404581
vt 0.492822 0.304944
vt 0.494283 0.205307
vt 0.370268 0.205307
vt 0.246768 0.205307
vt 0.246397 0.288815
vt 0.245655 0.372324
vt 0.369475 0.110659
vt 0.492822 0.105669
vt 0.489902 0.006032
vt 0.367890 0.016011
vt 0.245655 0.038289
vt 0.246397 0.121798
vt 0.616755 0.103478
vt 0.619174 0.205307
vt 0.611917 0.001649
vt 0.616755 0.307135
vt 0.611917 0.408964
vt 0.123273 0.268175
vt 0.122972 0.331043
vt 0.123423 0.205306
vt 0.000156 0.205306
vt 0.000125 0.242784
vt 0.000064 0.280261
vt 0.123273 0.142438
vt 0.122972 0.079570
vt 0.000064 0.130352
vt 0.000125 0.167829
vt 0.122972 0.331043
vt 0.030806 0.283587
vt 0.245655 0.372324
vt 0.030806 0.283587
vt 0.000125 0.167829
vt 0.030806 0.127026
vt 0.000156 0.205306
vt 0.030806 0.127026
vt 0.805028 0.030806
vt 0.873826 0.071832
vt 0.721203 0.008146
vt 0.873826 0.071832
vt 0.938030 0.277186
vt 0.873826 0.338781
vt 0.968983 0.205307
vt 0.873826 0.338781
vt 0.805028 0.379807
vt 0.721203 0.402467
vt 0.000125 0.242784
vt 0.122972 0.079570
vt 0.245655 0.038289
vt 0.938030 0.133427
vt 0.611917 0.001649
vt 0.489902 0.006032
vt 0.611917 0.408964
vt 0.489902 0.404581
vt 0.367890 0.394602
vt 0.367890 0.016011
f 1/1/1 2/2/2 3/3/3
f 1/1/1 3/3/3 4/4/4
f 1/1/1 4/4/4 5/5/5
f 1/1/1 5/5/5 6/6/6
f 1/1/1 6/6/6 7/7/7
f 1/1/1 7/7/7 8/8/8
f 1/1/1 8/8/8 9/9/9
f 1/1/1 9/9/9 2/2/2
f 10/10/10 11/11/11 12/12/12
f 10/10/10 12/12/12 13/13/13
f 10/10/10 13/13/13 3/3/3
f 10/10/10 3/3/3 2/2/2
f 10/10/10 2/2/2 9/9/9
f 10/10/10 9/9/9 14/14/14
f 10/10/10 14/14/14 15/15/15
f 10/10/10 15/15/15 11/11/11
f 16/16/16 17/17/17 18/18/18
f 16/16/16 18/18/18 19/19/19
f 16/16/16 19/19/19 20/20/20
f 16/16/16 20/20/20 21/21/21
f 16/16/16 21/21/21 22/22/22
f 16/16/16 22/22/22 23/23/23
f 16/16/16 23/23/23 24/24/24
f 16/16/16 24/24/24 17/17/17
f 25/25/25 21/21/21 20/20/20
f 25/25/25 20/20/20 26/26/26
f 25/25/25 26/26/26 27/27/27
f 25/25/25 27/27/27 28/28/28
f 25/25/25 28/28/28 29/29/29
f 25/25/25 29/29/29 30/30/30
f 25/25/25 30/30/30 22/22/22
f 25/25/25 22/22/22 21/21/21
f 31/31/31 32/32/32 22/22/22
f 31/31/31 22/22/22 30/30/30
f 31/31/31 30/30/30 29/29/29
f 31/31/31 29/29/29 33/33/33
f 31/31/31 33/33/33 5/5/5
f 31/31/31 5/5/5 4/4/4
f 31/31/31 4/4/4 3/3/3
f 31/31/31 3/3/3 32/32/32
f 34/34/34 35/35/35 24/24/24
f 34/34/34 24/24/24 23/23/23
f 34/34/34 23/23/23 22/22/22
f 34/34/34 22/22/22 32/32/32
f 34/34/34 32/32/32 3/3/3
f 34/34/34 3/3/3 13/13/13
f 34/34/34 13/13/13 12/12/12
f 34/34/34 12/12/12 35/35/35
f 36/36/36 37/37/37 38/38/38
f 36/36/36 38/38/38 39/39/39
f 36/36/36 39/39/39 40/40/40
f 36/36/36 40/40/40 41/41/41
f 36/36/36 41/41/41 20/20/20
f 36/36/36 20/20/20 19/19/19
f 36/36/36 19/19/19 18/18/18
f 36/36/36 18/18/18 37/37/37
f 42/42/42 41/41/41 40/40/40
f 42/42/42 40/40/40 43/43/43
f 42/42/42 43/43/43 44/44/44
f 42/42/42 44/44/44 45/45/45
f 42/42/42 45/45/45 27/27/27
f 42/42/42 27/27/27 26/26/26
f 42/42/42 26/26/26 20/20/20
f 42/42/42 20/20/20 41/41/41
f 46/46/46 47/47/47 48/48/48
f 46/46/46 48/48/48 49/49/49
f 46/46/46 49/49/49 50/50/50
f 46/46/46 50/50/50 51/51/51
f 46/46/46 51/51/51 52/52/52
f 46/46/46 52/52/52 53/53/53
f 46/46/46 53/53/53 54/54/54
f 46/46/46 54/54/54 47/47/47
f 55/55/55 56/56/56 57/57/57
f 55/55/55 57/57/57 58/58/58
f 55/55/55 58/58/58 48/48/48
f 55/55/55 48/48/48 47/47/47
f 55/55/55 47/47/47 54/54/54
f 55/55/55 54/54/54 59/59/59
f 55/55/55 59/59/59 60/60/60
f 55/55/55 60/60/60 56/56/56
f 61/61/61 62/62/62 63/63/63
f 61/61/61 63/63/63 64/64/64
f 61/61/61 64/64/64 65/65/65
f 61/61/61 65/65/65 66/66/66
f 61/61/61 66/66/66 67/67/67
f 61/61/61 67/67/67 68/68/68
f 61/61/61 68/68/68 69/69/69
f 61/61/61 69/69/69 62/62/62
f 70/70/70 66/66/66 65/65/65
f 70/70/70 65/65/65 71/71/71
f 70/70/70 71/71/71 72/72/72
f 70/70/70 72/72/72 73/73/73
f 70/70/70 73/73/73 74/74/74
f 70/70/70 74/74/74 75/75/75
f 70/70/70 75/75/75 67/67/67
f 70/70/70 67/67/67 66/66/66
f 76/76/76 77/77/77 54/54/54
f 76/76/76 54/54/54 53/53/53
f 76/76/76 53/53/53 52/52/52
f 76/76/76 52/52/52 78/78/78
f 76/76/76 78/78/78 72/72/72
f 76/76/76 72/72/72 71/71/71
f 76/76/76 71/71/71 65/65/65
f 76/76/76 65/65/65 77/77/77
f 79/79/79 80/80/80 60/60/60
f 79/79/79 60/60/60 59/59/59
f 79/79/79 59/59/59 54/54/54
f 79/79/79 54/54/54 77/77/77
f 79/79/79 77/77/77 65/65/65
f 79/79/79 65/65/65 64/64/64
f 79/79/79 64/64/64 63/63/63
f 79/79/79 63/63/63 80/80/80
f 81/81/81 82/82/82 69/69/69
f 81/81/81 69/69/69 68/68/68
f 81/81/81 68/68/68 67/67/67
f 81/81/81 67/67/67 83/83/83
f 81/81/81 83/83/83 84/84/84
f 81/81/81 84/84/84 85/85/85
f 81/81/81 85/85/85 86/86/86
f 81/81/81 86/86/86 82/82/82
f 87/87/87 83/83/83 67/67/67
f 87/87/87 67/67/67 75/75/75
f 87/87/87 75/75/75 74/74/74
f 87/87/87 74/74/74 88/88/88
f 87/87/87 88/88/88 89/89/89
f 87/87/87 89/89/89 90/90/90
f 87/87/87 90/90/90 84/84/84
f 87/87/87 84/84/84 83/83/83
f 91/91/91 92/92/92 38/38/38
f 91/91/91 38/38/38 37/37/37
f 91/91/91 37/37/37 18/18/18
f 91/91/91 18/18/18 93/93/93
f 91/91/91 93/93/93 69/69/69
f 91/91/91 69/69/69 82/82/82
f 91/91/91 82/82/82 94/94/94
f 91/91/91 94/94/94 92/92/92
f 95/95/95 96/96/96 44/44/44
f 95/95/95 44/44/44 43/43/43
f 95/95/95 43/43/43 40/40/40
f 95/95/95 40/40/40 97/97/97
f 95/95/95 97/97/97 84/84/84
f 95/95/95 84/84/84 90/90/90
f 95/95/95 90/90/90 98/98/98
f 95/95/95 98/98/98 96/96/96
f 99/99/99 100/100/100 7/7/7
f 99/99/99 7/7/7 6/6/6
f 99/99/99 6/6/6 5/5/5
f 99/99/99 5/5/5 101/101/101
f 99/99/99 101/101/101 52/52/52
f 99/99/99 52/52/52 51/51/51
f 99/99/99 51/51/51 102/102/102
f 99/99/99 102/102/102 100/100/100
f 103/103/103 104/104/104 15/15/15
f 103/103/103 15/15/15 14/14/14
f 103/103/103 14/14/14 9/9/9
f 103/103/103 9/9/9 105/105/105
f 103/103/103 105/105/105 48/48/48
f 103/103/103 48/48/48 58/58/58
f 103/103/103 58/58/58 106/106/106
f 103/103/103 106/106/106 104/104/104
f 107/107/107 108/108/108 12/12/12
f 107/107/107 12/12/12 11/11/11
f 107/107/107 11/11/11 15/15/15
f 107/107/107 15/15/15 104/104/104
f 107/107/107 104/104/104 106/106/106
f 107/107/107 106/106/106 56/56/56
f 107/107/107 56/56/56 60/60/60
f 107/107/107 60/60/60 108/108/108
f 109/109/109 97/97/97 40/40/40
f 109/109/109 40/40/40 39/39/39
f 109/109/109 39/39/39 38/38/38
f 109/109/109 38/38/38 92/92/92
f 109/109/109 92/92/92 94/94/94
f 109/109/109 94/94/94 85/85/85
f 109/109/109 85/85/85 84/84/84
f 109/109/109 84/84/84 97/97/97
f 110/110/110 111/111/111 27/27/27
f 110/110/110 27/27/27 45/45/45
f 110/110/110 45/45/45 44/44/44
f 110/110/110 44/44/44 96/96/96
f 110/110/110 96/96/96 98/98/98
f 110/110/110 98/98/98 88/88/88
f 110/110/110 88/88/88 74/74/74
f 110/110/110 74/74/74 111/111/111
f 112/112/112 105/105/105 9/9/9
f 112/112/112 9/9/9 8/8/8
f 112/112/112 8/8/8 7/7/7
f 112/112/112 7/7/7 100/100/100
f 112/112/112 100/100/100 102/102/102
f 112/112/112 102/102/102 49/49/49
f 112/112/112 49/49/49 48/48/48
f 112/112/112 48/48/48 105/105/105
f 113/113/113 101/101/101 5/5/5
f 113/113/113 5/5/5 33/33/33
f 113/113/113 33/33/33 29/29/29
f 113/113/113 29/29/29 114/114/114
f 113/113/113 114/114/114 72/72/72
f 113/113/113 72/72/72 78/78/78
f 113/113/113 78/78/78 52/52/52
f 113/113/113 52/52/52 101/101/101
f 115/115/115 116/116/116 24/24/24
f 115/115/115 24/24/24 35/35/35
f 115/115/115 35/35/35 12/12/12
f 115/115/115 12/12/12 108/108/108
f 115/115/115 108/108/108 60/60/60
f 115/115/115 60/60/60 80/80/80
f 115/115/115 80/80/80 63/63/63
f 115/115/115 63/63/63 116/116/116
f 117/117/117 93/93/93 18/18/18
f 117/117/117 18/18/18 17/17/17
f 117/117/117 17/17/17 24/24/24
f 117/117/117 24/24/24 116/116/116
f 117/117/117 116/116/116 63/63/63
f 117/117/117 63/63/63 62/62/62
f 117/117/117 62/62/62 69/69/69
f 117/117/117 69/69/69 93/93/93
f 118/118/118 114/114/114 29/29/29
f 118/118/118 29/29/29 28/28/28
f 118/118/118 28/28/28 27/27/27
f 118/118/118 27/27/27 111/111/111
f 118/118/118 111/111/111 74/74/74
f 118/118/118 74/74/74 73/73/73
f 118/118/118 73/73/73 72/72/72
f 118/118/118 72/72/72 114/114/114
