v -2.423157 0.79853 -1.152548
v -2.422102 0.798851 -1.150667
v -2.420061 0.797558 -1.152277
v -2.421499 0.797283 -1.15421
v -2.422443 0.797197 -1.155833
v -2.423676 0.798333 -1.154246
v -2.42423 0.798915 -1.152876
v -2.424302 0.799329 -1.151263
v -2.423618 0.799711 -1.149443
v -2.420285 0.799356 -1.149571
v -2.418638 0.799781 -1.149024
v -2.41672 0.798842 -1.149901
v -2.418234 0.798221 -1.150826
v -2.421816 0.800044 -1.148686
v -2.42015 0.800088 -1.148647
v -2.412304 0.792832 -1.155121
v -2.410997 0.793333 -1.154018
v -2.40948 0.791043 -1.15552
v -2.410643 0.790592 -1.156487
v -2.412132 0.790076 -1.157851
v -2.41398 0.792256 -1.156673
v -2.415907 0.794274 -1.155374
v -2.414146 0.794894 -1.153762
v -2.412767 0.795443 -1.152627
v -2.415503 0.791913 -1.158437
v -2.413472 0.789779 -1.159419
v -2.414437 0.789618 -1.160658
v -2.416602 0.791721 -1.159828
v -2.41863 0.793758 -1.158704
v -2.417492 0.793932 -1.157231
v -2.419551 0.795736 -1.155797
v -2.417965 0.796037 -1.153877
v -2.420669 0.795627 -1.157346
v -2.416155 0.796712 -1.152277
v -2.414719 0.797338 -1.151178
v -2.40918 0.788241 -1.157993
v -2.408287 0.788611 -1.157302
v -2.407869 0.78713 -1.158438
v -2.408167 0.786418 -1.159157
v -2.408963 0.786103 -1.159807
v -2.410309 0.787831 -1.158988
v -2.411291 0.787634 -1.160182
v -2.409613 0.786002 -1.160656
v -2.410472 0.786382 -1.161137
v -2.411989 0.787547 -1.161139
v -2.423232 0.798331 -1.152466
v -2.422154 0.798656 -1.150562
v -2.423655 0.799563 -1.149366
v -2.424356 0.799178 -1.151205
v -2.424275 0.798803 -1.152838
v -2.423742 0.798183 -1.154197
v -2.422511 0.79705 -1.155777
v -2.421577 0.797088 -1.154121
v -2.42012 0.797367 -1.152167
v -2.420316 0.799169 -1.149444
v -2.41865 0.799646 -1.148919
v -2.420161 0.799986 -1.148573
v -2.421836 0.799902 -1.148592
v -2.418274 0.798037 -1.150697
v -2.416741 0.798708 -1.149795
v -2.412378 0.792671 -1.154976
v -2.411045 0.793214 -1.153902
v -2.412808 0.795319 -1.152515
v -2.414211 0.794725 -1.153623
v -2.415986 0.7941 -1.155249
v -2.414068 0.792089 -1.156542
v -2.412225 0.789916 -1.157717
v -2.410723 0.790437 -1.156338
v -2.409532 0.790929 -1.155402
v -2.415604 0.791743 -1.158321
v -2.417586 0.793755 -1.157122
v -2.418707 0.793623 -1.15863
v -2.416684 0.791593 -1.159748
v -2.414524 0.789494 -1.160576
v -2.413579 0.789616 -1.159299
v -2.419636 0.795549 -1.155697
v -2.418034 0.795854 -1.15376
v -2.420741 0.795486 -1.15728
v -2.416208 0.796535 -1.152143
v -2.41475 0.797208 -1.151069
v -2.409261 0.788089 -1.157842
v -2.40834 0.788499 -1.157182
v -2.410404 0.787674 -1.158851
v -2.409035 0.785985 -1.159705
v -2.408226 0.786304 -1.159043
v -2.40791 0.787047 -1.158351
v -2.411402 0.787473 -1.160061
v -2.412079 0.787424 -1.161057
v -2.410537 0.786292 -1.161074
v -2.409697 0.785881 -1.160567
v -2.408011 0.788685 -1.157016
v -2.407512 0.786686 -1.158654
v -2.409113 0.791143 -1.155143
v -2.40791 0.787047 -1.158351
v -2.409091 0.785404 -1.160775
v -2.41012 0.785936 -1.161357
v -2.408546 0.785475 -1.160034
v -2.410537 0.786292 -1.161074
v -2.42388 0.7982 -1.154793
v -2.424476 0.798962 -1.153
v -2.42279 0.797102 -1.156351
v -2.424275 0.798803 -1.152838
v -2.422334 0.80021 -1.14835
v -2.420062 0.800231 -1.148424
v -2.424139 0.799932 -1.149001
v -2.420161 0.799986 -1.148573
v -2.418092 0.799864 -1.148793
v -2.416223 0.79899 -1.149543
v -2.407855 0.785759 -1.159494
v -2.412263 0.787463 -1.161424
v -2.414799 0.789509 -1.161037
v -2.424708 0.799527 -1.15081
v -2.421076 0.795528 -1.157835
v -2.419045 0.793639 -1.159164
v -2.414252 0.79749 -1.150762
v -2.412323 0.795572 -1.152197
v -2.410581 0.793448 -1.153597
v -2.417006 0.7916 -1.160257
vn 0.3506 0.8939 -0.2793
vn 0.193 0.8816 -0.4307
vn 0.2349 0.8543 -0.4636
vn 0.3777 0.8651 -0.33
vn 0.3889 0.852 -0.3504
vn 0.3458 0.8937 -0.2859
vn 0.3131 0.9191 -0.2394
vn 0.2591 0.9308 -0.2576
vn 0.1262 0.9178 -0.3763
vn 0.0557 0.8091 -0.5849
vn 0.0617 0.812 -0.5803
vn 0.1381 0.7799 -0.6105
vn 0.114 0.7894 -0.6032
vn 0.0183 0.8616 -0.5072
vn 0.0079 0.8314 -0.5557
vn 0.3253 0.6805 -0.6566
vn 0.357 0.6843 -0.6358
vn 0.3786 0.6625 -0.6463
vn 0.3397 0.6553 -0.6747
vn 0.4279 0.6756 -0.6002
vn 0.4022 0.7053 -0.5837
vn 0.3484 0.761 -0.5472
vn 0.2679 0.7266 -0.6327
vn 0.2985 0.7232 -0.6228
vn 0.4733 0.723 -0.5031
vn 0.4985 0.7009 -0.5101
vn 0.4721 0.6894 -0.5493
vn 0.4547 0.7124 -0.5345
vn 0.4276 0.7602 -0.489
vn 0.4339 0.7743 -0.4606
vn 0.398 0.8277 -0.3957
vn 0.2861 0.816 -0.5023
vn 0.405 0.8114 -0.4214
vn 0.1886 0.7675 -0.6127
vn 0.2184 0.7577 -0.6149
vn 0.3294 0.6379 -0.6961
vn 0.3739 0.643 -0.6683
vn 0.3607 0.6222 -0.6948
vn 0.346 0.5899 -0.7295
vn 0.4722 0.6192 -0.6273
vn 0.4398 0.6613 -0.6077
vn 0.5229 0.6936 -0.4954
vn 0.5691 0.654 -0.4984
vn 0.5281 0.6704 -0.5212
vn 0.498 0.6788 -0.5396
vn -0.3842 -0.8828 0.2701
vn -0.2046 -0.8744 0.4399
vn -0.249 -0.8444 0.4743
vn -0.4803 -0.8441 0.2381
vn -0.563 -0.8119 0.1546
vn -0.5434 -0.822 0.17
vn -0.506 -0.8314 0.2293
vn -0.3882 -0.8647 0.3188
vn -0.2348 -0.8544 0.4635
vn -0.0523 -0.7874 0.6142
vn 0.016 -0.661 0.7502
vn 0.0268 -0.6423 0.766
vn -0.0388 -0.7173 0.6956
vn -0.1043 -0.783 0.6132
vn -0.0356 -0.6962 0.7169
vn -0.3128 -0.6768 0.6663
vn -0.2232 -0.6475 0.7287
vn -0.1811 -0.6779 0.7124
vn -0.2568 -0.7224 0.642
vn -0.3485 -0.7609 0.5472
vn -0.4024 -0.7052 0.5837
vn -0.428 -0.6756 0.6003
vn -0.3239 -0.6524 0.6851
vn -0.2056 -0.6369 0.743
vn -0.4828 -0.7257 0.4901
vn -0.4432 -0.776 0.4487
vn -0.5172 -0.7745 0.3641
vn -0.544 -0.7397 0.3961
vn -0.5593 -0.7385 0.3763
vn -0.5081 -0.7054 0.4941
vn -0.4072 -0.8285 0.3843
vn -0.2861 -0.816 0.5023
vn -0.4987 -0.813 0.3005
vn -0.1782 -0.7626 0.6218
vn -0.1084 -0.7008 0.705
vn -0.2985 -0.6444 0.704
vn -0.1417 -0.6388 0.7562
vn -0.4326 -0.67 0.6032
vn -0.4004 -0.7074 0.5825
vn -0.1997 -0.6684 0.7165
vn -0.0995 -0.6426 0.7596
vn -0.5266 -0.71 0.4676
vn -0.5667 -0.7611 0.3156
vn -0.5659 -0.7768 0.2763
vn -0.525 -0.7618 0.3794
vn 0.9242 0.0516 0.3784
vn 0.9737 -0.217 0.069
vn 0.8596 0.1372 0.4922
vn -0.0995 -0.6426 0.7596
vn 0.4309 -0.7137 -0.5521
vn 0.0621 -0.4792 -0.8755
vn 0.5364 -0.7895 -0.2982
vn -0.5659 -0.7768 0.2763
vn -0.7554 0.2553 -0.6035
vn -0.8609 0.3881 -0.3288
vn -0.6659 0.1186 -0.7365
vn -0.563 -0.8119 0.1546
vn -0.2606 0.5443 0.7973
vn 0.1497 0.6787 0.719
vn -0.7183 0.3674 0.5907
vn 0.0268 -0.6423 0.766
vn 0.4569 0.6039 0.6531
vn 0.6279 0.4903 0.6044
vn 0.7523 -0.6213 -0.2192
vn -0.3109 -0.3027 -0.901
vn -0.4473 -0.2379 -0.8621
vn -0.9303 0.352 0.103
vn -0.6022 0.0003 -0.7983
vn -0.5688 -0.0778 -0.8188
vn 0.7236 0.381 0.5755
vn 0.7662 0.3059 0.5651
vn 0.8025 0.2292 0.5508
vn -0.5317 -0.1547 -0.8327
vt 0.839504 0.118056
vt 0.856743 0.205307
vt 0.741230 0.205307
vt 0.734555 0.106726
vt 0.724541 0.032791
vt 0.813647 0.052618
vt 0.868992 0.081539
vt 0.913398 0.129584
vt 0.940923 0.205307
vt 0.839504 0.292557
vt 0.813647 0.357995
vt 0.724541 0.377822
vt 0.734555 0.303887
vt 0.913398 0.281029
vt 0.868992 0.329074
vt 0.369475 0.299954
vt 0.368286 0.370940
vt 0.245840 0.351447
vt 0.246397 0.288815
vt 0.246768 0.205307
vt 0.370268 0.205307
vt 0.494283 0.205307
vt 0.492822 0.304944
vt 0.490632 0.379672
vt 0.369475 0.110659
vt 0.246397 0.121798
vt 0.245841 0.059166
vt 0.368286 0.039673
vt 0.490632 0.030941
vt 0.492822 0.105669
vt 0.616755 0.103478
vt 0.619174 0.205307
vt 0.613127 0.027106
vt 0.616755 0.307135
vt 0.613126 0.383507
vt 0.123273 0.268175
vt 0.123047 0.315326
vt 0.054743 0.283353
vt 0.030912 0.249131
vt 0.030973 0.205306
vt 0.123423 0.205306
vt 0.123273 0.142438
vt 0.030912 0.161481
vt 0.054744 0.127260
vt 0.123047 0.095287
vt 0.839504 0.118056
vt 0.856743 0.205307
vt 0.968983 0.205307
vt 0.938030 0.133427
vt 0.876123 0.061548
vt 0.805028 0.030806
vt 0.721203 0.008146
vt 0.734555 0.106726
vt 0.741230 0.205307
vt 0.839504 0.292557
vt 0.805028 0.379807
vt 0.876123 0.349065
vt 0.938030 0.277186
vt 0.734555 0.303887
vt 0.721203 0.402467
vt 0.369475 0.299954
vt 0.367890 0.394602
vt 0.489902 0.404581
vt 0.492822 0.304944
vt 0.494283 0.205307
vt 0.370268 0.205307
vt 0.246768 0.205307
vt 0.246397 0.288815
vt 0.245655 0.372324
vt 0.369475 0.110659
vt 0.492822 0.105669
vt 0.489902 0.006032
vt 0.367890 0.016011
vt 0.245655 0.038289
vt 0.246397 0.121798
vt 0.616755 0.103478
vt 0.619174 0.205307
vt 0.611917 0.001649
vt 0.616755 0.307135
vt 0.611917 0.408964
vt 0.123273 0.268175
vt 0.122972 0.331043
vt 0.123423 0.205306
vt 0.000156 0.205306
vt 0.000125 0.242784
vt 0.000064 0.280261
vt 0.123273 0.142438
vt 0.122972 0.079570
vt 0.000064 0.130352
vt 0.000125 0.167829
vt 0.122972 0.331043
vt 0.030806 0.283587
vt 0.245655 0.372324
vt 0.030806 0.283587
vt 0.000125 0.167829
vt 0.030806 0.127026
vt 0.000156 0.205306
vt 0.030806 0.127026
vt 0.805028 0.030806
vt 0.873826 0.071832
vt 0.721203 0.008146
vt 0.873826 0.071832
vt 0.938030 0.277186
vt 0.873826 0.338781
vt 0.968983 0.205307
vt 0.873826 0.338781
vt 0.805028 0.379807
vt 0.721203 0.402467
vt 0.000125 0.242784
vt 0.122972 0.079570
vt 0.245655 0.038289
vt 0.938030 0.133427
vt 0.611917 0.001649
vt 0.489902 0.006032
vt 0.611917 0.408964
vt 0.489902 0.404581
vt 0.367890 0.394602
vt 0.367890 0.016011
f 1/1/1 2/2/2 3/3/3
f 1/1/1 3/3/3 4/4/4
f 1/1/1 4/4/4 5/5/5
f 1/1/1 5/5/5 6/6/6
f 1/1/1 6/6/6 7/7/7
f 1/1/1 7/7/7 8/8/8
f 1/1/1 8/8/8 9/9/9
f 1/1/1 9/9/9 2/2/2
f 10/10/10 11/11/11 12/12/12
f 10/10/10 12/12/12 13/13/13
f 10/10/10 13/13/13 3/3/3
f 10/10/10 3/3/3 2/2/2
f 10/10/10 2/2/2 9/9/9
f 10/10/10 9/9/9 14/14/14
f 10/10/10 14/14/14 15/15/15
f 10/10/10 15/15/15 11/11/11
f 16/16/16 17/17/17 18/18/18
f 16/16/16 18/18/18 19/19/19
f 16/16/16 19/19/19 20/20/20
f 16/16/16 20/20/20 21/21/21
f 16/16/16 21/21/21 22/22/22
f 16/16/16 22/22/22 23/23/23
f 16/16/16 23/23/23 24/24/24
f 16/16/16 24/24/24 17/17/17
f 25/25/25 21/21/21 20/20/20
f 25/25/25 20/20/20 26/26/26
f 25/25/25 26/26/26 27/27/27
f 25/25/25 27/27/27 28/28/28
f 25/25/25 28/28/28 29/29/29
f 25/25/25 29/29/29 30/30/30
f 25/25/25 30/30/30 22/22/22
f 25/25/25 22/22/22 21/21/21
f 31/31/31 32/32/32 22/22/22
f 31/31/31 22/22/22 30/30/30
f 31/31/31 30/30/30 29/29/29
f 31/31/31 29/29/29 33/33/33
f 31/31/31 33/33/33 5/5/5
f 31/31/31 5/5/5 4/4/4
f 31/31/31 4/4/4 3/3/3
f 31/31/31 3/3/3 32/32/32
f 34/34/34 35/35/35 24/24/24
f 34/34/34 24/24/24 23/23/23
f 34/34/34 23/23/23 22/22/22
f 34/34/34 22/22/22 32/32/32
f 34/34/34 32/32/32 3/3/3
f 34/34/34 3/3/3 13/13/13
f 34/34/34 13/13/13 12/12/12
f 34/34/34 12/12/12 35/35/35
f 36/36/36 37/37/37 38/38/38
f 36/36/36 38/38/38 39/39/39
f 36/36/36 39/39/39 40/40/40
f 36/36/36 40/40/40 41/41/41
f 36/36/36 41/41/41 20/20/20
f 36/36/36 20/20/20 19/19/19
f 36/36/36 19/19/19 18/18/18
f 36/36/36 18/18/18 37/37/37
f 42/42/42 41/41/41 40/40/40
f 42/42/42 40/40/40 43/43/43
f 42/42/42 43/43/43 44/44/44
f 42/42/42 44/44/44 45/45/45
f 42/42/42 45/45/45 27/27/27
f 42/42/42 27/27/27 26/26/26
f 42/42/42 26/26/26 20/20/20
f 42/42/42 20/20/20 41/41/41
f 46/46/46 47/47/47 48/48/48
f 46/46/46 48/48/48 49/49/49
f 46/46/46 49/49/49 50/50/50
f 46/46/46 50/50/50 51/51/51
f 46/46/46 51/51/51 52/52/52
f 46/46/46 52/52/52 53/53/53
f 46/46/46 53/53/53 54/54/54
f 46/46/46 54/54/54 47/47/47
f 55/55/55 56/56/56 57/57/57
f 55/55/55 57/57/57 58/58/58
f 55/55/55 58/58/58 48/48/48
f 55/55/55 48/48/48 47/47/47
f 55/55/55 47/47/47 54/54/54
f 55/55/55 54/54/54 59/59/59
f 55/55/55 59/59/59 60/60/60
f 55/55/55 60/60/60 56/56/56
f 61/61/61 62/62/62 63/63/63
f 61/61/61 63/63/63 64/64/64
f 61/61/61 64/64/64 65/65/65
f 61/61/61 65/65/65 66/66/66
f 61/61/61 66/66/66 67/67/67
f 61/61/61 67/67/67 68/68/68
f 61/61/61 68/68/68 69/69/69
f 61/61/61 69/69/69 62/62/62
f 70/70/70 66/66/66 65/65/65
f 70/70/70 65/65/65 71/71/71
f 70/70/70 71/71/71 72/72/72
f 70/70/70 72/72/72 73/73/73
f 70/70/70 73/73/73 74/74/74
f 70/70/70 74/74/74 75/75/75
f 70/70/70 75/75/75 67/67/67
f 70/70/70 67/67/67 66/66/66
f 76/76/76 77/77/77 54/54/54
f 76/76/76 54/54/54 53/53/53
f 76/76/76 53/53/53 52/52/52
f 76/76/76 52/52/52 78/78/78
f 76/76/76 78/78/78 72/72/72
f 76/76/76 72/72/72 71/71/71
f 76/76/76 71/71/71 65/65/65
f 76/76/76 65/65/65 77/77/77
f 79/79/79 80/80/80 60/60/60
f 79/79/79 60/60/60 59/59/59
f 79/79/79 59/59/59 54/54/54
f 79/79/79 54/54/54 77/77/77
f 79/79/79 77/77/77 65/65/65
f 79/79/79 65/65/65 64/64/64
f 79/79/79 64/64/64 63/63/63
f 79/79/79 63/63/63 80/80/80
f 81/81/81 82/82/82 69/69/69
f 81/81/81 69/69/69 68/68/68
f 81/81/81 68/68/68 67/67/67
f 81/81/81 67/67/67 83/83/83
f 81/81/81 83/83/83 84/84/84
f 81/81/81 84/84/84 85/85/85
f 81/81/81 85/85/85 86/86/86
f 81/81/81 86/86/86 82/82/82
f 87/87/87 83/83/83 67/67/67
f 87/87/87 67/67/67 75/75/75
f 87/87/87 75/75/75 74/74/74
f 87/87/87 74/74/74 88/88/88
f 87/87/87 88/88/88 89/89/89
f 87/87/87 89/89/89 90/90/90
f 87/87/87 90/90/90 84/84/84
f 87/87/87 84/84/84 83/83/83
f 91/91/91 92/92/92 38/38/38
f 91/91/91 38/38/38 37/37/37
f 91/91/91 37/37/37 18/18/18
f 91/91/91 18/18/18 93/93/93
f 91/91/91 93/93/93 69/69/69
f 91/91/91 69/69/69 82/82/82
f 91/91/91 82/82/82 94/94/94
f 91/91/91 94/94/94 92/92/92
f 95/95/95 96/96/96 44/44/44
f 95/95/95 44/44/44 43/43/43
f 95/95/95 43/43/43 40/40/40
f 95/95/95 40/40/40 97/97/97
f 95/95/95 97/97/97 84/84/84
f 95/95/95 84/84/84 90/90/90
f 95/95/95 90/90/90 98/98/98
f 95/95/95 98/98/98 96/96/96
f 99/99/99 100/100/100 7/7/7
f 99/99/99 7/7/7 6/6/6
f 99/99/99 6/6/6 5/5/5
f 99/99/99 5/5/5 101/101/101
f 99/99/99 101/101/101 52/52/52
f 99/99/99 52/52/52 51/51/51
f 99/99/99 51/51/51 102/102/102
f 99/99/99 102/102/102 100/100/100
f 103/103/103 104/104/104 15/15/15
f 103/103/103 15/15/15 14/14/14
f 103/103/103 14/14/14 9/9/9
f 103/103/103 9/9/9 105/105/105
f 103/103/103 105/105/105 48/48/48
f 103/103/103 48/48/48 58/58/58
f 103/103/103 58/58/58 106/106/106
f 103/103/103 106/106/106 104/104/104
f 107/107/107 108/108/108 12/12/12
f 107/107/107 12/12/12 11/11/11
f 107/107/107 11/11/11 15/15/15
f 107/107/107 15/15/15 104/104/104
f 107/107/107 104/104/104 106/106/106
f 107/107/107 106/106/106 56/56/56
f 107/107/107 56/56/56 60/60/60
f 107/107/107 60/60/60 108/108/108
f 109/109/109 97/97/97 40/40/40
f 109/109/109 40/40/40 39/39/39
f 109/109/109 39/39/39 38/38/38
f 109/109/109 38/38/38 92/92/92
f 109/109/109 92/92/92 94/94/94
f 109/109/109 94/94/94 85/85/85
f 109/109/109 85/85/85 84/84/84
f 109/109/109 84/84/84 97/97/97
f 110/110/110 111/111/111 27/27/27
f 110/110/110 27/27/27 45/45/45
f 110/110/110 45/45/45 44/44/44
f 110/110/110 44/44/44 96/96/96
f 110/110/110 96/96/96 98/98/98
f 110/110/110 98/98/98 88/88/88
f 110/110/110 88/88/88 74/74/74
f 110/110/110 74/74/74 111/111/111
f 112/112/112 105/105/105 9/9/9
f 112/112/112 9/9/9 8/8/8
f 112/112/112 8/8/8 7/7/7
f 112/112/112 7/7/7 100/100/100
f 112/112/112 100/100/100 102/102/102
f 112/112/112 102/102/102 49/49/49
f 112/112/112 49/49/49 48/48/48
f 112/112/112 48/48/48 105/105/105
f 113/113/113 101/101/101 5/5/5
f 113/113/113 5/5/5 33/33/33
f 113/113/113 33/33/33 29/29/29
f 113/113/113 29/29/29 114/114/114
f 113/113/113 114/114/114 72/72/72
f 113/113/113 72/72/72 78/78/78
f 113/113/113 78/78/78 52/52/52
f 113/113/113 52/52/52 101/101/101
f 115/115/115 116/116/116 24/24/24
f 115/115/115 24/24/24 35/35/35
f 115/115/115 35/35/35 12/12/12
f 115/115/115 12/12/12 108/108/108
f 115/115/115 108/108/108 60/60/60
f 115/115/115 60/60/60 80/80/80
f 115/115/115 80/80/80 63/63/63
f 115/115/115 63/63/63 116/116/116
f 117/117/117 93/93/93 18/18/18
f 117/117/117 18/18/18 17/17/17
f 117/117/117 17/17/17 24/24/24
f 117/117/117 24/24/24 116/116/116
f 117/117/117 116/116/116 63/63/63
f 117/117/117 63/63/63 62/62/62
f 117/117/117 62/62/62 69/69/69
f 117/117/117 69/69/69 93/93/93
f 118/118/118 114/114/114 29/29/29
f 118/118/118 29/29/29 28/28/28
f 118/118/118 28/28/28 27/27/27
f 118/118/118 27/27/27 111/111/111
f 118/118/118 111/111/111 74/74/74
f 118/118/118 74/74/74 73/73/73
f 118/118/118 73/73/73 72/72/72
f 118/118/118 72/72/72 114/114/114
