v -2.387222 0.782399 -1.239407
v -2.388841 0.782292 -1.241123
v -2.39045 0.781196 -1.238655
v -2.388421 0.781376 -1.236998
v -2.387006 0.781673 -1.235566
v -2.386224 0.782578 -1.23776
v -2.386048 0.782918 -1.239437
v -2.386424 0.783009 -1.241199
v -2.387644 0.782994 -1.242964
v -2.391071 0.782522 -1.241862
v -2.392975 0.782793 -1.242065
v -2.394675 0.781917 -1.240457
v -2.392796 0.781516 -1.239788
v -2.389756 0.783115 -1.243324
v -2.391515 0.783092 -1.242923
v -2.397424 0.776518 -1.232684
v -2.399122 0.776761 -1.233567
v -2.400121 0.774604 -1.231151
v -2.398612 0.774379 -1.230379
v -2.396656 0.774183 -1.229273
v -2.395217 0.776305 -1.231423
v -2.393713 0.778234 -1.233686
v -2.396027 0.778476 -1.234994
v -2.397814 0.778761 -1.235901
v -2.393137 0.776381 -1.22995
v -2.394821 0.774258 -1.227962
v -2.393477 0.774392 -1.226915
v -2.391611 0.776521 -1.228777
v -2.389956 0.77851 -1.23089
v -2.391542 0.778333 -1.232134
v -2.389916 0.78001 -1.234529
v -2.392098 0.779853 -1.236136
v -2.388336 0.780272 -1.233215
v -2.394466 0.780155 -1.23743
v -2.39631 0.780526 -1.2383
v -2.399548 0.77216 -1.227961
v -2.400695 0.772369 -1.228506
v -2.400709 0.771031 -1.226925
v -2.400148 0.770442 -1.226123
v -2.399119 0.77028 -1.225606
v -2.398073 0.771983 -1.22716
v -2.396719 0.77207 -1.226157
v -2.39821 0.770381 -1.224887
v -2.39722 0.77092 -1.224701
v -2.395734 0.772211 -1.225342
v -2.387148 0.782173 -1.239471
v -2.388795 0.782064 -1.241206
v -2.387612 0.782822 -1.243024
v -2.386369 0.782838 -1.241243
v -2.386001 0.782793 -1.239466
v -2.386154 0.78241 -1.237799
v -2.386936 0.781507 -1.235613
v -2.388345 0.781154 -1.237072
v -2.390399 0.780971 -1.238746
v -2.391055 0.782297 -1.241963
v -2.392978 0.782628 -1.24215
v -2.391514 0.782968 -1.242982
v -2.389747 0.782946 -1.243397
v -2.392771 0.781295 -1.239895
v -2.39467 0.781753 -1.240545
v -2.397369 0.776318 -1.23282
v -2.399091 0.776612 -1.233675
v -2.397789 0.778606 -1.236002
v -2.39598 0.778269 -1.235121
v -2.393646 0.778025 -1.233801
v -2.395144 0.776104 -1.231549
v -2.396578 0.773988 -1.229405
v -2.398554 0.774185 -1.230522
v -2.400086 0.774459 -1.231264
v -2.393045 0.77618 -1.230063
v -2.391456 0.778125 -1.232237
v -2.389882 0.778355 -1.23096
v -2.391533 0.776371 -1.228855
v -2.393396 0.774246 -1.226998
v -2.394725 0.774063 -1.228081
v -2.389835 0.779793 -1.234617
v -2.39204 0.779636 -1.236239
v -2.388264 0.780111 -1.233273
v -2.39443 0.77994 -1.237547
v -2.396294 0.780367 -1.238394
v -2.399489 0.771969 -1.228107
v -2.400661 0.772226 -1.228621
v -2.397994 0.77179 -1.227294
v -2.399059 0.770135 -1.225707
v -2.400105 0.770299 -1.226234
v -2.400681 0.770925 -1.22701
v -2.39662 0.771877 -1.226278
v -2.39565 0.772067 -1.225426
v -2.397161 0.770813 -1.224765
v -2.398134 0.770236 -1.224977
v -2.401064 0.772375 -1.22874
v -2.400987 0.770594 -1.226518
v -2.40061 0.774615 -1.23146
v -2.400681 0.770925 -1.22701
v -2.398673 0.769753 -1.224504
v -2.397492 0.770482 -1.224289
v -2.399441 0.769648 -1.225133
v -2.397161 0.770813 -1.224765
v -2.385858 0.782564 -1.237226
v -2.385763 0.783003 -1.239385
v -2.386501 0.781698 -1.235108
v -2.386001 0.782793 -1.239466
v -2.389315 0.783237 -1.243843
v -2.391678 0.783192 -1.243158
v -2.387231 0.783151 -1.243604
v -2.391514 0.782968 -1.242982
v -2.393614 0.782811 -1.242173
v -2.395302 0.781979 -1.240721
v -2.400329 0.769806 -1.22556
v -2.395366 0.772194 -1.225106
v -2.392991 0.774372 -1.226601
v -2.386134 0.783136 -1.241815
v -2.387775 0.780288 -1.232801
v -2.389392 0.7785 -1.230505
v -2.39692 0.78058 -1.238633
v -2.3984 0.778787 -1.23625
v -2.399676 0.776776 -1.233911
v -2.391065 0.776501 -1.22842
vn -0.3465 0.9193 0.1865
vn -0.157 0.943 0.2934
vn -0.1876 0.9214 0.3402
vn -0.3583 0.9004 0.2468
vn -0.3633 0.8912 0.2715
vn -0.3404 0.9206 0.1916
vn -0.3218 0.9372 0.1345
vn -0.2663 0.9542 0.1363
vn -0.1083 0.9698 0.2183
vn 0.0184 0.9077 0.4192
vn 0.0114 0.9093 0.4159
vn -0.0527 0.8813 0.4695
vn -0.032 0.89 0.4548
vn 0.0318 0.9447 0.3263
vn 0.056 0.9251 0.3754
vn -0.2149 0.7869 0.5785
vn -0.2508 0.7854 0.5659
vn -0.2674 0.7654 0.5854
vn -0.2224 0.7653 0.6039
vn -0.3272 0.7673 0.5514
vn -0.3087 0.7939 0.5238
vn -0.2698 0.843 0.4653
vn -0.1687 0.8292 0.5329
vn -0.2004 0.8228 0.5318
vn -0.3981 0.7927 0.4617
vn -0.419 0.7716 0.4786
vn -0.3832 0.7691 0.5115
vn -0.3717 0.7892 0.4888
vn -0.3603 0.8278 0.4299
vn -0.3743 0.8357 0.4018
vn -0.3593 0.8762 0.3212
vn -0.2247 0.8899 0.3969
vn -0.3586 0.8651 0.3506
vn -0.1002 0.8679 0.4865
vn -0.1276 0.8578 0.4979
vn -0.2059 0.753 0.625
vn -0.256 0.751 0.6087
vn -0.2351 0.7364 0.6344
vn -0.2101 0.7121 0.6698
vn -0.359 0.716 0.5987
vn -0.3357 0.7543 0.5641
vn -0.4455 0.7606 0.4721
vn -0.4863 0.7208 0.4939
vn -0.4425 0.7429 0.5022
vn -0.4098 0.7558 0.5107
vn 0.3803 -0.9055 -0.1882
vn 0.1655 -0.9374 -0.3064
vn 0.1978 -0.9134 -0.3558
vn 0.4777 -0.8579 -0.1889
vn 0.5749 -0.8068 -0.1362
vn 0.5534 -0.8203 -0.1442
vn 0.5037 -0.8428 -0.1894
vn 0.3712 -0.8973 -0.2389
vn 0.1875 -0.9215 -0.3401
vn -0.0305 -0.8923 -0.4503
vn -0.1393 -0.7983 -0.5859
vn -0.155 -0.7834 -0.6019
vn -0.0687 -0.8405 -0.5375
vn 0.0197 -0.8861 -0.4631
vn -0.0785 -0.8242 -0.5607
vn 0.2001 -0.7857 -0.5853
vn 0.0961 -0.7725 -0.6277
vn 0.0618 -0.8005 -0.5961
vn 0.1554 -0.8273 -0.5397
vn 0.2699 -0.8429 -0.4654
vn 0.3088 -0.7938 -0.5239
vn 0.3273 -0.7673 -0.5515
vn 0.2044 -0.7652 -0.6105
vn 0.0748 -0.7656 -0.6389
vn 0.4105 -0.7924 -0.4512
vn 0.3862 -0.8347 -0.3926
vn 0.4778 -0.8137 -0.3308
vn 0.4933 -0.7851 -0.3745
vn 0.5127 -0.7795 -0.3597
vn 0.4324 -0.7725 -0.465
vn 0.371 -0.8744 -0.3127
vn 0.2247 -0.8899 -0.3969
vn 0.4782 -0.8393 -0.2586
vn 0.0875 -0.8654 -0.4934
vn -0.0049 -0.8239 -0.5667
vn 0.1747 -0.7619 -0.6236
vn 0.0101 -0.7724 -0.635
vn 0.3305 -0.7623 -0.5564
vn 0.3074 -0.7958 -0.5217
vn 0.0781 -0.7913 -0.6064
vn -0.0312 -0.7783 -0.6271
vn 0.457 -0.771 -0.4435
vn 0.5361 -0.7892 -0.2995
vn 0.546 -0.7967 -0.2589
vn 0.4807 -0.8041 -0.3497
vn -0.9886 -0.0567 -0.139
vn -0.9409 -0.2595 0.2173
vn -0.9602 0.0064 -0.279
vn -0.0312 -0.7783 -0.6271
vn -0.227 -0.6027 0.7649
vn 0.1873 -0.2956 0.9367
vn -0.3832 -0.7314 0.5641
vn 0.546 -0.7967 -0.2589
vn 0.8535 0.3968 0.3378
vn 0.8794 0.4754 0.0255
vn 0.8097 0.2863 0.5122
vn 0.5749 -0.8068 -0.1362
vn 0.018 0.382 -0.924
vn -0.3716 0.5153 -0.7722
vn 0.5244 0.2657 -0.8089
vn -0.155 -0.7834 -0.6019
vn -0.6473 0.4446 -0.6191
vn -0.7919 0.3374 -0.509
vn -0.6249 -0.5899 0.5113
vn 0.5394 -0.1053 0.8354
vn 0.6575 -0.0447 0.7521
vn 0.8469 0.3555 -0.3952
vn 0.7725 0.1809 0.6087
vn 0.7512 0.1071 0.6513
vn -0.8683 0.2332 -0.4377
vn -0.9012 0.16 -0.4029
vn -0.9266 0.0864 -0.3658
vn 0.725 0.0334 0.6879
vt 0.839504 0.118056
vt 0.856743 0.205307
vt 0.741230 0.205307
vt 0.734555 0.106726
vt 0.724541 0.032791
vt 0.813647 0.052618
vt 0.868992 0.081539
vt 0.913398 0.129584
vt 0.940923 0.205307
vt 0.839504 0.292557
vt 0.813647 0.357995
vt 0.724541 0.377822
vt 0.734555 0.303887
vt 0.913398 0.281029
vt 0.868992 0.329074
vt 0.369475 0.299954
vt 0.368286 0.370940
vt 0.245840 0.351447
vt 0.246397 0.288815
vt 0.246768 0.205307
vt 0.370268 0.205307
vt 0.494283 0.205307
vt 0.492822 0.304944
vt 0.490632 0.379672
vt 0.369475 0.110659
vt 0.246397 0.121798
vt 0.245841 0.059166
vt 0.368286 0.039673
vt 0.490632 0.030941
vt 0.492822 0.105669
vt 0.616755 0.103478
vt 0.619174 0.205307
vt 0.613127 0.027106
vt 0.616755 0.307135
vt 0.613126 0.383507
vt 0.123273 0.268175
vt 0.123047 0.315326
vt 0.054743 0.283353
vt 0.030912 0.249131
vt 0.030973 0.205306
vt 0.123423 0.205306
vt 0.123273 0.142438
vt 0.030912 0.161481
vt 0.054744 0.127260
vt 0.123047 0.095287
vt 0.839504 0.118056
vt 0.856743 0.205307
vt 0.968983 0.205307
vt 0.938030 0.133427
vt 0.876123 0.061548
vt 0.805028 0.030806
vt 0.721203 0.008146
vt 0.734555 0.106726
vt 0.741230 0.205307
vt 0.839504 0.292557
vt 0.805028 0.379807
vt 0.876123 0.349065
vt 0.938030 0.277186
vt 0.734555 0.303887
vt 0.721203 0.402467
vt 0.369475 0.299954
vt 0.367890 0.394602
vt 0.489902 0.404581
vt 0.492822 0.304944
vt 0.494283 0.205307
vt 0.370268 0.205307
vt 0.246768 0.205307
vt 0.246397 0.288815
vt 0.245655 0.372324
vt 0.369475 0.110659
vt 0.492822 0.105669
vt 0.489902 0.006032
vt 0.367890 0.016011
vt 0.245655 0.038289
vt 0.246397 0.121798
vt 0.616755 0.103478
vt 0.619174 0.205307
vt 0.611917 0.001649
vt 0.616755 0.307135
vt 0.611917 0.408964
vt 0.123273 0.268175
vt 0.122972 0.331043
vt 0.123423 0.205306
vt 0.000156 0.205306
vt 0.000125 0.242784
vt 0.000064 0.280261
vt 0.123273 0.142438
vt 0.122972 0.079570
vt 0.000064 0.130352
vt 0.000125 0.167829
vt 0.122972 0.331043
vt 0.030806 0.283587
vt 0.245655 0.372324
vt 0.030806 0.283587
vt 0.000125 0.167829
vt 0.030806 0.127026
vt 0.000156 0.205306
vt 0.030806 0.127026
vt 0.805028 0.030806
vt 0.873826 0.071832
vt 0.721203 0.008146
vt 0.873826 0.071832
vt 0.938030 0.277186
vt 0.873826 0.338781
vt 0.968983 0.205307
vt 0.873826 0.338781
vt 0.805028 0.379807
vt 0.721203 0.402467
vt 0.000125 0.242784
vt 0.122972 0.079570
vt 0.245655 0.038289
vt 0.938030 0.133427
vt 0.611917 0.001649
vt 0.489902 0.006032
vt 0.611917 0.408964
vt 0.489902 0.404581
vt 0.367890 0.394602
vt 0.367890 0.016011
f 1/1/1 2/2/2 3/3/3
f 1/1/1 3/3/3 4/4/4
f 1/1/1 4/4/4 5/5/5
f 1/1/1 5/5/5 6/6/6
f 1/1/1 6/6/6 7/7/7
f 1/1/1 7/7/7 8/8/8
f 1/1/1 8/8/8 9/9/9
f 1/1/1 9/9/9 2/2/2
f 10/10/10 11/11/11 12/12/12
f 10/10/10 12/12/12 13/13/13
f 10/10/10 13/13/13 3/3/3
f 10/10/10 3/3/3 2/2/2
f 10/10/10 2/2/2 9/9/9
f 10/10/10 9/9/9 14/14/14
f 10/10/10 14/14/14 15/15/15
f 10/10/10 15/15/15 11/11/11
f 16/16/16 17/17/17 18/18/18
f 16/16/16 18/18/18 19/19/19
f 16/16/16 19/19/19 20/20/20
f 16/16/16 20/20/20 21/21/21
f 16/16/16 21/21/21 22/22/22
f 16/16/16 22/22/22 23/23/23
f 16/16/16 23/23/23 24/24/24
f 16/16/16 24/24/24 17/17/17
f 25/25/25 21/21/21 20/20/20
f 25/25/25 20/20/20 26/26/26
f 25/25/25 26/26/26 27/27/27
f 25/25/25 27/27/27 28/28/28
f 25/25/25 28/28/28 29/29/29
f 25/25/25 29/29/29 30/30/30
f 25/25/25 30/30/30 22/22/22
f 25/25/25 22/22/22 21/21/21
f 31/31/31 32/32/32 22/22/22
f 31/31/31 22/22/22 30/30/30
f 31/31/31 30/30/30 29/29/29
f 31/31/31 29/29/29 33/33/33
f 31/31/31 33/33/33 5/5/5
f 31/31/31 5/5/5 4/4/4
f 31/31/31 4/4/4 3/3/3
f 31/31/31 3/3/3 32/32/32
f 34/34/34 35/35/35 24/24/24
f 34/34/34 24/24/24 23/23/23
f 34/34/34 23/23/23 22/22/22
f 34/34/34 22/22/22 32/32/32
f 34/34/34 32/32/32 3/3/3
f 34/34/34 3/3/3 13/13/13
f 34/34/34 13/13/13 12/12/12
f 34/34/34 12/12/12 35/35/35
f 36/36/36 37/37/37 38/38/38
f 36/36/36 38/38/38 39/39/39
f 36/36/36 39/39/39 40/40/40
f 36/36/36 40/40/40 41/41/41
f 36/36/36 41/41/41 20/20/20
f 36/36/36 20/20/20 19/19/19
f 36/36/36 19/19/19 18/18/18
f 36/36/36 18/18/18 37/37/37
f 42/42/42 41/41/41 40/40/40
f 42/42/42 40/40/40 43/43/43
f 42/42/42 43/43/43 44/44/44
f 42/42/42 44/44/44 45/45/45
f 42/42/42 45/45/45 27/27/27
f 42/42/42 27/27/27 26/26/26
f 42/42/42 26/26/26 20/20/20
f 42/42/42 20/20/20 41/41/41
f 46/46/46 47/47/47 48/48/48
f 46/46/46 48/48/48 49/49/49
f 46/46/46 49/49/49 50/50/50
f 46/46/46 50/50/50 51/51/51
f 46/46/46 51/51/51 52/52/52
f 46/46/46 52/52/52 53/53/53
f 46/46/46 53/53/53 54/54/54
f 46/46/46 54/54/54 47/47/47
f 55/55/55 56/56/56 57/57/57
f 55/55/55 57/57/57 58/58/58
f 55/55/55 58/58/58 48/48/48
f 55/55/55 48/48/48 47/47/47
f 55/55/55 47/47/47 54/54/54
f 55/55/55 54/54/54 59/59/59
f 55/55/55 59/59/59 60/60/60
f 55/55/55 60/60/60 56/56/56
f 61/61/61 62/62/62 63/63/63
f 61/61/61 63/63/63 64/64/64
f 61/61/61 64/64/64 65/65/65
f 61/61/61 65/65/65 66/66/66
f 61/61/61 66/66/66 67/67/67
f 61/61/61 67/67/67 68/68/68
f 61/61/61 68/68/68 69/69/69
f 61/61/61 69/69/69 62/62/62
f 70/70/70 66/66/66 65/65/65
f 70/70/70 65/65/65 71/71/71
f 70/70/70 71/71/71 72/72/72
f 70/70/70 72/72/72 73/73/73
f 70/70/70 73/73/73 74/74/74
f 70/70/70 74/74/74 75/75/75
f 70/70/70 75/75/75 67/67/67
f 70/70/70 67/67/67 66/66/66
f 76/76/76 77/77/77 54/54/54
f 76/76/76 54/54/54 53/53/53
f 76/76/76 53/53/53 52/52/52
f 76/76/76 52/52/52 78/78/78
f 76/76/76 78/78/78 72/72/72
f 76/76/76 72/72/72 71/71/71
f 76/76/76 71/71/71 65/65/65
f 76/76/76 65/65/65 77/77/77
f 79/79/79 80/80/80 60/60/60
f 79/79/79 60/60/60 59/59/59
f 79/79/79 59/59/59 54/54/54
f 79/79/79 54/54/54 77/77/77
f 79/79/79 77/77/77 65/65/65
f 79/79/79 65/65/65 64/64/64
f 79/79/79 64/64/64 63/63/63
f 79/79/79 63/63/63 80/80/80
f 81/81/81 82/82/82 69/69/69
f 81/81/81 69/69/69 68/68/68
f 81/81/81 68/68/68 67/67/67
f 81/81/81 67/67/67 83/83/83
f 81/81/81 83/83/83 84/84/84
f 81/81/81 84/84/84 85/85/85
f 81/81/81 85/85/85 86/86/86
f 81/81/81 86/86/86 82/82/82
f 87/87/87 83/83/83 67/67/67
f 87/87/87 67/67/67 75/75/75
f 87/87/87 75/75/75 74/74/74
f 87/87/87 74/74/74 88/88/88
f 87/87/87 88/88/88 89/89/89
f 87/87/87 89/89/89 90/90/90
f 87/87/87 90/90/90 84/84/84
f 87/87/87 84/84/84 83/83/83
f 91/91/91 92/92/92 38/38/38
f 91/91/91 38/38/38 37/37/37
f 91/91/91 37/37/37 18/18/18
f 91/91/91 18/18/18 93/93/93
f 91/91/91 93/93/93 69/69/69
f 91/91/91 69/69/69 82/82/82
f 91/91/91 82/82/82 94/94/94
f 91/91/91 94/94/94 92/92/92
f 95/95/95 96/96/96 44/44/44
f 95/95/95 44/44/44 43/43/43
f 95/95/95 43/43/43 40/40/40
f 95/95/95 40/40/40 97/97/97
f 95/95/95 97/97/97 84/84/84
f 95/95/95 84/84/84 90/90/90
f 95/95/95 90/90/90 98/98/98
f 95/95/95 98/98/98 96/96/96
f 99/99/99 100/100/100 7/7/7
f 99/99/99 7/7/7 6/6/6
f 99/99/99 6/6/6 5/5/5
f 99/99/99 5/5/5 101/101/101
f 99/99/99 101/101/101 52/52/52
f 99/99/99 52/52/52 51/51/51
f 99/99/99 51/51/51 102/102/102
f 99/99/99 102/102/102 100/100/100
f 103/103/103 104/104/104 15/15/15
f 103/103/103 15/15/15 14/14/14
f 103/103/103 14/14/14 9/9/9
f 103/103/103 9/9/9 105/105/105
f 103/103/103 105/105/105 48/48/48
f 103/103/103 48/48/48 58/58/58
f 103/103/103 58/58/58 106/106/106
f 103/103/103 106/106/106 104/104/104
f 107/107/107 108/108/108 12/12/12
f 107/107/107 12/12/12 11/11/11
f 107/107/107 11/11/11 15/15/15
f 107/107/107 15/15/15 104/104/104
f 107/107/107 104/104/104 106/106/106
f 107/107/107 106/106/106 56/56/56
f 107/107/107 56/56/56 60/60/60
f 107/107/107 60/60/60 108/108/108
f 109/109/109 97/97/97 40/40/40
f 109/109/109 40/40/40 39/39/39
f 109/109/109 39/39/39 38/38/38
f 109/109/109 38/38/38 92/92/92
f 109/109/109 92/92/92 94/94/94
f 109/109/109 94/94/94 85/85/85
f 109/109/109 85/85/85 84/84/84
f 109/109/109 84/84/84 97/97/97
f 110/110/110 111/111/111 27/27/27
f 110/110/110 27/27/27 45/45/45
f 110/110/110 45/45/45 44/44/44
f 110/110/110 44/44/44 96/96/96
f 110/110/110 96/96/96 98/98/98
f 110/110/110 98/98/98 88/88/88
f 110/110/110 88/88/88 74/74/74
f 110/110/110 74/74/74 111/111/111
f 112/112/112 105/105/105 9/9/9
f 112/112/112 9/9/9 8/8/8
f 112/112/112 8/8/8 7/7/7
f 112/112/112 7/7/7 100/100/100
f 112/112/112 100/100/100 102/102/102
f 112/112/112 102/102/102 49/49/49
f 112/112/112 49/49/49 48/48/48
f 112/112/112 48/48/48 105/105/105
f 113/113/113 101/101/101 5/5/5
f 113/113/113 5/5/5 33/33/33
f 113/113/113 33/33/33 29/29/29
f 113/113/113 29/29/29 114/114/114
f 113/113/113 114/114/114 72/72/72
f 113/113/113 72/72/72 78/78/78
f 113/113/113 78/78/78 52/52/52
f 113/113/113 52/52/52 101/101/101
f 115/115/115 116/116/116 24/24/24
f 115/115/115 24/24/24 35/35/35
f 115/115/115 35/35/35 12/12/12
f 115/115/115 12/12/12 108/108/108
f 115/115/115 108/108/108 60/60/60
f 115/115/115 60/60/60 80/80/80
f 115/115/115 80/80/80 63/63/63
f 115/115/115 63/63/63 116/116/116
f 117/117/117 93/93/93 18/18/18
f 117/117/117 18/18/18 17/17/17
f 117/117/117 17/17/17 24/24/24
f 117/117/117 24/24/24 116/116/116
f 117/117/117 116/116/116 63/63/63
f 117/117/117 63/63/63 62/62/62
f 117/117/117 62/62/62 69/69/69
f 117/117/117 69/69/69 93/93/93
f 118/118/118 114/114/114 29/29/29
f 118/118/118 29/29/29 28/28/28
f 118/118/118 28/28/28 27/27/27
f 118/118/118 27/27/27 111/111/111
f 118/118/118 111/111/111 74/74/74
f 118/118/118 74/74/74 73/73/73
f 118/118/118 73/73/73 72/72/72
f 118/118/118 72/72/72 114/114/114
