v -2.373044 0.716245 -1.085811
v -2.370976 0.716389 -1.084749
v -2.370185 0.715237 -1.087517
v -2.37262 0.715141 -1.088393
v -2.374424 0.715219 -1.089269
v -2.37452 0.716221 -1.087019
v -2.37417 0.716672 -1.085422
v -2.373257 0.716924 -1.083915
v -2.371552 0.717134 -1.082679
v -2.36869 0.716831 -1.084811
v -2.366886 0.717249 -1.085265
v -2.365752 0.716387 -1.087277
v -2.367673 0.715807 -1.087256
v -2.369489 0.717432 -1.083049
v -2.367988 0.717504 -1.084001
v -2.365227 0.710687 -1.095133
v -2.363389 0.711115 -1.094886
v -2.363047 0.708885 -1.097352
v -2.364675 0.708496 -1.097559
v -2.366829 0.708078 -1.097929
v -2.367661 0.710223 -1.095563
v -2.3685 0.712182 -1.09306
v -2.365953 0.712687 -1.092623
v -2.364029 0.713164 -1.092386
v -2.370075 0.710034 -1.096246
v -2.368962 0.707919 -1.098544
v -2.37056 0.707873 -1.099078
v -2.371883 0.709971 -1.096837
v -2.372915 0.711967 -1.094427
v -2.371024 0.712004 -1.093788
v -2.37191 0.713717 -1.091111
v -2.369351 0.713844 -1.090333
v -2.373825 0.713759 -1.091821
v -2.366764 0.71441 -1.089929
v -2.364808 0.714973 -1.08975
v -2.364386 0.7062 -1.100003
v -2.363166 0.706529 -1.099886
v -2.363542 0.705095 -1.101292
v -2.364267 0.704416 -1.101822
v -2.365374 0.704143 -1.101954
v -2.365996 0.705858 -1.10025
v -2.367586 0.705769 -1.100738
v -2.36646 0.704121 -1.102326
v -2.367487 0.704564 -1.102198
v -2.368777 0.705773 -1.101175
v -2.37307 0.716022 -1.085716
v -2.37097 0.716168 -1.084646
v -2.371547 0.716967 -1.082605
v -2.373278 0.716756 -1.083847
v -2.374193 0.716548 -1.085372
v -2.374557 0.716054 -1.086952
v -2.374458 0.715055 -1.089194
v -2.372646 0.714923 -1.088288
v -2.370182 0.715021 -1.087405
v -2.368652 0.716618 -1.084701
v -2.366841 0.717094 -1.085179
v -2.367958 0.717387 -1.08394
v -2.369458 0.717271 -1.08297
v -2.36764 0.715597 -1.087138
v -2.365713 0.716233 -1.087185
v -2.365214 0.710498 -1.094978
v -2.363369 0.710975 -1.094768
v -2.364005 0.713019 -1.092276
v -2.365936 0.71249 -1.092479
v -2.368505 0.711981 -1.092921
v -2.36767 0.71003 -1.095412
v -2.36684 0.707891 -1.097772
v -2.364665 0.708313 -1.097397
v -2.363029 0.708749 -1.097229
v -2.370104 0.709839 -1.096102
v -2.371051 0.711801 -1.093655
v -2.372946 0.711814 -1.09433
v -2.371915 0.709824 -1.096732
v -2.370595 0.70773 -1.098967
v -2.368994 0.70773 -1.098392
v -2.371936 0.713505 -1.090992
v -2.369351 0.713635 -1.090208
v -2.373858 0.7136 -1.091736
v -2.36674 0.714205 -1.089799
v -2.364777 0.714823 -1.089649
v -2.364376 0.706019 -1.099838
v -2.363147 0.706396 -1.099761
v -2.366009 0.705674 -1.10009
v -2.365383 0.704004 -1.101834
v -2.364258 0.704281 -1.101698
v -2.363531 0.704996 -1.1012
v -2.36762 0.705582 -1.100584
v -2.368814 0.705632 -1.101063
v -2.367512 0.70446 -1.102114
v -2.366486 0.703981 -1.10221
v -2.362749 0.70658 -1.099791
v -2.363376 0.704655 -1.10174
v -2.362494 0.708954 -1.097228
v -2.363531 0.704996 -1.1012
v -2.366096 0.703509 -1.102804
v -2.367328 0.704123 -1.102648
v -2.36517 0.703509 -1.102469
v -2.367512 0.70446 -1.102114
v -2.375032 0.716139 -1.087393
v -2.374459 0.716731 -1.085379
v -2.375044 0.715172 -1.089528
v -2.374193 0.716548 -1.085372
v -2.369741 0.71756 -1.082427
v -2.36777 0.717632 -1.083842
v -2.371742 0.717308 -1.081957
v -2.367958 0.717387 -1.08394
v -2.366261 0.717321 -1.085377
v -2.365091 0.716513 -1.087242
v -2.364223 0.703761 -1.102373
v -2.369193 0.705712 -1.101272
v -2.37111 0.707794 -1.099207
v -2.373338 0.717076 -1.083254
v -2.374481 0.713702 -1.092021
v -2.373562 0.711887 -1.094598
v -2.36414 0.715095 -1.089645
v -2.363375 0.713259 -1.092257
v -2.362765 0.711196 -1.094751
v -2.372502 0.709885 -1.096988
vn 0.177 0.9246 -0.3374
vn -0.0384 0.9259 -0.3757
vn -0.0231 0.903 -0.4289
vn 0.1701 0.9018 -0.3972
vn 0.1674 0.8912 -0.4216
vn 0.1694 0.9249 -0.3402
vn 0.1692 0.9446 -0.2811
vn 0.1149 0.9574 -0.265
vn -0.062 0.955 -0.29
vn -0.2414 0.8682 -0.4336
vn -0.2337 0.8706 -0.4328
vn -0.1885 0.8432 -0.5034
vn -0.204 0.8514 -0.4831
vn -0.2268 0.9114 -0.3434
vn -0.2638 0.8863 -0.3805
vn -0.0632 0.7525 -0.6555
vn -0.0252 0.7546 -0.6557
vn -0.0142 0.7344 -0.6785
vn -0.0625 0.7297 -0.6809
vn 0.053 0.7434 -0.6667
vn 0.0422 0.7707 -0.6358
vn 0.0204 0.8212 -0.5702
vn -0.0956 0.7948 -0.5993
vn -0.0648 0.7908 -0.6086
vn 0.1468 0.7808 -0.6073
vn 0.1628 0.76 -0.6292
vn 0.1187 0.7523 -0.6481
vn 0.1133 0.7732 -0.6238
vn 0.1184 0.8155 -0.5665
vn 0.1401 0.8265 -0.5451
vn 0.1488 0.872 -0.4663
vn -0.0039 0.87 -0.4931
vn 0.1395 0.8587 -0.4931
vn -0.1483 0.832 -0.5346
vn -0.1254 0.823 -0.554
vn -0.0837 0.7146 -0.6945
vn -0.0311 0.7173 -0.696
vn -0.0578 0.6992 -0.7125
vn -0.0907 0.6706 -0.7362
vn 0.0721 0.6909 -0.7193
vn 0.0581 0.7301 -0.6809
vn 0.1909 0.7515 -0.6314
vn 0.2258 0.7132 -0.6635
vn 0.1797 0.7314 -0.6578
vn 0.145 0.7411 -0.6554
vn -0.2095 -0.9131 0.3497
vn 0.0342 -0.9199 0.3905
vn 0.0179 -0.8946 0.4466
vn -0.3053 -0.8729 0.3805
vn -0.4189 -0.8332 0.361
vn -0.3947 -0.8445 0.3619
vn -0.331 -0.8597 0.389
vn -0.185 -0.9003 0.3939
vn 0.0231 -0.9031 0.4288
vn 0.2614 -0.8497 0.4579
vn 0.3995 -0.7374 0.5445
vn 0.4181 -0.7203 0.5534
vn 0.3212 -0.7884 0.5246
vn 0.218 -0.846 0.4865
vn 0.3365 -0.7698 0.5423
vn 0.0792 -0.7497 0.6569
vn 0.1896 -0.7257 0.6613
vn 0.2141 -0.7535 0.6215
vn 0.1101 -0.7915 0.6012
vn -0.0204 -0.8211 0.5704
vn -0.0423 -0.7705 0.6359
vn -0.0531 -0.7433 0.6668
vn 0.0816 -0.7277 0.6811
vn 0.2127 -0.7165 0.6644
vn -0.162 -0.7822 0.6015
vn -0.1544 -0.8271 0.5404
vn -0.2628 -0.8178 0.5119
vn -0.2656 -0.7871 0.5567
vn -0.2894 -0.784 0.5491
vn -0.1799 -0.7629 0.6209
vn -0.1628 -0.8717 0.4621
vn 0.0039 -0.87 0.4931
vn -0.2845 -0.8489 0.4454
vn 0.1622 -0.828 0.5368
vn 0.2693 -0.7743 0.5726
vn 0.1135 -0.7213 0.6832
vn 0.2729 -0.7188 0.6394
vn -0.055 -0.7382 0.6723
vn -0.0415 -0.7726 0.6335
vn 0.2014 -0.7447 0.6362
vn 0.3097 -0.7222 0.6184
vn -0.2102 -0.7649 0.6088
vn -0.3302 -0.8001 0.5008
vn -0.3521 -0.8115 0.4663
vn -0.2603 -0.8069 0.5301
vn 0.9799 0.0262 -0.1978
vn 0.8371 -0.2065 -0.5066
vn 0.9934 0.0982 -0.0594
vn 0.3097 -0.7222 0.6184
vn 0.0176 -0.6427 -0.7659
vn -0.4565 -0.3811 -0.8039
vn 0.2429 -0.7436 -0.6229
vn -0.3521 -0.8115 0.4663
vn -0.9506 0.306 -0.0519
vn -0.8797 0.4067 0.2465
vn -0.9565 0.1857 -0.2248
vn -0.4189 -0.8332 0.361
vn 0.2515 0.451 0.8563
vn 0.5545 0.6001 0.5765
vn -0.2512 0.2896 0.9236
vn 0.4181 -0.7203 0.5534
vn 0.7698 0.5378 0.3437
vn 0.8798 0.4327 0.1966
vn 0.4746 -0.5813 -0.6609
vn -0.7721 -0.2095 -0.6
vn -0.861 -0.1515 -0.4854
vn -0.699 0.323 0.638
vn -0.9433 0.0757 -0.323
vn -0.9304 0.0007 -0.3664
vn 0.938 0.3291 0.109
vn 0.9641 0.2563 0.0692
vn 0.9829 0.1819 0.0293
vn -0.911 -0.0735 -0.4058
vt 0.839504 0.118056
vt 0.856743 0.205307
vt 0.741230 0.205307
vt 0.734555 0.106726
vt 0.724541 0.032791
vt 0.813647 0.052618
vt 0.868992 0.081539
vt 0.913398 0.129584
vt 0.940923 0.205307
vt 0.839504 0.292557
vt 0.813647 0.357995
vt 0.724541 0.377822
vt 0.734555 0.303887
vt 0.913398 0.281029
vt 0.868992 0.329074
vt 0.369475 0.299954
vt 0.368286 0.370940
vt 0.245840 0.351447
vt 0.246397 0.288815
vt 0.246768 0.205307
vt 0.370268 0.205307
vt 0.494283 0.205307
vt 0.492822 0.304944
vt 0.490632 0.379672
vt 0.369475 0.110659
vt 0.246397 0.121798
vt 0.245841 0.059166
vt 0.368286 0.039673
vt 0.490632 0.030941
vt 0.492822 0.105669
vt 0.616755 0.103478
vt 0.619174 0.205307
vt 0.613127 0.027106
vt 0.616755 0.307135
vt 0.613126 0.383507
vt 0.123273 0.268175
vt 0.123047 0.315326
vt 0.054743 0.283353
vt 0.030912 0.249131
vt 0.030973 0.205306
vt 0.123423 0.205306
vt 0.123273 0.142438
vt 0.030912 0.161481
vt 0.054744 0.127260
vt 0.123047 0.095287
vt 0.839504 0.118056
vt 0.856743 0.205307
vt 0.968983 0.205307
vt 0.938030 0.133427
vt 0.876123 0.061548
vt 0.805028 0.030806
vt 0.721203 0.008146
vt 0.734555 0.106726
vt 0.741230 0.205307
vt 0.839504 0.292557
vt 0.805028 0.379807
vt 0.876123 0.349065
vt 0.938030 0.277186
vt 0.734555 0.303887
vt 0.721203 0.402467
vt 0.369475 0.299954
vt 0.367890 0.394602
vt 0.489902 0.404581
vt 0.492822 0.304944
vt 0.494283 0.205307
vt 0.370268 0.205307
vt 0.246768 0.205307
vt 0.246397 0.288815
vt 0.245655 0.372324
vt 0.369475 0.110659
vt 0.492822 0.105669
vt 0.489902 0.006032
vt 0.367890 0.016011
vt 0.245655 0.038289
vt 0.246397 0.121798
vt 0.616755 0.103478
vt 0.619174 0.205307
vt 0.611917 0.001649
vt 0.616755 0.307135
vt 0.611917 0.408964
vt 0.123273 0.268175
vt 0.122972 0.331043
vt 0.123423 0.205306
vt 0.000156 0.205306
vt 0.000125 0.242784
vt 0.000064 0.280261
vt 0.123273 0.142438
vt 0.122972 0.079570
vt 0.000064 0.130352
vt 0.000125 0.167829
vt 0.122972 0.331043
vt 0.030806 0.283587
vt 0.245655 0.372324
vt 0.030806 0.283587
vt 0.000125 0.167829
vt 0.030806 0.127026
vt 0.000156 0.205306
vt 0.030806 0.127026
vt 0.805028 0.030806
vt 0.873826 0.071832
vt 0.721203 0.008146
vt 0.873826 0.071832
vt 0.938030 0.277186
vt 0.873826 0.338781
vt 0.968983 0.205307
vt 0.873826 0.338781
vt 0.805028 0.379807
vt 0.721203 0.402467
vt 0.000125 0.242784
vt 0.122972 0.079570
vt 0.245655 0.038289
vt 0.938030 0.133427
vt 0.611917 0.001649
vt 0.489902 0.006032
vt 0.611917 0.408964
vt 0.489902 0.404581
vt 0.367890 0.394602
vt 0.367890 0.016011
f 1/1/1 2/2/2 3/3/3
f 1/1/1 3/3/3 4/4/4
f 1/1/1 4/4/4 5/5/5
f 1/1/1 5/5/5 6/6/6
f 1/1/1 6/6/6 7/7/7
f 1/1/1 7/7/7 8/8/8
f 1/1/1 8/8/8 9/9/9
f 1/1/1 9/9/9 2/2/2
f 10/10/10 11/11/11 12/12/12
f 10/10/10 12/12/12 13/13/13
f 10/10/10 13/13/13 3/3/3
f 10/10/10 3/3/3 2/2/2
f 10/10/10 2/2/2 9/9/9
f 10/10/10 9/9/9 14/14/14
f 10/10/10 14/14/14 15/15/15
f 10/10/10 15/15/15 11/11/11
f 16/16/16 17/17/17 18/18/18
f 16/16/16 18/18/18 19/19/19
f 16/16/16 19/19/19 20/20/20
f 16/16/16 20/20/20 21/21/21
f 16/16/16 21/21/21 22/22/22
f 16/16/16 22/22/22 23/23/23
f 16/16/16 23/23/23 24/24/24
f 16/16/16 24/24/24 17/17/17
f 25/25/25 21/21/21 20/20/20
f 25/25/25 20/20/20 26/26/26
f 25/25/25 26/26/26 27/27/27
f 25/25/25 27/27/27 28/28/28
f 25/25/25 28/28/28 29/29/29
f 25/25/25 29/29/29 30/30/30
f 25/25/25 30/30/30 22/22/22
f 25/25/25 22/22/22 21/21/21
f 31/31/31 32/32/32 22/22/22
f 31/31/31 22/22/22 30/30/30
f 31/31/31 30/30/30 29/29/29
f 31/31/31 29/29/29 33/33/33
f 31/31/31 33/33/33 5/5/5
f 31/31/31 5/5/5 4/4/4
f 31/31/31 4/4/4 3/3/3
f 31/31/31 3/3/3 32/32/32
f 34/34/34 35/35/35 24/24/24
f 34/34/34 24/24/24 23/23/23
f 34/34/34 23/23/23 22/22/22
f 34/34/34 22/22/22 32/32/32
f 34/34/34 32/32/32 3/3/3
f 34/34/34 3/3/3 13/13/13
f 34/34/34 13/13/13 12/12/12
f 34/34/34 12/12/12 35/35/35
f 36/36/36 37/37/37 38/38/38
f 36/36/36 38/38/38 39/39/39
f 36/36/36 39/39/39 40/40/40
f 36/36/36 40/40/40 41/41/41
f 36/36/36 41/41/41 20/20/20
f 36/36/36 20/20/20 19/19/19
f 36/36/36 19/19/19 18/18/18
f 36/36/36 18/18/18 37/37/37
f 42/42/42 41/41/41 40/40/40
f 42/42/42 40/40/40 43/43/43
f 42/42/42 43/43/43 44/44/44
f 42/42/42 44/44/44 45/45/45
f 42/42/42 45/45/45 27/27/27
f 42/42/42 27/27/27 26/26/26
f 42/42/42 26/26/26 20/20/20
f 42/42/42 20/20/20 41/41/41
f 46/46/46 47/47/47 48/48/48
f 46/46/46 48/48/48 49/49/49
f 46/46/46 49/49/49 50/50/50
f 46/46/46 50/50/50 51/51/51
f 46/46/46 51/51/51 52/52/52
f 46/46/46 52/52/52 53/53/53
f 46/46/46 53/53/53 54/54/54
f 46/46/46 54/54/54 47/47/47
f 55/55/55 56/56/56 57/57/57
f 55/55/55 57/57/57 58/58/58
f 55/55/55 58/58/58 48/48/48
f 55/55/55 48/48/48 47/47/47
f 55/55/55 47/47/47 54/54/54
f 55/55/55 54/54/54 59/59/59
f 55/55/55 59/59/59 60/60/60
f 55/55/55 60/60/60 56/56/56
f 61/61/61 62/62/62 63/63/63
f 61/61/61 63/63/63 64/64/64
f 61/61/61 64/64/64 65/65/65
f 61/61/61 65/65/65 66/66/66
f 61/61/61 66/66/66 67/67/67
f 61/61/61 67/67/67 68/68/68
f 61/61/61 68/68/68 69/69/69
f 61/61/61 69/69/69 62/62/62
f 70/70/70 66/66/66 65/65/65
f 70/70/70 65/65/65 71/71/71
f 70/70/70 71/71/71 72/72/72
f 70/70/70 72/72/72 73/73/73
f 70/70/70 73/73/73 74/74/74
f 70/70/70 74/74/74 75/75/75
f 70/70/70 75/75/75 67/67/67
f 70/70/70 67/67/67 66/66/66
f 76/76/76 77/77/77 54/54/54
f 76/76/76 54/54/54 53/53/53
f 76/76/76 53/53/53 52/52/52
f 76/76/76 52/52/52 78/78/78
f 76/76/76 78/78/78 72/72/72
f 76/76/76 72/72/72 71/71/71
f 76/76/76 71/71/71 65/65/65
f 76/76/76 65/65/65 77/77/77
f 79/79/79 80/80/80 60/60/60
f 79/79/79 60/60/60 59/59/59
f 79/79/79 59/59/59 54/54/54
f 79/79/79 54/54/54 77/77/77
f 79/79/79 77/77/77 65/65/65
f 79/79/79 65/65/65 64/64/64
f 79/79/79 64/64/64 63/63/63
f 79/79/79 63/63/63 80/80/80
f 81/81/81 82/82/82 69/69/69
f 81/81/81 69/69/69 68/68/68
f 81/81/81 68/68/68 67/67/67
f 81/81/81 67/67/67 83/83/83
f 81/81/81 83/83/83 84/84/84
f 81/81/81 84/84/84 85/85/85
f 81/81/81 85/85/85 86/86/86
f 81/81/81 86/86/86 82/82/82
f 87/87/87 83/83/83 67/67/67
f 87/87/87 67/67/67 75/75/75
f 87/87/87 75/75/75 74/74/74
f 87/87/87 74/74/74 88/88/88
f 87/87/87 88/88/88 89/89/89
f 87/87/87 89/89/89 90/90/90
f 87/87/87 90/90/90 84/84/84
f 87/87/87 84/84/84 83/83/83
f 91/91/91 92/92/92 38/38/38
f 91/91/91 38/38/38 37/37/37
f 91/91/91 37/37/37 18/18/18
f 91/91/91 18/18/18 93/93/93
f 91/91/91 93/93/93 69/69/69
f 91/91/91 69/69/69 82/82/82
f 91/91/91 82/82/82 94/94/94
f 91/91/91 94/94/94 92/92/92
f 95/95/95 96/96/96 44/44/44
f 95/95/95 44/44/44 43/43/43
f 95/95/95 43/43/43 40/40/40
f 95/95/95 40/40/40 97/97/97
f 95/95/95 97/97/97 84/84/84
f 95/95/95 84/84/84 90/90/90
f 95/95/95 90/90/90 98/98/98
f 95/95/95 98/98/98 96/96/96
f 99/99/99 100/100/100 7/7/7
f 99/99/99 7/7/7 6/6/6
f 99/99/99 6/6/6 5/5/5
f 99/99/99 5/5/5 101/101/101
f 99/99/99 101/101/101 52/52/52
f 99/99/99 52/52/52 51/51/51
f 99/99/99 51/51/51 102/102/102
f 99/99/99 102/102/102 100/100/100
f 103/103/103 104/104/104 15/15/15
f 103/103/103 15/15/15 14/14/14
f 103/103/103 14/14/14 9/9/9
f 103/103/103 9/9/9 105/105/105
f 103/103/103 105/105/105 48/48/48
f 103/103/103 48/48/48 58/58/58
f 103/103/103 58/58/58 106/106/106
f 103/103/103 106/106/106 104/104/104
f 107/107/107 108/108/108 12/12/12
f 107/107/107 12/12/12 11/11/11
f 107/107/107 11/11/11 15/15/15
f 107/107/107 15/15/15 104/104/104
f 107/107/107 104/104/104 106/106/106
f 107/107/107 106/106/106 56/56/56
f 107/107/107 56/56/56 60/60/60
f 107/107/107 60/60/60 108/108/108
f 109/109/109 97/97/97 40/40/40
f 109/109/109 40/40/40 39/39/39
f 109/109/109 39/39/39 38/38/38
f 109/109/109 38/38/38 92/92/92
f 109/109/109 92/92/92 94/94/94
f 109/109/109 94/94/94 85/85/85
f 109/109/109 85/85/85 84/84/84
f 109/109/109 84/84/84 97/97/97
f 110/110/110 111/111/111 27/27/27
f 110/110/110 27/27/27 45/45/45
f 110/110/110 45/45/45 44/44/44
f 110/110/110 44/44/44 96/96/96
f 110/110/110 96/96/96 98/98/98
f 110/110/110 98/98/98 88/88/88
f 110/110/110 88/88/88 74/74/74
f 110/110/110 74/74/74 111/111/111
f 112/112/112 105/105/105 9/9/9
f 112/112/112 9/9/9 8/8/8
f 112/112/112 8/8/8 7/7/7
f 112/112/112 7/7/7 100/100/100
f 112/112/112 100/100/100 102/102/102
f 112/112/112 102/102/102 49/49/49
f 112/112/112 49/49/49 48/48/48
f 112/112/112 48/48/48 105/105/105
f 113/113/113 101/101/101 5/5/5
f 113/113/113 5/5/5 33/33/33
f 113/113/113 33/33/33 29/29/29
f 113/113/113 29/29/29 114/114/114
f 113/113/113 114/114/114 72/72/72
f 113/113/113 72/72/72 78/78/78
f 113/113/113 78/78/78 52/52/52
f 113/113/113 52/52/52 101/101/101
f 115/115/115 116/116/116 24/24/24
f 115/115/115 24/24/24 35/35/35
f 115/115/115 35/35/35 12/12/12
f 115/115/115 12/12/12 108/108/108
f 115/115/115 108/108/108 60/60/60
f 115/115/115 60/60/60 80/80/80
f 115/115/115 80/80/80 63/63/63
f 115/115/115 63/63/63 116/116/116
f 117/117/117 93/93/93 18/18/18
f 117/117/117 18/18/18 17/17/17
f 117/117/117 17/17/17 24/24/24
f 117/117/117 24/24/24 116/116/116
f 117/117/117 116/116/116 63/63/63
f 117/117/117 63/63/63 62/62/62
f 117/117/117 62/62/62 69/69/69
f 117/117/117 69/69/69 93/93/93
f 118/118/118 114/114/114 29/29/29
f 118/118/118 29/29/29 28/28/28
f 118/118/118 28/28/28 27/27/27
f 118/118/118 27/27/27 111/111/111
f 118/118/118 111/111/111 74/74/74
f 118/118/118 74/74/74 73/73/73
f 118/118/118 73/73/73 72/72/72
f 118/118/118 72/72/72 114/114/114
