v -2.426358 0.670618 -1.087152
v -2.426599 0.670248 -1.084925
v -2.423831 0.669146 -1.085437
v -2.423887 0.669629 -1.087914
v -2.423718 0.670142 -1.089795
v -2.425776 0.670983 -1.08888
v -2.427096 0.671243 -1.087919
v -2.428142 0.671199 -1.086536
v -2.428666 0.670959 -1.084554
v -2.425733 0.67018 -1.082827
v -2.42468 0.670215 -1.081295
v -2.422473 0.669269 -1.081178
v -2.423177 0.669131 -1.082999
v -2.427601 0.670819 -1.082792
v -2.426208 0.67062 -1.081777
v -2.415277 0.664202 -1.084691
v -2.414849 0.664199 -1.082885
v -2.412538 0.662151 -1.08393
v -2.412928 0.662145 -1.085526
v -2.413353 0.662233 -1.087652
v -2.415747 0.664311 -1.087095
v -2.418271 0.666205 -1.086539
v -2.417766 0.666111 -1.084023
v -2.417299 0.666136 -1.082134
v -2.415973 0.66469 -1.089508
v -2.413543 0.662577 -1.089786
v -2.413617 0.662908 -1.091394
v -2.416069 0.665054 -1.091325
v -2.418575 0.667031 -1.090962
v -2.418494 0.666621 -1.089062
v -2.421199 0.668282 -1.08854
v -2.42101 0.667807 -1.08598
v -2.421221 0.668776 -1.090471
v -2.42046 0.667764 -1.083428
v -2.419927 0.667868 -1.081512
v -2.410657 0.660045 -1.086624
v -2.41033 0.660088 -1.085433
v -2.409216 0.65889 -1.086568
v -2.409003 0.658432 -1.087543
v -2.409276 0.658418 -1.088628
v -2.411003 0.660082 -1.08821
v -2.411117 0.660368 -1.089803
v -2.409317 0.658653 -1.089721
v -2.409782 0.659287 -1.090487
v -2.411135 0.660653 -1.091007
v -2.426459 0.670407 -1.087192
v -2.426696 0.670032 -1.084933
v -2.428735 0.670795 -1.084561
v -2.428215 0.67104 -1.086568
v -2.427152 0.671127 -1.08795
v -2.425853 0.670829 -1.088926
v -2.423803 0.66999 -1.089835
v -2.423997 0.669421 -1.087949
v -2.423937 0.668933 -1.085443
v -2.425825 0.669962 -1.082803
v -2.424745 0.670052 -1.08126
v -2.426256 0.670499 -1.081755
v -2.427666 0.670655 -1.082773
v -2.423278 0.668917 -1.082976
v -2.422547 0.669109 -1.081146
v -2.415417 0.664011 -1.084669
v -2.414952 0.664055 -1.082858
v -2.417394 0.665986 -1.082107
v -2.417896 0.665912 -1.084002
v -2.418404 0.666007 -1.086539
v -2.415891 0.664121 -1.087094
v -2.413505 0.662049 -1.087649
v -2.413076 0.661959 -1.085502
v -2.412647 0.662012 -1.083901
v -2.416119 0.664503 -1.089527
v -2.41863 0.666427 -1.089085
v -2.418678 0.666887 -1.090991
v -2.416179 0.664916 -1.091349
v -2.413733 0.662773 -1.091418
v -2.413697 0.662395 -1.089803
v -2.421322 0.668081 -1.088569
v -2.421129 0.667602 -1.085984
v -2.421315 0.668627 -1.090505
v -2.420575 0.667557 -1.083407
v -2.420011 0.667713 -1.081483
v -2.410808 0.659862 -1.086598
v -2.41044 0.65995 -1.085402
v -2.411157 0.6599 -1.088206
v -2.409392 0.658282 -1.088625
v -2.409116 0.658295 -1.087522
v -2.409298 0.658788 -1.086548
v -2.411274 0.660189 -1.089822
v -2.411254 0.660521 -1.091032
v -2.40987 0.659189 -1.090503
v -2.409436 0.658519 -1.089736
v -2.410269 0.660041 -1.085019
v -2.40876 0.658462 -1.086673
v -2.412456 0.662091 -1.083382
v -2.409298 0.658788 -1.086548
v -2.40877 0.658022 -1.089701
v -2.409328 0.65886 -1.0906
v -2.408752 0.657803 -1.088766
v -2.40987 0.659189 -1.090503
v -2.425617 0.671038 -1.08948
v -2.427234 0.671359 -1.088147
v -2.4237 0.670247 -1.090443
v -2.427152 0.671127 -1.08795
v -2.428252 0.670959 -1.082772
v -2.426274 0.670685 -1.081501
v -2.429385 0.671123 -1.084434
v -2.426256 0.670499 -1.081755
v -2.424357 0.670154 -1.080765
v -2.422271 0.669244 -1.080554
v -2.408501 0.657833 -1.08784
v -2.411194 0.66069 -1.091421
v -2.413694 0.662959 -1.091943
v -2.428768 0.671322 -1.086345
v -2.421271 0.668875 -1.091132
v -2.418648 0.667104 -1.091611
v -2.419786 0.667833 -1.080857
v -2.417185 0.666078 -1.08149
v -2.414752 0.664133 -1.082269
v -2.41615 0.665114 -1.091944
vn 0.4007 0.881 0.2513
vn 0.3593 0.9322 0.0426
vn 0.4138 0.9098 0.0324
vn 0.4534 0.864 0.2186
vn 0.4751 0.8557 0.2051
vn 0.4006 0.8833 0.2436
vn 0.3458 0.899 0.2687
vn 0.3116 0.9225 0.2279
vn 0.2715 0.9607 0.0581
vn 0.3391 0.9243 -0.1752
vn 0.3412 0.925 -0.1674
vn 0.4227 0.8925 -0.1576
vn 0.3984 0.9027 -0.1626
vn 0.2613 0.9577 -0.1202
vn 0.282 0.9437 -0.1726
vn 0.6073 0.7855 -0.1185
vn 0.6211 0.7793 -0.0837
vn 0.6459 0.7585 -0.0863
vn 0.6307 0.7647 -0.132
vn 0.6592 0.7517 -0.0191
vn 0.6272 0.7788 -0.0117
vn 0.5593 0.8289 0.0032
vn 0.5442 0.8305 -0.1183
vn 0.5638 0.8204 -0.0947
vn 0.6382 0.7638 0.0956
vn 0.6639 0.7414 0.0976
vn 0.6655 0.7447 0.0491
vn 0.6415 0.7649 0.0576
vn 0.5908 0.8015 0.0921
vn 0.579 0.8062 0.1219
vn 0.5096 0.8438 0.168
vn 0.4798 0.8771 0.0196
vn 0.531 0.8345 0.147
vn 0.4659 0.8745 -0.1348
vn 0.492 0.8619 -0.1229
vn 0.6354 0.7555 -0.1596
vn 0.6557 0.7467 -0.1117
vn 0.6611 0.736 -0.1458
vn 0.6708 0.7167 -0.1906
vn 0.7139 0.6995 -0.0323
vn 0.6739 0.7385 -0.0225
vn 0.6759 0.7271 0.1203
vn 0.7174 0.684 0.1319
vn 0.696 0.7115 0.0963
vn 0.6816 0.7285 0.0679
vn -0.4236 -0.8635 -0.2738
vn -0.3744 -0.9264 -0.0398
vn -0.4321 -0.9014 -0.0289
vn -0.4857 -0.805 -0.3405
vn -0.5072 -0.7401 -0.4415
vn -0.4997 -0.7565 -0.4218
vn -0.5025 -0.787 -0.358
vn -0.4557 -0.8591 -0.2329
vn -0.4137 -0.9098 -0.0324
vn -0.3542 -0.9121 0.2062
vn -0.3827 -0.8386 0.3876
vn -0.3839 -0.8265 0.4115
vn -0.3935 -0.8697 0.298
vn -0.3963 -0.9007 0.1777
vn -0.4042 -0.856 0.3224
vn -0.6028 -0.7865 0.1342
vn -0.5667 -0.7877 0.2413
vn -0.5215 -0.8179 0.2431
vn -0.5407 -0.8306 0.1329
vn -0.5595 -0.8288 -0.0031
vn -0.6273 -0.7786 0.0117
vn -0.6594 -0.7516 0.0191
vn -0.624 -0.767 0.1498
vn -0.5612 -0.784 0.2655
vn -0.6384 -0.7616 -0.1117
vn -0.5797 -0.8033 -0.1367
vn -0.5918 -0.7686 -0.243
vn -0.6338 -0.7407 -0.2227
vn -0.6351 -0.7321 -0.2462
vn -0.6624 -0.74 -0.1167
vn -0.5107 -0.8402 -0.1821
vn -0.4798 -0.8771 -0.0195
vn -0.5382 -0.7901 -0.2933
vn -0.4628 -0.8738 0.1491
vn -0.4566 -0.8473 0.2711
vn -0.6144 -0.7679 0.181
vn -0.5164 -0.798 0.3106
vn -0.665 -0.7465 0.0204
vn -0.6248 -0.7806 0.0112
vn -0.5397 -0.8073 0.2387
vn -0.4837 -0.8083 0.3356
vn -0.6621 -0.7345 -0.1488
vn -0.6052 -0.7357 -0.304
vn -0.5811 -0.74 -0.3386
vn -0.6076 -0.7597 -0.2317
vn 0.5362 -0.1789 0.8249
vn 0.7678 -0.3558 0.5328
vn 0.4138 -0.1199 0.9024
vn -0.4837 -0.8083 0.3356
vn 0.7056 -0.5842 -0.401
vn 0.5773 -0.2224 -0.7856
vn 0.6504 -0.7406 -0.1688
vn -0.5811 -0.74 -0.3386
vn -0.2852 0.5109 -0.8109
vn -0.5358 0.5754 -0.6178
vn -0.1285 0.4054 -0.9051
vn -0.5072 -0.7401 -0.4415
vn -0.698 0.3327 0.6341
vn -0.3244 0.4273 0.8439
vn -0.9449 0.2825 0.165
vn -0.3839 -0.8265 0.4115
vn -0.0313 0.333 0.9424
vn 0.1421 0.2155 0.9661
vn 0.7728 -0.6314 0.0645
vn 0.2781 0.0022 -0.9605
vn 0.1408 0.0715 -0.9875
vn -0.8381 0.4307 -0.3347
vn -0.0348 0.3013 -0.9528
vn 0.0081 0.2282 -0.9736
vn 0.2423 0.1069 0.9643
vn 0.2875 0.0323 0.9572
vn 0.3294 -0.0416 0.9432
vn 0.0503 0.154 -0.9868
vt 0.839504 0.118056
vt 0.856743 0.205307
vt 0.741230 0.205307
vt 0.734555 0.106726
vt 0.724541 0.032791
vt 0.813647 0.052618
vt 0.868992 0.081539
vt 0.913398 0.129584
vt 0.940923 0.205307
vt 0.839504 0.292557
vt 0.813647 0.357995
vt 0.724541 0.377822
vt 0.734555 0.303887
vt 0.913398 0.281029
vt 0.868992 0.329074
vt 0.369475 0.299954
vt 0.368286 0.370940
vt 0.245840 0.351447
vt 0.246397 0.288815
vt 0.246768 0.205307
vt 0.370268 0.205307
vt 0.494283 0.205307
vt 0.492822 0.304944
vt 0.490632 0.379672
vt 0.369475 0.110659
vt 0.246397 0.121798
vt 0.245841 0.059166
vt 0.368286 0.039673
vt 0.490632 0.030941
vt 0.492822 0.105669
vt 0.616755 0.103478
vt 0.619174 0.205307
vt 0.613127 0.027106
vt 0.616755 0.307135
vt 0.613126 0.383507
vt 0.123273 0.268175
vt 0.123047 0.315326
vt 0.054743 0.283353
vt 0.030912 0.249131
vt 0.030973 0.205306
vt 0.123423 0.205306
vt 0.123273 0.142438
vt 0.030912 0.161481
vt 0.054744 0.127260
vt 0.123047 0.095287
vt 0.839504 0.118056
vt 0.856743 0.205307
vt 0.968983 0.205307
vt 0.938030 0.133427
vt 0.876123 0.061548
vt 0.805028 0.030806
vt 0.721203 0.008146
vt 0.734555 0.106726
vt 0.741230 0.205307
vt 0.839504 0.292557
vt 0.805028 0.379807
vt 0.876123 0.349065
vt 0.938030 0.277186
vt 0.734555 0.303887
vt 0.721203 0.402467
vt 0.369475 0.299954
vt 0.367890 0.394602
vt 0.489902 0.404581
vt 0.492822 0.304944
vt 0.494283 0.205307
vt 0.370268 0.205307
vt 0.246768 0.205307
vt 0.246397 0.288815
vt 0.245655 0.372324
vt 0.369475 0.110659
vt 0.492822 0.105669
vt 0.489902 0.006032
vt 0.367890 0.016011
vt 0.245655 0.038289
vt 0.246397 0.121798
vt 0.616755 0.103478
vt 0.619174 0.205307
vt 0.611917 0.001649
vt 0.616755 0.307135
vt 0.611917 0.408964
vt 0.123273 0.268175
vt 0.122972 0.331043
vt 0.123423 0.205306
vt 0.000156 0.205306
vt 0.000125 0.242784
vt 0.000064 0.280261
vt 0.123273 0.142438
vt 0.122972 0.079570
vt 0.000064 0.130352
vt 0.000125 0.167829
vt 0.122972 0.331043
vt 0.030806 0.283587
vt 0.245655 0.372324
vt 0.030806 0.283587
vt 0.000125 0.167829
vt 0.030806 0.127026
vt 0.000156 0.205306
vt 0.030806 0.127026
vt 0.805028 0.030806
vt 0.873826 0.071832
vt 0.721203 0.008146
vt 0.873826 0.071832
vt 0.938030 0.277186
vt 0.873826 0.338781
vt 0.968983 0.205307
vt 0.873826 0.338781
vt 0.805028 0.379807
vt 0.721203 0.402467
vt 0.000125 0.242784
vt 0.122972 0.079570
vt 0.245655 0.038289
vt 0.938030 0.133427
vt 0.611917 0.001649
vt 0.489902 0.006032
vt 0.611917 0.408964
vt 0.489902 0.404581
vt 0.367890 0.394602
vt 0.367890 0.016011
f 1/1/1 2/2/2 3/3/3
f 1/1/1 3/3/3 4/4/4
f 1/1/1 4/4/4 5/5/5
f 1/1/1 5/5/5 6/6/6
f 1/1/1 6/6/6 7/7/7
f 1/1/1 7/7/7 8/8/8
f 1/1/1 8/8/8 9/9/9
f 1/1/1 9/9/9 2/2/2
f 10/10/10 11/11/11 12/12/12
f 10/10/10 12/12/12 13/13/13
f 10/10/10 13/13/13 3/3/3
f 10/10/10 3/3/3 2/2/2
f 10/10/10 2/2/2 9/9/9
f 10/10/10 9/9/9 14/14/14
f 10/10/10 14/14/14 15/15/15
f 10/10/10 15/15/15 11/11/11
f 16/16/16 17/17/17 18/18/18
f 16/16/16 18/18/18 19/19/19
f 16/16/16 19/19/19 20/20/20
f 16/16/16 20/20/20 21/21/21
f 16/16/16 21/21/21 22/22/22
f 16/16/16 22/22/22 23/23/23
f 16/16/16 23/23/23 24/24/24
f 16/16/16 24/24/24 17/17/17
f 25/25/25 21/21/21 20/20/20
f 25/25/25 20/20/20 26/26/26
f 25/25/25 26/26/26 27/27/27
f 25/25/25 27/27/27 28/28/28
f 25/25/25 28/28/28 29/29/29
f 25/25/25 29/29/29 30/30/30
f 25/25/25 30/30/30 22/22/22
f 25/25/25 22/22/22 21/21/21
f 31/31/31 32/32/32 22/22/22
f 31/31/31 22/22/22 30/30/30
f 31/31/31 30/30/30 29/29/29
f 31/31/31 29/29/29 33/33/33
f 31/31/31 33/33/33 5/5/5
f 31/31/31 5/5/5 4/4/4
f 31/31/31 4/4/4 3/3/3
f 31/31/31 3/3/3 32/32/32
f 34/34/34 35/35/35 24/24/24
f 34/34/34 24/24/24 23/23/23
f 34/34/34 23/23/23 22/22/22
f 34/34/34 22/22/22 32/32/32
f 34/34/34 32/32/32 3/3/3
f 34/34/34 3/3/3 13/13/13
f 34/34/34 13/13/13 12/12/12
f 34/34/34 12/12/12 35/35/35
f 36/36/36 37/37/37 38/38/38
f 36/36/36 38/38/38 39/39/39
f 36/36/36 39/39/39 40/40/40
f 36/36/36 40/40/40 41/41/41
f 36/36/36 41/41/41 20/20/20
f 36/36/36 20/20/20 19/19/19
f 36/36/36 19/19/19 18/18/18
f 36/36/36 18/18/18 37/37/37
f 42/42/42 41/41/41 40/40/40
f 42/42/42 40/40/40 43/43/43
f 42/42/42 43/43/43 44/44/44
f 42/42/42 44/44/44 45/45/45
f 42/42/42 45/45/45 27/27/27
f 42/42/42 27/27/27 26/26/26
f 42/42/42 26/26/26 20/20/20
f 42/42/42 20/20/20 41/41/41
f 46/46/46 47/47/47 48/48/48
f 46/46/46 48/48/48 49/49/49
f 46/46/46 49/49/49 50/50/50
f 46/46/46 50/50/50 51/51/51
f 46/46/46 51/51/51 52/52/52
f 46/46/46 52/52/52 53/53/53
f 46/46/46 53/53/53 54/54/54
f 46/46/46 54/54/54 47/47/47
f 55/55/55 56/56/56 57/57/57
f 55/55/55 57/57/57 58/58/58
f 55/55/55 58/58/58 48/48/48
f 55/55/55 48/48/48 47/47/47
f 55/55/55 47/47/47 54/54/54
f 55/55/55 54/54/54 59/59/59
f 55/55/55 59/59/59 60/60/60
f 55/55/55 60/60/60 56/56/56
f 61/61/61 62/62/62 63/63/63
f 61/61/61 63/63/63 64/64/64
f 61/61/61 64/64/64 65/65/65
f 61/61/61 65/65/65 66/66/66
f 61/61/61 66/66/66 67/67/67
f 61/61/61 67/67/67 68/68/68
f 61/61/61 68/68/68 69/69/69
f 61/61/61 69/69/69 62/62/62
f 70/70/70 66/66/66 65/65/65
f 70/70/70 65/65/65 71/71/71
f 70/70/70 71/71/71 72/72/72
f 70/70/70 72/72/72 73/73/73
f 70/70/70 73/73/73 74/74/74
f 70/70/70 74/74/74 75/75/75
f 70/70/70 75/75/75 67/67/67
f 70/70/70 67/67/67 66/66/66
f 76/76/76 77/77/77 54/54/54
f 76/76/76 54/54/54 53/53/53
f 76/76/76 53/53/53 52/52/52
f 76/76/76 52/52/52 78/78/78
f 76/76/76 78/78/78 72/72/72
f 76/76/76 72/72/72 71/71/71
f 76/76/76 71/71/71 65/65/65
f 76/76/76 65/65/65 77/77/77
f 79/79/79 80/80/80 60/60/60
f 79/79/79 60/60/60 59/59/59
f 79/79/79 59/59/59 54/54/54
f 79/79/79 54/54/54 77/77/77
f 79/79/79 77/77/77 65/65/65
f 79/79/79 65/65/65 64/64/64
f 79/79/79 64/64/64 63/63/63
f 79/79/79 63/63/63 80/80/80
f 81/81/81 82/82/82 69/69/69
f 81/81/81 69/69/69 68/68/68
f 81/81/81 68/68/68 67/67/67
f 81/81/81 67/67/67 83/83/83
f 81/81/81 83/83/83 84/84/84
f 81/81/81 84/84/84 85/85/85
f 81/81/81 85/85/85 86/86/86
f 81/81/81 86/86/86 82/82/82
f 87/87/87 83/83/83 67/67/67
f 87/87/87 67/67/67 75/75/75
f 87/87/87 75/75/75 74/74/74
f 87/87/87 74/74/74 88/88/88
f 87/87/87 88/88/88 89/89/89
f 87/87/87 89/89/89 90/90/90
f 87/87/87 90/90/90 84/84/84
f 87/87/87 84/84/84 83/83/83
f 91/91/91 92/92/92 38/38/38
f 91/91/91 38/38/38 37/37/37
f 91/91/91 37/37/37 18/18/18
f 91/91/91 18/18/18 93/93/93
f 91/91/91 93/93/93 69/69/69
f 91/91/91 69/69/69 82/82/82
f 91/91/91 82/82/82 94/94/94
f 91/91/91 94/94/94 92/92/92
f 95/95/95 96/96/96 44/44/44
f 95/95/95 44/44/44 43/43/43
f 95/95/95 43/43/43 40/40/40
f 95/95/95 40/40/40 97/97/97
f 95/95/95 97/97/97 84/84/84
f 95/95/95 84/84/84 90/90/90
f 95/95/95 90/90/90 98/98/98
f 95/95/95 98/98/98 96/96/96
f 99/99/99 100/100/100 7/7/7
f 99/99/99 7/7/7 6/6/6
f 99/99/99 6/6/6 5/5/5
f 99/99/99 5/5/5 101/101/101
f 99/99/99 101/101/101 52/52/52
f 99/99/99 52/52/52 51/51/51
f 99/99/99 51/51/51 102/102/102
f 99/99/99 102/102/102 100/100/100
f 103/103/103 104/104/104 15/15/15
f 103/103/103 15/15/15 14/14/14
f 103/103/103 14/14/14 9/9/9
f 103/103/103 9/9/9 105/105/105
f 103/103/103 105/105/105 48/48/48
f 103/103/103 48/48/48 58/58/58
f 103/103/103 58/58/58 106/106/106
f 103/103/103 106/106/106 104/104/104
f 107/107/107 108/108/108 12/12/12
f 107/107/107 12/12/12 11/11/11
f 107/107/107 11/11/11 15/15/15
f 107/107/107 15/15/15 104/104/104
f 107/107/107 104/104/104 106/106/106
f 107/107/107 106/106/106 56/56/56
f 107/107/107 56/56/56 60/60/60
f 107/107/107 60/60/60 108/108/108
f 109/109/109 97/97/97 40/40/40
f 109/109/109 40/40/40 39/39/39
f 109/109/109 39/39/39 38/38/38
f 109/109/109 38/38/38 92/92/92
f 109/109/109 92/92/92 94/94/94
f 109/109/109 94/94/94 85/85/85
f 109/109/109 85/85/85 84/84/84
f 109/109/109 84/84/84 97/97/97
f 110/110/110 111/111/111 27/27/27
f 110/110/110 27/27/27 45/45/45
f 110/110/110 45/45/45 44/44/44
f 110/110/110 44/44/44 96/96/96
f 110/110/110 96/96/96 98/98/98
f 110/110/110 98/98/98 88/88/88
f 110/110/110 88/88/88 74/74/74
f 110/110/110 74/74/74 111/111/111
f 112/112/112 105/105/105 9/9/9
f 112/112/112 9/9/9 8/8/8
f 112/112/112 8/8/8 7/7/7
f 112/112/112 7/7/7 100/100/100
f 112/112/112 100/100/100 102/102/102
f 112/112/112 102/102/102 49/49/49
f 112/112/112 49/49/49 48/48/48
f 112/112/112 48/48/48 105/105/105
f 113/113/113 101/101/101 5/5/5
f 113/113/113 5/5/5 33/33/33
f 113/113/113 33/33/33 29/29/29
f 113/113/113 29/29/29 114/114/114
f 113/113/113 114/114/114 72/72/72
f 113/113/113 72/72/72 78/78/78
f 113/113/113 78/78/78 52/52/52
f 113/113/113 52/52/52 101/101/101
f 115/115/115 116/116/116 24/24/24
f 115/115/115 24/24/24 35/35/35
f 115/115/115 35/35/35 12/12/12
f 115/115/115 12/12/12 108/108/108
f 115/115/115 108/108/108 60/60/60
f 115/115/115 60/60/60 80/80/80
f 115/115/115 80/80/80 63/63/63
f 115/115/115 63/63/63 116/116/116
f 117/117/117 93/93/93 18/18/18
f 117/117/117 18/18/18 17/17/17
f 117/117/117 17/17/17 24/24/24
f 117/117/117 24/24/24 116/116/116
f 117/117/117 116/116/116 63/63/63
f 117/117/117 63/63/63 62/62/62
f 117/117/117 62/62/62 69/69/69
f 117/117/117 69/69/69 93/93/93
f 118/118/118 114/114/114 29/29/29
f 118/118/118 29/29/29 28/28/28
f 118/118/118 28/28/28 27/27/27
f 118/118/118 27/27/27 111/111/111
f 118/118/118 111/111/111 74/74/74
f 118/118/118 74/74/74 73/73/73
f 118/118/118 73/73/73 72/72/72
f 118/118/118 72/72/72 114/114/114
