v -2.384483 0.740221 -1.101218
v -2.384899 0.740894 -1.103509
v -2.387309 0.738813 -1.102988
v -2.386535 0.738228 -1.100474
v -2.386185 0.737857 -1.098449
v -2.384571 0.739651 -1.099319
v -2.383607 0.7407 -1.10036
v -2.383 0.741563 -1.101882
v -2.383076 0.742339 -1.103942
v -2.386434 0.741459 -1.105297
v -2.387992 0.741823 -1.106472
v -2.390071 0.740325 -1.106575
v -2.388752 0.739636 -1.10511
v -2.384689 0.742635 -1.105412
v -2.386377 0.74246 -1.106153
v -2.395238 0.731935 -1.104285
v -2.396252 0.732569 -1.105864
v -2.397863 0.72952 -1.105412
v -2.396954 0.728954 -1.104023
v -2.395854 0.728262 -1.102105
v -2.394006 0.731158 -1.10211
v -2.391997 0.733923 -1.102231
v -2.393301 0.73475 -1.104495
v -2.394386 0.735434 -1.106128
v -2.393066 0.730556 -1.099742
v -2.395033 0.727734 -1.100006
v -2.394496 0.727382 -1.098373
v -2.392445 0.730152 -1.097905
v -2.390404 0.732905 -1.097803
v -2.391028 0.733307 -1.099743
v -2.388784 0.735894 -1.099985
v -2.389719 0.736482 -1.102543
v -2.388223 0.735541 -1.097964
v -2.39109 0.737358 -1.104806
v -2.392264 0.738107 -1.106413
v -2.398498 0.725845 -1.103555
v -2.399221 0.726292 -1.104566
v -2.399755 0.724356 -1.103867
v -2.399571 0.723451 -1.103146
v -2.398943 0.723061 -1.102208
v -2.397645 0.725311 -1.102146
v -2.397064 0.724934 -1.100557
v -2.398588 0.722827 -1.101092
v -2.397987 0.723234 -1.100171
v -2.396707 0.724695 -1.099309
v -2.384332 0.740038 -1.101306
v -2.384761 0.740719 -1.103628
v -2.382975 0.742206 -1.104031
v -2.382889 0.741423 -1.101945
v -2.38352 0.740596 -1.1004
v -2.384451 0.739511 -1.099368
v -2.38606 0.737723 -1.098504
v -2.386377 0.738053 -1.100567
v -2.387163 0.738644 -1.103109
v -2.386312 0.741295 -1.105446
v -2.387909 0.741707 -1.106598
v -2.386315 0.742371 -1.106242
v -2.384601 0.742511 -1.105525
v -2.38862 0.739477 -1.105257
v -2.38998 0.740211 -1.106698
v -2.395071 0.731809 -1.104429
v -2.396132 0.732478 -1.105982
v -2.394273 0.735335 -1.106247
v -2.393143 0.734613 -1.104639
v -2.391828 0.733779 -1.102356
v -2.393829 0.731025 -1.102235
v -2.39567 0.728138 -1.102231
v -2.39678 0.728836 -1.104167
v -2.397738 0.729435 -1.10553
v -2.392879 0.730418 -1.099848
v -2.39085 0.733157 -1.099846
v -2.390266 0.732791 -1.09787
v -2.392301 0.730046 -1.097974
v -2.394348 0.727282 -1.098442
v -2.39484 0.727604 -1.100111
v -2.388616 0.735731 -1.100083
v -2.389562 0.736324 -1.102666
v -2.388093 0.735416 -1.098026
v -2.390945 0.73721 -1.104952
v -2.392162 0.738 -1.106534
v -2.398324 0.725731 -1.103701
v -2.399096 0.72621 -1.104685
v -2.397459 0.72519 -1.102271
v -2.398803 0.72297 -1.102302
v -2.39944 0.723366 -1.103256
v -2.399661 0.724295 -1.103953
v -2.396869 0.724807 -1.100661
v -2.396556 0.724597 -1.099376
v -2.397877 0.723162 -1.100224
v -2.398442 0.722732 -1.101169
v -2.399407 0.726405 -1.104958
v -2.400101 0.723775 -1.103883
v -2.398112 0.729671 -1.10593
v -2.399661 0.724295 -1.103953
v -2.399031 0.722083 -1.101304
v -2.39833 0.722651 -1.10018
v -2.399314 0.722271 -1.10227
v -2.397877 0.723162 -1.100224
v -2.384545 0.739398 -1.098704
v -2.383415 0.740753 -1.100122
v -2.386012 0.737673 -1.097795
v -2.38352 0.740596 -1.1004
v -2.384069 0.742972 -1.105501
v -2.386413 0.742657 -1.106389
v -2.382424 0.742761 -1.104126
v -2.386315 0.742371 -1.106242
v -2.388476 0.741894 -1.106923
v -2.390472 0.740505 -1.107121
v -2.39987 0.722616 -1.103059
v -2.396519 0.724571 -1.09892
v -2.39425 0.727219 -1.097857
v -2.382457 0.741948 -1.102131
v -2.387977 0.735367 -1.097315
v -2.390134 0.73272 -1.097184
v -2.392612 0.73831 -1.107005
v -2.394699 0.735619 -1.106728
v -2.396537 0.732741 -1.106445
v -2.392173 0.72997 -1.097321
vn -0.5988 0.7551 0.2669
vn -0.505 0.7285 0.4628
vn -0.5494 0.6894 0.4722
vn -0.6355 0.7123 0.2978
vn -0.6503 0.6935 0.31
vn -0.5967 0.754 0.2747
vn -0.5557 0.7932 0.2491
vn -0.5151 0.8072 0.2883
vn -0.4322 0.7843 0.445
vn -0.4186 0.6406 0.6437
vn -0.4231 0.6437 0.6377
vn -0.497 0.5961 0.6305
vn -0.4744 0.61 0.6347
vn -0.3679 0.7137 0.5961
vn -0.3691 0.6747 0.6391
vn -0.6644 0.466 0.5842
vn -0.6868 0.4705 0.5539
vn -0.7058 0.4443 0.5517
vn -0.6788 0.4358 0.591
vn -0.7376 0.4613 0.4929
vn -0.7143 0.497 0.4926
vn -0.6636 0.5659 0.4892
vn -0.6128 0.5233 0.5922
vn -0.6366 0.5183 0.5709
vn -0.7548 0.5235 0.3951
vn -0.7758 0.4974 0.3881
vn -0.7631 0.4806 0.432
vn -0.7466 0.5084 0.4291
vn -0.7156 0.5684 0.4059
vn -0.7143 0.5877 0.38
vn -0.6695 0.6585 0.3435
vn -0.602 0.637 0.4814
vn -0.6816 0.636 0.3617
vn -0.5416 0.5773 0.611
vn -0.5676 0.5636 0.6002
vn -0.6733 0.4155 0.6115
vn -0.7054 0.4211 0.5701
vn -0.6983 0.3966 0.5958
vn -0.6906 0.3593 0.6277
vn -0.7762 0.3951 0.4913
vn -0.7482 0.4442 0.4928
vn -0.7916 0.4906 0.3643
vn -0.8269 0.4458 0.3426
vn -0.8007 0.4616 0.3818
vn -0.7813 0.4693 0.4115
vn 0.6242 -0.7422 -0.2439
vn 0.5174 -0.7179 -0.4656
vn 0.564 -0.6755 -0.4749
vn 0.6933 -0.6999 -0.1715
vn 0.7332 -0.6774 -0.0586
vn 0.7229 -0.6861 -0.0818
vn 0.7111 -0.6866 -0.1516
vn 0.6412 -0.713 -0.2835
vn 0.5493 -0.6894 -0.4721
vn 0.4214 -0.6134 -0.6679
vn 0.3807 -0.4689 -0.7969
vn 0.3727 -0.4487 -0.8123
vn 0.4233 -0.5288 -0.7356
vn 0.4676 -0.6028 -0.6464
vn 0.4236 -0.504 -0.7527
vn 0.6556 -0.4619 -0.5973
vn 0.5894 -0.4306 -0.6835
vn 0.5514 -0.469 -0.6898
vn 0.605 -0.5185 -0.6042
vn 0.6637 -0.5658 -0.4893
vn 0.7144 -0.4968 -0.4926
vn 0.7377 -0.4612 -0.4929
vn 0.6674 -0.4327 -0.6061
vn 0.5761 -0.4193 -0.7016
vn 0.7595 -0.5278 -0.3801
vn 0.7189 -0.5909 -0.366
vn 0.7568 -0.5995 -0.2604
vn 0.7855 -0.5551 -0.2735
vn 0.7924 -0.5566 -0.2495
vn 0.78 -0.5041 -0.3706
vn 0.6742 -0.6608 -0.3298
vn 0.6019 -0.6371 -0.4814
vn 0.7254 -0.6535 -0.216
vn 0.5342 -0.5719 -0.6225
vn 0.4869 -0.502 -0.7147
vn 0.6491 -0.4238 -0.6316
vn 0.5226 -0.4263 -0.7383
vn 0.7418 -0.4547 -0.4929
vn 0.7126 -0.4995 -0.4926
vn 0.568 -0.4564 -0.6848
vn 0.4861 -0.4345 -0.7582
vn 0.7885 -0.5123 -0.3402
vn 0.7825 -0.5913 -0.1951
vn 0.7711 -0.6156 -0.1622
vn 0.7667 -0.5828 -0.2692
vn -0.724 0.0203 -0.6895
vn -0.823 -0.3163 -0.4719
vn -0.6424 0.1371 -0.7539
vn 0.4861 -0.4345 -0.7582
vn -0.4428 -0.8694 0.2193
vn -0.2663 -0.6706 0.6923
vn -0.4355 -0.8979 -0.0645
vn 0.7711 -0.6156 -0.1622
vn 0.4289 0.2039 0.88
vn 0.5947 0.4087 0.6923
vn 0.3279 0.0297 0.9442
vn 0.7332 -0.6774 -0.0586
vn 0.4071 0.7404 -0.5349
vn -0.023 0.8006 -0.5988
vn 0.7894 0.58 -0.2011
vn 0.3727 -0.4487 -0.8123
vn -0.3123 0.6744 -0.6691
vn -0.4629 0.5319 -0.709
vn -0.6396 -0.7443 -0.192
vn 0.0304 -0.4593 0.8878
vn 0.1561 -0.3703 0.9156
vn 0.8161 0.4805 0.321
vn 0.272 -0.1065 0.9564
vn 0.2501 -0.1905 0.9492
vn -0.5382 0.408 -0.7374
vn -0.5657 0.3277 -0.7567
vn -0.5885 0.2457 -0.7703
vn 0.227 -0.2726 0.935
vt 0.839504 0.118056
vt 0.856743 0.205307
vt 0.741230 0.205307
vt 0.734555 0.106726
vt 0.724541 0.032791
vt 0.813647 0.052618
vt 0.868992 0.081539
vt 0.913398 0.129584
vt 0.940923 0.205307
vt 0.839504 0.292557
vt 0.813647 0.357995
vt 0.724541 0.377822
vt 0.734555 0.303887
vt 0.913398 0.281029
vt 0.868992 0.329074
vt 0.369475 0.299954
vt 0.368286 0.370940
vt 0.245840 0.351447
vt 0.246397 0.288815
vt 0.246768 0.205307
vt 0.370268 0.205307
vt 0.494283 0.205307
vt 0.492822 0.304944
vt 0.490632 0.379672
vt 0.369475 0.110659
vt 0.246397 0.121798
vt 0.245841 0.059166
vt 0.368286 0.039673
vt 0.490632 0.030941
vt 0.492822 0.105669
vt 0.616755 0.103478
vt 0.619174 0.205307
vt 0.613127 0.027106
vt 0.616755 0.307135
vt 0.613126 0.383507
vt 0.123273 0.268175
vt 0.123047 0.315326
vt 0.054743 0.283353
vt 0.030912 0.249131
vt 0.030973 0.205306
vt 0.123423 0.205306
vt 0.123273 0.142438
vt 0.030912 0.161481
vt 0.054744 0.127260
vt 0.123047 0.095287
vt 0.839504 0.118056
vt 0.856743 0.205307
vt 0.968983 0.205307
vt 0.938030 0.133427
vt 0.876123 0.061548
vt 0.805028 0.030806
vt 0.721203 0.008146
vt 0.734555 0.106726
vt 0.741230 0.205307
vt 0.839504 0.292557
vt 0.805028 0.379807
vt 0.876123 0.349065
vt 0.938030 0.277186
vt 0.734555 0.303887
vt 0.721203 0.402467
vt 0.369475 0.299954
vt 0.367890 0.394602
vt 0.489902 0.404581
vt 0.492822 0.304944
vt 0.494283 0.205307
vt 0.370268 0.205307
vt 0.246768 0.205307
vt 0.246397 0.288815
vt 0.245655 0.372324
vt 0.369475 0.110659
vt 0.492822 0.105669
vt 0.489902 0.006032
vt 0.367890 0.016011
vt 0.245655 0.038289
vt 0.246397 0.121798
vt 0.616755 0.103478
vt 0.619174 0.205307
vt 0.611917 0.001649
vt 0.616755 0.307135
vt 0.611917 0.408964
vt 0.123273 0.268175
vt 0.122972 0.331043
vt 0.123423 0.205306
vt 0.000156 0.205306
vt 0.000125 0.242784
vt 0.000064 0.280261
vt 0.123273 0.142438
vt 0.122972 0.079570
vt 0.000064 0.130352
vt 0.000125 0.167829
vt 0.122972 0.331043
vt 0.030806 0.283587
vt 0.245655 0.372324
vt 0.030806 0.283587
vt 0.000125 0.167829
vt 0.030806 0.127026
vt 0.000156 0.205306
vt 0.030806 0.127026
vt 0.805028 0.030806
vt 0.873826 0.071832
vt 0.721203 0.008146
vt 0.873826 0.071832
vt 0.938030 0.277186
vt 0.873826 0.338781
vt 0.968983 0.205307
vt 0.873826 0.338781
vt 0.805028 0.379807
vt 0.721203 0.402467
vt 0.000125 0.242784
vt 0.122972 0.079570
vt 0.245655 0.038289
vt 0.938030 0.133427
vt 0.611917 0.001649
vt 0.489902 0.006032
vt 0.611917 0.408964
vt 0.489902 0.404581
vt 0.367890 0.394602
vt 0.367890 0.016011
f 1/1/1 2/2/2 3/3/3
f 1/1/1 3/3/3 4/4/4
f 1/1/1 4/4/4 5/5/5
f 1/1/1 5/5/5 6/6/6
f 1/1/1 6/6/6 7/7/7
f 1/1/1 7/7/7 8/8/8
f 1/1/1 8/8/8 9/9/9
f 1/1/1 9/9/9 2/2/2
f 10/10/10 11/11/11 12/12/12
f 10/10/10 12/12/12 13/13/13
f 10/10/10 13/13/13 3/3/3
f 10/10/10 3/3/3 2/2/2
f 10/10/10 2/2/2 9/9/9
f 10/10/10 9/9/9 14/14/14
f 10/10/10 14/14/14 15/15/15
f 10/10/10 15/15/15 11/11/11
f 16/16/16 17/17/17 18/18/18
f 16/16/16 18/18/18 19/19/19
f 16/16/16 19/19/19 20/20/20
f 16/16/16 20/20/20 21/21/21
f 16/16/16 21/21/21 22/22/22
f 16/16/16 22/22/22 23/23/23
f 16/16/16 23/23/23 24/24/24
f 16/16/16 24/24/24 17/17/17
f 25/25/25 21/21/21 20/20/20
f 25/25/25 20/20/20 26/26/26
f 25/25/25 26/26/26 27/27/27
f 25/25/25 27/27/27 28/28/28
f 25/25/25 28/28/28 29/29/29
f 25/25/25 29/29/29 30/30/30
f 25/25/25 30/30/30 22/22/22
f 25/25/25 22/22/22 21/21/21
f 31/31/31 32/32/32 22/22/22
f 31/31/31 22/22/22 30/30/30
f 31/31/31 30/30/30 29/29/29
f 31/31/31 29/29/29 33/33/33
f 31/31/31 33/33/33 5/5/5
f 31/31/31 5/5/5 4/4/4
f 31/31/31 4/4/4 3/3/3
f 31/31/31 3/3/3 32/32/32
f 34/34/34 35/35/35 24/24/24
f 34/34/34 24/24/24 23/23/23
f 34/34/34 23/23/23 22/22/22
f 34/34/34 22/22/22 32/32/32
f 34/34/34 32/32/32 3/3/3
f 34/34/34 3/3/3 13/13/13
f 34/34/34 13/13/13 12/12/12
f 34/34/34 12/12/12 35/35/35
f 36/36/36 37/37/37 38/38/38
f 36/36/36 38/38/38 39/39/39
f 36/36/36 39/39/39 40/40/40
f 36/36/36 40/40/40 41/41/41
f 36/36/36 41/41/41 20/20/20
f 36/36/36 20/20/20 19/19/19
f 36/36/36 19/19/19 18/18/18
f 36/36/36 18/18/18 37/37/37
f 42/42/42 41/41/41 40/40/40
f 42/42/42 40/40/40 43/43/43
f 42/42/42 43/43/43 44/44/44
f 42/42/42 44/44/44 45/45/45
f 42/42/42 45/45/45 27/27/27
f 42/42/42 27/27/27 26/26/26
f 42/42/42 26/26/26 20/20/20
f 42/42/42 20/20/20 41/41/41
f 46/46/46 47/47/47 48/48/48
f 46/46/46 48/48/48 49/49/49
f 46/46/46 49/49/49 50/50/50
f 46/46/46 50/50/50 51/51/51
f 46/46/46 51/51/51 52/52/52
f 46/46/46 52/52/52 53/53/53
f 46/46/46 53/53/53 54/54/54
f 46/46/46 54/54/54 47/47/47
f 55/55/55 56/56/56 57/57/57
f 55/55/55 57/57/57 58/58/58
f 55/55/55 58/58/58 48/48/48
f 55/55/55 48/48/48 47/47/47
f 55/55/55 47/47/47 54/54/54
f 55/55/55 54/54/54 59/59/59
f 55/55/55 59/59/59 60/60/60
f 55/55/55 60/60/60 56/56/56
f 61/61/61 62/62/62 63/63/63
f 61/61/61 63/63/63 64/64/64
f 61/61/61 64/64/64 65/65/65
f 61/61/61 65/65/65 66/66/66
f 61/61/61 66/66/66 67/67/67
f 61/61/61 67/67/67 68/68/68
f 61/61/61 68/68/68 69/69/69
f 61/61/61 69/69/69 62/62/62
f 70/70/70 66/66/66 65/65/65
f 70/70/70 65/65/65 71/71/71
f 70/70/70 71/71/71 72/72/72
f 70/70/70 72/72/72 73/73/73
f 70/70/70 73/73/73 74/74/74
f 70/70/70 74/74/74 75/75/75
f 70/70/70 75/75/75 67/67/67
f 70/70/70 67/67/67 66/66/66
f 76/76/76 77/77/77 54/54/54
f 76/76/76 54/54/54 53/53/53
f 76/76/76 53/53/53 52/52/52
f 76/76/76 52/52/52 78/78/78
f 76/76/76 78/78/78 72/72/72
f 76/76/76 72/72/72 71/71/71
f 76/76/76 71/71/71 65/65/65
f 76/76/76 65/65/65 77/77/77
f 79/79/79 80/80/80 60/60/60
f 79/79/79 60/60/60 59/59/59
f 79/79/79 59/59/59 54/54/54
f 79/79/79 54/54/54 77/77/77
f 79/79/79 77/77/77 65/65/65
f 79/79/79 65/65/65 64/64/64
f 79/79/79 64/64/64 63/63/63
f 79/79/79 63/63/63 80/80/80
f 81/81/81 82/82/82 69/69/69
f 81/81/81 69/69/69 68/68/68
f 81/81/81 68/68/68 67/67/67
f 81/81/81 67/67/67 83/83/83
f 81/81/81 83/83/83 84/84/84
f 81/81/81 84/84/84 85/85/85
f 81/81/81 85/85/85 86/86/86
f 81/81/81 86/86/86 82/82/82
f 87/87/87 83/83/83 67/67/67
f 87/87/87 67/67/67 75/75/75
f 87/87/87 75/75/75 74/74/74
f 87/87/87 74/74/74 88/88/88
f 87/87/87 88/88/88 89/89/89
f 87/87/87 89/89/89 90/90/90
f 87/87/87 90/90/90 84/84/84
f 87/87/87 84/84/84 83/83/83
f 91/91/91 92/92/92 38/38/38
f 91/91/91 38/38/38 37/37/37
f 91/91/91 37/37/37 18/18/18
f 91/91/91 18/18/18 93/93/93
f 91/91/91 93/93/93 69/69/69
f 91/91/91 69/69/69 82/82/82
f 91/91/91 82/82/82 94/94/94
f 91/91/91 94/94/94 92/92/92
f 95/95/95 96/96/96 44/44/44
f 95/95/95 44/44/44 43/43/43
f 95/95/95 43/43/43 40/40/40
f 95/95/95 40/40/40 97/97/97
f 95/95/95 97/97/97 84/84/84
f 95/95/95 84/84/84 90/90/90
f 95/95/95 90/90/90 98/98/98
f 95/95/95 98/98/98 96/96/96
f 99/99/99 100/100/100 7/7/7
f 99/99/99 7/7/7 6/6/6
f 99/99/99 6/6/6 5/5/5
f 99/99/99 5/5/5 101/101/101
f 99/99/99 101/101/101 52/52/52
f 99/99/99 52/52/52 51/51/51
f 99/99/99 51/51/51 102/102/102
f 99/99/99 102/102/102 100/100/100
f 103/103/103 104/104/104 15/15/15
f 103/103/103 15/15/15 14/14/14
f 103/103/103 14/14/14 9/9/9
f 103/103/103 9/9/9 105/105/105
f 103/103/103 105/105/105 48/48/48
f 103/103/103 48/48/48 58/58/58
f 103/103/103 58/58/58 106/106/106
f 103/103/103 106/106/106 104/104/104
f 107/107/107 108/108/108 12/12/12
f 107/107/107 12/12/12 11/11/11
f 107/107/107 11/11/11 15/15/15
f 107/107/107 15/15/15 104/104/104
f 107/107/107 104/104/104 106/106/106
f 107/107/107 106/106/106 56/56/56
f 107/107/107 56/56/56 60/60/60
f 107/107/107 60/60/60 108/108/108
f 109/109/109 97/97/97 40/40/40
f 109/109/109 40/40/40 39/39/39
f 109/109/109 39/39/39 38/38/38
f 109/109/109 38/38/38 92/92/92
f 109/109/109 92/92/92 94/94/94
f 109/109/109 94/94/94 85/85/85
f 109/109/109 85/85/85 84/84/84
f 109/109/109 84/84/84 97/97/97
f 110/110/110 111/111/111 27/27/27
f 110/110/110 27/27/27 45/45/45
f 110/110/110 45/45/45 44/44/44
f 110/110/110 44/44/44 96/96/96
f 110/110/110 96/96/96 98/98/98
f 110/110/110 98/98/98 88/88/88
f 110/110/110 88/88/88 74/74/74
f 110/110/110 74/74/74 111/111/111
f 112/112/112 105/105/105 9/9/9
f 112/112/112 9/9/9 8/8/8
f 112/112/112 8/8/8 7/7/7
f 112/112/112 7/7/7 100/100/100
f 112/112/112 100/100/100 102/102/102
f 112/112/112 102/102/102 49/49/49
f 112/112/112 49/49/49 48/48/48
f 112/112/112 48/48/48 105/105/105
f 113/113/113 101/101/101 5/5/5
f 113/113/113 5/5/5 33/33/33
f 113/113/113 33/33/33 29/29/29
f 113/113/113 29/29/29 114/114/114
f 113/113/113 114/114/114 72/72/72
f 113/113/113 72/72/72 78/78/78
f 113/113/113 78/78/78 52/52/52
f 113/113/113 52/52/52 101/101/101
f 115/115/115 116/116/116 24/24/24
f 115/115/115 24/24/24 35/35/35
f 115/115/115 35/35/35 12/12/12
f 115/115/115 12/12/12 108/108/108
f 115/115/115 108/108/108 60/60/60
f 115/115/115 60/60/60 80/80/80
f 115/115/115 80/80/80 63/63/63
f 115/115/115 63/63/63 116/116/116
f 117/117/117 93/93/93 18/18/18
f 117/117/117 18/18/18 17/17/17
f 117/117/117 17/17/17 24/24/24
f 117/117/117 24/24/24 116/116/116
f 117/117/117 116/116/116 63/63/63
f 117/117/117 63/63/63 62/62/62
f 117/117/117 62/62/62 69/69/69
f 117/117/117 69/69/69 93/93/93
f 118/118/118 114/114/114 29/29/29
f 118/118/118 29/29/29 28/28/28
f 118/118/118 28/28/28 27/27/27
f 118/118/118 27/27/27 111/111/111
f 118/118/118 111/111/111 74/74/74
f 118/118/118 74/74/74 73/73/73
f 118/118/118 73/73/73 72/72/72
f 118/118/118 72/72/72 114/114/114
