v -2.342177 0.791529 -1.178972
v -2.343395 0.791761 -1.180717
v -2.345224 0.790566 -1.178887
v -2.343627 0.79038 -1.177131
v -2.342544 0.790367 -1.175638
v -2.341502 0.79141 -1.177359
v -2.341099 0.79192 -1.178776
v -2.341189 0.792254 -1.180374
v -2.34204 0.792549 -1.182099
v -2.34528 0.792209 -1.181628
v -2.346944 0.792603 -1.182016
v -2.348726 0.791723 -1.180929
v -2.347154 0.791154 -1.18015
v -2.343875 0.792842 -1.182673
v -2.345505 0.792886 -1.182548
v -2.352499 0.786066 -1.175134
v -2.353887 0.786509 -1.176103
v -2.355211 0.784332 -1.174386
v -2.353977 0.783932 -1.173538
v -2.352387 0.783485 -1.172332
v -2.350707 0.785567 -1.173761
v -2.348961 0.787487 -1.175309
v -2.350842 0.788026 -1.176733
v -2.352304 0.788515 -1.177729
v -2.349044 0.785308 -1.172176
v -2.350921 0.783262 -1.170923
v -2.349856 0.783158 -1.169803
v -2.347832 0.785181 -1.170921
v -2.34597 0.787126 -1.172308
v -2.347228 0.787233 -1.17364
v -2.345367 0.788936 -1.175322
v -2.347106 0.789148 -1.177051
v -2.344121 0.788897 -1.173917
v -2.349034 0.78974 -1.178462
v -2.350548 0.790306 -1.179419
v -2.355248 0.781695 -1.17182
v -2.35619 0.782027 -1.172422
v -2.35648 0.780626 -1.171206
v -2.356116 0.779959 -1.170504
v -2.355273 0.779679 -1.169935
v -2.354046 0.781335 -1.170944
v -2.352968 0.781195 -1.169868
v -2.354553 0.779616 -1.169166
v -2.353668 0.78001 -1.1688
v -2.352191 0.78115 -1.168999
v -2.342112 0.791329 -1.179051
v -2.343354 0.791565 -1.180816
v -2.34201 0.7924 -1.182171
v -2.341142 0.792103 -1.18043
v -2.341058 0.791808 -1.178813
v -2.341442 0.79126 -1.177407
v -2.342483 0.790221 -1.175694
v -2.343559 0.790186 -1.177218
v -2.345176 0.790374 -1.178991
v -2.345262 0.79202 -1.181747
v -2.346942 0.792466 -1.182114
v -2.345502 0.792782 -1.182617
v -2.343865 0.7927 -1.182761
v -2.347127 0.790968 -1.180272
v -2.348716 0.791587 -1.181029
v -2.352441 0.785901 -1.175276
v -2.353851 0.786387 -1.176215
v -2.352275 0.788388 -1.177836
v -2.350792 0.787853 -1.176869
v -2.348896 0.787311 -1.175431
v -2.350633 0.785399 -1.173891
v -2.352308 0.783322 -1.172466
v -2.353914 0.783773 -1.173684
v -2.355171 0.784215 -1.174502
v -2.348955 0.785137 -1.172292
v -2.347146 0.787054 -1.173748
v -2.345901 0.786991 -1.172382
v -2.347759 0.785052 -1.171001
v -2.349778 0.783032 -1.169886
v -2.350828 0.783096 -1.171043
v -2.345292 0.788749 -1.17542
v -2.34705 0.788963 -1.177164
v -2.344056 0.788756 -1.173982
v -2.348996 0.789561 -1.17859
v -2.350528 0.790175 -1.179522
v -2.355184 0.781538 -1.171968
v -2.35615 0.781912 -1.17254
v -2.353966 0.781175 -1.171079
v -2.355212 0.779558 -1.170037
v -2.356068 0.779842 -1.170616
v -2.356449 0.78054 -1.171292
v -2.352871 0.781031 -1.169989
v -2.352111 0.781027 -1.169083
v -2.353611 0.779918 -1.168863
v -2.35448 0.779494 -1.169257
v -2.356488 0.782087 -1.172676
v -2.356805 0.7802 -1.170941
v -2.355606 0.784414 -1.174721
v -2.356449 0.78054 -1.171292
v -2.355049 0.779036 -1.168973
v -2.353988 0.779583 -1.16853
v -2.355655 0.779073 -1.169644
v -2.353611 0.779918 -1.168863
v -2.341248 0.791304 -1.17684
v -2.340846 0.79197 -1.178682
v -2.342153 0.790298 -1.175163
v -2.341058 0.791808 -1.178813
v -2.343403 0.79299 -1.18306
v -2.345614 0.793016 -1.182763
v -2.341575 0.792745 -1.182592
v -2.345502 0.792782 -1.182617
v -2.3475 0.792675 -1.182191
v -2.349248 0.791853 -1.181236
v -2.356384 0.779328 -1.170115
v -2.351895 0.78108 -1.168745
v -2.349464 0.783067 -1.169465
v -2.340839 0.792428 -1.180866
v -2.343674 0.788821 -1.173476
v -2.345519 0.78703 -1.171895
v -2.351046 0.790437 -1.179785
v -2.35278 0.788622 -1.17811
v -2.354335 0.786603 -1.176477
v -2.347394 0.785081 -1.170536
vn -0.3238 0.9059 0.2728
vn -0.1517 0.9003 0.4078
vn -0.19 0.8746 0.446
vn -0.3455 0.8795 0.3272
vn -0.3547 0.8672 0.3493
vn -0.3184 0.906 0.2788
vn -0.2906 0.9292 0.2281
vn -0.2351 0.9418 0.2403
vn -0.0909 0.934 0.3454
vn 0.0007 0.8348 0.5505
vn -0.0057 0.8374 0.5465
vn -0.0785 0.8068 0.5856
vn -0.0554 0.8159 0.5755
vn 0.0298 0.8836 0.4672
vn 0.0453 0.8556 0.5157
vn -0.2598 0.7097 0.6548
vn -0.2934 0.7126 0.6372
vn -0.3137 0.6913 0.6508
vn -0.2722 0.6854 0.6754
vn -0.3676 0.7024 0.6094
vn -0.3438 0.7313 0.589
vn -0.2941 0.7853 0.5448
vn -0.2052 0.7547 0.6232
vn -0.2367 0.7508 0.6167
vn -0.4227 0.7454 0.5154
vn -0.4469 0.7237 0.5258
vn -0.4168 0.714 0.5626
vn -0.4009 0.7362 0.5452
vn -0.3788 0.7819 0.4951
vn -0.388 0.7947 0.4668
vn -0.359 0.8451 0.3962
vn -0.2369 0.8381 0.4914
vn -0.3633 0.8299 0.4234
vn -0.1286 0.7945 0.5934
vn -0.1578 0.7848 0.5992
vn -0.2597 0.669 0.6964
vn -0.3069 0.673 0.6729
vn -0.2911 0.6533 0.6988
vn -0.2728 0.6225 0.7335
vn -0.4087 0.6474 0.6433
vn -0.3786 0.6884 0.6186
vn -0.4727 0.7157 0.5141
vn -0.5183 0.6764 0.5234
vn -0.4753 0.6937 0.5411
vn -0.4435 0.7029 0.556
vn 0.3581 -0.8945 -0.2676
vn 0.1623 -0.8936 -0.4185
vn 0.2029 -0.8651 -0.4587
vn 0.4568 -0.8545 -0.2472
vn 0.5474 -0.8185 -0.174
vn 0.5266 -0.8293 -0.1869
vn 0.4833 -0.8414 -0.2417
vn 0.3572 -0.8785 -0.3172
vn 0.1899 -0.8746 -0.446
vn -0.0071 -0.8144 -0.5802
vn -0.0893 -0.6943 -0.7141
vn -0.1017 -0.6762 -0.7297
vn -0.0291 -0.7479 -0.6631
vn 0.0446 -0.81 -0.5848
vn -0.0344 -0.728 -0.6847
vn 0.2464 -0.7065 -0.6634
vn 0.1508 -0.6799 -0.7176
vn 0.1107 -0.7096 -0.6959
vn 0.1932 -0.7509 -0.6315
vn 0.2942 -0.7851 -0.5449
vn 0.3439 -0.7312 -0.5891
vn 0.3677 -0.7024 -0.6095
vn 0.2554 -0.683 -0.6843
vn 0.1317 -0.6699 -0.7306
vn 0.4334 -0.7475 -0.5033
vn 0.3984 -0.7959 -0.4559
vn 0.4806 -0.7907 -0.3793
vn 0.5039 -0.7573 -0.4154
vn 0.5212 -0.7553 -0.3973
vn 0.4582 -0.7274 -0.5107
vn 0.3694 -0.8453 -0.3859
vn 0.2369 -0.8381 -0.4914
vn 0.4687 -0.8262 -0.3125
vn 0.1173 -0.7901 -0.6016
vn 0.0392 -0.732 -0.6801
vn 0.2282 -0.6758 -0.7009
vn 0.0671 -0.6725 -0.737
vn 0.3719 -0.697 -0.6131
vn 0.3421 -0.7334 -0.5875
vn 0.1288 -0.7002 -0.7022
vn 0.025 -0.6765 -0.736
vn 0.4793 -0.7308 -0.486
vn 0.5347 -0.775 -0.3366
vn 0.538 -0.789 -0.2967
vn 0.4867 -0.7787 -0.3957
vn -0.9577 0.0356 -0.2853
vn -0.9748 -0.2194 0.0395
vn -0.9054 0.116 -0.4084
vn 0.025 -0.6765 -0.736
vn -0.37 -0.6875 0.6248
vn 0.0277 -0.4393 0.8979
vn -0.5007 -0.7745 0.3864
vn 0.538 -0.789 -0.2967
vn 0.8113 0.2816 0.5123
vn 0.8884 0.4018 0.2221
vn 0.7361 0.1507 0.6598
vn 0.5474 -0.8185 -0.174
vn 0.1768 0.5076 -0.8432
vn -0.2241 0.6458 -0.7299
vn 0.6534 0.3399 -0.6764
vn -0.1017 -0.6762 -0.7297
vn -0.5233 0.574 -0.6298
vn -0.6882 0.4627 -0.5588
vn -0.7244 -0.6099 0.3214
vn 0.4009 -0.2621 0.8778
vn 0.533 -0.199 0.8223
vn 0.9138 0.346 -0.2123
vn 0.6794 0.0353 0.7329
vn 0.6486 -0.0416 0.7599
vn -0.7797 0.355 -0.5156
vn -0.8208 0.2804 -0.4975
vn -0.8552 0.2045 -0.4763
vn 0.6139 -0.1172 0.7806
vt 0.839504 0.118056
vt 0.856743 0.205307
vt 0.741230 0.205307
vt 0.734555 0.106726
vt 0.724541 0.032791
vt 0.813647 0.052618
vt 0.868992 0.081539
vt 0.913398 0.129584
vt 0.940923 0.205307
vt 0.839504 0.292557
vt 0.813647 0.357995
vt 0.724541 0.377822
vt 0.734555 0.303887
vt 0.913398 0.281029
vt 0.868992 0.329074
vt 0.369475 0.299954
vt 0.368286 0.370940
vt 0.245840 0.351447
vt 0.246397 0.288815
vt 0.246768 0.205307
vt 0.370268 0.205307
vt 0.494283 0.205307
vt 0.492822 0.304944
vt 0.490632 0.379672
vt 0.369475 0.110659
vt 0.246397 0.121798
vt 0.245841 0.059166
vt 0.368286 0.039673
vt 0.490632 0.030941
vt 0.492822 0.105669
vt 0.616755 0.103478
vt 0.619174 0.205307
vt 0.613127 0.027106
vt 0.616755 0.307135
vt 0.613126 0.383507
vt 0.123273 0.268175
vt 0.123047 0.315326
vt 0.054743 0.283353
vt 0.030912 0.249131
vt 0.030973 0.205306
vt 0.123423 0.205306
vt 0.123273 0.142438
vt 0.030912 0.161481
vt 0.054744 0.127260
vt 0.123047 0.095287
vt 0.839504 0.118056
vt 0.856743 0.205307
vt 0.968983 0.205307
vt 0.938030 0.133427
vt 0.876123 0.061548
vt 0.805028 0.030806
vt 0.721203 0.008146
vt 0.734555 0.106726
vt 0.741230 0.205307
vt 0.839504 0.292557
vt 0.805028 0.379807
vt 0.876123 0.349065
vt 0.938030 0.277186
vt 0.734555 0.303887
vt 0.721203 0.402467
vt 0.369475 0.299954
vt 0.367890 0.394602
vt 0.489902 0.404581
vt 0.492822 0.304944
vt 0.494283 0.205307
vt 0.370268 0.205307
vt 0.246768 0.205307
vt 0.246397 0.288815
vt 0.245655 0.372324
vt 0.369475 0.110659
vt 0.492822 0.105669
vt 0.489902 0.006032
vt 0.367890 0.016011
vt 0.245655 0.038289
vt 0.246397 0.121798
vt 0.616755 0.103478
vt 0.619174 0.205307
vt 0.611917 0.001649
vt 0.616755 0.307135
vt 0.611917 0.408964
vt 0.123273 0.268175
vt 0.122972 0.331043
vt 0.123423 0.205306
vt 0.000156 0.205306
vt 0.000125 0.242784
vt 0.000064 0.280261
vt 0.123273 0.142438
vt 0.122972 0.079570
vt 0.000064 0.130352
vt 0.000125 0.167829
vt 0.122972 0.331043
vt 0.030806 0.283587
vt 0.245655 0.372324
vt 0.030806 0.283587
vt 0.000125 0.167829
vt 0.030806 0.127026
vt 0.000156 0.205306
vt 0.030806 0.127026
vt 0.805028 0.030806
vt 0.873826 0.071832
vt 0.721203 0.008146
vt 0.873826 0.071832
vt 0.938030 0.277186
vt 0.873826 0.338781
vt 0.968983 0.205307
vt 0.873826 0.338781
vt 0.805028 0.379807
vt 0.721203 0.402467
vt 0.000125 0.242784
vt 0.122972 0.079570
vt 0.245655 0.038289
vt 0.938030 0.133427
vt 0.611917 0.001649
vt 0.489902 0.006032
vt 0.611917 0.408964
vt 0.489902 0.404581
vt 0.367890 0.394602
vt 0.367890 0.016011
f 1/1/1 2/2/2 3/3/3
f 1/1/1 3/3/3 4/4/4
f 1/1/1 4/4/4 5/5/5
f 1/1/1 5/5/5 6/6/6
f 1/1/1 6/6/6 7/7/7
f 1/1/1 7/7/7 8/8/8
f 1/1/1 8/8/8 9/9/9
f 1/1/1 9/9/9 2/2/2
f 10/10/10 11/11/11 12/12/12
f 10/10/10 12/12/12 13/13/13
f 10/10/10 13/13/13 3/3/3
f 10/10/10 3/3/3 2/2/2
f 10/10/10 2/2/2 9/9/9
f 10/10/10 9/9/9 14/14/14
f 10/10/10 14/14/14 15/15/15
f 10/10/10 15/15/15 11/11/11
f 16/16/16 17/17/17 18/18/18
f 16/16/16 18/18/18 19/19/19
f 16/16/16 19/19/19 20/20/20
f 16/16/16 20/20/20 21/21/21
f 16/16/16 21/21/21 22/22/22
f 16/16/16 22/22/22 23/23/23
f 16/16/16 23/23/23 24/24/24
f 16/16/16 24/24/24 17/17/17
f 25/25/25 21/21/21 20/20/20
f 25/25/25 20/20/20 26/26/26
f 25/25/25 26/26/26 27/27/27
f 25/25/25 27/27/27 28/28/28
f 25/25/25 28/28/28 29/29/29
f 25/25/25 29/29/29 30/30/30
f 25/25/25 30/30/30 22/22/22
f 25/25/25 22/22/22 21/21/21
f 31/31/31 32/32/32 22/22/22
f 31/31/31 22/22/22 30/30/30
f 31/31/31 30/30/30 29/29/29
f 31/31/31 29/29/29 33/33/33
f 31/31/31 33/33/33 5/5/5
f 31/31/31 5/5/5 4/4/4
f 31/31/31 4/4/4 3/3/3
f 31/31/31 3/3/3 32/32/32
f 34/34/34 35/35/35 24/24/24
f 34/34/34 24/24/24 23/23/23
f 34/34/34 23/23/23 22/22/22
f 34/34/34 22/22/22 32/32/32
f 34/34/34 32/32/32 3/3/3
f 34/34/34 3/3/3 13/13/13
f 34/34/34 13/13/13 12/12/12
f 34/34/34 12/12/12 35/35/35
f 36/36/36 37/37/37 38/38/38
f 36/36/36 38/38/38 39/39/39
f 36/36/36 39/39/39 40/40/40
f 36/36/36 40/40/40 41/41/41
f 36/36/36 41/41/41 20/20/20
f 36/36/36 20/20/20 19/19/19
f 36/36/36 19/19/19 18/18/18
f 36/36/36 18/18/18 37/37/37
f 42/42/42 41/41/41 40/40/40
f 42/42/42 40/40/40 43/43/43
f 42/42/42 43/43/43 44/44/44
f 42/42/42 44/44/44 45/45/45
f 42/42/42 45/45/45 27/27/27
f 42/42/42 27/27/27 26/26/26
f 42/42/42 26/26/26 20/20/20
f 42/42/42 20/20/20 41/41/41
f 46/46/46 47/47/47 48/48/48
f 46/46/46 48/48/48 49/49/49
f 46/46/46 49/49/49 50/50/50
f 46/46/46 50/50/50 51/51/51
f 46/46/46 51/51/51 52/52/52
f 46/46/46 52/52/52 53/53/53
f 46/46/46 53/53/53 54/54/54
f 46/46/46 54/54/54 47/47/47
f 55/55/55 56/56/56 57/57/57
f 55/55/55 57/57/57 58/58/58
f 55/55/55 58/58/58 48/48/48
f 55/55/55 48/48/48 47/47/47
f 55/55/55 47/47/47 54/54/54
f 55/55/55 54/54/54 59/59/59
f 55/55/55 59/59/59 60/60/60
f 55/55/55 60/60/60 56/56/56
f 61/61/61 62/62/62 63/63/63
f 61/61/61 63/63/63 64/64/64
f 61/61/61 64/64/64 65/65/65
f 61/61/61 65/65/65 66/66/66
f 61/61/61 66/66/66 67/67/67
f 61/61/61 67/67/67 68/68/68
f 61/61/61 68/68/68 69/69/69
f 61/61/61 69/69/69 62/62/62
f 70/70/70 66/66/66 65/65/65
f 70/70/70 65/65/65 71/71/71
f 70/70/70 71/71/71 72/72/72
f 70/70/70 72/72/72 73/73/73
f 70/70/70 73/73/73 74/74/74
f 70/70/70 74/74/74 75/75/75
f 70/70/70 75/75/75 67/67/67
f 70/70/70 67/67/67 66/66/66
f 76/76/76 77/77/77 54/54/54
f 76/76/76 54/54/54 53/53/53
f 76/76/76 53/53/53 52/52/52
f 76/76/76 52/52/52 78/78/78
f 76/76/76 78/78/78 72/72/72
f 76/76/76 72/72/72 71/71/71
f 76/76/76 71/71/71 65/65/65
f 76/76/76 65/65/65 77/77/77
f 79/79/79 80/80/80 60/60/60
f 79/79/79 60/60/60 59/59/59
f 79/79/79 59/59/59 54/54/54
f 79/79/79 54/54/54 77/77/77
f 79/79/79 77/77/77 65/65/65
f 79/79/79 65/65/65 64/64/64
f 79/79/79 64/64/64 63/63/63
f 79/79/79 63/63/63 80/80/80
f 81/81/81 82/82/82 69/69/69
f 81/81/81 69/69/69 68/68/68
f 81/81/81 68/68/68 67/67/67
f 81/81/81 67/67/67 83/83/83
f 81/81/81 83/83/83 84/84/84
f 81/81/81 84/84/84 85/85/85
f 81/81/81 85/85/85 86/86/86
f 81/81/81 86/86/86 82/82/82
f 87/87/87 83/83/83 67/67/67
f 87/87/87 67/67/67 75/75/75
f 87/87/87 75/75/75 74/74/74
f 87/87/87 74/74/74 88/88/88
f 87/87/87 88/88/88 89/89/89
f 87/87/87 89/89/89 90/90/90
f 87/87/87 90/90/90 84/84/84
f 87/87/87 84/84/84 83/83/83
f 91/91/91 92/92/92 38/38/38
f 91/91/91 38/38/38 37/37/37
f 91/91/91 37/37/37 18/18/18
f 91/91/91 18/18/18 93/93/93
f 91/91/91 93/93/93 69/69/69
f 91/91/91 69/69/69 82/82/82
f 91/91/91 82/82/82 94/94/94
f 91/91/91 94/94/94 92/92/92
f 95/95/95 96/96/96 44/44/44
f 95/95/95 44/44/44 43/43/43
f 95/95/95 43/43/43 40/40/40
f 95/95/95 40/40/40 97/97/97
f 95/95/95 97/97/97 84/84/84
f 95/95/95 84/84/84 90/90/90
f 95/95/95 90/90/90 98/98/98
f 95/95/95 98/98/98 96/96/96
f 99/99/99 100/100/100 7/7/7
f 99/99/99 7/7/7 6/6/6
f 99/99/99 6/6/6 5/5/5
f 99/99/99 5/5/5 101/101/101
f 99/99/99 101/101/101 52/52/52
f 99/99/99 52/52/52 51/51/51
f 99/99/99 51/51/51 102/102/102
f 99/99/99 102/102/102 100/100/100
f 103/103/103 104/104/104 15/15/15
f 103/103/103 15/15/15 14/14/14
f 103/103/103 14/14/14 9/9/9
f 103/103/103 9/9/9 105/105/105
f 103/103/103 105/105/105 48/48/48
f 103/103/103 48/48/48 58/58/58
f 103/103/103 58/58/58 106/106/106
f 103/103/103 106/106/106 104/104/104
f 107/107/107 108/108/108 12/12/12
f 107/107/107 12/12/12 11/11/11
f 107/107/107 11/11/11 15/15/15
f 107/107/107 15/15/15 104/104/104
f 107/107/107 104/104/104 106/106/106
f 107/107/107 106/106/106 56/56/56
f 107/107/107 56/56/56 60/60/60
f 107/107/107 60/60/60 108/108/108
f 109/109/109 97/97/97 40/40/40
f 109/109/109 40/40/40 39/39/39
f 109/109/109 39/39/39 38/38/38
f 109/109/109 38/38/38 92/92/92
f 109/109/109 92/92/92 94/94/94
f 109/109/109 94/94/94 85/85/85
f 109/109/109 85/85/85 84/84/84
f 109/109/109 84/84/84 97/97/97
f 110/110/110 111/111/111 27/27/27
f 110/110/110 27/27/27 45/45/45
f 110/110/110 45/45/45 44/44/44
f 110/110/110 44/44/44 96/96/96
f 110/110/110 96/96/96 98/98/98
f 110/110/110 98/98/98 88/88/88
f 110/110/110 88/88/88 74/74/74
f 110/110/110 74/74/74 111/111/111
f 112/112/112 105/105/105 9/9/9
f 112/112/112 9/9/9 8/8/8
f 112/112/112 8/8/8 7/7/7
f 112/112/112 7/7/7 100/100/100
f 112/112/112 100/100/100 102/102/102
f 112/112/112 102/102/102 49/49/49
f 112/112/112 49/49/49 48/48/48
f 112/112/112 48/48/48 105/105/105
f 113/113/113 101/101/101 5/5/5
f 113/113/113 5/5/5 33/33/33
f 113/113/113 33/33/33 29/29/29
f 113/113/113 29/29/29 114/114/114
f 113/113/113 114/114/114 72/72/72
f 113/113/113 72/72/72 78/78/78
f 113/113/113 78/78/78 52/52/52
f 113/113/113 52/52/52 101/101/101
f 115/115/115 116/116/116 24/24/24
f 115/115/115 24/24/24 35/35/35
f 115/115/115 35/35/35 12/12/12
f 115/115/115 12/12/12 108/108/108
f 115/115/115 108/108/108 60/60/60
f 115/115/115 60/60/60 80/80/80
f 115/115/115 80/80/80 63/63/63
f 115/115/115 63/63/63 116/116/116
f 117/117/117 93/93/93 18/18/18
f 117/117/117 18/18/18 17/17/17
f 117/117/117 17/17/17 24/24/24
f 117/117/117 24/24/24 116/116/116
f 117/117/117 116/116/116 63/63/63
f 117/117/117 63/63/63 62/62/62
f 117/117/117 62/62/62 69/69/69
f 117/117/117 69/69/69 93/93/93
f 118/118/118 114/114/114 29/29/29
f 118/118/118 29/29/29 28/28/28
f 118/118/118 28/28/28 27/27/27
f 118/118/118 27/27/27 111/111/111
f 118/118/118 111/111/111 74/74/74
f 118/118/118 74/74/74 73/73/73
f 118/118/118 73/73/73 72/72/72
f 118/118/118 72/72/72 114/114/114
