v -2.42623 0.745496 -1.160275
v -2.427804 0.745462 -1.161325
v -2.428451 0.743993 -1.159383
v -2.42658 0.744151 -1.158432
v -2.425237 0.744349 -1.157527
v -2.425155 0.74551 -1.159158
v -2.425382 0.746067 -1.160398
v -2.426027 0.746367 -1.161658
v -2.427313 0.746467 -1.162796
v -2.429692 0.745445 -1.161466
v -2.431227 0.74542 -1.161247
v -2.432134 0.744246 -1.159901
v -2.430515 0.744093 -1.159787
v -2.429024 0.746323 -1.162689
v -2.430299 0.745994 -1.162091
v -2.432192 0.738441 -1.154542
v -2.433698 0.738532 -1.154881
v -2.43378 0.736337 -1.153281
v -2.432443 0.736251 -1.152992
v -2.430698 0.736197 -1.152519
v -2.430222 0.738384 -1.153998
v -2.429698 0.740449 -1.15561
v -2.431762 0.740521 -1.156167
v -2.433346 0.740636 -1.1565
v -2.428336 0.738498 -1.153216
v -2.429034 0.736302 -1.151819
v -2.427805 0.736426 -1.151225
v -2.426943 0.738632 -1.152556
v -2.42628 0.74074 -1.154068
v -2.42773 0.740581 -1.154779
v -2.427112 0.742489 -1.156559
v -2.429095 0.74232 -1.157441
v -2.425662 0.742702 -1.155778
v -2.431204 0.742428 -1.157967
v -2.432833 0.742596 -1.158246
v -2.43247 0.734017 -1.151413
v -2.433481 0.734105 -1.151594
v -2.433049 0.732815 -1.150642
v -2.432401 0.73231 -1.150238
v -2.43149 0.732246 -1.150049
v -2.431158 0.733958 -1.151087
v -2.429925 0.734055 -1.150537
v -2.430658 0.732336 -1.149638
v -2.429912 0.732862 -1.149562
v -2.42902 0.734171 -1.150058
v -2.426163 0.745342 -1.160379
v -2.427763 0.745305 -1.161439
v -2.427283 0.746349 -1.16288
v -2.425977 0.74625 -1.161733
v -2.425339 0.745981 -1.160452
v -2.425092 0.745396 -1.15923
v -2.425176 0.744238 -1.157606
v -2.426514 0.744001 -1.158544
v -2.428408 0.743841 -1.159503
v -2.429677 0.74529 -1.161588
v -2.431229 0.745306 -1.161342
v -2.430298 0.745908 -1.162159
v -2.429015 0.746205 -1.162778
v -2.430495 0.743942 -1.159914
v -2.432131 0.744135 -1.16
v -2.432157 0.738316 -1.154693
v -2.433681 0.738438 -1.154996
v -2.433331 0.740536 -1.15661
v -2.431731 0.740388 -1.156311
v -2.429648 0.740315 -1.155748
v -2.43017 0.738259 -1.154144
v -2.430645 0.736078 -1.152669
v -2.432407 0.736132 -1.153147
v -2.433761 0.736248 -1.1534
v -2.428268 0.738373 -1.153355
v -2.427663 0.740448 -1.15491
v -2.426221 0.740642 -1.154163
v -2.426884 0.738539 -1.152657
v -2.427745 0.736337 -1.151329
v -2.428964 0.736183 -1.151962
v -2.427046 0.742347 -1.15668
v -2.429048 0.742177 -1.15757
v -2.425602 0.742597 -1.155865
v -2.431178 0.742286 -1.158103
v -2.432824 0.74249 -1.15835
v -2.432434 0.733901 -1.15157
v -2.433464 0.734018 -1.151714
v -2.431104 0.733842 -1.151239
v -2.431449 0.732159 -1.150164
v -2.432375 0.732223 -1.150356
v -2.433034 0.732751 -1.15073
v -2.429854 0.733939 -1.150682
v -2.428957 0.734085 -1.150163
v -2.429868 0.732798 -1.149641
v -2.430603 0.732249 -1.149746
v -2.433813 0.734096 -1.151708
v -2.43314 0.732373 -1.150367
v -2.434219 0.736326 -1.153431
v -2.433034 0.732751 -1.15073
v -2.430877 0.731725 -1.149386
v -2.429997 0.732419 -1.149286
v -2.431582 0.731636 -1.149754
v -2.429868 0.732798 -1.149641
v -2.424766 0.745465 -1.158816
v -2.425161 0.746164 -1.160392
v -2.42476 0.744366 -1.157259
v -2.425339 0.745981 -1.160452
v -2.428798 0.746562 -1.163136
v -2.43048 0.746086 -1.162223
v -2.427136 0.746749 -1.163323
v -2.430298 0.745908 -1.162159
v -2.431742 0.745361 -1.161217
v -2.432676 0.744248 -1.159984
v -2.432367 0.731703 -1.149899
v -2.428688 0.734171 -1.149944
v -2.427367 0.736428 -1.151072
v -2.425937 0.746605 -1.162151
v -2.42515 0.742727 -1.155555
v -2.425769 0.74075 -1.153873
v -2.433374 0.742605 -1.158386
v -2.43387 0.74063 -1.156661
v -2.434195 0.738521 -1.155046
v -2.426451 0.738635 -1.15238
vn -0.4012 0.7883 0.4665
vn -0.1958 0.8228 0.5335
vn -0.211 0.7873 0.5792
vn -0.3955 0.7558 0.5218
vn -0.393 0.7412 0.5441
vn -0.3942 0.7896 0.4703
vn -0.3923 0.8203 0.4161
vn -0.3406 0.846 0.41
vn -0.1706 0.8723 0.4582
vn 0.0081 0.7943 0.6074
vn 0.0003 0.7954 0.6061
vn -0.0447 0.7464 0.664
vn -0.0295 0.7613 0.6478
vn -0.0063 0.8509 0.5252
vn 0.0313 0.8265 0.562
vn -0.1623 0.6051 0.7794
vn -0.1997 0.5999 0.7747
vn -0.2084 0.5738 0.792
vn -0.1606 0.578 0.8001
vn -0.2745 0.5721 0.7729
vn -0.2667 0.6065 0.749
vn -0.2498 0.6723 0.6969
vn -0.1343 0.6631 0.7364
vn -0.1643 0.6516 0.7405
vn -0.3678 0.6021 0.7086
vn -0.3811 0.5747 0.7242
vn -0.3384 0.5719 0.7472
vn -0.3354 0.5979 0.728
vn -0.3435 0.6489 0.6788
vn -0.3648 0.6597 0.657
vn -0.3752 0.7174 0.5869
vn -0.2289 0.7391 0.6334
vn -0.366 0.7011 0.612
vn -0.0845 0.7217 0.687
vn -0.1068 0.7049 0.7012
vn -0.1381 0.5647 0.8136
vn -0.19 0.5573 0.8083
vn -0.1619 0.5417 0.8248
vn -0.1262 0.5155 0.8475
vn -0.2871 0.5076 0.8124
vn -0.2779 0.5555 0.7837
vn -0.4068 0.5608 0.7211
vn -0.4357 0.5109 0.741
vn -0.3942 0.5382 0.7449
vn -0.3623 0.5546 0.749
vn 0.4316 -0.7686 -0.4721
vn 0.2 -0.8133 -0.5463
vn 0.216 -0.7746 -0.5943
vn 0.5193 -0.7056 -0.4821
vn 0.6193 -0.6499 -0.4405
vn 0.5983 -0.6652 -0.4467
vn 0.5423 -0.6864 -0.4845
vn 0.4094 -0.7522 -0.5163
vn 0.211 -0.7874 -0.5791
vn -0.0292 -0.7754 -0.6307
vn -0.1788 -0.6766 -0.7143
vn -0.1996 -0.6619 -0.7225
vn -0.0937 -0.7147 -0.6931
vn 0.015 -0.758 -0.652
vn -0.1108 -0.6961 -0.7093
vn 0.1463 -0.6052 -0.7825
vn 0.0343 -0.6021 -0.7976
vn 0.0125 -0.6415 -0.767
vn 0.1196 -0.6623 -0.7396
vn 0.2498 -0.6721 -0.697
vn 0.2668 -0.6063 -0.7491
vn 0.2745 -0.5719 -0.773
vn 0.1416 -0.5796 -0.8024
vn 0.0101 -0.597 -0.8022
vn 0.3823 -0.6017 -0.7013
vn 0.3784 -0.6585 -0.6505
vn 0.4791 -0.6346 -0.6063
vn 0.4798 -0.5955 -0.6442
vn 0.5014 -0.5897 -0.633
vn 0.3975 -0.5759 -0.7144
vn 0.3884 -0.7154 -0.5808
vn 0.2289 -0.7391 -0.6334
vn 0.5003 -0.6737 -0.5439
vn 0.0703 -0.7201 -0.6903
vn -0.0416 -0.6816 -0.7305
vn 0.1095 -0.5791 -0.8078
vn -0.0505 -0.6157 -0.7863
vn 0.2759 -0.5656 -0.7772
vn 0.2662 -0.6089 -0.7472
vn 0.0244 -0.6277 -0.778
vn -0.0875 -0.6303 -0.7714
vn 0.4262 -0.5744 -0.6988
vn 0.5398 -0.6069 -0.5833
vn 0.5601 -0.6206 -0.5488
vn 0.4762 -0.621 -0.6226
vn -0.9777 -0.1998 0.0639
vn -0.8196 -0.4582 0.3438
vn -0.9926 -0.1058 -0.0602
vn -0.0875 -0.6303 -0.7714
vn 0.0443 -0.7736 0.632
vn 0.4465 -0.4396 0.7794
vn -0.1393 -0.885 0.4442
vn 0.5601 -0.6206 -0.5488
vn 0.8544 0.4642 0.2335
vn 0.7932 0.6069 -0.0498
vn 0.8686 0.3149 0.3824
vn 0.6193 -0.6499 -0.4405
vn -0.2563 0.5564 -0.7904
vn -0.6099 0.5864 -0.5329
vn 0.273 0.5098 -0.8158
vn -0.1996 -0.6619 -0.7225
vn -0.829 0.4394 -0.346
vn -0.9279 0.2885 -0.2362
vn -0.4027 -0.7804 0.4783
vn 0.7364 -0.1745 0.6536
vn 0.8217 -0.079 0.5644
vn 0.6736 0.5701 -0.4704
vn 0.8695 0.1874 0.4569
vn 0.8688 0.1048 0.4839
vn -0.9712 0.1601 -0.1765
vn -0.985 0.0775 -0.1542
vn -0.9913 -0.0051 -0.1314
vn 0.8616 0.0217 0.5071
vt 0.839504 0.118056
vt 0.856743 0.205307
vt 0.741230 0.205307
vt 0.734555 0.106726
vt 0.724541 0.032791
vt 0.813647 0.052618
vt 0.868992 0.081539
vt 0.913398 0.129584
vt 0.940923 0.205307
vt 0.839504 0.292557
vt 0.813647 0.357995
vt 0.724541 0.377822
vt 0.734555 0.303887
vt 0.913398 0.281029
vt 0.868992 0.329074
vt 0.369475 0.299954
vt 0.368286 0.370940
vt 0.245840 0.351447
vt 0.246397 0.288815
vt 0.246768 0.205307
vt 0.370268 0.205307
vt 0.494283 0.205307
vt 0.492822 0.304944
vt 0.490632 0.379672
vt 0.369475 0.110659
vt 0.246397 0.121798
vt 0.245841 0.059166
vt 0.368286 0.039673
vt 0.490632 0.030941
vt 0.492822 0.105669
vt 0.616755 0.103478
vt 0.619174 0.205307
vt 0.613127 0.027106
vt 0.616755 0.307135
vt 0.613126 0.383507
vt 0.123273 0.268175
vt 0.123047 0.315326
vt 0.054743 0.283353
vt 0.030912 0.249131
vt 0.030973 0.205306
vt 0.123423 0.205306
vt 0.123273 0.142438
vt 0.030912 0.161481
vt 0.054744 0.127260
vt 0.123047 0.095287
vt 0.839504 0.118056
vt 0.856743 0.205307
vt 0.968983 0.205307
vt 0.938030 0.133427
vt 0.876123 0.061548
vt 0.805028 0.030806
vt 0.721203 0.008146
vt 0.734555 0.106726
vt 0.741230 0.205307
vt 0.839504 0.292557
vt 0.805028 0.379807
vt 0.876123 0.349065
vt 0.938030 0.277186
vt 0.734555 0.303887
vt 0.721203 0.402467
vt 0.369475 0.299954
vt 0.367890 0.394602
vt 0.489902 0.404581
vt 0.492822 0.304944
vt 0.494283 0.205307
vt 0.370268 0.205307
vt 0.246768 0.205307
vt 0.246397 0.288815
vt 0.245655 0.372324
vt 0.369475 0.110659
vt 0.492822 0.105669
vt 0.489902 0.006032
vt 0.367890 0.016011
vt 0.245655 0.038289
vt 0.246397 0.121798
vt 0.616755 0.103478
vt 0.619174 0.205307
vt 0.611917 0.001649
vt 0.616755 0.307135
vt 0.611917 0.408964
vt 0.123273 0.268175
vt 0.122972 0.331043
vt 0.123423 0.205306
vt 0.000156 0.205306
vt 0.000125 0.242784
vt 0.000064 0.280261
vt 0.123273 0.142438
vt 0.122972 0.079570
vt 0.000064 0.130352
vt 0.000125 0.167829
vt 0.122972 0.331043
vt 0.030806 0.283587
vt 0.245655 0.372324
vt 0.030806 0.283587
vt 0.000125 0.167829
vt 0.030806 0.127026
vt 0.000156 0.205306
vt 0.030806 0.127026
vt 0.805028 0.030806
vt 0.873826 0.071832
vt 0.721203 0.008146
vt 0.873826 0.071832
vt 0.938030 0.277186
vt 0.873826 0.338781
vt 0.968983 0.205307
vt 0.873826 0.338781
vt 0.805028 0.379807
vt 0.721203 0.402467
vt 0.000125 0.242784
vt 0.122972 0.079570
vt 0.245655 0.038289
vt 0.938030 0.133427
vt 0.611917 0.001649
vt 0.489902 0.006032
vt 0.611917 0.408964
vt 0.489902 0.404581
vt 0.367890 0.394602
vt 0.367890 0.016011
f 1/1/1 2/2/2 3/3/3
f 1/1/1 3/3/3 4/4/4
f 1/1/1 4/4/4 5/5/5
f 1/1/1 5/5/5 6/6/6
f 1/1/1 6/6/6 7/7/7
f 1/1/1 7/7/7 8/8/8
f 1/1/1 8/8/8 9/9/9
f 1/1/1 9/9/9 2/2/2
f 10/10/10 11/11/11 12/12/12
f 10/10/10 12/12/12 13/13/13
f 10/10/10 13/13/13 3/3/3
f 10/10/10 3/3/3 2/2/2
f 10/10/10 2/2/2 9/9/9
f 10/10/10 9/9/9 14/14/14
f 10/10/10 14/14/14 15/15/15
f 10/10/10 15/15/15 11/11/11
f 16/16/16 17/17/17 18/18/18
f 16/16/16 18/18/18 19/19/19
f 16/16/16 19/19/19 20/20/20
f 16/16/16 20/20/20 21/21/21
f 16/16/16 21/21/21 22/22/22
f 16/16/16 22/22/22 23/23/23
f 16/16/16 23/23/23 24/24/24
f 16/16/16 24/24/24 17/17/17
f 25/25/25 21/21/21 20/20/20
f 25/25/25 20/20/20 26/26/26
f 25/25/25 26/26/26 27/27/27
f 25/25/25 27/27/27 28/28/28
f 25/25/25 28/28/28 29/29/29
f 25/25/25 29/29/29 30/30/30
f 25/25/25 30/30/30 22/22/22
f 25/25/25 22/22/22 21/21/21
f 31/31/31 32/32/32 22/22/22
f 31/31/31 22/22/22 30/30/30
f 31/31/31 30/30/30 29/29/29
f 31/31/31 29/29/29 33/33/33
f 31/31/31 33/33/33 5/5/5
f 31/31/31 5/5/5 4/4/4
f 31/31/31 4/4/4 3/3/3
f 31/31/31 3/3/3 32/32/32
f 34/34/34 35/35/35 24/24/24
f 34/34/34 24/24/24 23/23/23
f 34/34/34 23/23/23 22/22/22
f 34/34/34 22/22/22 32/32/32
f 34/34/34 32/32/32 3/3/3
f 34/34/34 3/3/3 13/13/13
f 34/34/34 13/13/13 12/12/12
f 34/34/34 12/12/12 35/35/35
f 36/36/36 37/37/37 38/38/38
f 36/36/36 38/38/38 39/39/39
f 36/36/36 39/39/39 40/40/40
f 36/36/36 40/40/40 41/41/41
f 36/36/36 41/41/41 20/20/20
f 36/36/36 20/20/20 19/19/19
f 36/36/36 19/19/19 18/18/18
f 36/36/36 18/18/18 37/37/37
f 42/42/42 41/41/41 40/40/40
f 42/42/42 40/40/40 43/43/43
f 42/42/42 43/43/43 44/44/44
f 42/42/42 44/44/44 45/45/45
f 42/42/42 45/45/45 27/27/27
f 42/42/42 27/27/27 26/26/26
f 42/42/42 26/26/26 20/20/20
f 42/42/42 20/20/20 41/41/41
f 46/46/46 47/47/47 48/48/48
f 46/46/46 48/48/48 49/49/49
f 46/46/46 49/49/49 50/50/50
f 46/46/46 50/50/50 51/51/51
f 46/46/46 51/51/51 52/52/52
f 46/46/46 52/52/52 53/53/53
f 46/46/46 53/53/53 54/54/54
f 46/46/46 54/54/54 47/47/47
f 55/55/55 56/56/56 57/57/57
f 55/55/55 57/57/57 58/58/58
f 55/55/55 58/58/58 48/48/48
f 55/55/55 48/48/48 47/47/47
f 55/55/55 47/47/47 54/54/54
f 55/55/55 54/54/54 59/59/59
f 55/55/55 59/59/59 60/60/60
f 55/55/55 60/60/60 56/56/56
f 61/61/61 62/62/62 63/63/63
f 61/61/61 63/63/63 64/64/64
f 61/61/61 64/64/64 65/65/65
f 61/61/61 65/65/65 66/66/66
f 61/61/61 66/66/66 67/67/67
f 61/61/61 67/67/67 68/68/68
f 61/61/61 68/68/68 69/69/69
f 61/61/61 69/69/69 62/62/62
f 70/70/70 66/66/66 65/65/65
f 70/70/70 65/65/65 71/71/71
f 70/70/70 71/71/71 72/72/72
f 70/70/70 72/72/72 73/73/73
f 70/70/70 73/73/73 74/74/74
f 70/70/70 74/74/74 75/75/75
f 70/70/70 75/75/75 67/67/67
f 70/70/70 67/67/67 66/66/66
f 76/76/76 77/77/77 54/54/54
f 76/76/76 54/54/54 53/53/53
f 76/76/76 53/53/53 52/52/52
f 76/76/76 52/52/52 78/78/78
f 76/76/76 78/78/78 72/72/72
f 76/76/76 72/72/72 71/71/71
f 76/76/76 71/71/71 65/65/65
f 76/76/76 65/65/65 77/77/77
f 79/79/79 80/80/80 60/60/60
f 79/79/79 60/60/60 59/59/59
f 79/79/79 59/59/59 54/54/54
f 79/79/79 54/54/54 77/77/77
f 79/79/79 77/77/77 65/65/65
f 79/79/79 65/65/65 64/64/64
f 79/79/79 64/64/64 63/63/63
f 79/79/79 63/63/63 80/80/80
f 81/81/81 82/82/82 69/69/69
f 81/81/81 69/69/69 68/68/68
f 81/81/81 68/68/68 67/67/67
f 81/81/81 67/67/67 83/83/83
f 81/81/81 83/83/83 84/84/84
f 81/81/81 84/84/84 85/85/85
f 81/81/81 85/85/85 86/86/86
f 81/81/81 86/86/86 82/82/82
f 87/87/87 83/83/83 67/67/67
f 87/87/87 67/67/67 75/75/75
f 87/87/87 75/75/75 74/74/74
f 87/87/87 74/74/74 88/88/88
f 87/87/87 88/88/88 89/89/89
f 87/87/87 89/89/89 90/90/90
f 87/87/87 90/90/90 84/84/84
f 87/87/87 84/84/84 83/83/83
f 91/91/91 92/92/92 38/38/38
f 91/91/91 38/38/38 37/37/37
f 91/91/91 37/37/37 18/18/18
f 91/91/91 18/18/18 93/93/93
f 91/91/91 93/93/93 69/69/69
f 91/91/91 69/69/69 82/82/82
f 91/91/91 82/82/82 94/94/94
f 91/91/91 94/94/94 92/92/92
f 95/95/95 96/96/96 44/44/44
f 95/95/95 44/44/44 43/43/43
f 95/95/95 43/43/43 40/40/40
f 95/95/95 40/40/40 97/97/97
f 95/95/95 97/97/97 84/84/84
f 95/95/95 84/84/84 90/90/90
f 95/95/95 90/90/90 98/98/98
f 95/95/95 98/98/98 96/96/96
f 99/99/99 100/100/100 7/7/7
f 99/99/99 7/7/7 6/6/6
f 99/99/99 6/6/6 5/5/5
f 99/99/99 5/5/5 101/101/101
f 99/99/99 101/101/101 52/52/52
f 99/99/99 52/52/52 51/51/51
f 99/99/99 51/51/51 102/102/102
f 99/99/99 102/102/102 100/100/100
f 103/103/103 104/104/104 15/15/15
f 103/103/103 15/15/15 14/14/14
f 103/103/103 14/14/14 9/9/9
f 103/103/103 9/9/9 105/105/105
f 103/103/103 105/105/105 48/48/48
f 103/103/103 48/48/48 58/58/58
f 103/103/103 58/58/58 106/106/106
f 103/103/103 106/106/106 104/104/104
f 107/107/107 108/108/108 12/12/12
f 107/107/107 12/12/12 11/11/11
f 107/107/107 11/11/11 15/15/15
f 107/107/107 15/15/15 104/104/104
f 107/107/107 104/104/104 106/106/106
f 107/107/107 106/106/106 56/56/56
f 107/107/107 56/56/56 60/60/60
f 107/107/107 60/60/60 108/108/108
f 109/109/109 97/97/97 40/40/40
f 109/109/109 40/40/40 39/39/39
f 109/109/109 39/39/39 38/38/38
f 109/109/109 38/38/38 92/92/92
f 109/109/109 92/92/92 94/94/94
f 109/109/109 94/94/94 85/85/85
f 109/109/109 85/85/85 84/84/84
f 109/109/109 84/84/84 97/97/97
f 110/110/110 111/111/111 27/27/27
f 110/110/110 27/27/27 45/45/45
f 110/110/110 45/45/45 44/44/44
f 110/110/110 44/44/44 96/96/96
f 110/110/110 96/96/96 98/98/98
f 110/110/110 98/98/98 88/88/88
f 110/110/110 88/88/88 74/74/74
f 110/110/110 74/74/74 111/111/111
f 112/112/112 105/105/105 9/9/9
f 112/112/112 9/9/9 8/8/8
f 112/112/112 8/8/8 7/7/7
f 112/112/112 7/7/7 100/100/100
f 112/112/112 100/100/100 102/102/102
f 112/112/112 102/102/102 49/49/49
f 112/112/112 49/49/49 48/48/48
f 112/112/112 48/48/48 105/105/105
f 113/113/113 101/101/101 5/5/5
f 113/113/113 5/5/5 33/33/33
f 113/113/113 33/33/33 29/29/29
f 113/113/113 29/29/29 114/114/114
f 113/113/113 114/114/114 72/72/72
f 113/113/113 72/72/72 78/78/78
f 113/113/113 78/78/78 52/52/52
f 113/113/113 52/52/52 101/101/101
f 115/115/115 116/116/116 24/24/24
f 115/115/115 24/24/24 35/35/35
f 115/115/115 35/35/35 12/12/12
f 115/115/115 12/12/12 108/108/108
f 115/115/115 108/108/108 60/60/60
f 115/115/115 60/60/60 80/80/80
f 115/115/115 80/80/80 63/63/63
f 115/115/115 63/63/63 116/116/116
f 117/117/117 93/93/93 18/18/18
f 117/117/117 18/18/18 17/17/17
f 117/117/117 17/17/17 24/24/24
f 117/117/117 24/24/24 116/116/116
f 117/117/117 116/116/116 63/63/63
f 117/117/117 63/63/63 62/62/62
f 117/117/117 62/62/62 69/69/69
f 117/117/117 69/69/69 93/93/93
f 118/118/118 114/114/114 29/29/29
f 118/118/118 29/29/29 28/28/28
f 118/118/118 28/28/28 27/27/27
f 118/118/118 27/27/27 111/111/111
f 118/118/118 111/111/111 74/74/74
f 118/118/118 74/74/74 73/73/73
f 118/118/118 73/73/73 72/72/72
f 118/118/118 72/72/72 114/114/114
