v -2.387459 0.733538 -1.055137
v -2.387408 0.733173 -1.053173
v -2.385461 0.731597 -1.054067
v -2.385768 0.732143 -1.056199
v -2.38579 0.732629 -1.057851
v -2.38715 0.733792 -1.056724
v -2.388035 0.734283 -1.055678
v -2.388702 0.73443 -1.054313
v -2.388893 0.734255 -1.052515
v -2.386384 0.732801 -1.051498
v -2.385266 0.732499 -1.050342
v -2.383649 0.73116 -1.050602
v -2.384547 0.731305 -1.052064
v -2.387772 0.733791 -1.051163
v -2.386509 0.733236 -1.05051
v -2.379462 0.725314 -1.054826
v -2.378831 0.725117 -1.053333
v -2.377578 0.722881 -1.054619
v -2.378148 0.72305 -1.055938
v -2.378806 0.723333 -1.057708
v -2.380195 0.72564 -1.05683
v -2.381738 0.727823 -1.055932
v -2.380956 0.727495 -1.053838
v -2.380272 0.727309 -1.052279
v -2.380659 0.726135 -1.058879
v -2.379206 0.723776 -1.059521
v -2.379432 0.724154 -1.060899
v -2.380928 0.726556 -1.060433
v -2.382465 0.728814 -1.059706
v -2.382208 0.728354 -1.058077
v -2.383964 0.730386 -1.057181
v -2.383532 0.729811 -1.054999
v -2.384157 0.730904 -1.058845
v -2.382694 0.729514 -1.05288
v -2.381931 0.729377 -1.051308
v -2.37695 0.720782 -1.057264
v -2.376484 0.720679 -1.056286
v -2.376029 0.719454 -1.057454
v -2.376115 0.719064 -1.058334
v -2.376512 0.719173 -1.059228
v -2.377471 0.720975 -1.05858
v -2.377739 0.721324 -1.059939
v -2.376656 0.719436 -1.060166
v -2.377003 0.720122 -1.060751
v -2.377869 0.721629 -1.060975
v -2.387601 0.733387 -1.055156
v -2.387544 0.733014 -1.053165
v -2.388992 0.734134 -1.05251
v -2.388807 0.734315 -1.05433
v -2.388115 0.7342 -1.055696
v -2.38726 0.733683 -1.056752
v -2.385903 0.732523 -1.057873
v -2.385916 0.731996 -1.056213
v -2.385602 0.731444 -1.054057
v -2.38651 0.732638 -1.051463
v -2.385355 0.732376 -1.050302
v -2.386575 0.733144 -1.050485
v -2.387864 0.733667 -1.051137
v -2.38468 0.731148 -1.052029
v -2.383744 0.731041 -1.050563
v -2.379623 0.725185 -1.054785
v -2.378948 0.72502 -1.053294
v -2.380383 0.727205 -1.052241
v -2.38111 0.727358 -1.0538
v -2.381897 0.727688 -1.055912
v -2.380362 0.725514 -1.056806
v -2.378977 0.723214 -1.057681
v -2.378313 0.722928 -1.055894
v -2.377698 0.722788 -1.054578
v -2.38083 0.726014 -1.058872
v -2.382372 0.728224 -1.058075
v -2.382591 0.728719 -1.059714
v -2.381058 0.726467 -1.060438
v -2.379566 0.72407 -1.060902
v -2.379382 0.723661 -1.059513
v -2.38412 0.730246 -1.057187
v -2.383682 0.729666 -1.054984
v -2.384276 0.730803 -1.05886
v -2.382837 0.729366 -1.052844
v -2.382035 0.729265 -1.05127
v -2.377116 0.720662 -1.057218
v -2.376605 0.720588 -1.056242
v -2.377643 0.720859 -1.058553
v -2.376641 0.719086 -1.059208
v -2.376239 0.718975 -1.058298
v -2.37612 0.719387 -1.057424
v -2.377917 0.721211 -1.05993
v -2.378004 0.721548 -1.060979
v -2.377102 0.720061 -1.060751
v -2.376789 0.719352 -1.060161
v -2.376381 0.720604 -1.055938
v -2.375772 0.718988 -1.057621
v -2.377441 0.722783 -1.054159
v -2.37612 0.719387 -1.057424
v -2.376354 0.718769 -1.06024
v -2.376748 0.719657 -1.060924
v -2.376249 0.718534 -1.059435
v -2.377102 0.720061 -1.060751
v -2.387097 0.733829 -1.057268
v -2.388156 0.734426 -1.055852
v -2.385848 0.732745 -1.058414
v -2.388115 0.7342 -1.055696
v -2.388275 0.734066 -1.05104
v -2.386505 0.733292 -1.050261
v -2.389431 0.734561 -1.052294
v -2.386575 0.733144 -1.050485
v -2.384931 0.732343 -1.049936
v -2.383391 0.731059 -1.050094
v -2.375892 0.718452 -1.058674
v -2.377972 0.721695 -1.061324
v -2.379568 0.724243 -1.061361
v -2.389163 0.734675 -1.054046
v -2.384275 0.731033 -1.059409
v -2.382607 0.728926 -1.060255
v -2.381722 0.729281 -1.050765
v -2.380093 0.7272 -1.051741
v -2.378672 0.725008 -1.052816
v -2.381075 0.726658 -1.060955
vn 0.6693 0.7212 0.1784
vn 0.6082 0.7935 -0.0188
vn 0.6517 0.7575 -0.0389
vn 0.7087 0.6921 0.1366
vn 0.7244 0.6789 0.1193
vn 0.6687 0.7237 0.1708
vn 0.6256 0.7525 0.2057
vn 0.5928 0.7867 0.1721
vn 0.5361 0.844 0.0128
vn 0.549 0.8038 -0.2292
vn 0.5525 0.8034 -0.222
vn 0.6219 0.7493 -0.2275
vn 0.601 0.766 -0.2279
vn 0.4945 0.8542 -0.1607
vn 0.501 0.838 -0.2162
vn 0.7731 0.5936 -0.2234
vn 0.7904 0.5818 -0.1917
vn 0.8075 0.5552 -0.199
vn 0.787 0.5679 -0.2411
vn 0.8299 0.5412 -0.1354
vn 0.8085 0.5756 -0.1221
vn 0.7612 0.6415 -0.0948
vn 0.7262 0.6541 -0.2114
vn 0.746 0.6377 -0.1918
vn 0.8335 0.5522 -0.0188
vn 0.8518 0.5234 -0.0216
vn 0.8458 0.5289 -0.0695
vn 0.8303 0.5544 -0.0566
vn 0.7988 0.6015 -0.0132
vn 0.794 0.6076 0.0182
vn 0.7472 0.6602 0.0764
vn 0.7025 0.7088 -0.0638
vn 0.7611 0.6465 0.0519
vn 0.6617 0.7188 -0.213
vn 0.6849 0.6988 -0.2062
vn 0.784 0.5593 -0.2691
vn 0.809 0.5426 -0.2258
vn 0.8052 0.5328 -0.2604
vn 0.801 0.5142 -0.3064
vn 0.8645 0.4769 -0.1587
vn 0.8394 0.5246 -0.1416
vn 0.863 0.5051 -0.0015
vn 0.8922 0.4516 0.0021
vn 0.8734 0.486 -0.0287
vn 0.8597 0.5079 -0.054
vn -0.69 -0.6967 -0.1963
vn -0.6204 -0.7839 0.0244
vn -0.6659 -0.7447 0.0457
vn -0.7438 -0.6197 -0.2502
vn -0.7635 -0.5458 -0.3451
vn -0.7576 -0.5648 -0.3272
vn -0.7577 -0.5968 -0.2641
vn -0.7119 -0.6859 -0.1503
vn -0.6516 -0.7576 0.0389
vn -0.5544 -0.7897 0.2626
vn -0.529 -0.7216 0.4465
vn -0.5226 -0.7111 0.4704
vn -0.5636 -0.7434 0.3601
vn -0.596 -0.7655 0.2424
vn -0.5655 -0.7287 0.3862
vn -0.7664 -0.5966 0.238
vn -0.714 -0.6138 0.3367
vn -0.6794 -0.6554 0.33
vn -0.7203 -0.656 0.2252
vn -0.7613 -0.6414 0.0948
vn -0.8086 -0.5755 0.1222
vn -0.83 -0.5411 0.1355
vn -0.7781 -0.573 0.2574
vn -0.7035 -0.613 0.3595
vn -0.8358 -0.549 0.003
vn -0.7964 -0.6038 -0.0325
vn -0.8167 -0.5611 -0.1346
vn -0.8451 -0.5239 -0.1069
vn -0.8479 -0.5139 -0.1298
vn -0.8533 -0.5213 0.0026
vn -0.7497 -0.6556 -0.0901
vn -0.7025 -0.7088 0.0638
vn -0.7809 -0.5936 -0.1941
vn -0.6561 -0.7198 0.2265
vn -0.6215 -0.703 0.3456
vn -0.7639 -0.5782 0.2863
vn -0.6572 -0.6415 0.3956
vn -0.8337 -0.5347 0.1379
vn -0.8069 -0.5781 0.1212
vn -0.6944 -0.6399 0.3291
vn -0.6249 -0.6618 0.4141
vn -0.857 -0.5144 -0.029
vn -0.8307 -0.5225 -0.1921
vn -0.8153 -0.5311 -0.2306
vn -0.8271 -0.5488 -0.1206
vn 0.5996 -0.3657 0.7118
vn 0.7176 -0.5832 0.3806
vn 0.5141 -0.2799 0.8108
vn -0.6249 -0.6618 0.4141
vn 0.4321 -0.7322 -0.5264
vn 0.3457 -0.328 -0.8791
vn 0.3765 -0.88 -0.2895
vn -0.8153 -0.5311 -0.2306
vn -0.2669 0.6146 -0.7423
vn -0.4518 0.7346 -0.5062
vn -0.1653 0.4756 -0.864
vn -0.7635 -0.5458 -0.3451
vn -0.4552 0.4753 0.7529
vn -0.0391 0.4515 0.8914
vn -0.7836 0.5216 0.3374
vn -0.5226 -0.7111 0.4704
vn 0.2282 0.2747 0.934
vn 0.3632 0.1129 0.9248
vn 0.5634 -0.8221 -0.0822
vn 0.0956 -0.0197 -0.9952
vn -0.0193 0.0861 -0.9961
vn -0.7284 0.663 -0.1728
vn -0.1139 0.3522 -0.9289
vn -0.0975 0.2714 -0.9575
vn 0.427 -0.0188 0.904
vn 0.4475 -0.1025 0.8884
vn 0.4636 -0.1841 0.8667
vn -0.0815 0.1901 -0.9784
vt 0.839504 0.118056
vt 0.856743 0.205307
vt 0.741230 0.205307
vt 0.734555 0.106726
vt 0.724541 0.032791
vt 0.813647 0.052618
vt 0.868992 0.081539
vt 0.913398 0.129584
vt 0.940923 0.205307
vt 0.839504 0.292557
vt 0.813647 0.357995
vt 0.724541 0.377822
vt 0.734555 0.303887
vt 0.913398 0.281029
vt 0.868992 0.329074
vt 0.369475 0.299954
vt 0.368286 0.370940
vt 0.245840 0.351447
vt 0.246397 0.288815
vt 0.246768 0.205307
vt 0.370268 0.205307
vt 0.494283 0.205307
vt 0.492822 0.304944
vt 0.490632 0.379672
vt 0.369475 0.110659
vt 0.246397 0.121798
vt 0.245841 0.059166
vt 0.368286 0.039673
vt 0.490632 0.030941
vt 0.492822 0.105669
vt 0.616755 0.103478
vt 0.619174 0.205307
vt 0.613127 0.027106
vt 0.616755 0.307135
vt 0.613126 0.383507
vt 0.123273 0.268175
vt 0.123047 0.315326
vt 0.054743 0.283353
vt 0.030912 0.249131
vt 0.030973 0.205306
vt 0.123423 0.205306
vt 0.123273 0.142438
vt 0.030912 0.161481
vt 0.054744 0.127260
vt 0.123047 0.095287
vt 0.839504 0.118056
vt 0.856743 0.205307
vt 0.968983 0.205307
vt 0.938030 0.133427
vt 0.876123 0.061548
vt 0.805028 0.030806
vt 0.721203 0.008146
vt 0.734555 0.106726
vt 0.741230 0.205307
vt 0.839504 0.292557
vt 0.805028 0.379807
vt 0.876123 0.349065
vt 0.938030 0.277186
vt 0.734555 0.303887
vt 0.721203 0.402467
vt 0.369475 0.299954
vt 0.367890 0.394602
vt 0.489902 0.404581
vt 0.492822 0.304944
vt 0.494283 0.205307
vt 0.370268 0.205307
vt 0.246768 0.205307
vt 0.246397 0.288815
vt 0.245655 0.372324
vt 0.369475 0.110659
vt 0.492822 0.105669
vt 0.489902 0.006032
vt 0.367890 0.016011
vt 0.245655 0.038289
vt 0.246397 0.121798
vt 0.616755 0.103478
vt 0.619174 0.205307
vt 0.611917 0.001649
vt 0.616755 0.307135
vt 0.611917 0.408964
vt 0.123273 0.268175
vt 0.122972 0.331043
vt 0.123423 0.205306
vt 0.000156 0.205306
vt 0.000125 0.242784
vt 0.000064 0.280261
vt 0.123273 0.142438
vt 0.122972 0.079570
vt 0.000064 0.130352
vt 0.000125 0.167829
vt 0.122972 0.331043
vt 0.030806 0.283587
vt 0.245655 0.372324
vt 0.030806 0.283587
vt 0.000125 0.167829
vt 0.030806 0.127026
vt 0.000156 0.205306
vt 0.030806 0.127026
vt 0.805028 0.030806
vt 0.873826 0.071832
vt 0.721203 0.008146
vt 0.873826 0.071832
vt 0.938030 0.277186
vt 0.873826 0.338781
vt 0.968983 0.205307
vt 0.873826 0.338781
vt 0.805028 0.379807
vt 0.721203 0.402467
vt 0.000125 0.242784
vt 0.122972 0.079570
vt 0.245655 0.038289
vt 0.938030 0.133427
vt 0.611917 0.001649
vt 0.489902 0.006032
vt 0.611917 0.408964
vt 0.489902 0.404581
vt 0.367890 0.394602
vt 0.367890 0.016011
f 1/1/1 2/2/2 3/3/3
f 1/1/1 3/3/3 4/4/4
f 1/1/1 4/4/4 5/5/5
f 1/1/1 5/5/5 6/6/6
f 1/1/1 6/6/6 7/7/7
f 1/1/1 7/7/7 8/8/8
f 1/1/1 8/8/8 9/9/9
f 1/1/1 9/9/9 2/2/2
f 10/10/10 11/11/11 12/12/12
f 10/10/10 12/12/12 13/13/13
f 10/10/10 13/13/13 3/3/3
f 10/10/10 3/3/3 2/2/2
f 10/10/10 2/2/2 9/9/9
f 10/10/10 9/9/9 14/14/14
f 10/10/10 14/14/14 15/15/15
f 10/10/10 15/15/15 11/11/11
f 16/16/16 17/17/17 18/18/18
f 16/16/16 18/18/18 19/19/19
f 16/16/16 19/19/19 20/20/20
f 16/16/16 20/20/20 21/21/21
f 16/16/16 21/21/21 22/22/22
f 16/16/16 22/22/22 23/23/23
f 16/16/16 23/23/23 24/24/24
f 16/16/16 24/24/24 17/17/17
f 25/25/25 21/21/21 20/20/20
f 25/25/25 20/20/20 26/26/26
f 25/25/25 26/26/26 27/27/27
f 25/25/25 27/27/27 28/28/28
f 25/25/25 28/28/28 29/29/29
f 25/25/25 29/29/29 30/30/30
f 25/25/25 30/30/30 22/22/22
f 25/25/25 22/22/22 21/21/21
f 31/31/31 32/32/32 22/22/22
f 31/31/31 22/22/22 30/30/30
f 31/31/31 30/30/30 29/29/29
f 31/31/31 29/29/29 33/33/33
f 31/31/31 33/33/33 5/5/5
f 31/31/31 5/5/5 4/4/4
f 31/31/31 4/4/4 3/3/3
f 31/31/31 3/3/3 32/32/32
f 34/34/34 35/35/35 24/24/24
f 34/34/34 24/24/24 23/23/23
f 34/34/34 23/23/23 22/22/22
f 34/34/34 22/22/22 32/32/32
f 34/34/34 32/32/32 3/3/3
f 34/34/34 3/3/3 13/13/13
f 34/34/34 13/13/13 12/12/12
f 34/34/34 12/12/12 35/35/35
f 36/36/36 37/37/37 38/38/38
f 36/36/36 38/38/38 39/39/39
f 36/36/36 39/39/39 40/40/40
f 36/36/36 40/40/40 41/41/41
f 36/36/36 41/41/41 20/20/20
f 36/36/36 20/20/20 19/19/19
f 36/36/36 19/19/19 18/18/18
f 36/36/36 18/18/18 37/37/37
f 42/42/42 41/41/41 40/40/40
f 42/42/42 40/40/40 43/43/43
f 42/42/42 43/43/43 44/44/44
f 42/42/42 44/44/44 45/45/45
f 42/42/42 45/45/45 27/27/27
f 42/42/42 27/27/27 26/26/26
f 42/42/42 26/26/26 20/20/20
f 42/42/42 20/20/20 41/41/41
f 46/46/46 47/47/47 48/48/48
f 46/46/46 48/48/48 49/49/49
f 46/46/46 49/49/49 50/50/50
f 46/46/46 50/50/50 51/51/51
f 46/46/46 51/51/51 52/52/52
f 46/46/46 52/52/52 53/53/53
f 46/46/46 53/53/53 54/54/54
f 46/46/46 54/54/54 47/47/47
f 55/55/55 56/56/56 57/57/57
f 55/55/55 57/57/57 58/58/58
f 55/55/55 58/58/58 48/48/48
f 55/55/55 48/48/48 47/47/47
f 55/55/55 47/47/47 54/54/54
f 55/55/55 54/54/54 59/59/59
f 55/55/55 59/59/59 60/60/60
f 55/55/55 60/60/60 56/56/56
f 61/61/61 62/62/62 63/63/63
f 61/61/61 63/63/63 64/64/64
f 61/61/61 64/64/64 65/65/65
f 61/61/61 65/65/65 66/66/66
f 61/61/61 66/66/66 67/67/67
f 61/61/61 67/67/67 68/68/68
f 61/61/61 68/68/68 69/69/69
f 61/61/61 69/69/69 62/62/62
f 70/70/70 66/66/66 65/65/65
f 70/70/70 65/65/65 71/71/71
f 70/70/70 71/71/71 72/72/72
f 70/70/70 72/72/72 73/73/73
f 70/70/70 73/73/73 74/74/74
f 70/70/70 74/74/74 75/75/75
f 70/70/70 75/75/75 67/67/67
f 70/70/70 67/67/67 66/66/66
f 76/76/76 77/77/77 54/54/54
f 76/76/76 54/54/54 53/53/53
f 76/76/76 53/53/53 52/52/52
f 76/76/76 52/52/52 78/78/78
f 76/76/76 78/78/78 72/72/72
f 76/76/76 72/72/72 71/71/71
f 76/76/76 71/71/71 65/65/65
f 76/76/76 65/65/65 77/77/77
f 79/79/79 80/80/80 60/60/60
f 79/79/79 60/60/60 59/59/59
f 79/79/79 59/59/59 54/54/54
f 79/79/79 54/54/54 77/77/77
f 79/79/79 77/77/77 65/65/65
f 79/79/79 65/65/65 64/64/64
f 79/79/79 64/64/64 63/63/63
f 79/79/79 63/63/63 80/80/80
f 81/81/81 82/82/82 69/69/69
f 81/81/81 69/69/69 68/68/68
f 81/81/81 68/68/68 67/67/67
f 81/81/81 67/67/67 83/83/83
f 81/81/81 83/83/83 84/84/84
f 81/81/81 84/84/84 85/85/85
f 81/81/81 85/85/85 86/86/86
f 81/81/81 86/86/86 82/82/82
f 87/87/87 83/83/83 67/67/67
f 87/87/87 67/67/67 75/75/75
f 87/87/87 75/75/75 74/74/74
f 87/87/87 74/74/74 88/88/88
f 87/87/87 88/88/88 89/89/89
f 87/87/87 89/89/89 90/90/90
f 87/87/87 90/90/90 84/84/84
f 87/87/87 84/84/84 83/83/83
f 91/91/91 92/92/92 38/38/38
f 91/91/91 38/38/38 37/37/37
f 91/91/91 37/37/37 18/18/18
f 91/91/91 18/18/18 93/93/93
f 91/91/91 93/93/93 69/69/69
f 91/91/91 69/69/69 82/82/82
f 91/91/91 82/82/82 94/94/94
f 91/91/91 94/94/94 92/92/92
f 95/95/95 96/96/96 44/44/44
f 95/95/95 44/44/44 43/43/43
f 95/95/95 43/43/43 40/40/40
f 95/95/95 40/40/40 97/97/97
f 95/95/95 97/97/97 84/84/84
f 95/95/95 84/84/84 90/90/90
f 95/95/95 90/90/90 98/98/98
f 95/95/95 98/98/98 96/96/96
f 99/99/99 100/100/100 7/7/7
f 99/99/99 7/7/7 6/6/6
f 99/99/99 6/6/6 5/5/5
f 99/99/99 5/5/5 101/101/101
f 99/99/99 101/101/101 52/52/52
f 99/99/99 52/52/52 51/51/51
f 99/99/99 51/51/51 102/102/102
f 99/99/99 102/102/102 100/100/100
f 103/103/103 104/104/104 15/15/15
f 103/103/103 15/15/15 14/14/14
f 103/103/103 14/14/14 9/9/9
f 103/103/103 9/9/9 105/105/105
f 103/103/103 105/105/105 48/48/48
f 103/103/103 48/48/48 58/58/58
f 103/103/103 58/58/58 106/106/106
f 103/103/103 106/106/106 104/104/104
f 107/107/107 108/108/108 12/12/12
f 107/107/107 12/12/12 11/11/11
f 107/107/107 11/11/11 15/15/15
f 107/107/107 15/15/15 104/104/104
f 107/107/107 104/104/104 106/106/106
f 107/107/107 106/106/106 56/56/56
f 107/107/107 56/56/56 60/60/60
f 107/107/107 60/60/60 108/108/108
f 109/109/109 97/97/97 40/40/40
f 109/109/109 40/40/40 39/39/39
f 109/109/109 39/39/39 38/38/38
f 109/109/109 38/38/38 92/92/92
f 109/109/109 92/92/92 94/94/94
f 109/109/109 94/94/94 85/85/85
f 109/109/109 85/85/85 84/84/84
f 109/109/109 84/84/84 97/97/97
f 110/110/110 111/111/111 27/27/27
f 110/110/110 27/27/27 45/45/45
f 110/110/110 45/45/45 44/44/44
f 110/110/110 44/44/44 96/96/96
f 110/110/110 96/96/96 98/98/98
f 110/110/110 98/98/98 88/88/88
f 110/110/110 88/88/88 74/74/74
f 110/110/110 74/74/74 111/111/111
f 112/112/112 105/105/105 9/9/9
f 112/112/112 9/9/9 8/8/8
f 112/112/112 8/8/8 7/7/7
f 112/112/112 7/7/7 100/100/100
f 112/112/112 100/100/100 102/102/102
f 112/112/112 102/102/102 49/49/49
f 112/112/112 49/49/49 48/48/48
f 112/112/112 48/48/48 105/105/105
f 113/113/113 101/101/101 5/5/5
f 113/113/113 5/5/5 33/33/33
f 113/113/113 33/33/33 29/29/29
f 113/113/113 29/29/29 114/114/114
f 113/113/113 114/114/114 72/72/72
f 113/113/113 72/72/72 78/78/78
f 113/113/113 78/78/78 52/52/52
f 113/113/113 52/52/52 101/101/101
f 115/115/115 116/116/116 24/24/24
f 115/115/115 24/24/24 35/35/35
f 115/115/115 35/35/35 12/12/12
f 115/115/115 12/12/12 108/108/108
f 115/115/115 108/108/108 60/60/60
f 115/115/115 60/60/60 80/80/80
f 115/115/115 80/80/80 63/63/63
f 115/115/115 63/63/63 116/116/116
f 117/117/117 93/93/93 18/18/18
f 117/117/117 18/18/18 17/17/17
f 117/117/117 17/17/17 24/24/24
f 117/117/117 24/24/24 116/116/116
f 117/117/117 116/116/116 63/63/63
f 117/117/117 63/63/63 62/62/62
f 117/117/117 62/62/62 69/69/69
f 117/117/117 69/69/69 93/93/93
f 118/118/118 114/114/114 29/29/29
f 118/118/118 29/29/29 28/28/28
f 118/118/118 28/28/28 27/27/27
f 118/118/118 27/27/27 111/111/111
f 118/118/118 111/111/111 74/74/74
f 118/118/118 74/74/74 73/73/73
f 118/118/118 73/73/73 72/72/72
f 118/118/118 72/72/72 114/114/114
