v -2.405984 0.734655 -1.167996
v -2.403449 0.735593 -1.168853
v -2.404775 0.733977 -1.171997
v -2.407467 0.733025 -1.17066
v -2.409702 0.732454 -1.169853
v -2.4082 0.733999 -1.167763
v -2.40671 0.734907 -1.166659
v -2.404774 0.735726 -1.166133
v -2.402408 0.736669 -1.166524
v -2.401784 0.736742 -1.170839
v -2.400834 0.737659 -1.17275
v -2.401334 0.736612 -1.175518
v -2.402693 0.735397 -1.173892
v -2.401138 0.737533 -1.168594
v -2.400744 0.737872 -1.170698
v -2.405711 0.728694 -1.183148
v -2.404144 0.729756 -1.184486
v -2.405232 0.726802 -1.187067
v -2.406606 0.725854 -1.185874
v -2.408538 0.724693 -1.184369
v -2.407907 0.72739 -1.181457
v -2.407105 0.729891 -1.178438
v -2.404825 0.731276 -1.180216
v -2.403213 0.732417 -1.181632
v -2.410389 0.726369 -1.179981
v -2.410743 0.723798 -1.183073
v -2.412481 0.7232 -1.182159
v -2.41234 0.725683 -1.178936
v -2.411787 0.728157 -1.175827
v -2.409719 0.728844 -1.176903
v -2.408728 0.731075 -1.173713
v -2.406028 0.732082 -1.175238
v -2.410902 0.730461 -1.17267
v -2.403763 0.733542 -1.177074
v -2.402201 0.734784 -1.178561
v -2.407697 0.722813 -1.188395
v -2.406712 0.723561 -1.18932
v -2.407744 0.721528 -1.190313
v -2.408563 0.720434 -1.190196
v -2.409487 0.71978 -1.189378
v -2.409107 0.721916 -1.187248
v -2.410785 0.721279 -1.186305
v -2.410679 0.719383 -1.188764
v -2.41155 0.719636 -1.187736
v -2.412126 0.720871 -1.185655
v -2.405854 0.734404 -1.167908
v -2.403286 0.735354 -1.168786
v -2.402287 0.736489 -1.166478
v -2.40468 0.735535 -1.16607
v -2.406646 0.734764 -1.166607
v -2.40812 0.733805 -1.167687
v -2.409613 0.732266 -1.169772
v -2.407329 0.73278 -1.170565
v -2.404607 0.733744 -1.17192
v -2.40159 0.736522 -1.170794
v -2.400674 0.737505 -1.172727
v -2.40063 0.737754 -1.17068
v -2.400993 0.737367 -1.168565
v -2.402499 0.73518 -1.173835
v -2.401175 0.736459 -1.175485
v -2.405509 0.728503 -1.183041
v -2.403983 0.729618 -1.184412
v -2.403053 0.732273 -1.181569
v -2.404626 0.731075 -1.180123
v -2.406927 0.729679 -1.17833
v -2.407724 0.727188 -1.181336
v -2.408354 0.724499 -1.184239
v -2.406402 0.72567 -1.185758
v -2.405069 0.726671 -1.186987
v -2.410227 0.726158 -1.179847
v -2.409562 0.728623 -1.176781
v -2.411681 0.727987 -1.175729
v -2.41223 0.72552 -1.178829
v -2.412369 0.723043 -1.182045
v -2.410579 0.723594 -1.182929
v -2.408581 0.730842 -1.173605
v -2.405854 0.731858 -1.175146
v -2.410805 0.730281 -1.172581
v -2.403567 0.733333 -1.176999
v -2.402042 0.734635 -1.178513
v -2.407491 0.722633 -1.188277
v -2.406547 0.723433 -1.189239
v -2.408922 0.721725 -1.187114
v -2.409348 0.719637 -1.189277
v -2.408407 0.720301 -1.190108
v -2.407624 0.721431 -1.190251
v -2.410622 0.721077 -1.186158
v -2.412015 0.720716 -1.185537
v -2.411465 0.719523 -1.18765
v -2.410558 0.719232 -1.188652
v -2.406308 0.723755 -1.189594
v -2.407845 0.720979 -1.190874
v -2.404699 0.727061 -1.187431
v -2.407624 0.721431 -1.190251
v -2.41059 0.718684 -1.189533
v -2.411659 0.719085 -1.188293
v -2.409553 0.719004 -1.190043
v -2.411465 0.719523 -1.18765
v -2.408907 0.733693 -1.167649
v -2.406928 0.734903 -1.166369
v -2.410411 0.73218 -1.169546
v -2.406646 0.734764 -1.166607
v -2.400858 0.737722 -1.167834
v -2.400474 0.73811 -1.170739
v -2.402007 0.736948 -1.165728
v -2.40063 0.737754 -1.17068
v -2.400443 0.737899 -1.173379
v -2.400807 0.736952 -1.176048
v -2.408782 0.719582 -1.190757
v -2.412526 0.720666 -1.185384
v -2.413013 0.72293 -1.181802
v -2.404329 0.735998 -1.165484
v -2.411586 0.730175 -1.172281
v -2.412431 0.727851 -1.175423
v -2.401607 0.735133 -1.179037
v -2.402602 0.732735 -1.182078
v -2.403548 0.73005 -1.184901
v -2.412944 0.725381 -1.178539
vn -0.3612 0.8814 -0.3044
vn -0.5323 0.8274 -0.1789
vn -0.5529 0.8012 -0.2286
vn -0.4014 0.8492 -0.3429
vn -0.4173 0.8348 -0.359
vn -0.3683 0.8796 -0.3009
vn -0.3327 0.9071 -0.2579
vn -0.3612 0.9091 -0.2073
vn -0.4961 0.8624 -0.1
vn -0.6928 0.7166 -0.0798
vn -0.6879 0.7208 -0.0846
vn -0.6994 0.6947 -0.168
vn -0.6978 0.702 -0.1422
vn -0.6322 0.7744 -0.0239
vn -0.676 0.7364 -0.0255
vn -0.6973 0.6142 -0.3695
vn -0.6725 0.625 -0.3963
vn -0.6756 0.6048 -0.4215
vn -0.7084 0.5887 -0.3894
vn -0.6249 0.6307 -0.4601
vn -0.6178 0.6589 -0.429
vn -0.6003 0.712 -0.3641
vn -0.691 0.6556 -0.3043
vn -0.6759 0.6576 -0.3328
vn -0.5308 0.697 -0.4822
vn -0.5298 0.6774 -0.5102
vn -0.5703 0.6572 -0.4928
vn -0.5626 0.6796 -0.4707
vn -0.5307 0.7297 -0.4312
vn -0.5043 0.7484 -0.4307
vn -0.4558 0.8056 -0.3785
vn -0.5759 0.7645 -0.2895
vn -0.477 0.7867 -0.3917
vn -0.6912 0.6886 -0.2191
vn -0.687 0.6824 -0.2495
vn -0.728 0.5673 -0.3849
vn -0.6945 0.582 -0.4229
vn -0.719 0.5561 -0.4168
vn -0.7499 0.5174 -0.4121
vn -0.6347 0.577 -0.514
vn -0.6278 0.6169 -0.4745
vn -0.5104 0.6754 -0.5322
vn -0.499 0.6422 -0.5818
vn -0.5306 0.6498 -0.5442
vn -0.5548 0.6515 -0.5173
vn 0.345 -0.8761 0.3367
vn 0.5381 -0.8205 0.1927
vn 0.5594 -0.7917 0.2454
vn 0.2917 -0.855 0.4288
vn 0.1916 -0.8459 0.4977
vn 0.2115 -0.8511 0.4805
vn 0.2769 -0.8471 0.4536
vn 0.3887 -0.8517 0.3513
vn 0.5529 -0.8013 0.2286
vn 0.7183 -0.6907 0.084
vn 0.841 -0.5382 0.0544
vn 0.8552 -0.516 0.0487
vn 0.7884 -0.6081 0.0926
vn 0.7081 -0.693 0.1351
vn 0.806 -0.5841 0.0955
vn 0.7082 -0.6077 0.3594
vn 0.7787 -0.5584 0.2859
vn 0.7748 -0.5853 0.2388
vn 0.7012 -0.6488 0.2955
vn 0.6004 -0.7119 0.3643
vn 0.6179 -0.6588 0.4292
vn 0.6249 -0.6306 0.4602
vn 0.7207 -0.5824 0.376
vn 0.7938 -0.5437 0.2723
vn 0.517 -0.7027 0.4888
vn 0.4915 -0.753 0.4375
vn 0.3968 -0.7732 0.4947
vn 0.4178 -0.7378 0.5302
vn 0.3959 -0.7414 0.5418
vn 0.5134 -0.6854 0.5163
vn 0.4434 -0.8092 0.3854
vn 0.5759 -0.7645 0.2895
vn 0.3443 -0.8177 0.4612
vn 0.701 -0.6812 0.211
vn 0.7832 -0.5997 0.164
vn 0.7419 -0.5685 0.3554
vn 0.8173 -0.5357 0.212
vn 0.6261 -0.6253 0.4658
vn 0.6173 -0.6609 0.4267
vn 0.7741 -0.5777 0.2587
vn 0.8282 -0.5336 0.1711
vn 0.4853 -0.696 0.5291
vn 0.3393 -0.7733 0.5356
vn 0.3037 -0.7944 0.526
vn 0.4082 -0.7595 0.5063
vn 0.5111 0.2234 -0.83
vn 0.2624 -0.0793 -0.9617
vn 0.5969 0.3156 -0.7376
vn 0.8282 -0.5336 0.1711
vn -0.3496 -0.7254 -0.593
vn -0.7629 -0.5884 -0.2677
vn -0.0725 -0.7495 -0.658
vn 0.3037 -0.7944 0.526
vn -0.753 0.0672 0.6546
vn -0.5247 0.2241 0.8212
vn -0.8451 -0.0749 0.5293
vn 0.1916 -0.8459 0.4977
vn 0.6433 0.6164 0.4539
vn 0.6119 0.7892 0.0519
vn 0.3969 0.3547 0.8466
vn 0.8552 -0.516 0.0487
vn 0.6107 0.745 -0.2682
vn 0.61 0.648 -0.456
vn 0.0127 -0.5452 -0.8382
vn -0.8775 -0.4667 0.11
vn -0.8728 -0.4147 0.2573
vn -0.1097 0.2422 0.964
vn -0.8753 -0.1916 0.444
vn -0.8769 -0.2673 0.3996
vn 0.6156 0.5489 -0.5655
vn 0.6248 0.4793 -0.6163
vn 0.6294 0.4064 -0.6623
vn -0.8716 -0.3398 0.3533
vt 0.839504 0.118056
vt 0.856743 0.205307
vt 0.741230 0.205307
vt 0.734555 0.106726
vt 0.724541 0.032791
vt 0.813647 0.052618
vt 0.868992 0.081539
vt 0.913398 0.129584
vt 0.940923 0.205307
vt 0.839504 0.292557
vt 0.813647 0.357995
vt 0.724541 0.377822
vt 0.734555 0.303887
vt 0.913398 0.281029
vt 0.868992 0.329074
vt 0.369475 0.299954
vt 0.368286 0.370940
vt 0.245840 0.351447
vt 0.246397 0.288815
vt 0.246768 0.205307
vt 0.370268 0.205307
vt 0.494283 0.205307
vt 0.492822 0.304944
vt 0.490632 0.379672
vt 0.369475 0.110659
vt 0.246397 0.121798
vt 0.245841 0.059166
vt 0.368286 0.039673
vt 0.490632 0.030941
vt 0.492822 0.105669
vt 0.616755 0.103478
vt 0.619174 0.205307
vt 0.613127 0.027106
vt 0.616755 0.307135
vt 0.613126 0.383507
vt 0.123273 0.268175
vt 0.123047 0.315326
vt 0.054743 0.283353
vt 0.030912 0.249131
vt 0.030973 0.205306
vt 0.123423 0.205306
vt 0.123273 0.142438
vt 0.030912 0.161481
vt 0.054744 0.127260
vt 0.123047 0.095287
vt 0.839504 0.118056
vt 0.856743 0.205307
vt 0.968983 0.205307
vt 0.938030 0.133427
vt 0.876123 0.061548
vt 0.805028 0.030806
vt 0.721203 0.008146
vt 0.734555 0.106726
vt 0.741230 0.205307
vt 0.839504 0.292557
vt 0.805028 0.379807
vt 0.876123 0.349065
vt 0.938030 0.277186
vt 0.734555 0.303887
vt 0.721203 0.402467
vt 0.369475 0.299954
vt 0.367890 0.394602
vt 0.489902 0.404581
vt 0.492822 0.304944
vt 0.494283 0.205307
vt 0.370268 0.205307
vt 0.246768 0.205307
vt 0.246397 0.288815
vt 0.245655 0.372324
vt 0.369475 0.110659
vt 0.492822 0.105669
vt 0.489902 0.006032
vt 0.367890 0.016011
vt 0.245655 0.038289
vt 0.246397 0.121798
vt 0.616755 0.103478
vt 0.619174 0.205307
vt 0.611917 0.001649
vt 0.616755 0.307135
vt 0.611917 0.408964
vt 0.123273 0.268175
vt 0.122972 0.331043
vt 0.123423 0.205306
vt 0.000156 0.205306
vt 0.000125 0.242784
vt 0.000064 0.280261
vt 0.123273 0.142438
vt 0.122972 0.079570
vt 0.000064 0.130352
vt 0.000125 0.167829
vt 0.122972 0.331043
vt 0.030806 0.283587
vt 0.245655 0.372324
vt 0.030806 0.283587
vt 0.000125 0.167829
vt 0.030806 0.127026
vt 0.000156 0.205306
vt 0.030806 0.127026
vt 0.805028 0.030806
vt 0.873826 0.071832
vt 0.721203 0.008146
vt 0.873826 0.071832
vt 0.938030 0.277186
vt 0.873826 0.338781
vt 0.968983 0.205307
vt 0.873826 0.338781
vt 0.805028 0.379807
vt 0.721203 0.402467
vt 0.000125 0.242784
vt 0.122972 0.079570
vt 0.245655 0.038289
vt 0.938030 0.133427
vt 0.611917 0.001649
vt 0.489902 0.006032
vt 0.611917 0.408964
vt 0.489902 0.404581
vt 0.367890 0.394602
vt 0.367890 0.016011
f 1/1/1 2/2/2 3/3/3
f 1/1/1 3/3/3 4/4/4
f 1/1/1 4/4/4 5/5/5
f 1/1/1 5/5/5 6/6/6
f 1/1/1 6/6/6 7/7/7
f 1/1/1 7/7/7 8/8/8
f 1/1/1 8/8/8 9/9/9
f 1/1/1 9/9/9 2/2/2
f 10/10/10 11/11/11 12/12/12
f 10/10/10 12/12/12 13/13/13
f 10/10/10 13/13/13 3/3/3
f 10/10/10 3/3/3 2/2/2
f 10/10/10 2/2/2 9/9/9
f 10/10/10 9/9/9 14/14/14
f 10/10/10 14/14/14 15/15/15
f 10/10/10 15/15/15 11/11/11
f 16/16/16 17/17/17 18/18/18
f 16/16/16 18/18/18 19/19/19
f 16/16/16 19/19/19 20/20/20
f 16/16/16 20/20/20 21/21/21
f 16/16/16 21/21/21 22/22/22
f 16/16/16 22/22/22 23/23/23
f 16/16/16 23/23/23 24/24/24
f 16/16/16 24/24/24 17/17/17
f 25/25/25 21/21/21 20/20/20
f 25/25/25 20/20/20 26/26/26
f 25/25/25 26/26/26 27/27/27
f 25/25/25 27/27/27 28/28/28
f 25/25/25 28/28/28 29/29/29
f 25/25/25 29/29/29 30/30/30
f 25/25/25 30/30/30 22/22/22
f 25/25/25 22/22/22 21/21/21
f 31/31/31 32/32/32 22/22/22
f 31/31/31 22/22/22 30/30/30
f 31/31/31 30/30/30 29/29/29
f 31/31/31 29/29/29 33/33/33
f 31/31/31 33/33/33 5/5/5
f 31/31/31 5/5/5 4/4/4
f 31/31/31 4/4/4 3/3/3
f 31/31/31 3/3/3 32/32/32
f 34/34/34 35/35/35 24/24/24
f 34/34/34 24/24/24 23/23/23
f 34/34/34 23/23/23 22/22/22
f 34/34/34 22/22/22 32/32/32
f 34/34/34 32/32/32 3/3/3
f 34/34/34 3/3/3 13/13/13
f 34/34/34 13/13/13 12/12/12
f 34/34/34 12/12/12 35/35/35
f 36/36/36 37/37/37 38/38/38
f 36/36/36 38/38/38 39/39/39
f 36/36/36 39/39/39 40/40/40
f 36/36/36 40/40/40 41/41/41
f 36/36/36 41/41/41 20/20/20
f 36/36/36 20/20/20 19/19/19
f 36/36/36 19/19/19 18/18/18
f 36/36/36 18/18/18 37/37/37
f 42/42/42 41/41/41 40/40/40
f 42/42/42 40/40/40 43/43/43
f 42/42/42 43/43/43 44/44/44
f 42/42/42 44/44/44 45/45/45
f 42/42/42 45/45/45 27/27/27
f 42/42/42 27/27/27 26/26/26
f 42/42/42 26/26/26 20/20/20
f 42/42/42 20/20/20 41/41/41
f 46/46/46 47/47/47 48/48/48
f 46/46/46 48/48/48 49/49/49
f 46/46/46 49/49/49 50/50/50
f 46/46/46 50/50/50 51/51/51
f 46/46/46 51/51/51 52/52/52
f 46/46/46 52/52/52 53/53/53
f 46/46/46 53/53/53 54/54/54
f 46/46/46 54/54/54 47/47/47
f 55/55/55 56/56/56 57/57/57
f 55/55/55 57/57/57 58/58/58
f 55/55/55 58/58/58 48/48/48
f 55/55/55 48/48/48 47/47/47
f 55/55/55 47/47/47 54/54/54
f 55/55/55 54/54/54 59/59/59
f 55/55/55 59/59/59 60/60/60
f 55/55/55 60/60/60 56/56/56
f 61/61/61 62/62/62 63/63/63
f 61/61/61 63/63/63 64/64/64
f 61/61/61 64/64/64 65/65/65
f 61/61/61 65/65/65 66/66/66
f 61/61/61 66/66/66 67/67/67
f 61/61/61 67/67/67 68/68/68
f 61/61/61 68/68/68 69/69/69
f 61/61/61 69/69/69 62/62/62
f 70/70/70 66/66/66 65/65/65
f 70/70/70 65/65/65 71/71/71
f 70/70/70 71/71/71 72/72/72
f 70/70/70 72/72/72 73/73/73
f 70/70/70 73/73/73 74/74/74
f 70/70/70 74/74/74 75/75/75
f 70/70/70 75/75/75 67/67/67
f 70/70/70 67/67/67 66/66/66
f 76/76/76 77/77/77 54/54/54
f 76/76/76 54/54/54 53/53/53
f 76/76/76 53/53/53 52/52/52
f 76/76/76 52/52/52 78/78/78
f 76/76/76 78/78/78 72/72/72
f 76/76/76 72/72/72 71/71/71
f 76/76/76 71/71/71 65/65/65
f 76/76/76 65/65/65 77/77/77
f 79/79/79 80/80/80 60/60/60
f 79/79/79 60/60/60 59/59/59
f 79/79/79 59/59/59 54/54/54
f 79/79/79 54/54/54 77/77/77
f 79/79/79 77/77/77 65/65/65
f 79/79/79 65/65/65 64/64/64
f 79/79/79 64/64/64 63/63/63
f 79/79/79 63/63/63 80/80/80
f 81/81/81 82/82/82 69/69/69
f 81/81/81 69/69/69 68/68/68
f 81/81/81 68/68/68 67/67/67
f 81/81/81 67/67/67 83/83/83
f 81/81/81 83/83/83 84/84/84
f 81/81/81 84/84/84 85/85/85
f 81/81/81 85/85/85 86/86/86
f 81/81/81 86/86/86 82/82/82
f 87/87/87 83/83/83 67/67/67
f 87/87/87 67/67/67 75/75/75
f 87/87/87 75/75/75 74/74/74
f 87/87/87 74/74/74 88/88/88
f 87/87/87 88/88/88 89/89/89
f 87/87/87 89/89/89 90/90/90
f 87/87/87 90/90/90 84/84/84
f 87/87/87 84/84/84 83/83/83
f 91/91/91 92/92/92 38/38/38
f 91/91/91 38/38/38 37/37/37
f 91/91/91 37/37/37 18/18/18
f 91/91/91 18/18/18 93/93/93
f 91/91/91 93/93/93 69/69/69
f 91/91/91 69/69/69 82/82/82
f 91/91/91 82/82/82 94/94/94
f 91/91/91 94/94/94 92/92/92
f 95/95/95 96/96/96 44/44/44
f 95/95/95 44/44/44 43/43/43
f 95/95/95 43/43/43 40/40/40
f 95/95/95 40/40/40 97/97/97
f 95/95/95 97/97/97 84/84/84
f 95/95/95 84/84/84 90/90/90
f 95/95/95 90/90/90 98/98/98
f 95/95/95 98/98/98 96/96/96
f 99/99/99 100/100/100 7/7/7
f 99/99/99 7/7/7 6/6/6
f 99/99/99 6/6/6 5/5/5
f 99/99/99 5/5/5 101/101/101
f 99/99/99 101/101/101 52/52/52
f 99/99/99 52/52/52 51/51/51
f 99/99/99 51/51/51 102/102/102
f 99/99/99 102/102/102 100/100/100
f 103/103/103 104/104/104 15/15/15
f 103/103/103 15/15/15 14/14/14
f 103/103/103 14/14/14 9/9/9
f 103/103/103 9/9/9 105/105/105
f 103/103/103 105/105/105 48/48/48
f 103/103/103 48/48/48 58/58/58
f 103/103/103 58/58/58 106/106/106
f 103/103/103 106/106/106 104/104/104
f 107/107/107 108/108/108 12/12/12
f 107/107/107 12/12/12 11/11/11
f 107/107/107 11/11/11 15/15/15
f 107/107/107 15/15/15 104/104/104
f 107/107/107 104/104/104 106/106/106
f 107/107/107 106/106/106 56/56/56
f 107/107/107 56/56/56 60/60/60
f 107/107/107 60/60/60 108/108/108
f 109/109/109 97/97/97 40/40/40
f 109/109/109 40/40/40 39/39/39
f 109/109/109 39/39/39 38/38/38
f 109/109/109 38/38/38 92/92/92
f 109/109/109 92/92/92 94/94/94
f 109/109/109 94/94/94 85/85/85
f 109/109/109 85/85/85 84/84/84
f 109/109/109 84/84/84 97/97/97
f 110/110/110 111/111/111 27/27/27
f 110/110/110 27/27/27 45/45/45
f 110/110/110 45/45/45 44/44/44
f 110/110/110 44/44/44 96/96/96
f 110/110/110 96/96/96 98/98/98
f 110/110/110 98/98/98 88/88/88
f 110/110/110 88/88/88 74/74/74
f 110/110/110 74/74/74 111/111/111
f 112/112/112 105/105/105 9/9/9
f 112/112/112 9/9/9 8/8/8
f 112/112/112 8/8/8 7/7/7
f 112/112/112 7/7/7 100/100/100
f 112/112/112 100/100/100 102/102/102
f 112/112/112 102/102/102 49/49/49
f 112/112/112 49/49/49 48/48/48
f 112/112/112 48/48/48 105/105/105
f 113/113/113 101/101/101 5/5/5
f 113/113/113 5/5/5 33/33/33
f 113/113/113 33/33/33 29/29/29
f 113/113/113 29/29/29 114/114/114
f 113/113/113 114/114/114 72/72/72
f 113/113/113 72/72/72 78/78/78
f 113/113/113 78/78/78 52/52/52
f 113/113/113 52/52/52 101/101/101
f 115/115/115 116/116/116 24/24/24
f 115/115/115 24/24/24 35/35/35
f 115/115/115 35/35/35 12/12/12
f 115/115/115 12/12/12 108/108/108
f 115/115/115 108/108/108 60/60/60
f 115/115/115 60/60/60 80/80/80
f 115/115/115 80/80/80 63/63/63
f 115/115/115 63/63/63 116/116/116
f 117/117/117 93/93/93 18/18/18
f 117/117/117 18/18/18 17/17/17
f 117/117/117 17/17/17 24/24/24
f 117/117/117 24/24/24 116/116/116
f 117/117/117 116/116/116 63/63/63
f 117/117/117 63/63/63 62/62/62
f 117/117/117 62/62/62 69/69/69
f 117/117/117 69/69/69 93/93/93
f 118/118/118 114/114/114 29/29/29
f 118/118/118 29/29/29 28/28/28
f 118/118/118 28/28/28 27/27/27
f 118/118/118 27/27/27 111/111/111
f 118/118/118 111/111/111 74/74/74
f 118/118/118 74/74/74 73/73/73
f 118/118/118 73/73/73 72/72/72
f 118/118/118 72/72/72 114/114/114
