v -2.392379 0.703795 -1.194885
v -2.391316 0.704567 -1.193245
v -2.389476 0.70275 -1.194312
v -2.390903 0.702033 -1.196017
v -2.391838 0.701544 -1.197489
v -2.392914 0.703149 -1.196388
v -2.393384 0.704131 -1.195312
v -2.3934 0.704994 -1.193959
v -2.392689 0.705833 -1.192397
v -2.389518 0.705214 -1.192371
v -2.387897 0.705638 -1.191978
v -2.386139 0.704372 -1.19248
v -2.387652 0.703646 -1.19316
v -2.390924 0.706223 -1.191782
v -2.389321 0.706147 -1.191741
v -2.382427 0.696992 -1.195423
v -2.381119 0.697677 -1.194546
v -2.379858 0.695022 -1.195223
v -2.381022 0.694412 -1.195988
v -2.382509 0.693649 -1.197101
v -2.384101 0.696132 -1.196691
v -2.385779 0.69851 -1.196124
v -2.384021 0.699421 -1.194813
v -2.382639 0.700154 -1.19392
v -2.385613 0.695411 -1.198223
v -2.383839 0.693014 -1.198464
v -2.384794 0.692573 -1.199563
v -2.386701 0.694907 -1.199452
v -2.388478 0.697256 -1.199052
v -2.387353 0.697767 -1.197742
v -2.389172 0.699999 -1.196988
v -2.387601 0.700723 -1.195302
v -2.390275 0.699524 -1.198388
v -2.385791 0.701677 -1.194016
v -2.384349 0.702465 -1.193179
v -2.379817 0.691705 -1.196652
v -2.378922 0.69218 -1.196118
v -2.378649 0.690457 -1.196714
v -2.378999 0.689615 -1.197163
v -2.379796 0.689196 -1.197674
v -2.380945 0.691121 -1.197453
v -2.381919 0.690662 -1.1985
v -2.38044 0.688901 -1.198429
v -2.381241 0.689171 -1.198992
v -2.382609 0.69035 -1.199359
v -2.392464 0.703643 -1.194751
v -2.39138 0.704424 -1.193091
v -2.392736 0.705724 -1.192283
v -2.393463 0.704878 -1.193861
v -2.393435 0.704044 -1.195244
v -2.392988 0.703031 -1.196298
v -2.391914 0.701432 -1.197394
v -2.390992 0.701888 -1.195878
v -2.389546 0.702613 -1.194155
v -2.389561 0.705083 -1.192199
v -2.387918 0.705547 -1.191842
v -2.389338 0.706077 -1.191643
v -2.390953 0.706123 -1.191654
v -2.387703 0.70352 -1.192987
v -2.386167 0.704284 -1.192343
v -2.382509 0.696893 -1.195243
v -2.381173 0.697607 -1.194406
v -2.382686 0.700077 -1.193781
v -2.384094 0.699313 -1.194635
v -2.385868 0.698394 -1.195959
v -2.384197 0.696026 -1.196523
v -2.382609 0.693551 -1.196931
v -2.381108 0.694321 -1.195807
v -2.379915 0.694957 -1.195082
v -2.385722 0.695299 -1.198067
v -2.387455 0.697645 -1.19759
v -2.388561 0.697162 -1.198945
v -2.386789 0.69482 -1.199342
v -2.384886 0.692491 -1.199451
v -2.383953 0.692909 -1.198307
v -2.389267 0.699865 -1.196842
v -2.38768 0.700596 -1.19514
v -2.390354 0.699421 -1.198286
v -2.385853 0.701559 -1.193841
v -2.384387 0.702381 -1.193042
v -2.379904 0.691617 -1.196469
v -2.37898 0.692117 -1.195975
v -2.381047 0.691025 -1.197283
v -2.379873 0.689124 -1.197546
v -2.379064 0.68955 -1.197025
v -2.378693 0.69041 -1.19661
v -2.382036 0.690559 -1.198343
v -2.382703 0.69027 -1.199248
v -2.381309 0.689112 -1.198909
v -2.380528 0.688823 -1.198312
v -2.378648 0.692311 -1.195876
v -2.378343 0.68996 -1.196775
v -2.379493 0.695198 -1.194904
v -2.378693 0.69041 -1.19661
v -2.379986 0.688279 -1.198354
v -2.38094 0.688671 -1.199058
v -2.379447 0.688523 -1.19769
v -2.381309 0.689112 -1.198909
v -2.393128 0.702881 -1.196851
v -2.393618 0.704156 -1.195442
v -2.392185 0.701331 -1.19794
v -2.393435 0.704044 -1.195244
v -2.391405 0.706515 -1.191529
v -2.389222 0.706337 -1.191578
v -2.393167 0.706206 -1.192064
v -2.389338 0.706077 -1.191643
v -2.387364 0.705741 -1.191785
v -2.385645 0.704576 -1.192191
v -2.378755 0.68889 -1.197272
v -2.382882 0.69021 -1.199597
v -2.385155 0.692388 -1.199881
v -2.393768 0.705342 -1.193607
v -2.390679 0.699319 -1.198811
v -2.388891 0.697043 -1.199443
v -2.383884 0.702691 -1.192838
v -2.382198 0.700365 -1.19356
v -2.380705 0.697875 -1.19419
v -2.387104 0.694699 -1.199814
vn 0.4167 0.7328 -0.5379
vn 0.2566 0.687 -0.6798
vn 0.2958 0.6476 -0.7022
vn 0.4407 0.6877 -0.5768
vn 0.4507 0.6681 -0.5921
vn 0.4119 0.731 -0.544
vn 0.3819 0.7721 -0.508
vn 0.3288 0.7819 -0.5295
vn 0.1936 0.7436 -0.64
vn 0.1119 0.5816 -0.8057
vn 0.1182 0.5853 -0.8021
vn 0.1913 0.5394 -0.82
vn 0.1682 0.5525 -0.8163
vn 0.0799 0.6583 -0.7484
vn 0.0664 0.6155 -0.7853
vn 0.3695 0.416 -0.8309
vn 0.4016 0.4235 -0.812
vn 0.4212 0.3979 -0.815
vn 0.3815 0.3854 -0.8402
vn 0.4721 0.4206 -0.7747
vn 0.4491 0.4559 -0.7684
vn 0.4004 0.5243 -0.7515
vn 0.3162 0.4717 -0.8231
vn 0.3465 0.469 -0.8123
vn 0.5225 0.4919 -0.6965
vn 0.5457 0.4668 -0.6959
vn 0.5179 0.4459 -0.73
vn 0.5025 0.4736 -0.7233
vn 0.4801 0.5351 -0.6951
vn 0.4878 0.5568 -0.6723
vn 0.4571 0.6303 -0.6275
vn 0.3432 0.5952 -0.7266
vn 0.4625 0.6063 -0.6469
vn 0.2407 0.5229 -0.8177
vn 0.2695 0.5106 -0.8165
vn 0.3695 0.3631 -0.8553
vn 0.4147 0.3731 -0.8299
vn 0.3995 0.3463 -0.8488
vn 0.3818 0.3059 -0.8721
vn 0.5114 0.3553 -0.7824
vn 0.4827 0.4037 -0.7772
vn 0.5696 0.4624 -0.6794
vn 0.6125 0.4203 -0.6694
vn 0.5726 0.4322 -0.6966
vn 0.5431 0.4368 -0.7171
vn -0.4495 -0.7225 0.5253
vn -0.2675 -0.6764 0.6862
vn -0.3088 -0.6337 0.7092
vn -0.5425 -0.6883 0.4816
vn -0.6236 -0.6767 0.3913
vn -0.605 -0.6829 0.4095
vn -0.5674 -0.6767 0.4692
vn -0.4514 -0.6899 0.5659
vn -0.2957 -0.6477 0.7021
vn -0.1064 -0.5522 0.8268
vn -0.0264 -0.3959 0.9179
vn -0.014 -0.3741 0.9273
vn -0.0863 -0.4617 0.8828
vn -0.1578 -0.5442 0.8239
vn -0.0811 -0.4354 0.8965
vn -0.3566 -0.4105 0.8392
vn -0.264 -0.3706 0.8905
vn -0.2248 -0.4078 0.8849
vn -0.3047 -0.4657 0.8308
vn -0.4005 -0.5242 0.7515
vn -0.4492 -0.4558 0.7684
vn -0.4722 -0.4205 0.7747
vn -0.3654 -0.3807 0.8494
vn -0.2454 -0.3575 0.9011
vn -0.5323 -0.4977 0.6848
vn -0.4973 -0.5613 0.6615
vn -0.5721 -0.5802 0.5797
vn -0.5956 -0.5351 0.5991
vn -0.611 -0.539 0.5797
vn -0.5559 -0.4752 0.682
vn -0.4666 -0.6339 0.6168
vn -0.3432 -0.5952 0.7265
vn -0.5576 -0.6378 0.5312
vn -0.2298 -0.5163 0.8249
vn -0.1542 -0.4376 0.8858
vn -0.3392 -0.3693 0.8652
vn -0.1818 -0.3605 0.9149
vn -0.4763 -0.414 0.7757
vn -0.4475 -0.4584 0.7678
vn -0.2425 -0.3959 0.8856
vn -0.14 -0.3665 0.9198
vn -0.575 -0.4863 0.6579
vn -0.621 -0.5785 0.5288
vn -0.622 -0.6056 0.4962
vn -0.5788 -0.5628 0.5901
vn 0.9304 0.0923 0.3547
vn 0.9542 -0.2621 0.1441
vn 0.8745 0.2137 0.4354
vn -0.14 -0.3665 0.9198
vn 0.365 -0.8815 -0.2996
vn 0.0121 -0.7295 -0.6838
vn 0.4674 -0.8834 -0.0337
vn -0.622 -0.6056 0.4962
vn -0.7411 0.1163 -0.6613
vn -0.8318 0.3354 -0.4423
vn -0.664 -0.0625 -0.7451
vn -0.6236 -0.6767 0.3913
vn -0.2057 0.7831 0.5868
vn 0.2129 0.8535 0.4756
vn -0.6782 0.5883 0.4404
vn -0.014 -0.3741 0.9273
vn 0.5121 0.7378 0.4397
vn 0.6731 0.6013 0.4305
vn 0.6977 -0.7163 -0.0075
vn -0.3455 -0.541 -0.7667
vn -0.4766 -0.4562 -0.7514
vn -0.8979 0.4397 -0.0211
vn -0.6104 -0.1992 -0.7666
vn -0.5839 -0.2818 -0.7613
vn 0.7594 0.4811 0.4379
vn 0.7959 0.4031 0.4516
vn 0.8259 0.3231 0.4621
vn -0.5539 -0.3613 -0.7501
vt 0.839504 0.118056
vt 0.856743 0.205307
vt 0.741230 0.205307
vt 0.734555 0.106726
vt 0.724541 0.032791
vt 0.813647 0.052618
vt 0.868992 0.081539
vt 0.913398 0.129584
vt 0.940923 0.205307
vt 0.839504 0.292557
vt 0.813647 0.357995
vt 0.724541 0.377822
vt 0.734555 0.303887
vt 0.913398 0.281029
vt 0.868992 0.329074
vt 0.369475 0.299954
vt 0.368286 0.370940
vt 0.245840 0.351447
vt 0.246397 0.288815
vt 0.246768 0.205307
vt 0.370268 0.205307
vt 0.494283 0.205307
vt 0.492822 0.304944
vt 0.490632 0.379672
vt 0.369475 0.110659
vt 0.246397 0.121798
vt 0.245841 0.059166
vt 0.368286 0.039673
vt 0.490632 0.030941
vt 0.492822 0.105669
vt 0.616755 0.103478
vt 0.619174 0.205307
vt 0.613127 0.027106
vt 0.616755 0.307135
vt 0.613126 0.383507
vt 0.123273 0.268175
vt 0.123047 0.315326
vt 0.054743 0.283353
vt 0.030912 0.249131
vt 0.030973 0.205306
vt 0.123423 0.205306
vt 0.123273 0.142438
vt 0.030912 0.161481
vt 0.054744 0.127260
vt 0.123047 0.095287
vt 0.839504 0.118056
vt 0.856743 0.205307
vt 0.968983 0.205307
vt 0.938030 0.133427
vt 0.876123 0.061548
vt 0.805028 0.030806
vt 0.721203 0.008146
vt 0.734555 0.106726
vt 0.741230 0.205307
vt 0.839504 0.292557
vt 0.805028 0.379807
vt 0.876123 0.349065
vt 0.938030 0.277186
vt 0.734555 0.303887
vt 0.721203 0.402467
vt 0.369475 0.299954
vt 0.367890 0.394602
vt 0.489902 0.404581
vt 0.492822 0.304944
vt 0.494283 0.205307
vt 0.370268 0.205307
vt 0.246768 0.205307
vt 0.246397 0.288815
vt 0.245655 0.372324
vt 0.369475 0.110659
vt 0.492822 0.105669
vt 0.489902 0.006032
vt 0.367890 0.016011
vt 0.245655 0.038289
vt 0.246397 0.121798
vt 0.616755 0.103478
vt 0.619174 0.205307
vt 0.611917 0.001649
vt 0.616755 0.307135
vt 0.611917 0.408964
vt 0.123273 0.268175
vt 0.122972 0.331043
vt 0.123423 0.205306
vt 0.000156 0.205306
vt 0.000125 0.242784
vt 0.000064 0.280261
vt 0.123273 0.142438
vt 0.122972 0.079570
vt 0.000064 0.130352
vt 0.000125 0.167829
vt 0.122972 0.331043
vt 0.030806 0.283587
vt 0.245655 0.372324
vt 0.030806 0.283587
vt 0.000125 0.167829
vt 0.030806 0.127026
vt 0.000156 0.205306
vt 0.030806 0.127026
vt 0.805028 0.030806
vt 0.873826 0.071832
vt 0.721203 0.008146
vt 0.873826 0.071832
vt 0.938030 0.277186
vt 0.873826 0.338781
vt 0.968983 0.205307
vt 0.873826 0.338781
vt 0.805028 0.379807
vt 0.721203 0.402467
vt 0.000125 0.242784
vt 0.122972 0.079570
vt 0.245655 0.038289
vt 0.938030 0.133427
vt 0.611917 0.001649
vt 0.489902 0.006032
vt 0.611917 0.408964
vt 0.489902 0.404581
vt 0.367890 0.394602
vt 0.367890 0.016011
f 1/1/1 2/2/2 3/3/3
f 1/1/1 3/3/3 4/4/4
f 1/1/1 4/4/4 5/5/5
f 1/1/1 5/5/5 6/6/6
f 1/1/1 6/6/6 7/7/7
f 1/1/1 7/7/7 8/8/8
f 1/1/1 8/8/8 9/9/9
f 1/1/1 9/9/9 2/2/2
f 10/10/10 11/11/11 12/12/12
f 10/10/10 12/12/12 13/13/13
f 10/10/10 13/13/13 3/3/3
f 10/10/10 3/3/3 2/2/2
f 10/10/10 2/2/2 9/9/9
f 10/10/10 9/9/9 14/14/14
f 10/10/10 14/14/14 15/15/15
f 10/10/10 15/15/15 11/11/11
f 16/16/16 17/17/17 18/18/18
f 16/16/16 18/18/18 19/19/19
f 16/16/16 19/19/19 20/20/20
f 16/16/16 20/20/20 21/21/21
f 16/16/16 21/21/21 22/22/22
f 16/16/16 22/22/22 23/23/23
f 16/16/16 23/23/23 24/24/24
f 16/16/16 24/24/24 17/17/17
f 25/25/25 21/21/21 20/20/20
f 25/25/25 20/20/20 26/26/26
f 25/25/25 26/26/26 27/27/27
f 25/25/25 27/27/27 28/28/28
f 25/25/25 28/28/28 29/29/29
f 25/25/25 29/29/29 30/30/30
f 25/25/25 30/30/30 22/22/22
f 25/25/25 22/22/22 21/21/21
f 31/31/31 32/32/32 22/22/22
f 31/31/31 22/22/22 30/30/30
f 31/31/31 30/30/30 29/29/29
f 31/31/31 29/29/29 33/33/33
f 31/31/31 33/33/33 5/5/5
f 31/31/31 5/5/5 4/4/4
f 31/31/31 4/4/4 3/3/3
f 31/31/31 3/3/3 32/32/32
f 34/34/34 35/35/35 24/24/24
f 34/34/34 24/24/24 23/23/23
f 34/34/34 23/23/23 22/22/22
f 34/34/34 22/22/22 32/32/32
f 34/34/34 32/32/32 3/3/3
f 34/34/34 3/3/3 13/13/13
f 34/34/34 13/13/13 12/12/12
f 34/34/34 12/12/12 35/35/35
f 36/36/36 37/37/37 38/38/38
f 36/36/36 38/38/38 39/39/39
f 36/36/36 39/39/39 40/40/40
f 36/36/36 40/40/40 41/41/41
f 36/36/36 41/41/41 20/20/20
f 36/36/36 20/20/20 19/19/19
f 36/36/36 19/19/19 18/18/18
f 36/36/36 18/18/18 37/37/37
f 42/42/42 41/41/41 40/40/40
f 42/42/42 40/40/40 43/43/43
f 42/42/42 43/43/43 44/44/44
f 42/42/42 44/44/44 45/45/45
f 42/42/42 45/45/45 27/27/27
f 42/42/42 27/27/27 26/26/26
f 42/42/42 26/26/26 20/20/20
f 42/42/42 20/20/20 41/41/41
f 46/46/46 47/47/47 48/48/48
f 46/46/46 48/48/48 49/49/49
f 46/46/46 49/49/49 50/50/50
f 46/46/46 50/50/50 51/51/51
f 46/46/46 51/51/51 52/52/52
f 46/46/46 52/52/52 53/53/53
f 46/46/46 53/53/53 54/54/54
f 46/46/46 54/54/54 47/47/47
f 55/55/55 56/56/56 57/57/57
f 55/55/55 57/57/57 58/58/58
f 55/55/55 58/58/58 48/48/48
f 55/55/55 48/48/48 47/47/47
f 55/55/55 47/47/47 54/54/54
f 55/55/55 54/54/54 59/59/59
f 55/55/55 59/59/59 60/60/60
f 55/55/55 60/60/60 56/56/56
f 61/61/61 62/62/62 63/63/63
f 61/61/61 63/63/63 64/64/64
f 61/61/61 64/64/64 65/65/65
f 61/61/61 65/65/65 66/66/66
f 61/61/61 66/66/66 67/67/67
f 61/61/61 67/67/67 68/68/68
f 61/61/61 68/68/68 69/69/69
f 61/61/61 69/69/69 62/62/62
f 70/70/70 66/66/66 65/65/65
f 70/70/70 65/65/65 71/71/71
f 70/70/70 71/71/71 72/72/72
f 70/70/70 72/72/72 73/73/73
f 70/70/70 73/73/73 74/74/74
f 70/70/70 74/74/74 75/75/75
f 70/70/70 75/75/75 67/67/67
f 70/70/70 67/67/67 66/66/66
f 76/76/76 77/77/77 54/54/54
f 76/76/76 54/54/54 53/53/53
f 76/76/76 53/53/53 52/52/52
f 76/76/76 52/52/52 78/78/78
f 76/76/76 78/78/78 72/72/72
f 76/76/76 72/72/72 71/71/71
f 76/76/76 71/71/71 65/65/65
f 76/76/76 65/65/65 77/77/77
f 79/79/79 80/80/80 60/60/60
f 79/79/79 60/60/60 59/59/59
f 79/79/79 59/59/59 54/54/54
f 79/79/79 54/54/54 77/77/77
f 79/79/79 77/77/77 65/65/65
f 79/79/79 65/65/65 64/64/64
f 79/79/79 64/64/64 63/63/63
f 79/79/79 63/63/63 80/80/80
f 81/81/81 82/82/82 69/69/69
f 81/81/81 69/69/69 68/68/68
f 81/81/81 68/68/68 67/67/67
f 81/81/81 67/67/67 83/83/83
f 81/81/81 83/83/83 84/84/84
f 81/81/81 84/84/84 85/85/85
f 81/81/81 85/85/85 86/86/86
f 81/81/81 86/86/86 82/82/82
f 87/87/87 83/83/83 67/67/67
f 87/87/87 67/67/67 75/75/75
f 87/87/87 75/75/75 74/74/74
f 87/87/87 74/74/74 88/88/88
f 87/87/87 88/88/88 89/89/89
f 87/87/87 89/89/89 90/90/90
f 87/87/87 90/90/90 84/84/84
f 87/87/87 84/84/84 83/83/83
f 91/91/91 92/92/92 38/38/38
f 91/91/91 38/38/38 37/37/37
f 91/91/91 37/37/37 18/18/18
f 91/91/91 18/18/18 93/93/93
f 91/91/91 93/93/93 69/69/69
f 91/91/91 69/69/69 82/82/82
f 91/91/91 82/82/82 94/94/94
f 91/91/91 94/94/94 92/92/92
f 95/95/95 96/96/96 44/44/44
f 95/95/95 44/44/44 43/43/43
f 95/95/95 43/43/43 40/40/40
f 95/95/95 40/40/40 97/97/97
f 95/95/95 97/97/97 84/84/84
f 95/95/95 84/84/84 90/90/90
f 95/95/95 90/90/90 98/98/98
f 95/95/95 98/98/98 96/96/96
f 99/99/99 100/100/100 7/7/7
f 99/99/99 7/7/7 6/6/6
f 99/99/99 6/6/6 5/5/5
f 99/99/99 5/5/5 101/101/101
f 99/99/99 101/101/101 52/52/52
f 99/99/99 52/52/52 51/51/51
f 99/99/99 51/51/51 102/102/102
f 99/99/99 102/102/102 100/100/100
f 103/103/103 104/104/104 15/15/15
f 103/103/103 15/15/15 14/14/14
f 103/103/103 14/14/14 9/9/9
f 103/103/103 9/9/9 105/105/105
f 103/103/103 105/105/105 48/48/48
f 103/103/103 48/48/48 58/58/58
f 103/103/103 58/58/58 106/106/106
f 103/103/103 106/106/106 104/104/104
f 107/107/107 108/108/108 12/12/12
f 107/107/107 12/12/12 11/11/11
f 107/107/107 11/11/11 15/15/15
f 107/107/107 15/15/15 104/104/104
f 107/107/107 104/104/104 106/106/106
f 107/107/107 106/106/106 56/56/56
f 107/107/107 56/56/56 60/60/60
f 107/107/107 60/60/60 108/108/108
f 109/109/109 97/97/97 40/40/40
f 109/109/109 40/40/40 39/39/39
f 109/109/109 39/39/39 38/38/38
f 109/109/109 38/38/38 92/92/92
f 109/109/109 92/92/92 94/94/94
f 109/109/109 94/94/94 85/85/85
f 109/109/109 85/85/85 84/84/84
f 109/109/109 84/84/84 97/97/97
f 110/110/110 111/111/111 27/27/27
f 110/110/110 27/27/27 45/45/45
f 110/110/110 45/45/45 44/44/44
f 110/110/110 44/44/44 96/96/96
f 110/110/110 96/96/96 98/98/98
f 110/110/110 98/98/98 88/88/88
f 110/110/110 88/88/88 74/74/74
f 110/110/110 74/74/74 111/111/111
f 112/112/112 105/105/105 9/9/9
f 112/112/112 9/9/9 8/8/8
f 112/112/112 8/8/8 7/7/7
f 112/112/112 7/7/7 100/100/100
f 112/112/112 100/100/100 102/102/102
f 112/112/112 102/102/102 49/49/49
f 112/112/112 49/49/49 48/48/48
f 112/112/112 48/48/48 105/105/105
f 113/113/113 101/101/101 5/5/5
f 113/113/113 5/5/5 33/33/33
f 113/113/113 33/33/33 29/29/29
f 113/113/113 29/29/29 114/114/114
f 113/113/113 114/114/114 72/72/72
f 113/113/113 72/72/72 78/78/78
f 113/113/113 78/78/78 52/52/52
f 113/113/113 52/52/52 101/101/101
f 115/115/115 116/116/116 24/24/24
f 115/115/115 24/24/24 35/35/35
f 115/115/115 35/35/35 12/12/12
f 115/115/115 12/12/12 108/108/108
f 115/115/115 108/108/108 60/60/60
f 115/115/115 60/60/60 80/80/80
f 115/115/115 80/80/80 63/63/63
f 115/115/115 63/63/63 116/116/116
f 117/117/117 93/93/93 18/18/18
f 117/117/117 18/18/18 17/17/17
f 117/117/117 17/17/17 24/24/24
f 117/117/117 24/24/24 116/116/116
f 117/117/117 116/116/116 63/63/63
f 117/117/117 63/63/63 62/62/62
f 117/117/117 62/62/62 69/69/69
f 117/117/117 69/69/69 93/93/93
f 118/118/118 114/114/114 29/29/29
f 118/118/118 29/29/29 28/28/28
f 118/118/118 28/28/28 27/27/27
f 118/118/118 27/27/27 111/111/111
f 118/118/118 111/111/111 74/74/74
f 118/118/118 74/74/74 73/73/73
f 118/118/118 73/73/73 72/72/72
f 118/118/118 72/72/72 114/114/114
