v -2.380444 0.783765 -1.234294
v -2.381216 0.783373 -1.236744
v -2.383942 0.78222 -1.234953
v -2.38274 0.782725 -1.232374
v -2.382043 0.783285 -1.230321
v -2.380257 0.784176 -1.232214
v -2.379292 0.784435 -1.233822
v -2.378822 0.784365 -1.23575
v -2.379179 0.784105 -1.23807
v -2.383077 0.78337 -1.238558
v -2.384875 0.783483 -1.239691
v -2.387289 0.782497 -1.238815
v -2.385733 0.782276 -1.23722
v -2.381101 0.784023 -1.23944
v -2.383033 0.783873 -1.239877
v -2.393494 0.776944 -1.231864
v -2.394761 0.776991 -1.233569
v -2.39681 0.774729 -1.231425
v -2.395679 0.774676 -1.229923
v -2.394266 0.774719 -1.227881
v -2.391907 0.777004 -1.22955
v -2.389421 0.779073 -1.231278
v -2.391093 0.779033 -1.233693
v -2.392437 0.779116 -1.235467
v -2.390561 0.777384 -1.227116
v -2.393085 0.775065 -1.225724
v -2.392265 0.775411 -1.224067
v -2.389622 0.777762 -1.225249
v -2.387061 0.779923 -1.226765
v -2.388025 0.779493 -1.228727
v -2.385342 0.781288 -1.230499
v -2.386721 0.7808 -1.233105
v -2.384423 0.781816 -1.22848
v -2.388455 0.78082 -1.235539
v -2.389878 0.780997 -1.237312
v -2.397664 0.772351 -1.227741
v -2.398546 0.772436 -1.228845
v -2.399257 0.771092 -1.227147
v -2.399061 0.770559 -1.226026
v -2.398284 0.770512 -1.225009
v -2.396582 0.772349 -1.226231
v -2.395728 0.772641 -1.224607
v -2.397735 0.770758 -1.223879
v -2.396871 0.77145 -1.223284
v -2.395152 0.772945 -1.22335
v -2.380329 0.783519 -1.234298
v -2.38112 0.783121 -1.23678
v -2.379111 0.783915 -1.238095
v -2.378738 0.78418 -1.235749
v -2.379225 0.784299 -1.233815
v -2.380161 0.783996 -1.2322
v -2.381943 0.783106 -1.230317
v -2.382619 0.782482 -1.232387
v -2.383838 0.781973 -1.234995
v -2.383002 0.783118 -1.238625
v -2.384829 0.783295 -1.239758
v -2.382998 0.783733 -1.239922
v -2.381049 0.783833 -1.23949
v -2.385647 0.782028 -1.23729
v -2.387234 0.782312 -1.238882
v -2.393365 0.776719 -1.231952
v -2.394671 0.776823 -1.233644
v -2.392356 0.778942 -1.235539
v -2.390975 0.7788 -1.233774
v -2.38929 0.778842 -1.231337
v -2.391765 0.77678 -1.229617
v -2.394117 0.774502 -1.227953
v -2.395543 0.774457 -1.230015
v -2.396715 0.774565 -1.231505
v -2.390407 0.777163 -1.227162
v -2.387881 0.779265 -1.228764
v -2.386947 0.779754 -1.226782
v -2.3895 0.777599 -1.225273
v -2.392138 0.775252 -1.224095
v -2.392924 0.77485 -1.225775
v -2.38521 0.781051 -1.230524
v -2.386604 0.780559 -1.233155
v -2.384317 0.781641 -1.228486
v -2.388354 0.780579 -1.235613
v -2.38981 0.780816 -1.23738
v -2.397526 0.772135 -1.227836
v -2.39845 0.772274 -1.228928
v -2.39643 0.772134 -1.226305
v -2.39817 0.770351 -1.225065
v -2.398958 0.770398 -1.226099
v -2.399184 0.770972 -1.227206
v -2.395563 0.77243 -1.224659
v -2.395022 0.772788 -1.223378
v -2.396776 0.771333 -1.223307
v -2.39761 0.7706 -1.223917
v -2.398799 0.772392 -1.229252
v -2.399708 0.77062 -1.22683
v -2.397146 0.774673 -1.231963
v -2.399184 0.770972 -1.227206
v -2.398348 0.77006 -1.223653
v -2.397317 0.770979 -1.222959
v -2.398801 0.769828 -1.224627
v -2.396776 0.771333 -1.223307
v -2.38015 0.784234 -1.231511
v -2.379039 0.784557 -1.233645
v -2.381764 0.783393 -1.229632
v -2.379225 0.784299 -1.233815
v -2.38042 0.784156 -1.239757
v -2.383085 0.78395 -1.240196
v -2.378471 0.784264 -1.238522
v -2.382998 0.783733 -1.239922
v -2.385457 0.783437 -1.240102
v -2.387785 0.782489 -1.23938
v -2.399481 0.76989 -1.225487
v -2.3949 0.772977 -1.222941
v -2.391934 0.775456 -1.223524
v -2.378244 0.784482 -1.236234
v -2.384068 0.781914 -1.227807
v -2.386688 0.779992 -1.226116
v -2.390324 0.780976 -1.237936
v -2.392851 0.779067 -1.236093
v -2.395144 0.776932 -1.234173
v -2.389253 0.777816 -1.224635
vn -0.4314 0.8993 -0.0721
vn -0.3088 0.9455 0.1031
vn -0.3557 0.9249 0.134
vn -0.4676 0.8837 -0.0213
vn -0.4824 0.8759 -0.0004
vn -0.4281 0.9014 -0.0651
vn -0.3872 0.9154 -0.1099
vn -0.3388 0.9369 -0.0861
vn -0.2332 0.9709 0.0541
vn -0.2045 0.9333 0.2951
vn -0.2095 0.9342 0.2887
vn -0.2894 0.9049 0.312
vn -0.2647 0.9141 0.307
vn -0.1535 0.9647 0.2138
vn -0.1524 0.9507 0.2701
vn -0.4787 0.8056 0.3491
vn -0.5054 0.8003 0.3226
vn -0.528 0.7804 0.3348
vn -0.4957 0.7854 0.3708
vn -0.567 0.7752 0.2784
vn -0.5394 0.8013 0.2589
vn -0.481 0.8491 0.2184
vn -0.4191 0.8481 0.324
vn -0.4469 0.8392 0.31
vn -0.5925 0.7885 0.1648
vn -0.6178 0.767 0.173
vn -0.5999 0.7697 0.2182
vn -0.5805 0.789 0.2009
vn -0.5462 0.8243 0.1492
vn -0.5468 0.829 0.1171
vn -0.4999 0.8647 0.0474
vn -0.4125 0.8946 0.1719
vn -0.5116 0.8559 0.0751
vn -0.3388 0.8889 0.3081
vn -0.368 0.8774 0.3076
vn -0.4895 0.7759 0.398
vn -0.5273 0.7687 0.3619
vn -0.5192 0.7576 0.3954
vn -0.5112 0.7379 0.4405
vn -0.6141 0.7249 0.3121
vn -0.5796 0.7625 0.2874
vn -0.6384 0.7535 0.1569
vn -0.6828 0.7122 0.1626
vn -0.648 0.7383 0.1869
vn -0.6228 0.7544 0.2073
vn 0.462 -0.8829 0.0838
vn 0.3218 -0.9402 -0.1116
vn 0.3714 -0.9171 -0.1444
vn 0.5479 -0.8278 0.1206
vn 0.6101 -0.7653 0.2048
vn 0.5946 -0.7813 0.1896
vn 0.5707 -0.8108 0.1298
vn 0.4755 -0.879 0.0336
vn 0.3557 -0.925 -0.1339
vn 0.2066 -0.9212 -0.3296
vn 0.164 -0.8459 -0.5074
vn 0.1562 -0.8335 -0.5299
vn 0.2081 -0.8788 -0.4294
vn 0.257 -0.9118 -0.3201
vn 0.2088 -0.8651 -0.456
vn 0.4684 -0.8061 -0.3617
vn 0.3929 -0.8043 -0.4459
vn 0.3494 -0.8327 -0.4296
vn 0.41 -0.8479 -0.3361
vn 0.4811 -0.849 -0.2185
vn 0.5395 -0.8011 -0.2589
vn 0.5671 -0.7751 -0.2784
vn 0.4823 -0.7871 -0.3845
vn 0.3783 -0.7999 -0.4659
vn 0.5991 -0.7864 -0.15
vn 0.5535 -0.8263 -0.1039
vn 0.608 -0.7939 -0.011
vn 0.6397 -0.7672 -0.0462
vn 0.6505 -0.7591 -0.0251
vn 0.6241 -0.7658 -0.1549
vn 0.5066 -0.8614 -0.0348
vn 0.4125 -0.8946 -0.1719
vn 0.5778 -0.8142 0.0564
vn 0.3304 -0.8879 -0.3201
vn 0.2776 -0.8592 -0.4297
vn 0.4612 -0.7872 -0.4094
vn 0.3187 -0.8116 -0.4896
vn 0.572 -0.7703 -0.2819
vn 0.5374 -0.8031 -0.2575
vn 0.3681 -0.8229 -0.4327
vn 0.2785 -0.8202 -0.4996
vn 0.6367 -0.7609 -0.1252
vn 0.6457 -0.7625 0.0398
vn 0.6372 -0.7664 0.0812
vn 0.6184 -0.7853 -0.0275
vn -0.8253 -0.1454 -0.5456
vn -0.9296 -0.3188 -0.185
vn -0.7414 -0.0902 -0.6649
vn 0.2785 -0.8202 -0.4996
vn -0.5127 -0.5639 0.6474
vn -0.2279 -0.2128 0.9501
vn -0.5601 -0.7185 0.4123
vn 0.6372 -0.7664 0.0812
vn 0.6029 0.4867 0.6321
vn 0.7592 0.5451 0.3555
vn 0.492 0.3855 0.7805
vn 0.6101 -0.7653 0.2048
vn 0.4033 0.3167 -0.8585
vn -0.0185 0.4284 -0.9034
vn 0.8131 0.2498 -0.5257
vn 0.1562 -0.8335 -0.5299
vn -0.3302 0.3466 -0.878
vn -0.5036 0.2361 -0.831
vn -0.7601 -0.6011 0.2467
vn 0.1246 -0.0028 0.9922
vn 0.2639 0.0606 0.9626
vn 0.9188 0.3939 -0.0242
vn 0.4206 0.2842 0.8616
vn 0.3863 0.2124 0.8976
vn -0.5994 0.1311 -0.7896
vn -0.6408 0.0583 -0.7654
vn -0.6767 -0.0143 -0.736
vn 0.35 0.1397 0.9263
vt 0.839504 0.118056
vt 0.856743 0.205307
vt 0.741230 0.205307
vt 0.734555 0.106726
vt 0.724541 0.032791
vt 0.813647 0.052618
vt 0.868992 0.081539
vt 0.913398 0.129584
vt 0.940923 0.205307
vt 0.839504 0.292557
vt 0.813647 0.357995
vt 0.724541 0.377822
vt 0.734555 0.303887
vt 0.913398 0.281029
vt 0.868992 0.329074
vt 0.369475 0.299954
vt 0.368286 0.370940
vt 0.245840 0.351447
vt 0.246397 0.288815
vt 0.246768 0.205307
vt 0.370268 0.205307
vt 0.494283 0.205307
vt 0.492822 0.304944
vt 0.490632 0.379672
vt 0.369475 0.110659
vt 0.246397 0.121798
vt 0.245841 0.059166
vt 0.368286 0.039673
vt 0.490632 0.030941
vt 0.492822 0.105669
vt 0.616755 0.103478
vt 0.619174 0.205307
vt 0.613127 0.027106
vt 0.616755 0.307135
vt 0.613126 0.383507
vt 0.123273 0.268175
vt 0.123047 0.315326
vt 0.054743 0.283353
vt 0.030912 0.249131
vt 0.030973 0.205306
vt 0.123423 0.205306
vt 0.123273 0.142438
vt 0.030912 0.161481
vt 0.054744 0.127260
vt 0.123047 0.095287
vt 0.839504 0.118056
vt 0.856743 0.205307
vt 0.968983 0.205307
vt 0.938030 0.133427
vt 0.876123 0.061548
vt 0.805028 0.030806
vt 0.721203 0.008146
vt 0.734555 0.106726
vt 0.741230 0.205307
vt 0.839504 0.292557
vt 0.805028 0.379807
vt 0.876123 0.349065
vt 0.938030 0.277186
vt 0.734555 0.303887
vt 0.721203 0.402467
vt 0.369475 0.299954
vt 0.367890 0.394602
vt 0.489902 0.404581
vt 0.492822 0.304944
vt 0.494283 0.205307
vt 0.370268 0.205307
vt 0.246768 0.205307
vt 0.246397 0.288815
vt 0.245655 0.372324
vt 0.369475 0.110659
vt 0.492822 0.105669
vt 0.489902 0.006032
vt 0.367890 0.016011
vt 0.245655 0.038289
vt 0.246397 0.121798
vt 0.616755 0.103478
vt 0.619174 0.205307
vt 0.611917 0.001649
vt 0.616755 0.307135
vt 0.611917 0.408964
vt 0.123273 0.268175
vt 0.122972 0.331043
vt 0.123423 0.205306
vt 0.000156 0.205306
vt 0.000125 0.242784
vt 0.000064 0.280261
vt 0.123273 0.142438
vt 0.122972 0.079570
vt 0.000064 0.130352
vt 0.000125 0.167829
vt 0.122972 0.331043
vt 0.030806 0.283587
vt 0.245655 0.372324
vt 0.030806 0.283587
vt 0.000125 0.167829
vt 0.030806 0.127026
vt 0.000156 0.205306
vt 0.030806 0.127026
vt 0.805028 0.030806
vt 0.873826 0.071832
vt 0.721203 0.008146
vt 0.873826 0.071832
vt 0.938030 0.277186
vt 0.873826 0.338781
vt 0.968983 0.205307
vt 0.873826 0.338781
vt 0.805028 0.379807
vt 0.721203 0.402467
vt 0.000125 0.242784
vt 0.122972 0.079570
vt 0.245655 0.038289
vt 0.938030 0.133427
vt 0.611917 0.001649
vt 0.489902 0.006032
vt 0.611917 0.408964
vt 0.489902 0.404581
vt 0.367890 0.394602
vt 0.367890 0.016011
f 1/1/1 2/2/2 3/3/3
f 1/1/1 3/3/3 4/4/4
f 1/1/1 4/4/4 5/5/5
f 1/1/1 5/5/5 6/6/6
f 1/1/1 6/6/6 7/7/7
f 1/1/1 7/7/7 8/8/8
f 1/1/1 8/8/8 9/9/9
f 1/1/1 9/9/9 2/2/2
f 10/10/10 11/11/11 12/12/12
f 10/10/10 12/12/12 13/13/13
f 10/10/10 13/13/13 3/3/3
f 10/10/10 3/3/3 2/2/2
f 10/10/10 2/2/2 9/9/9
f 10/10/10 9/9/9 14/14/14
f 10/10/10 14/14/14 15/15/15
f 10/10/10 15/15/15 11/11/11
f 16/16/16 17/17/17 18/18/18
f 16/16/16 18/18/18 19/19/19
f 16/16/16 19/19/19 20/20/20
f 16/16/16 20/20/20 21/21/21
f 16/16/16 21/21/21 22/22/22
f 16/16/16 22/22/22 23/23/23
f 16/16/16 23/23/23 24/24/24
f 16/16/16 24/24/24 17/17/17
f 25/25/25 21/21/21 20/20/20
f 25/25/25 20/20/20 26/26/26
f 25/25/25 26/26/26 27/27/27
f 25/25/25 27/27/27 28/28/28
f 25/25/25 28/28/28 29/29/29
f 25/25/25 29/29/29 30/30/30
f 25/25/25 30/30/30 22/22/22
f 25/25/25 22/22/22 21/21/21
f 31/31/31 32/32/32 22/22/22
f 31/31/31 22/22/22 30/30/30
f 31/31/31 30/30/30 29/29/29
f 31/31/31 29/29/29 33/33/33
f 31/31/31 33/33/33 5/5/5
f 31/31/31 5/5/5 4/4/4
f 31/31/31 4/4/4 3/3/3
f 31/31/31 3/3/3 32/32/32
f 34/34/34 35/35/35 24/24/24
f 34/34/34 24/24/24 23/23/23
f 34/34/34 23/23/23 22/22/22
f 34/34/34 22/22/22 32/32/32
f 34/34/34 32/32/32 3/3/3
f 34/34/34 3/3/3 13/13/13
f 34/34/34 13/13/13 12/12/12
f 34/34/34 12/12/12 35/35/35
f 36/36/36 37/37/37 38/38/38
f 36/36/36 38/38/38 39/39/39
f 36/36/36 39/39/39 40/40/40
f 36/36/36 40/40/40 41/41/41
f 36/36/36 41/41/41 20/20/20
f 36/36/36 20/20/20 19/19/19
f 36/36/36 19/19/19 18/18/18
f 36/36/36 18/18/18 37/37/37
f 42/42/42 41/41/41 40/40/40
f 42/42/42 40/40/40 43/43/43
f 42/42/42 43/43/43 44/44/44
f 42/42/42 44/44/44 45/45/45
f 42/42/42 45/45/45 27/27/27
f 42/42/42 27/27/27 26/26/26
f 42/42/42 26/26/26 20/20/20
f 42/42/42 20/20/20 41/41/41
f 46/46/46 47/47/47 48/48/48
f 46/46/46 48/48/48 49/49/49
f 46/46/46 49/49/49 50/50/50
f 46/46/46 50/50/50 51/51/51
f 46/46/46 51/51/51 52/52/52
f 46/46/46 52/52/52 53/53/53
f 46/46/46 53/53/53 54/54/54
f 46/46/46 54/54/54 47/47/47
f 55/55/55 56/56/56 57/57/57
f 55/55/55 57/57/57 58/58/58
f 55/55/55 58/58/58 48/48/48
f 55/55/55 48/48/48 47/47/47
f 55/55/55 47/47/47 54/54/54
f 55/55/55 54/54/54 59/59/59
f 55/55/55 59/59/59 60/60/60
f 55/55/55 60/60/60 56/56/56
f 61/61/61 62/62/62 63/63/63
f 61/61/61 63/63/63 64/64/64
f 61/61/61 64/64/64 65/65/65
f 61/61/61 65/65/65 66/66/66
f 61/61/61 66/66/66 67/67/67
f 61/61/61 67/67/67 68/68/68
f 61/61/61 68/68/68 69/69/69
f 61/61/61 69/69/69 62/62/62
f 70/70/70 66/66/66 65/65/65
f 70/70/70 65/65/65 71/71/71
f 70/70/70 71/71/71 72/72/72
f 70/70/70 72/72/72 73/73/73
f 70/70/70 73/73/73 74/74/74
f 70/70/70 74/74/74 75/75/75
f 70/70/70 75/75/75 67/67/67
f 70/70/70 67/67/67 66/66/66
f 76/76/76 77/77/77 54/54/54
f 76/76/76 54/54/54 53/53/53
f 76/76/76 53/53/53 52/52/52
f 76/76/76 52/52/52 78/78/78
f 76/76/76 78/78/78 72/72/72
f 76/76/76 72/72/72 71/71/71
f 76/76/76 71/71/71 65/65/65
f 76/76/76 65/65/65 77/77/77
f 79/79/79 80/80/80 60/60/60
f 79/79/79 60/60/60 59/59/59
f 79/79/79 59/59/59 54/54/54
f 79/79/79 54/54/54 77/77/77
f 79/79/79 77/77/77 65/65/65
f 79/79/79 65/65/65 64/64/64
f 79/79/79 64/64/64 63/63/63
f 79/79/79 63/63/63 80/80/80
f 81/81/81 82/82/82 69/69/69
f 81/81/81 69/69/69 68/68/68
f 81/81/81 68/68/68 67/67/67
f 81/81/81 67/67/67 83/83/83
f 81/81/81 83/83/83 84/84/84
f 81/81/81 84/84/84 85/85/85
f 81/81/81 85/85/85 86/86/86
f 81/81/81 86/86/86 82/82/82
f 87/87/87 83/83/83 67/67/67
f 87/87/87 67/67/67 75/75/75
f 87/87/87 75/75/75 74/74/74
f 87/87/87 74/74/74 88/88/88
f 87/87/87 88/88/88 89/89/89
f 87/87/87 89/89/89 90/90/90
f 87/87/87 90/90/90 84/84/84
f 87/87/87 84/84/84 83/83/83
f 91/91/91 92/92/92 38/38/38
f 91/91/91 38/38/38 37/37/37
f 91/91/91 37/37/37 18/18/18
f 91/91/91 18/18/18 93/93/93
f 91/91/91 93/93/93 69/69/69
f 91/91/91 69/69/69 82/82/82
f 91/91/91 82/82/82 94/94/94
f 91/91/91 94/94/94 92/92/92
f 95/95/95 96/96/96 44/44/44
f 95/95/95 44/44/44 43/43/43
f 95/95/95 43/43/43 40/40/40
f 95/95/95 40/40/40 97/97/97
f 95/95/95 97/97/97 84/84/84
f 95/95/95 84/84/84 90/90/90
f 95/95/95 90/90/90 98/98/98
f 95/95/95 98/98/98 96/96/96
f 99/99/99 100/100/100 7/7/7
f 99/99/99 7/7/7 6/6/6
f 99/99/99 6/6/6 5/5/5
f 99/99/99 5/5/5 101/101/101
f 99/99/99 101/101/101 52/52/52
f 99/99/99 52/52/52 51/51/51
f 99/99/99 51/51/51 102/102/102
f 99/99/99 102/102/102 100/100/100
f 103/103/103 104/104/104 15/15/15
f 103/103/103 15/15/15 14/14/14
f 103/103/103 14/14/14 9/9/9
f 103/103/103 9/9/9 105/105/105
f 103/103/103 105/105/105 48/48/48
f 103/103/103 48/48/48 58/58/58
f 103/103/103 58/58/58 106/106/106
f 103/103/103 106/106/106 104/104/104
f 107/107/107 108/108/108 12/12/12
f 107/107/107 12/12/12 11/11/11
f 107/107/107 11/11/11 15/15/15
f 107/107/107 15/15/15 104/104/104
f 107/107/107 104/104/104 106/106/106
f 107/107/107 106/106/106 56/56/56
f 107/107/107 56/56/56 60/60/60
f 107/107/107 60/60/60 108/108/108
f 109/109/109 97/97/97 40/40/40
f 109/109/109 40/40/40 39/39/39
f 109/109/109 39/39/39 38/38/38
f 109/109/109 38/38/38 92/92/92
f 109/109/109 92/92/92 94/94/94
f 109/109/109 94/94/94 85/85/85
f 109/109/109 85/85/85 84/84/84
f 109/109/109 84/84/84 97/97/97
f 110/110/110 111/111/111 27/27/27
f 110/110/110 27/27/27 45/45/45
f 110/110/110 45/45/45 44/44/44
f 110/110/110 44/44/44 96/96/96
f 110/110/110 96/96/96 98/98/98
f 110/110/110 98/98/98 88/88/88
f 110/110/110 88/88/88 74/74/74
f 110/110/110 74/74/74 111/111/111
f 112/112/112 105/105/105 9/9/9
f 112/112/112 9/9/9 8/8/8
f 112/112/112 8/8/8 7/7/7
f 112/112/112 7/7/7 100/100/100
f 112/112/112 100/100/100 102/102/102
f 112/112/112 102/102/102 49/49/49
f 112/112/112 49/49/49 48/48/48
f 112/112/112 48/48/48 105/105/105
f 113/113/113 101/101/101 5/5/5
f 113/113/113 5/5/5 33/33/33
f 113/113/113 33/33/33 29/29/29
f 113/113/113 29/29/29 114/114/114
f 113/113/113 114/114/114 72/72/72
f 113/113/113 72/72/72 78/78/78
f 113/113/113 78/78/78 52/52/52
f 113/113/113 52/52/52 101/101/101
f 115/115/115 116/116/116 24/24/24
f 115/115/115 24/24/24 35/35/35
f 115/115/115 35/35/35 12/12/12
f 115/115/115 12/12/12 108/108/108
f 115/115/115 108/108/108 60/60/60
f 115/115/115 60/60/60 80/80/80
f 115/115/115 80/80/80 63/63/63
f 115/115/115 63/63/63 116/116/116
f 117/117/117 93/93/93 18/18/18
f 117/117/117 18/18/18 17/17/17
f 117/117/117 17/17/17 24/24/24
f 117/117/117 24/24/24 116/116/116
f 117/117/117 116/116/116 63/63/63
f 117/117/117 63/63/63 62/62/62
f 117/117/117 62/62/62 69/69/69
f 117/117/117 69/69/69 93/93/93
f 118/118/118 114/114/114 29/29/29
f 118/118/118 29/29/29 28/28/28
f 118/118/118 28/28/28 27/27/27
f 118/118/118 27/27/27 111/111/111
f 118/118/118 111/111/111 74/74/74
f 118/118/118 74/74/74 73/73/73
f 118/118/118 73/73/73 72/72/72
f 118/118/118 72/72/72 114/114/114
