v -2.395046 0.723869 -1.07671
v -2.392489 0.724383 -1.0772
v -2.393845 0.724306 -1.08046
v -2.396576 0.72366 -1.079552
v -2.398778 0.723409 -1.078992
v -2.397213 0.723724 -1.076682
v -2.395733 0.723816 -1.075444
v -2.393832 0.723918 -1.074748
v -2.391456 0.724325 -1.074825
v -2.39061 0.725631 -1.078596
v -2.389434 0.726813 -1.07999
v -2.389941 0.726918 -1.082749
v -2.391535 0.725662 -1.081696
v -2.389992 0.725443 -1.076381
v -2.389433 0.726318 -1.078122
v -2.395134 0.723582 -1.091943
v -2.393402 0.724569 -1.092797
v -2.394859 0.723121 -1.096003
v -2.396383 0.722234 -1.095242
v -2.398478 0.72119 -1.094268
v -2.39751 0.722415 -1.090847
v -2.396436 0.723402 -1.087399
v -2.39396 0.724647 -1.088547
v -2.392165 0.725717 -1.089444
v -2.400074 0.721621 -1.089843
v -2.400752 0.720499 -1.093385
v -2.402515 0.720081 -1.092749
v -2.402057 0.721132 -1.089117
v -2.401219 0.722121 -1.085595
v -2.399127 0.722595 -1.08635
v -2.397949 0.723255 -1.082843
v -2.395187 0.724005 -1.083898
v -2.40012 0.722877 -1.082091
v -2.392706 0.725337 -1.085072
v -2.390932 0.726526 -1.085998
v -2.397866 0.720693 -1.098425
v -2.396755 0.721409 -1.099009
v -2.398063 0.720223 -1.100523
v -2.399047 0.719435 -1.100763
v -2.400077 0.718819 -1.100243
v -2.399408 0.719873 -1.097686
v -2.401126 0.719398 -1.097039
v -2.401281 0.718548 -1.099813
v -2.402083 0.718626 -1.098814
v -2.402471 0.719139 -1.096578
v -2.394986 0.723599 -1.076717
v -2.392395 0.724123 -1.077222
v -2.391387 0.72413 -1.074845
v -2.39379 0.723715 -1.074757
v -2.395709 0.723664 -1.075445
v -2.397186 0.723517 -1.07668
v -2.398743 0.723203 -1.078984
v -2.396508 0.723391 -1.079551
v -2.393747 0.724046 -1.080472
v -2.390483 0.725386 -1.078632
v -2.389323 0.726639 -1.080022
v -2.389356 0.726187 -1.078147
v -2.389898 0.725261 -1.076412
v -2.391407 0.725417 -1.081719
v -2.389832 0.726742 -1.082773
v -2.394997 0.723341 -1.091915
v -2.393289 0.724393 -1.09278
v -2.392055 0.725539 -1.089439
v -2.393827 0.724403 -1.088534
v -2.396325 0.723147 -1.087376
v -2.397394 0.722164 -1.09081
v -2.398359 0.720942 -1.09422
v -2.396244 0.721996 -1.095204
v -2.394744 0.722947 -1.095979
v -2.39998 0.721362 -1.089796
v -2.39904 0.722333 -1.086318
v -2.401165 0.721921 -1.085565
v -2.401998 0.720935 -1.089078
v -2.402453 0.719886 -1.092702
v -2.400655 0.720244 -1.093328
v -2.397871 0.722989 -1.082826
v -2.395083 0.723748 -1.083894
v -2.400075 0.722674 -1.082073
v -2.392577 0.725092 -1.085078
v -2.390822 0.726348 -1.086007
v -2.397724 0.720456 -1.098383
v -2.396637 0.721237 -1.098982
v -2.399288 0.719626 -1.097635
v -2.399987 0.718635 -1.100203
v -2.39894 0.719259 -1.100732
v -2.397979 0.720094 -1.100503
v -2.40103 0.719144 -1.096977
v -2.402411 0.718944 -1.096528
v -2.402035 0.718484 -1.098778
v -2.40121 0.718357 -1.099766
v -2.396329 0.721572 -1.099193
v -2.398238 0.719958 -1.101193
v -2.394298 0.72334 -1.096247
v -2.397979 0.720094 -1.100503
v -2.401302 0.71818 -1.100717
v -2.402265 0.718359 -1.099481
v -2.400259 0.718386 -1.101077
v -2.402035 0.718484 -1.098778
v -2.397928 0.723583 -1.07667
v -2.395951 0.723768 -1.075187
v -2.3995 0.723232 -1.0788
v -2.395709 0.723664 -1.075445
v -2.389745 0.7253 -1.075657
v -2.389135 0.726474 -1.078085
v -2.391082 0.724219 -1.074043
v -2.389356 0.726187 -1.078147
v -2.38899 0.727132 -1.08047
v -2.389358 0.72726 -1.083112
v -2.399393 0.718938 -1.101528
v -2.402895 0.718965 -1.096401
v -2.403077 0.719854 -1.092515
v -2.39341 0.723844 -1.074099
v -2.400826 0.72266 -1.081832
v -2.401895 0.721873 -1.085329
v -2.390289 0.726845 -1.086312
v -2.391515 0.725995 -1.089742
v -2.392772 0.724821 -1.093075
v -2.402695 0.720881 -1.088857
vn -0.1313 0.9909 0.0276
vn -0.3179 0.9392 0.1295
vn -0.3406 0.9373 0.0742
vn -0.175 0.9844 -0.019
vn -0.1927 0.9805 -0.0388
vn -0.1388 0.9898 0.0303
vn -0.1007 0.9917 0.0796
vn -0.1312 0.983 0.1282
vn -0.2801 0.9356 0.215
vn -0.5055 0.8423 0.1868
vn -0.4994 0.8466 0.1836
vn -0.5112 0.854 0.0966
vn -0.5096 0.8515 0.1233
vn -0.437 0.8616 0.2582
vn -0.488 0.8379 0.2442
vn -0.5141 0.8492 -0.1202
vn -0.4858 0.8624 -0.1421
vn -0.4918 0.8534 -0.1727
vn -0.5294 0.8354 -0.1475
vn -0.4341 0.8782 -0.2008
vn -0.4229 0.8916 -0.1619
vn -0.3981 0.9136 -0.083
vn -0.5029 0.8632 -0.0449
vn -0.4859 0.8711 -0.0712
vn -0.3262 0.9239 -0.2001
vn -0.3278 0.9155 -0.2333
vn -0.373 0.9006 -0.2232
vn -0.3619 0.9116 -0.1948
vn -0.322 0.9362 -0.1409
vn -0.2921 0.9469 -0.1345
vn -0.2355 0.9696 -0.0665
vn -0.3673 0.9301 0.0047
vn -0.2595 0.962 -0.085
vn -0.5012 0.8641 0.0464
vn -0.4965 0.8679 0.0157
vn -0.5536 0.8191 -0.1504
vn -0.5153 0.8375 -0.1816
vn -0.5453 0.8177 -0.1845
vn -0.5844 0.7882 -0.1929
vn -0.4523 0.8501 -0.2698
vn -0.4391 0.8713 -0.219
vn -0.3079 0.9166 -0.2549
vn -0.3013 0.9006 -0.3133
vn -0.3327 0.9021 -0.2748
vn -0.3576 0.9002 -0.2485
vn 0.1146 -0.9934 0.0048
vn 0.3243 -0.939 -0.1143
vn 0.3481 -0.9358 -0.0553
vn 0.0616 -0.9931 0.0994
vn -0.0381 -0.9849 0.169
vn -0.0188 -0.9884 0.1507
vn 0.0473 -0.9909 0.1257
vn 0.1616 -0.9865 0.0262
vn 0.3406 -0.9373 -0.0743
vn 0.5359 -0.8261 -0.1743
vn 0.6915 -0.7064 -0.1512
vn 0.7105 -0.6876 -0.1492
vn 0.6219 -0.7706 -0.1388
vn 0.5221 -0.8433 -0.127
vn 0.6446 -0.7537 -0.1281
vn 0.5269 -0.8424 0.1129
vn 0.6113 -0.7891 0.0598
vn 0.6045 -0.7966 0.0064
vn 0.515 -0.8563 0.0389
vn 0.3981 -0.9135 0.0832
vn 0.423 -0.8915 0.1621
vn 0.4342 -0.8781 0.2009
vn 0.5436 -0.828 0.137
vn 0.6303 -0.7746 0.052
vn 0.3111 -0.9281 0.2046
vn 0.2783 -0.9503 0.1395
vn 0.1779 -0.966 0.1877
vn 0.204 -0.9508 0.233
vn 0.1811 -0.953 0.2429
vn 0.3097 -0.9209 0.2365
vn 0.2221 -0.9723 0.072
vn 0.3673 -0.9301 -0.0048
vn 0.1189 -0.9827 0.1418
vn 0.5129 -0.8569 -0.0516
vn 0.6144 -0.786 -0.0688
vn 0.5687 -0.8134 0.1222
vn 0.6589 -0.7522 -0.0021
vn 0.4361 -0.8755 0.208
vn 0.4221 -0.8925 0.1592
vn 0.6043 -0.7962 0.0277
vn 0.6726 -0.7389 -0.04
vn 0.2791 -0.9284 0.2452
vn 0.1193 -0.9665 0.2271
vn 0.0806 -0.974 0.2116
vn 0.1914 -0.9602 0.2033
vn 0.6014 0.3665 -0.7099
vn 0.3001 0.195 -0.9338
vn 0.6997 0.3987 -0.5928
vn 0.6726 -0.7389 -0.04
vn -0.4653 -0.375 -0.8017
vn -0.8573 -0.2644 -0.4416
vn -0.1976 -0.44 -0.876
vn 0.0806 -0.974 0.2116
vn -0.7591 0.0145 0.6507
vn -0.5126 0.0465 0.8574
vn -0.8729 -0.0503 0.4853
vn -0.0381 -0.9849 0.169
vn 0.7351 0.2539 0.6286
vn 0.7705 0.5558 0.312
vn 0.4105 -0.0601 0.9098
vn 0.7105 -0.6876 -0.1492
vn 0.7799 0.6258 -0.0035
vn 0.7695 0.6021 -0.2129
vn -0.0566 -0.2126 -0.9755
vn -0.9658 -0.2557 -0.0435
vn -0.959 -0.26 0.1126
vn -0.115 -0.0835 0.9898
vn -0.923 -0.1202 0.3654
vn -0.9388 -0.1733 0.2977
vn 0.7597 0.5479 -0.3503
vn 0.756 0.4995 -0.423
vn 0.747 0.4479 -0.4912
vn -0.9471 -0.2248 0.2289
vt 0.839504 0.118056
vt 0.856743 0.205307
vt 0.741230 0.205307
vt 0.734555 0.106726
vt 0.724541 0.032791
vt 0.813647 0.052618
vt 0.868992 0.081539
vt 0.913398 0.129584
vt 0.940923 0.205307
vt 0.839504 0.292557
vt 0.813647 0.357995
vt 0.724541 0.377822
vt 0.734555 0.303887
vt 0.913398 0.281029
vt 0.868992 0.329074
vt 0.369475 0.299954
vt 0.368286 0.370940
vt 0.245840 0.351447
vt 0.246397 0.288815
vt 0.246768 0.205307
vt 0.370268 0.205307
vt 0.494283 0.205307
vt 0.492822 0.304944
vt 0.490632 0.379672
vt 0.369475 0.110659
vt 0.246397 0.121798
vt 0.245841 0.059166
vt 0.368286 0.039673
vt 0.490632 0.030941
vt 0.492822 0.105669
vt 0.616755 0.103478
vt 0.619174 0.205307
vt 0.613127 0.027106
vt 0.616755 0.307135
vt 0.613126 0.383507
vt 0.123273 0.268175
vt 0.123047 0.315326
vt 0.054743 0.283353
vt 0.030912 0.249131
vt 0.030973 0.205306
vt 0.123423 0.205306
vt 0.123273 0.142438
vt 0.030912 0.161481
vt 0.054744 0.127260
vt 0.123047 0.095287
vt 0.839504 0.118056
vt 0.856743 0.205307
vt 0.968983 0.205307
vt 0.938030 0.133427
vt 0.876123 0.061548
vt 0.805028 0.030806
vt 0.721203 0.008146
vt 0.734555 0.106726
vt 0.741230 0.205307
vt 0.839504 0.292557
vt 0.805028 0.379807
vt 0.876123 0.349065
vt 0.938030 0.277186
vt 0.734555 0.303887
vt 0.721203 0.402467
vt 0.369475 0.299954
vt 0.367890 0.394602
vt 0.489902 0.404581
vt 0.492822 0.304944
vt 0.494283 0.205307
vt 0.370268 0.205307
vt 0.246768 0.205307
vt 0.246397 0.288815
vt 0.245655 0.372324
vt 0.369475 0.110659
vt 0.492822 0.105669
vt 0.489902 0.006032
vt 0.367890 0.016011
vt 0.245655 0.038289
vt 0.246397 0.121798
vt 0.616755 0.103478
vt 0.619174 0.205307
vt 0.611917 0.001649
vt 0.616755 0.307135
vt 0.611917 0.408964
vt 0.123273 0.268175
vt 0.122972 0.331043
vt 0.123423 0.205306
vt 0.000156 0.205306
vt 0.000125 0.242784
vt 0.000064 0.280261
vt 0.123273 0.142438
vt 0.122972 0.079570
vt 0.000064 0.130352
vt 0.000125 0.167829
vt 0.122972 0.331043
vt 0.030806 0.283587
vt 0.245655 0.372324
vt 0.030806 0.283587
vt 0.000125 0.167829
vt 0.030806 0.127026
vt 0.000156 0.205306
vt 0.030806 0.127026
vt 0.805028 0.030806
vt 0.873826 0.071832
vt 0.721203 0.008146
vt 0.873826 0.071832
vt 0.938030 0.277186
vt 0.873826 0.338781
vt 0.968983 0.205307
vt 0.873826 0.338781
vt 0.805028 0.379807
vt 0.721203 0.402467
vt 0.000125 0.242784
vt 0.122972 0.079570
vt 0.245655 0.038289
vt 0.938030 0.133427
vt 0.611917 0.001649
vt 0.489902 0.006032
vt 0.611917 0.408964
vt 0.489902 0.404581
vt 0.367890 0.394602
vt 0.367890 0.016011
f 1/1/1 2/2/2 3/3/3
f 1/1/1 3/3/3 4/4/4
f 1/1/1 4/4/4 5/5/5
f 1/1/1 5/5/5 6/6/6
f 1/1/1 6/6/6 7/7/7
f 1/1/1 7/7/7 8/8/8
f 1/1/1 8/8/8 9/9/9
f 1/1/1 9/9/9 2/2/2
f 10/10/10 11/11/11 12/12/12
f 10/10/10 12/12/12 13/13/13
f 10/10/10 13/13/13 3/3/3
f 10/10/10 3/3/3 2/2/2
f 10/10/10 2/2/2 9/9/9
f 10/10/10 9/9/9 14/14/14
f 10/10/10 14/14/14 15/15/15
f 10/10/10 15/15/15 11/11/11
f 16/16/16 17/17/17 18/18/18
f 16/16/16 18/18/18 19/19/19
f 16/16/16 19/19/19 20/20/20
f 16/16/16 20/20/20 21/21/21
f 16/16/16 21/21/21 22/22/22
f 16/16/16 22/22/22 23/23/23
f 16/16/16 23/23/23 24/24/24
f 16/16/16 24/24/24 17/17/17
f 25/25/25 21/21/21 20/20/20
f 25/25/25 20/20/20 26/26/26
f 25/25/25 26/26/26 27/27/27
f 25/25/25 27/27/27 28/28/28
f 25/25/25 28/28/28 29/29/29
f 25/25/25 29/29/29 30/30/30
f 25/25/25 30/30/30 22/22/22
f 25/25/25 22/22/22 21/21/21
f 31/31/31 32/32/32 22/22/22
f 31/31/31 22/22/22 30/30/30
f 31/31/31 30/30/30 29/29/29
f 31/31/31 29/29/29 33/33/33
f 31/31/31 33/33/33 5/5/5
f 31/31/31 5/5/5 4/4/4
f 31/31/31 4/4/4 3/3/3
f 31/31/31 3/3/3 32/32/32
f 34/34/34 35/35/35 24/24/24
f 34/34/34 24/24/24 23/23/23
f 34/34/34 23/23/23 22/22/22
f 34/34/34 22/22/22 32/32/32
f 34/34/34 32/32/32 3/3/3
f 34/34/34 3/3/3 13/13/13
f 34/34/34 13/13/13 12/12/12
f 34/34/34 12/12/12 35/35/35
f 36/36/36 37/37/37 38/38/38
f 36/36/36 38/38/38 39/39/39
f 36/36/36 39/39/39 40/40/40
f 36/36/36 40/40/40 41/41/41
f 36/36/36 41/41/41 20/20/20
f 36/36/36 20/20/20 19/19/19
f 36/36/36 19/19/19 18/18/18
f 36/36/36 18/18/18 37/37/37
f 42/42/42 41/41/41 40/40/40
f 42/42/42 40/40/40 43/43/43
f 42/42/42 43/43/43 44/44/44
f 42/42/42 44/44/44 45/45/45
f 42/42/42 45/45/45 27/27/27
f 42/42/42 27/27/27 26/26/26
f 42/42/42 26/26/26 20/20/20
f 42/42/42 20/20/20 41/41/41
f 46/46/46 47/47/47 48/48/48
f 46/46/46 48/48/48 49/49/49
f 46/46/46 49/49/49 50/50/50
f 46/46/46 50/50/50 51/51/51
f 46/46/46 51/51/51 52/52/52
f 46/46/46 52/52/52 53/53/53
f 46/46/46 53/53/53 54/54/54
f 46/46/46 54/54/54 47/47/47
f 55/55/55 56/56/56 57/57/57
f 55/55/55 57/57/57 58/58/58
f 55/55/55 58/58/58 48/48/48
f 55/55/55 48/48/48 47/47/47
f 55/55/55 47/47/47 54/54/54
f 55/55/55 54/54/54 59/59/59
f 55/55/55 59/59/59 60/60/60
f 55/55/55 60/60/60 56/56/56
f 61/61/61 62/62/62 63/63/63
f 61/61/61 63/63/63 64/64/64
f 61/61/61 64/64/64 65/65/65
f 61/61/61 65/65/65 66/66/66
f 61/61/61 66/66/66 67/67/67
f 61/61/61 67/67/67 68/68/68
f 61/61/61 68/68/68 69/69/69
f 61/61/61 69/69/69 62/62/62
f 70/70/70 66/66/66 65/65/65
f 70/70/70 65/65/65 71/71/71
f 70/70/70 71/71/71 72/72/72
f 70/70/70 72/72/72 73/73/73
f 70/70/70 73/73/73 74/74/74
f 70/70/70 74/74/74 75/75/75
f 70/70/70 75/75/75 67/67/67
f 70/70/70 67/67/67 66/66/66
f 76/76/76 77/77/77 54/54/54
f 76/76/76 54/54/54 53/53/53
f 76/76/76 53/53/53 52/52/52
f 76/76/76 52/52/52 78/78/78
f 76/76/76 78/78/78 72/72/72
f 76/76/76 72/72/72 71/71/71
f 76/76/76 71/71/71 65/65/65
f 76/76/76 65/65/65 77/77/77
f 79/79/79 80/80/80 60/60/60
f 79/79/79 60/60/60 59/59/59
f 79/79/79 59/59/59 54/54/54
f 79/79/79 54/54/54 77/77/77
f 79/79/79 77/77/77 65/65/65
f 79/79/79 65/65/65 64/64/64
f 79/79/79 64/64/64 63/63/63
f 79/79/79 63/63/63 80/80/80
f 81/81/81 82/82/82 69/69/69
f 81/81/81 69/69/69 68/68/68
f 81/81/81 68/68/68 67/67/67
f 81/81/81 67/67/67 83/83/83
f 81/81/81 83/83/83 84/84/84
f 81/81/81 84/84/84 85/85/85
f 81/81/81 85/85/85 86/86/86
f 81/81/81 86/86/86 82/82/82
f 87/87/87 83/83/83 67/67/67
f 87/87/87 67/67/67 75/75/75
f 87/87/87 75/75/75 74/74/74
f 87/87/87 74/74/74 88/88/88
f 87/87/87 88/88/88 89/89/89
f 87/87/87 89/89/89 90/90/90
f 87/87/87 90/90/90 84/84/84
f 87/87/87 84/84/84 83/83/83
f 91/91/91 92/92/92 38/38/38
f 91/91/91 38/38/38 37/37/37
f 91/91/91 37/37/37 18/18/18
f 91/91/91 18/18/18 93/93/93
f 91/91/91 93/93/93 69/69/69
f 91/91/91 69/69/69 82/82/82
f 91/91/91 82/82/82 94/94/94
f 91/91/91 94/94/94 92/92/92
f 95/95/95 96/96/96 44/44/44
f 95/95/95 44/44/44 43/43/43
f 95/95/95 43/43/43 40/40/40
f 95/95/95 40/40/40 97/97/97
f 95/95/95 97/97/97 84/84/84
f 95/95/95 84/84/84 90/90/90
f 95/95/95 90/90/90 98/98/98
f 95/95/95 98/98/98 96/96/96
f 99/99/99 100/100/100 7/7/7
f 99/99/99 7/7/7 6/6/6
f 99/99/99 6/6/6 5/5/5
f 99/99/99 5/5/5 101/101/101
f 99/99/99 101/101/101 52/52/52
f 99/99/99 52/52/52 51/51/51
f 99/99/99 51/51/51 102/102/102
f 99/99/99 102/102/102 100/100/100
f 103/103/103 104/104/104 15/15/15
f 103/103/103 15/15/15 14/14/14
f 103/103/103 14/14/14 9/9/9
f 103/103/103 9/9/9 105/105/105
f 103/103/103 105/105/105 48/48/48
f 103/103/103 48/48/48 58/58/58
f 103/103/103 58/58/58 106/106/106
f 103/103/103 106/106/106 104/104/104
f 107/107/107 108/108/108 12/12/12
f 107/107/107 12/12/12 11/11/11
f 107/107/107 11/11/11 15/15/15
f 107/107/107 15/15/15 104/104/104
f 107/107/107 104/104/104 106/106/106
f 107/107/107 106/106/106 56/56/56
f 107/107/107 56/56/56 60/60/60
f 107/107/107 60/60/60 108/108/108
f 109/109/109 97/97/97 40/40/40
f 109/109/109 40/40/40 39/39/39
f 109/109/109 39/39/39 38/38/38
f 109/109/109 38/38/38 92/92/92
f 109/109/109 92/92/92 94/94/94
f 109/109/109 94/94/94 85/85/85
f 109/109/109 85/85/85 84/84/84
f 109/109/109 84/84/84 97/97/97
f 110/110/110 111/111/111 27/27/27
f 110/110/110 27/27/27 45/45/45
f 110/110/110 45/45/45 44/44/44
f 110/110/110 44/44/44 96/96/96
f 110/110/110 96/96/96 98/98/98
f 110/110/110 98/98/98 88/88/88
f 110/110/110 88/88/88 74/74/74
f 110/110/110 74/74/74 111/111/111
f 112/112/112 105/105/105 9/9/9
f 112/112/112 9/9/9 8/8/8
f 112/112/112 8/8/8 7/7/7
f 112/112/112 7/7/7 100/100/100
f 112/112/112 100/100/100 102/102/102
f 112/112/112 102/102/102 49/49/49
f 112/112/112 49/49/49 48/48/48
f 112/112/112 48/48/48 105/105/105
f 113/113/113 101/101/101 5/5/5
f 113/113/113 5/5/5 33/33/33
f 113/113/113 33/33/33 29/29/29
f 113/113/113 29/29/29 114/114/114
f 113/113/113 114/114/114 72/72/72
f 113/113/113 72/72/72 78/78/78
f 113/113/113 78/78/78 52/52/52
f 113/113/113 52/52/52 101/101/101
f 115/115/115 116/116/116 24/24/24
f 115/115/115 24/24/24 35/35/35
f 115/115/115 35/35/35 12/12/12
f 115/115/115 12/12/12 108/108/108
f 115/115/115 108/108/108 60/60/60
f 115/115/115 60/60/60 80/80/80
f 115/115/115 80/80/80 63/63/63
f 115/115/115 63/63/63 116/116/116
f 117/117/117 93/93/93 18/18/18
f 117/117/117 18/18/18 17/17/17
f 117/117/117 17/17/17 24/24/24
f 117/117/117 24/24/24 116/116/116
f 117/117/117 116/116/116 63/63/63
f 117/117/117 63/63/63 62/62/62
f 117/117/117 62/62/62 69/69/69
f 117/117/117 69/69/69 93/93/93
f 118/118/118 114/114/114 29/29/29
f 118/118/118 29/29/29 28/28/28
f 118/118/118 28/28/28 27/27/27
f 118/118/118 27/27/27 111/111/111
f 118/118/118 111/111/111 74/74/74
f 118/118/118 74/74/74 73/73/73
f 118/118/118 73/73/73 72/72/72
f 118/118/118 72/72/72 114/114/114
