v -2.395899 0.792826 -1.216285
v -2.393963 0.792712 -1.216728
v -2.394946 0.790654 -1.218073
v -2.397022 0.790976 -1.217381
v -2.398685 0.79124 -1.217061
v -2.397528 0.792801 -1.216252
v -2.396429 0.793601 -1.215749
v -2.395009 0.794062 -1.215465
v -2.393217 0.794164 -1.215676
v -2.392502 0.792341 -1.218026
v -2.39157 0.79195 -1.219304
v -2.391918 0.790273 -1.220528
v -2.393161 0.790425 -1.219359
v -2.392069 0.793642 -1.216972
v -2.391605 0.792912 -1.218221
v -2.395813 0.783189 -1.222419
v -2.394476 0.78305 -1.223333
v -2.395579 0.780459 -1.223803
v -2.396756 0.78058 -1.222983
v -2.398367 0.780773 -1.221994
v -2.397641 0.78341 -1.221311
v -2.396842 0.785965 -1.220465
v -2.394937 0.785743 -1.221639
v -2.39355 0.785611 -1.222622
v -2.399596 0.78373 -1.22048
v -2.400101 0.781058 -1.221269
v -2.401441 0.781297 -1.220799
v -2.401105 0.783997 -1.219937
v -2.400484 0.786601 -1.219069
v -2.398894 0.786309 -1.219612
v -2.398028 0.788764 -1.218534
v -2.395925 0.788392 -1.219352
v -2.399674 0.789095 -1.218055
v -2.394013 0.78819 -1.220591
v -2.392637 0.788089 -1.22166
v -2.39788 0.777965 -1.223386
v -2.39702 0.777887 -1.224039
v -2.398021 0.77646 -1.223968
v -2.398779 0.775993 -1.223606
v -2.399575 0.776071 -1.223039
v -2.399069 0.778099 -1.222617
v -2.400377 0.778322 -1.222106
v -2.40049 0.776237 -1.22273
v -2.401099 0.7769 -1.222391
v -2.401397 0.778513 -1.221796
v -2.395862 0.792709 -1.216118
v -2.393901 0.79259 -1.216572
v -2.393171 0.79407 -1.21556
v -2.394984 0.793972 -1.21534
v -2.396416 0.793537 -1.215654
v -2.397513 0.792717 -1.216121
v -2.398665 0.79116 -1.216928
v -2.396979 0.790865 -1.21721
v -2.394881 0.790538 -1.217913
v -2.392415 0.792216 -1.217884
v -2.391492 0.791857 -1.219206
v -2.391551 0.792841 -1.218147
v -2.392003 0.793546 -1.216868
v -2.393073 0.790307 -1.219211
v -2.391841 0.790185 -1.220425
v -2.395719 0.783106 -1.222252
v -2.394398 0.782987 -1.223213
v -2.393473 0.785539 -1.222505
v -2.394845 0.785649 -1.221477
v -2.396767 0.785873 -1.220293
v -2.397562 0.783329 -1.221135
v -2.398287 0.7807 -1.221816
v -2.396659 0.780504 -1.222814
v -2.395498 0.780401 -1.223681
v -2.399534 0.783651 -1.220297
v -2.398837 0.786219 -1.219432
v -2.40045 0.786536 -1.21893
v -2.401067 0.78394 -1.219796
v -2.401402 0.781245 -1.220657
v -2.400037 0.780987 -1.221083
v -2.397978 0.788663 -1.218359
v -2.395855 0.788287 -1.219186
v -2.399646 0.789021 -1.21792
v -2.393924 0.788084 -1.220436
v -2.392561 0.788009 -1.22155
v -2.397782 0.777892 -1.223216
v -2.396937 0.777832 -1.223918
v -2.398987 0.778029 -1.222438
v -2.399514 0.776019 -1.222905
v -2.398705 0.775938 -1.22348
v -2.397962 0.77642 -1.223876
v -2.400313 0.778254 -1.221919
v -2.401359 0.778464 -1.221652
v -2.401068 0.776863 -1.222285
v -2.400443 0.776187 -1.222589
v -2.396694 0.777837 -1.224204
v -2.398152 0.775934 -1.224085
v -2.395149 0.780393 -1.224024
v -2.397962 0.77642 -1.223876
v -2.400507 0.77552 -1.222875
v -2.401236 0.776375 -1.222505
v -2.399716 0.775372 -1.22312
v -2.401068 0.776863 -1.222285
v -2.398067 0.792756 -1.216181
v -2.396596 0.793743 -1.21562
v -2.399233 0.791293 -1.216894
v -2.396416 0.793537 -1.215654
v -2.391895 0.794033 -1.216575
v -2.391376 0.792997 -1.218294
v -2.392947 0.794605 -1.215274
v -2.391551 0.792841 -1.218147
v -2.391222 0.791778 -1.219688
v -2.391467 0.790183 -1.220874
v -2.399046 0.775311 -1.223624
v -2.401722 0.778555 -1.221628
v -2.401872 0.781354 -1.220579
v -2.394702 0.794434 -1.215137
v -2.400212 0.789173 -1.217834
v -2.401 0.786671 -1.218826
v -2.392143 0.78802 -1.221969
v -2.393052 0.785535 -1.222899
v -2.393994 0.782975 -1.223586
v -2.401592 0.784061 -1.219693
vn -0.0907 0.572 -0.8152
vn -0.2807 0.6304 -0.7237
vn -0.3027 0.5834 -0.7536
vn -0.134 0.53 -0.8373
vn -0.1516 0.5115 -0.8458
vn -0.0982 0.5736 -0.8132
vn -0.0608 0.6153 -0.7859
vn -0.0924 0.6514 -0.753
vn -0.2443 0.6992 -0.6718
vn -0.4731 0.6266 -0.6193
vn -0.4667 0.6265 -0.6243
vn -0.4769 0.558 -0.6791
vn -0.4758 0.5788 -0.6622
vn -0.4047 0.696 -0.593
vn -0.4566 0.6719 -0.5831
vn -0.4769 0.3746 -0.7951
vn -0.4479 0.3634 -0.8169
vn -0.4537 0.333 -0.8265
vn -0.4924 0.3444 -0.7993
vn -0.3947 0.3226 -0.8603
vn -0.3835 0.3623 -0.8495
vn -0.3589 0.4399 -0.8232
vn -0.4663 0.445 -0.7645
vn -0.4486 0.4273 -0.7849
vn -0.285 0.3472 -0.8934
vn -0.2865 0.315 -0.9048
vn -0.3323 0.3157 -0.8888
vn -0.3212 0.3453 -0.8818
vn -0.2811 0.4033 -0.8708
vn -0.2509 0.4142 -0.8749
vn -0.1943 0.4828 -0.8538
vn -0.3287 0.5219 -0.7871
vn -0.2185 0.4634 -0.8588
vn -0.4658 0.5217 -0.7147
vn -0.4606 0.4981 -0.7347
vn -0.5173 0.3332 -0.7883
vn -0.4777 0.3171 -0.8193
vn -0.5085 0.3041 -0.8055
vn -0.5487 0.2812 -0.7873
vn -0.413 0.2498 -0.8758
vn -0.3997 0.3037 -0.8649
vn -0.2663 0.2974 -0.9168
vn -0.2595 0.2397 -0.9355
vn -0.2915 0.273 -0.9168
vn -0.3167 0.2941 -0.9018
vn 0.0735 -0.5461 0.8345
vn 0.2869 -0.6177 0.7322
vn 0.3099 -0.5671 0.7631
vn 0.0191 -0.4665 0.8843
vn -0.0811 -0.4027 0.9117
vn -0.0617 -0.4201 0.9054
vn 0.0047 -0.4432 0.8964
vn 0.1205 -0.5249 0.8425
vn 0.3027 -0.5835 0.7535
vn 0.5038 -0.6076 0.614
vn 0.6641 -0.5238 0.5335
vn 0.6837 -0.5121 0.5199
vn 0.5915 -0.5484 0.591
vn 0.4887 -0.5776 0.6538
vn 0.6147 -0.5303 0.5838
vn 0.4901 -0.3772 0.7858
vn 0.5774 -0.3928 0.7158
vn 0.5711 -0.4414 0.692
vn 0.4787 -0.4464 0.756
vn 0.3589 -0.4398 0.8232
vn 0.3835 -0.3621 0.8495
vn 0.3947 -0.3225 0.8603
vn 0.5071 -0.3493 0.788
vn 0.5969 -0.3916 0.7002
vn 0.2697 -0.3457 0.8987
vn 0.2369 -0.4118 0.8799
vn 0.1352 -0.3791 0.9154
vn 0.1614 -0.3334 0.9289
vn 0.1383 -0.326 0.9352
vn 0.2681 -0.3151 0.9104
vn 0.1809 -0.4797 0.8586
vn 0.3287 -0.5219 0.7871
vn 0.0763 -0.426 0.9015
vn 0.4778 -0.5221 0.7064
vn 0.5824 -0.4984 0.6421
vn 0.5329 -0.3538 0.7686
vn 0.6273 -0.4246 0.6528
vn 0.3967 -0.3152 0.8621
vn 0.3826 -0.365 0.8487
vn 0.5705 -0.4235 0.7036
vn 0.6421 -0.449 0.6213
vn 0.2372 -0.3115 0.9201
vn 0.0761 -0.3458 0.9352
vn 0.0374 -0.3626 0.9312
vn 0.1487 -0.3631 0.9198
vn 0.6261 -0.3956 -0.6719
vn 0.3208 -0.6738 -0.6656
vn 0.724 -0.2815 -0.6298
vn 0.6421 -0.449 0.6213
vn -0.4689 -0.8703 -0.1503
vn -0.8611 -0.5048 -0.06
vn -0.203 -0.971 -0.1258
vn 0.0374 -0.3626 0.9312
vn -0.767 0.5588 0.3153
vn -0.5222 0.746 0.4132
vn -0.881 0.3863 0.2731
vn -0.0811 -0.4027 0.9117
vn 0.7364 0.6558 0.1665
vn 0.7881 0.5591 -0.2575
vn 0.395 0.7204 0.5701
vn 0.6837 -0.5121 0.5199
vn 0.8051 0.3346 -0.4897
vn 0.7966 0.1465 -0.5864
vn -0.0519 -0.9298 -0.3642
vn -0.9748 -0.1667 0.1483
vn -0.9704 -0.0393 0.2382
vn -0.1322 0.7801 0.6115
vn -0.9324 0.248 0.2629
vn -0.9492 0.1626 0.2691
vn 0.7862 0.0021 -0.6179
vn 0.7818 -0.0844 -0.6178
vn 0.7719 -0.1696 -0.6127
vn -0.9587 0.0772 0.2738
vt 0.839504 0.118056
vt 0.856743 0.205307
vt 0.741230 0.205307
vt 0.734555 0.106726
vt 0.724541 0.032791
vt 0.813647 0.052618
vt 0.868992 0.081539
vt 0.913398 0.129584
vt 0.940923 0.205307
vt 0.839504 0.292557
vt 0.813647 0.357995
vt 0.724541 0.377822
vt 0.734555 0.303887
vt 0.913398 0.281029
vt 0.868992 0.329074
vt 0.369475 0.299954
vt 0.368286 0.370940
vt 0.245840 0.351447
vt 0.246397 0.288815
vt 0.246768 0.205307
vt 0.370268 0.205307
vt 0.494283 0.205307
vt 0.492822 0.304944
vt 0.490632 0.379672
vt 0.369475 0.110659
vt 0.246397 0.121798
vt 0.245841 0.059166
vt 0.368286 0.039673
vt 0.490632 0.030941
vt 0.492822 0.105669
vt 0.616755 0.103478
vt 0.619174 0.205307
vt 0.613127 0.027106
vt 0.616755 0.307135
vt 0.613126 0.383507
vt 0.123273 0.268175
vt 0.123047 0.315326
vt 0.054743 0.283353
vt 0.030912 0.249131
vt 0.030973 0.205306
vt 0.123423 0.205306
vt 0.123273 0.142438
vt 0.030912 0.161481
vt 0.054744 0.127260
vt 0.123047 0.095287
vt 0.839504 0.118056
vt 0.856743 0.205307
vt 0.968983 0.205307
vt 0.938030 0.133427
vt 0.876123 0.061548
vt 0.805028 0.030806
vt 0.721203 0.008146
vt 0.734555 0.106726
vt 0.741230 0.205307
vt 0.839504 0.292557
vt 0.805028 0.379807
vt 0.876123 0.349065
vt 0.938030 0.277186
vt 0.734555 0.303887
vt 0.721203 0.402467
vt 0.369475 0.299954
vt 0.367890 0.394602
vt 0.489902 0.404581
vt 0.492822 0.304944
vt 0.494283 0.205307
vt 0.370268 0.205307
vt 0.246768 0.205307
vt 0.246397 0.288815
vt 0.245655 0.372324
vt 0.369475 0.110659
vt 0.492822 0.105669
vt 0.489902 0.006032
vt 0.367890 0.016011
vt 0.245655 0.038289
vt 0.246397 0.121798
vt 0.616755 0.103478
vt 0.619174 0.205307
vt 0.611917 0.001649
vt 0.616755 0.307135
vt 0.611917 0.408964
vt 0.123273 0.268175
vt 0.122972 0.331043
vt 0.123423 0.205306
vt 0.000156 0.205306
vt 0.000125 0.242784
vt 0.000064 0.280261
vt 0.123273 0.142438
vt 0.122972 0.079570
vt 0.000064 0.130352
vt 0.000125 0.167829
vt 0.122972 0.331043
vt 0.030806 0.283587
vt 0.245655 0.372324
vt 0.030806 0.283587
vt 0.000125 0.167829
vt 0.030806 0.127026
vt 0.000156 0.205306
vt 0.030806 0.127026
vt 0.805028 0.030806
vt 0.873826 0.071832
vt 0.721203 0.008146
vt 0.873826 0.071832
vt 0.938030 0.277186
vt 0.873826 0.338781
vt 0.968983 0.205307
vt 0.873826 0.338781
vt 0.805028 0.379807
vt 0.721203 0.402467
vt 0.000125 0.242784
vt 0.122972 0.079570
vt 0.245655 0.038289
vt 0.938030 0.133427
vt 0.611917 0.001649
vt 0.489902 0.006032
vt 0.611917 0.408964
vt 0.489902 0.404581
vt 0.367890 0.394602
vt 0.367890 0.016011
f 1/1/1 2/2/2 3/3/3
f 1/1/1 3/3/3 4/4/4
f 1/1/1 4/4/4 5/5/5
f 1/1/1 5/5/5 6/6/6
f 1/1/1 6/6/6 7/7/7
f 1/1/1 7/7/7 8/8/8
f 1/1/1 8/8/8 9/9/9
f 1/1/1 9/9/9 2/2/2
f 10/10/10 11/11/11 12/12/12
f 10/10/10 12/12/12 13/13/13
f 10/10/10 13/13/13 3/3/3
f 10/10/10 3/3/3 2/2/2
f 10/10/10 2/2/2 9/9/9
f 10/10/10 9/9/9 14/14/14
f 10/10/10 14/14/14 15/15/15
f 10/10/10 15/15/15 11/11/11
f 16/16/16 17/17/17 18/18/18
f 16/16/16 18/18/18 19/19/19
f 16/16/16 19/19/19 20/20/20
f 16/16/16 20/20/20 21/21/21
f 16/16/16 21/21/21 22/22/22
f 16/16/16 22/22/22 23/23/23
f 16/16/16 23/23/23 24/24/24
f 16/16/16 24/24/24 17/17/17
f 25/25/25 21/21/21 20/20/20
f 25/25/25 20/20/20 26/26/26
f 25/25/25 26/26/26 27/27/27
f 25/25/25 27/27/27 28/28/28
f 25/25/25 28/28/28 29/29/29
f 25/25/25 29/29/29 30/30/30
f 25/25/25 30/30/30 22/22/22
f 25/25/25 22/22/22 21/21/21
f 31/31/31 32/32/32 22/22/22
f 31/31/31 22/22/22 30/30/30
f 31/31/31 30/30/30 29/29/29
f 31/31/31 29/29/29 33/33/33
f 31/31/31 33/33/33 5/5/5
f 31/31/31 5/5/5 4/4/4
f 31/31/31 4/4/4 3/3/3
f 31/31/31 3/3/3 32/32/32
f 34/34/34 35/35/35 24/24/24
f 34/34/34 24/24/24 23/23/23
f 34/34/34 23/23/23 22/22/22
f 34/34/34 22/22/22 32/32/32
f 34/34/34 32/32/32 3/3/3
f 34/34/34 3/3/3 13/13/13
f 34/34/34 13/13/13 12/12/12
f 34/34/34 12/12/12 35/35/35
f 36/36/36 37/37/37 38/38/38
f 36/36/36 38/38/38 39/39/39
f 36/36/36 39/39/39 40/40/40
f 36/36/36 40/40/40 41/41/41
f 36/36/36 41/41/41 20/20/20
f 36/36/36 20/20/20 19/19/19
f 36/36/36 19/19/19 18/18/18
f 36/36/36 18/18/18 37/37/37
f 42/42/42 41/41/41 40/40/40
f 42/42/42 40/40/40 43/43/43
f 42/42/42 43/43/43 44/44/44
f 42/42/42 44/44/44 45/45/45
f 42/42/42 45/45/45 27/27/27
f 42/42/42 27/27/27 26/26/26
f 42/42/42 26/26/26 20/20/20
f 42/42/42 20/20/20 41/41/41
f 46/46/46 47/47/47 48/48/48
f 46/46/46 48/48/48 49/49/49
f 46/46/46 49/49/49 50/50/50
f 46/46/46 50/50/50 51/51/51
f 46/46/46 51/51/51 52/52/52
f 46/46/46 52/52/52 53/53/53
f 46/46/46 53/53/53 54/54/54
f 46/46/46 54/54/54 47/47/47
f 55/55/55 56/56/56 57/57/57
f 55/55/55 57/57/57 58/58/58
f 55/55/55 58/58/58 48/48/48
f 55/55/55 48/48/48 47/47/47
f 55/55/55 47/47/47 54/54/54
f 55/55/55 54/54/54 59/59/59
f 55/55/55 59/59/59 60/60/60
f 55/55/55 60/60/60 56/56/56
f 61/61/61 62/62/62 63/63/63
f 61/61/61 63/63/63 64/64/64
f 61/61/61 64/64/64 65/65/65
f 61/61/61 65/65/65 66/66/66
f 61/61/61 66/66/66 67/67/67
f 61/61/61 67/67/67 68/68/68
f 61/61/61 68/68/68 69/69/69
f 61/61/61 69/69/69 62/62/62
f 70/70/70 66/66/66 65/65/65
f 70/70/70 65/65/65 71/71/71
f 70/70/70 71/71/71 72/72/72
f 70/70/70 72/72/72 73/73/73
f 70/70/70 73/73/73 74/74/74
f 70/70/70 74/74/74 75/75/75
f 70/70/70 75/75/75 67/67/67
f 70/70/70 67/67/67 66/66/66
f 76/76/76 77/77/77 54/54/54
f 76/76/76 54/54/54 53/53/53
f 76/76/76 53/53/53 52/52/52
f 76/76/76 52/52/52 78/78/78
f 76/76/76 78/78/78 72/72/72
f 76/76/76 72/72/72 71/71/71
f 76/76/76 71/71/71 65/65/65
f 76/76/76 65/65/65 77/77/77
f 79/79/79 80/80/80 60/60/60
f 79/79/79 60/60/60 59/59/59
f 79/79/79 59/59/59 54/54/54
f 79/79/79 54/54/54 77/77/77
f 79/79/79 77/77/77 65/65/65
f 79/79/79 65/65/65 64/64/64
f 79/79/79 64/64/64 63/63/63
f 79/79/79 63/63/63 80/80/80
f 81/81/81 82/82/82 69/69/69
f 81/81/81 69/69/69 68/68/68
f 81/81/81 68/68/68 67/67/67
f 81/81/81 67/67/67 83/83/83
f 81/81/81 83/83/83 84/84/84
f 81/81/81 84/84/84 85/85/85
f 81/81/81 85/85/85 86/86/86
f 81/81/81 86/86/86 82/82/82
f 87/87/87 83/83/83 67/67/67
f 87/87/87 67/67/67 75/75/75
f 87/87/87 75/75/75 74/74/74
f 87/87/87 74/74/74 88/88/88
f 87/87/87 88/88/88 89/89/89
f 87/87/87 89/89/89 90/90/90
f 87/87/87 90/90/90 84/84/84
f 87/87/87 84/84/84 83/83/83
f 91/91/91 92/92/92 38/38/38
f 91/91/91 38/38/38 37/37/37
f 91/91/91 37/37/37 18/18/18
f 91/91/91 18/18/18 93/93/93
f 91/91/91 93/93/93 69/69/69
f 91/91/91 69/69/69 82/82/82
f 91/91/91 82/82/82 94/94/94
f 91/91/91 94/94/94 92/92/92
f 95/95/95 96/96/96 44/44/44
f 95/95/95 44/44/44 43/43/43
f 95/95/95 43/43/43 40/40/40
f 95/95/95 40/40/40 97/97/97
f 95/95/95 97/97/97 84/84/84
f 95/95/95 84/84/84 90/90/90
f 95/95/95 90/90/90 98/98/98
f 95/95/95 98/98/98 96/96/96
f 99/99/99 100/100/100 7/7/7
f 99/99/99 7/7/7 6/6/6
f 99/99/99 6/6/6 5/5/5
f 99/99/99 5/5/5 101/101/101
f 99/99/99 101/101/101 52/52/52
f 99/99/99 52/52/52 51/51/51
f 99/99/99 51/51/51 102/102/102
f 99/99/99 102/102/102 100/100/100
f 103/103/103 104/104/104 15/15/15
f 103/103/103 15/15/15 14/14/14
f 103/103/103 14/14/14 9/9/9
f 103/103/103 9/9/9 105/105/105
f 103/103/103 105/105/105 48/48/48
f 103/103/103 48/48/48 58/58/58
f 103/103/103 58/58/58 106/106/106
f 103/103/103 106/106/106 104/104/104
f 107/107/107 108/108/108 12/12/12
f 107/107/107 12/12/12 11/11/11
f 107/107/107 11/11/11 15/15/15
f 107/107/107 15/15/15 104/104/104
f 107/107/107 104/104/104 106/106/106
f 107/107/107 106/106/106 56/56/56
f 107/107/107 56/56/56 60/60/60
f 107/107/107 60/60/60 108/108/108
f 109/109/109 97/97/97 40/40/40
f 109/109/109 40/40/40 39/39/39
f 109/109/109 39/39/39 38/38/38
f 109/109/109 38/38/38 92/92/92
f 109/109/109 92/92/92 94/94/94
f 109/109/109 94/94/94 85/85/85
f 109/109/109 85/85/85 84/84/84
f 109/109/109 84/84/84 97/97/97
f 110/110/110 111/111/111 27/27/27
f 110/110/110 27/27/27 45/45/45
f 110/110/110 45/45/45 44/44/44
f 110/110/110 44/44/44 96/96/96
f 110/110/110 96/96/96 98/98/98
f 110/110/110 98/98/98 88/88/88
f 110/110/110 88/88/88 74/74/74
f 110/110/110 74/74/74 111/111/111
f 112/112/112 105/105/105 9/9/9
f 112/112/112 9/9/9 8/8/8
f 112/112/112 8/8/8 7/7/7
f 112/112/112 7/7/7 100/100/100
f 112/112/112 100/100/100 102/102/102
f 112/112/112 102/102/102 49/49/49
f 112/112/112 49/49/49 48/48/48
f 112/112/112 48/48/48 105/105/105
f 113/113/113 101/101/101 5/5/5
f 113/113/113 5/5/5 33/33/33
f 113/113/113 33/33/33 29/29/29
f 113/113/113 29/29/29 114/114/114
f 113/113/113 114/114/114 72/72/72
f 113/113/113 72/72/72 78/78/78
f 113/113/113 78/78/78 52/52/52
f 113/113/113 52/52/52 101/101/101
f 115/115/115 116/116/116 24/24/24
f 115/115/115 24/24/24 35/35/35
f 115/115/115 35/35/35 12/12/12
f 115/115/115 12/12/12 108/108/108
f 115/115/115 108/108/108 60/60/60
f 115/115/115 60/60/60 80/80/80
f 115/115/115 80/80/80 63/63/63
f 115/115/115 63/63/63 116/116/116
f 117/117/117 93/93/93 18/18/18
f 117/117/117 18/18/18 17/17/17
f 117/117/117 17/17/17 24/24/24
f 117/117/117 24/24/24 116/116/116
f 117/117/117 116/116/116 63/63/63
f 117/117/117 63/63/63 62/62/62
f 117/117/117 62/62/62 69/69/69
f 117/117/117 69/69/69 93/93/93
f 118/118/118 114/114/114 29/29/29
f 118/118/118 29/29/29 28/28/28
f 118/118/118 28/28/28 27/27/27
f 118/118/118 27/27/27 111/111/111
f 118/118/118 111/111/111 74/74/74
f 118/118/118 74/74/74 73/73/73
f 118/118/118 73/73/73 72/72/72
f 118/118/118 72/72/72 114/114/114
