v -2.4027 0.671054 -1.066886
v -2.40072 0.671853 -1.067486
v -2.401825 0.670975 -1.07008
v -2.403921 0.670111 -1.069107
v -2.405663 0.669598 -1.068509
v -2.404437 0.67054 -1.066742
v -2.403243 0.671103 -1.06581
v -2.401711 0.671658 -1.065343
v -2.399856 0.672411 -1.06558
v -2.399436 0.672955 -1.068921
v -2.398712 0.673874 -1.070311
v -2.399159 0.673385 -1.072564
v -2.400211 0.672271 -1.071421
v -2.398885 0.673304 -1.067105
v -2.398607 0.673803 -1.068701
v -2.402797 0.66817 -1.079294
v -2.401581 0.66913 -1.080235
v -2.402507 0.66715 -1.08255
v -2.403574 0.666293 -1.081711
v -2.405075 0.665241 -1.080646
v -2.404503 0.666989 -1.078096
v -2.403799 0.668572 -1.075489
v -2.402028 0.669825 -1.076747
v -2.400776 0.670855 -1.07774
v -2.406433 0.666053 -1.077027
v -2.406789 0.664421 -1.079707
v -2.408141 0.66387 -1.079037
v -2.40795 0.665421 -1.076263
v -2.407438 0.666975 -1.073585
v -2.40583 0.667611 -1.074376
v -2.404979 0.668963 -1.07167
v -2.402879 0.669891 -1.072782
v -2.406669 0.668388 -1.070895
v -2.40112 0.67121 -1.074076
v -2.399908 0.672326 -1.075111
v -2.404504 0.664238 -1.08399
v -2.403739 0.664914 -1.084637
v -2.404586 0.663464 -1.08562
v -2.405237 0.662612 -1.08564
v -2.405955 0.66202 -1.085065
v -2.405599 0.663426 -1.08318
v -2.406903 0.662841 -1.082494
v -2.406881 0.661654 -1.084614
v -2.407544 0.661741 -1.083775
v -2.407946 0.662464 -1.082014
v -2.402599 0.670848 -1.066849
v -2.400594 0.67166 -1.067465
v -2.399762 0.672265 -1.065567
v -2.401638 0.671502 -1.065318
v -2.403194 0.670986 -1.065787
v -2.404375 0.670381 -1.066706
v -2.405594 0.669442 -1.068469
v -2.403814 0.669909 -1.069064
v -2.401696 0.670785 -1.07005
v -2.399286 0.672777 -1.068915
v -2.398589 0.67375 -1.070314
v -2.398519 0.673708 -1.068702
v -2.398774 0.673171 -1.067104
v -2.400061 0.672095 -1.071404
v -2.399036 0.673261 -1.072558
v -2.40264 0.668009 -1.079237
v -2.401455 0.669014 -1.080197
v -2.400652 0.670735 -1.077711
v -2.401873 0.669657 -1.076701
v -2.40366 0.668393 -1.075433
v -2.404361 0.666817 -1.078029
v -2.404931 0.665074 -1.080571
v -2.403415 0.666136 -1.081646
v -2.40238 0.667038 -1.082507
v -2.406307 0.665873 -1.07695
v -2.405709 0.667424 -1.074309
v -2.407356 0.666831 -1.07353
v -2.407864 0.665282 -1.076201
v -2.408053 0.663734 -1.078969
v -2.406661 0.664245 -1.079622
v -2.404864 0.668768 -1.071615
v -2.402745 0.669706 -1.07274
v -2.406594 0.668238 -1.070848
v -2.400968 0.671037 -1.074045
v -2.399785 0.672203 -1.075094
v -2.404343 0.664084 -1.083923
v -2.40361 0.664804 -1.084592
v -2.405454 0.663261 -1.083102
v -2.405846 0.661897 -1.085006
v -2.405116 0.662497 -1.085589
v -2.404492 0.663381 -1.085585
v -2.406775 0.662667 -1.082406
v -2.407859 0.662329 -1.081943
v -2.407477 0.661642 -1.083723
v -2.406787 0.661524 -1.084547
v -2.403425 0.665092 -1.084834
v -2.404681 0.663104 -1.086115
v -2.402093 0.667388 -1.082812
v -2.404492 0.663381 -1.085585
v -2.406832 0.661201 -1.085291
v -2.407644 0.661379 -1.084267
v -2.406025 0.661497 -1.085667
v -2.407477 0.661642 -1.083723
v -2.404991 0.670297 -1.066676
v -2.403409 0.671068 -1.065583
v -2.406215 0.669357 -1.06829
v -2.403194 0.670986 -1.065787
v -2.398653 0.673361 -1.0665
v -2.398393 0.673989 -1.06871
v -2.399526 0.672531 -1.064939
v -2.398519 0.673708 -1.068702
v -2.398414 0.674127 -1.070778
v -2.398752 0.673703 -1.072944
v -2.405428 0.662019 -1.086167
v -2.408257 0.662278 -1.081821
v -2.408554 0.663625 -1.078783
v -2.40135 0.67179 -1.064819
v -2.407202 0.668129 -1.070615
v -2.40794 0.666698 -1.073296
v -2.399447 0.672645 -1.07545
v -2.400301 0.671146 -1.078059
v -2.401118 0.6694 -1.080533
v -2.40842 0.665148 -1.07598
vn -0.354 0.9207 -0.1644
vn -0.5233 0.851 -0.0444
vn -0.5453 0.8326 -0.0969
vn -0.3954 0.895 -0.2063
vn -0.412 0.8832 -0.2239
vn -0.3611 0.9185 -0.161
vn -0.3241 0.9389 -0.1154
vn -0.3515 0.9339 -0.0644
vn -0.4851 0.8736 0.0379
vn -0.6835 0.7288 0.041
vn -0.6786 0.7335 0.0368
vn -0.6922 0.72 -0.0492
vn -0.69 0.7235 -0.0227
vn -0.6205 0.7773 0.1034
vn -0.6651 0.7403 0.0973
vn -0.6953 0.6699 -0.2603
vn -0.6709 0.6843 -0.2857
vn -0.6749 0.668 -0.3136
vn -0.7072 0.6477 -0.2834
vn -0.6245 0.6986 -0.3492
vn -0.6164 0.7219 -0.3144
vn -0.5968 0.7647 -0.2429
vn -0.6871 0.7013 -0.1899
vn -0.6724 0.7072 -0.2182
vn -0.53 0.7662 -0.3634
vn -0.5298 0.751 -0.394
vn -0.5703 0.7288 -0.3788
vn -0.5618 0.7477 -0.3539
vn -0.5283 0.7911 -0.3082
vn -0.5016 0.8093 -0.3056
vn -0.4512 0.8576 -0.2467
vn -0.5701 0.8054 -0.162
vn -0.4731 0.8411 -0.262
vn -0.6851 0.7214 -0.1008
vn -0.6816 0.7197 -0.1319
vn -0.7271 0.6261 -0.2817
vn -0.6941 0.6459 -0.3179
vn -0.7188 0.6196 -0.315
vn -0.7503 0.581 -0.3153
vn -0.6363 0.6534 -0.4101
vn -0.628 0.6871 -0.3653
vn -0.5108 0.752 -0.4165
vn -0.5011 0.7261 -0.4708
vn -0.5318 0.7285 -0.4317
vn -0.5555 0.7266 -0.4043
vn 0.3386 -0.9199 0.1975
vn 0.5296 -0.8462 0.0588
vn 0.5523 -0.8257 0.1147
vn 0.2874 -0.9119 0.2929
vn 0.1889 -0.9117 0.3647
vn 0.2084 -0.9146 0.3464
vn 0.2733 -0.9075 0.3189
vn 0.3829 -0.8985 0.2145
vn 0.5453 -0.8326 0.0968
vn 0.7093 -0.704 -0.0337
vn 0.8339 -0.5501 -0.0435
vn 0.848 -0.5279 -0.0463
vn 0.7806 -0.6248 -0.0147
vn 0.7002 -0.7137 0.0167
vn 0.7988 -0.6015 -0.0088
vn 0.7061 -0.6621 0.251
vn 0.7758 -0.6035 0.1839
vn 0.7706 -0.6231 0.1335
vn 0.6972 -0.6934 0.182
vn 0.5969 -0.7646 0.243
vn 0.6165 -0.7217 0.3146
vn 0.6246 -0.6985 0.3493
vn 0.7193 -0.6397 0.2709
vn 0.7909 -0.5872 0.1723
vn 0.5162 -0.7727 0.3694
vn 0.489 -0.8146 0.3119
vn 0.395 -0.8419 0.3676
vn 0.4174 -0.8122 0.4075
vn 0.3957 -0.8173 0.4188
vn 0.5134 -0.7596 0.3992
vn 0.4389 -0.8621 0.2533
vn 0.5701 -0.8054 0.162
vn 0.3412 -0.8805 0.3291
vn 0.6948 -0.7131 0.0937
vn 0.7772 -0.6266 0.0573
vn 0.7403 -0.6232 0.2521
vn 0.8132 -0.5708 0.1134
vn 0.6259 -0.6941 0.3555
vn 0.6159 -0.7234 0.3119
vn 0.7704 -0.6186 0.1543
vn 0.8233 -0.5629 0.0729
vn 0.4854 -0.7716 0.411
vn 0.3385 -0.8472 0.4094
vn 0.3024 -0.8662 0.3978
vn 0.4071 -0.8301 0.381
vn 0.4975 0.3359 -0.7997
vn 0.2413 0.0588 -0.9686
vn 0.5864 0.4124 -0.6971
vn 0.8233 -0.5629 0.0729
vn -0.3725 -0.6269 -0.6843
vn -0.7768 -0.5342 -0.3335
vn -0.0975 -0.6447 -0.7582
vn 0.3024 -0.8662 0.3978
vn -0.7382 -0.0201 0.6742
vn -0.5043 0.108 0.8567
vn -0.8352 -0.1415 0.5314
vn 0.1889 -0.9117 0.3647
vn 0.6618 0.5354 0.5246
vn 0.6248 0.7657 0.1524
vn 0.4189 0.2222 0.8804
vn 0.848 -0.5279 -0.0463
vn 0.6162 0.7689 -0.1703
vn 0.6103 0.7002 -0.3703
vn -0.0128 -0.4174 -0.9086
vn -0.8819 -0.4675 0.0601
vn -0.8734 -0.4376 0.2135
vn -0.087 0.0998 0.9912
vn -0.869 -0.2444 0.4303
vn -0.8726 -0.3124 0.3755
vn 0.6122 0.6182 -0.4928
vn 0.6194 0.557 -0.5532
vn 0.6219 0.4914 -0.6097
vn -0.8692 -0.3773 0.3196
vt 0.839504 0.118056
vt 0.856743 0.205307
vt 0.741230 0.205307
vt 0.734555 0.106726
vt 0.724541 0.032791
vt 0.813647 0.052618
vt 0.868992 0.081539
vt 0.913398 0.129584
vt 0.940923 0.205307
vt 0.839504 0.292557
vt 0.813647 0.357995
vt 0.724541 0.377822
vt 0.734555 0.303887
vt 0.913398 0.281029
vt 0.868992 0.329074
vt 0.369475 0.299954
vt 0.368286 0.370940
vt 0.245840 0.351447
vt 0.246397 0.288815
vt 0.246768 0.205307
vt 0.370268 0.205307
vt 0.494283 0.205307
vt 0.492822 0.304944
vt 0.490632 0.379672
vt 0.369475 0.110659
vt 0.246397 0.121798
vt 0.245841 0.059166
vt 0.368286 0.039673
vt 0.490632 0.030941
vt 0.492822 0.105669
vt 0.616755 0.103478
vt 0.619174 0.205307
vt 0.613127 0.027106
vt 0.616755 0.307135
vt 0.613126 0.383507
vt 0.123273 0.268175
vt 0.123047 0.315326
vt 0.054743 0.283353
vt 0.030912 0.249131
vt 0.030973 0.205306
vt 0.123423 0.205306
vt 0.123273 0.142438
vt 0.030912 0.161481
vt 0.054744 0.127260
vt 0.123047 0.095287
vt 0.839504 0.118056
vt 0.856743 0.205307
vt 0.968983 0.205307
vt 0.938030 0.133427
vt 0.876123 0.061548
vt 0.805028 0.030806
vt 0.721203 0.008146
vt 0.734555 0.106726
vt 0.741230 0.205307
vt 0.839504 0.292557
vt 0.805028 0.379807
vt 0.876123 0.349065
vt 0.938030 0.277186
vt 0.734555 0.303887
vt 0.721203 0.402467
vt 0.369475 0.299954
vt 0.367890 0.394602
vt 0.489902 0.404581
vt 0.492822 0.304944
vt 0.494283 0.205307
vt 0.370268 0.205307
vt 0.246768 0.205307
vt 0.246397 0.288815
vt 0.245655 0.372324
vt 0.369475 0.110659
vt 0.492822 0.105669
vt 0.489902 0.006032
vt 0.367890 0.016011
vt 0.245655 0.038289
vt 0.246397 0.121798
vt 0.616755 0.103478
vt 0.619174 0.205307
vt 0.611917 0.001649
vt 0.616755 0.307135
vt 0.611917 0.408964
vt 0.123273 0.268175
vt 0.122972 0.331043
vt 0.123423 0.205306
vt 0.000156 0.205306
vt 0.000125 0.242784
vt 0.000064 0.280261
vt 0.123273 0.142438
vt 0.122972 0.079570
vt 0.000064 0.130352
vt 0.000125 0.167829
vt 0.122972 0.331043
vt 0.030806 0.283587
vt 0.245655 0.372324
vt 0.030806 0.283587
vt 0.000125 0.167829
vt 0.030806 0.127026
vt 0.000156 0.205306
vt 0.030806 0.127026
vt 0.805028 0.030806
vt 0.873826 0.071832
vt 0.721203 0.008146
vt 0.873826 0.071832
vt 0.938030 0.277186
vt 0.873826 0.338781
vt 0.968983 0.205307
vt 0.873826 0.338781
vt 0.805028 0.379807
vt 0.721203 0.402467
vt 0.000125 0.242784
vt 0.122972 0.079570
vt 0.245655 0.038289
vt 0.938030 0.133427
vt 0.611917 0.001649
vt 0.489902 0.006032
vt 0.611917 0.408964
vt 0.489902 0.404581
vt 0.367890 0.394602
vt 0.367890 0.016011
f 1/1/1 2/2/2 3/3/3
f 1/1/1 3/3/3 4/4/4
f 1/1/1 4/4/4 5/5/5
f 1/1/1 5/5/5 6/6/6
f 1/1/1 6/6/6 7/7/7
f 1/1/1 7/7/7 8/8/8
f 1/1/1 8/8/8 9/9/9
f 1/1/1 9/9/9 2/2/2
f 10/10/10 11/11/11 12/12/12
f 10/10/10 12/12/12 13/13/13
f 10/10/10 13/13/13 3/3/3
f 10/10/10 3/3/3 2/2/2
f 10/10/10 2/2/2 9/9/9
f 10/10/10 9/9/9 14/14/14
f 10/10/10 14/14/14 15/15/15
f 10/10/10 15/15/15 11/11/11
f 16/16/16 17/17/17 18/18/18
f 16/16/16 18/18/18 19/19/19
f 16/16/16 19/19/19 20/20/20
f 16/16/16 20/20/20 21/21/21
f 16/16/16 21/21/21 22/22/22
f 16/16/16 22/22/22 23/23/23
f 16/16/16 23/23/23 24/24/24
f 16/16/16 24/24/24 17/17/17
f 25/25/25 21/21/21 20/20/20
f 25/25/25 20/20/20 26/26/26
f 25/25/25 26/26/26 27/27/27
f 25/25/25 27/27/27 28/28/28
f 25/25/25 28/28/28 29/29/29
f 25/25/25 29/29/29 30/30/30
f 25/25/25 30/30/30 22/22/22
f 25/25/25 22/22/22 21/21/21
f 31/31/31 32/32/32 22/22/22
f 31/31/31 22/22/22 30/30/30
f 31/31/31 30/30/30 29/29/29
f 31/31/31 29/29/29 33/33/33
f 31/31/31 33/33/33 5/5/5
f 31/31/31 5/5/5 4/4/4
f 31/31/31 4/4/4 3/3/3
f 31/31/31 3/3/3 32/32/32
f 34/34/34 35/35/35 24/24/24
f 34/34/34 24/24/24 23/23/23
f 34/34/34 23/23/23 22/22/22
f 34/34/34 22/22/22 32/32/32
f 34/34/34 32/32/32 3/3/3
f 34/34/34 3/3/3 13/13/13
f 34/34/34 13/13/13 12/12/12
f 34/34/34 12/12/12 35/35/35
f 36/36/36 37/37/37 38/38/38
f 36/36/36 38/38/38 39/39/39
f 36/36/36 39/39/39 40/40/40
f 36/36/36 40/40/40 41/41/41
f 36/36/36 41/41/41 20/20/20
f 36/36/36 20/20/20 19/19/19
f 36/36/36 19/19/19 18/18/18
f 36/36/36 18/18/18 37/37/37
f 42/42/42 41/41/41 40/40/40
f 42/42/42 40/40/40 43/43/43
f 42/42/42 43/43/43 44/44/44
f 42/42/42 44/44/44 45/45/45
f 42/42/42 45/45/45 27/27/27
f 42/42/42 27/27/27 26/26/26
f 42/42/42 26/26/26 20/20/20
f 42/42/42 20/20/20 41/41/41
f 46/46/46 47/47/47 48/48/48
f 46/46/46 48/48/48 49/49/49
f 46/46/46 49/49/49 50/50/50
f 46/46/46 50/50/50 51/51/51
f 46/46/46 51/51/51 52/52/52
f 46/46/46 52/52/52 53/53/53
f 46/46/46 53/53/53 54/54/54
f 46/46/46 54/54/54 47/47/47
f 55/55/55 56/56/56 57/57/57
f 55/55/55 57/57/57 58/58/58
f 55/55/55 58/58/58 48/48/48
f 55/55/55 48/48/48 47/47/47
f 55/55/55 47/47/47 54/54/54
f 55/55/55 54/54/54 59/59/59
f 55/55/55 59/59/59 60/60/60
f 55/55/55 60/60/60 56/56/56
f 61/61/61 62/62/62 63/63/63
f 61/61/61 63/63/63 64/64/64
f 61/61/61 64/64/64 65/65/65
f 61/61/61 65/65/65 66/66/66
f 61/61/61 66/66/66 67/67/67
f 61/61/61 67/67/67 68/68/68
f 61/61/61 68/68/68 69/69/69
f 61/61/61 69/69/69 62/62/62
f 70/70/70 66/66/66 65/65/65
f 70/70/70 65/65/65 71/71/71
f 70/70/70 71/71/71 72/72/72
f 70/70/70 72/72/72 73/73/73
f 70/70/70 73/73/73 74/74/74
f 70/70/70 74/74/74 75/75/75
f 70/70/70 75/75/75 67/67/67
f 70/70/70 67/67/67 66/66/66
f 76/76/76 77/77/77 54/54/54
f 76/76/76 54/54/54 53/53/53
f 76/76/76 53/53/53 52/52/52
f 76/76/76 52/52/52 78/78/78
f 76/76/76 78/78/78 72/72/72
f 76/76/76 72/72/72 71/71/71
f 76/76/76 71/71/71 65/65/65
f 76/76/76 65/65/65 77/77/77
f 79/79/79 80/80/80 60/60/60
f 79/79/79 60/60/60 59/59/59
f 79/79/79 59/59/59 54/54/54
f 79/79/79 54/54/54 77/77/77
f 79/79/79 77/77/77 65/65/65
f 79/79/79 65/65/65 64/64/64
f 79/79/79 64/64/64 63/63/63
f 79/79/79 63/63/63 80/80/80
f 81/81/81 82/82/82 69/69/69
f 81/81/81 69/69/69 68/68/68
f 81/81/81 68/68/68 67/67/67
f 81/81/81 67/67/67 83/83/83
f 81/81/81 83/83/83 84/84/84
f 81/81/81 84/84/84 85/85/85
f 81/81/81 85/85/85 86/86/86
f 81/81/81 86/86/86 82/82/82
f 87/87/87 83/83/83 67/67/67
f 87/87/87 67/67/67 75/75/75
f 87/87/87 75/75/75 74/74/74
f 87/87/87 74/74/74 88/88/88
f 87/87/87 88/88/88 89/89/89
f 87/87/87 89/89/89 90/90/90
f 87/87/87 90/90/90 84/84/84
f 87/87/87 84/84/84 83/83/83
f 91/91/91 92/92/92 38/38/38
f 91/91/91 38/38/38 37/37/37
f 91/91/91 37/37/37 18/18/18
f 91/91/91 18/18/18 93/93/93
f 91/91/91 93/93/93 69/69/69
f 91/91/91 69/69/69 82/82/82
f 91/91/91 82/82/82 94/94/94
f 91/91/91 94/94/94 92/92/92
f 95/95/95 96/96/96 44/44/44
f 95/95/95 44/44/44 43/43/43
f 95/95/95 43/43/43 40/40/40
f 95/95/95 40/40/40 97/97/97
f 95/95/95 97/97/97 84/84/84
f 95/95/95 84/84/84 90/90/90
f 95/95/95 90/90/90 98/98/98
f 95/95/95 98/98/98 96/96/96
f 99/99/99 100/100/100 7/7/7
f 99/99/99 7/7/7 6/6/6
f 99/99/99 6/6/6 5/5/5
f 99/99/99 5/5/5 101/101/101
f 99/99/99 101/101/101 52/52/52
f 99/99/99 52/52/52 51/51/51
f 99/99/99 51/51/51 102/102/102
f 99/99/99 102/102/102 100/100/100
f 103/103/103 104/104/104 15/15/15
f 103/103/103 15/15/15 14/14/14
f 103/103/103 14/14/14 9/9/9
f 103/103/103 9/9/9 105/105/105
f 103/103/103 105/105/105 48/48/48
f 103/103/103 48/48/48 58/58/58
f 103/103/103 58/58/58 106/106/106
f 103/103/103 106/106/106 104/104/104
f 107/107/107 108/108/108 12/12/12
f 107/107/107 12/12/12 11/11/11
f 107/107/107 11/11/11 15/15/15
f 107/107/107 15/15/15 104/104/104
f 107/107/107 104/104/104 106/106/106
f 107/107/107 106/106/106 56/56/56
f 107/107/107 56/56/56 60/60/60
f 107/107/107 60/60/60 108/108/108
f 109/109/109 97/97/97 40/40/40
f 109/109/109 40/40/40 39/39/39
f 109/109/109 39/39/39 38/38/38
f 109/109/109 38/38/38 92/92/92
f 109/109/109 92/92/92 94/94/94
f 109/109/109 94/94/94 85/85/85
f 109/109/109 85/85/85 84/84/84
f 109/109/109 84/84/84 97/97/97
f 110/110/110 111/111/111 27/27/27
f 110/110/110 27/27/27 45/45/45
f 110/110/110 45/45/45 44/44/44
f 110/110/110 44/44/44 96/96/96
f 110/110/110 96/96/96 98/98/98
f 110/110/110 98/98/98 88/88/88
f 110/110/110 88/88/88 74/74/74
f 110/110/110 74/74/74 111/111/111
f 112/112/112 105/105/105 9/9/9
f 112/112/112 9/9/9 8/8/8
f 112/112/112 8/8/8 7/7/7
f 112/112/112 7/7/7 100/100/100
f 112/112/112 100/100/100 102/102/102
f 112/112/112 102/102/102 49/49/49
f 112/112/112 49/49/49 48/48/48
f 112/112/112 48/48/48 105/105/105
f 113/113/113 101/101/101 5/5/5
f 113/113/113 5/5/5 33/33/33
f 113/113/113 33/33/33 29/29/29
f 113/113/113 29/29/29 114/114/114
f 113/113/113 114/114/114 72/72/72
f 113/113/113 72/72/72 78/78/78
f 113/113/113 78/78/78 52/52/52
f 113/113/113 52/52/52 101/101/101
f 115/115/115 116/116/116 24/24/24
f 115/115/115 24/24/24 35/35/35
f 115/115/115 35/35/35 12/12/12
f 115/115/115 12/12/12 108/108/108
f 115/115/115 108/108/108 60/60/60
f 115/115/115 60/60/60 80/80/80
f 115/115/115 80/80/80 63/63/63
f 115/115/115 63/63/63 116/116/116
f 117/117/117 93/93/93 18/18/18
f 117/117/117 18/18/18 17/17/17
f 117/117/117 17/17/17 24/24/24
f 117/117/117 24/24/24 116/116/116
f 117/117/117 116/116/116 63/63/63
f 117/117/117 63/63/63 62/62/62
f 117/117/117 62/62/62 69/69/69
f 117/117/117 69/69/69 93/93/93
f 118/118/118 114/114/114 29/29/29
f 118/118/118 29/29/29 28/28/28
f 118/118/118 28/28/28 27/27/27
f 118/118/118 27/27/27 111/111/111
f 118/118/118 111/111/111 74/74/74
f 118/118/118 74/74/74 73/73/73
f 118/118/118 73/73/73 72/72/72
f 118/118/118 72/72/72 114/114/114
