v -2.375482 0.714755 -1.127909
v -2.378472 0.714518 -1.127062
v -2.376555 0.712534 -1.123963
v -2.373387 0.712945 -1.125305
v -2.370849 0.713423 -1.126044
v -2.372944 0.714983 -1.12806
v -2.374803 0.715641 -1.129184
v -2.377099 0.715887 -1.129768
v -2.379907 0.715846 -1.129395
v -2.380676 0.714506 -1.124857
v -2.382052 0.714546 -1.122708
v -2.381196 0.712927 -1.119963
v -2.37929 0.712662 -1.121837
v -2.381594 0.715671 -1.127126
v -2.382179 0.715287 -1.124849
v -2.373804 0.704549 -1.113299
v -2.375857 0.704663 -1.111796
v -2.373654 0.70141 -1.109656
v -2.371846 0.701298 -1.111001
v -2.369375 0.701266 -1.112663
v -2.371001 0.704523 -1.115165
v -2.372725 0.707551 -1.11785
v -2.375647 0.707603 -1.115881
v -2.37778 0.707758 -1.114281
v -2.36802 0.704827 -1.116699
v -2.366731 0.701544 -1.114006
v -2.364691 0.70184 -1.114924
v -2.365723 0.705149 -1.117752
v -2.367179 0.708267 -1.12051
v -2.369596 0.707893 -1.119437
v -2.371406 0.710629 -1.122393
v -2.374608 0.710217 -1.120837
v -2.368908 0.711105 -1.123401
v -2.377544 0.710334 -1.118786
v -2.379666 0.710589 -1.117079
v -2.369604 0.697975 -1.108945
v -2.370929 0.698104 -1.107891
v -2.369103 0.696184 -1.107219
v -2.367834 0.695427 -1.107519
v -2.366611 0.69534 -1.108444
v -2.36778 0.697916 -1.110224
v -2.365787 0.698158 -1.111188
v -2.365219 0.695553 -1.109056
v -2.364397 0.69641 -1.109985
v -2.364235 0.698426 -1.111824
v -2.375517 0.71448 -1.12808
v -2.378546 0.714238 -1.127211
v -2.37996 0.715634 -1.129503
v -2.37712 0.715679 -1.129893
v -2.374811 0.71549 -1.129282
v -2.37295 0.714781 -1.128199
v -2.370866 0.713225 -1.126187
v -2.373432 0.712676 -1.125484
v -2.376636 0.71226 -1.124121
v -2.380788 0.714227 -1.124983
v -2.382155 0.714339 -1.122789
v -2.38225 0.715133 -1.124911
v -2.381678 0.71546 -1.127215
v -2.379404 0.71239 -1.121974
v -2.381299 0.712724 -1.120056
v -2.373935 0.704313 -1.113485
v -2.375968 0.704487 -1.111927
v -2.377887 0.707573 -1.114401
v -2.375772 0.707355 -1.116054
v -2.372824 0.707303 -1.118039
v -2.371108 0.704287 -1.115366
v -2.369487 0.70104 -1.112872
v -2.371982 0.701071 -1.111194
v -2.373769 0.70124 -1.109793
v -2.368101 0.704593 -1.116913
v -2.369669 0.707648 -1.11964
v -2.367219 0.708084 -1.12067
v -2.365771 0.704976 -1.117919
v -2.364743 0.701673 -1.115097
v -2.366817 0.701319 -1.114229
v -2.371464 0.71037 -1.122584
v -2.374697 0.709955 -1.121011
v -2.368937 0.710913 -1.123552
v -2.377664 0.710073 -1.118941
v -2.37977 0.710394 -1.117185
v -2.369744 0.697752 -1.10914
v -2.371047 0.697937 -1.108028
v -2.367894 0.697693 -1.110435
v -2.366697 0.695173 -1.108603
v -2.36794 0.695261 -1.107665
v -2.369187 0.69606 -1.107323
v -2.365873 0.697937 -1.111415
v -2.364286 0.698262 -1.112001
v -2.364438 0.696288 -1.110114
v -2.365282 0.695388 -1.109227
v -2.371426 0.698073 -1.107598
v -2.368799 0.69552 -1.106746
v -2.374311 0.701372 -1.109267
v -2.369187 0.69606 -1.107323
v -2.365057 0.694611 -1.108421
v -2.364084 0.695746 -1.109517
v -2.366259 0.694407 -1.107922
v -2.364438 0.696288 -1.110114
v -2.372096 0.71497 -1.128174
v -2.37457 0.715797 -1.129468
v -2.370007 0.713495 -1.126356
v -2.374811 0.71549 -1.129282
v -2.381938 0.715966 -1.127921
v -2.38255 0.715414 -1.124778
v -2.380408 0.716194 -1.130219
v -2.38225 0.715133 -1.124911
v -2.382561 0.714468 -1.122025
v -2.381881 0.712926 -1.119378
v -2.367292 0.694504 -1.107108
v -2.363738 0.698442 -1.112116
v -2.364031 0.701865 -1.115308
v -2.377646 0.716172 -1.130442
v -2.368084 0.711179 -1.123806
v -2.366388 0.708311 -1.120941
v -2.380423 0.710587 -1.116555
v -2.378541 0.707728 -1.113799
v -2.376593 0.704623 -1.111352
v -2.364976 0.70518 -1.118179
vn 0.0211 0.846 0.5327
vn 0.2028 0.8858 0.4174
vn 0.2303 0.8565 0.4618
vn 0.0692 0.8207 0.5671
vn 0.0888 0.809 0.5811
vn 0.0285 0.8477 0.5297
vn -0.0136 0.8713 0.4905
vn 0.0133 0.8954 0.445
vn 0.1584 0.9251 0.3451
vn 0.3941 0.8639 0.3135
vn 0.388 0.8648 0.3186
vn 0.4062 0.8242 0.3946
vn 0.4027 0.8367 0.3712
vn 0.3179 0.91 0.266
vn 0.3724 0.8898 0.2636
vn 0.4283 0.7002 0.5712
vn 0.4007 0.6949 0.597
vn 0.4103 0.6714 0.6172
vn 0.4472 0.6757 0.5859
vn 0.3529 0.6681 0.655
vn 0.337 0.6992 0.6305
vn 0.3032 0.7577 0.5779
vn 0.4092 0.7519 0.5169
vn 0.3938 0.7414 0.5433
vn 0.241 0.6912 0.6813
vn 0.2464 0.6661 0.7039
vn 0.2918 0.6657 0.6868
vn 0.2772 0.689 0.6696
vn 0.2304 0.7336 0.6393
vn 0.1991 0.7418 0.6403
vn 0.1347 0.7905 0.5975
vn 0.2634 0.8157 0.5149
vn 0.161 0.7772 0.6082
vn 0.3996 0.8032 0.4418
vn 0.3972 0.7885 0.4695
vn 0.4733 0.664 0.5788
vn 0.436 0.6567 0.6154
vn 0.4681 0.6429 0.6063
vn 0.5108 0.6193 0.5962
vn 0.3799 0.6092 0.696
vn 0.3601 0.6531 0.6661
vn 0.2284 0.6523 0.7227
vn 0.2286 0.6058 0.762
vn 0.2563 0.6327 0.7307
vn 0.2788 0.6491 0.7077
vn -0.0071 -0.8276 -0.5612
vn -0.2104 -0.878 -0.4298
vn -0.2394 -0.8459 -0.4765
vn 0.0372 -0.7676 -0.6398
vn 0.1291 -0.7084 -0.6939
vn 0.1119 -0.7241 -0.6805
vn 0.0488 -0.7492 -0.6605
vn -0.0563 -0.8166 -0.5744
vn -0.2302 -0.8566 -0.4617
vn -0.427 -0.8478 -0.3144
vn -0.5962 -0.758 -0.2644
vn -0.6171 -0.7443 -0.2553
vn -0.5213 -0.7945 -0.3115
vn -0.4156 -0.8338 -0.3633
vn -0.5463 -0.7778 -0.3108
vn -0.4411 -0.7004 -0.5611
vn -0.5258 -0.6977 -0.4864
vn -0.5137 -0.7326 -0.4465
vn -0.4214 -0.7513 -0.5079
vn -0.3033 -0.7576 -0.578
vn -0.337 -0.699 -0.6306
vn -0.3529 -0.668 -0.6551
vn -0.4613 -0.6775 -0.5729
vn -0.5455 -0.6928 -0.4716
vn -0.226 -0.6901 -0.6875
vn -0.1855 -0.74 -0.6465
vn -0.0885 -0.7122 -0.6963
vn -0.12 -0.6782 -0.7249
vn -0.0979 -0.6713 -0.7346
vn -0.2281 -0.6663 -0.7099
vn -0.1217 -0.7879 -0.6037
vn -0.2634 -0.8158 -0.5149
vn -0.0244 -0.7434 -0.6684
vn -0.4115 -0.8018 -0.4334
vn -0.5181 -0.7671 -0.3782
vn -0.4864 -0.6772 -0.5521
vn -0.5715 -0.7085 -0.414
vn -0.3558 -0.6622 -0.6594
vn -0.3358 -0.7014 -0.6287
vn -0.5154 -0.7205 -0.4639
vn -0.5833 -0.7205 -0.375
vn -0.1978 -0.6633 -0.7217
vn -0.0338 -0.6827 -0.7299
vn 0.0067 -0.6922 -0.7217
vn -0.1038 -0.7007 -0.7058
vn -0.5742 -0.1763 0.7995
vn -0.2379 -0.4001 0.885
vn -0.685 -0.0984 0.7218
vn -0.5833 -0.7205 -0.375
vn 0.5705 -0.689 0.4469
vn 0.9155 -0.3447 0.2074
vn 0.3187 -0.8202 0.475
vn 0.0067 -0.6922 -0.7217
vn 0.6943 0.4777 -0.5383
vn 0.4289 0.5848 -0.6885
vn 0.8283 0.3481 -0.439
vn 0.1291 -0.7084 -0.6939
vn -0.8096 0.4565 -0.3689
vn -0.8496 0.5236 0.0629
vn -0.4786 0.3998 -0.7817
vn -0.6171 -0.7443 -0.2553
vn -0.8394 0.4042 0.3631
vn -0.8086 0.2695 0.5229
vn 0.1629 -0.7085 0.6866
vn 0.9878 -0.1013 -0.1183
vn 0.9681 -0.0191 -0.2496
vn 0.0377 0.4972 -0.8668
vn 0.8958 0.231 -0.3797
vn 0.9228 0.1522 -0.3539
vn -0.7812 0.1505 0.6058
vn -0.7661 0.0709 0.6388
vn -0.7457 -0.0083 0.6662
vn 0.9425 0.0729 -0.326
vt 0.839504 0.118056
vt 0.856743 0.205307
vt 0.741230 0.205307
vt 0.734555 0.106726
vt 0.724541 0.032791
vt 0.813647 0.052618
vt 0.868992 0.081539
vt 0.913398 0.129584
vt 0.940923 0.205307
vt 0.839504 0.292557
vt 0.813647 0.357995
vt 0.724541 0.377822
vt 0.734555 0.303887
vt 0.913398 0.281029
vt 0.868992 0.329074
vt 0.369475 0.299954
vt 0.368286 0.370940
vt 0.245840 0.351447
vt 0.246397 0.288815
vt 0.246768 0.205307
vt 0.370268 0.205307
vt 0.494283 0.205307
vt 0.492822 0.304944
vt 0.490632 0.379672
vt 0.369475 0.110659
vt 0.246397 0.121798
vt 0.245841 0.059166
vt 0.368286 0.039673
vt 0.490632 0.030941
vt 0.492822 0.105669
vt 0.616755 0.103478
vt 0.619174 0.205307
vt 0.613127 0.027106
vt 0.616755 0.307135
vt 0.613126 0.383507
vt 0.123273 0.268175
vt 0.123047 0.315326
vt 0.054743 0.283353
vt 0.030912 0.249131
vt 0.030973 0.205306
vt 0.123423 0.205306
vt 0.123273 0.142438
vt 0.030912 0.161481
vt 0.054744 0.127260
vt 0.123047 0.095287
vt 0.839504 0.118056
vt 0.856743 0.205307
vt 0.968983 0.205307
vt 0.938030 0.133427
vt 0.876123 0.061548
vt 0.805028 0.030806
vt 0.721203 0.008146
vt 0.734555 0.106726
vt 0.741230 0.205307
vt 0.839504 0.292557
vt 0.805028 0.379807
vt 0.876123 0.349065
vt 0.938030 0.277186
vt 0.734555 0.303887
vt 0.721203 0.402467
vt 0.369475 0.299954
vt 0.367890 0.394602
vt 0.489902 0.404581
vt 0.492822 0.304944
vt 0.494283 0.205307
vt 0.370268 0.205307
vt 0.246768 0.205307
vt 0.246397 0.288815
vt 0.245655 0.372324
vt 0.369475 0.110659
vt 0.492822 0.105669
vt 0.489902 0.006032
vt 0.367890 0.016011
vt 0.245655 0.038289
vt 0.246397 0.121798
vt 0.616755 0.103478
vt 0.619174 0.205307
vt 0.611917 0.001649
vt 0.616755 0.307135
vt 0.611917 0.408964
vt 0.123273 0.268175
vt 0.122972 0.331043
vt 0.123423 0.205306
vt 0.000156 0.205306
vt 0.000125 0.242784
vt 0.000064 0.280261
vt 0.123273 0.142438
vt 0.122972 0.079570
vt 0.000064 0.130352
vt 0.000125 0.167829
vt 0.122972 0.331043
vt 0.030806 0.283587
vt 0.245655 0.372324
vt 0.030806 0.283587
vt 0.000125 0.167829
vt 0.030806 0.127026
vt 0.000156 0.205306
vt 0.030806 0.127026
vt 0.805028 0.030806
vt 0.873826 0.071832
vt 0.721203 0.008146
vt 0.873826 0.071832
vt 0.938030 0.277186
vt 0.873826 0.338781
vt 0.968983 0.205307
vt 0.873826 0.338781
vt 0.805028 0.379807
vt 0.721203 0.402467
vt 0.000125 0.242784
vt 0.122972 0.079570
vt 0.245655 0.038289
vt 0.938030 0.133427
vt 0.611917 0.001649
vt 0.489902 0.006032
vt 0.611917 0.408964
vt 0.489902 0.404581
vt 0.367890 0.394602
vt 0.367890 0.016011
f 1/1/1 2/2/2 3/3/3
f 1/1/1 3/3/3 4/4/4
f 1/1/1 4/4/4 5/5/5
f 1/1/1 5/5/5 6/6/6
f 1/1/1 6/6/6 7/7/7
f 1/1/1 7/7/7 8/8/8
f 1/1/1 8/8/8 9/9/9
f 1/1/1 9/9/9 2/2/2
f 10/10/10 11/11/11 12/12/12
f 10/10/10 12/12/12 13/13/13
f 10/10/10 13/13/13 3/3/3
f 10/10/10 3/3/3 2/2/2
f 10/10/10 2/2/2 9/9/9
f 10/10/10 9/9/9 14/14/14
f 10/10/10 14/14/14 15/15/15
f 10/10/10 15/15/15 11/11/11
f 16/16/16 17/17/17 18/18/18
f 16/16/16 18/18/18 19/19/19
f 16/16/16 19/19/19 20/20/20
f 16/16/16 20/20/20 21/21/21
f 16/16/16 21/21/21 22/22/22
f 16/16/16 22/22/22 23/23/23
f 16/16/16 23/23/23 24/24/24
f 16/16/16 24/24/24 17/17/17
f 25/25/25 21/21/21 20/20/20
f 25/25/25 20/20/20 26/26/26
f 25/25/25 26/26/26 27/27/27
f 25/25/25 27/27/27 28/28/28
f 25/25/25 28/28/28 29/29/29
f 25/25/25 29/29/29 30/30/30
f 25/25/25 30/30/30 22/22/22
f 25/25/25 22/22/22 21/21/21
f 31/31/31 32/32/32 22/22/22
f 31/31/31 22/22/22 30/30/30
f 31/31/31 30/30/30 29/29/29
f 31/31/31 29/29/29 33/33/33
f 31/31/31 33/33/33 5/5/5
f 31/31/31 5/5/5 4/4/4
f 31/31/31 4/4/4 3/3/3
f 31/31/31 3/3/3 32/32/32
f 34/34/34 35/35/35 24/24/24
f 34/34/34 24/24/24 23/23/23
f 34/34/34 23/23/23 22/22/22
f 34/34/34 22/22/22 32/32/32
f 34/34/34 32/32/32 3/3/3
f 34/34/34 3/3/3 13/13/13
f 34/34/34 13/13/13 12/12/12
f 34/34/34 12/12/12 35/35/35
f 36/36/36 37/37/37 38/38/38
f 36/36/36 38/38/38 39/39/39
f 36/36/36 39/39/39 40/40/40
f 36/36/36 40/40/40 41/41/41
f 36/36/36 41/41/41 20/20/20
f 36/36/36 20/20/20 19/19/19
f 36/36/36 19/19/19 18/18/18
f 36/36/36 18/18/18 37/37/37
f 42/42/42 41/41/41 40/40/40
f 42/42/42 40/40/40 43/43/43
f 42/42/42 43/43/43 44/44/44
f 42/42/42 44/44/44 45/45/45
f 42/42/42 45/45/45 27/27/27
f 42/42/42 27/27/27 26/26/26
f 42/42/42 26/26/26 20/20/20
f 42/42/42 20/20/20 41/41/41
f 46/46/46 47/47/47 48/48/48
f 46/46/46 48/48/48 49/49/49
f 46/46/46 49/49/49 50/50/50
f 46/46/46 50/50/50 51/51/51
f 46/46/46 51/51/51 52/52/52
f 46/46/46 52/52/52 53/53/53
f 46/46/46 53/53/53 54/54/54
f 46/46/46 54/54/54 47/47/47
f 55/55/55 56/56/56 57/57/57
f 55/55/55 57/57/57 58/58/58
f 55/55/55 58/58/58 48/48/48
f 55/55/55 48/48/48 47/47/47
f 55/55/55 47/47/47 54/54/54
f 55/55/55 54/54/54 59/59/59
f 55/55/55 59/59/59 60/60/60
f 55/55/55 60/60/60 56/56/56
f 61/61/61 62/62/62 63/63/63
f 61/61/61 63/63/63 64/64/64
f 61/61/61 64/64/64 65/65/65
f 61/61/61 65/65/65 66/66/66
f 61/61/61 66/66/66 67/67/67
f 61/61/61 67/67/67 68/68/68
f 61/61/61 68/68/68 69/69/69
f 61/61/61 69/69/69 62/62/62
f 70/70/70 66/66/66 65/65/65
f 70/70/70 65/65/65 71/71/71
f 70/70/70 71/71/71 72/72/72
f 70/70/70 72/72/72 73/73/73
f 70/70/70 73/73/73 74/74/74
f 70/70/70 74/74/74 75/75/75
f 70/70/70 75/75/75 67/67/67
f 70/70/70 67/67/67 66/66/66
f 76/76/76 77/77/77 54/54/54
f 76/76/76 54/54/54 53/53/53
f 76/76/76 53/53/53 52/52/52
f 76/76/76 52/52/52 78/78/78
f 76/76/76 78/78/78 72/72/72
f 76/76/76 72/72/72 71/71/71
f 76/76/76 71/71/71 65/65/65
f 76/76/76 65/65/65 77/77/77
f 79/79/79 80/80/80 60/60/60
f 79/79/79 60/60/60 59/59/59
f 79/79/79 59/59/59 54/54/54
f 79/79/79 54/54/54 77/77/77
f 79/79/79 77/77/77 65/65/65
f 79/79/79 65/65/65 64/64/64
f 79/79/79 64/64/64 63/63/63
f 79/79/79 63/63/63 80/80/80
f 81/81/81 82/82/82 69/69/69
f 81/81/81 69/69/69 68/68/68
f 81/81/81 68/68/68 67/67/67
f 81/81/81 67/67/67 83/83/83
f 81/81/81 83/83/83 84/84/84
f 81/81/81 84/84/84 85/85/85
f 81/81/81 85/85/85 86/86/86
f 81/81/81 86/86/86 82/82/82
f 87/87/87 83/83/83 67/67/67
f 87/87/87 67/67/67 75/75/75
f 87/87/87 75/75/75 74/74/74
f 87/87/87 74/74/74 88/88/88
f 87/87/87 88/88/88 89/89/89
f 87/87/87 89/89/89 90/90/90
f 87/87/87 90/90/90 84/84/84
f 87/87/87 84/84/84 83/83/83
f 91/91/91 92/92/92 38/38/38
f 91/91/91 38/38/38 37/37/37
f 91/91/91 37/37/37 18/18/18
f 91/91/91 18/18/18 93/93/93
f 91/91/91 93/93/93 69/69/69
f 91/91/91 69/69/69 82/82/82
f 91/91/91 82/82/82 94/94/94
f 91/91/91 94/94/94 92/92/92
f 95/95/95 96/96/96 44/44/44
f 95/95/95 44/44/44 43/43/43
f 95/95/95 43/43/43 40/40/40
f 95/95/95 40/40/40 97/97/97
f 95/95/95 97/97/97 84/84/84
f 95/95/95 84/84/84 90/90/90
f 95/95/95 90/90/90 98/98/98
f 95/95/95 98/98/98 96/96/96
f 99/99/99 100/100/100 7/7/7
f 99/99/99 7/7/7 6/6/6
f 99/99/99 6/6/6 5/5/5
f 99/99/99 5/5/5 101/101/101
f 99/99/99 101/101/101 52/52/52
f 99/99/99 52/52/52 51/51/51
f 99/99/99 51/51/51 102/102/102
f 99/99/99 102/102/102 100/100/100
f 103/103/103 104/104/104 15/15/15
f 103/103/103 15/15/15 14/14/14
f 103/103/103 14/14/14 9/9/9
f 103/103/103 9/9/9 105/105/105
f 103/103/103 105/105/105 48/48/48
f 103/103/103 48/48/48 58/58/58
f 103/103/103 58/58/58 106/106/106
f 103/103/103 106/106/106 104/104/104
f 107/107/107 108/108/108 12/12/12
f 107/107/107 12/12/12 11/11/11
f 107/107/107 11/11/11 15/15/15
f 107/107/107 15/15/15 104/104/104
f 107/107/107 104/104/104 106/106/106
f 107/107/107 106/106/106 56/56/56
f 107/107/107 56/56/56 60/60/60
f 107/107/107 60/60/60 108/108/108
f 109/109/109 97/97/97 40/40/40
f 109/109/109 40/40/40 39/39/39
f 109/109/109 39/39/39 38/38/38
f 109/109/109 38/38/38 92/92/92
f 109/109/109 92/92/92 94/94/94
f 109/109/109 94/94/94 85/85/85
f 109/109/109 85/85/85 84/84/84
f 109/109/109 84/84/84 97/97/97
f 110/110/110 111/111/111 27/27/27
f 110/110/110 27/27/27 45/45/45
f 110/110/110 45/45/45 44/44/44
f 110/110/110 44/44/44 96/96/96
f 110/110/110 96/96/96 98/98/98
f 110/110/110 98/98/98 88/88/88
f 110/110/110 88/88/88 74/74/74
f 110/110/110 74/74/74 111/111/111
f 112/112/112 105/105/105 9/9/9
f 112/112/112 9/9/9 8/8/8
f 112/112/112 8/8/8 7/7/7
f 112/112/112 7/7/7 100/100/100
f 112/112/112 100/100/100 102/102/102
f 112/112/112 102/102/102 49/49/49
f 112/112/112 49/49/49 48/48/48
f 112/112/112 48/48/48 105/105/105
f 113/113/113 101/101/101 5/5/5
f 113/113/113 5/5/5 33/33/33
f 113/113/113 33/33/33 29/29/29
f 113/113/113 29/29/29 114/114/114
f 113/113/113 114/114/114 72/72/72
f 113/113/113 72/72/72 78/78/78
f 113/113/113 78/78/78 52/52/52
f 113/113/113 52/52/52 101/101/101
f 115/115/115 116/116/116 24/24/24
f 115/115/115 24/24/24 35/35/35
f 115/115/115 35/35/35 12/12/12
f 115/115/115 12/12/12 108/108/108
f 115/115/115 108/108/108 60/60/60
f 115/115/115 60/60/60 80/80/80
f 115/115/115 80/80/80 63/63/63
f 115/115/115 63/63/63 116/116/116
f 117/117/117 93/93/93 18/18/18
f 117/117/117 18/18/18 17/17/17
f 117/117/117 17/17/17 24/24/24
f 117/117/117 24/24/24 116/116/116
f 117/117/117 116/116/116 63/63/63
f 117/117/117 63/63/63 62/62/62
f 117/117/117 62/62/62 69/69/69
f 117/117/117 69/69/69 93/93/93
f 118/118/118 114/114/114 29/29/29
f 118/118/118 29/29/29 28/28/28
f 118/118/118 28/28/28 27/27/27
f 118/118/118 27/27/27 111/111/111
f 118/118/118 111/111/111 74/74/74
f 118/118/118 74/74/74 73/73/73
f 118/118/118 73/73/73 72/72/72
f 118/118/118 72/72/72 114/114/114
