v -2.295171 0.751358 -1.238153
v -2.295891 0.751377 -1.240392
v -2.298613 0.751392 -1.238848
v -2.297501 0.751304 -1.236483
v -2.296771 0.75146 -1.2346
v -2.294919 0.751579 -1.236257
v -2.293986 0.751474 -1.237689
v -2.293574 0.751287 -1.239428
v -2.293905 0.751259 -1.241538
v -2.297381 0.752106 -1.242057
v -2.298795 0.75289 -1.243103
v -2.301174 0.752949 -1.242377
v -2.300013 0.752154 -1.24092
v -2.295487 0.751934 -1.242806
v -2.297125 0.752535 -1.243233
v -2.308526 0.750498 -1.236357
v -2.30951 0.751046 -1.237914
v -2.312092 0.749886 -1.236077
v -2.311216 0.749389 -1.234705
v -2.310087 0.748855 -1.232838
v -2.307253 0.749907 -1.234241
v -2.304392 0.750735 -1.235702
v -2.305725 0.751377 -1.23791
v -2.306758 0.751985 -1.23953
v -2.306065 0.749666 -1.23201
v -2.30904 0.748653 -1.23086
v -2.308278 0.748596 -1.22934
v -2.305197 0.749587 -1.230297
v -2.302247 0.750459 -1.231562
v -2.30315 0.750506 -1.233363
v -2.300228 0.751036 -1.23487
v -2.301479 0.751205 -1.237261
v -2.299326 0.751085 -1.233015
v -2.30284 0.75192 -1.239484
v -2.303904 0.752633 -1.241102
v -2.31377 0.748153 -1.232834
v -2.314438 0.748575 -1.233842
v -2.315565 0.74769 -1.23236
v -2.315629 0.747151 -1.23136
v -2.315031 0.746801 -1.230432
v -2.312917 0.747716 -1.231454
v -2.312146 0.747604 -1.229965
v -2.314516 0.746775 -1.229395
v -2.313563 0.747012 -1.228822
v -2.31159 0.747612 -1.228811
v -2.295168 0.751113 -1.238163
v -2.295904 0.751135 -1.240431
v -2.293918 0.751077 -1.241566
v -2.293573 0.751103 -1.239431
v -2.293981 0.751337 -1.237686
v -2.294907 0.751395 -1.23625
v -2.296755 0.751276 -1.2346
v -2.29749 0.751059 -1.236501
v -2.298617 0.75115 -1.238891
v -2.297411 0.751871 -1.242125
v -2.298825 0.75272 -1.243169
v -2.297147 0.752408 -1.243277
v -2.295513 0.751759 -1.242857
v -2.300031 0.751919 -1.24099
v -2.301195 0.752778 -1.242442
v -2.3085 0.750268 -1.236441
v -2.309496 0.750875 -1.237986
v -2.306754 0.751813 -1.239599
v -2.305712 0.751144 -1.237989
v -2.304368 0.750497 -1.235761
v -2.307217 0.749671 -1.234306
v -2.310042 0.748622 -1.232908
v -2.311182 0.749161 -1.234793
v -2.312072 0.749718 -1.236152
v -2.306018 0.749428 -1.232056
v -2.303115 0.750265 -1.233402
v -2.302215 0.750277 -1.231581
v -2.305157 0.749408 -1.230322
v -2.308231 0.748418 -1.229368
v -2.308985 0.748417 -1.230911
v -2.300206 0.750793 -1.234899
v -2.30147 0.750964 -1.237312
v -2.299303 0.750901 -1.233025
v -2.302844 0.751685 -1.239558
v -2.303913 0.752461 -1.241168
v -2.313733 0.747927 -1.232925
v -2.314416 0.748408 -1.23392
v -2.312868 0.747485 -1.231526
v -2.314995 0.746628 -1.230486
v -2.315602 0.746982 -1.23143
v -2.315548 0.747565 -1.232415
v -2.312086 0.74737 -1.230016
v -2.31154 0.747435 -1.228839
v -2.313527 0.746882 -1.228846
v -2.314471 0.746599 -1.229432
v -2.314652 0.748642 -1.234215
v -2.31612 0.74746 -1.232095
v -2.312376 0.749978 -1.23657
v -2.315548 0.747565 -1.232415
v -2.315286 0.74642 -1.229221
v -2.314113 0.746781 -1.22855
v -2.31572 0.746419 -1.230115
v -2.313527 0.746882 -1.228846
v -2.294828 0.751571 -1.235618
v -2.293736 0.751477 -1.237522
v -2.296519 0.75143 -1.233969
v -2.293981 0.751337 -1.237686
v -2.294868 0.7518 -1.243079
v -2.297132 0.752625 -1.24352
v -2.29325 0.751139 -1.241932
v -2.297147 0.752408 -1.243277
v -2.299281 0.753077 -1.243484
v -2.301572 0.753139 -1.242894
v -2.316237 0.746742 -1.230901
v -2.311381 0.747536 -1.228436
v -2.308002 0.748498 -1.228843
v -2.293041 0.751182 -1.239853
v -2.299014 0.751019 -1.232399
v -2.301931 0.750362 -1.230968
v -2.304264 0.752795 -1.241673
v -2.307102 0.752111 -1.240103
v -2.309833 0.751153 -1.238467
v -2.304889 0.749481 -1.229735
vn -0.0246 0.9986 -0.0471
vn 0.1011 0.9861 0.1316
vn 0.049 0.9857 0.161
vn -0.0654 0.9978 0.0026
vn -0.0827 0.9963 0.023
vn -0.021 0.999 -0.0399
vn 0.0233 0.9962 -0.0835
vn 0.0756 0.9954 -0.0582
vn 0.1819 0.9796 0.0847
vn 0.1858 0.9274 0.3246
vn 0.1818 0.9304 0.3183
vn 0.0963 0.9357 0.3393
vn 0.1227 0.9342 0.3349
vn 0.2476 0.9373 0.2454
vn 0.2412 0.9225 0.3012
vn -0.118 0.9215 0.3699
vn -0.1437 0.9284 0.3427
vn -0.1728 0.9192 0.3539
vn -0.1423 0.9095 0.3906
vn -0.2089 0.9318 0.2967
vn -0.1726 0.9448 0.2786
vn -0.0986 0.9655 0.2408
vn -0.0455 0.9367 0.3472
vn -0.0741 0.9402 0.3324
vn -0.2236 0.9573 0.1833
vn -0.2557 0.9478 0.1904
vn -0.2396 0.9418 0.2358
vn -0.2134 0.9519 0.2196
vn -0.1662 0.9713 0.1697
vn -0.164 0.9768 0.1378
vn -0.1046 0.992 0.0701
vn -0.0163 0.9803 0.1969
vn -0.1197 0.988 0.0973
vn 0.0448 0.9415 0.334
vn 0.0135 0.943 0.3326
vn -0.1413 0.8976 0.4175
vn -0.1779 0.9074 0.3807
vn -0.1759 0.8932 0.4138
vn -0.1778 0.8709 0.4582
vn -0.2733 0.9043 0.3279
vn -0.2259 0.9251 0.3051
vn -0.2795 0.9443 0.1735
vn -0.337 0.9247 0.1771
vn -0.2954 0.9336 0.2027
vn -0.2665 0.9374 0.224
vn 0.0588 -0.9965 0.0598
vn -0.0868 -0.9864 -0.1397
vn -0.0313 -0.9848 -0.1709
vn 0.1586 -0.9823 0.0998
vn 0.2385 -0.9529 0.1871
vn 0.2184 -0.9607 0.1712
vn 0.1862 -0.9763 0.11
vn 0.0742 -0.9972 0.0099
vn -0.0491 -0.9857 -0.161
vn -0.178 -0.9163 -0.3586
vn -0.181 -0.8256 -0.5344
vn -0.1825 -0.8105 -0.5565
vn -0.1565 -0.8757 -0.4568
vn -0.1285 -0.9286 -0.348
vn -0.1495 -0.8627 -0.483
vn 0.1087 -0.9174 -0.3827
vn 0.043 -0.8828 -0.4678
vn -0.0087 -0.8913 -0.4533
vn 0.0377 -0.9324 -0.3594
vn 0.0988 -0.9655 -0.2408
vn 0.1727 -0.9447 -0.2787
vn 0.209 -0.9318 -0.2968
vn 0.1298 -0.9052 -0.4045
vn 0.0321 -0.8723 -0.4879
vn 0.23 -0.9585 -0.1683
vn 0.1707 -0.9774 -0.1244
vn 0.2311 -0.9725 -0.0295
vn 0.2719 -0.9602 -0.0634
vn 0.2845 -0.9577 -0.0418
vn 0.2613 -0.9497 -0.1722
vn 0.1117 -0.9921 -0.0573
vn 0.0162 -0.9803 -0.1969
vn 0.1934 -0.9804 0.0366
vn -0.0517 -0.9368 -0.346
vn -0.0851 -0.8862 -0.4554
vn 0.1112 -0.8961 -0.4297
vn -0.0264 -0.858 -0.5129
vn 0.2156 -0.9293 -0.3
vn 0.17 -0.9456 -0.2772
vn 0.0125 -0.89 -0.4557
vn -0.0663 -0.8492 -0.5239
vn 0.274 -0.9511 -0.1421
vn 0.2769 -0.9606 0.0229
vn 0.2664 -0.9617 0.064
vn 0.2445 -0.9685 -0.0456
vn -0.7969 0.2188 -0.5631
vn -0.9728 0.0943 -0.2113
vn -0.6941 0.2381 -0.6794
vn -0.0663 -0.8492 -0.5239
vn -0.7164 -0.3215 0.6192
vn -0.3224 -0.1257 0.9382
vn -0.8159 -0.4372 0.3783
vn 0.2664 -0.9617 0.064
vn 0.7306 0.1812 0.6583
vn 0.9051 0.1778 0.3863
vn 0.5839 0.1304 0.8012
vn 0.2385 -0.9529 0.1871
vn 0.5222 0.1459 -0.8402
vn 0.184 0.4217 -0.8878
vn 0.8591 -0.0911 -0.5036
vn -0.1825 -0.8105 -0.5565
vn -0.1347 0.474 -0.8701
vn -0.3394 0.4428 -0.8299
vn -0.9459 -0.244 0.2137
vn 0.084 -0.0791 0.9933
vn 0.2383 -0.0773 0.9681
vn 0.9998 -0.0155 0.0038
vn 0.4753 0.0651 0.8774
vn 0.4136 0.0126 0.9103
vn -0.4706 0.3852 -0.7938
vn -0.5388 0.3351 -0.7729
vn -0.6021 0.2827 -0.7467
vn 0.35 -0.0395 0.9359
vt 0.839504 0.118056
vt 0.856743 0.205307
vt 0.741230 0.205307
vt 0.734555 0.106726
vt 0.724541 0.032791
vt 0.813647 0.052618
vt 0.868992 0.081539
vt 0.913398 0.129584
vt 0.940923 0.205307
vt 0.839504 0.292557
vt 0.813647 0.357995
vt 0.724541 0.377822
vt 0.734555 0.303887
vt 0.913398 0.281029
vt 0.868992 0.329074
vt 0.369475 0.299954
vt 0.368286 0.370940
vt 0.245840 0.351447
vt 0.246397 0.288815
vt 0.246768 0.205307
vt 0.370268 0.205307
vt 0.494283 0.205307
vt 0.492822 0.304944
vt 0.490632 0.379672
vt 0.369475 0.110659
vt 0.246397 0.121798
vt 0.245841 0.059166
vt 0.368286 0.039673
vt 0.490632 0.030941
vt 0.492822 0.105669
vt 0.616755 0.103478
vt 0.619174 0.205307
vt 0.613127 0.027106
vt 0.616755 0.307135
vt 0.613126 0.383507
vt 0.123273 0.268175
vt 0.123047 0.315326
vt 0.054743 0.283353
vt 0.030912 0.249131
vt 0.030973 0.205306
vt 0.123423 0.205306
vt 0.123273 0.142438
vt 0.030912 0.161481
vt 0.054744 0.127260
vt 0.123047 0.095287
vt 0.839504 0.118056
vt 0.856743 0.205307
vt 0.968983 0.205307
vt 0.938030 0.133427
vt 0.876123 0.061548
vt 0.805028 0.030806
vt 0.721203 0.008146
vt 0.734555 0.106726
vt 0.741230 0.205307
vt 0.839504 0.292557
vt 0.805028 0.379807
vt 0.876123 0.349065
vt 0.938030 0.277186
vt 0.734555 0.303887
vt 0.721203 0.402467
vt 0.369475 0.299954
vt 0.367890 0.394602
vt 0.489902 0.404581
vt 0.492822 0.304944
vt 0.494283 0.205307
vt 0.370268 0.205307
vt 0.246768 0.205307
vt 0.246397 0.288815
vt 0.245655 0.372324
vt 0.369475 0.110659
vt 0.492822 0.105669
vt 0.489902 0.006032
vt 0.367890 0.016011
vt 0.245655 0.038289
vt 0.246397 0.121798
vt 0.616755 0.103478
vt 0.619174 0.205307
vt 0.611917 0.001649
vt 0.616755 0.307135
vt 0.611917 0.408964
vt 0.123273 0.268175
vt 0.122972 0.331043
vt 0.123423 0.205306
vt 0.000156 0.205306
vt 0.000125 0.242784
vt 0.000064 0.280261
vt 0.123273 0.142438
vt 0.122972 0.079570
vt 0.000064 0.130352
vt 0.000125 0.167829
vt 0.122972 0.331043
vt 0.030806 0.283587
vt 0.245655 0.372324
vt 0.030806 0.283587
vt 0.000125 0.167829
vt 0.030806 0.127026
vt 0.000156 0.205306
vt 0.030806 0.127026
vt 0.805028 0.030806
vt 0.873826 0.071832
vt 0.721203 0.008146
vt 0.873826 0.071832
vt 0.938030 0.277186
vt 0.873826 0.338781
vt 0.968983 0.205307
vt 0.873826 0.338781
vt 0.805028 0.379807
vt 0.721203 0.402467
vt 0.000125 0.242784
vt 0.122972 0.079570
vt 0.245655 0.038289
vt 0.938030 0.133427
vt 0.611917 0.001649
vt 0.489902 0.006032
vt 0.611917 0.408964
vt 0.489902 0.404581
vt 0.367890 0.394602
vt 0.367890 0.016011
f 1/1/1 2/2/2 3/3/3
f 1/1/1 3/3/3 4/4/4
f 1/1/1 4/4/4 5/5/5
f 1/1/1 5/5/5 6/6/6
f 1/1/1 6/6/6 7/7/7
f 1/1/1 7/7/7 8/8/8
f 1/1/1 8/8/8 9/9/9
f 1/1/1 9/9/9 2/2/2
f 10/10/10 11/11/11 12/12/12
f 10/10/10 12/12/12 13/13/13
f 10/10/10 13/13/13 3/3/3
f 10/10/10 3/3/3 2/2/2
f 10/10/10 2/2/2 9/9/9
f 10/10/10 9/9/9 14/14/14
f 10/10/10 14/14/14 15/15/15
f 10/10/10 15/15/15 11/11/11
f 16/16/16 17/17/17 18/18/18
f 16/16/16 18/18/18 19/19/19
f 16/16/16 19/19/19 20/20/20
f 16/16/16 20/20/20 21/21/21
f 16/16/16 21/21/21 22/22/22
f 16/16/16 22/22/22 23/23/23
f 16/16/16 23/23/23 24/24/24
f 16/16/16 24/24/24 17/17/17
f 25/25/25 21/21/21 20/20/20
f 25/25/25 20/20/20 26/26/26
f 25/25/25 26/26/26 27/27/27
f 25/25/25 27/27/27 28/28/28
f 25/25/25 28/28/28 29/29/29
f 25/25/25 29/29/29 30/30/30
f 25/25/25 30/30/30 22/22/22
f 25/25/25 22/22/22 21/21/21
f 31/31/31 32/32/32 22/22/22
f 31/31/31 22/22/22 30/30/30
f 31/31/31 30/30/30 29/29/29
f 31/31/31 29/29/29 33/33/33
f 31/31/31 33/33/33 5/5/5
f 31/31/31 5/5/5 4/4/4
f 31/31/31 4/4/4 3/3/3
f 31/31/31 3/3/3 32/32/32
f 34/34/34 35/35/35 24/24/24
f 34/34/34 24/24/24 23/23/23
f 34/34/34 23/23/23 22/22/22
f 34/34/34 22/22/22 32/32/32
f 34/34/34 32/32/32 3/3/3
f 34/34/34 3/3/3 13/13/13
f 34/34/34 13/13/13 12/12/12
f 34/34/34 12/12/12 35/35/35
f 36/36/36 37/37/37 38/38/38
f 36/36/36 38/38/38 39/39/39
f 36/36/36 39/39/39 40/40/40
f 36/36/36 40/40/40 41/41/41
f 36/36/36 41/41/41 20/20/20
f 36/36/36 20/20/20 19/19/19
f 36/36/36 19/19/19 18/18/18
f 36/36/36 18/18/18 37/37/37
f 42/42/42 41/41/41 40/40/40
f 42/42/42 40/40/40 43/43/43
f 42/42/42 43/43/43 44/44/44
f 42/42/42 44/44/44 45/45/45
f 42/42/42 45/45/45 27/27/27
f 42/42/42 27/27/27 26/26/26
f 42/42/42 26/26/26 20/20/20
f 42/42/42 20/20/20 41/41/41
f 46/46/46 47/47/47 48/48/48
f 46/46/46 48/48/48 49/49/49
f 46/46/46 49/49/49 50/50/50
f 46/46/46 50/50/50 51/51/51
f 46/46/46 51/51/51 52/52/52
f 46/46/46 52/52/52 53/53/53
f 46/46/46 53/53/53 54/54/54
f 46/46/46 54/54/54 47/47/47
f 55/55/55 56/56/56 57/57/57
f 55/55/55 57/57/57 58/58/58
f 55/55/55 58/58/58 48/48/48
f 55/55/55 48/48/48 47/47/47
f 55/55/55 47/47/47 54/54/54
f 55/55/55 54/54/54 59/59/59
f 55/55/55 59/59/59 60/60/60
f 55/55/55 60/60/60 56/56/56
f 61/61/61 62/62/62 63/63/63
f 61/61/61 63/63/63 64/64/64
f 61/61/61 64/64/64 65/65/65
f 61/61/61 65/65/65 66/66/66
f 61/61/61 66/66/66 67/67/67
f 61/61/61 67/67/67 68/68/68
f 61/61/61 68/68/68 69/69/69
f 61/61/61 69/69/69 62/62/62
f 70/70/70 66/66/66 65/65/65
f 70/70/70 65/65/65 71/71/71
f 70/70/70 71/71/71 72/72/72
f 70/70/70 72/72/72 73/73/73
f 70/70/70 73/73/73 74/74/74
f 70/70/70 74/74/74 75/75/75
f 70/70/70 75/75/75 67/67/67
f 70/70/70 67/67/67 66/66/66
f 76/76/76 77/77/77 54/54/54
f 76/76/76 54/54/54 53/53/53
f 76/76/76 53/53/53 52/52/52
f 76/76/76 52/52/52 78/78/78
f 76/76/76 78/78/78 72/72/72
f 76/76/76 72/72/72 71/71/71
f 76/76/76 71/71/71 65/65/65
f 76/76/76 65/65/65 77/77/77
f 79/79/79 80/80/80 60/60/60
f 79/79/79 60/60/60 59/59/59
f 79/79/79 59/59/59 54/54/54
f 79/79/79 54/54/54 77/77/77
f 79/79/79 77/77/77 65/65/65
f 79/79/79 65/65/65 64/64/64
f 79/79/79 64/64/64 63/63/63
f 79/79/79 63/63/63 80/80/80
f 81/81/81 82/82/82 69/69/69
f 81/81/81 69/69/69 68/68/68
f 81/81/81 68/68/68 67/67/67
f 81/81/81 67/67/67 83/83/83
f 81/81/81 83/83/83 84/84/84
f 81/81/81 84/84/84 85/85/85
f 81/81/81 85/85/85 86/86/86
f 81/81/81 86/86/86 82/82/82
f 87/87/87 83/83/83 67/67/67
f 87/87/87 67/67/67 75/75/75
f 87/87/87 75/75/75 74/74/74
f 87/87/87 74/74/74 88/88/88
f 87/87/87 88/88/88 89/89/89
f 87/87/87 89/89/89 90/90/90
f 87/87/87 90/90/90 84/84/84
f 87/87/87 84/84/84 83/83/83
f 91/91/91 92/92/92 38/38/38
f 91/91/91 38/38/38 37/37/37
f 91/91/91 37/37/37 18/18/18
f 91/91/91 18/18/18 93/93/93
f 91/91/91 93/93/93 69/69/69
f 91/91/91 69/69/69 82/82/82
f 91/91/91 82/82/82 94/94/94
f 91/91/91 94/94/94 92/92/92
f 95/95/95 96/96/96 44/44/44
f 95/95/95 44/44/44 43/43/43
f 95/95/95 43/43/43 40/40/40
f 95/95/95 40/40/40 97/97/97
f 95/95/95 97/97/97 84/84/84
f 95/95/95 84/84/84 90/90/90
f 95/95/95 90/90/90 98/98/98
f 95/95/95 98/98/98 96/96/96
f 99/99/99 100/100/100 7/7/7
f 99/99/99 7/7/7 6/6/6
f 99/99/99 6/6/6 5/5/5
f 99/99/99 5/5/5 101/101/101
f 99/99/99 101/101/101 52/52/52
f 99/99/99 52/52/52 51/51/51
f 99/99/99 51/51/51 102/102/102
f 99/99/99 102/102/102 100/100/100
f 103/103/103 104/104/104 15/15/15
f 103/103/103 15/15/15 14/14/14
f 103/103/103 14/14/14 9/9/9
f 103/103/103 9/9/9 105/105/105
f 103/103/103 105/105/105 48/48/48
f 103/103/103 48/48/48 58/58/58
f 103/103/103 58/58/58 106/106/106
f 103/103/103 106/106/106 104/104/104
f 107/107/107 108/108/108 12/12/12
f 107/107/107 12/12/12 11/11/11
f 107/107/107 11/11/11 15/15/15
f 107/107/107 15/15/15 104/104/104
f 107/107/107 104/104/104 106/106/106
f 107/107/107 106/106/106 56/56/56
f 107/107/107 56/56/56 60/60/60
f 107/107/107 60/60/60 108/108/108
f 109/109/109 97/97/97 40/40/40
f 109/109/109 40/40/40 39/39/39
f 109/109/109 39/39/39 38/38/38
f 109/109/109 38/38/38 92/92/92
f 109/109/109 92/92/92 94/94/94
f 109/109/109 94/94/94 85/85/85
f 109/109/109 85/85/85 84/84/84
f 109/109/109 84/84/84 97/97/97
f 110/110/110 111/111/111 27/27/27
f 110/110/110 27/27/27 45/45/45
f 110/110/110 45/45/45 44/44/44
f 110/110/110 44/44/44 96/96/96
f 110/110/110 96/96/96 98/98/98
f 110/110/110 98/98/98 88/88/88
f 110/110/110 88/88/88 74/74/74
f 110/110/110 74/74/74 111/111/111
f 112/112/112 105/105/105 9/9/9
f 112/112/112 9/9/9 8/8/8
f 112/112/112 8/8/8 7/7/7
f 112/112/112 7/7/7 100/100/100
f 112/112/112 100/100/100 102/102/102
f 112/112/112 102/102/102 49/49/49
f 112/112/112 49/49/49 48/48/48
f 112/112/112 48/48/48 105/105/105
f 113/113/113 101/101/101 5/5/5
f 113/113/113 5/5/5 33/33/33
f 113/113/113 33/33/33 29/29/29
f 113/113/113 29/29/29 114/114/114
f 113/113/113 114/114/114 72/72/72
f 113/113/113 72/72/72 78/78/78
f 113/113/113 78/78/78 52/52/52
f 113/113/113 52/52/52 101/101/101
f 115/115/115 116/116/116 24/24/24
f 115/115/115 24/24/24 35/35/35
f 115/115/115 35/35/35 12/12/12
f 115/115/115 12/12/12 108/108/108
f 115/115/115 108/108/108 60/60/60
f 115/115/115 60/60/60 80/80/80
f 115/115/115 80/80/80 63/63/63
f 115/115/115 63/63/63 116/116/116
f 117/117/117 93/93/93 18/18/18
f 117/117/117 18/18/18 17/17/17
f 117/117/117 17/17/17 24/24/24
f 117/117/117 24/24/24 116/116/116
f 117/117/117 116/116/116 63/63/63
f 117/117/117 63/63/63 62/62/62
f 117/117/117 62/62/62 69/69/69
f 117/117/117 69/69/69 93/93/93
f 118/118/118 114/114/114 29/29/29
f 118/118/118 29/29/29 28/28/28
f 118/118/118 28/28/28 27/27/27
f 118/118/118 27/27/27 111/111/111
f 118/118/118 111/111/111 74/74/74
f 118/118/118 74/74/74 73/73/73
f 118/118/118 73/73/73 72/72/72
f 118/118/118 72/72/72 114/114/114
