v -2.388264 0.783741 -1.21082
v -2.386586 0.78382 -1.2123
v -2.388605 0.782183 -1.213758
v -2.390259 0.782222 -1.211899
v -2.391701 0.782353 -1.210624
v -2.389867 0.783683 -1.209932
v -2.388382 0.784335 -1.209765
v -2.386749 0.784722 -1.210092
v -2.385058 0.784933 -1.211204
v -2.385854 0.783965 -1.21441
v -2.385639 0.784077 -1.216228
v -2.386899 0.7828 -1.217776
v -2.387519 0.782477 -1.215979
v -2.384662 0.784917 -1.213199
v -2.384958 0.784654 -1.214864
v -2.392983 0.776064 -1.219989
v -2.392141 0.776299 -1.221596
v -2.393936 0.77375 -1.222373
v -2.394671 0.773535 -1.220944
v -2.39574 0.773325 -1.219103
v -2.394202 0.775832 -1.217914
v -2.392527 0.778189 -1.216642
v -2.391265 0.778447 -1.21882
v -2.390405 0.778717 -1.220514
v -2.395669 0.775814 -1.215991
v -2.397045 0.773314 -1.217409
v -2.398097 0.773363 -1.216177
v -2.396845 0.775861 -1.214591
v -2.395325 0.778259 -1.213186
v -2.394073 0.778186 -1.214638
v -2.392233 0.780346 -1.213223
v -2.390623 0.780306 -1.215231
v -2.393566 0.780484 -1.211787
v -2.389383 0.780611 -1.217466
v -2.388572 0.780949 -1.219223
v -2.396459 0.770934 -1.221655
v -2.395946 0.771124 -1.222745
v -2.39716 0.769584 -1.222658
v -2.397816 0.768939 -1.222088
v -2.398308 0.768785 -1.221112
v -2.397229 0.770755 -1.220264
v -2.398231 0.770769 -1.219017
v -2.399031 0.768826 -1.22028
v -2.399345 0.76938 -1.219405
v -2.399053 0.770835 -1.218119
v -2.388165 0.783551 -1.210726
v -2.386468 0.783629 -1.212233
v -2.384971 0.784788 -1.211155
v -2.386678 0.784578 -1.210022
v -2.388333 0.78423 -1.209707
v -2.389803 0.783542 -1.209849
v -2.391629 0.782215 -1.210541
v -2.390152 0.782037 -1.211803
v -2.388481 0.781998 -1.213686
v -2.385718 0.783779 -1.21437
v -2.38553 0.78394 -1.216212
v -2.38488 0.784551 -1.214849
v -2.384562 0.784775 -1.213173
v -2.387379 0.782295 -1.215931
v -2.386786 0.782666 -1.217753
v -2.392821 0.775911 -1.219915
v -2.392014 0.776185 -1.22155
v -2.390283 0.778596 -1.220473
v -2.39111 0.778285 -1.218753
v -2.392383 0.778024 -1.216555
v -2.394051 0.775678 -1.217822
v -2.395584 0.773177 -1.219008
v -2.394504 0.773389 -1.220867
v -2.393806 0.773641 -1.222323
v -2.39553 0.775659 -1.215883
v -2.393943 0.778021 -1.214534
v -2.395234 0.778135 -1.213099
v -2.396747 0.775745 -1.214502
v -2.397995 0.773251 -1.216084
v -2.396901 0.773166 -1.217296
v -2.392114 0.78017 -1.213123
v -2.390489 0.78013 -1.215152
v -2.393484 0.780353 -1.211702
v -2.389236 0.780438 -1.217408
v -2.388455 0.780821 -1.21919
v -2.396289 0.770791 -1.221577
v -2.395814 0.771018 -1.222697
v -2.397071 0.770609 -1.220167
v -2.398189 0.768677 -1.221039
v -2.397689 0.768832 -1.22203
v -2.397063 0.769505 -1.222619
v -2.398086 0.770624 -1.218902
v -2.398952 0.770726 -1.218024
v -2.399268 0.7693 -1.219337
v -2.398923 0.768717 -1.220192
v -2.395715 0.771141 -1.223089
v -2.397445 0.769076 -1.222885
v -2.393632 0.773774 -1.222829
v -2.397063 0.769505 -1.222619
v -2.399249 0.768129 -1.220662
v -2.399633 0.768872 -1.219626
v -2.398614 0.768081 -1.221362
v -2.399268 0.7693 -1.219337
v -2.390375 0.783602 -1.209596
v -2.388458 0.784431 -1.209506
v -2.392152 0.782336 -1.21016
v -2.388333 0.78423 -1.209707
v -2.384221 0.78517 -1.212785
v -2.384753 0.784776 -1.215022
v -2.38451 0.785239 -1.210817
v -2.38488 0.784551 -1.214849
v -2.385517 0.784054 -1.21683
v -2.38664 0.782849 -1.218368
v -2.398212 0.768226 -1.222206
v -2.399284 0.770808 -1.217775
v -2.398404 0.773329 -1.215723
v -2.386213 0.784985 -1.209818
v -2.393975 0.780471 -1.211268
v -2.395704 0.778228 -1.212662
v -2.388248 0.781005 -1.219796
v -2.390062 0.778754 -1.221062
v -2.391802 0.776327 -1.222113
v -2.397195 0.775825 -1.214083
vn -0.3508 0.8238 -0.4453
vn -0.4683 0.8439 -0.2617
vn -0.5085 0.8104 -0.2908
vn -0.4056 0.7919 -0.4563
vn -0.4278 0.7776 -0.4608
vn -0.3563 0.8246 -0.4393
vn -0.3045 0.8542 -0.4214
vn -0.312 0.8759 -0.368
vn -0.4022 0.8901 -0.2144
vn -0.5919 0.8014 -0.0862
vn -0.5887 0.8029 -0.0934
vn -0.6329 0.7584 -0.1555
vn -0.6212 0.7718 -0.1354
vn -0.5087 0.8576 -0.0749
vn -0.5539 0.831 -0.0498
vn -0.7139 0.6284 -0.309
vn -0.6998 0.6259 -0.3443
vn -0.7141 0.6009 -0.3591
vn -0.7342 0.6015 -0.3148
vn -0.6787 0.6038 -0.418
vn -0.6577 0.6371 -0.4018
vn -0.6119 0.7006 -0.3671
vn -0.6796 0.6834 -0.2665
vn -0.676 0.6742 -0.2974
vn -0.5929 0.6396 -0.4892
vn -0.6044 0.6136 -0.5081
vn -0.6375 0.6081 -0.4731
vn -0.6198 0.6334 -0.4632
vn -0.5703 0.6841 -0.4546
vn -0.5438 0.696 -0.4688
vn -0.4736 0.7532 -0.4564
vn -0.5561 0.7646 -0.3257
vn -0.5002 0.7366 -0.4552
vn -0.6448 0.7373 -0.2015
vn -0.6528 0.7224 -0.2279
vn -0.753 0.5869 -0.2976
vn -0.7345 0.5833 -0.3468
vn -0.7577 0.5659 -0.3251
vn -0.7886 0.5376 -0.2984
vn -0.7134 0.5411 -0.4452
vn -0.6882 0.5877 -0.4254
vn -0.5948 0.6016 -0.5332
vn -0.6063 0.5544 -0.5701
vn -0.6209 0.5785 -0.5289
vn -0.633 0.5927 -0.498
vn 0.3484 -0.8066 0.4775
vn 0.4795 -0.835 0.2698
vn 0.5218 -0.7984 0.3004
vn 0.3354 -0.7506 0.5693
vn 0.2695 -0.7017 0.6595
vn 0.2809 -0.7155 0.6396
vn 0.3318 -0.7332 0.5936
vn 0.3967 -0.7893 0.4686
vn 0.5084 -0.8105 0.2907
vn 0.6198 -0.7813 0.0733
vn 0.7386 -0.6728 -0.0417
vn 0.7517 -0.6569 -0.0586
vn 0.6962 -0.7171 0.0318
vn 0.629 -0.7676 0.1228
vn 0.7164 -0.6973 0.0209
vn 0.721 -0.6273 0.2944
vn 0.7642 -0.6161 0.1905
vn 0.7403 -0.6532 0.1587
vn 0.6865 -0.6815 0.2533
vn 0.612 -0.7005 0.3672
vn 0.6578 -0.637 0.4019
vn 0.6788 -0.6037 0.4181
vn 0.7413 -0.6018 0.2969
vn 0.7748 -0.6092 0.1689
vn 0.5819 -0.6403 0.5014
vn 0.5341 -0.6957 0.4803
vn 0.4655 -0.6788 0.5679
vn 0.5019 -0.6405 0.5812
vn 0.4855 -0.6361 0.5997
vn 0.5906 -0.6159 0.5214
vn 0.4644 -0.7521 0.4677
vn 0.5561 -0.7646 0.3256
vn 0.3999 -0.7183 0.5693
vn 0.6516 -0.7346 0.1888
vn 0.7191 -0.6885 0.0941
vn 0.7548 -0.599 0.2673
vn 0.7751 -0.623 0.1051
vn 0.6825 -0.5975 0.421
vn 0.6561 -0.6395 0.4006
vn 0.7479 -0.6406 0.1741
vn 0.7702 -0.6345 0.0645
vn 0.5683 -0.6163 0.5451
vn 0.4275 -0.6554 0.6226
vn 0.3889 -0.67 0.6323
vn 0.4819 -0.6652 0.5702
vn 0.1897 -0.1242 -0.9739
vn -0.121 -0.3895 -0.913
vn 0.3131 -0.0314 -0.9492
vn 0.7702 -0.6345 0.0645
vn -0.6195 -0.7643 -0.179
vn -0.8662 -0.4592 0.1968
vn -0.3906 -0.8645 -0.3163
vn 0.3889 -0.67 0.6323
vn -0.4458 0.4024 0.7995
vn -0.1569 0.5447 0.8238
vn -0.5928 0.2552 0.7638
vn 0.2695 -0.7017 0.6595
vn 0.8279 0.5608 -0.0022
vn 0.6694 0.6216 -0.4068
vn 0.7168 0.4743 0.511
vn 0.7517 -0.6569 -0.0586
vn 0.5452 0.4946 -0.6768
vn 0.4651 0.3537 -0.8115
vn -0.3567 -0.7399 -0.5703
vn -0.8199 -0.2183 0.5292
vn -0.7555 -0.1308 0.6419
vn 0.2803 0.5099 0.8133
vn -0.6651 0.1288 0.7356
vn -0.6908 0.0468 0.7215
vn 0.419 0.23 -0.8784
vn 0.4007 0.1483 -0.9041
vn 0.3804 0.0667 -0.9224
vn -0.7107 -0.0345 0.7026
vt 0.839504 0.118056
vt 0.856743 0.205307
vt 0.741230 0.205307
vt 0.734555 0.106726
vt 0.724541 0.032791
vt 0.813647 0.052618
vt 0.868992 0.081539
vt 0.913398 0.129584
vt 0.940923 0.205307
vt 0.839504 0.292557
vt 0.813647 0.357995
vt 0.724541 0.377822
vt 0.734555 0.303887
vt 0.913398 0.281029
vt 0.868992 0.329074
vt 0.369475 0.299954
vt 0.368286 0.370940
vt 0.245840 0.351447
vt 0.246397 0.288815
vt 0.246768 0.205307
vt 0.370268 0.205307
vt 0.494283 0.205307
vt 0.492822 0.304944
vt 0.490632 0.379672
vt 0.369475 0.110659
vt 0.246397 0.121798
vt 0.245841 0.059166
vt 0.368286 0.039673
vt 0.490632 0.030941
vt 0.492822 0.105669
vt 0.616755 0.103478
vt 0.619174 0.205307
vt 0.613127 0.027106
vt 0.616755 0.307135
vt 0.613126 0.383507
vt 0.123273 0.268175
vt 0.123047 0.315326
vt 0.054743 0.283353
vt 0.030912 0.249131
vt 0.030973 0.205306
vt 0.123423 0.205306
vt 0.123273 0.142438
vt 0.030912 0.161481
vt 0.054744 0.127260
vt 0.123047 0.095287
vt 0.839504 0.118056
vt 0.856743 0.205307
vt 0.968983 0.205307
vt 0.938030 0.133427
vt 0.876123 0.061548
vt 0.805028 0.030806
vt 0.721203 0.008146
vt 0.734555 0.106726
vt 0.741230 0.205307
vt 0.839504 0.292557
vt 0.805028 0.379807
vt 0.876123 0.349065
vt 0.938030 0.277186
vt 0.734555 0.303887
vt 0.721203 0.402467
vt 0.369475 0.299954
vt 0.367890 0.394602
vt 0.489902 0.404581
vt 0.492822 0.304944
vt 0.494283 0.205307
vt 0.370268 0.205307
vt 0.246768 0.205307
vt 0.246397 0.288815
vt 0.245655 0.372324
vt 0.369475 0.110659
vt 0.492822 0.105669
vt 0.489902 0.006032
vt 0.367890 0.016011
vt 0.245655 0.038289
vt 0.246397 0.121798
vt 0.616755 0.103478
vt 0.619174 0.205307
vt 0.611917 0.001649
vt 0.616755 0.307135
vt 0.611917 0.408964
vt 0.123273 0.268175
vt 0.122972 0.331043
vt 0.123423 0.205306
vt 0.000156 0.205306
vt 0.000125 0.242784
vt 0.000064 0.280261
vt 0.123273 0.142438
vt 0.122972 0.079570
vt 0.000064 0.130352
vt 0.000125 0.167829
vt 0.122972 0.331043
vt 0.030806 0.283587
vt 0.245655 0.372324
vt 0.030806 0.283587
vt 0.000125 0.167829
vt 0.030806 0.127026
vt 0.000156 0.205306
vt 0.030806 0.127026
vt 0.805028 0.030806
vt 0.873826 0.071832
vt 0.721203 0.008146
vt 0.873826 0.071832
vt 0.938030 0.277186
vt 0.873826 0.338781
vt 0.968983 0.205307
vt 0.873826 0.338781
vt 0.805028 0.379807
vt 0.721203 0.402467
vt 0.000125 0.242784
vt 0.122972 0.079570
vt 0.245655 0.038289
vt 0.938030 0.133427
vt 0.611917 0.001649
vt 0.489902 0.006032
vt 0.611917 0.408964
vt 0.489902 0.404581
vt 0.367890 0.394602
vt 0.367890 0.016011
f 1/1/1 2/2/2 3/3/3
f 1/1/1 3/3/3 4/4/4
f 1/1/1 4/4/4 5/5/5
f 1/1/1 5/5/5 6/6/6
f 1/1/1 6/6/6 7/7/7
f 1/1/1 7/7/7 8/8/8
f 1/1/1 8/8/8 9/9/9
f 1/1/1 9/9/9 2/2/2
f 10/10/10 11/11/11 12/12/12
f 10/10/10 12/12/12 13/13/13
f 10/10/10 13/13/13 3/3/3
f 10/10/10 3/3/3 2/2/2
f 10/10/10 2/2/2 9/9/9
f 10/10/10 9/9/9 14/14/14
f 10/10/10 14/14/14 15/15/15
f 10/10/10 15/15/15 11/11/11
f 16/16/16 17/17/17 18/18/18
f 16/16/16 18/18/18 19/19/19
f 16/16/16 19/19/19 20/20/20
f 16/16/16 20/20/20 21/21/21
f 16/16/16 21/21/21 22/22/22
f 16/16/16 22/22/22 23/23/23
f 16/16/16 23/23/23 24/24/24
f 16/16/16 24/24/24 17/17/17
f 25/25/25 21/21/21 20/20/20
f 25/25/25 20/20/20 26/26/26
f 25/25/25 26/26/26 27/27/27
f 25/25/25 27/27/27 28/28/28
f 25/25/25 28/28/28 29/29/29
f 25/25/25 29/29/29 30/30/30
f 25/25/25 30/30/30 22/22/22
f 25/25/25 22/22/22 21/21/21
f 31/31/31 32/32/32 22/22/22
f 31/31/31 22/22/22 30/30/30
f 31/31/31 30/30/30 29/29/29
f 31/31/31 29/29/29 33/33/33
f 31/31/31 33/33/33 5/5/5
f 31/31/31 5/5/5 4/4/4
f 31/31/31 4/4/4 3/3/3
f 31/31/31 3/3/3 32/32/32
f 34/34/34 35/35/35 24/24/24
f 34/34/34 24/24/24 23/23/23
f 34/34/34 23/23/23 22/22/22
f 34/34/34 22/22/22 32/32/32
f 34/34/34 32/32/32 3/3/3
f 34/34/34 3/3/3 13/13/13
f 34/34/34 13/13/13 12/12/12
f 34/34/34 12/12/12 35/35/35
f 36/36/36 37/37/37 38/38/38
f 36/36/36 38/38/38 39/39/39
f 36/36/36 39/39/39 40/40/40
f 36/36/36 40/40/40 41/41/41
f 36/36/36 41/41/41 20/20/20
f 36/36/36 20/20/20 19/19/19
f 36/36/36 19/19/19 18/18/18
f 36/36/36 18/18/18 37/37/37
f 42/42/42 41/41/41 40/40/40
f 42/42/42 40/40/40 43/43/43
f 42/42/42 43/43/43 44/44/44
f 42/42/42 44/44/44 45/45/45
f 42/42/42 45/45/45 27/27/27
f 42/42/42 27/27/27 26/26/26
f 42/42/42 26/26/26 20/20/20
f 42/42/42 20/20/20 41/41/41
f 46/46/46 47/47/47 48/48/48
f 46/46/46 48/48/48 49/49/49
f 46/46/46 49/49/49 50/50/50
f 46/46/46 50/50/50 51/51/51
f 46/46/46 51/51/51 52/52/52
f 46/46/46 52/52/52 53/53/53
f 46/46/46 53/53/53 54/54/54
f 46/46/46 54/54/54 47/47/47
f 55/55/55 56/56/56 57/57/57
f 55/55/55 57/57/57 58/58/58
f 55/55/55 58/58/58 48/48/48
f 55/55/55 48/48/48 47/47/47
f 55/55/55 47/47/47 54/54/54
f 55/55/55 54/54/54 59/59/59
f 55/55/55 59/59/59 60/60/60
f 55/55/55 60/60/60 56/56/56
f 61/61/61 62/62/62 63/63/63
f 61/61/61 63/63/63 64/64/64
f 61/61/61 64/64/64 65/65/65
f 61/61/61 65/65/65 66/66/66
f 61/61/61 66/66/66 67/67/67
f 61/61/61 67/67/67 68/68/68
f 61/61/61 68/68/68 69/69/69
f 61/61/61 69/69/69 62/62/62
f 70/70/70 66/66/66 65/65/65
f 70/70/70 65/65/65 71/71/71
f 70/70/70 71/71/71 72/72/72
f 70/70/70 72/72/72 73/73/73
f 70/70/70 73/73/73 74/74/74
f 70/70/70 74/74/74 75/75/75
f 70/70/70 75/75/75 67/67/67
f 70/70/70 67/67/67 66/66/66
f 76/76/76 77/77/77 54/54/54
f 76/76/76 54/54/54 53/53/53
f 76/76/76 53/53/53 52/52/52
f 76/76/76 52/52/52 78/78/78
f 76/76/76 78/78/78 72/72/72
f 76/76/76 72/72/72 71/71/71
f 76/76/76 71/71/71 65/65/65
f 76/76/76 65/65/65 77/77/77
f 79/79/79 80/80/80 60/60/60
f 79/79/79 60/60/60 59/59/59
f 79/79/79 59/59/59 54/54/54
f 79/79/79 54/54/54 77/77/77
f 79/79/79 77/77/77 65/65/65
f 79/79/79 65/65/65 64/64/64
f 79/79/79 64/64/64 63/63/63
f 79/79/79 63/63/63 80/80/80
f 81/81/81 82/82/82 69/69/69
f 81/81/81 69/69/69 68/68/68
f 81/81/81 68/68/68 67/67/67
f 81/81/81 67/67/67 83/83/83
f 81/81/81 83/83/83 84/84/84
f 81/81/81 84/84/84 85/85/85
f 81/81/81 85/85/85 86/86/86
f 81/81/81 86/86/86 82/82/82
f 87/87/87 83/83/83 67/67/67
f 87/87/87 67/67/67 75/75/75
f 87/87/87 75/75/75 74/74/74
f 87/87/87 74/74/74 88/88/88
f 87/87/87 88/88/88 89/89/89
f 87/87/87 89/89/89 90/90/90
f 87/87/87 90/90/90 84/84/84
f 87/87/87 84/84/84 83/83/83
f 91/91/91 92/92/92 38/38/38
f 91/91/91 38/38/38 37/37/37
f 91/91/91 37/37/37 18/18/18
f 91/91/91 18/18/18 93/93/93
f 91/91/91 93/93/93 69/69/69
f 91/91/91 69/69/69 82/82/82
f 91/91/91 82/82/82 94/94/94
f 91/91/91 94/94/94 92/92/92
f 95/95/95 96/96/96 44/44/44
f 95/95/95 44/44/44 43/43/43
f 95/95/95 43/43/43 40/40/40
f 95/95/95 40/40/40 97/97/97
f 95/95/95 97/97/97 84/84/84
f 95/95/95 84/84/84 90/90/90
f 95/95/95 90/90/90 98/98/98
f 95/95/95 98/98/98 96/96/96
f 99/99/99 100/100/100 7/7/7
f 99/99/99 7/7/7 6/6/6
f 99/99/99 6/6/6 5/5/5
f 99/99/99 5/5/5 101/101/101
f 99/99/99 101/101/101 52/52/52
f 99/99/99 52/52/52 51/51/51
f 99/99/99 51/51/51 102/102/102
f 99/99/99 102/102/102 100/100/100
f 103/103/103 104/104/104 15/15/15
f 103/103/103 15/15/15 14/14/14
f 103/103/103 14/14/14 9/9/9
f 103/103/103 9/9/9 105/105/105
f 103/103/103 105/105/105 48/48/48
f 103/103/103 48/48/48 58/58/58
f 103/103/103 58/58/58 106/106/106
f 103/103/103 106/106/106 104/104/104
f 107/107/107 108/108/108 12/12/12
f 107/107/107 12/12/12 11/11/11
f 107/107/107 11/11/11 15/15/15
f 107/107/107 15/15/15 104/104/104
f 107/107/107 104/104/104 106/106/106
f 107/107/107 106/106/106 56/56/56
f 107/107/107 56/56/56 60/60/60
f 107/107/107 60/60/60 108/108/108
f 109/109/109 97/97/97 40/40/40
f 109/109/109 40/40/40 39/39/39
f 109/109/109 39/39/39 38/38/38
f 109/109/109 38/38/38 92/92/92
f 109/109/109 92/92/92 94/94/94
f 109/109/109 94/94/94 85/85/85
f 109/109/109 85/85/85 84/84/84
f 109/109/109 84/84/84 97/97/97
f 110/110/110 111/111/111 27/27/27
f 110/110/110 27/27/27 45/45/45
f 110/110/110 45/45/45 44/44/44
f 110/110/110 44/44/44 96/96/96
f 110/110/110 96/96/96 98/98/98
f 110/110/110 98/98/98 88/88/88
f 110/110/110 88/88/88 74/74/74
f 110/110/110 74/74/74 111/111/111
f 112/112/112 105/105/105 9/9/9
f 112/112/112 9/9/9 8/8/8
f 112/112/112 8/8/8 7/7/7
f 112/112/112 7/7/7 100/100/100
f 112/112/112 100/100/100 102/102/102
f 112/112/112 102/102/102 49/49/49
f 112/112/112 49/49/49 48/48/48
f 112/112/112 48/48/48 105/105/105
f 113/113/113 101/101/101 5/5/5
f 113/113/113 5/5/5 33/33/33
f 113/113/113 33/33/33 29/29/29
f 113/113/113 29/29/29 114/114/114
f 113/113/113 114/114/114 72/72/72
f 113/113/113 72/72/72 78/78/78
f 113/113/113 78/78/78 52/52/52
f 113/113/113 52/52/52 101/101/101
f 115/115/115 116/116/116 24/24/24
f 115/115/115 24/24/24 35/35/35
f 115/115/115 35/35/35 12/12/12
f 115/115/115 12/12/12 108/108/108
f 115/115/115 108/108/108 60/60/60
f 115/115/115 60/60/60 80/80/80
f 115/115/115 80/80/80 63/63/63
f 115/115/115 63/63/63 116/116/116
f 117/117/117 93/93/93 18/18/18
f 117/117/117 18/18/18 17/17/17
f 117/117/117 17/17/17 24/24/24
f 117/117/117 24/24/24 116/116/116
f 117/117/117 116/116/116 63/63/63
f 117/117/117 63/63/63 62/62/62
f 117/117/117 62/62/62 69/69/69
f 117/117/117 69/69/69 93/93/93
f 118/118/118 114/114/114 29/29/29
f 118/118/118 29/29/29 28/28/28
f 118/118/118 28/28/28 27/27/27
f 118/118/118 27/27/27 111/111/111
f 118/118/118 111/111/111 74/74/74
f 118/118/118 74/74/74 73/73/73
f 118/118/118 73/73/73 72/72/72
f 118/118/118 72/72/72 114/114/114
