v -2.34528 0.68629 -1.132988
v -2.343784 0.686542 -1.134913
v -2.346703 0.68635 -1.13636
v -2.34807 0.686019 -1.134026
v -2.349274 0.685987 -1.132289
v -2.34678 0.686318 -1.131653
v -2.344996 0.686377 -1.131688
v -2.343246 0.686379 -1.132356
v -2.341627 0.686573 -1.133875
v -2.3433 0.687456 -1.137136
v -2.343307 0.688362 -1.138928
v -2.345329 0.688309 -1.140554
v -2.34582 0.687343 -1.13874
v -2.341532 0.687388 -1.135947
v -2.342184 0.688033 -1.13758
v -2.354553 0.685005 -1.143504
v -2.353848 0.685727 -1.145235
v -2.356821 0.684286 -1.146448
v -2.357436 0.683635 -1.144916
v -2.358323 0.682895 -1.142877
v -2.355565 0.68418 -1.1412
v -2.352719 0.685241 -1.139543
v -2.351668 0.686126 -1.141951
v -2.350944 0.686916 -1.143758
v -2.356758 0.683707 -1.138884
v -2.359386 0.682487 -1.14083
v -2.360238 0.682275 -1.139288
v -2.357712 0.683452 -1.13714
v -2.354985 0.684537 -1.13529
v -2.353975 0.684768 -1.137118
v -2.351023 0.685525 -1.13545
v -2.349723 0.68594 -1.137917
v -2.352091 0.685388 -1.133588
v -2.348683 0.686903 -1.140354
v -2.347989 0.687802 -1.142181
v -2.360414 0.682113 -1.146087
v -2.359982 0.68265 -1.147231
v -2.361826 0.681554 -1.147382
v -2.362667 0.680886 -1.14688
v -2.363079 0.680431 -1.14584
v -2.361055 0.681523 -1.144567
v -2.361869 0.681256 -1.143038
v -2.363664 0.680299 -1.144791
v -2.36362 0.680497 -1.143623
v -2.362534 0.681147 -1.141885
v -2.345246 0.686037 -1.133002
v -2.343734 0.686295 -1.134959
v -2.341593 0.686388 -1.133911
v -2.343224 0.686188 -1.132367
v -2.344982 0.686235 -1.131689
v -2.346761 0.686126 -1.131647
v -2.349246 0.685796 -1.132285
v -2.348025 0.685767 -1.134038
v -2.346644 0.686104 -1.136402
v -2.343236 0.68722 -1.137213
v -2.343252 0.688192 -1.139
v -2.342146 0.687905 -1.137631
v -2.341486 0.687211 -1.136007
v -2.345748 0.687107 -1.138809
v -2.345268 0.688138 -1.140619
v -2.354444 0.684775 -1.143542
v -2.353761 0.685558 -1.145274
v -2.350866 0.686746 -1.143803
v -2.35157 0.685893 -1.141997
v -2.35263 0.685001 -1.139569
v -2.355464 0.683944 -1.141218
v -2.358214 0.682662 -1.142891
v -2.357318 0.683408 -1.144949
v -2.356728 0.68412 -1.146483
v -2.356668 0.683466 -1.138882
v -2.353897 0.684523 -1.137122
v -2.354932 0.684351 -1.135283
v -2.357649 0.683269 -1.137129
v -2.360169 0.682094 -1.139273
v -2.359287 0.682249 -1.140823
v -2.350962 0.685276 -1.13546
v -2.34965 0.685696 -1.137951
v -2.352051 0.685199 -1.133582
v -2.348599 0.686668 -1.140411
v -2.34792 0.687631 -1.142236
v -2.360292 0.681888 -1.14612
v -2.359886 0.682485 -1.147267
v -2.360942 0.681291 -1.144578
v -2.362994 0.680258 -1.145848
v -2.362575 0.680718 -1.146906
v -2.361756 0.681431 -1.147406
v -2.361768 0.681019 -1.143028
v -2.362463 0.680968 -1.141867
v -2.363566 0.680365 -1.143612
v -2.363588 0.680122 -1.144782
v -2.359794 0.682756 -1.147631
v -2.362355 0.681278 -1.147717
v -2.356574 0.684431 -1.146976
v -2.361756 0.681431 -1.147406
v -2.364229 0.679901 -1.145371
v -2.364153 0.68022 -1.143951
v -2.363716 0.67999 -1.146268
v -2.363566 0.680365 -1.143612
v -2.347273 0.686241 -1.131202
v -2.344993 0.686366 -1.131375
v -2.349664 0.685891 -1.131705
v -2.344982 0.686235 -1.131689
v -2.340923 0.687287 -1.135578
v -2.341951 0.688157 -1.137749
v -2.340894 0.686501 -1.133545
v -2.342146 0.687905 -1.137631
v -2.343283 0.68859 -1.139561
v -2.345137 0.688556 -1.141191
v -2.363377 0.680403 -1.147156
v -2.362725 0.681031 -1.14149
v -2.360493 0.682123 -1.138765
v -2.342559 0.686324 -1.13215
v -2.35243 0.685258 -1.132962
v -2.3553 0.684377 -1.134675
v -2.347726 0.688027 -1.142817
v -2.350667 0.687105 -1.144383
v -2.353573 0.685893 -1.145831
v -2.358003 0.683286 -1.136551
vn -0.069 0.9976 -0.0001
vn -0.1441 0.9684 0.2033
vn -0.1975 0.9642 0.1766
vn -0.1327 0.9911 -0.0061
vn -0.159 0.9872 -0.0091
vn -0.0729 0.9973 0.007
vn -0.0119 0.9997 0.0191
vn -0.0033 0.997 0.0764
vn -0.0597 0.968 0.2435
vn -0.2498 0.8912 0.3787
vn -0.2471 0.8947 0.372
vn -0.3129 0.8967 0.3132
vn -0.2943 0.896 0.3325
vn -0.151 0.9101 0.3859
vn -0.1991 0.8895 0.4113
vn -0.457 0.8763 0.1523
vn -0.4498 0.8855 0.1162
vn -0.4744 0.8748 0.0979
vn -0.4866 0.8618 0.1432
vn -0.4489 0.8928 0.0366
vn -0.4148 0.9081 0.0572
vn -0.3441 0.9337 0.0981
vn -0.3991 0.8947 0.2003
vn -0.4034 0.8993 0.1686
vn -0.3663 0.9297 -0.0378
vn -0.3892 0.9191 -0.0608
vn -0.417 0.9086 -0.0223
vn -0.3898 0.9208 -0.0094
vn -0.3241 0.946 0.0026
vn -0.2973 0.9547 -0.013
vn -0.2097 0.9778 -0.001
vn -0.2632 0.9541 0.1424
vn -0.2401 0.9707 0.0014
vn -0.3381 0.9022 0.2679
vn -0.3546 0.9033 0.2413
vn -0.507 0.8472 0.1585
vn -0.4981 0.8603 0.1082
vn -0.523 0.8427 0.1277
vn -0.5585 0.8158 0.1499
vn -0.5081 0.8613 -0.0005
vn -0.4646 0.8851 0.0269
vn -0.3883 0.9171 -0.0901
vn -0.4217 0.8964 -0.1366
vn -0.4203 0.9031 -0.0874
vn -0.422 0.9051 -0.0513
vn 0.0776 -0.9963 0.0357
vn 0.1589 -0.9676 -0.1961
vn 0.2156 -0.962 -0.1674
vn 0.0993 -0.985 0.1412
vn 0.0697 -0.9637 0.2575
vn 0.0722 -0.9701 0.2316
vn 0.1059 -0.9797 0.1701
vn 0.1272 -0.9916 0.0205
vn 0.1975 -0.9642 -0.1767
vn 0.2811 -0.8765 -0.3907
vn 0.4153 -0.7681 -0.4873
vn 0.4313 -0.7508 -0.5002
vn 0.3701 -0.8255 -0.426
vn 0.3014 -0.8891 -0.3444
vn 0.3943 -0.8099 -0.4342
vn 0.4619 -0.871 -0.1669
vn 0.4918 -0.8286 -0.2674
vn 0.4516 -0.8394 -0.3024
vn 0.4043 -0.8893 -0.2134
vn 0.3442 -0.9337 -0.098
vn 0.4149 -0.908 -0.0571
vn 0.449 -0.8928 -0.0365
vn 0.4906 -0.8563 -0.1611
vn 0.5011 -0.8163 -0.2871
vn 0.3577 -0.9324 0.0514
vn 0.29 -0.9566 0.0261
vn 0.2454 -0.9607 0.1293
vn 0.2951 -0.9444 0.1448
vn 0.2842 -0.944 0.1674
vn 0.3776 -0.9228 0.0756
vn 0.2031 -0.979 0.0141
vn 0.2632 -0.9541 -0.1425
vn 0.1706 -0.976 0.1348
vn 0.3436 -0.8964 -0.2801
vn 0.41 -0.8352 -0.3666
vn 0.5 -0.8448 -0.1902
vn 0.4876 -0.8003 -0.3489
vn 0.4551 -0.8898 -0.0328
vn 0.4123 -0.9091 -0.0586
vn 0.4654 -0.8375 -0.2862
vn 0.4733 -0.7909 -0.3877
vn 0.3601 -0.9272 0.1028
vn 0.227 -0.9537 0.1971
vn 0.1875 -0.9593 0.2113
vn 0.2659 -0.955 0.1316
vn -0.0048 0.2648 -0.9643
vn -0.3818 0.1016 -0.9186
vn 0.1465 0.2976 -0.9434
vn 0.4733 -0.7909 -0.3877
vn -0.8809 -0.3944 -0.2614
vn -0.9405 -0.2271 0.2525
vn -0.7278 -0.4858 -0.484
vn 0.1875 -0.9593 0.2113
vn -0.148 0.1222 0.9814
vn 0.1738 0.1494 0.9734
vn -0.3432 0.0547 0.9377
vn 0.0697 -0.9637 0.2575
vn 0.9702 0.2402 -0.0316
vn 0.7937 0.5144 -0.3248
vn 0.9051 -0.0256 0.4245
vn 0.4313 -0.7508 -0.5002
vn 0.5953 0.5599 -0.5763
vn 0.4501 0.5217 -0.7246
vn -0.6837 -0.2783 -0.6746
vn -0.762 -0.1808 0.6218
vn -0.6548 -0.1741 0.7355
vn 0.5596 -0.0016 0.8287
vn -0.4609 -0.0196 0.8872
vn -0.5176 -0.0761 0.8522
vn 0.3523 0.4588 -0.8156
vn 0.3015 0.406 -0.8627
vn 0.2493 0.3503 -0.9028
vn -0.5692 -0.1315 0.8116
vt 0.839504 0.118056
vt 0.856743 0.205307
vt 0.741230 0.205307
vt 0.734555 0.106726
vt 0.724541 0.032791
vt 0.813647 0.052618
vt 0.868992 0.081539
vt 0.913398 0.129584
vt 0.940923 0.205307
vt 0.839504 0.292557
vt 0.813647 0.357995
vt 0.724541 0.377822
vt 0.734555 0.303887
vt 0.913398 0.281029
vt 0.868992 0.329074
vt 0.369475 0.299954
vt 0.368286 0.370940
vt 0.245840 0.351447
vt 0.246397 0.288815
vt 0.246768 0.205307
vt 0.370268 0.205307
vt 0.494283 0.205307
vt 0.492822 0.304944
vt 0.490632 0.379672
vt 0.369475 0.110659
vt 0.246397 0.121798
vt 0.245841 0.059166
vt 0.368286 0.039673
vt 0.490632 0.030941
vt 0.492822 0.105669
vt 0.616755 0.103478
vt 0.619174 0.205307
vt 0.613127 0.027106
vt 0.616755 0.307135
vt 0.613126 0.383507
vt 0.123273 0.268175
vt 0.123047 0.315326
vt 0.054743 0.283353
vt 0.030912 0.249131
vt 0.030973 0.205306
vt 0.123423 0.205306
vt 0.123273 0.142438
vt 0.030912 0.161481
vt 0.054744 0.127260
vt 0.123047 0.095287
vt 0.839504 0.118056
vt 0.856743 0.205307
vt 0.968983 0.205307
vt 0.938030 0.133427
vt 0.876123 0.061548
vt 0.805028 0.030806
vt 0.721203 0.008146
vt 0.734555 0.106726
vt 0.741230 0.205307
vt 0.839504 0.292557
vt 0.805028 0.379807
vt 0.876123 0.349065
vt 0.938030 0.277186
vt 0.734555 0.303887
vt 0.721203 0.402467
vt 0.369475 0.299954
vt 0.367890 0.394602
vt 0.489902 0.404581
vt 0.492822 0.304944
vt 0.494283 0.205307
vt 0.370268 0.205307
vt 0.246768 0.205307
vt 0.246397 0.288815
vt 0.245655 0.372324
vt 0.369475 0.110659
vt 0.492822 0.105669
vt 0.489902 0.006032
vt 0.367890 0.016011
vt 0.245655 0.038289
vt 0.246397 0.121798
vt 0.616755 0.103478
vt 0.619174 0.205307
vt 0.611917 0.001649
vt 0.616755 0.307135
vt 0.611917 0.408964
vt 0.123273 0.268175
vt 0.122972 0.331043
vt 0.123423 0.205306
vt 0.000156 0.205306
vt 0.000125 0.242784
vt 0.000064 0.280261
vt 0.123273 0.142438
vt 0.122972 0.079570
vt 0.000064 0.130352
vt 0.000125 0.167829
vt 0.122972 0.331043
vt 0.030806 0.283587
vt 0.245655 0.372324
vt 0.030806 0.283587
vt 0.000125 0.167829
vt 0.030806 0.127026
vt 0.000156 0.205306
vt 0.030806 0.127026
vt 0.805028 0.030806
vt 0.873826 0.071832
vt 0.721203 0.008146
vt 0.873826 0.071832
vt 0.938030 0.277186
vt 0.873826 0.338781
vt 0.968983 0.205307
vt 0.873826 0.338781
vt 0.805028 0.379807
vt 0.721203 0.402467
vt 0.000125 0.242784
vt 0.122972 0.079570
vt 0.245655 0.038289
vt 0.938030 0.133427
vt 0.611917 0.001649
vt 0.489902 0.006032
vt 0.611917 0.408964
vt 0.489902 0.404581
vt 0.367890 0.394602
vt 0.367890 0.016011
f 1/1/1 2/2/2 3/3/3
f 1/1/1 3/3/3 4/4/4
f 1/1/1 4/4/4 5/5/5
f 1/1/1 5/5/5 6/6/6
f 1/1/1 6/6/6 7/7/7
f 1/1/1 7/7/7 8/8/8
f 1/1/1 8/8/8 9/9/9
f 1/1/1 9/9/9 2/2/2
f 10/10/10 11/11/11 12/12/12
f 10/10/10 12/12/12 13/13/13
f 10/10/10 13/13/13 3/3/3
f 10/10/10 3/3/3 2/2/2
f 10/10/10 2/2/2 9/9/9
f 10/10/10 9/9/9 14/14/14
f 10/10/10 14/14/14 15/15/15
f 10/10/10 15/15/15 11/11/11
f 16/16/16 17/17/17 18/18/18
f 16/16/16 18/18/18 19/19/19
f 16/16/16 19/19/19 20/20/20
f 16/16/16 20/20/20 21/21/21
f 16/16/16 21/21/21 22/22/22
f 16/16/16 22/22/22 23/23/23
f 16/16/16 23/23/23 24/24/24
f 16/16/16 24/24/24 17/17/17
f 25/25/25 21/21/21 20/20/20
f 25/25/25 20/20/20 26/26/26
f 25/25/25 26/26/26 27/27/27
f 25/25/25 27/27/27 28/28/28
f 25/25/25 28/28/28 29/29/29
f 25/25/25 29/29/29 30/30/30
f 25/25/25 30/30/30 22/22/22
f 25/25/25 22/22/22 21/21/21
f 31/31/31 32/32/32 22/22/22
f 31/31/31 22/22/22 30/30/30
f 31/31/31 30/30/30 29/29/29
f 31/31/31 29/29/29 33/33/33
f 31/31/31 33/33/33 5/5/5
f 31/31/31 5/5/5 4/4/4
f 31/31/31 4/4/4 3/3/3
f 31/31/31 3/3/3 32/32/32
f 34/34/34 35/35/35 24/24/24
f 34/34/34 24/24/24 23/23/23
f 34/34/34 23/23/23 22/22/22
f 34/34/34 22/22/22 32/32/32
f 34/34/34 32/32/32 3/3/3
f 34/34/34 3/3/3 13/13/13
f 34/34/34 13/13/13 12/12/12
f 34/34/34 12/12/12 35/35/35
f 36/36/36 37/37/37 38/38/38
f 36/36/36 38/38/38 39/39/39
f 36/36/36 39/39/39 40/40/40
f 36/36/36 40/40/40 41/41/41
f 36/36/36 41/41/41 20/20/20
f 36/36/36 20/20/20 19/19/19
f 36/36/36 19/19/19 18/18/18
f 36/36/36 18/18/18 37/37/37
f 42/42/42 41/41/41 40/40/40
f 42/42/42 40/40/40 43/43/43
f 42/42/42 43/43/43 44/44/44
f 42/42/42 44/44/44 45/45/45
f 42/42/42 45/45/45 27/27/27
f 42/42/42 27/27/27 26/26/26
f 42/42/42 26/26/26 20/20/20
f 42/42/42 20/20/20 41/41/41
f 46/46/46 47/47/47 48/48/48
f 46/46/46 48/48/48 49/49/49
f 46/46/46 49/49/49 50/50/50
f 46/46/46 50/50/50 51/51/51
f 46/46/46 51/51/51 52/52/52
f 46/46/46 52/52/52 53/53/53
f 46/46/46 53/53/53 54/54/54
f 46/46/46 54/54/54 47/47/47
f 55/55/55 56/56/56 57/57/57
f 55/55/55 57/57/57 58/58/58
f 55/55/55 58/58/58 48/48/48
f 55/55/55 48/48/48 47/47/47
f 55/55/55 47/47/47 54/54/54
f 55/55/55 54/54/54 59/59/59
f 55/55/55 59/59/59 60/60/60
f 55/55/55 60/60/60 56/56/56
f 61/61/61 62/62/62 63/63/63
f 61/61/61 63/63/63 64/64/64
f 61/61/61 64/64/64 65/65/65
f 61/61/61 65/65/65 66/66/66
f 61/61/61 66/66/66 67/67/67
f 61/61/61 67/67/67 68/68/68
f 61/61/61 68/68/68 69/69/69
f 61/61/61 69/69/69 62/62/62
f 70/70/70 66/66/66 65/65/65
f 70/70/70 65/65/65 71/71/71
f 70/70/70 71/71/71 72/72/72
f 70/70/70 72/72/72 73/73/73
f 70/70/70 73/73/73 74/74/74
f 70/70/70 74/74/74 75/75/75
f 70/70/70 75/75/75 67/67/67
f 70/70/70 67/67/67 66/66/66
f 76/76/76 77/77/77 54/54/54
f 76/76/76 54/54/54 53/53/53
f 76/76/76 53/53/53 52/52/52
f 76/76/76 52/52/52 78/78/78
f 76/76/76 78/78/78 72/72/72
f 76/76/76 72/72/72 71/71/71
f 76/76/76 71/71/71 65/65/65
f 76/76/76 65/65/65 77/77/77
f 79/79/79 80/80/80 60/60/60
f 79/79/79 60/60/60 59/59/59
f 79/79/79 59/59/59 54/54/54
f 79/79/79 54/54/54 77/77/77
f 79/79/79 77/77/77 65/65/65
f 79/79/79 65/65/65 64/64/64
f 79/79/79 64/64/64 63/63/63
f 79/79/79 63/63/63 80/80/80
f 81/81/81 82/82/82 69/69/69
f 81/81/81 69/69/69 68/68/68
f 81/81/81 68/68/68 67/67/67
f 81/81/81 67/67/67 83/83/83
f 81/81/81 83/83/83 84/84/84
f 81/81/81 84/84/84 85/85/85
f 81/81/81 85/85/85 86/86/86
f 81/81/81 86/86/86 82/82/82
f 87/87/87 83/83/83 67/67/67
f 87/87/87 67/67/67 75/75/75
f 87/87/87 75/75/75 74/74/74
f 87/87/87 74/74/74 88/88/88
f 87/87/87 88/88/88 89/89/89
f 87/87/87 89/89/89 90/90/90
f 87/87/87 90/90/90 84/84/84
f 87/87/87 84/84/84 83/83/83
f 91/91/91 92/92/92 38/38/38
f 91/91/91 38/38/38 37/37/37
f 91/91/91 37/37/37 18/18/18
f 91/91/91 18/18/18 93/93/93
f 91/91/91 93/93/93 69/69/69
f 91/91/91 69/69/69 82/82/82
f 91/91/91 82/82/82 94/94/94
f 91/91/91 94/94/94 92/92/92
f 95/95/95 96/96/96 44/44/44
f 95/95/95 44/44/44 43/43/43
f 95/95/95 43/43/43 40/40/40
f 95/95/95 40/40/40 97/97/97
f 95/95/95 97/97/97 84/84/84
f 95/95/95 84/84/84 90/90/90
f 95/95/95 90/90/90 98/98/98
f 95/95/95 98/98/98 96/96/96
f 99/99/99 100/100/100 7/7/7
f 99/99/99 7/7/7 6/6/6
f 99/99/99 6/6/6 5/5/5
f 99/99/99 5/5/5 101/101/101
f 99/99/99 101/101/101 52/52/52
f 99/99/99 52/52/52 51/51/51
f 99/99/99 51/51/51 102/102/102
f 99/99/99 102/102/102 100/100/100
f 103/103/103 104/104/104 15/15/15
f 103/103/103 15/15/15 14/14/14
f 103/103/103 14/14/14 9/9/9
f 103/103/103 9/9/9 105/105/105
f 103/103/103 105/105/105 48/48/48
f 103/103/103 48/48/48 58/58/58
f 103/103/103 58/58/58 106/106/106
f 103/103/103 106/106/106 104/104/104
f 107/107/107 108/108/108 12/12/12
f 107/107/107 12/12/12 11/11/11
f 107/107/107 11/11/11 15/15/15
f 107/107/107 15/15/15 104/104/104
f 107/107/107 104/104/104 106/106/106
f 107/107/107 106/106/106 56/56/56
f 107/107/107 56/56/56 60/60/60
f 107/107/107 60/60/60 108/108/108
f 109/109/109 97/97/97 40/40/40
f 109/109/109 40/40/40 39/39/39
f 109/109/109 39/39/39 38/38/38
f 109/109/109 38/38/38 92/92/92
f 109/109/109 92/92/92 94/94/94
f 109/109/109 94/94/94 85/85/85
f 109/109/109 85/85/85 84/84/84
f 109/109/109 84/84/84 97/97/97
f 110/110/110 111/111/111 27/27/27
f 110/110/110 27/27/27 45/45/45
f 110/110/110 45/45/45 44/44/44
f 110/110/110 44/44/44 96/96/96
f 110/110/110 96/96/96 98/98/98
f 110/110/110 98/98/98 88/88/88
f 110/110/110 88/88/88 74/74/74
f 110/110/110 74/74/74 111/111/111
f 112/112/112 105/105/105 9/9/9
f 112/112/112 9/9/9 8/8/8
f 112/112/112 8/8/8 7/7/7
f 112/112/112 7/7/7 100/100/100
f 112/112/112 100/100/100 102/102/102
f 112/112/112 102/102/102 49/49/49
f 112/112/112 49/49/49 48/48/48
f 112/112/112 48/48/48 105/105/105
f 113/113/113 101/101/101 5/5/5
f 113/113/113 5/5/5 33/33/33
f 113/113/113 33/33/33 29/29/29
f 113/113/113 29/29/29 114/114/114
f 113/113/113 114/114/114 72/72/72
f 113/113/113 72/72/72 78/78/78
f 113/113/113 78/78/78 52/52/52
f 113/113/113 52/52/52 101/101/101
f 115/115/115 116/116/116 24/24/24
f 115/115/115 24/24/24 35/35/35
f 115/115/115 35/35/35 12/12/12
f 115/115/115 12/12/12 108/108/108
f 115/115/115 108/108/108 60/60/60
f 115/115/115 60/60/60 80/80/80
f 115/115/115 80/80/80 63/63/63
f 115/115/115 63/63/63 116/116/116
f 117/117/117 93/93/93 18/18/18
f 117/117/117 18/18/18 17/17/17
f 117/117/117 17/17/17 24/24/24
f 117/117/117 24/24/24 116/116/116
f 117/117/117 116/116/116 63/63/63
f 117/117/117 63/63/63 62/62/62
f 117/117/117 62/62/62 69/69/69
f 117/117/117 69/69/69 93/93/93
f 118/118/118 114/114/114 29/29/29
f 118/118/118 29/29/29 28/28/28
f 118/118/118 28/28/28 27/27/27
f 118/118/118 27/27/27 111/111/111
f 118/118/118 111/111/111 74/74/74
f 118/118/118 74/74/74 73/73/73
f 118/118/118 73/73/73 72/72/72
f 118/118/118 72/72/72 114/114/114
