v -2.338143 0.78883 -1.169071
v -2.338191 0.789017 -1.171196
v -2.34077 0.787963 -1.170651
v -2.340413 0.787812 -1.168311
v -2.34033 0.787835 -1.166474
v -2.338471 0.788765 -1.167356
v -2.337335 0.789197 -1.168325
v -2.33652 0.789459 -1.169712
v -2.336268 0.789699 -1.171619
v -2.339237 0.789475 -1.172998
v -2.340389 0.789897 -1.174242
v -2.342508 0.789121 -1.174297
v -2.341655 0.788545 -1.172773
v -2.337466 0.790018 -1.17311
v -2.338888 0.790113 -1.173901
v -2.349092 0.783861 -1.171422
v -2.349694 0.784297 -1.172999
v -2.351841 0.782246 -1.172249
v -2.351299 0.781851 -1.170858
v -2.350658 0.781416 -1.168973
v -2.348377 0.783376 -1.169286
v -2.345986 0.785167 -1.169658
v -2.346744 0.785692 -1.171886
v -2.347391 0.786175 -1.173527
v -2.347875 0.783142 -1.167049
v -2.350222 0.781216 -1.166992
v -2.349954 0.781133 -1.165473
v -2.347561 0.783038 -1.165337
v -2.345159 0.784858 -1.165512
v -2.34547 0.78494 -1.167312
v -2.342919 0.786506 -1.167729
v -2.34341 0.786688 -1.170125
v -2.342654 0.786495 -1.165876
v -2.344212 0.787268 -1.17237
v -2.344919 0.787831 -1.174009
v -2.353405 0.779739 -1.170077
v -2.353842 0.78007 -1.171102
v -2.354817 0.778739 -1.17022
v -2.354931 0.778096 -1.16942
v -2.354555 0.777819 -1.168479
v -2.352902 0.779387 -1.168681
v -2.352601 0.779265 -1.167191
v -2.35438 0.777771 -1.167443
v -2.353826 0.778154 -1.166662
v -2.352433 0.779238 -1.166042
v -2.338056 0.788626 -1.169097
v -2.338111 0.788816 -1.171251
v -2.336212 0.789547 -1.17166
v -2.336457 0.789306 -1.169728
v -2.337286 0.789083 -1.168331
v -2.338402 0.788612 -1.16736
v -2.340255 0.787685 -1.166483
v -2.340318 0.787612 -1.168341
v -2.340683 0.787765 -1.170707
v -2.339166 0.789281 -1.173082
v -2.34034 0.789756 -1.17432
v -2.338852 0.790007 -1.173955
v -2.337417 0.789872 -1.173174
v -2.341576 0.788354 -1.172856
v -2.342452 0.788981 -1.174371
v -2.348975 0.783689 -1.171504
v -2.349609 0.784171 -1.17307
v -2.347314 0.786043 -1.173598
v -2.346637 0.785513 -1.171968
v -2.345873 0.784984 -1.169719
v -2.348254 0.7832 -1.169349
v -2.350527 0.781245 -1.169037
v -2.351174 0.781685 -1.170942
v -2.351751 0.782124 -1.172321
v -2.347746 0.782964 -1.167094
v -2.345352 0.784755 -1.167354
v -2.345068 0.784718 -1.165533
v -2.347462 0.782904 -1.165361
v -2.34985 0.781002 -1.165497
v -2.350086 0.781043 -1.167037
v -2.342813 0.786313 -1.167765
v -2.34331 0.786497 -1.170184
v -2.342571 0.786349 -1.165891
v -2.344118 0.787083 -1.172451
v -2.344852 0.787695 -1.174081
v -2.353278 0.779575 -1.170162
v -2.35375 0.779949 -1.171175
v -2.352769 0.779219 -1.168746
v -2.354455 0.777693 -1.168527
v -2.354836 0.777973 -1.169485
v -2.354748 0.778649 -1.170271
v -2.352463 0.779094 -1.167236
v -2.352327 0.779109 -1.166065
v -2.353748 0.778059 -1.166681
v -2.354276 0.777643 -1.167475
v -2.353948 0.780127 -1.171479
v -2.355253 0.778336 -1.170168
v -2.351982 0.782324 -1.172747
v -2.354748 0.778649 -1.170271
v -2.354927 0.777216 -1.167541
v -2.35426 0.777751 -1.166603
v -2.355061 0.77724 -1.168433
v -2.353748 0.778059 -1.166681
v -2.338548 0.788676 -1.166783
v -2.337174 0.789245 -1.168109
v -2.340268 0.787776 -1.165863
v -2.337286 0.789083 -1.168331
v -2.336855 0.790134 -1.173176
v -2.338855 0.790236 -1.174143
v -2.335603 0.789859 -1.171778
v -2.338852 0.790007 -1.173955
v -2.340752 0.789976 -1.174695
v -2.342768 0.789251 -1.174841
v -2.355397 0.777494 -1.16923
v -2.352329 0.779172 -1.165666
v -2.349818 0.781047 -1.164975
v -2.335951 0.789601 -1.169932
v -2.342528 0.786426 -1.165262
v -2.345014 0.784768 -1.164919
v -2.345126 0.787959 -1.17459
v -2.347573 0.786278 -1.174107
v -2.349858 0.784387 -1.173558
v -2.347412 0.782944 -1.164775
vn -0.3757 0.9263 0.0293
vn -0.3066 0.9219 0.2369
vn -0.3608 0.899 0.2482
vn -0.425 0.903 0.0633
vn -0.4453 0.892 0.077
vn -0.3744 0.9265 0.0373
vn -0.3223 0.9466 0.0098
vn -0.2822 0.958 0.0501
vn -0.2199 0.951 0.2174
vn -0.2609 0.8585 0.4413
vn -0.264 0.8611 0.4344
vn -0.3477 0.8344 0.4275
vn -0.3224 0.8424 0.4317
vn -0.1885 0.9027 0.3867
vn -0.2036 0.8764 0.4363
vn -0.5416 0.7458 0.3876
vn -0.5599 0.749 0.3544
vn -0.5853 0.7289 0.3551
vn -0.5645 0.7229 0.3985
vn -0.607 0.7396 0.2906
vn -0.5745 0.7668 0.286
vn -0.5062 0.8173 0.2752
vn -0.4765 0.7877 0.3904
vn -0.4994 0.7845 0.3677
vn -0.5993 0.7798 0.1808
vn -0.6262 0.7593 0.1766
vn -0.6218 0.7504 0.2243
vn -0.5979 0.7714 0.2178
vn -0.5496 0.8141 0.1872
vn -0.5412 0.8259 0.1582
vn -0.4758 0.8721 0.1142
vn -0.4265 0.866 0.2611
vn -0.495 0.8583 0.1349
vn -0.3943 0.824 0.4068
vn -0.4224 0.8155 0.3957
vn -0.5664 0.7071 0.4233
vn -0.5927 0.7113 0.3777
vn -0.5947 0.6924 0.4086
vn -0.6 0.6626 0.4482
vn -0.6627 0.6872 0.2975
vn -0.6219 0.7263 0.2926
vn -0.6417 0.7515 0.1528
vn -0.6867 0.714 0.1364
vn -0.6596 0.7311 0.1745
vn -0.6409 0.7399 0.2042
vn 0.4021 -0.9156 -0.0063
vn 0.3215 -0.9159 -0.2401
vn 0.3789 -0.8905 -0.2518
vn 0.4752 -0.8775 0.0642
vn 0.5124 -0.8408 0.1744
vn 0.5016 -0.8516 0.1523
vn 0.4949 -0.865 0.0831
vn 0.4293 -0.9019 -0.0486
vn 0.3606 -0.8991 -0.2482
vn 0.2729 -0.8394 -0.4701
vn 0.2837 -0.7231 -0.6298
vn 0.2828 -0.7053 -0.65
vn 0.3033 -0.7761 -0.5528
vn 0.3187 -0.8366 -0.4454
vn 0.3117 -0.757 -0.5743
vn 0.5353 -0.7427 -0.4023
vn 0.4866 -0.7159 -0.5007
vn 0.4398 -0.7433 -0.504
vn 0.4713 -0.784 -0.4039
vn 0.5063 -0.8172 -0.2753
vn 0.5747 -0.7667 -0.286
vn 0.6071 -0.7395 -0.2906
vn 0.5555 -0.7204 -0.4153
vn 0.4785 -0.7059 -0.5222
vn 0.6015 -0.7817 -0.1647
vn 0.5438 -0.8268 -0.1434
vn 0.5706 -0.8205 -0.0343
vn 0.6115 -0.7895 -0.0524
vn 0.616 -0.7872 -0.028
vn 0.6272 -0.7627 -0.1578
vn 0.4788 -0.8722 -0.0999
vn 0.4265 -0.866 -0.2611
vn 0.5223 -0.8526 0.0157
vn 0.3896 -0.8196 -0.4199
vn 0.3704 -0.763 -0.5298
vn 0.5423 -0.7131 -0.4443
vn 0.4278 -0.7069 -0.5632
vn 0.6129 -0.7344 -0.2914
vn 0.5722 -0.7687 -0.2857
vn 0.4588 -0.7347 -0.4996
vn 0.3918 -0.7096 -0.5856
vn 0.631 -0.7656 -0.1255
vn 0.593 -0.8046 0.0305
vn 0.5731 -0.8168 0.066
vn 0.5854 -0.8094 -0.045
vn -0.6406 0.0501 -0.7663
vn -0.8457 -0.1892 -0.4989
vn -0.5253 0.1231 -0.8419
vn 0.3918 -0.7096 -0.5856
vn -0.6854 -0.6476 0.3329
vn -0.4907 -0.3979 0.7751
vn -0.6675 -0.7418 0.0639
vn 0.5731 -0.8168 0.066
vn 0.4096 0.2813 0.8678
vn 0.6388 0.3861 0.6655
vn 0.2594 0.1595 0.9525
vn 0.5124 -0.8408 0.1744
vn 0.6352 0.4636 -0.6177
vn 0.2454 0.6182 -0.7467
vn 0.9332 0.29 -0.2123
vn 0.2828 -0.7053 -0.65
vn -0.0623 0.5597 -0.8263
vn -0.2441 0.4566 -0.8555
vn -0.8106 -0.5738 -0.1167
vn -0.1604 -0.2337 0.959
vn -0.017 -0.1772 0.984
vn 0.8959 0.3099 0.3183
vn 0.1663 0.0493 0.9848
vn 0.1219 -0.0254 0.9922
vn -0.3495 0.3538 -0.8675
vn -0.3975 0.2811 -0.8734
vn -0.442 0.2069 -0.8728
vn 0.0775 -0.0993 0.992
vt 0.839504 0.118056
vt 0.856743 0.205307
vt 0.741230 0.205307
vt 0.734555 0.106726
vt 0.724541 0.032791
vt 0.813647 0.052618
vt 0.868992 0.081539
vt 0.913398 0.129584
vt 0.940923 0.205307
vt 0.839504 0.292557
vt 0.813647 0.357995
vt 0.724541 0.377822
vt 0.734555 0.303887
vt 0.913398 0.281029
vt 0.868992 0.329074
vt 0.369475 0.299954
vt 0.368286 0.370940
vt 0.245840 0.351447
vt 0.246397 0.288815
vt 0.246768 0.205307
vt 0.370268 0.205307
vt 0.494283 0.205307
vt 0.492822 0.304944
vt 0.490632 0.379672
vt 0.369475 0.110659
vt 0.246397 0.121798
vt 0.245841 0.059166
vt 0.368286 0.039673
vt 0.490632 0.030941
vt 0.492822 0.105669
vt 0.616755 0.103478
vt 0.619174 0.205307
vt 0.613127 0.027106
vt 0.616755 0.307135
vt 0.613126 0.383507
vt 0.123273 0.268175
vt 0.123047 0.315326
vt 0.054743 0.283353
vt 0.030912 0.249131
vt 0.030973 0.205306
vt 0.123423 0.205306
vt 0.123273 0.142438
vt 0.030912 0.161481
vt 0.054744 0.127260
vt 0.123047 0.095287
vt 0.839504 0.118056
vt 0.856743 0.205307
vt 0.968983 0.205307
vt 0.938030 0.133427
vt 0.876123 0.061548
vt 0.805028 0.030806
vt 0.721203 0.008146
vt 0.734555 0.106726
vt 0.741230 0.205307
vt 0.839504 0.292557
vt 0.805028 0.379807
vt 0.876123 0.349065
vt 0.938030 0.277186
vt 0.734555 0.303887
vt 0.721203 0.402467
vt 0.369475 0.299954
vt 0.367890 0.394602
vt 0.489902 0.404581
vt 0.492822 0.304944
vt 0.494283 0.205307
vt 0.370268 0.205307
vt 0.246768 0.205307
vt 0.246397 0.288815
vt 0.245655 0.372324
vt 0.369475 0.110659
vt 0.492822 0.105669
vt 0.489902 0.006032
vt 0.367890 0.016011
vt 0.245655 0.038289
vt 0.246397 0.121798
vt 0.616755 0.103478
vt 0.619174 0.205307
vt 0.611917 0.001649
vt 0.616755 0.307135
vt 0.611917 0.408964
vt 0.123273 0.268175
vt 0.122972 0.331043
vt 0.123423 0.205306
vt 0.000156 0.205306
vt 0.000125 0.242784
vt 0.000064 0.280261
vt 0.123273 0.142438
vt 0.122972 0.079570
vt 0.000064 0.130352
vt 0.000125 0.167829
vt 0.122972 0.331043
vt 0.030806 0.283587
vt 0.245655 0.372324
vt 0.030806 0.283587
vt 0.000125 0.167829
vt 0.030806 0.127026
vt 0.000156 0.205306
vt 0.030806 0.127026
vt 0.805028 0.030806
vt 0.873826 0.071832
vt 0.721203 0.008146
vt 0.873826 0.071832
vt 0.938030 0.277186
vt 0.873826 0.338781
vt 0.968983 0.205307
vt 0.873826 0.338781
vt 0.805028 0.379807
vt 0.721203 0.402467
vt 0.000125 0.242784
vt 0.122972 0.079570
vt 0.245655 0.038289
vt 0.938030 0.133427
vt 0.611917 0.001649
vt 0.489902 0.006032
vt 0.611917 0.408964
vt 0.489902 0.404581
vt 0.367890 0.394602
vt 0.367890 0.016011
f 1/1/1 2/2/2 3/3/3
f 1/1/1 3/3/3 4/4/4
f 1/1/1 4/4/4 5/5/5
f 1/1/1 5/5/5 6/6/6
f 1/1/1 6/6/6 7/7/7
f 1/1/1 7/7/7 8/8/8
f 1/1/1 8/8/8 9/9/9
f 1/1/1 9/9/9 2/2/2
f 10/10/10 11/11/11 12/12/12
f 10/10/10 12/12/12 13/13/13
f 10/10/10 13/13/13 3/3/3
f 10/10/10 3/3/3 2/2/2
f 10/10/10 2/2/2 9/9/9
f 10/10/10 9/9/9 14/14/14
f 10/10/10 14/14/14 15/15/15
f 10/10/10 15/15/15 11/11/11
f 16/16/16 17/17/17 18/18/18
f 16/16/16 18/18/18 19/19/19
f 16/16/16 19/19/19 20/20/20
f 16/16/16 20/20/20 21/21/21
f 16/16/16 21/21/21 22/22/22
f 16/16/16 22/22/22 23/23/23
f 16/16/16 23/23/23 24/24/24
f 16/16/16 24/24/24 17/17/17
f 25/25/25 21/21/21 20/20/20
f 25/25/25 20/20/20 26/26/26
f 25/25/25 26/26/26 27/27/27
f 25/25/25 27/27/27 28/28/28
f 25/25/25 28/28/28 29/29/29
f 25/25/25 29/29/29 30/30/30
f 25/25/25 30/30/30 22/22/22
f 25/25/25 22/22/22 21/21/21
f 31/31/31 32/32/32 22/22/22
f 31/31/31 22/22/22 30/30/30
f 31/31/31 30/30/30 29/29/29
f 31/31/31 29/29/29 33/33/33
f 31/31/31 33/33/33 5/5/5
f 31/31/31 5/5/5 4/4/4
f 31/31/31 4/4/4 3/3/3
f 31/31/31 3/3/3 32/32/32
f 34/34/34 35/35/35 24/24/24
f 34/34/34 24/24/24 23/23/23
f 34/34/34 23/23/23 22/22/22
f 34/34/34 22/22/22 32/32/32
f 34/34/34 32/32/32 3/3/3
f 34/34/34 3/3/3 13/13/13
f 34/34/34 13/13/13 12/12/12
f 34/34/34 12/12/12 35/35/35
f 36/36/36 37/37/37 38/38/38
f 36/36/36 38/38/38 39/39/39
f 36/36/36 39/39/39 40/40/40
f 36/36/36 40/40/40 41/41/41
f 36/36/36 41/41/41 20/20/20
f 36/36/36 20/20/20 19/19/19
f 36/36/36 19/19/19 18/18/18
f 36/36/36 18/18/18 37/37/37
f 42/42/42 41/41/41 40/40/40
f 42/42/42 40/40/40 43/43/43
f 42/42/42 43/43/43 44/44/44
f 42/42/42 44/44/44 45/45/45
f 42/42/42 45/45/45 27/27/27
f 42/42/42 27/27/27 26/26/26
f 42/42/42 26/26/26 20/20/20
f 42/42/42 20/20/20 41/41/41
f 46/46/46 47/47/47 48/48/48
f 46/46/46 48/48/48 49/49/49
f 46/46/46 49/49/49 50/50/50
f 46/46/46 50/50/50 51/51/51
f 46/46/46 51/51/51 52/52/52
f 46/46/46 52/52/52 53/53/53
f 46/46/46 53/53/53 54/54/54
f 46/46/46 54/54/54 47/47/47
f 55/55/55 56/56/56 57/57/57
f 55/55/55 57/57/57 58/58/58
f 55/55/55 58/58/58 48/48/48
f 55/55/55 48/48/48 47/47/47
f 55/55/55 47/47/47 54/54/54
f 55/55/55 54/54/54 59/59/59
f 55/55/55 59/59/59 60/60/60
f 55/55/55 60/60/60 56/56/56
f 61/61/61 62/62/62 63/63/63
f 61/61/61 63/63/63 64/64/64
f 61/61/61 64/64/64 65/65/65
f 61/61/61 65/65/65 66/66/66
f 61/61/61 66/66/66 67/67/67
f 61/61/61 67/67/67 68/68/68
f 61/61/61 68/68/68 69/69/69
f 61/61/61 69/69/69 62/62/62
f 70/70/70 66/66/66 65/65/65
f 70/70/70 65/65/65 71/71/71
f 70/70/70 71/71/71 72/72/72
f 70/70/70 72/72/72 73/73/73
f 70/70/70 73/73/73 74/74/74
f 70/70/70 74/74/74 75/75/75
f 70/70/70 75/75/75 67/67/67
f 70/70/70 67/67/67 66/66/66
f 76/76/76 77/77/77 54/54/54
f 76/76/76 54/54/54 53/53/53
f 76/76/76 53/53/53 52/52/52
f 76/76/76 52/52/52 78/78/78
f 76/76/76 78/78/78 72/72/72
f 76/76/76 72/72/72 71/71/71
f 76/76/76 71/71/71 65/65/65
f 76/76/76 65/65/65 77/77/77
f 79/79/79 80/80/80 60/60/60
f 79/79/79 60/60/60 59/59/59
f 79/79/79 59/59/59 54/54/54
f 79/79/79 54/54/54 77/77/77
f 79/79/79 77/77/77 65/65/65
f 79/79/79 65/65/65 64/64/64
f 79/79/79 64/64/64 63/63/63
f 79/79/79 63/63/63 80/80/80
f 81/81/81 82/82/82 69/69/69
f 81/81/81 69/69/69 68/68/68
f 81/81/81 68/68/68 67/67/67
f 81/81/81 67/67/67 83/83/83
f 81/81/81 83/83/83 84/84/84
f 81/81/81 84/84/84 85/85/85
f 81/81/81 85/85/85 86/86/86
f 81/81/81 86/86/86 82/82/82
f 87/87/87 83/83/83 67/67/67
f 87/87/87 67/67/67 75/75/75
f 87/87/87 75/75/75 74/74/74
f 87/87/87 74/74/74 88/88/88
f 87/87/87 88/88/88 89/89/89
f 87/87/87 89/89/89 90/90/90
f 87/87/87 90/90/90 84/84/84
f 87/87/87 84/84/84 83/83/83
f 91/91/91 92/92/92 38/38/38
f 91/91/91 38/38/38 37/37/37
f 91/91/91 37/37/37 18/18/18
f 91/91/91 18/18/18 93/93/93
f 91/91/91 93/93/93 69/69/69
f 91/91/91 69/69/69 82/82/82
f 91/91/91 82/82/82 94/94/94
f 91/91/91 94/94/94 92/92/92
f 95/95/95 96/96/96 44/44/44
f 95/95/95 44/44/44 43/43/43
f 95/95/95 43/43/43 40/40/40
f 95/95/95 40/40/40 97/97/97
f 95/95/95 97/97/97 84/84/84
f 95/95/95 84/84/84 90/90/90
f 95/95/95 90/90/90 98/98/98
f 95/95/95 98/98/98 96/96/96
f 99/99/99 100/100/100 7/7/7
f 99/99/99 7/7/7 6/6/6
f 99/99/99 6/6/6 5/5/5
f 99/99/99 5/5/5 101/101/101
f 99/99/99 101/101/101 52/52/52
f 99/99/99 52/52/52 51/51/51
f 99/99/99 51/51/51 102/102/102
f 99/99/99 102/102/102 100/100/100
f 103/103/103 104/104/104 15/15/15
f 103/103/103 15/15/15 14/14/14
f 103/103/103 14/14/14 9/9/9
f 103/103/103 9/9/9 105/105/105
f 103/103/103 105/105/105 48/48/48
f 103/103/103 48/48/48 58/58/58
f 103/103/103 58/58/58 106/106/106
f 103/103/103 106/106/106 104/104/104
f 107/107/107 108/108/108 12/12/12
f 107/107/107 12/12/12 11/11/11
f 107/107/107 11/11/11 15/15/15
f 107/107/107 15/15/15 104/104/104
f 107/107/107 104/104/104 106/106/106
f 107/107/107 106/106/106 56/56/56
f 107/107/107 56/56/56 60/60/60
f 107/107/107 60/60/60 108/108/108
f 109/109/109 97/97/97 40/40/40
f 109/109/109 40/40/40 39/39/39
f 109/109/109 39/39/39 38/38/38
f 109/109/109 38/38/38 92/92/92
f 109/109/109 92/92/92 94/94/94
f 109/109/109 94/94/94 85/85/85
f 109/109/109 85/85/85 84/84/84
f 109/109/109 84/84/84 97/97/97
f 110/110/110 111/111/111 27/27/27
f 110/110/110 27/27/27 45/45/45
f 110/110/110 45/45/45 44/44/44
f 110/110/110 44/44/44 96/96/96
f 110/110/110 96/96/96 98/98/98
f 110/110/110 98/98/98 88/88/88
f 110/110/110 88/88/88 74/74/74
f 110/110/110 74/74/74 111/111/111
f 112/112/112 105/105/105 9/9/9
f 112/112/112 9/9/9 8/8/8
f 112/112/112 8/8/8 7/7/7
f 112/112/112 7/7/7 100/100/100
f 112/112/112 100/100/100 102/102/102
f 112/112/112 102/102/102 49/49/49
f 112/112/112 49/49/49 48/48/48
f 112/112/112 48/48/48 105/105/105
f 113/113/113 101/101/101 5/5/5
f 113/113/113 5/5/5 33/33/33
f 113/113/113 33/33/33 29/29/29
f 113/113/113 29/29/29 114/114/114
f 113/113/113 114/114/114 72/72/72
f 113/113/113 72/72/72 78/78/78
f 113/113/113 78/78/78 52/52/52
f 113/113/113 52/52/52 101/101/101
f 115/115/115 116/116/116 24/24/24
f 115/115/115 24/24/24 35/35/35
f 115/115/115 35/35/35 12/12/12
f 115/115/115 12/12/12 108/108/108
f 115/115/115 108/108/108 60/60/60
f 115/115/115 60/60/60 80/80/80
f 115/115/115 80/80/80 63/63/63
f 115/115/115 63/63/63 116/116/116
f 117/117/117 93/93/93 18/18/18
f 117/117/117 18/18/18 17/17/17
f 117/117/117 17/17/17 24/24/24
f 117/117/117 24/24/24 116/116/116
f 117/117/117 116/116/116 63/63/63
f 117/117/117 63/63/63 62/62/62
f 117/117/117 62/62/62 69/69/69
f 117/117/117 69/69/69 93/93/93
f 118/118/118 114/114/114 29/29/29
f 118/118/118 29/29/29 28/28/28
f 118/118/118 28/28/28 27/27/27
f 118/118/118 27/27/27 111/111/111
f 118/118/118 111/111/111 74/74/74
f 118/118/118 74/74/74 73/73/73
f 118/118/118 73/73/73 72/72/72
f 118/118/118 72/72/72 114/114/114
