v -2.358475 0.69744 -1.127274
v -2.356389 0.697926 -1.128026
v -2.357665 0.696722 -1.130487
v -2.359867 0.696246 -1.129348
v -2.36168 0.696022 -1.128648
v -2.360294 0.697136 -1.127033
v -2.358999 0.697731 -1.126194
v -2.35737 0.698203 -1.125826
v -2.355407 0.698718 -1.126202
v -2.354997 0.698648 -1.129669
v -2.354195 0.699255 -1.131232
v -2.354752 0.698429 -1.133419
v -2.355915 0.69762 -1.132069
v -2.35436 0.699249 -1.127899
v -2.354059 0.699447 -1.129596
v -2.359156 0.692441 -1.139297
v -2.357837 0.693112 -1.140417
v -2.359041 0.690831 -1.142408
v -2.360199 0.690228 -1.14141
v -2.361814 0.689516 -1.140148
v -2.36099 0.691643 -1.137878
v -2.360048 0.6936 -1.135523
v -2.358141 0.694452 -1.137015
v -2.35678 0.695182 -1.138199
v -2.363029 0.691095 -1.13663
v -2.363624 0.689038 -1.139051
v -2.365043 0.688745 -1.138275
v -2.364623 0.690755 -1.135744
v -2.363878 0.692715 -1.133311
v -2.362192 0.693045 -1.134225
v -2.361122 0.694772 -1.131731
v -2.358912 0.695287 -1.133022
v -2.362886 0.69451 -1.130843
v -2.357012 0.6962 -1.134562
v -2.355683 0.697012 -1.135804
v -2.361413 0.687878 -1.143352
v -2.360578 0.688363 -1.144124
v -2.361614 0.686831 -1.144862
v -2.362368 0.686044 -1.144733
v -2.363148 0.685625 -1.144048
v -2.362595 0.687319 -1.14239
v -2.363969 0.68699 -1.141592
v -2.36412 0.685435 -1.143527
v -2.364766 0.685737 -1.142692
v -2.365059 0.686806 -1.141038
v -2.358394 0.697229 -1.127202
v -2.35628 0.697722 -1.127971
v -2.355328 0.698563 -1.126164
v -2.357312 0.698043 -1.125774
v -2.358961 0.697612 -1.126151
v -2.360247 0.696976 -1.12697
v -2.361626 0.695865 -1.128582
v -2.359779 0.69604 -1.12927
v -2.357553 0.696522 -1.130425
v -2.354864 0.698455 -1.129632
v -2.354083 0.699118 -1.131214
v -2.35398 0.699343 -1.129581
v -2.35426 0.699104 -1.127875
v -2.35578 0.69743 -1.132023
v -2.35464 0.698292 -1.133393
v -2.359012 0.692271 -1.139212
v -2.357721 0.692989 -1.140359
v -2.356666 0.695053 -1.13815
v -2.358 0.694275 -1.13694
v -2.359924 0.693416 -1.135436
v -2.360862 0.691467 -1.137781
v -2.361683 0.689346 -1.140043
v -2.360052 0.690064 -1.141318
v -2.358923 0.690711 -1.142346
v -2.362918 0.690914 -1.136522
v -2.362087 0.692856 -1.134126
v -2.363809 0.692571 -1.133231
v -2.364549 0.690616 -1.135658
v -2.364967 0.688611 -1.138184
v -2.36351 0.688863 -1.138936
v -2.361025 0.694573 -1.131643
v -2.358794 0.695094 -1.132948
v -2.362824 0.694359 -1.130771
v -2.356874 0.696016 -1.134502
v -2.35557 0.696879 -1.135766
v -2.361264 0.687717 -1.143258
v -2.360457 0.688246 -1.144061
v -2.362463 0.687152 -1.142283
v -2.363049 0.6855 -1.143968
v -2.362256 0.685924 -1.144663
v -2.361528 0.686744 -1.144813
v -2.363856 0.686816 -1.141473
v -2.364984 0.686673 -1.140943
v -2.364707 0.685639 -1.142623
v -2.364036 0.685305 -1.143437
v -2.360244 0.688474 -1.144355
v -2.36176 0.686397 -1.1453
v -2.358601 0.690979 -1.142715
v -2.361528 0.686744 -1.144813
v -2.364133 0.684859 -1.144132
v -2.364918 0.6853 -1.143126
v -2.363289 0.685005 -1.144566
v -2.364707 0.685639 -1.142623
v -2.360882 0.696963 -1.126922
v -2.359166 0.697753 -1.125958
v -2.362263 0.695877 -1.128384
v -2.358961 0.697612 -1.126151
v -2.354103 0.699384 -1.127299
v -2.353822 0.69961 -1.129638
v -2.355045 0.698912 -1.125578
v -2.35398 0.699343 -1.129581
v -2.353875 0.699398 -1.131748
v -2.354312 0.698639 -1.133859
v -2.362637 0.685379 -1.145162
v -2.365391 0.686685 -1.14081
v -2.365484 0.688588 -1.137975
v -2.356977 0.698386 -1.12532
v -2.363449 0.694355 -1.130514
v -2.364412 0.692541 -1.13297
v -2.355187 0.697225 -1.136203
v -2.356274 0.695368 -1.138574
v -2.357344 0.693282 -1.140766
v -2.365124 0.690579 -1.135409
vn -0.2607 0.9125 -0.3152
vn -0.4335 0.882 -0.1845
vn -0.4585 0.8575 -0.2332
vn -0.3054 0.8847 -0.3521
vn -0.3233 0.872 -0.3675
vn -0.2679 0.9117 -0.3116
vn -0.228 0.9355 -0.27
vn -0.2546 0.9419 -0.2189
vn -0.3914 0.9139 -0.1073
vn -0.6036 0.7933 -0.0791
vn -0.5981 0.797 -0.0841
vn -0.6151 0.7706 -0.1666
vn -0.612 0.7782 -0.1411
vn -0.5345 0.8447 -0.026
vn -0.5827 0.8123 -0.0257
vn -0.628 0.6866 -0.3662
vn -0.6028 0.6938 -0.3939
vn -0.609 0.6737 -0.4185
vn -0.6426 0.6623 -0.3852
vn -0.5566 0.6924 -0.4589
vn -0.5454 0.7203 -0.4286
vn -0.5199 0.7721 -0.3654
vn -0.6151 0.7282 -0.3021
vn -0.6006 0.7278 -0.331
vn -0.4559 0.7464 -0.4847
vn -0.458 0.7264 -0.5124
vn -0.5003 0.7115 -0.4934
vn -0.4893 0.7333 -0.472
vn -0.4504 0.7799 -0.4345
vn -0.422 0.7953 -0.4351
vn -0.3656 0.8472 -0.3853
vn -0.4874 0.8227 -0.2926
vn -0.3893 0.8308 -0.3976
vn -0.6091 0.7626 -0.2177
vn -0.6064 0.7554 -0.2481
vn -0.6646 0.6435 -0.3797
vn -0.6306 0.6533 -0.4189
vn -0.6579 0.6306 -0.4116
vn -0.6931 0.5961 -0.4052
vn -0.5742 0.6394 -0.5113
vn -0.5616 0.6789 -0.4729
vn -0.4395 0.7216 -0.5348
vn -0.4336 0.6863 -0.5838
vn -0.4631 0.6984 -0.5457
vn -0.4862 0.7035 -0.5183
vn 0.2461 -0.9046 0.3479
vn 0.4406 -0.8756 0.198
vn 0.4666 -0.8485 0.2495
vn 0.1982 -0.8755 0.4407
vn 0.1018 -0.853 0.5119
vn 0.1205 -0.8608 0.4943
vn 0.1851 -0.8653 0.4657
vn 0.2928 -0.8855 0.3609
vn 0.4585 -0.8576 0.233
vn 0.632 -0.7705 0.0821
vn 0.7713 -0.6348 0.0461
vn 0.7878 -0.6146 0.0395
vn 0.7116 -0.6971 0.0872
vn 0.623 -0.7707 0.1334
vn 0.7321 -0.6753 0.089
vn 0.6394 -0.6816 0.3557
vn 0.7133 -0.6427 0.2795
vn 0.705 -0.6698 0.233
vn 0.6258 -0.7229 0.293
vn 0.52 -0.772 0.3656
vn 0.5455 -0.7201 0.4288
vn 0.5567 -0.6924 0.459
vn 0.6553 -0.6577 0.3715
vn 0.7297 -0.6302 0.2652
vn 0.4417 -0.7503 0.4918
vn 0.409 -0.7982 0.4423
vn 0.314 -0.8057 0.5022
vn 0.3402 -0.7724 0.5363
vn 0.3183 -0.7732 0.5485
vn 0.4409 -0.7322 0.519
vn 0.353 -0.8492 0.3927
vn 0.4874 -0.8227 0.2926
vn 0.2557 -0.8443 0.4709
vn 0.6194 -0.7566 0.2093
vn 0.7096 -0.6865 0.1584
vn 0.6774 -0.647 0.35
vn 0.7523 -0.6263 0.2042
vn 0.5585 -0.6872 0.4644
vn 0.5445 -0.7222 0.4264
vn 0.7057 -0.6619 0.2528
vn 0.7623 -0.6263 0.163
vn 0.4121 -0.7391 0.5327
vn 0.2581 -0.798 0.5446
vn 0.22 -0.8147 0.5365
vn 0.3274 -0.7932 0.5133
vn 0.5117 0.1434 -0.8471
vn 0.2254 -0.1288 -0.9657
vn 0.6105 0.2263 -0.759
vn 0.7623 -0.6263 0.163
vn -0.4501 -0.6892 -0.5678
vn -0.8354 -0.4969 -0.2351
vn -0.1799 -0.7481 -0.6388
vn 0.22 -0.8147 0.5365
vn -0.7213 0.1706 0.6712
vn -0.4715 0.3018 0.8286
vn -0.8335 0.0381 0.5512
vn 0.1018 -0.853 0.5119
vn 0.7247 0.5428 0.4244
vn 0.704 0.7099 0.0193
vn 0.4589 0.3205 0.8287
vn 0.7878 -0.6146 0.0395
vn 0.6887 0.6602 -0.2997
vn 0.6711 0.5606 -0.485
vn -0.0758 -0.5593 -0.8255
vn -0.924 -0.3551 0.1418
vn -0.9091 -0.3015 0.2876
vn -0.054 0.2723 0.9607
vn -0.88 -0.0763 0.4688
vn -0.8917 -0.1516 0.4265
vn 0.6618 0.4597 -0.5921
vn 0.6612 0.3886 -0.6416
vn 0.6559 0.3145 -0.6862
vn -0.8962 -0.2249 0.3823
vt 0.839504 0.118056
vt 0.856743 0.205307
vt 0.741230 0.205307
vt 0.734555 0.106726
vt 0.724541 0.032791
vt 0.813647 0.052618
vt 0.868992 0.081539
vt 0.913398 0.129584
vt 0.940923 0.205307
vt 0.839504 0.292557
vt 0.813647 0.357995
vt 0.724541 0.377822
vt 0.734555 0.303887
vt 0.913398 0.281029
vt 0.868992 0.329074
vt 0.369475 0.299954
vt 0.368286 0.370940
vt 0.245840 0.351447
vt 0.246397 0.288815
vt 0.246768 0.205307
vt 0.370268 0.205307
vt 0.494283 0.205307
vt 0.492822 0.304944
vt 0.490632 0.379672
vt 0.369475 0.110659
vt 0.246397 0.121798
vt 0.245841 0.059166
vt 0.368286 0.039673
vt 0.490632 0.030941
vt 0.492822 0.105669
vt 0.616755 0.103478
vt 0.619174 0.205307
vt 0.613127 0.027106
vt 0.616755 0.307135
vt 0.613126 0.383507
vt 0.123273 0.268175
vt 0.123047 0.315326
vt 0.054743 0.283353
vt 0.030912 0.249131
vt 0.030973 0.205306
vt 0.123423 0.205306
vt 0.123273 0.142438
vt 0.030912 0.161481
vt 0.054744 0.127260
vt 0.123047 0.095287
vt 0.839504 0.118056
vt 0.856743 0.205307
vt 0.968983 0.205307
vt 0.938030 0.133427
vt 0.876123 0.061548
vt 0.805028 0.030806
vt 0.721203 0.008146
vt 0.734555 0.106726
vt 0.741230 0.205307
vt 0.839504 0.292557
vt 0.805028 0.379807
vt 0.876123 0.349065
vt 0.938030 0.277186
vt 0.734555 0.303887
vt 0.721203 0.402467
vt 0.369475 0.299954
vt 0.367890 0.394602
vt 0.489902 0.404581
vt 0.492822 0.304944
vt 0.494283 0.205307
vt 0.370268 0.205307
vt 0.246768 0.205307
vt 0.246397 0.288815
vt 0.245655 0.372324
vt 0.369475 0.110659
vt 0.492822 0.105669
vt 0.489902 0.006032
vt 0.367890 0.016011
vt 0.245655 0.038289
vt 0.246397 0.121798
vt 0.616755 0.103478
vt 0.619174 0.205307
vt 0.611917 0.001649
vt 0.616755 0.307135
vt 0.611917 0.408964
vt 0.123273 0.268175
vt 0.122972 0.331043
vt 0.123423 0.205306
vt 0.000156 0.205306
vt 0.000125 0.242784
vt 0.000064 0.280261
vt 0.123273 0.142438
vt 0.122972 0.079570
vt 0.000064 0.130352
vt 0.000125 0.167829
vt 0.122972 0.331043
vt 0.030806 0.283587
vt 0.245655 0.372324
vt 0.030806 0.283587
vt 0.000125 0.167829
vt 0.030806 0.127026
vt 0.000156 0.205306
vt 0.030806 0.127026
vt 0.805028 0.030806
vt 0.873826 0.071832
vt 0.721203 0.008146
vt 0.873826 0.071832
vt 0.938030 0.277186
vt 0.873826 0.338781
vt 0.968983 0.205307
vt 0.873826 0.338781
vt 0.805028 0.379807
vt 0.721203 0.402467
vt 0.000125 0.242784
vt 0.122972 0.079570
vt 0.245655 0.038289
vt 0.938030 0.133427
vt 0.611917 0.001649
vt 0.489902 0.006032
vt 0.611917 0.408964
vt 0.489902 0.404581
vt 0.367890 0.394602
vt 0.367890 0.016011
f 1/1/1 2/2/2 3/3/3
f 1/1/1 3/3/3 4/4/4
f 1/1/1 4/4/4 5/5/5
f 1/1/1 5/5/5 6/6/6
f 1/1/1 6/6/6 7/7/7
f 1/1/1 7/7/7 8/8/8
f 1/1/1 8/8/8 9/9/9
f 1/1/1 9/9/9 2/2/2
f 10/10/10 11/11/11 12/12/12
f 10/10/10 12/12/12 13/13/13
f 10/10/10 13/13/13 3/3/3
f 10/10/10 3/3/3 2/2/2
f 10/10/10 2/2/2 9/9/9
f 10/10/10 9/9/9 14/14/14
f 10/10/10 14/14/14 15/15/15
f 10/10/10 15/15/15 11/11/11
f 16/16/16 17/17/17 18/18/18
f 16/16/16 18/18/18 19/19/19
f 16/16/16 19/19/19 20/20/20
f 16/16/16 20/20/20 21/21/21
f 16/16/16 21/21/21 22/22/22
f 16/16/16 22/22/22 23/23/23
f 16/16/16 23/23/23 24/24/24
f 16/16/16 24/24/24 17/17/17
f 25/25/25 21/21/21 20/20/20
f 25/25/25 20/20/20 26/26/26
f 25/25/25 26/26/26 27/27/27
f 25/25/25 27/27/27 28/28/28
f 25/25/25 28/28/28 29/29/29
f 25/25/25 29/29/29 30/30/30
f 25/25/25 30/30/30 22/22/22
f 25/25/25 22/22/22 21/21/21
f 31/31/31 32/32/32 22/22/22
f 31/31/31 22/22/22 30/30/30
f 31/31/31 30/30/30 29/29/29
f 31/31/31 29/29/29 33/33/33
f 31/31/31 33/33/33 5/5/5
f 31/31/31 5/5/5 4/4/4
f 31/31/31 4/4/4 3/3/3
f 31/31/31 3/3/3 32/32/32
f 34/34/34 35/35/35 24/24/24
f 34/34/34 24/24/24 23/23/23
f 34/34/34 23/23/23 22/22/22
f 34/34/34 22/22/22 32/32/32
f 34/34/34 32/32/32 3/3/3
f 34/34/34 3/3/3 13/13/13
f 34/34/34 13/13/13 12/12/12
f 34/34/34 12/12/12 35/35/35
f 36/36/36 37/37/37 38/38/38
f 36/36/36 38/38/38 39/39/39
f 36/36/36 39/39/39 40/40/40
f 36/36/36 40/40/40 41/41/41
f 36/36/36 41/41/41 20/20/20
f 36/36/36 20/20/20 19/19/19
f 36/36/36 19/19/19 18/18/18
f 36/36/36 18/18/18 37/37/37
f 42/42/42 41/41/41 40/40/40
f 42/42/42 40/40/40 43/43/43
f 42/42/42 43/43/43 44/44/44
f 42/42/42 44/44/44 45/45/45
f 42/42/42 45/45/45 27/27/27
f 42/42/42 27/27/27 26/26/26
f 42/42/42 26/26/26 20/20/20
f 42/42/42 20/20/20 41/41/41
f 46/46/46 47/47/47 48/48/48
f 46/46/46 48/48/48 49/49/49
f 46/46/46 49/49/49 50/50/50
f 46/46/46 50/50/50 51/51/51
f 46/46/46 51/51/51 52/52/52
f 46/46/46 52/52/52 53/53/53
f 46/46/46 53/53/53 54/54/54
f 46/46/46 54/54/54 47/47/47
f 55/55/55 56/56/56 57/57/57
f 55/55/55 57/57/57 58/58/58
f 55/55/55 58/58/58 48/48/48
f 55/55/55 48/48/48 47/47/47
f 55/55/55 47/47/47 54/54/54
f 55/55/55 54/54/54 59/59/59
f 55/55/55 59/59/59 60/60/60
f 55/55/55 60/60/60 56/56/56
f 61/61/61 62/62/62 63/63/63
f 61/61/61 63/63/63 64/64/64
f 61/61/61 64/64/64 65/65/65
f 61/61/61 65/65/65 66/66/66
f 61/61/61 66/66/66 67/67/67
f 61/61/61 67/67/67 68/68/68
f 61/61/61 68/68/68 69/69/69
f 61/61/61 69/69/69 62/62/62
f 70/70/70 66/66/66 65/65/65
f 70/70/70 65/65/65 71/71/71
f 70/70/70 71/71/71 72/72/72
f 70/70/70 72/72/72 73/73/73
f 70/70/70 73/73/73 74/74/74
f 70/70/70 74/74/74 75/75/75
f 70/70/70 75/75/75 67/67/67
f 70/70/70 67/67/67 66/66/66
f 76/76/76 77/77/77 54/54/54
f 76/76/76 54/54/54 53/53/53
f 76/76/76 53/53/53 52/52/52
f 76/76/76 52/52/52 78/78/78
f 76/76/76 78/78/78 72/72/72
f 76/76/76 72/72/72 71/71/71
f 76/76/76 71/71/71 65/65/65
f 76/76/76 65/65/65 77/77/77
f 79/79/79 80/80/80 60/60/60
f 79/79/79 60/60/60 59/59/59
f 79/79/79 59/59/59 54/54/54
f 79/79/79 54/54/54 77/77/77
f 79/79/79 77/77/77 65/65/65
f 79/79/79 65/65/65 64/64/64
f 79/79/79 64/64/64 63/63/63
f 79/79/79 63/63/63 80/80/80
f 81/81/81 82/82/82 69/69/69
f 81/81/81 69/69/69 68/68/68
f 81/81/81 68/68/68 67/67/67
f 81/81/81 67/67/67 83/83/83
f 81/81/81 83/83/83 84/84/84
f 81/81/81 84/84/84 85/85/85
f 81/81/81 85/85/85 86/86/86
f 81/81/81 86/86/86 82/82/82
f 87/87/87 83/83/83 67/67/67
f 87/87/87 67/67/67 75/75/75
f 87/87/87 75/75/75 74/74/74
f 87/87/87 74/74/74 88/88/88
f 87/87/87 88/88/88 89/89/89
f 87/87/87 89/89/89 90/90/90
f 87/87/87 90/90/90 84/84/84
f 87/87/87 84/84/84 83/83/83
f 91/91/91 92/92/92 38/38/38
f 91/91/91 38/38/38 37/37/37
f 91/91/91 37/37/37 18/18/18
f 91/91/91 18/18/18 93/93/93
f 91/91/91 93/93/93 69/69/69
f 91/91/91 69/69/69 82/82/82
f 91/91/91 82/82/82 94/94/94
f 91/91/91 94/94/94 92/92/92
f 95/95/95 96/96/96 44/44/44
f 95/95/95 44/44/44 43/43/43
f 95/95/95 43/43/43 40/40/40
f 95/95/95 40/40/40 97/97/97
f 95/95/95 97/97/97 84/84/84
f 95/95/95 84/84/84 90/90/90
f 95/95/95 90/90/90 98/98/98
f 95/95/95 98/98/98 96/96/96
f 99/99/99 100/100/100 7/7/7
f 99/99/99 7/7/7 6/6/6
f 99/99/99 6/6/6 5/5/5
f 99/99/99 5/5/5 101/101/101
f 99/99/99 101/101/101 52/52/52
f 99/99/99 52/52/52 51/51/51
f 99/99/99 51/51/51 102/102/102
f 99/99/99 102/102/102 100/100/100
f 103/103/103 104/104/104 15/15/15
f 103/103/103 15/15/15 14/14/14
f 103/103/103 14/14/14 9/9/9
f 103/103/103 9/9/9 105/105/105
f 103/103/103 105/105/105 48/48/48
f 103/103/103 48/48/48 58/58/58
f 103/103/103 58/58/58 106/106/106
f 103/103/103 106/106/106 104/104/104
f 107/107/107 108/108/108 12/12/12
f 107/107/107 12/12/12 11/11/11
f 107/107/107 11/11/11 15/15/15
f 107/107/107 15/15/15 104/104/104
f 107/107/107 104/104/104 106/106/106
f 107/107/107 106/106/106 56/56/56
f 107/107/107 56/56/56 60/60/60
f 107/107/107 60/60/60 108/108/108
f 109/109/109 97/97/97 40/40/40
f 109/109/109 40/40/40 39/39/39
f 109/109/109 39/39/39 38/38/38
f 109/109/109 38/38/38 92/92/92
f 109/109/109 92/92/92 94/94/94
f 109/109/109 94/94/94 85/85/85
f 109/109/109 85/85/85 84/84/84
f 109/109/109 84/84/84 97/97/97
f 110/110/110 111/111/111 27/27/27
f 110/110/110 27/27/27 45/45/45
f 110/110/110 45/45/45 44/44/44
f 110/110/110 44/44/44 96/96/96
f 110/110/110 96/96/96 98/98/98
f 110/110/110 98/98/98 88/88/88
f 110/110/110 88/88/88 74/74/74
f 110/110/110 74/74/74 111/111/111
f 112/112/112 105/105/105 9/9/9
f 112/112/112 9/9/9 8/8/8
f 112/112/112 8/8/8 7/7/7
f 112/112/112 7/7/7 100/100/100
f 112/112/112 100/100/100 102/102/102
f 112/112/112 102/102/102 49/49/49
f 112/112/112 49/49/49 48/48/48
f 112/112/112 48/48/48 105/105/105
f 113/113/113 101/101/101 5/5/5
f 113/113/113 5/5/5 33/33/33
f 113/113/113 33/33/33 29/29/29
f 113/113/113 29/29/29 114/114/114
f 113/113/113 114/114/114 72/72/72
f 113/113/113 72/72/72 78/78/78
f 113/113/113 78/78/78 52/52/52
f 113/113/113 52/52/52 101/101/101
f 115/115/115 116/116/116 24/24/24
f 115/115/115 24/24/24 35/35/35
f 115/115/115 35/35/35 12/12/12
f 115/115/115 12/12/12 108/108/108
f 115/115/115 108/108/108 60/60/60
f 115/115/115 60/60/60 80/80/80
f 115/115/115 80/80/80 63/63/63
f 115/115/115 63/63/63 116/116/116
f 117/117/117 93/93/93 18/18/18
f 117/117/117 18/18/18 17/17/17
f 117/117/117 17/17/17 24/24/24
f 117/117/117 24/24/24 116/116/116
f 117/117/117 116/116/116 63/63/63
f 117/117/117 63/63/63 62/62/62
f 117/117/117 62/62/62 69/69/69
f 117/117/117 69/69/69 93/93/93
f 118/118/118 114/114/114 29/29/29
f 118/118/118 29/29/29 28/28/28
f 118/118/118 28/28/28 27/27/27
f 118/118/118 27/27/27 111/111/111
f 118/118/118 111/111/111 74/74/74
f 118/118/118 74/74/74 73/73/73
f 118/118/118 73/73/73 72/72/72
f 118/118/118 72/72/72 114/114/114
