v -2.427066 0.654918 -1.077983
v -2.425994 0.654331 -1.075858
v -2.423411 0.654886 -1.077774
v -2.424907 0.655424 -1.079988
v -2.425937 0.656085 -1.08171
v -2.427605 0.655666 -1.079767
v -2.428357 0.655121 -1.078242
v -2.428528 0.654427 -1.076511
v -2.427875 0.653814 -1.07447
v -2.424207 0.654647 -1.074209
v -2.422592 0.655192 -1.073148
v -2.420242 0.655546 -1.074191
v -2.421658 0.655116 -1.075699
v -2.426053 0.654192 -1.073244
v -2.424297 0.654736 -1.072882
v -2.413547 0.655066 -1.081914
v -2.4123 0.655212 -1.080353
v -2.409908 0.654665 -1.082875
v -2.411016 0.654521 -1.084255
v -2.412458 0.654471 -1.0861
v -2.415174 0.655023 -1.084003
v -2.41791 0.655333 -1.081909
v -2.416207 0.655403 -1.079723
v -2.4149 0.655593 -1.078088
v -2.41673 0.655367 -1.086118
v -2.413831 0.654788 -1.087971
v -2.414842 0.655132 -1.089389
v -2.417878 0.65574 -1.087717
v -2.420735 0.656146 -1.085792
v -2.419537 0.655718 -1.084119
v -2.42233 0.655714 -1.082055
v -2.420686 0.655254 -1.079812
v -2.423534 0.656253 -1.083754
v -2.418951 0.655394 -1.077594
v -2.417613 0.655692 -1.075936
v -2.408659 0.653907 -1.086828
v -2.407819 0.65407 -1.085802
v -2.406876 0.653643 -1.087687
v -2.406959 0.653388 -1.088842
v -2.407714 0.653277 -1.089778
v -2.409744 0.653827 -1.088202
v -2.410759 0.654106 -1.089602
v -2.408399 0.653525 -1.090743
v -2.409467 0.653889 -1.091107
v -2.411503 0.654419 -1.090666
v -2.427069 0.654669 -1.078043
v -2.425975 0.654078 -1.07589
v -2.427858 0.653624 -1.074497
v -2.428528 0.654241 -1.076559
v -2.428363 0.654984 -1.078283
v -2.427619 0.655483 -1.079825
v -2.425954 0.6559 -1.081761
v -2.424917 0.655173 -1.080039
v -2.4234 0.654631 -1.077801
v -2.424167 0.654394 -1.074212
v -2.422552 0.655003 -1.073135
v -2.424269 0.654596 -1.072878
v -2.426019 0.654003 -1.073247
v -2.421629 0.654861 -1.075699
v -2.420212 0.655356 -1.074178
v -2.413562 0.65481 -1.081893
v -2.412304 0.65502 -1.080328
v -2.414894 0.655401 -1.078068
v -2.416209 0.655146 -1.079709
v -2.417927 0.655077 -1.081914
v -2.415202 0.654767 -1.084
v -2.412495 0.654216 -1.08609
v -2.411038 0.654266 -1.084227
v -2.409918 0.654474 -1.082845
v -2.416772 0.655114 -1.086132
v -2.419569 0.655464 -1.084144
v -2.420766 0.655957 -1.08582
v -2.417917 0.655551 -1.087737
v -2.414886 0.654944 -1.089405
v -2.413881 0.654535 -1.08798
v -2.42235 0.655461 -1.082093
v -2.420688 0.654998 -1.079828
v -2.423558 0.656065 -1.083793
v -2.418938 0.655137 -1.077588
v -2.417594 0.6555 -1.075921
v -2.408684 0.653652 -1.086797
v -2.40783 0.65388 -1.085769
v -2.409784 0.653572 -1.08819
v -2.407744 0.653087 -1.089769
v -2.406977 0.653198 -1.088817
v -2.406887 0.653502 -1.087665
v -2.410814 0.653854 -1.08961
v -2.411551 0.654232 -1.090682
v -2.409501 0.65375 -1.091116
v -2.408441 0.653336 -1.090749
v -2.407543 0.65404 -1.085443
v -2.406344 0.653509 -1.088095
v -2.409542 0.654628 -1.0824
v -2.406887 0.653502 -1.087665
v -2.407631 0.653247 -1.091126
v -2.408939 0.653754 -1.091522
v -2.407051 0.653009 -1.0903
v -2.409501 0.65375 -1.091116
v -2.427793 0.655835 -1.08039
v -2.42864 0.655162 -1.078372
v -2.426291 0.656224 -1.082309
v -2.428363 0.654984 -1.078283
v -2.426653 0.653957 -1.072924
v -2.424248 0.654746 -1.072572
v -2.428493 0.653557 -1.07402
v -2.424269 0.654596 -1.072878
v -2.422033 0.65529 -1.072785
v -2.419755 0.655605 -1.07368
v -2.406401 0.653131 -1.089502
v -2.411774 0.654441 -1.09103
v -2.4152 0.655164 -1.08987
v -2.429015 0.654181 -1.076042
v -2.423948 0.65635 -1.08434
v -2.421149 0.656205 -1.086364
v -2.417157 0.655706 -1.075374
v -2.41446 0.655571 -1.077533
v -2.411885 0.655175 -1.079819
v -2.418279 0.655781 -1.088261
vn 0.0337 0.9486 0.3146
vn -0.1161 0.9805 0.1582
vn -0.0686 0.99 0.123
vn 0.067 0.9629 0.2615
vn 0.0813 0.9675 0.2393
vn 0.0291 0.9508 0.3083
vn -0.0087 0.9348 0.3552
vn -0.064 0.9389 0.338
vn -0.1893 0.9587 0.2121
vn -0.2273 0.9733 -0.0301
vn -0.2224 0.9746 -0.0238
vn -0.1407 0.9886 -0.0539
vn -0.1663 0.985 -0.0466
vn -0.2772 0.9591 0.0566
vn -0.2788 0.9603 -0.0015
vn 0.067 0.9909 -0.1162
vn 0.0963 0.9911 -0.092
vn 0.1235 0.9863 -0.1092
vn 0.0882 0.9858 -0.1426
vn 0.1674 0.9843 -0.0562
vn 0.134 0.9905 -0.0305
vn 0.0662 0.9976 0.0214
vn -0.0015 0.9967 -0.0806
vn 0.0289 0.9972 -0.0695
vn 0.198 0.9785 0.0567
vn 0.2288 0.9725 0.043
vn 0.2064 0.9785 0.0002
vn 0.1829 0.9829 0.0222
vn 0.1432 0.9863 0.0814
vn 0.1455 0.9828 0.1135
vn 0.0963 0.977 0.1903
vn -0.0091 0.9969 0.0783
vn 0.1074 0.981 0.1612
vn -0.089 0.9945 -0.0544
vn -0.0578 0.9967 -0.0569
vn 0.0834 0.9817 -0.1713
vn 0.1247 0.9825 -0.1386
vn 0.1181 0.9777 -0.1738
vn 0.1137 0.9683 -0.2224
vn 0.2267 0.9686 -0.1022
vn 0.1831 0.9807 -0.0683
vn 0.2547 0.9654 0.0549
vn 0.3111 0.9496 0.0382
vn 0.2663 0.9636 0.0219
vn 0.2346 0.972 0.0066
vn -0.0694 -0.9444 -0.3214
vn 0.103 -0.9835 -0.1486
vn 0.0525 -0.9924 -0.1109
vn -0.1738 -0.9235 -0.3421
vn -0.2651 -0.8744 -0.4062
vn -0.243 -0.8856 -0.3959
vn -0.2025 -0.916 -0.3463
vn -0.0776 -0.9591 -0.2721
vn 0.0687 -0.99 -0.1231
vn 0.2244 -0.9722 0.0665
vn 0.2525 -0.9325 0.2583
vn 0.2571 -0.9239 0.2832
vn 0.2171 -0.9605 0.174
vn 0.1738 -0.9829 0.0598
vn 0.2139 -0.9554 0.2034
vn -0.0561 -0.9901 0.1282
vn 0.0212 -0.9775 0.2098
vn 0.0703 -0.9799 0.1865
vn 0.0109 -0.9957 0.0923
vn -0.0663 -0.9976 -0.0213
vn -0.1342 -0.9905 0.0306
vn -0.1675 -0.9843 0.0563
vn -0.0738 -0.9851 0.1552
vn 0.0348 -0.9725 0.2303
vn -0.2065 -0.9759 -0.0704
vn -0.1541 -0.98 -0.1256
vn -0.2272 -0.9517 -0.2062
vn -0.2629 -0.9506 -0.1651
vn -0.2784 -0.9428 -0.1832
vn -0.2369 -0.9696 -0.0601
vn -0.1052 -0.9738 -0.2015
vn 0.0091 -0.9969 -0.0784
vn -0.1993 -0.9401 -0.2766
vn 0.0975 -0.993 0.0662
vn 0.1462 -0.9728 0.1796
vn -0.0518 -0.9824 0.1792
vn 0.0963 -0.9634 0.25
vn -0.1736 -0.9829 0.0609
vn -0.1316 -0.9909 0.0286
vn 0.0497 -0.9801 0.1922
vn 0.1375 -0.9564 0.2575
vn -0.2538 -0.9633 -0.0873
vn -0.2799 -0.9277 -0.2467
vn -0.2753 -0.9173 -0.2875
vn -0.2383 -0.9528 -0.188
vn 0.8692 0.0865 0.4869
vn 0.9932 0.0686 0.0939
vn 0.7838 0.0699 0.617
vn 0.1375 -0.9564 0.2575
vn 0.6208 -0.1156 -0.7754
vn 0.1863 0.1449 -0.9717
vn 0.7532 -0.2885 -0.5912
vn -0.2753 -0.9173 -0.2875
vn -0.8159 0.3264 -0.4771
vn -0.9501 0.2431 -0.1955
vn -0.691 0.3216 -0.6474
vn -0.2651 -0.8744 -0.4062
vn -0.3974 -0.1061 0.9115
vn -0.0553 0.1583 0.9858
vn -0.7794 -0.2552 0.5721
vn 0.2571 -0.9239 0.2832
vn 0.2575 0.2248 0.9397
vn 0.4545 0.2131 0.8648
vn 0.9057 -0.1426 -0.3992
vn -0.2239 0.1902 -0.9559
vn -0.3731 0.1795 -0.9102
vn -0.9904 -0.05 0.1286
vn -0.5943 0.2834 -0.7526
vn -0.5381 0.2441 -0.8067
vn 0.5792 0.1722 0.7967
vn 0.6438 0.1321 0.7537
vn 0.7024 0.0913 0.7059
vn -0.479 0.2032 -0.854
vt 0.839504 0.118056
vt 0.856743 0.205307
vt 0.741230 0.205307
vt 0.734555 0.106726
vt 0.724541 0.032791
vt 0.813647 0.052618
vt 0.868992 0.081539
vt 0.913398 0.129584
vt 0.940923 0.205307
vt 0.839504 0.292557
vt 0.813647 0.357995
vt 0.724541 0.377822
vt 0.734555 0.303887
vt 0.913398 0.281029
vt 0.868992 0.329074
vt 0.369475 0.299954
vt 0.368286 0.370940
vt 0.245840 0.351447
vt 0.246397 0.288815
vt 0.246768 0.205307
vt 0.370268 0.205307
vt 0.494283 0.205307
vt 0.492822 0.304944
vt 0.490632 0.379672
vt 0.369475 0.110659
vt 0.246397 0.121798
vt 0.245841 0.059166
vt 0.368286 0.039673
vt 0.490632 0.030941
vt 0.492822 0.105669
vt 0.616755 0.103478
vt 0.619174 0.205307
vt 0.613127 0.027106
vt 0.616755 0.307135
vt 0.613126 0.383507
vt 0.123273 0.268175
vt 0.123047 0.315326
vt 0.054743 0.283353
vt 0.030912 0.249131
vt 0.030973 0.205306
vt 0.123423 0.205306
vt 0.123273 0.142438
vt 0.030912 0.161481
vt 0.054744 0.127260
vt 0.123047 0.095287
vt 0.839504 0.118056
vt 0.856743 0.205307
vt 0.968983 0.205307
vt 0.938030 0.133427
vt 0.876123 0.061548
vt 0.805028 0.030806
vt 0.721203 0.008146
vt 0.734555 0.106726
vt 0.741230 0.205307
vt 0.839504 0.292557
vt 0.805028 0.379807
vt 0.876123 0.349065
vt 0.938030 0.277186
vt 0.734555 0.303887
vt 0.721203 0.402467
vt 0.369475 0.299954
vt 0.367890 0.394602
vt 0.489902 0.404581
vt 0.492822 0.304944
vt 0.494283 0.205307
vt 0.370268 0.205307
vt 0.246768 0.205307
vt 0.246397 0.288815
vt 0.245655 0.372324
vt 0.369475 0.110659
vt 0.492822 0.105669
vt 0.489902 0.006032
vt 0.367890 0.016011
vt 0.245655 0.038289
vt 0.246397 0.121798
vt 0.616755 0.103478
vt 0.619174 0.205307
vt 0.611917 0.001649
vt 0.616755 0.307135
vt 0.611917 0.408964
vt 0.123273 0.268175
vt 0.122972 0.331043
vt 0.123423 0.205306
vt 0.000156 0.205306
vt 0.000125 0.242784
vt 0.000064 0.280261
vt 0.123273 0.142438
vt 0.122972 0.079570
vt 0.000064 0.130352
vt 0.000125 0.167829
vt 0.122972 0.331043
vt 0.030806 0.283587
vt 0.245655 0.372324
vt 0.030806 0.283587
vt 0.000125 0.167829
vt 0.030806 0.127026
vt 0.000156 0.205306
vt 0.030806 0.127026
vt 0.805028 0.030806
vt 0.873826 0.071832
vt 0.721203 0.008146
vt 0.873826 0.071832
vt 0.938030 0.277186
vt 0.873826 0.338781
vt 0.968983 0.205307
vt 0.873826 0.338781
vt 0.805028 0.379807
vt 0.721203 0.402467
vt 0.000125 0.242784
vt 0.122972 0.079570
vt 0.245655 0.038289
vt 0.938030 0.133427
vt 0.611917 0.001649
vt 0.489902 0.006032
vt 0.611917 0.408964
vt 0.489902 0.404581
vt 0.367890 0.394602
vt 0.367890 0.016011
f 1/1/1 2/2/2 3/3/3
f 1/1/1 3/3/3 4/4/4
f 1/1/1 4/4/4 5/5/5
f 1/1/1 5/5/5 6/6/6
f 1/1/1 6/6/6 7/7/7
f 1/1/1 7/7/7 8/8/8
f 1/1/1 8/8/8 9/9/9
f 1/1/1 9/9/9 2/2/2
f 10/10/10 11/11/11 12/12/12
f 10/10/10 12/12/12 13/13/13
f 10/10/10 13/13/13 3/3/3
f 10/10/10 3/3/3 2/2/2
f 10/10/10 2/2/2 9/9/9
f 10/10/10 9/9/9 14/14/14
f 10/10/10 14/14/14 15/15/15
f 10/10/10 15/15/15 11/11/11
f 16/16/16 17/17/17 18/18/18
f 16/16/16 18/18/18 19/19/19
f 16/16/16 19/19/19 20/20/20
f 16/16/16 20/20/20 21/21/21
f 16/16/16 21/21/21 22/22/22
f 16/16/16 22/22/22 23/23/23
f 16/16/16 23/23/23 24/24/24
f 16/16/16 24/24/24 17/17/17
f 25/25/25 21/21/21 20/20/20
f 25/25/25 20/20/20 26/26/26
f 25/25/25 26/26/26 27/27/27
f 25/25/25 27/27/27 28/28/28
f 25/25/25 28/28/28 29/29/29
f 25/25/25 29/29/29 30/30/30
f 25/25/25 30/30/30 22/22/22
f 25/25/25 22/22/22 21/21/21
f 31/31/31 32/32/32 22/22/22
f 31/31/31 22/22/22 30/30/30
f 31/31/31 30/30/30 29/29/29
f 31/31/31 29/29/29 33/33/33
f 31/31/31 33/33/33 5/5/5
f 31/31/31 5/5/5 4/4/4
f 31/31/31 4/4/4 3/3/3
f 31/31/31 3/3/3 32/32/32
f 34/34/34 35/35/35 24/24/24
f 34/34/34 24/24/24 23/23/23
f 34/34/34 23/23/23 22/22/22
f 34/34/34 22/22/22 32/32/32
f 34/34/34 32/32/32 3/3/3
f 34/34/34 3/3/3 13/13/13
f 34/34/34 13/13/13 12/12/12
f 34/34/34 12/12/12 35/35/35
f 36/36/36 37/37/37 38/38/38
f 36/36/36 38/38/38 39/39/39
f 36/36/36 39/39/39 40/40/40
f 36/36/36 40/40/40 41/41/41
f 36/36/36 41/41/41 20/20/20
f 36/36/36 20/20/20 19/19/19
f 36/36/36 19/19/19 18/18/18
f 36/36/36 18/18/18 37/37/37
f 42/42/42 41/41/41 40/40/40
f 42/42/42 40/40/40 43/43/43
f 42/42/42 43/43/43 44/44/44
f 42/42/42 44/44/44 45/45/45
f 42/42/42 45/45/45 27/27/27
f 42/42/42 27/27/27 26/26/26
f 42/42/42 26/26/26 20/20/20
f 42/42/42 20/20/20 41/41/41
f 46/46/46 47/47/47 48/48/48
f 46/46/46 48/48/48 49/49/49
f 46/46/46 49/49/49 50/50/50
f 46/46/46 50/50/50 51/51/51
f 46/46/46 51/51/51 52/52/52
f 46/46/46 52/52/52 53/53/53
f 46/46/46 53/53/53 54/54/54
f 46/46/46 54/54/54 47/47/47
f 55/55/55 56/56/56 57/57/57
f 55/55/55 57/57/57 58/58/58
f 55/55/55 58/58/58 48/48/48
f 55/55/55 48/48/48 47/47/47
f 55/55/55 47/47/47 54/54/54
f 55/55/55 54/54/54 59/59/59
f 55/55/55 59/59/59 60/60/60
f 55/55/55 60/60/60 56/56/56
f 61/61/61 62/62/62 63/63/63
f 61/61/61 63/63/63 64/64/64
f 61/61/61 64/64/64 65/65/65
f 61/61/61 65/65/65 66/66/66
f 61/61/61 66/66/66 67/67/67
f 61/61/61 67/67/67 68/68/68
f 61/61/61 68/68/68 69/69/69
f 61/61/61 69/69/69 62/62/62
f 70/70/70 66/66/66 65/65/65
f 70/70/70 65/65/65 71/71/71
f 70/70/70 71/71/71 72/72/72
f 70/70/70 72/72/72 73/73/73
f 70/70/70 73/73/73 74/74/74
f 70/70/70 74/74/74 75/75/75
f 70/70/70 75/75/75 67/67/67
f 70/70/70 67/67/67 66/66/66
f 76/76/76 77/77/77 54/54/54
f 76/76/76 54/54/54 53/53/53
f 76/76/76 53/53/53 52/52/52
f 76/76/76 52/52/52 78/78/78
f 76/76/76 78/78/78 72/72/72
f 76/76/76 72/72/72 71/71/71
f 76/76/76 71/71/71 65/65/65
f 76/76/76 65/65/65 77/77/77
f 79/79/79 80/80/80 60/60/60
f 79/79/79 60/60/60 59/59/59
f 79/79/79 59/59/59 54/54/54
f 79/79/79 54/54/54 77/77/77
f 79/79/79 77/77/77 65/65/65
f 79/79/79 65/65/65 64/64/64
f 79/79/79 64/64/64 63/63/63
f 79/79/79 63/63/63 80/80/80
f 81/81/81 82/82/82 69/69/69
f 81/81/81 69/69/69 68/68/68
f 81/81/81 68/68/68 67/67/67
f 81/81/81 67/67/67 83/83/83
f 81/81/81 83/83/83 84/84/84
f 81/81/81 84/84/84 85/85/85
f 81/81/81 85/85/85 86/86/86
f 81/81/81 86/86/86 82/82/82
f 87/87/87 83/83/83 67/67/67
f 87/87/87 67/67/67 75/75/75
f 87/87/87 75/75/75 74/74/74
f 87/87/87 74/74/74 88/88/88
f 87/87/87 88/88/88 89/89/89
f 87/87/87 89/89/89 90/90/90
f 87/87/87 90/90/90 84/84/84
f 87/87/87 84/84/84 83/83/83
f 91/91/91 92/92/92 38/38/38
f 91/91/91 38/38/38 37/37/37
f 91/91/91 37/37/37 18/18/18
f 91/91/91 18/18/18 93/93/93
f 91/91/91 93/93/93 69/69/69
f 91/91/91 69/69/69 82/82/82
f 91/91/91 82/82/82 94/94/94
f 91/91/91 94/94/94 92/92/92
f 95/95/95 96/96/96 44/44/44
f 95/95/95 44/44/44 43/43/43
f 95/95/95 43/43/43 40/40/40
f 95/95/95 40/40/40 97/97/97
f 95/95/95 97/97/97 84/84/84
f 95/95/95 84/84/84 90/90/90
f 95/95/95 90/90/90 98/98/98
f 95/95/95 98/98/98 96/96/96
f 99/99/99 100/100/100 7/7/7
f 99/99/99 7/7/7 6/6/6
f 99/99/99 6/6/6 5/5/5
f 99/99/99 5/5/5 101/101/101
f 99/99/99 101/101/101 52/52/52
f 99/99/99 52/52/52 51/51/51
f 99/99/99 51/51/51 102/102/102
f 99/99/99 102/102/102 100/100/100
f 103/103/103 104/104/104 15/15/15
f 103/103/103 15/15/15 14/14/14
f 103/103/103 14/14/14 9/9/9
f 103/103/103 9/9/9 105/105/105
f 103/103/103 105/105/105 48/48/48
f 103/103/103 48/48/48 58/58/58
f 103/103/103 58/58/58 106/106/106
f 103/103/103 106/106/106 104/104/104
f 107/107/107 108/108/108 12/12/12
f 107/107/107 12/12/12 11/11/11
f 107/107/107 11/11/11 15/15/15
f 107/107/107 15/15/15 104/104/104
f 107/107/107 104/104/104 106/106/106
f 107/107/107 106/106/106 56/56/56
f 107/107/107 56/56/56 60/60/60
f 107/107/107 60/60/60 108/108/108
f 109/109/109 97/97/97 40/40/40
f 109/109/109 40/40/40 39/39/39
f 109/109/109 39/39/39 38/38/38
f 109/109/109 38/38/38 92/92/92
f 109/109/109 92/92/92 94/94/94
f 109/109/109 94/94/94 85/85/85
f 109/109/109 85/85/85 84/84/84
f 109/109/109 84/84/84 97/97/97
f 110/110/110 111/111/111 27/27/27
f 110/110/110 27/27/27 45/45/45
f 110/110/110 45/45/45 44/44/44
f 110/110/110 44/44/44 96/96/96
f 110/110/110 96/96/96 98/98/98
f 110/110/110 98/98/98 88/88/88
f 110/110/110 88/88/88 74/74/74
f 110/110/110 74/74/74 111/111/111
f 112/112/112 105/105/105 9/9/9
f 112/112/112 9/9/9 8/8/8
f 112/112/112 8/8/8 7/7/7
f 112/112/112 7/7/7 100/100/100
f 112/112/112 100/100/100 102/102/102
f 112/112/112 102/102/102 49/49/49
f 112/112/112 49/49/49 48/48/48
f 112/112/112 48/48/48 105/105/105
f 113/113/113 101/101/101 5/5/5
f 113/113/113 5/5/5 33/33/33
f 113/113/113 33/33/33 29/29/29
f 113/113/113 29/29/29 114/114/114
f 113/113/113 114/114/114 72/72/72
f 113/113/113 72/72/72 78/78/78
f 113/113/113 78/78/78 52/52/52
f 113/113/113 52/52/52 101/101/101
f 115/115/115 116/116/116 24/24/24
f 115/115/115 24/24/24 35/35/35
f 115/115/115 35/35/35 12/12/12
f 115/115/115 12/12/12 108/108/108
f 115/115/115 108/108/108 60/60/60
f 115/115/115 60/60/60 80/80/80
f 115/115/115 80/80/80 63/63/63
f 115/115/115 63/63/63 116/116/116
f 117/117/117 93/93/93 18/18/18
f 117/117/117 18/18/18 17/17/17
f 117/117/117 17/17/17 24/24/24
f 117/117/117 24/24/24 116/116/116
f 117/117/117 116/116/116 63/63/63
f 117/117/117 63/63/63 62/62/62
f 117/117/117 62/62/62 69/69/69
f 117/117/117 69/69/69 93/93/93
f 118/118/118 114/114/114 29/29/29
f 118/118/118 29/29/29 28/28/28
f 118/118/118 28/28/28 27/27/27
f 118/118/118 27/27/27 111/111/111
f 118/118/118 111/111/111 74/74/74
f 118/118/118 74/74/74 73/73/73
f 118/118/118 73/73/73 72/72/72
f 118/118/118 72/72/72 114/114/114
