v -2.358064 0.695225 -1.198737
v -2.357716 0.694713 -1.200993
v -2.360515 0.693449 -1.200481
v -2.360574 0.694111 -1.197966
v -2.360844 0.694752 -1.196074
v -2.358745 0.695678 -1.197005
v -2.357368 0.695961 -1.197968
v -2.356241 0.695887 -1.199353
v -2.355618 0.695542 -1.201357
v -2.358527 0.694452 -1.203172
v -2.359557 0.694324 -1.204782
v -2.361767 0.693213 -1.204909
v -2.361101 0.693234 -1.203006
v -2.356642 0.695219 -1.203192
v -2.358026 0.694864 -1.204266
v -2.368998 0.687812 -1.201184
v -2.369373 0.687663 -1.203053
v -2.371667 0.685492 -1.201915
v -2.371323 0.685614 -1.200261
v -2.370967 0.68587 -1.198069
v -2.368606 0.688109 -1.198706
v -2.366101 0.690169 -1.199326
v -2.366525 0.689876 -1.201921
v -2.36694 0.68975 -1.203878
v -2.368482 0.688672 -1.196246
v -2.370867 0.686374 -1.195894
v -2.370868 0.686825 -1.194262
v -2.368469 0.68917 -1.1944
v -2.365994 0.691326 -1.194826
v -2.365985 0.690776 -1.196755
v -2.363282 0.692609 -1.197317
v -2.363358 0.691941 -1.199921
v -2.363356 0.693244 -1.195366
v -2.363829 0.691696 -1.202558
v -2.364316 0.691644 -1.204552
v -2.373575 0.683395 -1.199063
v -2.373872 0.683341 -1.200301
v -2.374989 0.682119 -1.199088
v -2.375216 0.6817 -1.198062
v -2.374973 0.681774 -1.196938
v -2.373279 0.683558 -1.197425
v -2.373235 0.683962 -1.195804
v -2.374983 0.682089 -1.195829
v -2.374569 0.682819 -1.19507
v -2.373276 0.684336 -1.194586
v -2.357949 0.695017 -1.198679
v -2.357604 0.694497 -1.200967
v -2.355538 0.695379 -1.201337
v -2.356158 0.695731 -1.199307
v -2.357306 0.695847 -1.197927
v -2.358658 0.695528 -1.196945
v -2.36075 0.694603 -1.196019
v -2.360451 0.693907 -1.197913
v -2.360395 0.693237 -1.200457
v -2.358419 0.694233 -1.20318
v -2.359479 0.694159 -1.204805
v -2.357969 0.694741 -1.204279
v -2.356565 0.695053 -1.203199
v -2.360983 0.693019 -1.203012
v -2.361681 0.693052 -1.204928
v -2.368841 0.687622 -1.20119
v -2.369257 0.68752 -1.203068
v -2.366832 0.6896 -1.203893
v -2.366379 0.689678 -1.201925
v -2.365953 0.689974 -1.199308
v -2.368447 0.687923 -1.19869
v -2.3708 0.68569 -1.198056
v -2.37116 0.685431 -1.200269
v -2.371546 0.685353 -1.201931
v -2.368321 0.68849 -1.196209
v -2.365835 0.690586 -1.196714
v -2.365881 0.691186 -1.194785
v -2.368348 0.689036 -1.194362
v -2.370741 0.686695 -1.194224
v -2.370699 0.686199 -1.195859
v -2.363146 0.692411 -1.19727
v -2.363224 0.691738 -1.1999
v -2.363253 0.693099 -1.195318
v -2.363698 0.691489 -1.202563
v -2.364219 0.691488 -1.204568
v -2.373409 0.683214 -1.199072
v -2.37375 0.683204 -1.20032
v -2.373109 0.68338 -1.197412
v -2.374846 0.681641 -1.196928
v -2.375091 0.681565 -1.198071
v -2.374897 0.682018 -1.199099
v -2.373064 0.683789 -1.195767
v -2.373147 0.684209 -1.194547
v -2.374474 0.682724 -1.195044
v -2.374854 0.68196 -1.195801
v -2.373917 0.683262 -1.200725
v -2.375436 0.681659 -1.198965
v -2.371728 0.685389 -1.202476
v -2.374897 0.682018 -1.199099
v -2.375508 0.681407 -1.195825
v -2.375015 0.68236 -1.194939
v -2.375481 0.68112 -1.196771
v -2.374474 0.682724 -1.195044
v -2.358933 0.695764 -1.196397
v -2.357241 0.696103 -1.197737
v -2.360892 0.6949 -1.195416
v -2.357306 0.695847 -1.197927
v -2.355981 0.6954 -1.203202
v -2.357953 0.694916 -1.204552
v -2.354884 0.695745 -1.201469
v -2.357969 0.694741 -1.204279
v -2.359867 0.694208 -1.205333
v -2.361951 0.693135 -1.205555
v -2.375707 0.681075 -1.197733
v -2.373232 0.684405 -1.19416
v -2.370812 0.686918 -1.193698
v -2.355598 0.696038 -1.199538
v -2.363335 0.693392 -1.194692
v -2.365947 0.691448 -1.194163
v -2.364435 0.691557 -1.205227
v -2.36703 0.689641 -1.20454
v -2.369447 0.68755 -1.203685
v -2.368411 0.689278 -1.193765
vn -0.4406 0.8383 -0.3209
vn -0.4093 0.9051 -0.1148
vn -0.4628 0.8802 -0.1049
vn -0.4934 0.8204 -0.2888
vn -0.515 0.8117 -0.2755
vn -0.4409 0.8411 -0.3133
vn -0.3863 0.8582 -0.3378
vn -0.3549 0.8862 -0.2977
vn -0.3229 0.9375 -0.1296
vn -0.3963 0.9123 0.1034
vn -0.3981 0.9123 0.0957
vn -0.4772 0.8746 0.0855
vn -0.4537 0.8865 0.0905
vn -0.3187 0.9466 0.0489
vn -0.3404 0.9348 0.1015
vn -0.6542 0.7548 0.0478
vn -0.6663 0.7455 0.0129
vn -0.6901 0.7235 0.0162
vn -0.6769 0.7335 0.0619
vn -0.7006 0.7117 -0.0508
vn -0.6699 0.7401 -0.0589
vn -0.6045 0.793 -0.075
vn -0.5938 0.8032 0.0466
vn -0.612 0.7906 0.0229
vn -0.6764 0.7177 -0.1652
vn -0.7007 0.6937 -0.1666
vn -0.7042 0.7001 -0.1184
vn -0.6811 0.721 -0.1276
vn -0.6313 0.7582 -0.1629
vn -0.6187 0.7617 -0.1924
vn -0.5501 0.8002 -0.2387
vn -0.5273 0.8447 -0.092
vn -0.5716 0.791 -0.2179
vn -0.5186 0.8527 0.0625
vn -0.5436 0.8378 0.0507
vn -0.682 0.7258 0.0898
vn -0.7 0.7129 0.042
vn -0.7058 0.7042 0.0766
vn -0.7161 0.6872 0.1223
vn -0.7527 0.6574 -0.0359
vn -0.7147 0.6978 -0.0469
vn -0.7111 0.6773 -0.1887
vn -0.7497 0.6312 -0.1988
vn -0.7313 0.6619 -0.1642
vn -0.7188 0.6816 -0.1365
vn 0.4617 -0.8181 0.3429
vn 0.4242 -0.8986 0.1122
vn 0.4807 -0.8709 0.1015
vn 0.5181 -0.7519 0.4076
vn 0.5325 -0.6795 0.5047
vn 0.5265 -0.6976 0.4859
vn 0.5332 -0.7319 0.4242
vn 0.4949 -0.8144 0.3029
vn 0.4628 -0.8802 0.105
vn 0.4117 -0.9013 -0.1347
vn 0.4423 -0.8379 -0.3197
vn 0.4437 -0.8273 -0.3443
vn 0.4518 -0.8625 -0.2279
vn 0.4522 -0.8856 -0.1058
vn 0.4625 -0.8498 -0.2528
vn 0.6503 -0.757 -0.0634
vn 0.6181 -0.7672 -0.1713
vn 0.5747 -0.8 -0.1725
vn 0.5907 -0.8045 -0.0613
vn 0.6047 -0.7929 0.0749
vn 0.6701 -0.74 0.0589
vn 0.7007 -0.7116 0.0507
vn 0.6708 -0.7373 -0.0797
vn 0.6131 -0.7653 -0.1958
vn 0.6759 -0.7144 0.1812
vn 0.6188 -0.7578 0.207
vn 0.6252 -0.7157 0.3112
vn 0.6663 -0.6867 0.2904
vn 0.6663 -0.6766 0.3133
vn 0.6985 -0.6911 0.1855
vn 0.5504 -0.7957 0.2527
vn 0.5273 -0.8447 0.092
vn 0.5712 -0.7371 0.3612
vn 0.516 -0.8531 -0.0769
vn 0.5126 -0.8349 -0.2005
vn 0.6624 -0.7408 -0.1111
vn 0.5708 -0.7848 -0.2413
vn 0.7062 -0.7063 0.0492
vn 0.6677 -0.742 0.0595
vn 0.592 -0.7882 -0.1682
vn 0.5396 -0.7985 -0.2666
vn 0.6967 -0.6836 0.2172
vn 0.6347 -0.6783 0.3702
vn 0.6098 -0.6816 0.4044
vn 0.6409 -0.7066 0.2999
vn -0.4964 -0.262 -0.8276
vn -0.7279 -0.4333 -0.5314
vn -0.3748 -0.2012 -0.905
vn 0.5396 -0.7985 -0.2666
vn -0.6852 -0.5974 0.4166
vn -0.5909 -0.2053 0.7802
vn -0.6131 -0.7649 0.1972
vn 0.6098 -0.6816 0.4044
vn 0.2276 0.5773 0.7841
vn 0.4808 0.6441 0.5949
vn 0.0738 0.4689 0.8802
vn 0.5325 -0.6795 0.5047
vn 0.6997 0.3317 -0.6327
vn 0.3291 0.3909 -0.8596
vn 0.9327 0.326 -0.1542
vn 0.4437 -0.8273 -0.3443
vn 0.0457 0.2736 -0.9608
vn -0.1202 0.1448 -0.9821
vn -0.7335 -0.6781 -0.0461
vn -0.3109 0.0471 0.9493
vn -0.1785 0.1261 0.9758
vn 0.8005 0.4995 0.3311
vn -0.0155 0.3628 0.9317
vn -0.0547 0.2892 0.9557
vn -0.2145 0.0305 -0.9762
vn -0.2553 -0.0457 -0.9658
vn -0.2931 -0.1205 -0.9484
vn -0.0927 0.2138 0.9724
vt 0.839504 0.118056
vt 0.856743 0.205307
vt 0.741230 0.205307
vt 0.734555 0.106726
vt 0.724541 0.032791
vt 0.813647 0.052618
vt 0.868992 0.081539
vt 0.913398 0.129584
vt 0.940923 0.205307
vt 0.839504 0.292557
vt 0.813647 0.357995
vt 0.724541 0.377822
vt 0.734555 0.303887
vt 0.913398 0.281029
vt 0.868992 0.329074
vt 0.369475 0.299954
vt 0.368286 0.370940
vt 0.245840 0.351447
vt 0.246397 0.288815
vt 0.246768 0.205307
vt 0.370268 0.205307
vt 0.494283 0.205307
vt 0.492822 0.304944
vt 0.490632 0.379672
vt 0.369475 0.110659
vt 0.246397 0.121798
vt 0.245841 0.059166
vt 0.368286 0.039673
vt 0.490632 0.030941
vt 0.492822 0.105669
vt 0.616755 0.103478
vt 0.619174 0.205307
vt 0.613127 0.027106
vt 0.616755 0.307135
vt 0.613126 0.383507
vt 0.123273 0.268175
vt 0.123047 0.315326
vt 0.054743 0.283353
vt 0.030912 0.249131
vt 0.030973 0.205306
vt 0.123423 0.205306
vt 0.123273 0.142438
vt 0.030912 0.161481
vt 0.054744 0.127260
vt 0.123047 0.095287
vt 0.839504 0.118056
vt 0.856743 0.205307
vt 0.968983 0.205307
vt 0.938030 0.133427
vt 0.876123 0.061548
vt 0.805028 0.030806
vt 0.721203 0.008146
vt 0.734555 0.106726
vt 0.741230 0.205307
vt 0.839504 0.292557
vt 0.805028 0.379807
vt 0.876123 0.349065
vt 0.938030 0.277186
vt 0.734555 0.303887
vt 0.721203 0.402467
vt 0.369475 0.299954
vt 0.367890 0.394602
vt 0.489902 0.404581
vt 0.492822 0.304944
vt 0.494283 0.205307
vt 0.370268 0.205307
vt 0.246768 0.205307
vt 0.246397 0.288815
vt 0.245655 0.372324
vt 0.369475 0.110659
vt 0.492822 0.105669
vt 0.489902 0.006032
vt 0.367890 0.016011
vt 0.245655 0.038289
vt 0.246397 0.121798
vt 0.616755 0.103478
vt 0.619174 0.205307
vt 0.611917 0.001649
vt 0.616755 0.307135
vt 0.611917 0.408964
vt 0.123273 0.268175
vt 0.122972 0.331043
vt 0.123423 0.205306
vt 0.000156 0.205306
vt 0.000125 0.242784
vt 0.000064 0.280261
vt 0.123273 0.142438
vt 0.122972 0.079570
vt 0.000064 0.130352
vt 0.000125 0.167829
vt 0.122972 0.331043
vt 0.030806 0.283587
vt 0.245655 0.372324
vt 0.030806 0.283587
vt 0.000125 0.167829
vt 0.030806 0.127026
vt 0.000156 0.205306
vt 0.030806 0.127026
vt 0.805028 0.030806
vt 0.873826 0.071832
vt 0.721203 0.008146
vt 0.873826 0.071832
vt 0.938030 0.277186
vt 0.873826 0.338781
vt 0.968983 0.205307
vt 0.873826 0.338781
vt 0.805028 0.379807
vt 0.721203 0.402467
vt 0.000125 0.242784
vt 0.122972 0.079570
vt 0.245655 0.038289
vt 0.938030 0.133427
vt 0.611917 0.001649
vt 0.489902 0.006032
vt 0.611917 0.408964
vt 0.489902 0.404581
vt 0.367890 0.394602
vt 0.367890 0.016011
f 1/1/1 2/2/2 3/3/3
f 1/1/1 3/3/3 4/4/4
f 1/1/1 4/4/4 5/5/5
f 1/1/1 5/5/5 6/6/6
f 1/1/1 6/6/6 7/7/7
f 1/1/1 7/7/7 8/8/8
f 1/1/1 8/8/8 9/9/9
f 1/1/1 9/9/9 2/2/2
f 10/10/10 11/11/11 12/12/12
f 10/10/10 12/12/12 13/13/13
f 10/10/10 13/13/13 3/3/3
f 10/10/10 3/3/3 2/2/2
f 10/10/10 2/2/2 9/9/9
f 10/10/10 9/9/9 14/14/14
f 10/10/10 14/14/14 15/15/15
f 10/10/10 15/15/15 11/11/11
f 16/16/16 17/17/17 18/18/18
f 16/16/16 18/18/18 19/19/19
f 16/16/16 19/19/19 20/20/20
f 16/16/16 20/20/20 21/21/21
f 16/16/16 21/21/21 22/22/22
f 16/16/16 22/22/22 23/23/23
f 16/16/16 23/23/23 24/24/24
f 16/16/16 24/24/24 17/17/17
f 25/25/25 21/21/21 20/20/20
f 25/25/25 20/20/20 26/26/26
f 25/25/25 26/26/26 27/27/27
f 25/25/25 27/27/27 28/28/28
f 25/25/25 28/28/28 29/29/29
f 25/25/25 29/29/29 30/30/30
f 25/25/25 30/30/30 22/22/22
f 25/25/25 22/22/22 21/21/21
f 31/31/31 32/32/32 22/22/22
f 31/31/31 22/22/22 30/30/30
f 31/31/31 30/30/30 29/29/29
f 31/31/31 29/29/29 33/33/33
f 31/31/31 33/33/33 5/5/5
f 31/31/31 5/5/5 4/4/4
f 31/31/31 4/4/4 3/3/3
f 31/31/31 3/3/3 32/32/32
f 34/34/34 35/35/35 24/24/24
f 34/34/34 24/24/24 23/23/23
f 34/34/34 23/23/23 22/22/22
f 34/34/34 22/22/22 32/32/32
f 34/34/34 32/32/32 3/3/3
f 34/34/34 3/3/3 13/13/13
f 34/34/34 13/13/13 12/12/12
f 34/34/34 12/12/12 35/35/35
f 36/36/36 37/37/37 38/38/38
f 36/36/36 38/38/38 39/39/39
f 36/36/36 39/39/39 40/40/40
f 36/36/36 40/40/40 41/41/41
f 36/36/36 41/41/41 20/20/20
f 36/36/36 20/20/20 19/19/19
f 36/36/36 19/19/19 18/18/18
f 36/36/36 18/18/18 37/37/37
f 42/42/42 41/41/41 40/40/40
f 42/42/42 40/40/40 43/43/43
f 42/42/42 43/43/43 44/44/44
f 42/42/42 44/44/44 45/45/45
f 42/42/42 45/45/45 27/27/27
f 42/42/42 27/27/27 26/26/26
f 42/42/42 26/26/26 20/20/20
f 42/42/42 20/20/20 41/41/41
f 46/46/46 47/47/47 48/48/48
f 46/46/46 48/48/48 49/49/49
f 46/46/46 49/49/49 50/50/50
f 46/46/46 50/50/50 51/51/51
f 46/46/46 51/51/51 52/52/52
f 46/46/46 52/52/52 53/53/53
f 46/46/46 53/53/53 54/54/54
f 46/46/46 54/54/54 47/47/47
f 55/55/55 56/56/56 57/57/57
f 55/55/55 57/57/57 58/58/58
f 55/55/55 58/58/58 48/48/48
f 55/55/55 48/48/48 47/47/47
f 55/55/55 47/47/47 54/54/54
f 55/55/55 54/54/54 59/59/59
f 55/55/55 59/59/59 60/60/60
f 55/55/55 60/60/60 56/56/56
f 61/61/61 62/62/62 63/63/63
f 61/61/61 63/63/63 64/64/64
f 61/61/61 64/64/64 65/65/65
f 61/61/61 65/65/65 66/66/66
f 61/61/61 66/66/66 67/67/67
f 61/61/61 67/67/67 68/68/68
f 61/61/61 68/68/68 69/69/69
f 61/61/61 69/69/69 62/62/62
f 70/70/70 66/66/66 65/65/65
f 70/70/70 65/65/65 71/71/71
f 70/70/70 71/71/71 72/72/72
f 70/70/70 72/72/72 73/73/73
f 70/70/70 73/73/73 74/74/74
f 70/70/70 74/74/74 75/75/75
f 70/70/70 75/75/75 67/67/67
f 70/70/70 67/67/67 66/66/66
f 76/76/76 77/77/77 54/54/54
f 76/76/76 54/54/54 53/53/53
f 76/76/76 53/53/53 52/52/52
f 76/76/76 52/52/52 78/78/78
f 76/76/76 78/78/78 72/72/72
f 76/76/76 72/72/72 71/71/71
f 76/76/76 71/71/71 65/65/65
f 76/76/76 65/65/65 77/77/77
f 79/79/79 80/80/80 60/60/60
f 79/79/79 60/60/60 59/59/59
f 79/79/79 59/59/59 54/54/54
f 79/79/79 54/54/54 77/77/77
f 79/79/79 77/77/77 65/65/65
f 79/79/79 65/65/65 64/64/64
f 79/79/79 64/64/64 63/63/63
f 79/79/79 63/63/63 80/80/80
f 81/81/81 82/82/82 69/69/69
f 81/81/81 69/69/69 68/68/68
f 81/81/81 68/68/68 67/67/67
f 81/81/81 67/67/67 83/83/83
f 81/81/81 83/83/83 84/84/84
f 81/81/81 84/84/84 85/85/85
f 81/81/81 85/85/85 86/86/86
f 81/81/81 86/86/86 82/82/82
f 87/87/87 83/83/83 67/67/67
f 87/87/87 67/67/67 75/75/75
f 87/87/87 75/75/75 74/74/74
f 87/87/87 74/74/74 88/88/88
f 87/87/87 88/88/88 89/89/89
f 87/87/87 89/89/89 90/90/90
f 87/87/87 90/90/90 84/84/84
f 87/87/87 84/84/84 83/83/83
f 91/91/91 92/92/92 38/38/38
f 91/91/91 38/38/38 37/37/37
f 91/91/91 37/37/37 18/18/18
f 91/91/91 18/18/18 93/93/93
f 91/91/91 93/93/93 69/69/69
f 91/91/91 69/69/69 82/82/82
f 91/91/91 82/82/82 94/94/94
f 91/91/91 94/94/94 92/92/92
f 95/95/95 96/96/96 44/44/44
f 95/95/95 44/44/44 43/43/43
f 95/95/95 43/43/43 40/40/40
f 95/95/95 40/40/40 97/97/97
f 95/95/95 97/97/97 84/84/84
f 95/95/95 84/84/84 90/90/90
f 95/95/95 90/90/90 98/98/98
f 95/95/95 98/98/98 96/96/96
f 99/99/99 100/100/100 7/7/7
f 99/99/99 7/7/7 6/6/6
f 99/99/99 6/6/6 5/5/5
f 99/99/99 5/5/5 101/101/101
f 99/99/99 101/101/101 52/52/52
f 99/99/99 52/52/52 51/51/51
f 99/99/99 51/51/51 102/102/102
f 99/99/99 102/102/102 100/100/100
f 103/103/103 104/104/104 15/15/15
f 103/103/103 15/15/15 14/14/14
f 103/103/103 14/14/14 9/9/9
f 103/103/103 9/9/9 105/105/105
f 103/103/103 105/105/105 48/48/48
f 103/103/103 48/48/48 58/58/58
f 103/103/103 58/58/58 106/106/106
f 103/103/103 106/106/106 104/104/104
f 107/107/107 108/108/108 12/12/12
f 107/107/107 12/12/12 11/11/11
f 107/107/107 11/11/11 15/15/15
f 107/107/107 15/15/15 104/104/104
f 107/107/107 104/104/104 106/106/106
f 107/107/107 106/106/106 56/56/56
f 107/107/107 56/56/56 60/60/60
f 107/107/107 60/60/60 108/108/108
f 109/109/109 97/97/97 40/40/40
f 109/109/109 40/40/40 39/39/39
f 109/109/109 39/39/39 38/38/38
f 109/109/109 38/38/38 92/92/92
f 109/109/109 92/92/92 94/94/94
f 109/109/109 94/94/94 85/85/85
f 109/109/109 85/85/85 84/84/84
f 109/109/109 84/84/84 97/97/97
f 110/110/110 111/111/111 27/27/27
f 110/110/110 27/27/27 45/45/45
f 110/110/110 45/45/45 44/44/44
f 110/110/110 44/44/44 96/96/96
f 110/110/110 96/96/96 98/98/98
f 110/110/110 98/98/98 88/88/88
f 110/110/110 88/88/88 74/74/74
f 110/110/110 74/74/74 111/111/111
f 112/112/112 105/105/105 9/9/9
f 112/112/112 9/9/9 8/8/8
f 112/112/112 8/8/8 7/7/7
f 112/112/112 7/7/7 100/100/100
f 112/112/112 100/100/100 102/102/102
f 112/112/112 102/102/102 49/49/49
f 112/112/112 49/49/49 48/48/48
f 112/112/112 48/48/48 105/105/105
f 113/113/113 101/101/101 5/5/5
f 113/113/113 5/5/5 33/33/33
f 113/113/113 33/33/33 29/29/29
f 113/113/113 29/29/29 114/114/114
f 113/113/113 114/114/114 72/72/72
f 113/113/113 72/72/72 78/78/78
f 113/113/113 78/78/78 52/52/52
f 113/113/113 52/52/52 101/101/101
f 115/115/115 116/116/116 24/24/24
f 115/115/115 24/24/24 35/35/35
f 115/115/115 35/35/35 12/12/12
f 115/115/115 12/12/12 108/108/108
f 115/115/115 108/108/108 60/60/60
f 115/115/115 60/60/60 80/80/80
f 115/115/115 80/80/80 63/63/63
f 115/115/115 63/63/63 116/116/116
f 117/117/117 93/93/93 18/18/18
f 117/117/117 18/18/18 17/17/17
f 117/117/117 17/17/17 24/24/24
f 117/117/117 24/24/24 116/116/116
f 117/117/117 116/116/116 63/63/63
f 117/117/117 63/63/63 62/62/62
f 117/117/117 62/62/62 69/69/69
f 117/117/117 69/69/69 93/93/93
f 118/118/118 114/114/114 29/29/29
f 118/118/118 29/29/29 28/28/28
f 118/118/118 28/28/28 27/27/27
f 118/118/118 27/27/27 111/111/111
f 118/118/118 111/111/111 74/74/74
f 118/118/118 74/74/74 73/73/73
f 118/118/118 73/73/73 72/72/72
f 118/118/118 72/72/72 114/114/114
