v -2.311673 0.771768 -1.214827
v -2.309104 0.771402 -1.214684
v -2.310009 0.769101 -1.217103
v -2.312828 0.769718 -1.216949
v -2.314996 0.770255 -1.217117
v -2.313715 0.771972 -1.21539
v -2.312464 0.772763 -1.214211
v -2.310762 0.773103 -1.213248
v -2.308439 0.773001 -1.212828
v -2.306821 0.770907 -1.215823
v -2.305207 0.770462 -1.217137
v -2.30533 0.76854 -1.219101
v -2.307314 0.768739 -1.218081
v -2.306562 0.772358 -1.21411
v -2.305574 0.77154 -1.215626
v -2.310137 0.760276 -1.224225
v -2.308134 0.760039 -1.224892
v -2.309576 0.756934 -1.226373
v -2.311346 0.757138 -1.225768
v -2.313714 0.757474 -1.2251
v -2.312817 0.76066 -1.223485
v -2.311901 0.763705 -1.221657
v -2.309099 0.763318 -1.222451
v -2.307007 0.763093 -1.223182
v -2.31554 0.761234 -1.223116
v -2.316123 0.757986 -1.224787
v -2.317949 0.75842 -1.224655
v -2.317601 0.761719 -1.222949
v -2.31691 0.76485 -1.221149
v -2.314751 0.764321 -1.221291
v -2.31385 0.767192 -1.21917
v -2.310953 0.766527 -1.219479
v -2.316051 0.767788 -1.219121
v -2.308116 0.766174 -1.220347
v -2.306001 0.766005 -1.221184
v -2.312844 0.753996 -1.227179
v -2.311528 0.753869 -1.227686
v -2.31294 0.752166 -1.228238
v -2.314069 0.75162 -1.228159
v -2.31527 0.751752 -1.227734
v -2.314606 0.754227 -1.226639
v -2.316409 0.754628 -1.226447
v -2.316512 0.752054 -1.227657
v -2.317336 0.752947 -1.227335
v -2.31778 0.754978 -1.226402
v -2.311703 0.771586 -1.214628
v -2.309098 0.771211 -1.21449
v -2.308436 0.772856 -1.212686
v -2.310787 0.772965 -1.213101
v -2.312491 0.772663 -1.214101
v -2.313756 0.771841 -1.215239
v -2.315029 0.770128 -1.21696
v -2.312852 0.769542 -1.216743
v -2.31 0.768918 -1.216903
v -2.306779 0.770712 -1.215639
v -2.305157 0.770315 -1.217004
v -2.305542 0.77143 -1.215527
v -2.30653 0.772209 -1.213975
v -2.307273 0.768552 -1.217888
v -2.305283 0.768399 -1.218961
v -2.310091 0.760129 -1.224
v -2.308089 0.759927 -1.224726
v -2.306963 0.762972 -1.223023
v -2.309057 0.763158 -1.222235
v -2.311883 0.763549 -1.221434
v -2.312795 0.760517 -1.223254
v -2.313689 0.75734 -1.224864
v -2.311297 0.757 -1.225537
v -2.309528 0.756829 -1.226204
v -2.315541 0.761096 -1.222881
v -2.314758 0.76417 -1.221064
v -2.316927 0.76474 -1.220978
v -2.317614 0.761617 -1.222771
v -2.31796 0.758325 -1.224473
v -2.316122 0.757856 -1.224547
v -2.313865 0.767028 -1.218954
v -2.31094 0.766357 -1.219267
v -2.316076 0.767669 -1.218957
v -2.308074 0.766 -1.220142
v -2.305956 0.765873 -1.221034
v -2.312793 0.753861 -1.226946
v -2.311477 0.753766 -1.227515
v -2.31458 0.754096 -1.2264
v -2.31525 0.751655 -1.227555
v -2.314029 0.75152 -1.227985
v -2.312905 0.752091 -1.22811
v -2.316409 0.754503 -1.226204
v -2.317793 0.754887 -1.226219
v -2.317342 0.752878 -1.2272
v -2.316513 0.75196 -1.227475
v -2.311064 0.753781 -1.22778
v -2.313109 0.751525 -1.228532
v -2.308963 0.756819 -1.2265
v -2.312905 0.752091 -1.22811
v -2.316547 0.751154 -1.227979
v -2.317514 0.752307 -1.227628
v -2.315482 0.750884 -1.22802
v -2.317342 0.752878 -1.2272
v -2.314419 0.771983 -1.21551
v -2.312708 0.772951 -1.214085
v -2.315737 0.770379 -1.217102
v -2.312491 0.772663 -1.214101
v -2.306461 0.772775 -1.21348
v -2.305253 0.771628 -1.215616
v -2.308217 0.773469 -1.212147
v -2.305542 0.77143 -1.215527
v -2.304643 0.770248 -1.217517
v -2.304644 0.76841 -1.219379
v -2.314459 0.750784 -1.228408
v -2.318246 0.755055 -1.226306
v -2.318565 0.758523 -1.224529
v -2.31047 0.773487 -1.212657
v -2.316799 0.767935 -1.219031
v -2.31764 0.764978 -1.221025
v -2.305273 0.76589 -1.221397
v -2.306287 0.762964 -1.223356
v -2.307444 0.75991 -1.225041
v -2.318296 0.761836 -1.222814
vn 0.1964 0.6705 -0.7154
vn -0.0072 0.7389 -0.6738
vn -0.0228 0.6985 -0.7152
vn 0.1585 0.6365 -0.7548
vn 0.1429 0.6213 -0.7704
vn 0.1886 0.6729 -0.7153
vn 0.2194 0.7065 -0.6728
vn 0.1824 0.7418 -0.6453
vn 0.0172 0.7965 -0.6044
vn -0.2215 0.7446 -0.6297
vn -0.2139 0.7443 -0.6326
vn -0.2126 0.6843 -0.6975
vn -0.215 0.7028 -0.6781
vn -0.1589 0.8024 -0.5753
vn -0.2131 0.7833 -0.584
vn -0.1921 0.5171 -0.834
vn -0.1588 0.5053 -0.8482
vn -0.1638 0.4771 -0.8634
vn -0.2077 0.4896 -0.8468
vn -0.0983 0.4642 -0.8802
vn -0.0879 0.5008 -0.8611
vn -0.0665 0.5715 -0.8179
vn -0.1856 0.5818 -0.7919
vn -0.1641 0.5646 -0.8088
vn 0.0177 0.4799 -0.8771
vn 0.0173 0.4497 -0.893
vn -0.031 0.4536 -0.8906
vn -0.0203 0.4808 -0.8766
vn 0.019 0.5322 -0.8464
vn 0.0497 0.54 -0.8402
vn 0.1025 0.5988 -0.7943
vn -0.0423 0.6447 -0.7633
vn 0.0795 0.583 -0.8086
vn -0.1942 0.6514 -0.7334
vn -0.1851 0.6299 -0.7543
vn -0.2355 0.4801 -0.845
vn -0.1899 0.4633 -0.8656
vn -0.2243 0.4523 -0.8632
vn -0.2697 0.432 -0.8606
vn -0.1167 0.3962 -0.9107
vn -0.1032 0.4466 -0.8887
vn 0.0388 0.4314 -0.9013
vn 0.0464 0.376 -0.9254
vn 0.013 0.4101 -0.9119
vn -0.0139 0.432 -0.9017
vn -0.2166 -0.6453 0.7326
vn 0.0115 -0.728 0.6854
vn 0.0281 -0.6842 0.7287
vn -0.2771 -0.5665 0.7761
vn -0.376 -0.4955 0.783
vn -0.3569 -0.5141 0.7799
vn -0.2927 -0.5432 0.7869
vn -0.1727 -0.6307 0.7566
vn 0.0228 -0.6986 0.7151
vn 0.2538 -0.7287 0.636
vn 0.4362 -0.6549 0.6171
vn 0.4599 -0.644 0.6113
vn 0.3486 -0.6777 0.6475
vn 0.2299 -0.7021 0.6739
vn 0.374 -0.6615 0.65
vn 0.2071 -0.52 0.8286
vn 0.3099 -0.5371 0.7845
vn 0.3071 -0.5816 0.7533
vn 0.1998 -0.5835 0.7871
vn 0.0665 -0.5714 0.818
vn 0.0879 -0.5006 0.8612
vn 0.0984 -0.464 0.8803
vn 0.2247 -0.4947 0.8395
vn 0.3332 -0.5363 0.7755
vn -0.0338 -0.4773 0.8781
vn -0.0643 -0.5366 0.8413
vn -0.1693 -0.497 0.851
vn -0.1448 -0.4564 0.8779
vn -0.1682 -0.4473 0.8784
vn -0.0364 -0.4483 0.8931
vn -0.1165 -0.5947 0.7954
vn 0.0423 -0.6447 0.7633
vn -0.2247 -0.535 0.8144
vn 0.2081 -0.6523 0.7288
vn 0.3285 -0.6332 0.7008
vn 0.2548 -0.4998 0.8278
vn 0.3735 -0.5668 0.7343
vn 0.1002 -0.4573 0.8836
vn 0.0871 -0.5033 0.8596
vn 0.3046 -0.5651 0.7667
vn 0.395 -0.5888 0.7052
vn -0.0685 -0.4425 0.8941
vn -0.2289 -0.4598 0.858
vn -0.2659 -0.4714 0.8408
vn -0.1564 -0.4834 0.8613
vn 0.7651 -0.3823 -0.518
vn 0.452 -0.6229 -0.6384
vn 0.8545 -0.2856 -0.4339
vn 0.395 -0.5888 0.7052
vn -0.4673 -0.7876 -0.4015
vn -0.8401 -0.3935 -0.3732
vn -0.2288 -0.9201 -0.318
vn -0.2659 -0.4714 0.8408
vn -0.7819 0.6013 0.1643
vn -0.564 0.7464 0.3531
vn -0.891 0.4489 0.0669
vn -0.376 -0.4955 0.783
vn 0.7008 0.5441 0.4612
vn 0.8686 0.4919 0.0589
vn 0.2616 0.5991 0.7566
vn 0.4599 -0.644 0.6113
vn 0.9363 0.2959 -0.1889
vn 0.9427 0.123 -0.3101
vn -0.0108 -0.8687 -0.4952
vn -0.9847 -0.0715 -0.1588
vn -0.9976 0.0434 -0.0536
vn -0.2484 0.7126 0.656
vn -0.9474 0.3193 0.0222
vn -0.9716 0.2365 0.011
vn 0.9315 -0.0142 -0.3635
vn 0.9207 -0.0993 -0.3773
vn 0.9033 -0.1829 -0.3879
vn -0.9882 0.153 0.0005
vt 0.839504 0.118056
vt 0.856743 0.205307
vt 0.741230 0.205307
vt 0.734555 0.106726
vt 0.724541 0.032791
vt 0.813647 0.052618
vt 0.868992 0.081539
vt 0.913398 0.129584
vt 0.940923 0.205307
vt 0.839504 0.292557
vt 0.813647 0.357995
vt 0.724541 0.377822
vt 0.734555 0.303887
vt 0.913398 0.281029
vt 0.868992 0.329074
vt 0.369475 0.299954
vt 0.368286 0.370940
vt 0.245840 0.351447
vt 0.246397 0.288815
vt 0.246768 0.205307
vt 0.370268 0.205307
vt 0.494283 0.205307
vt 0.492822 0.304944
vt 0.490632 0.379672
vt 0.369475 0.110659
vt 0.246397 0.121798
vt 0.245841 0.059166
vt 0.368286 0.039673
vt 0.490632 0.030941
vt 0.492822 0.105669
vt 0.616755 0.103478
vt 0.619174 0.205307
vt 0.613127 0.027106
vt 0.616755 0.307135
vt 0.613126 0.383507
vt 0.123273 0.268175
vt 0.123047 0.315326
vt 0.054743 0.283353
vt 0.030912 0.249131
vt 0.030973 0.205306
vt 0.123423 0.205306
vt 0.123273 0.142438
vt 0.030912 0.161481
vt 0.054744 0.127260
vt 0.123047 0.095287
vt 0.839504 0.118056
vt 0.856743 0.205307
vt 0.968983 0.205307
vt 0.938030 0.133427
vt 0.876123 0.061548
vt 0.805028 0.030806
vt 0.721203 0.008146
vt 0.734555 0.106726
vt 0.741230 0.205307
vt 0.839504 0.292557
vt 0.805028 0.379807
vt 0.876123 0.349065
vt 0.938030 0.277186
vt 0.734555 0.303887
vt 0.721203 0.402467
vt 0.369475 0.299954
vt 0.367890 0.394602
vt 0.489902 0.404581
vt 0.492822 0.304944
vt 0.494283 0.205307
vt 0.370268 0.205307
vt 0.246768 0.205307
vt 0.246397 0.288815
vt 0.245655 0.372324
vt 0.369475 0.110659
vt 0.492822 0.105669
vt 0.489902 0.006032
vt 0.367890 0.016011
vt 0.245655 0.038289
vt 0.246397 0.121798
vt 0.616755 0.103478
vt 0.619174 0.205307
vt 0.611917 0.001649
vt 0.616755 0.307135
vt 0.611917 0.408964
vt 0.123273 0.268175
vt 0.122972 0.331043
vt 0.123423 0.205306
vt 0.000156 0.205306
vt 0.000125 0.242784
vt 0.000064 0.280261
vt 0.123273 0.142438
vt 0.122972 0.079570
vt 0.000064 0.130352
vt 0.000125 0.167829
vt 0.122972 0.331043
vt 0.030806 0.283587
vt 0.245655 0.372324
vt 0.030806 0.283587
vt 0.000125 0.167829
vt 0.030806 0.127026
vt 0.000156 0.205306
vt 0.030806 0.127026
vt 0.805028 0.030806
vt 0.873826 0.071832
vt 0.721203 0.008146
vt 0.873826 0.071832
vt 0.938030 0.277186
vt 0.873826 0.338781
vt 0.968983 0.205307
vt 0.873826 0.338781
vt 0.805028 0.379807
vt 0.721203 0.402467
vt 0.000125 0.242784
vt 0.122972 0.079570
vt 0.245655 0.038289
vt 0.938030 0.133427
vt 0.611917 0.001649
vt 0.489902 0.006032
vt 0.611917 0.408964
vt 0.489902 0.404581
vt 0.367890 0.394602
vt 0.367890 0.016011
f 1/1/1 2/2/2 3/3/3
f 1/1/1 3/3/3 4/4/4
f 1/1/1 4/4/4 5/5/5
f 1/1/1 5/5/5 6/6/6
f 1/1/1 6/6/6 7/7/7
f 1/1/1 7/7/7 8/8/8
f 1/1/1 8/8/8 9/9/9
f 1/1/1 9/9/9 2/2/2
f 10/10/10 11/11/11 12/12/12
f 10/10/10 12/12/12 13/13/13
f 10/10/10 13/13/13 3/3/3
f 10/10/10 3/3/3 2/2/2
f 10/10/10 2/2/2 9/9/9
f 10/10/10 9/9/9 14/14/14
f 10/10/10 14/14/14 15/15/15
f 10/10/10 15/15/15 11/11/11
f 16/16/16 17/17/17 18/18/18
f 16/16/16 18/18/18 19/19/19
f 16/16/16 19/19/19 20/20/20
f 16/16/16 20/20/20 21/21/21
f 16/16/16 21/21/21 22/22/22
f 16/16/16 22/22/22 23/23/23
f 16/16/16 23/23/23 24/24/24
f 16/16/16 24/24/24 17/17/17
f 25/25/25 21/21/21 20/20/20
f 25/25/25 20/20/20 26/26/26
f 25/25/25 26/26/26 27/27/27
f 25/25/25 27/27/27 28/28/28
f 25/25/25 28/28/28 29/29/29
f 25/25/25 29/29/29 30/30/30
f 25/25/25 30/30/30 22/22/22
f 25/25/25 22/22/22 21/21/21
f 31/31/31 32/32/32 22/22/22
f 31/31/31 22/22/22 30/30/30
f 31/31/31 30/30/30 29/29/29
f 31/31/31 29/29/29 33/33/33
f 31/31/31 33/33/33 5/5/5
f 31/31/31 5/5/5 4/4/4
f 31/31/31 4/4/4 3/3/3
f 31/31/31 3/3/3 32/32/32
f 34/34/34 35/35/35 24/24/24
f 34/34/34 24/24/24 23/23/23
f 34/34/34 23/23/23 22/22/22
f 34/34/34 22/22/22 32/32/32
f 34/34/34 32/32/32 3/3/3
f 34/34/34 3/3/3 13/13/13
f 34/34/34 13/13/13 12/12/12
f 34/34/34 12/12/12 35/35/35
f 36/36/36 37/37/37 38/38/38
f 36/36/36 38/38/38 39/39/39
f 36/36/36 39/39/39 40/40/40
f 36/36/36 40/40/40 41/41/41
f 36/36/36 41/41/41 20/20/20
f 36/36/36 20/20/20 19/19/19
f 36/36/36 19/19/19 18/18/18
f 36/36/36 18/18/18 37/37/37
f 42/42/42 41/41/41 40/40/40
f 42/42/42 40/40/40 43/43/43
f 42/42/42 43/43/43 44/44/44
f 42/42/42 44/44/44 45/45/45
f 42/42/42 45/45/45 27/27/27
f 42/42/42 27/27/27 26/26/26
f 42/42/42 26/26/26 20/20/20
f 42/42/42 20/20/20 41/41/41
f 46/46/46 47/47/47 48/48/48
f 46/46/46 48/48/48 49/49/49
f 46/46/46 49/49/49 50/50/50
f 46/46/46 50/50/50 51/51/51
f 46/46/46 51/51/51 52/52/52
f 46/46/46 52/52/52 53/53/53
f 46/46/46 53/53/53 54/54/54
f 46/46/46 54/54/54 47/47/47
f 55/55/55 56/56/56 57/57/57
f 55/55/55 57/57/57 58/58/58
f 55/55/55 58/58/58 48/48/48
f 55/55/55 48/48/48 47/47/47
f 55/55/55 47/47/47 54/54/54
f 55/55/55 54/54/54 59/59/59
f 55/55/55 59/59/59 60/60/60
f 55/55/55 60/60/60 56/56/56
f 61/61/61 62/62/62 63/63/63
f 61/61/61 63/63/63 64/64/64
f 61/61/61 64/64/64 65/65/65
f 61/61/61 65/65/65 66/66/66
f 61/61/61 66/66/66 67/67/67
f 61/61/61 67/67/67 68/68/68
f 61/61/61 68/68/68 69/69/69
f 61/61/61 69/69/69 62/62/62
f 70/70/70 66/66/66 65/65/65
f 70/70/70 65/65/65 71/71/71
f 70/70/70 71/71/71 72/72/72
f 70/70/70 72/72/72 73/73/73
f 70/70/70 73/73/73 74/74/74
f 70/70/70 74/74/74 75/75/75
f 70/70/70 75/75/75 67/67/67
f 70/70/70 67/67/67 66/66/66
f 76/76/76 77/77/77 54/54/54
f 76/76/76 54/54/54 53/53/53
f 76/76/76 53/53/53 52/52/52
f 76/76/76 52/52/52 78/78/78
f 76/76/76 78/78/78 72/72/72
f 76/76/76 72/72/72 71/71/71
f 76/76/76 71/71/71 65/65/65
f 76/76/76 65/65/65 77/77/77
f 79/79/79 80/80/80 60/60/60
f 79/79/79 60/60/60 59/59/59
f 79/79/79 59/59/59 54/54/54
f 79/79/79 54/54/54 77/77/77
f 79/79/79 77/77/77 65/65/65
f 79/79/79 65/65/65 64/64/64
f 79/79/79 64/64/64 63/63/63
f 79/79/79 63/63/63 80/80/80
f 81/81/81 82/82/82 69/69/69
f 81/81/81 69/69/69 68/68/68
f 81/81/81 68/68/68 67/67/67
f 81/81/81 67/67/67 83/83/83
f 81/81/81 83/83/83 84/84/84
f 81/81/81 84/84/84 85/85/85
f 81/81/81 85/85/85 86/86/86
f 81/81/81 86/86/86 82/82/82
f 87/87/87 83/83/83 67/67/67
f 87/87/87 67/67/67 75/75/75
f 87/87/87 75/75/75 74/74/74
f 87/87/87 74/74/74 88/88/88
f 87/87/87 88/88/88 89/89/89
f 87/87/87 89/89/89 90/90/90
f 87/87/87 90/90/90 84/84/84
f 87/87/87 84/84/84 83/83/83
f 91/91/91 92/92/92 38/38/38
f 91/91/91 38/38/38 37/37/37
f 91/91/91 37/37/37 18/18/18
f 91/91/91 18/18/18 93/93/93
f 91/91/91 93/93/93 69/69/69
f 91/91/91 69/69/69 82/82/82
f 91/91/91 82/82/82 94/94/94
f 91/91/91 94/94/94 92/92/92
f 95/95/95 96/96/96 44/44/44
f 95/95/95 44/44/44 43/43/43
f 95/95/95 43/43/43 40/40/40
f 95/95/95 40/40/40 97/97/97
f 95/95/95 97/97/97 84/84/84
f 95/95/95 84/84/84 90/90/90
f 95/95/95 90/90/90 98/98/98
f 95/95/95 98/98/98 96/96/96
f 99/99/99 100/100/100 7/7/7
f 99/99/99 7/7/7 6/6/6
f 99/99/99 6/6/6 5/5/5
f 99/99/99 5/5/5 101/101/101
f 99/99/99 101/101/101 52/52/52
f 99/99/99 52/52/52 51/51/51
f 99/99/99 51/51/51 102/102/102
f 99/99/99 102/102/102 100/100/100
f 103/103/103 104/104/104 15/15/15
f 103/103/103 15/15/15 14/14/14
f 103/103/103 14/14/14 9/9/9
f 103/103/103 9/9/9 105/105/105
f 103/103/103 105/105/105 48/48/48
f 103/103/103 48/48/48 58/58/58
f 103/103/103 58/58/58 106/106/106
f 103/103/103 106/106/106 104/104/104
f 107/107/107 108/108/108 12/12/12
f 107/107/107 12/12/12 11/11/11
f 107/107/107 11/11/11 15/15/15
f 107/107/107 15/15/15 104/104/104
f 107/107/107 104/104/104 106/106/106
f 107/107/107 106/106/106 56/56/56
f 107/107/107 56/56/56 60/60/60
f 107/107/107 60/60/60 108/108/108
f 109/109/109 97/97/97 40/40/40
f 109/109/109 40/40/40 39/39/39
f 109/109/109 39/39/39 38/38/38
f 109/109/109 38/38/38 92/92/92
f 109/109/109 92/92/92 94/94/94
f 109/109/109 94/94/94 85/85/85
f 109/109/109 85/85/85 84/84/84
f 109/109/109 84/84/84 97/97/97
f 110/110/110 111/111/111 27/27/27
f 110/110/110 27/27/27 45/45/45
f 110/110/110 45/45/45 44/44/44
f 110/110/110 44/44/44 96/96/96
f 110/110/110 96/96/96 98/98/98
f 110/110/110 98/98/98 88/88/88
f 110/110/110 88/88/88 74/74/74
f 110/110/110 74/74/74 111/111/111
f 112/112/112 105/105/105 9/9/9
f 112/112/112 9/9/9 8/8/8
f 112/112/112 8/8/8 7/7/7
f 112/112/112 7/7/7 100/100/100
f 112/112/112 100/100/100 102/102/102
f 112/112/112 102/102/102 49/49/49
f 112/112/112 49/49/49 48/48/48
f 112/112/112 48/48/48 105/105/105
f 113/113/113 101/101/101 5/5/5
f 113/113/113 5/5/5 33/33/33
f 113/113/113 33/33/33 29/29/29
f 113/113/113 29/29/29 114/114/114
f 113/113/113 114/114/114 72/72/72
f 113/113/113 72/72/72 78/78/78
f 113/113/113 78/78/78 52/52/52
f 113/113/113 52/52/52 101/101/101
f 115/115/115 116/116/116 24/24/24
f 115/115/115 24/24/24 35/35/35
f 115/115/115 35/35/35 12/12/12
f 115/115/115 12/12/12 108/108/108
f 115/115/115 108/108/108 60/60/60
f 115/115/115 60/60/60 80/80/80
f 115/115/115 80/80/80 63/63/63
f 115/115/115 63/63/63 116/116/116
f 117/117/117 93/93/93 18/18/18
f 117/117/117 18/18/18 17/17/17
f 117/117/117 17/17/17 24/24/24
f 117/117/117 24/24/24 116/116/116
f 117/117/117 116/116/116 63/63/63
f 117/117/117 63/63/63 62/62/62
f 117/117/117 62/62/62 69/69/69
f 117/117/117 69/69/69 93/93/93
f 118/118/118 114/114/114 29/29/29
f 118/118/118 29/29/29 28/28/28
f 118/118/118 28/28/28 27/27/27
f 118/118/118 27/27/27 111/111/111
f 118/118/118 111/111/111 74/74/74
f 118/118/118 74/74/74 73/73/73
f 118/118/118 73/73/73 72/72/72
f 118/118/118 72/72/72 114/114/114
