v -2.368121 0.801799 -1.160801
v -2.366787 0.80212 -1.159018
v -2.365237 0.800089 -1.160582
v -2.366947 0.799903 -1.162398
v -2.368086 0.799824 -1.163965
v -2.36887 0.80149 -1.162456
v -2.369134 0.802405 -1.161122
v -2.368931 0.803066 -1.159548
v -2.367959 0.803533 -1.157811
v -2.364734 0.802316 -1.158116
v -2.362931 0.802397 -1.157748
v -2.361339 0.800853 -1.158618
v -2.363098 0.80049 -1.159347
v -2.366 0.803513 -1.157225
v -2.364324 0.803139 -1.15731
v -2.358946 0.793031 -1.163231
v -2.357402 0.793353 -1.162285
v -2.356603 0.790485 -1.163537
v -2.357977 0.790196 -1.164362
v -2.359734 0.789866 -1.165557
v -2.360925 0.792662 -1.164592
v -2.36222 0.795337 -1.163473
v -2.36014 0.795735 -1.162064
v -2.358509 0.796092 -1.161099
v -2.362718 0.792455 -1.16622
v -2.361312 0.789687 -1.167006
v -2.362448 0.789594 -1.168169
v -2.364011 0.792345 -1.167523
v -2.365422 0.795037 -1.166578
v -2.364085 0.795134 -1.165191
v -2.365549 0.797649 -1.163889
v -2.363686 0.79782 -1.162102
v -2.366858 0.797601 -1.165366
v -2.361546 0.798259 -1.160716
v -2.359843 0.798672 -1.159805
v -2.357247 0.78728 -1.165604
v -2.356192 0.787518 -1.165026
v -2.356255 0.785783 -1.165963
v -2.356801 0.78505 -1.166553
v -2.357741 0.784847 -1.167105
v -2.358579 0.787018 -1.166466
v -2.359736 0.7869 -1.167577
v -2.358506 0.78479 -1.167905
v -2.359323 0.785315 -1.168396
v -2.360557 0.786853 -1.168486
v -2.368234 0.801632 -1.160679
v -2.366875 0.801955 -1.158875
v -2.368023 0.803407 -1.157706
v -2.369015 0.802938 -1.15946
v -2.369201 0.802311 -1.161061
v -2.368966 0.801365 -1.162376
v -2.368183 0.799704 -1.163879
v -2.367062 0.799743 -1.162269
v -2.36533 0.799931 -1.160434
v -2.364797 0.802157 -1.157954
v -2.362964 0.802281 -1.157618
v -2.364351 0.803051 -1.157216
v -2.366043 0.803392 -1.157104
v -2.363168 0.800337 -1.159183
v -2.36138 0.800742 -1.158486
v -2.359043 0.792911 -1.163051
v -2.357466 0.793265 -1.162145
v -2.358568 0.795996 -1.160962
v -2.36023 0.795605 -1.161889
v -2.362328 0.795203 -1.163312
v -2.361039 0.792539 -1.164425
v -2.359851 0.789751 -1.165387
v -2.358078 0.790083 -1.16418
v -2.35667 0.790403 -1.163394
v -2.362847 0.79233 -1.166067
v -2.36421 0.794998 -1.165044
v -2.365523 0.794935 -1.166475
v -2.364115 0.79225 -1.167415
v -2.362556 0.789505 -1.168059
v -2.361445 0.78957 -1.166849
v -2.365668 0.7975 -1.163751
v -2.363786 0.797673 -1.161947
v -2.366957 0.79749 -1.165271
v -2.361626 0.798117 -1.160547
v -2.359893 0.798567 -1.159671
v -2.357347 0.787171 -1.165419
v -2.356259 0.787439 -1.164881
v -2.358697 0.786906 -1.166295
v -2.35783 0.784764 -1.166977
v -2.356876 0.784969 -1.166414
v -2.356306 0.785724 -1.165858
v -2.359871 0.786786 -1.16742
v -2.360667 0.786766 -1.168376
v -2.359403 0.785251 -1.168313
v -2.358609 0.784705 -1.167788
v -2.355868 0.787563 -1.164768
v -2.356029 0.785222 -1.166133
v -2.356173 0.790546 -1.163197
v -2.356306 0.785724 -1.165858
v -2.358142 0.784049 -1.167963
v -2.359104 0.784753 -1.168571
v -2.357502 0.784087 -1.167261
v -2.359403 0.785251 -1.168313
v -2.369165 0.801332 -1.162975
v -2.369381 0.802496 -1.161238
v -2.368511 0.799744 -1.164451
v -2.369201 0.802311 -1.161061
v -2.36644 0.803858 -1.156874
v -2.364177 0.80329 -1.157113
v -2.368378 0.803948 -1.157362
v -2.364351 0.803051 -1.157216
v -2.362341 0.802373 -1.157566
v -2.360768 0.800925 -1.158314
v -2.356685 0.784271 -1.166808
v -2.360881 0.786798 -1.168741
v -2.362876 0.789523 -1.16851
v -2.369238 0.803431 -1.159092
v -2.367341 0.797536 -1.165817
v -2.365914 0.794959 -1.166996
v -2.359296 0.798763 -1.15944
v -2.35799 0.796168 -1.160715
v -2.356914 0.793422 -1.161906
v -2.36449 0.792266 -1.167911
vn 0.5178 0.7317 -0.4431
vn 0.3467 0.7376 -0.5794
vn 0.3775 0.6965 -0.6102
vn 0.532 0.6904 -0.4902
vn 0.5377 0.6721 -0.509
vn 0.5126 0.7317 -0.4492
vn 0.4916 0.7708 -0.4053
vn 0.4402 0.7928 -0.4214
vn 0.2963 0.7964 -0.5271
vn 0.1809 0.6804 -0.7102
vn 0.1879 0.6821 -0.7066
vn 0.251 0.6283 -0.7363
vn 0.2308 0.6444 -0.729
vn 0.1652 0.7507 -0.6396
vn 0.1429 0.7175 -0.6818
vn 0.404 0.4805 -0.7784
vn 0.4377 0.4792 -0.7607
vn 0.4524 0.4516 -0.769
vn 0.4101 0.4502 -0.7931
vn 0.5081 0.4584 -0.7291
vn 0.4919 0.4955 -0.7159
vn 0.4566 0.5673 -0.6853
vn 0.3617 0.5421 -0.7584
vn 0.3916 0.5327 -0.7502
vn 0.5732 0.5062 -0.6443
vn 0.5916 0.4779 -0.6493
vn 0.5594 0.4678 -0.6842
vn 0.5493 0.4963 -0.6722
vn 0.5391 0.5552 -0.6333
vn 0.5515 0.5711 -0.608
vn 0.536 0.6402 -0.5502
vn 0.4139 0.6417 -0.6457
vn 0.5362 0.6192 -0.5736
vn 0.2968 0.6037 -0.7399
vn 0.323 0.5867 -0.7426
vn 0.3939 0.4331 -0.8107
vn 0.441 0.431 -0.7872
vn 0.4206 0.4106 -0.809
vn 0.3952 0.3783 -0.837
vn 0.5348 0.3896 -0.7497
vn 0.5154 0.4406 -0.735
vn 0.6151 0.4669 -0.6353
vn 0.6502 0.4172 -0.635
vn 0.6118 0.4398 -0.6574
vn 0.5829 0.4526 -0.6748
vn -0.5488 -0.7141 0.4346
vn -0.3553 -0.7266 0.5881
vn -0.3876 -0.6819 0.6202
vn -0.6358 -0.6581 0.4033
vn -0.7171 -0.6184 0.3216
vn -0.6992 -0.6304 0.3372
vn -0.6589 -0.6405 0.3945
vn -0.5433 -0.6888 0.4799
vn -0.3774 -0.6966 0.6102
vn -0.1695 -0.6562 0.7353
vn -0.0597 -0.5328 0.8441
vn -0.0432 -0.5152 0.856
vn -0.1314 -0.5809 0.8032
vn -0.2188 -0.6393 0.7371
vn -0.1213 -0.5584 0.8206
vn -0.3901 -0.4787 0.7866
vn -0.29 -0.4639 0.8371
vn -0.2581 -0.5057 0.8231
vn -0.349 -0.5396 0.7661
vn -0.4567 -0.5672 0.6853
vn -0.4919 -0.4954 0.7159
vn -0.5081 -0.4583 0.7292
vn -0.3931 -0.4499 0.8018
vn -0.269 -0.4561 0.8483
vn -0.5843 -0.5083 0.6326
vn -0.5621 -0.5721 0.5972
vn -0.6422 -0.5644 0.5187
vn -0.6566 -0.5199 0.5464
vn -0.6733 -0.5177 0.5278
vn -0.6037 -0.482 0.6349
vn -0.5464 -0.6403 0.5398
vn -0.4139 -0.6417 0.6456
vn -0.64 -0.6147 0.461
vn -0.2846 -0.6004 0.7473
vn -0.1939 -0.5466 0.8146
vn -0.3647 -0.4458 0.8174
vn -0.2063 -0.4718 0.8572
vn -0.5109 -0.4515 0.7315
vn -0.4906 -0.4982 0.7149
vn -0.2735 -0.4913 0.8269
vn -0.1662 -0.4854 0.8584
vn -0.6254 -0.4856 0.6108
vn -0.692 -0.546 0.4722
vn -0.699 -0.5669 0.4359
vn -0.6452 -0.5481 0.5322
vn 0.9453 -0.1246 0.3014
vn 0.8983 -0.4378 0.0371
vn 0.9148 -0.011 0.4037
vn -0.1662 -0.4854 0.8584
vn 0.1923 -0.8679 -0.458
vn -0.1436 -0.5974 -0.7889
vn 0.303 -0.9311 -0.2033
vn -0.699 -0.5669 0.4359
vn -0.734 0.3464 -0.5841
vn -0.7765 0.5382 -0.3275
vn -0.6934 0.1741 -0.6991
vn -0.7171 -0.6184 0.3216
vn -0.0412 0.6979 0.715
vn 0.3787 0.7148 0.5879
vn -0.5464 0.6122 0.5716
vn -0.0432 -0.5152 0.856
vn 0.6513 0.5579 0.5143
vn 0.7848 0.4002 0.4731
vn 0.5595 -0.8118 -0.1668
vn -0.4657 -0.34 -0.817
vn -0.5784 -0.2388 -0.78
vn -0.8065 0.5811 0.1086
vn -0.6661 0.0367 -0.7449
vn -0.6542 -0.0491 -0.7547
vn 0.8488 0.2679 0.4558
vn 0.8716 0.1836 0.4545
vn 0.8873 0.0989 0.4504
vn -0.6375 -0.1341 -0.7586
vt 0.839504 0.118056
vt 0.856743 0.205307
vt 0.741230 0.205307
vt 0.734555 0.106726
vt 0.724541 0.032791
vt 0.813647 0.052618
vt 0.868992 0.081539
vt 0.913398 0.129584
vt 0.940923 0.205307
vt 0.839504 0.292557
vt 0.813647 0.357995
vt 0.724541 0.377822
vt 0.734555 0.303887
vt 0.913398 0.281029
vt 0.868992 0.329074
vt 0.369475 0.299954
vt 0.368286 0.370940
vt 0.245840 0.351447
vt 0.246397 0.288815
vt 0.246768 0.205307
vt 0.370268 0.205307
vt 0.494283 0.205307
vt 0.492822 0.304944
vt 0.490632 0.379672
vt 0.369475 0.110659
vt 0.246397 0.121798
vt 0.245841 0.059166
vt 0.368286 0.039673
vt 0.490632 0.030941
vt 0.492822 0.105669
vt 0.616755 0.103478
vt 0.619174 0.205307
vt 0.613127 0.027106
vt 0.616755 0.307135
vt 0.613126 0.383507
vt 0.123273 0.268175
vt 0.123047 0.315326
vt 0.054743 0.283353
vt 0.030912 0.249131
vt 0.030973 0.205306
vt 0.123423 0.205306
vt 0.123273 0.142438
vt 0.030912 0.161481
vt 0.054744 0.127260
vt 0.123047 0.095287
vt 0.839504 0.118056
vt 0.856743 0.205307
vt 0.968983 0.205307
vt 0.938030 0.133427
vt 0.876123 0.061548
vt 0.805028 0.030806
vt 0.721203 0.008146
vt 0.734555 0.106726
vt 0.741230 0.205307
vt 0.839504 0.292557
vt 0.805028 0.379807
vt 0.876123 0.349065
vt 0.938030 0.277186
vt 0.734555 0.303887
vt 0.721203 0.402467
vt 0.369475 0.299954
vt 0.367890 0.394602
vt 0.489902 0.404581
vt 0.492822 0.304944
vt 0.494283 0.205307
vt 0.370268 0.205307
vt 0.246768 0.205307
vt 0.246397 0.288815
vt 0.245655 0.372324
vt 0.369475 0.110659
vt 0.492822 0.105669
vt 0.489902 0.006032
vt 0.367890 0.016011
vt 0.245655 0.038289
vt 0.246397 0.121798
vt 0.616755 0.103478
vt 0.619174 0.205307
vt 0.611917 0.001649
vt 0.616755 0.307135
vt 0.611917 0.408964
vt 0.123273 0.268175
vt 0.122972 0.331043
vt 0.123423 0.205306
vt 0.000156 0.205306
vt 0.000125 0.242784
vt 0.000064 0.280261
vt 0.123273 0.142438
vt 0.122972 0.079570
vt 0.000064 0.130352
vt 0.000125 0.167829
vt 0.122972 0.331043
vt 0.030806 0.283587
vt 0.245655 0.372324
vt 0.030806 0.283587
vt 0.000125 0.167829
vt 0.030806 0.127026
vt 0.000156 0.205306
vt 0.030806 0.127026
vt 0.805028 0.030806
vt 0.873826 0.071832
vt 0.721203 0.008146
vt 0.873826 0.071832
vt 0.938030 0.277186
vt 0.873826 0.338781
vt 0.968983 0.205307
vt 0.873826 0.338781
vt 0.805028 0.379807
vt 0.721203 0.402467
vt 0.000125 0.242784
vt 0.122972 0.079570
vt 0.245655 0.038289
vt 0.938030 0.133427
vt 0.611917 0.001649
vt 0.489902 0.006032
vt 0.611917 0.408964
vt 0.489902 0.404581
vt 0.367890 0.394602
vt 0.367890 0.016011
f 1/1/1 2/2/2 3/3/3
f 1/1/1 3/3/3 4/4/4
f 1/1/1 4/4/4 5/5/5
f 1/1/1 5/5/5 6/6/6
f 1/1/1 6/6/6 7/7/7
f 1/1/1 7/7/7 8/8/8
f 1/1/1 8/8/8 9/9/9
f 1/1/1 9/9/9 2/2/2
f 10/10/10 11/11/11 12/12/12
f 10/10/10 12/12/12 13/13/13
f 10/10/10 13/13/13 3/3/3
f 10/10/10 3/3/3 2/2/2
f 10/10/10 2/2/2 9/9/9
f 10/10/10 9/9/9 14/14/14
f 10/10/10 14/14/14 15/15/15
f 10/10/10 15/15/15 11/11/11
f 16/16/16 17/17/17 18/18/18
f 16/16/16 18/18/18 19/19/19
f 16/16/16 19/19/19 20/20/20
f 16/16/16 20/20/20 21/21/21
f 16/16/16 21/21/21 22/22/22
f 16/16/16 22/22/22 23/23/23
f 16/16/16 23/23/23 24/24/24
f 16/16/16 24/24/24 17/17/17
f 25/25/25 21/21/21 20/20/20
f 25/25/25 20/20/20 26/26/26
f 25/25/25 26/26/26 27/27/27
f 25/25/25 27/27/27 28/28/28
f 25/25/25 28/28/28 29/29/29
f 25/25/25 29/29/29 30/30/30
f 25/25/25 30/30/30 22/22/22
f 25/25/25 22/22/22 21/21/21
f 31/31/31 32/32/32 22/22/22
f 31/31/31 22/22/22 30/30/30
f 31/31/31 30/30/30 29/29/29
f 31/31/31 29/29/29 33/33/33
f 31/31/31 33/33/33 5/5/5
f 31/31/31 5/5/5 4/4/4
f 31/31/31 4/4/4 3/3/3
f 31/31/31 3/3/3 32/32/32
f 34/34/34 35/35/35 24/24/24
f 34/34/34 24/24/24 23/23/23
f 34/34/34 23/23/23 22/22/22
f 34/34/34 22/22/22 32/32/32
f 34/34/34 32/32/32 3/3/3
f 34/34/34 3/3/3 13/13/13
f 34/34/34 13/13/13 12/12/12
f 34/34/34 12/12/12 35/35/35
f 36/36/36 37/37/37 38/38/38
f 36/36/36 38/38/38 39/39/39
f 36/36/36 39/39/39 40/40/40
f 36/36/36 40/40/40 41/41/41
f 36/36/36 41/41/41 20/20/20
f 36/36/36 20/20/20 19/19/19
f 36/36/36 19/19/19 18/18/18
f 36/36/36 18/18/18 37/37/37
f 42/42/42 41/41/41 40/40/40
f 42/42/42 40/40/40 43/43/43
f 42/42/42 43/43/43 44/44/44
f 42/42/42 44/44/44 45/45/45
f 42/42/42 45/45/45 27/27/27
f 42/42/42 27/27/27 26/26/26
f 42/42/42 26/26/26 20/20/20
f 42/42/42 20/20/20 41/41/41
f 46/46/46 47/47/47 48/48/48
f 46/46/46 48/48/48 49/49/49
f 46/46/46 49/49/49 50/50/50
f 46/46/46 50/50/50 51/51/51
f 46/46/46 51/51/51 52/52/52
f 46/46/46 52/52/52 53/53/53
f 46/46/46 53/53/53 54/54/54
f 46/46/46 54/54/54 47/47/47
f 55/55/55 56/56/56 57/57/57
f 55/55/55 57/57/57 58/58/58
f 55/55/55 58/58/58 48/48/48
f 55/55/55 48/48/48 47/47/47
f 55/55/55 47/47/47 54/54/54
f 55/55/55 54/54/54 59/59/59
f 55/55/55 59/59/59 60/60/60
f 55/55/55 60/60/60 56/56/56
f 61/61/61 62/62/62 63/63/63
f 61/61/61 63/63/63 64/64/64
f 61/61/61 64/64/64 65/65/65
f 61/61/61 65/65/65 66/66/66
f 61/61/61 66/66/66 67/67/67
f 61/61/61 67/67/67 68/68/68
f 61/61/61 68/68/68 69/69/69
f 61/61/61 69/69/69 62/62/62
f 70/70/70 66/66/66 65/65/65
f 70/70/70 65/65/65 71/71/71
f 70/70/70 71/71/71 72/72/72
f 70/70/70 72/72/72 73/73/73
f 70/70/70 73/73/73 74/74/74
f 70/70/70 74/74/74 75/75/75
f 70/70/70 75/75/75 67/67/67
f 70/70/70 67/67/67 66/66/66
f 76/76/76 77/77/77 54/54/54
f 76/76/76 54/54/54 53/53/53
f 76/76/76 53/53/53 52/52/52
f 76/76/76 52/52/52 78/78/78
f 76/76/76 78/78/78 72/72/72
f 76/76/76 72/72/72 71/71/71
f 76/76/76 71/71/71 65/65/65
f 76/76/76 65/65/65 77/77/77
f 79/79/79 80/80/80 60/60/60
f 79/79/79 60/60/60 59/59/59
f 79/79/79 59/59/59 54/54/54
f 79/79/79 54/54/54 77/77/77
f 79/79/79 77/77/77 65/65/65
f 79/79/79 65/65/65 64/64/64
f 79/79/79 64/64/64 63/63/63
f 79/79/79 63/63/63 80/80/80
f 81/81/81 82/82/82 69/69/69
f 81/81/81 69/69/69 68/68/68
f 81/81/81 68/68/68 67/67/67
f 81/81/81 67/67/67 83/83/83
f 81/81/81 83/83/83 84/84/84
f 81/81/81 84/84/84 85/85/85
f 81/81/81 85/85/85 86/86/86
f 81/81/81 86/86/86 82/82/82
f 87/87/87 83/83/83 67/67/67
f 87/87/87 67/67/67 75/75/75
f 87/87/87 75/75/75 74/74/74
f 87/87/87 74/74/74 88/88/88
f 87/87/87 88/88/88 89/89/89
f 87/87/87 89/89/89 90/90/90
f 87/87/87 90/90/90 84/84/84
f 87/87/87 84/84/84 83/83/83
f 91/91/91 92/92/92 38/38/38
f 91/91/91 38/38/38 37/37/37
f 91/91/91 37/37/37 18/18/18
f 91/91/91 18/18/18 93/93/93
f 91/91/91 93/93/93 69/69/69
f 91/91/91 69/69/69 82/82/82
f 91/91/91 82/82/82 94/94/94
f 91/91/91 94/94/94 92/92/92
f 95/95/95 96/96/96 44/44/44
f 95/95/95 44/44/44 43/43/43
f 95/95/95 43/43/43 40/40/40
f 95/95/95 40/40/40 97/97/97
f 95/95/95 97/97/97 84/84/84
f 95/95/95 84/84/84 90/90/90
f 95/95/95 90/90/90 98/98/98
f 95/95/95 98/98/98 96/96/96
f 99/99/99 100/100/100 7/7/7
f 99/99/99 7/7/7 6/6/6
f 99/99/99 6/6/6 5/5/5
f 99/99/99 5/5/5 101/101/101
f 99/99/99 101/101/101 52/52/52
f 99/99/99 52/52/52 51/51/51
f 99/99/99 51/51/51 102/102/102
f 99/99/99 102/102/102 100/100/100
f 103/103/103 104/104/104 15/15/15
f 103/103/103 15/15/15 14/14/14
f 103/103/103 14/14/14 9/9/9
f 103/103/103 9/9/9 105/105/105
f 103/103/103 105/105/105 48/48/48
f 103/103/103 48/48/48 58/58/58
f 103/103/103 58/58/58 106/106/106
f 103/103/103 106/106/106 104/104/104
f 107/107/107 108/108/108 12/12/12
f 107/107/107 12/12/12 11/11/11
f 107/107/107 11/11/11 15/15/15
f 107/107/107 15/15/15 104/104/104
f 107/107/107 104/104/104 106/106/106
f 107/107/107 106/106/106 56/56/56
f 107/107/107 56/56/56 60/60/60
f 107/107/107 60/60/60 108/108/108
f 109/109/109 97/97/97 40/40/40
f 109/109/109 40/40/40 39/39/39
f 109/109/109 39/39/39 38/38/38
f 109/109/109 38/38/38 92/92/92
f 109/109/109 92/92/92 94/94/94
f 109/109/109 94/94/94 85/85/85
f 109/109/109 85/85/85 84/84/84
f 109/109/109 84/84/84 97/97/97
f 110/110/110 111/111/111 27/27/27
f 110/110/110 27/27/27 45/45/45
f 110/110/110 45/45/45 44/44/44
f 110/110/110 44/44/44 96/96/96
f 110/110/110 96/96/96 98/98/98
f 110/110/110 98/98/98 88/88/88
f 110/110/110 88/88/88 74/74/74
f 110/110/110 74/74/74 111/111/111
f 112/112/112 105/105/105 9/9/9
f 112/112/112 9/9/9 8/8/8
f 112/112/112 8/8/8 7/7/7
f 112/112/112 7/7/7 100/100/100
f 112/112/112 100/100/100 102/102/102
f 112/112/112 102/102/102 49/49/49
f 112/112/112 49/49/49 48/48/48
f 112/112/112 48/48/48 105/105/105
f 113/113/113 101/101/101 5/5/5
f 113/113/113 5/5/5 33/33/33
f 113/113/113 33/33/33 29/29/29
f 113/113/113 29/29/29 114/114/114
f 113/113/113 114/114/114 72/72/72
f 113/113/113 72/72/72 78/78/78
f 113/113/113 78/78/78 52/52/52
f 113/113/113 52/52/52 101/101/101
f 115/115/115 116/116/116 24/24/24
f 115/115/115 24/24/24 35/35/35
f 115/115/115 35/35/35 12/12/12
f 115/115/115 12/12/12 108/108/108
f 115/115/115 108/108/108 60/60/60
f 115/115/115 60/60/60 80/80/80
f 115/115/115 80/80/80 63/63/63
f 115/115/115 63/63/63 116/116/116
f 117/117/117 93/93/93 18/18/18
f 117/117/117 18/18/18 17/17/17
f 117/117/117 17/17/17 24/24/24
f 117/117/117 24/24/24 116/116/116
f 117/117/117 116/116/116 63/63/63
f 117/117/117 63/63/63 62/62/62
f 117/117/117 62/62/62 69/69/69
f 117/117/117 69/69/69 93/93/93
f 118/118/118 114/114/114 29/29/29
f 118/118/118 29/29/29 28/28/28
f 118/118/118 28/28/28 27/27/27
f 118/118/118 27/27/27 111/111/111
f 118/118/118 111/111/111 74/74/74
f 118/118/118 74/74/74 73/73/73
f 118/118/118 73/73/73 72/72/72
f 118/118/118 72/72/72 114/114/114
