v -2.406189 0.796068 -1.235155
v -2.406856 0.796767 -1.233779
v -2.405614 0.795126 -1.2329
v -2.405032 0.794485 -1.234557
v -2.404404 0.794017 -1.235777
v -2.405407 0.79545 -1.236106
v -2.40623 0.796353 -1.236023
v -2.407091 0.79716 -1.235516
v -2.407829 0.797926 -1.234417
v -2.406725 0.797258 -1.232176
v -2.406348 0.797537 -1.230882
v -2.405473 0.796388 -1.229842
v -2.405642 0.795837 -1.231171
v -2.407556 0.79819 -1.232937
v -2.406992 0.798043 -1.231792
v -2.40281 0.790058 -1.228393
v -2.402861 0.790607 -1.227134
v -2.402197 0.788369 -1.226521
v -2.402163 0.787882 -1.227636
v -2.402022 0.787261 -1.229111
v -2.402641 0.789357 -1.23006
v -2.403413 0.79139 -1.231011
v -2.403575 0.79213 -1.229268
v -2.403604 0.792714 -1.22795
v -2.402212 0.788733 -1.231711
v -2.401634 0.78671 -1.23057
v -2.401271 0.786315 -1.231662
v -2.401814 0.788284 -1.232947
v -2.402509 0.790285 -1.234031
v -2.40295 0.790744 -1.232738
v -2.403921 0.792686 -1.233719
v -2.404435 0.793323 -1.231967
v -2.403405 0.792246 -1.23503
v -2.404555 0.794092 -1.230198
v -2.404517 0.794711 -1.228859
v -2.401535 0.785607 -1.227058
v -2.401523 0.78598 -1.226221
v -2.401187 0.784545 -1.226267
v -2.401093 0.783857 -1.22669
v -2.401079 0.783523 -1.227448
v -2.401459 0.785135 -1.228161
v -2.401141 0.784732 -1.229247
v -2.400823 0.783258 -1.22819
v -2.400701 0.783467 -1.228967
v -2.400831 0.784447 -1.230061
v -2.40633 0.795964 -1.235166
v -2.407002 0.796671 -1.233768
v -2.407937 0.797852 -1.234408
v -2.407196 0.79708 -1.235524
v -2.406307 0.796293 -1.236034
v -2.40551 0.795369 -1.236126
v -2.404511 0.793941 -1.235795
v -2.405178 0.794387 -1.234568
v -2.405764 0.795035 -1.232891
v -2.406875 0.797172 -1.232142
v -2.406461 0.797479 -1.230845
v -2.407075 0.797997 -1.231767
v -2.407667 0.798125 -1.23291
v -2.405795 0.795755 -1.231142
v -2.405589 0.796332 -1.22981
v -2.402977 0.790001 -1.228384
v -2.402986 0.790567 -1.22712
v -2.403727 0.792668 -1.227932
v -2.403738 0.792065 -1.229253
v -2.403574 0.791318 -1.231012
v -2.402806 0.789294 -1.230065
v -2.402189 0.787204 -1.229118
v -2.402332 0.787831 -1.227629
v -2.402324 0.788333 -1.226508
v -2.402374 0.788664 -1.23173
v -2.403108 0.790666 -1.232754
v -2.402625 0.790224 -1.23405
v -2.401933 0.78823 -1.232968
v -2.401392 0.786265 -1.231686
v -2.401798 0.786647 -1.230592
v -2.404073 0.792598 -1.233732
v -2.404591 0.793241 -1.231963
v -2.403517 0.792177 -1.235048
v -2.404713 0.794018 -1.230176
v -2.404636 0.794659 -1.228834
v -2.401705 0.785558 -1.227051
v -2.401651 0.785947 -1.226208
v -2.401627 0.78508 -1.228169
v -2.401205 0.783482 -1.227455
v -2.401221 0.783821 -1.226684
v -2.401282 0.78452 -1.226259
v -2.401305 0.784671 -1.229271
v -2.400952 0.784398 -1.230086
v -2.400791 0.783431 -1.228983
v -2.400946 0.783212 -1.228209
v -2.401576 0.786091 -1.225935
v -2.401083 0.784128 -1.226079
v -2.402265 0.788516 -1.226142
v -2.401282 0.78452 -1.226259
v -2.400772 0.782746 -1.227846
v -2.400596 0.783047 -1.228783
v -2.401008 0.782968 -1.227214
v -2.400791 0.783431 -1.228983
v -2.405191 0.795208 -1.236434
v -2.406225 0.796374 -1.236237
v -2.404242 0.793827 -1.236194
v -2.406307 0.796293 -1.236034
v -2.407881 0.798472 -1.233178
v -2.407049 0.798203 -1.231659
v -2.408201 0.798279 -1.234626
v -2.407075 0.797997 -1.231767
v -2.406272 0.797606 -1.230432
v -2.405469 0.796548 -1.229382
v -2.401003 0.783258 -1.226565
v -2.400781 0.784329 -1.230345
v -2.401203 0.78616 -1.232038
v -2.407438 0.797489 -1.23564
v -2.403283 0.792068 -1.235477
v -2.402413 0.790104 -1.234472
v -2.404557 0.794895 -1.2284
v -2.403669 0.792889 -1.227501
v -2.402933 0.790772 -1.226706
v -2.401733 0.78811 -1.23337
vn 0.7622 0.6362 0.1195
vn 0.8053 0.5862 -0.0891
vn 0.8379 0.5418 -0.0655
vn 0.8015 0.5854 0.1218
vn 0.8168 0.5636 0.1231
vn 0.765 0.6341 0.1125
vn 0.7251 0.6808 0.1034
vn 0.7206 0.6918 0.0464
vn 0.7487 0.6509 -0.1253
vn 0.8336 0.4779 -0.2771
vn 0.8339 0.4814 -0.2699
vn 0.8777 0.4286 -0.2143
vn 0.8654 0.4438 -0.2327
vn 0.7789 0.5624 -0.2776
vn 0.799 0.5169 -0.3072
vn 0.9541 0.2925 -0.0636
vn 0.9536 0.2998 -0.0264
vn 0.962 0.2727 -0.0108
vn 0.9638 0.2603 -0.0576
vn 0.9536 0.2962 0.0534
vn 0.942 0.3335 0.0364
vn 0.9135 0.4067 0.0021
vn 0.9298 0.3523 -0.1064
vn 0.9342 0.3488 -0.0746
vn 0.9182 0.3721 0.1354
vn 0.9253 0.3456 0.1559
vn 0.9394 0.3229 0.1153
vn 0.9299 0.3523 0.1051
vn 0.9029 0.4182 0.0991
vn 0.8895 0.4416 0.1169
vn 0.8458 0.5216 0.1118
vn 0.8744 0.4838 -0.0358
vn 0.8621 0.4953 0.1071
vn 0.8965 0.4092 -0.1698
vn 0.9073 0.3949 -0.144
vn 0.9684 0.2374 -0.0755
vn 0.9687 0.2469 -0.0237
vn 0.9745 0.2193 -0.0461
vn 0.9813 0.1779 -0.0731
vn 0.9701 0.2276 0.0837
vn 0.9585 0.2785 0.0614
vn 0.9215 0.3415 0.1848
vn 0.9274 0.2975 0.2269
vn 0.9341 0.309 0.1788
vn 0.9387 0.3135 0.1433
vn -0.7652 -0.625 -0.1542
vn -0.8145 -0.5742 0.0826
vn -0.8484 -0.5262 0.0575
vn -0.7661 -0.5892 -0.2566
vn -0.7236 -0.5822 -0.3706
vn -0.7314 -0.5879 -0.3456
vn -0.7652 -0.5776 -0.2842
vn -0.7973 -0.588 -0.1364
vn -0.8379 -0.5419 0.0656
vn -0.8456 -0.4467 0.2922
vn -0.867 -0.287 0.4073
vn -0.8665 -0.2653 0.4229
vn -0.873 -0.3521 0.3374
vn -0.8661 -0.4354 0.2456
vn -0.8792 -0.3248 0.3485
vn -0.9546 -0.287 0.079
vn -0.9508 -0.2482 0.1852
vn -0.9326 -0.2886 0.2167
vn -0.9303 -0.3464 0.1203
vn -0.9136 -0.4065 -0.0021
vn -0.9421 -0.3333 -0.0365
vn -0.9536 -0.2961 -0.0535
vn -0.9637 -0.2557 0.0763
vn -0.9496 -0.2354 0.2068
vn -0.9134 -0.3784 -0.1496
vn -0.8851 -0.4466 -0.1305
vn -0.851 -0.4693 -0.2354
vn -0.873 -0.4207 -0.2465
vn -0.8639 -0.4256 -0.2693
vn -0.9191 -0.3548 -0.1715
vn -0.8414 -0.5257 -0.1252
vn -0.8744 -0.4838 0.0358
vn -0.8097 -0.5328 -0.2459
vn -0.8969 -0.4026 0.1829
vn -0.9043 -0.3231 0.279
vn -0.9637 -0.2445 0.1069
vn -0.9323 -0.2414 0.2693
vn -0.9555 -0.2893 -0.0566
vn -0.9411 -0.3362 -0.0352
vn -0.9399 -0.2756 0.2015
vn -0.9179 -0.2497 0.3083
vn -0.9084 -0.3671 -0.1998
vn -0.8293 -0.4697 -0.3025
vn -0.805 -0.5001 -0.319
vn -0.8612 -0.4501 -0.236
vn 0.1377 0.0655 0.9883
vn 0.2854 -0.3109 0.9066
vn 0.0569 0.1993 0.9783
vn -0.9179 -0.2497 0.3083
vn 0.3153 -0.9333 0.1716
vn 0.5058 -0.8012 -0.3197
vn 0.1306 -0.9124 0.3879
vn -0.805 -0.5001 -0.319
vn 0.247 0.0929 -0.9645
vn 0.0425 0.3414 -0.9389
vn 0.3318 -0.0984 -0.9382
vn -0.7236 -0.5822 -0.3706
vn -0.505 0.8569 0.1035
vn -0.2025 0.8844 0.4205
vn -0.6234 0.6807 -0.3847
vn -0.8665 -0.2653 0.4229
vn -0.0466 0.7443 0.6662
vn 0.0186 0.5966 0.8023
vn 0.2376 -0.7602 0.6046
vn 0.4366 -0.5979 -0.6722
vn 0.3734 -0.5031 -0.7794
vn -0.3423 0.4967 -0.7975
vn 0.3575 -0.2396 -0.9026
vn 0.3547 -0.3232 -0.8773
vn 0.0362 0.4725 0.8806
vn 0.0309 0.3942 0.9185
vn 0.0253 0.3142 0.949
vn 0.3486 -0.4031 -0.8461
vt 0.839504 0.118056
vt 0.856743 0.205307
vt 0.741230 0.205307
vt 0.734555 0.106726
vt 0.724541 0.032791
vt 0.813647 0.052618
vt 0.868992 0.081539
vt 0.913398 0.129584
vt 0.940923 0.205307
vt 0.839504 0.292557
vt 0.813647 0.357995
vt 0.724541 0.377822
vt 0.734555 0.303887
vt 0.913398 0.281029
vt 0.868992 0.329074
vt 0.369475 0.299954
vt 0.368286 0.370940
vt 0.245840 0.351447
vt 0.246397 0.288815
vt 0.246768 0.205307
vt 0.370268 0.205307
vt 0.494283 0.205307
vt 0.492822 0.304944
vt 0.490632 0.379672
vt 0.369475 0.110659
vt 0.246397 0.121798
vt 0.245841 0.059166
vt 0.368286 0.039673
vt 0.490632 0.030941
vt 0.492822 0.105669
vt 0.616755 0.103478
vt 0.619174 0.205307
vt 0.613127 0.027106
vt 0.616755 0.307135
vt 0.613126 0.383507
vt 0.123273 0.268175
vt 0.123047 0.315326
vt 0.054743 0.283353
vt 0.030912 0.249131
vt 0.030973 0.205306
vt 0.123423 0.205306
vt 0.123273 0.142438
vt 0.030912 0.161481
vt 0.054744 0.127260
vt 0.123047 0.095287
vt 0.839504 0.118056
vt 0.856743 0.205307
vt 0.968983 0.205307
vt 0.938030 0.133427
vt 0.876123 0.061548
vt 0.805028 0.030806
vt 0.721203 0.008146
vt 0.734555 0.106726
vt 0.741230 0.205307
vt 0.839504 0.292557
vt 0.805028 0.379807
vt 0.876123 0.349065
vt 0.938030 0.277186
vt 0.734555 0.303887
vt 0.721203 0.402467
vt 0.369475 0.299954
vt 0.367890 0.394602
vt 0.489902 0.404581
vt 0.492822 0.304944
vt 0.494283 0.205307
vt 0.370268 0.205307
vt 0.246768 0.205307
vt 0.246397 0.288815
vt 0.245655 0.372324
vt 0.369475 0.110659
vt 0.492822 0.105669
vt 0.489902 0.006032
vt 0.367890 0.016011
vt 0.245655 0.038289
vt 0.246397 0.121798
vt 0.616755 0.103478
vt 0.619174 0.205307
vt 0.611917 0.001649
vt 0.616755 0.307135
vt 0.611917 0.408964
vt 0.123273 0.268175
vt 0.122972 0.331043
vt 0.123423 0.205306
vt 0.000156 0.205306
vt 0.000125 0.242784
vt 0.000064 0.280261
vt 0.123273 0.142438
vt 0.122972 0.079570
vt 0.000064 0.130352
vt 0.000125 0.167829
vt 0.122972 0.331043
vt 0.030806 0.283587
vt 0.245655 0.372324
vt 0.030806 0.283587
vt 0.000125 0.167829
vt 0.030806 0.127026
vt 0.000156 0.205306
vt 0.030806 0.127026
vt 0.805028 0.030806
vt 0.873826 0.071832
vt 0.721203 0.008146
vt 0.873826 0.071832
vt 0.938030 0.277186
vt 0.873826 0.338781
vt 0.968983 0.205307
vt 0.873826 0.338781
vt 0.805028 0.379807
vt 0.721203 0.402467
vt 0.000125 0.242784
vt 0.122972 0.079570
vt 0.245655 0.038289
vt 0.938030 0.133427
vt 0.611917 0.001649
vt 0.489902 0.006032
vt 0.611917 0.408964
vt 0.489902 0.404581
vt 0.367890 0.394602
vt 0.367890 0.016011
f 1/1/1 2/2/2 3/3/3
f 1/1/1 3/3/3 4/4/4
f 1/1/1 4/4/4 5/5/5
f 1/1/1 5/5/5 6/6/6
f 1/1/1 6/6/6 7/7/7
f 1/1/1 7/7/7 8/8/8
f 1/1/1 8/8/8 9/9/9
f 1/1/1 9/9/9 2/2/2
f 10/10/10 11/11/11 12/12/12
f 10/10/10 12/12/12 13/13/13
f 10/10/10 13/13/13 3/3/3
f 10/10/10 3/3/3 2/2/2
f 10/10/10 2/2/2 9/9/9
f 10/10/10 9/9/9 14/14/14
f 10/10/10 14/14/14 15/15/15
f 10/10/10 15/15/15 11/11/11
f 16/16/16 17/17/17 18/18/18
f 16/16/16 18/18/18 19/19/19
f 16/16/16 19/19/19 20/20/20
f 16/16/16 20/20/20 21/21/21
f 16/16/16 21/21/21 22/22/22
f 16/16/16 22/22/22 23/23/23
f 16/16/16 23/23/23 24/24/24
f 16/16/16 24/24/24 17/17/17
f 25/25/25 21/21/21 20/20/20
f 25/25/25 20/20/20 26/26/26
f 25/25/25 26/26/26 27/27/27
f 25/25/25 27/27/27 28/28/28
f 25/25/25 28/28/28 29/29/29
f 25/25/25 29/29/29 30/30/30
f 25/25/25 30/30/30 22/22/22
f 25/25/25 22/22/22 21/21/21
f 31/31/31 32/32/32 22/22/22
f 31/31/31 22/22/22 30/30/30
f 31/31/31 30/30/30 29/29/29
f 31/31/31 29/29/29 33/33/33
f 31/31/31 33/33/33 5/5/5
f 31/31/31 5/5/5 4/4/4
f 31/31/31 4/4/4 3/3/3
f 31/31/31 3/3/3 32/32/32
f 34/34/34 35/35/35 24/24/24
f 34/34/34 24/24/24 23/23/23
f 34/34/34 23/23/23 22/22/22
f 34/34/34 22/22/22 32/32/32
f 34/34/34 32/32/32 3/3/3
f 34/34/34 3/3/3 13/13/13
f 34/34/34 13/13/13 12/12/12
f 34/34/34 12/12/12 35/35/35
f 36/36/36 37/37/37 38/38/38
f 36/36/36 38/38/38 39/39/39
f 36/36/36 39/39/39 40/40/40
f 36/36/36 40/40/40 41/41/41
f 36/36/36 41/41/41 20/20/20
f 36/36/36 20/20/20 19/19/19
f 36/36/36 19/19/19 18/18/18
f 36/36/36 18/18/18 37/37/37
f 42/42/42 41/41/41 40/40/40
f 42/42/42 40/40/40 43/43/43
f 42/42/42 43/43/43 44/44/44
f 42/42/42 44/44/44 45/45/45
f 42/42/42 45/45/45 27/27/27
f 42/42/42 27/27/27 26/26/26
f 42/42/42 26/26/26 20/20/20
f 42/42/42 20/20/20 41/41/41
f 46/46/46 47/47/47 48/48/48
f 46/46/46 48/48/48 49/49/49
f 46/46/46 49/49/49 50/50/50
f 46/46/46 50/50/50 51/51/51
f 46/46/46 51/51/51 52/52/52
f 46/46/46 52/52/52 53/53/53
f 46/46/46 53/53/53 54/54/54
f 46/46/46 54/54/54 47/47/47
f 55/55/55 56/56/56 57/57/57
f 55/55/55 57/57/57 58/58/58
f 55/55/55 58/58/58 48/48/48
f 55/55/55 48/48/48 47/47/47
f 55/55/55 47/47/47 54/54/54
f 55/55/55 54/54/54 59/59/59
f 55/55/55 59/59/59 60/60/60
f 55/55/55 60/60/60 56/56/56
f 61/61/61 62/62/62 63/63/63
f 61/61/61 63/63/63 64/64/64
f 61/61/61 64/64/64 65/65/65
f 61/61/61 65/65/65 66/66/66
f 61/61/61 66/66/66 67/67/67
f 61/61/61 67/67/67 68/68/68
f 61/61/61 68/68/68 69/69/69
f 61/61/61 69/69/69 62/62/62
f 70/70/70 66/66/66 65/65/65
f 70/70/70 65/65/65 71/71/71
f 70/70/70 71/71/71 72/72/72
f 70/70/70 72/72/72 73/73/73
f 70/70/70 73/73/73 74/74/74
f 70/70/70 74/74/74 75/75/75
f 70/70/70 75/75/75 67/67/67
f 70/70/70 67/67/67 66/66/66
f 76/76/76 77/77/77 54/54/54
f 76/76/76 54/54/54 53/53/53
f 76/76/76 53/53/53 52/52/52
f 76/76/76 52/52/52 78/78/78
f 76/76/76 78/78/78 72/72/72
f 76/76/76 72/72/72 71/71/71
f 76/76/76 71/71/71 65/65/65
f 76/76/76 65/65/65 77/77/77
f 79/79/79 80/80/80 60/60/60
f 79/79/79 60/60/60 59/59/59
f 79/79/79 59/59/59 54/54/54
f 79/79/79 54/54/54 77/77/77
f 79/79/79 77/77/77 65/65/65
f 79/79/79 65/65/65 64/64/64
f 79/79/79 64/64/64 63/63/63
f 79/79/79 63/63/63 80/80/80
f 81/81/81 82/82/82 69/69/69
f 81/81/81 69/69/69 68/68/68
f 81/81/81 68/68/68 67/67/67
f 81/81/81 67/67/67 83/83/83
f 81/81/81 83/83/83 84/84/84
f 81/81/81 84/84/84 85/85/85
f 81/81/81 85/85/85 86/86/86
f 81/81/81 86/86/86 82/82/82
f 87/87/87 83/83/83 67/67/67
f 87/87/87 67/67/67 75/75/75
f 87/87/87 75/75/75 74/74/74
f 87/87/87 74/74/74 88/88/88
f 87/87/87 88/88/88 89/89/89
f 87/87/87 89/89/89 90/90/90
f 87/87/87 90/90/90 84/84/84
f 87/87/87 84/84/84 83/83/83
f 91/91/91 92/92/92 38/38/38
f 91/91/91 38/38/38 37/37/37
f 91/91/91 37/37/37 18/18/18
f 91/91/91 18/18/18 93/93/93
f 91/91/91 93/93/93 69/69/69
f 91/91/91 69/69/69 82/82/82
f 91/91/91 82/82/82 94/94/94
f 91/91/91 94/94/94 92/92/92
f 95/95/95 96/96/96 44/44/44
f 95/95/95 44/44/44 43/43/43
f 95/95/95 43/43/43 40/40/40
f 95/95/95 40/40/40 97/97/97
f 95/95/95 97/97/97 84/84/84
f 95/95/95 84/84/84 90/90/90
f 95/95/95 90/90/90 98/98/98
f 95/95/95 98/98/98 96/96/96
f 99/99/99 100/100/100 7/7/7
f 99/99/99 7/7/7 6/6/6
f 99/99/99 6/6/6 5/5/5
f 99/99/99 5/5/5 101/101/101
f 99/99/99 101/101/101 52/52/52
f 99/99/99 52/52/52 51/51/51
f 99/99/99 51/51/51 102/102/102
f 99/99/99 102/102/102 100/100/100
f 103/103/103 104/104/104 15/15/15
f 103/103/103 15/15/15 14/14/14
f 103/103/103 14/14/14 9/9/9
f 103/103/103 9/9/9 105/105/105
f 103/103/103 105/105/105 48/48/48
f 103/103/103 48/48/48 58/58/58
f 103/103/103 58/58/58 106/106/106
f 103/103/103 106/106/106 104/104/104
f 107/107/107 108/108/108 12/12/12
f 107/107/107 12/12/12 11/11/11
f 107/107/107 11/11/11 15/15/15
f 107/107/107 15/15/15 104/104/104
f 107/107/107 104/104/104 106/106/106
f 107/107/107 106/106/106 56/56/56
f 107/107/107 56/56/56 60/60/60
f 107/107/107 60/60/60 108/108/108
f 109/109/109 97/97/97 40/40/40
f 109/109/109 40/40/40 39/39/39
f 109/109/109 39/39/39 38/38/38
f 109/109/109 38/38/38 92/92/92
f 109/109/109 92/92/92 94/94/94
f 109/109/109 94/94/94 85/85/85
f 109/109/109 85/85/85 84/84/84
f 109/109/109 84/84/84 97/97/97
f 110/110/110 111/111/111 27/27/27
f 110/110/110 27/27/27 45/45/45
f 110/110/110 45/45/45 44/44/44
f 110/110/110 44/44/44 96/96/96
f 110/110/110 96/96/96 98/98/98
f 110/110/110 98/98/98 88/88/88
f 110/110/110 88/88/88 74/74/74
f 110/110/110 74/74/74 111/111/111
f 112/112/112 105/105/105 9/9/9
f 112/112/112 9/9/9 8/8/8
f 112/112/112 8/8/8 7/7/7
f 112/112/112 7/7/7 100/100/100
f 112/112/112 100/100/100 102/102/102
f 112/112/112 102/102/102 49/49/49
f 112/112/112 49/49/49 48/48/48
f 112/112/112 48/48/48 105/105/105
f 113/113/113 101/101/101 5/5/5
f 113/113/113 5/5/5 33/33/33
f 113/113/113 33/33/33 29/29/29
f 113/113/113 29/29/29 114/114/114
f 113/113/113 114/114/114 72/72/72
f 113/113/113 72/72/72 78/78/78
f 113/113/113 78/78/78 52/52/52
f 113/113/113 52/52/52 101/101/101
f 115/115/115 116/116/116 24/24/24
f 115/115/115 24/24/24 35/35/35
f 115/115/115 35/35/35 12/12/12
f 115/115/115 12/12/12 108/108/108
f 115/115/115 108/108/108 60/60/60
f 115/115/115 60/60/60 80/80/80
f 115/115/115 80/80/80 63/63/63
f 115/115/115 63/63/63 116/116/116
f 117/117/117 93/93/93 18/18/18
f 117/117/117 18/18/18 17/17/17
f 117/117/117 17/17/17 24/24/24
f 117/117/117 24/24/24 116/116/116
f 117/117/117 116/116/116 63/63/63
f 117/117/117 63/63/63 62/62/62
f 117/117/117 62/62/62 69/69/69
f 117/117/117 69/69/69 93/93/93
f 118/118/118 114/114/114 29/29/29
f 118/118/118 29/29/29 28/28/28
f 118/118/118 28/28/28 27/27/27
f 118/118/118 27/27/27 111/111/111
f 118/118/118 111/111/111 74/74/74
f 118/118/118 74/74/74 73/73/73
f 118/118/118 73/73/73 72/72/72
f 118/118/118 72/72/72 114/114/114
