v -2.393234 0.732987 -1.076122
v -2.390612 0.733877 -1.077116
v -2.392368 0.732723 -1.080421
v -2.395115 0.731767 -1.078923
v -2.397401 0.731239 -1.077962
v -2.395555 0.732444 -1.075763
v -2.393853 0.733125 -1.074653
v -2.391747 0.733757 -1.074188
v -2.38926 0.734605 -1.074687
v -2.388961 0.735195 -1.079163
v -2.38806 0.736316 -1.081097
v -2.388886 0.735637 -1.084021
v -2.390257 0.734276 -1.082379
v -2.388047 0.735668 -1.07682
v -2.387783 0.736261 -1.078973
v -2.394676 0.728815 -1.092431
v -2.393081 0.729965 -1.093814
v -2.394657 0.727347 -1.096729
v -2.396056 0.726318 -1.095497
v -2.398023 0.725071 -1.093922
v -2.396912 0.727416 -1.090658
v -2.395633 0.729534 -1.087324
v -2.393311 0.731021 -1.089184
v -2.391668 0.73226 -1.090642
v -2.399436 0.726356 -1.089044
v -2.400265 0.724143 -1.092502
v -2.402033 0.723537 -1.09148
v -2.40142 0.725657 -1.08788
v -2.400391 0.727754 -1.084434
v -2.398289 0.728449 -1.085641
v -2.396824 0.730254 -1.082182
v -2.39408 0.731289 -1.083867
v -2.399032 0.729645 -1.08099
v -2.391773 0.732863 -1.085776
v -2.39018 0.734217 -1.08729
v -2.397639 0.723602 -1.098361
v -2.396635 0.724419 -1.099307
v -2.397949 0.722535 -1.100483
v -2.398875 0.721457 -1.100424
v -2.399816 0.720745 -1.099581
v -2.399074 0.722635 -1.097167
v -2.40078 0.721979 -1.096126
v -2.401027 0.720345 -1.098892
v -2.401822 0.720535 -1.097727
v -2.402143 0.721574 -1.095387
v -2.393114 0.732708 -1.076075
v -2.390458 0.733612 -1.077091
v -2.389147 0.734405 -1.074673
v -2.39166 0.733546 -1.074155
v -2.393795 0.732967 -1.074623
v -2.395481 0.732229 -1.075716
v -2.397319 0.731028 -1.07791
v -2.394985 0.731493 -1.078868
v -2.392209 0.732462 -1.080386
v -2.388776 0.734949 -1.079162
v -2.387906 0.736142 -1.081107
v -2.387674 0.736129 -1.078979
v -2.387909 0.735484 -1.076824
v -2.39007 0.734032 -1.082365
v -2.388733 0.735463 -1.08402
v -2.394475 0.72859 -1.092363
v -2.392921 0.729803 -1.093771
v -2.391511 0.732092 -1.09061
v -2.393115 0.730788 -1.089131
v -2.395458 0.729289 -1.087255
v -2.39673 0.727179 -1.090575
v -2.397838 0.724841 -1.093829
v -2.395852 0.726099 -1.095419
v -2.394494 0.727189 -1.096678
v -2.399276 0.72611 -1.088947
v -2.398137 0.728194 -1.085557
v -2.400289 0.727558 -1.084364
v -2.401311 0.725469 -1.0878
v -2.401922 0.723353 -1.091393
v -2.400102 0.723904 -1.092395
v -2.396683 0.729989 -1.082113
v -2.393913 0.731035 -1.083817
v -2.398939 0.729441 -1.08093
v -2.391582 0.732624 -1.085743
v -2.390024 0.734046 -1.087274
v -2.397431 0.723387 -1.098281
v -2.39647 0.724265 -1.099255
v -2.398888 0.722407 -1.09707
v -2.399677 0.720575 -1.099508
v -2.398719 0.721296 -1.100364
v -2.397829 0.722419 -1.100442
v -2.400617 0.721742 -1.096014
v -2.402033 0.721391 -1.095296
v -2.401737 0.720401 -1.097661
v -2.400906 0.720167 -1.098807
v -2.396225 0.724625 -1.099601
v -2.398145 0.722052 -1.101118
v -2.394116 0.727621 -1.097119
v -2.397829 0.722419 -1.100442
v -2.401056 0.719721 -1.099776
v -2.402025 0.720048 -1.098357
v -2.400002 0.72004 -1.100354
v -2.401737 0.720401 -1.097661
v -2.396299 0.732166 -1.07562
v -2.394055 0.733099 -1.074337
v -2.398129 0.730968 -1.077617
v -2.393795 0.732967 -1.074623
v -2.387681 0.735744 -1.076042
v -2.387488 0.736491 -1.07901
v -2.388759 0.734758 -1.073873
v -2.387674 0.736129 -1.078979
v -2.387688 0.736615 -1.081748
v -2.388358 0.736015 -1.08457
v -2.399217 0.720671 -1.101085
v -2.402551 0.721357 -1.095099
v -2.402575 0.723252 -1.091099
v -2.391213 0.73392 -1.073529
v -2.39973 0.72935 -1.080564
v -2.401049 0.727434 -1.083999
v -2.389577 0.734595 -1.087789
v -2.391048 0.7326 -1.091115
v -2.392476 0.730278 -1.094258
v -2.402036 0.725339 -1.087455
vn -0.3121 0.9357 -0.1646
vn -0.4766 0.8785 -0.032
vn -0.5031 0.8603 -0.0826
vn -0.3576 0.9115 -0.2031
vn -0.3759 0.9003 -0.2193
vn -0.319 0.934 -0.1608
vn -0.278 0.9533 -0.118
vn -0.3022 0.951 -0.0652
vn -0.4318 0.9007 0.047
vn -0.6373 0.7677 0.0668
vn -0.6325 0.772 0.0622
vn -0.6525 0.7574 -0.0224
vn -0.6483 0.7613 0.0038
vn -0.5678 0.8138 0.1237
vn -0.6146 0.7794 0.1214
vn -0.6725 0.7029 -0.2315
vn -0.6491 0.7152 -0.2588
vn -0.6558 0.6986 -0.2859
vn -0.6872 0.6809 -0.2532
vn -0.6064 0.7255 -0.3255
vn -0.5947 0.749 -0.2919
vn -0.5679 0.7922 -0.223
vn -0.6579 0.7353 -0.1626
vn -0.6449 0.7397 -0.192
vn -0.5093 0.7873 -0.3476
vn -0.512 0.7714 -0.3778
vn -0.5527 0.7519 -0.3594
vn -0.5416 0.7708 -0.3355
vn -0.5025 0.8133 -0.2933
vn -0.4748 0.8299 -0.2929
vn -0.4179 0.8765 -0.2387
vn -0.5336 0.8332 -0.1451
vn -0.4416 0.861 -0.2521
vn -0.6488 0.7573 -0.0744
vn -0.6475 0.7547 -0.1057
vn -0.7081 0.6605 -0.2496
vn -0.6765 0.6776 -0.2883
vn -0.7025 0.6529 -0.2832
vn -0.736 0.6161 -0.2805
vn -0.6246 0.6798 -0.3843
vn -0.6115 0.714 -0.3411
vn -0.4946 0.7708 -0.4014
vn -0.4899 0.7433 -0.4555
vn -0.5177 0.7483 -0.4146
vn -0.5396 0.7483 -0.3858
vn 0.299 -0.9333 0.1987
vn 0.484 -0.8738 0.046
vn 0.5116 -0.8534 0.0996
vn 0.2549 -0.9203 0.2968
vn 0.1616 -0.9128 0.3749
vn 0.1795 -0.9172 0.3556
vn 0.2427 -0.9145 0.3237
vn 0.3455 -0.9141 0.2122
vn 0.5031 -0.8603 0.0824
vn 0.665 -0.7442 -0.0618
vn 0.7969 -0.5983 -0.0837
vn 0.8122 -0.5766 -0.088
vn 0.7418 -0.6688 -0.0496
vn 0.6587 -0.7523 -0.0107
vn 0.7616 -0.6465 -0.0455
vn 0.6832 -0.6959 0.2213
vn 0.7514 -0.643 0.1484
vn 0.7417 -0.6634 0.0988
vn 0.6679 -0.7281 0.1539
vn 0.568 -0.7922 0.2232
vn 0.5947 -0.749 0.2921
vn 0.6064 -0.7254 0.3256
vn 0.6988 -0.6739 0.2397
vn 0.7666 -0.6277 0.1354
vn 0.4957 -0.7927 0.3547
vn 0.4623 -0.8343 0.3002
vn 0.371 -0.8549 0.3626
vn 0.3976 -0.8257 0.4002
vn 0.3764 -0.8292 0.4131
vn 0.4956 -0.7789 0.3843
vn 0.4059 -0.8801 0.2462
vn 0.5336 -0.8332 0.1451
vn 0.3126 -0.8911 0.3288
vn 0.6585 -0.7497 0.0664
vn 0.7432 -0.6687 0.0225
vn 0.7194 -0.6591 0.2191
vn 0.7858 -0.6139 0.0746
vn 0.6084 -0.7209 0.3316
vn 0.5938 -0.7507 0.2895
vn 0.7432 -0.6583 0.1195
vn 0.7935 -0.6076 0.0334
vn 0.4678 -0.7891 0.3981
vn 0.3171 -0.856 0.4082
vn 0.2792 -0.8732 0.3993
vn 0.3844 -0.8437 0.3748
vn 0.461 0.2893 -0.8389
vn 0.1793 0.0237 -0.9835
vn 0.5608 0.3628 -0.7442
vn 0.7935 -0.6076 0.0334
vn -0.4517 -0.6192 -0.6423
vn -0.8261 -0.4956 -0.2682
vn -0.1838 -0.6545 -0.7334
vn 0.2792 -0.8732 0.3993
vn -0.6915 0.0373 0.7213
vn -0.4389 0.1557 0.8849
vn -0.8045 -0.0814 0.5883
vn 0.1616 -0.9128 0.3749
vn 0.7242 0.5081 0.4662
vn 0.6755 0.7316 0.0918
vn 0.489 0.2174 0.8447
vn 0.8122 -0.5766 -0.088
vn 0.6456 0.7281 -0.2302
vn 0.6225 0.6558 -0.4271
vn -0.0969 -0.4359 -0.8947
vn -0.9008 -0.4144 0.1298
vn -0.8803 -0.382 0.2811
vn -0.0144 0.1265 0.9919
vn -0.8505 -0.1841 0.4927
vn -0.8615 -0.2531 0.4402
vn 0.6115 0.5711 -0.5477
vn 0.6109 0.5075 -0.6076
vn 0.6062 0.4408 -0.6619
vn -0.8656 -0.3197 0.3853
vt 0.839504 0.118056
vt 0.856743 0.205307
vt 0.741230 0.205307
vt 0.734555 0.106726
vt 0.724541 0.032791
vt 0.813647 0.052618
vt 0.868992 0.081539
vt 0.913398 0.129584
vt 0.940923 0.205307
vt 0.839504 0.292557
vt 0.813647 0.357995
vt 0.724541 0.377822
vt 0.734555 0.303887
vt 0.913398 0.281029
vt 0.868992 0.329074
vt 0.369475 0.299954
vt 0.368286 0.370940
vt 0.245840 0.351447
vt 0.246397 0.288815
vt 0.246768 0.205307
vt 0.370268 0.205307
vt 0.494283 0.205307
vt 0.492822 0.304944
vt 0.490632 0.379672
vt 0.369475 0.110659
vt 0.246397 0.121798
vt 0.245841 0.059166
vt 0.368286 0.039673
vt 0.490632 0.030941
vt 0.492822 0.105669
vt 0.616755 0.103478
vt 0.619174 0.205307
vt 0.613127 0.027106
vt 0.616755 0.307135
vt 0.613126 0.383507
vt 0.123273 0.268175
vt 0.123047 0.315326
vt 0.054743 0.283353
vt 0.030912 0.249131
vt 0.030973 0.205306
vt 0.123423 0.205306
vt 0.123273 0.142438
vt 0.030912 0.161481
vt 0.054744 0.127260
vt 0.123047 0.095287
vt 0.839504 0.118056
vt 0.856743 0.205307
vt 0.968983 0.205307
vt 0.938030 0.133427
vt 0.876123 0.061548
vt 0.805028 0.030806
vt 0.721203 0.008146
vt 0.734555 0.106726
vt 0.741230 0.205307
vt 0.839504 0.292557
vt 0.805028 0.379807
vt 0.876123 0.349065
vt 0.938030 0.277186
vt 0.734555 0.303887
vt 0.721203 0.402467
vt 0.369475 0.299954
vt 0.367890 0.394602
vt 0.489902 0.404581
vt 0.492822 0.304944
vt 0.494283 0.205307
vt 0.370268 0.205307
vt 0.246768 0.205307
vt 0.246397 0.288815
vt 0.245655 0.372324
vt 0.369475 0.110659
vt 0.492822 0.105669
vt 0.489902 0.006032
vt 0.367890 0.016011
vt 0.245655 0.038289
vt 0.246397 0.121798
vt 0.616755 0.103478
vt 0.619174 0.205307
vt 0.611917 0.001649
vt 0.616755 0.307135
vt 0.611917 0.408964
vt 0.123273 0.268175
vt 0.122972 0.331043
vt 0.123423 0.205306
vt 0.000156 0.205306
vt 0.000125 0.242784
vt 0.000064 0.280261
vt 0.123273 0.142438
vt 0.122972 0.079570
vt 0.000064 0.130352
vt 0.000125 0.167829
vt 0.122972 0.331043
vt 0.030806 0.283587
vt 0.245655 0.372324
vt 0.030806 0.283587
vt 0.000125 0.167829
vt 0.030806 0.127026
vt 0.000156 0.205306
vt 0.030806 0.127026
vt 0.805028 0.030806
vt 0.873826 0.071832
vt 0.721203 0.008146
vt 0.873826 0.071832
vt 0.938030 0.277186
vt 0.873826 0.338781
vt 0.968983 0.205307
vt 0.873826 0.338781
vt 0.805028 0.379807
vt 0.721203 0.402467
vt 0.000125 0.242784
vt 0.122972 0.079570
vt 0.245655 0.038289
vt 0.938030 0.133427
vt 0.611917 0.001649
vt 0.489902 0.006032
vt 0.611917 0.408964
vt 0.489902 0.404581
vt 0.367890 0.394602
vt 0.367890 0.016011
f 1/1/1 2/2/2 3/3/3
f 1/1/1 3/3/3 4/4/4
f 1/1/1 4/4/4 5/5/5
f 1/1/1 5/5/5 6/6/6
f 1/1/1 6/6/6 7/7/7
f 1/1/1 7/7/7 8/8/8
f 1/1/1 8/8/8 9/9/9
f 1/1/1 9/9/9 2/2/2
f 10/10/10 11/11/11 12/12/12
f 10/10/10 12/12/12 13/13/13
f 10/10/10 13/13/13 3/3/3
f 10/10/10 3/3/3 2/2/2
f 10/10/10 2/2/2 9/9/9
f 10/10/10 9/9/9 14/14/14
f 10/10/10 14/14/14 15/15/15
f 10/10/10 15/15/15 11/11/11
f 16/16/16 17/17/17 18/18/18
f 16/16/16 18/18/18 19/19/19
f 16/16/16 19/19/19 20/20/20
f 16/16/16 20/20/20 21/21/21
f 16/16/16 21/21/21 22/22/22
f 16/16/16 22/22/22 23/23/23
f 16/16/16 23/23/23 24/24/24
f 16/16/16 24/24/24 17/17/17
f 25/25/25 21/21/21 20/20/20
f 25/25/25 20/20/20 26/26/26
f 25/25/25 26/26/26 27/27/27
f 25/25/25 27/27/27 28/28/28
f 25/25/25 28/28/28 29/29/29
f 25/25/25 29/29/29 30/30/30
f 25/25/25 30/30/30 22/22/22
f 25/25/25 22/22/22 21/21/21
f 31/31/31 32/32/32 22/22/22
f 31/31/31 22/22/22 30/30/30
f 31/31/31 30/30/30 29/29/29
f 31/31/31 29/29/29 33/33/33
f 31/31/31 33/33/33 5/5/5
f 31/31/31 5/5/5 4/4/4
f 31/31/31 4/4/4 3/3/3
f 31/31/31 3/3/3 32/32/32
f 34/34/34 35/35/35 24/24/24
f 34/34/34 24/24/24 23/23/23
f 34/34/34 23/23/23 22/22/22
f 34/34/34 22/22/22 32/32/32
f 34/34/34 32/32/32 3/3/3
f 34/34/34 3/3/3 13/13/13
f 34/34/34 13/13/13 12/12/12
f 34/34/34 12/12/12 35/35/35
f 36/36/36 37/37/37 38/38/38
f 36/36/36 38/38/38 39/39/39
f 36/36/36 39/39/39 40/40/40
f 36/36/36 40/40/40 41/41/41
f 36/36/36 41/41/41 20/20/20
f 36/36/36 20/20/20 19/19/19
f 36/36/36 19/19/19 18/18/18
f 36/36/36 18/18/18 37/37/37
f 42/42/42 41/41/41 40/40/40
f 42/42/42 40/40/40 43/43/43
f 42/42/42 43/43/43 44/44/44
f 42/42/42 44/44/44 45/45/45
f 42/42/42 45/45/45 27/27/27
f 42/42/42 27/27/27 26/26/26
f 42/42/42 26/26/26 20/20/20
f 42/42/42 20/20/20 41/41/41
f 46/46/46 47/47/47 48/48/48
f 46/46/46 48/48/48 49/49/49
f 46/46/46 49/49/49 50/50/50
f 46/46/46 50/50/50 51/51/51
f 46/46/46 51/51/51 52/52/52
f 46/46/46 52/52/52 53/53/53
f 46/46/46 53/53/53 54/54/54
f 46/46/46 54/54/54 47/47/47
f 55/55/55 56/56/56 57/57/57
f 55/55/55 57/57/57 58/58/58
f 55/55/55 58/58/58 48/48/48
f 55/55/55 48/48/48 47/47/47
f 55/55/55 47/47/47 54/54/54
f 55/55/55 54/54/54 59/59/59
f 55/55/55 59/59/59 60/60/60
f 55/55/55 60/60/60 56/56/56
f 61/61/61 62/62/62 63/63/63
f 61/61/61 63/63/63 64/64/64
f 61/61/61 64/64/64 65/65/65
f 61/61/61 65/65/65 66/66/66
f 61/61/61 66/66/66 67/67/67
f 61/61/61 67/67/67 68/68/68
f 61/61/61 68/68/68 69/69/69
f 61/61/61 69/69/69 62/62/62
f 70/70/70 66/66/66 65/65/65
f 70/70/70 65/65/65 71/71/71
f 70/70/70 71/71/71 72/72/72
f 70/70/70 72/72/72 73/73/73
f 70/70/70 73/73/73 74/74/74
f 70/70/70 74/74/74 75/75/75
f 70/70/70 75/75/75 67/67/67
f 70/70/70 67/67/67 66/66/66
f 76/76/76 77/77/77 54/54/54
f 76/76/76 54/54/54 53/53/53
f 76/76/76 53/53/53 52/52/52
f 76/76/76 52/52/52 78/78/78
f 76/76/76 78/78/78 72/72/72
f 76/76/76 72/72/72 71/71/71
f 76/76/76 71/71/71 65/65/65
f 76/76/76 65/65/65 77/77/77
f 79/79/79 80/80/80 60/60/60
f 79/79/79 60/60/60 59/59/59
f 79/79/79 59/59/59 54/54/54
f 79/79/79 54/54/54 77/77/77
f 79/79/79 77/77/77 65/65/65
f 79/79/79 65/65/65 64/64/64
f 79/79/79 64/64/64 63/63/63
f 79/79/79 63/63/63 80/80/80
f 81/81/81 82/82/82 69/69/69
f 81/81/81 69/69/69 68/68/68
f 81/81/81 68/68/68 67/67/67
f 81/81/81 67/67/67 83/83/83
f 81/81/81 83/83/83 84/84/84
f 81/81/81 84/84/84 85/85/85
f 81/81/81 85/85/85 86/86/86
f 81/81/81 86/86/86 82/82/82
f 87/87/87 83/83/83 67/67/67
f 87/87/87 67/67/67 75/75/75
f 87/87/87 75/75/75 74/74/74
f 87/87/87 74/74/74 88/88/88
f 87/87/87 88/88/88 89/89/89
f 87/87/87 89/89/89 90/90/90
f 87/87/87 90/90/90 84/84/84
f 87/87/87 84/84/84 83/83/83
f 91/91/91 92/92/92 38/38/38
f 91/91/91 38/38/38 37/37/37
f 91/91/91 37/37/37 18/18/18
f 91/91/91 18/18/18 93/93/93
f 91/91/91 93/93/93 69/69/69
f 91/91/91 69/69/69 82/82/82
f 91/91/91 82/82/82 94/94/94
f 91/91/91 94/94/94 92/92/92
f 95/95/95 96/96/96 44/44/44
f 95/95/95 44/44/44 43/43/43
f 95/95/95 43/43/43 40/40/40
f 95/95/95 40/40/40 97/97/97
f 95/95/95 97/97/97 84/84/84
f 95/95/95 84/84/84 90/90/90
f 95/95/95 90/90/90 98/98/98
f 95/95/95 98/98/98 96/96/96
f 99/99/99 100/100/100 7/7/7
f 99/99/99 7/7/7 6/6/6
f 99/99/99 6/6/6 5/5/5
f 99/99/99 5/5/5 101/101/101
f 99/99/99 101/101/101 52/52/52
f 99/99/99 52/52/52 51/51/51
f 99/99/99 51/51/51 102/102/102
f 99/99/99 102/102/102 100/100/100
f 103/103/103 104/104/104 15/15/15
f 103/103/103 15/15/15 14/14/14
f 103/103/103 14/14/14 9/9/9
f 103/103/103 9/9/9 105/105/105
f 103/103/103 105/105/105 48/48/48
f 103/103/103 48/48/48 58/58/58
f 103/103/103 58/58/58 106/106/106
f 103/103/103 106/106/106 104/104/104
f 107/107/107 108/108/108 12/12/12
f 107/107/107 12/12/12 11/11/11
f 107/107/107 11/11/11 15/15/15
f 107/107/107 15/15/15 104/104/104
f 107/107/107 104/104/104 106/106/106
f 107/107/107 106/106/106 56/56/56
f 107/107/107 56/56/56 60/60/60
f 107/107/107 60/60/60 108/108/108
f 109/109/109 97/97/97 40/40/40
f 109/109/109 40/40/40 39/39/39
f 109/109/109 39/39/39 38/38/38
f 109/109/109 38/38/38 92/92/92
f 109/109/109 92/92/92 94/94/94
f 109/109/109 94/94/94 85/85/85
f 109/109/109 85/85/85 84/84/84
f 109/109/109 84/84/84 97/97/97
f 110/110/110 111/111/111 27/27/27
f 110/110/110 27/27/27 45/45/45
f 110/110/110 45/45/45 44/44/44
f 110/110/110 44/44/44 96/96/96
f 110/110/110 96/96/96 98/98/98
f 110/110/110 98/98/98 88/88/88
f 110/110/110 88/88/88 74/74/74
f 110/110/110 74/74/74 111/111/111
f 112/112/112 105/105/105 9/9/9
f 112/112/112 9/9/9 8/8/8
f 112/112/112 8/8/8 7/7/7
f 112/112/112 7/7/7 100/100/100
f 112/112/112 100/100/100 102/102/102
f 112/112/112 102/102/102 49/49/49
f 112/112/112 49/49/49 48/48/48
f 112/112/112 48/48/48 105/105/105
f 113/113/113 101/101/101 5/5/5
f 113/113/113 5/5/5 33/33/33
f 113/113/113 33/33/33 29/29/29
f 113/113/113 29/29/29 114/114/114
f 113/113/113 114/114/114 72/72/72
f 113/113/113 72/72/72 78/78/78
f 113/113/113 78/78/78 52/52/52
f 113/113/113 52/52/52 101/101/101
f 115/115/115 116/116/116 24/24/24
f 115/115/115 24/24/24 35/35/35
f 115/115/115 35/35/35 12/12/12
f 115/115/115 12/12/12 108/108/108
f 115/115/115 108/108/108 60/60/60
f 115/115/115 60/60/60 80/80/80
f 115/115/115 80/80/80 63/63/63
f 115/115/115 63/63/63 116/116/116
f 117/117/117 93/93/93 18/18/18
f 117/117/117 18/18/18 17/17/17
f 117/117/117 17/17/17 24/24/24
f 117/117/117 24/24/24 116/116/116
f 117/117/117 116/116/116 63/63/63
f 117/117/117 63/63/63 62/62/62
f 117/117/117 62/62/62 69/69/69
f 117/117/117 69/69/69 93/93/93
f 118/118/118 114/114/114 29/29/29
f 118/118/118 29/29/29 28/28/28
f 118/118/118 28/28/28 27/27/27
f 118/118/118 27/27/27 111/111/111
f 118/118/118 111/111/111 74/74/74
f 118/118/118 74/74/74 73/73/73
f 118/118/118 73/73/73 72/72/72
f 118/118/118 72/72/72 114/114/114
