v -2.396835 0.748024 -1.191086
v -2.396727 0.748451 -1.193578
v -2.399156 0.746124 -1.193385
v -2.398963 0.745845 -1.190591
v -2.399091 0.745698 -1.188419
v -2.39736 0.747618 -1.189122
v -2.396194 0.74869 -1.190066
v -2.395258 0.749486 -1.191559
v -2.394871 0.750074 -1.193749
v -2.397871 0.748712 -1.195821
v -2.399177 0.748824 -1.197426
v -2.401155 0.747068 -1.197852
v -2.40014 0.746627 -1.195972
v -2.396155 0.750081 -1.195657
v -2.397666 0.749666 -1.19679
v -2.406393 0.738132 -1.19578
v -2.407065 0.738534 -1.197694
v -2.408604 0.735272 -1.19726
v -2.407995 0.734912 -1.195571
v -2.407315 0.734493 -1.193288
v -2.405639 0.737663 -1.193194
v -2.40376 0.7407 -1.193164
v -2.404569 0.741206 -1.195862
v -2.405304 0.741647 -1.197855
v -2.405239 0.737367 -1.190507
v -2.406974 0.734235 -1.190908
v -2.406816 0.734086 -1.189089
v -2.405044 0.737193 -1.188455
v -2.403189 0.740244 -1.18819
v -2.403362 0.740405 -1.190346
v -2.401204 0.743268 -1.19036
v -2.40155 0.74353 -1.193237
v -2.401119 0.74316 -1.188143
v -2.402429 0.744081 -1.195956
v -2.403265 0.744584 -1.197951
v -2.409466 0.731597 -1.195098
v -2.409974 0.731889 -1.196346
v -2.410559 0.729907 -1.195537
v -2.410493 0.72906 -1.194656
v -2.410066 0.728809 -1.193511
v -2.408919 0.731266 -1.193406
v -2.408704 0.731092 -1.191618
v -2.409971 0.728714 -1.192271
v -2.40962 0.729284 -1.191247
v -2.408638 0.731003 -1.190243
v -2.396647 0.74784 -1.191116
v -2.396546 0.74827 -1.193644
v -2.394738 0.749936 -1.193798
v -2.39512 0.749345 -1.191579
v -2.39609 0.748586 -1.190073
v -2.397217 0.74748 -1.189126
v -2.398942 0.745566 -1.188428
v -2.398768 0.745669 -1.190625
v -2.398967 0.745951 -1.193451
v -2.397699 0.748538 -1.195922
v -2.399054 0.748699 -1.197519
v -2.397574 0.749571 -1.196855
v -2.396029 0.749948 -1.195734
v -2.39996 0.74646 -1.19607
v -2.401023 0.746947 -1.19794
v -2.406179 0.738003 -1.195869
v -2.406908 0.738439 -1.197772
v -2.405153 0.741543 -1.197935
v -2.404364 0.741064 -1.195953
v -2.403549 0.740554 -1.193232
v -2.405419 0.73753 -1.193262
v -2.40709 0.734369 -1.193355
v -2.407775 0.734792 -1.195661
v -2.408443 0.735184 -1.197339
v -2.405015 0.737231 -1.190551
v -2.403146 0.740256 -1.19039
v -2.403025 0.740131 -1.18821
v -2.404874 0.737089 -1.188477
v -2.406642 0.733989 -1.18911
v -2.406744 0.734108 -1.190952
v -2.400999 0.743105 -1.190399
v -2.40135 0.74337 -1.193304
v -2.400963 0.743036 -1.188159
v -2.402236 0.743926 -1.19605
v -2.403124 0.74447 -1.198035
v -2.409245 0.73148 -1.195189
v -2.409812 0.731804 -1.196426
v -2.408691 0.731145 -1.193473
v -2.409895 0.728719 -1.193562
v -2.410327 0.728974 -1.194725
v -2.410438 0.729843 -1.195594
v -2.408473 0.730968 -1.19166
v -2.408463 0.730909 -1.190263
v -2.409491 0.729215 -1.191264
v -2.409797 0.728622 -1.192302
v -2.410072 0.73195 -1.1968
v -2.410866 0.729272 -1.195566
v -2.408737 0.735354 -1.197861
v -2.410438 0.729843 -1.195594
v -2.410316 0.727881 -1.192502
v -2.409926 0.728647 -1.191268
v -2.410373 0.727951 -1.193569
v -2.409491 0.729215 -1.191264
v -2.397471 0.747422 -1.188465
v -2.396064 0.748787 -1.189786
v -2.399066 0.74559 -1.187695
v -2.39609 0.748586 -1.190073
v -2.395528 0.750478 -1.195637
v -2.397656 0.749843 -1.197061
v -2.394194 0.750553 -1.193827
v -2.397574 0.749571 -1.196855
v -2.399559 0.748807 -1.198006
v -2.401435 0.747162 -1.198521
v -2.410762 0.728176 -1.19454
v -2.408538 0.730932 -1.189791
v -2.406686 0.733993 -1.188489
v -2.394672 0.74991 -1.191725
v -2.401021 0.743068 -1.187408
v -2.403058 0.74014 -1.187478
v -2.403482 0.744702 -1.198656
v -2.405483 0.741749 -1.198557
v -2.407221 0.738626 -1.198369
v -2.404903 0.737088 -1.187778
vn -0.6924 0.7208 0.0323
vn -0.6468 0.7217 0.2463
vn -0.6895 0.6799 0.2496
vn -0.7327 0.678 0.0587
vn -0.7488 0.6592 0.0691
vn -0.6923 0.7204 0.0403
vn -0.6489 0.7606 0.0206
vn -0.62 0.7818 0.0663
vn -0.5756 0.7819 0.2394
vn -0.6008 0.6599 0.4511
vn -0.6038 0.662 0.444
vn -0.6708 0.6075 0.4254
vn -0.6508 0.6236 0.4331
vn -0.545 0.7323 0.4083
vn -0.5539 0.6977 0.4542
vn -0.8135 0.4591 0.357
vn -0.8283 0.4585 0.322
vn -0.8444 0.4307 0.3184
vn -0.8271 0.4284 0.3638
vn -0.8623 0.439 0.2524
vn -0.8419 0.4764 0.2534
vn -0.7964 0.5489 0.2539
vn -0.769 0.5212 0.37
vn -0.7868 0.5121 0.3445
vn -0.8595 0.4896 0.1468
vn -0.8764 0.4612 0.1382
vn -0.8735 0.45 0.1854
vn -0.8586 0.4787 0.1832
vn -0.8269 0.5387 0.1611
vn -0.8206 0.5554 0.1341
vn -0.7731 0.6261 0.1011
vn -0.7393 0.6242 0.2524
vn -0.7878 0.6044 0.1184
vn -0.708 0.583 0.3985
vn -0.7297 0.566 0.3836
vn -0.8254 0.4107 0.3872
vn -0.8469 0.4095 0.3391
vn -0.8446 0.3884 0.3684
vn -0.8424 0.3552 0.4052
vn -0.895 0.3697 0.2495
vn -0.8714 0.4211 0.2518
vn -0.8856 0.4507 0.1122
vn -0.9117 0.4011 0.0884
vn -0.8966 0.4231 0.1306
vn -0.8854 0.4353 0.1627
vn 0.7107 -0.7035 -0.0057
vn 0.6588 -0.7105 -0.2473
vn 0.7035 -0.6651 -0.2505
vn 0.7576 -0.6484 0.0753
vn 0.7678 -0.6114 0.1911
vn 0.7639 -0.6232 0.1674
vn 0.7692 -0.6316 0.0971
vn 0.7348 -0.6768 -0.0435
vn 0.6895 -0.6799 -0.2496
vn 0.6076 -0.635 -0.4771
vn 0.5898 -0.508 -0.6277
vn 0.5843 -0.4901 -0.6468
vn 0.6202 -0.5576 -0.5518
vn 0.6465 -0.6183 -0.4469
vn 0.6229 -0.5346 -0.5711
vn 0.8078 -0.457 -0.3722
vn 0.7624 -0.4403 -0.4743
vn 0.7295 -0.4824 -0.4848
vn 0.7641 -0.5183 -0.384
vn 0.7964 -0.5488 -0.2539
vn 0.842 -0.4762 -0.2534
vn 0.8623 -0.4389 -0.2524
vn 0.8195 -0.4278 -0.3813
vn 0.7531 -0.432 -0.4961
vn 0.8607 -0.492 -0.1307
vn 0.822 -0.5568 -0.1192
vn 0.834 -0.5517 -0.0074
vn 0.8621 -0.5065 -0.0185
vn 0.8631 -0.5049 0.0064
vn 0.8767 -0.4658 -0.1196
vn 0.7745 -0.6265 -0.0866
vn 0.7393 -0.6242 -0.2524
vn 0.7964 -0.6037 0.0344
vn 0.7033 -0.5793 -0.4119
vn 0.6751 -0.5232 -0.52
vn 0.8073 -0.4231 -0.4113
vn 0.7106 -0.4473 -0.5431
vn 0.8659 -0.432 -0.2522
vn 0.8404 -0.479 -0.2535
vn 0.7436 -0.4679 -0.4776
vn 0.6805 -0.4606 -0.5698
vn 0.8782 -0.4702 -0.0873
vn 0.8427 -0.535 0.0605
vn 0.8254 -0.5569 0.0925
vn 0.8447 -0.5351 -0.0156
vn -0.5373 -0.1116 -0.8359
vn -0.6638 -0.4326 -0.61
vn -0.4505 0.0052 -0.8928
vn 0.6805 -0.4606 -0.5698
vn -0.4257 -0.8802 0.2098
vn -0.3805 -0.6209 0.6853
vn -0.349 -0.9352 -0.0596
vn 0.8254 -0.5569 0.0925
vn 0.1914 0.3258 0.9258
vn 0.3836 0.5253 0.7595
vn 0.0896 0.1505 0.9845
vn 0.7678 -0.6114 0.1911
vn 0.4747 0.7185 -0.5083
vn 0.0697 0.7334 -0.6762
vn 0.7754 0.6264 -0.0789
vn 0.5843 -0.4901 -0.6468
vn -0.1852 0.5759 -0.7963
vn -0.3126 0.4172 -0.8533
vn -0.5261 -0.8135 -0.2479
vn -0.1532 -0.3656 0.9181
vn -0.0442 -0.264 0.9635
vn 0.6829 0.5806 0.4434
vn 0.0411 0.0115 0.9991
vn 0.0271 -0.0746 0.9968
vn -0.3709 0.2848 -0.8839
vn -0.3878 0.2008 -0.8996
vn -0.4013 0.1162 -0.9085
vn 0.0134 -0.1591 0.9872
vt 0.839504 0.118056
vt 0.856743 0.205307
vt 0.741230 0.205307
vt 0.734555 0.106726
vt 0.724541 0.032791
vt 0.813647 0.052618
vt 0.868992 0.081539
vt 0.913398 0.129584
vt 0.940923 0.205307
vt 0.839504 0.292557
vt 0.813647 0.357995
vt 0.724541 0.377822
vt 0.734555 0.303887
vt 0.913398 0.281029
vt 0.868992 0.329074
vt 0.369475 0.299954
vt 0.368286 0.370940
vt 0.245840 0.351447
vt 0.246397 0.288815
vt 0.246768 0.205307
vt 0.370268 0.205307
vt 0.494283 0.205307
vt 0.492822 0.304944
vt 0.490632 0.379672
vt 0.369475 0.110659
vt 0.246397 0.121798
vt 0.245841 0.059166
vt 0.368286 0.039673
vt 0.490632 0.030941
vt 0.492822 0.105669
vt 0.616755 0.103478
vt 0.619174 0.205307
vt 0.613127 0.027106
vt 0.616755 0.307135
vt 0.613126 0.383507
vt 0.123273 0.268175
vt 0.123047 0.315326
vt 0.054743 0.283353
vt 0.030912 0.249131
vt 0.030973 0.205306
vt 0.123423 0.205306
vt 0.123273 0.142438
vt 0.030912 0.161481
vt 0.054744 0.127260
vt 0.123047 0.095287
vt 0.839504 0.118056
vt 0.856743 0.205307
vt 0.968983 0.205307
vt 0.938030 0.133427
vt 0.876123 0.061548
vt 0.805028 0.030806
vt 0.721203 0.008146
vt 0.734555 0.106726
vt 0.741230 0.205307
vt 0.839504 0.292557
vt 0.805028 0.379807
vt 0.876123 0.349065
vt 0.938030 0.277186
vt 0.734555 0.303887
vt 0.721203 0.402467
vt 0.369475 0.299954
vt 0.367890 0.394602
vt 0.489902 0.404581
vt 0.492822 0.304944
vt 0.494283 0.205307
vt 0.370268 0.205307
vt 0.246768 0.205307
vt 0.246397 0.288815
vt 0.245655 0.372324
vt 0.369475 0.110659
vt 0.492822 0.105669
vt 0.489902 0.006032
vt 0.367890 0.016011
vt 0.245655 0.038289
vt 0.246397 0.121798
vt 0.616755 0.103478
vt 0.619174 0.205307
vt 0.611917 0.001649
vt 0.616755 0.307135
vt 0.611917 0.408964
vt 0.123273 0.268175
vt 0.122972 0.331043
vt 0.123423 0.205306
vt 0.000156 0.205306
vt 0.000125 0.242784
vt 0.000064 0.280261
vt 0.123273 0.142438
vt 0.122972 0.079570
vt 0.000064 0.130352
vt 0.000125 0.167829
vt 0.122972 0.331043
vt 0.030806 0.283587
vt 0.245655 0.372324
vt 0.030806 0.283587
vt 0.000125 0.167829
vt 0.030806 0.127026
vt 0.000156 0.205306
vt 0.030806 0.127026
vt 0.805028 0.030806
vt 0.873826 0.071832
vt 0.721203 0.008146
vt 0.873826 0.071832
vt 0.938030 0.277186
vt 0.873826 0.338781
vt 0.968983 0.205307
vt 0.873826 0.338781
vt 0.805028 0.379807
vt 0.721203 0.402467
vt 0.000125 0.242784
vt 0.122972 0.079570
vt 0.245655 0.038289
vt 0.938030 0.133427
vt 0.611917 0.001649
vt 0.489902 0.006032
vt 0.611917 0.408964
vt 0.489902 0.404581
vt 0.367890 0.394602
vt 0.367890 0.016011
f 1/1/1 2/2/2 3/3/3
f 1/1/1 3/3/3 4/4/4
f 1/1/1 4/4/4 5/5/5
f 1/1/1 5/5/5 6/6/6
f 1/1/1 6/6/6 7/7/7
f 1/1/1 7/7/7 8/8/8
f 1/1/1 8/8/8 9/9/9
f 1/1/1 9/9/9 2/2/2
f 10/10/10 11/11/11 12/12/12
f 10/10/10 12/12/12 13/13/13
f 10/10/10 13/13/13 3/3/3
f 10/10/10 3/3/3 2/2/2
f 10/10/10 2/2/2 9/9/9
f 10/10/10 9/9/9 14/14/14
f 10/10/10 14/14/14 15/15/15
f 10/10/10 15/15/15 11/11/11
f 16/16/16 17/17/17 18/18/18
f 16/16/16 18/18/18 19/19/19
f 16/16/16 19/19/19 20/20/20
f 16/16/16 20/20/20 21/21/21
f 16/16/16 21/21/21 22/22/22
f 16/16/16 22/22/22 23/23/23
f 16/16/16 23/23/23 24/24/24
f 16/16/16 24/24/24 17/17/17
f 25/25/25 21/21/21 20/20/20
f 25/25/25 20/20/20 26/26/26
f 25/25/25 26/26/26 27/27/27
f 25/25/25 27/27/27 28/28/28
f 25/25/25 28/28/28 29/29/29
f 25/25/25 29/29/29 30/30/30
f 25/25/25 30/30/30 22/22/22
f 25/25/25 22/22/22 21/21/21
f 31/31/31 32/32/32 22/22/22
f 31/31/31 22/22/22 30/30/30
f 31/31/31 30/30/30 29/29/29
f 31/31/31 29/29/29 33/33/33
f 31/31/31 33/33/33 5/5/5
f 31/31/31 5/5/5 4/4/4
f 31/31/31 4/4/4 3/3/3
f 31/31/31 3/3/3 32/32/32
f 34/34/34 35/35/35 24/24/24
f 34/34/34 24/24/24 23/23/23
f 34/34/34 23/23/23 22/22/22
f 34/34/34 22/22/22 32/32/32
f 34/34/34 32/32/32 3/3/3
f 34/34/34 3/3/3 13/13/13
f 34/34/34 13/13/13 12/12/12
f 34/34/34 12/12/12 35/35/35
f 36/36/36 37/37/37 38/38/38
f 36/36/36 38/38/38 39/39/39
f 36/36/36 39/39/39 40/40/40
f 36/36/36 40/40/40 41/41/41
f 36/36/36 41/41/41 20/20/20
f 36/36/36 20/20/20 19/19/19
f 36/36/36 19/19/19 18/18/18
f 36/36/36 18/18/18 37/37/37
f 42/42/42 41/41/41 40/40/40
f 42/42/42 40/40/40 43/43/43
f 42/42/42 43/43/43 44/44/44
f 42/42/42 44/44/44 45/45/45
f 42/42/42 45/45/45 27/27/27
f 42/42/42 27/27/27 26/26/26
f 42/42/42 26/26/26 20/20/20
f 42/42/42 20/20/20 41/41/41
f 46/46/46 47/47/47 48/48/48
f 46/46/46 48/48/48 49/49/49
f 46/46/46 49/49/49 50/50/50
f 46/46/46 50/50/50 51/51/51
f 46/46/46 51/51/51 52/52/52
f 46/46/46 52/52/52 53/53/53
f 46/46/46 53/53/53 54/54/54
f 46/46/46 54/54/54 47/47/47
f 55/55/55 56/56/56 57/57/57
f 55/55/55 57/57/57 58/58/58
f 55/55/55 58/58/58 48/48/48
f 55/55/55 48/48/48 47/47/47
f 55/55/55 47/47/47 54/54/54
f 55/55/55 54/54/54 59/59/59
f 55/55/55 59/59/59 60/60/60
f 55/55/55 60/60/60 56/56/56
f 61/61/61 62/62/62 63/63/63
f 61/61/61 63/63/63 64/64/64
f 61/61/61 64/64/64 65/65/65
f 61/61/61 65/65/65 66/66/66
f 61/61/61 66/66/66 67/67/67
f 61/61/61 67/67/67 68/68/68
f 61/61/61 68/68/68 69/69/69
f 61/61/61 69/69/69 62/62/62
f 70/70/70 66/66/66 65/65/65
f 70/70/70 65/65/65 71/71/71
f 70/70/70 71/71/71 72/72/72
f 70/70/70 72/72/72 73/73/73
f 70/70/70 73/73/73 74/74/74
f 70/70/70 74/74/74 75/75/75
f 70/70/70 75/75/75 67/67/67
f 70/70/70 67/67/67 66/66/66
f 76/76/76 77/77/77 54/54/54
f 76/76/76 54/54/54 53/53/53
f 76/76/76 53/53/53 52/52/52
f 76/76/76 52/52/52 78/78/78
f 76/76/76 78/78/78 72/72/72
f 76/76/76 72/72/72 71/71/71
f 76/76/76 71/71/71 65/65/65
f 76/76/76 65/65/65 77/77/77
f 79/79/79 80/80/80 60/60/60
f 79/79/79 60/60/60 59/59/59
f 79/79/79 59/59/59 54/54/54
f 79/79/79 54/54/54 77/77/77
f 79/79/79 77/77/77 65/65/65
f 79/79/79 65/65/65 64/64/64
f 79/79/79 64/64/64 63/63/63
f 79/79/79 63/63/63 80/80/80
f 81/81/81 82/82/82 69/69/69
f 81/81/81 69/69/69 68/68/68
f 81/81/81 68/68/68 67/67/67
f 81/81/81 67/67/67 83/83/83
f 81/81/81 83/83/83 84/84/84
f 81/81/81 84/84/84 85/85/85
f 81/81/81 85/85/85 86/86/86
f 81/81/81 86/86/86 82/82/82
f 87/87/87 83/83/83 67/67/67
f 87/87/87 67/67/67 75/75/75
f 87/87/87 75/75/75 74/74/74
f 87/87/87 74/74/74 88/88/88
f 87/87/87 88/88/88 89/89/89
f 87/87/87 89/89/89 90/90/90
f 87/87/87 90/90/90 84/84/84
f 87/87/87 84/84/84 83/83/83
f 91/91/91 92/92/92 38/38/38
f 91/91/91 38/38/38 37/37/37
f 91/91/91 37/37/37 18/18/18
f 91/91/91 18/18/18 93/93/93
f 91/91/91 93/93/93 69/69/69
f 91/91/91 69/69/69 82/82/82
f 91/91/91 82/82/82 94/94/94
f 91/91/91 94/94/94 92/92/92
f 95/95/95 96/96/96 44/44/44
f 95/95/95 44/44/44 43/43/43
f 95/95/95 43/43/43 40/40/40
f 95/95/95 40/40/40 97/97/97
f 95/95/95 97/97/97 84/84/84
f 95/95/95 84/84/84 90/90/90
f 95/95/95 90/90/90 98/98/98
f 95/95/95 98/98/98 96/96/96
f 99/99/99 100/100/100 7/7/7
f 99/99/99 7/7/7 6/6/6
f 99/99/99 6/6/6 5/5/5
f 99/99/99 5/5/5 101/101/101
f 99/99/99 101/101/101 52/52/52
f 99/99/99 52/52/52 51/51/51
f 99/99/99 51/51/51 102/102/102
f 99/99/99 102/102/102 100/100/100
f 103/103/103 104/104/104 15/15/15
f 103/103/103 15/15/15 14/14/14
f 103/103/103 14/14/14 9/9/9
f 103/103/103 9/9/9 105/105/105
f 103/103/103 105/105/105 48/48/48
f 103/103/103 48/48/48 58/58/58
f 103/103/103 58/58/58 106/106/106
f 103/103/103 106/106/106 104/104/104
f 107/107/107 108/108/108 12/12/12
f 107/107/107 12/12/12 11/11/11
f 107/107/107 11/11/11 15/15/15
f 107/107/107 15/15/15 104/104/104
f 107/107/107 104/104/104 106/106/106
f 107/107/107 106/106/106 56/56/56
f 107/107/107 56/56/56 60/60/60
f 107/107/107 60/60/60 108/108/108
f 109/109/109 97/97/97 40/40/40
f 109/109/109 40/40/40 39/39/39
f 109/109/109 39/39/39 38/38/38
f 109/109/109 38/38/38 92/92/92
f 109/109/109 92/92/92 94/94/94
f 109/109/109 94/94/94 85/85/85
f 109/109/109 85/85/85 84/84/84
f 109/109/109 84/84/84 97/97/97
f 110/110/110 111/111/111 27/27/27
f 110/110/110 27/27/27 45/45/45
f 110/110/110 45/45/45 44/44/44
f 110/110/110 44/44/44 96/96/96
f 110/110/110 96/96/96 98/98/98
f 110/110/110 98/98/98 88/88/88
f 110/110/110 88/88/88 74/74/74
f 110/110/110 74/74/74 111/111/111
f 112/112/112 105/105/105 9/9/9
f 112/112/112 9/9/9 8/8/8
f 112/112/112 8/8/8 7/7/7
f 112/112/112 7/7/7 100/100/100
f 112/112/112 100/100/100 102/102/102
f 112/112/112 102/102/102 49/49/49
f 112/112/112 49/49/49 48/48/48
f 112/112/112 48/48/48 105/105/105
f 113/113/113 101/101/101 5/5/5
f 113/113/113 5/5/5 33/33/33
f 113/113/113 33/33/33 29/29/29
f 113/113/113 29/29/29 114/114/114
f 113/113/113 114/114/114 72/72/72
f 113/113/113 72/72/72 78/78/78
f 113/113/113 78/78/78 52/52/52
f 113/113/113 52/52/52 101/101/101
f 115/115/115 116/116/116 24/24/24
f 115/115/115 24/24/24 35/35/35
f 115/115/115 35/35/35 12/12/12
f 115/115/115 12/12/12 108/108/108
f 115/115/115 108/108/108 60/60/60
f 115/115/115 60/60/60 80/80/80
f 115/115/115 80/80/80 63/63/63
f 115/115/115 63/63/63 116/116/116
f 117/117/117 93/93/93 18/18/18
f 117/117/117 18/18/18 17/17/17
f 117/117/117 17/17/17 24/24/24
f 117/117/117 24/24/24 116/116/116
f 117/117/117 116/116/116 63/63/63
f 117/117/117 63/63/63 62/62/62
f 117/117/117 62/62/62 69/69/69
f 117/117/117 69/69/69 93/93/93
f 118/118/118 114/114/114 29/29/29
f 118/118/118 29/29/29 28/28/28
f 118/118/118 28/28/28 27/27/27
f 118/118/118 27/27/27 111/111/111
f 118/118/118 111/111/111 74/74/74
f 118/118/118 74/74/74 73/73/73
f 118/118/118 73/73/73 72/72/72
f 118/118/118 72/72/72 114/114/114
