v -2.410855 0.787871 -1.216664
v -2.409509 0.788319 -1.215266
v -2.408256 0.786425 -1.216635
v -2.409939 0.786087 -1.218034
v -2.411097 0.785873 -1.219283
v -2.411674 0.787453 -1.218012
v -2.411793 0.788364 -1.216889
v -2.411471 0.789077 -1.215583
v -2.410451 0.789645 -1.214199
v -2.407618 0.788596 -1.214704
v -2.405996 0.788724 -1.214574
v -2.404648 0.787317 -1.215377
v -2.40626 0.786911 -1.215806
v -2.408669 0.789705 -1.213887
v -2.407195 0.789393 -1.214105
v -2.402822 0.780082 -1.219046
v -2.401376 0.780466 -1.218403
v -2.400731 0.777848 -1.219354
v -2.402015 0.777505 -1.219912
v -2.403673 0.777091 -1.220751
v -2.404691 0.779617 -1.220005
v -2.405781 0.782046 -1.219103
v -2.403819 0.782543 -1.218114
v -2.402296 0.78296 -1.217466
v -2.406427 0.779275 -1.221229
v -2.405204 0.776791 -1.221843
v -2.406318 0.776597 -1.222737
v -2.407693 0.779052 -1.222227
v -2.408904 0.781481 -1.221467
v -2.40759 0.781699 -1.220398
v -2.408806 0.784 -1.219306
v -2.406991 0.784325 -1.217946
v -2.410106 0.783818 -1.22046
v -2.404979 0.784856 -1.216989
v -2.4034 0.78532 -1.2164
v -2.401428 0.774845 -1.220845
v -2.400448 0.775118 -1.220466
v -2.400556 0.773511 -1.221144
v -2.401078 0.772809 -1.221546
v -2.401956 0.772571 -1.221916
v -2.40268 0.774523 -1.221441
v -2.403808 0.774312 -1.222285
v -2.402709 0.772444 -1.222533
v -2.40349 0.772854 -1.22292
v -2.404621 0.774184 -1.222993
v -2.410938 0.787733 -1.216532
v -2.409568 0.788185 -1.215118
v -2.410494 0.789542 -1.21409
v -2.411533 0.788971 -1.215487
v -2.411844 0.788285 -1.216821
v -2.411748 0.787348 -1.217922
v -2.411171 0.785773 -1.219187
v -2.410023 0.785955 -1.217897
v -2.408319 0.786296 -1.216483
v -2.407652 0.788468 -1.214543
v -2.406009 0.788633 -1.214447
v -2.407207 0.789324 -1.214013
v -2.408692 0.789607 -1.213767
v -2.406301 0.786789 -1.215643
v -2.404667 0.787229 -1.215249
v -2.402886 0.779989 -1.218869
v -2.401416 0.780399 -1.218266
v -2.402331 0.782886 -1.217332
v -2.403877 0.782441 -1.217942
v -2.405856 0.781939 -1.218939
v -2.404771 0.77952 -1.219837
v -2.403756 0.777002 -1.220581
v -2.402082 0.77742 -1.219733
v -2.400773 0.777786 -1.219216
v -2.406522 0.779175 -1.221071
v -2.407681 0.781589 -1.220245
v -2.40898 0.781397 -1.221358
v -2.407772 0.778976 -1.222115
v -2.406399 0.776527 -1.222623
v -2.405302 0.776699 -1.221683
v -2.408893 0.783878 -1.219161
v -2.40706 0.784206 -1.217789
v -2.410181 0.783726 -1.220358
v -2.405029 0.784743 -1.216821
v -2.403428 0.785238 -1.216269
v -2.401495 0.774763 -1.220664
v -2.40049 0.775059 -1.220327
v -2.402765 0.774437 -1.22127
v -2.402019 0.772506 -1.221787
v -2.401128 0.772747 -1.22141
v -2.400589 0.773467 -1.221041
v -2.403908 0.774222 -1.222125
v -2.404704 0.774115 -1.222878
v -2.403549 0.772804 -1.222834
v -2.402785 0.772376 -1.222413
v -2.400138 0.775183 -1.220277
v -2.400362 0.773006 -1.221271
v -2.40032 0.777936 -1.219106
v -2.400589 0.773467 -1.221041
v -2.402376 0.771791 -1.222562
v -2.403301 0.772348 -1.223051
v -2.401743 0.771892 -1.222017
v -2.403549 0.772804 -1.222834
v -2.411982 0.787267 -1.218423
v -2.412024 0.788431 -1.216972
v -2.411519 0.785756 -1.219658
v -2.411844 0.788285 -1.216821
v -2.409029 0.790031 -1.213561
v -2.40705 0.789545 -1.21396
v -2.410784 0.790041 -1.213796
v -2.407207 0.789324 -1.214013
v -2.405459 0.788727 -1.214473
v -2.404117 0.787414 -1.215176
v -2.400984 0.772103 -1.221719
v -2.404931 0.77411 -1.223179
v -2.406727 0.776501 -1.222986
v -2.411704 0.789432 -1.215181
v -2.410575 0.783716 -1.220801
v -2.409377 0.781371 -1.221776
v -2.402884 0.785438 -1.216144
v -2.401802 0.783067 -1.217189
v -2.40091 0.780565 -1.218127
v -2.408152 0.778943 -1.222512
vn 0.4433 0.6966 -0.5641
vn 0.2576 0.6869 -0.6795
vn 0.2857 0.6437 -0.7099
vn 0.4531 0.6513 -0.6086
vn 0.4571 0.6315 -0.6263
vn 0.4373 0.696 -0.5695
vn 0.4205 0.7385 -0.5271
vn 0.3672 0.758 -0.539
vn 0.212 0.7495 -0.6271
vn 0.0795 0.6151 -0.7844
vn 0.0867 0.6175 -0.7818
vn 0.1476 0.5622 -0.8137
vn 0.1279 0.5784 -0.8056
vn 0.07 0.6913 -0.7191
vn 0.044 0.6541 -0.7551
vn 0.2987 0.4136 -0.86
vn 0.3342 0.4146 -0.8464
vn 0.3486 0.3865 -0.8538
vn 0.304 0.3823 -0.8726
vn 0.4083 0.398 -0.8215
vn 0.3927 0.4359 -0.8098
vn 0.3593 0.5096 -0.7818
vn 0.2574 0.4762 -0.8408
vn 0.2882 0.468 -0.8354
vn 0.4814 0.4545 -0.7494
vn 0.4999 0.4262 -0.7539
vn 0.4642 0.4124 -0.7838
vn 0.4548 0.4416 -0.7734
vn 0.4476 0.5036 -0.7389
vn 0.4622 0.522 -0.7168
vn 0.4516 0.5959 -0.664
vn 0.3193 0.5865 -0.7443
vn 0.4498 0.5729 -0.6852
vn 0.1933 0.5381 -0.8204
vn 0.2194 0.5213 -0.8246
vn 0.2862 0.3634 -0.8866
vn 0.3359 0.3643 -0.8686
vn 0.3135 0.3417 -0.886
vn 0.2862 0.3063 -0.9079
vn 0.4344 0.328 -0.8388
vn 0.4154 0.3799 -0.8265
vn 0.525 0.4169 -0.742
vn 0.5614 0.3678 -0.7413
vn 0.5203 0.3877 -0.7609
vn 0.4892 0.3985 -0.7758
vn -0.4755 -0.6803 0.5578
vn -0.2655 -0.6753 0.6881
vn -0.2951 -0.6284 0.7197
vn -0.5672 -0.6287 0.532
vn -0.6583 -0.5981 0.457
vn -0.6382 -0.6086 0.4714
vn -0.5915 -0.6125 0.5243
vn -0.4655 -0.6509 0.5996
vn -0.2857 -0.6438 0.7099
vn -0.066 -0.5886 0.8057
vn 0.0522 -0.454 0.8895
vn 0.0693 -0.4351 0.8977
vn -0.0225 -0.5066 0.8618
vn -0.1151 -0.5725 0.8118
vn -0.011 -0.4827 0.8757
vn -0.284 -0.4109 0.8663
vn -0.1792 -0.3898 0.9033
vn -0.1481 -0.4322 0.8895
vn -0.2439 -0.4727 0.8468
vn -0.3594 -0.5094 0.7819
vn -0.3928 -0.4357 0.8098
vn -0.4084 -0.3978 0.8215
vn -0.2861 -0.3809 0.8792
vn -0.1572 -0.3806 0.9113
vn -0.4938 -0.4578 0.7393
vn -0.474 -0.5242 0.7075
vn -0.5628 -0.5251 0.6384
vn -0.5751 -0.4785 0.6636
vn -0.5938 -0.4783 0.6469
vn -0.5134 -0.4318 0.7416
vn -0.4631 -0.5971 0.655
vn -0.3193 -0.5865 0.7443
vn -0.5658 -0.5805 0.5856
vn -0.1805 -0.5338 0.8261
vn -0.0841 -0.4726 0.8772
vn -0.2562 -0.3749 0.8909
vn -0.0936 -0.3945 0.9141
vn -0.4111 -0.3909 0.8235
vn -0.3916 -0.4386 0.8089
vn -0.1632 -0.4178 0.8937
vn -0.0531 -0.4073 0.9117
vn -0.5376 -0.4379 0.7205
vn -0.6181 -0.5119 0.5965
vn -0.6288 -0.536 0.5633
vn -0.5647 -0.5076 0.6507
vn 0.9767 -0.0805 0.1988
vn 0.9083 -0.4173 -0.0291
vn 0.9551 0.0414 0.2933
vn -0.0531 -0.4073 0.9117
vn 0.1617 -0.903 -0.3981
vn -0.2167 -0.6698 -0.7102
vn 0.3032 -0.9405 -0.1531
vn -0.6288 -0.536 0.5633
vn -0.8056 0.2791 -0.5225
vn -0.8235 0.4925 -0.2817
vn -0.7738 0.098 -0.6258
vn -0.6583 -0.5981 0.457
vn 0.0217 0.76 0.6496
vn 0.4237 0.7721 0.4736
vn -0.4938 0.6528 0.5744
vn 0.0693 -0.4351 0.8977
vn 0.6905 0.6136 0.3829
vn 0.8228 0.455 0.3405
vn 0.5592 -0.8139 -0.1574
vn -0.5465 -0.4216 -0.7236
vn -0.6573 -0.3192 -0.6827
vn -0.8041 0.5752 0.1497
vn -0.7475 -0.0439 -0.6628
vn -0.7341 -0.1304 -0.6663
vn 0.8877 0.3232 0.3278
vn 0.9125 0.2394 0.3316
vn 0.9302 0.1546 0.3329
vn -0.7164 -0.2141 -0.664
vt 0.839504 0.118056
vt 0.856743 0.205307
vt 0.741230 0.205307
vt 0.734555 0.106726
vt 0.724541 0.032791
vt 0.813647 0.052618
vt 0.868992 0.081539
vt 0.913398 0.129584
vt 0.940923 0.205307
vt 0.839504 0.292557
vt 0.813647 0.357995
vt 0.724541 0.377822
vt 0.734555 0.303887
vt 0.913398 0.281029
vt 0.868992 0.329074
vt 0.369475 0.299954
vt 0.368286 0.370940
vt 0.245840 0.351447
vt 0.246397 0.288815
vt 0.246768 0.205307
vt 0.370268 0.205307
vt 0.494283 0.205307
vt 0.492822 0.304944
vt 0.490632 0.379672
vt 0.369475 0.110659
vt 0.246397 0.121798
vt 0.245841 0.059166
vt 0.368286 0.039673
vt 0.490632 0.030941
vt 0.492822 0.105669
vt 0.616755 0.103478
vt 0.619174 0.205307
vt 0.613127 0.027106
vt 0.616755 0.307135
vt 0.613126 0.383507
vt 0.123273 0.268175
vt 0.123047 0.315326
vt 0.054743 0.283353
vt 0.030912 0.249131
vt 0.030973 0.205306
vt 0.123423 0.205306
vt 0.123273 0.142438
vt 0.030912 0.161481
vt 0.054744 0.127260
vt 0.123047 0.095287
vt 0.839504 0.118056
vt 0.856743 0.205307
vt 0.968983 0.205307
vt 0.938030 0.133427
vt 0.876123 0.061548
vt 0.805028 0.030806
vt 0.721203 0.008146
vt 0.734555 0.106726
vt 0.741230 0.205307
vt 0.839504 0.292557
vt 0.805028 0.379807
vt 0.876123 0.349065
vt 0.938030 0.277186
vt 0.734555 0.303887
vt 0.721203 0.402467
vt 0.369475 0.299954
vt 0.367890 0.394602
vt 0.489902 0.404581
vt 0.492822 0.304944
vt 0.494283 0.205307
vt 0.370268 0.205307
vt 0.246768 0.205307
vt 0.246397 0.288815
vt 0.245655 0.372324
vt 0.369475 0.110659
vt 0.492822 0.105669
vt 0.489902 0.006032
vt 0.367890 0.016011
vt 0.245655 0.038289
vt 0.246397 0.121798
vt 0.616755 0.103478
vt 0.619174 0.205307
vt 0.611917 0.001649
vt 0.616755 0.307135
vt 0.611917 0.408964
vt 0.123273 0.268175
vt 0.122972 0.331043
vt 0.123423 0.205306
vt 0.000156 0.205306
vt 0.000125 0.242784
vt 0.000064 0.280261
vt 0.123273 0.142438
vt 0.122972 0.079570
vt 0.000064 0.130352
vt 0.000125 0.167829
vt 0.122972 0.331043
vt 0.030806 0.283587
vt 0.245655 0.372324
vt 0.030806 0.283587
vt 0.000125 0.167829
vt 0.030806 0.127026
vt 0.000156 0.205306
vt 0.030806 0.127026
vt 0.805028 0.030806
vt 0.873826 0.071832
vt 0.721203 0.008146
vt 0.873826 0.071832
vt 0.938030 0.277186
vt 0.873826 0.338781
vt 0.968983 0.205307
vt 0.873826 0.338781
vt 0.805028 0.379807
vt 0.721203 0.402467
vt 0.000125 0.242784
vt 0.122972 0.079570
vt 0.245655 0.038289
vt 0.938030 0.133427
vt 0.611917 0.001649
vt 0.489902 0.006032
vt 0.611917 0.408964
vt 0.489902 0.404581
vt 0.367890 0.394602
vt 0.367890 0.016011
f 1/1/1 2/2/2 3/3/3
f 1/1/1 3/3/3 4/4/4
f 1/1/1 4/4/4 5/5/5
f 1/1/1 5/5/5 6/6/6
f 1/1/1 6/6/6 7/7/7
f 1/1/1 7/7/7 8/8/8
f 1/1/1 8/8/8 9/9/9
f 1/1/1 9/9/9 2/2/2
f 10/10/10 11/11/11 12/12/12
f 10/10/10 12/12/12 13/13/13
f 10/10/10 13/13/13 3/3/3
f 10/10/10 3/3/3 2/2/2
f 10/10/10 2/2/2 9/9/9
f 10/10/10 9/9/9 14/14/14
f 10/10/10 14/14/14 15/15/15
f 10/10/10 15/15/15 11/11/11
f 16/16/16 17/17/17 18/18/18
f 16/16/16 18/18/18 19/19/19
f 16/16/16 19/19/19 20/20/20
f 16/16/16 20/20/20 21/21/21
f 16/16/16 21/21/21 22/22/22
f 16/16/16 22/22/22 23/23/23
f 16/16/16 23/23/23 24/24/24
f 16/16/16 24/24/24 17/17/17
f 25/25/25 21/21/21 20/20/20
f 25/25/25 20/20/20 26/26/26
f 25/25/25 26/26/26 27/27/27
f 25/25/25 27/27/27 28/28/28
f 25/25/25 28/28/28 29/29/29
f 25/25/25 29/29/29 30/30/30
f 25/25/25 30/30/30 22/22/22
f 25/25/25 22/22/22 21/21/21
f 31/31/31 32/32/32 22/22/22
f 31/31/31 22/22/22 30/30/30
f 31/31/31 30/30/30 29/29/29
f 31/31/31 29/29/29 33/33/33
f 31/31/31 33/33/33 5/5/5
f 31/31/31 5/5/5 4/4/4
f 31/31/31 4/4/4 3/3/3
f 31/31/31 3/3/3 32/32/32
f 34/34/34 35/35/35 24/24/24
f 34/34/34 24/24/24 23/23/23
f 34/34/34 23/23/23 22/22/22
f 34/34/34 22/22/22 32/32/32
f 34/34/34 32/32/32 3/3/3
f 34/34/34 3/3/3 13/13/13
f 34/34/34 13/13/13 12/12/12
f 34/34/34 12/12/12 35/35/35
f 36/36/36 37/37/37 38/38/38
f 36/36/36 38/38/38 39/39/39
f 36/36/36 39/39/39 40/40/40
f 36/36/36 40/40/40 41/41/41
f 36/36/36 41/41/41 20/20/20
f 36/36/36 20/20/20 19/19/19
f 36/36/36 19/19/19 18/18/18
f 36/36/36 18/18/18 37/37/37
f 42/42/42 41/41/41 40/40/40
f 42/42/42 40/40/40 43/43/43
f 42/42/42 43/43/43 44/44/44
f 42/42/42 44/44/44 45/45/45
f 42/42/42 45/45/45 27/27/27
f 42/42/42 27/27/27 26/26/26
f 42/42/42 26/26/26 20/20/20
f 42/42/42 20/20/20 41/41/41
f 46/46/46 47/47/47 48/48/48
f 46/46/46 48/48/48 49/49/49
f 46/46/46 49/49/49 50/50/50
f 46/46/46 50/50/50 51/51/51
f 46/46/46 51/51/51 52/52/52
f 46/46/46 52/52/52 53/53/53
f 46/46/46 53/53/53 54/54/54
f 46/46/46 54/54/54 47/47/47
f 55/55/55 56/56/56 57/57/57
f 55/55/55 57/57/57 58/58/58
f 55/55/55 58/58/58 48/48/48
f 55/55/55 48/48/48 47/47/47
f 55/55/55 47/47/47 54/54/54
f 55/55/55 54/54/54 59/59/59
f 55/55/55 59/59/59 60/60/60
f 55/55/55 60/60/60 56/56/56
f 61/61/61 62/62/62 63/63/63
f 61/61/61 63/63/63 64/64/64
f 61/61/61 64/64/64 65/65/65
f 61/61/61 65/65/65 66/66/66
f 61/61/61 66/66/66 67/67/67
f 61/61/61 67/67/67 68/68/68
f 61/61/61 68/68/68 69/69/69
f 61/61/61 69/69/69 62/62/62
f 70/70/70 66/66/66 65/65/65
f 70/70/70 65/65/65 71/71/71
f 70/70/70 71/71/71 72/72/72
f 70/70/70 72/72/72 73/73/73
f 70/70/70 73/73/73 74/74/74
f 70/70/70 74/74/74 75/75/75
f 70/70/70 75/75/75 67/67/67
f 70/70/70 67/67/67 66/66/66
f 76/76/76 77/77/77 54/54/54
f 76/76/76 54/54/54 53/53/53
f 76/76/76 53/53/53 52/52/52
f 76/76/76 52/52/52 78/78/78
f 76/76/76 78/78/78 72/72/72
f 76/76/76 72/72/72 71/71/71
f 76/76/76 71/71/71 65/65/65
f 76/76/76 65/65/65 77/77/77
f 79/79/79 80/80/80 60/60/60
f 79/79/79 60/60/60 59/59/59
f 79/79/79 59/59/59 54/54/54
f 79/79/79 54/54/54 77/77/77
f 79/79/79 77/77/77 65/65/65
f 79/79/79 65/65/65 64/64/64
f 79/79/79 64/64/64 63/63/63
f 79/79/79 63/63/63 80/80/80
f 81/81/81 82/82/82 69/69/69
f 81/81/81 69/69/69 68/68/68
f 81/81/81 68/68/68 67/67/67
f 81/81/81 67/67/67 83/83/83
f 81/81/81 83/83/83 84/84/84
f 81/81/81 84/84/84 85/85/85
f 81/81/81 85/85/85 86/86/86
f 81/81/81 86/86/86 82/82/82
f 87/87/87 83/83/83 67/67/67
f 87/87/87 67/67/67 75/75/75
f 87/87/87 75/75/75 74/74/74
f 87/87/87 74/74/74 88/88/88
f 87/87/87 88/88/88 89/89/89
f 87/87/87 89/89/89 90/90/90
f 87/87/87 90/90/90 84/84/84
f 87/87/87 84/84/84 83/83/83
f 91/91/91 92/92/92 38/38/38
f 91/91/91 38/38/38 37/37/37
f 91/91/91 37/37/37 18/18/18
f 91/91/91 18/18/18 93/93/93
f 91/91/91 93/93/93 69/69/69
f 91/91/91 69/69/69 82/82/82
f 91/91/91 82/82/82 94/94/94
f 91/91/91 94/94/94 92/92/92
f 95/95/95 96/96/96 44/44/44
f 95/95/95 44/44/44 43/43/43
f 95/95/95 43/43/43 40/40/40
f 95/95/95 40/40/40 97/97/97
f 95/95/95 97/97/97 84/84/84
f 95/95/95 84/84/84 90/90/90
f 95/95/95 90/90/90 98/98/98
f 95/95/95 98/98/98 96/96/96
f 99/99/99 100/100/100 7/7/7
f 99/99/99 7/7/7 6/6/6
f 99/99/99 6/6/6 5/5/5
f 99/99/99 5/5/5 101/101/101
f 99/99/99 101/101/101 52/52/52
f 99/99/99 52/52/52 51/51/51
f 99/99/99 51/51/51 102/102/102
f 99/99/99 102/102/102 100/100/100
f 103/103/103 104/104/104 15/15/15
f 103/103/103 15/15/15 14/14/14
f 103/103/103 14/14/14 9/9/9
f 103/103/103 9/9/9 105/105/105
f 103/103/103 105/105/105 48/48/48
f 103/103/103 48/48/48 58/58/58
f 103/103/103 58/58/58 106/106/106
f 103/103/103 106/106/106 104/104/104
f 107/107/107 108/108/108 12/12/12
f 107/107/107 12/12/12 11/11/11
f 107/107/107 11/11/11 15/15/15
f 107/107/107 15/15/15 104/104/104
f 107/107/107 104/104/104 106/106/106
f 107/107/107 106/106/106 56/56/56
f 107/107/107 56/56/56 60/60/60
f 107/107/107 60/60/60 108/108/108
f 109/109/109 97/97/97 40/40/40
f 109/109/109 40/40/40 39/39/39
f 109/109/109 39/39/39 38/38/38
f 109/109/109 38/38/38 92/92/92
f 109/109/109 92/92/92 94/94/94
f 109/109/109 94/94/94 85/85/85
f 109/109/109 85/85/85 84/84/84
f 109/109/109 84/84/84 97/97/97
f 110/110/110 111/111/111 27/27/27
f 110/110/110 27/27/27 45/45/45
f 110/110/110 45/45/45 44/44/44
f 110/110/110 44/44/44 96/96/96
f 110/110/110 96/96/96 98/98/98
f 110/110/110 98/98/98 88/88/88
f 110/110/110 88/88/88 74/74/74
f 110/110/110 74/74/74 111/111/111
f 112/112/112 105/105/105 9/9/9
f 112/112/112 9/9/9 8/8/8
f 112/112/112 8/8/8 7/7/7
f 112/112/112 7/7/7 100/100/100
f 112/112/112 100/100/100 102/102/102
f 112/112/112 102/102/102 49/49/49
f 112/112/112 49/49/49 48/48/48
f 112/112/112 48/48/48 105/105/105
f 113/113/113 101/101/101 5/5/5
f 113/113/113 5/5/5 33/33/33
f 113/113/113 33/33/33 29/29/29
f 113/113/113 29/29/29 114/114/114
f 113/113/113 114/114/114 72/72/72
f 113/113/113 72/72/72 78/78/78
f 113/113/113 78/78/78 52/52/52
f 113/113/113 52/52/52 101/101/101
f 115/115/115 116/116/116 24/24/24
f 115/115/115 24/24/24 35/35/35
f 115/115/115 35/35/35 12/12/12
f 115/115/115 12/12/12 108/108/108
f 115/115/115 108/108/108 60/60/60
f 115/115/115 60/60/60 80/80/80
f 115/115/115 80/80/80 63/63/63
f 115/115/115 63/63/63 116/116/116
f 117/117/117 93/93/93 18/18/18
f 117/117/117 18/18/18 17/17/17
f 117/117/117 17/17/17 24/24/24
f 117/117/117 24/24/24 116/116/116
f 117/117/117 116/116/116 63/63/63
f 117/117/117 63/63/63 62/62/62
f 117/117/117 62/62/62 69/69/69
f 117/117/117 69/69/69 93/93/93
f 118/118/118 114/114/114 29/29/29
f 118/118/118 29/29/29 28/28/28
f 118/118/118 28/28/28 27/27/27
f 118/118/118 27/27/27 111/111/111
f 118/118/118 111/111/111 74/74/74
f 118/118/118 74/74/74 73/73/73
f 118/118/118 73/73/73 72/72/72
f 118/118/118 72/72/72 114/114/114
