v -2.394649 0.745196 -1.191421
v -2.393963 0.745041 -1.194013
v -2.396665 0.742706 -1.193835
v -2.397097 0.743083 -1.190904
v -2.397717 0.74345 -1.188704
v -2.395651 0.74525 -1.189463
v -2.39417 0.746121 -1.190398
v -2.392822 0.746578 -1.191877
v -2.391903 0.746659 -1.194137
v -2.394639 0.744788 -1.196601
v -2.395633 0.744534 -1.198547
v -2.397696 0.742637 -1.199023
v -2.397086 0.742619 -1.19679
v -2.392813 0.746224 -1.19636
v -2.394155 0.745541 -1.197754
v -2.404128 0.733946 -1.196061
v -2.404379 0.733911 -1.198242
v -2.40627 0.730658 -1.197402
v -2.406031 0.730682 -1.195472
v -2.405855 0.730787 -1.192914
v -2.403944 0.734069 -1.193169
v -2.401818 0.737198 -1.193411
v -2.402031 0.737085 -1.196438
v -2.402328 0.737074 -1.198721
v -2.40414 0.7344 -1.190293
v -2.406041 0.731084 -1.190371
v -2.406287 0.731362 -1.188463
v -2.4044 0.734708 -1.188135
v -2.402349 0.737907 -1.188149
v -2.402043 0.737561 -1.190404
v -2.399629 0.740496 -1.190586
v -2.399338 0.740084 -1.193633
v -2.400035 0.740912 -1.188302
v -2.399617 0.740014 -1.196709
v -2.400014 0.740066 -1.199031
v -2.407863 0.727382 -1.194565
v -2.408097 0.727392 -1.196009
v -2.409003 0.725541 -1.194868
v -2.40918 0.724875 -1.193767
v -2.409005 0.724884 -1.192455
v -2.407689 0.727438 -1.192653
v -2.407871 0.727682 -1.190758
v -2.409185 0.725081 -1.191158
v -2.409013 0.725911 -1.190174
v -2.40811 0.727918 -1.189334
v -2.394459 0.744996 -1.191366
v -2.393772 0.744837 -1.193997
v -2.391762 0.746503 -1.194124
v -2.392683 0.746426 -1.191833
v -2.394066 0.746011 -1.190358
v -2.39551 0.745104 -1.189403
v -2.397569 0.743309 -1.188649
v -2.396899 0.74289 -1.190853
v -2.396465 0.742509 -1.193819
v -2.394449 0.744582 -1.196623
v -2.395492 0.744381 -1.198583
v -2.394052 0.745426 -1.197776
v -2.392674 0.746068 -1.196379
v -2.396887 0.742421 -1.196809
v -2.397548 0.742489 -1.199054
v -2.403895 0.733788 -1.196073
v -2.404205 0.733793 -1.198263
v -2.40216 0.736946 -1.198744
v -2.401807 0.736915 -1.196451
v -2.401593 0.737029 -1.193397
v -2.40371 0.733913 -1.193156
v -2.405614 0.73064 -1.192902
v -2.405791 0.730534 -1.195485
v -2.40609 0.730546 -1.197424
v -2.403906 0.734247 -1.190255
v -2.401819 0.737395 -1.190364
v -2.402181 0.737784 -1.188106
v -2.404225 0.734594 -1.188094
v -2.406108 0.731256 -1.188422
v -2.405802 0.73094 -1.190334
v -2.399418 0.740316 -1.190541
v -2.399126 0.7399 -1.193619
v -2.399878 0.740779 -1.188254
v -2.399405 0.739829 -1.196724
v -2.399856 0.739928 -1.199058
v -2.407621 0.727237 -1.19458
v -2.407917 0.727283 -1.196034
v -2.407446 0.727295 -1.192642
v -2.408823 0.724777 -1.192446
v -2.408998 0.724767 -1.193779
v -2.408869 0.725461 -1.194883
v -2.407629 0.727541 -1.190719
v -2.40793 0.727814 -1.189292
v -2.408879 0.725834 -1.190147
v -2.409004 0.724976 -1.191128
v -2.408095 0.727347 -1.196504
v -2.409354 0.72488 -1.194821
v -2.40627 0.7306 -1.198058
v -2.408869 0.725461 -1.194883
v -2.409543 0.724167 -1.191278
v -2.409364 0.725251 -1.190119
v -2.409363 0.723986 -1.192385
v -2.408879 0.725834 -1.190147
v -2.395923 0.745204 -1.188779
v -2.39409 0.746286 -1.190108
v -2.397857 0.743511 -1.187943
v -2.394066 0.746011 -1.190358
v -2.392143 0.746633 -1.196288
v -2.394074 0.745659 -1.198066
v -2.391154 0.747129 -1.194172
v -2.394052 0.745426 -1.197776
v -2.395902 0.744382 -1.199216
v -2.397834 0.742578 -1.199785
v -2.409539 0.723991 -1.193507
v -2.40811 0.727951 -1.188837
v -2.40629 0.731408 -1.187806
v -2.392152 0.74697 -1.192009
v -2.4001 0.740992 -1.187516
v -2.402376 0.737968 -1.187375
v -2.400076 0.740022 -1.199821
v -2.402352 0.737013 -1.199495
v -2.404386 0.733847 -1.198981
v -2.404409 0.73476 -1.187395
vn -0.6414 0.7162 -0.2749
vn -0.6412 0.7649 -0.0615
vn -0.6859 0.7253 -0.0585
vn -0.6886 0.681 -0.2492
vn -0.7075 0.6652 -0.2386
vn -0.6429 0.7179 -0.2672
vn -0.5941 0.752 -0.2853
vn -0.574 0.7828 -0.2402
vn -0.5667 0.8213 -0.0658
vn -0.6422 0.7503 0.1568
vn -0.6436 0.7507 0.1488
vn -0.7082 0.6941 0.1287
vn -0.6894 0.7114 0.1367
vn -0.5746 0.8107 0.1122
vn -0.5948 0.7874 0.1615
vn -0.8419 0.5356 0.0651
vn -0.8491 0.5273 0.0287
vn -0.8658 0.4995 0.0278
vn -0.8584 0.5073 0.0753
vn -0.8691 0.4929 -0.0406
vn -0.8472 0.5294 -0.0434
vn -0.7987 0.5997 -0.0488
vn -0.7977 0.5985 0.0736
vn -0.8103 0.5841 0.0475
vn -0.8415 0.5184 -0.1516
vn -0.858 0.489 -0.1572
vn -0.8656 0.4887 -0.1092
vn -0.8489 0.516 -0.1143
vn -0.8099 0.5692 -0.1415
vn -0.7972 0.5794 -0.1696
vn -0.7399 0.6404 -0.2061
vn -0.7384 0.6722 -0.0544
vn -0.759 0.6233 -0.1881
vn -0.7405 0.6645 0.1004
vn -0.7595 0.6448 0.0852
vn -0.8627 0.4954 0.1018
vn -0.8737 0.4836 0.0516
vn -0.8788 0.4696 0.0845
vn -0.8862 0.4453 0.1274
vn -0.9044 0.4251 -0.0352
vn -0.8788 0.4754 -0.0392
vn -0.8621 0.4731 -0.1815
vn -0.8856 0.4197 -0.1991
vn -0.8784 0.4502 -0.1605
vn -0.8734 0.4692 -0.1301
vn 0.6547 -0.6937 0.3004
vn 0.6537 -0.7543 0.0607
vn 0.7007 -0.7111 0.0575
vn 0.6868 -0.6223 0.3756
vn 0.6749 -0.5605 0.48
vn 0.6753 -0.5772 0.459
vn 0.6946 -0.6011 0.3952
vn 0.6876 -0.6764 0.2638
vn 0.6858 -0.7254 0.0585
vn 0.6556 -0.7319 -0.1855
vn 0.6768 -0.642 -0.3601
vn 0.6765 -0.6287 -0.3835
vn 0.688 -0.6733 -0.2708
vn 0.6884 -0.7092 -0.1519
vn 0.6959 -0.6554 -0.2934
vn 0.8397 -0.5369 -0.0812
vn 0.8174 -0.5431 -0.1919
vn 0.7851 -0.5861 -0.1998
vn 0.7959 -0.5989 -0.0885
vn 0.7988 -0.5996 0.0488
vn 0.8473 -0.5293 0.0434
vn 0.8692 -0.4928 0.0405
vn 0.8547 -0.5106 -0.0938
vn 0.8134 -0.5398 -0.2165
vn 0.8392 -0.5173 0.1676
vn 0.7954 -0.5773 0.1844
vn 0.7842 -0.5473 0.2922
vn 0.8165 -0.5061 0.2778
vn 0.8124 -0.499 0.3015
vn 0.8541 -0.4894 0.176
vn 0.7382 -0.6376 0.2204
vn 0.7383 -0.6722 0.0544
vn 0.7358 -0.5883 0.3353
vn 0.7389 -0.664 -0.1149
vn 0.737 -0.6333 -0.2361
vn 0.8493 -0.5127 -0.1259
vn 0.7808 -0.5649 -0.2669
vn 0.873 -0.4861 0.04
vn 0.8456 -0.5319 0.0436
vn 0.7982 -0.5706 -0.1931
vn 0.7561 -0.5838 -0.2959
vn 0.8486 -0.4863 0.208
vn 0.7795 -0.5159 0.3552
vn 0.7548 -0.5298 0.3867
vn 0.7972 -0.5331 0.2832
vn -0.3578 -0.2914 -0.8871
vn -0.547 -0.5527 -0.6287
vn -0.2545 -0.1912 -0.948
vn 0.7561 -0.5838 -0.2959
vn -0.5101 -0.8063 0.2993
vn -0.5496 -0.4474 0.7055
vn -0.3822 -0.9212 0.0719
vn 0.7548 -0.5298 0.3867
vn 0.0138 0.5237 0.8518
vn 0.2477 0.6787 0.6914
vn -0.1079 0.367 0.9239
vn 0.6749 -0.5605 0.48
vn 0.6104 0.5812 -0.5381
vn 0.251 0.562 -0.7881
vn 0.8098 0.585 -0.0443
vn 0.6765 -0.6287 -0.3835
vn 0.0173 0.3836 -0.9233
vn -0.1044 0.2176 -0.9704
vn -0.5091 -0.8434 -0.1715
vn -0.3614 -0.1491 0.9204
vn -0.2582 -0.0404 0.9652
vn 0.6086 0.6587 0.4423
vn -0.1662 0.2355 0.9575
vn -0.1844 0.1513 0.9711
vn -0.1624 0.0826 -0.9832
vn -0.1805 -0.0027 -0.9836
vn -0.1968 -0.0873 -0.9765
vn -0.2007 0.0668 0.9774
vt 0.839504 0.118056
vt 0.856743 0.205307
vt 0.741230 0.205307
vt 0.734555 0.106726
vt 0.724541 0.032791
vt 0.813647 0.052618
vt 0.868992 0.081539
vt 0.913398 0.129584
vt 0.940923 0.205307
vt 0.839504 0.292557
vt 0.813647 0.357995
vt 0.724541 0.377822
vt 0.734555 0.303887
vt 0.913398 0.281029
vt 0.868992 0.329074
vt 0.369475 0.299954
vt 0.368286 0.370940
vt 0.245840 0.351447
vt 0.246397 0.288815
vt 0.246768 0.205307
vt 0.370268 0.205307
vt 0.494283 0.205307
vt 0.492822 0.304944
vt 0.490632 0.379672
vt 0.369475 0.110659
vt 0.246397 0.121798
vt 0.245841 0.059166
vt 0.368286 0.039673
vt 0.490632 0.030941
vt 0.492822 0.105669
vt 0.616755 0.103478
vt 0.619174 0.205307
vt 0.613127 0.027106
vt 0.616755 0.307135
vt 0.613126 0.383507
vt 0.123273 0.268175
vt 0.123047 0.315326
vt 0.054743 0.283353
vt 0.030912 0.249131
vt 0.030973 0.205306
vt 0.123423 0.205306
vt 0.123273 0.142438
vt 0.030912 0.161481
vt 0.054744 0.127260
vt 0.123047 0.095287
vt 0.839504 0.118056
vt 0.856743 0.205307
vt 0.968983 0.205307
vt 0.938030 0.133427
vt 0.876123 0.061548
vt 0.805028 0.030806
vt 0.721203 0.008146
vt 0.734555 0.106726
vt 0.741230 0.205307
vt 0.839504 0.292557
vt 0.805028 0.379807
vt 0.876123 0.349065
vt 0.938030 0.277186
vt 0.734555 0.303887
vt 0.721203 0.402467
vt 0.369475 0.299954
vt 0.367890 0.394602
vt 0.489902 0.404581
vt 0.492822 0.304944
vt 0.494283 0.205307
vt 0.370268 0.205307
vt 0.246768 0.205307
vt 0.246397 0.288815
vt 0.245655 0.372324
vt 0.369475 0.110659
vt 0.492822 0.105669
vt 0.489902 0.006032
vt 0.367890 0.016011
vt 0.245655 0.038289
vt 0.246397 0.121798
vt 0.616755 0.103478
vt 0.619174 0.205307
vt 0.611917 0.001649
vt 0.616755 0.307135
vt 0.611917 0.408964
vt 0.123273 0.268175
vt 0.122972 0.331043
vt 0.123423 0.205306
vt 0.000156 0.205306
vt 0.000125 0.242784
vt 0.000064 0.280261
vt 0.123273 0.142438
vt 0.122972 0.079570
vt 0.000064 0.130352
vt 0.000125 0.167829
vt 0.122972 0.331043
vt 0.030806 0.283587
vt 0.245655 0.372324
vt 0.030806 0.283587
vt 0.000125 0.167829
vt 0.030806 0.127026
vt 0.000156 0.205306
vt 0.030806 0.127026
vt 0.805028 0.030806
vt 0.873826 0.071832
vt 0.721203 0.008146
vt 0.873826 0.071832
vt 0.938030 0.277186
vt 0.873826 0.338781
vt 0.968983 0.205307
vt 0.873826 0.338781
vt 0.805028 0.379807
vt 0.721203 0.402467
vt 0.000125 0.242784
vt 0.122972 0.079570
vt 0.245655 0.038289
vt 0.938030 0.133427
vt 0.611917 0.001649
vt 0.489902 0.006032
vt 0.611917 0.408964
vt 0.489902 0.404581
vt 0.367890 0.394602
vt 0.367890 0.016011
f 1/1/1 2/2/2 3/3/3
f 1/1/1 3/3/3 4/4/4
f 1/1/1 4/4/4 5/5/5
f 1/1/1 5/5/5 6/6/6
f 1/1/1 6/6/6 7/7/7
f 1/1/1 7/7/7 8/8/8
f 1/1/1 8/8/8 9/9/9
f 1/1/1 9/9/9 2/2/2
f 10/10/10 11/11/11 12/12/12
f 10/10/10 12/12/12 13/13/13
f 10/10/10 13/13/13 3/3/3
f 10/10/10 3/3/3 2/2/2
f 10/10/10 2/2/2 9/9/9
f 10/10/10 9/9/9 14/14/14
f 10/10/10 14/14/14 15/15/15
f 10/10/10 15/15/15 11/11/11
f 16/16/16 17/17/17 18/18/18
f 16/16/16 18/18/18 19/19/19
f 16/16/16 19/19/19 20/20/20
f 16/16/16 20/20/20 21/21/21
f 16/16/16 21/21/21 22/22/22
f 16/16/16 22/22/22 23/23/23
f 16/16/16 23/23/23 24/24/24
f 16/16/16 24/24/24 17/17/17
f 25/25/25 21/21/21 20/20/20
f 25/25/25 20/20/20 26/26/26
f 25/25/25 26/26/26 27/27/27
f 25/25/25 27/27/27 28/28/28
f 25/25/25 28/28/28 29/29/29
f 25/25/25 29/29/29 30/30/30
f 25/25/25 30/30/30 22/22/22
f 25/25/25 22/22/22 21/21/21
f 31/31/31 32/32/32 22/22/22
f 31/31/31 22/22/22 30/30/30
f 31/31/31 30/30/30 29/29/29
f 31/31/31 29/29/29 33/33/33
f 31/31/31 33/33/33 5/5/5
f 31/31/31 5/5/5 4/4/4
f 31/31/31 4/4/4 3/3/3
f 31/31/31 3/3/3 32/32/32
f 34/34/34 35/35/35 24/24/24
f 34/34/34 24/24/24 23/23/23
f 34/34/34 23/23/23 22/22/22
f 34/34/34 22/22/22 32/32/32
f 34/34/34 32/32/32 3/3/3
f 34/34/34 3/3/3 13/13/13
f 34/34/34 13/13/13 12/12/12
f 34/34/34 12/12/12 35/35/35
f 36/36/36 37/37/37 38/38/38
f 36/36/36 38/38/38 39/39/39
f 36/36/36 39/39/39 40/40/40
f 36/36/36 40/40/40 41/41/41
f 36/36/36 41/41/41 20/20/20
f 36/36/36 20/20/20 19/19/19
f 36/36/36 19/19/19 18/18/18
f 36/36/36 18/18/18 37/37/37
f 42/42/42 41/41/41 40/40/40
f 42/42/42 40/40/40 43/43/43
f 42/42/42 43/43/43 44/44/44
f 42/42/42 44/44/44 45/45/45
f 42/42/42 45/45/45 27/27/27
f 42/42/42 27/27/27 26/26/26
f 42/42/42 26/26/26 20/20/20
f 42/42/42 20/20/20 41/41/41
f 46/46/46 47/47/47 48/48/48
f 46/46/46 48/48/48 49/49/49
f 46/46/46 49/49/49 50/50/50
f 46/46/46 50/50/50 51/51/51
f 46/46/46 51/51/51 52/52/52
f 46/46/46 52/52/52 53/53/53
f 46/46/46 53/53/53 54/54/54
f 46/46/46 54/54/54 47/47/47
f 55/55/55 56/56/56 57/57/57
f 55/55/55 57/57/57 58/58/58
f 55/55/55 58/58/58 48/48/48
f 55/55/55 48/48/48 47/47/47
f 55/55/55 47/47/47 54/54/54
f 55/55/55 54/54/54 59/59/59
f 55/55/55 59/59/59 60/60/60
f 55/55/55 60/60/60 56/56/56
f 61/61/61 62/62/62 63/63/63
f 61/61/61 63/63/63 64/64/64
f 61/61/61 64/64/64 65/65/65
f 61/61/61 65/65/65 66/66/66
f 61/61/61 66/66/66 67/67/67
f 61/61/61 67/67/67 68/68/68
f 61/61/61 68/68/68 69/69/69
f 61/61/61 69/69/69 62/62/62
f 70/70/70 66/66/66 65/65/65
f 70/70/70 65/65/65 71/71/71
f 70/70/70 71/71/71 72/72/72
f 70/70/70 72/72/72 73/73/73
f 70/70/70 73/73/73 74/74/74
f 70/70/70 74/74/74 75/75/75
f 70/70/70 75/75/75 67/67/67
f 70/70/70 67/67/67 66/66/66
f 76/76/76 77/77/77 54/54/54
f 76/76/76 54/54/54 53/53/53
f 76/76/76 53/53/53 52/52/52
f 76/76/76 52/52/52 78/78/78
f 76/76/76 78/78/78 72/72/72
f 76/76/76 72/72/72 71/71/71
f 76/76/76 71/71/71 65/65/65
f 76/76/76 65/65/65 77/77/77
f 79/79/79 80/80/80 60/60/60
f 79/79/79 60/60/60 59/59/59
f 79/79/79 59/59/59 54/54/54
f 79/79/79 54/54/54 77/77/77
f 79/79/79 77/77/77 65/65/65
f 79/79/79 65/65/65 64/64/64
f 79/79/79 64/64/64 63/63/63
f 79/79/79 63/63/63 80/80/80
f 81/81/81 82/82/82 69/69/69
f 81/81/81 69/69/69 68/68/68
f 81/81/81 68/68/68 67/67/67
f 81/81/81 67/67/67 83/83/83
f 81/81/81 83/83/83 84/84/84
f 81/81/81 84/84/84 85/85/85
f 81/81/81 85/85/85 86/86/86
f 81/81/81 86/86/86 82/82/82
f 87/87/87 83/83/83 67/67/67
f 87/87/87 67/67/67 75/75/75
f 87/87/87 75/75/75 74/74/74
f 87/87/87 74/74/74 88/88/88
f 87/87/87 88/88/88 89/89/89
f 87/87/87 89/89/89 90/90/90
f 87/87/87 90/90/90 84/84/84
f 87/87/87 84/84/84 83/83/83
f 91/91/91 92/92/92 38/38/38
f 91/91/91 38/38/38 37/37/37
f 91/91/91 37/37/37 18/18/18
f 91/91/91 18/18/18 93/93/93
f 91/91/91 93/93/93 69/69/69
f 91/91/91 69/69/69 82/82/82
f 91/91/91 82/82/82 94/94/94
f 91/91/91 94/94/94 92/92/92
f 95/95/95 96/96/96 44/44/44
f 95/95/95 44/44/44 43/43/43
f 95/95/95 43/43/43 40/40/40
f 95/95/95 40/40/40 97/97/97
f 95/95/95 97/97/97 84/84/84
f 95/95/95 84/84/84 90/90/90
f 95/95/95 90/90/90 98/98/98
f 95/95/95 98/98/98 96/96/96
f 99/99/99 100/100/100 7/7/7
f 99/99/99 7/7/7 6/6/6
f 99/99/99 6/6/6 5/5/5
f 99/99/99 5/5/5 101/101/101
f 99/99/99 101/101/101 52/52/52
f 99/99/99 52/52/52 51/51/51
f 99/99/99 51/51/51 102/102/102
f 99/99/99 102/102/102 100/100/100
f 103/103/103 104/104/104 15/15/15
f 103/103/103 15/15/15 14/14/14
f 103/103/103 14/14/14 9/9/9
f 103/103/103 9/9/9 105/105/105
f 103/103/103 105/105/105 48/48/48
f 103/103/103 48/48/48 58/58/58
f 103/103/103 58/58/58 106/106/106
f 103/103/103 106/106/106 104/104/104
f 107/107/107 108/108/108 12/12/12
f 107/107/107 12/12/12 11/11/11
f 107/107/107 11/11/11 15/15/15
f 107/107/107 15/15/15 104/104/104
f 107/107/107 104/104/104 106/106/106
f 107/107/107 106/106/106 56/56/56
f 107/107/107 56/56/56 60/60/60
f 107/107/107 60/60/60 108/108/108
f 109/109/109 97/97/97 40/40/40
f 109/109/109 40/40/40 39/39/39
f 109/109/109 39/39/39 38/38/38
f 109/109/109 38/38/38 92/92/92
f 109/109/109 92/92/92 94/94/94
f 109/109/109 94/94/94 85/85/85
f 109/109/109 85/85/85 84/84/84
f 109/109/109 84/84/84 97/97/97
f 110/110/110 111/111/111 27/27/27
f 110/110/110 27/27/27 45/45/45
f 110/110/110 45/45/45 44/44/44
f 110/110/110 44/44/44 96/96/96
f 110/110/110 96/96/96 98/98/98
f 110/110/110 98/98/98 88/88/88
f 110/110/110 88/88/88 74/74/74
f 110/110/110 74/74/74 111/111/111
f 112/112/112 105/105/105 9/9/9
f 112/112/112 9/9/9 8/8/8
f 112/112/112 8/8/8 7/7/7
f 112/112/112 7/7/7 100/100/100
f 112/112/112 100/100/100 102/102/102
f 112/112/112 102/102/102 49/49/49
f 112/112/112 49/49/49 48/48/48
f 112/112/112 48/48/48 105/105/105
f 113/113/113 101/101/101 5/5/5
f 113/113/113 5/5/5 33/33/33
f 113/113/113 33/33/33 29/29/29
f 113/113/113 29/29/29 114/114/114
f 113/113/113 114/114/114 72/72/72
f 113/113/113 72/72/72 78/78/78
f 113/113/113 78/78/78 52/52/52
f 113/113/113 52/52/52 101/101/101
f 115/115/115 116/116/116 24/24/24
f 115/115/115 24/24/24 35/35/35
f 115/115/115 35/35/35 12/12/12
f 115/115/115 12/12/12 108/108/108
f 115/115/115 108/108/108 60/60/60
f 115/115/115 60/60/60 80/80/80
f 115/115/115 80/80/80 63/63/63
f 115/115/115 63/63/63 116/116/116
f 117/117/117 93/93/93 18/18/18
f 117/117/117 18/18/18 17/17/17
f 117/117/117 17/17/17 24/24/24
f 117/117/117 24/24/24 116/116/116
f 117/117/117 116/116/116 63/63/63
f 117/117/117 63/63/63 62/62/62
f 117/117/117 62/62/62 69/69/69
f 117/117/117 69/69/69 93/93/93
f 118/118/118 114/114/114 29/29/29
f 118/118/118 29/29/29 28/28/28
f 118/118/118 28/28/28 27/27/27
f 118/118/118 27/27/27 111/111/111
f 118/118/118 111/111/111 74/74/74
f 118/118/118 74/74/74 73/73/73
f 118/118/118 73/73/73 72/72/72
f 118/118/118 72/72/72 114/114/114
