v -2.384599 0.797358 -1.178806
v -2.386227 0.797017 -1.181631
v -2.389156 0.795573 -1.178738
v -2.38696 0.796033 -1.175866
v -2.385523 0.796607 -1.173504
v -2.383791 0.797762 -1.176278
v -2.383024 0.798135 -1.178508
v -2.382966 0.798129 -1.181011
v -2.384042 0.797933 -1.183782
v -2.389006 0.797175 -1.18336
v -2.39152 0.79744 -1.184265
v -2.394303 0.796242 -1.182576
v -2.391968 0.795825 -1.181042
v -2.38678 0.79797 -1.184953
v -2.389283 0.797874 -1.184975
v -2.400332 0.789116 -1.172577
v -2.402348 0.789309 -1.174331
v -2.4044 0.786423 -1.171234
v -2.402606 0.786238 -1.169692
v -2.400316 0.786138 -1.167559
v -2.397754 0.789015 -1.170154
v -2.39506 0.79162 -1.172865
v -2.39777 0.791754 -1.175389
v -2.399898 0.791998 -1.177206
v -2.395425 0.78932 -1.167505
v -2.398266 0.786419 -1.165208
v -2.396795 0.78674 -1.163374
v -2.393749 0.789667 -1.165445
v -2.390903 0.792373 -1.167911
v -2.392636 0.791968 -1.170084
v -2.389727 0.794221 -1.172915
v -2.392148 0.79379 -1.175771
v -2.388028 0.794749 -1.170656
v -2.394936 0.794004 -1.178298
v -2.397156 0.794369 -1.180089
v -2.404572 0.78327 -1.166568
v -2.40595 0.783466 -1.167685
v -2.406433 0.781712 -1.16546
v -2.405915 0.780976 -1.164155
v -2.404687 0.780837 -1.163115
v -2.402834 0.783151 -1.165001
v -2.401333 0.783405 -1.163221
v -2.403695 0.781069 -1.161861
v -2.402439 0.781878 -1.161333
v -2.400271 0.783702 -1.161816
v -2.384471 0.797044 -1.178852
v -2.38613 0.796699 -1.181711
v -2.383973 0.797693 -1.183839
v -2.382871 0.797893 -1.181041
v -2.382946 0.797962 -1.178523
v -2.383679 0.797531 -1.176295
v -2.385408 0.796378 -1.173532
v -2.386825 0.795724 -1.175925
v -2.38905 0.795259 -1.178827
v -2.388943 0.796858 -1.183474
v -2.39149 0.797205 -1.184367
v -2.389258 0.797699 -1.185045
v -2.386739 0.797732 -1.185037
v -2.391892 0.795513 -1.181162
v -2.394261 0.79601 -1.182681
v -2.400208 0.788833 -1.172728
v -2.402265 0.789097 -1.174455
v -2.399826 0.79178 -1.177323
v -2.397658 0.791461 -1.17553
v -2.394926 0.791326 -1.172984
v -2.397607 0.788732 -1.170284
v -2.400161 0.785862 -1.167697
v -2.402473 0.785963 -1.169852
v -2.404312 0.786218 -1.171364
v -2.395258 0.789039 -1.167613
v -2.39248 0.791676 -1.170179
v -2.390775 0.792157 -1.16797
v -2.393614 0.789458 -1.165514
v -2.396653 0.786537 -1.163449
v -2.398091 0.786146 -1.165323
v -2.389582 0.793919 -1.172992
v -2.392028 0.793485 -1.175875
v -2.387907 0.794525 -1.1707
v -2.394842 0.7937 -1.178428
v -2.397099 0.794142 -1.180199
v -2.404438 0.782999 -1.166732
v -2.405862 0.783263 -1.16782
v -2.402677 0.782879 -1.165142
v -2.404569 0.780633 -1.163221
v -2.405815 0.780773 -1.164279
v -2.406364 0.781562 -1.165556
v -2.401154 0.783135 -1.163338
v -2.400126 0.783502 -1.161892
v -2.402334 0.781729 -1.161392
v -2.40356 0.780867 -1.161948
v -2.406373 0.783441 -1.16812
v -2.406924 0.781118 -1.164967
v -2.404961 0.786394 -1.171808
v -2.406364 0.781562 -1.165556
v -2.404422 0.7802 -1.161447
v -2.402924 0.781285 -1.160833
v -2.405252 0.779975 -1.162533
v -2.402334 0.781729 -1.161392
v -2.383468 0.797795 -1.17544
v -2.382658 0.798271 -1.178353
v -2.38499 0.796698 -1.172725
v -2.382946 0.797962 -1.178523
v -2.386021 0.798129 -1.185521
v -2.38943 0.797989 -1.185351
v -2.383283 0.798131 -1.184524
v -2.389258 0.797699 -1.185045
v -2.392348 0.797425 -1.184616
v -2.395066 0.796278 -1.183137
v -2.406318 0.780122 -1.163406
v -2.39985 0.783713 -1.161379
v -2.396239 0.786757 -1.162794
v -2.38238 0.798281 -1.181758
v -2.387405 0.794826 -1.169919
v -2.390266 0.792412 -1.16721
v -2.397874 0.79439 -1.180738
v -2.400578 0.791983 -1.177866
v -2.402985 0.789279 -1.174973
v -2.393128 0.78969 -1.164786
vn -0.4034 0.9135 0.0522
vn -0.2447 0.949 0.1985
vn -0.2847 0.9286 0.2381
vn -0.4285 0.8969 0.109
vn -0.4387 0.8888 0.1324
vn -0.3986 0.9153 0.0584
vn -0.3677 0.9299 0.0064
vn -0.3146 0.949 0.02
vn -0.1804 0.9742 0.1354
vn -0.1024 0.926 0.3632
vn -0.1086 0.9273 0.3581
vn -0.1827 0.8994 0.397
vn -0.1594 0.9081 0.3871
vn -0.0688 0.9592 0.2741
vn -0.0562 0.9429 0.3283
vn -0.3633 0.8042 0.4704
vn -0.3952 0.8008 0.4501
vn -0.4153 0.7811 0.4662
vn -0.376 0.7836 0.4946
vn -0.4657 0.7793 0.4192
vn -0.4419 0.8053 0.3952
vn -0.3918 0.853 0.3448
vn -0.3089 0.846 0.4346
vn -0.3392 0.8384 0.4265
vn -0.5144 0.7978 0.3143
vn -0.5381 0.7768 0.3271
vn -0.5109 0.7771 0.3674
vn -0.4949 0.7966 0.347
vn -0.4711 0.8329 0.2903
vn -0.4784 0.839 0.2593
vn -0.4461 0.8762 0.1824
vn -0.3332 0.8983 0.2862
vn -0.452 0.8665 0.2117
vn -0.2324 0.885 0.4033
vn -0.2614 0.8744 0.4086
vn -0.3645 0.7728 0.5195
vn -0.4094 0.7682 0.4921
vn -0.3948 0.7556 0.5227
vn -0.3781 0.7339 0.5643
vn -0.5063 0.729 0.4606
vn -0.4766 0.7666 0.4303
vn -0.5621 0.7646 0.3153
vn -0.6058 0.7244 0.329
vn -0.5658 0.7484 0.3461
vn -0.5362 0.7629 0.3612
vn 0.4364 -0.8985 -0.0468
vn 0.2558 -0.9438 -0.2095
vn 0.2981 -0.9208 -0.2513
vn 0.5302 -0.8474 -0.0274
vn 0.6111 -0.7903 0.0435
vn 0.5921 -0.8052 0.0314
vn 0.555 -0.8315 -0.0227
vn 0.4391 -0.893 -0.0986
vn 0.2846 -0.9286 -0.238
vn 0.0976 -0.9126 -0.3969
vn 0.0208 -0.8289 -0.5589
vn 0.0089 -0.8154 -0.5788
vn 0.0793 -0.8663 -0.4932
vn 0.1491 -0.9051 -0.3981
vn 0.0748 -0.8515 -0.519
vn 0.3505 -0.8039 -0.4805
vn 0.2589 -0.7964 -0.5464
vn 0.2189 -0.8242 -0.5222
vn 0.2975 -0.845 -0.4444
vn 0.3919 -0.8529 -0.3449
vn 0.4421 -0.8051 -0.3953
vn 0.4658 -0.7792 -0.4193
vn 0.36 -0.7844 -0.5051
vn 0.2407 -0.7909 -0.5626
vn 0.524 -0.7966 -0.3012
vn 0.4878 -0.8371 -0.2477
vn 0.562 -0.8099 -0.1677
vn 0.5864 -0.7828 -0.208
vn 0.6018 -0.7758 -0.1894
vn 0.5481 -0.7765 -0.3107
vn 0.4555 -0.8735 -0.1715
vn 0.3332 -0.8983 -0.2862
vn 0.5462 -0.8321 -0.096
vn 0.2217 -0.8833 -0.4131
vn 0.1478 -0.8487 -0.5078
vn 0.3341 -0.7829 -0.5249
vn 0.1769 -0.7999 -0.5735
vn 0.47 -0.7743 -0.4236
vn 0.4402 -0.8071 -0.3934
vn 0.2369 -0.8149 -0.5289
vn 0.1351 -0.8069 -0.5749
vn 0.5669 -0.7732 -0.2842
vn 0.6109 -0.7818 -0.1251
vn 0.6113 -0.787 -0.0831
vn 0.569 -0.801 -0.1858
vn -0.9274 -0.0992 -0.3607
vn -0.9589 -0.2836 0.0074
vn -0.8687 -0.0415 -0.4935
vn 0.1351 -0.8069 -0.5749
vn -0.3832 -0.5747 0.7231
vn -0.0284 -0.2451 0.9691
vn -0.4854 -0.7182 0.4986
vn 0.6113 -0.787 -0.0831
vn 0.7412 0.4429 0.5044
vn 0.8371 0.5081 0.2027
vn 0.6608 0.3391 0.6695
vn 0.6111 -0.7903 0.0435
vn 0.2227 0.3395 -0.9138
vn -0.1948 0.4652 -0.8635
vn 0.6913 0.2475 -0.6788
vn 0.0089 -0.8154 -0.5788
vn -0.4966 0.3915 -0.7747
vn -0.6601 0.2841 -0.6953
vn -0.7117 -0.5884 0.3836
vn 0.333 -0.0468 0.9418
vn 0.4654 0.0142 0.885
vn 0.9064 0.3681 -0.2073
vn 0.6047 0.2367 0.7604
vn 0.5764 0.1647 0.8004
vn -0.7483 0.1806 -0.6382
vn -0.7863 0.1082 -0.6083
vn -0.818 0.0353 -0.5742
vn 0.5446 0.0921 0.8336
vt 0.839504 0.118056
vt 0.856743 0.205307
vt 0.741230 0.205307
vt 0.734555 0.106726
vt 0.724541 0.032791
vt 0.813647 0.052618
vt 0.868992 0.081539
vt 0.913398 0.129584
vt 0.940923 0.205307
vt 0.839504 0.292557
vt 0.813647 0.357995
vt 0.724541 0.377822
vt 0.734555 0.303887
vt 0.913398 0.281029
vt 0.868992 0.329074
vt 0.369475 0.299954
vt 0.368286 0.370940
vt 0.245840 0.351447
vt 0.246397 0.288815
vt 0.246768 0.205307
vt 0.370268 0.205307
vt 0.494283 0.205307
vt 0.492822 0.304944
vt 0.490632 0.379672
vt 0.369475 0.110659
vt 0.246397 0.121798
vt 0.245841 0.059166
vt 0.368286 0.039673
vt 0.490632 0.030941
vt 0.492822 0.105669
vt 0.616755 0.103478
vt 0.619174 0.205307
vt 0.613127 0.027106
vt 0.616755 0.307135
vt 0.613126 0.383507
vt 0.123273 0.268175
vt 0.123047 0.315326
vt 0.054743 0.283353
vt 0.030912 0.249131
vt 0.030973 0.205306
vt 0.123423 0.205306
vt 0.123273 0.142438
vt 0.030912 0.161481
vt 0.054744 0.127260
vt 0.123047 0.095287
vt 0.839504 0.118056
vt 0.856743 0.205307
vt 0.968983 0.205307
vt 0.938030 0.133427
vt 0.876123 0.061548
vt 0.805028 0.030806
vt 0.721203 0.008146
vt 0.734555 0.106726
vt 0.741230 0.205307
vt 0.839504 0.292557
vt 0.805028 0.379807
vt 0.876123 0.349065
vt 0.938030 0.277186
vt 0.734555 0.303887
vt 0.721203 0.402467
vt 0.369475 0.299954
vt 0.367890 0.394602
vt 0.489902 0.404581
vt 0.492822 0.304944
vt 0.494283 0.205307
vt 0.370268 0.205307
vt 0.246768 0.205307
vt 0.246397 0.288815
vt 0.245655 0.372324
vt 0.369475 0.110659
vt 0.492822 0.105669
vt 0.489902 0.006032
vt 0.367890 0.016011
vt 0.245655 0.038289
vt 0.246397 0.121798
vt 0.616755 0.103478
vt 0.619174 0.205307
vt 0.611917 0.001649
vt 0.616755 0.307135
vt 0.611917 0.408964
vt 0.123273 0.268175
vt 0.122972 0.331043
vt 0.123423 0.205306
vt 0.000156 0.205306
vt 0.000125 0.242784
vt 0.000064 0.280261
vt 0.123273 0.142438
vt 0.122972 0.079570
vt 0.000064 0.130352
vt 0.000125 0.167829
vt 0.122972 0.331043
vt 0.030806 0.283587
vt 0.245655 0.372324
vt 0.030806 0.283587
vt 0.000125 0.167829
vt 0.030806 0.127026
vt 0.000156 0.205306
vt 0.030806 0.127026
vt 0.805028 0.030806
vt 0.873826 0.071832
vt 0.721203 0.008146
vt 0.873826 0.071832
vt 0.938030 0.277186
vt 0.873826 0.338781
vt 0.968983 0.205307
vt 0.873826 0.338781
vt 0.805028 0.379807
vt 0.721203 0.402467
vt 0.000125 0.242784
vt 0.122972 0.079570
vt 0.245655 0.038289
vt 0.938030 0.133427
vt 0.611917 0.001649
vt 0.489902 0.006032
vt 0.611917 0.408964
vt 0.489902 0.404581
vt 0.367890 0.394602
vt 0.367890 0.016011
f 1/1/1 2/2/2 3/3/3
f 1/1/1 3/3/3 4/4/4
f 1/1/1 4/4/4 5/5/5
f 1/1/1 5/5/5 6/6/6
f 1/1/1 6/6/6 7/7/7
f 1/1/1 7/7/7 8/8/8
f 1/1/1 8/8/8 9/9/9
f 1/1/1 9/9/9 2/2/2
f 10/10/10 11/11/11 12/12/12
f 10/10/10 12/12/12 13/13/13
f 10/10/10 13/13/13 3/3/3
f 10/10/10 3/3/3 2/2/2
f 10/10/10 2/2/2 9/9/9
f 10/10/10 9/9/9 14/14/14
f 10/10/10 14/14/14 15/15/15
f 10/10/10 15/15/15 11/11/11
f 16/16/16 17/17/17 18/18/18
f 16/16/16 18/18/18 19/19/19
f 16/16/16 19/19/19 20/20/20
f 16/16/16 20/20/20 21/21/21
f 16/16/16 21/21/21 22/22/22
f 16/16/16 22/22/22 23/23/23
f 16/16/16 23/23/23 24/24/24
f 16/16/16 24/24/24 17/17/17
f 25/25/25 21/21/21 20/20/20
f 25/25/25 20/20/20 26/26/26
f 25/25/25 26/26/26 27/27/27
f 25/25/25 27/27/27 28/28/28
f 25/25/25 28/28/28 29/29/29
f 25/25/25 29/29/29 30/30/30
f 25/25/25 30/30/30 22/22/22
f 25/25/25 22/22/22 21/21/21
f 31/31/31 32/32/32 22/22/22
f 31/31/31 22/22/22 30/30/30
f 31/31/31 30/30/30 29/29/29
f 31/31/31 29/29/29 33/33/33
f 31/31/31 33/33/33 5/5/5
f 31/31/31 5/5/5 4/4/4
f 31/31/31 4/4/4 3/3/3
f 31/31/31 3/3/3 32/32/32
f 34/34/34 35/35/35 24/24/24
f 34/34/34 24/24/24 23/23/23
f 34/34/34 23/23/23 22/22/22
f 34/34/34 22/22/22 32/32/32
f 34/34/34 32/32/32 3/3/3
f 34/34/34 3/3/3 13/13/13
f 34/34/34 13/13/13 12/12/12
f 34/34/34 12/12/12 35/35/35
f 36/36/36 37/37/37 38/38/38
f 36/36/36 38/38/38 39/39/39
f 36/36/36 39/39/39 40/40/40
f 36/36/36 40/40/40 41/41/41
f 36/36/36 41/41/41 20/20/20
f 36/36/36 20/20/20 19/19/19
f 36/36/36 19/19/19 18/18/18
f 36/36/36 18/18/18 37/37/37
f 42/42/42 41/41/41 40/40/40
f 42/42/42 40/40/40 43/43/43
f 42/42/42 43/43/43 44/44/44
f 42/42/42 44/44/44 45/45/45
f 42/42/42 45/45/45 27/27/27
f 42/42/42 27/27/27 26/26/26
f 42/42/42 26/26/26 20/20/20
f 42/42/42 20/20/20 41/41/41
f 46/46/46 47/47/47 48/48/48
f 46/46/46 48/48/48 49/49/49
f 46/46/46 49/49/49 50/50/50
f 46/46/46 50/50/50 51/51/51
f 46/46/46 51/51/51 52/52/52
f 46/46/46 52/52/52 53/53/53
f 46/46/46 53/53/53 54/54/54
f 46/46/46 54/54/54 47/47/47
f 55/55/55 56/56/56 57/57/57
f 55/55/55 57/57/57 58/58/58
f 55/55/55 58/58/58 48/48/48
f 55/55/55 48/48/48 47/47/47
f 55/55/55 47/47/47 54/54/54
f 55/55/55 54/54/54 59/59/59
f 55/55/55 59/59/59 60/60/60
f 55/55/55 60/60/60 56/56/56
f 61/61/61 62/62/62 63/63/63
f 61/61/61 63/63/63 64/64/64
f 61/61/61 64/64/64 65/65/65
f 61/61/61 65/65/65 66/66/66
f 61/61/61 66/66/66 67/67/67
f 61/61/61 67/67/67 68/68/68
f 61/61/61 68/68/68 69/69/69
f 61/61/61 69/69/69 62/62/62
f 70/70/70 66/66/66 65/65/65
f 70/70/70 65/65/65 71/71/71
f 70/70/70 71/71/71 72/72/72
f 70/70/70 72/72/72 73/73/73
f 70/70/70 73/73/73 74/74/74
f 70/70/70 74/74/74 75/75/75
f 70/70/70 75/75/75 67/67/67
f 70/70/70 67/67/67 66/66/66
f 76/76/76 77/77/77 54/54/54
f 76/76/76 54/54/54 53/53/53
f 76/76/76 53/53/53 52/52/52
f 76/76/76 52/52/52 78/78/78
f 76/76/76 78/78/78 72/72/72
f 76/76/76 72/72/72 71/71/71
f 76/76/76 71/71/71 65/65/65
f 76/76/76 65/65/65 77/77/77
f 79/79/79 80/80/80 60/60/60
f 79/79/79 60/60/60 59/59/59
f 79/79/79 59/59/59 54/54/54
f 79/79/79 54/54/54 77/77/77
f 79/79/79 77/77/77 65/65/65
f 79/79/79 65/65/65 64/64/64
f 79/79/79 64/64/64 63/63/63
f 79/79/79 63/63/63 80/80/80
f 81/81/81 82/82/82 69/69/69
f 81/81/81 69/69/69 68/68/68
f 81/81/81 68/68/68 67/67/67
f 81/81/81 67/67/67 83/83/83
f 81/81/81 83/83/83 84/84/84
f 81/81/81 84/84/84 85/85/85
f 81/81/81 85/85/85 86/86/86
f 81/81/81 86/86/86 82/82/82
f 87/87/87 83/83/83 67/67/67
f 87/87/87 67/67/67 75/75/75
f 87/87/87 75/75/75 74/74/74
f 87/87/87 74/74/74 88/88/88
f 87/87/87 88/88/88 89/89/89
f 87/87/87 89/89/89 90/90/90
f 87/87/87 90/90/90 84/84/84
f 87/87/87 84/84/84 83/83/83
f 91/91/91 92/92/92 38/38/38
f 91/91/91 38/38/38 37/37/37
f 91/91/91 37/37/37 18/18/18
f 91/91/91 18/18/18 93/93/93
f 91/91/91 93/93/93 69/69/69
f 91/91/91 69/69/69 82/82/82
f 91/91/91 82/82/82 94/94/94
f 91/91/91 94/94/94 92/92/92
f 95/95/95 96/96/96 44/44/44
f 95/95/95 44/44/44 43/43/43
f 95/95/95 43/43/43 40/40/40
f 95/95/95 40/40/40 97/97/97
f 95/95/95 97/97/97 84/84/84
f 95/95/95 84/84/84 90/90/90
f 95/95/95 90/90/90 98/98/98
f 95/95/95 98/98/98 96/96/96
f 99/99/99 100/100/100 7/7/7
f 99/99/99 7/7/7 6/6/6
f 99/99/99 6/6/6 5/5/5
f 99/99/99 5/5/5 101/101/101
f 99/99/99 101/101/101 52/52/52
f 99/99/99 52/52/52 51/51/51
f 99/99/99 51/51/51 102/102/102
f 99/99/99 102/102/102 100/100/100
f 103/103/103 104/104/104 15/15/15
f 103/103/103 15/15/15 14/14/14
f 103/103/103 14/14/14 9/9/9
f 103/103/103 9/9/9 105/105/105
f 103/103/103 105/105/105 48/48/48
f 103/103/103 48/48/48 58/58/58
f 103/103/103 58/58/58 106/106/106
f 103/103/103 106/106/106 104/104/104
f 107/107/107 108/108/108 12/12/12
f 107/107/107 12/12/12 11/11/11
f 107/107/107 11/11/11 15/15/15
f 107/107/107 15/15/15 104/104/104
f 107/107/107 104/104/104 106/106/106
f 107/107/107 106/106/106 56/56/56
f 107/107/107 56/56/56 60/60/60
f 107/107/107 60/60/60 108/108/108
f 109/109/109 97/97/97 40/40/40
f 109/109/109 40/40/40 39/39/39
f 109/109/109 39/39/39 38/38/38
f 109/109/109 38/38/38 92/92/92
f 109/109/109 92/92/92 94/94/94
f 109/109/109 94/94/94 85/85/85
f 109/109/109 85/85/85 84/84/84
f 109/109/109 84/84/84 97/97/97
f 110/110/110 111/111/111 27/27/27
f 110/110/110 27/27/27 45/45/45
f 110/110/110 45/45/45 44/44/44
f 110/110/110 44/44/44 96/96/96
f 110/110/110 96/96/96 98/98/98
f 110/110/110 98/98/98 88/88/88
f 110/110/110 88/88/88 74/74/74
f 110/110/110 74/74/74 111/111/111
f 112/112/112 105/105/105 9/9/9
f 112/112/112 9/9/9 8/8/8
f 112/112/112 8/8/8 7/7/7
f 112/112/112 7/7/7 100/100/100
f 112/112/112 100/100/100 102/102/102
f 112/112/112 102/102/102 49/49/49
f 112/112/112 49/49/49 48/48/48
f 112/112/112 48/48/48 105/105/105
f 113/113/113 101/101/101 5/5/5
f 113/113/113 5/5/5 33/33/33
f 113/113/113 33/33/33 29/29/29
f 113/113/113 29/29/29 114/114/114
f 113/113/113 114/114/114 72/72/72
f 113/113/113 72/72/72 78/78/78
f 113/113/113 78/78/78 52/52/52
f 113/113/113 52/52/52 101/101/101
f 115/115/115 116/116/116 24/24/24
f 115/115/115 24/24/24 35/35/35
f 115/115/115 35/35/35 12/12/12
f 115/115/115 12/12/12 108/108/108
f 115/115/115 108/108/108 60/60/60
f 115/115/115 60/60/60 80/80/80
f 115/115/115 80/80/80 63/63/63
f 115/115/115 63/63/63 116/116/116
f 117/117/117 93/93/93 18/18/18
f 117/117/117 18/18/18 17/17/17
f 117/117/117 17/17/17 24/24/24
f 117/117/117 24/24/24 116/116/116
f 117/117/117 116/116/116 63/63/63
f 117/117/117 63/63/63 62/62/62
f 117/117/117 62/62/62 69/69/69
f 117/117/117 69/69/69 93/93/93
f 118/118/118 114/114/114 29/29/29
f 118/118/118 29/29/29 28/28/28
f 118/118/118 28/28/28 27/27/27
f 118/118/118 27/27/27 111/111/111
f 118/118/118 111/111/111 74/74/74
f 118/118/118 74/74/74 73/73/73
f 118/118/118 73/73/73 72/72/72
f 118/118/118 72/72/72 114/114/114
