v -2.39659 0.742869 -1.189843
v -2.396061 0.74302 -1.192169
v -2.398419 0.740884 -1.192178
v -2.398716 0.740899 -1.189538
v -2.399202 0.74098 -1.187539
v -2.39742 0.742691 -1.188079
v -2.396147 0.743587 -1.188856
v -2.395003 0.744174 -1.190153
v -2.394259 0.744503 -1.192167
v -2.39674 0.743055 -1.194459
v -2.397681 0.743016 -1.196175
v -2.399499 0.74135 -1.196735
v -2.398885 0.74111 -1.194784
v -2.395132 0.744335 -1.194149
v -2.396358 0.743851 -1.195412
v -2.404982 0.733233 -1.194851
v -2.405274 0.733428 -1.196772
v -2.406874 0.730428 -1.19632
v -2.406601 0.730251 -1.194621
v -2.406365 0.730077 -1.192356
v -2.404728 0.733041 -1.19229
v -2.402897 0.735872 -1.192235
v -2.40318 0.736088 -1.194913
v -2.403516 0.736312 -1.196921
v -2.404815 0.733027 -1.18971
v -2.406454 0.730068 -1.190075
v -2.406617 0.730108 -1.188353
v -2.404983 0.733066 -1.187765
v -2.403212 0.735933 -1.187499
v -2.403007 0.735871 -1.189536
v -2.400914 0.738531 -1.189457
v -2.400745 0.738494 -1.192199
v -2.401209 0.738649 -1.187384
v -2.40109 0.738751 -1.194913
v -2.401518 0.739034 -1.196946
v -2.408147 0.727204 -1.194115
v -2.408401 0.727361 -1.195382
v -2.40914 0.725587 -1.194544
v -2.409251 0.72488 -1.193637
v -2.409054 0.724753 -1.192483
v -2.407932 0.727056 -1.192427
v -2.408037 0.727068 -1.190722
v -2.409176 0.724786 -1.191313
v -2.409005 0.725419 -1.190361
v -2.408209 0.727121 -1.189433
v -2.396417 0.742691 -1.189821
v -2.395887 0.742841 -1.192181
v -2.394131 0.744366 -1.192177
v -2.394876 0.744038 -1.190135
v -2.396052 0.743488 -1.188835
v -2.39729 0.742558 -1.188045
v -2.399067 0.740853 -1.187509
v -2.398535 0.740728 -1.18952
v -2.398237 0.740713 -1.192191
v -2.396568 0.742879 -1.194507
v -2.397554 0.742887 -1.196228
v -2.396265 0.743754 -1.195447
v -2.395006 0.744201 -1.194186
v -2.398706 0.740942 -1.194828
v -2.399366 0.741226 -1.196783
v -2.404772 0.7331 -1.194885
v -2.405117 0.733329 -1.196809
v -2.403366 0.736205 -1.19696
v -2.402979 0.735943 -1.194949
v -2.402694 0.735726 -1.192248
v -2.404516 0.732907 -1.192302
v -2.406148 0.729951 -1.192368
v -2.406386 0.730126 -1.194655
v -2.406714 0.730335 -1.196357
v -2.404604 0.732892 -1.1897
v -2.402804 0.735725 -1.189525
v -2.40306 0.735824 -1.187479
v -2.404824 0.732964 -1.187746
v -2.406455 0.730013 -1.188334
v -2.406238 0.729942 -1.190064
v -2.400722 0.738372 -1.189443
v -2.400553 0.738334 -1.192212
v -2.401065 0.73853 -1.18736
v -2.4009 0.738593 -1.194953
v -2.401376 0.738918 -1.196989
v -2.40793 0.727083 -1.194151
v -2.40824 0.727271 -1.195421
v -2.407713 0.726933 -1.192439
v -2.40889 0.724661 -1.192492
v -2.409089 0.724789 -1.193665
v -2.40902 0.725521 -1.19457
v -2.407819 0.726944 -1.19071
v -2.408046 0.727029 -1.189412
v -2.408884 0.725351 -1.190349
v -2.409012 0.724694 -1.191303
v -2.408414 0.727373 -1.195824
v -2.40944 0.724992 -1.194562
v -2.406894 0.730446 -1.196905
v -2.40902 0.725521 -1.19457
v -2.409483 0.723985 -1.191505
v -2.409305 0.724823 -1.190371
v -2.409355 0.723945 -1.192506
v -2.408884 0.725351 -1.190349
v -2.397639 0.742573 -1.187472
v -2.396069 0.743705 -1.188585
v -2.399304 0.74095 -1.186856
v -2.396052 0.743488 -1.188835
v -2.394541 0.744701 -1.194062
v -2.396298 0.74399 -1.195678
v -2.393603 0.744936 -1.192171
v -2.396265 0.743754 -1.195447
v -2.397939 0.742947 -1.196774
v -2.399645 0.741375 -1.19741
v -2.409547 0.724065 -1.193491
v -2.408194 0.727098 -1.188991
v -2.406599 0.730079 -1.187768
v -2.394418 0.744548 -1.190248
v -2.401244 0.738636 -1.18668
v -2.403213 0.735905 -1.186808
v -2.401598 0.739077 -1.197646
v -2.403562 0.73634 -1.19761
v -2.405302 0.733449 -1.197432
v -2.404968 0.733034 -1.187106
vn -0.6638 0.7292 -0.166
vn -0.6568 0.7522 0.0515
vn -0.7007 0.7116 0.0512
vn -0.7094 0.6901 -0.1432
vn -0.7276 0.6727 -0.1339
vn -0.665 0.7299 -0.1581
vn -0.6175 0.7671 -0.1736
vn -0.5964 0.7927 -0.1259
vn -0.5836 0.8104 0.0514
vn -0.6498 0.7118 0.2665
vn -0.6515 0.7132 0.2586
vn -0.7158 0.6579 0.234
vn -0.6969 0.6745 0.2434
vn -0.585 0.7785 0.2273
vn -0.603 0.7492 0.274
vn -0.8488 0.5051 0.1566
vn -0.8571 0.501 0.1196
vn -0.8733 0.4731 0.1161
vn -0.8643 0.4755 0.1638
vn -0.8789 0.4746 0.0475
vn -0.8578 0.5117 0.0483
vn -0.8108 0.5832 0.0496
vn -0.8054 0.5676 0.1709
vn -0.8186 0.556 0.1437
vn -0.8558 0.5138 -0.0605
vn -0.8719 0.4848 -0.0691
vn -0.8777 0.4787 -0.0212
vn -0.8618 0.5067 -0.0236
vn -0.8247 0.5636 -0.0456
vn -0.8132 0.5774 -0.0726
vn -0.7584 0.6435 -0.1035
vn -0.752 0.6572 0.0507
vn -0.7765 0.624 -0.0871
vn -0.7484 0.6312 0.2035
vn -0.7677 0.613 0.1867
vn -0.8674 0.4604 0.1888
vn -0.88 0.4544 0.138
vn -0.8836 0.4365 0.1693
vn -0.8891 0.4071 0.2092
vn -0.9127 0.4059 0.0458
vn -0.8883 0.4569 0.047
vn -0.8766 0.4718 -0.095
vn -0.8996 0.4204 -0.1181
vn -0.8916 0.4463 -0.0764
vn -0.886 0.4616 -0.0442
vn 0.6775 -0.7095 0.1936
vn 0.6692 -0.7413 -0.0514
vn 0.715 -0.6973 -0.0511
vn 0.711 -0.6468 0.2758
vn 0.7018 -0.598 0.3871
vn 0.7017 -0.6122 0.3643
vn 0.7191 -0.628 0.2974
vn 0.7089 -0.6873 0.1583
vn 0.7007 -0.7116 -0.0512
vn 0.6618 -0.6899 -0.2931
vn 0.6752 -0.5793 -0.4566
vn 0.6738 -0.5633 -0.4782
vn 0.69 -0.6209 -0.372
vn 0.6954 -0.6706 -0.2582
vn 0.6969 -0.6002 -0.3926
vn 0.8459 -0.5045 -0.1726
vn 0.8198 -0.4981 -0.2824
vn 0.7881 -0.5406 -0.2944
vn 0.8031 -0.5661 -0.1858
vn 0.8108 -0.5831 -0.0496
vn 0.8579 -0.5115 -0.0483
vn 0.8789 -0.4745 -0.0475
vn 0.86 -0.4766 -0.1824
vn 0.8149 -0.492 -0.3063
vn 0.854 -0.5145 0.0767
vn 0.8119 -0.5771 0.0876
vn 0.804 -0.5604 0.1986
vn 0.835 -0.517 0.1882
vn 0.8317 -0.5129 0.2127
vn 0.8687 -0.4875 0.0878
vn 0.7572 -0.6424 0.1181
vn 0.752 -0.6572 -0.0507
vn 0.758 -0.6072 0.2381
vn 0.7463 -0.6289 -0.2178
vn 0.7395 -0.5842 -0.3344
vn 0.8535 -0.4749 -0.2144
vn 0.7808 -0.5117 -0.3584
vn 0.8826 -0.4677 -0.0473
vn 0.8562 -0.5143 -0.0483
vn 0.801 -0.5258 -0.2862
vn 0.7555 -0.5275 -0.3886
vn 0.8643 -0.4884 0.1202
vn 0.801 -0.5368 0.265
vn 0.7776 -0.5549 0.2954
vn 0.8165 -0.5448 0.1909
vn -0.3842 -0.1924 -0.903
vn -0.5591 -0.4868 -0.6711
vn -0.2849 -0.0833 -0.9549
vn 0.7555 -0.5275 -0.3886
vn -0.4841 -0.8474 0.218
vn -0.5157 -0.5399 0.6652
vn -0.3626 -0.9316 -0.0257
vn 0.7776 -0.5549 0.2954
vn 0.0343 0.4189 0.9073
vn 0.2597 0.5976 0.7586
vn -0.0817 0.2524 0.9642
vn 0.7018 -0.598 0.3871
vn 0.5799 0.6543 -0.4853
vn 0.2122 0.657 -0.7234
vn 0.7971 0.6038 -0.0015
vn 0.6738 -0.5633 -0.4782
vn -0.0226 0.4909 -0.8709
vn -0.1427 0.329 -0.9335
vn -0.4994 -0.8285 -0.2531
vn -0.3257 -0.2653 0.9075
vn -0.2228 -0.1603 0.9616
vn 0.6118 0.6149 0.4976
vn -0.1362 0.1165 0.9838
vn -0.1525 0.0308 0.9878
vn -0.1988 0.195 -0.9604
vn -0.2155 0.1098 -0.9703
vn -0.2301 0.0247 -0.9728
vn -0.1669 -0.0539 0.9845
vt 0.839504 0.118056
vt 0.856743 0.205307
vt 0.741230 0.205307
vt 0.734555 0.106726
vt 0.724541 0.032791
vt 0.813647 0.052618
vt 0.868992 0.081539
vt 0.913398 0.129584
vt 0.940923 0.205307
vt 0.839504 0.292557
vt 0.813647 0.357995
vt 0.724541 0.377822
vt 0.734555 0.303887
vt 0.913398 0.281029
vt 0.868992 0.329074
vt 0.369475 0.299954
vt 0.368286 0.370940
vt 0.245840 0.351447
vt 0.246397 0.288815
vt 0.246768 0.205307
vt 0.370268 0.205307
vt 0.494283 0.205307
vt 0.492822 0.304944
vt 0.490632 0.379672
vt 0.369475 0.110659
vt 0.246397 0.121798
vt 0.245841 0.059166
vt 0.368286 0.039673
vt 0.490632 0.030941
vt 0.492822 0.105669
vt 0.616755 0.103478
vt 0.619174 0.205307
vt 0.613127 0.027106
vt 0.616755 0.307135
vt 0.613126 0.383507
vt 0.123273 0.268175
vt 0.123047 0.315326
vt 0.054743 0.283353
vt 0.030912 0.249131
vt 0.030973 0.205306
vt 0.123423 0.205306
vt 0.123273 0.142438
vt 0.030912 0.161481
vt 0.054744 0.127260
vt 0.123047 0.095287
vt 0.839504 0.118056
vt 0.856743 0.205307
vt 0.968983 0.205307
vt 0.938030 0.133427
vt 0.876123 0.061548
vt 0.805028 0.030806
vt 0.721203 0.008146
vt 0.734555 0.106726
vt 0.741230 0.205307
vt 0.839504 0.292557
vt 0.805028 0.379807
vt 0.876123 0.349065
vt 0.938030 0.277186
vt 0.734555 0.303887
vt 0.721203 0.402467
vt 0.369475 0.299954
vt 0.367890 0.394602
vt 0.489902 0.404581
vt 0.492822 0.304944
vt 0.494283 0.205307
vt 0.370268 0.205307
vt 0.246768 0.205307
vt 0.246397 0.288815
vt 0.245655 0.372324
vt 0.369475 0.110659
vt 0.492822 0.105669
vt 0.489902 0.006032
vt 0.367890 0.016011
vt 0.245655 0.038289
vt 0.246397 0.121798
vt 0.616755 0.103478
vt 0.619174 0.205307
vt 0.611917 0.001649
vt 0.616755 0.307135
vt 0.611917 0.408964
vt 0.123273 0.268175
vt 0.122972 0.331043
vt 0.123423 0.205306
vt 0.000156 0.205306
vt 0.000125 0.242784
vt 0.000064 0.280261
vt 0.123273 0.142438
vt 0.122972 0.079570
vt 0.000064 0.130352
vt 0.000125 0.167829
vt 0.122972 0.331043
vt 0.030806 0.283587
vt 0.245655 0.372324
vt 0.030806 0.283587
vt 0.000125 0.167829
vt 0.030806 0.127026
vt 0.000156 0.205306
vt 0.030806 0.127026
vt 0.805028 0.030806
vt 0.873826 0.071832
vt 0.721203 0.008146
vt 0.873826 0.071832
vt 0.938030 0.277186
vt 0.873826 0.338781
vt 0.968983 0.205307
vt 0.873826 0.338781
vt 0.805028 0.379807
vt 0.721203 0.402467
vt 0.000125 0.242784
vt 0.122972 0.079570
vt 0.245655 0.038289
vt 0.938030 0.133427
vt 0.611917 0.001649
vt 0.489902 0.006032
vt 0.611917 0.408964
vt 0.489902 0.404581
vt 0.367890 0.394602
vt 0.367890 0.016011
f 1/1/1 2/2/2 3/3/3
f 1/1/1 3/3/3 4/4/4
f 1/1/1 4/4/4 5/5/5
f 1/1/1 5/5/5 6/6/6
f 1/1/1 6/6/6 7/7/7
f 1/1/1 7/7/7 8/8/8
f 1/1/1 8/8/8 9/9/9
f 1/1/1 9/9/9 2/2/2
f 10/10/10 11/11/11 12/12/12
f 10/10/10 12/12/12 13/13/13
f 10/10/10 13/13/13 3/3/3
f 10/10/10 3/3/3 2/2/2
f 10/10/10 2/2/2 9/9/9
f 10/10/10 9/9/9 14/14/14
f 10/10/10 14/14/14 15/15/15
f 10/10/10 15/15/15 11/11/11
f 16/16/16 17/17/17 18/18/18
f 16/16/16 18/18/18 19/19/19
f 16/16/16 19/19/19 20/20/20
f 16/16/16 20/20/20 21/21/21
f 16/16/16 21/21/21 22/22/22
f 16/16/16 22/22/22 23/23/23
f 16/16/16 23/23/23 24/24/24
f 16/16/16 24/24/24 17/17/17
f 25/25/25 21/21/21 20/20/20
f 25/25/25 20/20/20 26/26/26
f 25/25/25 26/26/26 27/27/27
f 25/25/25 27/27/27 28/28/28
f 25/25/25 28/28/28 29/29/29
f 25/25/25 29/29/29 30/30/30
f 25/25/25 30/30/30 22/22/22
f 25/25/25 22/22/22 21/21/21
f 31/31/31 32/32/32 22/22/22
f 31/31/31 22/22/22 30/30/30
f 31/31/31 30/30/30 29/29/29
f 31/31/31 29/29/29 33/33/33
f 31/31/31 33/33/33 5/5/5
f 31/31/31 5/5/5 4/4/4
f 31/31/31 4/4/4 3/3/3
f 31/31/31 3/3/3 32/32/32
f 34/34/34 35/35/35 24/24/24
f 34/34/34 24/24/24 23/23/23
f 34/34/34 23/23/23 22/22/22
f 34/34/34 22/22/22 32/32/32
f 34/34/34 32/32/32 3/3/3
f 34/34/34 3/3/3 13/13/13
f 34/34/34 13/13/13 12/12/12
f 34/34/34 12/12/12 35/35/35
f 36/36/36 37/37/37 38/38/38
f 36/36/36 38/38/38 39/39/39
f 36/36/36 39/39/39 40/40/40
f 36/36/36 40/40/40 41/41/41
f 36/36/36 41/41/41 20/20/20
f 36/36/36 20/20/20 19/19/19
f 36/36/36 19/19/19 18/18/18
f 36/36/36 18/18/18 37/37/37
f 42/42/42 41/41/41 40/40/40
f 42/42/42 40/40/40 43/43/43
f 42/42/42 43/43/43 44/44/44
f 42/42/42 44/44/44 45/45/45
f 42/42/42 45/45/45 27/27/27
f 42/42/42 27/27/27 26/26/26
f 42/42/42 26/26/26 20/20/20
f 42/42/42 20/20/20 41/41/41
f 46/46/46 47/47/47 48/48/48
f 46/46/46 48/48/48 49/49/49
f 46/46/46 49/49/49 50/50/50
f 46/46/46 50/50/50 51/51/51
f 46/46/46 51/51/51 52/52/52
f 46/46/46 52/52/52 53/53/53
f 46/46/46 53/53/53 54/54/54
f 46/46/46 54/54/54 47/47/47
f 55/55/55 56/56/56 57/57/57
f 55/55/55 57/57/57 58/58/58
f 55/55/55 58/58/58 48/48/48
f 55/55/55 48/48/48 47/47/47
f 55/55/55 47/47/47 54/54/54
f 55/55/55 54/54/54 59/59/59
f 55/55/55 59/59/59 60/60/60
f 55/55/55 60/60/60 56/56/56
f 61/61/61 62/62/62 63/63/63
f 61/61/61 63/63/63 64/64/64
f 61/61/61 64/64/64 65/65/65
f 61/61/61 65/65/65 66/66/66
f 61/61/61 66/66/66 67/67/67
f 61/61/61 67/67/67 68/68/68
f 61/61/61 68/68/68 69/69/69
f 61/61/61 69/69/69 62/62/62
f 70/70/70 66/66/66 65/65/65
f 70/70/70 65/65/65 71/71/71
f 70/70/70 71/71/71 72/72/72
f 70/70/70 72/72/72 73/73/73
f 70/70/70 73/73/73 74/74/74
f 70/70/70 74/74/74 75/75/75
f 70/70/70 75/75/75 67/67/67
f 70/70/70 67/67/67 66/66/66
f 76/76/76 77/77/77 54/54/54
f 76/76/76 54/54/54 53/53/53
f 76/76/76 53/53/53 52/52/52
f 76/76/76 52/52/52 78/78/78
f 76/76/76 78/78/78 72/72/72
f 76/76/76 72/72/72 71/71/71
f 76/76/76 71/71/71 65/65/65
f 76/76/76 65/65/65 77/77/77
f 79/79/79 80/80/80 60/60/60
f 79/79/79 60/60/60 59/59/59
f 79/79/79 59/59/59 54/54/54
f 79/79/79 54/54/54 77/77/77
f 79/79/79 77/77/77 65/65/65
f 79/79/79 65/65/65 64/64/64
f 79/79/79 64/64/64 63/63/63
f 79/79/79 63/63/63 80/80/80
f 81/81/81 82/82/82 69/69/69
f 81/81/81 69/69/69 68/68/68
f 81/81/81 68/68/68 67/67/67
f 81/81/81 67/67/67 83/83/83
f 81/81/81 83/83/83 84/84/84
f 81/81/81 84/84/84 85/85/85
f 81/81/81 85/85/85 86/86/86
f 81/81/81 86/86/86 82/82/82
f 87/87/87 83/83/83 67/67/67
f 87/87/87 67/67/67 75/75/75
f 87/87/87 75/75/75 74/74/74
f 87/87/87 74/74/74 88/88/88
f 87/87/87 88/88/88 89/89/89
f 87/87/87 89/89/89 90/90/90
f 87/87/87 90/90/90 84/84/84
f 87/87/87 84/84/84 83/83/83
f 91/91/91 92/92/92 38/38/38
f 91/91/91 38/38/38 37/37/37
f 91/91/91 37/37/37 18/18/18
f 91/91/91 18/18/18 93/93/93
f 91/91/91 93/93/93 69/69/69
f 91/91/91 69/69/69 82/82/82
f 91/91/91 82/82/82 94/94/94
f 91/91/91 94/94/94 92/92/92
f 95/95/95 96/96/96 44/44/44
f 95/95/95 44/44/44 43/43/43
f 95/95/95 43/43/43 40/40/40
f 95/95/95 40/40/40 97/97/97
f 95/95/95 97/97/97 84/84/84
f 95/95/95 84/84/84 90/90/90
f 95/95/95 90/90/90 98/98/98
f 95/95/95 98/98/98 96/96/96
f 99/99/99 100/100/100 7/7/7
f 99/99/99 7/7/7 6/6/6
f 99/99/99 6/6/6 5/5/5
f 99/99/99 5/5/5 101/101/101
f 99/99/99 101/101/101 52/52/52
f 99/99/99 52/52/52 51/51/51
f 99/99/99 51/51/51 102/102/102
f 99/99/99 102/102/102 100/100/100
f 103/103/103 104/104/104 15/15/15
f 103/103/103 15/15/15 14/14/14
f 103/103/103 14/14/14 9/9/9
f 103/103/103 9/9/9 105/105/105
f 103/103/103 105/105/105 48/48/48
f 103/103/103 48/48/48 58/58/58
f 103/103/103 58/58/58 106/106/106
f 103/103/103 106/106/106 104/104/104
f 107/107/107 108/108/108 12/12/12
f 107/107/107 12/12/12 11/11/11
f 107/107/107 11/11/11 15/15/15
f 107/107/107 15/15/15 104/104/104
f 107/107/107 104/104/104 106/106/106
f 107/107/107 106/106/106 56/56/56
f 107/107/107 56/56/56 60/60/60
f 107/107/107 60/60/60 108/108/108
f 109/109/109 97/97/97 40/40/40
f 109/109/109 40/40/40 39/39/39
f 109/109/109 39/39/39 38/38/38
f 109/109/109 38/38/38 92/92/92
f 109/109/109 92/92/92 94/94/94
f 109/109/109 94/94/94 85/85/85
f 109/109/109 85/85/85 84/84/84
f 109/109/109 84/84/84 97/97/97
f 110/110/110 111/111/111 27/27/27
f 110/110/110 27/27/27 45/45/45
f 110/110/110 45/45/45 44/44/44
f 110/110/110 44/44/44 96/96/96
f 110/110/110 96/96/96 98/98/98
f 110/110/110 98/98/98 88/88/88
f 110/110/110 88/88/88 74/74/74
f 110/110/110 74/74/74 111/111/111
f 112/112/112 105/105/105 9/9/9
f 112/112/112 9/9/9 8/8/8
f 112/112/112 8/8/8 7/7/7
f 112/112/112 7/7/7 100/100/100
f 112/112/112 100/100/100 102/102/102
f 112/112/112 102/102/102 49/49/49
f 112/112/112 49/49/49 48/48/48
f 112/112/112 48/48/48 105/105/105
f 113/113/113 101/101/101 5/5/5
f 113/113/113 5/5/5 33/33/33
f 113/113/113 33/33/33 29/29/29
f 113/113/113 29/29/29 114/114/114
f 113/113/113 114/114/114 72/72/72
f 113/113/113 72/72/72 78/78/78
f 113/113/113 78/78/78 52/52/52
f 113/113/113 52/52/52 101/101/101
f 115/115/115 116/116/116 24/24/24
f 115/115/115 24/24/24 35/35/35
f 115/115/115 35/35/35 12/12/12
f 115/115/115 12/12/12 108/108/108
f 115/115/115 108/108/108 60/60/60
f 115/115/115 60/60/60 80/80/80
f 115/115/115 80/80/80 63/63/63
f 115/115/115 63/63/63 116/116/116
f 117/117/117 93/93/93 18/18/18
f 117/117/117 18/18/18 17/17/17
f 117/117/117 17/17/17 24/24/24
f 117/117/117 24/24/24 116/116/116
f 117/117/117 116/116/116 63/63/63
f 117/117/117 63/63/63 62/62/62
f 117/117/117 62/62/62 69/69/69
f 117/117/117 69/69/69 93/93/93
f 118/118/118 114/114/114 29/29/29
f 118/118/118 29/29/29 28/28/28
f 118/118/118 28/28/28 27/27/27
f 118/118/118 27/27/27 111/111/111
f 118/118/118 111/111/111 74/74/74
f 118/118/118 74/74/74 73/73/73
f 118/118/118 73/73/73 72/72/72
f 118/118/118 72/72/72 114/114/114
